ply
format ascii 1.0
comment Created by Blender 2.77 (sub 0) - www.blender.org, source file: 'Garrison0-Mesh.blend'
element vertex 184
property float x
property float y
property float z
property float nx
property float ny
property float nz
element face 352
property list uchar uint vertex_indices
end_header
60.545830 0.492337 -49.094894 -0.567888 -0.577654 0.586322
60.517685 14.502707 -50.580975 -0.586657 0.577013 -0.568194
60.517685 0.492337 -50.580971 -0.586657 -0.577013 -0.568194
60.545830 14.502707 -49.094894 -0.567888 0.577654 0.586322
75.086296 14.502707 -50.770782 0.567888 0.577654 -0.586322
75.114441 0.492337 -49.284702 0.586657 -0.577013 0.568194
75.086296 0.492337 -50.770782 0.567888 -0.577654 -0.586322
75.114441 14.502707 -49.284706 0.586657 0.577013 0.568194
72.207100 0.492337 -49.246822 -0.605426 -0.549974 0.575274
72.178955 0.492337 -50.732910 -0.623829 -0.549242 -0.555986
72.207100 14.502707 -49.246822 -0.569659 0.575823 0.586413
72.178955 14.502707 -50.732914 -0.588458 0.575182 -0.568194
63.266396 14.502707 -49.130341 0.584857 0.578875 0.568163
63.238251 14.502707 -50.616417 0.566088 0.579485 -0.586261
63.238251 0.492337 -50.616417 0.528550 -0.603198 -0.597278
63.266396 0.492337 -49.130337 0.547594 -0.602741 0.580370
72.287567 1.230371 -50.497543 -0.955718 -0.283731 -0.077853
72.306747 1.230371 -49.484898 -0.953185 -0.280526 0.112583
71.917114 1.230371 -50.492722 0.953215 -0.280526 -0.112552
71.936295 1.230371 -49.480072 0.955718 -0.283761 0.077822
72.040421 14.428669 -49.481430 0.909604 0.300180 0.287149
72.202621 14.428669 -49.483543 -0.899380 0.297128 0.320627
72.021240 14.428669 -50.494080 0.899380 0.297098 -0.320627
72.183449 14.428669 -50.496193 -0.909635 0.300119 -0.287149
63.261913 14.428669 -49.367054 0.909268 0.305826 0.282266
63.424110 14.428669 -49.369167 -0.899350 0.297189 0.320627
63.404930 14.428669 -50.381813 -0.909604 0.300180 -0.287149
63.242733 14.428669 -50.379711 0.899228 0.302774 -0.315744
63.509060 1.230371 -50.383175 -0.955718 -0.283761 -0.077853
63.528240 1.230371 -49.370518 -0.953185 -0.280526 0.112552
63.346855 1.230371 -50.381062 0.796655 -0.331919 -0.505081
63.366032 1.230371 -49.368404 0.812952 -0.334635 0.476547
72.044907 14.502707 -49.244720 0.588427 0.575182 0.568194
72.016769 14.502707 -50.730797 0.569689 0.575823 -0.586383
69.163094 14.502707 -50.693611 -0.586627 0.577044 -0.568194
69.191238 14.502707 -49.207539 -0.567858 0.577654 0.586322
72.044907 0.492337 -49.244717 0.623829 -0.549242 0.555956
69.191238 0.492337 -49.207535 -0.567888 -0.577654 0.586322
72.016769 0.492337 -50.730797 0.605426 -0.549974 -0.575274
69.163094 0.492337 -50.693607 -0.586627 -0.577044 -0.568194
69.079430 14.428669 -49.442848 0.909452 0.302957 0.284707
69.167564 14.428669 -50.456898 -0.909391 0.303140 -0.284707
69.060249 14.428669 -50.455505 0.899258 0.300058 -0.318155
69.186745 14.428669 -49.444252 -0.899228 0.300119 0.318186
69.186745 1.230371 -49.444248 -0.899258 -0.299997 0.318217
69.079430 1.230371 -49.442848 0.909452 -0.303018 0.284677
69.060249 1.230371 -50.455505 0.899289 -0.299966 -0.318186
69.167564 1.230371 -50.456894 -0.909421 -0.303049 -0.284738
65.853828 14.502707 -49.164051 0.584857 0.578845 0.568163
65.825684 14.502707 -50.650124 0.566088 0.579485 -0.586261
63.400448 14.502707 -50.618526 -0.588427 0.575182 -0.568194
63.428593 14.502707 -49.132454 -0.569659 0.575823 0.586413
65.853828 0.492337 -49.164047 0.547594 -0.602741 0.580370
63.428593 0.492337 -49.132450 -0.605426 -0.549974 0.575274
65.825684 0.492337 -50.650124 0.528550 -0.603198 -0.597278
63.400448 0.492337 -50.618530 -0.623829 -0.549242 -0.555956
69.083916 14.502707 -49.206135 0.586657 0.577013 0.568194
69.055771 14.502707 -50.692211 0.567888 0.577654 -0.586322
66.042763 14.502707 -50.652962 -0.588427 0.575182 -0.568194
66.070908 14.502707 -49.166882 -0.569659 0.575823 0.586413
69.083916 0.492337 -49.206135 0.586657 -0.577013 0.568194
66.070908 0.492337 -49.166882 -0.605426 -0.549974 0.575274
69.055771 0.492337 -50.692207 0.567888 -0.577654 -0.586322
66.042763 0.492337 -50.652958 -0.623829 -0.549242 -0.555956
65.849342 14.428669 -49.400764 0.909268 0.305765 0.282266
66.047241 14.428669 -50.416248 -0.909574 0.300302 -0.287149
65.830162 14.428669 -50.413422 0.899197 0.302774 -0.315744
66.066422 14.428669 -49.403591 -0.899319 0.297250 0.320627
66.170555 1.230371 -49.404953 -0.953185 -0.280526 0.112583
65.953468 1.230371 -49.402126 0.812952 -0.334635 0.476516
65.934288 1.230371 -50.414772 0.796655 -0.331919 -0.505081
66.151375 1.230371 -50.417599 -0.955718 -0.283761 -0.077853
60.553230 2.152333 -48.704128 -0.567888 -0.577654 0.586322
60.511414 3.413931 -50.912014 -0.586657 0.577013 -0.568194
60.511414 2.152333 -50.912014 -0.586657 -0.577013 -0.568194
60.553230 3.413931 -48.704128 -0.567888 0.577654 0.586322
75.232491 3.216710 -51.466133 0.590503 0.582415 -0.558611
75.288033 2.349554 -48.533794 0.608448 -0.581744 0.539750
75.232491 2.349553 -51.466133 0.590503 -0.582415 -0.558611
75.288033 3.216711 -48.533794 0.608448 0.581744 0.539750
60.553230 10.917116 -48.704128 -0.567888 -0.577654 0.586322
60.511414 12.178713 -50.912014 -0.586657 0.577013 -0.568194
60.511414 10.917115 -50.912014 -0.586657 -0.577013 -0.568194
60.553230 12.178713 -48.704128 -0.567888 0.577654 0.586322
75.232491 11.981491 -51.466133 0.590503 0.582415 -0.558611
75.288033 11.114335 -48.533794 0.608448 -0.581744 0.539750
75.232491 11.114334 -51.466133 0.590503 -0.582415 -0.558611
75.288033 11.981491 -48.533794 0.608448 0.581744 0.539720
73.585808 10.917115 -51.082367 -0.009186 -0.707083 -0.707022
73.627625 10.917116 -48.874474 0.009186 -0.707083 0.707022
73.627625 12.178713 -48.874474 0.009186 0.707083 0.707022
73.585808 12.178713 -51.082367 -0.009186 0.707083 -0.707022
75.121841 10.917116 -48.893948 0.586657 -0.577013 0.568194
75.080009 10.917115 -51.101830 0.567888 -0.577654 -0.586322
75.121841 12.178713 -48.893948 0.586657 0.577013 0.568194
75.080009 12.178713 -51.101830 0.567888 0.577654 -0.586322
73.914146 11.981492 -48.395123 -0.543779 0.573168 0.612995
73.914146 11.114335 -48.395123 -0.543779 -0.573168 0.612995
73.854034 11.981491 -51.568939 -0.563402 0.572588 -0.595569
73.854034 11.114334 -51.568939 -0.563402 -0.572588 -0.595569
75.121841 2.152333 -48.893948 0.586657 -0.577013 0.568194
73.627625 2.152333 -48.874474 0.009186 -0.707083 0.707022
75.080009 2.152333 -51.101826 0.567888 -0.577654 -0.586322
73.585808 2.152333 -51.082363 -0.009186 -0.707083 -0.707022
73.627625 3.413931 -48.874474 0.009186 0.707083 0.707022
73.585808 3.413931 -51.082363 -0.009186 0.707083 -0.707022
75.121841 3.413931 -48.893948 0.586657 0.577013 0.568194
75.080009 3.413931 -51.101826 0.567888 0.577654 -0.586322
73.914146 3.216711 -48.395123 -0.543779 0.573168 0.612995
73.914146 2.349554 -48.395123 -0.543779 -0.573168 0.612995
73.854034 3.216710 -51.568943 -0.563402 0.572588 -0.595569
73.854034 2.349553 -51.568939 -0.563402 -0.572588 -0.595538
73.863190 2.349554 -51.085972 -0.313608 -0.303018 -0.899869
73.863190 3.216711 -51.085972 -0.313608 0.303018 -0.899869
75.080009 3.216711 -51.101826 0.297647 0.903836 -0.307321
75.121841 3.216711 -48.893948 0.305216 0.905209 0.295602
73.905006 3.216711 -48.878086 -0.289285 0.299997 0.908994
73.905006 2.349554 -48.878086 -0.289285 -0.299997 0.908994
75.121841 2.349554 -48.893948 0.305216 -0.905209 0.295602
75.080009 2.349554 -51.101826 0.297647 -0.903836 -0.307321
73.863190 11.981491 -51.085976 -0.313608 0.303018 -0.899869
73.863190 11.114334 -51.085976 -0.313608 -0.303018 -0.899869
75.080009 11.981491 -51.101830 0.297647 0.903836 -0.307321
75.121841 11.981491 -48.893948 0.305216 0.905209 0.295602
73.905006 11.981491 -48.878090 -0.289285 0.299997 0.908994
73.905006 11.114335 -48.878090 -0.289285 -0.299997 0.908994
75.121841 11.114335 -48.893948 0.305216 -0.905209 0.295602
75.080009 11.114334 -51.101830 0.297647 -0.903836 -0.307321
60.365612 5.206728 -48.746471 -0.567888 -0.577654 0.586322
60.323799 8.460319 -50.954357 -0.586657 0.577013 -0.568194
60.323799 5.206727 -50.954357 -0.586657 -0.577013 -0.568194
60.365612 8.460319 -48.746471 -0.567888 0.577654 0.586322
62.845284 5.206727 -50.987217 0.567888 -0.577654 -0.586322
62.887096 5.206728 -48.779331 0.586657 -0.577013 0.568194
62.845284 8.460319 -50.987217 0.567888 0.577654 -0.586322
62.887096 8.460319 -48.779327 0.586657 0.577013 0.568194
61.822880 5.791045 -52.118896 0.564714 -0.578722 -0.588305
61.974079 5.791045 -47.612038 0.589709 -0.575976 0.566057
61.299911 5.791045 -52.115044 -0.589709 -0.575976 -0.566088
61.451103 5.791045 -47.608189 -0.564714 -0.578722 0.588305
61.961208 6.003525 -47.995598 0.896756 0.294809 -0.329966
61.835751 6.003524 -51.735332 0.911344 0.308267 0.272683
61.312771 6.003524 -51.731487 -0.896756 0.294809 0.329966
61.438232 6.003525 -47.991753 -0.911344 0.308267 -0.272683
61.835751 7.623682 -51.735332 0.911344 -0.308267 0.272683
61.961208 7.623683 -47.995598 0.896756 -0.294839 -0.329966
61.312771 7.623682 -51.731487 -0.896756 -0.294809 0.329966
61.438232 7.623683 -47.991756 -0.911344 -0.308267 -0.272683
61.974079 7.836162 -47.612034 0.589709 0.575976 0.566088
61.822880 7.836161 -52.118896 0.564714 0.578722 -0.588305
61.299911 7.836161 -52.115044 -0.589709 0.575976 -0.566088
61.451103 7.836162 -47.608189 -0.564745 0.578722 0.588305
61.451103 7.570562 -47.608189 -0.299753 0.901425 0.312265
61.974079 7.570562 -47.612034 0.302896 0.907559 0.290750
61.438232 7.570562 -47.991753 -0.302896 0.907559 -0.290750
61.961208 7.570562 -47.995598 0.299753 0.901425 -0.312265
61.312771 7.570561 -51.731487 -0.299753 0.901425 0.312265
61.835751 7.570561 -51.735332 0.302896 0.907559 0.290750
61.299911 7.570561 -52.115044 -0.302896 0.907559 -0.290750
61.822880 7.570561 -52.118896 0.299753 0.901425 -0.312265
62.096943 7.570562 -47.461704 0.589709 0.575976 0.566088
61.338367 7.570562 -47.456131 -0.564745 0.578722 0.588305
61.338367 6.136325 -47.456131 -0.564745 -0.578722 0.588305
62.096943 6.136325 -47.461704 0.589709 -0.575976 0.566088
61.974079 6.136325 -47.612034 0.302896 -0.907559 0.290750
61.451103 6.136325 -47.608189 -0.299753 -0.901425 0.312265
61.315361 7.570562 -48.142082 -0.589709 0.575976 -0.566088
62.073933 7.570562 -48.147659 0.564745 0.578722 -0.588305
62.073933 6.136325 -48.147659 0.564745 -0.578722 -0.588305
61.315361 6.136325 -48.142082 -0.589709 -0.575976 -0.566088
61.438232 6.136325 -47.991753 -0.302896 -0.907559 -0.290750
61.961208 6.136325 -47.995598 0.299753 -0.901425 -0.312265
61.958622 7.570561 -51.585007 0.589709 0.575976 0.566088
61.200047 7.570561 -51.579426 -0.564745 0.578722 0.588305
61.200047 6.136324 -51.579426 -0.564745 -0.578722 0.588305
61.958622 6.136324 -51.585007 0.589709 -0.575976 0.566088
61.835751 6.136324 -51.735332 0.302896 -0.907559 0.290750
61.312771 6.136324 -51.731487 -0.299753 -0.901425 0.312265
61.177040 7.570561 -52.265377 -0.589709 0.575976 -0.566088
61.935604 7.570561 -52.270958 0.564714 0.578722 -0.588305
61.935604 6.136324 -52.270958 0.564714 -0.578722 -0.588305
61.177040 6.136324 -52.265377 -0.589709 -0.575976 -0.566088
61.299911 6.136324 -52.115044 -0.302896 -0.907559 -0.290750
61.822880 6.136324 -52.118896 0.299753 -0.901425 -0.312265
3 0 1 2
3 3 1 0
3 4 5 6
3 4 7 5
3 5 8 6
3 6 8 9
3 7 10 5
3 5 10 8
3 11 4 6
3 11 6 9
3 7 4 11
3 10 7 11
3 3 12 1
3 12 13 1
3 14 0 2
3 15 0 14
3 15 3 0
3 12 3 15
3 1 13 2
3 13 14 2
3 16 17 18
3 17 19 18
3 17 20 19
3 21 20 17
3 22 23 16
3 22 16 18
3 20 21 23
3 20 23 22
3 24 25 26
3 24 26 27
3 28 29 30
3 29 31 30
3 29 25 31
3 25 24 31
3 27 26 30
3 26 28 30
3 32 33 34
3 35 32 34
3 36 37 38
3 38 37 39
3 32 35 36
3 36 35 37
3 33 38 39
3 34 33 39
3 40 41 42
3 40 43 41
3 44 45 46
3 47 44 46
3 43 40 45
3 44 43 45
3 42 47 46
3 42 41 47
3 48 49 50
3 51 48 50
3 52 53 54
3 54 53 55
3 48 51 52
3 52 51 53
3 49 54 55
3 50 49 55
3 56 57 58
3 59 56 58
3 60 61 62
3 62 61 63
3 56 59 60
3 60 59 61
3 57 62 63
3 58 57 63
3 64 65 66
3 64 67 65
3 68 69 70
3 71 68 70
3 67 64 69
3 68 67 69
3 65 71 70
3 66 65 70
3 17 16 9
3 8 17 9
3 19 36 38
3 18 19 38
3 10 21 17
3 10 17 8
3 19 32 36
3 20 32 19
3 16 11 9
3 23 11 16
3 33 18 38
3 33 22 18
3 21 11 23
3 10 11 21
3 33 20 22
3 33 32 20
3 25 50 26
3 51 50 25
3 13 24 27
3 13 12 24
3 29 28 55
3 53 29 55
3 30 31 14
3 31 15 14
3 51 25 29
3 51 29 53
3 31 12 15
3 24 12 31
3 28 50 55
3 26 50 28
3 13 27 30
3 13 30 14
3 57 40 42
3 57 56 40
3 43 34 41
3 35 34 43
3 45 60 62
3 46 45 62
3 44 47 39
3 37 44 39
3 45 56 60
3 40 56 45
3 35 43 44
3 35 44 37
3 57 42 46
3 57 46 62
3 47 34 39
3 41 34 47
3 49 64 66
3 49 48 64
3 67 58 65
3 59 58 67
3 70 69 54
3 69 52 54
3 68 71 63
3 61 68 63
3 69 48 52
3 64 48 69
3 59 67 68
3 59 68 61
3 49 66 70
3 49 70 54
3 71 58 63
3 65 58 71
3 72 73 74
3 75 73 72
3 76 77 78
3 76 79 77
3 80 81 82
3 83 81 80
3 84 85 86
3 84 87 85
3 88 80 82
3 89 80 88
3 83 90 81
3 90 91 81
3 89 83 80
3 90 83 89
3 81 91 82
3 91 88 82
3 92 89 93
3 93 89 88
3 94 95 91
3 90 94 91
3 87 96 85
3 96 97 85
3 98 84 86
3 98 86 99
3 100 101 102
3 102 101 103
3 103 72 74
3 101 72 103
3 75 104 73
3 104 105 73
3 106 107 105
3 104 106 105
3 79 108 77
3 108 109 77
3 101 75 72
3 104 75 101
3 110 76 78
3 110 78 111
3 73 105 74
3 105 103 74
3 105 112 103
3 105 113 112
3 105 107 113
3 107 114 113
3 107 106 115
3 107 115 114
3 106 104 116
3 115 106 116
3 117 104 101
3 116 104 117
3 100 117 101
3 118 117 100
3 119 100 102
3 119 118 100
3 112 102 103
3 112 119 102
3 91 120 88
3 120 121 88
3 91 95 120
3 95 122 120
3 95 94 123
3 95 123 122
3 94 90 124
3 123 94 124
3 125 90 89
3 124 90 125
3 92 125 89
3 126 125 92
3 127 92 93
3 127 126 92
3 121 93 88
3 121 127 93
3 114 79 76
3 115 79 114
3 77 119 78
3 77 118 119
3 122 87 84
3 123 87 122
3 85 127 86
3 85 126 127
3 96 123 124
3 96 87 123
3 97 96 125
3 96 124 125
3 85 97 126
3 126 97 125
3 127 121 99
3 86 127 99
3 121 98 99
3 120 98 121
3 122 84 98
3 120 122 98
3 108 115 116
3 108 79 115
3 109 108 117
3 108 116 117
3 77 109 118
3 118 109 117
3 119 112 111
3 78 119 111
3 112 110 111
3 113 110 112
3 114 76 110
3 113 114 110
3 128 129 130
3 131 129 128
3 132 133 130
3 133 128 130
3 134 133 132
3 134 135 133
3 135 134 129
3 131 135 129
3 133 131 128
3 135 131 133
3 129 132 130
3 129 134 132
3 136 137 138
3 137 139 138
3 140 141 142
3 143 140 142
3 144 145 146
3 145 147 146
3 148 149 150
3 151 148 150
3 140 137 136
3 141 140 136
3 143 142 138
3 139 143 138
3 149 145 144
3 149 148 145
3 147 150 146
3 151 150 147
3 148 151 152
3 153 148 152
3 147 145 154
3 145 155 154
3 145 148 153
3 145 153 155
3 152 147 154
3 151 147 152
3 144 146 156
3 157 144 156
3 150 149 158
3 149 159 158
3 144 157 159
3 149 144 159
3 146 150 158
3 156 146 158
3 160 161 162
3 163 160 162
3 137 164 139
3 164 165 139
3 166 167 168
3 166 168 169
3 170 140 143
3 170 171 140
3 171 164 140
3 140 164 137
3 167 160 163
3 167 163 168
3 161 166 169
3 162 161 169
3 165 143 139
3 165 170 143
3 172 173 174
3 175 172 174
3 141 176 142
3 176 177 142
3 178 179 180
3 178 180 181
3 182 136 138
3 182 183 136
3 179 172 175
3 179 175 180
3 183 141 136
3 183 176 141
3 177 182 142
3 142 182 138
3 173 178 181
3 174 173 181
3 163 162 164
3 164 162 165
3 161 160 153
3 161 153 152
3 168 171 169
3 171 170 169
3 155 167 166
3 154 155 166
3 163 171 168
3 163 164 171
3 155 160 167
3 153 160 155
3 170 162 169
3 165 162 170
3 161 154 166
3 161 152 154
3 175 174 176
3 176 174 177
3 173 172 157
3 173 157 156
3 180 183 181
3 183 182 181
3 159 179 178
3 158 159 178
3 175 183 180
3 175 176 183
3 159 172 179
3 157 172 159
3 182 174 181
3 177 174 182
3 173 158 178
3 173 156 158
