ply
format ascii 1.0
comment Created by Blender 2.77 (sub 0) - www.blender.org, source file: 'Garrison0-Mesh.blend'
element vertex 184
property float x
property float y
property float z
property float nx
property float ny
property float nz
element face 352
property list uchar uint vertex_indices
end_header
-29.177322 0.402260 -11.204434 -0.568194 -0.577349 0.586322
-29.186155 17.345543 -11.766463 -0.586322 0.577349 -0.568194
-29.186155 0.402260 -11.766460 -0.586322 -0.577349 -0.568194
-29.177322 17.345543 -11.204437 -0.568194 0.577349 0.586322
-16.660902 17.345543 -11.963226 0.568194 0.577349 -0.586322
-16.652069 0.402260 -11.401197 0.586322 -0.577349 0.568194
-16.660902 0.402260 -11.963223 0.568194 -0.577349 -0.586322
-16.652069 17.345543 -11.401200 0.586322 0.577349 0.568194
-19.151625 0.402260 -11.361930 -0.597888 -0.552721 0.580493
-19.160458 0.402260 -11.923961 -0.615833 -0.552721 -0.561418
-19.151625 17.345543 -11.361933 -0.568865 0.576434 0.586596
-19.160458 17.345543 -11.923964 -0.587024 0.576403 -0.568438
-26.838343 17.345543 -11.241180 0.585650 0.578265 0.567980
-26.847176 17.345543 -11.803211 0.567522 0.578265 -0.586077
-26.847176 0.402260 -11.803209 0.537248 -0.600330 -0.592364
-26.838343 0.402260 -11.241178 0.555620 -0.600330 0.575182
-19.069530 1.294796 -11.835841 -0.926664 -0.344707 0.149815
-19.063511 1.294796 -11.452863 -0.930906 -0.344707 -0.120609
-19.388027 1.294796 -11.830836 0.930906 -0.344707 0.120640
-19.382006 1.294796 -11.447858 0.926664 -0.344707 -0.149846
-19.292480 17.256008 -11.449266 0.908902 0.298868 0.290750
-19.153030 17.256008 -11.451454 -0.899319 0.298868 0.319163
-19.298500 17.256008 -11.832245 0.899319 0.298868 -0.319193
-19.159052 17.256008 -11.834437 -0.908902 0.298868 -0.290780
-26.839748 17.256008 -11.330702 0.909360 0.304117 0.283731
-26.700296 17.256008 -11.332894 -0.899289 0.298868 0.319193
-26.706316 17.256008 -11.715878 -0.908902 0.298868 -0.290780
-26.845770 17.256008 -11.713685 0.900021 0.304117 -0.312174
-26.616791 1.294796 -11.717281 -0.926664 -0.344707 0.149846
-26.610769 1.294796 -11.334298 -0.930906 -0.344707 -0.120640
-26.756248 1.294796 -11.715089 0.669393 -0.312204 -0.674093
-26.750227 1.294796 -11.332106 0.690237 -0.312204 0.652730
-19.291073 17.345543 -11.359740 0.587024 0.576403 0.568438
-19.299908 17.345543 -11.921771 0.568865 0.576403 -0.586596
-21.753332 17.345543 -11.883231 -0.586322 0.577319 -0.568194
-21.744499 17.345543 -11.321199 -0.568194 0.577349 0.586322
-19.291073 0.402260 -11.359737 0.615833 -0.552721 0.561418
-21.744499 0.402260 -11.321198 -0.568194 -0.577319 0.586322
-19.299908 0.402260 -11.921768 0.597888 -0.552721 -0.580493
-21.753332 0.402260 -11.883228 -0.586322 -0.577319 -0.568194
-21.838171 17.256008 -11.409276 0.909146 0.301492 0.287240
-21.751926 17.256008 -11.793705 -0.909146 0.301492 -0.287240
-21.844193 17.256008 -11.792254 0.899655 0.301492 -0.315683
-21.745907 17.256008 -11.410727 -0.899655 0.301492 0.315683
-21.745907 1.294796 -11.410724 -0.899655 -0.301492 0.315683
-21.838171 1.294796 -11.409273 0.909146 -0.301492 0.287240
-21.844193 1.294796 -11.792252 0.899686 -0.301492 -0.315653
-21.751926 1.294796 -11.793702 -0.909146 -0.301492 -0.287240
-24.613811 17.345543 -11.276127 0.585650 0.578265 0.567949
-24.622644 17.345543 -11.838153 0.567522 0.578265 -0.586077
-26.707722 17.345543 -11.805399 -0.587024 0.576403 -0.568438
-26.698889 17.345543 -11.243368 -0.568865 0.576403 0.586596
-24.613811 0.402260 -11.276124 0.555620 -0.600330 0.575182
-26.698889 0.402260 -11.243365 -0.597888 -0.552721 0.580493
-24.622644 0.402260 -11.838150 0.537278 -0.600330 -0.592364
-26.707722 0.402260 -11.805396 -0.615833 -0.552721 -0.561418
-21.836765 17.345543 -11.319750 0.586322 0.577349 0.568194
-21.845598 17.345543 -11.881781 0.568194 0.577349 -0.586322
-24.436014 17.345543 -11.841087 -0.587024 0.576403 -0.568438
-24.427181 17.345543 -11.279057 -0.568865 0.576403 0.586596
-21.836765 0.402260 -11.319747 0.586322 -0.577349 0.568194
-24.427181 0.402260 -11.279054 -0.597888 -0.552721 0.580493
-21.845598 0.402260 -11.881778 0.568194 -0.577349 -0.586322
-24.436014 0.402260 -11.841084 -0.615833 -0.552721 -0.561418
-24.615217 17.256008 -11.365648 0.909360 0.304147 0.283731
-24.434607 17.256008 -11.751561 -0.908902 0.298868 -0.290750
-24.621239 17.256008 -11.748631 0.900021 0.304117 -0.312174
-24.428587 17.256008 -11.368583 -0.899319 0.298837 0.319193
-24.339060 1.294796 -11.369987 -0.930906 -0.344707 -0.120640
-24.525702 1.294796 -11.367052 0.690237 -0.312204 0.652730
-24.531721 1.294796 -11.750035 0.669393 -0.312174 -0.674093
-24.345081 1.294796 -11.752965 -0.926664 -0.344707 0.149846
-29.175003 2.409759 -11.056646 -0.568194 -0.577349 0.586322
-29.188118 3.935458 -11.891662 -0.586322 0.577349 -0.568194
-29.188118 2.409759 -11.891662 -0.586322 -0.577349 -0.568194
-29.175003 3.935458 -11.056647 -0.568194 0.577349 0.586322
-16.528032 3.696952 -12.227570 0.578356 0.579394 -0.574236
-16.510609 2.648264 -11.118570 0.596118 -0.579394 0.555773
-16.528032 2.648264 -12.227570 0.578356 -0.579394 -0.574236
-16.510609 3.696952 -11.118570 0.596118 0.579394 0.555773
-29.175003 13.009348 -11.056648 -0.568194 -0.577349 0.586322
-29.188118 14.535047 -11.891664 -0.586322 0.577349 -0.568194
-29.188118 13.009348 -11.891663 -0.586322 -0.577349 -0.568194
-29.175003 14.535047 -11.056648 -0.568194 0.577349 0.586322
-16.528032 14.296541 -12.227571 0.578356 0.579394 -0.574236
-16.510609 13.247854 -11.118572 0.596118 -0.579394 0.555773
-16.528032 13.247854 -12.227571 0.578356 -0.579394 -0.574236
-16.510609 14.296541 -11.118572 0.596118 0.579394 0.555773
-17.947510 13.009348 -12.068245 -0.011109 -0.707083 -0.706992
-17.934395 13.009348 -11.233231 0.011078 -0.707083 0.706992
-17.934395 14.535047 -11.233231 0.011078 0.707083 0.706992
-17.947510 14.535047 -12.068245 -0.011109 0.707083 -0.706992
-16.649750 13.009348 -11.253411 0.586322 -0.577349 0.568194
-16.662865 13.009348 -12.088426 0.568194 -0.577349 -0.586322
-16.649750 14.535047 -11.253411 0.586322 0.577349 0.568194
-16.662865 14.535047 -12.088426 0.568194 0.577349 -0.586322
-17.693041 14.296541 -11.054319 -0.557726 0.575335 0.598224
-17.693041 13.247854 -11.054319 -0.557726 -0.575335 0.598224
-17.711899 14.296541 -12.254646 -0.576250 0.575335 -0.580401
-17.711899 13.247854 -12.254646 -0.576250 -0.575335 -0.580401
-16.649750 2.409759 -11.253409 0.586322 -0.577349 0.568194
-17.934395 2.409759 -11.233229 0.011078 -0.707083 0.706992
-16.662865 2.409759 -12.088424 0.568194 -0.577349 -0.586322
-17.947510 2.409759 -12.068243 -0.011109 -0.707083 -0.706992
-17.934395 3.935458 -11.233229 0.011078 0.707083 0.706992
-17.947510 3.935458 -12.068244 -0.011109 0.707083 -0.706992
-16.649750 3.935458 -11.253409 0.586322 0.577349 0.568194
-16.662865 3.935458 -12.088425 0.568194 0.577349 -0.586322
-17.693041 3.696952 -11.054317 -0.557726 0.575335 0.598224
-17.693041 2.648264 -11.054317 -0.557726 -0.575335 0.598224
-17.711899 3.696952 -12.254645 -0.576250 0.575335 -0.580401
-17.711899 2.648264 -12.254644 -0.576250 -0.575335 -0.580401
-17.709028 2.648264 -12.071994 -0.315683 -0.301492 -0.899655
-17.709028 3.696952 -12.071994 -0.315683 0.301492 -0.899655
-16.662865 3.696952 -12.088425 0.296731 0.904508 -0.306192
-16.649750 3.696952 -11.253409 0.306192 0.904508 0.296731
-17.695911 3.696952 -11.236974 -0.287240 0.301492 0.909146
-17.695911 2.648264 -11.236974 -0.287240 -0.301492 0.909146
-16.649750 2.648264 -11.253409 0.306192 -0.904508 0.296731
-16.662865 2.648264 -12.088424 0.296731 -0.904508 -0.306192
-17.709028 14.296541 -12.071996 -0.315683 0.301492 -0.899655
-17.709028 13.247854 -12.071995 -0.315683 -0.301492 -0.899655
-16.662865 14.296541 -12.088426 0.296731 0.904508 -0.306192
-16.649750 14.296541 -11.253411 0.306192 0.904508 0.296731
-17.695911 14.296541 -11.236976 -0.287271 0.301492 0.909146
-17.695911 13.247854 -11.236976 -0.287240 -0.301492 0.909146
-16.649750 13.247854 -11.253411 0.306192 -0.904508 0.296731
-16.662865 13.247854 -12.088426 0.296731 -0.904508 -0.306192
-29.335842 6.103555 -11.071061 -0.568194 -0.577349 0.586322
-29.348963 10.038251 -11.906076 -0.586322 0.577349 -0.568194
-29.348963 6.103555 -11.906076 -0.586322 -0.577349 -0.568194
-29.335842 10.038251 -11.071062 -0.568194 0.577349 0.586322
-27.181135 6.103555 -11.940134 0.568194 -0.577349 -0.586322
-27.168015 6.103555 -11.105114 0.586322 -0.577349 0.568194
-27.181135 10.038251 -11.940134 0.568194 0.577349 -0.586322
-27.168015 10.038251 -11.105115 0.586322 0.577349 0.568194
-28.030169 6.810194 -13.022580 0.568194 -0.577319 -0.586322
-27.982746 6.810195 -10.003674 0.586322 -0.577349 0.568194
-28.479794 6.810194 -13.015514 -0.586322 -0.577349 -0.568194
-28.432371 6.810195 -9.996613 -0.568194 -0.577349 0.586322
-27.986780 7.067153 -10.260603 0.899686 0.301492 -0.315653
-28.026134 7.067152 -12.765652 0.909146 0.301523 0.287240
-28.475760 7.067152 -12.758591 -0.899686 0.301492 0.315653
-28.436405 7.067153 -10.253542 -0.909146 0.301492 -0.287271
-28.026134 9.026472 -12.765652 0.909146 -0.301523 0.287240
-27.986780 9.026473 -10.260603 0.899686 -0.301492 -0.315653
-28.475760 9.026472 -12.758591 -0.899686 -0.301492 0.315653
-28.436405 9.026473 -10.253542 -0.909146 -0.301492 -0.287240
-27.982746 9.283432 -10.003674 0.586322 0.577349 0.568194
-28.030169 9.283431 -13.022580 0.568194 0.577319 -0.586322
-28.479794 9.283431 -13.015515 -0.586322 0.577349 -0.568194
-28.432371 9.283432 -9.996613 -0.568194 0.577349 0.586322
-28.432371 8.962232 -9.996613 -0.296731 0.904508 0.306192
-27.982746 8.962232 -10.003674 0.306192 0.904508 0.296731
-28.436405 8.962232 -10.253542 -0.306192 0.904508 -0.296731
-27.986780 8.962232 -10.260603 0.296731 0.904508 -0.306192
-28.475760 8.962232 -12.758591 -0.296731 0.904508 0.306192
-28.026134 8.962232 -12.765652 0.306192 0.904508 0.296731
-28.479794 8.962232 -13.015515 -0.306192 0.904508 -0.296731
-28.030169 8.962232 -13.022580 0.296731 0.904508 -0.306192
-27.879887 8.962232 -9.903991 0.586322 0.577349 0.568194
-28.532059 8.962232 -9.893747 -0.568194 0.577349 0.586322
-28.532059 7.227753 -9.893746 -0.568194 -0.577349 0.586322
-27.879887 7.227753 -9.903991 0.586322 -0.577349 0.568194
-27.982746 7.227753 -10.003674 0.306192 -0.904508 0.296731
-28.432371 7.227753 -9.996613 -0.296731 -0.904508 0.306192
-28.539276 8.962232 -10.353230 -0.586322 0.577349 -0.568194
-27.887102 8.962232 -10.363474 0.568194 0.577349 -0.586322
-27.887102 7.227753 -10.363474 0.568194 -0.577349 -0.586322
-28.539276 7.227753 -10.353230 -0.586322 -0.577349 -0.568194
-28.436405 7.227753 -10.253542 -0.306192 -0.904508 -0.296731
-27.986780 7.227753 -10.260603 0.296731 -0.904508 -0.306192
-27.923275 8.962232 -12.665964 0.586322 0.577349 0.568194
-28.575447 8.962232 -12.655720 -0.568194 0.577349 0.586322
-28.575447 7.227753 -12.655720 -0.568194 -0.577349 0.586322
-27.923275 7.227753 -12.665964 0.586322 -0.577349 0.568194
-28.026134 7.227753 -12.765652 0.306192 -0.904508 0.296731
-28.475760 7.227753 -12.758591 -0.296731 -0.904508 0.306192
-28.582664 8.962232 -13.115202 -0.586322 0.577349 -0.568194
-27.930490 8.962232 -13.125446 0.568194 0.577349 -0.586322
-27.930490 7.227753 -13.125446 0.568194 -0.577349 -0.586322
-28.582664 7.227753 -13.115202 -0.586322 -0.577349 -0.568194
-28.479794 7.227753 -13.015514 -0.306192 -0.904508 -0.296731
-28.030169 7.227753 -13.022580 0.296731 -0.904508 -0.306192
3 0 1 2
3 3 1 0
3 4 5 6
3 4 7 5
3 5 8 6
3 6 8 9
3 7 10 5
3 5 10 8
3 11 4 6
3 11 6 9
3 7 4 11
3 10 7 11
3 3 12 1
3 12 13 1
3 14 0 2
3 15 0 14
3 15 3 0
3 12 3 15
3 1 13 2
3 13 14 2
3 16 17 18
3 17 19 18
3 17 20 19
3 21 20 17
3 22 23 16
3 22 16 18
3 20 21 23
3 20 23 22
3 24 25 26
3 24 26 27
3 28 29 30
3 29 31 30
3 29 25 31
3 25 24 31
3 27 26 30
3 26 28 30
3 32 33 34
3 35 32 34
3 36 37 38
3 38 37 39
3 32 35 36
3 36 35 37
3 33 38 39
3 34 33 39
3 40 41 42
3 40 43 41
3 44 45 46
3 47 44 46
3 43 40 45
3 44 43 45
3 42 47 46
3 42 41 47
3 48 49 50
3 51 48 50
3 52 53 54
3 54 53 55
3 48 51 52
3 52 51 53
3 49 54 55
3 50 49 55
3 56 57 58
3 59 56 58
3 60 61 62
3 62 61 63
3 56 59 60
3 60 59 61
3 57 62 63
3 58 57 63
3 64 65 66
3 64 67 65
3 68 69 70
3 71 68 70
3 67 64 69
3 68 67 69
3 65 71 70
3 66 65 70
3 17 16 9
3 8 17 9
3 19 36 38
3 18 19 38
3 10 21 17
3 10 17 8
3 19 32 36
3 20 32 19
3 16 11 9
3 23 11 16
3 33 18 38
3 33 22 18
3 21 11 23
3 10 11 21
3 33 20 22
3 33 32 20
3 25 50 26
3 51 50 25
3 13 24 27
3 13 12 24
3 29 28 55
3 53 29 55
3 30 31 14
3 31 15 14
3 51 25 29
3 51 29 53
3 31 12 15
3 24 12 31
3 28 50 55
3 26 50 28
3 13 27 30
3 13 30 14
3 57 40 42
3 57 56 40
3 43 34 41
3 35 34 43
3 45 60 62
3 46 45 62
3 44 47 39
3 37 44 39
3 45 56 60
3 40 56 45
3 35 43 44
3 35 44 37
3 57 42 46
3 57 46 62
3 47 34 39
3 41 34 47
3 49 64 66
3 49 48 64
3 67 58 65
3 59 58 67
3 70 69 54
3 69 52 54
3 68 71 63
3 61 68 63
3 69 48 52
3 64 48 69
3 59 67 68
3 59 68 61
3 49 66 70
3 49 70 54
3 71 58 63
3 65 58 71
3 72 73 74
3 75 73 72
3 76 77 78
3 76 79 77
3 80 81 82
3 83 81 80
3 84 85 86
3 84 87 85
3 88 80 82
3 89 80 88
3 83 90 81
3 90 91 81
3 89 83 80
3 90 83 89
3 81 91 82
3 91 88 82
3 92 89 93
3 93 89 88
3 94 95 91
3 90 94 91
3 87 96 85
3 96 97 85
3 98 84 86
3 98 86 99
3 100 101 102
3 102 101 103
3 103 72 74
3 101 72 103
3 75 104 73
3 104 105 73
3 106 107 105
3 104 106 105
3 79 108 77
3 108 109 77
3 101 75 72
3 104 75 101
3 110 76 78
3 110 78 111
3 73 105 74
3 105 103 74
3 105 112 103
3 105 113 112
3 105 107 113
3 107 114 113
3 107 106 115
3 107 115 114
3 106 104 116
3 115 106 116
3 117 104 101
3 116 104 117
3 100 117 101
3 118 117 100
3 119 100 102
3 119 118 100
3 112 102 103
3 112 119 102
3 91 120 88
3 120 121 88
3 91 95 120
3 95 122 120
3 95 94 123
3 95 123 122
3 94 90 124
3 123 94 124
3 125 90 89
3 124 90 125
3 92 125 89
3 126 125 92
3 127 92 93
3 127 126 92
3 121 93 88
3 121 127 93
3 114 79 76
3 115 79 114
3 77 119 78
3 77 118 119
3 122 87 84
3 123 87 122
3 85 127 86
3 85 126 127
3 96 123 124
3 96 87 123
3 97 96 125
3 96 124 125
3 85 97 126
3 126 97 125
3 127 121 99
3 86 127 99
3 121 98 99
3 120 98 121
3 122 84 98
3 120 122 98
3 108 115 116
3 108 79 115
3 109 108 117
3 108 116 117
3 77 109 118
3 118 109 117
3 119 112 111
3 78 119 111
3 112 110 111
3 113 110 112
3 114 76 110
3 113 114 110
3 128 129 130
3 131 129 128
3 132 133 130
3 133 128 130
3 134 133 132
3 134 135 133
3 135 134 129
3 131 135 129
3 133 131 128
3 135 131 133
3 129 132 130
3 129 134 132
3 136 137 138
3 137 139 138
3 140 141 142
3 143 140 142
3 144 145 146
3 145 147 146
3 148 149 150
3 151 148 150
3 140 137 136
3 141 140 136
3 143 142 138
3 139 143 138
3 149 145 144
3 149 148 145
3 147 150 146
3 151 150 147
3 148 151 152
3 153 148 152
3 147 145 154
3 145 155 154
3 145 148 153
3 145 153 155
3 152 147 154
3 151 147 152
3 144 146 156
3 157 144 156
3 150 149 158
3 149 159 158
3 144 157 159
3 149 144 159
3 146 150 158
3 156 146 158
3 160 161 162
3 163 160 162
3 137 164 139
3 164 165 139
3 166 167 168
3 166 168 169
3 170 140 143
3 170 171 140
3 171 164 140
3 140 164 137
3 167 160 163
3 167 163 168
3 161 166 169
3 162 161 169
3 165 143 139
3 165 170 143
3 172 173 174
3 175 172 174
3 141 176 142
3 176 177 142
3 178 179 180
3 178 180 181
3 182 136 138
3 182 183 136
3 179 172 175
3 179 175 180
3 183 141 136
3 183 176 141
3 177 182 142
3 142 182 138
3 173 178 181
3 174 173 181
3 163 162 164
3 164 162 165
3 161 160 153
3 161 153 152
3 168 171 169
3 171 170 169
3 155 167 166
3 154 155 166
3 163 171 168
3 163 164 171
3 155 160 167
3 153 160 155
3 170 162 169
3 165 162 170
3 161 154 166
3 161 152 154
3 175 174 176
3 176 174 177
3 173 172 157
3 173 157 156
3 180 183 181
3 183 182 181
3 159 179 178
3 158 159 178
3 175 183 180
3 175 176 183
3 159 172 179
3 157 172 159
3 182 174 181
3 177 174 182
3 173 158 178
3 173 156 158
