ply
format ascii 1.0
comment Created by Blender 2.77 (sub 0) - www.blender.org, source file: 'Bench1.blend'
element vertex 490
property float x
property float y
property float z
property float nx
property float ny
property float nz
property uchar red
property uchar green
property uchar blue
element face 265
property list uchar uint vertex_indices
end_header
0.818160 0.254215 0.050284 -0.823617 0.567146 0.000000 117 117 117
0.706164 0.091571 -0.545823 -0.823617 0.567146 0.000000 117 117 117
0.706164 0.091571 0.173820 -0.823617 0.567146 0.000000 117 117 117
1.233719 -0.032856 0.173820 0.000000 -0.985380 -0.170373 117 117 117
0.674702 -0.040277 0.216737 0.000000 -0.985380 -0.170373 117 117 117
0.706164 -0.032856 0.173820 0.000000 -0.985380 -0.170373 117 117 117
0.818160 0.254215 0.050284 0.000000 0.604857 0.796334 117 117 117
1.233719 0.091571 0.173820 0.000000 0.604857 0.796334 117 117 117
1.121722 0.254215 0.050284 0.000000 0.604857 0.796334 117 117 117
1.121722 0.254215 -0.422287 -0.000000 0.604857 -0.796334 117 117 117
0.706164 0.091571 -0.545823 -0.000000 0.604857 -0.796334 117 117 117
0.818160 0.254215 -0.422287 -0.000000 0.604857 -0.796334 117 117 117
1.121722 0.254215 0.050284 0.823617 0.567146 0.000000 117 117 117
1.233719 0.091571 -0.545823 0.823617 0.567146 0.000000 117 117 117
1.121722 0.254215 -0.422287 0.823617 0.567146 0.000000 117 117 117
1.121722 0.254215 0.050284 1.000000 0.000000 0.000000 117 117 117
1.121722 0.635707 -0.031393 1.000000 0.000000 0.000000 117 117 117
1.121722 0.723523 0.050284 1.000000 0.000000 0.000000 117 117 117
0.818160 0.254215 -0.422287 -0.000000 -0.000000 -1.000000 117 117 117
1.062052 0.312920 -0.422287 -0.000000 -0.000000 -1.000000 117 117 117
1.121722 0.254215 -0.422287 -0.000000 -0.000000 -1.000000 117 117 117
1.121722 0.723523 0.050284 -0.000000 -0.000000 1.000000 117 117 117
1.062052 0.312920 0.050284 -0.000000 -0.000000 1.000000 117 117 117
1.121722 0.254215 0.050284 -0.000000 -0.000000 1.000000 117 117 117
0.818160 0.254215 -0.422287 -1.000000 -0.000000 0.000000 117 117 117
0.818160 0.342030 -0.031393 -1.000000 -0.000000 0.000000 117 117 117
0.818160 0.342030 -0.340610 -1.000000 -0.000000 0.000000 117 117 117
0.706164 -0.032856 -0.545823 0.000000 -1.000000 -0.000000 117 117 117
1.233719 -0.032856 0.173820 0.000000 -1.000000 -0.000000 117 117 117
0.706164 -0.032856 0.173820 0.000000 -1.000000 -0.000000 117 117 117
1.233719 -0.032856 -0.545823 -0.229557 -0.973295 0.000000 117 117 117
1.265181 -0.040277 0.216737 -0.229557 -0.973295 0.000000 117 117 117
1.233719 -0.032856 0.173820 -0.229557 -0.973295 0.000000 117 117 117
0.706164 0.091571 0.173820 0.000000 0.891851 0.452328 117 117 117
1.265181 0.069805 0.216737 0.000000 0.891851 0.452328 117 117 117
1.233719 0.091571 0.173820 0.000000 0.891851 0.452328 117 117 117
1.233719 0.091571 0.173820 0.568953 0.822370 0.000000 117 117 117
1.265181 0.069805 -0.588740 0.568953 0.822370 0.000000 117 117 117
1.233719 0.091571 -0.545823 0.568953 0.822370 0.000000 117 117 117
1.121722 0.635707 -0.031393 0.738469 -0.674288 0.000000 117 117 117
1.092031 0.603190 -0.310365 0.738469 -0.674288 0.000000 117 117 117
1.121722 0.635707 -0.340610 0.738469 -0.674288 0.000000 117 117 117
0.818160 0.723523 0.050284 -1.000000 0.000000 0.000000 117 117 117
0.818160 0.635707 -0.340610 -1.000000 0.000000 0.000000 117 117 117
0.818160 0.635707 -0.031393 -1.000000 0.000000 0.000000 117 117 117
0.818160 0.254215 0.050284 -1.000000 0.000000 0.000000 117 117 117
0.818160 0.723523 -0.422287 -1.000000 -0.000000 0.000000 117 117 117
0.818160 0.635707 -0.031393 -0.713603 0.000000 -0.700551 117 117 117
0.847852 0.374548 -0.061638 -0.713603 0.000000 -0.700551 117 117 117
0.818160 0.342030 -0.031393 -0.713603 0.000000 -0.700551 117 117 117
1.121722 0.723523 -0.422287 -0.000000 0.000000 -1.000000 117 117 117
1.062052 0.664817 -0.422287 -0.000000 0.000000 -1.000000 117 117 117
0.877830 0.664817 -0.422287 -0.000000 -0.000000 -1.000000 117 117 117
0.818160 0.723523 -0.422287 -0.000000 -0.000000 -1.000000 117 117 117
0.877830 0.312920 -0.422287 -0.000000 0.000000 -1.000000 117 117 117
0.877830 0.664817 -0.422287 -0.000000 -0.770729 -0.637163 117 117 117
1.044034 0.626605 -0.376065 -0.000000 -0.770729 -0.637163 117 117 117
0.895849 0.626605 -0.376065 -0.000000 -0.770729 -0.637163 117 117 117
1.121722 0.254215 -0.422287 1.000000 -0.000000 0.000000 117 117 117
1.121722 0.635707 -0.340610 1.000000 -0.000000 0.000000 117 117 117
1.121722 0.342030 -0.340610 1.000000 -0.000000 0.000000 117 117 117
1.121722 0.342030 -0.031393 1.000000 0.000000 0.000000 117 117 117
1.121722 0.723523 -0.422287 1.000000 0.000000 -0.000000 117 117 117
0.818160 0.635707 -0.031393 -0.738469 -0.674287 -0.000000 117 117 117
0.847852 0.603190 -0.310365 -0.738469 -0.674287 -0.000000 117 117 117
0.847852 0.603190 -0.061638 -0.738469 -0.674287 -0.000000 117 117 117
0.818160 0.723523 0.050284 0.000000 -0.000000 1.000000 117 117 117
1.062052 0.664817 0.050284 0.000000 -0.000000 1.000000 117 117 117
0.877830 0.312920 0.050284 -0.000000 -0.000000 1.000000 117 117 117
0.877830 0.664817 0.050284 -0.000000 -0.000000 1.000000 117 117 117
0.818160 0.254215 0.050284 0.000000 -0.000000 1.000000 117 117 117
0.847852 0.603190 -0.310365 -1.000000 0.000000 -0.000000 117 117 117
0.847852 0.374548 -0.061638 -1.000000 0.000000 -0.000000 117 117 117
0.847852 0.603190 -0.061638 -1.000000 0.000000 -0.000000 117 117 117
1.044034 0.626605 -0.376065 -0.000000 0.000000 -1.000000 117 117 117
0.895849 0.351133 -0.376065 -0.000000 0.000000 -1.000000 117 117 117
0.895849 0.626605 -0.376065 -0.000000 0.000000 -1.000000 117 117 117
1.092031 0.603190 -0.310365 1.000000 -0.000000 0.000000 117 117 117
1.092031 0.374548 -0.061638 1.000000 -0.000000 0.000000 117 117 117
1.092031 0.374548 -0.310365 1.000000 -0.000000 0.000000 117 117 117
0.895849 0.626605 0.004061 0.000000 -0.000000 1.000000 117 117 117
1.044034 0.351133 0.004061 0.000000 -0.000000 1.000000 117 117 117
1.044034 0.626605 0.004061 0.000000 -0.000000 1.000000 117 117 117
0.877830 0.312920 -0.422287 0.931708 0.000000 -0.363209 117 117 117
0.895849 0.626605 -0.376065 0.931708 0.000000 -0.363209 117 117 117
0.895849 0.351133 -0.376065 0.931708 0.000000 -0.363209 117 117 117
1.062052 0.664817 0.050284 0.000000 -0.770728 0.637164 117 117 117
0.895849 0.626605 0.004061 0.000000 -0.770728 0.637164 117 117 117
1.044034 0.626605 0.004061 0.000000 -0.770728 0.637164 117 117 117
0.818160 0.342030 -0.340610 -0.713602 -0.000000 0.700551 117 117 117
0.847852 0.603190 -0.310365 -0.713602 -0.000000 0.700551 117 117 117
0.818160 0.635707 -0.340610 -0.713602 -0.000000 0.700551 117 117 117
1.121722 0.635707 -0.031393 0.713602 0.000000 -0.700552 117 117 117
1.092031 0.374548 -0.061638 0.713602 0.000000 -0.700552 117 117 117
1.092031 0.603190 -0.061638 0.713602 0.000000 -0.700552 117 117 117
1.062052 0.312920 -0.422287 -0.931709 0.000000 -0.363206 117 117 117
1.044034 0.626605 -0.376065 -0.931709 0.000000 -0.363206 117 117 117
1.062052 0.664817 -0.422287 -0.931709 0.000000 -0.363206 117 117 117
0.877830 0.312920 0.050284 0.931708 -0.000000 0.363209 117 117 117
0.895849 0.626605 0.004061 0.931708 -0.000000 0.363209 117 117 117
0.877830 0.664817 0.050284 0.931708 -0.000000 0.363209 117 117 117
0.818160 0.342030 -0.031393 -0.738470 0.674287 0.000000 117 117 117
0.847852 0.374548 -0.310365 -0.738470 0.674287 0.000000 117 117 117
0.818160 0.342030 -0.340610 -0.738470 0.674287 0.000000 117 117 117
1.121722 0.635707 -0.340610 0.713602 0.000000 0.700551 117 117 117
1.092031 0.374548 -0.310365 0.713602 0.000000 0.700551 117 117 117
1.121722 0.342030 -0.340610 0.713602 0.000000 0.700551 117 117 117
0.877830 0.312920 -0.422287 -0.000000 0.770729 -0.637163 117 117 117
1.044034 0.351133 -0.376065 -0.000000 0.770729 -0.637163 117 117 117
1.062052 0.312920 -0.422287 -0.000000 0.770729 -0.637163 117 117 117
1.062052 0.312920 0.050284 -0.931709 -0.000000 0.363206 117 117 117
1.044034 0.626605 0.004061 -0.931709 -0.000000 0.363206 117 117 117
1.044034 0.351133 0.004061 -0.931709 -0.000000 0.363206 117 117 117
1.121722 0.342030 -0.340610 0.738469 0.674287 0.000000 117 117 117
1.092031 0.374548 -0.061638 0.738469 0.674287 0.000000 117 117 117
1.121722 0.342030 -0.031393 0.738469 0.674287 0.000000 117 117 117
1.062052 0.312920 0.050284 0.000000 0.770729 0.637164 117 117 117
0.895849 0.351133 0.004061 0.000000 0.770729 0.637164 117 117 117
0.877830 0.312920 0.050284 0.000000 0.770729 0.637164 117 117 117
0.674702 0.069805 -0.588740 -1.000000 -0.000000 -0.000000 117 117 117
0.674702 -0.040277 0.216737 -1.000000 -0.000000 -0.000000 117 117 117
0.674702 0.069805 0.216737 -1.000000 -0.000000 -0.000000 117 117 117
1.265181 0.069805 -0.588740 -0.000000 -0.000000 -1.000000 117 117 117
0.674702 -0.040277 -0.588740 -0.000000 -0.000000 -1.000000 117 117 117
0.674702 0.069805 -0.588740 -0.000000 -0.000000 -1.000000 117 117 117
1.265181 0.069805 0.216737 1.000000 0.000000 -0.000000 117 117 117
1.265181 -0.040277 -0.588740 1.000000 0.000000 -0.000000 117 117 117
1.265181 0.069805 -0.588740 1.000000 0.000000 -0.000000 117 117 117
0.674702 0.069805 0.216737 0.000000 0.000000 1.000000 117 117 117
1.265181 -0.040277 0.216737 0.000000 0.000000 1.000000 117 117 117
1.265181 0.069805 0.216737 0.000000 0.000000 1.000000 117 117 117
0.706164 0.091571 -0.545823 -0.568954 0.822370 0.000000 117 117 117
0.674702 0.069805 0.216737 -0.568954 0.822370 0.000000 117 117 117
0.706164 0.091571 0.173820 -0.568954 0.822370 0.000000 117 117 117
1.233719 0.091571 -0.545823 -0.000000 0.891851 -0.452329 117 117 117
0.674702 0.069805 -0.588740 -0.000000 0.891851 -0.452329 117 117 117
0.706164 0.091571 -0.545823 -0.000000 0.891851 -0.452329 117 117 117
0.706164 -0.032856 0.173820 0.229557 -0.973295 0.000000 117 117 117
0.674702 -0.040277 -0.588740 0.229557 -0.973295 0.000000 117 117 117
0.706164 -0.032856 -0.545823 0.229557 -0.973295 0.000000 117 117 117
1.233719 -0.032856 -0.545823 0.000000 -0.985380 0.170373 117 117 117
0.674702 -0.040277 -0.588740 0.000000 -0.985380 0.170373 117 117 117
1.265181 -0.040277 -0.588740 0.000000 -0.985380 0.170373 117 117 117
1.375293 0.723523 -0.555745 0.000000 0.000000 -1.000000 189 189 189
0.000000 1.020591 -0.555745 0.000000 0.000000 -1.000000 189 189 189
1.375293 1.020591 -0.555745 0.000000 0.000000 -1.000000 189 189 189
0.818160 0.723523 -0.422287 0.000000 0.000000 0.000000 166 166 166
0.000000 0.723523 -0.422287 0.000000 0.000000 0.000000 166 166 166
0.000000 0.723523 -0.422287 0.000000 0.000000 0.000000 166 166 166
1.375293 1.020591 -0.422287 -1.000000 0.000000 0.000000 166 166 166
1.375293 0.765441 -0.422287 -1.000000 0.000000 0.000000 166 166 166
1.375293 0.723523 -0.422287 -1.000000 0.000000 0.000000 166 166 166
0.818160 0.723523 0.050284 0.000000 0.000000 0.000000 166 166 166
0.818160 0.723523 -0.422287 0.000000 0.000000 0.000000 166 166 166
1.375293 1.020591 0.050284 -1.000000 0.000000 -0.000000 166 166 166
1.375293 0.765441 0.050284 -1.000000 0.000000 -0.000000 166 166 166
1.375293 1.002626 0.050284 -1.000000 0.000000 -0.000000 166 166 166
0.000000 0.723523 0.050284 -0.000000 0.000000 -1.000000 166 166 166
0.818160 0.723523 0.050284 -0.000000 0.000000 -1.000000 166 166 166
0.818160 0.723523 0.050284 -0.000000 0.000000 -1.000000 166 166 166
1.121722 0.723523 -0.422287 1.000000 -0.000000 0.000000 166 166 166
1.121722 0.765441 0.050284 1.000000 -0.000000 0.000000 166 166 166
1.121722 0.723523 0.050284 1.000000 -0.000000 0.000000 166 166 166
1.375293 0.723523 -0.555745 1.000000 -0.000000 0.000000 189 189 189
1.375293 1.020591 0.183742 1.000000 -0.000000 0.000000 189 189 189
1.375293 0.723523 0.183741 1.000000 -0.000000 0.000000 189 189 189
1.375293 1.020591 0.183742 0.000000 1.000000 0.000000 189 189 189
0.000000 1.020591 -0.422287 0.000000 1.000000 0.000000 189 189 189
0.000000 1.020591 0.183742 0.000000 1.000000 0.000000 189 189 189
1.375293 0.723523 -0.555745 0.000000 -1.000000 -0.000000 189 189 189
0.000000 0.723523 0.183741 0.000000 -1.000000 -0.000000 189 189 189
0.000000 0.723523 -0.555745 0.000000 -1.000000 -0.000000 189 189 189
1.375293 0.723523 0.183741 0.000000 -0.000000 1.000000 189 189 189
0.000000 1.020591 0.183742 0.000000 -0.000000 1.000000 189 189 189
0.000000 0.723523 0.183741 0.000000 -0.000000 1.000000 189 189 189
1.375293 1.020591 -0.555745 0.000000 1.000000 0.000000 189 189 189
1.375293 1.020591 -0.422287 0.000000 1.000000 0.000000 189 189 189
1.375293 1.020591 -0.555745 1.000000 0.000000 0.000000 189 189 189
1.375293 1.020591 -0.422287 1.000000 0.000000 0.000000 189 189 189
-0.818160 0.254215 0.050284 0.823617 0.567146 0.000000 117 117 117
-0.706164 0.091571 -0.545823 0.823617 0.567146 0.000000 117 117 117
-0.818160 0.254215 -0.422287 0.823617 0.567146 0.000000 117 117 117
-0.674702 -0.040277 0.216737 -0.000000 -0.985380 -0.170373 117 117 117
-1.233719 -0.032856 0.173820 -0.000000 -0.985380 -0.170373 117 117 117
-0.706164 -0.032856 0.173820 -0.000000 -0.985380 -0.170373 117 117 117
-1.233719 0.091571 0.173820 -0.000000 0.604857 0.796334 117 117 117
-0.818160 0.254215 0.050284 -0.000000 0.604857 0.796334 117 117 117
-1.121722 0.254215 0.050284 -0.000000 0.604857 0.796334 117 117 117
-0.706164 0.091571 -0.545823 0.000000 0.604857 -0.796334 117 117 117
-1.121722 0.254215 -0.422287 0.000000 0.604857 -0.796334 117 117 117
-0.818160 0.254215 -0.422287 0.000000 0.604857 -0.796334 117 117 117
-1.233719 0.091571 -0.545823 -0.823617 0.567146 0.000000 117 117 117
-1.121722 0.254215 0.050284 -0.823617 0.567146 0.000000 117 117 117
-1.121722 0.254215 -0.422287 -0.823617 0.567146 0.000000 117 117 117
-1.121722 0.635707 -0.031393 -1.000000 0.000000 -0.000000 117 117 117
-1.121722 0.254215 0.050284 -1.000000 0.000000 -0.000000 117 117 117
-1.121722 0.723523 0.050284 -1.000000 0.000000 -0.000000 117 117 117
-1.062052 0.312920 -0.422287 0.000000 -0.000000 -1.000000 117 117 117
-0.818160 0.254215 -0.422287 0.000000 -0.000000 -1.000000 117 117 117
-1.121722 0.254215 -0.422287 0.000000 -0.000000 -1.000000 117 117 117
-1.062052 0.312920 0.050284 0.000000 -0.000000 1.000000 117 117 117
-1.121722 0.723523 0.050284 0.000000 -0.000000 1.000000 117 117 117
-1.121722 0.254215 0.050284 0.000000 -0.000000 1.000000 117 117 117
-0.818160 0.254215 -0.422287 1.000000 0.000000 0.000000 117 117 117
-0.818160 0.342030 -0.031393 1.000000 0.000000 0.000000 117 117 117
-0.818160 0.254215 0.050284 1.000000 0.000000 0.000000 117 117 117
-1.233719 -0.032856 0.173820 -0.000000 -1.000000 -0.000000 117 117 117
-0.706164 -0.032856 -0.545823 -0.000000 -1.000000 -0.000000 117 117 117
-0.706164 -0.032856 0.173820 -0.000000 -1.000000 -0.000000 117 117 117
-1.265181 -0.040277 0.216737 0.229557 -0.973295 0.000000 117 117 117
-1.233719 -0.032856 -0.545823 0.229557 -0.973295 0.000000 117 117 117
-1.233719 -0.032856 0.173820 0.229557 -0.973295 0.000000 117 117 117
-1.265181 0.069805 0.216737 -0.000000 0.891851 0.452328 117 117 117
-0.706164 0.091571 0.173820 -0.000000 0.891851 0.452328 117 117 117
-1.233719 0.091571 0.173820 -0.000000 0.891851 0.452328 117 117 117
-1.265181 0.069805 -0.588740 -0.568953 0.822370 0.000000 117 117 117
-1.233719 0.091571 0.173820 -0.568953 0.822370 0.000000 117 117 117
-1.233719 0.091571 -0.545823 -0.568953 0.822370 0.000000 117 117 117
-1.092031 0.603190 -0.310365 -0.738469 -0.674288 0.000000 117 117 117
-1.121722 0.635707 -0.031393 -0.738469 -0.674288 0.000000 117 117 117
-1.121722 0.635707 -0.340610 -0.738469 -0.674288 0.000000 117 117 117
-0.818160 0.723523 0.050284 1.000000 0.000000 -0.000000 117 117 117
-0.818160 0.635707 -0.340610 1.000000 0.000000 -0.000000 117 117 117
-0.818160 0.723523 -0.422287 1.000000 0.000000 -0.000000 117 117 117
-0.847852 0.374548 -0.061638 0.713603 0.000000 -0.700551 117 117 117
-0.818160 0.635707 -0.031393 0.713603 0.000000 -0.700551 117 117 117
-0.818160 0.342030 -0.031393 0.713603 0.000000 -0.700551 117 117 117
-1.121722 0.723523 -0.422287 -0.000000 0.000000 -1.000000 117 117 117
-0.877830 0.664817 -0.422287 0.000000 -0.000000 -1.000000 117 117 117
-0.818160 0.723523 -0.422287 0.000000 -0.000000 -1.000000 117 117 117
-0.877830 0.312920 -0.422287 0.000000 0.000000 -1.000000 117 117 117
-0.877830 0.664817 -0.422287 0.000000 -0.770729 -0.637163 117 117 117
-1.044034 0.626605 -0.376065 0.000000 -0.770729 -0.637163 117 117 117
-1.062052 0.664817 -0.422287 0.000000 -0.770729 -0.637163 117 117 117
-1.121722 0.254215 -0.422287 -1.000000 -0.000000 0.000000 117 117 117
-1.121722 0.635707 -0.340610 -1.000000 -0.000000 0.000000 117 117 117
-1.121722 0.723523 -0.422287 -1.000000 -0.000000 0.000000 117 117 117
-1.121722 0.342030 -0.031393 -1.000000 0.000000 0.000000 117 117 117
-0.818160 0.635707 -0.031393 0.738469 -0.674287 0.000000 117 117 117
-0.847852 0.603190 -0.310365 0.738469 -0.674287 0.000000 117 117 117
-0.818160 0.635707 -0.340610 0.738469 -0.674287 0.000000 117 117 117
-1.062052 0.664817 0.050284 0.000000 -0.000000 1.000000 117 117 117
-0.818160 0.723523 0.050284 0.000000 -0.000000 1.000000 117 117 117
-0.877830 0.312920 0.050284 -0.000000 -0.000000 1.000000 117 117 117
-0.818160 0.254215 0.050284 -0.000000 -0.000000 1.000000 117 117 117
-0.847852 0.374548 -0.061638 1.000000 0.000000 0.000000 117 117 117
-0.847852 0.603190 -0.310365 1.000000 0.000000 0.000000 117 117 117
-0.847852 0.603190 -0.061638 1.000000 0.000000 0.000000 117 117 117
-0.895849 0.351133 -0.376065 0.000000 0.000000 -1.000000 117 117 117
-1.044034 0.626605 -0.376065 0.000000 0.000000 -1.000000 117 117 117
-0.895849 0.626605 -0.376065 0.000000 0.000000 -1.000000 117 117 117
-1.092031 0.603190 -0.310365 -1.000000 0.000000 -0.000000 117 117 117
-1.092031 0.374548 -0.061638 -1.000000 0.000000 -0.000000 117 117 117
-1.092031 0.603190 -0.061638 -1.000000 0.000000 -0.000000 117 117 117
-1.044034 0.351133 0.004061 0.000000 -0.000000 1.000000 117 117 117
-0.895849 0.626605 0.004061 0.000000 -0.000000 1.000000 117 117 117
-1.044034 0.626605 0.004061 0.000000 -0.000000 1.000000 117 117 117
-0.877830 0.312920 -0.422287 -0.931708 0.000000 -0.363209 117 117 117
-0.895849 0.626605 -0.376065 -0.931708 0.000000 -0.363209 117 117 117
-0.877830 0.664817 -0.422287 -0.931708 0.000000 -0.363209 117 117 117
-1.062052 0.664817 0.050284 0.000000 -0.770728 0.637164 117 117 117
-0.895849 0.626605 0.004061 0.000000 -0.770728 0.637164 117 117 117
-0.877830 0.664817 0.050284 0.000000 -0.770728 0.637164 117 117 117
-0.847852 0.603190 -0.310365 0.713602 -0.000000 0.700551 117 117 117
-0.818160 0.342030 -0.340610 0.713602 -0.000000 0.700551 117 117 117
-0.818160 0.635707 -0.340610 0.713602 -0.000000 0.700551 117 117 117
-1.121722 0.635707 -0.031393 -0.713602 0.000000 -0.700551 117 117 117
-1.092031 0.374548 -0.061638 -0.713602 0.000000 -0.700551 117 117 117
-1.121722 0.342030 -0.031393 -0.713602 0.000000 -0.700551 117 117 117
-1.044034 0.626605 -0.376065 0.931709 0.000000 -0.363206 117 117 117
-1.062052 0.312920 -0.422287 0.931709 0.000000 -0.363206 117 117 117
-1.062052 0.664817 -0.422287 0.931709 0.000000 -0.363206 117 117 117
-0.895849 0.626605 0.004061 -0.931708 -0.000000 0.363209 117 117 117
-0.877830 0.312920 0.050284 -0.931708 -0.000000 0.363209 117 117 117
-0.877830 0.664817 0.050284 -0.931708 -0.000000 0.363209 117 117 117
-0.847852 0.374548 -0.310365 0.738470 0.674287 -0.000000 117 117 117
-0.818160 0.342030 -0.031393 0.738470 0.674287 -0.000000 117 117 117
-0.818160 0.342030 -0.340610 0.738470 0.674287 -0.000000 117 117 117
-1.092031 0.374548 -0.310365 -0.713602 0.000000 0.700551 117 117 117
-1.121722 0.635707 -0.340610 -0.713602 0.000000 0.700551 117 117 117
-1.121722 0.342030 -0.340610 -0.713602 0.000000 0.700551 117 117 117
-1.044034 0.351133 -0.376065 0.000000 0.770729 -0.637163 117 117 117
-0.877830 0.312920 -0.422287 0.000000 0.770729 -0.637163 117 117 117
-1.062052 0.312920 -0.422287 0.000000 0.770729 -0.637163 117 117 117
-1.062052 0.312920 0.050284 0.931709 -0.000000 0.363206 117 117 117
-1.044034 0.626605 0.004061 0.931709 -0.000000 0.363206 117 117 117
-1.062052 0.664817 0.050284 0.931709 -0.000000 0.363206 117 117 117
-1.092031 0.374548 -0.061638 -0.738469 0.674287 0.000000 117 117 117
-1.121722 0.342030 -0.340610 -0.738469 0.674287 0.000000 117 117 117
-1.121722 0.342030 -0.031393 -0.738469 0.674287 0.000000 117 117 117
-0.895849 0.351133 0.004061 0.000000 0.770729 0.637164 117 117 117
-1.062052 0.312920 0.050284 0.000000 0.770729 0.637164 117 117 117
-0.877830 0.312920 0.050284 0.000000 0.770729 0.637164 117 117 117
-0.674702 -0.040277 0.216737 1.000000 0.000000 0.000000 117 117 117
-0.674702 0.069805 -0.588740 1.000000 0.000000 0.000000 117 117 117
-0.674702 0.069805 0.216737 1.000000 0.000000 0.000000 117 117 117
-0.674702 -0.040277 -0.588740 0.000000 0.000000 -1.000000 117 117 117
-1.265181 0.069805 -0.588740 0.000000 0.000000 -1.000000 117 117 117
-0.674702 0.069805 -0.588740 0.000000 0.000000 -1.000000 117 117 117
-1.265181 -0.040277 -0.588740 -1.000000 -0.000000 0.000000 117 117 117
-1.265181 0.069805 0.216737 -1.000000 -0.000000 0.000000 117 117 117
-1.265181 0.069805 -0.588740 -1.000000 -0.000000 0.000000 117 117 117
-1.265181 -0.040277 0.216737 -0.000000 0.000000 1.000000 117 117 117
-0.674702 0.069805 0.216737 -0.000000 0.000000 1.000000 117 117 117
-1.265181 0.069805 0.216737 -0.000000 0.000000 1.000000 117 117 117
-0.674702 0.069805 0.216737 0.568954 0.822370 0.000000 117 117 117
-0.706164 0.091571 -0.545823 0.568954 0.822370 0.000000 117 117 117
-0.706164 0.091571 0.173820 0.568954 0.822370 0.000000 117 117 117
-0.674702 0.069805 -0.588740 0.000000 0.891851 -0.452329 117 117 117
-1.233719 0.091571 -0.545823 0.000000 0.891851 -0.452329 117 117 117
-0.706164 0.091571 -0.545823 0.000000 0.891851 -0.452329 117 117 117
-0.674702 -0.040277 -0.588740 -0.229557 -0.973295 0.000000 117 117 117
-0.706164 -0.032856 0.173820 -0.229557 -0.973295 0.000000 117 117 117
-0.706164 -0.032856 -0.545823 -0.229557 -0.973295 0.000000 117 117 117
-1.233719 -0.032856 -0.545823 -0.000000 -0.985380 0.170374 117 117 117
-0.674702 -0.040277 -0.588740 -0.000000 -0.985380 0.170374 117 117 117
-0.706164 -0.032856 -0.545823 -0.000000 -0.985380 0.170374 117 117 117
-1.375293 0.723523 -0.555745 0.000000 0.000000 -1.000000 189 189 189
-1.375293 1.020591 -0.555745 0.000000 0.000000 -1.000000 189 189 189
-0.818160 0.723523 -0.422287 0.000000 0.000000 0.000000 166 166 166
-1.375293 0.765441 -0.422287 1.000000 -0.000000 0.000000 166 166 166
-1.375293 1.020591 -0.422287 1.000000 -0.000000 0.000000 166 166 166
-1.375293 0.723523 -0.422287 1.000000 -0.000000 0.000000 166 166 166
-0.818160 0.723523 -0.422287 0.000000 0.000000 0.000000 166 166 166
-0.818160 0.723523 0.050284 0.000000 0.000000 0.000000 166 166 166
-1.375293 1.020591 0.050284 -1.000000 0.000000 0.000000 166 166 166
-1.375293 0.765441 0.050284 -1.000000 0.000000 0.000000 166 166 166
-1.375293 0.723523 0.050284 -1.000000 0.000000 0.000000 166 166 166
-0.818160 0.723523 0.050284 0.000000 0.000000 -1.000000 166 166 166
-0.818160 0.723523 0.050284 0.000000 0.000000 -1.000000 166 166 166
-1.121722 0.765441 0.050284 -1.000000 0.000000 0.000000 166 166 166
-1.121722 0.723523 -0.422287 -1.000000 0.000000 0.000000 166 166 166
-1.121722 0.723523 0.050284 -1.000000 0.000000 0.000000 166 166 166
-1.375293 1.020591 0.183742 -1.000000 0.000000 0.000000 189 189 189
-1.375293 0.723523 -0.555745 -1.000000 0.000000 0.000000 189 189 189
-1.375293 0.723523 0.183741 -1.000000 0.000000 0.000000 189 189 189
0.000000 0.723523 0.183741 1.000000 0.000000 0.000000 189 189 189
0.000000 1.020591 -0.422287 1.000000 0.000000 0.000000 189 189 189
0.000000 1.020591 0.183742 1.000000 0.000000 0.000000 189 189 189
-1.375293 1.020591 0.183742 0.000000 1.000000 0.000000 189 189 189
-1.375293 0.723523 -0.555745 -0.000000 -1.000000 -0.000000 189 189 189
-1.375293 0.723523 0.183741 0.000000 -0.000000 1.000000 189 189 189
-1.375293 1.020591 -0.555745 -0.000000 1.000000 0.000000 189 189 189
-1.375293 1.020591 -0.422287 -0.000000 1.000000 0.000000 189 189 189
-1.375293 1.020591 -0.555745 -1.000000 -0.000000 -0.000000 189 189 189
-1.375293 1.020591 -0.422287 -1.000000 -0.000000 -0.000000 189 189 189
0.000000 0.723523 -0.555745 1.000000 0.000000 -0.000000 189 189 189
0.000000 1.020591 -0.555745 1.000000 0.000000 -0.000000 189 189 189
0.818160 0.254215 -0.422287 -0.823617 0.567146 0.000000 117 117 117
1.265181 -0.040277 0.216737 0.000000 -0.985380 -0.170373 117 117 117
0.706164 0.091571 0.173820 0.000000 0.604857 0.796334 117 117 117
1.233719 0.091571 -0.545823 -0.000000 0.604857 -0.796334 117 117 117
1.233719 0.091571 0.173820 0.823617 0.567146 -0.000000 117 117 117
1.233719 -0.032856 -0.545823 -0.000000 -1.000000 -0.000000 117 117 117
1.265181 -0.040277 -0.588740 -0.229557 -0.973295 -0.000000 117 117 117
0.706164 0.091571 0.173820 0.000000 0.891852 0.452328 117 117 117
0.674702 0.069805 0.216737 0.000000 0.891852 0.452328 117 117 117
1.265181 0.069805 0.216737 0.000000 0.891852 0.452328 117 117 117
1.265181 0.069805 0.216737 0.568953 0.822370 -0.000000 117 117 117
1.092031 0.603190 -0.061638 0.738469 -0.674288 0.000000 117 117 117
0.818160 0.635707 -0.031393 -0.713602 0.000000 -0.700551 117 117 117
0.847852 0.603190 -0.061638 -0.713602 0.000000 -0.700551 117 117 117
0.847852 0.374548 -0.061638 -0.713602 0.000000 -0.700551 117 117 117
1.062052 0.664817 -0.422287 -0.000000 -0.770729 -0.637163 117 117 117
0.818160 0.635707 -0.340610 -0.738469 -0.674287 0.000000 117 117 117
0.847852 0.374548 -0.310365 -1.000000 0.000000 0.000000 117 117 117
1.044034 0.351133 -0.376065 0.000000 0.000000 -1.000000 117 117 117
1.092031 0.603190 -0.061638 1.000000 -0.000000 0.000000 117 117 117
0.895849 0.351133 0.004061 0.000000 -0.000000 1.000000 117 117 117
0.877830 0.664817 -0.422287 0.931708 0.000000 -0.363209 117 117 117
0.877830 0.664817 0.050284 0.000000 -0.770728 0.637164 117 117 117
0.818160 0.342030 -0.340610 -0.713603 -0.000000 0.700551 117 117 117
0.847852 0.374548 -0.310365 -0.713603 -0.000000 0.700551 117 117 117
0.847852 0.603190 -0.310365 -0.713603 -0.000000 0.700551 117 117 117
1.121722 0.635707 -0.031393 0.713602 0.000000 -0.700551 117 117 117
1.121722 0.342030 -0.031393 0.713602 0.000000 -0.700551 117 117 117
1.092031 0.374548 -0.061638 0.713602 0.000000 -0.700551 117 117 117
1.062052 0.312920 -0.422287 -0.931709 -0.000000 -0.363205 117 117 117
1.044034 0.351133 -0.376065 -0.931709 -0.000000 -0.363205 117 117 117
1.044034 0.626605 -0.376065 -0.931709 -0.000000 -0.363205 117 117 117
0.895849 0.351133 0.004061 0.931708 -0.000000 0.363209 117 117 117
0.847852 0.374548 -0.061638 -0.738470 0.674287 0.000000 117 117 117
1.092031 0.603190 -0.310365 0.713602 -0.000000 0.700551 117 117 117
0.877830 0.312920 -0.422287 0.000000 0.770729 -0.637164 117 117 117
0.895849 0.351133 -0.376065 0.000000 0.770729 -0.637164 117 117 117
1.044034 0.351133 -0.376065 0.000000 0.770729 -0.637164 117 117 117
1.062052 0.664817 0.050284 -0.931709 -0.000000 0.363206 117 117 117
1.092031 0.374548 -0.310365 0.738469 0.674287 0.000000 117 117 117
1.044034 0.351133 0.004061 -0.000000 0.770729 0.637164 117 117 117
0.674702 -0.040277 -0.588740 -1.000000 0.000000 0.000000 117 117 117
1.265181 -0.040277 -0.588740 -0.000000 0.000000 -1.000000 117 117 117
1.265181 -0.040277 0.216737 1.000000 0.000000 0.000000 117 117 117
0.674702 -0.040277 0.216737 0.000000 -0.000000 1.000000 117 117 117
0.706164 0.091571 -0.545823 -0.568954 0.822369 0.000000 117 117 117
0.674702 0.069805 -0.588740 -0.568954 0.822369 0.000000 117 117 117
0.674702 0.069805 0.216737 -0.568954 0.822369 0.000000 117 117 117
1.233719 0.091571 -0.545823 -0.000000 0.891851 -0.452328 117 117 117
1.265181 0.069805 -0.588740 -0.000000 0.891851 -0.452328 117 117 117
0.674702 0.069805 -0.588740 -0.000000 0.891851 -0.452328 117 117 117
0.674702 -0.040277 0.216737 0.229557 -0.973295 0.000000 117 117 117
1.233719 -0.032856 -0.545823 0.000000 -0.985380 0.170374 117 117 117
0.706164 -0.032856 -0.545823 0.000000 -0.985380 0.170374 117 117 117
0.674702 -0.040277 -0.588740 0.000000 -0.985380 0.170374 117 117 117
0.000000 0.723523 -0.555745 0.000000 0.000000 -1.000000 189 189 189
1.375293 1.020591 -0.422287 1.000000 0.000000 0.000000 166 166 166
1.375293 1.002626 -0.422287 1.000000 0.000000 0.000000 166 166 166
1.375293 0.765441 -0.422287 1.000000 0.000000 0.000000 166 166 166
0.818160 0.723523 0.050284 -1.000000 0.000000 0.000000 166 166 166
0.818160 0.723523 0.050284 -1.000000 0.000000 0.000000 166 166 166
0.818160 0.723523 -0.422287 -1.000000 0.000000 0.000000 166 166 166
1.375293 1.020591 0.050284 1.000000 0.000000 -0.000000 166 166 166
1.375293 0.723523 0.050284 1.000000 0.000000 -0.000000 166 166 166
1.375293 0.765441 0.050284 1.000000 0.000000 -0.000000 166 166 166
0.000000 0.723523 0.050284 -0.000000 -0.000000 -1.000000 166 166 166
1.121722 0.765441 -0.422287 1.000000 0.000000 0.000000 166 166 166
1.375293 0.723523 0.183741 0.000000 -1.000000 -0.000000 189 189 189
1.375293 1.020591 0.183742 0.000000 -0.000000 1.000000 189 189 189
0.000000 1.020591 -0.555745 -0.000000 1.000000 0.000000 189 189 189
-0.706164 0.091571 0.173820 0.823617 0.567146 -0.000000 117 117 117
-1.265181 -0.040277 0.216737 0.000000 -0.985380 -0.170373 117 117 117
-0.706164 0.091571 0.173820 0.000000 0.604857 0.796334 117 117 117
-1.233719 0.091571 -0.545823 0.000000 0.604857 -0.796334 117 117 117
-1.233719 0.091571 0.173820 -0.823617 0.567146 0.000000 117 117 117
-0.818160 0.342030 -0.340610 1.000000 0.000000 0.000000 117 117 117
-1.233719 -0.032856 -0.545823 -0.000000 -1.000000 0.000000 117 117 117
-1.265181 -0.040277 -0.588740 0.229557 -0.973295 0.000000 117 117 117
-1.265181 0.069805 0.216737 0.000000 0.891852 0.452328 117 117 117
-0.674702 0.069805 0.216737 0.000000 0.891852 0.452328 117 117 117
-0.706164 0.091571 0.173820 0.000000 0.891852 0.452328 117 117 117
-1.265181 0.069805 0.216737 -0.568953 0.822370 0.000000 117 117 117
-1.092031 0.603190 -0.061638 -0.738469 -0.674288 -0.000000 117 117 117
-0.818160 0.635707 -0.031393 1.000000 0.000000 0.000000 117 117 117
-0.847852 0.374548 -0.061638 0.713602 0.000000 -0.700551 117 117 117
-0.847852 0.603190 -0.061638 0.713602 0.000000 -0.700551 117 117 117
-0.818160 0.635707 -0.031393 0.713602 0.000000 -0.700551 117 117 117
-1.062052 0.664817 -0.422287 0.000000 0.000000 -1.000000 117 117 117
-0.895849 0.626605 -0.376065 0.000000 -0.770729 -0.637163 117 117 117
-1.121722 0.342030 -0.340610 -1.000000 -0.000000 0.000000 117 117 117
-0.847852 0.603190 -0.061638 0.738469 -0.674287 0.000000 117 117 117
-0.877830 0.664817 0.050284 0.000000 -0.000000 1.000000 117 117 117
-0.847852 0.374548 -0.310365 1.000000 0.000000 -0.000000 117 117 117
-1.044034 0.351133 -0.376065 0.000000 0.000000 -1.000000 117 117 117
-1.092031 0.374548 -0.310365 -1.000000 0.000000 0.000000 117 117 117
-0.895849 0.351133 0.004061 0.000000 -0.000000 1.000000 117 117 117
-0.895849 0.351133 -0.376065 -0.931708 0.000000 -0.363209 117 117 117
-1.044034 0.626605 0.004061 0.000000 -0.770728 0.637164 117 117 117
-0.847852 0.603190 -0.310365 0.713603 -0.000000 0.700551 117 117 117
-0.847852 0.374548 -0.310365 0.713603 -0.000000 0.700551 117 117 117
-0.818160 0.342030 -0.340610 0.713603 -0.000000 0.700551 117 117 117
-1.121722 0.635707 -0.031393 -0.713602 0.000000 -0.700552 117 117 117
-1.092031 0.603190 -0.061638 -0.713602 0.000000 -0.700552 117 117 117
-1.092031 0.374548 -0.061638 -0.713602 0.000000 -0.700552 117 117 117
-1.044034 0.626605 -0.376065 0.931709 0.000000 -0.363205 117 117 117
-1.044034 0.351133 -0.376065 0.931709 0.000000 -0.363205 117 117 117
-1.062052 0.312920 -0.422287 0.931709 0.000000 -0.363205 117 117 117
-0.895849 0.351133 0.004061 -0.931708 -0.000000 0.363209 117 117 117
-0.847852 0.374548 -0.061638 0.738470 0.674287 0.000000 117 117 117
-1.092031 0.603190 -0.310365 -0.713602 0.000000 0.700551 117 117 117
-1.044034 0.351133 -0.376065 0.000000 0.770729 -0.637164 117 117 117
-0.895849 0.351133 -0.376065 0.000000 0.770729 -0.637164 117 117 117
-0.877830 0.312920 -0.422287 0.000000 0.770729 -0.637164 117 117 117
-1.044034 0.351133 0.004061 0.931709 -0.000000 0.363206 117 117 117
-1.092031 0.374548 -0.310365 -0.738469 0.674287 0.000000 117 117 117
-1.044034 0.351133 0.004061 -0.000000 0.770729 0.637164 117 117 117
-0.674702 -0.040277 -0.588740 1.000000 0.000000 -0.000000 117 117 117
-1.265181 -0.040277 -0.588740 0.000000 0.000000 -1.000000 117 117 117
-1.265181 -0.040277 0.216737 -1.000000 -0.000000 -0.000000 117 117 117
-0.674702 -0.040277 0.216737 0.000000 0.000000 1.000000 117 117 117
-0.674702 0.069805 0.216737 0.568954 0.822369 -0.000000 117 117 117
-0.674702 0.069805 -0.588740 0.568954 0.822369 -0.000000 117 117 117
-0.706164 0.091571 -0.545823 0.568954 0.822369 -0.000000 117 117 117
-0.674702 0.069805 -0.588740 0.000000 0.891851 -0.452328 117 117 117
-1.265181 0.069805 -0.588740 0.000000 0.891851 -0.452328 117 117 117
-1.233719 0.091571 -0.545823 0.000000 0.891851 -0.452328 117 117 117
-0.674702 -0.040277 0.216737 -0.229557 -0.973295 -0.000000 117 117 117
-1.233719 -0.032856 -0.545823 -0.000000 -0.985380 0.170373 117 117 117
-1.265181 -0.040277 -0.588740 -0.000000 -0.985380 0.170373 117 117 117
-0.674702 -0.040277 -0.588740 -0.000000 -0.985380 0.170373 117 117 117
-1.375293 0.765441 -0.422287 -1.000000 -0.000000 0.000000 166 166 166
-1.375293 1.002626 -0.422287 -1.000000 -0.000000 0.000000 166 166 166
-1.375293 1.020591 -0.422287 -1.000000 -0.000000 0.000000 166 166 166
-0.818160 0.723523 -0.422287 1.000000 -0.000000 0.000000 166 166 166
-0.818160 0.723523 0.050284 1.000000 -0.000000 0.000000 166 166 166
-0.818160 0.723523 0.050284 1.000000 -0.000000 0.000000 166 166 166
-1.375293 1.020591 0.050284 1.000000 0.000000 0.000000 166 166 166
-1.375293 1.002626 0.050284 1.000000 0.000000 0.000000 166 166 166
-1.375293 0.765441 0.050284 1.000000 0.000000 0.000000 166 166 166
-1.121722 0.765441 -0.422287 -1.000000 0.000000 0.000000 166 166 166
-1.375293 0.723523 0.183741 0.000000 -1.000000 -0.000000 189 189 189
-1.375293 1.020591 0.183742 0.000000 -0.000000 1.000000 189 189 189
3 0 1 2
3 3 4 5
3 6 7 8
3 9 10 11
3 12 13 14
3 15 16 17
3 18 19 20
3 21 22 23
3 24 25 26
3 27 28 29
3 30 31 32
3 33 34 35
3 36 37 38
3 39 40 41
3 42 43 44
3 42 25 45
3 24 43 46
3 47 48 49
3 50 19 51
3 50 52 53
3 53 54 18
3 55 56 57
3 58 59 60
3 58 61 15
3 17 59 62
3 63 64 65
3 66 67 21
3 66 68 69
3 23 68 70
3 71 72 73
3 74 75 76
3 77 78 79
3 80 81 82
3 83 84 85
3 86 87 88
3 89 90 91
3 92 93 94
3 95 96 97
3 98 99 100
3 101 102 103
3 104 105 106
3 107 108 109
3 110 111 112
3 113 114 115
3 116 117 118
3 119 120 121
3 122 123 124
3 125 126 127
3 128 129 130
3 131 132 133
3 134 135 136
3 137 138 139
3 140 141 142
3 143 144 145
3 146 147 148
3 149 150 151
3 152 153 146
3 154 155 156
3 157 158 159
3 160 161 162
3 163 164 165
3 166 167 168
3 169 170 171
3 172 173 174
3 175 167 176
3 177 178 164
3 179 180 181
3 182 183 184
3 185 186 187
3 188 189 190
3 191 192 193
3 194 195 196
3 197 198 199
3 200 201 202
3 203 204 205
3 206 207 208
3 209 210 211
3 212 213 214
3 215 216 217
3 218 219 220
3 221 222 223
3 204 221 205
3 222 203 223
3 224 225 226
3 227 197 199
3 228 227 229
3 230 229 198
3 231 232 233
3 234 235 236
3 237 234 195
3 235 196 236
3 238 239 240
3 241 242 201
3 242 243 244
3 243 202 244
3 245 246 247
3 248 249 250
3 251 252 253
3 254 255 256
3 257 258 259
3 260 261 262
3 263 264 265
3 266 267 268
3 269 270 271
3 272 273 274
3 275 276 277
3 278 279 280
3 281 282 283
3 284 285 286
3 287 288 289
3 290 291 292
3 293 294 295
3 296 297 298
3 299 300 301
3 302 303 304
3 305 306 307
3 308 309 310
3 311 312 313
3 314 315 316
3 144 317 318
3 147 319 148
3 320 321 322
3 323 324 319
3 325 326 327
3 328 157 329
3 330 331 332
3 333 334 335
3 336 337 338
3 167 339 168
3 170 340 171
3 173 341 174
3 167 342 343
3 344 333 345
3 337 346 347
3 0 348 1
3 3 349 4
3 6 350 7
3 9 351 10
3 12 352 13
3 15 61 16
3 18 54 19
3 21 67 22
3 24 45 25
3 27 353 28
3 30 354 31
3 355 356 357
3 36 358 37
3 39 359 40
3 42 46 43
3 42 44 25
3 24 26 43
3 360 361 362
3 50 20 19
3 50 51 52
3 53 52 54
3 55 363 56
3 58 62 59
3 58 60 61
3 17 16 59
3 63 364 64
3 66 69 67
3 66 70 68
3 23 22 68
3 71 365 72
3 74 366 75
3 77 367 78
3 80 368 81
3 83 369 84
3 86 370 87
3 371 372 373
3 374 375 376
3 377 378 379
3 98 380 99
3 101 381 102
3 104 382 105
3 383 384 385
3 110 386 111
3 113 387 114
3 116 388 117
3 119 389 120
3 122 390 123
3 125 391 126
3 128 392 129
3 393 394 395
3 396 397 398
3 137 399 138
3 400 401 402
3 143 403 144
3 146 153 147
3 404 405 406
3 407 408 409
3 410 411 412
3 157 413 158
3 160 414 161
3 163 177 164
3 166 176 167
3 169 415 170
3 172 416 173
3 175 417 167
3 179 418 180
3 182 419 183
3 185 420 186
3 188 421 189
3 191 422 192
3 194 237 195
3 197 230 198
3 200 241 201
3 203 423 204
3 206 424 207
3 209 425 210
3 426 427 428
3 215 429 216
3 218 430 219
3 221 431 222
3 204 431 221
3 222 423 203
3 432 433 434
3 227 435 197
3 228 435 227
3 230 228 229
3 231 436 232
3 234 437 235
3 237 437 234
3 235 194 196
3 238 438 239
3 241 439 242
3 242 439 243
3 243 200 202
3 245 440 246
3 248 441 249
3 251 442 252
3 254 443 255
3 257 444 258
3 260 445 261
3 446 447 448
3 449 450 451
3 452 453 454
3 272 455 273
3 275 456 276
3 278 457 279
3 458 459 460
3 284 461 285
3 287 462 288
3 290 463 291
3 293 464 294
3 296 465 297
3 299 466 300
3 302 467 303
3 468 469 470
3 471 472 473
3 311 474 312
3 475 476 477
3 144 403 317
3 147 323 319
3 478 479 480
3 481 482 483
3 484 485 486
3 328 413 157
3 330 487 331
3 333 344 334
3 167 343 339
3 170 488 340
3 173 489 341
3 167 417 342
3 337 336 346
