ply
format ascii 1.0
comment Created by Blender 2.77 (sub 0) - www.blender.org, source file: 'Lamp0.blend'
element vertex 518
property float x
property float y
property float z
property float nx
property float ny
property float nz
property uchar red
property uchar green
property uchar blue
element face 224
property list uchar uint vertex_indices
end_header
-0.002172 4.228313 -0.143596 0.499981 0.009069 -0.865989 56 56 56
0.140221 2.439393 -0.080120 0.499981 0.009069 -0.865989 56 56 56
-0.002172 2.439393 -0.162331 0.499981 0.009069 -0.865989 56 56 56
0.123996 4.228313 -0.070753 0.999959 0.009069 -0.000000 56 56 56
0.140221 2.439393 0.084300 0.999959 0.009069 -0.000000 56 56 56
0.140221 2.439393 -0.080120 0.999959 0.009069 -0.000000 56 56 56
0.123996 4.228313 0.074933 0.499981 0.009069 0.865989 56 56 56
-0.002172 2.439393 0.166511 0.499981 0.009069 0.865989 56 56 56
0.140221 2.439393 0.084300 0.499981 0.009069 0.865989 56 56 56
-0.002172 4.228313 0.147776 -0.499984 0.009069 0.865987 56 56 56
-0.144564 2.439393 0.084300 -0.499984 0.009069 0.865987 56 56 56
-0.002172 2.439393 0.166511 -0.499984 0.009069 0.865987 56 56 56
-0.002172 4.228313 0.147776 0.473370 -0.321990 0.819905 56 56 56
0.172991 4.372372 0.103220 0.473370 -0.321990 0.819905 56 56 56
-0.002172 4.372372 0.204350 0.473370 -0.321990 0.819905 56 56 56
-0.128339 4.228313 0.074933 -0.999959 0.009069 0.000000 56 56 56
-0.144564 2.439393 -0.080120 -0.999959 0.009069 0.000000 56 56 56
-0.144564 2.439393 0.084300 -0.999959 0.009069 0.000000 56 56 56
-0.128339 4.228313 -0.070753 -0.499984 0.009069 -0.865987 56 56 56
-0.002172 2.439393 -0.162331 -0.499984 0.009069 -0.865987 56 56 56
-0.144564 2.439393 -0.080120 -0.499984 0.009069 -0.865987 56 56 56
0.271765 0.244258 -0.156067 0.000000 1.000000 -0.000000 56 56 56
0.362880 0.244258 0.212853 0.000000 1.000000 -0.000000 56 56 56
0.362880 0.244258 -0.208673 0.000000 1.000000 -0.000000 56 56 56
-0.222914 1.069480 -0.125356 -0.498967 0.064326 -0.864231 56 56 56
-0.002172 0.244258 -0.314225 -0.498967 0.064326 -0.864231 56 56 56
-0.276108 0.244258 -0.156067 -0.498967 0.064326 -0.864231 56 56 56
-0.222914 1.579099 -0.125356 -0.290978 0.813221 -0.503988 56 56 56
-0.002172 1.518007 -0.351378 -0.290978 0.813221 -0.503988 56 56 56
-0.308284 1.518007 -0.174644 -0.290978 0.813221 -0.503988 56 56 56
-0.222914 1.069480 0.129536 -0.997929 0.064327 0.000000 56 56 56
-0.276108 0.244258 -0.156067 -0.997929 0.064327 0.000000 56 56 56
-0.276108 0.244258 0.160247 -0.997929 0.064327 0.000000 56 56 56
-0.222914 1.579099 0.129536 -0.581954 0.813222 0.000000 56 56 56
-0.308284 1.518007 -0.174644 -0.581954 0.813222 0.000000 56 56 56
-0.308284 1.518007 0.178824 -0.581954 0.813222 0.000000 56 56 56
-0.002172 1.069480 0.256982 -0.498967 0.064327 0.864230 56 56 56
-0.276108 0.244258 0.160247 -0.498967 0.064327 0.864230 56 56 56
-0.002172 0.244258 0.318405 -0.498967 0.064327 0.864230 56 56 56
-0.002172 1.518007 0.355558 -0.290978 0.813221 0.503988 56 56 56
-0.222914 1.579099 0.129536 -0.290978 0.813221 0.503988 56 56 56
-0.308284 1.518007 0.178824 -0.290978 0.813221 0.503988 56 56 56
0.218571 1.069480 0.129536 0.498965 0.064326 0.864231 56 56 56
-0.002172 0.244258 0.318405 0.498965 0.064326 0.864231 56 56 56
0.271765 0.244258 0.160247 0.498965 0.064326 0.864231 56 56 56
0.218571 1.579099 0.129536 0.290977 0.813221 0.503988 56 56 56
-0.002172 1.518007 0.355558 0.290977 0.813221 0.503988 56 56 56
0.303941 1.518007 0.178824 0.290977 0.813221 0.503988 56 56 56
0.218571 1.069480 -0.125356 0.997929 0.064327 -0.000000 56 56 56
0.271765 0.244258 0.160247 0.997929 0.064327 -0.000000 56 56 56
0.271765 0.244258 -0.156067 0.997929 0.064327 -0.000000 56 56 56
0.218571 1.579099 -0.125356 0.581953 0.813222 -0.000000 56 56 56
0.303941 1.518007 0.178824 0.581953 0.813222 -0.000000 56 56 56
0.303941 1.518007 -0.174644 0.581953 0.813222 -0.000000 56 56 56
-0.002172 0.244258 -0.314225 0.498965 0.064326 -0.864231 56 56 56
0.218571 1.069480 -0.125356 0.498965 0.064326 -0.864231 56 56 56
0.271765 0.244258 -0.156067 0.498965 0.064326 -0.864231 56 56 56
-0.002172 1.518007 -0.351378 0.290977 0.813221 -0.503988 56 56 56
0.218571 1.579099 -0.125356 0.290977 0.813221 -0.503988 56 56 56
0.303941 1.518007 -0.174644 0.290977 0.813221 -0.503988 56 56 56
-0.002172 1.069480 -0.252802 0.290978 -0.813220 -0.503989 56 56 56
0.303941 1.130572 -0.174644 0.290978 -0.813220 -0.503989 56 56 56
0.218571 1.069480 -0.125356 0.290978 -0.813220 -0.503989 56 56 56
-0.002172 1.130573 -0.351378 0.499999 -0.000000 -0.866026 56 56 56
0.303941 1.518007 -0.174644 0.499999 -0.000000 -0.866026 56 56 56
0.303941 1.130572 -0.174644 0.499999 -0.000000 -0.866026 56 56 56
0.303941 1.130572 -0.174644 0.581954 -0.813222 0.000000 56 56 56
0.218571 1.069480 0.129536 0.581954 -0.813222 0.000000 56 56 56
0.218571 1.069480 -0.125356 0.581954 -0.813222 0.000000 56 56 56
0.303941 1.518007 -0.174644 1.000000 -0.000000 0.000000 56 56 56
0.303941 1.130572 0.178824 1.000000 -0.000000 0.000000 56 56 56
0.303941 1.130572 -0.174644 1.000000 -0.000000 0.000000 56 56 56
0.303941 1.130572 0.178824 0.290978 -0.813220 0.503989 56 56 56
-0.002172 1.069480 0.256982 0.290978 -0.813220 0.503989 56 56 56
0.218571 1.069480 0.129536 0.290978 -0.813220 0.503989 56 56 56
0.303941 1.518007 0.178824 0.499999 0.000000 0.866026 56 56 56
-0.002172 1.130572 0.355558 0.499999 0.000000 0.866026 56 56 56
0.303941 1.130572 0.178824 0.499999 0.000000 0.866026 56 56 56
-0.002172 1.130572 0.355558 -0.290980 -0.813219 0.503990 56 56 56
-0.222914 1.069480 0.129536 -0.290980 -0.813219 0.503990 56 56 56
-0.002172 1.069480 0.256982 -0.290980 -0.813219 0.503990 56 56 56
-0.002172 1.518007 0.355558 -0.500000 0.000000 0.866025 56 56 56
-0.308284 1.130572 0.178824 -0.500000 0.000000 0.866025 56 56 56
-0.002172 1.130572 0.355558 -0.500000 0.000000 0.866025 56 56 56
-0.308284 1.130572 0.178824 -0.581954 -0.813221 -0.000000 56 56 56
-0.222914 1.069480 -0.125356 -0.581954 -0.813221 -0.000000 56 56 56
-0.222914 1.069480 0.129536 -0.581954 -0.813221 -0.000000 56 56 56
-0.308284 1.518007 0.178824 -1.000000 0.000000 0.000000 56 56 56
-0.308284 1.130572 -0.174644 -1.000000 0.000000 0.000000 56 56 56
-0.308284 1.130572 0.178824 -1.000000 0.000000 0.000000 56 56 56
-0.308284 1.130572 -0.174644 -0.290979 -0.813221 -0.503988 56 56 56
-0.002172 1.069480 -0.252802 -0.290979 -0.813221 -0.503988 56 56 56
-0.222914 1.069480 -0.125356 -0.290979 -0.813221 -0.503988 56 56 56
-0.308284 1.518007 -0.174644 -0.500000 -0.000000 -0.866025 56 56 56
-0.002172 1.130573 -0.351378 -0.500000 -0.000000 -0.866025 56 56 56
-0.308284 1.130572 -0.174644 -0.500000 -0.000000 -0.866025 56 56 56
0.271765 0.014566 -0.156067 0.000000 -1.000000 0.000000 56 56 56
-0.276108 0.014566 0.160247 0.000000 -1.000000 0.000000 56 56 56
-0.276108 0.014566 -0.156067 0.000000 -1.000000 0.000000 56 56 56
-0.002172 0.244258 0.318405 -0.000000 1.000000 -0.000000 56 56 56
0.271765 0.244258 0.160247 -0.000000 1.000000 -0.000000 56 56 56
-0.002172 0.014566 0.318405 0.000000 -1.000000 0.000000 56 56 56
0.362880 0.014566 0.212853 0.000000 -1.000000 0.000000 56 56 56
-0.002172 0.014566 0.423616 0.000000 -1.000000 0.000000 56 56 56
-0.002172 0.244258 -0.314225 0.000000 1.000000 -0.000000 56 56 56
-0.002172 0.244258 -0.419436 0.000000 1.000000 -0.000000 56 56 56
-0.276108 0.244258 0.160247 -0.000000 1.000000 0.000000 56 56 56
-0.002172 0.244258 0.423616 -0.000000 1.000000 0.000000 56 56 56
-0.002172 0.014566 -0.314225 0.000000 -1.000000 0.000000 56 56 56
-0.367223 0.014566 -0.208673 0.000000 -1.000000 0.000000 56 56 56
-0.002172 0.014566 -0.419436 0.000000 -1.000000 0.000000 56 56 56
0.362880 0.244258 0.212853 1.000000 0.000000 -0.000000 56 56 56
0.362880 0.014566 -0.208673 1.000000 0.000000 -0.000000 56 56 56
0.362880 0.244258 -0.208673 1.000000 0.000000 -0.000000 56 56 56
-0.367223 0.244258 -0.208673 -1.000000 -0.000000 -0.000000 56 56 56
-0.367223 0.014566 0.212853 -1.000000 -0.000000 -0.000000 56 56 56
-0.367223 0.244258 0.212853 -1.000000 -0.000000 -0.000000 56 56 56
0.362880 0.244258 -0.208673 0.500000 0.000000 -0.866025 56 56 56
-0.002172 0.014566 -0.419436 0.500000 0.000000 -0.866025 56 56 56
-0.002172 0.244258 -0.419436 0.500000 0.000000 -0.866025 56 56 56
-0.002172 0.244258 0.423616 0.500000 0.000000 0.866025 56 56 56
0.362880 0.014566 0.212853 0.500000 0.000000 0.866025 56 56 56
0.362880 0.244258 0.212853 0.500000 0.000000 0.866025 56 56 56
-0.002172 0.244258 -0.419436 -0.500001 -0.000000 -0.866025 56 56 56
-0.367223 0.014566 -0.208673 -0.500001 -0.000000 -0.866025 56 56 56
-0.367223 0.244258 -0.208673 -0.500001 -0.000000 -0.866025 56 56 56
-0.367223 0.244258 0.212853 -0.500001 0.000000 0.866025 56 56 56
-0.002172 0.014566 0.423616 -0.500001 0.000000 0.866025 56 56 56
-0.002172 0.244258 0.423616 -0.500001 0.000000 0.866025 56 56 56
-0.367223 0.014566 0.212853 0.000000 -1.000000 0.000000 56 56 56
0.362880 0.014566 -0.208673 -0.000000 -1.000000 0.000000 56 56 56
0.271765 0.014566 0.160247 -0.000000 -1.000000 0.000000 56 56 56
-0.367223 0.244258 -0.208673 -0.000000 1.000000 -0.000000 56 56 56
-0.276108 0.244258 -0.156067 -0.000000 1.000000 -0.000000 56 56 56
-0.367223 0.244258 0.212853 0.000000 1.000000 -0.000000 56 56 56
-0.144564 2.439393 -0.080120 -0.497941 0.090699 -0.862455 56 56 56
-0.002172 1.579099 -0.252802 -0.497941 0.090699 -0.862455 56 56 56
-0.222914 1.579099 -0.125356 -0.497941 0.090699 -0.862455 56 56 56
-0.144564 2.439393 0.084300 -0.995878 0.090698 0.000000 56 56 56
-0.222914 1.579099 -0.125356 -0.995878 0.090698 0.000000 56 56 56
-0.222914 1.579099 0.129536 -0.995878 0.090698 0.000000 56 56 56
-0.002172 2.439393 0.166511 -0.497941 0.090698 0.862455 56 56 56
-0.222914 1.579099 0.129536 -0.497941 0.090698 0.862455 56 56 56
-0.002172 1.579099 0.256982 -0.497941 0.090698 0.862455 56 56 56
0.140221 2.439393 0.084300 0.497939 0.090699 0.862456 56 56 56
-0.002172 1.579099 0.256982 0.497939 0.090699 0.862456 56 56 56
0.218571 1.579099 0.129536 0.497939 0.090699 0.862456 56 56 56
0.140221 2.439393 -0.080120 0.995878 0.090698 -0.000000 56 56 56
0.218571 1.579099 0.129536 0.995878 0.090698 -0.000000 56 56 56
0.218571 1.579099 -0.125356 0.995878 0.090698 -0.000000 56 56 56
-0.002172 1.579099 -0.252802 0.497939 0.090699 -0.862456 56 56 56
0.140221 2.439393 -0.080120 0.497939 0.090699 -0.862456 56 56 56
0.218571 1.579099 -0.125356 0.497939 0.090699 -0.862456 56 56 56
-0.177334 4.372372 0.103220 -1.000000 0.000000 0.000000 56 56 56
-0.177334 4.453786 -0.099040 -1.000000 0.000000 0.000000 56 56 56
-0.177334 4.372372 -0.099040 -1.000000 0.000000 0.000000 56 56 56
-0.128339 4.228313 -0.070753 -0.473374 -0.321989 -0.819903 56 56 56
-0.002172 4.372372 -0.200170 -0.473374 -0.321989 -0.819903 56 56 56
-0.002172 4.228313 -0.143596 -0.473374 -0.321989 -0.819903 56 56 56
-0.128339 4.228313 0.074933 -0.473372 -0.321991 0.819903 56 56 56
-0.002172 4.372372 0.204350 -0.473372 -0.321991 0.819903 56 56 56
-0.177334 4.372372 0.103220 -0.473372 -0.321991 0.819903 56 56 56
0.123996 4.228313 -0.070753 0.946742 -0.321992 0.000000 56 56 56
0.172991 4.372372 0.103220 0.946742 -0.321992 0.000000 56 56 56
0.123996 4.228313 0.074933 0.946742 -0.321992 0.000000 56 56 56
-0.128339 4.228313 0.074933 -0.946742 -0.321992 0.000000 56 56 56
-0.177334 4.372372 -0.099040 -0.946742 -0.321992 0.000000 56 56 56
-0.128339 4.228313 -0.070753 -0.946742 -0.321992 0.000000 56 56 56
-0.002172 4.228313 -0.143596 0.473371 -0.321991 -0.819904 56 56 56
0.172991 4.372372 -0.099040 0.473371 -0.321991 -0.819904 56 56 56
0.123996 4.228313 -0.070753 0.473371 -0.321991 -0.819904 56 56 56
-0.177334 4.453786 -0.099040 -0.316690 0.773842 -0.548522 56 56 56
-0.002172 4.481237 -0.161442 -0.316690 0.773842 -0.548522 56 56 56
-0.002172 4.453786 -0.200170 -0.316690 0.773842 -0.548522 56 56 56
0.172991 4.372372 0.103220 0.499999 -0.000000 0.866026 56 56 56
-0.002172 4.453786 0.204350 0.499999 -0.000000 0.866026 56 56 56
-0.002172 4.372372 0.204350 0.499999 -0.000000 0.866026 56 56 56
-0.002172 4.372372 -0.200170 0.499999 0.000000 -0.866026 56 56 56
0.172991 4.453786 -0.099040 0.499999 0.000000 -0.866026 56 56 56
0.172991 4.372372 -0.099040 0.499999 0.000000 -0.866026 56 56 56
-0.177334 4.372372 -0.099040 -0.500001 0.000000 -0.866025 56 56 56
-0.002172 4.453786 -0.200170 -0.500001 0.000000 -0.866025 56 56 56
-0.002172 4.372372 -0.200170 -0.500001 0.000000 -0.866025 56 56 56
-0.002172 4.372372 0.204350 -0.500001 0.000000 0.866025 56 56 56
-0.177334 4.453786 0.103220 -0.500001 0.000000 0.866025 56 56 56
-0.177334 4.372372 0.103220 -0.500001 0.000000 0.866025 56 56 56
0.172991 4.372372 -0.099040 1.000000 -0.000000 0.000000 56 56 56
0.172991 4.453786 0.103220 1.000000 -0.000000 0.000000 56 56 56
0.172991 4.372372 0.103220 1.000000 -0.000000 0.000000 56 56 56
-0.002172 4.453786 0.204350 -0.316691 0.773840 0.548523 56 56 56
-0.143795 4.481237 0.083856 -0.316691 0.773840 0.548523 56 56 56
-0.177334 4.453786 0.103220 -0.316691 0.773840 0.548523 56 56 56
0.172991 4.453786 -0.099040 0.714593 0.699540 0.000000 56 56 56
0.139451 4.488048 0.083856 0.714593 0.699540 0.000000 56 56 56
0.172991 4.453786 0.103220 0.714593 0.699540 0.000000 56 56 56
-0.177334 4.453786 -0.099040 -0.633383 0.773838 0.000000 56 56 56
-0.143795 4.481237 0.083856 -0.633383 0.773838 0.000000 56 56 56
-0.143795 4.481237 -0.079676 -0.633383 0.773838 0.000000 56 56 56
-0.002172 4.453786 0.204350 0.357299 0.699534 0.618861 56 56 56
0.139451 4.488048 0.083856 0.357299 0.699534 0.618861 56 56 56
-0.002172 4.488048 0.165622 0.357299 0.699534 0.618861 56 56 56
0.172991 4.453786 -0.099040 0.336273 0.690897 -0.639986 56 56 56
-0.002172 4.481237 -0.161442 0.336273 0.690897 -0.639986 56 56 56
0.139451 4.488048 -0.079676 0.336273 0.690897 -0.639986 56 56 56
0.139451 4.488048 -0.079676 0.450826 -0.892612 0.000000 255 240 162
0.221011 4.529241 0.130945 0.450826 -0.892612 0.000000 255 240 162
0.139451 4.488048 0.083856 0.450826 -0.892612 0.000000 255 240 162
0.221012 4.529241 -0.126765 0.497616 -0.097522 -0.861898 255 240 162
-0.002172 5.345415 -0.347968 0.497616 -0.097522 -0.861898 255 240 162
0.300988 5.345415 -0.172939 0.497616 -0.097522 -0.861898 255 240 162
-0.143795 4.481237 -0.079676 -0.507230 -0.861811 0.000000 255 240 162
-0.225355 4.529241 0.130945 -0.507230 -0.861811 0.000000 255 240 162
-0.225355 4.529241 -0.126765 -0.507230 -0.861811 0.000000 255 240 162
0.139451 4.488048 0.083856 0.225412 -0.892613 0.390425 255 240 162
-0.002172 4.529241 0.259800 0.225412 -0.892613 0.390425 255 240 162
-0.002172 4.488048 0.165622 0.225412 -0.892613 0.390425 255 240 162
0.139451 4.488048 -0.079676 0.225411 -0.892614 -0.390424 255 240 162
-0.002172 4.529241 -0.255620 0.225411 -0.892614 -0.390424 255 240 162
0.221012 4.529241 -0.126765 0.225411 -0.892614 -0.390424 255 240 162
-0.002172 4.481237 -0.161442 -0.253614 -0.861812 -0.439272 255 240 162
-0.225355 4.529241 -0.126765 -0.253614 -0.861812 -0.439272 255 240 162
-0.002172 4.529241 -0.255620 -0.253614 -0.861812 -0.439272 255 240 162
-0.002172 4.488048 0.165622 -0.230290 -0.852178 0.469851 255 240 162
-0.225355 4.529241 0.130945 -0.230290 -0.852178 0.469851 255 240 162
-0.143795 4.481237 0.083856 -0.230290 -0.852178 0.469851 255 240 162
-0.002172 5.471640 0.352148 -0.331188 0.749173 0.573633 56 56 56
-0.372920 5.411881 0.216141 -0.331188 0.749173 0.573633 56 56 56
-0.002172 5.411881 0.430193 -0.331188 0.749173 0.573633 56 56 56
-0.225355 4.529241 -0.126765 -0.497617 -0.097521 -0.861897 255 240 162
-0.002172 5.345415 -0.347968 -0.497617 -0.097521 -0.861897 255 240 162
-0.002172 4.529241 -0.255620 -0.497617 -0.097521 -0.861897 255 240 162
-0.002172 4.529241 0.259800 -0.497617 -0.097522 0.861897 255 240 162
-0.305331 5.345415 0.177119 -0.497617 -0.097522 0.861897 255 240 162
-0.225355 4.529241 0.130945 -0.497617 -0.097522 0.861897 255 240 162
0.221012 4.529241 -0.126765 0.995233 -0.097523 0.000004 255 240 162
0.300988 5.345415 0.177119 0.995233 -0.097523 0.000004 255 240 162
0.221011 4.529241 0.130945 0.995233 -0.097523 0.000004 255 240 162
-0.225355 4.529241 0.130945 -0.995233 -0.097522 0.000000 255 240 162
-0.305331 5.345415 -0.172939 -0.995233 -0.097522 0.000000 255 240 162
-0.225355 4.529241 -0.126765 -0.995233 -0.097522 0.000000 255 240 162
0.221011 4.529241 0.130945 0.497617 -0.097521 0.861897 255 240 162
-0.002172 5.345415 0.352148 0.497617 -0.097521 0.861897 255 240 162
-0.002172 4.529241 0.259800 0.497617 -0.097521 0.861897 255 240 162
-0.002172 5.471640 -0.347968 -0.351537 0.711120 -0.608876 56 56 56
-0.210183 5.565710 -0.118005 -0.351537 0.711120 -0.608876 56 56 56
-0.002172 5.565710 -0.238101 -0.351537 0.711120 -0.608876 56 56 56
0.300988 5.345415 -0.172939 -0.300315 -0.953840 0.000000 56 56 56
0.368577 5.324135 0.216142 -0.300315 -0.953840 0.000000 56 56 56
0.300988 5.345415 0.177119 -0.300315 -0.953840 0.000000 56 56 56
-0.305331 5.345415 -0.172939 0.300315 -0.953840 0.000000 56 56 56
-0.372920 5.324135 0.216141 0.300315 -0.953840 0.000000 56 56 56
-0.372920 5.324135 -0.211962 0.300315 -0.953840 0.000000 56 56 56
-0.002172 5.471640 0.352148 0.331185 0.749175 0.573632 56 56 56
0.368577 5.411881 0.216142 0.331185 0.749175 0.573632 56 56 56
0.300988 5.471640 0.177119 0.331185 0.749175 0.573632 56 56 56
-0.002172 5.345415 -0.347968 -0.150156 -0.953841 0.260079 56 56 56
0.368577 5.324135 -0.211962 -0.150156 -0.953841 0.260079 56 56 56
0.300988 5.345415 -0.172939 -0.150156 -0.953841 0.260079 56 56 56
-0.002172 5.471640 -0.347968 -0.331186 0.749175 -0.573631 56 56 56
-0.372920 5.411881 -0.211962 -0.331186 0.749175 -0.573631 56 56 56
-0.305331 5.471640 -0.172939 -0.331186 0.749175 -0.573631 56 56 56
-0.372920 5.324135 0.216141 -1.000000 0.000000 0.000000 56 56 56
-0.372920 5.411881 -0.211962 -1.000000 0.000000 0.000000 56 56 56
-0.372920 5.324135 -0.211962 -1.000000 0.000000 0.000000 56 56 56
-0.002172 5.324135 0.430193 0.499998 0.000000 0.866026 56 56 56
0.368577 5.411881 0.216142 0.499998 0.000000 0.866026 56 56 56
-0.002172 5.411881 0.430193 0.499998 0.000000 0.866026 56 56 56
-0.002172 5.324135 -0.426013 0.499998 0.000000 -0.866026 56 56 56
0.368577 5.411881 -0.211962 0.499998 0.000000 -0.866026 56 56 56
0.368577 5.324135 -0.211962 0.499998 0.000000 -0.866026 56 56 56
-0.372920 5.324135 -0.211962 -0.499999 0.000000 -0.866026 56 56 56
-0.002172 5.411881 -0.426013 -0.499999 0.000000 -0.866026 56 56 56
-0.002172 5.324135 -0.426013 -0.499999 0.000000 -0.866026 56 56 56
-0.002172 5.324135 0.430193 -0.500001 0.000000 0.866025 56 56 56
-0.372920 5.411881 0.216141 -0.500001 0.000000 0.866025 56 56 56
-0.372920 5.324135 0.216141 -0.500001 0.000000 0.866025 56 56 56
0.368577 5.324135 -0.211962 1.000000 -0.000000 0.000000 56 56 56
0.368577 5.411881 0.216142 1.000000 -0.000000 0.000000 56 56 56
0.368577 5.324135 0.216142 1.000000 -0.000000 0.000000 56 56 56
-0.002172 5.345415 -0.347968 0.150157 -0.953840 0.260081 56 56 56
-0.372920 5.324135 -0.211962 0.150157 -0.953840 0.260081 56 56 56
-0.002172 5.324135 -0.426013 0.150157 -0.953840 0.260081 56 56 56
-0.002172 5.471640 -0.347968 0.331186 0.749173 -0.573634 56 56 56
0.368577 5.411881 -0.211962 0.331186 0.749173 -0.573634 56 56 56
-0.002172 5.411881 -0.426013 0.331186 0.749173 -0.573634 56 56 56
0.300988 5.345415 0.177119 -0.150157 -0.953840 -0.260081 56 56 56
-0.002172 5.324135 0.430193 -0.150157 -0.953840 -0.260081 56 56 56
-0.002172 5.345415 0.352148 -0.150157 -0.953840 -0.260081 56 56 56
-0.305331 5.471640 -0.172939 -0.662374 0.749173 0.000000 56 56 56
-0.372920 5.411881 0.216141 -0.662374 0.749173 0.000000 56 56 56
-0.305331 5.471640 0.177119 -0.662374 0.749173 0.000000 56 56 56
0.300988 5.471640 -0.172939 0.662374 0.749173 -0.000000 56 56 56
0.368577 5.411881 0.216142 0.662374 0.749173 -0.000000 56 56 56
0.368577 5.411881 -0.211962 0.662374 0.749173 -0.000000 56 56 56
-0.002172 5.345415 0.352148 0.150158 -0.953840 -0.260082 56 56 56
-0.372920 5.324135 0.216141 0.150158 -0.953840 -0.260082 56 56 56
-0.305331 5.345415 0.177119 0.150158 -0.953840 -0.260082 56 56 56
-0.002172 5.565710 -0.238101 0.000000 1.000000 0.000000 56 56 56
-0.210183 5.565710 0.122185 0.000000 1.000000 0.000000 56 56 56
0.205840 5.565710 0.122185 0.000000 1.000000 0.000000 56 56 56
-0.002172 5.471640 0.352148 -0.351534 0.711123 0.608874 56 56 56
-0.210183 5.565710 0.122185 -0.351534 0.711123 0.608874 56 56 56
-0.305331 5.471640 0.177119 -0.351534 0.711123 0.608874 56 56 56
0.300988 5.471640 0.177119 0.703069 0.711122 0.000000 56 56 56
0.205840 5.565710 -0.118005 0.703069 0.711122 0.000000 56 56 56
0.205840 5.565710 0.122185 0.703069 0.711122 0.000000 56 56 56
-0.305331 5.471640 0.177119 -0.703068 0.711122 0.000000 56 56 56
-0.210183 5.565710 -0.118005 -0.703068 0.711122 0.000000 56 56 56
-0.305331 5.471640 -0.172939 -0.703068 0.711122 0.000000 56 56 56
-0.002172 5.471640 0.352148 0.351536 0.711120 0.608876 56 56 56
0.205840 5.565710 0.122185 0.351536 0.711120 0.608876 56 56 56
-0.002172 5.565710 0.242281 0.351536 0.711120 0.608876 56 56 56
-0.002172 5.471640 -0.347968 0.351533 0.711123 -0.608875 56 56 56
0.205840 5.565710 -0.118005 0.351533 0.711123 -0.608875 56 56 56
0.300988 5.471640 -0.172939 0.351533 0.711123 -0.608875 56 56 56
-0.002172 4.228313 -0.143596 0.499979 0.009069 -0.865990 56 56 56
0.123996 4.228313 -0.070753 0.499979 0.009069 -0.865990 56 56 56
0.140221 2.439393 -0.080120 0.499979 0.009069 -0.865990 56 56 56
0.123996 4.228313 0.074933 0.999959 0.009069 0.000000 56 56 56
0.123996 4.228313 0.074933 0.499979 0.009069 0.865990 56 56 56
-0.002172 4.228313 0.147776 0.499979 0.009069 0.865990 56 56 56
-0.002172 2.439393 0.166511 0.499979 0.009069 0.865990 56 56 56
-0.002172 4.228313 0.147776 -0.499982 0.009069 0.865988 56 56 56
-0.128339 4.228313 0.074933 -0.499982 0.009069 0.865988 56 56 56
-0.144564 2.439393 0.084300 -0.499982 0.009069 0.865988 56 56 56
-0.002172 4.228313 0.147776 0.473371 -0.321991 0.819904 56 56 56
0.123996 4.228313 0.074933 0.473371 -0.321991 0.819904 56 56 56
0.172991 4.372372 0.103220 0.473371 -0.321991 0.819904 56 56 56
-0.128339 4.228313 -0.070753 -0.999959 0.009069 0.000000 56 56 56
-0.128339 4.228313 -0.070753 -0.499982 0.009069 -0.865988 56 56 56
-0.002172 4.228313 -0.143596 -0.499982 0.009069 -0.865988 56 56 56
-0.002172 2.439393 -0.162331 -0.499982 0.009069 -0.865988 56 56 56
-0.222914 1.069480 -0.125356 -0.498966 0.064326 -0.864231 56 56 56
-0.002172 1.069480 -0.252802 -0.498966 0.064326 -0.864231 56 56 56
-0.002172 0.244258 -0.314225 -0.498966 0.064326 -0.864231 56 56 56
-0.222914 1.579099 -0.125356 -0.290979 0.813220 -0.503989 56 56 56
-0.002172 1.579099 -0.252802 -0.290979 0.813220 -0.503989 56 56 56
-0.002172 1.518007 -0.351378 -0.290979 0.813220 -0.503989 56 56 56
-0.222914 1.069480 -0.125356 -0.997929 0.064327 0.000000 56 56 56
-0.222914 1.579099 -0.125356 -0.581954 0.813222 0.000000 56 56 56
-0.002172 1.069480 0.256982 -0.498966 0.064326 0.864231 56 56 56
-0.222914 1.069480 0.129536 -0.498966 0.064326 0.864231 56 56 56
-0.276108 0.244258 0.160247 -0.498966 0.064326 0.864231 56 56 56
-0.002172 1.518007 0.355558 -0.290979 0.813220 0.503989 56 56 56
-0.002172 1.579099 0.256982 -0.290979 0.813220 0.503989 56 56 56
-0.222914 1.579099 0.129536 -0.290979 0.813220 0.503989 56 56 56
0.218571 1.069480 0.129536 0.498964 0.064327 0.864232 56 56 56
-0.002172 1.069480 0.256982 0.498964 0.064327 0.864232 56 56 56
-0.002172 0.244258 0.318405 0.498964 0.064327 0.864232 56 56 56
0.218571 1.579099 0.129536 0.290978 0.813220 0.503989 56 56 56
-0.002172 1.579099 0.256982 0.290978 0.813220 0.503989 56 56 56
-0.002172 1.518007 0.355558 0.290978 0.813220 0.503989 56 56 56
0.218571 1.069480 0.129536 0.997929 0.064327 0.000000 56 56 56
0.218571 1.579099 0.129536 0.581953 0.813222 0.000000 56 56 56
-0.002172 0.244258 -0.314225 0.498964 0.064327 -0.864232 56 56 56
-0.002172 1.069480 -0.252802 0.498964 0.064327 -0.864232 56 56 56
0.218571 1.069480 -0.125356 0.498964 0.064327 -0.864232 56 56 56
-0.002172 1.518007 -0.351378 0.290978 0.813220 -0.503989 56 56 56
-0.002172 1.579099 -0.252802 0.290978 0.813220 -0.503989 56 56 56
0.218571 1.579099 -0.125356 0.290978 0.813220 -0.503989 56 56 56
-0.002172 1.069480 -0.252802 0.290979 -0.813216 -0.503995 56 56 56
-0.002172 1.130573 -0.351378 0.290979 -0.813216 -0.503995 56 56 56
0.303941 1.130572 -0.174644 0.290979 -0.813216 -0.503995 56 56 56
-0.002172 1.518007 -0.351378 0.499999 0.000000 -0.866026 56 56 56
0.303941 1.130572 0.178824 0.581954 -0.813222 0.000000 56 56 56
0.303941 1.518007 0.178824 1.000000 0.000000 0.000000 56 56 56
0.303941 1.130572 0.178824 0.290978 -0.813219 0.503990 56 56 56
-0.002172 1.130572 0.355558 0.290978 -0.813219 0.503990 56 56 56
-0.002172 1.069480 0.256982 0.290978 -0.813219 0.503990 56 56 56
-0.002172 1.518007 0.355558 0.499999 -0.000000 0.866026 56 56 56
-0.002172 1.130572 0.355558 -0.290978 -0.813220 0.503988 56 56 56
-0.308284 1.130572 0.178824 -0.290978 -0.813220 0.503988 56 56 56
-0.222914 1.069480 0.129536 -0.290978 -0.813220 0.503988 56 56 56
-0.308284 1.518007 0.178824 -0.500000 0.000000 0.866025 56 56 56
-0.308284 1.130572 -0.174644 -0.581954 -0.813221 0.000000 56 56 56
-0.308284 1.518007 -0.174644 -1.000000 0.000000 0.000000 56 56 56
-0.308284 1.130572 -0.174644 -0.290980 -0.813216 -0.503995 56 56 56
-0.002172 1.130573 -0.351378 -0.290980 -0.813216 -0.503995 56 56 56
-0.002172 1.069480 -0.252802 -0.290980 -0.813216 -0.503995 56 56 56
-0.002172 1.518007 -0.351378 -0.500000 0.000000 -0.866025 56 56 56
0.362880 0.014566 0.212853 1.000000 -0.000000 0.000000 56 56 56
-0.367223 0.014566 -0.208673 -1.000000 0.000000 -0.000000 56 56 56
0.362880 0.014566 -0.208673 0.500000 -0.000000 -0.866025 56 56 56
-0.002172 0.014566 0.423616 0.500000 -0.000000 0.866025 56 56 56
-0.002172 0.014566 -0.419436 -0.500001 0.000000 -0.866025 56 56 56
-0.367223 0.014566 0.212853 -0.500001 0.000000 0.866025 56 56 56
-0.144564 2.439393 -0.080120 -0.497944 0.090698 -0.862454 56 56 56
-0.002172 2.439393 -0.162331 -0.497944 0.090698 -0.862454 56 56 56
-0.002172 1.579099 -0.252802 -0.497944 0.090698 -0.862454 56 56 56
-0.144564 2.439393 -0.080120 -0.995878 0.090698 0.000000 56 56 56
-0.002172 2.439393 0.166511 -0.497944 0.090699 0.862454 56 56 56
-0.144564 2.439393 0.084300 -0.497944 0.090699 0.862454 56 56 56
-0.222914 1.579099 0.129536 -0.497944 0.090699 0.862454 56 56 56
0.140221 2.439393 0.084300 0.497941 0.090698 0.862455 56 56 56
-0.002172 2.439393 0.166511 0.497941 0.090698 0.862455 56 56 56
-0.002172 1.579099 0.256982 0.497941 0.090698 0.862455 56 56 56
0.140221 2.439393 0.084300 0.995878 0.090698 0.000000 56 56 56
-0.002172 1.579099 -0.252802 0.497941 0.090698 -0.862455 56 56 56
-0.002172 2.439393 -0.162331 0.497941 0.090698 -0.862455 56 56 56
0.140221 2.439393 -0.080120 0.497941 0.090698 -0.862455 56 56 56
-0.177334 4.453786 0.103220 -1.000000 0.000000 0.000000 56 56 56
-0.128339 4.228313 -0.070753 -0.473372 -0.321991 -0.819903 56 56 56
-0.177334 4.372372 -0.099040 -0.473372 -0.321991 -0.819903 56 56 56
-0.002172 4.372372 -0.200170 -0.473372 -0.321991 -0.819903 56 56 56
-0.128339 4.228313 0.074933 -0.473374 -0.321989 0.819903 56 56 56
-0.002172 4.228313 0.147776 -0.473374 -0.321989 0.819903 56 56 56
-0.002172 4.372372 0.204350 -0.473374 -0.321989 0.819903 56 56 56
0.172991 4.372372 -0.099040 0.946742 -0.321992 0.000000 56 56 56
-0.177334 4.372372 0.103220 -0.946742 -0.321992 0.000000 56 56 56
-0.002172 4.228313 -0.143596 0.473370 -0.321990 -0.819904 56 56 56
-0.002172 4.372372 -0.200170 0.473370 -0.321990 -0.819904 56 56 56
0.172991 4.372372 -0.099040 0.473370 -0.321990 -0.819904 56 56 56
-0.177334 4.453786 -0.099040 -0.316690 0.773840 -0.548524 56 56 56
-0.143795 4.481237 -0.079676 -0.316690 0.773840 -0.548524 56 56 56
-0.002172 4.481237 -0.161442 -0.316690 0.773840 -0.548524 56 56 56
0.172991 4.453786 0.103220 0.499999 0.000000 0.866026 56 56 56
-0.002172 4.453786 -0.200170 0.499999 0.000000 -0.866026 56 56 56
-0.177334 4.453786 -0.099040 -0.500001 -0.000000 -0.866025 56 56 56
-0.002172 4.453786 0.204350 -0.500001 0.000000 0.866025 56 56 56
0.172991 4.453786 -0.099040 1.000000 0.000000 0.000000 56 56 56
-0.002172 4.453786 0.204350 -0.386109 0.690894 0.611217 56 56 56
-0.002172 4.488048 0.165622 -0.386109 0.690894 0.611217 56 56 56
-0.143795 4.481237 0.083856 -0.386109 0.690894 0.611217 56 56 56
0.139451 4.488048 -0.079676 0.714593 0.699540 0.000000 56 56 56
-0.177334 4.453786 0.103220 -0.633383 0.773838 0.000000 56 56 56
-0.002172 4.453786 0.204350 0.357297 0.699537 0.618859 56 56 56
0.172991 4.453786 0.103220 0.357297 0.699537 0.618859 56 56 56
0.139451 4.488048 0.083856 0.357297 0.699537 0.618859 56 56 56
0.172991 4.453786 -0.099040 0.316688 0.773843 -0.548522 56 56 56
-0.002172 4.453786 -0.200170 0.316688 0.773843 -0.548522 56 56 56
-0.002172 4.481237 -0.161442 0.316688 0.773843 -0.548522 56 56 56
0.139451 4.488048 -0.079676 0.450822 -0.892614 0.000002 255 240 162
0.221012 4.529241 -0.126765 0.450822 -0.892614 0.000002 255 240 162
0.221011 4.529241 0.130945 0.450822 -0.892614 0.000002 255 240 162
0.221012 4.529241 -0.126765 0.497616 -0.097521 -0.861898 255 240 162
-0.002172 4.529241 -0.255620 0.497616 -0.097521 -0.861898 255 240 162
-0.002172 5.345415 -0.347968 0.497616 -0.097521 -0.861898 255 240 162
-0.143795 4.481237 0.083856 -0.507230 -0.861811 -0.000000 255 240 162
0.139451 4.488048 0.083856 0.225413 -0.892613 0.390425 255 240 162
0.221011 4.529241 0.130945 0.225413 -0.892613 0.390425 255 240 162
-0.002172 4.529241 0.259800 0.225413 -0.892613 0.390425 255 240 162
0.139451 4.488048 -0.079676 0.291757 -0.852178 -0.434361 255 240 162
-0.002172 4.481237 -0.161442 0.291757 -0.852178 -0.434361 255 240 162
-0.002172 4.529241 -0.255620 0.291757 -0.852178 -0.434361 255 240 162
-0.002172 4.481237 -0.161442 -0.253614 -0.861811 -0.439273 255 240 162
-0.143795 4.481237 -0.079676 -0.253614 -0.861811 -0.439273 255 240 162
-0.225355 4.529241 -0.126765 -0.253614 -0.861811 -0.439273 255 240 162
-0.002172 4.488048 0.165622 -0.225412 -0.892613 0.390425 255 240 162
-0.002172 4.529241 0.259800 -0.225412 -0.892613 0.390425 255 240 162
-0.225355 4.529241 0.130945 -0.225412 -0.892613 0.390425 255 240 162
-0.002172 5.471640 0.352148 -0.331189 0.749171 0.573635 56 56 56
-0.305331 5.471640 0.177119 -0.331189 0.749171 0.573635 56 56 56
-0.372920 5.411881 0.216141 -0.331189 0.749171 0.573635 56 56 56
-0.225355 4.529241 -0.126765 -0.497617 -0.097522 -0.861897 255 240 162
-0.305331 5.345415 -0.172939 -0.497617 -0.097522 -0.861897 255 240 162
-0.002172 5.345415 -0.347968 -0.497617 -0.097522 -0.861897 255 240 162
-0.002172 4.529241 0.259800 -0.497617 -0.097521 0.861897 255 240 162
-0.002172 5.345415 0.352148 -0.497617 -0.097521 0.861897 255 240 162
-0.305331 5.345415 0.177119 -0.497617 -0.097521 0.861897 255 240 162
0.221012 4.529241 -0.126765 0.995233 -0.097522 0.000000 255 240 162
0.300988 5.345415 -0.172939 0.995233 -0.097522 0.000000 255 240 162
0.300988 5.345415 0.177119 0.995233 -0.097522 0.000000 255 240 162
-0.305331 5.345415 0.177119 -0.995233 -0.097522 0.000000 255 240 162
0.221011 4.529241 0.130945 0.497616 -0.097522 0.861898 255 240 162
0.300988 5.345415 0.177119 0.497616 -0.097522 0.861898 255 240 162
-0.002172 5.345415 0.352148 0.497616 -0.097522 0.861898 255 240 162
-0.002172 5.471640 -0.347968 -0.351534 0.711123 -0.608874 56 56 56
-0.305331 5.471640 -0.172939 -0.351534 0.711123 -0.608874 56 56 56
-0.210183 5.565710 -0.118005 -0.351534 0.711123 -0.608874 56 56 56
0.368577 5.324135 -0.211962 -0.300315 -0.953840 -0.000000 56 56 56
-0.305331 5.345415 0.177119 0.300315 -0.953840 0.000000 56 56 56
-0.002172 5.471640 0.352148 0.331186 0.749173 0.573633 56 56 56
-0.002172 5.411881 0.430193 0.331186 0.749173 0.573633 56 56 56
0.368577 5.411881 0.216142 0.331186 0.749173 0.573633 56 56 56
-0.002172 5.345415 -0.347968 -0.150157 -0.953840 0.260081 56 56 56
-0.002172 5.324135 -0.426013 -0.150157 -0.953840 0.260081 56 56 56
0.368577 5.324135 -0.211962 -0.150157 -0.953840 0.260081 56 56 56
-0.002172 5.471640 -0.347968 -0.331187 0.749173 -0.573633 56 56 56
-0.002172 5.411881 -0.426013 -0.331187 0.749173 -0.573633 56 56 56
-0.372920 5.411881 -0.211962 -0.331187 0.749173 -0.573633 56 56 56
-0.372920 5.411881 0.216141 -1.000000 0.000000 0.000000 56 56 56
0.368577 5.324135 0.216142 0.499998 0.000000 0.866026 56 56 56
-0.002172 5.411881 -0.426013 0.499998 0.000000 -0.866026 56 56 56
-0.372920 5.411881 -0.211962 -0.499999 -0.000000 -0.866026 56 56 56
-0.002172 5.411881 0.430193 -0.500001 0.000000 0.866025 56 56 56
0.368577 5.411881 -0.211962 1.000000 0.000000 0.000000 56 56 56
-0.002172 5.345415 -0.347968 0.150157 -0.953841 0.260079 56 56 56
-0.305331 5.345415 -0.172939 0.150157 -0.953841 0.260079 56 56 56
-0.372920 5.324135 -0.211962 0.150157 -0.953841 0.260079 56 56 56
-0.002172 5.471640 -0.347968 0.331185 0.749175 -0.573632 56 56 56
0.300988 5.471640 -0.172939 0.331185 0.749175 -0.573632 56 56 56
0.368577 5.411881 -0.211962 0.331185 0.749175 -0.573632 56 56 56
0.300988 5.345415 0.177119 -0.150156 -0.953841 -0.260080 56 56 56
0.368577 5.324135 0.216142 -0.150156 -0.953841 -0.260080 56 56 56
-0.002172 5.324135 0.430193 -0.150156 -0.953841 -0.260080 56 56 56
-0.372920 5.411881 -0.211962 -0.662374 0.749173 0.000000 56 56 56
0.300988 5.471640 0.177119 0.662374 0.749173 0.000000 56 56 56
-0.002172 5.345415 0.352148 0.150158 -0.953840 -0.260081 56 56 56
-0.002172 5.324135 0.430193 0.150158 -0.953840 -0.260081 56 56 56
-0.372920 5.324135 0.216141 0.150158 -0.953840 -0.260081 56 56 56
0.205840 5.565710 -0.118005 0.000000 1.000000 0.000000 56 56 56
-0.210183 5.565710 -0.118005 0.000000 1.000000 0.000000 56 56 56
-0.002172 5.565710 0.242281 0.000000 1.000000 0.000000 56 56 56
-0.002172 5.471640 0.352148 -0.351537 0.711120 0.608876 56 56 56
-0.002172 5.565710 0.242281 -0.351537 0.711120 0.608876 56 56 56
-0.210183 5.565710 0.122185 -0.351537 0.711120 0.608876 56 56 56
0.300988 5.471640 0.177119 0.703068 0.711122 -0.000000 56 56 56
0.300988 5.471640 -0.172939 0.703068 0.711122 -0.000000 56 56 56
0.205840 5.565710 -0.118005 0.703068 0.711122 -0.000000 56 56 56
-0.305331 5.471640 0.177119 -0.703069 0.711122 0.000000 56 56 56
-0.210183 5.565710 0.122185 -0.703069 0.711122 0.000000 56 56 56
-0.210183 5.565710 -0.118005 -0.703069 0.711122 0.000000 56 56 56
-0.002172 5.471640 0.352148 0.351533 0.711123 0.608875 56 56 56
0.300988 5.471640 0.177119 0.351533 0.711123 0.608875 56 56 56
0.205840 5.565710 0.122185 0.351533 0.711123 0.608875 56 56 56
-0.002172 5.471640 -0.347968 0.351536 0.711120 -0.608876 56 56 56
-0.002172 5.565710 -0.238101 0.351536 0.711120 -0.608876 56 56 56
0.205840 5.565710 -0.118005 0.351536 0.711120 -0.608876 56 56 56
3 0 1 2
3 3 4 5
3 6 7 8
3 9 10 11
3 12 13 14
3 15 16 17
3 18 19 20
3 21 22 23
3 24 25 26
3 27 28 29
3 30 31 32
3 33 34 35
3 36 37 38
3 39 40 41
3 42 43 44
3 45 46 47
3 48 49 50
3 51 52 53
3 54 55 56
3 57 58 59
3 60 61 62
3 63 64 65
3 66 67 68
3 69 70 71
3 72 73 74
3 75 76 77
3 78 79 80
3 81 82 83
3 84 85 86
3 87 88 89
3 90 91 92
3 93 94 95
3 96 97 98
3 99 22 100
3 101 102 103
3 104 23 105
3 106 107 99
3 108 109 110
3 111 112 113
3 114 115 116
3 117 118 119
3 120 121 122
3 123 124 125
3 126 127 128
3 97 103 129
3 108 130 96
3 97 109 98
3 96 102 131
3 104 132 133
3 106 132 134
3 135 136 137
3 138 139 140
3 141 142 143
3 144 145 146
3 147 148 149
3 150 151 152
3 153 154 155
3 156 157 158
3 159 160 161
3 162 163 164
3 165 166 167
3 168 169 170
3 171 172 173
3 174 175 176
3 177 178 179
3 180 181 182
3 183 184 185
3 186 187 188
3 189 190 191
3 192 193 194
3 195 196 197
3 198 199 200
3 201 202 203
3 204 205 206
3 207 208 209
3 210 211 212
3 213 214 215
3 216 217 218
3 219 220 221
3 222 223 224
3 225 226 227
3 228 229 230
3 231 232 233
3 234 235 236
3 237 238 239
3 240 241 242
3 243 244 245
3 246 247 248
3 249 250 251
3 252 253 254
3 255 256 257
3 258 259 260
3 261 262 263
3 264 265 266
3 267 268 269
3 270 271 272
3 273 274 275
3 276 277 278
3 279 280 281
3 282 283 284
3 285 286 287
3 288 289 290
3 291 292 293
3 294 295 296
3 297 298 299
3 300 301 302
3 303 304 305
3 306 307 308
3 309 310 311
3 312 313 314
3 315 316 317
3 3 318 4
3 319 320 321
3 322 323 324
3 325 326 327
3 15 328 16
3 329 330 331
3 21 100 22
3 332 333 334
3 335 336 337
3 30 338 31
3 33 339 34
3 340 341 342
3 343 344 345
3 346 347 348
3 349 350 351
3 48 352 49
3 51 353 52
3 354 355 356
3 357 358 359
3 360 361 362
3 63 363 64
3 66 364 67
3 69 365 70
3 366 367 368
3 75 369 76
3 370 371 372
3 81 373 82
3 84 374 85
3 87 375 88
3 376 377 378
3 93 379 94
3 98 108 96
3 96 131 101
3 101 97 96
3 99 107 22
3 101 131 102
3 104 21 23
3 106 134 107
3 108 98 109
3 111 380 112
3 114 381 115
3 117 382 118
3 120 383 121
3 123 384 124
3 126 385 127
3 97 101 103
3 108 110 130
3 97 129 109
3 96 130 102
3 104 105 132
3 106 133 132
3 386 387 388
3 138 389 139
3 390 391 392
3 393 394 395
3 147 396 148
3 397 398 399
3 153 400 154
3 401 402 403
3 404 405 406
3 162 407 163
3 165 408 166
3 409 410 411
3 412 413 414
3 174 415 175
3 177 416 178
3 180 417 181
3 183 418 184
3 186 419 187
3 420 421 422
3 192 423 193
3 195 424 196
3 425 426 427
3 428 429 430
3 431 432 433
3 434 435 436
3 210 437 211
3 438 439 440
3 441 442 443
3 444 445 446
3 447 448 449
3 450 451 452
3 453 454 455
3 456 457 458
3 459 460 461
3 237 462 238
3 463 464 465
3 466 467 468
3 246 469 247
3 249 470 250
3 471 472 473
3 474 475 476
3 477 478 479
3 261 480 262
3 264 481 265
3 267 482 268
3 270 483 271
3 273 484 274
3 276 485 277
3 486 487 488
3 489 490 491
3 492 493 494
3 288 495 289
3 291 496 292
3 497 498 499
3 299 500 297
3 297 501 298
3 298 502 299
3 503 504 505
3 506 507 508
3 509 510 511
3 512 513 514
3 515 516 517
