ply
format ascii 1.0
comment Created by Blender 2.77 (sub 0) - www.blender.org, source file: 'Mayor0-Colliders.blend'
element vertex 11
property float x
property float y
property float z
property float nx
property float ny
property float nz
element face 18
property list uchar uint vertex_indices
end_header
1.445017 0.328887 -6.290352 -0.669454 0.310739 -0.674703
1.778017 0.066087 -6.290352 0.481277 -0.638112 -0.600940
1.418017 0.066087 -6.290352 -0.608814 -0.549486 -0.572131
1.445017 0.328887 -5.912353 -0.794488 0.246559 0.554918
1.418017 0.066087 -5.912353 -0.619068 -0.566271 0.544115
2.080149 1.323429 -5.896388 -0.174230 0.873928 -0.453719
2.171012 1.271268 -5.767691 0.709677 0.273934 0.649068
2.176446 1.274618 -5.893529 0.818659 0.387585 -0.423688
1.778017 0.066087 -5.912353 0.472213 -0.684133 0.555803
1.805017 0.328887 -6.290352 0.419691 0.090030 -0.903165
2.074714 1.320078 -5.770550 -0.246742 0.747826 0.616321
3 0 1 2
3 3 2 4
3 5 6 7
3 4 1 8
3 8 7 6
3 3 5 0
3 1 9 7
3 9 5 7
3 3 4 10
3 8 10 4
3 0 9 1
3 3 0 2
3 5 10 6
3 4 2 1
3 8 1 7
3 3 10 5
3 9 0 5
3 8 6 10
