ply
format ascii 1.0
comment Created by Blender 2.77 (sub 0) - www.blender.org, source file: 'Mayor0-Colliders.blend'
element vertex 10
property float x
property float y
property float z
property float nx
property float ny
property float nz
element face 16
property list uchar uint vertex_indices
end_header
4.235017 6.458592 0.963648 0.475204 0.521073 0.708945
1.292017 7.952592 0.819647 0.010620 0.784448 -0.620075
1.292017 7.952592 0.963647 0.010620 0.784448 0.620075
-1.821983 6.476593 0.963648 -0.470626 0.537980 0.699301
4.379017 6.386593 0.819647 0.871822 0.337474 -0.354961
4.235017 3.308592 0.963648 0.297098 -0.630238 0.717277
4.379017 3.308592 0.819648 0.773431 -0.546892 -0.320353
-1.821983 3.308592 0.963648 -0.297098 -0.630238 0.717277
-1.965983 3.308592 0.819648 -0.773431 -0.546892 -0.320353
-1.965983 6.404593 0.819647 -0.869167 0.344249 -0.354991
3 0 1 2
3 1 3 2
3 4 5 6
3 6 7 8
3 2 7 5
3 1 4 6
3 9 7 3
3 0 4 1
3 1 9 3
3 4 0 5
3 6 5 7
3 5 0 2
3 2 3 7
3 6 8 1
3 9 1 8
3 9 8 7
