ply
format ascii 1.0
comment Created by Blender 2.77 (sub 0) - www.blender.org, source file: 'Mayor0-Colliders.blend'
element vertex 16
property float x
property float y
property float z
property float nx
property float ny
property float nz
element face 28
property list uchar uint vertex_indices
end_header
-3.891984 0.087536 -6.830352 -0.730277 0.672750 -0.118503
-3.891984 -0.020463 -1.250352 -0.706809 -0.621784 0.337260
-3.891984 0.087537 -1.250352 -0.706809 0.621784 0.337260
-3.891984 -0.020464 -6.830352 -0.732322 -0.676565 -0.077090
-3.855983 0.087536 -6.938352 -0.555742 0.805597 -0.205206
-3.855983 -0.020464 -7.222494 -0.516221 -0.151860 -0.842860
2.372017 -0.020464 -6.830005 0.745018 -0.630238 -0.218360
2.264017 0.087536 -6.938352 0.355876 0.898404 -0.257241
2.372017 0.087536 -6.830005 0.718070 0.630116 -0.295419
2.264017 -0.020464 -7.222494 0.469924 -0.151860 -0.869533
2.092824 -0.020463 -1.097615 0.197699 -0.652791 0.731254
2.354054 0.087537 -1.250004 0.686117 0.610523 0.395550
2.092824 0.087537 -1.097615 0.197699 0.652791 0.731254
2.354054 -0.020463 -1.250004 0.686117 -0.610553 0.395550
-3.703246 -0.020463 -1.097615 -0.256600 -0.639149 0.724998
-3.703246 0.087537 -1.097615 -0.256600 0.639149 0.724998
3 0 1 2
3 3 4 5
3 6 7 8
3 9 4 7
3 10 11 12
3 3 9 6
3 13 8 11
3 14 2 1
3 7 0 12
3 10 15 14
3 0 3 1
3 3 0 4
3 6 9 7
3 9 5 4
3 10 13 11
3 6 13 10
3 10 14 3
3 1 3 14
3 5 9 3
3 6 10 3
3 13 6 8
3 14 15 2
3 2 15 0
3 12 11 8
3 8 7 12
3 4 0 7
3 15 12 0
3 10 12 15
