ply
format ascii 1.0
comment Created by Blender 2.77 (sub 0) - www.blender.org, source file: 'Mayor0-Colliders.blend'
element vertex 8
property float x
property float y
property float z
property float nx
property float ny
property float nz
element face 12
property list uchar uint vertex_indices
end_header
-4.953983 0.033537 0.063647 -0.577349 0.577349 -0.577349
-4.593983 -0.020463 0.063647 0.577349 -0.577349 -0.577349
-4.953983 -0.020463 0.063647 -0.577349 -0.577349 -0.577349
-4.593983 -0.020462 1.539648 0.577349 -0.577349 0.577349
-4.953983 -0.020462 1.539648 -0.577349 -0.577349 0.577349
-4.593983 0.033538 1.539648 0.577349 0.577349 0.577349
-4.593983 0.033537 0.063647 0.577349 0.577349 -0.577349
-4.953983 0.033538 1.539648 -0.577349 0.577349 0.577349
3 0 1 2
3 2 3 4
3 0 5 6
3 0 4 7
3 7 3 5
3 6 3 1
3 0 6 1
3 2 1 3
3 0 7 5
3 0 2 4
3 7 4 3
3 6 5 3
