ply
format ascii 1.0
comment Created by Blender 2.77 (sub 0) - www.blender.org, source file: 'Mayor0-Colliders.blend'
element vertex 8
property float x
property float y
property float z
property float nx
property float ny
property float nz
element face 12
property list uchar uint vertex_indices
end_header
6.712083 0.771537 -1.466352 0.550615 -0.747917 -0.370617
6.658084 3.602051 2.251987 -0.618854 -0.345927 0.705191
6.658084 0.771537 -1.466352 -0.550615 -0.747948 -0.370617
6.658084 1.617537 -1.466352 -0.619312 0.349376 -0.703085
6.658084 4.429878 2.245393 -0.550920 0.748802 0.368389
6.712083 3.602051 2.251987 0.618854 -0.345958 0.705191
6.712083 1.617537 -1.466352 0.619312 0.349376 -0.703085
6.712083 4.429878 2.245393 0.550920 0.748802 0.368389
3 0 1 2
3 3 1 4
3 5 6 7
3 0 3 6
3 6 4 7
3 4 5 7
3 0 5 1
3 3 2 1
3 5 0 6
3 0 2 3
3 6 3 4
3 4 1 5
