ply
format ascii 1.0
comment Created by Blender 2.77 (sub 0) - www.blender.org, source file: 'Mayor0-Colliders.blend'
element vertex 8
property float x
property float y
property float z
property float nx
property float ny
property float nz
element face 12
property list uchar uint vertex_indices
end_header
-4.423246 3.048538 6.246910 0.819147 0.404462 0.406659
-4.423246 0.087538 3.006911 0.320353 -0.546892 -0.773431
-4.423246 4.452538 3.006910 0.324198 0.644917 -0.692038
-4.575984 0.087538 6.399649 -0.320353 -0.546892 0.773431
-4.423246 0.087538 6.246911 0.717277 -0.630238 0.297098
-4.575984 4.452538 3.159647 -0.589770 0.799860 -0.111026
-4.575984 3.048538 6.399648 -0.323130 0.433637 0.841121
-4.575984 0.087538 3.159648 -0.717277 -0.630238 -0.297098
3 0 1 2
3 0 3 4
3 5 0 2
3 6 7 3
3 7 4 3
3 2 7 5
3 0 4 1
3 0 6 3
3 5 6 0
3 6 5 7
3 7 1 4
3 2 1 7
