ply
format ascii 1.0
comment Created by Blender 2.77 (sub 0) - www.blender.org, source file: 'Mayor0-Colliders.blend'
element vertex 9
property float x
property float y
property float z
property float nx
property float ny
property float nz
element face 14
property list uchar uint vertex_indices
end_header
4.379017 3.362026 6.354648 0.341227 0.863826 -0.370586
0.104017 3.113844 6.939648 -0.601428 0.440992 0.666158
4.874017 3.113844 6.939648 0.790246 0.461806 0.402753
4.379017 3.303353 6.323233 0.415143 0.221717 -0.882290
0.104017 3.002026 6.354648 -0.603076 -0.441877 -0.664083
0.104017 3.362026 6.354648 -0.561510 0.691031 -0.455123
0.104017 2.753844 6.939648 -0.559130 -0.691305 0.457656
4.874017 2.753844 6.939648 0.713462 -0.628895 0.308908
4.379017 3.015353 6.323233 0.332713 -0.460677 -0.822840
3 0 1 2
3 3 0 2
3 3 4 5
3 2 6 7
3 5 0 3
3 6 8 7
3 1 4 6
3 2 8 3
3 0 5 1
3 3 8 4
3 2 1 6
3 6 4 8
3 1 5 4
3 2 7 8
