ply
format ascii 1.0
comment Created by Blender 2.77 (sub 0) - www.blender.org, source file: 'Mayor0-Colliders.blend'
element vertex 8
property float x
property float y
property float z
property float nx
property float ny
property float nz
element face 12
property list uchar uint vertex_indices
end_header
4.514017 0.087538 3.159648 0.320353 -0.546892 0.773431
4.361279 0.087537 -1.097615 -0.717277 -0.630238 -0.297098
4.514017 0.087537 -1.250352 0.320353 -0.546892 -0.773431
4.361279 3.003538 3.006910 -0.717277 0.630238 0.297098
4.514017 3.003537 -1.250353 0.320353 0.546892 -0.773431
4.361279 3.003537 -1.097615 -0.717277 0.630238 -0.297098
4.361279 0.087538 3.006911 -0.717277 -0.630238 0.297098
4.514017 3.003538 3.159648 0.320353 0.546892 0.773431
3 0 1 2
3 3 4 5
3 3 1 6
3 0 4 7
3 0 3 6
3 2 5 4
3 0 6 1
3 3 7 4
3 3 5 1
3 0 2 4
3 0 7 3
3 2 1 5
