ply
format ascii 1.0
comment Created by Blender 2.77 (sub 0) - www.blender.org, source file: 'Mayor0-Colliders.blend'
element vertex 8
property float x
property float y
property float z
property float nx
property float ny
property float nz
element face 12
property list uchar uint vertex_indices
end_header
1.976017 1.064356 -1.016352 -0.577349 0.577349 -0.577349
2.912017 0.101356 -1.016352 0.577349 -0.577349 -0.577349
1.976017 0.101356 -1.016352 -0.577349 -0.577349 -0.577349
1.976017 1.064356 1.359648 -0.577349 0.577349 0.577349
1.976017 0.101356 1.359648 -0.577349 -0.577349 0.577349
2.912017 0.101356 1.359648 0.577349 -0.577349 0.577349
2.912017 1.064356 1.359648 0.577349 0.577349 0.577349
2.912017 1.064356 -1.016352 0.577349 0.577349 -0.577349
3 0 1 2
3 3 2 4
3 3 5 6
3 6 1 7
3 6 0 3
3 5 2 1
3 0 7 1
3 3 0 2
3 3 4 5
3 6 5 1
3 6 7 0
3 5 4 2
