ply
format ascii 1.0
comment Created by Blender 2.77 (sub 0) - www.blender.org, source file: 'Mayor0-Colliders.blend'
element vertex 8
property float x
property float y
property float z
property float nx
property float ny
property float nz
element face 12
property list uchar uint vertex_indices
end_header
4.379017 6.386593 0.819647 0.361400 0.474227 -0.802789
4.235017 6.458592 0.963648 -0.506851 0.811365 -0.291086
4.379017 6.224593 2.673648 0.585253 0.533830 0.610279
4.235017 6.224593 2.673648 -0.584826 0.533250 0.611194
4.379017 3.308592 0.819648 0.320353 -0.546892 -0.773431
4.235017 3.308592 0.963648 -0.717277 -0.630238 -0.297098
4.235017 3.308592 2.673648 -0.577349 -0.577349 0.577349
4.379017 3.308592 2.673648 0.577349 -0.577349 0.577349
3 0 1 2
3 2 1 3
3 2 4 0
3 3 5 6
3 5 7 6
3 6 2 3
3 0 5 1
3 2 7 4
3 3 1 5
3 5 4 7
3 6 7 2
3 0 4 5
