ply
format ascii 1.0
comment Created by Blender 2.77 (sub 0) - www.blender.org, source file: 'Mayor0-Colliders.blend'
element vertex 12
property float x
property float y
property float z
property float nx
property float ny
property float nz
element face 20
property list uchar uint vertex_indices
end_header
-0.885983 1.941536 -6.636055 -0.582324 -0.566790 0.582751
0.716017 1.941536 -6.870055 0.582751 -0.566332 -0.582751
0.716017 1.941536 -6.636055 0.582751 -0.566332 0.582751
0.104017 4.947536 -6.690056 0.248268 0.726249 0.641011
-0.255983 4.947536 -6.816055 -0.163091 0.732170 -0.661275
-0.255983 4.947536 -6.690056 -0.163091 0.732170 0.661275
0.662017 4.515536 -6.816055 0.700461 0.358989 -0.616779
0.104017 4.947536 -6.816055 0.248268 0.726249 -0.641011
-0.831983 4.677536 -6.690056 -0.667684 0.439314 0.600971
0.662017 4.515536 -6.690056 0.700461 0.358989 0.616779
-0.831983 4.677536 -6.816055 -0.667684 0.439314 -0.600971
-0.885983 1.941536 -6.870055 -0.582324 -0.566790 -0.582751
3 0 1 2
3 3 4 5
3 3 6 7
3 4 8 5
3 2 6 9
3 10 4 6
3 8 0 9
3 8 11 0
3 0 11 1
3 3 7 4
3 3 9 6
3 4 10 8
3 2 1 6
3 6 1 11
3 11 10 6
3 4 7 6
3 9 3 5
3 5 8 9
3 0 2 9
3 8 10 11
