ply
format ascii 1.0
comment Created by Blender 2.77 (sub 0) - www.blender.org, source file: 'Mayor0-Colliders.blend'
element vertex 8
property float x
property float y
property float z
property float nx
property float ny
property float nz
element face 12
property list uchar uint vertex_indices
end_header
-4.845984 -0.020462 1.845648 -0.577349 -0.577349 0.577349
-4.845984 5.060148 1.521648 -0.577349 0.577349 -0.577349
-4.845984 -0.020462 1.521648 -0.577349 -0.577349 -0.577349
-4.521984 -0.020462 1.845648 0.577349 -0.577349 0.577349
-4.521984 -0.020462 1.521648 0.577349 -0.577349 -0.577349
-4.521984 5.060148 1.521648 0.577349 0.577349 -0.577349
-4.521984 5.060148 1.845647 0.577349 0.577349 0.577349
-4.845984 5.060148 1.845647 -0.577349 0.577349 0.577349
3 0 1 2
3 3 2 4
3 4 1 5
3 3 5 6
3 6 1 7
3 7 3 6
3 0 7 1
3 3 0 2
3 4 2 1
3 3 4 5
3 6 5 1
3 7 0 3
