ply
format ascii 1.0
comment Created by Blender 2.77 (sub 0) - www.blender.org, source file: 'Mayor0-Colliders.blend'
element vertex 8
property float x
property float y
property float z
property float nx
property float ny
property float nz
element face 12
property list uchar uint vertex_indices
end_header
-5.043983 3.003537 -1.250353 -0.577349 0.577319 -0.577349
-4.755983 2.769537 -1.250352 0.577349 -0.577319 -0.577349
-5.043983 2.769537 -1.250352 -0.577349 -0.577349 -0.577349
-4.755983 2.769538 3.159648 0.577349 -0.577349 0.577349
-5.043983 2.769538 3.159648 -0.577349 -0.577349 0.577349
-5.043983 3.003538 3.159648 -0.577349 0.577349 0.577349
-4.755983 3.003538 3.159648 0.577349 0.577349 0.577349
-4.755983 3.003537 -1.250353 0.577349 0.577349 -0.577349
3 0 1 2
3 2 3 4
3 0 4 5
3 5 3 6
3 0 6 7
3 7 3 1
3 0 7 1
3 2 1 3
3 0 2 4
3 5 4 3
3 0 5 6
3 7 6 3
