ply
format ascii 1.0
comment Created by Blender 2.77 (sub 0) - www.blender.org, source file: 'Mayor0-Colliders.blend'
element vertex 9
property float x
property float y
property float z
property float nx
property float ny
property float nz
element face 14
property list uchar uint vertex_indices
end_header
2.883832 3.152202 -7.621622 0.706168 0.339396 -0.621357
0.076019 4.834027 -7.621622 -0.721854 -0.312906 -0.617237
0.132014 5.353657 -7.621622 -0.296365 0.764458 -0.572466
2.883832 2.587777 -7.370353 0.361797 -0.752770 0.549913
2.883832 2.587777 -7.621622 0.361797 -0.752770 -0.549913
0.104017 5.273842 -7.370353 -0.733299 0.142277 0.664815
0.076019 4.834027 -7.370353 -0.720115 -0.318339 0.616474
0.132014 5.353657 -7.370353 -0.228126 0.795282 0.561632
2.883832 3.152202 -7.370353 0.706168 0.339396 0.621357
3 0 1 2
3 0 3 4
3 5 1 6
3 7 6 8
3 1 3 6
3 2 8 0
3 5 7 2
3 0 4 1
3 0 8 3
3 5 2 1
3 3 8 6
3 7 5 6
3 1 4 3
3 2 7 8
