ply
format ascii 1.0
comment Created by Blender 2.77 (sub 0) - www.blender.org, source file: 'Mayor0-Colliders.blend'
element vertex 11
property float x
property float y
property float z
property float nx
property float ny
property float nz
element face 18
property list uchar uint vertex_indices
end_header
-0.867984 1.914536 -6.988752 0.598132 0.578875 0.554155
-0.867984 1.140536 -7.006753 0.711325 -0.701590 -0.041658
-0.965340 1.185536 -8.207353 0.548204 -0.595416 -0.587298
-1.091340 1.887536 -8.243352 -0.561937 0.573138 -0.596393
-1.155983 1.914536 -6.988752 -0.591754 0.581591 0.558153
-1.155983 1.140536 -6.988752 -0.577349 -0.577349 0.577349
-0.867984 1.140536 -6.988752 0.577349 -0.577349 0.577349
-1.091340 1.779536 -8.243352 -0.677541 -0.047273 -0.733940
-1.155983 1.140536 -7.006753 -0.708640 -0.704642 -0.036012
-0.929340 1.887536 -8.243352 0.580767 0.549211 -0.600848
-1.037340 1.185536 -8.207353 -0.519852 -0.610157 -0.597827
3 0 1 2
3 0 3 4
3 0 5 6
3 7 8 4
3 2 7 9
3 8 10 1
3 2 9 0
3 0 6 1
3 0 9 3
3 0 4 5
3 5 4 8
3 3 7 4
3 10 8 7
3 3 9 7
3 2 10 7
3 1 6 5
3 5 8 1
3 10 2 1
