ply
format ascii 1.0
comment Created by Blender 2.77 (sub 0) - www.blender.org, source file: 'Mayor0-Colliders.blend'
element vertex 14
property float x
property float y
property float z
property float nx
property float ny
property float nz
element face 24
property list uchar uint vertex_indices
end_header
-3.765983 5.059559 -4.909157 -0.577349 0.577349 -0.577349
-3.207983 5.059559 -4.215549 0.580737 0.572832 0.578417
-3.207983 5.059559 -4.909157 0.580737 0.572832 -0.578417
-3.244154 1.347537 -4.872986 0.709891 -0.126560 -0.692831
-3.279983 1.153559 -4.287549 0.528428 -0.673940 0.516282
-3.279983 1.153559 -4.837156 0.528428 -0.673940 -0.516282
-3.693984 1.153559 -4.287549 -0.584613 -0.640034 0.498520
-3.693984 1.347537 -4.239776 -0.640706 -0.095950 0.761742
-3.765983 4.699559 -4.215549 -0.706687 -0.011811 0.707389
-3.693984 1.153559 -4.837156 -0.584613 -0.640034 -0.498520
-3.765983 4.699559 -4.909157 -0.706687 -0.011811 -0.707389
-3.693984 1.347537 -4.884930 -0.640706 -0.095950 -0.761742
-3.244154 1.347537 -4.251719 0.709861 -0.126560 0.692831
-3.765983 5.059559 -4.215549 -0.577349 0.577349 0.577349
3 0 1 2
3 3 4 5
3 6 7 8
3 4 9 5
3 9 8 10
3 11 9 10
3 4 7 6
3 10 0 2
3 8 7 12
3 5 11 3
3 1 3 2
3 0 13 1
3 3 12 4
3 4 6 9
3 0 10 8
3 9 6 8
3 8 13 0
3 4 12 7
3 2 3 10
3 11 10 3
3 12 1 8
3 13 8 1
3 5 9 11
3 1 12 3
