ply
format ascii 1.0
comment Created by Blender 2.77 (sub 0) - www.blender.org, source file: 'Mayor0-Colliders.blend'
element vertex 8
property float x
property float y
property float z
property float nx
property float ny
property float nz
element face 12
property list uchar uint vertex_indices
end_header
4.244017 3.996058 5.067647 0.577349 0.577349 -0.577349
3.776017 3.330058 5.067648 -0.577349 -0.577349 -0.577349
3.776017 3.996058 5.067647 -0.577349 0.577349 -0.577349
4.244017 3.996058 5.967648 0.577349 0.577349 0.577349
4.244017 3.330058 5.067648 0.577349 -0.577349 -0.577349
3.776017 3.330058 5.967648 -0.577349 -0.577349 0.577349
4.244017 3.330058 5.967648 0.577349 -0.577349 0.577349
3.776017 3.996058 5.967648 -0.577349 0.577349 0.577349
3 0 1 2
3 3 4 0
3 3 5 6
3 7 1 5
3 7 0 2
3 5 4 6
3 0 4 1
3 3 6 4
3 3 7 5
3 7 2 1
3 7 3 0
3 5 1 4
