ply
format ascii 1.0
comment Created by Blender 2.77 (sub 0) - www.blender.org, source file: 'Mayor0-Colliders.blend'
element vertex 8
property float x
property float y
property float z
property float nx
property float ny
property float nz
element face 12
property list uchar uint vertex_indices
end_header
-4.755983 1.023538 3.159648 0.577349 0.577349 0.577349
-4.831350 1.023538 1.683648 -0.577349 0.577349 -0.577349
-4.831350 1.023538 3.159648 -0.577349 0.577349 0.577349
-4.831350 0.843538 1.683648 -0.577349 -0.577349 -0.577349
-4.831350 0.843538 3.159648 -0.577349 -0.577349 0.577349
-4.755983 0.843538 1.683648 0.577349 -0.577349 -0.577349
-4.755983 0.843538 3.159648 0.577349 -0.577349 0.577349
-4.755983 1.023538 1.683648 0.577349 0.577349 -0.577349
3 0 1 2
3 2 3 4
3 4 5 6
3 5 1 7
3 6 7 0
3 6 2 4
3 0 7 1
3 2 1 3
3 4 3 5
3 5 3 1
3 6 5 7
3 6 0 2
