ply
format ascii 1.0
comment Created by Blender 2.77 (sub 0) - www.blender.org, source file: 'Mayor0-Colliders.blend'
element vertex 8
property float x
property float y
property float z
property float nx
property float ny
property float nz
element face 12
property list uchar uint vertex_indices
end_header
-0.939983 4.623536 -6.677616 0.427442 0.712943 0.555834
-0.939983 0.087536 -6.830352 0.577349 -0.577349 -0.577349
-0.939983 4.623536 -6.830353 0.427778 0.712912 -0.555620
-3.703246 0.087536 -6.677615 -0.258675 -0.637745 0.725486
-3.891984 0.087536 -6.830352 -0.793817 -0.540422 -0.278878
-3.855983 3.147536 -6.830353 -0.849635 0.415967 -0.324107
-3.703246 3.147536 -6.677615 -0.415021 0.372814 0.829890
-0.939983 0.087536 -6.677615 0.577349 -0.577349 0.577349
3 0 1 2
3 1 3 4
3 5 3 6
3 6 2 5
3 6 7 0
3 1 5 2
3 0 7 1
3 1 7 3
3 5 4 3
3 6 0 2
3 6 3 7
3 1 4 5
