ply
format ascii 1.0
comment Created by Blender 2.77 (sub 0) - www.blender.org, source file: 'Mayor0-Colliders.blend'
element vertex 8
property float x
property float y
property float z
property float nx
property float ny
property float nz
element face 12
property list uchar uint vertex_indices
end_header
-4.755983 4.713537 -0.080353 -0.545976 0.779809 0.306223
-4.603246 4.713537 -0.080353 0.547807 0.779260 0.304331
-4.755983 3.453537 -1.250353 -0.336619 0.279122 -0.899289
-4.603246 3.453537 -1.097615 0.882870 0.184423 -0.431867
-4.603246 0.087537 -1.097615 0.717277 -0.630238 -0.297098
-4.755983 0.087537 -1.250352 -0.320353 -0.546892 -0.773431
-4.755983 0.087538 -0.080352 -0.577349 -0.577349 0.577349
-4.603246 0.087538 -0.080352 0.577349 -0.577349 0.577349
3 0 1 2
3 1 3 2
3 2 4 5
3 1 6 7
3 6 2 5
3 6 4 7
3 3 7 4
3 2 3 4
3 1 0 6
3 6 0 2
3 6 5 4
3 3 1 7
