ply
format ascii 1.0
comment Created by Blender 2.77 (sub 0) - www.blender.org, source file: 'Mayor0-Colliders.blend'
element vertex 16
property float x
property float y
property float z
property float nx
property float ny
property float nz
element face 28
property list uchar uint vertex_indices
end_header
-4.809983 -0.020463 -1.250352 -0.722160 -0.628315 -0.289224
-4.755983 0.087537 -1.304352 -0.300333 0.631062 -0.715201
-4.755983 -0.020463 -1.304352 -0.300333 -0.631062 -0.715201
-4.629983 0.087538 6.399649 -0.722495 0.644429 0.250313
-4.809983 0.087537 -1.250352 -0.722160 0.628315 -0.289224
4.334017 -0.020462 6.471648 0.194220 -0.653615 0.731437
-4.575984 0.087538 6.471648 -0.351238 0.618915 0.702506
-4.575984 -0.020462 6.471648 -0.351238 -0.618915 0.702506
4.460016 -0.020462 6.399649 0.682058 -0.610675 0.402264
4.568017 0.087537 -1.250352 0.733421 0.667653 -0.127628
4.460016 0.087538 6.399649 0.682058 0.610675 0.402264
4.514017 0.087537 -1.394352 0.453322 0.597949 -0.661000
4.514017 -0.020463 -1.394352 0.453322 -0.597949 -0.661000
4.568017 -0.020463 -1.250352 0.733421 -0.667653 -0.127628
4.334017 0.087538 6.471648 0.194220 0.653615 0.731437
-4.629983 -0.020462 6.399649 -0.722495 -0.644429 0.250313
3 0 1 2
3 0 3 4
3 5 6 7
3 8 9 10
3 2 11 12
3 13 5 2
3 3 14 1
3 13 11 9
3 7 3 15
3 5 10 14
3 0 4 1
3 0 15 3
3 5 14 6
3 8 13 9
3 2 1 11
3 7 15 5
3 0 2 15
3 12 13 2
3 8 5 13
3 15 2 5
3 9 11 1
3 1 4 3
3 3 6 14
3 14 10 9
3 9 1 14
3 13 12 11
3 7 6 3
3 5 8 10
