ply
format ascii 1.0
comment Created by Blender 2.77 (sub 0) - www.blender.org, source file: 'Portal0-Colliders.blend'
element vertex 18
property float x
property float y
property float z
property float nx
property float ny
property float nz
element face 32
property list uchar uint vertex_indices
end_header
-2.622140 2.092365 -0.333474 0.859493 0.502640 0.092563
-3.025281 2.207695 -0.277887 -0.636677 0.716788 0.284249
-2.900427 2.048161 -0.117220 -0.172277 0.419538 0.891201
-2.985874 -0.067031 -0.514357 -0.486221 -0.609973 -0.625690
-2.724073 -0.067031 -0.550455 0.298746 -0.609973 -0.733909
-2.561913 -0.067031 -0.341779 0.784967 -0.609973 -0.108219
-2.923349 1.170980 -0.060906 -0.375500 0.036378 0.926084
-3.085511 -0.067031 -0.269584 -0.784967 -0.609973 0.108219
-2.923349 -0.067031 -0.060906 -0.298746 -0.609973 0.733909
-2.661550 1.170980 -0.097004 0.611744 0.036470 0.790185
-2.661550 -0.067031 -0.097004 0.486221 -0.609973 0.625690
-2.561913 1.170980 -0.341779 0.990081 0.032594 -0.136509
-2.724073 1.170980 -0.550455 0.377728 0.030549 -0.925382
-2.985874 1.170980 -0.514357 -0.613330 0.028993 -0.789270
-3.085511 1.170980 -0.269584 -0.989929 0.031220 0.137883
-2.948567 2.207695 -0.466350 -0.475539 0.631886 -0.611957
-2.746995 2.207695 -0.494143 0.400433 0.716941 -0.570605
-2.698857 1.930399 -0.145013 0.581378 0.230110 0.780389
3 0 1 2
3 3 4 5
3 6 7 8
3 9 8 10
3 11 10 5
3 12 5 4
3 13 4 3
3 14 3 7
3 12 15 16
3 17 0 2
3 0 17 9
3 11 0 9
3 17 6 9
3 16 15 1
3 8 5 10
3 14 2 1
3 0 12 16
3 15 14 1
3 3 8 7
3 0 16 1
3 6 14 7
3 9 6 8
3 11 9 10
3 12 11 5
3 13 12 4
3 14 13 3
3 12 13 15
3 17 2 6
3 8 3 5
3 14 6 2
3 0 11 12
3 15 13 14
