ply
format ascii 1.0
comment Created by Blender 2.77 (sub 0) - www.blender.org, source file: 'Portal0-Colliders.blend'
element vertex 24
property float x
property float y
property float z
property float nx
property float ny
property float nz
element face 44
property list uchar uint vertex_indices
end_header
2.099204 1.311817 3.386489 0.194159 0.020966 0.980712
2.229929 2.999650 3.189230 0.930174 0.193945 0.311624
2.085229 3.029924 3.315874 0.227882 0.197851 0.953368
1.797735 0.040342 3.042044 -0.750084 -0.609973 -0.255440
2.099204 0.040342 3.386489 0.153813 -0.609973 0.777306
1.849036 0.040342 3.301293 -0.596271 -0.609973 0.521867
1.996600 1.311817 2.867991 -0.193823 0.020447 -0.980804
2.192600 3.016902 3.000595 0.761406 0.190954 -0.619495
2.246768 1.311817 2.953188 0.752342 0.021027 -0.658406
1.865876 3.094968 3.065250 -0.926389 0.205542 -0.315470
1.849036 1.311817 3.301293 -0.752190 0.020386 0.658589
1.903204 3.094968 3.253885 -0.709494 0.224586 0.667928
1.927433 3.171903 3.232677 -0.353374 0.801141 0.482955
2.199449 3.076581 3.178851 0.741905 0.627552 0.236091
2.168369 3.093835 3.021801 0.675100 0.621296 -0.397717
2.010574 3.094968 2.938606 -0.146336 0.227790 -0.962645
2.016824 3.171903 2.970192 0.028504 0.799219 -0.600330
2.078980 3.106857 3.284289 0.293497 0.668874 0.682943
1.896356 3.171903 3.075630 -0.621998 0.753807 -0.211829
2.246768 0.040342 2.953188 0.596271 -0.609973 -0.521867
1.996600 0.040342 2.867991 -0.153813 -0.609973 -0.777306
2.298071 0.040342 3.212438 0.750084 -0.609973 0.255440
2.298069 1.311817 3.212435 0.946379 0.021149 0.322275
1.797735 1.311817 3.042044 -0.946410 0.020020 -0.322306
3 0 1 2
3 3 4 5
3 6 7 8
3 9 10 11
3 2 10 0
3 1 8 7
3 12 9 11
3 13 7 14
3 14 15 16
3 13 14 16
3 17 11 2
3 12 16 18
3 19 3 20
3 2 13 17
3 13 12 17
3 19 21 4
3 21 0 4
3 19 22 21
3 6 19 20
3 23 20 3
3 10 3 5
3 0 5 4
3 15 23 9
3 18 15 9
3 0 22 1
3 3 19 4
3 6 15 7
3 9 23 10
3 2 11 10
3 1 22 8
3 12 18 9
3 13 1 7
3 14 7 15
3 17 12 11
3 2 1 13
3 13 16 12
3 21 22 0
3 19 8 22
3 6 8 19
3 23 6 20
3 10 23 3
3 0 10 5
3 15 6 23
3 18 16 15
