ply
format ascii 1.0
comment Created by Blender 2.77 (sub 0) - www.blender.org, source file: 'Portal0-Colliders.blend'
element vertex 24
property float x
property float y
property float z
property float nx
property float ny
property float nz
element face 44
property list uchar uint vertex_indices
end_header
3.800079 0.025174 0.877487 0.219184 -0.609973 -0.761467
3.983468 1.280169 1.067776 0.970275 0.034547 -0.239387
3.983468 0.025174 1.067778 0.769036 -0.609973 -0.190893
3.543588 1.280169 0.941160 -0.694693 0.034944 -0.718406
3.543588 0.025174 0.941160 -0.549852 -0.609973 -0.570544
3.470485 1.280169 1.195124 -0.969787 0.038667 0.240730
3.470485 0.025174 1.195124 -0.769036 -0.609973 0.190893
3.653873 1.280169 1.385416 -0.276650 0.038026 0.960204
3.653873 0.025174 1.385416 -0.219184 -0.609973 0.761467
3.910365 1.280169 1.321743 0.693411 0.037690 0.719504
3.910365 0.025174 1.321743 0.549852 -0.609973 0.570544
3.800079 1.280169 0.877487 0.276467 0.032289 -0.960479
3.585777 2.210380 0.984937 -0.719108 0.134465 -0.681722
3.783262 2.210380 0.935913 0.274514 0.122959 -0.953673
3.903118 2.327246 1.087724 0.670370 0.741966 0.005127
3.777178 2.327246 0.957044 0.203070 0.678915 -0.705557
3.601037 2.327246 1.000771 -0.578082 0.739769 -0.344279
3.550836 2.171218 1.175178 -0.879452 0.357433 0.314280
3.676774 2.202805 1.305859 -0.249519 0.527482 0.812067
3.529492 2.054352 1.180475 -0.958983 0.109134 0.261544
3.670691 2.085937 1.326987 -0.279977 0.132206 0.950835
3.852916 2.191810 1.262131 0.555223 0.405774 0.725974
3.868174 2.074945 1.277963 0.671712 0.112156 0.732231
3.924459 2.210380 1.082424 0.970397 0.133366 -0.201239
3 0 1 2
3 3 0 4
3 5 4 6
3 7 6 8
3 9 8 10
3 2 9 10
3 11 12 13
3 14 15 16
3 16 17 18
3 19 7 20
3 14 21 22
3 23 14 22
3 14 18 21
3 3 19 12
3 17 20 18
3 16 12 19
3 11 23 1
3 20 21 18
3 17 16 19
3 22 1 23
3 4 0 2
3 15 12 16
3 23 15 14
3 4 8 6
3 7 22 20
3 8 2 10
3 0 11 1
3 3 11 0
3 5 3 4
3 7 5 6
3 9 7 8
3 2 1 9
3 11 3 12
3 19 5 7
3 14 16 18
3 3 5 19
3 17 19 20
3 11 13 23
3 20 22 21
3 22 9 1
3 15 13 12
3 23 13 15
3 7 9 22
3 8 4 2
