ply
format ascii 1.0
comment Created by Blender 2.77 (sub 0) - www.blender.org, source file: ''
element vertex 318
property float x
property float y
property float z
property float nx
property float ny
property float nz
property uchar red
property uchar green
property uchar blue
element face 106
property list uchar uint vertex_indices
end_header
-0.487250 0.862593 1.522582 -0.160314 0.690474 0.705368 157 141 106
-1.524479 1.026896 1.126009 -0.160314 0.690474 0.705368 157 141 107
-1.323913 0.673667 1.517364 -0.160314 0.690474 0.705368 157 141 107
-1.012667 1.227747 -0.520288 -0.458746 0.810277 -0.364696 157 141 107
-1.639595 1.191504 0.187790 -0.458746 0.810277 -0.364696 157 141 107
-1.042621 1.388386 -0.125705 -0.458746 0.810277 -0.364696 157 141 107
-0.153256 1.079329 1.249173 0.214913 0.908534 0.358300 157 141 107
-0.395399 1.485170 0.365329 0.214913 0.908534 0.358300 157 141 107
-0.576509 1.195356 1.208837 0.214913 0.908534 0.358300 157 141 107
-0.153256 1.079329 1.249173 0.124182 0.698131 0.705119 157 141 107
-0.576509 1.195356 1.208837 0.124182 0.698131 0.705119 157 141 107
-0.487250 0.862593 1.522582 0.124182 0.698131 0.705119 157 141 106
-1.930913 0.678686 0.945057 -0.781620 0.613149 0.114536 157 141 107
-1.639595 1.191504 0.187790 -0.781620 0.613149 0.114536 157 141 107
-1.896339 0.914287 -0.080249 -0.781620 0.613149 0.114536 157 141 107
-0.236402 1.356384 -0.197727 0.459835 0.885033 -0.072582 157 141 107
-0.395399 1.485170 0.365329 0.459835 0.885033 -0.072582 157 141 107
0.100053 1.243944 0.562800 0.459835 0.885033 -0.072582 157 141 107
-0.395399 1.485170 0.365329 0.590764 0.804082 -0.066706 157 141 107
-1.003730 1.936303 0.415808 0.590764 0.804082 -0.066706 157 141 107
-1.059813 2.016979 0.891604 0.590764 0.804082 -0.066706 157 141 107
-1.042621 1.388386 -0.125705 0.409514 0.626424 -0.663243 157 141 107
-1.003730 1.936303 0.415808 0.409514 0.626424 -0.663243 157 141 107
-0.395399 1.485170 0.365329 0.409514 0.626424 -0.663243 157 141 107
-1.524479 1.026896 1.126009 0.113698 0.178049 0.977431 157 141 107
-1.059813 2.016979 0.891604 0.113698 0.178049 0.977431 157 141 107
-1.401415 1.700218 0.989042 0.113698 0.178049 0.977431 157 141 107
-1.042621 1.388386 -0.125705 -0.363449 0.667790 -0.649585 157 141 107
-1.491056 1.748057 0.494950 -0.363449 0.667790 -0.649585 157 141 107
-1.003730 1.936303 0.415808 -0.363449 0.667790 -0.649585 157 141 107
-1.524479 1.026896 1.126009 -0.972726 0.176640 0.150341 157 141 107
-1.491056 1.748057 0.494950 -0.972726 0.176640 0.150341 157 141 107
-1.639595 1.191504 0.187790 -0.972726 0.176640 0.150341 157 141 107
-1.491056 1.748057 0.494950 -0.638424 0.746349 0.188090 157 141 107
-1.401415 1.700218 0.989042 -0.638424 0.746349 0.188090 157 141 107
-1.059813 2.016979 0.891604 -0.638424 0.746349 0.188090 157 141 107
-1.003730 1.936303 0.415808 -0.381017 0.903109 -0.198042 157 141 107
-1.491056 1.748057 0.494950 -0.381017 0.903109 -0.198042 157 141 107
-1.059813 2.016979 0.891604 -0.381017 0.903109 -0.198042 157 141 107
-0.769377 1.175667 0.477480 0.130788 -0.939455 -0.316733 77 68 64
-0.487250 0.862593 1.522582 0.130788 -0.939455 -0.316733 77 68 64
-0.938415 1.046800 0.789911 0.130788 -0.939455 -0.316733 77 68 64
0.100053 1.243944 0.562800 0.095104 -0.977815 -0.186638 77 68 64
-0.769377 1.175667 0.477480 0.095104 -0.977815 -0.186638 77 68 64
-0.236402 1.356384 -0.197727 0.095104 -0.977815 -0.186638 77 68 64
-1.211729 1.043243 0.553110 0.287948 -0.904934 -0.313339 77 68 64
-1.323913 0.673667 1.517364 0.287948 -0.904934 -0.313339 77 68 64
-1.930913 0.678686 0.945057 0.287948 -0.904934 -0.313339 77 68 64
-0.784221 -0.029973 0.481868 -0.014559 -0.989654 0.142735 228 197 133
-0.891763 0.010306 0.750171 -0.014559 -0.989654 0.142735 228 197 133
-1.140721 0.010232 0.724269 -0.014559 -0.989654 0.142735 228 197 133
-1.072300 1.132676 0.346289 0.295695 -0.951578 -0.084049 77 68 64
-1.896339 0.914287 -0.080249 0.295695 -0.951578 -0.084049 77 68 64
-1.012667 1.227747 -0.520288 0.295695 -0.951578 -0.084049 77 68 64
-1.012667 1.227747 -0.520288 0.180098 -0.979049 -0.095017 77 68 64
-0.769377 1.175667 0.477480 0.180098 -0.979049 -0.095017 77 68 64
-1.072300 1.132676 0.346289 0.180098 -0.979049 -0.095017 77 68 64
-1.121689 0.006364 0.390092 -0.108488 -0.994083 0.005327 228 197 133
-0.784221 -0.029973 0.481868 -0.108488 -0.994083 0.005327 228 197 133
-1.140721 0.010232 0.724269 -0.108488 -0.994083 0.005327 228 197 133
-0.938415 1.046800 0.789911 0.881056 -0.009127 0.472923 227 196 133
-0.784221 -0.029973 0.481868 0.881056 -0.009127 0.472923 228 197 133
-0.769377 1.175667 0.477480 0.881056 -0.009127 0.472923 228 197 133
-1.211729 1.043243 0.553110 -0.653321 0.079832 0.752860 228 196 133
-1.140721 0.010232 0.724269 -0.653321 0.079832 0.752860 228 197 133
-0.938415 1.046800 0.789911 -0.653321 0.079832 0.752860 227 196 133
-1.211729 1.043243 0.553110 -0.995417 -0.077668 -0.055791 228 196 133
-1.121689 0.006364 0.390092 -0.995417 -0.077668 -0.055791 228 197 133
-1.140721 0.010232 0.724269 -0.995417 -0.077668 -0.055791 228 197 133
-1.072300 1.132676 0.346289 0.257212 -0.048814 -0.965121 227 197 133
-0.784221 -0.029973 0.481868 0.257212 -0.048814 -0.965121 228 197 133
-1.121689 0.006364 0.390092 0.257212 -0.048814 -0.965121 228 197 133
1.536311 0.729826 0.257539 0.791140 0.593230 0.148916 157 141 107
0.951582 1.392588 0.723791 0.791140 0.593230 0.148916 157 141 107
1.550159 0.568252 0.827627 0.791140 0.593230 0.148916 157 141 107
0.714326 0.443575 1.158306 -0.288936 0.711163 0.640908 157 141 107
0.465091 0.836351 0.610114 -0.288936 0.711163 0.640908 157 141 107
0.300450 0.556646 0.846256 -0.288936 0.711163 0.640908 157 141 107
0.465091 0.836351 0.610114 -0.631628 0.641422 -0.435457 157 141 107
0.951582 1.392588 0.723791 -0.631628 0.641422 -0.435457 157 141 107
0.901572 0.966522 0.168741 -0.631628 0.641422 -0.435457 157 141 107
0.714326 0.443575 1.158306 -0.709334 0.379192 0.594187 157 141 107
0.921792 1.292546 0.864189 -0.709334 0.379192 0.594187 157 141 107
0.465091 0.836351 0.610114 -0.709334 0.379192 0.594187 157 141 107
1.152233 0.857024 -0.087032 -0.090898 -0.971069 -0.220821 77 68 64
1.087638 0.718265 0.549757 -0.090898 -0.971069 -0.220821 77 68 64
0.919788 0.765047 0.413120 -0.090898 -0.971069 -0.220821 77 68 64
0.613132 0.840656 -0.046138 -0.352441 0.932952 -0.073386 157 141 107
0.465091 0.836351 0.610114 -0.352441 0.932952 -0.073386 157 141 107
0.901572 0.966522 0.168741 -0.352441 0.932952 -0.073386 157 141 107
0.714326 0.443575 1.158306 0.013874 -0.907810 -0.419152 77 68 64
0.772693 0.715695 0.570875 0.013874 -0.907810 -0.419152 77 68 64
0.940331 0.655830 0.706081 0.013874 -0.907810 -0.419152 77 68 64
0.772693 0.715695 0.570875 0.089969 -0.971345 -0.219989 77 68 64
0.613132 0.840656 -0.046138 0.089969 -0.971345 -0.219989 77 68 64
0.919788 0.765047 0.413120 0.089969 -0.971345 -0.219989 77 68 64
0.940331 0.655830 0.706081 -0.022257 -0.900700 -0.433872 77 68 64
1.234196 0.437553 1.144140 -0.022257 -0.900700 -0.433872 77 68 64
0.714326 0.443575 1.158306 -0.022257 -0.900700 -0.433872 77 68 64
0.919788 0.765047 0.413120 0.016752 -0.984726 -0.173303 77 68 64
0.613132 0.840656 -0.046138 0.016752 -0.984726 -0.173303 77 68 64
1.152233 0.857024 -0.087032 0.016752 -0.984726 -0.173303 77 68 64
1.087638 0.718265 0.549757 -0.148893 -0.952324 -0.266290 77 68 64
1.536311 0.729826 0.257539 -0.148893 -0.952324 -0.266290 77 68 64
1.550159 0.568252 0.827627 -0.148893 -0.952324 -0.266290 77 68 64
1.234196 0.437553 1.144140 -0.043256 -0.907461 -0.417904 77 68 64
1.087638 0.718265 0.549757 -0.043256 -0.907461 -0.417904 77 68 64
1.550159 0.568252 0.827627 -0.043256 -0.907461 -0.417904 77 68 64
0.786973 0.009232 0.571149 -0.008990 -0.999868 0.013504 228 197 133
1.013690 0.005373 0.436342 -0.008990 -0.999868 0.013504 228 197 132
0.978091 0.009425 0.712624 -0.008990 -0.999868 0.013504 228 196 133
0.940331 0.655830 0.706081 0.750716 -0.179037 0.635902 228 197 133
1.013690 0.005373 0.436342 0.750716 -0.179037 0.635902 228 197 132
1.087638 0.718265 0.549757 0.750716 -0.179037 0.635902 228 197 133
0.772693 0.715695 0.570875 -0.511186 -0.010667 -0.859404 228 197 133
1.013690 0.005373 0.436342 -0.511186 -0.010667 -0.859404 228 197 132
0.786973 0.009232 0.571149 -0.511186 -0.010667 -0.859404 228 197 133
0.940331 0.655830 0.706081 -0.594746 -0.026609 0.803473 228 197 133
0.786973 0.009232 0.571149 -0.594746 -0.026609 0.803473 228 197 133
0.978091 0.009425 0.712624 -0.594746 -0.026609 0.803473 228 196 133
1.087638 0.718265 0.549757 0.639614 0.055625 -0.766681 228 197 133
1.013690 0.005373 0.436342 0.639614 0.055625 -0.766681 228 197 132
0.919788 0.765047 0.413120 0.639614 0.055625 -0.766681 228 197 133
0.389225 0.477073 -1.630240 0.617871 0.707469 -0.343107 225 176 123
0.124175 0.897152 -1.241366 0.617871 0.707469 -0.343107 225 176 123
0.665552 0.456978 -1.174062 0.617871 0.707469 -0.343107 225 176 123
0.172983 0.571705 -0.518577 -0.023873 0.910967 0.411789 225 175 123
0.124175 0.897152 -1.241366 -0.023873 0.910967 0.411789 225 176 123
-0.345030 0.618001 -0.651025 -0.023873 0.910967 0.411789 225 175 123
0.665552 0.456978 -1.174062 0.578489 0.757686 0.302096 225 176 123
0.124175 0.897152 -1.241366 0.578489 0.757686 0.302096 225 176 123
0.172983 0.571705 -0.518577 0.578489 0.757686 0.302096 225 175 123
0.569506 0.487625 -0.767587 -0.088859 -0.995530 -0.032002 181 142 99
-0.052455 0.553079 -1.076796 -0.088859 -0.995530 -0.032002 181 142 99
0.181963 0.534354 -1.145179 -0.088859 -0.995530 -0.032002 181 142 99
-0.026543 0.557452 -1.259979 -0.140671 -0.988436 0.056616 181 142 99
0.389225 0.477073 -1.630240 -0.140671 -0.988436 0.056616 181 142 99
0.181963 0.534354 -1.145179 -0.140671 -0.988436 0.056616 181 142 99
0.181963 0.534354 -1.145179 -0.155689 -0.987089 0.037635 181 142 99
0.665552 0.456978 -1.174062 -0.155689 -0.987089 0.037635 181 142 99
0.569506 0.487625 -0.767587 -0.155689 -0.987089 0.037635 181 142 99
-0.052455 0.553079 -1.076796 0.100129 -0.994928 -0.009588 181 142 99
-0.480561 0.513979 -1.490212 0.100129 -0.994928 -0.009588 181 142 99
-0.026543 0.557452 -1.259979 0.100129 -0.994928 -0.009588 181 142 99
-0.052455 0.553079 -1.076796 0.038003 -0.124808 0.991453 228 197 133
-0.086594 -0.054697 -1.151997 0.038003 -0.124808 0.991453 228 197 133
0.181700 -0.045015 -1.161062 0.038003 -0.124808 0.991453 227 197 133
0.181963 0.534354 -1.145179 0.229960 -0.385098 0.893766 228 197 133
-0.052455 0.553079 -1.076796 0.229960 -0.385098 0.893766 228 197 133
0.074935 0.332841 -1.204468 0.229960 -0.385098 0.893766 228 197 133
-0.236402 1.356384 -0.197727 0.019281 0.975814 -0.217750 157 141 107
-1.042621 1.388386 -0.125705 0.019281 0.975814 -0.217750 157 141 107
-0.395399 1.485170 0.365329 0.019281 0.975814 -0.217750 157 141 107
-0.480561 0.513979 -1.490212 -0.110069 0.988390 -0.104740 225 176 123
-0.345030 0.618001 -0.651025 -0.110069 0.988390 -0.104740 225 175 123
-0.142594 0.526961 -1.722860 -0.110069 0.988390 -0.104740 225 176 123
-1.930913 0.678686 0.945057 -0.630890 0.386892 0.672527 157 141 107
-1.323913 0.673667 1.517364 -0.630890 0.386892 0.672527 157 141 107
-1.524479 1.026896 1.126009 -0.630890 0.386892 0.672527 157 141 107
-0.487250 0.862593 1.522582 -0.179902 0.648840 0.739352 157 141 106
-0.576509 1.195356 1.208837 -0.179902 0.648840 0.739352 157 141 107
-1.524479 1.026896 1.126009 -0.179902 0.648840 0.739352 157 141 107
-1.012667 1.227747 -0.520288 -0.470289 0.798636 -0.375512 157 141 107
-1.896339 0.914287 -0.080249 -0.470289 0.798636 -0.375512 157 141 107
-1.639595 1.191504 0.187790 -0.470289 0.798636 -0.375512 157 141 107
-0.153256 1.079329 1.249173 0.305088 0.894387 0.327099 157 141 107
0.100053 1.243944 0.562800 0.305088 0.894387 0.327099 157 141 107
-0.395399 1.485170 0.365329 0.305088 0.894387 0.327099 157 141 107
-1.930913 0.678686 0.945057 -0.687989 0.695728 0.206478 157 141 107
-1.524479 1.026896 1.126009 -0.687989 0.695728 0.206478 157 141 107
-1.639595 1.191504 0.187790 -0.687989 0.695728 0.206478 157 141 107
-1.524479 1.026896 1.126009 -0.133937 0.287396 0.948401 157 141 107
-0.576509 1.195356 1.208837 -0.133937 0.287396 0.948401 157 141 107
-1.059813 2.016979 0.891604 -0.133937 0.287396 0.948401 157 141 107
-1.042621 1.388386 -0.125705 -0.525521 0.514297 -0.677736 157 141 107
-1.639595 1.191504 0.187790 -0.525521 0.514297 -0.677736 157 141 107
-1.491056 1.748057 0.494950 -0.525521 0.514297 -0.677736 157 141 107
-0.576509 1.195356 1.208837 0.739285 0.572045 0.355277 157 141 107
-0.395399 1.485170 0.365329 0.739285 0.572045 0.355277 157 141 107
-1.059813 2.016979 0.891604 0.739285 0.572045 0.355277 157 141 107
-1.524479 1.026896 1.126009 -0.957179 0.214495 0.194424 157 141 107
-1.401415 1.700218 0.989042 -0.957179 0.214495 0.194424 157 141 107
-1.491056 1.748057 0.494950 -0.957179 0.214495 0.194424 157 141 107
-0.769377 1.175667 0.477480 0.104717 -0.944550 -0.311221 77 68 64
0.100053 1.243944 0.562800 0.104717 -0.944550 -0.311221 77 68 64
-0.487250 0.862593 1.522582 0.104717 -0.944550 -0.311221 77 68 64
-1.930913 0.678686 0.945057 0.355218 -0.913584 -0.197951 77 68 64
-1.896339 0.914287 -0.080249 0.355218 -0.913584 -0.197951 77 68 64
-1.211729 1.043243 0.553110 0.355218 -0.913584 -0.197951 77 68 64
-1.211729 1.043243 0.553110 0.283987 -0.905897 -0.314169 77 68 64
-0.938415 1.046800 0.789911 0.283987 -0.905897 -0.314169 77 68 64
-1.323913 0.673667 1.517364 0.283987 -0.905897 -0.314169 77 68 64
-1.072300 1.132676 0.346289 0.335503 -0.925801 -0.174153 77 68 64
-1.211729 1.043243 0.553110 0.335503 -0.925801 -0.174153 77 68 64
-1.896339 0.914287 -0.080249 0.335503 -0.925801 -0.174153 77 68 64
-1.012667 1.227747 -0.520288 0.203108 -0.973999 -0.100364 77 68 64
-0.236402 1.356384 -0.197727 0.203108 -0.973999 -0.100364 77 68 64
-0.769377 1.175667 0.477480 0.203108 -0.973999 -0.100364 77 68 64
-0.153256 1.079329 1.249173 0.544111 -0.839013 -0.000418 157 141 107
-0.487250 0.862593 1.522582 0.544111 -0.839013 -0.000418 157 141 106
0.100053 1.243944 0.562800 0.544111 -0.839013 -0.000418 157 141 107
-0.938415 1.046800 0.789911 0.929287 0.027705 0.368318 227 196 133
-0.891763 0.010306 0.750171 0.929287 0.027705 0.368318 228 197 133
-0.784221 -0.029973 0.481868 0.929287 0.027705 0.368318 228 197 133
-0.938415 1.046800 0.789911 -0.103377 -0.042753 0.993723 227 196 133
-1.140721 0.010232 0.724269 -0.103377 -0.042753 0.993723 228 197 133
-0.891763 0.010306 0.750171 -0.103377 -0.042753 0.993723 228 197 133
-0.487250 0.862593 1.522582 0.207869 -0.910695 -0.356967 77 68 64
-1.323913 0.673667 1.517364 0.207869 -0.910695 -0.356967 77 68 64
-0.938415 1.046800 0.789911 0.207869 -0.910695 -0.356967 77 68 64
-1.072300 1.132676 0.346289 0.398387 -0.008243 -0.917180 227 197 133
-0.769377 1.175667 0.477480 0.398387 -0.008243 -0.917180 228 197 133
-0.784221 -0.029973 0.481868 0.398387 -0.008243 -0.917180 228 197 133
-1.211729 1.043243 0.553110 -0.832062 0.014922 -0.554482 228 196 133
-1.072300 1.132676 0.346289 -0.832062 0.014922 -0.554482 227 197 133
-1.121689 0.006364 0.390092 -0.832062 0.014922 -0.554482 228 197 133
1.152233 0.857024 -0.087032 0.355246 0.933357 -0.051430 157 141 106
0.901572 0.966522 0.168741 0.355246 0.933357 -0.051430 157 141 107
1.536311 0.729826 0.257539 0.355246 0.933357 -0.051430 157 141 107
0.714326 0.443575 1.158306 0.326596 0.237156 0.914928 157 141 107
1.550159 0.568252 0.827627 0.326596 0.237156 0.914928 157 141 107
0.921792 1.292546 0.864189 0.326596 0.237156 0.914928 157 141 107
0.263289 0.723926 0.339097 -0.716092 0.645579 0.265406 157 141 107
0.300450 0.556646 0.846256 -0.716092 0.645579 0.265406 157 141 107
0.465091 0.836351 0.610114 -0.716092 0.645579 0.265406 157 141 107
1.550159 0.568252 0.827627 0.655605 0.542250 0.525497 157 141 107
0.951582 1.392588 0.723791 0.655605 0.542250 0.525497 157 141 107
0.921792 1.292546 0.864189 0.655605 0.542250 0.525497 157 141 107
1.536311 0.729826 0.257539 0.353349 0.726423 -0.589452 157 141 107
0.901572 0.966522 0.168741 0.353349 0.726423 -0.589452 157 141 107
0.951582 1.392588 0.723791 0.353349 0.726423 -0.589452 157 141 107
0.465091 0.836351 0.610114 -0.751479 0.602151 0.269617 157 141 107
0.921792 1.292546 0.864189 -0.751479 0.602151 0.269617 157 141 107
0.951582 1.392588 0.723791 -0.751479 0.602151 0.269617 157 141 107
1.152233 0.857024 -0.087032 -0.120309 -0.967366 -0.222998 77 68 64
1.536311 0.729826 0.257539 -0.120309 -0.967366 -0.222998 77 68 64
1.087638 0.718265 0.549757 -0.120309 -0.967366 -0.222998 77 68 64
0.613132 0.840656 -0.046138 -0.396984 0.914014 -0.083558 157 141 107
0.263289 0.723926 0.339097 -0.396984 0.914014 -0.083558 157 141 107
0.465091 0.836351 0.610114 -0.396984 0.914014 -0.083558 157 141 107
0.714326 0.443575 1.158306 0.064249 -0.907917 -0.414196 77 68 64
0.300450 0.556646 0.846256 0.064249 -0.907917 -0.414196 77 68 64
0.772693 0.715695 0.570875 0.064249 -0.907917 -0.414196 77 68 64
1.234196 0.437553 1.144140 0.021512 0.916324 0.399858 157 141 107
1.550159 0.568252 0.827627 0.021512 0.916324 0.399858 157 141 107
0.714326 0.443575 1.158306 0.021512 0.916324 0.399858 157 141 107
0.772693 0.715695 0.570875 0.083732 -0.972226 -0.218554 77 68 64
0.263289 0.723926 0.339097 0.083732 -0.972226 -0.218554 77 68 64
0.613132 0.840656 -0.046138 0.083732 -0.972226 -0.218554 77 68 64
1.152233 0.857024 -0.087032 -0.060735 0.894688 -0.442542 157 141 106
0.613132 0.840656 -0.046138 -0.060735 0.894688 -0.442542 157 141 107
0.901572 0.966522 0.168741 -0.060735 0.894688 -0.442542 157 141 107
0.772693 0.715695 0.570875 0.130048 -0.938736 -0.319159 77 68 64
0.300450 0.556646 0.846256 0.130048 -0.938736 -0.319159 77 68 64
0.263289 0.723926 0.339097 0.130048 -0.938736 -0.319159 77 68 64
1.234196 0.437553 1.144140 -0.055666 -0.908059 -0.415127 77 68 64
0.940331 0.655830 0.706081 -0.055666 -0.908059 -0.415127 77 68 64
1.087638 0.718265 0.549757 -0.055666 -0.908059 -0.415127 77 68 64
0.940331 0.655830 0.706081 0.990175 0.059123 0.126720 228 197 133
0.978091 0.009425 0.712624 0.990175 0.059123 0.126720 228 196 133
1.013690 0.005373 0.436342 0.990175 0.059123 0.126720 228 197 132
0.772693 0.715695 0.570875 -0.709788 -0.109010 -0.695930 228 197 133
0.919788 0.765047 0.413120 -0.709788 -0.109010 -0.695930 228 197 133
1.013690 0.005373 0.436342 -0.709788 -0.109010 -0.695930 228 197 132
0.940331 0.655830 0.706081 -0.630434 -0.012442 0.776143 228 197 133
0.772693 0.715695 0.570875 -0.630434 -0.012442 0.776143 228 197 133
0.786973 0.009232 0.571149 -0.630434 -0.012442 0.776143 228 197 133
0.569506 0.487625 -0.767587 0.189795 0.981391 -0.029146 225 176 123
0.665552 0.456978 -1.174062 0.189795 0.981391 -0.029146 225 176 123
0.172983 0.571705 -0.518577 0.189795 0.981391 -0.029146 225 175 123
-0.142594 0.526961 -1.722860 -0.665328 0.722739 -0.187048 225 176 123
-0.345030 0.618001 -0.651025 -0.665328 0.722739 -0.187048 225 175 123
0.124175 0.897152 -1.241366 -0.665328 0.722739 -0.187048 225 176 123
0.389225 0.477073 -1.630240 0.183376 0.727618 -0.661018 225 176 123
-0.142594 0.526961 -1.722860 0.183376 0.727618 -0.661018 225 176 123
0.124175 0.897152 -1.241366 0.183376 0.727618 -0.661018 225 176 123
-0.026543 0.557452 -1.259979 0.071168 -0.996319 0.047786 181 142 99
-0.480561 0.513979 -1.490212 0.071168 -0.996319 0.047786 181 142 99
-0.142594 0.526961 -1.722860 0.071168 -0.996319 0.047786 181 142 99
0.569506 0.487625 -0.767587 -0.150032 -0.984257 0.093432 181 142 99
0.172983 0.571705 -0.518577 -0.150032 -0.984257 0.093432 181 142 99
-0.052455 0.553079 -1.076796 -0.150032 -0.984257 0.093432 181 142 99
-0.026543 0.557452 -1.259979 -0.108955 -0.989733 0.092512 181 142 99
-0.142594 0.526961 -1.722860 -0.108955 -0.989733 0.092512 181 142 99
0.389225 0.477073 -1.630240 -0.108955 -0.989733 0.092512 181 142 99
0.389225 0.477073 -1.630240 -0.154860 -0.986653 0.050343 181 142 99
0.665552 0.456978 -1.174062 -0.154860 -0.986653 0.050343 181 142 99
0.181963 0.534354 -1.145179 -0.154860 -0.986653 0.050343 181 142 99
-0.052455 0.553079 -1.076796 0.021572 -0.986029 0.165173 181 142 99
-0.345030 0.618001 -0.651025 0.021572 -0.986029 0.165173 181 142 99
-0.576339 0.551180 -1.019712 0.021572 -0.986029 0.165173 181 142 99
-0.052455 0.553079 -1.076796 0.012475 -0.996608 0.081340 181 142 99
-0.576339 0.551180 -1.019712 0.012475 -0.996608 0.081340 181 142 99
-0.480561 0.513979 -1.490212 0.012475 -0.996608 0.081340 181 142 99
0.074935 0.332841 -1.204468 -0.029110 -0.122189 -0.992080 228 197 133
0.181700 -0.045015 -1.161062 -0.029110 -0.122189 -0.992080 227 197 133
-0.086594 -0.054697 -1.151997 -0.029110 -0.122189 -0.992080 228 197 133
0.074935 0.332841 -1.204468 0.879996 0.291708 0.374850 228 197 133
-0.052455 0.553079 -1.076796 0.879996 0.291708 0.374850 228 197 133
0.181700 -0.045015 -1.161062 0.879996 0.291708 0.374850 227 197 133
0.172983 0.571705 -0.518577 -0.108212 -0.991159 0.076773 181 142 99
-0.345030 0.618001 -0.651025 -0.108212 -0.991159 0.076773 181 142 99
-0.052455 0.553079 -1.076796 -0.108212 -0.991159 0.076773 181 142 99
-0.026543 0.557452 -1.259979 0.482438 0.001483 -0.875929 228 197 133
0.181963 0.534354 -1.145179 0.482438 0.001483 -0.875929 228 197 133
0.074935 0.332841 -1.204468 0.482438 0.001483 -0.875929 228 197 133
-0.052455 0.553079 -1.076796 -0.987772 0.072558 -0.137992 228 197 133
-0.026543 0.557452 -1.259979 -0.987772 0.072558 -0.137992 228 197 133
-0.086594 -0.054697 -1.151997 -0.987772 0.072558 -0.137992 228 197 133
-0.026543 0.557452 -1.259979 0.125417 -0.184263 -0.974842 228 197 133
0.074935 0.332841 -1.204468 0.125417 -0.184263 -0.974842 228 197 133
-0.086594 -0.054697 -1.151997 0.125417 -0.184263 -0.974842 228 197 133
-0.236402 1.356384 -0.197727 0.003101 0.926266 -0.376857 157 141 107
-1.012667 1.227747 -0.520288 0.003101 0.926266 -0.376857 157 141 107
-1.042621 1.388386 -0.125705 0.003101 0.926266 -0.376857 157 141 107
-0.480561 0.513979 -1.490212 -0.121391 0.987270 -0.102773 225 176 123
-0.576339 0.551180 -1.019712 -0.121391 0.987270 -0.102773 225 176 123
-0.345030 0.618001 -0.651025 -0.121391 0.987270 -0.102773 225 175 123
3 0 1 2
3 3 4 5
3 6 7 8
3 9 10 11
3 12 13 14
3 15 16 17
3 18 19 20
3 21 22 23
3 24 25 26
3 27 28 29
3 30 31 32
3 33 34 35
3 36 37 38
3 39 40 41
3 42 43 44
3 45 46 47
3 48 49 50
3 51 52 53
3 54 55 56
3 57 58 59
3 60 61 62
3 63 64 65
3 66 67 68
3 69 70 71
3 72 73 74
3 75 76 77
3 78 79 80
3 81 82 83
3 84 85 86
3 87 88 89
3 90 91 92
3 93 94 95
3 96 97 98
3 99 100 101
3 102 103 104
3 105 106 107
3 108 109 110
3 111 112 113
3 114 115 116
3 117 118 119
3 120 121 122
3 123 124 125
3 126 127 128
3 129 130 131
3 132 133 134
3 135 136 137
3 138 139 140
3 141 142 143
3 144 145 146
3 147 148 149
3 150 151 152
3 153 154 155
3 156 157 158
3 159 160 161
3 162 163 164
3 165 166 167
3 168 169 170
3 171 172 173
3 174 175 176
3 177 178 179
3 180 181 182
3 183 184 185
3 186 187 188
3 189 190 191
3 192 193 194
3 195 196 197
3 198 199 200
3 201 202 203
3 204 205 206
3 207 208 209
3 210 211 212
3 213 214 215
3 216 217 218
3 219 220 221
3 222 223 224
3 225 226 227
3 228 229 230
3 231 232 233
3 234 235 236
3 237 238 239
3 240 241 242
3 243 244 245
3 246 247 248
3 249 250 251
3 252 253 254
3 255 256 257
3 258 259 260
3 261 262 263
3 264 265 266
3 267 268 269
3 270 271 272
3 273 274 275
3 276 277 278
3 279 280 281
3 282 283 284
3 285 286 287
3 288 289 290
3 291 292 293
3 294 295 296
3 297 298 299
3 300 301 302
3 303 304 305
3 306 307 308
3 309 310 311
3 312 313 314
3 315 316 317
