ply
format ascii 1.0
comment Created by Blender 2.77 (sub 0) - www.blender.org, source file: ''
element vertex 102
property float x
property float y
property float z
property float nx
property float ny
property float nz
property uchar red
property uchar green
property uchar blue
element face 34
property list uchar uint vertex_indices
end_header
0.849389 0.299670 0.225184 0.424747 0.813582 0.397083 0 0 0
0.458123 0.613958 -0.000233 0.424747 0.813582 0.397083 0 0 0
0.475057 0.338925 0.545168 0.424747 0.813582 0.397083 0 0 0
-0.497111 0.400286 -0.522828 -0.062803 -0.322430 -0.944508 0 0 0
0.043684 0.318062 -0.530718 -0.062803 -0.322430 -0.944508 0 0 0
-0.549389 0.074713 -0.408210 -0.062803 -0.322430 -0.944508 0 0 0
-0.549389 0.074713 -0.408210 0.082001 -0.600338 -0.795531 0 0 0
0.043684 0.318062 -0.530718 0.082001 -0.600338 -0.795531 0 0 0
-0.196975 -0.039546 -0.285660 0.082001 -0.600338 -0.795531 0 0 0
-0.443810 0.525742 0.266018 0.045156 0.892547 0.448689 0 0 0
0.475057 0.338925 0.545168 0.045156 0.892547 0.448689 0 0 0
0.458123 0.613958 -0.000233 0.045156 0.892547 0.448689 0 0 0
0.475057 0.338925 0.545168 -0.012260 -0.644328 0.764651 0 0 0
-0.585332 0.134031 0.355514 -0.012260 -0.644328 0.764651 0 0 0
0.570653 0.060667 0.312228 -0.012260 -0.644328 0.764651 0 0 0
-0.774926 0.193151 0.104358 -0.898003 -0.294220 -0.327148 0 0 0
-0.820136 0.375835 0.064160 -0.898003 -0.294220 -0.327148 0 0 0
-0.549389 0.074713 -0.408210 -0.898003 -0.294220 -0.327148 0 0 0
-0.585332 0.134031 0.355514 -0.363095 -0.930118 0.055153 0 0 0
-0.774926 0.193151 0.104358 -0.363095 -0.930118 0.055153 0 0 0
-0.549389 0.074713 -0.408210 -0.363095 -0.930118 0.055153 0 0 0
-0.612113 0.408198 0.447184 -0.105398 -0.324582 0.939967 0 0 0
-0.585332 0.134031 0.355514 -0.105398 -0.324582 0.939967 0 0 0
0.475057 0.338925 0.545168 -0.105398 -0.324582 0.939967 0 0 0
-0.191888 0.544852 -0.384241 0.389778 0.527678 -0.754738 0 0 0
0.458123 0.613958 -0.000233 0.389778 0.527678 -0.754738 0 0 0
0.747334 0.269337 -0.091816 0.389778 0.527678 -0.754738 0 0 0
0.043684 0.318062 -0.530718 0.387105 0.749208 -0.537436 0 0 0
-0.191888 0.544852 -0.384241 0.387105 0.749208 -0.537436 0 0 0
0.747334 0.269337 -0.091816 0.387105 0.749208 -0.537436 0 0 0
0.747334 0.269337 -0.091816 0.622622 -0.772221 -0.126554 0 0 0
0.849389 0.299670 0.225184 0.622622 -0.772221 -0.126554 0 0 0
0.570653 0.060667 0.312228 0.622622 -0.772221 -0.126554 0 0 0
0.372773 0.693373 0.436700 0.155292 -0.966164 0.205941 0 0 0
-0.443810 0.525742 0.266018 0.155292 -0.966164 0.205941 0 0 0
0.458123 0.613958 -0.000233 0.155292 -0.966164 0.205941 0 0 0
-0.191888 0.544852 -0.384241 -0.282206 0.890803 -0.356131 0 0 0
-0.523475 0.523708 -0.174374 -0.282206 0.890803 -0.356131 0 0 0
-0.307188 0.745606 0.209279 -0.282206 0.890803 -0.356131 0 0 0
-0.443810 0.525742 0.266018 -0.264616 0.391829 0.881163 0 0 0
0.372773 0.693373 0.436700 -0.264616 0.391829 0.881163 0 0 0
-0.307188 0.745606 0.209279 -0.264616 0.391829 0.881163 0 0 0
-0.307188 0.745606 0.209279 0.025355 0.988185 0.151154 0 0 0
0.372773 0.693373 0.436700 0.025355 0.988185 0.151154 0 0 0
0.597272 0.745998 0.055006 0.025355 0.988185 0.151154 0 0 0
0.597272 0.745998 0.055006 0.610188 -0.749927 0.255497 0 0 0
0.372773 0.693373 0.436700 0.610188 -0.749927 0.255497 0 0 0
0.458123 0.613958 -0.000233 0.610188 -0.749927 0.255497 0 0 0
0.849389 0.299670 0.225184 0.569665 -0.403628 0.715937 0 0 0
0.475057 0.338925 0.545168 0.569665 -0.403628 0.715937 0 0 0
0.570653 0.060667 0.312228 0.569665 -0.403628 0.715937 0 0 0
-0.191888 0.544852 -0.384241 -0.056654 0.942365 -0.329755 0 0 0
-0.307188 0.745606 0.209279 -0.056654 0.942365 -0.329755 0 0 0
0.597272 0.745998 0.055006 -0.056654 0.942365 -0.329755 0 0 0
0.570653 0.060667 0.312228 -0.053012 -0.971532 0.230901 0 0 0
-0.585332 0.134031 0.355514 -0.053012 -0.971532 0.230901 0 0 0
-0.196975 -0.039546 -0.285660 -0.053012 -0.971532 0.230901 0 0 0
-0.549389 0.074713 -0.408210 -0.326070 -0.943568 0.057940 0 0 0
-0.196975 -0.039546 -0.285660 -0.326070 -0.943568 0.057940 0 0 0
-0.585332 0.134031 0.355514 -0.326070 -0.943568 0.057940 0 0 0
-0.549389 0.074713 -0.408210 -0.875203 -0.029457 -0.482858 0 0 0
-0.820136 0.375835 0.064160 -0.875203 -0.029457 -0.482858 0 0 0
-0.497111 0.400286 -0.522828 -0.875203 -0.029457 -0.482858 0 0 0
-0.443810 0.525742 0.266018 -0.822863 0.549080 0.146315 0 0 0
-0.307188 0.745606 0.209279 -0.822863 0.549080 0.146315 0 0 0
-0.523475 0.523708 -0.174374 -0.822863 0.549080 0.146315 0 0 0
0.458123 0.613958 -0.000233 0.694919 0.659409 -0.286821 0 0 0
0.849389 0.299670 0.225184 0.694919 0.659409 -0.286821 0 0 0
0.747334 0.269337 -0.091816 0.694919 0.659409 -0.286821 0 0 0
0.475057 0.338925 0.545168 0.004050 0.837167 0.546933 0 0 0
-0.443810 0.525742 0.266018 0.004050 0.837167 0.546933 0 0 0
-0.612113 0.408198 0.447184 0.004050 0.837167 0.546933 0 0 0
0.597272 0.745998 0.055006 0.514224 -0.192238 -0.835834 0 0 0
0.458123 0.613958 -0.000233 0.514224 -0.192238 -0.835834 0 0 0
-0.191888 0.544852 -0.384241 0.514224 -0.192238 -0.835834 0 0 0
-0.820136 0.375835 0.064160 -0.609926 0.731337 -0.305183 0 0 0
-0.523475 0.523708 -0.174374 -0.609926 0.731337 -0.305183 0 0 0
-0.497111 0.400286 -0.522828 -0.609926 0.731337 -0.305183 0 0 0
-0.497111 0.400286 -0.522828 -0.272286 0.900335 -0.339497 0 0 0
-0.523475 0.523708 -0.174374 -0.272286 0.900335 -0.339497 0 0 0
-0.191888 0.544852 -0.384241 -0.272286 0.900335 -0.339497 0 0 0
-0.585332 0.134031 0.355514 -0.803966 -0.068994 0.590660 0 0 0
-0.820136 0.375835 0.064160 -0.803966 -0.068994 0.590660 0 0 0
-0.774926 0.193151 0.104358 -0.803966 -0.068994 0.590660 0 0 0
-0.196975 -0.039546 -0.285660 0.351927 -0.885485 -0.303420 0 0 0
0.747334 0.269337 -0.091816 0.351927 -0.885485 -0.303420 0 0 0
0.570653 0.060667 0.312228 0.351927 -0.885485 -0.303420 0 0 0
-0.612113 0.408198 0.447184 -0.439824 0.882933 0.164270 0 0 0
-0.443810 0.525742 0.266018 -0.439824 0.882933 0.164270 0 0 0
-0.820136 0.375835 0.064160 -0.439824 0.882933 0.164270 0 0 0
-0.820136 0.375835 0.064160 -0.400578 0.913718 0.068242 0 0 0
-0.443810 0.525742 0.266018 -0.400578 0.913718 0.068242 0 0 0
-0.523475 0.523708 -0.174374 -0.400578 0.913718 0.068242 0 0 0
0.043684 0.318062 -0.530718 0.079222 0.597606 -0.797866 0 0 0
-0.497111 0.400286 -0.522828 0.079222 0.597606 -0.797866 0 0 0
-0.191888 0.544852 -0.384241 0.079222 0.597606 -0.797866 0 0 0
-0.585332 0.134031 0.355514 -0.843792 -0.242501 0.478758 0 0 0
-0.612113 0.408198 0.447184 -0.843792 -0.242501 0.478758 0 0 0
-0.820136 0.375835 0.064160 -0.843792 -0.242501 0.478758 0 0 0
-0.196975 -0.039546 -0.285660 0.354111 -0.678997 -0.643092 0 0 0
0.043684 0.318062 -0.530718 0.354111 -0.678997 -0.643092 0 0 0
0.747334 0.269337 -0.091816 0.354111 -0.678997 -0.643092 0 0 0
3 0 1 2
3 3 4 5
3 6 7 8
3 9 10 11
3 12 13 14
3 15 16 17
3 18 19 20
3 21 22 23
3 24 25 26
3 27 28 29
3 30 31 32
3 33 34 35
3 36 37 38
3 39 40 41
3 42 43 44
3 45 46 47
3 48 49 50
3 51 52 53
3 54 55 56
3 57 58 59
3 60 61 62
3 63 64 65
3 66 67 68
3 69 70 71
3 72 73 74
3 75 76 77
3 78 79 80
3 81 82 83
3 84 85 86
3 87 88 89
3 90 91 92
3 93 94 95
3 96 97 98
3 99 100 101
