ply
format ascii 1.0
comment Created by Blender 2.77 (sub 0) - www.blender.org, source file: ''
element vertex 306
property float x
property float y
property float z
property float nx
property float ny
property float nz
property uchar red
property uchar green
property uchar blue
element face 102
property list uchar uint vertex_indices
end_header
0.232367 0.694202 -0.178250 0.448232 0.380275 -0.808999 0 0 0
0.534109 0.746620 0.013572 0.448232 0.380275 -0.808999 0 0 0
0.339186 0.626621 -0.150833 0.448232 0.380275 -0.808999 0 0 0
0.745415 0.414093 0.139697 0.414483 0.857791 0.303970 0 0 0
0.338463 0.588513 0.202396 0.414483 0.857791 0.303970 0 0 0
0.505150 0.422149 0.444580 0.414483 0.857791 0.303970 0 0 0
0.505150 0.422149 0.444580 0.574130 0.694212 0.434103 0 0 0
0.750360 0.275675 0.354513 0.574130 0.694212 0.434103 0 0 0
0.745415 0.414093 0.139697 0.574130 0.694212 0.434103 0 0 0
0.463005 0.130962 0.462628 0.527892 -0.748796 0.400793 0 0 0
0.680428 0.097539 0.113813 0.527892 -0.748796 0.400793 0 0 0
0.750360 0.275675 0.354513 0.527892 -0.748796 0.400793 0 0 0
-0.355688 0.386585 -0.554912 0.057857 -0.214224 -0.975070 0 0 0
0.044626 0.197691 -0.489658 0.057857 -0.214224 -0.975070 0 0 0
-0.377169 0.142161 -0.502486 0.057857 -0.214224 -0.975070 0 0 0
-0.377169 0.142161 -0.502486 0.107581 -0.641750 -0.759331 0 0 0
0.044626 0.197691 -0.489658 0.107581 -0.641750 -0.759331 0 0 0
-0.020261 0.045498 -0.370225 0.107581 -0.641750 -0.759331 0 0 0
-0.377169 0.142161 -0.502486 -0.007443 -0.816800 -0.576874 0 0 0
-0.020261 0.045498 -0.370225 -0.007443 -0.816800 -0.576874 0 0 0
-0.225682 -0.042280 -0.243289 -0.007443 -0.816800 -0.576874 0 0 0
-0.304662 0.528750 0.316244 0.021238 0.830837 0.556111 0 0 0
0.505150 0.422149 0.444580 0.021238 0.830837 0.556111 0 0 0
0.338463 0.588513 0.202396 0.021238 0.830837 0.556111 0 0 0
0.425324 0.284503 0.554432 -0.051311 -0.521747 0.851556 0 0 0
-0.352239 0.252491 0.487966 -0.051311 -0.521747 0.851556 0 0 0
0.463005 0.130962 0.462628 -0.051311 -0.521747 0.851556 0 0 0
-0.794047 0.197146 0.093255 -0.879192 -0.425679 -0.214052 0 0 0
-0.831087 0.363284 -0.085002 -0.879192 -0.425679 -0.214052 0 0 0
-0.681754 0.175861 -0.325646 -0.879192 -0.425679 -0.214052 0 0 0
-0.546635 0.034368 0.020182 -0.560184 -0.826503 -0.055557 0 0 0
-0.794047 0.197146 0.093255 -0.560184 -0.826503 -0.055557 0 0 0
-0.501000 0.024966 -0.300086 -0.560184 -0.826503 -0.055557 0 0 0
-0.374501 0.385288 0.515766 -0.074312 -0.216253 0.973505 0 0 0
-0.352239 0.252491 0.487966 -0.074312 -0.216253 0.973505 0 0 0
0.425324 0.284503 0.554432 -0.074312 -0.216253 0.973505 0 0 0
-0.352239 0.252491 0.487966 -0.234212 -0.635715 0.735534 0 0 0
-0.614623 0.230751 0.385627 -0.234212 -0.635715 0.735534 0 0 0
-0.423227 0.068935 0.306716 -0.234212 -0.635715 0.735534 0 0 0
-0.423227 0.068935 0.306716 -0.101366 -0.981559 0.162071 0 0 0
-0.546635 0.034368 0.020182 -0.101366 -0.981559 0.162071 0 0 0
-0.225682 -0.042280 -0.243289 -0.101366 -0.981559 0.162071 0 0 0
-0.501000 0.024966 -0.300086 -0.092644 -0.836049 -0.540776 0 0 0
-0.377169 0.142161 -0.502486 -0.092644 -0.836049 -0.540776 0 0 0
-0.225682 -0.042280 -0.243289 -0.092644 -0.836049 -0.540776 0 0 0
-0.471203 0.462929 -0.402629 -0.449242 0.860865 -0.238940 0 0 0
-0.681993 0.362123 -0.369502 -0.449242 0.860865 -0.238940 0 0 0
-0.831087 0.363284 -0.085002 -0.449242 0.860865 -0.238940 0 0 0
-0.553990 0.511915 -0.081586 -0.624584 0.773114 -0.110410 0 0 0
-0.392080 0.679282 0.174437 -0.624584 0.773114 -0.110410 0 0 0
-0.472693 0.553910 -0.247423 -0.624584 0.773114 -0.110410 0 0 0
-0.478946 0.496920 0.211331 -0.249617 0.958299 0.139122 0 0 0
-0.550517 0.493357 0.107459 -0.249617 0.958299 0.139122 0 0 0
-0.635445 0.443039 0.301680 -0.249617 0.958299 0.139122 0 0 0
0.024585 0.553608 -0.296201 0.351543 0.269978 -0.896398 0 0 0
0.339186 0.626621 -0.150833 0.351543 0.269978 -0.896398 0 0 0
0.708554 0.339030 -0.092594 0.351543 0.269978 -0.896398 0 0 0
0.017574 0.404696 -0.501229 0.394574 0.736994 -0.548772 0 0 0
0.024585 0.553608 -0.296201 0.394574 0.736994 -0.548772 0 0 0
0.708554 0.339030 -0.092594 0.394574 0.736994 -0.548772 0 0 0
0.834086 0.279979 0.140838 0.797873 0.525003 -0.296260 0 0 0
0.708554 0.339030 -0.092594 0.797873 0.525003 -0.296260 0 0 0
0.745415 0.414093 0.139697 0.797873 0.525003 -0.296260 0 0 0
0.699269 0.185173 -0.084905 0.763943 -0.614040 -0.198358 0 0 0
0.834086 0.279979 0.140838 0.763943 -0.614040 -0.198358 0 0 0
0.680428 0.097539 0.113813 0.763943 -0.614040 -0.198358 0 0 0
0.834086 0.279979 0.140838 0.869884 -0.076846 -0.487234 0 0 0
0.699269 0.185173 -0.084905 0.869884 -0.076846 -0.487234 0 0 0
0.708554 0.339030 -0.092594 0.869884 -0.076846 -0.487234 0 0 0
0.834086 0.279979 0.140838 0.716963 -0.643549 0.267971 0 0 0
0.750360 0.275675 0.354513 0.716963 -0.643549 0.267971 0 0 0
0.680428 0.097539 0.113813 0.716963 -0.643549 0.267971 0 0 0
0.393445 0.668484 0.441357 0.138656 -0.948308 0.285459 0 0 0
-0.304662 0.528750 0.316244 0.138656 -0.948308 0.285459 0 0 0
0.338463 0.588513 0.202396 0.138656 -0.948308 0.285459 0 0 0
-0.211806 0.706623 -0.139494 -0.001882 0.945816 -0.324697 0 0 0
0.072045 0.776419 0.062171 -0.001882 0.945816 -0.324697 0 0 0
0.232367 0.694202 -0.178250 -0.001882 0.945816 -0.324697 0 0 0
-0.392080 0.679282 0.174437 -0.441633 0.879562 -0.177005 0 0 0
-0.211806 0.706623 -0.139494 -0.441633 0.879562 -0.177005 0 0 0
-0.472693 0.553910 -0.247423 -0.441633 0.879562 -0.177005 0 0 0
-0.392080 0.679282 0.174437 -0.189476 0.979770 0.064409 0 0 0
-0.222164 0.701947 0.329528 -0.189476 0.979770 0.064409 0 0 0
0.072045 0.776419 0.062171 -0.189476 0.979770 0.064409 0 0 0
-0.209898 0.542144 -0.381295 -0.242739 0.801219 -0.546924 0 0 0
-0.472693 0.553910 -0.247423 -0.242739 0.801219 -0.546924 0 0 0
-0.211806 0.706623 -0.139494 -0.242739 0.801219 -0.546924 0 0 0
0.602769 0.681373 0.192038 0.762929 -0.374971 -0.526626 0 0 0
0.418796 0.594830 -0.012865 0.762929 -0.374971 -0.526626 0 0 0
0.339186 0.626621 -0.150833 0.762929 -0.374971 -0.526626 0 0 0
-0.304662 0.528750 0.316244 -0.178227 0.009431 0.983944 0 0 0
0.393445 0.668484 0.441357 -0.178227 0.009431 0.983944 0 0 0
-0.222164 0.701947 0.329528 -0.178227 0.009431 0.983944 0 0 0
0.602769 0.681373 0.192038 0.619270 0.561390 0.548951 0 0 0
0.373958 0.737736 0.392519 0.619270 0.561390 0.548951 0 0 0
0.393445 0.668484 0.441357 0.619270 0.561390 0.548951 0 0 0
0.339186 0.626621 -0.150833 0.621768 0.761446 -0.183316 0 0 0
0.418796 0.594830 -0.012865 0.621768 0.761446 -0.183316 0 0 0
0.708554 0.339030 -0.092594 0.621768 0.761446 -0.183316 0 0 0
-0.701443 0.181667 0.177390 -0.445604 -0.828995 0.337940 0 0 0
-0.794047 0.197146 0.093255 -0.445604 -0.828995 0.337940 0 0 0
-0.546635 0.034368 0.020182 -0.445604 -0.828995 0.337940 0 0 0
-0.794047 0.197146 0.093255 -0.624793 -0.770168 -0.128352 0 0 0
-0.681754 0.175861 -0.325646 -0.624793 -0.770168 -0.128352 0 0 0
-0.501000 0.024966 -0.300086 -0.624793 -0.770168 -0.128352 0 0 0
-0.471203 0.462929 -0.402629 -0.411453 0.650615 -0.638284 0 0 0
-0.355688 0.386585 -0.554912 -0.411453 0.650615 -0.638284 0 0 0
-0.681993 0.362123 -0.369502 -0.411453 0.650615 -0.638284 0 0 0
-0.478946 0.496920 0.211331 -0.531573 0.189893 0.825452 0 0 0
-0.304662 0.528750 0.316244 -0.531573 0.189893 0.825452 0 0 0
-0.222164 0.701947 0.329528 -0.531573 0.189893 0.825452 0 0 0
0.505150 0.422149 0.444580 0.498429 0.345500 0.795109 0 0 0
0.425324 0.284503 0.554432 0.498429 0.345500 0.795109 0 0 0
0.750360 0.275675 0.354513 0.498429 0.345500 0.795109 0 0 0
0.072045 0.776419 0.062171 -0.018311 0.990977 0.132776 0 0 0
0.373958 0.737736 0.392519 -0.018311 0.990977 0.132776 0 0 0
0.528865 0.761858 0.233847 -0.018311 0.990977 0.132776 0 0 0
0.602769 0.681373 0.192038 0.330586 -0.915261 0.230239 0 0 0
0.393445 0.668484 0.441357 0.330586 -0.915261 0.230239 0 0 0
0.338463 0.588513 0.202396 0.330586 -0.915261 0.230239 0 0 0
0.750360 0.275675 0.354513 0.789113 0.524452 0.319768 0 0 0
0.834086 0.279979 0.140838 0.789113 0.524452 0.319768 0 0 0
0.745415 0.414093 0.139697 0.789113 0.524452 0.319768 0 0 0
0.463005 0.130962 0.462628 0.355764 -0.882937 0.306357 0 0 0
0.410428 0.055871 0.307268 0.355764 -0.882937 0.306357 0 0 0
0.680428 0.097539 0.113813 0.355764 -0.882937 0.306357 0 0 0
0.750360 0.275675 0.354513 0.481754 -0.359582 0.799133 0 0 0
0.425324 0.284503 0.554432 0.481754 -0.359582 0.799133 0 0 0
0.463005 0.130962 0.462628 0.481754 -0.359582 0.799133 0 0 0
-0.209898 0.542144 -0.381295 -0.025959 0.826466 -0.562387 0 0 0
-0.211806 0.706623 -0.139494 -0.025959 0.826466 -0.562387 0 0 0
0.232367 0.694202 -0.178250 -0.025959 0.826466 -0.562387 0 0 0
-0.352239 0.252491 0.487966 -0.335993 -0.236515 0.911685 0 0 0
-0.621510 0.382652 0.422496 -0.335993 -0.236515 0.911685 0 0 0
-0.614623 0.230751 0.385627 -0.335993 -0.236515 0.911685 0 0 0
-0.355688 0.386585 -0.554912 0.143994 -0.036460 -0.988907 0 0 0
0.017574 0.404696 -0.501229 0.143994 -0.036460 -0.988907 0 0 0
0.044626 0.197691 -0.489658 0.143994 -0.036460 -0.988907 0 0 0
0.410428 0.055871 0.307268 -0.015502 -0.981112 0.192820 0 0 0
-0.423227 0.068935 0.306716 -0.015502 -0.981112 0.192820 0 0 0
-0.225682 -0.042280 -0.243289 -0.015502 -0.981112 0.192820 0 0 0
-0.808798 0.374931 0.126574 -0.556035 -0.091661 0.826089 0 0 0
-0.701443 0.181667 0.177390 -0.556035 -0.091661 0.826089 0 0 0
-0.699869 0.365384 0.198834 -0.556035 -0.091661 0.826089 0 0 0
-0.501000 0.024966 -0.300086 -0.236270 -0.971674 -0.005141 0 0 0
-0.225682 -0.042280 -0.243289 -0.236270 -0.971674 -0.005141 0 0 0
-0.546635 0.034368 0.020182 -0.236270 -0.971674 -0.005141 0 0 0
-0.808798 0.374931 0.126574 -0.988644 -0.102606 0.109798 0 0 0
-0.831087 0.363284 -0.085002 -0.988644 -0.102606 0.109798 0 0 0
-0.794047 0.197146 0.093255 -0.988644 -0.102606 0.109798 0 0 0
-0.423227 0.068935 0.306716 -0.495637 -0.776238 0.389614 0 0 0
-0.614623 0.230751 0.385627 -0.495637 -0.776238 0.389614 0 0 0
-0.701443 0.181667 0.177390 -0.495637 -0.776238 0.389614 0 0 0
-0.681754 0.175861 -0.325646 -0.508668 -0.137587 -0.849898 0 0 0
-0.355688 0.386585 -0.554912 -0.508668 -0.137587 -0.849898 0 0 0
-0.377169 0.142161 -0.502486 -0.508668 -0.137587 -0.849898 0 0 0
-0.501000 0.024966 -0.300086 -0.439490 -0.634205 -0.636107 0 0 0
-0.681754 0.175861 -0.325646 -0.439490 -0.634205 -0.636107 0 0 0
-0.377169 0.142161 -0.502486 -0.439490 -0.634205 -0.636107 0 0 0
0.410428 0.055871 0.307268 -0.011447 -0.700332 0.713725 0 0 0
-0.352239 0.252491 0.487966 -0.011447 -0.700332 0.713725 0 0 0
-0.423227 0.068935 0.306716 -0.011447 -0.700332 0.713725 0 0 0
-0.681754 0.175861 -0.325646 -0.880582 -0.109680 -0.461027 0 0 0
-0.831087 0.363284 -0.085002 -0.880582 -0.109680 -0.461027 0 0 0
-0.681993 0.362123 -0.369502 -0.880582 -0.109680 -0.461027 0 0 0
-0.550517 0.493357 0.107459 -0.772291 0.630694 0.076104 0 0 0
-0.392080 0.679282 0.174437 -0.772291 0.630694 0.076104 0 0 0
-0.553990 0.511915 -0.081586 -0.772291 0.630694 0.076104 0 0 0
0.418796 0.594830 -0.012865 0.410780 0.893884 0.179530 0 0 0
0.338463 0.588513 0.202396 0.410780 0.893884 0.179530 0 0 0
0.745415 0.414093 0.139697 0.410780 0.893884 0.179530 0 0 0
0.602769 0.681373 0.192038 0.333290 -0.937836 0.096859 0 0 0
0.338463 0.588513 0.202396 0.333290 -0.937836 0.096859 0 0 0
0.418796 0.594830 -0.012865 0.333290 -0.937836 0.096859 0 0 0
0.602769 0.681373 0.192038 0.714357 -0.522261 -0.465766 0 0 0
0.339186 0.626621 -0.150833 0.714357 -0.522261 -0.465766 0 0 0
0.534109 0.746620 0.013572 0.714357 -0.522261 -0.465766 0 0 0
0.418796 0.594830 -0.012865 0.570852 0.750453 -0.333088 0 0 0
0.745415 0.414093 0.139697 0.570852 0.750453 -0.333088 0 0 0
0.708554 0.339030 -0.092594 0.570852 0.750453 -0.333088 0 0 0
-0.392080 0.679282 0.174437 -0.213393 0.976246 -0.037518 0 0 0
0.072045 0.776419 0.062171 -0.213393 0.976246 -0.037518 0 0 0
-0.211806 0.706623 -0.139494 -0.213393 0.976246 -0.037518 0 0 0
0.373958 0.737736 0.392519 -0.120357 0.549292 0.826917 0 0 0
-0.222164 0.701947 0.329528 -0.120357 0.549292 0.826917 0 0 0
0.393445 0.668484 0.441357 -0.120357 0.549292 0.826917 0 0 0
0.072045 0.776419 0.062171 -0.078494 0.979330 0.186415 0 0 0
-0.222164 0.701947 0.329528 -0.078494 0.979330 0.186415 0 0 0
0.373958 0.737736 0.392519 -0.078494 0.979330 0.186415 0 0 0
0.044626 0.197691 -0.489658 0.523416 -0.074009 -0.848857 0 0 0
0.708554 0.339030 -0.092594 0.523416 -0.074009 -0.848857 0 0 0
0.699269 0.185173 -0.084905 0.523416 -0.074009 -0.848857 0 0 0
0.505150 0.422149 0.444580 0.013567 0.809577 0.586857 0 0 0
-0.304662 0.528750 0.316244 0.013567 0.809577 0.586857 0 0 0
-0.374501 0.385288 0.515766 0.013567 0.809577 0.586857 0 0 0
0.232367 0.694202 -0.178250 0.368125 0.214871 -0.904607 0 0 0
0.339186 0.626621 -0.150833 0.368125 0.214871 -0.904607 0 0 0
0.024585 0.553608 -0.296201 0.368125 0.214871 -0.904607 0 0 0
-0.209898 0.542144 -0.381295 0.313247 0.294503 -0.902853 0 0 0
0.232367 0.694202 -0.178250 0.313247 0.294503 -0.902853 0 0 0
0.024585 0.553608 -0.296201 0.313247 0.294503 -0.902853 0 0 0
-0.441646 0.496249 -0.233563 -0.719171 -0.502562 -0.479817 0 0 0
-0.553990 0.511915 -0.081586 -0.719171 -0.502562 -0.479817 0 0 0
-0.472693 0.553910 -0.247423 -0.719171 -0.502562 -0.479817 0 0 0
-0.472693 0.553910 -0.247423 -0.426459 -0.421930 -0.800067 0 0 0
-0.209898 0.542144 -0.381295 -0.426459 -0.421930 -0.800067 0 0 0
-0.441646 0.496249 -0.233563 -0.426459 -0.421930 -0.800067 0 0 0
-0.355688 0.386585 -0.554912 -0.199292 0.807082 -0.555789 0 0 0
-0.471203 0.462929 -0.402629 -0.199292 0.807082 -0.555789 0 0 0
-0.209898 0.542144 -0.381295 -0.199292 0.807082 -0.555789 0 0 0
0.017574 0.404696 -0.501229 0.172633 0.794146 -0.582692 0 0 0
-0.209898 0.542144 -0.381295 0.172633 0.794146 -0.582692 0 0 0
0.024585 0.553608 -0.296201 0.172633 0.794146 -0.582692 0 0 0
-0.831087 0.363284 -0.085002 -0.361208 0.924845 -0.119123 0 0 0
-0.441646 0.496249 -0.233563 -0.361208 0.924845 -0.119123 0 0 0
-0.471203 0.462929 -0.402629 -0.361208 0.924845 -0.119123 0 0 0
-0.471203 0.462929 -0.402629 -0.276890 0.950798 -0.138978 0 0 0
-0.441646 0.496249 -0.233563 -0.276890 0.950798 -0.138978 0 0 0
-0.209898 0.542144 -0.381295 -0.276890 0.950798 -0.138978 0 0 0
-0.478946 0.496920 0.211331 -0.741205 0.453242 0.495163 0 0 0
-0.392080 0.679282 0.174437 -0.741205 0.453242 0.495163 0 0 0
-0.550517 0.493357 0.107459 -0.741205 0.453242 0.495163 0 0 0
-0.550517 0.493357 0.107459 -0.308575 0.764365 0.566152 0 0 0
-0.808798 0.374931 0.126574 -0.308575 0.764365 0.566152 0 0 0
-0.699869 0.365384 0.198834 -0.308575 0.764365 0.566152 0 0 0
-0.304662 0.528750 0.316244 -0.241996 0.856453 0.455989 0 0 0
-0.635445 0.443039 0.301680 -0.241996 0.856453 0.455989 0 0 0
-0.621510 0.382652 0.422496 -0.241996 0.856453 0.455989 0 0 0
-0.621510 0.382652 0.422496 -0.888209 0.361737 0.283252 0 0 0
-0.635445 0.443039 0.301680 -0.888209 0.361737 0.283252 0 0 0
-0.699869 0.365384 0.198834 -0.888209 0.361737 0.283252 0 0 0
-0.614623 0.230751 0.385627 -0.919124 -0.037898 0.392141 0 0 0
-0.699869 0.365384 0.198834 -0.919124 -0.037898 0.392141 0 0 0
-0.701443 0.181667 0.177390 -0.919124 -0.037898 0.392141 0 0 0
-0.423227 0.068935 0.306716 -0.475877 -0.825119 0.304498 0 0 0
-0.701443 0.181667 0.177390 -0.475877 -0.825119 0.304498 0 0 0
-0.546635 0.034368 0.020182 -0.475877 -0.825119 0.304498 0 0 0
0.680428 0.097539 0.113813 0.244018 -0.936303 -0.252572 0 0 0
-0.225682 -0.042280 -0.243289 0.244018 -0.936303 -0.252572 0 0 0
-0.020261 0.045498 -0.370225 0.244018 -0.936303 -0.252572 0 0 0
-0.020261 0.045498 -0.370225 0.312823 -0.879652 -0.358264 0 0 0
0.699269 0.185173 -0.084905 0.312823 -0.879652 -0.358264 0 0 0
0.680428 0.097539 0.113813 0.312823 -0.879652 -0.358264 0 0 0
-0.478946 0.496920 0.211331 -0.638530 0.432889 0.636307 0 0 0
-0.222164 0.701947 0.329528 -0.638530 0.432889 0.636307 0 0 0
-0.392080 0.679282 0.174437 -0.638530 0.432889 0.636307 0 0 0
-0.621510 0.382652 0.422496 -0.206177 0.827245 0.522644 0 0 0
-0.374501 0.385288 0.515766 -0.206177 0.827245 0.522644 0 0 0
-0.304662 0.528750 0.316244 -0.206177 0.827245 0.522644 0 0 0
-0.635445 0.443039 0.301680 -0.685590 0.719087 -0.113493 0 0 0
-0.550517 0.493357 0.107459 -0.685590 0.719087 -0.113493 0 0 0
-0.699869 0.365384 0.198834 -0.685590 0.719087 -0.113493 0 0 0
-0.808798 0.374931 0.126574 -0.417157 0.908814 -0.006084 0 0 0
-0.550517 0.493357 0.107459 -0.417157 0.908814 -0.006084 0 0 0
-0.831087 0.363284 -0.085002 -0.417157 0.908814 -0.006084 0 0 0
-0.831087 0.363284 -0.085002 -0.471465 0.876782 0.094734 0 0 0
-0.550517 0.493357 0.107459 -0.471465 0.876782 0.094734 0 0 0
-0.553990 0.511915 -0.081586 -0.471465 0.876782 0.094734 0 0 0
0.232367 0.694202 -0.178250 0.029190 0.951599 -0.305954 0 0 0
0.072045 0.776419 0.062171 0.029190 0.951599 -0.305954 0 0 0
0.534109 0.746620 0.013572 0.029190 0.951599 -0.305954 0 0 0
0.072045 0.776419 0.062171 0.057134 0.996079 -0.067546 0 0 0
0.528865 0.761858 0.233847 0.057134 0.996079 -0.067546 0 0 0
0.534109 0.746620 0.013572 0.057134 0.996079 -0.067546 0 0 0
0.602769 0.681373 0.192038 0.671955 0.256020 0.694932 0 0 0
0.528865 0.761858 0.233847 0.671955 0.256020 0.694932 0 0 0
0.373958 0.737736 0.392519 0.671955 0.256020 0.694932 0 0 0
-0.352239 0.252491 0.487966 -0.340004 -0.246959 0.907419 0 0 0
-0.374501 0.385288 0.515766 -0.340004 -0.246959 0.907419 0 0 0
-0.621510 0.382652 0.422496 -0.340004 -0.246959 0.907419 0 0 0
-0.808798 0.374931 0.126574 -0.677433 -0.189416 0.710778 0 0 0
-0.794047 0.197146 0.093255 -0.677433 -0.189416 0.710778 0 0 0
-0.701443 0.181667 0.177390 -0.677433 -0.189416 0.710778 0 0 0
-0.681754 0.175861 -0.325646 -0.472258 -0.202593 -0.857863 0 0 0
-0.681993 0.362123 -0.369502 -0.472258 -0.202593 -0.857863 0 0 0
-0.355688 0.386585 -0.554912 -0.472258 -0.202593 -0.857863 0 0 0
0.410428 0.055871 0.307268 -0.116496 -0.878200 0.463890 0 0 0
0.463005 0.130962 0.462628 -0.116496 -0.878200 0.463890 0 0 0
-0.352239 0.252491 0.487966 -0.116496 -0.878200 0.463890 0 0 0
0.044626 0.197691 -0.489658 0.510255 0.018619 -0.859822 0 0 0
0.017574 0.404696 -0.501229 0.510255 0.018619 -0.859822 0 0 0
0.708554 0.339030 -0.092594 0.510255 0.018619 -0.859822 0 0 0
0.425324 0.284503 0.554432 0.038533 0.609568 0.791797 0 0 0
0.505150 0.422149 0.444580 0.038533 0.609568 0.791797 0 0 0
-0.374501 0.385288 0.515766 0.038533 0.609568 0.791797 0 0 0
0.017574 0.404696 -0.501229 0.065360 0.715283 -0.695772 0 0 0
-0.355688 0.386585 -0.554912 0.065360 0.715283 -0.695772 0 0 0
-0.209898 0.542144 -0.381295 0.065360 0.715283 -0.695772 0 0 0
-0.831087 0.363284 -0.085002 -0.429228 0.809430 -0.400732 0 0 0
-0.553990 0.511915 -0.081586 -0.429228 0.809430 -0.400732 0 0 0
-0.441646 0.496249 -0.233563 -0.429228 0.809430 -0.400732 0 0 0
-0.304662 0.528750 0.316244 -0.254073 0.958223 0.131359 0 0 0
-0.478946 0.496920 0.211331 -0.254073 0.958223 0.131359 0 0 0
-0.635445 0.443039 0.301680 -0.254073 0.958223 0.131359 0 0 0
-0.614623 0.230751 0.385627 -0.933444 -0.124021 0.336603 0 0 0
-0.621510 0.382652 0.422496 -0.933444 -0.124021 0.336603 0 0 0
-0.699869 0.365384 0.198834 -0.933444 -0.124021 0.336603 0 0 0
0.680428 0.097539 0.113813 0.152509 -0.988302 -0.000017 0 0 0
0.410428 0.055871 0.307268 0.152509 -0.988302 -0.000017 0 0 0
-0.225682 -0.042280 -0.243289 0.152509 -0.988302 -0.000017 0 0 0
-0.020261 0.045498 -0.370225 0.383130 -0.665790 -0.640262 0 0 0
0.044626 0.197691 -0.489658 0.383130 -0.665790 -0.640262 0 0 0
0.699269 0.185173 -0.084905 0.383130 -0.665790 -0.640262 0 0 0
0.528865 0.761858 0.233847 0.728433 0.684459 -0.030006 0 0 0
0.602769 0.681373 0.192038 0.728433 0.684459 -0.030006 0 0 0
0.534109 0.746620 0.013572 0.728433 0.684459 -0.030006 0 0 0
3 0 1 2
3 3 4 5
3 6 7 8
3 9 10 11
3 12 13 14
3 15 16 17
3 18 19 20
3 21 22 23
3 24 25 26
3 27 28 29
3 30 31 32
3 33 34 35
3 36 37 38
3 39 40 41
3 42 43 44
3 45 46 47
3 48 49 50
3 51 52 53
3 54 55 56
3 57 58 59
3 60 61 62
3 63 64 65
3 66 67 68
3 69 70 71
3 72 73 74
3 75 76 77
3 78 79 80
3 81 82 83
3 84 85 86
3 87 88 89
3 90 91 92
3 93 94 95
3 96 97 98
3 99 100 101
3 102 103 104
3 105 106 107
3 108 109 110
3 111 112 113
3 114 115 116
3 117 118 119
3 120 121 122
3 123 124 125
3 126 127 128
3 129 130 131
3 132 133 134
3 135 136 137
3 138 139 140
3 141 142 143
3 144 145 146
3 147 148 149
3 150 151 152
3 153 154 155
3 156 157 158
3 159 160 161
3 162 163 164
3 165 166 167
3 168 169 170
3 171 172 173
3 174 175 176
3 177 178 179
3 180 181 182
3 183 184 185
3 186 187 188
3 189 190 191
3 192 193 194
3 195 196 197
3 198 199 200
3 201 202 203
3 204 205 206
3 207 208 209
3 210 211 212
3 213 214 215
3 216 217 218
3 219 220 221
3 222 223 224
3 225 226 227
3 228 229 230
3 231 232 233
3 234 235 236
3 237 238 239
3 240 241 242
3 243 244 245
3 246 247 248
3 249 250 251
3 252 253 254
3 255 256 257
3 258 259 260
3 261 262 263
3 264 265 266
3 267 268 269
3 270 271 272
3 273 274 275
3 276 277 278
3 279 280 281
3 282 283 284
3 285 286 287
3 288 289 290
3 291 292 293
3 294 295 296
3 297 298 299
3 300 301 302
3 303 304 305
