ply
format ascii 1.0
comment Created by Blender 2.77 (sub 0) - www.blender.org, source file: 'WoodenStick0.blend'
element vertex 666
property float x
property float y
property float z
property float nx
property float ny
property float nz
property uchar red
property uchar green
property uchar blue
element face 222
property list uchar uint vertex_indices
end_header
3.169863 0.313184 0.138148 0.103378 -0.004708 -0.994631 0 0 0
3.194048 0.103774 0.141654 0.103378 -0.004708 -0.994631 0 0 0
2.686777 0.083294 0.089027 0.103378 -0.004708 -0.994631 0 0 0
1.399228 0.299087 -0.172431 0.621506 0.414286 -0.664904 0 0 0
1.324728 0.486894 -0.125051 0.621506 0.414286 -0.664904 0 0 0
1.453030 0.390610 -0.065116 0.621506 0.414286 -0.664904 0 0 0
3.278701 0.234718 0.429080 0.673180 -0.208434 0.709495 0 0 0
3.306312 0.095932 0.362110 0.673180 -0.208434 0.709495 0 0 0
3.367400 0.216874 0.339679 0.673180 -0.208434 0.709495 0 0 0
0.649133 0.413478 0.062867 0.027169 0.644458 0.764157 0 0 0
1.501077 0.204422 0.208886 0.027169 0.644458 0.764157 0 0 0
1.441723 0.385435 0.058337 0.027169 0.644458 0.764157 0 0 0
-0.447457 0.383122 -0.142347 -0.041667 0.866597 -0.497265 0 0 0
-1.818964 0.293700 -0.183262 -0.041667 0.866597 -0.497265 0 0 0
-1.762196 0.368779 -0.057178 -0.041667 0.866597 -0.497265 0 0 0
-0.447457 0.383122 -0.142347 0.006870 0.144843 -0.989431 0 0 0
-0.457327 0.207318 -0.168151 0.006870 0.144843 -0.989431 0 0 0
-1.796474 0.091603 -0.194389 0.006870 0.144843 -0.989431 0 0 0
-1.211625 0.465619 0.062771 -0.173279 0.984873 0.000226 0 0 0
-1.762196 0.368779 -0.057178 -0.173279 0.984873 0.000226 0 0 0
-1.786261 0.364513 0.082395 -0.173279 0.984873 0.000226 0 0 0
1.441723 0.385435 0.058337 -0.035289 0.864761 0.500942 0 0 0
1.324728 0.486894 -0.125051 -0.035289 0.864761 0.500942 0 0 0
1.117808 0.473533 -0.116561 -0.035289 0.864761 0.500942 0 0 0
1.238351 0.169654 -0.193225 0.511915 -0.527336 -0.678129 0 0 0
1.399228 0.299087 -0.172431 0.511915 -0.527336 -0.678129 0 0 0
1.453315 0.086647 0.033599 0.511915 -0.527336 -0.678129 0 0 0
1.171294 0.075715 0.059480 0.082048 -0.837448 0.540322 0 0 0
1.453315 0.086647 0.033599 0.082048 -0.837448 0.540322 0 0 0
1.501077 0.204422 0.208886 0.082048 -0.837448 0.540322 0 0 0
-3.233101 0.600318 0.101208 -0.385322 0.559843 -0.733555 0 0 0
-3.295651 0.498937 0.056691 -0.385322 0.559843 -0.733555 0 0 0
-3.340000 0.631548 0.181194 -0.385322 0.559843 -0.733555 0 0 0
-1.818964 0.293700 -0.183262 0.026001 0.057839 -0.997987 0 0 0
-0.447457 0.383122 -0.142347 0.026001 0.057839 -0.997987 0 0 0
-1.796474 0.091603 -0.194389 0.026001 0.057839 -0.997987 0 0 0
-1.796474 0.091603 -0.194389 0.088112 -0.957222 -0.275612 0 0 0
-0.457327 0.207318 -0.168151 0.088112 -0.957222 -0.275612 0 0 0
-1.701699 0.030647 0.047617 0.088112 -0.957222 -0.275612 0 0 0
2.307563 0.240778 0.400298 -0.095753 -0.487641 0.867778 0 0 0
2.478716 0.051302 0.312709 -0.095753 -0.487641 0.867778 0 0 0
3.096089 0.247867 0.491289 -0.095753 -0.487641 0.867778 0 0 0
-0.474370 0.159511 0.237902 -0.053667 0.716656 0.695359 0 0 0
0.569951 0.274707 0.199778 -0.053667 0.716656 0.695359 0 0 0
0.649133 0.413478 0.062867 -0.053667 0.716656 0.695359 0 0 0
-2.564183 0.205123 0.210006 -0.024268 -0.223926 0.974304 0 0 0
-2.381675 0.400824 0.259530 -0.024268 -0.223926 0.974304 0 0 0
-2.572150 0.469312 0.270527 -0.024268 -0.223926 0.974304 0 0 0
-2.273262 0.406357 -0.106944 -0.292334 0.138709 -0.946203 0 0 0
-2.505304 0.212528 -0.063668 -0.292334 0.138709 -0.946203 0 0 0
-2.387460 0.463641 -0.063264 -0.292334 0.138709 -0.946203 0 0 0
2.439729 0.326685 0.117163 0.257847 0.199235 -0.945421 0 0 0
2.104228 0.138107 -0.014079 0.257847 0.199235 -0.945421 0 0 0
1.399228 0.299087 -0.172431 0.257847 0.199235 -0.945421 0 0 0
1.453030 0.390610 -0.065116 0.571797 0.815815 0.086563 0 0 0
1.324728 0.486894 -0.125051 0.571797 0.815815 0.086563 0 0 0
1.441723 0.385435 0.058337 0.571797 0.815815 0.086563 0 0 0
2.439729 0.326685 0.117163 0.124342 0.834020 -0.537541 0 0 0
2.322572 0.414365 0.226103 0.124342 0.834020 -0.537541 0 0 0
3.127040 0.382113 0.362149 0.124342 0.834020 -0.537541 0 0 0
-0.464258 0.288596 0.184463 -0.145073 0.857331 0.493900 0 0 0
0.024079 0.447851 0.051461 -0.145073 0.857331 0.493900 0 0 0
-0.450802 0.400401 -0.005662 -0.145073 0.857331 0.493900 0 0 0
1.399228 0.299087 -0.172431 0.061222 -0.550730 -0.832435 0 0 0
2.104228 0.138107 -0.014079 0.061222 -0.550730 -0.832435 0 0 0
2.019814 0.029358 0.051660 0.061222 -0.550730 -0.832435 0 0 0
-2.387460 0.463641 -0.063264 -0.019266 0.010647 -0.999758 0 0 0
-2.505304 0.212528 -0.063668 -0.019266 0.010647 -0.999758 0 0 0
-2.872154 0.432235 -0.054259 -0.019266 0.010647 -0.999758 0 0 0
3.127040 0.382113 0.362149 0.154013 0.778656 -0.608255 0 0 0
2.725223 0.255274 0.098035 0.154013 0.778656 -0.608255 0 0 0
2.439729 0.326685 0.117163 0.154013 0.778656 -0.608255 0 0 0
-0.468527 0.093907 -0.060719 -0.074681 -0.990038 -0.119365 0 0 0
0.054734 0.031320 0.131006 -0.074681 -0.990038 -0.119365 0 0 0
-0.477038 0.070089 0.142151 -0.074681 -0.990038 -0.119365 0 0 0
-0.999826 0.021479 0.095437 0.101902 -0.988495 -0.111776 0 0 0
-0.468527 0.093907 -0.060719 0.101902 -0.988495 -0.111776 0 0 0
-0.477038 0.070089 0.142151 0.101902 -0.988495 -0.111776 0 0 0
3.169863 0.313184 0.138148 -0.120560 0.988547 -0.090770 0 0 0
2.725223 0.255274 0.098035 -0.120560 0.988547 -0.090770 0 0 0
3.294996 0.347458 0.345210 -0.120560 0.988547 -0.090770 0 0 0
3.294996 0.347458 0.345210 0.345781 0.869433 -0.352877 0 0 0
3.325391 0.286906 0.225804 0.345781 0.869433 -0.352877 0 0 0
3.169863 0.313184 0.138148 0.345781 0.869433 -0.352877 0 0 0
3.169863 0.313184 0.138148 0.085534 0.033037 -0.995787 0 0 0
2.686777 0.083294 0.089027 0.085534 0.033037 -0.995787 0 0 0
2.725223 0.255274 0.098035 0.085534 0.033037 -0.995787 0 0 0
3.325391 0.286906 0.225804 0.873890 0.485543 -0.023777 0 0 0
3.294996 0.347458 0.345210 0.873890 0.485543 -0.023777 0 0 0
3.367400 0.216874 0.339679 0.873890 0.485543 -0.023777 0 0 0
3.294996 0.347458 0.345210 0.697174 0.360303 0.619782 0 0 0
3.278701 0.234718 0.429080 0.697174 0.360303 0.619782 0 0 0
3.367400 0.216874 0.339679 0.697174 0.360303 0.619782 0 0 0
1.453315 0.086647 0.033599 -0.048298 -0.701690 -0.710843 0 0 0
1.399228 0.299087 -0.172431 -0.048298 -0.701690 -0.710843 0 0 0
2.019814 0.029358 0.051660 -0.048298 -0.701690 -0.710843 0 0 0
2.478716 0.051302 0.312709 -0.032022 -0.990773 0.131695 0 0 0
2.597401 0.025042 0.144007 -0.032022 -0.990773 0.131695 0 0 0
3.179550 0.036817 0.374145 -0.032022 -0.990773 0.131695 0 0 0
3.096089 0.247867 0.491289 -0.085596 -0.509192 0.856386 0 0 0
2.478716 0.051302 0.312709 -0.085596 -0.509192 0.856386 0 0 0
3.179550 0.036817 0.374145 -0.085596 -0.509192 0.856386 0 0 0
1.064423 0.277467 -0.158695 -0.228557 -0.057464 -0.971833 0 0 0
1.238351 0.169654 -0.193225 -0.228557 -0.057464 -0.971833 0 0 0
1.021905 0.180129 -0.142940 -0.228557 -0.057464 -0.971833 0 0 0
1.021905 0.180129 -0.142940 -0.007154 -0.890849 -0.454244 0 0 0
1.171294 0.075715 0.059480 -0.007154 -0.890849 -0.454244 0 0 0
0.479893 0.048914 0.122930 -0.007154 -0.890849 -0.454244 0 0 0
1.264288 0.402069 -0.716245 -0.902927 -0.202633 -0.379029 0 0 0
1.236705 0.511303 -0.708935 -0.902927 -0.202633 -0.379029 0 0 0
1.338072 0.492622 -0.940425 -0.902927 -0.202633 -0.379029 0 0 0
1.487353 0.543404 -0.753583 0.021311 -0.249753 -0.968075 0 0 0
1.598374 0.546022 -0.751814 0.021311 -0.249753 -0.968075 0 0 0
1.494221 0.487458 -0.738998 0.021311 -0.249753 -0.968075 0 0 0
1.511774 0.600088 -1.097749 0.037333 0.987818 0.151068 0 0 0
1.359542 0.578818 -0.921050 0.037333 0.987818 0.151068 0 0 0
1.428584 0.558926 -0.808039 0.037333 0.987818 0.151068 0 0 0
-2.317862 0.482109 0.196623 -0.736448 0.230003 0.636194 0 0 0
-2.313958 0.563595 0.171683 -0.736448 0.230003 0.636194 0 0 0
-2.427287 0.502052 0.062745 -0.736448 0.230003 0.636194 0 0 0
-2.176391 0.605774 0.242067 0.371892 -0.663872 0.648822 0 0 0
-2.228197 0.622547 0.288923 0.371892 -0.663872 0.648822 0 0 0
-2.317862 0.482109 0.196623 0.371892 -0.663872 0.648822 0 0 0
-2.176391 0.605774 0.242067 0.071309 -0.911480 0.405117 0 0 0
-2.101163 0.708285 0.459467 0.071309 -0.911480 0.405117 0 0 0
-2.228197 0.622547 0.288923 0.071309 -0.911480 0.405117 0 0 0
1.174029 0.412785 -0.408771 -0.938257 -0.218998 -0.267793 0 0 0
1.236705 0.511303 -0.708935 -0.938257 -0.218998 -0.267793 0 0 0
1.264288 0.402069 -0.716245 -0.938257 -0.218998 -0.267793 0 0 0
1.272064 0.308199 -0.396582 -0.706427 -0.683572 -0.183548 0 0 0
1.174029 0.412785 -0.408771 -0.706427 -0.683572 -0.183548 0 0 0
1.264288 0.402069 -0.716245 -0.706427 -0.683572 -0.183548 0 0 0
1.338072 0.492622 -0.940425 -0.480864 -0.746549 -0.459820 0 0 0
1.375975 0.421638 -0.864816 -0.480864 -0.746549 -0.459820 0 0 0
1.264288 0.402069 -0.716245 -0.480864 -0.746549 -0.459820 0 0 0
1.285746 0.522081 -0.369241 0.744659 0.667057 -0.022755 0 0 0
1.324728 0.486894 -0.125051 0.744659 0.667057 -0.022755 0 0 0
1.344576 0.456612 -0.363229 0.744659 0.667057 -0.022755 0 0 0
1.436680 0.578945 -0.716676 0.441500 0.867492 -0.229205 0 0 0
1.487353 0.543404 -0.753583 0.441500 0.867492 -0.229205 0 0 0
1.428584 0.558926 -0.808039 0.441500 0.867492 -0.229205 0 0 0
1.257213 0.593166 -0.697492 0.131860 0.571156 0.810181 0 0 0
1.382146 0.531485 -0.674343 0.131860 0.571156 0.810181 0 0 0
1.436680 0.578945 -0.716676 0.131860 0.571156 0.810181 0 0 0
1.359542 0.578818 -0.921050 0.075847 0.996690 -0.029247 0 0 0
1.257213 0.593166 -0.697492 0.075847 0.996690 -0.029247 0 0 0
1.436680 0.578945 -0.716676 0.075847 0.996690 -0.029247 0 0 0
1.382146 0.531485 -0.674343 -0.134845 -0.233981 0.962845 0 0 0
1.417022 0.456143 -0.687767 -0.134845 -0.233981 0.962845 0 0 0
1.481083 0.535566 -0.659495 -0.134845 -0.233981 0.962845 0 0 0
1.417022 0.456143 -0.687767 0.248817 -0.496681 0.831503 0 0 0
1.608190 0.537077 -0.696628 0.248817 -0.496681 0.831503 0 0 0
1.481083 0.535566 -0.659495 0.248817 -0.496681 0.831503 0 0 0
1.382146 0.531485 -0.674343 0.709930 0.660408 0.244665 0 0 0
1.285746 0.522081 -0.369241 0.709930 0.660408 0.244665 0 0 0
1.344576 0.456612 -0.363229 0.709930 0.660408 0.244665 0 0 0
2.322572 0.414365 0.226103 -0.040064 0.998467 0.038178 0 0 0
1.453030 0.390610 -0.065116 -0.040064 0.998467 0.038178 0 0 0
1.441723 0.385435 0.058337 -0.040064 0.998467 0.038178 0 0 0
2.307563 0.240778 0.400298 -0.089792 0.709338 0.699126 0 0 0
3.127040 0.382113 0.362149 -0.089792 0.709338 0.699126 0 0 0
2.322572 0.414365 0.226103 -0.089792 0.709338 0.699126 0 0 0
2.019814 0.029358 0.051660 -0.105381 -0.958250 0.265804 0 0 0
2.478716 0.051302 0.312709 -0.105381 -0.958250 0.265804 0 0 0
1.453315 0.086647 0.033599 -0.105381 -0.958250 0.265804 0 0 0
-3.309506 0.396180 0.131299 -0.242752 -0.968661 -0.052607 0 0 0
-2.564183 0.205123 0.210006 -0.242752 -0.968661 -0.052607 0 0 0
-3.267492 0.373153 0.361432 -0.242752 -0.968661 -0.052607 0 0 0
-3.329537 0.480413 0.332977 -0.835974 0.294201 0.463242 0 0 0
-3.281502 0.682355 0.291412 -0.835974 0.294201 0.463242 0 0 0
-3.372498 0.524169 0.227662 -0.835974 0.294201 0.463242 0 0 0
-3.107550 0.570954 0.388797 0.171548 -0.215068 0.961414 0 0 0
-2.564183 0.205123 0.210006 0.171548 -0.215068 0.961414 0 0 0
-2.572150 0.469312 0.270527 0.171548 -0.215068 0.961414 0 0 0
-3.112305 0.711683 0.239834 0.359601 0.850131 0.384662 0 0 0
-2.572150 0.469312 0.270527 0.359601 0.850131 0.384662 0 0 0
-2.427287 0.502052 0.062745 0.359601 0.850131 0.384662 0 0 0
-1.653593 0.315181 0.137921 -0.131867 -0.423190 0.896393 0 0 0
-0.999826 0.021479 0.095437 -0.131867 -0.423190 0.896393 0 0 0
-0.474370 0.159511 0.237902 -0.131867 -0.423190 0.896393 0 0 0
-3.281502 0.682355 0.291412 -0.034544 0.914457 -0.403206 0 0 0
-3.233101 0.600318 0.101208 -0.034544 0.914457 -0.403206 0 0 0
-3.340000 0.631548 0.181194 -0.034544 0.914457 -0.403206 0 0 0
-3.372498 0.524169 0.227662 -0.909223 -0.157273 -0.385458 0 0 0
-3.295651 0.498937 0.056691 -0.909223 -0.157273 -0.385458 0 0 0
-3.309506 0.396180 0.131299 -0.909223 -0.157273 -0.385458 0 0 0
-3.329537 0.480413 0.332977 -0.872751 -0.475194 0.111787 0 0 0
-3.309506 0.396180 0.131299 -0.872751 -0.475194 0.111787 0 0 0
-3.267492 0.373153 0.361432 -0.872751 -0.475194 0.111787 0 0 0
-3.329537 0.480413 0.332977 -0.132277 -0.264601 0.955243 0 0 0
-3.107550 0.570954 0.388797 -0.132277 -0.264601 0.955243 0 0 0
-3.259064 0.623114 0.382264 -0.132277 -0.264601 0.955243 0 0 0
-3.259064 0.623114 0.382264 0.019866 0.839725 0.542648 0 0 0
-3.112305 0.711683 0.239834 0.019866 0.839725 0.542648 0 0 0
-3.281502 0.682355 0.291412 0.019866 0.839725 0.542648 0 0 0
3.278701 0.234718 0.429080 0.291178 0.627514 0.722109 0 0 0
3.127040 0.382113 0.362149 0.291178 0.627514 0.722109 0 0 0
3.096089 0.247867 0.491289 0.291178 0.627514 0.722109 0 0 0
3.278701 0.234718 0.429080 0.260256 -0.377127 0.888843 0 0 0
3.179550 0.036817 0.374145 0.260256 -0.377127 0.888843 0 0 0
3.306312 0.095932 0.362110 0.260256 -0.377127 0.888843 0 0 0
3.306312 0.095932 0.362110 0.420579 -0.873481 -0.245242 0 0 0
3.194048 0.103774 0.141654 0.420579 -0.873481 -0.245242 0 0 0
3.332838 0.154375 0.199449 0.420579 -0.873481 -0.245242 0 0 0
3.332838 0.154375 0.199449 0.506374 0.195470 -0.839867 0 0 0
3.169863 0.313184 0.138148 0.506374 0.195470 -0.839867 0 0 0
3.325391 0.286906 0.225804 0.506374 0.195470 -0.839867 0 0 0
2.322572 0.414365 0.226103 -0.194044 0.703187 0.684014 0 0 0
1.501077 0.204422 0.208886 -0.194044 0.703187 0.684014 0 0 0
2.307563 0.240778 0.400298 -0.194044 0.703187 0.684014 0 0 0
-0.474370 0.159511 0.237902 0.079668 -0.423612 0.902333 0 0 0
0.054734 0.031320 0.131006 0.079668 -0.423612 0.902333 0 0 0
0.569951 0.274707 0.199778 0.079668 -0.423612 0.902333 0 0 0
0.479912 0.130839 -0.146831 -0.023650 -0.069207 -0.997322 0 0 0
-0.447457 0.383122 -0.142347 -0.023650 -0.069207 -0.997322 0 0 0
0.778314 0.353682 -0.169371 -0.023650 -0.069207 -0.997322 0 0 0
-0.447457 0.383122 -0.142347 0.014811 0.937013 -0.348981 0 0 0
0.024079 0.447851 0.051461 0.014811 0.937013 -0.348981 0 0 0
0.778314 0.353682 -0.169371 0.014811 0.937013 -0.348981 0 0 0
-2.209762 0.703669 0.228172 -0.686009 0.645611 -0.335527 0 0 0
-2.313958 0.563595 0.171683 -0.686009 0.645611 -0.335527 0 0 0
-2.254207 0.674756 0.263411 -0.686009 0.645611 -0.335527 0 0 0
-2.505304 0.212528 -0.063668 -0.210722 -0.974912 -0.071713 0 0 0
-1.701699 0.030647 0.047617 -0.210722 -0.974912 -0.071713 0 0 0
-2.564183 0.205123 0.210006 -0.210722 -0.974912 -0.071713 0 0 0
-1.211625 0.465619 0.062771 -0.042041 0.862875 -0.503665 0 0 0
-0.447457 0.383122 -0.142347 -0.042041 0.862875 -0.503665 0 0 0
-1.762196 0.368779 -0.057178 -0.042041 0.862875 -0.503665 0 0 0
2.439729 0.326685 0.117163 0.193712 0.304436 -0.932628 0 0 0
2.686777 0.083294 0.089027 0.193712 0.304436 -0.932628 0 0 0
2.104228 0.138107 -0.014079 0.193712 0.304436 -0.932628 0 0 0
0.024079 0.447851 0.051461 0.013437 0.526448 0.850101 0 0 0
-0.474370 0.159511 0.237902 0.013437 0.526448 0.850101 0 0 0
0.649133 0.413478 0.062867 0.013437 0.526448 0.850101 0 0 0
-1.037183 0.385798 0.156220 0.019103 0.381156 0.924313 0 0 0
-0.474370 0.159511 0.237902 0.019103 0.381156 0.924313 0 0 0
-0.464258 0.288596 0.184463 0.019103 0.381156 0.924313 0 0 0
-0.450802 0.400401 -0.005662 0.119450 0.852109 0.509551 0 0 0
-1.037183 0.385798 0.156220 0.119450 0.852109 0.509551 0 0 0
-0.464258 0.288596 0.184463 0.119450 0.852109 0.509551 0 0 0
2.597401 0.025042 0.144007 0.052752 -0.727046 -0.684560 0 0 0
2.104228 0.138107 -0.014079 0.052752 -0.727046 -0.684560 0 0 0
2.686777 0.083294 0.089027 0.052752 -0.727046 -0.684560 0 0 0
-2.284512 0.603094 0.091241 0.088415 0.709419 -0.699219 0 0 0
-2.273262 0.406357 -0.106944 0.088415 0.709419 -0.699219 0 0 0
-2.387460 0.463641 -0.063264 0.088415 0.709419 -0.699219 0 0 0
-2.381675 0.400824 0.259530 0.280617 0.439902 0.853077 0 0 0
-1.786261 0.364513 0.082395 0.280617 0.439902 0.853077 0 0 0
-2.317862 0.482109 0.196623 0.280617 0.439902 0.853077 0 0 0
-1.653593 0.315181 0.137921 -0.085443 0.634682 0.768035 0 0 0
-1.211625 0.465619 0.062771 -0.085443 0.634682 0.768035 0 0 0
-1.786261 0.364513 0.082395 -0.085443 0.634682 0.768035 0 0 0
-2.183768 0.621775 0.132191 0.941421 -0.017238 -0.336792 0 0 0
-2.209050 0.458376 0.069882 0.941421 -0.017238 -0.336792 0 0 0
-2.273262 0.406357 -0.106944 0.941421 -0.017238 -0.336792 0 0 0
-2.872154 0.432235 -0.054259 -0.291950 -0.535845 -0.792234 0 0 0
-3.309506 0.396180 0.131299 -0.291950 -0.535845 -0.792234 0 0 0
-3.295651 0.498937 0.056691 -0.291950 -0.535845 -0.792234 0 0 0
-3.233101 0.600318 0.101208 -0.152353 0.474653 -0.866887 0 0 0
-2.872154 0.432235 -0.054259 -0.152353 0.474653 -0.866887 0 0 0
-3.295651 0.498937 0.056691 -0.152353 0.474653 -0.866887 0 0 0
-0.999826 0.021479 0.095437 -0.121358 -0.676286 -0.726574 0 0 0
-0.457327 0.207318 -0.168151 -0.121358 -0.676286 -0.726574 0 0 0
-0.468527 0.093907 -0.060719 -0.121358 -0.676286 -0.726574 0 0 0
0.479912 0.130839 -0.146831 -0.064186 -0.904264 -0.422122 0 0 0
0.054734 0.031320 0.131006 -0.064186 -0.904264 -0.422122 0 0 0
-0.457327 0.207318 -0.168151 -0.064186 -0.904264 -0.422122 0 0 0
3.367400 0.216874 0.339679 0.952564 0.109962 -0.283779 0 0 0
3.332838 0.154375 0.199449 0.952564 0.109962 -0.283779 0 0 0
3.325391 0.286906 0.225804 0.952564 0.109962 -0.283779 0 0 0
2.307563 0.240778 0.400298 -0.233460 -0.573779 0.785031 0 0 0
1.453315 0.086647 0.033599 -0.233460 -0.573779 0.785031 0 0 0
2.478716 0.051302 0.312709 -0.233460 -0.573779 0.785031 0 0 0
1.399228 0.299087 -0.172431 0.570366 -0.741328 -0.353715 0 0 0
1.272064 0.308199 -0.396582 0.570366 -0.741328 -0.353715 0 0 0
1.348749 0.359653 -0.380765 0.570366 -0.741328 -0.353715 0 0 0
1.064423 0.277467 -0.158695 0.086276 0.186809 -0.978601 0 0 0
0.778314 0.353682 -0.169371 0.086276 0.186809 -0.978601 0 0 0
1.117808 0.473533 -0.116561 0.086276 0.186809 -0.978601 0 0 0
1.117808 0.473533 -0.116561 0.034714 0.916917 0.397566 0 0 0
0.649133 0.413478 0.062867 0.034714 0.916917 0.397566 0 0 0
1.441723 0.385435 0.058337 0.034714 0.916917 0.397566 0 0 0
1.021905 0.180129 -0.142940 0.022469 -0.169295 -0.985309 0 0 0
0.479912 0.130839 -0.146831 0.022469 -0.169295 -0.985309 0 0 0
1.064423 0.277467 -0.158695 0.022469 -0.169295 -0.985309 0 0 0
1.171294 0.075715 0.059480 0.004468 -0.937709 -0.347393 0 0 0
1.238351 0.169654 -0.193225 0.004468 -0.937709 -0.347393 0 0 0
1.453315 0.086647 0.033599 0.004468 -0.937709 -0.347393 0 0 0
0.569951 0.274707 0.199778 -0.059021 -0.688192 0.723124 0 0 0
1.171294 0.075715 0.059480 -0.059021 -0.688192 0.723124 0 0 0
1.501077 0.204422 0.208886 -0.059021 -0.688192 0.723124 0 0 0
1.174029 0.412785 -0.408771 -0.977358 0.064631 -0.201480 0 0 0
1.117808 0.473533 -0.116561 -0.977358 0.064631 -0.201480 0 0 0
1.174366 0.514839 -0.377669 -0.977358 0.064631 -0.201480 0 0 0
1.344576 0.456612 -0.363229 0.973830 0.080358 -0.212598 0 0 0
1.399228 0.299087 -0.172431 0.973830 0.080358 -0.212598 0 0 0
1.348749 0.359653 -0.380765 0.973830 0.080358 -0.212598 0 0 0
1.534707 0.543100 -1.096047 0.921039 0.210283 0.327823 0 0 0
1.428584 0.558926 -0.808039 0.921039 0.210283 0.327823 0 0 0
1.442645 0.458136 -0.782893 0.921039 0.210283 0.327823 0 0 0
1.534707 0.543100 -1.096047 0.420749 0.142553 -0.895907 0 0 0
1.445047 0.538875 -1.138826 0.420749 0.142553 -0.895907 0 0 0
1.456362 0.597477 -1.124188 0.420749 0.142553 -0.895907 0 0 0
1.493468 0.505269 -1.121434 -0.414675 -0.811021 -0.412661 0 0 0
1.338072 0.492622 -0.940425 -0.414675 -0.811021 -0.412661 0 0 0
1.445047 0.538875 -1.138826 -0.414675 -0.811021 -0.412661 0 0 0
1.534707 0.543100 -1.096047 0.656286 -0.752486 0.055251 0 0 0
1.375975 0.421638 -0.864816 0.656286 -0.752486 0.055251 0 0 0
1.493468 0.505269 -1.121434 0.656286 -0.752486 0.055251 0 0 0
1.445047 0.538875 -1.138826 -0.878974 0.268199 -0.394303 0 0 0
1.359542 0.578818 -0.921050 -0.878974 0.268199 -0.394303 0 0 0
1.456362 0.597477 -1.124188 -0.878974 0.268199 -0.394303 0 0 0
-2.209050 0.458376 0.069882 0.100003 0.944121 -0.314061 0 0 0
-1.762196 0.368779 -0.057178 0.100003 0.944121 -0.314061 0 0 0
-2.273262 0.406357 -0.106944 0.100003 0.944121 -0.314061 0 0 0
-2.381675 0.400824 0.259530 0.119574 -0.318646 0.940302 0 0 0
-1.701699 0.030647 0.047617 0.119574 -0.318646 0.940302 0 0 0
-1.653593 0.315181 0.137921 0.119574 -0.318646 0.940302 0 0 0
-2.273262 0.406357 -0.106944 -0.181695 -0.002036 -0.983353 0 0 0
-1.796474 0.091603 -0.194389 -0.181695 -0.002036 -0.983353 0 0 0
-2.505304 0.212528 -0.063668 -0.181695 -0.002036 -0.983353 0 0 0
-1.762196 0.368779 -0.057178 0.114181 0.830146 -0.545728 0 0 0
-1.818964 0.293700 -0.183262 0.114181 0.830146 -0.545728 0 0 0
-2.273262 0.406357 -0.106944 0.114181 0.830146 -0.545728 0 0 0
-3.233101 0.600318 0.101208 0.104684 0.960037 -0.259556 0 0 0
-2.427287 0.502052 0.062745 0.104684 0.960037 -0.259556 0 0 0
-2.387460 0.463641 -0.063264 0.104684 0.960037 -0.259556 0 0 0
-2.284512 0.603094 0.091241 -0.591661 0.787985 0.170345 0 0 0
-2.427287 0.502052 0.062745 -0.591661 0.787985 0.170345 0 0 0
-2.313958 0.563595 0.171683 -0.591661 0.787985 0.170345 0 0 0
-2.209050 0.458376 0.069882 0.457211 -0.716605 0.526722 0 0 0
-2.176391 0.605774 0.242067 0.457211 -0.716605 0.526722 0 0 0
-2.317862 0.482109 0.196623 0.457211 -0.716605 0.526722 0 0 0
-2.228197 0.622547 0.288923 -0.835856 0.196885 0.512427 0 0 0
-2.313958 0.563595 0.171683 -0.835856 0.196885 0.512427 0 0 0
-2.317862 0.482109 0.196623 -0.835856 0.196885 0.512427 0 0 0
-2.183768 0.621775 0.132191 0.424348 0.742365 -0.518482 0 0 0
-2.209762 0.703669 0.228172 0.424348 0.742365 -0.518482 0 0 0
-2.078826 0.763985 0.421696 0.424348 0.742365 -0.518482 0 0 0
-2.183768 0.621775 0.132191 0.112047 0.770716 -0.627250 0 0 0
-2.284512 0.603094 0.091241 0.112047 0.770716 -0.627250 0 0 0
-2.209762 0.703669 0.228172 0.112047 0.770716 -0.627250 0 0 0
-2.078826 0.763985 0.421696 0.900490 -0.417626 -0.121271 0 0 0
-2.176391 0.605774 0.242067 0.900490 -0.417626 -0.121271 0 0 0
-2.183768 0.621775 0.132191 0.900490 -0.417626 -0.121271 0 0 0
-2.078826 0.763985 0.421696 0.216143 0.487120 0.846166 0 0 0
-2.144334 0.753220 0.444626 0.216143 0.487120 0.846166 0 0 0
-2.101163 0.708285 0.459467 0.216143 0.487120 0.846166 0 0 0
-2.144334 0.753220 0.444626 -0.634419 -0.388860 0.668057 0 0 0
-2.228197 0.622547 0.288923 -0.634419 -0.388860 0.668057 0 0 0
-2.101163 0.708285 0.459467 -0.634419 -0.388860 0.668057 0 0 0
-2.144334 0.753220 0.444626 -0.557156 0.830126 -0.021625 0 0 0
-2.209762 0.703669 0.228172 -0.557156 0.830126 -0.021625 0 0 0
-2.254207 0.674756 0.263411 -0.557156 0.830126 -0.021625 0 0 0
1.264288 0.402069 -0.716245 0.574535 -0.781437 -0.243446 0 0 0
1.348749 0.359653 -0.380765 0.574535 -0.781437 -0.243446 0 0 0
1.272064 0.308199 -0.396582 0.574535 -0.781437 -0.243446 0 0 0
1.344576 0.456612 -0.363229 0.902153 0.381820 0.200832 0 0 0
1.417022 0.456143 -0.687767 0.902153 0.381820 0.200832 0 0 0
1.382146 0.531485 -0.674343 0.902153 0.381820 0.200832 0 0 0
1.236705 0.511303 -0.708935 -0.947711 0.262733 -0.181149 0 0 0
1.174366 0.514839 -0.377669 -0.947711 0.262733 -0.181149 0 0 0
1.257213 0.593166 -0.697492 -0.947711 0.262733 -0.181149 0 0 0
1.272064 0.308199 -0.396582 -0.565110 -0.596181 -0.570279 0 0 0
1.064423 0.277467 -0.158695 -0.565110 -0.596181 -0.570279 0 0 0
1.174029 0.412785 -0.408771 -0.565110 -0.596181 -0.570279 0 0 0
1.257213 0.593166 -0.697492 0.413382 0.896700 0.158252 0 0 0
1.285746 0.522081 -0.369241 0.413382 0.896700 0.158252 0 0 0
1.382146 0.531485 -0.674343 0.413382 0.896700 0.158252 0 0 0
1.174366 0.514839 -0.377669 -0.075710 0.985159 0.154042 0 0 0
1.324728 0.486894 -0.125051 -0.075710 0.985159 0.154042 0 0 0
1.285746 0.522081 -0.369241 -0.075710 0.985159 0.154042 0 0 0
-2.427287 0.502052 0.062745 -0.462123 0.740463 0.488013 0 0 0
-2.381675 0.400824 0.259530 -0.462123 0.740463 0.488013 0 0 0
-2.317862 0.482109 0.196623 -0.462123 0.740463 0.488013 0 0 0
1.375975 0.421638 -0.864816 0.313184 -0.943160 0.111202 0 0 0
1.417022 0.456143 -0.687767 0.313184 -0.943160 0.111202 0 0 0
1.264288 0.402069 -0.716245 0.313184 -0.943160 0.111202 0 0 0
1.487353 0.543404 -0.753583 0.663475 -0.092667 -0.742438 0 0 0
1.442645 0.458136 -0.782893 0.663475 -0.092667 -0.742438 0 0 0
1.428584 0.558926 -0.808039 0.663475 -0.092667 -0.742438 0 0 0
1.382146 0.531485 -0.674343 -0.129713 0.738869 0.661247 0 0 0
1.481083 0.535566 -0.659495 -0.129713 0.738869 0.661247 0 0 0
1.436680 0.578945 -0.716676 -0.129713 0.738869 0.661247 0 0 0
1.359542 0.578818 -0.921050 0.588190 0.777516 -0.222489 0 0 0
1.436680 0.578945 -0.716676 0.588190 0.777516 -0.222489 0 0 0
1.428584 0.558926 -0.808039 0.588190 0.777516 -0.222489 0 0 0
1.359542 0.578818 -0.921050 -0.867344 0.275244 -0.414674 0 0 0
1.236705 0.511303 -0.708935 -0.867344 0.275244 -0.414674 0 0 0
1.257213 0.593166 -0.697492 -0.867344 0.275244 -0.414674 0 0 0
1.608190 0.537077 -0.696628 0.457206 -0.861476 -0.220956 0 0 0
1.494221 0.487458 -0.738998 0.457206 -0.861476 -0.220956 0 0 0
1.598374 0.546022 -0.751814 0.457206 -0.861476 -0.220956 0 0 0
3.179550 0.036817 0.374145 0.067000 -0.959886 -0.272268 0 0 0
2.686777 0.083294 0.089027 0.067000 -0.959886 -0.272268 0 0 0
3.194048 0.103774 0.141654 0.067000 -0.959886 -0.272268 0 0 0
1.417022 0.456143 -0.687767 0.428517 -0.898355 0.096602 0 0 0
1.442645 0.458136 -0.782893 0.428517 -0.898355 0.096602 0 0 0
1.494221 0.487458 -0.738998 0.428517 -0.898355 0.096602 0 0 0
1.608190 0.537077 -0.696628 0.963602 0.231396 -0.133895 0 0 0
1.598374 0.546022 -0.751814 0.963602 0.231396 -0.133895 0 0 0
1.595185 0.579823 -0.716349 0.963602 0.231396 -0.133895 0 0 0
1.595185 0.579823 -0.716349 -0.002543 0.718561 -0.695460 0 0 0
1.487353 0.543404 -0.753583 -0.002543 0.718561 -0.695460 0 0 0
1.436680 0.578945 -0.716676 -0.002543 0.718561 -0.695460 0 0 0
1.595185 0.579823 -0.716349 0.242949 0.466343 0.850588 0 0 0
1.481083 0.535566 -0.659495 0.242949 0.466343 0.850588 0 0 0
1.608190 0.537077 -0.696628 0.242949 0.466343 0.850588 0 0 0
1.453030 0.390610 -0.065116 0.172745 0.704997 -0.687850 0 0 0
2.439729 0.326685 0.117163 0.172745 0.704997 -0.687850 0 0 0
1.399228 0.299087 -0.172431 0.172745 0.704997 -0.687850 0 0 0
0.649133 0.413478 0.062867 0.044891 0.688513 0.723834 0 0 0
0.569951 0.274707 0.199778 0.044891 0.688513 0.723834 0 0 0
1.501077 0.204422 0.208886 0.044891 0.688513 0.723834 0 0 0
3.127040 0.382113 0.362149 0.112045 0.818466 -0.563524 0 0 0
3.294996 0.347458 0.345210 0.112045 0.818466 -0.563524 0 0 0
2.725223 0.255274 0.098035 0.112045 0.818466 -0.563524 0 0 0
1.511774 0.600088 -1.097749 -0.073774 0.995685 0.056293 0 0 0
1.456362 0.597477 -1.124188 -0.073774 0.995685 0.056293 0 0 0
1.359542 0.578818 -0.921050 -0.073774 0.995685 0.056293 0 0 0
2.307563 0.240778 0.400298 -0.087963 0.701042 0.707674 0 0 0
3.096089 0.247867 0.491289 -0.087963 0.701042 0.707674 0 0 0
3.127040 0.382113 0.362149 -0.087963 0.701042 0.707674 0 0 0
2.019814 0.029358 0.051660 -0.028813 -0.990573 0.133921 0 0 0
2.597401 0.025042 0.144007 -0.028813 -0.990573 0.133921 0 0 0
2.478716 0.051302 0.312709 -0.028813 -0.990573 0.133921 0 0 0
-3.309506 0.396180 0.131299 -0.239845 -0.967690 -0.077783 0 0 0
-2.505304 0.212528 -0.063668 -0.239845 -0.967690 -0.077783 0 0 0
-2.564183 0.205123 0.210006 -0.239845 -0.967690 -0.077783 0 0 0
-3.340000 0.631548 0.181194 -0.875932 0.388735 0.285706 0 0 0
-3.372498 0.524169 0.227662 -0.875932 0.388735 0.285706 0 0 0
-3.281502 0.682355 0.291412 -0.875932 0.388735 0.285706 0 0 0
-3.329537 0.480413 0.332977 -0.868134 0.289486 0.403164 0 0 0
-3.259064 0.623114 0.382264 -0.868134 0.289486 0.403164 0 0 0
-3.281502 0.682355 0.291412 -0.868134 0.289486 0.403164 0 0 0
-3.107550 0.570954 0.388797 0.146176 -0.250592 0.956993 0 0 0
-3.267492 0.373153 0.361432 0.146176 -0.250592 0.956993 0 0 0
-2.564183 0.205123 0.210006 0.146176 -0.250592 0.956993 0 0 0
-3.112305 0.711683 0.239834 0.278072 0.702658 0.654941 0 0 0
-3.107550 0.570954 0.388797 0.278072 0.702658 0.654941 0 0 0
-2.572150 0.469312 0.270527 0.278072 0.702658 0.654941 0 0 0
-0.477038 0.070089 0.142151 0.006987 -0.730928 0.682419 0 0 0
-0.474370 0.159511 0.237902 0.006987 -0.730928 0.682419 0 0 0
-0.999826 0.021479 0.095437 0.006987 -0.730928 0.682419 0 0 0
-1.653593 0.315181 0.137921 -0.068815 -0.291200 0.954184 0 0 0
-1.701699 0.030647 0.047617 -0.068815 -0.291200 0.954184 0 0 0
-0.999826 0.021479 0.095437 -0.068815 -0.291200 0.954184 0 0 0
-3.281502 0.682355 0.291412 -0.281824 0.852855 -0.439561 0 0 0
-3.112305 0.711683 0.239834 -0.281824 0.852855 -0.439561 0 0 0
-3.233101 0.600318 0.101208 -0.281824 0.852855 -0.439561 0 0 0
-3.372498 0.524169 0.227662 -0.903115 0.091799 -0.419472 0 0 0
-3.340000 0.631548 0.181194 -0.903115 0.091799 -0.419472 0 0 0
-3.295651 0.498937 0.056691 -0.903115 0.091799 -0.419472 0 0 0
-3.329537 0.480413 0.332977 -0.846760 -0.515538 0.131218 0 0 0
-3.372498 0.524169 0.227662 -0.846760 -0.515538 0.131218 0 0 0
-3.309506 0.396180 0.131299 -0.846760 -0.515538 0.131218 0 0 0
-3.329537 0.480413 0.332977 -0.278205 0.092693 0.956039 0 0 0
-3.267492 0.373153 0.361432 -0.278205 0.092693 0.956039 0 0 0
-3.107550 0.570954 0.388797 -0.278205 0.092693 0.956039 0 0 0
-3.259064 0.623114 0.382264 0.216730 0.713079 0.666743 0 0 0
-3.107550 0.570954 0.388797 0.216730 0.713079 0.666743 0 0 0
-3.112305 0.711683 0.239834 0.216730 0.713079 0.666743 0 0 0
3.278701 0.234718 0.429080 0.197580 0.566568 0.799977 0 0 0
3.294996 0.347458 0.345210 0.197580 0.566568 0.799977 0 0 0
3.127040 0.382113 0.362149 0.197580 0.566568 0.799977 0 0 0
3.278701 0.234718 0.429080 0.273250 -0.381974 0.882854 0 0 0
3.096089 0.247867 0.491289 0.273250 -0.381974 0.882854 0 0 0
3.179550 0.036817 0.374145 0.273250 -0.381974 0.882854 0 0 0
3.306312 0.095932 0.362110 0.392983 -0.889858 -0.231772 0 0 0
3.179550 0.036817 0.374145 0.392983 -0.889858 -0.231772 0 0 0
3.194048 0.103774 0.141654 0.392983 -0.889858 -0.231772 0 0 0
3.332838 0.154375 0.199449 0.375596 0.027874 -0.926364 0 0 0
3.194048 0.103774 0.141654 0.375596 0.027874 -0.926364 0 0 0
3.169863 0.313184 0.138148 0.375596 0.027874 -0.926364 0 0 0
2.322572 0.414365 0.226103 -0.168984 0.596905 0.784314 0 0 0
1.441723 0.385435 0.058337 -0.168984 0.596905 0.784314 0 0 0
1.501077 0.204422 0.208886 -0.168984 0.596905 0.784314 0 0 0
0.479893 0.048914 0.122930 0.031691 -0.333337 0.942275 0 0 0
0.569951 0.274707 0.199778 0.031691 -0.333337 0.942275 0 0 0
0.054734 0.031320 0.131006 0.031691 -0.333337 0.942275 0 0 0
-0.474370 0.159511 0.237902 -0.038897 -0.729754 0.682602 0 0 0
-0.477038 0.070089 0.142151 -0.038897 -0.729754 0.682602 0 0 0
0.054734 0.031320 0.131006 -0.038897 -0.729754 0.682602 0 0 0
0.479912 0.130839 -0.146831 0.034190 0.143260 -0.989094 0 0 0
-0.457327 0.207318 -0.168151 0.034190 0.143260 -0.989094 0 0 0
-0.447457 0.383122 -0.142347 0.034190 0.143260 -0.989094 0 0 0
0.649133 0.413478 0.062867 0.057558 0.974074 -0.218784 0 0 0
0.778314 0.353682 -0.169371 0.057558 0.974074 -0.218784 0 0 0
0.024079 0.447851 0.051461 0.057558 0.974074 -0.218784 0 0 0
-0.447457 0.383122 -0.142347 -0.083482 0.988385 -0.126989 0 0 0
-0.450802 0.400401 -0.005662 -0.083482 0.988385 -0.126989 0 0 0
0.024079 0.447851 0.051461 -0.083482 0.988385 -0.126989 0 0 0
-2.209762 0.703669 0.228172 -0.802253 0.596984 -0.000530 0 0 0
-2.284512 0.603094 0.091241 -0.802253 0.596984 -0.000530 0 0 0
-2.313958 0.563595 0.171683 -0.802253 0.596984 -0.000530 0 0 0
-2.505304 0.212528 -0.063668 -0.195624 -0.966389 -0.166803 0 0 0
-1.796474 0.091603 -0.194389 -0.195624 -0.966389 -0.166803 0 0 0
-1.701699 0.030647 0.047617 -0.195624 -0.966389 -0.166803 0 0 0
-1.211625 0.465619 0.062771 0.073740 0.989626 -0.123299 0 0 0
-0.450802 0.400401 -0.005662 0.073740 0.989626 -0.123299 0 0 0
-0.447457 0.383122 -0.142347 0.073740 0.989626 -0.123299 0 0 0
2.439729 0.326685 0.117163 -0.050875 0.063578 -0.996679 0 0 0
2.725223 0.255274 0.098035 -0.050875 0.063578 -0.996679 0 0 0
2.686777 0.083294 0.089027 -0.050875 0.063578 -0.996679 0 0 0
0.024079 0.447851 0.051461 0.129632 0.370590 0.919706 0 0 0
-0.464258 0.288596 0.184463 0.129632 0.370590 0.919706 0 0 0
-0.474370 0.159511 0.237902 0.129632 0.370590 0.919706 0 0 0
-1.037183 0.385798 0.156220 -0.053878 0.217761 0.974514 0 0 0
-1.653593 0.315181 0.137921 -0.053878 0.217761 0.974514 0 0 0
-0.474370 0.159511 0.237902 -0.053878 0.217761 0.974514 0 0 0
-0.450802 0.400401 -0.005662 0.118795 0.853539 0.507306 0 0 0
-1.211625 0.465619 0.062771 0.118795 0.853539 0.507306 0 0 0
-1.037183 0.385798 0.156220 0.118795 0.853539 0.507306 0 0 0
2.597401 0.025042 0.144007 0.124129 -0.582115 -0.803576 0 0 0
2.019814 0.029358 0.051660 0.124129 -0.582115 -0.803576 0 0 0
2.104228 0.138107 -0.014079 0.124129 -0.582115 -0.803576 0 0 0
-2.284512 0.603094 0.091241 0.150462 0.705871 -0.692175 0 0 0
-2.183768 0.621775 0.132191 0.150462 0.705871 -0.692175 0 0 0
-2.273262 0.406357 -0.106944 0.150462 0.705871 -0.692175 0 0 0
-2.381675 0.400824 0.259530 0.171820 0.903643 0.392311 0 0 0
-1.653593 0.315181 0.137921 0.171820 0.903643 0.392311 0 0 0
-1.786261 0.364513 0.082395 0.171820 0.903643 0.392311 0 0 0
-1.653593 0.315181 0.137921 -0.097666 0.659326 0.745487 0 0 0
-1.037183 0.385798 0.156220 -0.097666 0.659326 0.745487 0 0 0
-1.211625 0.465619 0.062771 -0.097666 0.659326 0.745487 0 0 0
-2.183768 0.621775 0.132191 0.989090 -0.121003 -0.084021 0 0 0
-2.176391 0.605774 0.242067 0.989090 -0.121003 -0.084021 0 0 0
-2.209050 0.458376 0.069882 0.989090 -0.121003 -0.084021 0 0 0
-2.872154 0.432235 -0.054259 -0.308719 -0.480316 -0.820968 0 0 0
-2.505304 0.212528 -0.063668 -0.308719 -0.480316 -0.820968 0 0 0
-3.309506 0.396180 0.131299 -0.308719 -0.480316 -0.820968 0 0 0
-3.233101 0.600318 0.101208 -0.054345 0.612621 -0.788506 0 0 0
-2.387460 0.463641 -0.063264 -0.054345 0.612621 -0.788506 0 0 0
-2.872154 0.432235 -0.054259 -0.054345 0.612621 -0.788506 0 0 0
-0.999826 0.021479 0.095437 0.025803 -0.841262 -0.540012 0 0 0
-1.701699 0.030647 0.047617 0.025803 -0.841262 -0.540012 0 0 0
-0.457327 0.207318 -0.168151 0.025803 -0.841262 -0.540012 0 0 0
-0.468527 0.093907 -0.060719 0.176557 -0.686042 -0.705815 0 0 0
-0.457327 0.207318 -0.168151 0.176557 -0.686042 -0.705815 0 0 0
0.054734 0.031320 0.131006 0.176557 -0.686042 -0.705815 0 0 0
0.479912 0.130839 -0.146831 0.034057 -0.956294 -0.290417 0 0 0
0.479893 0.048914 0.122930 0.034057 -0.956294 -0.290417 0 0 0
0.054734 0.031320 0.131006 0.034057 -0.956294 -0.290417 0 0 0
3.367400 0.216874 0.339679 0.891145 -0.453379 -0.017566 0 0 0
3.306312 0.095932 0.362110 0.891145 -0.453379 -0.017566 0 0 0
3.332838 0.154375 0.199449 0.891145 -0.453379 -0.017566 0 0 0
2.307563 0.240778 0.400298 -0.099448 -0.813172 0.573465 0 0 0
1.501077 0.204422 0.208886 -0.099448 -0.813172 0.573465 0 0 0
1.453315 0.086647 0.033599 -0.099448 -0.813172 0.573465 0 0 0
1.399228 0.299087 -0.172431 0.610133 -0.698191 -0.374522 0 0 0
1.238351 0.169654 -0.193225 0.610133 -0.698191 -0.374522 0 0 0
1.272064 0.308199 -0.396582 0.610133 -0.698191 -0.374522 0 0 0
1.064423 0.277467 -0.158695 0.007595 -0.110691 -0.993826 0 0 0
0.479912 0.130839 -0.146831 0.007595 -0.110691 -0.993826 0 0 0
0.778314 0.353682 -0.169371 0.007595 -0.110691 -0.993826 0 0 0
1.117808 0.473533 -0.116561 -0.256878 0.891773 -0.372498 0 0 0
0.778314 0.353682 -0.169371 -0.256878 0.891773 -0.372498 0 0 0
0.649133 0.413478 0.062867 -0.256878 0.891773 -0.372498 0 0 0
1.021905 0.180129 -0.142940 0.088753 -0.953074 -0.289436 0 0 0
0.479893 0.048914 0.122930 0.088753 -0.953074 -0.289436 0 0 0
0.479912 0.130839 -0.146831 0.088753 -0.953074 -0.289436 0 0 0
1.171294 0.075715 0.059480 -0.131724 -0.917241 -0.375924 0 0 0
1.021905 0.180129 -0.142940 -0.131724 -0.917241 -0.375924 0 0 0
1.238351 0.169654 -0.193225 -0.131724 -0.917241 -0.375924 0 0 0
0.569951 0.274707 0.199778 0.099074 -0.355796 0.929297 0 0 0
0.479893 0.048914 0.122930 0.099074 -0.355796 0.929297 0 0 0
1.171294 0.075715 0.059480 0.099074 -0.355796 0.929297 0 0 0
1.174029 0.412785 -0.408771 -0.922252 0.302767 -0.240384 0 0 0
1.064423 0.277467 -0.158695 -0.922252 0.302767 -0.240384 0 0 0
1.117808 0.473533 -0.116561 -0.922252 0.302767 -0.240384 0 0 0
1.344576 0.456612 -0.363229 0.931783 0.361632 0.031670 0 0 0
1.324728 0.486894 -0.125051 0.931783 0.361632 0.031670 0 0 0
1.399228 0.299087 -0.172431 0.931783 0.361632 0.031670 0 0 0
1.534707 0.543100 -1.096047 0.880475 0.363410 0.304462 0 0 0
1.511774 0.600088 -1.097749 0.880475 0.363410 0.304462 0 0 0
1.428584 0.558926 -0.808039 0.880475 0.363410 0.304462 0 0 0
1.456362 0.597477 -1.124188 0.420750 0.142556 -0.895906 0 0 0
1.511774 0.600088 -1.097749 0.420750 0.142556 -0.895906 0 0 0
1.534707 0.543100 -1.096047 0.420750 0.142556 -0.895906 0 0 0
1.534707 0.543100 -1.096047 0.420748 0.142559 -0.895906 0 0 0
1.493468 0.505269 -1.121434 0.420748 0.142559 -0.895906 0 0 0
1.445047 0.538875 -1.138826 0.420748 0.142559 -0.895906 0 0 0
1.493468 0.505269 -1.121434 -0.477519 -0.747252 -0.462157 0 0 0
1.375975 0.421638 -0.864816 -0.477519 -0.747252 -0.462157 0 0 0
1.338072 0.492622 -0.940425 -0.477519 -0.747252 -0.462157 0 0 0
1.534707 0.543100 -1.096047 0.542007 -0.837625 -0.067920 0 0 0
1.442645 0.458136 -0.782893 0.542007 -0.837625 -0.067920 0 0 0
1.375975 0.421638 -0.864816 0.542007 -0.837625 -0.067920 0 0 0
1.445047 0.538875 -1.138826 -0.866203 0.304762 -0.395995 0 0 0
1.338072 0.492622 -0.940425 -0.866203 0.304762 -0.395995 0 0 0
1.359542 0.578818 -0.921050 -0.866203 0.304762 -0.395995 0 0 0
-2.209050 0.458376 0.069882 0.216643 0.976246 0.003188 0 0 0
-2.317862 0.482109 0.196623 0.216643 0.976246 0.003188 0 0 0
-1.786261 0.364513 0.082395 0.216643 0.976246 0.003188 0 0 0
-1.786261 0.364513 0.082395 0.214368 0.974470 0.066745 0 0 0
-1.762196 0.368779 -0.057178 0.214368 0.974470 0.066745 0 0 0
-2.209050 0.458376 0.069882 0.214368 0.974470 0.066745 0 0 0
-2.381675 0.400824 0.259530 0.107859 -0.337254 0.935215 0 0 0
-2.564183 0.205123 0.210006 0.107859 -0.337254 0.935215 0 0 0
-1.701699 0.030647 0.047617 0.107859 -0.337254 0.935215 0 0 0
-2.273262 0.406357 -0.106944 -0.156650 0.036906 -0.986964 0 0 0
-1.818964 0.293700 -0.183262 -0.156650 0.036906 -0.986964 0 0 0
-1.796474 0.091603 -0.194389 -0.156650 0.036906 -0.986964 0 0 0
-3.233101 0.600318 0.101208 0.060345 0.751843 -0.656574 0 0 0
-3.112305 0.711683 0.239834 0.060345 0.751843 -0.656574 0 0 0
-2.427287 0.502052 0.062745 0.060345 0.751843 -0.656574 0 0 0
-2.284512 0.603094 0.091241 -0.478454 0.786304 -0.390907 0 0 0
-2.387460 0.463641 -0.063264 -0.478454 0.786304 -0.390907 0 0 0
-2.427287 0.502052 0.062745 -0.478454 0.786304 -0.390907 0 0 0
-2.228197 0.622547 0.288923 -0.782253 -0.088387 0.616659 0 0 0
-2.254207 0.674756 0.263411 -0.782253 -0.088387 0.616659 0 0 0
-2.313958 0.563595 0.171683 -0.782253 -0.088387 0.616659 0 0 0
-2.078826 0.763985 0.421696 0.895809 -0.431484 -0.106523 0 0 0
-2.101163 0.708285 0.459467 0.895809 -0.431484 -0.106523 0 0 0
-2.176391 0.605774 0.242067 0.895809 -0.431484 -0.106523 0 0 0
-2.144334 0.753220 0.444626 -0.819752 -0.136619 0.556185 0 0 0
-2.254207 0.674756 0.263411 -0.819752 -0.136619 0.556185 0 0 0
-2.228197 0.622547 0.288923 -0.819752 -0.136619 0.556185 0 0 0
-2.144334 0.753220 0.444626 -0.213198 0.964420 -0.156336 0 0 0
-2.078826 0.763985 0.421696 -0.213198 0.964420 -0.156336 0 0 0
-2.209762 0.703669 0.228172 -0.213198 0.964420 -0.156336 0 0 0
1.264288 0.402069 -0.716245 0.360472 -0.909788 -0.205781 0 0 0
1.417022 0.456143 -0.687767 0.360472 -0.909788 -0.205781 0 0 0
1.348749 0.359653 -0.380765 0.360472 -0.909788 -0.205781 0 0 0
1.344576 0.456612 -0.363229 0.975977 0.002598 0.217860 0 0 0
1.348749 0.359653 -0.380765 0.975977 0.002598 0.217860 0 0 0
1.417022 0.456143 -0.687767 0.975977 0.002598 0.217860 0 0 0
1.236705 0.511303 -0.708935 -0.980882 0.059688 -0.185224 0 0 0
1.174029 0.412785 -0.408771 -0.980882 0.059688 -0.185224 0 0 0
1.174366 0.514839 -0.377669 -0.980882 0.059688 -0.185224 0 0 0
1.272064 0.308199 -0.396582 -0.518598 -0.664163 -0.538464 0 0 0
1.238351 0.169654 -0.193225 -0.518598 -0.664163 -0.538464 0 0 0
1.064423 0.277467 -0.158695 -0.518598 -0.664163 -0.538464 0 0 0
1.257213 0.593166 -0.697492 -0.079713 0.972780 0.217591 0 0 0
1.174366 0.514839 -0.377669 -0.079713 0.972780 0.217591 0 0 0
1.285746 0.522081 -0.369241 -0.079713 0.972780 0.217591 0 0 0
1.174366 0.514839 -0.377669 -0.057897 0.987920 0.143745 0 0 0
1.117808 0.473533 -0.116561 -0.057897 0.987920 0.143745 0 0 0
1.324728 0.486894 -0.125051 -0.057897 0.987920 0.143745 0 0 0
-2.427287 0.502052 0.062745 0.333269 0.867600 0.369056 0 0 0
-2.572150 0.469312 0.270527 0.333269 0.867600 0.369056 0 0 0
-2.381675 0.400824 0.259530 0.333269 0.867600 0.369056 0 0 0
1.375975 0.421638 -0.864816 0.394033 -0.914973 0.086965 0 0 0
1.442645 0.458136 -0.782893 0.394033 -0.914973 0.086965 0 0 0
1.417022 0.456143 -0.687767 0.394033 -0.914973 0.086965 0 0 0
1.487353 0.543404 -0.753583 0.678765 -0.106111 -0.726649 0 0 0
1.494221 0.487458 -0.738998 0.678765 -0.106111 -0.726649 0 0 0
1.442645 0.458136 -0.782893 0.678765 -0.106111 -0.726649 0 0 0
1.359542 0.578818 -0.921050 -0.862955 0.305421 -0.402526 0 0 0
1.338072 0.492622 -0.940425 -0.862955 0.305421 -0.402526 0 0 0
1.236705 0.511303 -0.708935 -0.862955 0.305421 -0.402526 0 0 0
1.608190 0.537077 -0.696628 0.390767 -0.920111 0.026418 0 0 0
1.417022 0.456143 -0.687767 0.390767 -0.920111 0.026418 0 0 0
1.494221 0.487458 -0.738998 0.390767 -0.920111 0.026418 0 0 0
3.179550 0.036817 0.374145 0.221063 -0.827023 -0.516880 0 0 0
2.597401 0.025042 0.144007 0.221063 -0.827023 -0.516880 0 0 0
2.686777 0.083294 0.089027 0.221063 -0.827023 -0.516880 0 0 0
1.595185 0.579823 -0.716349 -0.006062 0.723598 -0.690195 0 0 0
1.598374 0.546022 -0.751814 -0.006062 0.723598 -0.690195 0 0 0
1.487353 0.543404 -0.753583 -0.006062 0.723598 -0.690195 0 0 0
1.595185 0.579823 -0.716349 -0.005653 0.794560 0.607159 0 0 0
1.436680 0.578945 -0.716676 -0.005653 0.794560 0.607159 0 0 0
1.481083 0.535566 -0.659495 -0.005653 0.794560 0.607159 0 0 0
1.453030 0.390610 -0.065116 0.150091 0.842784 -0.516903 0 0 0
2.322572 0.414365 0.226103 0.150091 0.842784 -0.516903 0 0 0
2.439729 0.326685 0.117163 0.150091 0.842784 -0.516903 0 0 0
3 0 1 2
3 3 4 5
3 6 7 8
3 9 10 11
3 12 13 14
3 15 16 17
3 18 19 20
3 21 22 23
3 24 25 26
3 27 28 29
3 30 31 32
3 33 34 35
3 36 37 38
3 39 40 41
3 42 43 44
3 45 46 47
3 48 49 50
3 51 52 53
3 54 55 56
3 57 58 59
3 60 61 62
3 63 64 65
3 66 67 68
3 69 70 71
3 72 73 74
3 75 76 77
3 78 79 80
3 81 82 83
3 84 85 86
3 87 88 89
3 90 91 92
3 93 94 95
3 96 97 98
3 99 100 101
3 102 103 104
3 105 106 107
3 108 109 110
3 111 112 113
3 114 115 116
3 117 118 119
3 120 121 122
3 123 124 125
3 126 127 128
3 129 130 131
3 132 133 134
3 135 136 137
3 138 139 140
3 141 142 143
3 144 145 146
3 147 148 149
3 150 151 152
3 153 154 155
3 156 157 158
3 159 160 161
3 162 163 164
3 165 166 167
3 168 169 170
3 171 172 173
3 174 175 176
3 177 178 179
3 180 181 182
3 183 184 185
3 186 187 188
3 189 190 191
3 192 193 194
3 195 196 197
3 198 199 200
3 201 202 203
3 204 205 206
3 207 208 209
3 210 211 212
3 213 214 215
3 216 217 218
3 219 220 221
3 222 223 224
3 225 226 227
3 228 229 230
3 231 232 233
3 234 235 236
3 237 238 239
3 240 241 242
3 243 244 245
3 246 247 248
3 249 250 251
3 252 253 254
3 255 256 257
3 258 259 260
3 261 262 263
3 264 265 266
3 267 268 269
3 270 271 272
3 273 274 275
3 276 277 278
3 279 280 281
3 282 283 284
3 285 286 287
3 288 289 290
3 291 292 293
3 294 295 296
3 297 298 299
3 300 301 302
3 303 304 305
3 306 307 308
3 309 310 311
3 312 313 314
3 315 316 317
3 318 319 320
3 321 322 323
3 324 325 326
3 327 328 329
3 330 331 332
3 333 334 335
3 336 337 338
3 339 340 341
3 342 343 344
3 345 346 347
3 348 349 350
3 351 352 353
3 354 355 356
3 357 358 359
3 360 361 362
3 363 364 365
3 366 367 368
3 369 370 371
3 372 373 374
3 375 376 377
3 378 379 380
3 381 382 383
3 384 385 386
3 387 388 389
3 390 391 392
3 393 394 395
3 396 397 398
3 399 400 401
3 402 403 404
3 405 406 407
3 408 409 410
3 411 412 413
3 414 415 416
3 417 418 419
3 420 421 422
3 423 424 425
3 426 427 428
3 429 430 431
3 432 433 434
3 435 436 437
3 438 439 440
3 441 442 443
3 444 445 446
3 447 448 449
3 450 451 452
3 453 454 455
3 456 457 458
3 459 460 461
3 462 463 464
3 465 466 467
3 468 469 470
3 471 472 473
3 474 475 476
3 477 478 479
3 480 481 482
3 483 484 485
3 486 487 488
3 489 490 491
3 492 493 494
3 495 496 497
3 498 499 500
3 501 502 503
3 504 505 506
3 507 508 509
3 510 511 512
3 513 514 515
3 516 517 518
3 519 520 521
3 522 523 524
3 525 526 527
3 528 529 530
3 531 532 533
3 534 535 536
3 537 538 539
3 540 541 542
3 543 544 545
3 546 547 548
3 549 550 551
3 552 553 554
3 555 556 557
3 558 559 560
3 561 562 563
3 564 565 566
3 567 568 569
3 570 571 572
3 573 574 575
3 576 577 578
3 579 580 581
3 582 583 584
3 585 586 587
3 588 589 590
3 591 592 593
3 594 595 596
3 597 598 599
3 600 601 602
3 603 604 605
3 606 607 608
3 609 610 611
3 612 613 614
3 615 616 617
3 618 619 620
3 621 622 623
3 624 625 626
3 627 628 629
3 630 631 632
3 633 634 635
3 636 637 638
3 639 640 641
3 642 643 644
3 645 646 647
3 648 649 650
3 651 652 653
3 654 655 656
3 657 658 659
3 660 661 662
3 663 664 665
