ply
format ascii 1.0
comment Created by Blender 2.77 (sub 0) - www.blender.org, source file: 'Bread.blend'
element vertex 408
property float x
property float y
property float z
property float nx
property float ny
property float nz
property uchar red
property uchar green
property uchar blue
element face 136
property list uchar uint vertex_indices
end_header
-0.555018 0.542909 0.179577 -0.563407 0.826117 0.010197 186 128 74
-0.738109 0.419985 0.022106 -0.563407 0.826117 0.010197 186 128 74
-0.732602 0.422281 0.140427 -0.563407 0.826117 0.010197 186 128 74
-0.541337 0.426553 0.319961 -0.544999 0.618665 0.565889 186 128 74
-0.555018 0.542909 0.179577 -0.544999 0.618665 0.565889 186 128 74
-0.732602 0.422281 0.140427 -0.544999 0.618665 0.565889 186 128 74
-0.541337 0.426553 0.319961 0.144059 0.810381 0.567916 186 128 74
-0.196258 0.271433 0.453774 0.144059 0.810381 0.567916 186 128 74
-0.340319 0.418359 0.280663 0.144059 0.810381 0.567916 186 128 74
-0.333777 0.194053 0.435706 -0.513581 -0.472209 0.716417 186 128 74
-0.604003 0.306317 0.315984 -0.513581 -0.472209 0.716417 186 128 74
-0.621225 0.206292 0.237709 -0.513581 -0.472209 0.716417 186 128 74
-0.097529 -0.126648 -0.107268 -0.396790 -0.789823 -0.467694 186 128 74
-0.432264 0.087135 -0.184308 -0.396790 -0.789823 -0.467694 186 128 74
-0.073841 -0.050556 -0.255865 -0.396790 -0.789823 -0.467694 186 128 74
0.022252 -0.092739 0.419925 -0.039474 -0.656055 0.753680 186 128 74
0.331909 -0.233516 0.313602 -0.039474 -0.656055 0.753680 186 128 74
0.353986 -0.098859 0.431973 -0.039474 -0.656055 0.753680 186 128 74
0.616331 -0.248555 0.302139 -0.031349 -0.909240 0.415089 186 128 74
0.331909 -0.233516 0.313602 -0.031349 -0.909240 0.415089 186 128 74
0.690754 -0.318710 0.154086 -0.031349 -0.909240 0.415089 186 128 74
0.331821 -0.290355 0.041676 -0.140026 -0.969192 0.202629 186 128 74
0.690754 -0.318710 0.154086 -0.140026 -0.969192 0.202629 186 128 74
0.331909 -0.233516 0.313602 -0.140026 -0.969192 0.202629 186 128 74
0.551041 0.000877 -0.188853 0.427825 0.212012 -0.878645 186 128 74
0.635278 -0.124471 -0.178082 0.427825 0.212012 -0.878645 186 128 74
0.272915 0.038167 -0.315279 0.427825 0.212012 -0.878645 186 128 74
0.290576 0.176630 -0.162055 -0.061893 0.744055 -0.665245 186 128 74
0.341921 0.188616 -0.153427 -0.061893 0.744055 -0.665245 186 128 74
0.272915 0.038167 -0.315279 -0.061893 0.744055 -0.665245 186 128 74
0.144197 0.201027 -0.259400 0.188823 0.448909 -0.873399 186 128 74
0.272915 0.038167 -0.315279 0.188823 0.448909 -0.873399 186 128 74
-0.234514 0.277888 -0.301770 0.188823 0.448909 -0.873399 186 128 74
0.335695 -0.102017 -0.294444 0.339569 -0.214863 -0.915711 186 128 74
0.635278 -0.124471 -0.178082 0.339569 -0.214863 -0.915711 186 128 74
0.514628 -0.251817 -0.192942 0.339569 -0.214863 -0.915711 186 128 74
0.790168 -0.192149 0.063179 0.806916 -0.249164 0.535541 186 128 74
0.677442 -0.065900 0.291765 0.806916 -0.249164 0.535541 186 128 74
0.690754 -0.318710 0.154086 0.806916 -0.249164 0.535541 186 128 74
-0.030498 -0.147628 0.256393 -0.269858 -0.883234 0.383503 186 128 74
0.331909 -0.233516 0.313602 -0.269858 -0.883234 0.383503 186 128 74
0.022252 -0.092739 0.419925 -0.269858 -0.883234 0.383503 186 128 74
-0.030498 -0.147628 0.256393 -0.255512 -0.946337 0.197889 186 128 74
0.331821 -0.290355 0.041676 -0.255512 -0.946337 0.197889 186 128 74
0.331909 -0.233516 0.313602 -0.255512 -0.946337 0.197889 186 128 74
-0.097529 -0.126648 -0.107268 -0.360039 -0.932853 0.012546 186 128 74
0.331821 -0.290355 0.041676 -0.360039 -0.932853 0.012546 186 128 74
-0.030498 -0.147628 0.256393 -0.360039 -0.932853 0.012546 186 128 74
-0.586286 0.355931 -0.184533 -0.656833 -0.376916 -0.653073 186 128 74
-0.432264 0.087135 -0.184308 -0.656833 -0.376916 -0.653073 186 128 74
-0.627403 0.167509 -0.034433 -0.656833 -0.376916 -0.653073 186 128 74
-0.738109 0.419985 0.022106 -0.816300 -0.240306 -0.525269 186 128 74
-0.586286 0.355931 -0.184533 -0.816300 -0.240306 -0.525269 186 128 74
-0.627403 0.167509 -0.034433 -0.816300 -0.240306 -0.525269 186 128 74
-0.738109 0.419985 0.022106 -0.896711 -0.439753 0.050273 186 128 74
-0.621225 0.206292 0.237709 -0.896711 -0.439753 0.050273 186 128 74
-0.732602 0.422281 0.140427 -0.896711 -0.439753 0.050273 186 128 74
-0.732602 0.422281 0.140427 -0.850909 -0.224971 0.474703 186 128 74
-0.621225 0.206292 0.237709 -0.850909 -0.224971 0.474703 186 128 74
-0.604003 0.306317 0.315984 -0.850909 -0.224971 0.474703 186 128 74
-0.627403 0.167509 -0.034433 -0.512492 -0.848402 0.132540 186 128 74
-0.030498 -0.147628 0.256393 -0.512492 -0.848402 0.132540 186 128 74
-0.621225 0.206292 0.237709 -0.512492 -0.848402 0.132540 186 128 74
-0.196258 0.271433 0.453774 -0.283836 0.291100 0.913618 186 128 74
-0.604003 0.306317 0.315984 -0.283836 0.291100 0.913618 186 128 74
-0.333777 0.194053 0.435706 -0.283836 0.291100 0.913618 186 128 74
-0.732602 0.422281 0.140427 -0.652752 0.317457 0.687849 186 128 74
-0.604003 0.306317 0.315984 -0.652752 0.317457 0.687849 186 128 74
-0.541337 0.426553 0.319961 -0.652752 0.317457 0.687849 186 128 74
-0.537807 0.549602 -0.077514 -0.175365 0.509423 -0.842458 186 128 74
-0.235856 0.402403 -0.229378 -0.175365 0.509423 -0.842458 186 128 74
-0.586286 0.355931 -0.184533 -0.175365 0.509423 -0.842458 186 128 74
-0.234514 0.277888 -0.301770 -0.174483 0.493501 -0.852064 186 128 74
-0.586286 0.355931 -0.184533 -0.174483 0.493501 -0.852064 186 128 74
-0.235856 0.402403 -0.229378 -0.174483 0.493501 -0.852064 186 128 74
-0.586286 0.355931 -0.184533 -0.349581 -0.201080 -0.915074 186 128 74
-0.234514 0.277888 -0.301770 -0.349581 -0.201080 -0.915074 186 128 74
-0.432264 0.087135 -0.184308 -0.349581 -0.201080 -0.915074 186 128 74
-0.120262 0.283991 -0.236702 0.177427 0.742342 -0.646103 186 128 74
0.031247 0.339954 -0.130797 0.177427 0.742342 -0.646103 186 128 74
0.144197 0.201027 -0.259400 0.177427 0.742342 -0.646103 186 128 74
-0.627403 0.167509 -0.034433 -0.481005 -0.875889 0.038129 186 128 74
-0.097529 -0.126648 -0.107268 -0.481005 -0.875889 0.038129 186 128 74
-0.030498 -0.147628 0.256393 -0.481005 -0.875889 0.038129 186 128 74
-0.621225 0.206292 0.237709 -0.477407 -0.774977 0.414116 186 128 74
-0.030498 -0.147628 0.256393 -0.477407 -0.774977 0.414116 186 128 74
0.022252 -0.092739 0.419925 -0.477407 -0.774977 0.414116 186 128 74
0.197944 0.324793 0.066996 0.926228 -0.003651 0.376945 231 171 122
0.217996 0.252079 0.017020 0.926228 -0.003651 0.376945 231 171 122
0.290576 0.176630 -0.162055 0.926228 -0.003651 0.376945 231 171 122
0.635278 -0.124471 -0.178082 0.847503 0.059269 -0.527472 186 128 74
0.727727 -0.049594 -0.021128 0.847503 0.059269 -0.527472 186 128 74
0.790168 -0.192149 0.063179 0.847503 0.059269 -0.527472 186 128 74
0.353986 -0.098859 0.431973 0.395268 0.026808 0.918174 186 128 74
0.677442 -0.065900 0.291765 0.395268 0.026808 0.918174 186 128 74
0.418440 0.098255 0.398471 0.395268 0.026808 0.918174 186 128 74
0.331821 -0.290355 0.041676 -0.110906 -0.963252 -0.244635 186 128 74
0.514628 -0.251817 -0.192942 -0.110906 -0.963252 -0.244635 186 128 74
0.672558 -0.310933 -0.031771 -0.110906 -0.963252 -0.244635 186 128 74
0.635278 -0.124471 -0.178082 0.553974 -0.442561 -0.705162 186 128 74
0.672558 -0.310933 -0.031771 0.553974 -0.442561 -0.705162 186 128 74
0.514628 -0.251817 -0.192942 0.553974 -0.442561 -0.705162 186 128 74
0.790168 -0.192149 0.063179 0.746038 -0.658264 -0.100583 186 128 74
0.690754 -0.318710 0.154086 0.746038 -0.658264 -0.100583 186 128 74
0.672558 -0.310933 -0.031771 0.746038 -0.658264 -0.100583 186 128 74
-0.077345 0.439644 0.208738 0.098230 0.797567 0.595178 186 128 74
-0.340319 0.418359 0.280663 0.098230 0.797567 0.595178 186 128 74
-0.196258 0.271433 0.453774 0.098230 0.797567 0.595178 186 128 74
0.303980 0.292115 0.030696 -0.567379 0.800558 -0.192843 231 171 122
0.210937 0.260777 0.174347 -0.567379 0.800558 -0.192843 231 171 122
0.239634 0.299889 0.252285 -0.567379 0.800558 -0.192843 231 171 122
0.469280 0.153123 0.017009 0.642312 0.746992 0.171575 186 128 74
0.303980 0.292115 0.030696 0.642312 0.746992 0.171575 186 128 74
0.371943 0.165659 0.326820 0.642312 0.746992 0.171575 186 128 74
0.353986 -0.098859 0.431973 0.403459 -0.083232 0.911204 186 128 74
0.616331 -0.248555 0.302139 0.403459 -0.083232 0.911204 186 128 74
0.677442 -0.065900 0.291765 0.403459 -0.083232 0.911204 186 128 74
-0.555018 0.542909 0.179577 -0.548449 0.836050 -0.014948 186 128 74
-0.537807 0.549602 -0.077514 -0.548449 0.836050 -0.014948 186 128 74
-0.738109 0.419985 0.022106 -0.548449 0.836050 -0.014948 186 128 74
-0.555018 0.542909 0.179577 0.152865 0.768138 0.621769 186 128 74
-0.541337 0.426553 0.319961 0.152865 0.768138 0.621769 186 128 74
-0.340319 0.418359 0.280663 0.152865 0.768138 0.621769 186 128 74
0.036362 0.181692 0.474140 0.213408 0.095471 0.972287 186 128 74
0.353986 -0.098859 0.431973 0.213408 0.095471 0.972287 186 128 74
0.418440 0.098255 0.398471 0.213408 0.095471 0.972287 186 128 74
0.353986 -0.098859 0.431973 -0.004605 -0.659795 0.751431 186 128 74
0.331909 -0.233516 0.313602 -0.004605 -0.659795 0.751431 186 128 74
0.616331 -0.248555 0.302139 -0.004605 -0.659795 0.751431 186 128 74
0.331821 -0.290355 0.041676 -0.067781 -0.997083 -0.035087 186 128 74
0.672558 -0.310933 -0.031771 -0.067781 -0.997083 -0.035087 186 128 74
0.690754 -0.318710 0.154086 -0.067781 -0.997083 -0.035087 186 128 74
0.677442 -0.065900 0.291765 0.700384 0.698055 0.148936 186 128 74
0.727727 -0.049594 -0.021128 0.700384 0.698055 0.148936 186 128 74
0.536596 0.111385 0.123178 0.700384 0.698055 0.148936 186 128 74
0.335695 -0.102017 -0.294444 -0.116437 -0.196830 -0.973499 186 128 74
-0.073841 -0.050556 -0.255865 -0.116437 -0.196830 -0.973499 186 128 74
0.272915 0.038167 -0.315279 -0.116437 -0.196830 -0.973499 186 128 74
-0.073841 -0.050556 -0.255865 -0.117370 -0.193552 -0.974044 186 128 74
-0.234514 0.277888 -0.301770 -0.117370 -0.193552 -0.974044 186 128 74
0.272915 0.038167 -0.315279 -0.117370 -0.193552 -0.974044 186 128 74
-0.235856 0.402403 -0.229378 0.420942 0.459305 -0.782207 186 128 74
-0.120262 0.283991 -0.236702 0.420942 0.459305 -0.782207 186 128 74
-0.234514 0.277888 -0.301770 0.420942 0.459305 -0.782207 186 128 74
0.335695 -0.102017 -0.294444 0.363541 0.024402 -0.931258 186 128 74
0.272915 0.038167 -0.315279 0.363541 0.024402 -0.931258 186 128 74
0.635278 -0.124471 -0.178082 0.363541 0.024402 -0.931258 186 128 74
0.727727 -0.049594 -0.021128 0.864395 0.475423 0.163692 186 128 74
0.677442 -0.065900 0.291765 0.864395 0.475423 0.163692 186 128 74
0.790168 -0.192149 0.063179 0.864395 0.475423 0.163692 186 128 74
-0.097529 -0.126648 -0.107268 -0.233341 -0.913985 -0.331940 186 128 74
0.514628 -0.251817 -0.192942 -0.233341 -0.913985 -0.331940 186 128 74
0.331821 -0.290355 0.041676 -0.233341 -0.913985 -0.331940 186 128 74
-0.097529 -0.126648 -0.107268 -0.239551 -0.848152 -0.472498 186 128 74
-0.073841 -0.050556 -0.255865 -0.239551 -0.848152 -0.472498 186 128 74
0.514628 -0.251817 -0.192942 -0.239551 -0.848152 -0.472498 186 128 74
-0.738109 0.419985 0.022106 -0.906220 -0.415219 0.079745 186 128 74
-0.627403 0.167509 -0.034433 -0.906220 -0.415219 0.079745 186 128 74
-0.621225 0.206292 0.237709 -0.906220 -0.415219 0.079745 186 128 74
0.022252 -0.092739 0.419925 -0.465647 -0.613176 0.638113 186 128 74
-0.333777 0.194053 0.435706 -0.465647 -0.613176 0.638113 186 128 74
-0.621225 0.206292 0.237709 -0.465647 -0.613176 0.638113 186 128 74
-0.333777 0.194053 0.435706 -0.107641 -0.187353 0.976377 186 128 74
0.022252 -0.092739 0.419925 -0.107641 -0.187353 0.976377 186 128 74
0.036362 0.181692 0.474140 -0.107641 -0.187353 0.976377 186 128 74
-0.196258 0.271433 0.453774 -0.104690 -0.045914 0.993445 186 128 74
-0.333777 0.194053 0.435706 -0.104690 -0.045914 0.993445 186 128 74
0.036362 0.181692 0.474140 -0.104690 -0.045914 0.993445 186 128 74
-0.196258 0.271433 0.453774 -0.307536 0.129101 0.942738 186 128 74
-0.541337 0.426553 0.319961 -0.307536 0.129101 0.942738 186 128 74
-0.604003 0.306317 0.315984 -0.307536 0.129101 0.942738 186 128 74
-0.537807 0.549602 -0.077514 -0.621605 0.492290 -0.609310 186 128 74
-0.586286 0.355931 -0.184533 -0.621605 0.492290 -0.609310 186 128 74
-0.738109 0.419985 0.022106 -0.621605 0.492290 -0.609310 186 128 74
-0.432264 0.087135 -0.184308 -0.286845 -0.268832 -0.919483 186 128 74
-0.234514 0.277888 -0.301770 -0.286845 -0.268832 -0.919483 186 128 74
-0.073841 -0.050556 -0.255865 -0.286845 -0.268832 -0.919483 186 128 74
-0.627403 0.167509 -0.034433 -0.496384 -0.846531 -0.192323 186 128 74
-0.432264 0.087135 -0.184308 -0.496384 -0.846531 -0.192323 186 128 74
-0.097529 -0.126648 -0.107268 -0.496384 -0.846531 -0.192323 186 128 74
0.635278 -0.124471 -0.178082 0.686824 0.409996 -0.600147 186 128 74
0.551041 0.000877 -0.188853 0.686824 0.409996 -0.600147 186 128 74
0.727727 -0.049594 -0.021128 0.686824 0.409996 -0.600147 186 128 74
-0.073841 -0.050556 -0.255865 -0.152735 -0.672881 -0.723812 186 128 74
0.335695 -0.102017 -0.294444 -0.152735 -0.672881 -0.723812 186 128 74
0.514628 -0.251817 -0.192942 -0.152735 -0.672881 -0.723812 186 128 74
0.635278 -0.124471 -0.178082 0.763337 -0.297377 -0.573483 186 128 74
0.790168 -0.192149 0.063179 0.763337 -0.297377 -0.573483 186 128 74
0.672558 -0.310933 -0.031771 0.763337 -0.297377 -0.573483 186 128 74
0.245671 0.303452 -0.131177 -0.000958 0.781692 -0.623664 186 128 74
0.144197 0.201027 -0.259400 -0.000958 0.781692 -0.623664 186 128 74
0.117866 0.357257 -0.063543 -0.000958 0.781692 -0.623664 186 128 74
-0.077345 0.439644 0.208738 0.031341 0.921432 0.387273 186 128 74
-0.190915 0.485344 0.109195 0.031341 0.921432 0.387273 186 128 74
-0.340319 0.418359 0.280663 0.031341 0.921432 0.387273 186 128 74
-0.009027 0.396066 0.273264 -0.684376 0.690973 -0.232778 231 171 122
-0.010640 0.362451 0.178225 -0.684376 0.690973 -0.232778 231 171 122
-0.196258 0.271433 0.453774 -0.684376 0.690973 -0.232778 231 171 122
0.059046 0.304817 -0.089075 0.310777 0.942592 -0.122218 231 171 122
-0.047356 0.370869 0.149779 0.310777 0.942592 -0.122218 231 171 122
-0.010640 0.362451 0.178225 0.310777 0.942592 -0.122218 231 171 122
-0.235856 0.402403 -0.229378 0.608320 0.624163 -0.490273 186 128 74
-0.229793 0.492464 -0.107198 0.608320 0.624163 -0.490273 186 128 74
-0.120262 0.283991 -0.236702 0.608320 0.624163 -0.490273 186 128 74
0.239634 0.299889 0.252285 0.321180 0.681637 0.657430 186 128 74
0.036362 0.181692 0.474140 0.321180 0.681637 0.657430 186 128 74
0.371943 0.165659 0.326820 0.321180 0.681637 0.657430 186 128 74
0.144197 0.201027 -0.259400 0.506871 0.609695 -0.609388 186 128 74
0.290576 0.176630 -0.162055 0.506871 0.609695 -0.609388 186 128 74
0.272915 0.038167 -0.315279 0.506871 0.609695 -0.609388 186 128 74
0.197944 0.324793 0.066996 0.938488 0.284736 0.195358 186 128 74
0.290576 0.176630 -0.162055 0.938488 0.284736 0.195358 186 128 74
0.245671 0.303452 -0.131177 0.938488 0.284736 0.195358 186 128 74
0.197944 0.324793 0.066996 0.558803 0.775975 0.292578 186 128 74
-0.009027 0.396066 0.273264 0.558803 0.775975 0.292578 186 128 74
0.108318 0.317623 0.257190 0.558803 0.775975 0.292578 186 128 74
-0.009027 0.396066 0.273264 0.508585 0.643608 0.571935 186 128 74
0.036362 0.181692 0.474140 0.508585 0.643608 0.571935 186 128 74
0.108318 0.317623 0.257190 0.508585 0.643608 0.571935 186 128 74
0.303980 0.292115 0.030696 -0.675244 0.678475 -0.289340 231 171 122
0.267696 0.219453 -0.055014 -0.675244 0.678475 -0.289340 231 171 122
0.210937 0.260777 0.174347 -0.675244 0.678475 -0.289340 231 171 122
0.117866 0.357257 -0.063543 0.385007 0.922890 -0.006658 186 128 74
0.197944 0.324793 0.066996 0.385007 0.922890 -0.006658 186 128 74
0.245671 0.303452 -0.131177 0.385007 0.922890 -0.006658 186 128 74
-0.009027 0.396066 0.273264 0.344884 0.938392 0.021810 186 128 74
0.197944 0.324793 0.066996 0.344884 0.938392 0.021810 186 128 74
0.117866 0.357257 -0.063543 0.344884 0.938392 0.021810 186 128 74
0.210937 0.260777 0.174347 0.524576 0.851039 -0.023516 231 171 122
0.267696 0.219453 -0.055014 0.524576 0.851039 -0.023516 231 171 122
0.217996 0.252079 0.017020 0.524576 0.851039 -0.023516 231 171 122
0.371943 0.165659 0.326820 0.280887 0.783288 0.554583 186 128 74
0.036362 0.181692 0.474140 0.280887 0.783288 0.554583 186 128 74
0.418440 0.098255 0.398471 0.280887 0.783288 0.554583 186 128 74
-0.319486 0.498241 0.132202 0.839315 0.420807 0.344197 231 171 122
-0.340319 0.418359 0.280663 0.839315 0.420807 0.344197 231 171 122
-0.250936 0.469115 0.000653 0.839315 0.420807 0.344197 231 171 122
-0.229395 0.455031 0.104926 0.474722 0.879890 0.020777 231 171 122
-0.133334 0.407814 -0.090357 0.474722 0.879890 0.020777 231 171 122
-0.250936 0.469115 0.000653 0.474722 0.879890 0.020777 231 171 122
-0.229395 0.455031 0.104926 -0.086519 0.984758 0.150884 231 171 122
-0.250936 0.469115 0.000653 -0.086519 0.984758 0.150884 231 171 122
-0.340319 0.418359 0.280663 -0.086519 0.984758 0.150884 231 171 122
-0.133334 0.407814 -0.090357 -0.108176 0.754139 -0.647744 231 171 122
-0.120262 0.283991 -0.236702 -0.108176 0.754139 -0.647744 231 171 122
-0.250936 0.469115 0.000653 -0.108176 0.754139 -0.647744 231 171 122
-0.234514 0.277888 -0.301770 0.225760 0.849905 -0.476123 186 128 74
-0.120262 0.283991 -0.236702 0.225760 0.849905 -0.476123 186 128 74
0.144197 0.201027 -0.259400 0.225760 0.849905 -0.476123 186 128 74
0.677442 -0.065900 0.291765 0.596722 0.740437 0.309317 186 128 74
0.371943 0.165659 0.326820 0.596722 0.740437 0.309317 186 128 74
0.418440 0.098255 0.398471 0.596722 0.740437 0.309317 186 128 74
0.341921 0.188616 -0.153427 0.400310 0.579807 -0.709631 186 128 74
0.551041 0.000877 -0.188853 0.400310 0.579807 -0.709631 186 128 74
0.272915 0.038167 -0.315279 0.400310 0.579807 -0.709631 186 128 74
0.239634 0.299889 0.252285 0.655317 0.737240 0.164426 186 128 74
0.371943 0.165659 0.326820 0.655317 0.737240 0.164426 186 128 74
0.303980 0.292115 0.030696 0.655317 0.737240 0.164426 186 128 74
0.458147 0.109663 0.057969 0.574173 0.801685 0.166211 231 171 122
0.376747 0.120852 0.285195 0.574173 0.801685 0.166211 231 171 122
0.515428 0.069710 0.052797 0.574173 0.801685 0.166211 231 171 122
0.458147 0.109663 0.057969 0.521792 0.789829 -0.322340 231 171 122
0.515428 0.069710 0.052797 0.521792 0.789829 -0.322340 231 171 122
0.513915 0.001767 -0.116132 0.521792 0.789829 -0.322340 231 171 122
-0.537807 0.549602 -0.077514 0.185800 0.981853 0.038000 186 128 74
-0.555018 0.542909 0.179577 0.185800 0.981853 0.038000 186 128 74
-0.229793 0.492464 -0.107198 0.185800 0.981853 0.038000 186 128 74
-0.555018 0.542909 0.179577 0.256188 0.835770 0.485650 186 128 74
-0.340319 0.418359 0.280663 0.256188 0.835770 0.485650 186 128 74
-0.319486 0.498241 0.132202 0.256188 0.835770 0.485650 186 128 74
-0.537807 0.549602 -0.077514 0.091073 0.799439 -0.593804 186 128 74
-0.229793 0.492464 -0.107198 0.091073 0.799439 -0.593804 186 128 74
-0.235856 0.402403 -0.229378 0.091073 0.799439 -0.593804 186 128 74
-0.555018 0.542909 0.179577 0.195738 0.979396 0.049703 186 128 74
-0.319486 0.498241 0.132202 0.195738 0.979396 0.049703 186 128 74
-0.229793 0.492464 -0.107198 0.195738 0.979396 0.049703 186 128 74
0.727727 -0.049594 -0.021128 0.639134 0.769012 -0.011344 186 128 74
0.584766 0.068967 -0.038437 0.639134 0.769012 -0.011344 186 128 74
0.536596 0.111385 0.123178 0.639134 0.769012 -0.011344 186 128 74
0.677442 -0.065900 0.291765 0.815573 -0.243044 0.525139 186 128 74
0.616331 -0.248555 0.302139 0.815573 -0.243044 0.525139 186 128 74
0.690754 -0.318710 0.154086 0.815573 -0.243044 0.525139 186 128 74
0.036362 0.181692 0.474140 -0.039152 -0.191722 0.980668 186 128 74
0.022252 -0.092739 0.419925 -0.039152 -0.191722 0.980668 186 128 74
0.353986 -0.098859 0.431973 -0.039152 -0.191722 0.980668 186 128 74
0.513915 0.001767 -0.116132 0.956819 0.027627 0.289367 231 171 122
0.469280 0.153123 0.017009 0.956819 0.027627 0.289367 231 171 122
0.458147 0.109663 0.057969 0.956819 0.027627 0.289367 231 171 122
0.376747 0.120852 0.285195 -0.351579 0.848077 -0.396431 231 171 122
0.536596 0.111385 0.123178 -0.351579 0.848077 -0.396431 231 171 122
0.515428 0.069710 0.052797 -0.351579 0.848077 -0.396431 231 171 122
0.536596 0.111385 0.123178 0.599513 0.747732 0.285449 186 128 74
0.371943 0.165659 0.326820 0.599513 0.747732 0.285449 186 128 74
0.677442 -0.065900 0.291765 0.599513 0.747732 0.285449 186 128 74
0.458147 0.109663 0.057969 0.915662 -0.216464 0.338682 231 171 122
0.371943 0.165659 0.326820 0.915662 -0.216464 0.338682 231 171 122
0.376747 0.120852 0.285195 0.915662 -0.216464 0.338682 231 171 122
0.341921 0.188616 -0.153427 -0.145592 0.907440 -0.394152 231 171 122
0.290576 0.176630 -0.162055 -0.145592 0.907440 -0.394152 231 171 122
0.267696 0.219453 -0.055014 -0.145592 0.907440 -0.394152 231 171 122
0.059046 0.304817 -0.089075 -0.755143 0.319690 -0.572327 231 171 122
0.144197 0.201027 -0.259400 -0.755143 0.319690 -0.572327 231 171 122
0.094121 0.211692 -0.187371 -0.755143 0.319690 -0.572327 231 171 122
0.290576 0.176630 -0.162055 0.103332 0.930908 -0.350333 231 171 122
0.217996 0.252079 0.017020 0.103332 0.930908 -0.350333 231 171 122
0.267696 0.219453 -0.055014 0.103332 0.930908 -0.350333 231 171 122
-0.047356 0.370869 0.149779 0.896531 0.011307 0.442836 231 171 122
-0.077345 0.439644 0.208738 0.896531 0.011307 0.442836 231 171 122
-0.196258 0.271433 0.453774 0.896531 0.011307 0.442836 231 171 122
-0.190915 0.485344 0.109195 -0.590514 0.779191 -0.210130 231 171 122
-0.229395 0.455031 0.104926 -0.590514 0.779191 -0.210130 231 171 122
-0.340319 0.418359 0.280663 -0.590514 0.779191 -0.210130 231 171 122
-0.009027 0.396066 0.273264 0.206374 0.691954 0.691816 186 128 74
-0.196258 0.271433 0.453774 0.206374 0.691954 0.691816 186 128 74
0.036362 0.181692 0.474140 0.206374 0.691954 0.691816 186 128 74
0.094121 0.211692 -0.187371 0.857172 0.490063 -0.158413 231 171 122
0.031247 0.339954 -0.130797 0.857172 0.490063 -0.158413 231 171 122
0.059046 0.304817 -0.089075 0.857172 0.490063 -0.158413 231 171 122
-0.047356 0.370869 0.149779 0.948094 0.205096 0.243009 231 171 122
0.031247 0.339954 -0.130797 0.948094 0.205096 0.243009 231 171 122
-0.077345 0.439644 0.208738 0.948094 0.205096 0.243009 231 171 122
-0.010640 0.362451 0.178225 -0.553729 0.772473 -0.310917 231 171 122
0.117866 0.357257 -0.063543 -0.553729 0.772473 -0.310917 231 171 122
0.059046 0.304817 -0.089075 -0.553729 0.772473 -0.310917 231 171 122
0.036362 0.181692 0.474140 -0.619436 0.769015 -0.157846 231 171 122
0.239634 0.299889 0.252285 -0.619436 0.769015 -0.157846 231 171 122
0.210937 0.260777 0.174347 -0.619436 0.769015 -0.157846 231 171 122
-0.190915 0.485344 0.109195 0.311264 0.912692 -0.264781 186 128 74
0.031247 0.339954 -0.130797 0.311264 0.912692 -0.264781 186 128 74
-0.133334 0.407814 -0.090357 0.311264 0.912692 -0.264781 186 128 74
0.108318 0.317623 0.257190 0.916794 0.121746 0.380351 231 171 122
0.036362 0.181692 0.474140 0.916794 0.121746 0.380351 231 171 122
0.134334 0.285955 0.204616 0.916794 0.121746 0.380351 231 171 122
0.144197 0.201027 -0.259400 0.555620 0.377143 -0.740978 186 128 74
0.245671 0.303452 -0.131177 0.555620 0.377143 -0.740978 186 128 74
0.290576 0.176630 -0.162055 0.555620 0.377143 -0.740978 186 128 74
0.197944 0.324793 0.066996 0.903605 0.033357 0.427067 231 171 122
0.108318 0.317623 0.257190 0.903605 0.033357 0.427067 231 171 122
0.134334 0.285955 0.204616 0.903605 0.033357 0.427067 231 171 122
0.134334 0.285955 0.204616 0.297937 0.953773 -0.039364 231 171 122
0.210937 0.260777 0.174347 0.297937 0.953773 -0.039364 231 171 122
0.217996 0.252079 0.017020 0.297937 0.953773 -0.039364 231 171 122
0.303980 0.292115 0.030696 -0.354842 0.781860 -0.512623 231 171 122
0.341921 0.188616 -0.153427 -0.354842 0.781860 -0.512623 231 171 122
0.267696 0.219453 -0.055014 -0.354842 0.781860 -0.512623 231 171 122
0.197944 0.324793 0.066996 0.910669 -0.031965 0.411898 231 171 122
0.134334 0.285955 0.204616 0.910669 -0.031965 0.411898 231 171 122
0.217996 0.252079 0.017020 0.910669 -0.031965 0.411898 231 171 122
-0.120262 0.283991 -0.236702 0.912440 0.324614 0.249156 231 171 122
-0.229793 0.492464 -0.107198 0.912440 0.324614 0.249156 231 171 122
-0.250936 0.469115 0.000653 0.912440 0.324614 0.249156 231 171 122
0.469280 0.153123 0.017009 0.600730 0.743394 -0.294088 186 128 74
0.341921 0.188616 -0.153427 0.600730 0.743394 -0.294088 186 128 74
0.303980 0.292115 0.030696 0.600730 0.743394 -0.294088 186 128 74
-0.229793 0.492464 -0.107198 0.771914 0.572988 0.275379 231 171 122
-0.319486 0.498241 0.132202 0.771914 0.572988 0.275379 231 171 122
-0.250936 0.469115 0.000653 0.771914 0.572988 0.275379 231 171 122
-0.190915 0.485344 0.109195 -0.526714 0.729957 -0.435586 231 171 122
-0.133334 0.407814 -0.090357 -0.526714 0.729957 -0.435586 231 171 122
-0.229395 0.455031 0.104926 -0.526714 0.729957 -0.435586 231 171 122
0.584766 0.068967 -0.038437 0.604949 0.665656 -0.436965 186 128 74
0.727727 -0.049594 -0.021128 0.604949 0.665656 -0.436965 186 128 74
0.551041 0.000877 -0.188853 0.604949 0.665656 -0.436965 186 128 74
0.536596 0.111385 0.123178 -0.451770 0.820601 -0.350027 231 171 122
0.584766 0.068967 -0.038437 -0.451770 0.820601 -0.350027 231 171 122
0.515428 0.069710 0.052797 -0.451770 0.820601 -0.350027 231 171 122
0.513915 0.001767 -0.116132 -0.496002 0.827424 -0.263348 231 171 122
0.584766 0.068967 -0.038437 -0.496002 0.827424 -0.263348 231 171 122
0.551041 0.000877 -0.188853 -0.496002 0.827424 -0.263348 231 171 122
0.134334 0.285955 0.204616 0.435684 0.774807 0.458098 231 171 122
0.036362 0.181692 0.474140 0.435684 0.774807 0.458098 231 171 122
0.210937 0.260777 0.174347 0.435684 0.774807 0.458098 231 171 122
-0.010640 0.362451 0.178225 -0.016687 0.952701 0.303451 231 171 122
-0.047356 0.370869 0.149779 -0.016687 0.952701 0.303451 231 171 122
-0.196258 0.271433 0.453774 -0.016687 0.952701 0.303451 231 171 122
-0.120262 0.283991 -0.236702 0.158983 0.760652 -0.629391 186 128 74
-0.133334 0.407814 -0.090357 0.158983 0.760652 -0.629391 186 128 74
0.031247 0.339954 -0.130797 0.158983 0.760652 -0.629391 186 128 74
0.513915 0.001767 -0.116132 0.881521 -0.137388 0.451714 231 171 122
0.551041 0.000877 -0.188853 0.881521 -0.137388 0.451714 231 171 122
0.469280 0.153123 0.017009 0.881521 -0.137388 0.451714 231 171 122
0.376747 0.120852 0.285195 -0.596869 0.510802 -0.618732 231 171 122
0.371943 0.165659 0.326820 -0.596869 0.510802 -0.618732 231 171 122
0.536596 0.111385 0.123178 -0.596869 0.510802 -0.618732 231 171 122
0.458147 0.109663 0.057969 0.953803 0.036707 0.298181 231 171 122
0.469280 0.153123 0.017009 0.953803 0.036707 0.298181 231 171 122
0.371943 0.165659 0.326820 0.953803 0.036707 0.298181 231 171 122
0.059046 0.304817 -0.089075 -0.362777 0.704113 -0.610424 231 171 122
0.117866 0.357257 -0.063543 -0.362777 0.704113 -0.610424 231 171 122
0.144197 0.201027 -0.259400 -0.362777 0.704113 -0.610424 231 171 122
0.094121 0.211692 -0.187371 0.821353 0.161294 0.547141 231 171 122
0.144197 0.201027 -0.259400 0.821353 0.161294 0.547141 231 171 122
0.031247 0.339954 -0.130797 0.821353 0.161294 0.547141 231 171 122
-0.047356 0.370869 0.149779 0.704163 0.699796 0.120164 231 171 122
0.059046 0.304817 -0.089075 0.704163 0.699796 0.120164 231 171 122
0.031247 0.339954 -0.130797 0.704163 0.699796 0.120164 231 171 122
-0.010640 0.362451 0.178225 -0.497058 0.820674 -0.281830 231 171 122
-0.009027 0.396066 0.273264 -0.497058 0.820674 -0.281830 231 171 122
0.117866 0.357257 -0.063543 -0.497058 0.820674 -0.281830 231 171 122
-0.190915 0.485344 0.109195 0.455081 0.883154 -0.113754 186 128 74
-0.077345 0.439644 0.208738 0.455081 0.883154 -0.113754 186 128 74
0.031247 0.339954 -0.130797 0.455081 0.883154 -0.113754 186 128 74
0.469280 0.153123 0.017009 0.608159 0.734318 -0.301529 186 128 74
0.551041 0.000877 -0.188853 0.608159 0.734318 -0.301529 186 128 74
0.341921 0.188616 -0.153427 0.608159 0.734318 -0.301529 186 128 74
0.513915 0.001767 -0.116132 -0.429936 0.838974 -0.333583 231 171 122
0.515428 0.069710 0.052797 -0.429936 0.838974 -0.333583 231 171 122
0.584766 0.068967 -0.038437 -0.429936 0.838974 -0.333583 231 171 122
3 0 1 2
3 3 4 5
3 6 7 8
3 9 10 11
3 12 13 14
3 15 16 17
3 18 19 20
3 21 22 23
3 24 25 26
3 27 28 29
3 30 31 32
3 33 34 35
3 36 37 38
3 39 40 41
3 42 43 44
3 45 46 47
3 48 49 50
3 51 52 53
3 54 55 56
3 57 58 59
3 60 61 62
3 63 64 65
3 66 67 68
3 69 70 71
3 72 73 74
3 75 76 77
3 78 79 80
3 81 82 83
3 84 85 86
3 87 88 89
3 90 91 92
3 93 94 95
3 96 97 98
3 99 100 101
3 102 103 104
3 105 106 107
3 108 109 110
3 111 112 113
3 114 115 116
3 117 118 119
3 120 121 122
3 123 124 125
3 126 127 128
3 129 130 131
3 132 133 134
3 135 136 137
3 138 139 140
3 141 142 143
3 144 145 146
3 147 148 149
3 150 151 152
3 153 154 155
3 156 157 158
3 159 160 161
3 162 163 164
3 165 166 167
3 168 169 170
3 171 172 173
3 174 175 176
3 177 178 179
3 180 181 182
3 183 184 185
3 186 187 188
3 189 190 191
3 192 193 194
3 195 196 197
3 198 199 200
3 201 202 203
3 204 205 206
3 207 208 209
3 210 211 212
3 213 214 215
3 216 217 218
3 219 220 221
3 222 223 224
3 225 226 227
3 228 229 230
3 231 232 233
3 234 235 236
3 237 238 239
3 240 241 242
3 243 244 245
3 246 247 248
3 249 250 251
3 252 253 254
3 255 256 257
3 258 259 260
3 261 262 263
3 264 265 266
3 267 268 269
3 270 271 272
3 273 274 275
3 276 277 278
3 279 280 281
3 282 283 284
3 285 286 287
3 288 289 290
3 291 292 293
3 294 295 296
3 297 298 299
3 300 301 302
3 303 304 305
3 306 307 308
3 309 310 311
3 312 313 314
3 315 316 317
3 318 319 320
3 321 322 323
3 324 325 326
3 327 328 329
3 330 331 332
3 333 334 335
3 336 337 338
3 339 340 341
3 342 343 344
3 345 346 347
3 348 349 350
3 351 352 353
3 354 355 356
3 357 358 359
3 360 361 362
3 363 364 365
3 366 367 368
3 369 370 371
3 372 373 374
3 375 376 377
3 378 379 380
3 381 382 383
3 384 385 386
3 387 388 389
3 390 391 392
3 393 394 395
3 396 397 398
3 399 400 401
3 402 403 404
3 405 406 407
