ply
format ascii 1.0
comment Created by Blender 2.77 (sub 0) - www.blender.org, source file: 'Bait.blend'
element vertex 380
property float x
property float y
property float z
property float nx
property float ny
property float nz
property uchar red
property uchar green
property uchar blue
element face 146
property list uchar uint vertex_indices
end_header
0.000000 -1.113308 0.000000 -0.301361 -0.890404 -0.341120 74 61 51
-0.425435 -0.850893 -0.309118 -0.301361 -0.890404 -0.341120 74 61 51
0.186707 -0.959040 -0.567622 -0.301361 -0.890404 -0.341120 74 61 51
-0.730507 -0.452490 -0.530738 -0.649719 -0.683075 -0.333578 74 61 51
-0.425435 -0.850893 -0.309118 -0.649719 -0.683075 -0.333578 74 61 51
-0.900033 -0.550428 0.000000 -0.649719 -0.683075 -0.333578 74 61 51
0.000000 -1.113308 0.000000 0.444880 -0.890465 -0.095677 74 61 51
0.186707 -0.959040 -0.567622 0.444880 -0.890465 -0.095677 74 61 51
0.525730 -0.850652 0.000000 0.444880 -0.890465 -0.095677 74 61 51
0.000000 -1.113308 0.000000 0.425081 -0.850837 0.308841 74 61 51
0.525730 -0.850652 0.000000 0.425081 -0.850837 0.308841 74 61 51
0.162456 -0.850654 0.499995 0.425081 -0.850837 0.308841 74 61 51
0.276774 -0.447245 0.851152 0.152475 -0.647332 -0.746801 74 61 51
-0.233569 -0.414088 0.718215 0.152475 -0.647332 -0.746801 74 61 51
0.306073 -0.335595 0.760356 0.152475 -0.647332 -0.746801 74 61 51
-0.730507 -0.452490 -0.530738 -0.726796 -0.595620 -0.342060 74 61 51
-0.900033 -0.550428 0.000000 -0.726796 -0.595620 -0.342060 74 61 51
-1.166297 -0.004039 -0.385665 -0.726796 -0.595620 -0.342060 74 61 51
0.291580 -0.479200 -0.897983 0.063960 -0.223476 -0.972609 74 61 51
-0.295412 -0.593169 -0.910398 0.063960 -0.223476 -0.972609 74 61 51
0.000000 0.000096 -1.027285 0.063960 -0.223476 -0.972609 74 61 51
0.943065 -0.471534 0.000000 0.744624 -0.598820 -0.294871 74 61 51
0.695175 -0.531073 -0.505073 0.744624 -0.598820 -0.294871 74 61 51
1.166297 -0.004039 -0.385665 0.744624 -0.598820 -0.294871 74 61 51
0.276774 -0.447245 0.851152 0.471960 -0.562666 0.678720 74 61 51
0.688189 -0.525736 0.499997 0.471960 -0.562666 0.678720 74 61 51
0.683560 -0.006149 0.933959 0.471960 -0.562666 0.678720 74 61 51
-0.723607 -0.447220 0.525725 -0.500319 -0.563228 0.657613 74 61 51
-0.262869 -0.525738 0.809012 -0.500319 -0.563228 0.657613 74 61 51
-0.683560 -0.006149 0.933959 -0.500319 -0.563228 0.657613 74 61 51
-0.730507 -0.452490 -0.530738 -0.615942 -0.374307 -0.693188 74 61 51
-1.166297 -0.004039 -0.385665 -0.615942 -0.374307 -0.693188 74 61 51
-0.628779 0.000002 -0.865467 -0.615942 -0.374307 -0.693188 74 61 51
0.291580 -0.479200 -0.897983 0.247732 -0.108999 -0.962678 74 61 51
0.000000 0.000096 -1.027285 0.247732 -0.108999 -0.962678 74 61 51
0.628779 0.000002 -0.865467 0.247732 -0.108999 -0.962678 74 61 51
1.112493 -0.002327 0.363663 0.437204 0.834872 0.334428 120 39 60
0.768332 -0.063779 0.967004 0.437204 0.834872 0.334428 120 39 60
1.197266 -0.059957 0.396707 0.437204 0.834872 0.334428 120 39 60
0.276774 -0.447245 0.851152 0.311884 -0.445198 0.839361 74 61 51
0.683560 -0.006149 0.933959 0.311884 -0.445198 0.839361 74 61 51
0.000000 -0.007387 1.187295 0.311884 -0.445198 0.839361 74 61 51
-0.723607 -0.447220 0.525725 -0.721394 -0.433992 0.539669 74 61 51
-0.683560 -0.006149 0.933959 -0.721394 -0.433992 0.539669 74 61 51
-1.112493 -0.002327 0.363663 -0.721394 -0.433992 0.539669 74 61 51
-0.306056 0.512551 -0.945689 -0.369618 0.793640 -0.483236 74 61 51
-0.737972 0.559924 -0.537521 -0.369618 0.793640 -0.483236 74 61 51
-0.162488 0.850727 -0.500099 -0.369618 0.793640 -0.483236 74 61 51
0.775508 0.484493 -0.565438 0.938774 -0.334762 0.081469 158 135 128
0.657645 0.060599 -0.949096 0.938774 -0.334762 0.081469 158 135 128
0.804374 0.545089 -0.649068 0.938774 -0.334762 0.081469 158 135 128
0.746879 0.457739 0.548426 -0.429693 0.654944 -0.621621 74 61 51
0.165270 0.450052 0.942361 -0.429693 0.654944 -0.621621 74 61 51
0.343280 0.645119 1.024836 -0.429693 0.654944 -0.621621 74 61 51
-0.396869 -0.740698 0.218830 -0.472250 -0.658987 0.585420 209 67 105
-0.233569 -0.414088 0.718215 -0.472250 -0.658987 0.585420 209 67 105
-0.694308 -0.335570 0.434929 -0.472250 -0.658987 0.585420 209 67 105
0.029300 -1.001659 -0.090796 -0.158974 -0.851822 0.499126 209 67 105
0.191755 -0.739005 0.409199 -0.158974 -0.851822 0.499126 209 67 105
-0.396869 -0.740698 0.218830 -0.158974 -0.851822 0.499126 209 67 105
-0.525730 0.850652 0.000000 -0.271993 0.957460 0.096389 74 61 51
-0.175355 0.897648 0.521876 -0.271993 0.957460 0.096389 74 61 51
0.000000 1.000000 0.000000 -0.271993 0.957460 0.096389 74 61 51
-0.683560 -0.006149 0.933959 -0.475772 -0.805871 0.352438 199 101 0
-1.160964 0.049566 0.416886 -0.475772 -0.805871 0.352438 199 101 0
-1.112493 -0.002327 0.363663 -0.475772 -0.805871 0.352438 199 101 0
-0.998370 0.511988 0.000192 -0.351414 0.489981 -0.797764 199 101 0
-0.574200 0.902544 0.053223 -0.351414 0.489981 -0.797764 199 101 0
-0.525730 0.850652 0.000000 -0.351414 0.489981 -0.797764 199 101 0
-0.175355 0.897648 0.521876 0.158276 0.957538 0.240978 74 61 51
0.425866 0.851740 0.309406 0.158276 0.957538 0.240978 74 61 51
0.000000 1.000000 0.000000 0.158276 0.957538 0.240978 74 61 51
-0.175355 0.897648 0.521876 0.174915 0.940358 0.291774 74 61 51
0.343280 0.645119 1.024836 0.174915 0.940358 0.291774 74 61 51
0.425866 0.851740 0.309406 0.174915 0.940358 0.291774 74 61 51
0.746879 0.457739 0.548426 -0.719108 0.690229 -0.080419 74 61 51
0.729149 0.365766 -0.082428 -0.719108 0.690229 -0.080419 74 61 51
0.568869 0.262672 0.465951 -0.719108 0.690229 -0.080419 74 61 51
0.425866 0.851740 0.309406 0.330044 0.943964 -0.001947 74 61 51
0.425323 0.850654 -0.309011 0.330044 0.943964 -0.001947 74 61 51
0.000000 1.000000 0.000000 0.330044 0.943964 -0.001947 74 61 51
0.425866 0.851740 0.309406 0.516358 0.856371 -0.001957 74 61 51
0.907158 0.560833 0.000047 0.516358 0.856371 -0.001957 74 61 51
0.425323 0.850654 -0.309011 0.516358 0.856371 -0.001957 74 61 51
0.907158 0.560833 0.000047 0.609918 0.754034 -0.243788 74 61 51
0.775508 0.484493 -0.565438 0.609918 0.754034 -0.243788 74 61 51
0.425323 0.850654 -0.309011 0.609918 0.754034 -0.243788 74 61 51
0.425323 0.850654 -0.309011 0.102500 0.943559 -0.314943 74 61 51
-0.162488 0.850727 -0.500099 0.102500 0.943559 -0.314943 74 61 51
0.000000 1.000000 0.000000 0.102500 0.943559 -0.314943 74 61 51
0.628779 0.000002 -0.865467 0.141035 -0.824172 -0.548497 158 135 128
0.028866 0.060692 -1.110914 0.141035 -0.824172 -0.548497 158 135 128
0.657645 0.060599 -0.949096 0.141035 -0.824172 -0.548497 158 135 128
-0.306056 0.512551 -0.945689 -0.911833 0.410187 -0.017518 158 135 128
-0.133622 0.911323 -0.583729 -0.911833 0.410187 -0.017518 158 135 128
-0.277190 0.573147 -1.029319 -0.911833 0.410187 -0.017518 158 135 128
-0.162488 0.850727 -0.500099 -0.268044 0.943559 -0.194549 74 61 51
-0.525730 0.850652 0.000000 -0.268044 0.943559 -0.194549 74 61 51
0.000000 1.000000 0.000000 -0.268044 0.943559 -0.194549 74 61 51
-0.162488 0.850727 -0.500099 -0.414447 0.858891 -0.300900 74 61 51
-0.737972 0.559924 -0.537521 -0.414447 0.858891 -0.300900 74 61 51
-0.525730 0.850652 0.000000 -0.414447 0.858891 -0.300900 74 61 51
-0.737972 0.559924 -0.537521 -0.570114 0.795535 -0.205168 74 61 51
-0.998370 0.511988 0.000192 -0.570114 0.795535 -0.205168 74 61 51
-0.525730 0.850652 0.000000 -0.570114 0.795535 -0.205168 74 61 51
0.343280 0.645119 1.024836 0.649526 -0.156456 0.744068 199 101 0
-0.048470 0.044505 1.240518 0.649526 -0.156456 0.744068 199 101 0
0.000000 -0.007387 1.187295 0.649526 -0.156456 0.744068 199 101 0
-0.175355 0.897648 0.521876 0.452265 0.808542 -0.376451 199 101 0
-0.574200 0.902544 0.053223 0.452265 0.808542 -0.376451 199 101 0
-0.223825 0.949540 0.575099 0.452265 0.808542 -0.376451 199 101 0
-0.175355 0.897648 0.521876 0.590689 0.776555 -0.219200 199 101 0
0.294810 0.697011 1.078059 0.590689 0.776555 -0.219200 199 101 0
0.343280 0.645119 1.024836 0.590689 0.776555 -0.219200 199 101 0
-0.998370 0.511988 0.000192 -0.814440 -0.203342 -0.543452 199 101 0
-1.160964 0.049566 0.416886 -0.814440 -0.203342 -0.543452 199 101 0
-1.046840 0.563880 0.053415 -0.814440 -0.203342 -0.543452 199 101 0
0.000000 -0.007387 1.187295 0.346988 0.050620 0.936502 74 61 51
0.683560 -0.006149 0.933959 0.346988 0.050620 0.936502 74 61 51
0.343280 0.645119 1.024836 0.346988 0.050620 0.936502 74 61 51
0.683560 -0.006149 0.933959 0.779939 0.333621 0.529520 74 61 51
0.746879 0.457739 0.548426 0.779939 0.333621 0.529520 74 61 51
0.343280 0.645119 1.024836 0.779939 0.333621 0.529520 74 61 51
1.112493 -0.002327 0.363663 0.799292 0.503373 0.328249 74 61 51
0.907158 0.560833 0.000047 0.799292 0.503373 0.328249 74 61 51
0.746879 0.457739 0.548426 0.799292 0.503373 0.328249 74 61 51
1.112493 -0.002327 0.363663 0.923151 0.378831 0.065418 74 61 51
1.166297 -0.004039 -0.385665 0.923151 0.378831 0.065418 74 61 51
0.907158 0.560833 0.000047 0.923151 0.378831 0.065418 74 61 51
1.166297 -0.004039 -0.385665 0.798488 0.543331 -0.259244 74 61 51
0.775508 0.484493 -0.565438 0.798488 0.543331 -0.259244 74 61 51
0.907158 0.560833 0.000047 0.798488 0.543331 -0.259244 74 61 51
0.425323 0.850654 -0.309011 -0.174628 0.824988 0.537494 158 135 128
-0.133622 0.911323 -0.583729 -0.174628 0.824988 0.537494 158 135 128
-0.162488 0.850727 -0.500099 -0.174628 0.824988 0.537494 158 135 128
0.775508 0.484493 -0.565438 0.767184 0.363710 0.528340 158 135 128
0.454188 0.911250 -0.392641 0.767184 0.363710 0.528340 158 135 128
0.425323 0.850654 -0.309011 0.767184 0.363710 0.528340 158 135 128
-0.306056 0.512551 -0.945689 -0.761873 -0.370411 -0.531362 158 135 128
0.028866 0.060692 -1.110914 -0.761873 -0.370411 -0.531362 158 135 128
0.000000 0.000096 -1.027285 -0.761873 -0.370411 -0.531362 158 135 128
-0.628779 0.000002 -0.865467 -0.639897 0.291628 -0.710975 74 61 51
-0.737972 0.559924 -0.537521 -0.639897 0.291628 -0.710975 74 61 51
-0.306056 0.512551 -0.945689 -0.639897 0.291628 -0.710975 74 61 51
-0.628779 0.000002 -0.865467 -0.637969 0.292749 -0.712245 74 61 51
-1.166297 -0.004039 -0.385665 -0.637969 0.292749 -0.712245 74 61 51
-0.737972 0.559924 -0.537521 -0.637969 0.292749 -0.712245 74 61 51
-1.166297 -0.004039 -0.385665 -0.791156 0.509952 -0.337671 74 61 51
-0.998370 0.511988 0.000192 -0.791156 0.509952 -0.337671 74 61 51
-0.737972 0.559924 -0.537521 -0.791156 0.509952 -0.337671 74 61 51
-0.683560 -0.006149 0.933959 -0.214431 -0.789752 0.574726 199 101 0
-0.048470 0.044505 1.240518 -0.214431 -0.789752 0.574726 199 101 0
-0.732030 0.045743 0.987182 -0.214431 -0.789752 0.574726 199 101 0
-0.683560 -0.006149 0.933959 -0.310619 -0.452512 0.835912 74 61 51
-0.262869 -0.525738 0.809012 -0.310619 -0.452512 0.835912 74 61 51
0.000000 -0.007387 1.187295 -0.310619 -0.452512 0.835912 74 61 51
-0.262869 -0.525738 0.809012 0.024284 -0.597330 0.801628 74 61 51
0.276774 -0.447245 0.851152 0.024284 -0.597330 0.801628 74 61 51
0.000000 -0.007387 1.187295 0.024284 -0.597330 0.801628 74 61 51
0.683560 -0.006149 0.933959 0.742872 0.364992 0.561179 74 61 51
1.112493 -0.002327 0.363663 0.742872 0.364992 0.561179 74 61 51
0.746879 0.457739 0.548426 0.742872 0.364992 0.561179 74 61 51
1.112493 -0.002327 0.363663 0.551715 0.833180 0.037710 120 39 60
1.251069 -0.061669 -0.352621 0.551715 0.833180 0.037710 120 39 60
1.166297 -0.004039 -0.385665 0.551715 0.833180 0.037710 120 39 60
0.688189 -0.525736 0.499997 -0.603386 -0.564729 0.563033 120 39 60
0.610502 -0.908282 0.033044 -0.603386 -0.564729 0.563033 120 39 60
0.772962 -0.583366 0.533041 -0.603386 -0.564729 0.563033 120 39 60
1.166297 -0.004039 -0.385665 0.645638 0.251074 -0.721188 74 61 51
0.628779 0.000002 -0.865467 0.645638 0.251074 -0.721188 74 61 51
0.775508 0.484493 -0.565438 0.645638 0.251074 -0.721188 74 61 51
1.166297 -0.004039 -0.385665 0.611384 -0.390597 -0.688218 74 61 51
0.695175 -0.531073 -0.505073 0.611384 -0.390597 -0.688218 74 61 51
0.628779 0.000002 -0.865467 0.611384 -0.390597 -0.688218 74 61 51
0.695175 -0.531073 -0.505073 0.616950 -0.387654 -0.684907 74 61 51
0.291580 -0.479200 -0.897983 0.616950 -0.387654 -0.684907 74 61 51
0.628779 0.000002 -0.865467 0.616950 -0.387654 -0.684907 74 61 51
0.000000 0.000096 -1.027285 -0.249229 0.005350 -0.968430 74 61 51
-0.628779 0.000002 -0.865467 -0.249229 0.005350 -0.968430 74 61 51
-0.306056 0.512551 -0.945689 -0.249229 0.005350 -0.968430 74 61 51
0.000000 0.000096 -1.027285 -0.248670 -0.066560 -0.966299 74 61 51
-0.295412 -0.593169 -0.910398 -0.248670 -0.066560 -0.966299 74 61 51
-0.628779 0.000002 -0.865467 -0.248670 -0.066560 -0.966299 74 61 51
-0.295412 -0.593169 -0.910398 -0.678848 -0.331904 -0.654985 74 61 51
-0.730507 -0.452490 -0.530738 -0.678848 -0.331904 -0.654985 74 61 51
-0.628779 0.000002 -0.865467 -0.678848 -0.331904 -0.654985 74 61 51
-1.166297 -0.004039 -0.385665 -0.962626 0.262025 0.068520 74 61 51
-1.112493 -0.002327 0.363663 -0.962626 0.262025 0.068520 74 61 51
-0.998370 0.511988 0.000192 -0.962626 0.262025 0.068520 74 61 51
-1.166297 -0.004039 -0.385665 -0.914650 -0.398725 0.066585 74 61 51
-0.900033 -0.550428 0.000000 -0.914650 -0.398725 0.066585 74 61 51
-1.112493 -0.002327 0.363663 -0.914650 -0.398725 0.066585 74 61 51
-0.900033 -0.550428 0.000000 -0.763289 -0.535590 0.361294 74 61 51
-0.723607 -0.447220 0.525725 -0.763289 -0.535590 0.361294 74 61 51
-1.112493 -0.002327 0.363663 -0.763289 -0.535590 0.361294 74 61 51
0.000000 -1.113308 0.000000 0.680890 0.346179 0.645406 74 61 51
-0.396869 -0.740698 0.218830 0.680890 0.346179 0.645406 74 61 51
-0.426169 -0.852347 0.309626 0.680890 0.346179 0.645406 74 61 51
0.000000 -1.113308 0.000000 -0.931150 0.343606 0.122043 74 61 51
0.191755 -0.739005 0.409199 -0.931150 0.343606 0.122043 74 61 51
0.029300 -1.001659 -0.090796 -0.931150 0.343606 0.122043 74 61 51
-0.723607 -0.447220 0.525725 0.316242 -0.647126 -0.693700 74 61 51
-0.233569 -0.414088 0.718215 0.316242 -0.647126 -0.693700 74 61 51
-0.262869 -0.525738 0.809012 0.316242 -0.647126 -0.693700 74 61 51
0.162456 -0.850654 0.499995 0.409305 -0.662279 0.627579 74 61 51
0.688189 -0.525736 0.499997 0.409305 -0.662279 0.627579 74 61 51
0.276774 -0.447245 0.851152 0.409305 -0.662279 0.627579 74 61 51
0.162456 -0.850654 0.499995 0.491119 -0.794657 0.356821 74 61 51
0.525730 -0.850652 0.000000 0.491119 -0.794657 0.356821 74 61 51
0.688189 -0.525736 0.499997 0.491119 -0.794657 0.356821 74 61 51
0.943065 -0.471534 0.000000 0.211623 -0.232955 -0.949183 120 39 60
0.610502 -0.908282 0.033044 0.211623 -0.232955 -0.949183 120 39 60
0.525730 -0.850652 0.000000 0.211623 -0.232955 -0.949183 120 39 60
0.525730 -0.850652 0.000000 0.653425 -0.719294 -0.235909 74 61 51
0.695175 -0.531073 -0.505073 0.653425 -0.719294 -0.235909 74 61 51
0.943065 -0.471534 0.000000 0.653425 -0.719294 -0.235909 74 61 51
0.525730 -0.850652 0.000000 0.641825 -0.726810 -0.244556 74 61 51
0.186707 -0.959040 -0.567622 0.641825 -0.726810 -0.244556 74 61 51
0.695175 -0.531073 -0.505073 0.641825 -0.726810 -0.244556 74 61 51
-0.295412 -0.593169 -0.910398 0.685643 0.692077 -0.225660 74 61 51
0.130415 -0.864165 -0.447688 0.685643 0.692077 -0.225660 74 61 51
0.186707 -0.959040 -0.567622 0.685643 0.692077 -0.225660 74 61 51
-0.900033 -0.550428 0.000000 -0.655472 -0.668581 0.351220 74 61 51
-0.426169 -0.852347 0.309626 -0.655472 -0.668581 0.351220 74 61 51
-0.723607 -0.447220 0.525725 -0.655472 -0.668581 0.351220 74 61 51
-0.900033 -0.550428 0.000000 -0.536124 -0.844135 -0.002620 74 61 51
-0.425435 -0.850893 -0.309118 -0.536124 -0.844135 -0.002620 74 61 51
-0.426169 -0.852347 0.309626 -0.536124 -0.844135 -0.002620 74 61 51
-0.425435 -0.850893 -0.309118 -0.523598 -0.851962 -0.002624 74 61 51
0.000000 -1.113308 0.000000 -0.523598 -0.851962 -0.002624 74 61 51
-0.426169 -0.852347 0.309626 -0.523598 -0.851962 -0.002624 74 61 51
-0.295412 -0.593169 -0.910398 0.131169 -0.746621 0.652190 74 61 51
0.235287 -0.384324 -0.778049 0.131169 -0.746621 0.652190 74 61 51
-0.351705 -0.498294 -0.790464 0.131169 -0.746621 0.652190 74 61 51
0.186707 -0.959040 -0.567622 -0.330451 -0.839516 -0.431295 74 61 51
-0.425435 -0.850893 -0.309118 -0.330451 -0.839516 -0.431295 74 61 51
-0.295412 -0.593169 -0.910398 -0.330451 -0.839516 -0.431295 74 61 51
-0.425435 -0.850893 -0.309118 -0.590830 -0.687388 -0.422395 74 61 51
-0.730507 -0.452490 -0.530738 -0.590830 -0.687388 -0.422395 74 61 51
-0.295412 -0.593169 -0.910398 -0.590830 -0.687388 -0.422395 74 61 51
0.804374 0.545089 -0.649068 0.477243 0.762432 -0.436963 158 135 128
0.322267 0.651428 -0.990072 0.477243 0.762432 -0.436963 158 135 128
0.454188 0.911250 -0.392641 0.477243 0.762432 -0.436963 158 135 128
0.454188 0.911250 -0.392641 0.136747 0.897018 -0.420308 158 135 128
0.322267 0.651428 -0.990072 0.136747 0.897018 -0.420308 158 135 128
-0.133622 0.911323 -0.583729 0.136747 0.897018 -0.420308 158 135 128
0.322267 0.651428 -0.990072 -0.066528 0.805010 -0.589520 158 135 128
-0.277190 0.573147 -1.029319 -0.066528 0.805010 -0.589520 158 135 128
-0.133622 0.911323 -0.583729 -0.066528 0.805010 -0.589520 158 135 128
0.657645 0.060599 -0.949096 0.594611 0.285396 -0.751656 158 135 128
0.322267 0.651428 -0.990072 0.594611 0.285396 -0.751656 158 135 128
0.804374 0.545089 -0.649068 0.594611 0.285396 -0.751656 158 135 128
0.657645 0.060599 -0.949096 0.248557 0.074111 -0.965778 158 135 128
0.028866 0.060692 -1.110914 0.248557 0.074111 -0.965778 158 135 128
0.322267 0.651428 -0.990072 0.248557 0.074111 -0.965778 158 135 128
0.028866 0.060692 -1.110914 0.040728 0.180791 -0.982678 158 135 128
-0.277190 0.573147 -1.029319 0.040728 0.180791 -0.982678 158 135 128
0.322267 0.651428 -0.990072 0.040728 0.180791 -0.982678 158 135 128
1.027837 -0.529164 0.033044 0.920735 -0.384394 0.066989 120 39 60
1.251069 -0.061669 -0.352621 0.920735 -0.384394 0.066989 120 39 60
1.197266 -0.059957 0.396707 0.920735 -0.384394 0.066989 120 39 60
0.768332 -0.063779 0.967004 0.718193 -0.442278 0.537205 120 39 60
0.772962 -0.583366 0.533041 0.718193 -0.442278 0.537205 120 39 60
1.197266 -0.059957 0.396707 0.718193 -0.442278 0.537205 120 39 60
0.772962 -0.583366 0.533041 0.772649 -0.538979 0.335433 120 39 60
1.027837 -0.529164 0.033044 0.772649 -0.538979 0.335433 120 39 60
1.197266 -0.059957 0.396707 0.772649 -0.538979 0.335433 120 39 60
0.610502 -0.908282 0.033044 0.650366 -0.715927 0.253916 120 39 60
1.027837 -0.529164 0.033044 0.650366 -0.715927 0.253916 120 39 60
0.772962 -0.583366 0.533041 0.650366 -0.715927 0.253916 120 39 60
0.943065 -0.471534 0.000000 -0.102096 -0.603578 -0.790740 120 39 60
1.251069 -0.061669 -0.352621 -0.102096 -0.603578 -0.790740 120 39 60
1.027837 -0.529164 0.033044 -0.102096 -0.603578 -0.790740 120 39 60
0.688189 -0.525736 0.499997 -0.592929 -0.519300 0.615437 120 39 60
0.768332 -0.063779 0.967004 -0.592929 -0.519300 0.615437 120 39 60
0.683560 -0.006149 0.933959 -0.592929 -0.519300 0.615437 120 39 60
-0.402329 0.614967 1.113134 -0.075372 0.857808 0.508414 199 101 0
0.294810 0.697011 1.078059 -0.075372 0.857808 0.508414 199 101 0
-0.223825 0.949540 0.575099 -0.075372 0.857808 0.508414 199 101 0
-1.046840 0.563880 0.053415 -0.553867 0.773153 0.308974 199 101 0
-0.741830 0.580571 0.558411 -0.553867 0.773153 0.308974 199 101 0
-0.574200 0.902544 0.053223 -0.553867 0.773153 0.308974 199 101 0
-0.574200 0.902544 0.053223 -0.558884 0.770798 0.305809 199 101 0
-0.741830 0.580571 0.558411 -0.558884 0.770798 0.305809 199 101 0
-0.223825 0.949540 0.575099 -0.558884 0.770798 0.305809 199 101 0
-0.741830 0.580571 0.558411 -0.560609 0.773703 0.295128 199 101 0
-0.402329 0.614967 1.113134 -0.560609 0.773703 0.295128 199 101 0
-0.223825 0.949540 0.575099 -0.560609 0.773703 0.295128 199 101 0
-1.160964 0.049566 0.416886 -0.757707 0.480333 0.441769 199 101 0
-0.741830 0.580571 0.558411 -0.757707 0.480333 0.441769 199 101 0
-1.046840 0.563880 0.053415 -0.757707 0.480333 0.441769 199 101 0
-1.160964 0.049566 0.416886 -0.722223 0.424532 0.546046 199 101 0
-0.732030 0.045743 0.987182 -0.722223 0.424532 0.546046 199 101 0
-0.741830 0.580571 0.558411 -0.722223 0.424532 0.546046 199 101 0
-0.732030 0.045743 0.987182 -0.804867 0.362161 0.470137 199 101 0
-0.402329 0.614967 1.113134 -0.804867 0.362161 0.470137 199 101 0
-0.741830 0.580571 0.558411 -0.804867 0.362161 0.470137 199 101 0
-0.048470 0.044505 1.240518 0.021788 0.230736 0.972772 199 101 0
0.294810 0.697011 1.078059 0.021788 0.230736 0.972772 199 101 0
-0.402329 0.614967 1.113134 0.021788 0.230736 0.972772 199 101 0
-0.732030 0.045743 0.987182 -0.347517 -0.006187 0.937653 199 101 0
-0.048470 0.044505 1.240518 -0.347517 -0.006187 0.937653 199 101 0
-0.402329 0.614967 1.113134 -0.347517 -0.006187 0.937653 199 101 0
-0.396869 -0.740698 0.218830 -0.185162 -0.793600 0.579581 209 67 105
0.191755 -0.739005 0.409199 -0.185162 -0.793600 0.579581 209 67 105
-0.233569 -0.414088 0.718215 -0.185162 -0.793600 0.579581 209 67 105
0.191755 -0.739005 0.409199 0.037875 -0.662182 0.748385 209 67 105
0.306073 -0.335595 0.760356 0.037875 -0.662182 0.748385 209 67 105
-0.233569 -0.414088 0.718215 0.037875 -0.662182 0.748385 209 67 105
0.276774 -0.447245 0.851152 -0.964739 0.262936 0.012006 74 61 51
0.191755 -0.739005 0.409199 -0.964739 0.262936 0.012006 74 61 51
0.162456 -0.850654 0.499995 -0.964739 0.262936 0.012006 74 61 51
-0.723607 -0.447220 0.525725 0.775470 0.263211 0.573904 74 61 51
-0.396869 -0.740698 0.218830 0.775470 0.263211 0.573904 74 61 51
-0.694308 -0.335570 0.434929 0.775470 0.263211 0.573904 74 61 51
0.130415 -0.864165 -0.447688 0.543416 -0.553371 -0.631252 199 181 27
0.235287 -0.384324 -0.778049 0.543416 -0.553371 -0.631252 199 181 27
0.638883 -0.436198 -0.385139 0.543416 -0.553371 -0.631252 199 181 27
0.130415 -0.864165 -0.447688 0.129867 -0.581374 -0.803205 199 181 27
-0.351705 -0.498294 -0.790464 0.129867 -0.581374 -0.803205 199 181 27
0.235287 -0.384324 -0.778049 0.129867 -0.581374 -0.803205 199 181 27
0.695175 -0.531073 -0.505073 -0.482822 -0.782779 0.392607 74 61 51
0.235287 -0.384324 -0.778049 -0.482822 -0.782779 0.392607 74 61 51
0.291580 -0.479200 -0.897983 -0.482822 -0.782779 0.392607 74 61 51
0.695175 -0.531073 -0.505073 -0.424158 0.602726 -0.675878 74 61 51
0.130415 -0.864165 -0.447688 -0.424158 0.602726 -0.675878 74 61 51
0.638883 -0.436198 -0.385139 -0.424158 0.602726 -0.675878 74 61 51
0.568869 0.262672 0.465951 0.631612 0.707259 0.317570 74 61 51
0.729149 0.365766 -0.082428 0.631612 0.707259 0.317570 74 61 51
0.247856 0.656674 0.226931 0.631612 0.707259 0.317570 74 61 51
0.165270 0.450052 0.942361 0.654900 0.702529 0.278494 74 61 51
0.568869 0.262672 0.465951 0.654900 0.702529 0.278494 74 61 51
0.247856 0.656674 0.226931 0.654900 0.702529 0.278494 74 61 51
0.425866 0.851740 0.309406 0.204758 -0.533754 0.820476 74 61 51
0.729149 0.365766 -0.082428 0.204758 -0.533754 0.820476 74 61 51
0.907158 0.560833 0.000047 0.204758 -0.533754 0.820476 74 61 51
0.425866 0.851740 0.309406 0.755618 -0.647374 -0.099741 74 61 51
0.165270 0.450052 0.942361 0.755618 -0.647374 -0.099741 74 61 51
0.247856 0.656674 0.226931 0.755618 -0.647374 -0.099741 74 61 51
-0.262869 -0.525738 0.809012 0.152475 -0.647332 -0.746801 74 61 51
1.112493 -0.002327 0.363663 0.437205 0.834871 0.334428 120 39 60
0.683560 -0.006149 0.933959 0.437205 0.834871 0.334428 120 39 60
0.768332 -0.063779 0.967004 0.437205 0.834871 0.334428 120 39 60
0.628779 0.000002 -0.865467 0.938774 -0.334762 0.081469 158 135 128
0.568869 0.262672 0.465951 -0.429693 0.654944 -0.621621 74 61 51
-0.732030 0.045743 0.987182 -0.475772 -0.805871 0.352438 199 101 0
-1.046840 0.563880 0.053415 -0.351414 0.489981 -0.797764 199 101 0
0.907158 0.560833 0.000047 -0.719108 0.690229 -0.080419 74 61 51
0.000000 0.000096 -1.027285 0.141035 -0.824172 -0.548497 158 135 128
-0.162488 0.850727 -0.500099 -0.911833 0.410187 -0.017518 158 135 128
0.294810 0.697011 1.078059 0.649526 -0.156456 0.744068 199 101 0
-0.525730 0.850652 0.000000 0.452265 0.808542 -0.376451 199 101 0
-0.175355 0.897648 0.521876 0.590689 0.776555 -0.219201 199 101 0
-0.223825 0.949540 0.575099 0.590689 0.776555 -0.219201 199 101 0
0.294810 0.697011 1.078059 0.590689 0.776555 -0.219201 199 101 0
-1.112493 -0.002327 0.363663 -0.814440 -0.203342 -0.543452 199 101 0
0.454188 0.911250 -0.392641 -0.174628 0.824988 0.537494 158 135 128
0.804374 0.545089 -0.649068 0.767184 0.363710 0.528340 158 135 128
-0.277190 0.573147 -1.029319 -0.761873 -0.370411 -0.531362 158 135 128
0.000000 -0.007387 1.187295 -0.214431 -0.789752 0.574726 199 101 0
1.197266 -0.059957 0.396707 0.551715 0.833180 0.037710 120 39 60
0.525730 -0.850652 0.000000 -0.603386 -0.564729 0.563033 120 39 60
0.029300 -1.001659 -0.090796 0.680890 0.346179 0.645406 74 61 51
0.000000 -1.113308 0.000000 -0.931150 0.343607 0.122043 74 61 51
0.162456 -0.850654 0.499995 -0.931150 0.343607 0.122043 74 61 51
0.191755 -0.739005 0.409199 -0.931150 0.343607 0.122043 74 61 51
-0.694308 -0.335570 0.434929 0.316242 -0.647126 -0.693700 74 61 51
1.027837 -0.529164 0.033044 0.211623 -0.232955 -0.949183 120 39 60
-0.351705 -0.498294 -0.790464 0.685643 0.692077 -0.225660 74 61 51
0.291580 -0.479200 -0.897983 0.131169 -0.746621 0.652190 74 61 51
1.166297 -0.004039 -0.385665 -0.102096 -0.603578 -0.790740 120 39 60
0.772962 -0.583366 0.533041 -0.592929 -0.519300 0.615437 120 39 60
0.306073 -0.335595 0.760356 -0.964739 0.262936 0.012006 74 61 51
-0.426169 -0.852347 0.309626 0.775470 0.263211 0.573904 74 61 51
0.695175 -0.531073 -0.505073 -0.482822 -0.782779 0.392608 74 61 51
0.638883 -0.436198 -0.385139 -0.482822 -0.782779 0.392608 74 61 51
0.235287 -0.384324 -0.778049 -0.482822 -0.782779 0.392608 74 61 51
0.186707 -0.959040 -0.567622 -0.424158 0.602726 -0.675878 74 61 51
0.247856 0.656674 0.226931 0.204758 -0.533754 0.820476 74 61 51
0.343280 0.645119 1.024836 0.755618 -0.647374 -0.099741 74 61 51
3 0 1 2
3 3 4 5
3 6 7 8
3 9 10 11
3 12 13 14
3 15 16 17
3 18 19 20
3 21 22 23
3 24 25 26
3 27 28 29
3 30 31 32
3 33 34 35
3 36 37 38
3 39 40 41
3 42 43 44
3 45 46 47
3 48 49 50
3 51 52 53
3 54 55 56
3 57 58 59
3 60 61 62
3 63 64 65
3 66 67 68
3 69 70 71
3 72 73 74
3 75 76 77
3 78 79 80
3 81 82 83
3 84 85 86
3 87 88 89
3 90 91 92
3 93 94 95
3 96 97 98
3 99 100 101
3 102 103 104
3 105 106 107
3 108 109 110
3 111 112 113
3 114 115 116
3 117 118 119
3 120 121 122
3 123 124 125
3 126 127 128
3 129 130 131
3 132 133 134
3 135 136 137
3 138 139 140
3 141 142 143
3 144 145 146
3 147 148 149
3 150 151 152
3 153 154 155
3 156 157 158
3 159 160 161
3 162 163 164
3 165 166 167
3 168 169 170
3 171 172 173
3 174 175 176
3 177 178 179
3 180 181 182
3 183 184 185
3 186 187 188
3 189 190 191
3 192 193 194
3 195 196 197
3 198 199 200
3 201 202 203
3 204 205 206
3 207 208 209
3 210 211 212
3 213 214 215
3 216 217 218
3 219 220 221
3 222 223 224
3 225 226 227
3 228 229 230
3 231 232 233
3 234 235 236
3 237 238 239
3 240 241 242
3 243 244 245
3 246 247 248
3 249 250 251
3 252 253 254
3 255 256 257
3 258 259 260
3 261 262 263
3 264 265 266
3 267 268 269
3 270 271 272
3 273 274 275
3 276 277 278
3 279 280 281
3 282 283 284
3 285 286 287
3 288 289 290
3 291 292 293
3 294 295 296
3 297 298 299
3 300 301 302
3 303 304 305
3 306 307 308
3 309 310 311
3 312 313 314
3 315 316 317
3 318 319 320
3 321 322 323
3 324 325 326
3 327 328 329
3 330 331 332
3 333 334 335
3 336 337 338
3 12 339 13
3 340 341 342
3 48 343 49
3 51 344 52
3 63 345 64
3 66 346 67
3 75 347 76
3 90 348 91
3 93 349 94
3 105 350 106
3 108 351 109
3 352 353 354
3 114 355 115
3 132 356 133
3 135 357 136
3 138 358 139
3 150 359 151
3 162 360 163
3 165 361 166
3 195 362 196
3 363 364 365
3 201 366 202
3 210 367 211
3 219 368 220
3 231 369 232
3 270 370 271
3 273 371 274
3 309 372 310
3 312 373 313
3 374 375 376
3 324 377 325
3 333 378 334
3 336 379 337
