ply
format ascii 1.0
comment Created by Blender 2.77 (sub 0) - www.blender.org, source file: 'Cloth.blend'
element vertex 228
property float x
property float y
property float z
property float nx
property float ny
property float nz
property uchar red
property uchar green
property uchar blue
element face 440
property list uchar uint vertex_indices
end_header
0.313047 1.048360 0.432973 0.916318 0.368786 -0.155950 255 255 255
0.071140 0.831055 0.137830 0.370952 -0.134098 -0.918882 255 255 255
-0.285142 1.092669 0.242905 -0.435835 0.576006 -0.691519 255 255 255
-0.382777 1.210781 0.550454 -0.841578 0.313089 0.440107 255 255 255
-0.365012 0.955459 0.364075 -0.973876 -0.224982 -0.029969 255 255 255
-0.034287 1.277304 0.573664 0.191168 0.966826 0.169347 255 255 255
-0.302907 1.347992 0.429284 -0.302042 0.919584 -0.251198 255 255 255
-0.289938 0.817811 0.166654 -0.680624 -0.564226 -0.467269 255 255 255
-0.210067 0.955022 0.045485 -0.156590 0.266732 -0.950957 255 255 255
-0.288477 1.039403 0.586386 -0.788598 -0.019684 0.614551 255 255 255
-0.114157 1.140093 0.694834 -0.184271 0.292947 0.938200 255 255 255
0.119987 1.079947 0.698274 0.391156 0.094943 0.915403 255 255 255
0.233177 0.911149 0.554142 0.730064 -0.381695 0.566790 255 255 255
0.199857 1.217158 0.577105 0.611560 0.774316 0.162511 255 255 255
-0.008730 0.693844 0.258999 0.033265 -0.945860 -0.322794 255 255 255
-0.228899 0.787225 0.340093 -0.657674 -0.732170 -0.177038 255 255 255
0.031765 0.963437 0.678212 0.401624 0.067751 0.913266 255 255 255
0.278928 0.882472 0.250228 0.796960 -0.010437 -0.603931 255 255 255
0.199057 0.745261 0.371397 0.599780 -0.798822 0.045595 255 255 255
-0.280972 0.879842 0.463817 -0.962066 -0.271859 0.021699 255 255 255
-0.334854 0.752421 0.854620 -0.792657 0.505173 0.341197 255 255 255
-0.119744 1.002843 0.675995 -0.172826 0.342998 0.923276 255 255 255
0.083278 0.745390 0.465253 0.610187 -0.788781 0.074038 255 255 255
-0.274074 0.495152 0.603356 -0.579760 -0.463454 -0.670095 255 255 255
-0.182904 0.763839 0.929199 -0.094394 0.729698 0.677175 255 255 255
-0.021401 0.719165 0.931509 0.595599 0.502060 0.627003 255 255 255
0.105163 0.853393 0.584301 0.769890 -0.342082 0.538682 255 255 255
-0.051059 0.712113 0.392050 0.040071 -0.934049 -0.354869 255 255 255
-0.348760 0.613354 0.713166 -0.964843 0.017243 -0.262215 255 255 255
-0.349286 0.680707 0.920809 -0.792627 0.517045 0.323069 255 255 255
0.057692 0.597362 0.827860 0.974517 0.010102 0.224006 255 255 255
0.035430 0.478611 0.696568 0.828028 -0.452193 -0.331370 255 255 255
-0.107129 0.443099 0.615945 0.190924 -0.654164 -0.731834 255 255 255
-0.368769 0.546980 0.774434 -0.962676 0.027284 -0.269265 255 255 255
-0.201708 0.704623 0.991472 -0.119877 0.726768 0.676321 255 255 255
-0.037601 0.658578 0.993805 0.593585 0.494705 0.634724 255 255 255
-0.288193 0.422113 0.668249 -0.572283 -0.453993 -0.682882 255 255 255
-0.429826 0.409844 1.175721 -0.734703 0.670492 0.102939 255 255 255
-0.111131 0.391868 1.271217 0.651509 0.576037 0.493637 255 255 255
0.042975 0.533711 0.887620 0.969970 -0.009705 0.242988 255 255 255
-0.085176 0.145450 1.249920 0.985656 0.138279 0.096683 255 255 255
0.020615 0.412161 0.753138 0.824580 -0.464003 -0.323618 255 255 255
-0.124086 0.376066 0.670583 0.178838 -0.658925 -0.730613 255 255 255
-0.365558 0.137811 0.910037 -0.505234 -0.262947 -0.821925 255 255 255
-0.463353 0.174974 1.128211 -0.826197 0.281320 -0.488083 255 255 255
-0.659443 0.371039 1.386425 -0.711539 0.699088 0.070254 255 255 255
-0.314623 0.331039 1.355906 -0.073122 0.920194 0.384503 255 255 255
-0.451003 0.228455 1.712438 -0.262062 0.323222 0.909299 255 255 255
-0.046862 0.119836 1.005533 0.862362 -0.320688 -0.391675 255 255 255
-0.233907 -0.010614 1.022224 0.236000 -0.383831 -0.892727 255 255 255
-0.543160 -0.121157 0.905716 -0.491501 -0.232215 -0.839320 255 255 255
-0.720103 -0.053916 1.300463 -0.971313 -0.237587 0.008301 255 255 255
-0.082819 0.338515 1.559209 0.591601 0.629933 0.503159 255 255 255
-0.035859 -0.107335 1.520674 0.741478 -0.370891 0.559099 255 255 255
-0.304961 -0.389707 1.108701 0.037263 -0.943846 -0.328196 255 255 255
0.033463 -0.153680 1.078499 0.822382 -0.346934 -0.450880 255 255 255
-0.367097 0.090747 0.252153 0.149785 -0.697378 0.700858 255 255 255
-0.479813 0.033799 0.107860 -0.010041 -0.999878 -0.011841 255 255 255
-0.392156 0.032473 0.091885 -0.001434 -0.999969 -0.002014 255 255 255
-0.424397 0.091713 -0.066737 -0.146397 -0.688009 -0.710746 255 255 255
0.012524 0.093526 0.185669 -0.094546 -0.684744 0.722587 255 255 255
-0.464111 0.089010 0.275594 0.166784 -0.692953 0.701376 255 255 255
-0.829859 0.037839 0.184778 0.466506 -0.882473 -0.059694 255 255 255
-0.368321 0.266857 0.307771 0.176702 -0.008820 0.984191 255 255 255
-0.460464 0.262301 0.323297 0.188910 -0.009888 0.981933 255 255 255
-0.036322 0.095211 -0.147671 -0.304300 -0.649892 -0.696402 255 255 255
0.139086 0.053905 -0.002819 -0.316996 -0.947020 0.051180 255 255 255
-0.861616 0.090141 0.038766 0.398144 -0.573901 -0.715598 255 255 255
-0.511954 0.091604 -0.048156 -0.160741 -0.686514 -0.709067 255 255 255
-0.827730 0.243762 0.398486 0.562822 0.006287 0.826533 255 255 255
-0.444721 0.268145 -0.117416 -0.207343 -0.000031 -0.978240 255 255 255
0.267532 -0.050713 0.308177 -0.132054 -0.679617 0.721549 255 255 255
-0.850078 0.081295 0.381171 0.675192 -0.496261 0.545701 255 255 255
-0.909141 -0.080187 0.192386 0.404889 -0.910794 -0.080447 255 255 255
-0.389709 0.460710 0.257336 0.095523 0.716971 0.690481 255 255 255
-0.486607 0.457076 0.280751 0.114658 0.722404 0.681875 255 255 255
-0.532017 0.263830 -0.098018 -0.234443 -0.001648 -0.972106 255 255 255
-0.880675 0.246221 -0.007962 0.279000 0.031983 -0.959746 255 255 255
0.100640 0.299667 -0.199428 -0.405530 -0.012055 -0.913968 255 255 255
0.179155 -0.047665 -0.294945 -0.304453 -0.703391 -0.642262 255 255 255
0.496527 -0.122402 -0.032861 0.490036 -0.868984 -0.068606 255 255 255
0.147660 0.296935 0.200636 -0.184912 -0.025178 0.982421 255 255 255
0.512037 0.317320 0.335257 0.533372 0.020722 0.845607 255 255 255
-0.910661 0.235516 0.526137 0.496384 0.001099 0.868099 255 255 255
-0.011263 0.482715 0.191121 -0.164403 0.647175 0.744377 255 255 255
-0.445944 0.444255 -0.061798 -0.215003 0.685293 -0.695791 255 255 255
-0.532988 0.435758 -0.043334 -0.225593 0.684164 -0.693533 255 255 255
0.426964 0.322261 -0.388588 0.322214 0.032929 -0.946074 255 255 255
0.224495 0.653455 0.318042 -0.212592 0.638081 0.740013 255 255 255
-0.950876 -0.015533 0.507610 0.338328 -0.634968 0.694449 255 255 255
-1.176746 -0.039311 0.239085 -0.657369 -0.753441 0.011292 255 255 255
-0.872128 0.442078 0.386225 0.654866 0.575121 0.490219 255 255 255
-0.988228 0.239623 -0.105358 0.146825 0.021699 -0.988922 255 255 255
-0.507859 0.492670 0.114289 -0.111911 0.992737 -0.043672 255 255 255
-0.855280 0.453777 0.190606 0.341411 0.931272 -0.126957 255 255 255
-0.060109 0.484400 -0.142219 -0.376751 0.625629 -0.683065 255 255 255
0.136118 0.656504 -0.285080 -0.388928 0.678732 -0.622913 255 255 255
0.109213 0.542698 0.004028 -0.427290 0.900815 0.076662 255 255 255
0.442474 0.761983 -0.020471 0.380474 0.923734 -0.043489 255 255 255
-0.958702 0.000062 -0.033158 0.226722 -0.641194 -0.733085 255 255 255
-1.217581 0.026811 0.053246 -0.749352 -0.540696 -0.382183 255 255 255
-1.177998 0.220814 0.514080 -0.667531 -0.048219 0.743004 255 255 255
-1.211134 0.013961 0.498815 -0.721427 -0.437635 0.536637 255 255 255
-1.208897 0.486729 0.246455 -0.767449 0.639058 -0.050844 255 255 255
-1.241909 0.224198 -0.006244 -0.820032 -0.041353 -0.570788 255 255 255
-0.880683 0.402094 0.043136 0.327860 0.641011 -0.693930 255 255 255
-0.420884 0.502529 0.098470 -0.100955 0.994659 -0.020569 255 255 255
-0.948161 0.558247 0.201331 0.292093 0.946104 -0.139714 255 255 255
0.666813 0.332397 -0.065724 0.988067 0.062349 -0.140721 255 255 255
-0.985238 0.546677 0.515486 0.254128 0.719352 0.646443 255 255 255
-1.241693 0.421341 0.058774 -0.808008 0.459029 -0.369304 255 255 255
-0.987966 0.478887 -0.026450 0.145940 0.682607 -0.716025 255 255 255
-1.239446 0.477196 0.505305 -0.750084 0.405164 0.522660 255 255 255
0.408453 -0.093047 -0.925288 -0.335246 -0.839625 -0.427320 255 255 255
0.118839 0.219794 -0.819913 -0.989563 -0.053438 -0.133702 255 255 255
0.667800 0.220484 -1.127421 0.214972 -0.062014 -0.974639 255 255 255
0.731924 0.543417 -1.029077 0.713126 0.687765 -0.135563 255 255 255
0.789821 0.237753 -0.970257 0.994201 0.018372 -0.105686 255 255 255
0.380870 0.537156 -0.973117 -0.479171 0.709586 -0.516587 255 255 255
0.502891 0.554425 -0.815953 0.108829 0.920347 0.375561 255 255 255
0.756214 -0.011545 -0.986958 0.809961 -0.579974 -0.086886 255 255 255
0.696941 0.442332 -0.861410 0.771599 0.594012 0.227424 255 255 255
0.299472 0.473954 -0.713007 -0.376232 0.667196 0.642872 255 255 255
0.177450 0.456685 -0.870172 -0.818323 0.501206 -0.281228 255 255 255
0.240861 0.237063 -0.662749 -0.558458 0.037996 0.828639 255 255 255
0.530475 -0.075778 -0.768124 0.255348 -0.852840 0.455428 255 255 255
0.712529 0.086200 -0.834382 0.848537 -0.476241 0.230476 255 255 255
0.419119 0.401081 -0.666807 -0.377728 0.646199 0.663106 255 255 255
0.198138 -0.015967 -0.834300 -0.769829 -0.607044 -0.197089 255 255 255
0.320160 0.001302 -0.677135 -0.318491 -0.592212 0.740135 255 255 255
0.837977 0.466542 -0.492654 0.603961 0.728141 -0.324046 255 255 255
0.736374 0.247463 -0.829622 0.999054 0.024476 -0.035340 255 255 255
0.550594 0.453471 -0.733756 0.081912 0.939207 0.333354 255 255 255
0.432597 0.093149 -0.643438 -0.330729 -0.566607 0.754662 255 255 255
0.853880 0.103222 -0.465079 0.677175 -0.685293 -0.267830 255 255 255
0.692157 0.500458 -0.412857 -0.120121 0.989319 -0.082430 255 255 255
0.381284 0.246759 -0.634106 -0.609424 0.034944 0.792047 255 255 255
0.552841 0.442862 -0.339658 -0.705466 0.675008 0.215949 255 255 255
0.568565 0.042895 -0.702595 0.244301 -0.870388 0.427412 255 255 255
0.875897 0.472507 -0.401777 0.599689 0.722251 -0.344493 255 255 255
0.890819 0.274840 -0.493195 0.903592 -0.000641 -0.428358 255 255 255
0.513011 0.272678 -0.303799 -0.922361 -0.011994 0.386059 255 255 255
0.711983 0.047503 -0.378480 0.003357 -0.999847 0.017090 255 255 255
0.567711 0.103145 -0.313875 -0.653829 -0.693594 0.302347 255 255 255
0.932230 0.281630 -0.410741 0.898190 0.000092 -0.439558 255 255 255
0.891881 0.107314 -0.374061 0.666768 -0.690146 -0.281137 255 255 255
0.730214 0.512357 -0.334447 -0.095035 0.991607 -0.087313 255 255 255
0.588856 0.453404 -0.259621 -0.701041 0.676412 0.225745 255 255 255
1.043968 0.503636 -0.061752 0.490768 0.645985 -0.584613 255 255 255
1.147941 0.324073 0.062714 0.683248 -0.025575 -0.729728 255 255 255
0.964112 0.565192 0.142655 -0.207801 0.889828 -0.406201 255 255 255
0.749583 0.502593 0.094279 -0.785302 0.612659 0.088931 255 255 255
0.548506 0.279088 -0.222940 -0.911344 -0.009735 0.411512 255 255 255
0.604088 0.105407 -0.233210 -0.646626 -0.694723 0.314920 255 255 255
0.750524 0.048361 -0.299232 0.016358 -0.999695 0.018220 255 255 255
1.060783 0.119465 -0.032596 0.539598 -0.683767 -0.491165 255 255 255
0.985231 0.082700 0.179273 -0.128300 -0.954650 -0.268563 255 255 255
1.279836 0.679008 0.048867 0.458937 0.635639 -0.620716 255 255 255
0.766398 0.118422 0.123436 -0.729179 -0.660604 0.178472 255 255 255
0.801401 0.323819 0.259215 -0.976470 -0.026551 0.213965 255 255 255
1.310260 -0.016082 0.101621 0.516495 -0.679586 -0.520890 255 255 255
1.135350 0.790382 0.418707 0.172460 0.933073 0.315622 255 255 255
1.467956 0.354121 0.274066 0.996765 0.038240 -0.070620 255 255 255
0.747198 0.677121 0.331179 -0.744987 0.665670 0.042573 255 255 255
1.173560 -0.082601 0.484961 0.250771 -0.856319 0.451430 255 255 255
0.840954 0.353660 0.629600 -0.572893 0.037049 0.818751 255 255 255
0.777622 -0.017969 0.383933 -0.684591 -0.713858 0.147282 255 255 255
-1.633021 -0.093047 0.016400 -0.325083 -0.839625 0.435102 255 255 255
-1.455748 0.219794 0.268500 0.129032 -0.053438 0.990173 255 255 255
-1.895807 0.220484 -0.181240 -0.996979 -0.062014 0.046693 255 255 255
-1.817595 0.543417 -0.268797 -0.316904 0.687765 -0.653066 255 255 255
-1.775914 0.237753 -0.340034 -0.361370 0.018372 -0.932218 255 255 255
-1.671999 0.537156 0.055505 -0.373699 0.709586 0.597339 255 255 255
-1.552106 0.554425 -0.103288 0.334178 0.920347 -0.203040 255 255 255
-1.783271 -0.011545 -0.303234 -0.295175 -0.579974 -0.759270 255 255 255
-1.646608 0.442332 -0.278762 0.018250 0.594012 -0.804224 255 255 255
-1.399661 0.473954 0.066234 0.718741 0.667196 0.195502 255 255 255
-1.519555 0.456685 0.225028 -0.058016 0.501206 0.863338 255 255 255
-1.335854 0.237063 0.109706 0.945616 0.037996 0.322977 255 255 255
-1.513128 -0.075778 -0.142394 0.373058 -0.852840 -0.365307 255 255 255
-1.624582 0.086200 -0.300861 0.001129 -0.476241 -0.879299 255 255 255
-1.386272 0.401081 -0.061322 0.738670 0.646199 0.191687 255 255 255
-1.490322 -0.015967 0.195699 0.010498 -0.607044 0.794580 255 255 255
-1.370429 0.001302 0.036905 0.797601 -0.592212 0.114383 255 255 255
-1.327408 0.466542 -0.511107 -0.470382 0.728141 -0.498489 255 255 255
-1.626206 0.247463 -0.325122 -0.294717 0.024476 -0.955260 255 255 255
-1.485199 0.453471 -0.170781 0.300455 0.939207 -0.166051 255 255 255
-1.367227 0.093149 -0.080429 0.814814 -0.566607 0.122410 255 255 255
-1.304937 0.103222 -0.533652 -0.435194 -0.685293 -0.583880 255 255 255
-1.212336 0.500458 -0.391150 -0.048250 0.989319 0.137455 255 255 255
-1.344833 0.246759 -0.033327 0.923582 0.034944 0.381726 255 255 255
-1.105330 0.442862 -0.275753 0.392499 0.675008 0.624714 255 255 255
-1.459805 0.042895 -0.196258 0.348888 -0.870388 -0.347362 255 255 255
-1.249569 0.472507 -0.571419 -0.488998 0.722251 -0.489059 255 255 255
-1.341715 0.274840 -0.561978 -0.649220 -0.000641 -0.760552 255 255 255
-1.060324 0.272678 -0.246655 0.613300 -0.011994 0.789727 255 255 255
-1.184321 0.047503 -0.419258 0.015625 -0.999847 -0.007691 255 255 255
-1.084319 0.103145 -0.296833 0.462416 -0.693594 0.552324 255 255 255
-1.272918 0.281630 -0.623464 -0.658650 0.000092 -0.752434 255 255 255
-1.226982 0.107314 -0.594080 -0.445326 -0.690176 -0.570360 255 255 255
-1.146569 0.512357 -0.448344 -0.059511 0.991607 0.114505 255 255 255
-1.037459 0.453404 -0.331398 0.400800 0.676412 0.617878 255 255 255
-0.965158 0.503636 -0.822369 -0.692404 0.645985 -0.321268 255 255 255
-0.872124 0.324073 -0.955209 -0.882687 -0.025575 -0.469222 255 255 255
-0.746998 0.565192 -0.798596 -0.337901 0.889828 0.306558 255 255 255
-0.737738 0.502593 -0.578877 0.290719 0.612659 0.734886 255 255 255
-0.991523 0.279088 -0.302013 0.634999 -0.009735 0.772423 255 255 255
-1.015936 0.105407 -0.352992 0.472701 -0.694723 0.542100 255 255 255
-1.117871 0.048361 -0.477136 0.013306 -0.999695 -0.020539 255 255 255
-0.941398 0.119465 -0.846207 -0.614917 -0.683767 -0.392804 255 255 255
-0.717156 0.082700 -0.828537 -0.225806 -0.954650 0.193915 255 255 255
-0.919896 0.679008 -1.078925 -0.718955 0.635639 -0.281106 255 255 255
-0.713977 0.118422 -0.602715 0.362499 -0.660604 0.657369 255 255 255
-0.592030 0.323819 -0.671925 0.461257 -0.026551 0.886837 255 255 255
-0.876905 -0.016082 -1.122057 -0.637593 -0.679586 -0.362743 255 255 255
-0.525171 0.790382 -1.035916 0.259682 0.933073 -0.248817 255 255 255
-0.751565 0.354121 -1.319277 -0.328196 0.038240 -0.943815 255 255 255
-0.508418 0.677121 -0.638370 0.235450 0.665670 0.708090 255 255 255
-0.471178 -0.082601 -1.090086 0.370373 -0.856319 -0.359844 255 255 255
-0.244785 0.353660 -0.806724 0.939848 0.037049 0.339488 255 255 255
-0.465427 -0.017969 -0.681502 0.320780 -0.713858 0.622486 255 255 255
-0.416070 -0.221849 1.545954 -0.242866 -0.706534 0.664663 255 255 255
0.609902 0.526148 -1.186243 -0.007508 0.460250 -0.887753 255 255 255
0.634193 -0.028814 -1.144123 0.039491 -0.506241 -0.861476 255 255 255
1.238446 0.371221 0.631747 0.469527 0.087222 0.878567 255 255 255
-1.937490 0.526148 -0.110003 -0.855037 0.460250 0.238807 255 255 255
-1.903165 -0.028814 -0.144440 -0.841945 -0.506241 0.186590 255 255 255
-0.346400 0.371221 -1.191015 0.725669 0.087222 -0.682455 255 255 255
3 0 1 2
3 3 2 4
3 3 5 6
3 7 2 8
3 4 9 3
3 9 10 3
3 11 5 10
3 12 13 11
3 7 1 14
3 15 4 7
3 10 16 11
3 16 12 11
3 12 17 0
3 18 1 17
3 14 15 7
3 19 20 9
3 20 21 9
3 12 22 18
3 22 14 18
3 23 19 15
3 16 24 25
3 25 26 16
3 27 23 15
3 28 29 20
3 29 24 20
3 22 30 31
3 22 32 27
3 23 33 28
3 25 34 35
3 35 30 25
3 32 36 23
3 33 37 29
3 37 34 29
3 34 38 35
3 39 31 30
3 39 38 40
3 32 41 42
3 42 43 36
3 43 33 36
3 44 45 37
3 46 45 47
3 39 48 41
3 42 48 49
3 44 50 51
3 51 47 45
3 46 52 38
3 40 52 53
3 49 50 43
3 54 51 50
3 47 53 52
3 40 55 48
3 49 55 54
3 53 54 55
3 56 57 58
3 57 59 58
3 58 60 56
3 61 62 57
3 61 63 64
3 58 65 66
3 57 67 68
3 69 61 64
3 68 70 59
3 66 71 60
3 60 63 56
3 72 73 62
3 74 64 63
3 75 69 64
3 76 67 77
3 65 70 78
3 66 79 80
3 81 71 82
3 80 82 71
3 73 67 62
3 83 72 69
3 63 84 74
3 76 85 70
3 77 86 76
3 78 79 65
3 87 80 79
3 81 88 84
3 89 90 73
3 91 83 69
3 67 92 77
3 74 93 75
3 75 94 91
3 70 95 78
3 78 96 87
3 97 88 98
3 82 98 88
3 99 90 100
3 89 101 102
3 103 104 101
3 92 105 77
3 84 106 74
3 107 91 94
3 86 106 85
3 105 93 86
3 97 96 95
3 87 98 108
3 92 100 104
3 109 101 83
3 105 107 94
3 95 106 97
3 92 110 111
3 109 103 112
3 111 103 107
3 113 114 115
3 115 116 117
3 116 118 119
3 120 115 117
3 121 117 116
3 119 121 116
3 118 122 119
3 123 124 122
3 113 120 125
3 117 126 120
3 127 119 122
3 124 127 122
3 124 128 129
3 129 113 125
3 126 125 120
3 130 131 121
3 132 130 121
3 133 124 129
3 125 133 129
3 131 134 126
3 127 135 132
3 136 137 127
3 134 138 126
3 139 140 130
3 135 139 130
3 133 141 136
3 133 142 143
3 134 144 145
3 137 146 135
3 141 147 137
3 145 142 134
3 144 148 149
3 148 146 150
3 146 151 150
3 152 143 153
3 152 151 147
3 153 142 154
3 154 155 156
3 155 144 149
3 157 149 148
3 150 157 148
3 152 158 159
3 154 158 153
3 149 160 155
3 161 162 157
3 163 150 151
3 159 163 151
3 160 156 155
3 162 164 160
3 165 161 163
3 166 159 158
3 156 166 158
3 164 165 166
3 167 168 169
3 169 170 171
3 170 172 173
3 174 169 171
3 175 171 170
3 173 175 170
3 172 176 173
3 177 178 176
3 167 174 179
3 171 180 174
3 181 173 176
3 178 181 176
3 178 182 183
3 183 167 179
3 180 179 174
3 184 185 175
3 186 184 175
3 187 178 183
3 179 187 183
3 185 188 180
3 181 189 186
3 190 191 181
3 188 192 180
3 193 194 184
3 189 193 184
3 187 195 190
3 187 196 197
3 188 198 199
3 191 200 189
3 195 201 191
3 199 196 188
3 198 202 203
3 202 200 204
3 200 205 204
3 206 197 207
3 206 205 201
3 207 196 208
3 208 209 210
3 209 198 203
3 211 203 202
3 204 211 202
3 206 212 213
3 208 212 207
3 203 214 209
3 215 216 211
3 217 204 205
3 213 217 205
3 214 210 209
3 216 218 214
3 219 215 217
3 220 213 212
3 210 220 212
3 218 219 220
3 2 6 5
3 5 13 0
3 0 17 1
3 1 8 2
3 2 5 0
3 3 6 2
3 3 10 5
3 7 4 2
3 4 19 9
3 9 21 10
3 11 13 5
3 12 0 13
3 7 8 1
3 15 19 4
3 10 21 16
3 16 26 12
3 12 18 17
3 18 14 1
3 14 27 15
3 19 28 20
3 20 24 21
3 12 26 22
3 22 27 14
3 23 28 19
3 16 21 24
3 25 30 26
3 27 32 23
3 28 33 29
3 29 34 24
3 22 26 30
3 22 31 32
3 23 36 33
3 25 24 34
3 35 39 30
3 32 42 36
3 33 44 37
3 37 46 34
3 34 46 38
3 39 41 31
3 39 35 38
3 32 31 41
3 42 49 43
3 43 44 33
3 44 51 45
3 46 37 45
3 39 40 48
3 42 41 48
3 44 43 50
3 51 221 47
3 46 47 52
3 40 38 52
3 49 54 50
3 54 221 51
3 47 221 53
3 40 53 55
3 49 48 55
3 53 221 54
3 56 61 57
3 57 68 59
3 58 66 60
3 61 72 62
3 61 56 63
3 58 59 65
3 57 62 67
3 69 72 61
3 68 76 70
3 66 80 71
3 60 81 63
3 72 89 73
3 74 75 64
3 75 91 69
3 76 68 67
3 65 59 70
3 66 65 79
3 81 60 71
3 80 108 82
3 73 99 67
3 83 89 72
3 63 81 84
3 76 86 85
3 77 105 86
3 78 87 79
3 87 108 80
3 81 82 88
3 89 102 90
3 91 109 83
3 67 99 92
3 74 106 93
3 75 93 94
3 70 85 95
3 78 95 96
3 97 84 88
3 82 108 98
3 99 73 90
3 89 83 101
3 90 102 101
3 101 112 103
3 103 110 104
3 104 100 90
3 90 101 104
3 92 111 105
3 84 97 106
3 107 109 91
3 86 93 106
3 105 94 93
3 97 98 96
3 87 96 98
3 92 99 100
3 109 112 101
3 105 111 107
3 95 85 106
3 92 104 110
3 109 107 103
3 111 110 103
3 118 222 115
3 115 223 113
3 113 128 114
3 114 123 118
3 118 115 114
3 115 222 116
3 116 222 118
3 120 223 115
3 121 131 117
3 119 132 121
3 118 123 122
3 123 114 124
3 113 223 120
3 117 131 126
3 127 132 119
3 124 136 127
3 124 114 128
3 129 128 113
3 126 138 125
3 130 140 131
3 132 135 130
3 133 136 124
3 125 138 133
3 131 140 134
3 127 137 135
3 136 141 137
3 134 142 138
3 139 144 140
3 135 146 139
3 133 143 141
3 133 138 142
3 134 140 144
3 137 147 146
3 141 152 147
3 145 154 142
3 144 139 148
3 148 139 146
3 146 147 151
3 152 141 143
3 152 159 151
3 153 143 142
3 154 145 155
3 155 145 144
3 157 162 149
3 150 161 157
3 152 153 158
3 154 156 158
3 149 162 160
3 161 224 162
3 163 161 150
3 159 165 163
3 160 164 156
3 162 224 164
3 165 224 161
3 166 165 159
3 156 164 166
3 164 224 165
3 172 225 169
3 169 226 167
3 167 182 168
3 168 177 172
3 172 169 168
3 169 225 170
3 170 225 172
3 174 226 169
3 175 185 171
3 173 186 175
3 172 177 176
3 177 168 178
3 167 226 174
3 171 185 180
3 181 186 173
3 178 190 181
3 178 168 182
3 183 182 167
3 180 192 179
3 184 194 185
3 186 189 184
3 187 190 178
3 179 192 187
3 185 194 188
3 181 191 189
3 190 195 191
3 188 196 192
3 193 198 194
3 189 200 193
3 187 197 195
3 187 192 196
3 188 194 198
3 191 201 200
3 195 206 201
3 199 208 196
3 198 193 202
3 202 193 200
3 200 201 205
3 206 195 197
3 206 213 205
3 207 197 196
3 208 199 209
3 209 199 198
3 211 216 203
3 204 215 211
3 206 207 212
3 208 210 212
3 203 216 214
3 215 227 216
3 217 215 204
3 213 219 217
3 214 218 210
3 216 227 218
3 219 227 215
3 220 219 213
3 210 218 220
3 218 227 219
