ply
format ascii 1.0
comment Created by Blender 2.77 (sub 0) - www.blender.org, source file: 'DarkEssence.blend'
element vertex 144
property float x
property float y
property float z
property float nx
property float ny
property float nz
property uchar red
property uchar green
property uchar blue
element face 48
property list uchar uint vertex_indices
end_header
-0.382520 0.336138 0.957315 0.218883 0.092080 -0.971397 26 26 26
-0.788078 -0.211492 0.814021 0.218883 0.092080 -0.971397 26 26 26
-1.046879 0.204819 0.795168 0.218883 0.092080 -0.971397 26 26 26
-0.382520 0.336138 0.957315 -0.278763 0.843588 0.458967 26 26 26
-1.046879 0.204819 0.795168 -0.278763 0.843588 0.458967 26 26 26
-0.932474 0.006563 1.229051 -0.278763 0.843588 0.458967 26 26 26
-0.382520 0.336138 0.957315 0.613171 -0.591191 0.523941 26 26 26
-0.932474 0.006563 1.229051 0.613171 -0.591191 0.523941 26 26 26
-0.788078 -0.211492 0.814021 0.613171 -0.591191 0.523941 26 26 26
-0.788078 -0.211492 0.814021 -0.848782 -0.528447 -0.017660 26 26 26
-0.932474 0.006563 1.229051 -0.848782 -0.528447 -0.017660 26 26 26
-1.046879 0.204819 0.795168 -0.848782 -0.528447 -0.017660 26 26 26
-0.690060 0.476182 0.641803 0.538988 -0.352981 0.764785 26 26 26
-0.931734 -0.164721 0.516320 0.538988 -0.352981 0.764785 26 26 26
-0.519394 -0.082958 0.263458 0.538988 -0.352981 0.764785 26 26 26
-0.690060 0.476182 0.641803 0.496555 0.585292 -0.640989 26 26 26
-0.519394 -0.082958 0.263458 0.496555 0.585292 -0.640989 26 26 26
-0.944046 0.107525 0.108424 0.496555 0.585292 -0.640989 26 26 26
-0.690060 0.476182 0.641803 -0.924536 0.303502 0.230477 26 26 26
-0.944046 0.107525 0.108424 -0.924536 0.303502 0.230477 26 26 26
-0.931734 -0.164721 0.516320 -0.924536 0.303502 0.230477 26 26 26
-0.931734 -0.164721 0.516320 -0.170291 -0.821970 -0.543477 26 26 26
-0.944046 0.107525 0.108424 -0.170291 -0.821970 -0.543477 26 26 26
-0.519394 -0.082958 0.263458 -0.170291 -0.821970 -0.543477 26 26 26
-0.088197 0.561124 0.402015 -0.511992 0.217288 0.831053 26 26 26
-0.371306 -0.075032 0.393927 -0.511992 0.217288 0.831053 26 26 26
0.046354 -0.075032 0.651238 -0.511992 0.217288 0.831053 26 26 26
-0.088197 0.561124 0.402015 0.975709 0.217288 0.027872 26 26 26
0.046354 -0.075032 0.651238 0.975709 0.217288 0.027872 26 26 26
0.060361 -0.075032 0.160878 0.975709 0.217288 0.027872 26 26 26
-0.088197 0.561124 0.402015 -0.463717 0.217288 -0.858925 26 26 26
0.060361 -0.075032 0.160878 -0.463717 0.217288 -0.858925 26 26 26
-0.371306 -0.075032 0.393927 -0.463717 0.217288 -0.858925 26 26 26
-0.371306 -0.075032 0.393927 -0.000000 -1.000000 -0.000000 26 26 26
0.060361 -0.075032 0.160878 -0.000000 -1.000000 -0.000000 26 26 26
0.046354 -0.075032 0.651238 -0.000000 -1.000000 -0.000000 26 26 26
0.409543 -0.012259 -0.387394 0.017525 -0.735365 -0.677445 26 26 26
-0.373305 -0.075032 -0.339507 0.017525 -0.735365 -0.677445 26 26 26
-0.265980 0.093291 -0.519445 0.017525 -0.735365 -0.677445 26 26 26
0.409543 -0.012259 -0.387394 0.232401 0.805646 -0.544908 26 26 26
-0.265980 0.093291 -0.519445 0.232401 0.805646 -0.544908 26 26 26
-0.130579 0.330028 -0.111682 0.232401 0.805646 -0.544908 26 26 26
0.409543 -0.012259 -0.387394 0.094062 -0.530278 0.842590 26 26 26
-0.130579 0.330028 -0.111682 0.094062 -0.530278 0.842590 26 26 26
-0.373305 -0.075032 -0.339507 0.094062 -0.530278 0.842590 26 26 26
-0.373305 -0.075032 -0.339507 -0.852596 0.522186 -0.020056 26 26 26
-0.130579 0.330028 -0.111682 -0.852596 0.522186 -0.020056 26 26 26
-0.265980 0.093291 -0.519445 -0.852596 0.522186 -0.020056 26 26 26
-0.488389 0.275249 -0.751399 -0.758759 0.629533 -0.167255 26 26 26
-0.869807 -0.075032 -0.339507 -0.758759 0.629533 -0.167255 26 26 26
-0.694377 0.202650 -0.090182 -0.758759 0.629533 -0.167255 26 26 26
-0.488389 0.275249 -0.751399 0.577051 0.772657 0.264602 26 26 26
-0.694377 0.202650 -0.090182 0.577051 0.772657 0.264602 26 26 26
-0.293756 -0.066839 -0.176940 0.577051 0.772657 0.264602 26 26 26
-0.488389 0.275249 -0.751399 0.165603 -0.821654 -0.545399 26 26 26
-0.293756 -0.066839 -0.176940 0.165603 -0.821654 -0.545399 26 26 26
-0.869807 -0.075032 -0.339507 0.165603 -0.821654 -0.545399 26 26 26
-0.869807 -0.075032 -0.339507 -0.214864 -0.573835 0.790283 26 26 26
-0.293756 -0.066839 -0.176940 -0.214864 -0.573835 0.790283 26 26 26
-0.694377 0.202650 -0.090182 -0.214864 -0.573835 0.790283 26 26 26
-0.833812 0.027391 -0.670456 -0.473142 0.123914 -0.872228 26 26 26
-1.470734 -0.075032 -0.339507 -0.473142 0.123914 -0.872228 26 26 26
-1.408691 0.224655 -0.330587 -0.473142 0.123914 -0.872228 26 26 26
-0.833812 0.027391 -0.670456 0.262970 0.958348 -0.111429 26 26 26
-1.408691 0.224655 -0.330587 0.262970 0.958348 -0.111429 26 26 26
-1.036801 0.159014 -0.017478 0.262970 0.958348 -0.111429 26 26 26
-0.833812 0.027391 -0.670456 0.290284 -0.916576 0.274997 26 26 26
-1.036801 0.159014 -0.017478 0.290284 -0.916576 0.274997 26 26 26
-1.470734 -0.075032 -0.339507 0.290284 -0.916576 0.274997 26 26 26
-1.470734 -0.075032 -0.339507 -0.629185 0.107346 0.769807 26 26 26
-1.036801 0.159014 -0.017478 -0.629185 0.107346 0.769807 26 26 26
-1.408691 0.224655 -0.330587 -0.629185 0.107346 0.769807 26 26 26
-0.045437 0.102344 -0.903548 0.200717 -0.974550 0.099826 26 26 26
-0.815001 -0.075032 -1.087842 0.200717 -0.974550 0.099826 26 26 26
-0.591947 -0.051514 -1.306740 0.200717 -0.974550 0.099826 26 26 26
-0.045437 0.102344 -0.903548 0.397262 0.537720 -0.743666 26 26 26
-0.591947 -0.051514 -1.306740 0.397262 0.537720 -0.743666 26 26 26
-0.674720 0.360230 -1.053238 0.397262 0.537720 -0.743666 26 26 26
-0.045437 0.102344 -0.903548 -0.232361 -0.002437 0.972626 26 26 26
-0.674720 0.360230 -1.053238 -0.232361 -0.002437 0.972626 26 26 26
-0.815001 -0.075032 -1.087842 -0.232361 -0.002437 0.972626 26 26 26
-0.815001 -0.075032 -1.087842 -0.688016 0.275128 -0.671520 26 26 26
-0.674720 0.360230 -1.053238 -0.688016 0.275128 -0.671520 26 26 26
-0.591947 -0.051514 -1.306740 -0.688016 0.275128 -0.671520 26 26 26
0.732727 0.363532 -1.283418 0.846772 -0.481839 0.225407 26 26 26
0.405251 0.029278 -0.767721 0.846772 -0.481839 0.225407 26 26 26
0.372356 -0.224359 -1.186332 0.846772 -0.481839 0.225407 26 26 26
0.732727 0.363532 -1.283418 -0.252213 -0.005199 -0.967658 26 26 26
0.372356 -0.224359 -1.186332 -0.252213 -0.005199 -0.967658 26 26 26
0.086373 0.167579 -1.113898 -0.252213 -0.005199 -0.967658 26 26 26
0.732727 0.363532 -1.283418 -0.138843 0.868940 0.475044 26 26 26
0.086373 0.167579 -1.113898 -0.138843 0.868940 0.475044 26 26 26
0.405251 0.029278 -0.767721 -0.138843 0.868940 0.475044 26 26 26
0.405251 0.029278 -0.767721 -0.699098 -0.585862 0.409912 26 26 26
0.086373 0.167579 -1.113898 -0.699098 -0.585862 0.409912 26 26 26
0.372356 -0.224359 -1.186332 -0.699098 -0.585862 0.409912 26 26 26
0.792701 0.004940 0.790618 0.123663 -0.834712 -0.536622 26 26 26
0.107774 -0.075032 0.757174 0.123663 -0.834712 -0.536622 26 26 26
0.138789 0.058119 0.557206 0.123663 -0.834712 -0.536622 26 26 26
0.792701 0.004940 0.790618 0.276470 0.747261 -0.604289 26 26 26
0.138789 0.058119 0.557206 0.276470 0.747261 -0.604289 26 26 26
0.207239 0.348002 0.946990 0.276470 0.747261 -0.604289 26 26 26
0.792701 0.004940 0.790618 0.003340 -0.410031 0.912065 26 26 26
0.207239 0.348002 0.946990 0.003340 -0.410031 0.912065 26 26 26
0.107774 -0.075032 0.757174 0.003340 -0.410031 0.912065 26 26 26
0.107774 -0.075032 0.757174 -0.973563 0.228417 0.001093 26 26 26
0.207239 0.348002 0.946990 -0.973563 0.228417 0.001093 26 26 26
0.138789 0.058119 0.557206 -0.973563 0.228417 0.001093 26 26 26
0.489140 0.049020 0.252554 0.145315 -0.970662 0.191568 26 26 26
0.217877 -0.075032 -0.170237 0.145315 -0.970662 0.191568 26 26 26
0.649917 -0.058921 -0.416333 0.145315 -0.970662 0.191568 26 26 26
0.489140 0.049020 0.252554 0.969640 -0.045087 0.240344 26 26 26
0.649917 -0.058921 -0.416333 0.969640 -0.045087 0.240344 26 26 26
0.647010 0.420962 -0.314585 0.969640 -0.045087 0.240344 26 26 26
0.489140 0.049020 0.252554 -0.695569 0.674122 0.248483 26 26 26
0.647010 0.420962 -0.314585 -0.695569 0.674122 0.248483 26 26 26
0.217877 -0.075032 -0.170237 -0.695569 0.674122 0.248483 26 26 26
0.217877 -0.075032 -0.170237 -0.492066 0.177715 -0.852226 26 26 26
0.647010 0.420962 -0.314585 -0.492066 0.177715 -0.852226 26 26 26
0.649917 -0.058921 -0.416333 -0.492066 0.177715 -0.852226 26 26 26
1.196460 0.375541 0.162307 0.846013 -0.434946 0.308357 26 26 26
0.841930 0.036180 0.656323 0.846013 -0.434946 0.308357 26 26 26
0.857228 -0.227249 0.242778 0.846013 -0.434946 0.308357 26 26 26
1.196460 0.375541 0.162307 -0.167397 -0.037313 -0.985183 26 26 26
0.857228 -0.227249 0.242778 -0.167397 -0.037313 -0.985183 26 26 26
0.547882 0.151556 0.280993 -0.167397 -0.037313 -0.985183 26 26 26
1.196460 0.375541 0.162307 -0.220120 0.870570 0.440063 26 26 26
0.547882 0.151556 0.280993 -0.220120 0.870570 0.440063 26 26 26
0.841930 0.036180 0.656323 -0.220120 0.870570 0.440063 26 26 26
0.841930 0.036180 0.656323 -0.703361 -0.611033 0.363210 26 26 26
0.547882 0.151556 0.280993 -0.703361 -0.611033 0.363210 26 26 26
0.857228 -0.227249 0.242778 -0.703361 -0.611033 0.363210 26 26 26
-1.027692 0.027391 0.556786 0.638424 0.123914 -0.759645 26 26 26
-1.568863 -0.075032 0.085266 0.638424 0.123914 -0.759645 26 26 26
-1.554447 0.224655 0.146266 0.638424 0.123914 -0.759645 26 26 26
-1.027692 0.027391 0.556786 0.199975 0.958348 0.203911 26 26 26
-1.554447 0.224655 0.146266 0.199975 0.958348 0.203911 26 26 26
-1.709650 0.159014 0.606974 0.199975 0.958348 0.203911 26 26 26
-1.027692 0.027391 0.556786 -0.149616 -0.916576 0.370814 26 26 26
-1.709650 0.159014 0.606974 -0.149616 -0.916576 0.370814 26 26 26
-1.568863 -0.075032 0.085266 -0.149616 -0.916576 0.370814 26 26 26
-1.568863 -0.075032 0.085266 -0.946721 0.107346 -0.303637 26 26 26
-1.709650 0.159014 0.606974 -0.946721 0.107346 -0.303637 26 26 26
-1.554447 0.224655 0.146266 -0.946721 0.107346 -0.303637 26 26 26
3 0 1 2
3 3 4 5
3 6 7 8
3 9 10 11
3 12 13 14
3 15 16 17
3 18 19 20
3 21 22 23
3 24 25 26
3 27 28 29
3 30 31 32
3 33 34 35
3 36 37 38
3 39 40 41
3 42 43 44
3 45 46 47
3 48 49 50
3 51 52 53
3 54 55 56
3 57 58 59
3 60 61 62
3 63 64 65
3 66 67 68
3 69 70 71
3 72 73 74
3 75 76 77
3 78 79 80
3 81 82 83
3 84 85 86
3 87 88 89
3 90 91 92
3 93 94 95
3 96 97 98
3 99 100 101
3 102 103 104
3 105 106 107
3 108 109 110
3 111 112 113
3 114 115 116
3 117 118 119
3 120 121 122
3 123 124 125
3 126 127 128
3 129 130 131
3 132 133 134
3 135 136 137
3 138 139 140
3 141 142 143
