ply
format ascii 1.0
comment Created by Blender 2.77 (sub 0) - www.blender.org, source file: 'HoldingBag.blend'
element vertex 672
property float x
property float y
property float z
property float nx
property float ny
property float nz
property uchar red
property uchar green
property uchar blue
element face 224
property list uchar uint vertex_indices
end_header
-0.000819 0.139437 0.116892 -0.330442 -0.879757 0.341811 152 155 129
-0.081319 0.146569 0.057426 -0.330442 -0.879757 0.341811 152 155 129
0.000276 0.135863 0.108752 -0.330442 -0.879757 0.341811 152 155 129
-0.081319 0.146569 0.057426 -0.319255 -0.891435 0.321590 152 155 129
-0.074253 0.142554 0.053313 -0.319255 -0.891435 0.321590 152 155 129
0.000276 0.135863 0.108752 -0.319255 -0.891435 0.321590 152 155 129
0.108280 0.144998 -0.095652 0.349531 -0.889269 -0.295006 152 155 129
0.147716 0.139483 -0.032303 0.349531 -0.889269 -0.295006 152 155 129
0.139388 0.135917 -0.031421 0.349531 -0.889269 -0.295006 152 155 129
0.102235 0.140820 -0.089483 0.329338 -0.899635 -0.286692 152 155 129
0.108280 0.144998 -0.095652 0.329338 -0.899635 -0.286692 152 155 129
0.139388 0.135917 -0.031421 0.329338 -0.899635 -0.286692 152 155 129
0.131023 0.156212 -0.028272 -0.318057 0.847764 0.424425 152 155 129
0.139352 0.159778 -0.029154 -0.318057 0.847764 0.424425 152 155 129
0.101809 0.172712 -0.083123 -0.318057 0.847764 0.424425 152 155 129
0.131023 0.156212 -0.028272 -0.222704 0.894482 0.387692 152 155 129
0.101809 0.172712 -0.083123 -0.222704 0.894482 0.387692 152 155 129
0.095764 0.168533 -0.076954 -0.222704 0.894482 0.387692 152 155 129
0.131023 0.156212 -0.028272 -0.402643 0.869997 -0.284576 152 155 129
0.101360 0.174705 0.070234 -0.402643 0.869997 -0.284576 152 155 129
0.139352 0.159778 -0.029154 -0.402643 0.869997 -0.284576 152 155 129
0.131023 0.156212 -0.028272 -0.251958 0.934536 -0.251317 152 155 129
0.095438 0.171527 0.064356 -0.251958 0.934536 -0.251317 152 155 129
0.101360 0.174705 0.070234 -0.251958 0.934536 -0.251317 152 155 129
0.147716 0.139483 -0.032303 0.398580 -0.912535 0.091722 152 155 129
0.112268 0.135337 0.080482 0.398580 -0.912535 0.091722 152 155 129
0.106347 0.132159 0.074604 0.398580 -0.912535 0.091722 152 155 129
0.139388 0.135917 -0.031421 0.400182 -0.911766 0.092394 152 155 129
0.147716 0.139483 -0.032303 0.400182 -0.911766 0.092394 152 155 129
0.106347 0.132159 0.074604 0.400182 -0.911766 0.092394 152 155 129
0.112268 0.135337 0.080482 0.094941 -0.912610 0.397655 152 155 129
-0.000819 0.139437 0.116892 0.094941 -0.912610 0.397655 152 155 129
0.106347 0.132159 0.074604 0.094941 -0.912610 0.397655 152 155 129
-0.000819 0.139437 0.116892 0.100791 -0.905899 0.411324 152 155 129
0.000276 0.135863 0.108752 0.100791 -0.905899 0.411324 152 155 129
0.106347 0.132159 0.074604 0.100791 -0.905899 0.411324 152 155 129
0.002909 0.160565 0.108133 -0.284583 0.863080 -0.417259 152 155 129
0.101360 0.174705 0.070234 -0.284583 0.863080 -0.417259 152 155 129
0.004004 0.156991 0.099993 -0.284583 0.863080 -0.417259 152 155 129
0.101360 0.174705 0.070234 -0.248055 0.934517 -0.255239 152 155 129
0.095438 0.171527 0.064356 -0.248055 0.934517 -0.255239 152 155 129
0.004004 0.156991 0.099993 -0.248055 0.934517 -0.255239 152 155 129
0.101158 0.193826 0.070472 0.409565 -0.337517 0.847549 152 155 129
0.003666 0.171561 0.108717 0.409565 -0.337517 0.847549 152 155 129
0.095438 0.171527 0.064356 0.409565 -0.337517 0.847549 152 155 129
0.095438 0.171527 0.064356 0.384554 -0.467604 0.795905 152 155 129
0.003666 0.171561 0.108717 0.384554 -0.467604 0.795905 152 155 129
0.004004 0.156991 0.099993 0.384554 -0.467604 0.795905 152 155 129
0.003666 0.171561 0.108717 -0.692561 -0.382347 0.611694 152 155 129
-0.058330 0.180190 0.043919 -0.692561 -0.382347 0.611694 152 155 129
0.004004 0.156991 0.099993 -0.692561 -0.382347 0.611694 152 155 129
-0.065925 0.201703 0.050618 -0.681404 -0.425916 0.595218 152 155 129
-0.058330 0.180190 0.043919 -0.681404 -0.425916 0.595218 152 155 129
0.003666 0.171561 0.108717 -0.681404 -0.425916 0.595218 152 155 129
-0.065925 0.201703 0.050618 -0.894424 -0.386065 0.225742 152 155 129
-0.074928 0.189222 -0.006398 -0.894424 -0.386065 0.225742 152 155 129
-0.058330 0.180190 0.043919 -0.894424 -0.386065 0.225742 152 155 129
-0.058330 0.180190 0.043919 -0.809212 -0.563650 0.165755 152 155 129
-0.074928 0.189222 -0.006398 -0.809212 -0.563650 0.165755 152 155 129
-0.065140 0.175109 -0.006607 -0.809212 -0.563650 0.165755 152 155 129
-0.074928 0.189222 -0.006398 -0.803797 -0.554257 -0.216123 152 155 129
-0.059188 0.180567 -0.042742 -0.803797 -0.554257 -0.216123 152 155 129
-0.065140 0.175109 -0.006607 -0.803797 -0.554257 -0.216123 152 155 129
-0.074928 0.189222 -0.006398 -0.870289 -0.404871 -0.280495 152 155 129
-0.067114 0.201965 -0.049037 -0.870289 -0.404871 -0.280495 152 155 129
-0.059188 0.180567 -0.042742 -0.870289 -0.404871 -0.280495 152 155 129
-0.059188 0.180567 -0.042742 -0.556063 -0.417407 -0.718724 152 155 129
-0.067114 0.201965 -0.049037 -0.556063 -0.417407 -0.718724 152 155 129
0.046923 0.171232 -0.119416 -0.556063 -0.417407 -0.718724 152 155 129
-0.059188 0.180567 -0.042742 -0.548696 -0.450040 -0.704555 152 155 129
0.046923 0.171232 -0.119416 -0.548696 -0.450040 -0.704555 152 155 129
0.047702 0.156815 -0.110815 -0.548696 -0.450040 -0.704555 152 155 129
0.046923 0.171232 -0.119416 0.592073 -0.389065 -0.705747 152 155 129
0.095764 0.168533 -0.076954 0.592073 -0.389065 -0.705747 152 155 129
0.047702 0.156815 -0.110815 0.592073 -0.389065 -0.705747 152 155 129
0.046923 0.171232 -0.119416 0.598896 -0.366291 -0.712148 152 155 129
0.101153 0.190717 -0.083832 0.598896 -0.366291 -0.712148 152 155 129
0.095764 0.168533 -0.076954 0.598896 -0.366291 -0.712148 152 155 129
0.131023 0.156212 -0.028272 0.822838 -0.417810 0.385192 152 155 129
0.138988 0.171373 -0.028841 0.822838 -0.417810 0.385192 152 155 129
0.095438 0.171527 0.064356 0.822838 -0.417810 0.385192 152 155 129
0.101158 0.193826 0.070472 0.855278 -0.329145 0.400204 152 155 129
0.095438 0.171527 0.064356 0.855278 -0.329145 0.400204 152 155 129
0.138988 0.171373 -0.028841 0.855278 -0.329145 0.400204 152 155 129
0.101153 0.190717 -0.083832 0.704307 -0.360675 -0.611445 152 155 129
0.138988 0.171373 -0.028841 0.704307 -0.360675 -0.611445 152 155 129
0.095764 0.168533 -0.076954 0.704307 -0.360675 -0.611445 152 155 129
0.131023 0.156212 -0.028272 0.696703 -0.388640 -0.602963 152 155 129
0.095764 0.168533 -0.076954 0.696703 -0.388640 -0.602963 152 155 129
0.138988 0.171373 -0.028841 0.696703 -0.388640 -0.602963 152 155 129
0.075331 0.182998 0.047031 -0.146988 0.949641 -0.276725 152 155 129
0.101158 0.193826 0.070472 -0.146988 0.949641 -0.276725 152 155 129
0.102427 0.166603 -0.023623 -0.146988 0.949641 -0.276725 152 155 129
0.101158 0.193826 0.070472 -0.162988 0.947172 -0.276226 152 155 129
0.138988 0.171373 -0.028841 -0.162988 0.947172 -0.276226 152 155 129
0.102427 0.166603 -0.023623 -0.162988 0.947172 -0.276226 152 155 129
0.003666 0.171561 0.108717 -0.269255 0.954131 -0.130905 152 155 129
0.101158 0.193826 0.070472 -0.269255 0.954131 -0.130905 152 155 129
0.011015 0.168599 0.072009 -0.269255 0.954131 -0.130905 152 155 129
0.101158 0.193826 0.070472 -0.268982 0.952384 -0.143577 152 155 129
0.075331 0.182998 0.047031 -0.268982 0.952384 -0.143577 152 155 129
0.011015 0.168599 0.072009 -0.268982 0.952384 -0.143577 152 155 129
-0.043837 0.194049 0.024875 0.382068 0.922583 0.053515 152 155 129
-0.065925 0.201703 0.050618 0.382068 0.922583 0.053515 152 155 129
0.011015 0.168599 0.072009 0.382068 0.922583 0.053515 152 155 129
-0.065925 0.201703 0.050618 0.394111 0.919051 0.004732 152 155 129
0.003666 0.171561 0.108717 0.394111 0.919051 0.004732 152 155 129
0.011015 0.168599 0.072009 0.394111 0.919051 0.004732 152 155 129
-0.074928 0.189222 -0.006398 0.017081 0.985455 -0.169074 152 155 129
-0.043837 0.194049 0.024875 0.017081 0.985455 -0.169074 152 155 129
-0.047507 0.188978 -0.005049 0.017081 0.985455 -0.169074 152 155 129
-0.065925 0.201703 0.050618 0.075006 0.971579 -0.224520 152 155 129
-0.043837 0.194049 0.024875 0.075006 0.971579 -0.224520 152 155 129
-0.074928 0.189222 -0.006398 0.075006 0.971579 -0.224520 152 155 129
-0.044163 0.194289 -0.025866 0.026403 0.956456 0.290679 152 155 129
-0.067114 0.201965 -0.049037 0.026403 0.956456 0.290679 152 155 129
-0.074928 0.189222 -0.006398 0.026403 0.956456 0.290679 152 155 129
-0.044163 0.194289 -0.025866 -0.003525 0.969092 0.246673 152 155 129
-0.074928 0.189222 -0.006398 -0.003525 0.969092 0.246673 152 155 129
-0.047507 0.188978 -0.005049 -0.003525 0.969092 0.246673 152 155 129
0.046923 0.171232 -0.119416 0.307959 0.947577 0.085207 152 155 129
-0.067114 0.201965 -0.049037 0.307959 0.947577 0.085207 152 155 129
0.045278 0.168326 -0.081155 0.307959 0.947577 0.085207 152 155 129
-0.067114 0.201965 -0.049037 0.293423 0.955631 0.025908 152 155 129
-0.044163 0.194289 -0.025866 0.293423 0.955631 0.025908 152 155 129
0.045278 0.168326 -0.081155 0.293423 0.955631 0.025908 152 155 129
0.077908 0.179112 -0.059278 -0.366710 0.925926 0.090466 152 155 129
0.101153 0.190717 -0.083832 -0.366710 0.925926 0.090466 152 155 129
0.045278 0.168326 -0.081155 -0.366710 0.925926 0.090466 152 155 129
0.101153 0.190717 -0.083832 -0.369164 0.927760 0.054588 152 155 129
0.046923 0.171232 -0.119416 -0.369164 0.927760 0.054588 152 155 129
0.045278 0.168326 -0.081155 -0.369164 0.927760 0.054588 152 155 129
0.138988 0.171373 -0.028841 -0.067654 0.925696 0.372170 152 155 129
0.101153 0.190717 -0.083832 -0.067654 0.925696 0.372170 152 155 129
0.102427 0.166603 -0.023623 -0.067654 0.925696 0.372170 152 155 129
0.101153 0.190717 -0.083832 -0.068992 0.925601 0.372160 152 155 129
0.077908 0.179112 -0.059278 -0.068992 0.925601 0.372160 152 155 129
0.102427 0.166603 -0.023623 -0.068992 0.925601 0.372160 152 155 129
-0.065563 0.185074 -0.047004 -0.893735 0.433220 -0.116439 152 155 129
-0.079571 0.152632 -0.060192 -0.893735 0.433220 -0.116439 152 155 129
-0.087451 0.150089 -0.009168 -0.893735 0.433220 -0.116439 152 155 129
-0.074082 0.179207 -0.006610 -0.897047 0.423072 -0.127738 152 155 129
-0.065563 0.185074 -0.047004 -0.897047 0.423072 -0.127738 152 155 129
-0.087451 0.150089 -0.009168 -0.897047 0.423072 -0.127738 152 155 129
-0.079571 0.152632 -0.060192 -0.391758 0.486582 -0.780874 152 155 129
-0.065563 0.185074 -0.047004 -0.391758 0.486582 -0.780874 152 155 129
0.047204 0.149766 -0.125580 -0.391758 0.486582 -0.780874 152 155 129
-0.065563 0.185074 -0.047004 -0.387125 0.494889 -0.777958 152 155 129
0.047937 0.161454 -0.118510 -0.387125 0.494889 -0.777958 152 155 129
0.047204 0.149766 -0.125580 -0.387125 0.494889 -0.777958 152 155 129
-0.065396 0.184204 0.048031 -0.906182 0.409621 0.105094 152 155 129
-0.087451 0.150089 -0.009168 -0.906182 0.409621 0.105094 152 155 129
-0.081319 0.146569 0.057426 -0.906182 0.409621 0.105094 152 155 129
-0.065396 0.184204 0.048031 -0.907109 0.407076 0.106970 152 155 129
-0.074082 0.179207 -0.006610 -0.907109 0.407076 0.106970 152 155 129
-0.087451 0.150089 -0.009168 -0.907109 0.407076 0.106970 152 155 129
0.047204 0.149766 -0.125580 0.420477 0.453467 -0.785854 152 155 129
0.101809 0.172712 -0.083123 0.420477 0.453467 -0.785854 152 155 129
0.108280 0.144998 -0.095652 0.420477 0.453467 -0.785854 152 155 129
0.047937 0.161454 -0.118510 0.422931 0.449454 -0.786842 152 155 129
0.101809 0.172712 -0.083123 0.422931 0.449454 -0.786842 152 155 129
0.047204 0.149766 -0.125580 0.422931 0.449454 -0.786842 152 155 129
-0.065396 0.184204 0.048031 -0.519067 0.407197 0.751506 152 155 129
-0.081319 0.146569 0.057426 -0.519067 0.407197 0.751506 152 155 129
-0.000819 0.139437 0.116892 -0.519067 0.407197 0.751506 152 155 129
0.002909 0.160565 0.108133 -0.521674 0.403623 0.751628 152 155 129
-0.065396 0.184204 0.048031 -0.521674 0.403623 0.751628 152 155 129
-0.000819 0.139437 0.116892 -0.521674 0.403623 0.751628 152 155 129
0.108280 0.144998 -0.095652 0.795264 0.394012 -0.460771 152 155 129
0.101809 0.172712 -0.083123 0.795264 0.394012 -0.460771 152 155 129
0.147716 0.139483 -0.032303 0.795264 0.394012 -0.460771 152 155 129
0.101809 0.172712 -0.083123 0.794899 0.398605 -0.457438 152 155 129
0.139352 0.159778 -0.029154 0.794899 0.398605 -0.457438 152 155 129
0.147716 0.139483 -0.032303 0.794899 0.398605 -0.457438 152 155 129
0.139352 0.159778 -0.029154 0.898454 0.325621 0.294535 152 155 129
0.101360 0.174705 0.070234 0.898454 0.325621 0.294535 152 155 129
0.112268 0.135337 0.080482 0.898454 0.325621 0.294535 152 155 129
0.147716 0.139483 -0.032303 0.898798 0.324766 0.294429 152 155 129
0.139352 0.159778 -0.029154 0.898798 0.324766 0.294429 152 155 129
0.112268 0.135337 0.080482 0.898798 0.324766 0.294429 152 155 129
0.002909 0.160565 0.108133 0.300885 0.319398 0.898584 152 155 129
-0.000819 0.139437 0.116892 0.300885 0.319398 0.898584 152 155 129
0.112268 0.135337 0.080482 0.300885 0.319398 0.898584 152 155 129
0.101360 0.174705 0.070234 0.300628 0.317421 0.899370 152 155 129
0.002909 0.160565 0.108133 0.300628 0.317421 0.899370 152 155 129
0.112268 0.135337 0.080482 0.300628 0.317421 0.899370 152 155 129
-0.059188 0.180567 -0.042742 0.459688 0.859922 0.221857 152 155 129
-0.065563 0.185074 -0.047004 0.459688 0.859922 0.221857 152 155 129
-0.074082 0.179207 -0.006610 0.459688 0.859922 0.221857 152 155 129
-0.059188 0.180567 -0.042742 0.408036 0.890404 0.201713 152 155 129
-0.074082 0.179207 -0.006610 0.408036 0.890404 0.201713 152 155 129
-0.065140 0.175109 -0.006607 0.408036 0.890404 0.201713 152 155 129
-0.087451 0.150089 -0.009168 -0.415008 -0.905505 -0.088477 152 155 129
-0.073196 0.148125 -0.055930 -0.415008 -0.905505 -0.088477 152 155 129
-0.078509 0.145990 -0.009164 -0.415008 -0.905505 -0.088477 152 155 129
-0.087451 0.150089 -0.009168 -0.517288 -0.847055 -0.122111 152 155 129
-0.079571 0.152632 -0.060192 -0.517288 -0.847055 -0.122111 152 155 129
-0.073196 0.148125 -0.055930 -0.517288 -0.847055 -0.122111 152 155 129
-0.079571 0.152632 -0.060192 -0.267523 -0.834266 -0.482113 152 155 129
0.047204 0.149766 -0.125580 -0.267523 -0.834266 -0.482113 152 155 129
-0.073196 0.148125 -0.055930 -0.267523 -0.834266 -0.482113 152 155 129
-0.073196 0.148125 -0.055930 -0.279220 -0.818577 -0.501964 152 155 129
0.047204 0.149766 -0.125580 -0.279220 -0.818577 -0.501964 152 155 129
0.046969 0.145128 -0.117885 -0.279220 -0.818577 -0.501964 152 155 129
0.047937 0.161454 -0.118510 0.453746 0.757010 0.470160 152 155 129
-0.065563 0.185074 -0.047004 0.453746 0.757010 0.470160 152 155 129
0.047702 0.156815 -0.110815 0.453746 0.757010 0.470160 152 155 129
-0.065563 0.185074 -0.047004 0.395054 0.861180 0.319847 152 155 129
-0.059188 0.180567 -0.042742 0.395054 0.861180 0.319847 152 155 129
0.047702 0.156815 -0.110815 0.395054 0.861180 0.319847 152 155 129
-0.081319 0.146569 0.057426 -0.494162 -0.869370 -0.000455 152 155 129
-0.087451 0.150089 -0.009168 -0.494162 -0.869370 -0.000455 152 155 129
-0.074253 0.142554 0.053313 -0.494162 -0.869370 -0.000455 152 155 129
-0.087451 0.150089 -0.009168 -0.416569 -0.908847 -0.021606 152 155 129
-0.078509 0.145990 -0.009164 -0.416569 -0.908847 -0.021606 152 155 129
-0.074253 0.142554 0.053313 -0.416569 -0.908847 -0.021606 152 155 129
-0.074082 0.179207 -0.006610 0.412257 0.899292 -0.146005 152 155 129
-0.058330 0.180190 0.043919 0.412257 0.899292 -0.146005 152 155 129
-0.065140 0.175109 -0.006607 0.412257 0.899292 -0.146005 152 155 129
-0.065396 0.184204 0.048031 0.421564 0.894504 -0.148814 152 155 129
-0.058330 0.180190 0.043919 0.421564 0.894504 -0.148814 152 155 129
-0.074082 0.179207 -0.006610 0.421564 0.894504 -0.148814 152 155 129
0.101809 0.172712 -0.083123 -0.455728 0.768379 0.449339 152 155 129
0.047937 0.161454 -0.118510 -0.455728 0.768379 0.449339 152 155 129
0.047702 0.156815 -0.110815 -0.455728 0.768379 0.449339 152 155 129
0.095764 0.168533 -0.076954 -0.381649 0.894695 0.232090 152 155 129
0.101809 0.172712 -0.083123 -0.381649 0.894695 0.232090 152 155 129
0.047702 0.156815 -0.110815 -0.381649 0.894695 0.232090 152 155 129
0.046969 0.145128 -0.117885 0.180882 -0.844717 -0.503722 152 155 129
0.047204 0.149766 -0.125580 0.180882 -0.844717 -0.503722 152 155 129
0.108280 0.144998 -0.095652 0.180882 -0.844717 -0.503722 152 155 129
0.046969 0.145128 -0.117885 0.158596 -0.882640 -0.442486 152 155 129
0.108280 0.144998 -0.095652 0.158596 -0.882640 -0.442486 152 155 129
0.102235 0.140820 -0.089483 0.158596 -0.882640 -0.442486 152 155 129
-0.065396 0.184204 0.048031 0.525666 0.802696 -0.281699 152 155 129
0.002909 0.160565 0.108133 0.525666 0.802696 -0.281699 152 155 129
0.004004 0.156991 0.099993 0.525666 0.802696 -0.281699 152 155 129
-0.058330 0.180190 0.043919 0.437764 0.891329 -0.117880 152 155 129
-0.065396 0.184204 0.048031 0.437764 0.891329 -0.117880 152 155 129
0.004004 0.156991 0.099993 0.437764 0.891329 -0.117880 152 155 129
0.008838 0.237824 0.112473 -0.467604 0.553760 -0.688982 193 178 142
0.064966 0.191478 0.037130 -0.467604 0.553760 -0.688982 193 178 142
0.012752 0.177507 0.061338 -0.467604 0.553760 -0.688982 193 178 142
0.008838 0.237824 0.112473 -0.556161 0.455986 -0.694811 193 178 142
0.097031 0.285992 0.073490 -0.556161 0.455986 -0.694811 193 178 142
0.064966 0.191478 0.037130 -0.556161 0.455986 -0.694811 193 178 142
-0.077773 0.292182 0.056954 0.666609 0.562019 -0.489660 193 178 142
0.008838 0.237824 0.112473 0.666609 0.562019 -0.489660 193 178 142
-0.032268 0.203898 0.017573 0.666609 0.562019 -0.489660 193 178 142
-0.032268 0.203898 0.017573 0.742638 0.460454 -0.486283 193 178 142
0.008838 0.237824 0.112473 0.742638 0.460454 -0.486283 193 178 142
0.012752 0.177507 0.061338 0.742638 0.460454 -0.486283 193 178 142
-0.092556 0.256992 -0.003207 0.686924 0.685103 -0.242423 193 178 142
-0.032268 0.203898 0.017573 0.686924 0.685103 -0.242423 193 178 142
-0.035797 0.199597 -0.004580 0.686924 0.685103 -0.242423 193 178 142
-0.092556 0.256992 -0.003207 0.664693 0.562132 -0.492128 193 178 142
-0.077773 0.292182 0.056954 0.664693 0.562132 -0.492128 193 178 142
-0.032268 0.203898 0.017573 0.664693 0.562132 -0.492128 193 178 142
-0.081163 0.291605 -0.054354 0.633713 0.567780 0.525390 193 178 142
-0.092556 0.256992 -0.003207 0.633713 0.567780 0.525390 193 178 142
-0.033690 0.204453 -0.017431 0.633713 0.567780 0.525390 193 178 142
-0.033690 0.204453 -0.017431 0.668630 0.652685 0.356281 193 178 142
-0.092556 0.256992 -0.003207 0.668630 0.652685 0.356281 193 178 142
-0.035797 0.199597 -0.004580 0.668630 0.652685 0.356281 193 178 142
0.038315 0.236093 -0.121100 0.586654 0.564716 0.580459 193 178 142
-0.081163 0.291605 -0.054354 0.586654 0.564716 0.580459 193 178 142
0.044854 0.177286 -0.070497 0.586654 0.564716 0.580459 193 178 142
-0.081163 0.291605 -0.054354 0.587049 0.565287 0.579504 193 178 142
-0.033690 0.204453 -0.017431 0.587049 0.565287 0.579504 193 178 142
0.044854 0.177286 -0.070497 0.587049 0.565287 0.579504 193 178 142
0.097462 0.280603 -0.088545 -0.668863 0.463999 0.580799 193 178 142
0.038315 0.236093 -0.121100 -0.668863 0.463999 0.580799 193 178 142
0.067366 0.187222 -0.048602 -0.668863 0.463999 0.580799 193 178 142
0.067366 0.187222 -0.048602 -0.723347 0.402402 0.561108 193 178 142
0.038315 0.236093 -0.121100 -0.723347 0.402402 0.561108 193 178 142
0.044854 0.177286 -0.070497 -0.723347 0.402402 0.561108 193 178 142
0.097031 0.285992 0.073490 -0.737346 0.445504 -0.507787 193 178 142
0.137205 0.240421 -0.024826 -0.737346 0.445504 -0.507787 193 178 142
0.064966 0.191478 0.037130 -0.737346 0.445504 -0.507787 193 178 142
0.064966 0.191478 0.037130 -0.733301 0.502343 -0.458170 193 178 142
0.137205 0.240421 -0.024826 -0.733301 0.502343 -0.458170 193 178 142
0.090538 0.174720 -0.022172 -0.733301 0.502343 -0.458170 193 178 142
0.137205 0.240421 -0.024826 -0.567370 0.431329 0.701461 193 178 142
0.067366 0.187222 -0.048602 -0.567370 0.431329 0.701461 193 178 142
0.090538 0.174720 -0.022172 -0.567370 0.431329 0.701461 193 178 142
0.137205 0.240421 -0.024826 -0.583899 0.471014 0.661217 193 178 142
0.097462 0.280603 -0.088545 -0.583899 0.471014 0.661217 193 178 142
0.067366 0.187222 -0.048602 -0.583899 0.471014 0.661217 193 178 142
0.012752 0.177507 0.061338 -0.081238 -0.758577 -0.646500 193 178 142
0.075331 0.182998 0.047031 -0.081238 -0.758577 -0.646500 193 178 142
0.011015 0.168599 0.072009 -0.081238 -0.758577 -0.646500 193 178 142
0.064966 0.191478 0.037130 -0.069072 -0.792288 -0.606225 193 178 142
0.075331 0.182998 0.047031 -0.069072 -0.792288 -0.606225 193 178 142
0.012752 0.177507 0.061338 -0.069072 -0.792288 -0.606225 193 178 142
-0.043837 0.194049 0.024875 0.207854 -0.728296 -0.652979 193 178 142
-0.032268 0.203898 0.017573 0.207854 -0.728296 -0.652979 193 178 142
0.012752 0.177507 0.061338 0.207854 -0.728296 -0.652979 193 178 142
-0.043837 0.194049 0.024875 0.171128 -0.769863 -0.614838 193 178 142
0.012752 0.177507 0.061338 0.171128 -0.769863 -0.614838 193 178 142
0.011015 0.168599 0.072009 0.171128 -0.769863 -0.614838 193 178 142
-0.035797 0.199597 -0.004580 0.670479 -0.741002 0.037069 193 178 142
-0.032268 0.203898 0.017573 0.670479 -0.741002 0.037069 193 178 142
-0.047507 0.188978 -0.005049 0.670479 -0.741002 0.037069 193 178 142
-0.032268 0.203898 0.017573 0.663927 -0.746438 0.045068 193 178 142
-0.043837 0.194049 0.024875 0.663927 -0.746438 0.045068 193 178 142
-0.047507 0.188978 -0.005049 0.663927 -0.746438 0.045068 193 178 142
-0.033690 0.204453 -0.017431 0.741672 -0.658577 -0.127273 193 178 142
-0.035797 0.199597 -0.004580 0.741672 -0.658577 -0.127273 193 178 142
-0.044163 0.194289 -0.025866 0.741672 -0.658577 -0.127273 193 178 142
-0.044163 0.194289 -0.025866 0.671350 -0.736795 -0.080133 193 178 142
-0.035797 0.199597 -0.004580 0.671350 -0.736795 -0.080133 193 178 142
-0.047507 0.188978 -0.005049 0.671350 -0.736795 -0.080133 193 178 142
0.044854 0.177286 -0.070497 0.176379 -0.749980 0.637511 193 178 142
-0.044163 0.194289 -0.025866 0.176379 -0.749980 0.637511 193 178 142
0.045278 0.168326 -0.081155 0.176379 -0.749980 0.637511 193 178 142
-0.033690 0.204453 -0.017431 0.186965 -0.734246 0.652631 193 178 142
-0.044163 0.194289 -0.025866 0.186965 -0.734246 0.652631 193 178 142
0.044854 0.177286 -0.070497 0.186965 -0.734246 0.652631 193 178 142
0.077908 0.179112 -0.059278 -0.128483 -0.846695 0.516333 193 178 142
0.067366 0.187222 -0.048602 -0.128483 -0.846695 0.516333 193 178 142
0.044854 0.177286 -0.070497 -0.128483 -0.846695 0.516333 193 178 142
0.077908 0.179112 -0.059278 -0.171962 -0.757400 0.629901 193 178 142
0.044854 0.177286 -0.070497 -0.171962 -0.757400 0.629901 193 178 142
0.045278 0.168326 -0.081155 -0.171962 -0.757400 0.629901 193 178 142
0.075331 0.182998 0.047031 -0.609960 -0.791454 -0.039359 193 178 142
0.064966 0.191478 0.037130 -0.609960 -0.791454 -0.039359 193 178 142
0.090538 0.174720 -0.022172 -0.609960 -0.791454 -0.039359 193 178 142
0.075331 0.182998 0.047031 -0.565785 -0.824151 -0.025740 193 178 142
0.090538 0.174720 -0.022172 -0.565785 -0.824151 -0.025740 193 178 142
0.102427 0.166603 -0.023623 -0.565785 -0.824151 -0.025740 193 178 142
0.090538 0.174720 -0.022172 -0.553947 -0.827609 0.090583 193 178 142
0.077908 0.179112 -0.059278 -0.553947 -0.827609 0.090583 193 178 142
0.102427 0.166603 -0.023623 -0.553947 -0.827609 0.090583 193 178 142
0.067366 0.187222 -0.048602 -0.549389 -0.830851 0.088648 193 178 142
0.077908 0.179112 -0.059278 -0.549389 -0.830851 0.088648 193 178 142
0.090538 0.174720 -0.022172 -0.549389 -0.830851 0.088648 193 178 142
0.067366 0.187222 -0.048602 -0.534119 0.827373 0.173698 193 178 142
0.044854 0.177286 -0.070497 -0.534119 0.827373 0.173698 193 178 142
0.022340 0.149191 -0.005906 -0.534119 0.827373 0.173698 193 178 142
0.090538 0.174720 -0.022172 -0.177423 0.820370 0.543612 193 178 142
0.067366 0.187222 -0.048602 -0.177423 0.820370 0.543612 193 178 142
0.022340 0.149191 -0.005906 -0.177423 0.820370 0.543612 193 178 142
0.064966 0.191478 0.037130 -0.403725 0.819954 -0.405809 193 178 142
0.090538 0.174720 -0.022172 -0.403725 0.819954 -0.405809 193 178 142
0.022340 0.149191 -0.005906 -0.403725 0.819954 -0.405809 193 178 142
0.012752 0.177507 0.061338 -0.406336 0.819945 -0.403214 193 178 142
0.064966 0.191478 0.037130 -0.406336 0.819945 -0.403214 193 178 142
0.022340 0.149191 -0.005906 -0.406336 0.819945 -0.403214 193 178 142
-0.032268 0.203898 0.017573 0.642425 0.734748 -0.217797 193 178 142
0.012752 0.177507 0.061338 0.642425 0.734748 -0.217797 193 178 142
0.022340 0.149191 -0.005906 0.642425 0.734748 -0.217797 193 178 142
-0.035797 0.199597 -0.004580 0.632187 0.735559 -0.243500 193 178 142
-0.032268 0.203898 0.017573 0.632187 0.735559 -0.243500 193 178 142
0.022340 0.149191 -0.005906 0.632187 0.735559 -0.243500 193 178 142
-0.033690 0.204453 -0.017431 0.614610 0.699288 0.365035 193 178 142
-0.035797 0.199597 -0.004580 0.614610 0.699288 0.365035 193 178 142
0.022340 0.149191 -0.005906 0.614610 0.699288 0.365035 193 178 142
0.044854 0.177286 -0.070497 0.560592 0.669912 0.486781 193 178 142
-0.033690 0.204453 -0.017431 0.560592 0.669912 0.486781 193 178 142
0.022340 0.149191 -0.005906 0.560592 0.669912 0.486781 193 178 142
0.110072 -0.100103 0.093999 0.463240 -0.400482 0.790584 222 210 183
-0.032579 -0.057010 0.199414 0.463240 -0.400482 0.790584 222 210 183
-0.029151 -0.091468 0.179950 0.463240 -0.400482 0.790584 222 210 183
0.110072 -0.100103 0.093999 0.284439 -0.689029 0.666583 222 210 183
0.145719 -0.060224 0.120010 0.284439 -0.689029 0.666583 222 210 183
-0.032579 -0.057010 0.199414 0.284439 -0.689029 0.666583 222 210 183
-0.029151 -0.091468 0.179950 -0.516990 -0.459402 0.722268 222 210 183
-0.032579 -0.057010 0.199414 -0.516990 -0.459402 0.722268 222 210 183
-0.144232 -0.099158 0.092685 -0.516990 -0.459402 0.722268 222 210 183
-0.032579 -0.057010 0.199414 -0.306543 -0.731175 0.609438 222 210 183
-0.177368 -0.057327 0.126205 -0.306543 -0.731175 0.609438 222 210 183
-0.144232 -0.099158 0.092685 -0.306543 -0.731175 0.609438 222 210 183
-0.212884 -0.090751 -0.035730 -0.722422 -0.515744 -0.460558 222 210 183
-0.236747 -0.055405 -0.037880 -0.722422 -0.515744 -0.460558 222 210 183
-0.135107 -0.098940 -0.148559 -0.722422 -0.515744 -0.460558 222 210 183
-0.236747 -0.055405 -0.037880 -0.625101 -0.725144 -0.288818 222 210 183
-0.168179 -0.058152 -0.179389 -0.625101 -0.725144 -0.288818 222 210 183
-0.135107 -0.098940 -0.148559 -0.625101 -0.725144 -0.288818 222 210 183
-0.236747 -0.055405 -0.037880 -0.776459 -0.500950 0.382309 222 210 183
-0.212884 -0.090751 -0.035730 -0.776459 -0.500950 0.382309 222 210 183
-0.144232 -0.099158 0.092685 -0.776459 -0.500950 0.382309 222 210 183
-0.177368 -0.057327 0.126205 -0.663527 -0.711342 0.231785 222 210 183
-0.236747 -0.055405 -0.037880 -0.663527 -0.711342 0.231785 222 210 183
-0.144232 -0.099158 0.092685 -0.663527 -0.711342 0.231785 222 210 183
0.019584 -0.057240 -0.276507 0.205936 -0.734313 -0.646819 222 210 183
0.171286 -0.058692 -0.226560 0.205936 -0.734313 -0.646819 222 210 183
0.137016 -0.097729 -0.193154 0.205936 -0.734313 -0.646819 222 210 183
0.017211 -0.090151 -0.257633 0.392419 -0.478717 -0.785390 222 210 183
0.019584 -0.057240 -0.276507 0.392419 -0.478717 -0.785390 222 210 183
0.137016 -0.097729 -0.193154 0.392419 -0.478717 -0.785390 222 210 183
0.019584 -0.057240 -0.276507 -0.519198 -0.396699 -0.757010 222 210 183
0.017211 -0.090151 -0.257633 -0.519198 -0.396699 -0.757010 222 210 183
-0.135107 -0.098940 -0.148559 -0.519198 -0.396699 -0.757010 222 210 183
-0.168179 -0.058152 -0.179389 -0.315313 -0.721558 -0.616385 222 210 183
0.019584 -0.057240 -0.276507 -0.315313 -0.721558 -0.616385 222 210 183
-0.135107 -0.098940 -0.148559 -0.315313 -0.721558 -0.616385 222 210 183
0.110072 -0.100103 0.093999 0.609104 -0.736446 0.294345 222 210 183
0.238748 -0.057860 -0.066587 0.609104 -0.736446 0.294345 222 210 183
0.145719 -0.060224 0.120010 0.609104 -0.736446 0.294345 222 210 183
0.110072 -0.100103 0.093999 0.762980 -0.403120 0.505327 222 210 183
0.220040 -0.090486 -0.064367 0.762980 -0.403120 0.505327 222 210 183
0.238748 -0.057860 -0.066587 0.762980 -0.403120 0.505327 222 210 183
0.238748 -0.057860 -0.066587 0.755859 -0.464787 -0.461140 222 210 183
0.220040 -0.090486 -0.064367 0.755859 -0.464787 -0.461140 222 210 183
0.137016 -0.097729 -0.193154 0.755859 -0.464787 -0.461140 222 210 183
0.171286 -0.058692 -0.226560 0.609317 -0.751465 -0.253048 222 210 183
0.238748 -0.057860 -0.066587 0.609317 -0.751465 -0.253048 222 210 183
0.137016 -0.097729 -0.193154 0.609317 -0.751465 -0.253048 222 210 183
0.110072 -0.100103 0.093999 0.017785 -0.991561 0.128417 222 210 183
-0.029151 -0.091468 0.179950 0.017785 -0.991561 0.128417 222 210 183
-0.020964 -0.118740 -0.031762 0.017785 -0.991561 0.128417 222 210 183
-0.029151 -0.091468 0.179950 -0.029725 -0.991512 0.126574 222 210 183
-0.144232 -0.099158 0.092685 -0.029725 -0.991512 0.126574 222 210 183
-0.020964 -0.118740 -0.031762 -0.029725 -0.991512 0.126574 222 210 183
-0.212884 -0.090751 -0.035730 -0.143707 -0.989245 -0.027260 222 210 183
-0.135107 -0.098940 -0.148559 -0.143707 -0.989245 -0.027260 222 210 183
-0.020964 -0.118740 -0.031762 -0.143707 -0.989245 -0.027260 222 210 183
-0.144232 -0.099158 0.092685 -0.144554 -0.989418 0.012503 222 210 183
-0.212884 -0.090751 -0.035730 -0.144554 -0.989418 0.012503 222 210 183
-0.020964 -0.118740 -0.031762 -0.144554 -0.989418 0.012503 222 210 183
0.017211 -0.090151 -0.257633 0.004433 -0.992168 -0.124833 222 210 183
0.137016 -0.097729 -0.193154 0.004433 -0.992168 -0.124833 222 210 183
-0.020964 -0.118740 -0.031762 0.004433 -0.992168 -0.124833 222 210 183
-0.135107 -0.098940 -0.148559 -0.037119 -0.990600 -0.131657 222 210 183
0.017211 -0.090151 -0.257633 -0.037119 -0.990600 -0.131657 222 210 183
-0.020964 -0.118740 -0.031762 -0.037119 -0.990600 -0.131657 222 210 183
0.137016 -0.097729 -0.193154 0.114061 -0.993317 -0.017672 222 210 183
0.220040 -0.090486 -0.064367 0.114061 -0.993317 -0.017672 222 210 183
-0.020964 -0.118740 -0.031762 0.114061 -0.993317 -0.017672 222 210 183
0.220040 -0.090486 -0.064367 0.119431 -0.992584 0.022659 222 210 183
0.110072 -0.100103 0.093999 0.119431 -0.992584 0.022659 222 210 183
-0.020964 -0.118740 -0.031762 0.119431 -0.992584 0.022659 222 210 183
0.144563 -0.006380 0.114640 0.392758 0.099599 0.914233 222 210 183
-0.029039 -0.004181 0.188981 0.392758 0.099599 0.914233 222 210 183
0.145719 -0.060224 0.120010 0.392758 0.099599 0.914233 222 210 183
-0.029039 -0.004181 0.188981 0.404431 0.151041 0.902010 222 210 183
-0.032579 -0.057010 0.199414 0.404431 0.151041 0.902010 222 210 183
0.145719 -0.060224 0.120010 0.404431 0.151041 0.902010 222 210 183
-0.029039 -0.004181 0.188981 -0.419240 0.202848 0.884924 222 210 183
-0.169156 -0.003650 0.122478 -0.419240 0.202848 0.884924 222 210 183
-0.032579 -0.057010 0.199414 -0.419240 0.202848 0.884924 222 210 183
-0.032579 -0.057010 0.199414 -0.447629 0.129908 0.884733 222 210 183
-0.169156 -0.003650 0.122478 -0.447629 0.129908 0.884733 222 210 183
-0.177368 -0.057327 0.126205 -0.447629 0.129908 0.884733 222 210 183
-0.169156 -0.003650 0.122478 -0.922510 0.218098 0.318447 222 210 183
-0.223518 -0.003897 -0.034835 -0.922510 0.218098 0.318447 222 210 183
-0.236747 -0.055405 -0.037880 -0.922510 0.218098 0.318447 222 210 183
-0.169156 -0.003650 0.122478 -0.926782 0.165202 0.337319 222 210 183
-0.236747 -0.055405 -0.037880 -0.926782 0.165202 0.337319 222 210 183
-0.177368 -0.057327 0.126205 -0.926782 0.165202 0.337319 222 210 183
-0.223518 -0.003897 -0.034835 -0.876441 0.249442 -0.411861 222 210 183
-0.160782 -0.006273 -0.169776 -0.876441 0.249442 -0.411861 222 210 183
-0.236747 -0.055405 -0.037880 -0.876441 0.249442 -0.411861 222 210 183
-0.236747 -0.055405 -0.037880 -0.879234 0.205024 -0.430016 222 210 183
-0.160782 -0.006273 -0.169776 -0.879234 0.205024 -0.430016 222 210 183
-0.168179 -0.058152 -0.179389 -0.879234 0.205024 -0.430016 222 210 183
-0.160782 -0.006273 -0.169776 -0.416740 0.312658 -0.853565 222 210 183
0.021566 -0.007313 -0.259186 -0.416740 0.312658 -0.853565 222 210 183
0.019584 -0.057240 -0.276507 -0.416740 0.312658 -0.853565 222 210 183
-0.160782 -0.006273 -0.169776 -0.448579 0.224249 -0.865153 222 210 183
0.019584 -0.057240 -0.276507 -0.448579 0.224249 -0.865153 222 210 183
-0.168179 -0.058152 -0.179389 -0.448579 0.224249 -0.865153 222 210 183
0.021566 -0.007313 -0.259186 0.279466 0.304781 -0.910498 222 210 183
0.167613 -0.006858 -0.214207 0.279466 0.304781 -0.910498 222 210 183
0.019584 -0.057240 -0.276507 0.279466 0.304781 -0.910498 222 210 183
0.019584 -0.057240 -0.276507 0.305578 0.241189 -0.921113 222 210 183
0.167613 -0.006858 -0.214207 0.305578 0.241189 -0.921113 222 210 183
0.171286 -0.058692 -0.226560 0.305578 0.241189 -0.921113 222 210 183
0.238748 -0.057860 -0.066587 0.884820 0.144482 0.442965 222 210 183
0.227799 -0.006380 -0.061507 0.884820 0.144482 0.442965 222 210 183
0.145719 -0.060224 0.120010 0.884820 0.144482 0.442965 222 210 183
0.227799 -0.006380 -0.061507 0.902406 0.061890 0.426418 222 210 183
0.144563 -0.006380 0.114640 0.902406 0.061890 0.426418 222 210 183
0.145719 -0.060224 0.120010 0.902406 0.061890 0.426418 222 210 183
0.167613 -0.006858 -0.214207 0.905615 0.227902 -0.357661 222 210 183
0.227799 -0.006380 -0.061507 0.905615 0.227902 -0.357661 222 210 183
0.238748 -0.057860 -0.066587 0.905615 0.227902 -0.357661 222 210 183
0.167613 -0.006858 -0.214207 0.909831 0.156117 -0.384494 222 210 183
0.238748 -0.057860 -0.066587 0.909831 0.156117 -0.384494 222 210 183
0.171286 -0.058692 -0.226560 0.909831 0.156117 -0.384494 222 210 183
0.113955 0.106632 0.082443 0.848894 0.344200 0.401131 222 210 183
0.144563 -0.006380 0.114640 0.848894 0.344200 0.401131 222 210 183
0.227799 -0.006380 -0.061507 0.848894 0.344200 0.401131 222 210 183
0.168760 0.105181 -0.038798 0.847673 0.371501 0.378732 222 210 183
0.113955 0.106632 0.082443 0.847673 0.371501 0.378732 222 210 183
0.227799 -0.006380 -0.061507 0.847673 0.371501 0.378732 222 210 183
0.113955 0.106632 0.082443 0.353061 0.370414 0.859152 222 210 183
-0.008312 0.107926 0.132130 0.353061 0.370414 0.859152 222 210 183
-0.029039 -0.004181 0.188981 0.353061 0.370414 0.859152 222 210 183
0.113955 0.106632 0.082443 0.372999 0.346266 0.860797 222 210 183
-0.029039 -0.004181 0.188981 0.372999 0.346266 0.860797 222 210 183
0.144563 -0.006380 0.114640 0.372999 0.346266 0.860797 222 210 183
-0.106183 0.108714 0.083541 -0.373782 0.483722 0.791391 222 210 183
-0.169156 -0.003650 0.122478 -0.373782 0.483722 0.791391 222 210 183
-0.029039 -0.004181 0.188981 -0.373782 0.483722 0.791391 222 210 183
-0.008312 0.107926 0.132130 -0.388757 0.472874 0.790733 222 210 183
-0.106183 0.108714 0.083541 -0.388757 0.472874 0.790733 222 210 183
-0.029039 -0.004181 0.188981 -0.388757 0.472874 0.790733 222 210 183
-0.106183 0.108714 0.083541 -0.790930 0.556378 0.254701 222 210 183
-0.138275 0.109617 -0.018089 -0.790930 0.556378 0.254701 222 210 183
-0.223518 -0.003897 -0.034835 -0.790930 0.556378 0.254701 222 210 183
-0.169156 -0.003650 0.122478 -0.795346 0.540695 0.273997 222 210 183
-0.106183 0.108714 0.083541 -0.795346 0.540695 0.273997 222 210 183
-0.223518 -0.003897 -0.034835 -0.795346 0.540695 0.273997 222 210 183
-0.223518 -0.003897 -0.034835 -0.731190 0.585396 -0.350247 222 210 183
-0.098390 0.111379 -0.103389 -0.731190 0.585396 -0.350247 222 210 183
-0.160782 -0.006273 -0.169776 -0.731190 0.585396 -0.350247 222 210 183
-0.138275 0.109617 -0.018089 -0.731010 0.597559 -0.329466 222 210 183
-0.098390 0.111379 -0.103389 -0.731010 0.597559 -0.329466 222 210 183
-0.223518 -0.003897 -0.034835 -0.731010 0.597559 -0.329466 222 210 183
-0.098390 0.111379 -0.103389 -0.342344 0.601482 -0.721817 222 210 183
0.031556 0.109262 -0.166784 -0.342344 0.601482 -0.721817 222 210 183
0.021566 -0.007313 -0.259186 -0.342344 0.601482 -0.721817 222 210 183
-0.160782 -0.006273 -0.169776 -0.351281 0.594454 -0.723344 222 210 183
-0.098390 0.111379 -0.103389 -0.351281 0.594454 -0.723344 222 210 183
0.021566 -0.007313 -0.259186 -0.351281 0.594454 -0.723344 222 210 183
0.128542 0.105122 -0.138873 0.234296 0.597603 -0.766796 222 210 183
0.167613 -0.006858 -0.214207 0.234296 0.597603 -0.766796 222 210 183
0.021566 -0.007313 -0.259186 0.234296 0.597603 -0.766796 222 210 183
0.031556 0.109262 -0.166784 0.246629 0.588916 -0.769644 222 210 183
0.128542 0.105122 -0.138873 0.246629 0.588916 -0.769644 222 210 183
0.021566 -0.007313 -0.259186 0.246629 0.588916 -0.769644 222 210 183
0.128542 0.105122 -0.138873 0.807076 0.493195 -0.324635 222 210 183
0.168760 0.105181 -0.038798 0.807076 0.493195 -0.324635 222 210 183
0.227799 -0.006380 -0.061507 0.807076 0.493195 -0.324635 222 210 183
0.128542 0.105122 -0.138873 0.806990 0.496592 -0.319630 222 210 183
0.227799 -0.006380 -0.061507 0.806990 0.496592 -0.319630 222 210 183
0.167613 -0.006858 -0.214207 0.806990 0.496592 -0.319630 222 210 183
0.107395 0.277512 0.083392 0.509661 -0.454059 0.730805 222 210 183
0.007101 0.228915 0.123144 0.509661 -0.454059 0.730805 222 210 183
0.075331 0.182998 0.047031 0.509661 -0.454059 0.730805 222 210 183
0.075331 0.182998 0.047031 0.404775 -0.575896 0.710283 222 210 183
0.007101 0.228915 0.123144 0.404775 -0.575896 0.710283 222 210 183
0.011015 0.168599 0.072009 0.404775 -0.575896 0.710283 222 210 183
0.007101 0.228915 0.123144 -0.686835 -0.495423 0.531803 222 210 183
-0.043837 0.194049 0.024875 -0.686835 -0.495423 0.531803 222 210 183
0.011015 0.168599 0.072009 -0.686835 -0.495423 0.531803 222 210 183
0.007101 0.228915 0.123144 -0.634885 -0.563178 0.528915 222 210 183
-0.089342 0.282333 0.064256 -0.634885 -0.563178 0.528915 222 210 183
-0.043837 0.194049 0.024875 -0.634885 -0.563178 0.528915 222 210 183
-0.089342 0.282333 0.064256 -0.696630 -0.559428 0.449163 222 210 183
-0.104265 0.246374 -0.003675 -0.696630 -0.559428 0.449163 222 210 183
-0.043837 0.194049 0.024875 -0.696630 -0.559428 0.449163 222 210 183
-0.043837 0.194049 0.024875 -0.693932 -0.691071 0.202188 222 210 183
-0.104265 0.246374 -0.003675 -0.693932 -0.691071 0.202188 222 210 183
-0.047507 0.188978 -0.005049 -0.693932 -0.691071 0.202188 222 210 183
-0.104265 0.246374 -0.003675 -0.685663 -0.671322 -0.281411 222 210 183
-0.044163 0.194289 -0.025866 -0.685663 -0.671322 -0.281411 222 210 183
-0.047507 0.188978 -0.005049 -0.685663 -0.671322 -0.281411 222 210 183
-0.104265 0.246374 -0.003675 -0.669055 -0.567674 -0.479700 222 210 183
-0.091636 0.281441 -0.062789 -0.669055 -0.567674 -0.479700 222 210 183
-0.044163 0.194289 -0.025866 -0.669055 -0.567674 -0.479700 222 210 183
-0.091636 0.281441 -0.062789 -0.557377 -0.562378 -0.610788 222 210 183
0.038739 0.227133 -0.131758 -0.557377 -0.562378 -0.610788 222 210 183
-0.044163 0.194289 -0.025866 -0.557377 -0.562378 -0.610788 222 210 183
-0.044163 0.194289 -0.025866 -0.543184 -0.581531 -0.605618 222 210 183
0.038739 0.227133 -0.131758 -0.543184 -0.581531 -0.605618 222 210 183
0.045278 0.168326 -0.081155 -0.543184 -0.581531 -0.605618 222 210 183
0.038739 0.227133 -0.131758 0.591693 -0.487016 -0.642429 222 210 183
0.077908 0.179112 -0.059278 0.591693 -0.487016 -0.642429 222 210 183
0.045278 0.168326 -0.081155 0.591693 -0.487016 -0.642429 222 210 183
0.038739 0.227133 -0.131758 0.608196 -0.469722 -0.639889 222 210 183
0.108004 0.272493 -0.099221 0.608196 -0.469722 -0.639889 222 210 183
0.077908 0.179112 -0.059278 0.608196 -0.469722 -0.639889 222 210 183
0.149093 0.232305 -0.026277 0.751880 -0.517549 0.408436 222 210 183
0.075331 0.182998 0.047031 0.751880 -0.517549 0.408436 222 210 183
0.102427 0.166603 -0.023623 0.751880 -0.517549 0.408436 222 210 183
0.149093 0.232305 -0.026277 0.763604 -0.440632 0.471966 222 210 183
0.107395 0.277512 0.083392 0.763604 -0.440632 0.471966 222 210 183
0.075331 0.182998 0.047031 0.763604 -0.440632 0.471966 222 210 183
0.108004 0.272493 -0.099221 0.634678 -0.467689 -0.615184 222 210 183
0.149093 0.232305 -0.026277 0.634678 -0.467689 -0.615184 222 210 183
0.077908 0.179112 -0.059278 0.634678 -0.467689 -0.615184 222 210 183
0.077908 0.179112 -0.059278 0.637114 -0.476989 -0.605449 222 210 183
0.149093 0.232305 -0.026277 0.637114 -0.476989 -0.605449 222 210 183
0.102427 0.166603 -0.023623 0.637114 -0.476989 -0.605449 222 210 183
0.107395 0.277512 0.083392 -0.081726 0.713120 0.696262 222 210 183
0.097031 0.285992 0.073490 -0.081726 0.713120 0.696262 222 210 183
0.008838 0.237824 0.112473 -0.081726 0.713120 0.696262 222 210 183
0.107395 0.277512 0.083392 -0.126728 0.771523 0.623452 222 210 183
0.008838 0.237824 0.112473 -0.126728 0.771523 0.623452 222 210 183
0.007101 0.228915 0.123144 -0.126728 0.771523 0.623452 222 210 183
0.008838 0.237824 0.112473 0.063724 0.760972 0.645648 222 210 183
-0.077773 0.292182 0.056954 0.063724 0.760972 0.645648 222 210 183
0.007101 0.228915 0.123144 0.063724 0.760972 0.645648 222 210 183
-0.077773 0.292182 0.056954 -0.090392 0.659485 0.746263 222 210 183
-0.089342 0.282333 0.064256 -0.090392 0.659485 0.746263 222 210 183
0.007101 0.228915 0.123144 -0.090392 0.659485 0.746263 222 210 183
-0.089342 0.282333 0.064256 -0.706055 0.678174 -0.203877 222 210 183
-0.077773 0.292182 0.056954 -0.706055 0.678174 -0.203877 222 210 183
-0.104265 0.246374 -0.003675 -0.706055 0.678174 -0.203877 222 210 183
-0.077773 0.292182 0.056954 -0.642265 0.719859 -0.263246 222 210 183
-0.092556 0.256992 -0.003207 -0.642265 0.719859 -0.263246 222 210 183
-0.104265 0.246374 -0.003675 -0.642265 0.719859 -0.263246 222 210 183
-0.092556 0.256992 -0.003207 -0.651089 0.705661 0.279509 222 210 183
-0.091636 0.281441 -0.062789 -0.651089 0.705661 0.279509 222 210 183
-0.104265 0.246374 -0.003675 -0.651089 0.705661 0.279509 222 210 183
-0.081163 0.291605 -0.054354 -0.767434 0.597209 0.233210 222 210 183
-0.091636 0.281441 -0.062789 -0.767434 0.597209 0.233210 222 210 183
-0.092556 0.256992 -0.003207 -0.767434 0.597209 0.233210 222 210 183
-0.091636 0.281441 -0.062789 -0.084531 0.686463 -0.722234 222 210 183
-0.081163 0.291605 -0.054354 -0.084531 0.686463 -0.722234 222 210 183
0.038315 0.236093 -0.121100 -0.084531 0.686463 -0.722234 222 210 183
-0.091636 0.281441 -0.062789 -0.022015 0.764829 -0.643857 222 210 183
0.038315 0.236093 -0.121100 -0.022015 0.764829 -0.643857 222 210 183
0.038739 0.227133 -0.131758 -0.022015 0.764829 -0.643857 222 210 183
0.038315 0.236093 -0.121100 -0.190797 0.747635 -0.636112 222 210 183
0.108004 0.272493 -0.099221 -0.190797 0.747635 -0.636112 222 210 183
0.038739 0.227133 -0.131758 -0.190797 0.747635 -0.636112 222 210 183
0.097462 0.280603 -0.088545 -0.153393 0.708016 -0.689336 222 210 183
0.108004 0.272493 -0.099221 -0.153393 0.708016 -0.689336 222 210 183
0.038315 0.236093 -0.121100 -0.153393 0.708016 -0.689336 222 210 183
0.137205 0.240421 -0.024826 0.547818 0.826082 -0.132228 222 210 183
0.107395 0.277512 0.083392 0.547818 0.826082 -0.132228 222 210 183
0.149093 0.232305 -0.026277 0.547818 0.826082 -0.132228 222 210 183
0.097031 0.285992 0.073490 0.670221 0.738979 -0.068658 222 210 183
0.107395 0.277512 0.083392 0.670221 0.738979 -0.068658 222 210 183
0.137205 0.240421 -0.024826 0.670221 0.738979 -0.068658 222 210 183
0.108004 0.272493 -0.099221 0.651693 0.755264 0.069802 222 210 183
0.097462 0.280603 -0.088545 0.651693 0.755264 0.069802 222 210 183
0.137205 0.240421 -0.024826 0.651693 0.755264 0.069802 222 210 183
0.108004 0.272493 -0.099221 0.569784 0.812013 0.126416 222 210 183
0.137205 0.240421 -0.024826 0.569784 0.812013 0.126416 222 210 183
0.149093 0.232305 -0.026277 0.569784 0.812013 0.126416 222 210 183
-0.073196 0.148125 -0.055930 -0.600555 0.754313 -0.265229 222 210 183
-0.098390 0.111379 -0.103389 -0.600555 0.754313 -0.265229 222 210 183
-0.138275 0.109617 -0.018089 -0.600555 0.754313 -0.265229 222 210 183
-0.078509 0.145990 -0.009164 -0.517632 0.855375 -0.019771 222 210 183
-0.073196 0.148125 -0.055930 -0.517632 0.855375 -0.019771 222 210 183
-0.138275 0.109617 -0.018089 -0.517632 0.855375 -0.019771 222 210 183
-0.098390 0.111379 -0.103389 -0.241902 0.817197 -0.523137 222 210 183
0.046969 0.145128 -0.117885 -0.241902 0.817197 -0.523137 222 210 183
0.031556 0.109262 -0.166784 -0.241902 0.817197 -0.523137 222 210 183
-0.073196 0.148125 -0.055930 -0.242464 0.825176 -0.510192 222 210 183
0.046969 0.145128 -0.117885 -0.242464 0.825176 -0.510192 222 210 183
-0.098390 0.111379 -0.103389 -0.242464 0.825176 -0.510192 222 210 183
-0.074253 0.142554 0.053313 -0.527073 0.845814 0.082421 222 210 183
-0.078509 0.145990 -0.009164 -0.527073 0.845814 0.082421 222 210 183
-0.138275 0.109617 -0.018089 -0.527073 0.845814 0.082421 222 210 183
-0.074253 0.142554 0.053313 -0.616282 0.761345 0.201373 222 210 183
-0.138275 0.109617 -0.018089 -0.616282 0.761345 0.201373 222 210 183
-0.106183 0.108714 0.083541 -0.616282 0.761345 0.201373 222 210 183
0.031556 0.109262 -0.166784 0.210806 0.755359 -0.620478 222 210 183
0.046969 0.145128 -0.117885 0.210806 0.755359 -0.620478 222 210 183
0.128542 0.105122 -0.138873 0.210806 0.755359 -0.620478 222 210 183
0.046969 0.145128 -0.117885 0.297066 0.841988 -0.450343 222 210 183
0.102235 0.140820 -0.089483 0.297066 0.841988 -0.450343 222 210 183
0.128542 0.105122 -0.138873 0.297066 0.841988 -0.450343 222 210 183
-0.074253 0.142554 0.053313 -0.277494 0.772279 0.571473 222 210 183
-0.106183 0.108714 0.083541 -0.277494 0.772279 0.571473 222 210 183
-0.008312 0.107926 0.132130 -0.277494 0.772279 0.571473 222 210 183
0.000276 0.135863 0.108752 -0.411693 0.655953 0.632641 222 210 183
-0.074253 0.142554 0.053313 -0.411693 0.655953 0.632641 222 210 183
-0.008312 0.107926 0.132130 -0.411693 0.655953 0.632641 222 210 183
0.102235 0.140820 -0.089483 0.634705 0.690029 -0.347864 222 210 183
0.139388 0.135917 -0.031421 0.634705 0.690029 -0.347864 222 210 183
0.168760 0.105181 -0.038798 0.634705 0.690029 -0.347864 222 210 183
0.102235 0.140820 -0.089483 0.593751 0.768314 -0.239067 222 210 183
0.168760 0.105181 -0.038798 0.593751 0.768314 -0.239067 222 210 183
0.128542 0.105122 -0.138873 0.593751 0.768314 -0.239067 222 210 183
0.106347 0.132159 0.074604 0.848467 0.369288 0.379117 222 210 183
0.113955 0.106632 0.082443 0.848467 0.369288 0.379117 222 210 183
0.168760 0.105181 -0.038798 0.848467 0.369288 0.379117 222 210 183
0.139388 0.135917 -0.031421 0.729289 0.636957 0.249847 222 210 183
0.106347 0.132159 0.074604 0.729289 0.636957 0.249847 222 210 183
0.168760 0.105181 -0.038798 0.729289 0.636957 0.249847 222 210 183
0.106347 0.132159 0.074604 0.270169 0.567691 0.777648 222 210 183
0.000276 0.135863 0.108752 0.270169 0.567691 0.777648 222 210 183
-0.008312 0.107926 0.132130 0.270169 0.567691 0.777648 222 210 183
0.106347 0.132159 0.074604 0.353227 0.369232 0.859592 222 210 183
-0.008312 0.107926 0.132130 0.353227 0.369232 0.859592 222 210 183
0.113955 0.106632 0.082443 0.353227 0.369232 0.859592 222 210 183
3 0 1 2
3 3 4 5
3 6 7 8
3 9 10 11
3 12 13 14
3 15 16 17
3 18 19 20
3 21 22 23
3 24 25 26
3 27 28 29
3 30 31 32
3 33 34 35
3 36 37 38
3 39 40 41
3 42 43 44
3 45 46 47
3 48 49 50
3 51 52 53
3 54 55 56
3 57 58 59
3 60 61 62
3 63 64 65
3 66 67 68
3 69 70 71
3 72 73 74
3 75 76 77
3 78 79 80
3 81 82 83
3 84 85 86
3 87 88 89
3 90 91 92
3 93 94 95
3 96 97 98
3 99 100 101
3 102 103 104
3 105 106 107
3 108 109 110
3 111 112 113
3 114 115 116
3 117 118 119
3 120 121 122
3 123 124 125
3 126 127 128
3 129 130 131
3 132 133 134
3 135 136 137
3 138 139 140
3 141 142 143
3 144 145 146
3 147 148 149
3 150 151 152
3 153 154 155
3 156 157 158
3 159 160 161
3 162 163 164
3 165 166 167
3 168 169 170
3 171 172 173
3 174 175 176
3 177 178 179
3 180 181 182
3 183 184 185
3 186 187 188
3 189 190 191
3 192 193 194
3 195 196 197
3 198 199 200
3 201 202 203
3 204 205 206
3 207 208 209
3 210 211 212
3 213 214 215
3 216 217 218
3 219 220 221
3 222 223 224
3 225 226 227
3 228 229 230
3 231 232 233
3 234 235 236
3 237 238 239
3 240 241 242
3 243 244 245
3 246 247 248
3 249 250 251
3 252 253 254
3 255 256 257
3 258 259 260
3 261 262 263
3 264 265 266
3 267 268 269
3 270 271 272
3 273 274 275
3 276 277 278
3 279 280 281
3 282 283 284
3 285 286 287
3 288 289 290
3 291 292 293
3 294 295 296
3 297 298 299
3 300 301 302
3 303 304 305
3 306 307 308
3 309 310 311
3 312 313 314
3 315 316 317
3 318 319 320
3 321 322 323
3 324 325 326
3 327 328 329
3 330 331 332
3 333 334 335
3 336 337 338
3 339 340 341
3 342 343 344
3 345 346 347
3 348 349 350
3 351 352 353
3 354 355 356
3 357 358 359
3 360 361 362
3 363 364 365
3 366 367 368
3 369 370 371
3 372 373 374
3 375 376 377
3 378 379 380
3 381 382 383
3 384 385 386
3 387 388 389
3 390 391 392
3 393 394 395
3 396 397 398
3 399 400 401
3 402 403 404
3 405 406 407
3 408 409 410
3 411 412 413
3 414 415 416
3 417 418 419
3 420 421 422
3 423 424 425
3 426 427 428
3 429 430 431
3 432 433 434
3 435 436 437
3 438 439 440
3 441 442 443
3 444 445 446
3 447 448 449
3 450 451 452
3 453 454 455
3 456 457 458
3 459 460 461
3 462 463 464
3 465 466 467
3 468 469 470
3 471 472 473
3 474 475 476
3 477 478 479
3 480 481 482
3 483 484 485
3 486 487 488
3 489 490 491
3 492 493 494
3 495 496 497
3 498 499 500
3 501 502 503
3 504 505 506
3 507 508 509
3 510 511 512
3 513 514 515
3 516 517 518
3 519 520 521
3 522 523 524
3 525 526 527
3 528 529 530
3 531 532 533
3 534 535 536
3 537 538 539
3 540 541 542
3 543 544 545
3 546 547 548
3 549 550 551
3 552 553 554
3 555 556 557
3 558 559 560
3 561 562 563
3 564 565 566
3 567 568 569
3 570 571 572
3 573 574 575
3 576 577 578
3 579 580 581
3 582 583 584
3 585 586 587
3 588 589 590
3 591 592 593
3 594 595 596
3 597 598 599
3 600 601 602
3 603 604 605
3 606 607 608
3 609 610 611
3 612 613 614
3 615 616 617
3 618 619 620
3 621 622 623
3 624 625 626
3 627 628 629
3 630 631 632
3 633 634 635
3 636 637 638
3 639 640 641
3 642 643 644
3 645 646 647
3 648 649 650
3 651 652 653
3 654 655 656
3 657 658 659
3 660 661 662
3 663 664 665
3 666 667 668
3 669 670 671
