ply
format ascii 1.0
comment Created by Blender 2.77 (sub 0) - www.blender.org, source file: 'Cloth.blend'
element vertex 408
property float x
property float y
property float z
property float nx
property float ny
property float nz
property uchar red
property uchar green
property uchar blue
element face 136
property list uchar uint vertex_indices
end_header
0.369991 0.377075 -0.196799 0.454874 0.395214 -0.798057 164 164 164
0.586607 0.398209 -0.062867 0.454874 0.395214 -0.798057 164 164 164
0.442848 0.330981 -0.178099 0.454874 0.395214 -0.798057 164 164 164
0.719919 0.186024 0.020059 0.414483 0.857791 0.303972 164 164 164
0.442355 0.304989 0.062823 0.414483 0.857791 0.303972 164 164 164
0.556045 0.191518 0.228006 0.414483 0.857791 0.303972 164 164 164
0.556045 0.191518 0.228006 0.574128 0.694213 0.434103 164 164 164
0.723292 0.091615 0.166576 0.574128 0.694213 0.434103 164 164 164
0.719919 0.186024 0.020059 0.574128 0.694213 0.434103 164 164 164
0.527300 -0.007088 0.240316 0.527891 -0.748796 0.400793 164 164 164
0.675595 -0.029884 0.002404 0.527891 -0.748796 0.400793 164 164 164
0.723292 0.091615 0.166576 0.527891 -0.748796 0.400793 164 164 164
0.027724 0.172471 -0.453377 0.020665 -0.306219 -0.951737 164 164 164
0.237919 0.075959 -0.417760 0.020665 -0.306219 -0.951737 164 164 164
0.215620 0.003979 -0.395085 0.020665 -0.306219 -0.951737 164 164 164
0.027724 0.172471 -0.453377 0.087738 -0.236897 -0.967565 164 164 164
0.215620 0.003979 -0.395085 0.087738 -0.236897 -0.967565 164 164 164
-0.045747 0.000551 -0.417947 0.087738 -0.236897 -0.967565 164 164 164
-0.045747 0.000551 -0.417947 0.071023 -0.704265 -0.706375 164 164 164
0.215620 0.003979 -0.395085 0.071023 -0.704265 -0.706375 164 164 164
0.197684 -0.065379 -0.327737 0.071023 -0.704265 -0.706375 164 164 164
-0.045747 0.000551 -0.417947 0.012005 -0.791590 -0.610935 164 164 164
0.197684 -0.065379 -0.327737 0.012005 -0.791590 -0.610935 164 164 164
0.064370 -0.122221 -0.256708 0.012005 -0.791590 -0.610935 164 164 164
0.084402 0.267416 0.137091 0.027367 0.832641 0.553136 164 164 164
0.556045 0.191518 0.228006 0.027367 0.832641 0.553136 164 164 164
0.442355 0.304989 0.062823 0.027367 0.832641 0.553136 164 164 164
0.501599 0.097636 0.302932 -0.051311 -0.521747 0.851556 164 164 164
-0.028744 0.075802 0.257598 -0.051311 -0.521747 0.851556 164 164 164
0.527300 -0.007088 0.240316 -0.051311 -0.521747 0.851556 164 164 164
-0.330082 0.038054 -0.011617 -0.856509 -0.473439 -0.205546 164 164 164
-0.357391 0.136717 -0.125077 -0.856509 -0.473439 -0.205546 164 164 164
-0.253492 0.023536 -0.297332 -0.856509 -0.473439 -0.205546 164 164 164
-0.161333 -0.072970 -0.061457 -0.560184 -0.826503 -0.055557 164 164 164
-0.330082 0.038054 -0.011617 -0.560184 -0.826503 -0.055557 164 164 164
-0.130208 -0.079383 -0.279899 -0.560184 -0.826503 -0.055557 164 164 164
-0.043927 0.166377 0.276559 -0.074312 -0.216253 0.973505 164 164 164
-0.028744 0.075802 0.257598 -0.074312 -0.216253 0.973505 164 164 164
0.501599 0.097636 0.302932 -0.074312 -0.216253 0.973505 164 164 164
-0.028744 0.075802 0.257598 -0.234211 -0.635717 0.735533 164 164 164
-0.207705 0.060974 0.187797 -0.234211 -0.635717 0.735533 164 164 164
-0.077162 -0.049393 0.133975 -0.234211 -0.635717 0.735533 164 164 164
-0.077162 -0.049393 0.133975 -0.126839 -0.976814 0.172472 164 164 164
-0.161333 -0.072970 -0.061457 -0.126839 -0.976814 0.172472 164 164 164
0.087673 -0.120521 -0.147640 -0.126839 -0.976814 0.172472 164 164 164
-0.130208 -0.079383 -0.279899 -0.116491 -0.826938 -0.550094 164 164 164
-0.045747 0.000551 -0.417947 -0.116491 -0.826938 -0.550094 164 164 164
0.064370 -0.122221 -0.256708 -0.116491 -0.826938 -0.550094 164 164 164
-0.005187 0.253626 -0.280925 0.078257 -0.936243 -0.342528 164 164 164
0.052512 0.278957 -0.336981 0.078257 -0.936243 -0.342528 164 164 164
0.062508 0.267830 -0.304284 0.078257 -0.936243 -0.342528 164 164 164
-0.109884 0.219333 -0.349839 -0.449448 0.857187 -0.251450 164 164 164
-0.253655 0.150577 -0.327244 -0.449448 0.857187 -0.251450 164 164 164
-0.253742 0.202019 -0.151724 -0.449448 0.857187 -0.251450 164 164 164
-0.357391 0.136717 -0.125077 -0.560570 0.794605 -0.233163 164 164 164
-0.253742 0.202019 -0.151724 -0.560570 0.794605 -0.233163 164 164 164
-0.253655 0.150577 -0.327244 -0.560570 0.794605 -0.233163 164 164 164
-0.253742 0.202019 -0.151724 -0.544529 0.835839 -0.069720 164 164 164
-0.357391 0.136717 -0.125077 -0.544529 0.835839 -0.069720 164 164 164
-0.340143 0.159313 0.011108 -0.544529 0.835839 -0.069720 164 164 164
-0.169689 0.265682 -0.130106 -0.648252 0.759660 -0.051820 164 164 164
-0.059845 0.365972 -0.034009 -0.648252 0.759660 -0.051820 164 164 164
-0.105156 0.317927 -0.171515 -0.648252 0.759660 -0.051820 164 164 164
-0.114901 0.242208 0.068088 -0.280304 0.956738 0.077993 164 164 164
-0.177310 0.229317 0.001928 -0.280304 0.956738 0.077993 164 164 164
-0.221907 0.205767 0.130541 -0.280304 0.956738 0.077993 164 164 164
0.228272 0.281181 -0.277249 0.351543 0.269977 -0.896398 164 164 164
0.442848 0.330981 -0.178099 0.351543 0.269977 -0.896398 164 164 164
0.694778 0.134827 -0.138377 0.351543 0.269977 -0.896398 164 164 164
0.223490 0.179614 -0.417089 0.394574 0.736994 -0.548773 164 164 164
0.228272 0.281181 -0.277249 0.394574 0.736994 -0.548773 164 164 164
0.694778 0.134827 -0.138377 0.394574 0.736994 -0.548773 164 164 164
0.780398 0.094550 0.020837 0.797875 0.525000 -0.296260 164 164 164
0.694778 0.134827 -0.138377 0.797875 0.525000 -0.296260 164 164 164
0.719919 0.186024 0.020059 0.797875 0.525000 -0.296260 164 164 164
0.688445 0.029887 -0.133132 0.763944 -0.614039 -0.198357 164 164 164
0.780398 0.094550 0.020837 0.763944 -0.614039 -0.198357 164 164 164
0.675595 -0.029884 0.002404 0.763944 -0.614039 -0.198357 164 164 164
0.780398 0.094550 0.020837 0.869884 -0.076846 -0.487233 164 164 164
0.688445 0.029887 -0.133132 0.869884 -0.076846 -0.487233 164 164 164
0.694778 0.134827 -0.138377 0.869884 -0.076846 -0.487233 164 164 164
0.197684 -0.065379 -0.327737 0.362825 -0.929723 -0.063031 164 164 164
0.087673 -0.120521 -0.147640 0.362825 -0.929723 -0.063031 164 164 164
0.064370 -0.122221 -0.256708 0.362825 -0.929723 -0.063031 164 164 164
0.780398 0.094550 0.020837 0.716963 -0.643549 0.267971 164 164 164
0.723292 0.091615 0.166576 0.716963 -0.643549 0.267971 164 164 164
0.675595 -0.029884 0.002404 0.716963 -0.643549 0.267971 164 164 164
0.479856 0.359533 0.225808 0.096498 -0.950350 0.295841 164 164 164
0.006992 0.283843 0.136901 0.096498 -0.950350 0.295841 164 164 164
0.442355 0.304989 0.062823 0.096498 -0.950350 0.295841 164 164 164
0.067040 0.385546 -0.170365 -0.001884 0.945817 -0.324696 164 164 164
0.260642 0.433151 -0.032818 -0.001884 0.945817 -0.324696 164 164 164
0.369991 0.377075 -0.196799 -0.001884 0.945817 -0.324696 164 164 164
-0.059845 0.365972 -0.034009 -0.356884 0.912236 -0.201143 164 164 164
0.067040 0.385546 -0.170365 -0.356884 0.912236 -0.201143 164 164 164
-0.105156 0.317927 -0.171515 -0.356884 0.912236 -0.201143 164 164 164
-0.059845 0.365972 -0.034009 -0.203613 0.973252 -0.106407 164 164 164
0.102868 0.410387 0.060879 -0.203613 0.973252 -0.106407 164 164 164
0.260642 0.433151 -0.032818 -0.203613 0.973252 -0.106407 164 164 164
-0.059845 0.365972 -0.034009 -0.741046 0.663999 0.099777 164 164 164
-0.160426 0.249236 -0.004169 -0.741046 0.663999 0.099777 164 164 164
-0.058067 0.353214 0.064099 -0.741046 0.663999 0.099777 164 164 164
0.052512 0.278957 -0.336981 -0.315432 0.811617 -0.491712 164 164 164
-0.105156 0.317927 -0.171515 -0.315432 0.811617 -0.491712 164 164 164
0.067040 0.385546 -0.170365 -0.315432 0.811617 -0.491712 164 164 164
0.622626 0.368324 0.055758 0.762932 -0.374961 -0.526630 164 164 164
0.497147 0.309297 -0.083998 0.762932 -0.374961 -0.526630 164 164 164
0.442848 0.330981 -0.178099 0.762932 -0.374961 -0.526630 164 164 164
0.074511 0.374527 0.160760 -0.320906 0.916715 0.238018 164 164 164
0.102868 0.410387 0.060879 -0.320906 0.916715 0.238018 164 164 164
-0.058067 0.353214 0.064099 -0.320906 0.916715 0.238018 164 164 164
0.006992 0.283843 0.136901 -0.161889 -0.136594 0.977310 164 164 164
0.479856 0.359533 0.225808 -0.161889 -0.136594 0.977310 164 164 164
0.074511 0.374527 0.160760 -0.161889 -0.136594 0.977310 164 164 164
0.622626 0.368324 0.055758 0.619270 0.561392 0.548948 164 164 164
0.466564 0.406767 0.192498 0.619270 0.561392 0.548948 164 164 164
0.479856 0.359533 0.225808 0.619270 0.561392 0.548948 164 164 164
0.442848 0.330981 -0.178099 0.621768 0.761445 -0.183318 164 164 164
0.497147 0.309297 -0.083998 0.621768 0.761445 -0.183318 164 164 164
0.694778 0.134827 -0.138377 0.621768 0.761445 -0.183318 164 164 164
-0.277142 0.039585 0.038329 -0.396720 -0.802803 0.445108 164 164 164
-0.330082 0.038054 -0.011617 -0.396720 -0.802803 0.445108 164 164 164
-0.161333 -0.072970 -0.061457 -0.396720 -0.802803 0.445108 164 164 164
-0.330082 0.038054 -0.011617 -0.624795 -0.770167 -0.128354 164 164 164
-0.253492 0.023536 -0.297332 -0.624795 -0.770167 -0.128354 164 164 164
-0.130208 -0.079383 -0.279899 -0.624795 -0.770167 -0.128354 164 164 164
-0.109884 0.219333 -0.349839 -0.428282 0.713209 -0.554894 164 164 164
-0.100773 0.168748 -0.421888 -0.428282 0.713209 -0.554894 164 164 164
-0.253655 0.150577 -0.327244 -0.428282 0.713209 -0.554894 164 164 164
-0.111311 0.256109 0.067069 -0.530750 0.177105 0.828817 164 164 164
0.006992 0.283843 0.136901 -0.530750 0.177105 0.828817 164 164 164
0.074511 0.374527 0.160760 -0.530750 0.177105 0.828817 164 164 164
-0.109884 0.219333 -0.349839 -0.165380 0.797203 -0.580618 164 164 164
0.027724 0.172471 -0.453377 -0.165380 0.797203 -0.580618 164 164 164
-0.100773 0.168748 -0.421888 -0.165380 0.797203 -0.580618 164 164 164
0.556045 0.191518 0.228006 0.498428 0.345502 0.795109 164 164 164
0.501599 0.097636 0.302932 0.498428 0.345502 0.795109 164 164 164
0.723292 0.091615 0.166576 0.498428 0.345502 0.795109 164 164 164
0.260642 0.433151 -0.032818 -0.018312 0.990977 0.132777 164 164 164
0.466564 0.406767 0.192498 -0.018312 0.990977 0.132777 164 164 164
0.572220 0.423220 0.084275 -0.018312 0.990977 0.132777 164 164 164
-0.086389 0.276945 -0.264795 -0.717759 0.572708 -0.396014 164 164 164
-0.169689 0.265682 -0.130106 -0.717759 0.572708 -0.396014 164 164 164
-0.105156 0.317927 -0.171515 -0.717759 0.572708 -0.396014 164 164 164
-0.009490 0.249496 0.145230 0.043380 0.215751 0.975484 164 164 164
0.084402 0.267416 0.137091 0.043380 0.215751 0.975484 164 164 164
0.006992 0.283843 0.136901 0.043380 0.215751 0.975484 164 164 164
0.102868 0.410387 0.060879 0.077212 0.931196 0.356248 164 164 164
0.074511 0.374527 0.160760 0.077212 0.931196 0.356248 164 164 164
0.260642 0.433151 -0.032818 0.077212 0.931196 0.356248 164 164 164
0.622626 0.368324 0.055758 0.330584 -0.915262 0.230237 164 164 164
0.479856 0.359533 0.225808 0.330584 -0.915262 0.230237 164 164 164
0.442355 0.304989 0.062823 0.330584 -0.915262 0.230237 164 164 164
0.723292 0.091615 0.166576 0.789114 0.524451 0.319767 164 164 164
0.780398 0.094550 0.020837 0.789114 0.524451 0.319767 164 164 164
0.719919 0.186024 0.020059 0.789114 0.524451 0.319767 164 164 164
0.527300 -0.007088 0.240316 0.355767 -0.882936 0.306357 164 164 164
0.491439 -0.058304 0.134352 0.355767 -0.882936 0.306357 164 164 164
0.675595 -0.029884 0.002404 0.355767 -0.882936 0.306357 164 164 164
0.723292 0.091615 0.166576 0.481753 -0.359583 0.799133 164 164 164
0.501599 0.097636 0.302932 0.481753 -0.359583 0.799133 164 164 164
0.527300 -0.007088 0.240316 0.481753 -0.359583 0.799133 164 164 164
0.228272 0.281181 -0.277249 -0.063437 0.992829 -0.101324 164 164 164
0.053953 0.262231 -0.353794 -0.063437 0.992829 -0.101324 164 164 164
0.062508 0.267830 -0.304284 -0.063437 0.992829 -0.101324 164 164 164
0.052512 0.278957 -0.336981 -0.023308 0.843067 -0.537304 164 164 164
0.067040 0.385546 -0.170365 -0.023308 0.843067 -0.537304 164 164 164
0.369991 0.377075 -0.196799 -0.023308 0.843067 -0.537304 164 164 164
-0.028744 0.075802 0.257598 -0.335992 -0.236513 0.911686 164 164 164
-0.212402 0.164580 0.212944 -0.335992 -0.236513 0.911686 164 164 164
-0.207705 0.060974 0.187797 -0.335992 -0.236513 0.911686 164 164 164
0.027724 0.172471 -0.453377 0.181053 0.031567 -0.982967 164 164 164
0.223490 0.179614 -0.417089 0.181053 0.031567 -0.982967 164 164 164
0.237919 0.075959 -0.417760 0.181053 0.031567 -0.982967 164 164 164
0.491439 -0.058304 0.134352 -0.015382 -0.971539 0.236378 164 164 164
-0.077162 -0.049393 0.133975 -0.015382 -0.971539 0.236378 164 164 164
0.087673 -0.120521 -0.147640 -0.015382 -0.971539 0.236378 164 164 164
-0.340143 0.159313 0.011108 -0.556112 -0.105188 0.824424 164 164 164
-0.277142 0.039585 0.038329 -0.556112 -0.105188 0.824424 164 164 164
-0.265847 0.152802 0.060394 -0.556112 -0.105188 0.824424 164 164 164
-0.130208 -0.079383 -0.279899 -0.186830 -0.982390 0.002218 164 164 164
0.087673 -0.120521 -0.147640 -0.186830 -0.982390 0.002218 164 164 164
-0.161333 -0.072970 -0.061457 -0.186830 -0.982390 0.002218 164 164 164
-0.340143 0.159313 0.011108 -0.983835 -0.108348 0.142579 164 164 164
-0.357391 0.136717 -0.125077 -0.983835 -0.108348 0.142579 164 164 164
-0.330082 0.038054 -0.011617 -0.983835 -0.108348 0.142579 164 164 164
-0.077162 -0.049393 0.133975 -0.464162 -0.765944 0.444842 164 164 164
-0.207705 0.060974 0.187797 -0.464162 -0.765944 0.444842 164 164 164
-0.191535 -0.018502 0.067824 -0.464162 -0.765944 0.444842 164 164 164
-0.253492 0.023536 -0.297332 -0.508648 -0.186100 -0.840621 164 164 164
-0.100773 0.168748 -0.421888 -0.508648 -0.186100 -0.840621 164 164 164
-0.045747 0.000551 -0.417947 -0.508648 -0.186100 -0.840621 164 164 164
-0.130208 -0.079383 -0.279899 -0.439490 -0.634202 -0.636110 164 164 164
-0.253492 0.023536 -0.297332 -0.439490 -0.634202 -0.636110 164 164 164
-0.045747 0.000551 -0.417947 -0.439490 -0.634202 -0.636110 164 164 164
0.491439 -0.058304 0.134352 -0.011448 -0.700333 0.713724 164 164 164
-0.028744 0.075802 0.257598 -0.011448 -0.700333 0.713724 164 164 164
-0.077162 -0.049393 0.133975 -0.011448 -0.700333 0.713724 164 164 164
-0.253492 0.023536 -0.297332 -0.881306 -0.109373 -0.459714 164 164 164
-0.357391 0.136717 -0.125077 -0.881306 -0.109373 -0.459714 164 164 164
-0.253655 0.150577 -0.327244 -0.881306 -0.109373 -0.459714 164 164 164
-0.045747 0.000551 -0.417947 -0.234126 -0.099255 -0.967126 164 164 164
-0.100773 0.168748 -0.421888 -0.234126 -0.099255 -0.967126 164 164 164
0.027724 0.172471 -0.453377 -0.234126 -0.099255 -0.967126 164 164 164
-0.160426 0.249236 -0.004169 -0.731930 0.666655 0.140893 164 164 164
-0.059845 0.365972 -0.034009 -0.731930 0.666655 0.140893 164 164 164
-0.169689 0.265682 -0.130106 -0.731930 0.666655 0.140893 164 164 164
0.237919 0.075959 -0.417760 0.461922 -0.393496 -0.794852 164 164 164
0.688445 0.029887 -0.133132 0.461922 -0.393496 -0.794852 164 164 164
0.215620 0.003979 -0.395085 0.461922 -0.393496 -0.794852 164 164 164
0.497147 0.309297 -0.083998 0.410780 0.893884 0.179529 164 164 164
0.442355 0.304989 0.062823 0.410780 0.893884 0.179529 164 164 164
0.719919 0.186024 0.020059 0.410780 0.893884 0.179529 164 164 164
0.622626 0.368324 0.055758 0.333289 -0.937836 0.096860 164 164 164
0.442355 0.304989 0.062823 0.333289 -0.937836 0.096860 164 164 164
0.497147 0.309297 -0.083998 0.333289 -0.937836 0.096860 164 164 164
0.622626 0.368324 0.055758 0.617451 -0.697712 -0.363253 164 164 164
0.442848 0.330981 -0.178099 0.617451 -0.697712 -0.363253 164 164 164
0.586607 0.398209 -0.062867 0.617451 -0.697712 -0.363253 164 164 164
0.497147 0.309297 -0.083998 0.570853 0.750452 -0.333089 164 164 164
0.719919 0.186024 0.020059 0.570853 0.750452 -0.333089 164 164 164
0.694778 0.134827 -0.138377 0.570853 0.750452 -0.333089 164 164 164
-0.059845 0.365972 -0.034009 -0.204719 0.977534 -0.050175 164 164 164
0.260642 0.433151 -0.032818 -0.204719 0.977534 -0.050175 164 164 164
0.067040 0.385546 -0.170365 -0.204719 0.977534 -0.050175 164 164 164
0.466564 0.406767 0.192498 -0.112264 0.551388 0.826661 164 164 164
0.074511 0.374527 0.160760 -0.112264 0.551388 0.826661 164 164 164
0.479856 0.359533 0.225808 -0.112264 0.551388 0.826661 164 164 164
0.260642 0.433151 -0.032818 -0.096519 0.974550 0.202329 164 164 164
0.074511 0.374527 0.160760 -0.096519 0.974550 0.202329 164 164 164
0.466564 0.406767 0.192498 -0.096519 0.974550 0.202329 164 164 164
-0.086389 0.276945 -0.264795 -0.236236 0.871231 -0.430289 164 164 164
-0.105156 0.317927 -0.171515 -0.236236 0.871231 -0.430289 164 164 164
0.052512 0.278957 -0.336981 -0.236236 0.871231 -0.430289 164 164 164
0.237919 0.075959 -0.417760 0.527209 -0.074120 -0.846497 164 164 164
0.694778 0.134827 -0.138377 0.527209 -0.074120 -0.846497 164 164 164
0.688445 0.029887 -0.133132 0.527209 -0.074120 -0.846497 164 164 164
0.556045 0.191518 0.228006 0.014516 0.803340 0.595343 164 164 164
0.084402 0.267416 0.137091 0.014516 0.803340 0.595343 164 164 164
-0.043927 0.166377 0.276559 0.014516 0.803340 0.595343 164 164 164
0.369991 0.377075 -0.196799 0.368125 0.214872 -0.904607 164 164 164
0.442848 0.330981 -0.178099 0.368125 0.214872 -0.904607 164 164 164
0.228272 0.281181 -0.277249 0.368125 0.214872 -0.904607 164 164 164
0.052512 0.278957 -0.336981 0.302481 0.309332 -0.901565 164 164 164
0.369991 0.377075 -0.196799 0.302481 0.309332 -0.901565 164 164 164
0.228272 0.281181 -0.277249 0.302481 0.309332 -0.901565 164 164 164
-0.089724 0.242059 -0.234526 -0.776300 -0.369128 -0.510982 164 164 164
-0.169689 0.265682 -0.130106 -0.776300 -0.369128 -0.510982 164 164 164
-0.086389 0.276945 -0.264795 -0.776300 -0.369128 -0.510982 164 164 164
-0.160426 0.249236 -0.004169 -0.890003 -0.455916 0.005929 164 164 164
-0.169689 0.265682 -0.130106 -0.890003 -0.455916 0.005929 164 164 164
-0.158488 0.243678 -0.140712 -0.890003 -0.455916 0.005929 164 164 164
-0.086389 0.276945 -0.264795 -0.318532 -0.603657 -0.730846 164 164 164
-0.005187 0.253626 -0.280925 -0.318532 -0.603657 -0.730846 164 164 164
-0.089724 0.242059 -0.234526 -0.318532 -0.603657 -0.730846 164 164 164
0.027724 0.172471 -0.453377 -0.212203 0.753014 -0.622848 164 164 164
-0.109884 0.219333 -0.349839 -0.212203 0.753014 -0.622848 164 164 164
0.053953 0.262231 -0.353794 -0.212203 0.753014 -0.622848 164 164 164
0.223490 0.179614 -0.417089 0.169591 0.794623 -0.582935 164 164 164
0.053953 0.262231 -0.353794 0.169591 0.794623 -0.582935 164 164 164
0.228272 0.281181 -0.277249 0.169591 0.794623 -0.582935 164 164 164
-0.177310 0.229317 0.001928 -0.767864 0.639548 -0.036928 164 164 164
-0.160426 0.249236 -0.004169 -0.767864 0.639548 -0.036928 164 164 164
-0.158488 0.243678 -0.140712 -0.767864 0.639548 -0.036928 164 164 164
-0.253742 0.202019 -0.151724 -0.298376 0.944984 -0.134078 164 164 164
-0.089724 0.242059 -0.234526 -0.298376 0.944984 -0.134078 164 164 164
-0.109884 0.219333 -0.349839 -0.298376 0.944984 -0.134078 164 164 164
-0.109884 0.219333 -0.349839 -0.215615 0.964513 -0.152396 164 164 164
-0.089724 0.242059 -0.234526 -0.215615 0.964513 -0.152396 164 164 164
-0.005187 0.253626 -0.280925 -0.215615 0.964513 -0.152396 164 164 164
-0.005187 0.253626 -0.280925 -0.254299 0.962672 -0.092709 164 164 164
0.053953 0.262231 -0.353794 -0.254299 0.962672 -0.092709 164 164 164
-0.109884 0.219333 -0.349839 -0.254299 0.962672 -0.092709 164 164 164
0.052512 0.278957 -0.336981 0.132482 -0.925287 -0.355378 164 164 164
0.228272 0.281181 -0.277249 0.132482 -0.925287 -0.355378 164 164 164
0.062508 0.267830 -0.304284 0.132482 -0.925287 -0.355378 164 164 164
0.102868 0.410387 0.060879 -0.329754 0.935402 0.127616 164 164 164
-0.059845 0.365972 -0.034009 -0.329754 0.935402 0.127616 164 164 164
-0.058067 0.353214 0.064099 -0.329754 0.935402 0.127616 164 164 164
-0.111311 0.256109 0.067069 -0.761359 0.432243 0.483217 164 164 164
-0.058067 0.353214 0.064099 -0.761359 0.432243 0.483217 164 164 164
-0.160426 0.249236 -0.004169 -0.761359 0.432243 0.483217 164 164 164
-0.177310 0.229317 0.001928 -0.301423 0.774127 0.556661 164 164 164
-0.340143 0.159313 0.011108 -0.301423 0.774127 0.556661 164 164 164
-0.265847 0.152802 0.060394 -0.301423 0.774127 0.556661 164 164 164
-0.277142 0.039585 0.038329 -0.595222 -0.780797 0.189911 164 164 164
-0.161333 -0.072970 -0.061457 -0.595222 -0.780797 0.189911 164 164 164
-0.191535 -0.018502 0.067824 -0.595222 -0.780797 0.189911 164 164 164
-0.160426 0.249236 -0.004169 -0.808600 0.247932 0.533569 164 164 164
-0.114901 0.242208 0.068088 -0.808600 0.247932 0.533569 164 164 164
-0.111311 0.256109 0.067069 -0.808600 0.247932 0.533569 164 164 164
-0.009490 0.249496 0.145230 -0.209584 0.864742 0.456394 164 164 164
-0.221907 0.205767 0.130541 -0.209584 0.864742 0.456394 164 164 164
-0.212402 0.164580 0.212944 -0.209584 0.864742 0.456394 164 164 164
-0.212402 0.164580 0.212944 -0.888210 0.361734 0.283253 164 164 164
-0.221907 0.205767 0.130541 -0.888210 0.361734 0.283253 164 164 164
-0.265847 0.152802 0.060394 -0.888210 0.361734 0.283253 164 164 164
-0.207705 0.060974 0.187797 -0.907349 0.008613 0.420289 164 164 164
-0.265847 0.152802 0.060394 -0.907349 0.008613 0.420289 164 164 164
-0.277142 0.039585 0.038329 -0.907349 0.008613 0.420289 164 164 164
-0.207705 0.060974 0.187797 -0.605413 -0.698666 0.381236 164 164 164
-0.277142 0.039585 0.038329 -0.605413 -0.698666 0.381236 164 164 164
-0.191535 -0.018502 0.067824 -0.605413 -0.698666 0.381236 164 164 164
-0.077162 -0.049393 0.133975 -0.396293 -0.875560 0.276309 164 164 164
-0.191535 -0.018502 0.067824 -0.396293 -0.875560 0.276309 164 164 164
-0.161333 -0.072970 -0.061457 -0.396293 -0.875560 0.276309 164 164 164
0.675595 -0.029884 0.002404 0.193924 -0.964921 -0.176979 164 164 164
0.087673 -0.120521 -0.147640 0.193924 -0.964921 -0.176979 164 164 164
0.197684 -0.065379 -0.327737 0.193924 -0.964921 -0.176979 164 164 164
0.197684 -0.065379 -0.327737 0.312823 -0.879652 -0.358264 164 164 164
0.688445 0.029887 -0.133132 0.312823 -0.879652 -0.358264 164 164 164
0.675595 -0.029884 0.002404 0.312823 -0.879652 -0.358264 164 164 164
-0.111311 0.256109 0.067069 -0.588534 0.345063 0.731136 164 164 164
0.074511 0.374527 0.160760 -0.588534 0.345063 0.731136 164 164 164
-0.058067 0.353214 0.064099 -0.588534 0.345063 0.731136 164 164 164
-0.212402 0.164580 0.212944 -0.193351 0.851158 0.488002 164 164 164
-0.043927 0.166377 0.276559 -0.193351 0.851158 0.488002 164 164 164
-0.009490 0.249496 0.145230 -0.193351 0.851158 0.488002 164 164 164
-0.221907 0.205767 0.130541 -0.689968 0.715708 -0.108196 164 164 164
-0.177310 0.229317 0.001928 -0.689968 0.715708 -0.108196 164 164 164
-0.265847 0.152802 0.060394 -0.689968 0.715708 -0.108196 164 164 164
-0.340143 0.159313 0.011108 -0.393211 0.918879 0.032350 164 164 164
-0.177310 0.229317 0.001928 -0.393211 0.918879 0.032350 164 164 164
-0.253742 0.202019 -0.151724 -0.393211 0.918879 0.032350 164 164 164
-0.253742 0.202019 -0.151724 -0.404154 0.913872 0.038683 164 164 164
-0.177310 0.229317 0.001928 -0.404154 0.913872 0.038683 164 164 164
-0.158488 0.243678 -0.140712 -0.404154 0.913872 0.038683 164 164 164
-0.111311 0.256109 0.067069 -0.531420 0.431776 0.728809 164 164 164
-0.009490 0.249496 0.145230 -0.531420 0.431776 0.728809 164 164 164
0.006992 0.283843 0.136901 -0.531420 0.431776 0.728809 164 164 164
0.006992 0.283843 0.136901 0.114319 0.548349 0.828399 164 164 164
0.084402 0.267416 0.137091 0.114319 0.548349 0.828399 164 164 164
0.442355 0.304989 0.062823 0.114319 0.548349 0.828399 164 164 164
0.369991 0.377075 -0.196799 -0.004739 0.945221 -0.326397 164 164 164
0.260642 0.433151 -0.032818 -0.004739 0.945221 -0.326397 164 164 164
0.561916 0.424224 -0.063045 -0.004739 0.945221 -0.326397 164 164 164
0.260642 0.433151 -0.032818 0.030090 0.999536 0.004709 164 164 164
0.572220 0.423220 0.084275 0.030090 0.999536 0.004709 164 164 164
0.561916 0.424224 -0.063045 0.030090 0.999536 0.004709 164 164 164
0.572220 0.423220 0.084275 0.724702 0.687525 -0.046003 164 164 164
0.586607 0.398209 -0.062867 0.724702 0.687525 -0.046003 164 164 164
0.561916 0.424224 -0.063045 0.724702 0.687525 -0.046003 164 164 164
0.369991 0.377075 -0.196799 0.447477 0.419319 -0.789896 164 164 164
0.561916 0.424224 -0.063045 0.447477 0.419319 -0.789896 164 164 164
0.586607 0.398209 -0.062867 0.447477 0.419319 -0.789896 164 164 164
0.622626 0.368324 0.055758 0.671956 0.256016 0.694932 164 164 164
0.572220 0.423220 0.084275 0.671956 0.256016 0.694932 164 164 164
0.466564 0.406767 0.192498 0.671956 0.256016 0.694932 164 164 164
-0.028744 0.075802 0.257598 -0.340004 -0.246958 0.907419 164 164 164
-0.043927 0.166377 0.276559 -0.340004 -0.246958 0.907419 164 164 164
-0.212402 0.164580 0.212944 -0.340004 -0.246958 0.907419 164 164 164
-0.340143 0.159313 0.011108 -0.670828 -0.190006 0.716860 164 164 164
-0.330082 0.038054 -0.011617 -0.670828 -0.190006 0.716860 164 164 164
-0.277142 0.039585 0.038329 -0.670828 -0.190006 0.716860 164 164 164
-0.130208 -0.079383 -0.279899 -0.221689 -0.973110 0.062530 164 164 164
0.064370 -0.122221 -0.256708 -0.221689 -0.973110 0.062530 164 164 164
0.087673 -0.120521 -0.147640 -0.221689 -0.973110 0.062530 164 164 164
-0.253492 0.023536 -0.297332 -0.498575 -0.199275 -0.843630 164 164 164
-0.253655 0.150577 -0.327244 -0.498575 -0.199275 -0.843630 164 164 164
-0.100773 0.168748 -0.421888 -0.498575 -0.199275 -0.843630 164 164 164
0.491439 -0.058304 0.134352 -0.116496 -0.878199 0.463891 164 164 164
0.527300 -0.007088 0.240316 -0.116496 -0.878199 0.463891 164 164 164
-0.028744 0.075802 0.257598 -0.116496 -0.878199 0.463891 164 164 164
0.237919 0.075959 -0.417760 0.512931 0.076933 -0.854976 164 164 164
0.223490 0.179614 -0.417089 0.512931 0.076933 -0.854976 164 164 164
0.694778 0.134827 -0.138377 0.512931 0.076933 -0.854976 164 164 164
-0.009490 0.249496 0.145230 -0.118669 0.852779 0.508612 164 164 164
-0.043927 0.166377 0.276559 -0.118669 0.852779 0.508612 164 164 164
0.084402 0.267416 0.137091 -0.118669 0.852779 0.508612 164 164 164
0.501599 0.097636 0.302932 0.038533 0.609569 0.791796 164 164 164
0.556045 0.191518 0.228006 0.038533 0.609569 0.791796 164 164 164
-0.043927 0.166377 0.276559 0.038533 0.609569 0.791796 164 164 164
-0.089724 0.242059 -0.234526 -0.801166 -0.125812 -0.585068 164 164 164
-0.158488 0.243678 -0.140712 -0.801166 -0.125812 -0.585068 164 164 164
-0.169689 0.265682 -0.130106 -0.801166 -0.125812 -0.585068 164 164 164
-0.086389 0.276945 -0.264795 -0.326396 -0.688861 -0.647253 164 164 164
0.052512 0.278957 -0.336981 -0.326396 -0.688861 -0.647253 164 164 164
-0.005187 0.253626 -0.280925 -0.326396 -0.688861 -0.647253 164 164 164
0.223490 0.179614 -0.417089 0.099658 0.725897 -0.680546 164 164 164
0.027724 0.172471 -0.453377 0.099658 0.725897 -0.680546 164 164 164
0.053953 0.262231 -0.353794 0.099658 0.725897 -0.680546 164 164 164
-0.253742 0.202019 -0.151724 -0.357820 0.891553 -0.277665 164 164 164
-0.158488 0.243678 -0.140712 -0.357820 0.891553 -0.277665 164 164 164
-0.089724 0.242059 -0.234526 -0.357820 0.891553 -0.277665 164 164 164
-0.005187 0.253626 -0.280925 -0.228062 0.971097 -0.070420 164 164 164
0.062508 0.267830 -0.304284 -0.228062 0.971097 -0.070420 164 164 164
0.053953 0.262231 -0.353794 -0.228062 0.971097 -0.070420 164 164 164
-0.160426 0.249236 -0.004169 -0.609791 0.653933 0.447801 164 164 164
-0.177310 0.229317 0.001928 -0.609791 0.653933 0.447801 164 164 164
-0.114901 0.242208 0.068088 -0.609791 0.653933 0.447801 164 164 164
-0.009490 0.249496 0.145230 -0.210753 0.957374 0.197533 164 164 164
-0.114901 0.242208 0.068088 -0.210753 0.957374 0.197533 164 164 164
-0.221907 0.205767 0.130541 -0.210753 0.957374 0.197533 164 164 164
-0.207705 0.060974 0.187797 -0.933444 -0.124019 0.336603 164 164 164
-0.212402 0.164580 0.212944 -0.933444 -0.124019 0.336603 164 164 164
-0.265847 0.152802 0.060394 -0.933444 -0.124019 0.336603 164 164 164
0.675595 -0.029884 0.002404 0.152406 -0.988318 -0.000166 164 164 164
0.491439 -0.058304 0.134352 0.152406 -0.988318 -0.000166 164 164 164
0.087673 -0.120521 -0.147640 0.152406 -0.988318 -0.000166 164 164 164
0.197684 -0.065379 -0.327737 0.377879 -0.693423 -0.613491 164 164 164
0.215620 0.003979 -0.395085 0.377879 -0.693423 -0.613491 164 164 164
0.688445 0.029887 -0.133132 0.377879 -0.693423 -0.613491 164 164 164
-0.111311 0.256109 0.067069 -0.586906 0.208918 0.782237 164 164 164
-0.114901 0.242208 0.068088 -0.586906 0.208918 0.782237 164 164 164
-0.009490 0.249496 0.145230 -0.586906 0.208918 0.782237 164 164 164
0.572220 0.423220 0.084275 0.723702 0.688559 -0.046277 164 164 164
0.622626 0.368324 0.055758 0.723702 0.688559 -0.046277 164 164 164
0.586607 0.398209 -0.062867 0.723702 0.688559 -0.046277 164 164 164
3 0 1 2
3 3 4 5
3 6 7 8
3 9 10 11
3 12 13 14
3 15 16 17
3 18 19 20
3 21 22 23
3 24 25 26
3 27 28 29
3 30 31 32
3 33 34 35
3 36 37 38
3 39 40 41
3 42 43 44
3 45 46 47
3 48 49 50
3 51 52 53
3 54 55 56
3 57 58 59
3 60 61 62
3 63 64 65
3 66 67 68
3 69 70 71
3 72 73 74
3 75 76 77
3 78 79 80
3 81 82 83
3 84 85 86
3 87 88 89
3 90 91 92
3 93 94 95
3 96 97 98
3 99 100 101
3 102 103 104
3 105 106 107
3 108 109 110
3 111 112 113
3 114 115 116
3 117 118 119
3 120 121 122
3 123 124 125
3 126 127 128
3 129 130 131
3 132 133 134
3 135 136 137
3 138 139 140
3 141 142 143
3 144 145 146
3 147 148 149
3 150 151 152
3 153 154 155
3 156 157 158
3 159 160 161
3 162 163 164
3 165 166 167
3 168 169 170
3 171 172 173
3 174 175 176
3 177 178 179
3 180 181 182
3 183 184 185
3 186 187 188
3 189 190 191
3 192 193 194
3 195 196 197
3 198 199 200
3 201 202 203
3 204 205 206
3 207 208 209
3 210 211 212
3 213 214 215
3 216 217 218
3 219 220 221
3 222 223 224
3 225 226 227
3 228 229 230
3 231 232 233
3 234 235 236
3 237 238 239
3 240 241 242
3 243 244 245
3 246 247 248
3 249 250 251
3 252 253 254
3 255 256 257
3 258 259 260
3 261 262 263
3 264 265 266
3 267 268 269
3 270 271 272
3 273 274 275
3 276 277 278
3 279 280 281
3 282 283 284
3 285 286 287
3 288 289 290
3 291 292 293
3 294 295 296
3 297 298 299
3 300 301 302
3 303 304 305
3 306 307 308
3 309 310 311
3 312 313 314
3 315 316 317
3 318 319 320
3 321 322 323
3 324 325 326
3 327 328 329
3 330 331 332
3 333 334 335
3 336 337 338
3 339 340 341
3 342 343 344
3 345 346 347
3 348 349 350
3 351 352 353
3 354 355 356
3 357 358 359
3 360 361 362
3 363 364 365
3 366 367 368
3 369 370 371
3 372 373 374
3 375 376 377
3 378 379 380
3 381 382 383
3 384 385 386
3 387 388 389
3 390 391 392
3 393 394 395
3 396 397 398
3 399 400 401
3 402 403 404
3 405 406 407
