ply
format ascii 1.0
comment Created by Blender 2.77 (sub 0) - www.blender.org, source file: 'Cauldron.blend'
element vertex 52
property float x
property float y
property float z
property float nx
property float ny
property float nz
element face 100
property list uchar uint vertex_indices
end_header
0.048211 0.018405 0.666831 0.080416 -0.984100 0.158330
-0.026721 0.037799 0.739208 -0.225227 -0.596332 0.770470
-0.026721 0.018405 0.666831 -0.091403 -0.982818 0.160161
0.048211 0.018405 -0.684728 0.083224 -0.983764 -0.158818
-0.026721 0.037798 -0.757108 -0.230689 -0.588946 -0.774529
0.048211 0.037798 -0.757108 0.213446 -0.590625 -0.778161
-0.746778 0.037798 0.037884 -0.769738 -0.592761 0.236854
-0.674401 0.018405 -0.037051 -0.160649 -0.982452 -0.094577
-0.674401 0.018405 0.037884 -0.161046 -0.982086 0.097507
0.770824 0.018405 0.037884 0.162572 -0.980621 0.109226
0.843201 0.037798 -0.037051 0.774163 -0.581317 -0.250404
0.843201 0.037798 0.037884 0.773064 -0.581713 0.252876
-0.588696 1.081364 0.618593 -0.682455 0.146367 0.716117
-0.495033 1.418550 0.524930 -0.620502 0.435072 0.652394
-0.768530 1.081363 0.000417 -0.986816 0.161779 0.000000
-0.646767 1.418550 0.000416 -0.911618 0.411023 0.000000
-0.495033 1.418550 -0.524097 -0.620502 0.435072 -0.652394
-0.588696 1.081363 -0.617760 -0.684042 0.149419 -0.713950
0.553991 1.418550 -0.524097 0.609485 0.434858 -0.662862
0.647654 1.081363 -0.617760 0.670522 0.152806 -0.725974
0.010747 1.081363 -0.759938 -0.006623 0.162847 -0.986602
0.010747 1.418550 -0.644734 -0.007599 0.394299 -0.918912
0.553991 1.418550 0.524930 0.609485 0.434858 0.662862
0.010747 1.081364 0.760771 -0.006623 0.153996 0.988037
0.647654 1.081364 0.618593 0.668905 0.149815 0.728080
0.010747 1.418550 0.645567 -0.007599 0.394299 0.918912
-0.746778 0.037798 -0.037051 -0.770775 -0.592425 -0.234321
-0.532498 0.575583 -0.561561 -0.687277 -0.208991 -0.695639
-0.401370 1.634311 -0.430434 -0.421277 0.789972 -0.445448
0.010747 1.634311 0.530364 -0.005982 0.804865 0.593371
0.386944 1.641714 0.357483 0.031159 0.998871 0.035737
0.008873 1.641714 0.439610 -0.000855 0.998901 0.046541
0.386944 1.641714 -0.356650 0.031159 0.998871 -0.035737
0.010747 1.634311 -0.529531 -0.005982 0.804865 -0.593371
0.008873 1.641714 -0.438777 -0.000855 0.998901 -0.046541
-0.327192 1.641714 -0.356650 -0.032105 0.998871 -0.034547
0.838727 1.081363 0.000417 0.984558 0.174932 0.000000
0.460328 1.634311 0.431267 0.411237 0.789941 0.454756
0.716967 1.418550 0.000416 0.911344 0.411603 0.000000
0.595203 1.634311 0.000416 0.595752 0.803156 0.000000
-0.525006 1.634311 0.000416 -0.591174 0.806513 0.000000
-0.428009 1.641714 0.000416 -0.044710 0.998993 0.000000
0.500364 1.641714 0.000416 0.046541 0.998901 0.000000
-0.327192 1.641714 0.357483 -0.032105 0.998871 0.034547
-0.401370 1.634311 0.431267 -0.421277 0.789972 0.445448
0.048211 0.037799 0.739208 0.208136 -0.598010 0.773949
0.591456 0.575583 0.562395 0.642445 -0.212867 0.736137
-0.026721 0.018405 -0.684728 -0.094546 -0.982452 -0.160619
0.770824 0.018405 -0.037051 0.162175 -0.981048 -0.105991
0.591456 0.575583 -0.561561 0.653981 -0.210761 -0.726524
0.460328 1.634311 -0.430434 0.411237 0.789941 -0.454756
-0.532498 0.575583 0.562395 -0.675741 -0.211035 0.706259
3 0 1 2
3 3 4 5
3 6 7 8
3 9 10 11
3 12 13 14
3 13 15 14
3 14 16 17
3 15 16 14
3 18 19 20
3 21 18 20
3 22 23 24
3 22 25 23
3 13 23 25
3 14 17 26
3 17 27 26
3 28 21 16
3 29 30 31
3 32 33 34
3 35 33 28
3 18 36 19
3 37 38 39
3 37 25 22
3 35 40 41
3 30 39 42
3 32 34 35
3 32 35 41
3 32 41 43
3 32 43 31
3 32 31 30
3 32 30 42
3 44 15 13
3 23 1 45
3 14 6 12
3 43 40 44
3 46 45 11
3 45 9 11
3 24 46 11
3 24 45 46
3 0 9 45
3 24 23 45
3 39 32 42
3 0 2 8
3 0 8 7
3 0 7 47
3 0 47 3
3 0 3 48
3 0 48 9
3 48 5 10
3 5 49 10
3 49 19 10
3 19 36 10
3 22 36 38
3 50 21 33
3 51 6 1
3 6 8 1
3 8 2 1
3 12 51 1
3 20 16 21
3 3 5 48
3 43 29 31
3 20 19 5
3 19 49 5
3 28 15 40
3 50 38 18
3 25 44 13
3 12 6 51
3 36 11 10
3 47 26 4
3 26 27 4
3 27 17 4
3 20 4 17
3 47 7 26
3 0 45 1
3 3 47 4
3 6 26 7
3 9 48 10
3 13 12 23
3 28 33 21
3 29 37 30
3 32 50 33
3 35 34 33
3 18 38 36
3 37 22 38
3 37 29 25
3 35 28 40
3 30 37 39
3 44 40 15
3 23 12 1
3 14 26 6
3 43 41 40
3 39 50 32
3 22 24 36
3 50 18 21
3 20 17 16
3 43 44 29
3 28 16 15
3 50 39 38
3 25 29 44
3 36 24 11
3 20 5 4
