ply
format ascii 1.0
comment Created by Blender 2.77 (sub 0) - www.blender.org, source file: 'Windmill.blend'
element vertex 318
property float x
property float y
property float z
property float nx
property float ny
property float nz
property uchar red
property uchar green
property uchar blue
element face 164
property list uchar uint vertex_indices
end_header
-0.115648 1.376426 -0.162394 -0.258819 0.965926 0.000000 57 92 212
-0.524483 1.266879 0.007670 -0.258819 0.965926 0.000000 57 92 212
-0.115648 1.376426 0.007670 -0.258819 0.965926 0.000000 57 92 212
-0.524483 1.266879 -0.162394 -0.707107 0.707107 0.000000 57 92 212
-0.823771 0.967591 0.007670 -0.707107 0.707107 0.000000 57 92 212
-0.524483 1.266879 0.007670 -0.707107 0.707107 0.000000 57 92 212
-0.823771 0.967591 -0.162394 -0.965926 0.258819 0.000000 57 92 212
-0.933317 0.558756 0.007670 -0.965926 0.258819 0.000000 57 92 212
-0.823771 0.967591 0.007670 -0.965926 0.258819 0.000000 57 92 212
-0.933317 0.558756 -0.162394 -0.965926 -0.258819 0.000000 57 92 212
-0.823771 0.149921 0.007670 -0.965926 -0.258819 0.000000 57 92 212
-0.933317 0.558756 0.007670 -0.965926 -0.258819 0.000000 57 92 212
-0.823771 0.149921 -0.162394 -0.707107 -0.707107 0.000000 57 92 212
-0.524483 -0.149366 0.007670 -0.707107 -0.707107 0.000000 57 92 212
-0.823771 0.149921 0.007670 -0.707107 -0.707107 0.000000 57 92 212
-0.524483 -0.149366 -0.162394 -0.258819 -0.965926 0.000000 57 92 212
-0.115648 -0.258913 0.007670 -0.258819 -0.965926 0.000000 57 92 212
-0.524483 -0.149366 0.007670 -0.258819 -0.965926 0.000000 57 92 212
-0.115648 -0.258913 -0.162394 0.258819 -0.965926 0.000000 57 92 212
0.293187 -0.149367 0.007670 0.258819 -0.965926 0.000000 57 92 212
-0.115648 -0.258913 0.007670 0.258819 -0.965926 0.000000 57 92 212
0.293187 -0.149367 -0.162394 0.707107 -0.707107 0.000000 57 92 212
0.592475 0.149921 0.007670 0.707107 -0.707107 0.000000 57 92 212
0.293187 -0.149367 0.007670 0.707107 -0.707107 0.000000 57 92 212
0.592475 0.149921 -0.162394 0.965926 -0.258820 0.000000 57 92 212
0.702022 0.558756 0.007670 0.965926 -0.258820 0.000000 57 92 212
0.592475 0.149921 0.007670 0.965926 -0.258820 0.000000 57 92 212
0.702022 0.558756 -0.162394 0.965926 0.258819 0.000000 57 92 212
0.592475 0.967590 0.007670 0.965926 0.258819 0.000000 57 92 212
0.702022 0.558756 0.007670 0.965926 0.258819 0.000000 57 92 212
-0.115648 -0.258913 -0.162394 0.001912 0.007137 -0.999973 57 92 212
-0.457535 -0.033410 -0.161438 0.001912 0.007137 -0.999973 57 92 212
-0.115648 -0.125018 -0.161438 0.001912 0.007137 -0.999973 57 92 212
0.592475 0.967590 -0.162394 0.707107 0.707106 0.000000 57 92 212
0.293187 1.266878 0.007670 0.707107 0.707106 0.000000 57 92 212
0.592475 0.967590 0.007670 0.707107 0.707106 0.000000 57 92 212
0.293187 1.266878 -0.162394 0.258819 0.965926 0.000000 57 92 212
-0.115648 1.376426 0.007670 0.258819 0.965926 0.000000 57 92 212
0.293187 1.266878 0.007670 0.258819 0.965926 0.000000 57 92 212
-0.933317 0.558756 0.007670 0.000000 0.000000 1.000000 57 92 212
0.702022 0.558756 0.007670 0.000000 0.000000 1.000000 57 92 212
0.293187 1.266878 0.007670 0.000000 0.000000 1.000000 57 92 212
0.476518 0.216869 -0.161438 -0.965926 0.258819 0.000000 57 92 212
0.568126 0.558756 -0.018332 -0.965926 0.258819 0.000000 57 92 212
0.568126 0.558756 -0.161438 -0.965926 0.258819 0.000000 57 92 212
-0.524483 -0.149366 -0.162394 0.005224 0.005224 -0.999973 57 92 212
-0.707814 0.216869 -0.161438 0.005224 0.005224 -0.999973 57 92 212
-0.457535 -0.033410 -0.161438 0.005224 0.005224 -0.999973 57 92 212
-0.823771 0.149921 -0.162394 0.007137 0.001912 -0.999973 57 92 212
-0.799422 0.558756 -0.161438 0.007137 0.001912 -0.999973 57 92 212
-0.707814 0.216869 -0.161438 0.007137 0.001912 -0.999973 57 92 212
0.293187 1.266878 -0.162394 -0.001912 -0.007137 -0.999973 57 92 212
-0.115648 1.242530 -0.161438 -0.001912 -0.007137 -0.999973 57 92 212
-0.115648 1.376426 -0.162394 -0.001912 -0.007137 -0.999973 57 92 212
-0.115648 1.376426 -0.162394 0.001912 -0.007137 -0.999973 57 92 212
-0.457535 1.150922 -0.161438 0.001912 -0.007137 -0.999973 57 92 212
-0.524483 1.266879 -0.162394 0.001912 -0.007137 -0.999973 57 92 212
-0.933317 0.558756 -0.162394 0.007137 -0.001912 -0.999973 57 92 212
-0.707814 0.900643 -0.161438 0.007137 -0.001912 -0.999973 57 92 212
-0.799422 0.558756 -0.161438 0.007137 -0.001912 -0.999973 57 92 212
0.592475 0.967590 -0.162394 -0.005224 -0.005224 -0.999973 57 92 212
0.226240 1.150922 -0.161438 -0.005224 -0.005224 -0.999973 57 92 212
0.293187 1.266878 -0.162394 -0.005224 -0.005224 -0.999973 57 92 212
-0.524483 1.266879 -0.162394 0.005224 -0.005224 -0.999973 57 92 212
-0.707814 0.900643 -0.161438 0.005224 -0.005224 -0.999973 57 92 212
-0.823771 0.967591 -0.162394 0.005224 -0.005224 -0.999973 57 92 212
0.702022 0.558756 -0.162394 -0.007137 -0.001912 -0.999973 57 92 212
0.476518 0.900643 -0.161438 -0.007137 -0.001912 -0.999973 57 92 212
0.592475 0.967590 -0.162394 -0.007137 -0.001912 -0.999973 57 92 212
0.592475 0.149921 -0.162394 -0.007137 0.001912 -0.999973 57 92 212
0.568126 0.558756 -0.161438 -0.007137 0.001912 -0.999973 57 92 212
0.702022 0.558756 -0.162394 -0.007137 0.001912 -0.999973 57 92 212
0.293187 -0.149367 -0.162394 -0.005225 0.005224 -0.999973 57 92 212
0.476518 0.216869 -0.161438 -0.005225 0.005224 -0.999973 57 92 212
0.592475 0.149921 -0.162394 -0.005225 0.005224 -0.999973 57 92 212
-0.115648 -0.258913 -0.162394 -0.001912 0.007137 -0.999973 57 92 212
0.226239 -0.033410 -0.161438 -0.001912 0.007137 -0.999973 57 92 212
0.293187 -0.149367 -0.162394 -0.001912 0.007137 -0.999973 57 92 212
0.476518 0.900643 -0.018332 -0.000000 -0.000000 -1.000000 255 255 255
-0.115648 -0.125018 -0.018332 -0.000000 -0.000000 -1.000000 255 255 255
-0.707814 0.900643 -0.018332 -0.000000 -0.000000 -1.000000 255 255 255
-0.457535 -0.033410 -0.161438 0.258819 0.965926 -0.000000 57 92 212
-0.115648 -0.125018 -0.018332 0.258819 0.965926 -0.000000 57 92 212
-0.115648 -0.125018 -0.161438 0.258819 0.965926 -0.000000 57 92 212
-0.707814 0.900643 -0.161438 0.965926 -0.258819 0.000000 57 92 212
-0.799422 0.558756 -0.018332 0.965926 -0.258819 0.000000 57 92 212
-0.799422 0.558756 -0.161438 0.965926 -0.258819 0.000000 57 92 212
0.568126 0.558756 -0.161438 -0.965926 -0.258818 0.000000 57 92 212
0.476518 0.900643 -0.018332 -0.965926 -0.258818 0.000000 57 92 212
0.476518 0.900643 -0.161438 -0.965926 -0.258818 0.000000 57 92 212
-0.115648 -0.125018 -0.161438 -0.258819 0.965926 0.000000 57 92 212
0.226239 -0.033410 -0.018332 -0.258819 0.965926 0.000000 57 92 212
0.226239 -0.033410 -0.161438 -0.258819 0.965926 0.000000 57 92 212
-0.799422 0.558756 -0.161438 0.965926 0.258819 -0.000000 57 92 212
-0.707814 0.216869 -0.018332 0.965926 0.258819 -0.000000 57 92 212
-0.707814 0.216869 -0.161438 0.965926 0.258819 -0.000000 57 92 212
0.476518 0.900643 -0.161438 -0.707107 -0.707106 0.000000 57 92 212
0.226240 1.150922 -0.018332 -0.707107 -0.707106 0.000000 57 92 212
0.226240 1.150922 -0.161438 -0.707107 -0.707106 0.000000 57 92 212
-0.115648 1.242530 -0.161438 0.258819 -0.965926 0.000000 57 92 212
-0.457535 1.150922 -0.018332 0.258819 -0.965926 0.000000 57 92 212
-0.457535 1.150922 -0.161438 0.258819 -0.965926 0.000000 57 92 212
0.226239 -0.033410 -0.161438 -0.707106 0.707107 0.000000 57 92 212
0.476518 0.216869 -0.018332 -0.707106 0.707107 0.000000 57 92 212
0.476518 0.216869 -0.161438 -0.707106 0.707107 0.000000 57 92 212
-0.707814 0.216869 -0.161438 0.707107 0.707107 -0.000000 57 92 212
-0.457535 -0.033410 -0.018332 0.707107 0.707107 -0.000000 57 92 212
-0.457535 -0.033410 -0.161438 0.707107 0.707107 -0.000000 57 92 212
0.226240 1.150922 -0.161438 -0.258819 -0.965926 0.000000 57 92 212
-0.115648 1.242530 -0.018332 -0.258819 -0.965926 0.000000 57 92 212
-0.115648 1.242530 -0.161438 -0.258819 -0.965926 0.000000 57 92 212
-0.457535 1.150922 -0.161438 0.707107 -0.707107 0.000000 57 92 212
-0.707814 0.900643 -0.018332 0.707107 -0.707107 0.000000 57 92 212
-0.707814 0.900643 -0.161438 0.707107 -0.707107 0.000000 57 92 212
-0.074598 1.176611 -0.017068 1.000000 0.000000 -0.000000 48 48 48
-0.074598 1.031787 -0.057547 1.000000 0.000000 -0.000000 48 48 48
-0.074598 1.176611 -0.057547 1.000000 0.000000 -0.000000 48 48 48
-0.153028 1.176611 -0.017068 0.000000 0.000000 1.000000 48 48 48
-0.074598 1.031787 -0.017068 0.000000 0.000000 1.000000 48 48 48
-0.074598 1.176611 -0.017068 0.000000 0.000000 1.000000 48 48 48
-0.153028 1.176611 -0.057547 -1.000000 -0.000000 -0.000000 48 48 48
-0.153028 1.031787 -0.017068 -1.000000 -0.000000 -0.000000 48 48 48
-0.153028 1.176611 -0.017068 -1.000000 -0.000000 -0.000000 48 48 48
-0.074598 1.176611 -0.057547 0.000000 -0.000000 -1.000000 48 48 48
-0.153028 1.031787 -0.057547 0.000000 -0.000000 -1.000000 48 48 48
-0.153028 1.176611 -0.057547 0.000000 -0.000000 -1.000000 48 48 48
-0.074598 1.031787 -0.017068 0.000000 -1.000000 0.000000 48 48 48
-0.153028 1.031787 -0.057547 0.000000 -1.000000 0.000000 48 48 48
-0.074598 1.031787 -0.057547 0.000000 -1.000000 0.000000 48 48 48
-0.153028 1.176611 -0.017068 0.000000 1.000000 -0.000000 48 48 48
-0.074598 1.176611 -0.057547 0.000000 1.000000 -0.000000 48 48 48
-0.153028 1.176611 -0.057547 0.000000 1.000000 -0.000000 48 48 48
-0.074598 0.099543 -0.017068 1.000000 0.000000 -0.000000 48 48 48
-0.074598 -0.045281 -0.057547 1.000000 0.000000 -0.000000 48 48 48
-0.074598 0.099543 -0.057547 1.000000 0.000000 -0.000000 48 48 48
-0.153028 0.099543 -0.017068 0.000000 0.000000 1.000000 48 48 48
-0.074598 -0.045281 -0.017068 0.000000 0.000000 1.000000 48 48 48
-0.074598 0.099543 -0.017068 0.000000 0.000000 1.000000 48 48 48
-0.153028 0.099543 -0.057547 -1.000000 -0.000000 -0.000000 48 48 48
-0.153028 -0.045281 -0.017068 -1.000000 -0.000000 -0.000000 48 48 48
-0.153028 0.099543 -0.017068 -1.000000 -0.000000 -0.000000 48 48 48
-0.074598 0.099543 -0.057547 0.000000 -0.000000 -1.000000 48 48 48
-0.153028 -0.045281 -0.057547 0.000000 -0.000000 -1.000000 48 48 48
-0.153028 0.099543 -0.057547 0.000000 -0.000000 -1.000000 48 48 48
-0.074598 -0.045281 -0.017068 0.000000 -1.000000 0.000000 48 48 48
-0.153028 -0.045281 -0.057547 0.000000 -1.000000 0.000000 48 48 48
-0.074598 -0.045281 -0.057547 0.000000 -1.000000 0.000000 48 48 48
-0.153028 0.099543 -0.017068 0.000000 1.000000 -0.000000 48 48 48
-0.074598 0.099543 -0.057547 0.000000 1.000000 -0.000000 48 48 48
-0.153028 0.099543 -0.057547 0.000000 1.000000 -0.000000 48 48 48
0.497380 0.530498 -0.017068 0.006623 -0.999978 0.000000 48 48 48
0.352558 0.529538 -0.057547 0.006623 -0.999978 0.000000 48 48 48
0.497380 0.530498 -0.057547 0.006623 -0.999978 0.000000 48 48 48
0.497380 0.530498 -0.017068 0.000000 0.000000 1.000000 48 48 48
0.352039 0.607966 -0.017068 0.000000 0.000000 1.000000 48 48 48
0.352558 0.529538 -0.017068 0.000000 0.000000 1.000000 48 48 48
0.496860 0.608926 -0.017068 -0.006624 0.999978 0.000000 48 48 48
0.352039 0.607966 -0.057547 -0.006624 0.999978 0.000000 48 48 48
0.352039 0.607966 -0.017068 -0.006624 0.999978 0.000000 48 48 48
0.497380 0.530498 -0.057547 -0.000000 -0.000000 -1.000000 48 48 48
0.352039 0.607966 -0.057547 -0.000000 -0.000000 -1.000000 48 48 48
0.496860 0.608926 -0.057547 -0.000000 -0.000000 -1.000000 48 48 48
0.352558 0.529538 -0.017068 -0.999978 -0.006623 0.000000 48 48 48
0.352039 0.607966 -0.057547 -0.999978 -0.006623 0.000000 48 48 48
0.352558 0.529538 -0.057547 -0.999978 -0.006623 0.000000 48 48 48
0.496860 0.608926 -0.057547 0.999978 0.006623 -0.000000 48 48 48
0.497380 0.530498 -0.017068 0.999978 0.006623 -0.000000 48 48 48
0.497380 0.530498 -0.057547 0.999978 0.006623 -0.000000 48 48 48
-0.579664 0.523364 -0.017068 0.006624 -0.999978 0.000000 48 48 48
-0.724486 0.522404 -0.057547 0.006624 -0.999978 0.000000 48 48 48
-0.579664 0.523364 -0.057547 0.006624 -0.999978 0.000000 48 48 48
-0.579664 0.523364 -0.017068 0.000000 -0.000000 1.000000 48 48 48
-0.725005 0.600832 -0.017068 0.000000 -0.000000 1.000000 48 48 48
-0.724486 0.522404 -0.017068 0.000000 -0.000000 1.000000 48 48 48
-0.580184 0.601792 -0.017068 -0.006623 0.999978 0.000000 48 48 48
-0.725005 0.600832 -0.057547 -0.006623 0.999978 0.000000 48 48 48
-0.725005 0.600832 -0.017068 -0.006623 0.999978 0.000000 48 48 48
-0.579664 0.523364 -0.057547 -0.000000 -0.000000 -1.000000 48 48 48
-0.725005 0.600832 -0.057547 -0.000000 -0.000000 -1.000000 48 48 48
-0.580184 0.601792 -0.057547 -0.000000 -0.000000 -1.000000 48 48 48
-0.724486 0.522404 -0.017068 -0.999978 -0.006623 0.000000 48 48 48
-0.725005 0.600832 -0.057547 -0.999978 -0.006623 0.000000 48 48 48
-0.724486 0.522404 -0.057547 -0.999978 -0.006623 0.000000 48 48 48
-0.580184 0.601792 -0.057547 0.999978 0.006623 -0.000000 48 48 48
-0.579664 0.523364 -0.017068 0.999978 0.006623 -0.000000 48 48 48
-0.579664 0.523364 -0.057547 0.999978 0.006623 -0.000000 48 48 48
-0.404729 0.539385 -0.008737 -0.393388 0.919372 0.000000 48 48 48
-0.132972 0.655666 -0.065877 -0.393388 0.919372 0.000000 48 48 48
-0.404729 0.539385 -0.065877 -0.393388 0.919372 0.000000 48 48 48
-0.404729 0.539385 -0.008737 0.000000 0.000000 1.000000 48 48 48
-0.101580 0.582299 -0.008737 0.000000 0.000000 1.000000 48 48 48
-0.132972 0.655666 -0.008737 0.000000 0.000000 1.000000 48 48 48
-0.373336 0.466017 -0.008737 0.393388 -0.919372 0.000000 48 48 48
-0.101580 0.582299 -0.065877 0.393388 -0.919372 0.000000 48 48 48
-0.101580 0.582299 -0.008737 0.393388 -0.919372 0.000000 48 48 48
-0.404729 0.539385 -0.065877 -0.000000 0.000000 -1.000000 48 48 48
-0.101580 0.582299 -0.065877 -0.000000 0.000000 -1.000000 48 48 48
-0.373336 0.466017 -0.065877 -0.000000 0.000000 -1.000000 48 48 48
-0.132972 0.655666 -0.065877 0.919372 0.393389 -0.000000 48 48 48
-0.101580 0.582299 -0.008737 0.919372 0.393389 -0.000000 48 48 48
-0.101580 0.582299 -0.065877 0.919372 0.393389 -0.000000 48 48 48
-0.373336 0.466017 -0.008737 -0.919373 -0.393387 0.000000 48 48 48
-0.404729 0.539385 -0.065877 -0.919373 -0.393387 0.000000 48 48 48
-0.373336 0.466017 -0.065877 -0.919373 -0.393387 0.000000 48 48 48
0.170900 0.292165 -0.008737 -0.673588 -0.739107 0.000000 48 48 48
-0.176864 0.609101 -0.065877 -0.673588 -0.739107 0.000000 48 48 48
0.170900 0.292165 -0.065877 -0.673588 -0.739107 0.000000 48 48 48
0.213018 0.339315 -0.008737 0.000000 0.000000 1.000000 48 48 48
-0.176864 0.609101 -0.008737 0.000000 0.000000 1.000000 48 48 48
0.170900 0.292165 -0.008737 0.000000 0.000000 1.000000 48 48 48
0.213018 0.339315 -0.008737 0.673587 0.739108 0.000000 48 48 48
-0.134745 0.656251 -0.065877 0.673587 0.739108 0.000000 48 48 48
-0.134745 0.656251 -0.008737 0.673587 0.739108 0.000000 48 48 48
0.213018 0.339315 -0.065877 -0.000000 -0.000000 -1.000000 48 48 48
-0.176864 0.609101 -0.065877 -0.000000 -0.000000 -1.000000 48 48 48
-0.134745 0.656251 -0.065877 -0.000000 -0.000000 -1.000000 48 48 48
-0.176864 0.609101 -0.065877 -0.745776 0.666197 0.000000 48 48 48
-0.134745 0.656251 -0.008737 -0.745776 0.666197 0.000000 48 48 48
-0.134745 0.656251 -0.065877 -0.745776 0.666197 0.000000 48 48 48
0.213018 0.339315 -0.008737 0.745776 -0.666197 0.000000 48 48 48
0.170900 0.292165 -0.065877 0.745776 -0.666197 0.000000 48 48 48
0.213018 0.339315 -0.065877 0.745776 -0.666197 0.000000 48 48 48
-0.524483 1.266879 -0.162394 -0.258819 0.965926 0.000000 57 92 212
-0.823771 0.967591 -0.162394 -0.707107 0.707107 0.000000 57 92 212
-0.933317 0.558756 -0.162394 -0.965926 0.258819 0.000000 57 92 212
-0.823771 0.149921 -0.162394 -0.965926 -0.258819 -0.000000 57 92 212
-0.524483 -0.149366 -0.162394 -0.707107 -0.707107 -0.000000 57 92 212
-0.115648 -0.258913 -0.162394 -0.258819 -0.965926 -0.000000 57 92 212
0.293187 -0.149367 -0.162394 0.258819 -0.965926 0.000000 57 92 212
0.592475 0.149921 -0.162394 0.707107 -0.707107 0.000000 57 92 212
0.702022 0.558756 -0.162394 0.965926 -0.258820 0.000000 57 92 212
0.592475 0.967590 -0.162394 0.965926 0.258819 0.000000 57 92 212
-0.524483 -0.149366 -0.162394 0.001912 0.007137 -0.999973 57 92 212
0.293187 1.266878 -0.162394 0.707107 0.707106 0.000000 57 92 212
-0.115648 1.376426 -0.162394 0.258819 0.965926 0.000000 57 92 212
-0.115648 1.376426 0.007670 0.000000 0.000000 1.000000 57 92 212
-0.524483 1.266879 0.007670 0.000000 0.000000 1.000000 57 92 212
-0.823771 0.967591 0.007670 0.000000 0.000000 1.000000 57 92 212
-0.823771 0.149921 0.007670 -0.000000 0.000000 1.000000 57 92 212
-0.524483 -0.149366 0.007670 -0.000000 0.000000 1.000000 57 92 212
-0.115648 -0.258913 0.007670 0.000000 0.000000 1.000000 57 92 212
0.293187 -0.149367 0.007670 0.000000 0.000000 1.000000 57 92 212
0.592475 0.149921 0.007670 0.000000 0.000000 1.000000 57 92 212
0.592475 0.967590 0.007670 -0.000000 0.000000 1.000000 57 92 212
0.476518 0.216869 -0.018332 -0.965926 0.258819 0.000000 57 92 212
-0.524483 -0.149366 -0.162394 0.005225 0.005224 -0.999973 57 92 212
-0.823771 0.149921 -0.162394 0.005225 0.005224 -0.999973 57 92 212
-0.707814 0.216869 -0.161438 0.005225 0.005224 -0.999973 57 92 212
-0.933317 0.558756 -0.162394 0.007137 0.001912 -0.999973 57 92 212
0.226240 1.150922 -0.161438 -0.001912 -0.007137 -0.999973 57 92 212
-0.115648 1.242530 -0.161438 0.001912 -0.007137 -0.999973 57 92 212
-0.823771 0.967591 -0.162394 0.007137 -0.001912 -0.999973 57 92 212
0.592475 0.967590 -0.162394 -0.005224 -0.005225 -0.999973 57 92 212
0.476518 0.900643 -0.161438 -0.005224 -0.005225 -0.999973 57 92 212
0.226240 1.150922 -0.161438 -0.005224 -0.005225 -0.999973 57 92 212
-0.457535 1.150922 -0.161438 0.005224 -0.005224 -0.999973 57 92 212
0.568126 0.558756 -0.161438 -0.007137 -0.001912 -0.999973 57 92 212
0.476518 0.216869 -0.161438 -0.007137 0.001912 -0.999973 57 92 212
0.293187 -0.149367 -0.162394 -0.005224 0.005224 -0.999973 57 92 212
0.226239 -0.033410 -0.161438 -0.005224 0.005224 -0.999973 57 92 212
0.476518 0.216869 -0.161438 -0.005224 0.005224 -0.999973 57 92 212
-0.115648 -0.125018 -0.161438 -0.001912 0.007137 -0.999973 57 92 212
-0.457535 1.150922 -0.018332 -0.000000 -0.000000 -1.000000 255 255 255
-0.115648 1.242530 -0.018332 -0.000000 -0.000000 -1.000000 255 255 255
0.226240 1.150922 -0.018332 -0.000000 -0.000000 -1.000000 255 255 255
0.568126 0.558756 -0.018332 -0.000000 -0.000000 -1.000000 255 255 255
0.476518 0.216869 -0.018332 0.000000 -0.000000 -1.000000 255 255 255
0.226239 -0.033410 -0.018332 0.000000 -0.000000 -1.000000 255 255 255
-0.457535 -0.033410 -0.018332 -0.000000 -0.000000 -1.000000 255 255 255
-0.707814 0.216869 -0.018332 -0.000000 -0.000000 -1.000000 255 255 255
-0.799422 0.558756 -0.018332 0.000000 -0.000000 -1.000000 255 255 255
-0.457535 -0.033410 -0.018332 0.258819 0.965926 0.000000 57 92 212
-0.707814 0.900643 -0.018332 0.965926 -0.258819 0.000000 57 92 212
0.568126 0.558756 -0.018332 -0.965926 -0.258818 -0.000000 57 92 212
-0.115648 -0.125018 -0.018332 -0.258819 0.965926 0.000000 57 92 212
-0.799422 0.558756 -0.018332 0.965926 0.258819 0.000000 57 92 212
0.476518 0.900643 -0.018332 -0.707107 -0.707106 -0.000000 57 92 212
-0.115648 1.242530 -0.018332 0.258819 -0.965926 0.000000 57 92 212
0.226239 -0.033410 -0.018332 -0.707106 0.707107 0.000000 57 92 212
-0.707814 0.216869 -0.018332 0.707107 0.707107 0.000000 57 92 212
0.226240 1.150922 -0.018332 -0.258819 -0.965926 -0.000000 57 92 212
-0.457535 1.150922 -0.018332 0.707107 -0.707107 0.000000 57 92 212
-0.074598 1.031787 -0.017068 1.000000 -0.000000 0.000000 48 48 48
-0.153028 1.031787 -0.017068 0.000000 0.000000 1.000000 48 48 48
-0.153028 1.031787 -0.057547 -1.000000 0.000000 0.000000 48 48 48
-0.074598 1.031787 -0.057547 0.000000 -0.000000 -1.000000 48 48 48
-0.153028 1.031787 -0.017068 0.000000 -1.000000 0.000000 48 48 48
-0.074598 1.176611 -0.017068 0.000000 1.000000 -0.000000 48 48 48
-0.074598 -0.045281 -0.017068 1.000000 -0.000000 0.000000 48 48 48
-0.153028 -0.045281 -0.017068 0.000000 0.000000 1.000000 48 48 48
-0.153028 -0.045281 -0.057547 -1.000000 0.000000 0.000000 48 48 48
-0.074598 -0.045281 -0.057547 0.000000 -0.000000 -1.000000 48 48 48
-0.153028 -0.045281 -0.017068 0.000000 -1.000000 0.000000 48 48 48
-0.074598 0.099543 -0.017068 0.000000 1.000000 -0.000000 48 48 48
0.352558 0.529538 -0.017068 0.006623 -0.999978 0.000000 48 48 48
0.496860 0.608926 -0.017068 0.000000 0.000000 1.000000 48 48 48
0.496860 0.608926 -0.057547 -0.006624 0.999978 0.000000 48 48 48
0.352558 0.529538 -0.057547 -0.000000 -0.000000 -1.000000 48 48 48
0.352039 0.607966 -0.017068 -0.999978 -0.006623 0.000000 48 48 48
0.496860 0.608926 -0.017068 0.999978 0.006623 0.000000 48 48 48
-0.724486 0.522404 -0.017068 0.006624 -0.999978 0.000000 48 48 48
-0.580184 0.601792 -0.017068 0.000000 0.000000 1.000000 48 48 48
-0.580184 0.601792 -0.057547 -0.006623 0.999978 0.000000 48 48 48
-0.724486 0.522404 -0.057547 -0.000000 -0.000000 -1.000000 48 48 48
-0.725005 0.600832 -0.017068 -0.999978 -0.006623 0.000000 48 48 48
-0.580184 0.601792 -0.017068 0.999978 0.006623 0.000000 48 48 48
-0.132972 0.655666 -0.008737 -0.393388 0.919372 0.000000 48 48 48
-0.373336 0.466017 -0.008737 0.000000 -0.000000 1.000000 48 48 48
-0.373336 0.466017 -0.065877 0.393388 -0.919372 0.000000 48 48 48
-0.132972 0.655666 -0.065877 -0.000000 0.000000 -1.000000 48 48 48
-0.132972 0.655666 -0.008737 0.919372 0.393389 0.000000 48 48 48
-0.404729 0.539385 -0.008737 -0.919373 -0.393387 0.000000 48 48 48
-0.176864 0.609101 -0.008737 -0.673588 -0.739107 0.000000 48 48 48
-0.134745 0.656251 -0.008737 0.000000 0.000000 1.000000 48 48 48
0.213018 0.339315 -0.065877 0.673587 0.739108 -0.000000 48 48 48
0.170900 0.292165 -0.065877 -0.000000 -0.000000 -1.000000 48 48 48
-0.176864 0.609101 -0.008737 -0.745776 0.666197 0.000000 48 48 48
0.170900 0.292165 -0.008737 0.745776 -0.666197 0.000000 48 48 48
3 0 1 2
3 3 4 5
3 6 7 8
3 9 10 11
3 12 13 14
3 15 16 17
3 18 19 20
3 21 22 23
3 24 25 26
3 27 28 29
3 30 31 32
3 33 34 35
3 36 37 38
3 39 40 41
3 42 43 44
3 45 46 47
3 48 49 50
3 51 52 53
3 54 55 56
3 57 58 59
3 60 61 62
3 63 64 65
3 66 67 68
3 69 70 71
3 72 73 74
3 75 76 77
3 78 79 80
3 81 82 83
3 84 85 86
3 87 88 89
3 90 91 92
3 93 94 95
3 96 97 98
3 99 100 101
3 102 103 104
3 105 106 107
3 108 109 110
3 111 112 113
3 114 115 116
3 117 118 119
3 120 121 122
3 123 124 125
3 126 127 128
3 129 130 131
3 132 133 134
3 135 136 137
3 138 139 140
3 141 142 143
3 144 145 146
3 147 148 149
3 150 151 152
3 153 154 155
3 156 157 158
3 159 160 161
3 162 163 164
3 165 166 167
3 168 169 170
3 171 172 173
3 174 175 176
3 177 178 179
3 180 181 182
3 183 184 185
3 186 187 188
3 189 190 191
3 192 193 194
3 195 196 197
3 198 199 200
3 201 202 203
3 204 205 206
3 207 208 209
3 210 211 212
3 213 214 215
3 216 217 218
3 219 220 221
3 0 222 1
3 3 223 4
3 6 224 7
3 9 225 10
3 12 226 13
3 15 227 16
3 18 228 19
3 21 229 22
3 24 230 25
3 27 231 28
3 30 232 31
3 33 233 34
3 36 234 37
3 41 235 236
3 236 237 39
3 39 238 239
3 239 240 241
3 241 242 40
3 40 243 41
3 41 236 39
3 39 239 241
3 241 40 39
3 42 244 43
3 245 246 247
3 48 248 49
3 51 249 52
3 54 250 55
3 57 251 58
3 252 253 254
3 63 255 64
3 66 256 67
3 69 257 70
3 258 259 260
3 75 261 76
3 80 262 78
3 263 264 78
3 78 265 79
3 266 267 79
3 79 268 269
3 269 270 80
3 262 263 78
3 265 266 79
3 79 269 80
3 81 271 82
3 84 272 85
3 87 273 88
3 90 274 91
3 93 275 94
3 96 276 97
3 99 277 100
3 102 278 103
3 105 279 106
3 108 280 109
3 111 281 112
3 114 282 115
3 117 283 118
3 120 284 121
3 123 285 124
3 126 286 127
3 129 287 130
3 132 288 133
3 135 289 136
3 138 290 139
3 141 291 142
3 144 292 145
3 147 293 148
3 150 294 151
3 153 295 154
3 156 296 157
3 159 297 160
3 162 298 163
3 165 299 166
3 168 300 169
3 171 301 172
3 174 302 175
3 177 303 178
3 180 304 181
3 183 305 184
3 186 306 187
3 189 307 190
3 192 308 193
3 195 309 196
3 198 310 199
3 201 311 202
3 204 312 205
3 207 313 208
3 210 314 211
3 213 315 214
3 216 316 217
3 219 317 220
