ply
format ascii 1.0
comment Created by Blender 2.77 (sub 0) - www.blender.org, source file: 'Gazebo0-Colliders.blend'
element vertex 12
property float x
property float y
property float z
property float nx
property float ny
property float nz
element face 20
property list uchar uint vertex_indices
end_header
-1.552742 0.054747 0.350755 -0.633656 0.457472 0.623798
-1.146171 0.283763 -0.371308 -0.339274 0.624226 -0.703696
-1.552742 0.054747 -0.371308 -0.633656 0.457472 -0.623798
-0.850001 0.000332 -0.371308 0.577349 -0.577349 -0.577349
-1.563368 0.000332 -0.371308 -0.635334 -0.523270 -0.567858
-1.563368 0.000332 0.350755 -0.635334 -0.523270 0.567858
-1.146171 0.283762 0.350755 -0.339274 0.624226 0.703696
-0.990803 0.365181 -0.371308 -0.308481 0.645192 -0.698935
-0.850001 0.000332 0.350755 0.577349 -0.577349 0.577349
-0.850001 0.426261 0.350755 0.454970 0.693319 0.558824
-0.990803 0.365181 0.350755 -0.308481 0.645192 0.698935
-0.850001 0.426261 -0.371308 0.454970 0.693319 -0.558824
3 0 1 2
3 2 3 4
3 5 2 4
3 6 7 1
3 5 3 8
3 9 7 10
3 8 9 10
3 8 10 6
3 8 6 0
3 8 0 5
3 8 11 9
3 2 1 7
3 2 7 11
3 2 11 3
3 0 6 1
3 5 0 2
3 6 10 7
3 5 4 3
3 9 11 7
3 8 3 11
