ply
format ascii 1.0
comment Created by Blender 2.77 (sub 0) - www.blender.org, source file: 'Gazebo0-Colliders.blend'
element vertex 20
property float x
property float y
property float z
property float nx
property float ny
property float nz
element face 36
property list uchar uint vertex_indices
end_header
-0.787178 1.562966 0.632441 -0.490341 0.856807 -0.159307
-0.730605 1.562966 0.806556 -0.303049 0.856807 0.417127
-0.547530 1.562966 0.806556 0.303049 0.856807 0.417127
-0.541500 0.409325 0.814855 0.449721 -0.643849 0.619007
-0.461687 0.567017 0.622931 0.949156 -0.063112 -0.308390
-0.529440 0.567017 0.831454 0.586596 -0.063112 0.807398
-0.748695 1.529767 0.831454 -0.555773 0.325480 0.764946
-0.816448 1.529767 0.622931 -0.899258 0.325480 -0.292184
-0.639067 0.409325 0.514574 0.000000 -0.643849 -0.765130
-0.481200 0.409325 0.629271 0.727683 -0.643849 -0.236427
-0.461687 1.529767 0.622931 0.899258 0.325480 -0.292184
-0.639067 1.562966 0.524833 0.000000 0.856807 -0.515580
-0.490957 1.562966 0.632441 0.490341 0.856807 -0.159307
-0.748695 0.567017 0.831454 -0.586596 -0.063112 0.807398
-0.796935 0.409325 0.629271 -0.727683 -0.643849 -0.236427
-0.736635 0.409325 0.814855 -0.449721 -0.643849 0.619007
-0.816448 0.567017 0.622931 -0.949156 -0.063112 -0.308390
-0.639067 1.529767 0.494056 0.000000 0.325480 -0.945524
-0.639067 0.567017 0.494056 0.000000 -0.063112 -0.997986
-0.529440 1.529767 0.831454 0.555773 0.325480 0.764946
3 0 1 2
3 3 4 5
3 6 0 7
3 3 8 9
3 10 5 4
3 11 2 12
3 13 14 15
3 16 8 14
3 5 6 13
3 12 17 11
3 17 4 18
3 2 6 19
3 2 1 6
3 7 13 6
3 9 18 4
3 8 15 14
3 5 15 3
3 17 16 7
3 0 17 7
3 19 12 2
3 3 9 4
3 6 1 0
3 10 19 5
3 11 0 2
3 13 16 14
3 16 18 8
3 5 19 6
3 12 10 17
3 17 10 4
3 7 16 13
3 9 8 18
3 8 3 15
3 5 13 15
3 17 18 16
3 0 11 17
3 19 10 12
