ply
format ascii 1.0
comment Created by Blender 2.77 (sub 0) - www.blender.org, source file: 'Gazebo0-Colliders.blend'
element vertex 25
property float x
property float y
property float z
property float nx
property float ny
property float nz
element face 46
property list uchar uint vertex_indices
end_header
-1.867404 0.061838 -0.414979 0.031800 0.963225 -0.266762
-1.514673 -0.000409 -0.409541 0.624531 -0.299966 -0.721061
-1.867404 -0.000409 -0.535688 0.106388 -0.210639 -0.971740
-3.276235 0.061838 0.082996 -0.209479 0.976348 0.053285
-3.381678 -0.000409 -0.119056 -0.772454 -0.161046 -0.614277
-3.464674 -0.000409 0.075987 -0.981475 -0.126682 0.143620
-2.718111 0.045239 0.311234 -0.047212 0.912259 0.406842
-2.904851 -0.000409 0.409358 -0.222633 -0.172826 0.959441
-2.718111 -0.000409 0.430107 -0.110477 -0.184637 0.976562
-3.216085 0.061838 0.165992 -0.169774 0.952361 0.253243
-3.216085 -0.000409 0.284864 -0.427686 -0.232887 0.873379
-2.240885 0.061838 0.331983 -0.007202 0.970244 0.241981
-2.240885 -0.000409 0.450855 -0.020844 -0.235847 0.971557
-2.282383 -0.000409 -0.494190 -0.207739 -0.180792 -0.961303
-3.070843 -0.000409 -0.286701 -0.338816 -0.225837 -0.913327
-2.199388 0.061838 0.331983 0.011353 0.969237 0.245766
-2.199388 -0.000409 0.450855 0.046175 -0.232337 0.971526
-2.904851 0.045239 0.290485 -0.072970 0.947081 0.312479
-1.493924 -0.000409 0.381784 0.566240 -0.298441 0.768273
-2.282383 0.045239 -0.373481 -0.078524 0.931974 -0.353893
-3.070843 0.061838 -0.165992 -0.124546 0.958464 -0.256478
-1.514673 0.061838 -0.331983 0.649220 0.726310 -0.225684
-2.531370 0.061838 0.290485 -0.021699 0.988403 0.150090
-3.257583 0.061838 -0.041498 -0.207953 0.966613 -0.149571
-1.493924 0.061838 0.311234 0.657063 0.709586 0.254341
3 0 1 2
3 3 4 5
3 6 7 8
3 9 5 10
3 9 3 5
3 11 8 12
3 1 13 2
3 1 14 13
3 1 4 14
3 1 5 4
3 1 10 5
3 1 7 10
3 15 12 16
3 7 6 17
3 1 16 12
3 1 18 16
3 19 14 20
3 1 8 7
3 20 21 0
3 1 12 8
3 0 13 19
3 17 22 9
3 23 14 4
3 17 10 7
3 21 18 1
3 19 20 0
3 20 23 3
3 18 15 16
3 20 3 9
3 20 9 22
3 20 22 11
3 20 11 15
3 22 17 11
3 20 15 24
3 20 24 21
3 17 6 11
3 0 21 1
3 3 23 4
3 11 6 8
3 15 11 12
3 19 13 14
3 0 2 13
3 23 20 14
3 17 9 10
3 21 24 18
3 18 24 15
