ply
format ascii 1.0
comment Created by Blender 2.77 (sub 0) - www.blender.org, source file: 'Gazebo0-Colliders.blend'
element vertex 25
property float x
property float y
property float z
property float nx
property float ny
property float nz
element face 46
property list uchar uint vertex_indices
end_header
-0.278127 2.518904 -0.445634 0.051607 -0.440107 -0.896451
-0.302424 2.603703 -0.325522 -0.147893 0.976470 -0.156804
-0.393353 2.493565 -0.429643 0.168371 -0.970153 0.174383
-0.408325 2.523027 -0.301557 -0.934111 -0.353404 0.050050
0.303734 2.603673 -0.324266 0.145024 0.976501 -0.159276
0.281158 2.518209 -0.444658 -0.048891 -0.458022 -0.887570
0.394718 2.493537 -0.428270 -0.167608 -0.970092 0.175451
0.409237 2.523671 -0.298610 0.940275 -0.336314 0.052370
-0.303734 2.603673 0.324267 -0.145024 0.976501 0.159276
-0.281158 2.518209 0.444659 0.048891 -0.458022 0.887570
-0.394718 2.493537 0.428270 0.167608 -0.970092 -0.175451
-0.409237 2.523671 0.298610 -0.940275 -0.336314 -0.052370
0.278127 2.518904 0.445634 -0.051607 -0.440107 0.896451
0.302424 2.603703 0.325523 0.147893 0.976470 0.156804
0.393353 2.493565 0.429644 -0.168371 -0.970153 -0.174383
0.408325 2.523027 0.301557 0.934111 -0.353404 -0.050050
-0.001234 2.630170 0.342507 -0.000702 0.963439 0.267891
-0.002788 2.577927 0.453426 -0.003754 0.527573 0.849483
-0.320888 2.631127 -0.001163 -0.274514 0.961577 -0.000458
0.001234 2.630170 -0.342507 0.000702 0.963439 -0.267891
0.002788 2.577927 -0.453425 0.003754 0.527573 -0.849483
0.416283 2.583994 0.002710 0.852016 0.523484 0.003479
0.320888 2.631127 0.001163 0.274514 0.961577 0.000458
-0.000000 2.642266 0.000000 0.000000 1.000000 0.000000
-0.416283 2.583994 -0.002709 -0.852016 0.523484 -0.003479
3 0 1 2
3 1 3 2
3 4 5 6
3 7 4 6
3 8 9 10
3 11 8 10
3 12 13 14
3 13 15 14
3 6 10 2
3 12 16 17
3 3 18 1
3 14 7 15
3 6 0 5
3 0 19 20
3 7 21 15
3 15 22 13
3 1 23 19
3 5 19 4
3 16 9 17
3 5 0 20
3 18 11 8
3 12 10 14
3 23 13 22
3 3 11 24
3 7 22 21
3 4 23 22
3 12 17 9
3 23 8 16
3 11 2 10
3 6 14 10
3 12 13 16
3 3 24 18
3 14 6 7
3 6 2 0
3 0 1 19
3 15 21 22
3 1 18 23
3 5 20 19
3 16 8 9
3 18 24 11
3 12 9 10
3 23 16 13
3 7 4 22
3 4 19 23
3 23 18 8
3 11 3 2
