ply
format ascii 1.0
comment Created by Blender 2.77 (sub 0) - www.blender.org, source file: 'Inn0-Colliders.blend'
element vertex 8
property float x
property float y
property float z
property float nx
property float ny
property float nz
element face 12
property list uchar uint vertex_indices
end_header
-4.108230 2.962900 4.857294 -0.574480 0.579699 0.577807
-3.207230 2.452900 4.857294 0.397931 -0.616474 0.679373
-2.603730 2.962900 4.857294 0.787408 0.288156 0.544908
-4.116729 2.019399 4.780793 -0.446364 -0.700217 -0.557146
-4.116729 2.019399 4.857294 -0.446364 -0.700217 0.557146
-4.108230 2.962900 4.780793 -0.574480 0.579699 -0.577807
-2.603730 2.962900 4.780793 0.787408 0.288156 -0.544908
-3.207230 2.452900 4.780793 0.397931 -0.616474 -0.679373
3 0 1 2
3 3 1 4
3 2 5 0
3 5 4 0
3 6 1 7
3 5 7 3
3 0 4 1
3 3 7 1
3 2 6 5
3 5 3 4
3 6 2 1
3 5 6 7
