ply
format ascii 1.0
comment Created by Blender 2.77 (sub 0) - www.blender.org, source file: 'Inn0-Colliders.blend'
element vertex 10
property float x
property float y
property float z
property float nx
property float ny
property float nz
element face 16
property list uchar uint vertex_indices
end_header
-3.769335 2.203402 4.679151 0.797174 -0.087985 -0.597278
-4.023231 1.917400 4.679151 0.319865 -0.711692 -0.625416
-4.188168 2.233112 4.679151 -0.603351 0.444349 -0.662160
-3.917686 2.471035 4.679151 0.140660 0.811701 -0.566851
-3.769335 2.203402 4.985152 0.797174 -0.087985 0.597278
-4.188168 2.233112 4.985152 -0.603351 0.444349 0.662160
-3.917686 2.471035 4.985152 0.140660 0.811701 0.566851
-4.329231 1.917400 4.985152 -0.696005 -0.451338 0.558397
-4.023231 1.917400 4.985152 0.319865 -0.711692 0.625416
-4.329231 1.917400 4.679151 -0.696005 -0.451338 -0.558397
3 0 1 2
3 3 4 0
3 3 5 6
3 5 7 8
3 2 7 5
3 7 1 8
3 0 8 1
3 9 2 1
3 3 0 2
3 3 6 4
3 3 2 5
3 8 4 5
3 6 5 4
3 2 9 7
3 7 9 1
3 0 4 8
