ply
format ascii 1.0
comment Created by Blender 2.77 (sub 0) - www.blender.org, source file: 'Inn0-Colliders.blend'
element vertex 8
property float x
property float y
property float z
property float nx
property float ny
property float nz
element face 6
property list uchar uint vertex_indices
end_header
10.601348 3.165223 3.377803 0.300577 0.716483 0.629505
10.784990 2.978223 3.377803 0.771844 -0.323801 0.547136
10.784989 2.978223 2.986803 0.771844 -0.323801 -0.547136
10.601347 3.165223 2.986803 0.300577 0.716483 -0.629505
7.316462 2.978223 3.377803 -0.770653 -0.326365 0.547319
7.497652 3.165223 3.377803 -0.303140 0.715873 0.628956
7.497652 3.165223 2.986803 -0.303140 0.715873 -0.628956
7.316461 2.978223 2.986803 -0.770653 -0.326365 -0.547319
4 0 1 2 3
4 4 1 0 5
4 3 6 5 0
4 5 6 7 4
4 7 6 3 2
4 4 7 2 1
