ply
format ascii 1.0
comment Created by Blender 2.77 (sub 0) - www.blender.org, source file: 'Inn0-Colliders.blend'
element vertex 10
property float x
property float y
property float z
property float nx
property float ny
property float nz
element face 16
property list uchar uint vertex_indices
end_header
5.964270 0.181274 2.452153 0.577349 -0.577349 0.577349
5.964270 1.430773 0.242152 0.577349 0.577349 -0.577349
5.964270 1.430774 2.452153 0.577349 0.577349 0.577349
5.522269 0.302399 2.452153 -0.648305 -0.474746 0.595203
5.522269 1.430773 0.242152 -0.577349 0.577349 -0.577349
5.522269 0.302399 0.242153 -0.648305 -0.474746 -0.595203
5.904770 0.181273 0.242153 -0.112766 -0.729789 -0.674276
5.522269 1.430774 2.452153 -0.577349 0.577349 0.577349
5.904770 0.181274 2.452153 -0.112766 -0.729789 0.674276
5.964270 0.181273 0.242153 0.577349 -0.577349 -0.577349
3 0 1 2
3 3 4 5
3 6 5 1
3 2 4 7
3 8 2 3
3 0 6 9
3 8 5 6
3 0 9 1
3 3 7 4
3 4 1 5
3 9 6 1
3 2 1 4
3 7 3 2
3 8 0 2
3 0 8 6
3 8 3 5
