ply
format ascii 1.0
comment Created by Blender 2.77 (sub 0) - www.blender.org, source file: 'Inn0-Colliders.blend'
element vertex 8
property float x
property float y
property float z
property float nx
property float ny
property float nz
element face 12
property list uchar uint vertex_indices
end_header
0.532770 0.610742 -1.474849 0.570391 0.578509 -0.583056
0.005770 0.610742 0.072152 -0.570391 0.578509 0.583056
0.566770 0.610742 0.072152 0.584216 0.576189 0.571520
-0.028230 0.610742 -1.474849 -0.584216 0.576189 -0.571520
0.532770 0.143242 -1.474849 0.570391 -0.578509 -0.583056
-0.028230 0.143242 -1.474849 -0.584216 -0.576189 -0.571520
0.005770 0.143242 0.072153 -0.570391 -0.578509 0.583056
0.566770 0.143242 0.072153 0.584216 -0.576189 0.571520
3 0 1 2
3 3 4 5
3 2 4 0
3 3 6 1
3 6 4 7
3 1 7 2
3 0 3 1
3 3 0 4
3 2 7 4
3 3 5 6
3 6 5 4
3 1 6 7
