ply
format ascii 1.0
comment Created by Blender 2.77 (sub 0) - www.blender.org, source file: 'Inn0-Colliders.blend'
element vertex 6
property float x
property float y
property float z
property float nx
property float ny
property float nz
element face 5
property list uchar uint vertex_indices
end_header
2.876279 6.008471 -4.226841 0.593402 0.484634 -0.642628
-0.557274 6.008471 -4.226841 -0.593402 0.484634 -0.642628
-0.557274 7.113471 -0.362199 -0.537156 0.271493 0.798547
2.876279 7.113471 -0.362199 0.537156 0.271493 0.798547
-0.557274 5.583471 -4.226841 -0.560045 -0.685171 -0.465651
2.876279 5.583471 -4.226841 0.560045 -0.685171 -0.465651
4 0 1 2 3
4 3 2 4 5
3 4 2 1
4 4 1 0 5
3 3 5 0
