ply
format ascii 1.0
comment Created by Blender 2.77 (sub 0) - www.blender.org, source file: 'Inn0-Colliders.blend'
element vertex 8
property float x
property float y
property float z
property float nx
property float ny
property float nz
element face 12
property list uchar uint vertex_indices
end_header
4.436682 0.268398 -6.251850 0.573138 -0.585650 -0.573138
4.300682 1.874898 -6.277350 -0.581469 0.569018 -0.581469
4.462183 1.874898 -6.277350 0.581469 0.569018 -0.581469
4.326182 0.268398 -6.251850 -0.573138 -0.585650 -0.573138
4.300682 1.874898 -6.124350 -0.581469 0.569018 0.581469
4.436682 0.268398 -6.149850 0.573138 -0.585650 0.573138
4.462183 1.874898 -6.124350 0.581469 0.569018 0.581469
4.326182 0.268398 -6.149850 -0.573138 -0.585650 0.573138
3 0 1 2
3 3 4 1
3 5 2 6
3 7 0 5
3 6 7 5
3 6 1 4
3 0 3 1
3 3 7 4
3 5 0 2
3 7 3 0
3 6 4 7
3 6 2 1
