ply
format ascii 1.0
comment Created by Blender 2.77 (sub 0) - www.blender.org, source file: 'Inn0-Colliders.blend'
element vertex 12
property float x
property float y
property float z
property float nx
property float ny
property float nz
element face 20
property list uchar uint vertex_indices
end_header
-5.096746 3.111648 -5.659365 -0.297098 -0.630238 0.717277
2.456287 3.111648 -5.659365 0.297098 -0.630238 0.717277
-1.320230 8.585649 -5.659366 0.218329 0.729728 0.647908
2.589770 6.103648 -5.792847 0.863063 0.385632 -0.326090
2.589770 3.111648 -5.792847 0.773431 -0.546892 -0.320353
-1.558230 8.585649 -5.792848 -0.224891 0.729148 -0.646321
-1.320230 8.585649 -5.792848 0.218207 0.729789 -0.647877
-5.096746 6.171648 -5.659365 -0.425794 0.316263 0.847713
-1.558230 8.585649 -5.659366 -0.224982 0.729087 0.646352
-5.230231 6.171648 -5.792847 -0.865169 0.380596 -0.326456
-5.230231 3.111648 -5.792847 -0.773461 -0.546892 -0.320353
2.456287 6.103648 -5.659365 0.424574 0.323985 0.845393
3 0 1 2
3 3 1 4
3 0 4 1
3 5 2 6
3 5 7 8
3 9 0 7
3 5 6 10
3 11 6 2
3 11 2 1
3 8 7 0
3 0 2 8
3 3 11 1
3 0 10 4
3 5 8 2
3 5 9 7
3 9 10 0
3 4 10 6
3 9 5 10
3 6 3 4
3 11 3 6
