ply
format ascii 1.0
comment Created by Blender 2.77 (sub 0) - www.blender.org, source file: 'Inn0-Colliders.blend'
element vertex 8
property float x
property float y
property float z
property float nx
property float ny
property float nz
element face 6
property list uchar uint vertex_indices
end_header
2.148655 3.152472 -3.441715 0.297098 0.630238 0.717277
2.282138 3.152472 -3.575198 0.773431 0.546892 -0.320353
0.480138 3.152472 -3.575198 -0.577349 0.577349 -0.577349
0.480138 3.152472 -3.441715 -0.577349 0.577349 0.577349
2.148655 6.008472 -3.441715 0.297098 -0.630238 0.717277
0.480138 6.008472 -3.441715 -0.577349 -0.577349 0.577349
0.480138 6.008472 -3.575199 -0.577349 -0.577349 -0.577349
2.282138 6.008472 -3.575199 0.773431 -0.546892 -0.320353
4 0 1 2 3
4 3 0 4 5
4 6 2 3 5
4 7 1 2 6
4 0 1 7 4
4 5 6 7 4
