ply
format ascii 1.0
comment Created by Blender 2.77 (sub 0) - www.blender.org, source file: 'Inn0-Colliders.blend'
element vertex 8
property float x
property float y
property float z
property float nx
property float ny
property float nz
element face 6
property list uchar uint vertex_indices
end_header
9.694139 0.020224 8.562803 -0.577349 -0.577349 -0.577349
9.694139 0.020224 8.868804 -0.577349 -0.577349 0.577349
9.694139 2.978224 8.868803 -0.577349 0.577349 0.577349
9.694139 2.978224 8.562802 -0.577349 0.577349 -0.577349
10.000139 0.020224 8.562803 0.577349 -0.577349 -0.577349
10.000139 0.020224 8.868804 0.577349 -0.577349 0.577349
10.000139 2.978224 8.562802 0.577349 0.577349 -0.577349
10.000139 2.978224 8.868803 0.577349 0.577349 0.577349
4 0 1 2 3
4 4 5 1 0
4 6 4 0 3
4 4 6 7 5
4 2 7 6 3
4 7 2 1 5
