ply
format ascii 1.0
comment Created by Blender 2.77 (sub 0) - www.blender.org, source file: 'Inn0-Colliders.blend'
element vertex 12
property float x
property float y
property float z
property float nx
property float ny
property float nz
element face 20
property list uchar uint vertex_indices
end_header
-1.235231 3.011774 2.976064 0.000000 0.816980 0.576647
-1.226095 3.011774 2.855375 0.000000 0.816980 -0.576647
-1.291008 3.011774 2.920287 -0.576647 0.816980 0.000000
-1.226095 2.051274 2.098063 0.000000 0.289254 -0.957244
-2.048319 1.932274 2.920287 -0.816492 -0.577349 0.000000
-2.048319 2.051274 2.920287 -0.957244 0.289254 0.000000
-1.235231 1.932274 3.733376 0.000000 -0.577349 0.816492
-1.235231 2.051275 3.733376 0.000000 0.289254 0.957244
-0.413007 2.051274 2.911151 0.957244 0.289254 0.000000
-1.170319 3.011774 2.911151 0.576647 0.816980 0.000000
-0.413007 1.932274 2.911151 0.816492 -0.577349 0.000000
-1.226095 1.932274 2.098063 0.000000 -0.577349 -0.816492
3 0 1 2
3 3 4 5
3 5 6 7
3 8 1 9
3 0 8 9
3 3 10 11
3 7 10 8
3 5 1 3
3 4 10 6
3 0 5 7
3 0 9 1
3 3 11 4
3 5 4 6
3 8 3 1
3 0 7 8
3 3 8 10
3 7 6 10
3 5 2 1
3 4 11 10
3 0 2 5
