ply
format ascii 1.0
comment Created by Blender 2.77 (sub 0) - www.blender.org, source file: 'Inn0-Colliders.blend'
element vertex 8
property float x
property float y
property float z
property float nx
property float ny
property float nz
element face 6
property list uchar uint vertex_indices
end_header
-1.319345 3.152473 5.114320 -0.717277 -0.630238 0.297098
-1.185862 3.152473 5.247803 0.320353 -0.546892 0.773431
-1.185862 6.144474 5.247803 0.320536 0.563189 0.761589
-1.319345 6.144474 5.114319 -0.697684 0.662893 0.271615
-1.185862 6.008473 3.122802 0.736137 0.596088 -0.320536
-1.319345 6.008473 2.989319 -0.320353 0.530259 -0.784967
-1.185862 3.152473 3.122803 0.717277 -0.630238 -0.297098
-1.319345 3.152473 2.989319 -0.320353 -0.546892 -0.773431
4 0 1 2 3
4 4 5 3 2
4 2 1 6 4
4 7 5 4 6
4 7 0 3 5
4 6 1 0 7
