ply
format ascii 1.0
comment Created by Blender 2.77 (sub 0) - www.blender.org, source file: 'Inn0-Colliders.blend'
element vertex 12
property float x
property float y
property float z
property float nx
property float ny
property float nz
element face 14
property list uchar uint vertex_indices
end_header
-9.056864 3.156721 -6.446746 0.538865 -0.596149 0.595141
-9.056864 3.547721 -6.446746 0.557054 0.569964 0.603961
-10.943863 3.513721 -6.583657 -0.657430 0.505539 0.558733
-10.926864 3.292721 -6.583657 -0.592730 -0.577288 0.561541
-9.056864 3.547721 -6.901158 0.558000 0.570177 -0.602893
-9.056864 3.156721 -6.901158 0.539781 -0.596332 -0.594134
-10.739862 3.547721 -6.583657 -0.091861 0.868313 0.487381
-10.739862 3.547721 -6.770657 -0.090854 0.863430 -0.496170
-10.943863 3.513721 -6.770657 -0.656636 0.505356 -0.559832
-10.926864 3.292721 -6.770657 -0.591815 -0.577136 -0.562700
-10.008863 3.564721 -6.525850 -0.043886 0.801080 0.596912
-10.008863 3.564721 -6.825758 -0.042085 0.797266 -0.602130
4 0 1 2 3
4 4 1 0 5
4 6 7 8 2
4 8 4 5 9
4 5 0 3 9
4 2 8 9 3
3 6 2 10
3 11 7 6
3 10 1 4
3 11 6 10
3 11 10 4
3 7 11 8
3 10 2 1
3 8 11 4
