ply
format ascii 1.0
comment Created by Blender 2.77 (sub 0) - www.blender.org, source file: 'Inn0-Colliders.blend'
element vertex 8
property float x
property float y
property float z
property float nx
property float ny
property float nz
element face 6
property list uchar uint vertex_indices
end_header
-1.276321 2.982472 -3.331742 -0.773431 0.546892 0.320353
2.191679 2.982472 -3.331742 0.297098 0.630238 0.717277
2.282137 2.982472 -3.422199 0.773431 0.546892 -0.320353
-1.185863 2.982472 -3.422199 -0.297098 0.630238 -0.717277
2.282137 0.126472 -3.422199 0.773431 -0.546892 -0.320353
-1.185863 0.126472 -3.422199 -0.297098 -0.630238 -0.717277
-1.276321 0.126472 -3.331741 -0.773431 -0.546892 0.320353
2.191679 0.126472 -3.331741 0.297098 -0.630238 0.717277
4 0 1 2 3
4 4 5 3 2
4 1 0 6 7
4 6 5 4 7
4 2 1 7 4
4 3 5 6 0
