ply
format ascii 1.0
comment Created by Blender 2.77 (sub 0) - www.blender.org, source file: 'Inn0-Colliders.blend'
element vertex 8
property float x
property float y
property float z
property float nx
property float ny
property float nz
element face 6
property list uchar uint vertex_indices
end_header
7.059137 2.712652 3.054803 0.314341 0.776177 -0.546495
7.059137 0.190223 3.054804 0.577349 -0.577349 -0.577349
6.753137 0.190223 3.054804 -0.577349 -0.577349 -0.577349
6.753137 2.396845 3.054803 -0.718589 0.291025 -0.631550
6.753137 0.190223 3.360803 -0.577349 -0.577349 0.577349
6.753137 2.396845 3.360803 -0.718589 0.291025 0.631550
7.059137 0.190223 3.360803 0.577349 -0.577349 0.577349
7.059137 2.712652 3.360803 0.314341 0.776177 0.546495
4 0 1 2 3
4 2 4 5 3
4 6 1 0 7
4 1 6 4 2
4 5 7 0 3
4 4 6 7 5
