ply
format ascii 1.0
comment Created by Blender 2.77 (sub 0) - www.blender.org, source file: 'Inn0-Colliders.blend'
element vertex 8
property float x
property float y
property float z
property float nx
property float ny
property float nz
element face 6
property list uchar uint vertex_indices
end_header
8.759893 4.633037 8.596802 0.017579 -0.816279 -0.577349
8.759893 4.633037 8.834803 0.017579 -0.816279 0.577349
8.661676 4.727110 8.834803 -0.816279 -0.017579 0.577349
8.661676 4.727110 8.596802 -0.816279 -0.017579 -0.577349
8.807011 4.878841 8.596802 -0.017548 0.816279 -0.577349
8.905224 4.784768 8.596802 0.816279 0.017579 -0.577349
8.905224 4.784768 8.834803 0.816279 0.017579 0.577349
8.807011 4.878841 8.834803 -0.017548 0.816279 0.577349
4 0 1 2 3
4 4 5 0 3
4 5 6 1 0
4 5 4 7 6
4 4 3 2 7
4 1 6 7 2
