ply
format ascii 1.0
comment Created by Blender 2.77 (sub 0) - www.blender.org, source file: 'Inn0-Colliders.blend'
element vertex 8
property float x
property float y
property float z
property float nx
property float ny
property float nz
element face 6
property list uchar uint vertex_indices
end_header
2.191679 0.126472 -3.331741 -0.717277 -0.630238 -0.297098
2.191679 2.982472 -3.331741 -0.717277 0.630238 -0.297098
2.282137 2.982472 -3.422199 0.320353 0.546892 -0.773431
2.282137 0.126472 -3.422199 0.320353 -0.546892 -0.773431
2.191679 0.126473 3.202345 -0.717277 -0.630238 0.297098
2.282137 0.126473 3.292803 0.320353 -0.546892 0.773431
2.282137 2.982473 3.292802 0.320353 0.546892 0.773431
2.191679 2.982473 3.202344 -0.717277 0.630238 0.297098
4 0 1 2 3
4 4 0 3 5
4 2 6 5 3
4 0 4 7 1
4 7 6 2 1
4 4 5 6 7
