ply
format ascii 1.0
comment Created by Blender 2.77 (sub 0) - www.blender.org, source file: 'Inn0-Colliders.blend'
element vertex 16
property float x
property float y
property float z
property float nx
property float ny
property float nz
element face 14
property list uchar uint vertex_indices
end_header
8.759138 3.573223 1.660802 -0.699759 -0.143590 0.699759
8.759138 3.573222 1.159301 -0.699759 -0.143590 -0.699759
8.852638 3.156723 1.252802 -0.511429 -0.690512 -0.511429
8.852638 3.156723 1.567302 -0.511429 -0.690512 0.511429
9.303138 3.615723 1.660802 0.682485 0.261483 0.682485
8.759138 3.615723 1.660802 -0.682485 0.261483 0.682485
9.303138 3.573223 1.660802 0.699759 -0.143590 0.699759
9.303137 3.573222 1.159301 0.699759 -0.143590 -0.699759
9.209640 3.156723 1.567302 0.511429 -0.690512 0.511429
9.209640 3.156723 1.252802 0.511429 -0.690512 -0.511429
8.759138 3.615722 1.159301 -0.682485 0.261483 -0.682485
9.116137 4.006723 1.473802 0.431379 0.792322 0.431379
9.303137 3.615722 1.159301 0.682485 0.261483 -0.682485
9.116137 4.006723 1.346302 0.431379 0.792322 -0.431379
8.946136 4.006723 1.473802 -0.431379 0.792322 0.431379
8.946136 4.006723 1.346302 -0.431379 0.792322 -0.431379
4 0 1 2 3
4 4 5 0 6
4 7 6 8 9
4 1 0 5 10
4 11 4 12 13
4 9 8 3 2
4 5 4 11 14
4 7 12 4 6
4 7 1 10 12
4 8 6 0 3
4 1 7 9 2
4 14 11 13 15
4 13 12 10 15
4 10 5 14 15
