ply
format ascii 1.0
comment Created by Blender 2.77 (sub 0) - www.blender.org, source file: 'Inn0-Colliders.blend'
element vertex 8
property float x
property float y
property float z
property float nx
property float ny
property float nz
element face 12
property list uchar uint vertex_indices
end_header
-4.108231 2.962898 -5.733707 -0.574480 0.579699 -0.577807
-3.207230 2.452898 -5.733707 0.397931 -0.616474 -0.679373
-4.116730 2.019398 -5.733707 -0.446364 -0.700217 -0.557146
-3.207230 2.452898 -5.657207 0.397931 -0.616474 0.679373
-4.116730 2.019398 -5.657207 -0.446364 -0.700217 0.557146
-2.603730 2.962898 -5.657207 0.787408 0.288156 0.544908
-4.108231 2.962898 -5.657207 -0.574480 0.579699 0.577807
-2.603730 2.962898 -5.733707 0.787408 0.288156 -0.544908
3 0 1 2
3 2 3 4
3 5 0 6
3 3 6 4
3 0 4 6
3 7 3 1
3 0 7 1
3 2 1 3
3 5 7 0
3 3 5 6
3 0 2 4
3 7 5 3
