ply
format ascii 1.0
comment Created by Blender 2.77 (sub 0) - www.blender.org, source file: 'Inn0-Colliders.blend'
element vertex 8
property float x
property float y
property float z
property float nx
property float ny
property float nz
element face 6
property list uchar uint vertex_indices
end_header
-0.420864 5.477221 -5.859396 0.802026 0.145421 -0.579241
-0.420864 5.477221 -5.485395 0.802057 0.145421 0.579241
-0.624864 5.171221 -5.485395 0.155370 -0.802026 0.576708
-0.624864 5.171221 -5.859396 0.155370 -0.802026 -0.576708
-1.270863 5.613221 -5.485395 -0.697012 -0.367626 0.615619
-1.270863 5.613221 -5.859396 -0.697012 -0.367626 -0.615619
-1.270863 6.089221 -5.859396 -0.380291 0.742454 -0.551439
-1.270863 6.089222 -5.485395 -0.380291 0.742454 0.551439
4 0 1 2 3
4 3 2 4 5
4 6 0 3 5
4 7 6 5 4
4 0 6 7 1
4 2 1 7 4
