ply
format ascii 1.0
comment Created by Blender 2.77 (sub 0) - www.blender.org, source file: 'Inn0-Colliders.blend'
element vertex 8
property float x
property float y
property float z
property float nx
property float ny
property float nz
element face 6
property list uchar uint vertex_indices
end_header
-0.201307 4.786535 6.634324 0.572588 -0.001953 -0.819819
-0.377517 4.786535 6.634324 -0.572588 -0.001953 -0.819819
-0.377517 5.003601 6.880880 -0.585955 0.810297 0.003906
-0.201307 5.003601 6.880880 0.585955 0.810297 0.003906
-0.357411 2.621224 9.105954 -0.589801 -0.806116 -0.047914
-0.357411 2.791224 9.355683 -0.563768 -0.054933 0.824091
-0.221413 2.791224 9.355683 0.563768 -0.054933 0.824091
-0.221413 2.621224 9.105954 0.589801 -0.806116 -0.047914
4 0 1 2 3
4 4 5 2 1
4 5 6 3 2
4 6 7 0 3
4 0 7 4 1
4 6 5 4 7
