ply
format ascii 1.0
comment Created by Blender 2.77 (sub 0) - www.blender.org, source file: 'Inn0-Colliders.blend'
element vertex 10
property float x
property float y
property float z
property float nx
property float ny
property float nz
element face 9
property list uchar uint vertex_indices
end_header
-8.614862 3.137935 5.077802 -0.564470 -0.587786 0.579485
-8.614862 3.137935 3.649801 -0.564470 -0.587786 -0.579485
-6.846862 3.137935 3.649801 0.577349 -0.577349 -0.577349
-6.846862 3.137935 5.077802 0.577349 -0.577349 0.577349
-6.856552 3.499461 5.033082 0.589709 0.768883 0.246986
-6.846862 3.460935 5.077802 0.651753 0.320170 0.687521
-6.846862 3.460935 3.649801 0.651753 0.320170 -0.687521
-6.856552 3.499461 3.694520 0.589709 0.768883 -0.246986
-8.637951 3.708221 5.077802 -0.558519 0.602985 0.569597
-8.637951 3.708221 3.649801 -0.558519 0.602985 -0.569597
4 0 1 2 3
4 4 5 6 7
4 5 3 2 6
4 0 3 5 8
3 4 8 5
4 8 4 7 9
3 9 7 6
4 1 9 6 2
4 1 0 8 9
