ply
format ascii 1.0
comment Created by Blender 2.77 (sub 0) - www.blender.org, source file: 'Inn0-Colliders.blend'
element vertex 8
property float x
property float y
property float z
property float nx
property float ny
property float nz
element face 6
property list uchar uint vertex_indices
end_header
-9.083395 2.281224 5.298802 -0.551347 -0.742912 0.379498
-8.879395 2.281224 5.298802 0.551347 -0.742912 0.379498
-8.879395 2.417224 5.298802 0.616535 0.363079 0.698569
-9.083395 2.417224 5.298802 -0.616535 0.363079 0.698569
-8.879395 2.859224 4.499802 0.617603 -0.357768 -0.700369
-8.879395 2.978224 4.499802 0.551805 0.739982 -0.384594
-9.083396 2.859224 4.499802 -0.617603 -0.357768 -0.700369
-9.083396 2.978224 4.499802 -0.551805 0.739982 -0.384594
4 0 1 2 3
4 4 5 2 1
4 6 0 3 7
4 4 1 0 6
4 5 4 6 7
4 5 7 3 2
