ply
format ascii 1.0
comment Created by Blender 2.77 (sub 0) - www.blender.org, source file: 'Inn0-Colliders.blend'
element vertex 8
property float x
property float y
property float z
property float nx
property float ny
property float nz
element face 6
property list uchar uint vertex_indices
end_header
-8.886865 2.982576 -7.230200 0.577349 0.577349 -0.577349
-8.886865 0.122221 -7.230199 0.577349 -0.577349 -0.577349
-9.192863 0.122221 -7.230199 -0.577349 -0.577349 -0.577349
-9.192863 2.982576 -7.230200 -0.577349 0.577349 -0.577349
-9.192863 0.122221 -6.924199 -0.577349 -0.577349 0.577349
-8.886864 0.122221 -6.924199 0.577349 -0.577349 0.577349
-9.192863 2.982576 -6.924199 -0.577349 0.577349 0.577349
-8.886864 2.982576 -6.924199 0.577349 0.577349 0.577349
4 0 1 2 3
4 4 2 1 5
4 6 3 2 4
4 7 6 4 5
4 0 3 6 7
4 1 0 7 5
