ply
format ascii 1.0
comment Created by Blender 2.77 (sub 0) - www.blender.org, source file: 'Inn0-Colliders.blend'
element vertex 10
property float x
property float y
property float z
property float nx
property float ny
property float nz
element face 16
property list uchar uint vertex_indices
end_header
-3.769335 2.203400 -5.792849 0.797174 -0.087985 -0.597278
-4.023231 1.917398 -5.792849 0.319865 -0.711692 -0.625416
-4.188168 2.233110 -5.792849 -0.603381 0.444349 -0.662160
-4.023231 1.917398 -5.486847 0.319865 -0.711692 0.625416
-4.329231 1.917398 -5.486847 -0.696005 -0.451338 0.558397
-4.188168 2.233110 -5.486847 -0.603351 0.444349 0.662160
-4.329231 1.917398 -5.792849 -0.696005 -0.451338 -0.558397
-3.917686 2.471033 -5.792849 0.140660 0.811701 -0.566851
-3.769335 2.203400 -5.486847 0.797174 -0.087985 0.597278
-3.917686 2.471033 -5.486847 0.140660 0.811701 0.566851
3 0 1 2
3 0 3 1
3 2 4 5
3 1 4 6
3 7 8 0
3 7 5 9
3 5 4 3
3 6 2 1
3 7 0 2
3 0 8 3
3 2 6 4
3 1 3 4
3 7 9 8
3 7 2 5
3 3 8 5
3 9 5 8
