ply
format ascii 1.0
comment Created by Blender 2.77 (sub 0) - www.blender.org, source file: 'Inn0-Colliders.blend'
element vertex 8
property float x
property float y
property float z
property float nx
property float ny
property float nz
element face 6
property list uchar uint vertex_indices
end_header
-6.149863 0.934471 -1.416197 0.577349 0.577349 0.577349
-6.149863 0.169471 -1.416197 0.577349 -0.577349 0.577349
-6.149863 0.169471 -2.368196 0.577349 -0.577349 -0.577349
-6.149863 0.934471 -2.368196 0.577349 0.577349 -0.577349
-8.801863 0.934471 -1.416197 -0.577349 0.577349 0.577349
-8.801863 0.934471 -2.368196 -0.577349 0.577349 -0.577349
-8.801863 0.169471 -1.416197 -0.577349 -0.577349 0.577349
-8.801863 0.169471 -2.368196 -0.577349 -0.577349 -0.577349
4 0 1 2 3
4 4 0 3 5
4 0 4 6 1
4 5 3 2 7
4 6 7 2 1
4 7 6 4 5
