ply
format ascii 1.0
comment Created by Blender 2.77 (sub 0) - www.blender.org, source file: 'Inn0-Colliders.blend'
element vertex 8
property float x
property float y
property float z
property float nx
property float ny
property float nz
element face 18
property list uchar uint vertex_indices
end_header
-4.432862 1.941221 -7.982477 -0.597980 0.559435 0.573901
-3.021863 1.941221 -7.982477 0.601367 0.556383 0.573351
-3.021863 1.941221 -8.126976 0.601367 0.556383 -0.573351
-4.432862 1.941221 -8.126976 -0.597980 0.559435 -0.573901
-4.330863 0.411221 -8.126976 -0.556078 -0.594378 -0.580920
-4.330863 0.411221 -7.982476 -0.556078 -0.594378 0.580920
-3.140863 0.411221 -7.982476 0.552477 -0.597125 0.581530
-3.140863 0.411221 -8.126976 0.552477 -0.597125 -0.581530
4 0 1 2 3
4 0 3 4 5
4 1 0 5 6
4 3 2 7 4
4 6 5 4 7
4 1 6 7 2
4 0 5 6 1
4 0 1 2 3
4 7 4 3 2
4 5 0 3 4
4 7 6 5 4
4 2 1 6 7
4 3 2 7 4
4 2 1 6 7
4 5 0 3 4
4 0 5 6 1
4 7 6 5 4
4 0 1 2 3
