ply
format ascii 1.0
comment Created by Blender 2.77 (sub 0) - www.blender.org, source file: 'Inn0-Colliders.blend'
element vertex 8
property float x
property float y
property float z
property float nx
property float ny
property float nz
element face 12
property list uchar uint vertex_indices
end_header
-0.028232 7.786753 0.225151 -0.577349 0.577349 0.577349
0.277767 7.786753 -0.080849 0.577349 0.577349 -0.577349
-0.028233 7.786753 -0.080849 -0.577349 0.577349 -0.577319
0.277768 3.107398 0.225152 0.577349 -0.577349 0.577349
-0.028232 3.107398 0.225152 -0.577349 -0.577349 0.577349
-0.028233 3.107398 -0.080849 -0.577349 -0.577349 -0.577349
0.277767 3.107398 -0.080849 0.577349 -0.577349 -0.577349
0.277768 7.786753 0.225151 0.577349 0.577349 0.577319
3 0 1 2
3 3 0 4
3 4 2 5
3 6 4 5
3 6 2 1
3 1 3 6
3 0 7 1
3 3 7 0
3 4 0 2
3 6 3 4
3 6 5 2
3 1 7 3
