ply
format ascii 1.0
comment Created by Blender 2.77 (sub 0) - www.blender.org, source file: 'Inn0-Colliders.blend'
element vertex 8
property float x
property float y
property float z
property float nx
property float ny
property float nz
element face 6
property list uchar uint vertex_indices
end_header
2.095135 3.148223 -0.124198 -0.577349 -0.577349 0.577349
2.401136 3.148223 -0.124198 0.577349 -0.577349 0.577349
2.401136 7.164577 -0.124199 0.577349 0.577349 0.577349
2.095135 7.164577 -0.124199 -0.577349 0.577349 0.577349
2.095135 3.148223 -0.430199 -0.577349 -0.577349 -0.577349
2.095135 7.164577 -0.430199 -0.577349 0.577349 -0.577349
2.401136 3.148223 -0.430199 0.577349 -0.577349 -0.577349
2.401136 7.164577 -0.430199 0.577349 0.577349 -0.577349
4 0 1 2 3
4 4 0 3 5
4 6 1 0 4
4 7 6 4 5
4 6 7 2 1
4 7 5 3 2
