ply
format ascii 1.0
comment Created by Blender 2.77 (sub 0) - www.blender.org, source file: 'Inn0-Colliders.blend'
element vertex 8
property float x
property float y
property float z
property float nx
property float ny
property float nz
element face 12
property list uchar uint vertex_indices
end_header
-1.320231 9.112647 -6.480871 0.577349 0.577349 -0.577349
-1.575231 8.942647 -6.480871 -0.729484 -0.198065 -0.654653
-1.575231 9.112647 -6.480871 -0.577349 0.577319 -0.577349
-1.320231 8.517649 7.294861 0.577349 -0.577349 0.577349
-1.320231 9.112649 7.294861 0.577349 0.577319 0.577349
-1.575231 9.112649 7.294861 -0.577349 0.577349 0.577349
-1.575231 8.517649 7.294861 -0.577410 -0.577410 0.577197
-1.320231 8.517647 -6.480871 0.226722 -0.802423 -0.551958
3 0 1 2
3 3 0 4
3 3 5 6
3 7 3 6
3 1 5 2
3 1 7 6
3 2 4 0
3 0 7 1
3 3 7 0
3 3 4 5
3 1 6 5
3 2 5 4
