ply
format ascii 1.0
comment Created by Blender 2.77 (sub 0) - www.blender.org, source file: 'Inn0-Colliders.blend'
element vertex 8
property float x
property float y
property float z
property float nx
property float ny
property float nz
element face 12
property list uchar uint vertex_indices
end_header
-5.103762 2.240400 6.753151 0.551347 -0.742912 0.379498
-5.307763 2.376400 6.753151 -0.616535 0.363079 0.698569
-5.307763 2.240400 6.753151 -0.551347 -0.742912 0.379498
-5.103762 2.376400 6.753151 0.616535 0.363079 0.698569
-5.103763 2.818400 5.954151 0.617603 -0.357768 -0.700369
-5.103763 2.937400 5.954151 0.551805 0.739982 -0.384594
-5.307764 2.818400 5.954151 -0.617603 -0.357768 -0.700369
-5.307764 2.937400 5.954151 -0.551805 0.739982 -0.384594
3 0 1 2
3 3 4 5
3 6 1 7
3 4 2 6
3 4 7 5
3 5 1 3
3 0 3 1
3 3 0 4
3 6 2 1
3 4 0 2
3 4 6 7
3 5 7 1
