ply
format ascii 1.0
comment Created by Blender 2.77 (sub 0) - www.blender.org, source file: 'Inn0-Colliders.blend'
element vertex 8
property float x
property float y
property float z
property float nx
property float ny
property float nz
element face 12
property list uchar uint vertex_indices
end_header
0.199493 6.158900 6.533595 0.577349 0.577349 0.577349
0.054994 6.158900 5.139736 -0.577349 0.577349 -0.577349
0.054993 6.158900 6.533595 -0.577349 0.577349 0.577349
0.199493 5.155900 6.533595 0.577349 -0.577349 0.577349
0.199493 6.158900 5.139736 0.577349 0.577349 -0.577349
0.054994 5.155900 5.139736 -0.577349 -0.577349 -0.577349
0.199493 5.155900 5.139736 0.577349 -0.577349 -0.577349
0.054993 5.155900 6.533595 -0.577349 -0.577349 0.577349
3 0 1 2
3 2 3 0
3 4 5 1
3 0 6 4
3 1 7 2
3 3 5 6
3 0 4 1
3 2 7 3
3 4 6 5
3 0 3 6
3 1 5 7
3 3 7 5
