ply
format ascii 1.0
comment Created by Blender 2.77 (sub 0) - www.blender.org, source file: 'Inn0-Colliders.blend'
element vertex 20
property float x
property float y
property float z
property float nx
property float ny
property float nz
element face 36
property list uchar uint vertex_indices
end_header
-4.241860 4.594898 -2.375850 0.527757 0.522996 0.669271
-4.108232 4.400629 -2.936851 0.728935 0.226478 -0.646016
-4.241860 4.594898 -2.936851 0.527757 0.522996 -0.669271
-4.918674 4.594898 -2.375850 -0.503189 0.534806 0.678762
-4.108232 4.331398 -2.375850 0.718009 -0.039766 0.694845
-5.077231 4.331398 -2.375850 -0.718009 -0.039766 0.694845
-5.077231 4.400629 -2.936851 -0.724754 0.258217 -0.638783
-5.077231 4.331398 -2.936851 -0.718009 -0.039766 -0.694845
-4.558732 4.817129 -2.936851 0.229987 0.728538 -0.645192
-4.558732 4.817129 -2.375850 0.229987 0.728538 0.645192
-4.244231 3.107398 -2.936850 0.541642 -0.605182 -0.583392
-4.108232 4.331398 -2.936851 0.718009 -0.039766 -0.694845
-4.244231 3.107399 -2.375850 0.541642 -0.605182 0.583392
-4.941232 3.107398 -2.936850 -0.541642 -0.605182 -0.583392
-5.077231 4.400629 -2.375850 -0.724754 0.258217 0.638783
-4.918674 4.594898 -2.936851 -0.503189 0.534806 -0.678762
-4.609731 4.817129 -2.936851 -0.234626 0.728019 -0.644124
-4.609731 4.817129 -2.375850 -0.234626 0.728019 0.644124
-4.941232 3.107399 -2.375850 -0.541642 -0.605182 0.583392
-4.108232 4.400629 -2.375850 0.728935 0.226478 0.646016
3 0 1 2
3 0 3 4
3 5 6 7
3 0 8 9
3 4 10 11
3 12 13 10
3 14 15 6
3 9 16 17
3 15 17 16
3 11 10 7
3 7 18 5
3 4 1 19
3 0 19 1
3 5 18 12
3 12 4 5
3 19 0 4
3 9 17 3
3 3 14 5
3 5 4 3
3 0 9 3
3 5 14 6
3 0 2 8
3 4 12 10
3 12 18 13
3 14 3 15
3 9 8 16
3 15 3 17
3 7 6 15
3 15 16 8
3 8 2 15
3 1 11 2
3 10 13 7
3 7 15 11
3 2 11 15
3 7 13 18
3 4 11 1
