ply
format ascii 1.0
comment Created by Blender 2.77 (sub 0) - www.blender.org, source file: 'Inn0-Colliders.blend'
element vertex 10
property float x
property float y
property float z
property float nx
property float ny
property float nz
element face 11
property list uchar uint vertex_indices
end_header
-5.375342 9.232358 -7.935218 -0.598712 0.569109 0.563585
-5.072312 9.232358 -7.935218 0.597919 0.569414 0.564104
-5.072312 9.232358 -8.207219 0.586871 0.558916 -0.585772
-5.375342 9.232358 -8.207219 -0.587237 0.558184 -0.586138
-5.095862 8.558471 -7.935218 0.732658 -0.108860 0.671804
-5.119413 8.479583 -8.207219 0.545457 -0.599353 -0.585833
-5.119413 8.479583 -7.935218 0.480544 -0.644978 0.594134
-5.326383 8.479583 -7.935218 -0.476791 -0.647145 0.594836
-5.326383 8.479583 -8.207219 -0.544206 -0.600177 -0.586138
-5.350863 8.558471 -7.935218 -0.733207 -0.113071 0.670522
4 0 1 2 3
4 1 4 5 2
4 6 7 8 5
3 6 5 4
4 3 2 5 8
3 1 0 9
3 9 7 6
3 6 4 1
3 9 6 1
4 9 0 3 8
3 9 8 7
