ply
format ascii 1.0
comment Created by Blender 2.77 (sub 0) - www.blender.org, source file: 'Inn0-Colliders.blend'
element vertex 14
property float x
property float y
property float z
property float nx
property float ny
property float nz
element face 17
property list uchar uint vertex_indices
end_header
8.249137 5.511223 2.770354 -0.595508 -0.459120 -0.659169
8.249137 5.511223 2.906353 -0.595538 -0.459120 0.659169
8.215137 5.579223 2.906353 -0.759117 0.326060 0.563372
8.215137 5.579223 2.770354 -0.759117 0.326060 -0.563372
8.798854 5.075535 2.926459 0.043397 -0.802515 0.595019
9.017045 5.292601 2.926459 0.810327 0.009735 0.585864
8.606138 5.630223 2.906353 0.194250 0.743187 0.640217
8.368136 5.630223 2.906353 -0.127354 0.737877 0.662770
9.017045 5.292601 2.750249 0.810327 0.009735 -0.585864
8.776138 5.528224 2.770354 0.482894 0.651967 -0.584582
8.776138 5.528224 2.906353 0.482894 0.651967 0.584552
8.606138 5.630223 2.770354 0.194250 0.743187 -0.640217
8.798854 5.075535 2.750249 0.043397 -0.802515 -0.595019
8.368136 5.630223 2.770354 -0.127354 0.737877 -0.662770
4 0 1 2 3
3 1 4 5
3 5 6 7
3 7 2 1
3 5 7 1
4 5 8 9 10
3 10 6 5
4 9 11 6 10
3 11 8 12
3 12 0 3
3 3 13 11
3 12 3 11
4 11 13 7 6
3 9 8 11
4 12 8 5 4
4 0 12 4 1
4 7 13 3 2
