ply
format ascii 1.0
comment Created by Blender 2.77 (sub 0) - www.blender.org, source file: 'Inn0-Colliders.blend'
element vertex 10
property float x
property float y
property float z
property float nx
property float ny
property float nz
element face 11
property list uchar uint vertex_indices
end_header
0.650137 -0.009529 -8.182199 0.542772 -0.248268 -0.802332
0.650137 -0.009528 -3.711198 0.647298 -0.729484 0.220862
-1.015863 -0.009528 -3.711198 -0.647298 -0.729484 0.220862
-1.015863 -0.009529 -8.182199 -0.542772 -0.248268 -0.802332
-1.015863 3.050472 -3.507197 -0.577349 0.577349 0.577349
0.650137 3.050472 -3.507197 0.577349 0.577349 0.577349
0.650137 3.050472 -3.711198 0.646199 0.729026 -0.225562
-1.015863 3.050472 -3.711198 -0.646199 0.729026 -0.225562
0.650137 0.126472 -3.507197 0.614704 -0.372143 0.695395
-1.015863 0.126472 -3.507197 -0.614704 -0.372143 0.695395
4 0 1 2 3
4 4 5 6 7
4 2 1 8 9
4 5 4 9 8
3 7 3 2
3 2 9 4
3 2 4 7
4 6 0 3 7
3 6 5 8
3 8 1 0
3 8 0 6
