ply
format ascii 1.0
comment Created by Blender 2.77 (sub 0) - www.blender.org, source file: 'Inn0-Colliders.blend'
element vertex 8
property float x
property float y
property float z
property float nx
property float ny
property float nz
element face 12
property list uchar uint vertex_indices
end_header
-5.128232 6.124475 2.962150 -0.577349 0.577349 -0.577349
-5.128232 3.098476 3.098151 -0.577349 -0.577349 0.577349
-5.128232 6.124475 3.098151 -0.577349 0.577349 0.577349
0.005770 6.124475 3.098151 0.577349 0.577349 0.577349
0.005770 3.098475 3.098151 0.577349 -0.577349 0.577349
0.005770 6.124475 2.962150 0.577349 0.577349 -0.577349
0.005770 3.098475 2.962151 0.577349 -0.577349 -0.577349
-5.128232 3.098476 2.962151 -0.577349 -0.577349 -0.577349
3 0 1 2
3 3 1 4
3 0 3 5
3 5 4 6
3 7 5 6
3 4 7 6
3 0 7 1
3 3 2 1
3 0 2 3
3 5 3 4
3 7 0 5
3 4 1 7
