ply
format ascii 1.0
comment Created by Blender 2.77 (sub 0) - www.blender.org, source file: 'Inn0-Colliders.blend'
element vertex 8
property float x
property float y
property float z
property float nx
property float ny
property float nz
element face 6
property list uchar uint vertex_indices
end_header
-7.985861 2.982473 3.292803 0.577349 0.577349 0.577349
-7.985861 0.126473 3.292803 0.577349 -0.577349 0.577349
-7.985861 0.126473 3.202345 0.577349 -0.577349 -0.577349
-7.985861 2.982473 3.202345 0.577349 0.577349 -0.577349
-9.005861 2.982473 3.292803 -0.773003 0.546953 0.321329
-8.915860 2.982473 3.202345 -0.298074 0.630024 -0.717063
-9.005861 0.126473 3.292803 -0.773003 -0.546953 0.321329
-8.915860 0.126473 3.202345 -0.298074 -0.630024 -0.717063
4 0 1 2 3
4 4 0 3 5
4 6 1 0 4
4 2 1 6 7
4 7 6 4 5
4 3 2 7 5
