ply
format ascii 1.0
comment Created by Blender 2.77 (sub 0) - www.blender.org, source file: 'Inn0-Colliders.blend'
element vertex 8
property float x
property float y
property float z
property float nx
property float ny
property float nz
element face 6
property list uchar uint vertex_indices
end_header
6.304251 2.876224 7.895723 -0.577349 -0.577349 0.577349
6.304251 2.876224 7.780463 -0.577349 -0.577349 -0.577349
6.397752 2.876224 7.780463 0.577349 -0.577349 -0.577349
6.397752 2.876224 7.895723 0.577349 -0.577349 0.577349
6.304251 3.692225 7.780463 -0.548509 0.762352 -0.343364
6.304251 3.590225 7.895723 -0.625294 0.320444 0.711539
6.397752 3.692225 7.780463 0.548509 0.762352 -0.343364
6.397752 3.590225 7.895723 0.625294 0.320444 0.711539
4 0 1 2 3
4 4 1 0 5
4 6 7 3 2
4 6 4 5 7
4 7 5 0 3
4 2 1 4 6
