ply
format ascii 1.0
comment Created by Blender 2.77 (sub 0) - www.blender.org, source file: 'Inn0-Colliders.blend'
element vertex 8
property float x
property float y
property float z
property float nx
property float ny
property float nz
element face 12
property list uchar uint vertex_indices
end_header
-5.230231 3.111648 -5.792848 -0.320353 -0.546892 -0.773431
-5.096747 6.171648 -5.659367 0.717277 0.630238 -0.297098
-5.096747 3.111648 -5.659366 0.717277 -0.630238 -0.297098
-5.230231 6.171650 6.702152 -0.320353 0.546892 0.773431
-5.230231 6.171648 -5.792849 -0.320353 0.546892 -0.773431
-5.096747 3.111650 6.568670 0.717277 -0.630238 0.297098
-5.096747 6.171650 6.568669 0.717277 0.630238 0.297098
-5.230231 3.111650 6.702153 -0.320353 -0.546892 0.773431
3 0 1 2
3 3 1 4
3 5 1 6
3 7 6 3
3 4 7 3
3 7 2 5
3 0 4 1
3 3 6 1
3 5 2 1
3 7 5 6
3 4 0 7
3 7 0 2
