ply
format ascii 1.0
comment Created by Blender 2.77 (sub 0) - www.blender.org, source file: 'Inn0-Colliders.blend'
element vertex 12
property float x
property float y
property float z
property float nx
property float ny
property float nz
element face 15
property list uchar uint vertex_indices
end_header
11.581139 1.992223 2.848941 -0.088931 -0.804590 -0.587085
11.734138 2.094223 2.848941 0.819544 -0.097324 -0.564653
11.734138 2.094224 9.070942 0.819544 -0.097324 0.564653
11.581139 1.992224 9.070942 -0.088931 -0.804590 0.587085
9.031138 4.661224 9.070941 -0.808740 0.006745 0.588092
9.031138 4.661223 2.848941 -0.808954 0.007141 -0.587786
9.158833 4.782907 9.070941 0.026490 0.808344 0.588092
9.158833 4.918907 6.964802 -0.023255 0.999420 0.024537
9.158833 4.952907 6.284802 -0.163915 0.986450 0.000641
9.158833 4.782906 2.848941 0.026429 0.808527 -0.587848
9.158833 4.918906 5.026803 -0.033113 0.999176 -0.022095
9.158833 4.952907 5.774802 -0.164129 0.986419 -0.000549
4 0 1 2 3
4 0 3 4 5
3 6 7 4
3 7 8 4
3 6 2 1
3 1 9 10
3 10 11 8
3 8 7 6
3 6 1 10
3 10 8 6
4 5 4 8 11
4 1 0 5 9
4 2 6 4 3
3 11 10 5
3 10 9 5
