ply
format ascii 1.0
comment Created by Blender 2.77 (sub 0) - www.blender.org, source file: 'Inn0-Colliders.blend'
element vertex 8
property float x
property float y
property float z
property float nx
property float ny
property float nz
element face 12
property list uchar uint vertex_indices
end_header
2.504770 2.580399 6.786658 0.666799 0.439680 -0.601672
2.504770 2.444399 6.990657 0.450728 -0.696463 0.558336
2.504770 2.444399 6.786658 0.450728 -0.696463 -0.558336
1.671769 2.818399 6.990657 -0.669790 -0.433485 0.602832
2.504770 2.580399 6.990657 0.666799 0.439680 0.601672
1.671769 2.937399 6.990657 -0.456435 0.692221 0.558977
1.671769 2.818399 6.786658 -0.669790 -0.433485 -0.602832
1.671769 2.937399 6.786658 -0.456435 0.692221 -0.558977
3 0 1 2
3 3 4 5
3 0 6 7
3 6 1 3
3 7 3 5
3 7 4 0
3 0 4 1
3 3 1 4
3 0 2 6
3 6 2 1
3 7 6 3
3 7 5 4
