ply
format ascii 1.0
comment Created by Blender 2.77 (sub 0) - www.blender.org, source file: 'Inn0-Colliders.blend'
element vertex 8
property float x
property float y
property float z
property float nx
property float ny
property float nz
element face 12
property list uchar uint vertex_indices
end_header
-4.057232 2.941754 4.594151 0.577349 0.577349 -0.577349
-4.057232 0.081399 4.900152 0.577349 -0.577349 0.577349
-4.057232 0.081399 4.594152 0.577349 -0.577349 -0.577349
-4.363232 2.941754 4.594151 -0.577349 0.577349 -0.577349
-4.363232 0.081399 4.594152 -0.577349 -0.577349 -0.577349
-4.363232 0.081399 4.900152 -0.577349 -0.577349 0.577349
-4.363232 2.941754 4.900152 -0.577349 0.577349 0.577349
-4.057232 2.941754 4.900152 0.577349 0.577349 0.577349
3 0 1 2
3 3 2 4
3 4 1 5
3 3 5 6
3 6 1 7
3 7 3 6
3 0 7 1
3 3 0 2
3 4 2 1
3 3 4 5
3 6 5 1
3 7 0 3
