ply
format ascii 1.0
comment Created by Blender 2.77 (sub 0) - www.blender.org, source file: 'Inn0-Colliders.blend'
element vertex 8
property float x
property float y
property float z
property float nx
property float ny
property float nz
element face 6
property list uchar uint vertex_indices
end_header
-1.083862 6.174223 5.439457 0.577349 0.577349 0.577349
-9.209862 6.174223 5.439457 -0.577349 0.577349 0.577349
-9.209862 5.902223 5.439457 -0.577349 -0.577349 0.577349
-1.083862 5.902223 5.439457 0.577349 -0.577349 0.577349
-1.083863 5.902221 -7.531544 0.577349 -0.577349 -0.577349
-1.083863 6.174222 -7.531544 0.577349 0.577349 -0.577349
-9.209863 5.902221 -7.531544 -0.577349 -0.577349 -0.577349
-9.209863 6.174222 -7.531544 -0.577349 0.577349 -0.577349
4 0 1 2 3
4 4 5 0 3
4 6 4 3 2
4 1 0 5 7
4 4 6 7 5
4 1 7 6 2
