ply
format ascii 1.0
comment Created by Blender 2.77 (sub 0) - www.blender.org, source file: 'Inn0-Colliders.blend'
element vertex 8
property float x
property float y
property float z
property float nx
property float ny
property float nz
element face 6
property list uchar uint vertex_indices
end_header
-8.913214 2.621223 5.536308 -0.666158 0.440992 0.601428
-8.913214 2.621223 5.332308 -0.666158 0.440992 -0.601428
-8.913214 2.485223 5.332308 -0.451979 -0.695547 -0.558458
-8.913214 2.485223 5.536308 -0.451979 -0.695547 0.558458
-8.071884 2.859223 5.332308 0.669149 -0.434828 -0.602588
-8.071884 2.978223 5.332308 0.457625 0.691305 -0.559130
-8.071884 2.859223 5.536308 0.669149 -0.434828 0.602588
-8.071884 2.978223 5.536308 0.457625 0.691305 0.559130
4 0 1 2 3
4 4 2 1 5
4 6 7 0 3
4 7 5 1 0
4 7 6 4 5
4 2 4 6 3
