ply
format ascii 1.0
comment Created by Blender 2.77 (sub 0) - www.blender.org, source file: 'Inn0-Colliders.blend'
element vertex 8
property float x
property float y
property float z
property float nx
property float ny
property float nz
element face 6
property list uchar uint vertex_indices
end_header
-6.260364 3.508930 -4.697198 0.577349 0.577349 0.577349
-6.727864 3.508930 -4.697198 -0.577349 0.577349 0.577349
-6.727864 3.151930 -4.697198 -0.577349 -0.577349 0.577349
-6.260364 3.151930 -4.697198 0.577349 -0.577349 0.577349
-6.260364 3.508930 -5.717199 0.577349 0.577349 -0.577349
-6.727864 3.508930 -5.717199 -0.577349 0.577349 -0.577349
-6.260364 3.151930 -5.717199 0.577349 -0.577349 -0.577349
-6.727864 3.151930 -5.717199 -0.577349 -0.577349 -0.577349
4 0 1 2 3
4 4 5 1 0
4 6 4 0 3
4 4 6 7 5
4 2 7 6 3
4 7 2 1 5
