ply
format ascii 1.0
comment Created by Blender 2.77 (sub 0) - www.blender.org, source file: 'Inn0-Colliders.blend'
element vertex 6
property float x
property float y
property float z
property float nx
property float ny
property float nz
element face 5
property list uchar uint vertex_indices
end_header
5.606155 1.819987 7.729803 0.560472 0.205084 -0.802332
5.606155 1.388724 8.106705 0.562700 -0.823389 0.073183
5.232155 1.388724 8.106705 -0.562700 -0.823389 0.073183
5.232155 1.819987 7.729803 -0.560472 0.205084 -0.802332
5.606155 2.119724 8.545803 0.544359 0.534562 0.646413
5.232155 2.119724 8.545803 -0.544359 0.534562 0.646413
4 0 1 2 3
4 4 0 3 5
3 5 3 2
4 4 5 2 1
3 0 4 1
