ply
format ascii 1.0
comment Created by Blender 2.77 (sub 0) - www.blender.org, source file: 'Inn0-Colliders.blend'
element vertex 9
property float x
property float y
property float z
property float nx
property float ny
property float nz
element face 9
property list uchar uint vertex_indices
end_header
2.876279 7.046092 -0.120906 -0.593799 -0.430952 -0.679403
3.114280 7.046092 -0.120906 0.604114 -0.426832 -0.672903
3.114280 5.481678 3.565082 0.559099 -0.691336 0.457595
2.876279 5.481678 3.565082 -0.559099 -0.691336 0.457595
2.876279 7.538471 -0.107199 -0.683218 0.076846 -0.726127
3.114280 7.605850 -0.093492 0.565233 0.702933 -0.431684
2.876279 7.605850 -0.093492 -0.567522 0.728629 -0.383374
2.876279 6.053071 3.565082 -0.601428 0.440962 0.666189
3.114280 6.053071 3.565082 0.601428 0.440962 0.666189
4 0 1 2 3
4 4 5 1 0
4 5 6 7 8
4 1 5 8 2
3 4 6 5
4 8 7 3 2
3 4 0 3
3 3 7 6
3 3 6 4
