ply
format ascii 1.0
comment Created by Blender 2.77 (sub 0) - www.blender.org, source file: 'Inn0-Colliders.blend'
element vertex 8
property float x
property float y
property float z
property float nx
property float ny
property float nz
element face 6
property list uchar uint vertex_indices
end_header
-7.892362 2.060223 3.402944 -0.446364 -0.700217 0.557146
-6.982862 2.493723 3.402944 0.397931 -0.616474 0.679373
-6.379363 3.003724 3.402944 0.787408 0.288156 0.544908
-7.883863 3.003724 3.402944 -0.574480 0.579699 0.577807
-6.982862 2.493723 3.326444 0.397931 -0.616474 -0.679373
-7.892362 2.060223 3.326444 -0.446364 -0.700217 -0.557146
-6.379363 3.003724 3.326444 0.787408 0.288156 -0.544908
-7.883863 3.003724 3.326444 -0.574480 0.579699 -0.577807
4 0 1 2 3
4 4 1 0 5
4 3 2 6 7
4 3 7 5 0
4 2 1 4 6
4 5 7 6 4
