ply
format ascii 1.0
comment Created by Blender 2.77 (sub 0) - www.blender.org, source file: 'Inn0-Colliders.blend'
element vertex 12
property float x
property float y
property float z
property float nx
property float ny
property float nz
element face 20
property list uchar uint vertex_indices
end_header
6.057770 3.111649 4.577152 0.320353 -0.546892 0.773431
5.924287 5.967649 4.443668 -0.808985 0.432447 0.398114
5.924287 3.111649 4.443669 -0.717277 -0.630238 0.297098
6.057770 7.123649 1.347151 0.670553 0.730918 0.126835
5.924287 7.123648 1.007151 -0.669546 0.731132 -0.130894
5.924287 7.123649 1.347151 -0.670553 0.730888 0.126957
5.924287 3.111648 -1.987365 -0.717277 -0.630238 -0.297098
5.924287 5.967648 -1.987366 -0.811243 0.426374 -0.400067
6.057770 5.967648 -2.120849 0.322611 0.445814 -0.834925
6.057770 7.123648 1.007151 0.669515 0.731162 -0.130772
6.057770 3.111648 -2.120848 0.320353 -0.546892 -0.773431
6.057770 5.967649 4.577152 0.322459 0.449049 0.833277
3 0 1 2
3 3 4 5
3 6 2 5
3 7 4 8
3 4 9 8
3 10 9 3
3 3 5 11
3 5 1 11
3 0 6 10
3 7 10 6
3 0 11 1
3 3 9 4
3 5 4 6
3 7 6 4
3 2 1 5
3 3 11 0
3 0 10 3
3 8 9 10
3 0 2 6
3 7 8 10
