ply
format ascii 1.0
comment Created by Blender 2.77 (sub 0) - www.blender.org, source file: 'Inn0-Colliders.blend'
element vertex 10
property float x
property float y
property float z
property float nx
property float ny
property float nz
element face 16
property list uchar uint vertex_indices
end_header
6.889912 7.735026 1.079299 0.576861 0.570940 -0.584155
6.651912 7.072648 1.092151 -0.680776 -0.070559 -0.729057
6.651912 7.735026 1.079299 -0.576312 0.572222 -0.583422
6.889912 7.735026 1.360857 0.576830 0.570513 0.584582
6.651912 7.005269 1.333444 -0.588641 -0.625996 0.511460
6.889912 7.005269 1.105003 0.587664 -0.589801 -0.553850
6.889912 7.005269 1.333444 0.588336 -0.590594 0.552263
6.651912 7.005269 1.105003 -0.587909 -0.623280 -0.515610
6.651912 7.072648 1.347151 -0.679067 -0.075289 0.730155
6.651912 7.735026 1.360857 -0.576250 0.571856 0.583819
3 0 1 2
3 2 3 0
3 4 5 6
3 0 6 5
3 5 7 1
3 3 8 6
3 4 6 8
3 2 1 8
3 0 5 1
3 2 9 3
3 4 7 5
3 0 3 6
3 3 9 8
3 4 8 1
3 9 2 8
3 1 7 4
