ply
format ascii 1.0
comment Created by Blender 2.77 (sub 0) - www.blender.org, source file: 'Inn0-Colliders.blend'
element vertex 10
property float x
property float y
property float z
property float nx
property float ny
property float nz
element face 16
property list uchar uint vertex_indices
end_header
4.272770 5.130398 -2.236296 0.696554 0.057192 -0.715201
2.878770 4.926399 -2.236296 -0.577349 -0.577349 -0.577349
2.878770 5.130399 -2.236296 -0.696554 0.057192 -0.715201
4.255771 5.967649 -1.987366 0.573046 0.592425 0.566240
2.895771 5.967647 -2.120847 -0.578143 0.617206 -0.533647
2.895771 5.967647 -1.987363 -0.573046 0.592425 0.566240
2.878770 4.926399 -1.947295 -0.577837 -0.564013 0.589892
4.255771 5.967649 -2.120850 0.578143 0.617206 -0.533647
4.272770 4.926399 -1.947295 0.577837 -0.564013 0.589892
4.272770 4.926399 -2.236296 0.577349 -0.577349 -0.577349
3 0 1 2
3 3 4 5
3 2 6 5
3 0 7 3
3 8 5 6
3 8 1 9
3 4 0 2
3 0 9 1
3 3 7 4
3 5 4 2
3 2 1 6
3 3 8 0
3 9 0 8
3 8 3 5
3 8 6 1
3 4 7 0
