ply
format ascii 1.0
comment Created by Blender 2.77 (sub 0) - www.blender.org, source file: 'Inn0-Colliders.blend'
element vertex 8
property float x
property float y
property float z
property float nx
property float ny
property float nz
element face 12
property list uchar uint vertex_indices
end_header
-4.210229 0.085650 4.747152 0.577349 -0.577349 0.577349
-4.210229 2.941650 4.656694 0.577349 0.577349 -0.577349
-4.210229 2.941650 4.747152 0.577349 0.577349 0.577349
-5.140228 2.941650 4.656694 -0.298074 0.630024 -0.717063
-5.230229 2.941650 4.747152 -0.773003 0.546953 0.321329
-5.230229 0.085650 4.747152 -0.773003 -0.546983 0.321329
-5.140228 0.085650 4.656694 -0.298074 -0.630024 -0.717063
-4.210229 0.085650 4.656694 0.577349 -0.577349 -0.577349
3 0 1 2
3 2 3 4
3 0 4 5
3 6 0 5
3 5 3 6
3 7 3 1
3 0 7 1
3 2 1 3
3 0 2 4
3 6 7 0
3 5 4 3
3 7 6 3
