ply
format ascii 1.0
comment Created by Blender 2.77 (sub 0) - www.blender.org, source file: 'Inn0-Colliders.blend'
element vertex 8
property float x
property float y
property float z
property float nx
property float ny
property float nz
element face 12
property list uchar uint vertex_indices
end_header
-5.137582 2.580400 6.786657 -0.666158 0.440992 -0.601428
-5.137582 2.444400 6.990657 -0.451979 -0.695547 0.558458
-5.137582 2.580400 6.990657 -0.666158 0.440992 0.601428
-4.296252 2.818400 6.786657 0.669149 -0.434828 -0.602588
-4.296252 2.937400 6.786657 0.457625 0.691305 -0.559130
-4.296252 2.818400 6.990657 0.669149 -0.434828 0.602588
-4.296252 2.937400 6.990657 0.457625 0.691305 0.559130
-5.137582 2.444400 6.786657 -0.451979 -0.695547 -0.558458
3 0 1 2
3 3 0 4
3 2 5 6
3 4 2 6
3 4 5 3
3 3 1 7
3 0 7 1
3 3 7 0
3 2 1 5
3 4 0 2
3 4 6 5
3 3 5 1
