ply
format ascii 1.0
comment Created by Blender 2.77 (sub 0) - www.blender.org, source file: 'Inn0-Colliders.blend'
element vertex 12
property float x
property float y
property float z
property float nx
property float ny
property float nz
element face 20
property list uchar uint vertex_indices
end_header
-5.281232 3.506900 6.142604 0.561998 0.568133 0.601093
-7.151232 3.251900 6.005693 -0.592059 -0.578448 0.561113
-5.281232 3.115900 6.142604 0.539140 -0.595416 0.595599
-7.168231 3.472900 5.818695 -0.657063 0.504135 -0.560411
-7.168231 3.472900 6.005693 -0.657888 0.504288 0.559313
-5.281232 3.115900 5.688193 0.540025 -0.595630 -0.594592
-5.281232 3.506900 5.688193 0.562944 0.568316 -0.600055
-7.151232 3.251900 5.818695 -0.591144 -0.578234 -0.562273
-6.964231 3.506900 5.818695 -0.099307 0.862697 -0.495804
-6.964231 3.506900 6.005693 -0.100284 0.867580 0.487014
-6.233231 3.523900 6.063500 -0.047243 0.804132 0.592517
-6.233232 3.523900 5.763593 -0.045503 0.800378 -0.597736
3 0 1 2
3 3 1 4
3 0 5 6
3 6 7 3
3 5 1 7
3 8 4 9
3 9 4 10
3 10 11 9
3 8 11 3
3 10 4 0
3 3 11 6
3 0 4 1
3 3 7 1
3 0 2 5
3 6 5 7
3 5 2 1
3 8 3 4
3 10 0 6
3 11 8 9
3 10 6 11
