ply
format ascii 1.0
comment Created by Blender 2.77 (sub 0) - www.blender.org, source file: 'Inn0-Colliders.blend'
element vertex 8
property float x
property float y
property float z
property float nx
property float ny
property float nz
element face 6
property list uchar uint vertex_indices
end_header
-9.158864 3.148222 -1.535198 -0.577349 -0.577349 -0.577349
-9.158864 3.148222 -1.229198 -0.577349 -0.577349 0.577349
-9.158864 6.008576 -1.229198 -0.695395 0.372143 0.614704
-9.158864 6.008576 -1.535199 -0.695395 0.372143 -0.614704
-8.852864 3.148222 -1.535198 0.577349 -0.577349 -0.577349
-8.852864 3.148222 -1.229198 0.577349 -0.577349 0.577349
-8.852864 6.212576 -1.535199 0.393262 0.734825 -0.552568
-8.852864 6.212576 -1.229198 0.393262 0.734825 0.552568
4 0 1 2 3
4 4 5 1 0
4 4 6 7 5
4 7 2 1 5
4 6 3 2 7
4 6 4 0 3
