ply
format ascii 1.0
comment Created by Blender 2.77 (sub 0) - www.blender.org, source file: 'Inn0-Colliders.blend'
element vertex 8
property float x
property float y
property float z
property float nx
property float ny
property float nz
element face 12
property list uchar uint vertex_indices
end_header
-5.431822 -0.020600 6.685152 -0.580340 -0.571306 -0.580340
-5.397821 2.937400 7.059152 -0.574297 0.583361 0.574297
-5.397821 2.937400 6.719152 -0.574297 0.583361 -0.574297
-5.028639 -0.020600 7.093153 0.580340 -0.571306 0.580340
-5.431822 -0.020600 7.093153 -0.580340 -0.571306 0.580340
-5.028639 -0.020600 6.685152 0.580340 -0.571306 -0.580340
-5.062640 2.937400 7.059152 0.574297 0.583361 0.574297
-5.062640 2.937400 6.719152 0.574297 0.583361 -0.574297
3 0 1 2
3 0 3 4
3 2 5 0
3 4 6 1
3 2 6 7
3 7 3 5
3 0 4 1
3 0 5 3
3 2 7 5
3 4 3 6
3 2 1 6
3 7 6 3
