ply
format ascii 1.0
comment Created by Blender 2.77 (sub 0) - www.blender.org, source file: 'Inn0-Colliders.blend'
element vertex 12
property float x
property float y
property float z
property float nx
property float ny
property float nz
element face 10
property list uchar uint vertex_indices
end_header
-5.010863 3.052598 1.521715 0.000000 0.816980 0.576647
-4.945951 3.052598 1.456802 0.576647 0.816980 0.000000
-5.001728 3.052598 1.401026 0.000000 0.816980 -0.576647
-5.066640 3.052598 1.465938 -0.576647 0.816980 0.000000
-5.823951 2.092098 1.465938 -0.957244 0.289254 0.000000
-5.001728 2.092098 0.643714 0.000000 0.289254 -0.957244
-5.001728 1.973098 0.643714 0.000000 -0.577349 -0.816492
-5.823951 1.973098 1.465938 -0.816492 -0.577349 0.000000
-5.010863 2.092098 2.279026 0.000000 0.289254 0.957244
-5.010863 1.973098 2.279026 0.000000 -0.577349 0.816492
-4.188640 2.092098 1.456802 0.957244 0.289254 0.000000
-4.188640 1.973098 1.456802 0.816492 -0.577349 0.000000
4 0 1 2 3
4 4 5 6 7
4 8 4 7 9
4 1 10 5 2
4 1 0 8 10
4 6 5 10 11
4 10 8 9 11
4 5 4 3 2
4 9 7 6 11
4 4 8 0 3
