ply
format ascii 1.0
comment Created by Blender 2.77 (sub 0) - www.blender.org, source file: 'Inn0-Colliders.blend'
element vertex 8
property float x
property float y
property float z
property float nx
property float ny
property float nz
element face 6
property list uchar uint vertex_indices
end_header
-8.852864 2.982578 3.139802 0.577349 0.577349 -0.577349
-9.158863 2.982578 3.139802 -0.577349 0.577349 -0.577349
-9.158863 2.982578 3.445802 -0.577349 0.577349 0.577349
-8.852864 2.982578 3.445802 0.577349 0.577349 0.577349
-8.852864 0.122223 3.139802 0.577349 -0.577349 -0.577349
-8.852864 0.122223 3.445802 0.577349 -0.577349 0.577349
-9.158863 0.122223 3.139802 -0.577349 -0.577349 -0.577349
-9.158863 0.122223 3.445802 -0.577349 -0.577349 0.577349
4 0 1 2 3
4 4 0 3 5
4 0 4 6 1
4 7 6 4 5
4 2 1 6 7
4 7 5 3 2
