ply
format ascii 1.0
comment Created by Blender 2.77 (sub 0) - www.blender.org, source file: 'Inn0-Colliders.blend'
element vertex 8
property float x
property float y
property float z
property float nx
property float ny
property float nz
element face 6
property list uchar uint vertex_indices
end_header
-1.185865 3.148222 -7.094198 0.577349 -0.577319 0.577319
-1.186099 6.098002 -7.094198 0.679464 0.412275 0.606861
-1.497503 6.260158 -7.094198 -0.431715 0.710135 0.556139
-1.491866 3.148222 -7.094198 -0.576769 -0.577807 0.577441
-1.185865 3.148222 -7.400198 0.577349 -0.577319 -0.577319
-1.491866 3.148222 -7.400198 -0.576769 -0.577807 -0.577441
-1.497503 6.260158 -7.400198 -0.431715 0.710135 -0.556139
-1.186099 6.098002 -7.400198 0.679464 0.412275 -0.606861
4 0 1 2 3
4 4 0 3 5
4 6 7 4 5
4 4 7 1 0
4 7 6 2 1
4 2 6 5 3
