ply
format ascii 1.0
comment Created by Blender 2.77 (sub 0) - www.blender.org, source file: 'Inn0-Colliders.blend'
element vertex 8
property float x
property float y
property float z
property float nx
property float ny
property float nz
element face 8
property list uchar uint vertex_indices
end_header
4.611139 0.020224 8.809304 0.563707 -0.727195 0.391644
0.565138 0.020224 8.809304 -0.255715 -0.639332 0.725120
0.259138 0.020224 8.562805 -0.794061 -0.539140 -0.280587
4.611139 2.604224 8.562804 0.577349 0.577349 -0.577349
4.611139 0.190224 8.562804 0.622578 -0.356639 -0.696554
0.565138 2.604224 8.562804 -0.539262 0.606891 -0.583789
0.565138 2.604224 8.809303 -0.540788 0.604419 0.584979
4.611139 2.604224 8.809303 0.577349 0.577349 0.577349
3 0 1 2
4 3 4 2 5
4 6 7 3 5
4 4 3 7 0
4 0 7 6 1
3 4 0 2
3 1 6 2
3 2 6 5
