ply
format ascii 1.0
comment Created by Blender 2.77 (sub 0) - www.blender.org, source file: 'Inn0-Colliders.blend'
element vertex 12
property float x
property float y
property float z
property float nx
property float ny
property float nz
element face 14
property list uchar uint vertex_indices
end_header
10.784989 2.978224 8.715804 0.300577 0.716483 -0.629505
7.316462 2.978224 8.715804 -0.303140 0.715873 -0.628956
7.316462 2.978224 8.800804 -0.303140 0.715873 0.628956
10.784989 2.978224 8.800804 0.300577 0.716483 0.629505
11.156138 1.142224 8.715805 0.297098 -0.630238 -0.717277
6.906138 1.142224 8.715805 -0.297098 -0.630238 -0.717277
6.906138 2.554749 8.715804 -0.577563 0.409833 -0.705985
11.156138 2.600285 8.715804 0.575732 0.412427 -0.705954
11.241138 1.142224 8.800805 0.773431 -0.546892 0.320353
11.241138 2.513730 8.800804 0.907682 0.195502 0.371288
6.821138 2.467025 8.800804 -0.908170 0.192755 0.371563
6.821138 1.142224 8.800805 -0.773431 -0.546892 0.320353
4 0 1 2 3
3 4 5 6
3 6 1 0
3 0 7 4
3 6 0 4
3 8 9 3
3 3 2 10
3 10 11 8
3 3 10 8
4 8 4 7 9
4 5 4 8 11
4 9 7 0 3
4 10 6 5 11
4 10 2 1 6
