ply
format ascii 1.0
comment Created by Blender 2.77 (sub 0) - www.blender.org, source file: 'Inn0-Colliders.blend'
element vertex 14
property float x
property float y
property float z
property float nx
property float ny
property float nz
element face 14
property list uchar uint vertex_indices
end_header
3.081082 6.528954 9.285038 -0.570208 0.581896 0.579821
3.081082 6.538362 8.066950 -0.576098 0.618976 -0.533799
3.070313 6.092112 8.008410 -0.688498 -0.091617 -0.719413
3.070313 6.082703 9.286233 -0.701224 -0.142918 0.698416
4.383963 6.082703 9.286233 0.701651 -0.136998 0.699179
4.383963 6.092112 8.008410 0.687399 -0.091037 -0.720511
4.373194 6.538362 8.066952 0.576098 0.618976 -0.533799
4.373194 6.528954 9.285038 0.570208 0.581896 0.579821
3.136701 5.774369 9.136673 -0.668813 -0.717521 0.194403
3.213138 5.767639 9.213239 -0.214728 -0.755425 0.619037
3.135515 5.764406 8.087526 -0.517991 -0.692923 -0.501450
4.318885 5.763374 8.092129 0.521195 -0.692892 -0.498215
4.317556 5.774487 9.162083 0.671346 -0.711325 0.207953
4.266498 5.769991 9.213224 0.228156 -0.749168 0.621815
4 0 1 2 3
4 4 5 6 7
4 7 6 1 0
4 7 0 3 4
3 8 9 3
3 8 10 9
3 11 12 13
4 5 11 10 2
4 11 5 4 12
4 9 10 11 13
3 13 12 4
4 10 8 3 2
4 6 5 2 1
4 9 13 4 3
