ply
format ascii 1.0
comment Created by Blender 2.77 (sub 0) - www.blender.org, source file: 'Inn0-Colliders.blend'
element vertex 8
property float x
property float y
property float z
property float nx
property float ny
property float nz
element face 12
property list uchar uint vertex_indices
end_header
-2.714231 0.610719 1.279152 0.577349 0.577349 -0.577349
-3.292231 0.134719 1.279152 -0.577349 -0.577349 -0.577349
-3.292231 0.610719 1.279152 -0.577349 0.577349 -0.577349
-2.714231 0.134719 2.775152 0.577349 -0.577349 0.577349
-2.714231 0.134719 1.279152 0.577349 -0.577349 -0.577349
-3.292232 0.134719 2.775152 -0.577349 -0.577349 0.577349
-3.292232 0.610719 2.775152 -0.577349 0.577349 0.577349
-2.714231 0.610719 2.775152 0.577349 0.577349 0.577349
3 0 1 2
3 0 3 4
3 1 3 5
3 6 3 7
3 5 2 1
3 2 7 0
3 0 4 1
3 0 7 3
3 1 4 3
3 6 5 3
3 5 6 2
3 2 6 7
