ply
format ascii 1.0
comment Created by Blender 2.77 (sub 0) - www.blender.org, source file: 'Inn0-Colliders.blend'
element vertex 8
property float x
property float y
property float z
property float nx
property float ny
property float nz
element face 12
property list uchar uint vertex_indices
end_header
-5.417232 2.941754 1.194150 -0.577349 0.577349 -0.577319
-5.417231 0.081399 1.500151 -0.577319 -0.577349 0.577349
-5.417231 2.941754 1.500151 -0.577319 0.577349 0.577349
-5.111231 0.081399 1.500151 0.577349 -0.577349 0.577349
-5.111231 2.941754 1.500151 0.577349 0.577349 0.577319
-5.111233 2.941754 1.194150 0.577319 0.577349 -0.577349
-5.111233 0.081399 1.194151 0.577319 -0.577349 -0.577349
-5.417232 0.081399 1.194151 -0.577349 -0.577349 -0.577319
3 0 1 2
3 2 3 4
3 5 2 4
3 5 3 6
3 0 6 7
3 1 6 3
3 0 7 1
3 2 1 3
3 5 0 2
3 5 4 3
3 0 5 6
3 1 7 6
