ply
format ascii 1.0
comment Created by Blender 2.77 (sub 0) - www.blender.org, source file: 'Inn0-Colliders.blend'
element vertex 6
property float x
property float y
property float z
property float nx
property float ny
property float nz
element face 5
property list uchar uint vertex_indices
end_header
-0.557274 6.008472 3.497703 -0.594623 0.477981 0.646474
2.876279 6.008472 3.497703 0.594623 0.477981 0.646474
2.876279 7.113472 -0.107199 0.537187 0.288736 -0.792474
-0.557274 7.113472 -0.107199 -0.537187 0.288736 -0.792474
2.876279 5.583472 3.497703 0.559099 -0.691336 0.457595
-0.557274 5.583472 3.497703 -0.559099 -0.691336 0.457595
4 0 1 2 3
4 2 4 5 3
3 1 4 2
3 5 0 3
4 1 0 5 4
