ply
format ascii 1.0
comment Created by Blender 2.77 (sub 0) - www.blender.org, source file: 'Inn0-Colliders.blend'
element vertex 8
property float x
property float y
property float z
property float nx
property float ny
property float nz
element face 12
property list uchar uint vertex_indices
end_header
6.057770 2.941649 4.747152 0.773431 0.546892 0.320353
-2.510231 0.085650 4.747152 -0.577349 -0.577349 0.577349
6.057770 0.085649 4.747153 0.773431 -0.546892 0.320353
5.967312 0.085649 4.656695 0.297098 -0.630238 -0.717277
-2.510231 2.941650 4.747151 -0.577349 0.577349 0.577349
5.967312 2.941649 4.656694 0.297098 0.630238 -0.717277
-2.510231 2.941650 4.656694 -0.577349 0.577349 -0.577349
-2.510231 0.085650 4.656694 -0.577349 -0.577349 -0.577349
3 0 1 2
3 1 3 2
3 4 5 6
3 5 2 3
3 7 5 3
3 6 1 4
3 0 4 1
3 1 7 3
3 4 0 5
3 5 0 2
3 7 6 5
3 6 7 1
