ply
format ascii 1.0
comment Created by Blender 2.77 (sub 0) - www.blender.org, source file: 'Inn0-Colliders.blend'
element vertex 8
property float x
property float y
property float z
property float nx
property float ny
property float nz
element face 6
property list uchar uint vertex_indices
end_header
0.898942 5.426222 -4.544198 0.567614 0.240547 -0.787347
0.898942 5.120222 -4.340198 0.586291 -0.778954 -0.222358
0.524941 5.120222 -4.340198 -0.586291 -0.778954 -0.222358
0.524941 5.426222 -4.544198 -0.567614 0.240547 -0.787347
0.898942 5.460222 -3.592198 0.603137 -0.431806 0.670614
0.898942 5.817223 -3.592198 0.559557 0.688406 0.461470
0.524941 5.460222 -3.592198 -0.603137 -0.431806 0.670614
0.524941 5.817223 -3.592198 -0.559557 0.688406 0.461470
4 0 1 2 3
4 4 1 0 5
4 6 7 3 2
4 3 7 5 0
4 5 7 6 4
4 4 6 2 1
