ply
format ascii 1.0
comment Created by Blender 2.77 (sub 0) - www.blender.org, source file: 'Inn0-Colliders.blend'
element vertex 12
property float x
property float y
property float z
property float nx
property float ny
property float nz
element face 14
property list uchar uint vertex_indices
end_header
-1.319345 6.144472 -7.113716 0.471480 0.371929 0.799585
-5.095862 8.626472 -7.113716 0.196051 0.678060 0.708335
-5.333863 8.626472 -7.113716 -0.201300 0.676199 0.708640
-8.872378 6.212471 -7.113716 -0.473983 0.364086 0.801721
-8.872378 3.152472 -7.113716 -0.297098 -0.630238 0.717277
-1.319345 3.152472 -7.113716 0.297098 -0.630238 0.717277
-1.185863 3.152472 -7.247197 0.773431 -0.546892 -0.320353
-1.185863 6.144472 -7.247198 0.826899 0.390545 -0.404553
-9.005862 3.152472 -7.247197 -0.773431 -0.546892 -0.320353
-5.095862 8.626472 -7.247198 0.224219 0.775475 -0.590197
-5.333863 8.626472 -7.247198 -0.230995 0.775994 -0.586871
-9.005862 6.212471 -7.247198 -0.828608 0.385784 -0.405621
3 0 1 2
3 2 3 4
3 4 5 0
3 2 4 0
4 6 7 0 5
4 6 5 4 8
4 9 10 2 1
4 2 10 11 3
4 3 11 8 4
3 6 8 11
3 11 10 9
3 9 7 6
3 11 9 6
4 0 7 9 1
