ply
format ascii 1.0
comment Created by Blender 2.77 (sub 0) - www.blender.org, source file: 'Inn0-Colliders.blend'
element vertex 8
property float x
property float y
property float z
property float nx
property float ny
property float nz
element face 6
property list uchar uint vertex_indices
end_header
-3.497865 7.827577 -0.260198 0.577349 0.577349 -0.577349
-3.497865 3.148222 -0.260198 0.577349 -0.577349 -0.577349
-3.803866 3.148222 -0.260198 -0.577349 -0.577349 -0.577349
-3.803866 7.827577 -0.260198 -0.577349 0.577349 -0.577319
-3.497864 7.827577 0.045802 0.577349 0.577349 0.577349
-3.497864 3.148222 0.045803 0.577349 -0.577349 0.577349
-3.803865 7.827577 0.045802 -0.577319 0.577349 0.577349
-3.803865 3.148222 0.045803 -0.577349 -0.577349 0.577349
4 0 1 2 3
4 1 0 4 5
4 0 3 6 4
4 7 5 4 6
4 2 7 6 3
4 7 2 1 5
