ply
format ascii 1.0
comment Created by Blender 2.77 (sub 0) - www.blender.org, source file: 'Inn0-Colliders.blend'
element vertex 8
property float x
property float y
property float z
property float nx
property float ny
property float nz
element face 12
property list uchar uint vertex_indices
end_header
5.745574 5.079398 -2.885848 -0.586291 -0.778954 -0.222358
6.119575 5.419398 -2.137848 0.603137 -0.431806 0.670614
5.745574 5.419398 -2.137848 -0.603137 -0.431806 0.670614
5.745574 5.385398 -3.089848 -0.567614 0.240547 -0.787347
5.745574 5.776399 -2.137848 -0.559557 0.688406 0.461470
6.119575 5.385398 -3.089848 0.567614 0.240547 -0.787347
6.119575 5.776399 -2.137848 0.559557 0.688406 0.461470
6.119575 5.079398 -2.885848 0.586291 -0.778954 -0.222358
3 0 1 2
3 3 2 4
3 1 5 6
3 5 0 3
3 6 3 4
3 6 2 1
3 0 7 1
3 3 0 2
3 1 7 5
3 5 7 0
3 6 5 3
3 6 4 2
