ply
format ascii 1.0
comment Created by Blender 2.77 (sub 0) - www.blender.org, source file: 'Inn0-Colliders.blend'
element vertex 8
property float x
property float y
property float z
property float nx
property float ny
property float nz
element face 6
property list uchar uint vertex_indices
end_header
-7.067863 0.651543 -0.175198 -0.577349 0.577349 -0.577349
-6.489863 0.651543 -0.175198 0.577349 0.577349 -0.577349
-6.489863 0.175542 -0.175198 0.577349 -0.577349 -0.577349
-7.067863 0.175542 -0.175198 -0.577349 -0.577349 -0.577349
-6.489863 0.651543 1.320803 0.577349 0.577349 0.577349
-6.489863 0.175543 1.320803 0.577349 -0.577349 0.577349
-7.067864 0.175543 1.320803 -0.577349 -0.577349 0.577349
-7.067864 0.651543 1.320803 -0.577349 0.577349 0.577349
4 0 1 2 3
4 4 5 2 1
4 6 3 2 5
4 4 7 6 5
4 3 6 7 0
4 7 4 1 0
