ply
format ascii 1.0
comment Created by Blender 2.77 (sub 0) - www.blender.org, source file: 'Inn0-Colliders.blend'
element vertex 12
property float x
property float y
property float z
property float nx
property float ny
property float nz
element face 16
property list uchar uint vertex_indices
end_header
2.148655 3.152473 2.989319 -0.717277 -0.630238 0.297098
2.282138 3.152473 3.122802 0.320353 -0.546892 0.773431
2.282138 6.008473 3.122802 0.322459 0.449049 0.833277
2.148655 6.008473 2.989319 -0.808985 0.432447 0.398114
2.148655 7.164473 -0.107199 -0.670553 0.730888 0.126957
2.282138 7.164473 -0.107199 0.670553 0.730918 0.126835
2.282138 7.164473 -0.447199 0.669515 0.731162 -0.130772
2.148655 7.164473 -0.447199 -0.669546 0.731132 -0.130894
2.148655 6.008472 -3.441716 -0.811243 0.426374 -0.400067
2.148655 3.152472 -3.441715 -0.717277 -0.630238 -0.297098
2.282138 6.008472 -3.575199 0.322611 0.445814 -0.834925
2.282138 3.152472 -3.575198 0.320353 -0.546892 -0.773431
4 0 1 2 3
4 4 5 6 7
3 4 7 8
3 8 9 0
3 0 3 4
3 8 0 4
3 8 7 10
3 7 6 10
3 5 2 1
3 1 11 10
3 10 6 5
3 1 10 5
3 5 4 2
3 4 3 2
4 11 1 0 9
4 9 8 10 11
