ply
format ascii 1.0
comment Created by Blender 2.77 (sub 0) - www.blender.org, source file: 'Inn0-Colliders.blend'
element vertex 8
property float x
property float y
property float z
property float nx
property float ny
property float nz
element face 6
property list uchar uint vertex_indices
end_header
9.225268 5.069155 2.770353 0.817225 0.033937 -0.575274
9.225268 5.069155 2.906352 0.817225 0.033937 0.575274
6.311139 2.026223 2.906353 0.061373 -0.809961 0.583239
6.311139 2.026223 2.770354 0.061373 -0.809961 -0.583239
9.024851 5.246346 2.770353 -0.032868 0.814234 -0.579577
6.090138 2.196223 2.770354 -0.818140 -0.061037 -0.571764
6.090138 2.196223 2.906353 -0.818140 -0.061037 0.571764
9.024851 5.246346 2.906352 -0.032868 0.814234 0.579577
4 0 1 2 3
4 4 0 3 5
4 3 2 6 5
4 7 4 5 6
4 7 6 2 1
4 0 4 7 1
