ply
format ascii 1.0
comment Created by Blender 2.77 (sub 0) - www.blender.org, source file: 'Inn0-Colliders.blend'
element vertex 8
property float x
property float y
property float z
property float nx
property float ny
property float nz
element face 12
property list uchar uint vertex_indices
end_header
2.456287 5.967649 4.443668 -0.773431 0.546892 -0.320353
5.924288 3.111649 4.443669 0.297098 -0.630238 -0.717277
2.456287 3.111649 4.443669 -0.773431 -0.546892 -0.320353
2.589770 5.967649 4.577152 -0.297098 0.630238 0.717277
5.924288 5.967649 4.443668 0.297098 0.630238 -0.717277
2.589770 3.111649 4.577152 -0.297098 -0.630238 0.717277
6.057771 3.111649 4.577152 0.773431 -0.546892 0.320353
6.057771 5.967649 4.577152 0.773431 0.546892 0.320353
3 0 1 2
3 3 4 0
3 5 1 6
3 0 5 3
3 3 6 7
3 6 4 7
3 0 4 1
3 3 7 4
3 5 2 1
3 0 2 5
3 3 5 6
3 6 1 4
