ply
format ascii 1.0
comment Created by Blender 2.77 (sub 0) - www.blender.org, source file: 'Inn0-Colliders.blend'
element vertex 8
property float x
property float y
property float z
property float nx
property float ny
property float nz
element face 6
property list uchar uint vertex_indices
end_header
6.753137 0.173224 5.298803 -0.577349 -0.577349 0.577349
7.059137 0.173224 5.298803 0.577349 -0.577349 0.577349
7.059137 2.712653 5.298803 0.314341 0.776177 0.546495
6.753137 2.396846 5.298803 -0.718589 0.291025 0.631550
7.059137 0.173224 4.992803 0.577349 -0.577349 -0.577349
6.753137 0.173224 4.992803 -0.577349 -0.577349 -0.577349
7.059137 2.712653 4.992803 0.314341 0.776177 -0.546495
6.753137 2.396846 4.992803 -0.718619 0.291025 -0.631550
4 0 1 2 3
4 4 1 0 5
4 1 4 6 2
4 3 2 6 7
4 3 7 5 0
4 6 4 5 7
