ply
format ascii 1.0
comment Created by Blender 2.77 (sub 0) - www.blender.org, source file: 'Inn0-Colliders.blend'
element vertex 8
property float x
property float y
property float z
property float nx
property float ny
property float nz
element face 12
property list uchar uint vertex_indices
end_header
-0.401380 2.937400 6.786658 -0.457625 0.691305 -0.559130
0.439950 2.580400 6.990657 0.666158 0.440992 0.601428
0.439950 2.580400 6.786658 0.666158 0.440992 -0.601428
-0.401380 2.818400 6.990657 -0.669149 -0.434828 0.602588
-0.401380 2.937400 6.990657 -0.457625 0.691305 0.559130
-0.401380 2.818400 6.786658 -0.669149 -0.434828 -0.602588
0.439950 2.444400 6.990657 0.451979 -0.695547 0.558458
0.439950 2.444400 6.786658 0.451979 -0.695547 -0.558458
3 0 1 2
3 3 1 4
3 2 5 0
3 2 6 7
3 5 6 3
3 3 0 5
3 0 4 1
3 3 6 1
3 2 7 5
3 2 1 6
3 5 7 6
3 3 4 0
