ply
format ascii 1.0
comment Created by Blender 2.77 (sub 0) - www.blender.org, source file: 'Inn0-Colliders.blend'
element vertex 9
property float x
property float y
property float z
property float nx
property float ny
property float nz
element face 9
property list uchar uint vertex_indices
end_header
-9.761819 6.049994 -7.935218 -0.697226 0.366985 0.615741
-9.761819 6.049994 -8.207219 -0.697226 0.366985 -0.615741
-9.761819 5.433597 -8.207219 -0.388318 -0.737785 -0.552110
-9.761819 5.433597 -7.935218 -0.388318 -0.737785 0.552110
-5.375342 9.062357 -8.207219 0.343944 0.752068 -0.562181
-5.350863 8.983470 -7.935218 0.730583 0.119785 0.672201
-5.326383 8.479583 -7.935218 0.717124 -0.347240 0.604236
-5.326383 8.479583 -8.207219 0.707663 -0.342662 -0.617847
-5.375342 9.062357 -7.935218 0.270943 0.780663 0.563128
4 0 1 2 3
4 4 5 6 7
4 8 4 1 0
3 8 5 4
4 6 3 2 7
3 3 6 5
3 5 8 0
3 5 0 3
4 4 7 2 1
