ply
format ascii 1.0
comment Created by Blender 2.77 (sub 0) - www.blender.org, source file: 'Inn0-Colliders.blend'
element vertex 14
property float x
property float y
property float z
property float nx
property float ny
property float nz
element face 17
property list uchar uint vertex_indices
end_header
8.249138 5.511224 8.992353 -0.595508 -0.459120 -0.659169
8.249138 5.511224 9.128353 -0.595538 -0.459120 0.659169
8.215138 5.579224 9.128353 -0.759117 0.326060 0.563372
8.215138 5.579224 8.992353 -0.759117 0.326060 -0.563372
8.606138 5.630224 8.992353 0.194250 0.743187 -0.640217
9.017046 5.292602 8.972249 0.810327 0.009735 -0.585864
8.798854 5.075535 8.972249 0.043367 -0.802515 -0.595019
8.368137 5.630224 8.992353 -0.127354 0.737877 -0.662770
8.798854 5.075535 9.148458 0.043367 -0.802515 0.595019
8.776138 5.528224 8.992353 0.482864 0.651967 -0.584582
9.017046 5.292602 9.148458 0.810327 0.009735 0.585864
8.368137 5.630224 9.128353 -0.127354 0.737877 0.662770
8.606138 5.630224 9.128353 0.194250 0.743187 0.640217
8.776138 5.528224 9.128353 0.482864 0.651967 0.584582
4 0 1 2 3
3 4 5 6
3 6 0 3
3 3 7 4
3 6 3 4
4 0 6 8 1
3 9 5 4
4 6 5 10 8
4 4 7 11 12
4 9 4 12 13
4 10 5 9 13
3 12 11 2
3 2 1 8
3 8 10 12
3 2 8 12
3 13 12 10
4 11 7 3 2
