ply
format ascii 1.0
comment Created by Blender 2.77 (sub 0) - www.blender.org, source file: 'Inn0-Colliders.blend'
element vertex 4
property float x
property float y
property float z
property float nx
property float ny
property float nz
element face 2
property list uchar uint vertex_indices
end_header
-0.557274 7.538471 -0.362198 0.000000 0.929777 -0.368084
2.876279 6.008471 -4.226841 0.000000 0.929777 -0.368084
-0.557274 6.008471 -4.226841 0.000000 0.929777 -0.368084
2.876279 7.538471 -0.362198 0.000000 0.929777 -0.368084
3 0 1 2
3 0 3 1
