ply
format ascii 1.0
comment Created by Blender 2.77 (sub 0) - www.blender.org, source file: 'Inn0-Colliders.blend'
element vertex 8
property float x
property float y
property float z
property float nx
property float ny
property float nz
element face 12
property list uchar uint vertex_indices
end_header
2.456287 6.103650 6.568669 -0.697684 0.662893 0.271615
2.589771 3.111650 6.702153 0.320353 -0.546892 0.773431
2.589771 6.103650 6.702152 0.320536 0.563189 0.761589
2.589770 5.967649 4.577152 0.736137 0.596088 -0.320536
2.589770 3.111650 4.577153 0.717277 -0.630238 -0.297098
2.456287 5.967649 4.443669 -0.320353 0.530259 -0.784967
2.456287 3.111650 4.443669 -0.320353 -0.546892 -0.773431
2.456287 3.111650 6.568670 -0.717277 -0.630238 0.297098
3 0 1 2
3 3 0 2
3 3 1 4
3 5 4 6
3 7 5 6
3 7 4 1
3 0 7 1
3 3 5 0
3 3 2 1
3 5 3 4
3 7 0 5
3 7 6 4
