ply
format ascii 1.0
comment Created by Blender 2.77 (sub 0) - www.blender.org, source file: 'Inn0-Colliders.blend'
element vertex 10
property float x
property float y
property float z
property float nx
property float ny
property float nz
element face 11
property list uchar uint vertex_indices
end_header
-5.377027 9.237791 5.840513 -0.600421 0.569170 -0.561693
-5.350863 8.558473 5.840513 -0.734214 -0.112278 -0.669546
-5.324698 8.474154 6.095513 -0.541551 -0.602252 0.586505
-5.377027 9.237791 6.095513 -0.587146 0.556597 0.587725
-5.324698 8.474154 5.840513 -0.476791 -0.647145 -0.594836
-5.070691 9.237791 5.840513 0.599536 0.569475 -0.562304
-5.095862 8.558473 5.840513 0.733634 -0.108097 -0.670858
-5.121035 8.474154 5.840513 0.480544 -0.644978 -0.594134
-5.070691 9.237791 6.095513 0.586810 0.557390 0.587329
-5.121035 8.474154 6.095513 0.542924 -0.601337 0.586169
4 0 1 2 3
3 4 1 0
3 0 5 6
3 6 7 4
3 0 6 4
4 8 9 6 5
4 2 9 8 3
4 7 9 2 4
3 1 4 2
4 3 8 5 0
3 7 6 9
