ply
format ascii 1.0
comment Created by Blender 2.77 (sub 0) - www.blender.org, source file: 'Inn0-Colliders.blend'
element vertex 8
property float x
property float y
property float z
property float nx
property float ny
property float nz
element face 6
property list uchar uint vertex_indices
end_header
-8.852864 3.148222 1.439802 0.577349 -0.577349 -0.577349
-8.852864 6.212577 1.439802 0.393262 0.734825 -0.552568
-8.852864 6.212577 1.745802 0.393262 0.734825 0.552568
-8.852864 3.148222 1.745803 0.577349 -0.577349 0.577349
-9.158864 6.008577 1.439802 -0.695395 0.372143 -0.614704
-9.158864 6.008577 1.745802 -0.695395 0.372143 0.614704
-9.158864 3.148222 1.439802 -0.577349 -0.577349 -0.577349
-9.158864 3.148222 1.745803 -0.577349 -0.577349 0.577349
4 0 1 2 3
4 1 4 5 2
4 6 7 5 4
4 1 0 6 4
4 0 3 7 6
4 7 3 2 5
