ply
format ascii 1.0
comment Created by Blender 2.77 (sub 0) - www.blender.org, source file: 'Inn0-Colliders.blend'
element vertex 8
property float x
property float y
property float z
property float nx
property float ny
property float nz
element face 6
property list uchar uint vertex_indices
end_header
1.857136 4.256155 6.734185 0.555467 0.758751 0.340159
1.853123 4.041190 6.734698 0.615589 -0.323740 0.718436
1.853123 2.332891 4.885828 0.572069 -0.819819 0.023652
1.857136 2.441877 4.756243 0.582812 -0.021485 -0.812281
1.585138 4.265074 6.734185 -0.540605 0.773644 0.330363
1.581122 4.050108 6.734698 -0.637959 -0.297922 0.710074
1.581122 2.332891 4.885828 -0.596118 -0.802728 0.015076
1.585138 2.441877 4.756243 -0.558855 -0.014893 -0.829127
4 0 1 2 3
4 4 5 1 0
4 5 6 2 1
4 3 2 6 7
4 5 4 7 6
4 4 0 3 7
