ply
format ascii 1.0
comment Created by Blender 2.77 (sub 0) - www.blender.org, source file: 'Inn0-Colliders.blend'
element vertex 16
property float x
property float y
property float z
property float nx
property float ny
property float nz
element face 14
property list uchar uint vertex_indices
end_header
-11.062862 2.944221 -6.915698 -0.699759 -0.143590 -0.699759
-10.518863 2.944221 -6.915698 0.699759 -0.143590 -0.699759
-10.612362 2.527721 -6.822199 0.511429 -0.690512 -0.511429
-10.969362 2.527721 -6.822199 -0.511429 -0.690512 -0.511429
-10.518862 2.986721 -6.414197 0.682485 0.261483 0.682485
-11.062861 2.986721 -6.414197 -0.682485 0.261483 0.682485
-11.062861 2.944221 -6.414197 -0.699759 -0.143590 0.699759
-10.518862 2.944221 -6.414197 0.699759 -0.143590 0.699759
-10.969362 2.527721 -6.507698 -0.511429 -0.690512 0.511429
-10.612362 2.527721 -6.507698 0.511429 -0.690512 0.511429
-11.062862 2.986721 -6.915698 -0.682485 0.261483 -0.682485
-10.705863 3.377721 -6.601199 0.431379 0.792322 0.431379
-10.875861 3.377721 -6.601199 -0.431379 0.792322 0.431379
-10.518863 2.986721 -6.915698 0.682485 0.261483 -0.682485
-10.705863 3.377721 -6.728699 0.431379 0.792322 -0.431379
-10.875863 3.377721 -6.728699 -0.431379 0.792322 -0.431379
4 0 1 2 3
4 4 5 6 7
4 6 0 3 8
4 7 6 8 9
4 1 7 9 2
4 0 6 5 10
4 5 4 11 12
4 1 0 10 13
4 2 9 8 3
4 14 15 12 11
4 10 5 12 15
4 14 13 10 15
4 1 13 4 7
4 11 4 13 14
