ply
format ascii 1.0
comment Created by Blender 2.77 (sub 0) - www.blender.org, source file: 'Inn0-Colliders.blend'
element vertex 8
property float x
property float y
property float z
property float nx
property float ny
property float nz
element face 6
property list uchar uint vertex_indices
end_header
-8.903863 6.165299 1.643801 -0.577349 0.577349 0.577349
-8.903863 6.165299 1.507801 -0.577349 0.577349 -0.577349
-8.903863 3.139299 1.507801 -0.577349 -0.577349 -0.577349
-8.903863 3.139299 1.643802 -0.577349 -0.577349 0.577349
-3.769863 6.165299 1.643801 0.577349 0.577349 0.577349
-3.769863 3.139299 1.643802 0.577349 -0.577349 0.577349
-3.769863 6.165299 1.507801 0.577349 0.577349 -0.577349
-3.769863 3.139299 1.507801 0.577349 -0.577349 -0.577349
4 0 1 2 3
4 4 0 3 5
4 6 1 0 4
4 7 6 4 5
4 6 7 2 1
4 7 5 3 2
