ply
format ascii 1.0
comment Created by Blender 2.77 (sub 0) - www.blender.org, source file: 'Inn0-Colliders.blend'
element vertex 10
property float x
property float y
property float z
property float nx
property float ny
property float nz
element face 16
property list uchar uint vertex_indices
end_header
-2.529977 2.236291 -5.486847 0.604450 0.444136 0.661306
-2.389144 1.916394 -5.792849 0.694662 -0.453169 -0.558611
-2.529977 2.236291 -5.792849 0.604450 0.444136 -0.661306
-2.964763 2.216177 -5.486847 -0.800317 -0.076815 0.594592
-2.695144 1.916394 -5.486847 -0.317392 -0.712333 0.625935
-2.695144 1.916394 -5.792849 -0.317392 -0.712333 -0.625935
-2.807162 2.478470 -5.486847 -0.127659 0.812616 0.568590
-2.807162 2.478470 -5.792849 -0.127659 0.812616 -0.568590
-2.964763 2.216177 -5.792849 -0.800317 -0.076815 -0.594592
-2.389144 1.916394 -5.486847 0.694662 -0.453169 0.558611
3 0 1 2
3 0 3 4
3 2 1 5
3 6 2 7
3 8 4 3
3 7 3 6
3 5 9 4
3 0 9 1
3 4 9 0
3 0 6 3
3 5 8 2
3 7 2 8
3 6 0 2
3 8 5 4
3 7 8 3
3 5 1 9
