ply
format ascii 1.0
comment Created by Blender 2.77 (sub 0) - www.blender.org, source file: 'Inn0-Colliders.blend'
element vertex 8
property float x
property float y
property float z
property float nx
property float ny
property float nz
element face 6
property list uchar uint vertex_indices
end_header
10.748140 3.029224 8.595188 0.783410 -0.297830 0.545457
7.365139 3.029224 8.595188 -0.773431 -0.320353 0.546892
7.365138 3.029223 3.316688 -0.773431 -0.320353 -0.546892
10.748140 3.029223 3.316688 0.783410 -0.297830 -0.545457
10.595139 3.165224 8.595188 0.274453 0.721915 0.635182
7.501140 3.165224 8.595188 -0.297098 0.717277 0.630238
10.595139 3.165223 3.316688 0.274453 0.721915 -0.635182
7.501139 3.165223 3.316688 -0.297098 0.717277 -0.630238
4 0 1 2 3
4 0 4 5 1
4 5 4 6 7
4 3 2 7 6
4 5 7 2 1
4 6 4 0 3
