ply
format ascii 1.0
comment Created by Blender 2.77 (sub 0) - www.blender.org, source file: 'Inn0-Colliders.blend'
element vertex 8
property float x
property float y
property float z
property float nx
property float ny
property float nz
element face 12
property list uchar uint vertex_indices
end_header
-0.897890 0.833650 8.036243 -0.456557 0.577349 0.676901
-0.063507 -0.033350 7.874057 0.676901 -0.577349 0.456557
-0.063507 0.833650 7.874057 0.676901 0.577349 0.456557
-0.228938 0.833650 7.022985 0.456557 0.577349 -0.676901
-1.063322 0.833650 7.185174 -0.676901 0.577349 -0.456557
-0.897890 -0.033350 8.036243 -0.456557 -0.577349 0.676901
-0.228938 -0.033350 7.022985 0.456557 -0.577349 -0.676901
-1.063322 -0.033350 7.185174 -0.676901 -0.577349 -0.456557
3 0 1 2
3 0 3 4
3 4 5 0
3 5 6 1
3 3 7 4
3 3 1 6
3 0 5 1
3 0 2 3
3 4 7 5
3 5 7 6
3 3 6 7
3 3 2 1
