ply
format ascii 1.0
comment Created by Blender 2.77 (sub 0) - www.blender.org, source file: 'Inn0-Colliders.blend'
element vertex 8
property float x
property float y
property float z
property float nx
property float ny
property float nz
element face 12
property list uchar uint vertex_indices
end_header
0.158770 0.748107 10.068152 -0.577349 0.577349 0.577349
1.110770 -0.016892 10.068153 0.577349 -0.577349 0.577349
1.110770 0.748107 10.068152 0.577349 0.577349 0.577349
0.158770 -0.016892 9.847153 -0.577349 -0.577349 -0.577349
0.158770 -0.016892 10.068153 -0.577349 -0.577349 0.577349
0.158770 0.748107 9.847152 -0.577349 0.577349 -0.577349
1.110770 0.748107 9.847152 0.577349 0.577349 -0.577349
1.110770 -0.016892 9.847153 0.577349 -0.577349 -0.577349
3 0 1 2
3 3 1 4
3 5 4 0
3 5 2 6
3 6 1 7
3 7 5 6
3 0 4 1
3 3 7 1
3 5 3 4
3 5 0 2
3 6 2 1
3 7 3 5
