ply
format ascii 1.0
comment Created by Blender 2.77 (sub 0) - www.blender.org, source file: 'Inn0-Colliders.blend'
element vertex 8
property float x
property float y
property float z
property float nx
property float ny
property float nz
element face 6
property list uchar uint vertex_indices
end_header
-6.438864 3.148222 -7.417199 -0.577349 -0.577349 -0.577349
-6.438864 3.148222 -7.111198 -0.577349 -0.577349 0.577349
-6.438864 8.116576 -7.111199 -0.577349 0.577349 0.577349
-6.438864 8.116576 -7.417200 -0.577349 0.577349 -0.577349
-6.132864 3.148222 -7.417199 0.577349 -0.577349 -0.577349
-6.132864 3.148222 -7.111198 0.577349 -0.577349 0.577349
-6.132864 8.116576 -7.417200 0.577349 0.577349 -0.577349
-6.132864 8.116576 -7.111199 0.577349 0.577349 0.577349
4 0 1 2 3
4 4 5 1 0
4 6 4 0 3
4 4 6 7 5
4 6 3 2 7
4 7 2 1 5
