ply
format ascii 1.0
comment Created by Blender 2.77 (sub 0) - www.blender.org, source file: 'Inn0-Colliders.blend'
element vertex 8
property float x
property float y
property float z
property float nx
property float ny
property float nz
element face 6
property list uchar uint vertex_indices
end_header
4.611138 4.406781 6.896803 -0.555528 0.756859 -0.344249
4.883137 4.415699 6.896803 0.540513 0.772607 -0.333018
4.887152 4.200734 6.897315 0.637867 -0.303415 -0.707816
4.615151 4.191816 6.897315 -0.614551 -0.330363 -0.716330
4.883137 2.416418 9.083844 0.552629 -0.062441 0.831050
4.611138 2.416418 9.083844 -0.577990 -0.066683 0.813288
4.887152 2.332719 8.956877 0.604572 -0.794519 -0.056368
4.615151 2.332719 8.956877 -0.578875 -0.812677 -0.066347
4 0 1 2 3
4 4 1 0 5
4 1 4 6 2
4 0 3 7 5
4 3 2 6 7
4 4 5 7 6
