ply
format ascii 1.0
comment Created by Blender 2.77 (sub 0) - www.blender.org, source file: 'Inn0-Colliders.blend'
element vertex 8
property float x
property float y
property float z
property float nx
property float ny
property float nz
element face 12
property list uchar uint vertex_indices
end_header
-5.026231 0.128648 1.534152 -0.577349 -0.577349 -0.577349
-2.374231 0.128648 2.486152 0.577349 -0.577349 0.577349
-5.026231 0.128648 2.486152 -0.577349 -0.577349 0.577349
-5.026231 0.893648 1.534152 -0.577349 0.577349 -0.577349
-2.374231 0.893648 2.486152 0.577349 0.577349 0.577349
-2.374231 0.893648 1.534152 0.577349 0.577349 -0.577349
-5.026231 0.893648 2.486152 -0.577349 0.577349 0.577349
-2.374231 0.128648 1.534152 0.577349 -0.577349 -0.577349
3 0 1 2
3 2 3 0
3 3 4 5
3 6 1 4
3 5 0 3
3 5 1 7
3 0 7 1
3 2 6 3
3 3 6 4
3 6 2 1
3 5 7 0
3 5 4 1
