ply
format ascii 1.0
comment Created by Blender 2.77 (sub 0) - www.blender.org, source file: 'Inn0-Colliders.blend'
element vertex 10
property float x
property float y
property float z
property float nx
property float ny
property float nz
element face 11
property list uchar uint vertex_indices
end_header
1.849156 2.119724 8.545801 -0.543626 0.813562 0.206214
1.849156 1.388724 8.106705 -0.652211 0.204901 -0.729789
1.849156 1.014724 8.104238 -0.576983 -0.575610 -0.579424
1.849156 1.014724 8.545801 -0.702506 -0.618915 0.351238
1.917156 1.014724 8.596802 -0.234138 -0.632801 0.738029
2.223155 1.014724 8.104238 0.576983 -0.575610 -0.579424
2.223155 1.014724 8.545801 0.702506 -0.618915 0.351238
2.155157 1.014724 8.596802 0.234138 -0.632801 0.738029
2.223155 1.388724 8.106705 0.652211 0.204901 -0.729789
2.223155 2.119724 8.545801 0.543626 0.813562 0.206214
4 0 1 2 3
3 4 3 2
3 2 5 6
3 6 7 4
3 2 6 4
4 5 2 1 8
4 9 0 4 7
3 4 0 3
3 9 7 6
4 0 9 8 1
4 8 9 6 5
