ply
format ascii 1.0
comment Created by Blender 2.77 (sub 0) - www.blender.org, source file: 'Inn0-Colliders.blend'
element vertex 8
property float x
property float y
property float z
property float nx
property float ny
property float nz
element face 6
property list uchar uint vertex_indices
end_header
1.296137 0.108382 2.323802 -0.577349 -0.577349 -0.577349
1.296137 0.108382 3.156803 -0.577349 -0.577349 0.577349
1.296137 0.975382 3.156803 -0.577349 0.577349 0.577349
1.296137 0.975381 2.323802 -0.577349 0.577349 -0.577349
2.129137 0.108382 2.323802 0.577349 -0.577349 -0.577349
2.129137 0.108382 3.156803 0.577349 -0.577349 0.577349
2.129137 0.975381 2.323802 0.577349 0.577349 -0.577349
2.129137 0.975382 3.156803 0.577349 0.577349 0.577349
4 0 1 2 3
4 4 5 1 0
4 6 4 0 3
4 4 6 7 5
4 6 3 2 7
4 7 2 1 5
