ply
format ascii 1.0
comment Created by Blender 2.77 (sub 0) - www.blender.org, source file: 'Inn0-Colliders.blend'
element vertex 10
property float x
property float y
property float z
property float nx
property float ny
property float nz
element face 11
property list uchar uint vertex_indices
end_header
-6.305609 2.277114 -7.247200 0.604450 0.444136 -0.661306
-6.305609 2.277114 -6.941197 0.604450 0.444136 0.661306
-6.164776 1.957217 -6.941197 0.694662 -0.453169 0.558611
-6.164776 1.957217 -7.247200 0.694662 -0.453169 -0.558611
-6.470776 1.957217 -6.941197 -0.317392 -0.712333 0.625935
-6.582794 2.519293 -6.941198 -0.127659 0.812616 0.568590
-6.740395 2.257000 -6.941197 -0.800317 -0.076815 0.594592
-6.470776 1.957217 -7.247200 -0.317392 -0.712333 -0.625935
-6.740395 2.257000 -7.247200 -0.800317 -0.076815 -0.594592
-6.582794 2.519293 -7.247200 -0.127659 0.812616 -0.568590
4 0 1 2 3
3 4 2 1
3 1 5 6
3 1 6 4
3 7 8 9
3 9 0 3
3 9 3 7
4 9 5 1 0
4 6 8 7 4
4 5 9 8 6
4 4 7 3 2
