ply
format ascii 1.0
comment Created by Blender 2.77 (sub 0) - www.blender.org, source file: 'Inn0-Colliders.blend'
element vertex 12
property float x
property float y
property float z
property float nx
property float ny
property float nz
element face 14
property list uchar uint vertex_indices
end_header
-7.544967 2.244225 3.530803 -0.397656 -0.687490 0.607593
-6.740395 2.257002 3.530803 0.394696 -0.684927 0.612415
-6.582794 2.519295 3.530803 0.770043 0.295053 0.565630
-7.015162 2.652070 3.530803 0.109470 0.729484 0.675161
-7.304162 2.652070 3.530803 -0.127659 0.730949 0.670339
-7.693319 2.511858 3.530803 -0.769524 0.289132 0.569384
-7.015162 2.652070 3.224802 0.109470 0.729484 -0.675161
-7.304162 2.652070 3.224802 -0.127659 0.730949 -0.670339
-6.740395 2.257002 3.224802 0.394696 -0.684927 -0.612415
-6.582794 2.519295 3.224802 0.770043 0.295053 -0.565630
-7.544967 2.244225 3.224802 -0.397656 -0.687490 -0.607593
-7.693319 2.511858 3.224802 -0.769524 0.289132 -0.569384
3 0 1 2
3 2 3 4
3 4 5 0
3 2 4 0
4 6 7 4 3
4 8 9 2 1
4 6 3 2 9
4 0 10 8 1
4 5 11 10 0
4 11 5 4 7
3 8 10 11
3 11 7 6
3 6 9 8
3 11 6 8
