ply
format ascii 1.0
comment Created by Blender 2.77 (sub 0) - www.blender.org, source file: 'Inn0-Colliders.blend'
element vertex 12
property float x
property float y
property float z
property float nx
property float ny
property float nz
element face 10
property list uchar uint vertex_indices
end_header
7.050636 1.130404 4.083302 -0.577349 -0.577349 -0.577349
7.050636 1.130404 4.414802 -0.577349 -0.577349 0.577349
7.050636 1.232404 4.414802 -0.684591 0.300455 0.664113
7.050636 1.232404 4.083302 -0.652577 0.359966 -0.666738
7.433136 1.130404 4.083302 0.577349 -0.577349 -0.577349
7.433136 1.232404 4.083302 0.652577 0.359966 -0.666738
7.433136 1.232404 4.414802 0.684591 0.300455 0.664113
7.433136 1.130404 4.414802 0.577349 -0.577349 0.577349
7.331137 1.376904 4.346802 0.361217 0.821223 0.441633
7.152636 1.376904 4.346802 -0.361217 0.821223 0.441633
7.152636 1.376904 4.219302 -0.374004 0.875362 -0.306314
7.331137 1.376904 4.219302 0.374004 0.875362 -0.306314
4 0 1 2 3
4 4 5 6 7
4 2 6 8 9
4 1 7 6 2
4 3 2 9 10
4 4 7 1 0
4 5 4 0 3
4 9 8 11 10
4 8 6 5 11
4 11 5 3 10
