ply
format ascii 1.0
comment Created by Blender 2.77 (sub 0) - www.blender.org, source file: 'Inn0-Colliders.blend'
element vertex 8
property float x
property float y
property float z
property float nx
property float ny
property float nz
element face 12
property list uchar uint vertex_indices
end_header
4.255771 3.111648 -2.120848 -0.577349 0.577349 -0.577349
5.924288 3.111648 -1.987365 0.297098 0.630238 0.717277
6.057771 3.111648 -2.120848 0.773431 0.546892 -0.320353
4.255771 5.967649 -1.987366 -0.577349 -0.577349 0.577349
4.255771 3.111648 -1.987365 -0.577349 0.577349 0.577349
4.255771 5.967649 -2.120849 -0.577349 -0.577349 -0.577349
6.057771 5.967649 -2.120849 0.773431 -0.546892 -0.320353
5.924288 5.967649 -1.987366 0.297098 -0.630238 0.717277
3 0 1 2
3 1 3 4
3 0 3 5
3 2 5 6
3 7 2 6
3 5 7 3
3 0 4 1
3 1 7 3
3 0 4 3
3 2 0 5
3 7 1 2
3 5 6 7
