ply
format ascii 1.0
comment Created by Blender 2.77 (sub 0) - www.blender.org, source file: 'Inn0-Colliders.blend'
element vertex 8
property float x
property float y
property float z
property float nx
property float ny
property float nz
element face 6
property list uchar uint vertex_indices
end_header
-1.319346 6.144472 -7.113717 -0.705985 0.649373 -0.282571
-1.319346 6.008472 -3.441715 -0.320322 0.537309 0.780145
-1.185863 6.008472 -3.575199 0.728294 0.610614 0.310923
-1.185863 6.144472 -7.247198 0.320444 0.556383 -0.766625
-1.185863 3.152472 -7.247198 0.320353 -0.546892 -0.773431
-1.319346 3.152472 -7.113716 -0.717277 -0.630238 -0.297098
-1.185863 3.152472 -3.575198 0.717277 -0.630238 0.297098
-1.319346 3.152472 -3.441715 -0.320353 -0.546892 0.773431
4 0 1 2 3
4 4 5 0 3
4 4 3 2 6
4 5 4 6 7
4 1 7 6 2
4 5 7 1 0
