ply
format ascii 1.0
comment Created by Blender 2.77 (sub 0) - www.blender.org, source file: 'Inn0-Colliders.blend'
element vertex 8
property float x
property float y
property float z
property float nx
property float ny
property float nz
element face 6
property list uchar uint vertex_indices
end_header
9.409185 4.718145 3.088803 0.816279 -0.017579 -0.577349
9.409185 4.718145 3.326802 0.816279 -0.017579 0.577349
9.310971 4.624072 3.326802 -0.017548 -0.816279 0.577349
9.310971 4.624072 3.088803 -0.017548 -0.816279 -0.577349
9.257050 4.876979 3.326802 0.017579 0.816279 0.577349
9.257050 4.876979 3.088803 0.017579 0.816279 -0.577349
9.158834 4.782906 3.326802 -0.816279 0.017579 0.577349
9.158834 4.782906 3.088803 -0.816279 0.017579 -0.577349
4 0 1 2 3
4 4 1 0 5
4 6 7 3 2
4 4 6 2 1
4 7 6 4 5
4 5 0 3 7
