ply
format ascii 1.0
comment Created by Blender 2.77 (sub 0) - www.blender.org, source file: 'Inn0-Colliders.blend'
element vertex 8
property float x
property float y
property float z
property float nx
property float ny
property float nz
element face 12
property list uchar uint vertex_indices
end_header
-4.686232 0.610719 1.262151 -0.577349 0.577349 -0.577349
-4.686231 0.134719 2.792152 -0.577349 -0.577349 0.577349
-4.686231 0.610719 2.792152 -0.577349 0.577349 0.577349
-4.108230 0.134719 2.792152 0.577349 -0.577349 0.577349
-4.108230 0.610719 2.792152 0.577349 0.577349 0.577349
-4.108232 0.134719 1.262151 0.577349 -0.577349 -0.577349
-4.108232 0.610719 1.262151 0.577349 0.577349 -0.577349
-4.686232 0.134719 1.262151 -0.577349 -0.577349 -0.577349
3 0 1 2
3 2 3 4
3 1 5 3
3 6 7 0
3 6 2 4
3 6 3 5
3 0 7 1
3 2 1 3
3 1 7 5
3 6 5 7
3 6 0 2
3 6 4 3
