ply
format ascii 1.0
comment Created by Blender 2.77 (sub 0) - www.blender.org, source file: 'Inn0-Colliders.blend'
element vertex 8
property float x
property float y
property float z
property float nx
property float ny
property float nz
element face 12
property list uchar uint vertex_indices
end_header
2.499312 0.085648 -5.532392 -0.717277 -0.630238 -0.297098
2.589770 2.941648 -5.622850 0.320353 0.546892 -0.773431
2.589770 0.085648 -5.622849 0.320353 -0.546892 -0.773431
2.589770 0.085649 -1.967849 0.717277 -0.630238 0.297098
2.589770 2.941649 -1.967850 0.717277 0.630238 0.297098
2.499312 2.941648 -5.532392 -0.717277 0.630238 -0.297098
2.499312 2.941649 -1.877392 -0.320353 0.546892 0.773431
2.499312 0.085649 -1.877392 -0.320353 -0.546892 0.773431
3 0 1 2
3 3 0 2
3 3 1 4
3 4 5 6
3 7 4 6
3 5 7 6
3 0 5 1
3 3 7 0
3 3 2 1
3 4 1 5
3 7 3 4
3 5 0 7
