ply
format ascii 1.0
comment Created by Blender 2.77 (sub 0) - www.blender.org, source file: 'Inn0-Colliders.blend'
element vertex 6
property float x
property float y
property float z
property float nx
property float ny
property float nz
element face 5
property list uchar uint vertex_indices
end_header
-6.379363 2.094223 3.326444 0.394421 -0.734123 -0.552660
-6.379363 2.094223 3.402944 0.394421 -0.734123 0.552660
-6.982862 2.493723 3.402944 -0.824458 -0.048219 0.563829
-6.982862 2.493723 3.326444 -0.824458 -0.048219 -0.563829
-6.379363 3.003724 3.402944 0.351848 0.758019 0.549150
-6.379363 3.003724 3.326444 0.351848 0.758019 -0.549150
4 0 1 2 3
3 4 2 1
3 3 5 0
4 4 1 0 5
4 5 3 2 4
