ply
format ascii 1.0
comment Created by Blender 2.77 (sub 0) - www.blender.org, source file: 'Inn0-Colliders.blend'
element vertex 8
property float x
property float y
property float z
property float nx
property float ny
property float nz
element face 6
property list uchar uint vertex_indices
end_header
-9.855864 5.018223 -1.575395 -0.163610 -0.799585 -0.577807
-8.971863 5.596223 -1.575395 0.694174 -0.375500 -0.614063
-8.971863 5.596223 -1.201394 0.694174 -0.375500 0.614063
-9.855864 5.018223 -1.201394 -0.163610 -0.799585 0.577807
-10.059863 5.324223 -1.575395 -0.801233 0.154302 -0.578082
-8.971863 6.072223 -1.575395 0.388134 0.737877 -0.552110
-10.059863 5.324223 -1.201394 -0.801233 0.154302 0.578082
-8.971863 6.072223 -1.201394 0.388134 0.737877 0.552110
4 0 1 2 3
4 4 5 1 0
4 6 3 2 7
4 6 4 0 3
4 7 5 4 6
4 1 5 7 2
