ply
format ascii 1.0
comment Created by Blender 2.77 (sub 0) - www.blender.org, source file: 'Inn0-Colliders.blend'
element vertex 8
property float x
property float y
property float z
property float nx
property float ny
property float nz
element face 6
property list uchar uint vertex_indices
end_header
11.309137 2.444485 3.054805 0.718040 0.293619 -0.631001
11.309137 0.020223 3.054805 0.577349 -0.577349 -0.577349
11.003138 0.020223 3.054805 -0.577349 -0.577349 -0.577349
11.003138 2.756083 3.054805 -0.316904 0.775018 -0.546678
11.003138 0.020223 3.360804 -0.577349 -0.577349 0.577349
11.003138 2.756083 3.360804 -0.316904 0.775018 0.546678
11.309137 0.020223 3.360804 0.577349 -0.577349 0.577349
11.309137 2.444485 3.360804 0.718040 0.293619 0.631001
4 0 1 2 3
4 2 4 5 3
4 6 7 5 4
4 6 1 0 7
4 1 6 4 2
4 5 7 0 3
