ply
format ascii 1.0
comment Created by Blender 2.77 (sub 0) - www.blender.org, source file: 'Inn0-Colliders.blend'
element vertex 8
property float x
property float y
property float z
property float nx
property float ny
property float nz
element face 12
property list uchar uint vertex_indices
end_header
-0.249230 0.141545 2.537152 -0.577349 -0.577349 0.577349
-0.249231 0.940545 1.534152 -0.577349 0.577349 -0.577349
-0.249231 0.141545 1.534152 -0.577349 -0.577349 -0.577349
0.770769 0.141545 1.534152 0.577349 -0.577349 -0.577349
0.770769 0.940545 1.534152 0.577349 0.577349 -0.577349
0.770770 0.141545 2.537152 0.577349 -0.577349 0.577349
0.770770 0.940545 2.537152 0.577349 0.577349 0.577349
-0.249230 0.940545 2.537152 -0.577349 0.577349 0.577349
3 0 1 2
3 3 0 2
3 3 1 4
3 5 4 6
3 7 4 1
3 7 5 6
3 0 7 1
3 3 5 0
3 3 2 1
3 5 3 4
3 7 6 4
3 7 0 5
