ply
format ascii 1.0
comment Created by Blender 2.77 (sub 0) - www.blender.org, source file: 'Inn0-Colliders.blend'
element vertex 16
property float x
property float y
property float z
property float nx
property float ny
property float nz
element face 36
property list uchar uint vertex_indices
end_header
-0.232230 2.452898 -6.923351 -0.525040 0.541704 -0.656362
-0.232230 2.410398 -6.421850 -0.697104 -0.167394 0.697104
-0.232230 2.452898 -6.421850 -0.635884 0.437361 0.635884
0.311769 2.410398 -6.421850 0.833674 -0.128941 0.536973
0.311769 2.452898 -6.421850 0.821680 0.322947 0.469558
0.124769 2.588898 -6.608850 0.239051 0.941099 0.239051
-0.045231 2.588898 -6.736351 -0.173498 0.921628 -0.347026
-0.045231 2.588898 -6.608850 -0.239051 0.941099 0.239051
0.311769 2.452898 -6.923351 0.733604 0.432539 -0.524094
-0.232230 2.410398 -6.923351 -0.556841 -0.200537 -0.806024
0.218269 2.061898 -6.515350 0.368084 -0.853816 0.368084
0.218269 2.061898 -6.829850 0.292367 -0.756645 -0.584765
0.311769 2.410398 -6.923351 0.721091 -0.167272 -0.672323
0.124769 2.588898 -6.736351 0.173498 0.921628 -0.347026
-0.138730 2.061898 -6.829850 -0.292367 -0.756645 -0.584765
-0.138730 2.061898 -6.515350 -0.368084 -0.853816 0.368084
3 0 1 2
3 2 3 4
3 5 6 7
3 8 9 0
3 1 10 3
3 7 4 5
3 3 11 12
3 7 0 2
3 6 8 0
3 5 8 13
3 13 0 6
3 4 12 8
3 8 3 12
3 1 14 15
3 12 14 9
3 14 10 15
3 9 11 14
3 15 11 10
3 0 9 1
3 2 1 3
3 5 13 6
3 8 12 9
3 1 15 10
3 7 2 4
3 3 10 11
3 7 6 0
3 6 13 8
3 5 4 8
3 13 8 0
3 4 3 12
3 8 4 3
3 1 9 14
3 12 11 14
3 14 11 10
3 9 12 11
3 15 14 11
