ply
format ascii 1.0
comment Created by Blender 2.77 (sub 0) - www.blender.org, source file: 'Inn0-Colliders.blend'
element vertex 10
property float x
property float y
property float z
property float nx
property float ny
property float nz
element face 11
property list uchar uint vertex_indices
end_header
5.232155 2.119724 8.545803 -0.543626 0.813562 0.206214
5.232155 1.388724 8.106705 -0.652211 0.204901 -0.729789
5.232155 1.014724 8.104239 -0.576983 -0.575610 -0.579394
5.232155 1.014724 8.545803 -0.702506 -0.618915 0.351238
5.300157 1.014724 8.596803 -0.234107 -0.632801 0.738029
5.606156 1.014724 8.104239 0.576983 -0.575610 -0.579394
5.606156 1.014724 8.545803 0.702506 -0.618915 0.351238
5.538156 1.014724 8.596803 0.234107 -0.632801 0.738029
5.606156 2.119724 8.545803 0.543626 0.813562 0.206214
5.606156 1.388724 8.106705 0.652211 0.204901 -0.729789
4 0 1 2 3
3 4 3 2
3 2 5 6
3 6 7 4
3 2 6 4
4 0 8 9 1
4 9 8 6 5
4 5 2 1 9
3 4 0 3
3 8 7 6
4 8 0 4 7
