ply
format ascii 1.0
comment Created by Blender 2.77 (sub 0) - www.blender.org, source file: 'Inn0-Colliders.blend'
element vertex 8
property float x
property float y
property float z
property float nx
property float ny
property float nz
element face 6
property list uchar uint vertex_indices
end_header
-2.664862 0.023931 7.899803 0.577349 -0.577349 0.577349
-3.616862 0.023931 7.899803 -0.577349 -0.577349 0.577349
-3.616862 0.023931 7.678804 -0.577349 -0.577349 -0.577349
-2.664862 0.023931 7.678804 0.577349 -0.577349 -0.577349
-2.664862 0.788931 7.678803 0.577349 0.577349 -0.577349
-3.616862 0.788931 7.678803 -0.577349 0.577349 -0.577349
-3.616862 0.788931 7.899803 -0.577349 0.577349 0.577349
-2.664862 0.788931 7.899803 0.577349 0.577349 0.577349
4 0 1 2 3
4 4 5 6 7
4 1 6 5 2
4 3 4 7 0
4 4 3 2 5
4 7 6 1 0
