ply
format ascii 1.0
comment Created by Blender 2.77 (sub 0) - www.blender.org, source file: 'Inn0-Colliders.blend'
element vertex 10
property float x
property float y
property float z
property float nx
property float ny
property float nz
element face 11
property list uchar uint vertex_indices
end_header
7.316461 2.978223 3.122804 -0.303140 0.715873 -0.628956
6.821138 2.467024 3.122804 -0.908170 0.192755 -0.371563
6.906138 2.554748 3.207804 -0.577563 0.409833 0.705985
7.316462 2.978223 3.207803 -0.303140 0.715873 0.628956
8.368136 2.978223 3.207803 0.577349 0.577349 0.577349
8.368136 2.978223 3.122804 0.577349 0.577349 -0.577349
6.906138 1.142223 3.207804 -0.297098 -0.630238 0.717277
8.368136 1.142223 3.207804 0.577349 -0.577349 0.577349
6.821138 1.142223 3.122804 -0.773431 -0.546892 -0.320353
8.368136 1.142223 3.122804 0.577349 -0.577349 -0.577349
4 0 1 2 3
4 3 4 5 0
3 2 6 7
3 7 4 3
3 7 3 2
4 8 9 7 6
4 4 7 9 5
3 0 5 9
3 9 8 1
3 9 1 0
4 8 6 2 1
