ply
format ascii 1.0
comment Created by Blender 2.77 (sub 0) - www.blender.org, source file: 'Inn0-Colliders.blend'
element vertex 8
property float x
property float y
property float z
property float nx
property float ny
property float nz
element face 6
property list uchar uint vertex_indices
end_header
-0.063862 2.549098 4.875092 -0.571642 -0.003815 -0.820460
-0.063862 2.447099 4.990352 -0.584033 -0.811701 0.000000
-0.063862 4.134224 6.896803 -0.625294 -0.320444 0.711539
-0.063862 4.372224 6.896803 -0.548265 0.764122 0.339854
0.174137 4.134224 6.896803 0.625294 -0.320444 0.711539
0.174137 4.372224 6.896803 0.548265 0.764122 0.339854
0.174137 2.447099 4.990352 0.584033 -0.811701 0.000000
0.174137 2.549098 4.875092 0.571642 -0.003815 -0.820460
4 0 1 2 3
4 4 5 3 2
4 4 2 1 6
4 0 7 6 1
4 7 5 4 6
4 5 7 0 3
