ply
format ascii 1.0
comment Created by Blender 2.77 (sub 0) - www.blender.org, source file: 'IntenseHealthPotion.blend'
element vertex 658
property float x
property float y
property float z
property float nx
property float ny
property float nz
property uchar red
property uchar green
property uchar blue
element face 304
property list uchar uint vertex_indices
end_header
0.325359 -0.562304 -0.000000 0.000000 -1.000000 0.000000 230 79 63
0.000000 -0.562304 0.000000 0.000000 -1.000000 0.000000 230 79 63
0.230063 -0.562304 -0.230063 0.000000 -1.000000 0.000000 230 79 63
-0.325359 -0.562304 0.000000 -0.000000 -1.000000 -0.000000 230 79 63
-0.230063 -0.562304 0.230063 -0.000000 -1.000000 -0.000000 230 79 63
0.000000 -0.562304 -0.325359 0.000000 -1.000000 0.000000 230 79 63
-0.000000 0.848970 0.149457 -0.374041 0.211319 0.903016 200 228 228
-0.104353 0.857005 0.104353 -0.374041 0.211319 0.903016 200 228 228
-0.105682 0.848970 0.105682 -0.374041 0.211319 0.903016 200 228 228
-0.230063 -0.562304 -0.230063 0.000000 -1.000000 0.000000 230 79 63
0.110413 0.869468 -0.000000 0.000000 1.000000 0.000000 200 228 228
0.092531 0.869468 0.092531 0.000000 1.000000 0.000000 200 228 228
0.130859 0.869468 -0.000000 0.000000 1.000000 0.000000 200 228 228
0.230063 -0.562304 0.230063 -0.000000 -1.000000 -0.000000 230 79 63
-0.000000 -0.074321 0.402286 -0.359311 0.344124 0.867453 230 79 63
-0.147573 0.413661 0.147573 -0.359311 0.344124 0.867453 230 79 63
-0.284459 -0.074321 0.284459 -0.359311 0.344124 0.867453 230 79 63
0.284459 -0.074321 0.284459 0.359311 0.344124 0.867453 230 79 63
-0.000000 0.413661 0.208700 0.359311 0.344124 0.867453 230 79 63
-0.000000 -0.074321 0.402286 0.359311 0.344124 0.867453 230 79 63
0.000000 0.413661 -0.208700 0.359311 0.344124 -0.867453 230 79 63
0.284459 -0.074321 -0.284459 0.359311 0.344124 -0.867453 230 79 63
0.000000 -0.074321 -0.402286 0.359311 0.344124 -0.867453 230 79 63
-0.147573 0.413661 0.147573 -0.867453 0.344124 0.359311 230 79 63
-0.402286 -0.074321 0.000000 -0.867453 0.344124 0.359311 230 79 63
-0.284459 -0.074321 0.284459 -0.867453 0.344124 0.359311 230 79 63
0.147573 0.413661 -0.147573 0.867453 0.344124 -0.359311 230 79 63
0.402286 -0.074321 -0.000000 0.867453 0.344124 -0.359311 230 79 63
0.284459 -0.074321 -0.284459 0.867453 0.344124 -0.359311 230 79 63
-0.402286 -0.074321 0.000000 -0.867453 0.344124 -0.359311 230 79 63
-0.147573 0.413661 -0.147573 -0.867453 0.344124 -0.359311 230 79 63
-0.284459 -0.074321 -0.284459 -0.867453 0.344124 -0.359311 230 79 63
0.402286 -0.074321 -0.000000 0.867453 0.344124 0.359311 230 79 63
0.147573 0.413661 0.147573 0.867453 0.344124 0.359311 230 79 63
0.284459 -0.074321 0.284459 0.867453 0.344124 0.359311 230 79 63
-0.147573 0.413661 -0.147573 -0.359310 0.344125 -0.867453 230 79 63
0.000000 -0.074321 -0.402286 -0.359310 0.344125 -0.867453 230 79 63
-0.284459 -0.074321 -0.284459 -0.359310 0.344125 -0.867453 230 79 63
0.110413 0.869468 -0.000000 0.923880 -0.000000 0.382684 109 70 22
0.078074 0.921626 0.078074 0.923880 -0.000000 0.382684 109 70 22
0.078074 0.869468 0.078074 0.923880 -0.000000 0.382684 109 70 22
-0.110413 0.869468 0.000000 -0.923880 0.000000 -0.382683 109 70 22
-0.078074 0.921626 -0.078074 -0.923880 0.000000 -0.382683 109 70 22
-0.078074 0.869468 -0.078074 -0.923880 0.000000 -0.382683 109 70 22
0.078074 0.869468 -0.078074 0.923880 0.000000 -0.382684 109 70 22
0.110413 0.921626 -0.000000 0.923880 0.000000 -0.382684 109 70 22
0.110413 0.869468 -0.000000 0.923880 0.000000 -0.382684 109 70 22
-0.078074 0.869468 0.078074 -0.923880 0.000000 0.382683 109 70 22
-0.110413 0.921626 0.000000 -0.923880 0.000000 0.382683 109 70 22
-0.110413 0.869468 0.000000 -0.923880 0.000000 0.382683 109 70 22
0.000000 0.869468 -0.110413 0.382684 0.000000 -0.923879 109 70 22
0.078074 0.921626 -0.078074 0.382684 0.000000 -0.923879 109 70 22
0.078074 0.869468 -0.078074 0.382684 0.000000 -0.923879 109 70 22
-0.000000 0.869468 0.110413 -0.382683 0.000000 0.923880 109 70 22
-0.078074 0.921626 0.078074 -0.382683 0.000000 0.923880 109 70 22
-0.078074 0.869468 0.078074 -0.382683 0.000000 0.923880 109 70 22
0.078074 0.869468 0.078074 0.382683 -0.000000 0.923880 109 70 22
-0.000000 0.921626 0.110413 0.382683 -0.000000 0.923880 109 70 22
-0.000000 0.869468 0.110413 0.382683 -0.000000 0.923880 109 70 22
-0.078074 0.869468 -0.078074 -0.382683 0.000000 -0.923880 109 70 22
0.000000 0.921626 -0.110413 -0.382683 0.000000 -0.923880 109 70 22
0.000000 0.869468 -0.110413 -0.382683 0.000000 -0.923880 109 70 22
0.000000 0.848970 -0.149457 -0.374041 0.211318 -0.903016 200 228 228
-0.104353 0.857005 -0.104353 -0.374041 0.211318 -0.903016 200 228 228
0.000000 0.857005 -0.147577 -0.374041 0.211318 -0.903016 200 228 228
0.104353 0.857005 0.104353 0.374041 0.211319 0.903016 200 228 228
-0.000000 0.848970 0.149457 0.374041 0.211319 0.903016 200 228 228
0.105682 0.848970 0.105682 0.374041 0.211319 0.903016 200 228 228
-0.078074 0.869468 -0.078074 0.000000 1.000000 0.000000 200 228 228
-0.130859 0.869468 0.000000 0.000000 1.000000 0.000000 200 228 228
-0.110413 0.869468 0.000000 0.000000 1.000000 0.000000 200 228 228
-0.000000 -0.562304 0.325359 0.000000 -1.000000 -0.000000 230 79 63
-0.000000 -0.201892 0.399084 -0.382580 -0.023184 0.923631 230 79 62
-0.284459 -0.074321 0.284459 -0.382580 -0.023184 0.923631 230 79 63
-0.282195 -0.201892 0.282195 -0.382580 -0.023184 0.923631 230 79 62
-0.123155 0.832638 -0.123155 -0.904711 0.202648 -0.374743 200 228 228
-0.182664 0.794709 0.000000 -0.904711 0.202648 -0.374743 200 228 228
-0.174168 0.832638 0.000000 -0.904711 0.202648 -0.374743 200 228 228
0.104353 0.857005 -0.104353 0.903016 0.211319 -0.374041 200 228 228
0.149457 0.848970 -0.000000 0.903016 0.211319 -0.374041 200 228 228
0.105682 0.848970 -0.105682 0.903016 0.211319 -0.374041 200 228 228
0.000000 0.848970 -0.149457 0.374041 0.211320 -0.903016 200 228 228
0.104353 0.857005 -0.104353 0.374041 0.211320 -0.903016 200 228 228
0.105682 0.848970 -0.105682 0.374041 0.211320 -0.903016 200 228 228
-0.174168 0.832638 0.000000 -0.537545 0.813307 0.222659 200 228 228
-0.105682 0.848970 0.105682 -0.537545 0.813307 0.222659 200 228 228
-0.149457 0.848970 0.000000 -0.537545 0.813307 0.222659 200 228 228
-0.078074 0.869468 0.078074 -0.000000 1.000000 0.000000 200 228 228
-0.092531 0.869468 0.092531 -0.000000 1.000000 0.000000 200 228 228
0.123155 0.832638 0.123155 0.222659 0.813307 0.537545 200 228 228
-0.000000 0.848970 0.149457 0.222659 0.813307 0.537545 200 228 228
-0.000000 0.832638 0.174168 0.222659 0.813307 0.537545 200 228 228
0.123155 0.832638 0.123155 0.537545 0.813307 0.222659 200 228 228
0.149457 0.848970 -0.000000 0.537545 0.813307 0.222659 200 228 228
0.105682 0.848970 0.105682 0.537545 0.813307 0.222659 200 228 228
0.105682 0.740448 0.105682 0.382683 0.000000 0.923880 200 228 228
-0.000000 0.608306 0.149457 0.382683 0.000000 0.923880 200 228 228
0.105682 0.608306 0.105682 0.382683 0.000000 0.923880 200 228 228
0.149457 0.608306 -0.000000 0.923880 -0.000000 0.382683 200 228 228
0.105682 0.740448 0.105682 0.923880 -0.000000 0.382683 200 228 228
0.105682 0.608306 0.105682 0.923880 -0.000000 0.382683 200 228 228
0.123155 0.832638 -0.123155 0.537545 0.813307 -0.222659 200 228 228
0.149457 0.848970 -0.000000 0.537545 0.813307 -0.222659 200 228 228
0.174168 0.832638 -0.000000 0.537545 0.813307 -0.222659 200 228 228
0.149457 0.848970 -0.000000 0.903016 0.211320 0.374041 200 228 228
0.104353 0.857005 0.104353 0.903016 0.211320 0.374041 200 228 228
0.105682 0.848970 0.105682 0.903016 0.211320 0.374041 200 228 228
0.000000 0.832638 -0.174168 0.222659 0.813307 -0.537545 200 228 228
0.105682 0.848970 -0.105682 0.222659 0.813307 -0.537545 200 228 228
0.123155 0.832638 -0.123155 0.222659 0.813307 -0.537545 200 228 228
0.105682 0.608306 -0.105682 0.923880 0.000000 -0.382683 200 228 228
0.149457 0.740448 -0.000000 0.923880 0.000000 -0.382683 200 228 228
0.149457 0.608306 -0.000000 0.923880 0.000000 -0.382683 200 228 228
-0.123155 0.832638 -0.123155 -0.222658 0.813307 -0.537545 200 228 228
0.000000 0.848970 -0.149457 -0.222658 0.813307 -0.537545 200 228 228
0.000000 0.832638 -0.174168 -0.222658 0.813307 -0.537545 200 228 228
0.000000 0.869468 -0.130859 -0.000000 1.000000 -0.000000 200 228 228
-0.092531 0.869468 -0.092531 -0.000000 1.000000 -0.000000 200 228 228
-0.182664 0.794709 0.000000 -0.904710 -0.202648 0.374743 200 228 228
-0.123155 0.756781 0.123155 -0.904710 -0.202648 0.374743 200 228 228
-0.129163 0.794709 0.129163 -0.904710 -0.202648 0.374743 200 228 228
-0.000000 0.794709 0.182664 -0.374743 -0.202648 0.904711 200 228 228
-0.123155 0.756781 0.123155 -0.374743 -0.202648 0.904711 200 228 228
-0.000000 0.756781 0.174168 -0.374743 -0.202648 0.904711 200 228 228
0.129163 0.794709 0.129163 0.904710 -0.202648 0.374743 200 228 228
0.174168 0.756781 -0.000000 0.904710 -0.202648 0.374743 200 228 228
0.182664 0.794709 -0.000000 0.904710 -0.202648 0.374743 200 228 228
-0.000000 0.794709 0.182664 0.374743 -0.202648 0.904711 200 228 228
0.123155 0.756781 0.123155 0.374743 -0.202648 0.904711 200 228 228
0.129163 0.794709 0.129163 0.374743 -0.202648 0.904711 200 228 228
0.129163 0.794709 -0.129163 0.904710 -0.202648 -0.374743 200 228 228
0.174168 0.756781 -0.000000 0.904710 -0.202648 -0.374743 200 228 228
0.123155 0.756781 -0.123155 0.904710 -0.202648 -0.374743 200 228 228
0.129163 0.794709 -0.129163 0.374743 -0.202648 -0.904710 200 228 228
0.000000 0.756781 -0.174168 0.374743 -0.202648 -0.904710 200 228 228
0.000000 0.794709 -0.182664 0.374743 -0.202648 -0.904710 200 228 228
0.000000 0.794709 -0.182664 -0.374743 -0.202648 -0.904711 200 228 228
-0.123155 0.756781 -0.123155 -0.374743 -0.202648 -0.904711 200 228 228
-0.129163 0.794709 -0.129163 -0.374743 -0.202648 -0.904711 200 228 228
-0.129163 0.794709 -0.129163 -0.904710 -0.202648 -0.374743 200 228 228
-0.174168 0.756781 0.000000 -0.904710 -0.202648 -0.374743 200 228 228
-0.182664 0.794709 0.000000 -0.904710 -0.202648 -0.374743 200 228 228
-0.174168 0.832638 0.000000 -0.537546 0.813307 -0.222659 200 228 228
-0.105682 0.848970 -0.105682 -0.537546 0.813307 -0.222659 200 228 228
-0.123155 0.832638 -0.123155 -0.537546 0.813307 -0.222659 200 228 228
0.000000 0.608306 -0.149457 0.382683 0.000000 -0.923880 200 228 228
0.105682 0.740448 -0.105682 0.382683 0.000000 -0.923880 200 228 228
0.105682 0.608306 -0.105682 0.382683 0.000000 -0.923880 200 228 228
-0.000000 0.832638 0.174168 -0.222659 0.813307 0.537545 200 228 228
-0.105682 0.848970 0.105682 -0.222659 0.813307 0.537545 200 228 228
-0.123155 0.832638 0.123155 -0.222659 0.813307 0.537545 200 228 228
-0.000000 0.869468 0.130859 0.000000 1.000000 0.000000 200 228 228
-0.000000 0.869468 0.110413 0.000000 1.000000 0.000000 200 228 228
0.092531 0.869468 -0.092531 -0.000000 1.000000 0.000000 200 228 228
0.078074 0.869468 -0.078074 -0.000000 1.000000 0.000000 200 228 228
-0.149457 0.608306 0.000000 -0.923880 0.000000 -0.382683 200 228 228
-0.105682 0.740448 -0.105682 -0.923880 0.000000 -0.382683 200 228 228
-0.105682 0.608306 -0.105682 -0.923880 0.000000 -0.382683 200 228 228
-0.105682 0.608306 -0.105682 -0.382683 0.000000 -0.923880 200 228 228
0.000000 0.740448 -0.149457 -0.382683 0.000000 -0.923880 200 228 228
0.000000 0.608306 -0.149457 -0.382683 0.000000 -0.923880 200 228 228
0.078074 0.869468 0.078074 0.000000 1.000000 0.000000 200 228 228
0.000000 0.869468 -0.110413 -0.000000 1.000000 0.000000 200 228 228
-0.149457 0.848970 0.000000 -0.903016 0.211318 0.374041 200 228 228
-0.104353 0.857005 0.104353 -0.903016 0.211318 0.374041 200 228 228
-0.147577 0.857005 0.000000 -0.903016 0.211318 0.374041 200 228 228
-0.000000 0.608306 0.149457 -0.382683 0.000000 0.923880 200 228 228
-0.105682 0.740448 0.105682 -0.382683 0.000000 0.923880 200 228 228
-0.105682 0.608306 0.105682 -0.382683 0.000000 0.923880 200 228 228
-0.105682 0.608306 0.105682 -0.923880 0.000000 0.382683 200 228 228
-0.149457 0.740448 0.000000 -0.923880 0.000000 0.382683 200 228 228
-0.149457 0.608306 0.000000 -0.923880 0.000000 0.382683 200 228 228
0.123155 0.756781 -0.123155 0.537544 -0.813308 -0.222658 200 228 228
0.149457 0.740448 -0.000000 0.537544 -0.813308 -0.222658 200 228 228
0.105682 0.740448 -0.105682 0.537544 -0.813308 -0.222658 200 228 228
0.392680 -0.418599 -0.000000 0.847873 -0.397201 -0.351201 230 79 63
0.230063 -0.562304 -0.230063 0.847873 -0.397201 -0.351201 230 79 63
0.277666 -0.418599 -0.277666 0.847873 -0.397201 -0.351201 230 79 63
-0.174168 0.756781 0.000000 -0.537544 -0.813308 -0.222658 200 228 228
-0.105682 0.740448 -0.105682 -0.537544 -0.813308 -0.222658 200 228 228
-0.149457 0.740448 0.000000 -0.537544 -0.813308 -0.222658 200 228 228
-0.277666 -0.418599 -0.277667 -0.847873 -0.397202 -0.351201 230 79 63
-0.325359 -0.562304 0.000000 -0.847873 -0.397202 -0.351201 230 79 63
-0.392680 -0.418599 0.000000 -0.847873 -0.397202 -0.351201 230 79 63
0.000000 0.756781 -0.174168 -0.222658 -0.813308 -0.537544 200 228 228
-0.105682 0.740448 -0.105682 -0.222658 -0.813308 -0.537544 200 228 228
-0.123155 0.756781 -0.123155 -0.222658 -0.813308 -0.537544 200 228 228
0.000000 -0.418599 -0.392680 -0.351200 -0.397202 -0.847873 230 79 63
-0.230063 -0.562304 -0.230063 -0.351200 -0.397202 -0.847873 230 79 63
-0.277666 -0.418599 -0.277667 -0.351200 -0.397202 -0.847873 230 79 63
0.123155 0.756781 0.123155 0.537544 -0.813308 0.222658 200 228 228
0.149457 0.740448 -0.000000 0.537544 -0.813308 0.222658 200 228 228
0.174168 0.756781 -0.000000 0.537544 -0.813308 0.222658 200 228 228
0.277666 -0.418599 0.277666 0.847873 -0.397202 0.351201 230 79 63
0.325359 -0.562304 -0.000000 0.847873 -0.397202 0.351201 230 79 63
0.392680 -0.418599 -0.000000 0.847873 -0.397202 0.351201 230 79 63
0.000000 0.756781 -0.174168 0.222658 -0.813308 -0.537544 200 228 228
0.105682 0.740448 -0.105682 0.222658 -0.813308 -0.537544 200 228 228
0.000000 0.740448 -0.149457 0.222658 -0.813308 -0.537544 200 228 228
0.277666 -0.418599 -0.277666 0.351201 -0.397201 -0.847873 230 79 63
0.000000 -0.562304 -0.325359 0.351201 -0.397201 -0.847873 230 79 63
0.000000 -0.418599 -0.392680 0.351201 -0.397201 -0.847873 230 79 63
-0.000000 0.756781 0.174168 0.222658 -0.813308 0.537544 200 228 228
0.105682 0.740448 0.105682 0.222658 -0.813308 0.537544 200 228 228
0.123155 0.756781 0.123155 0.222658 -0.813308 0.537544 200 228 228
0.277666 -0.418599 0.277666 0.351201 -0.397201 0.847873 230 79 63
-0.000000 -0.562304 0.325359 0.351201 -0.397201 0.847873 230 79 63
0.230063 -0.562304 0.230063 0.351201 -0.397201 0.847873 230 79 63
-0.123155 0.756781 0.123155 -0.222658 -0.813308 0.537544 200 228 228
-0.000000 0.740448 0.149457 -0.222658 -0.813308 0.537544 200 228 228
-0.000000 0.756781 0.174168 -0.222658 -0.813308 0.537544 200 228 228
-0.000000 -0.418599 0.392680 -0.351201 -0.397201 0.847873 230 79 63
-0.230063 -0.562304 0.230063 -0.351201 -0.397201 0.847873 230 79 63
-0.000000 -0.562304 0.325359 -0.351201 -0.397201 0.847873 230 79 63
-0.174168 0.756781 0.000000 -0.537544 -0.813308 0.222658 200 228 228
-0.105682 0.740448 0.105682 -0.537544 -0.813308 0.222658 200 228 228
-0.123155 0.756781 0.123155 -0.537544 -0.813308 0.222658 200 228 228
-0.392680 -0.418599 0.000000 -0.847873 -0.397202 0.351201 230 79 63
-0.230063 -0.562304 0.230063 -0.847873 -0.397202 0.351201 230 79 63
-0.277666 -0.418599 0.277667 -0.847873 -0.397202 0.351201 230 79 63
0.282195 -0.201892 0.282195 0.382581 -0.023184 0.923631 230 79 62
-0.000000 -0.074321 0.402286 0.382581 -0.023184 0.923631 230 79 63
-0.000000 -0.201892 0.399084 0.382581 -0.023184 0.923631 230 79 62
0.399084 -0.201892 -0.000000 0.923631 -0.023184 0.382581 230 79 62
0.284459 -0.074321 0.284459 0.923631 -0.023184 0.382581 230 79 63
0.282195 -0.201892 0.282195 0.923631 -0.023184 0.382581 230 79 62
0.282195 -0.201892 -0.282195 0.923631 -0.023184 -0.382581 230 79 62
0.402286 -0.074321 -0.000000 0.923631 -0.023184 -0.382581 230 79 63
0.399084 -0.201892 -0.000000 0.923631 -0.023184 -0.382581 230 79 62
0.282195 -0.201892 -0.282195 0.382581 -0.023184 -0.923631 230 79 62
0.000000 -0.074321 -0.402286 0.382581 -0.023184 -0.923631 230 79 63
0.284459 -0.074321 -0.284459 0.382581 -0.023184 -0.923631 230 79 63
-0.282195 -0.201892 -0.282195 -0.382580 -0.023184 -0.923631 230 79 62
0.000000 -0.074321 -0.402286 -0.382580 -0.023184 -0.923631 230 79 63
0.000000 -0.201892 -0.399084 -0.382580 -0.023184 -0.923631 230 79 62
-0.399084 -0.201892 0.000000 -0.923631 -0.023184 -0.382581 230 79 62
-0.284459 -0.074321 -0.284459 -0.923631 -0.023184 -0.382581 230 79 63
-0.282195 -0.201892 -0.282195 -0.923631 -0.023184 -0.382581 230 79 62
-0.282195 -0.201892 0.282195 -0.923631 -0.023184 0.382581 230 79 62
-0.402286 -0.074321 0.000000 -0.923631 -0.023184 0.382581 230 79 63
-0.399084 -0.201892 0.000000 -0.923631 -0.023184 0.382581 230 79 62
-0.078074 0.921626 0.078074 0.000000 1.000000 0.000000 109 70 22
-0.000000 0.921626 0.110413 0.000000 1.000000 0.000000 109 70 22
0.000000 0.921626 0.000000 0.000000 1.000000 0.000000 109 70 22
-0.110413 0.921626 0.000000 0.000000 1.000000 0.000000 109 70 22
-0.078074 0.921626 -0.078074 0.000000 1.000000 0.000000 109 70 22
0.000000 0.921626 -0.110413 0.000000 1.000000 0.000000 109 70 22
0.078074 0.921626 -0.078074 -0.000000 1.000000 0.000000 109 70 22
0.110413 0.921626 -0.000000 -0.000000 1.000000 0.000000 109 70 22
0.078074 0.921626 0.078074 -0.000000 1.000000 -0.000000 109 70 22
-0.147573 0.413661 -0.147573 -0.368396 0.270696 -0.889387 200 228 228
0.000000 0.608306 -0.149457 -0.368396 0.270696 -0.889387 200 228 228
0.000000 0.413661 -0.208700 -0.368396 0.270696 -0.889387 200 228 228
0.208700 0.413661 -0.000000 0.889387 0.270696 -0.368396 200 228 228
0.105682 0.608306 -0.105682 0.889387 0.270696 -0.368396 200 228 228
0.149457 0.608306 -0.000000 0.889387 0.270696 -0.368396 200 228 228
-0.000000 0.413661 0.208700 -0.368396 0.270696 0.889387 200 228 228
-0.105682 0.608306 0.105682 -0.368396 0.270696 0.889387 200 228 228
-0.147573 0.413661 0.147573 -0.368396 0.270696 0.889387 200 228 228
0.208700 0.413661 -0.000000 0.889387 0.270696 0.368396 200 228 228
0.105682 0.608306 0.105682 0.889387 0.270696 0.368396 200 228 228
0.147573 0.413661 0.147573 0.889387 0.270696 0.368396 200 228 228
0.000000 0.413661 -0.208700 0.368396 0.270696 -0.889386 200 228 228
0.105682 0.608306 -0.105682 0.368396 0.270696 -0.889386 200 228 228
0.147573 0.413661 -0.147573 0.368396 0.270696 -0.889386 200 228 228
-0.208700 0.413661 0.000000 -0.889386 0.270696 -0.368396 200 228 228
-0.105682 0.608306 -0.105682 -0.889386 0.270696 -0.368396 200 228 228
-0.147573 0.413661 -0.147573 -0.889386 0.270696 -0.368396 200 228 228
-0.208700 0.413661 0.000000 -0.889386 0.270696 0.368396 200 228 228
-0.105682 0.608306 0.105682 -0.889386 0.270696 0.368396 200 228 228
-0.149457 0.608306 0.000000 -0.889386 0.270696 0.368396 200 228 228
0.147573 0.413661 0.147573 0.368396 0.270696 0.889386 200 228 228
-0.000000 0.608306 0.149457 0.368396 0.270696 0.889386 200 228 228
-0.000000 0.413661 0.208700 0.368396 0.270696 0.889386 200 228 228
-0.092531 0.869468 0.092531 -0.322320 0.937169 0.133509 200 228 228
-0.141472 0.865818 0.000000 -0.322320 0.937169 0.133509 200 228 228
-0.100036 0.865818 0.100036 -0.322320 0.937169 0.133509 200 228 228
-0.141472 0.865818 0.000000 -0.778166 0.539039 0.322327 200 228 228
-0.104353 0.857005 0.104353 -0.778166 0.539039 0.322327 200 228 228
-0.100036 0.865818 0.100036 -0.778166 0.539039 0.322327 200 228 228
-0.092531 0.869468 -0.092531 -0.322320 0.937169 -0.133509 200 228 228
-0.141472 0.865818 0.000000 -0.322320 0.937169 -0.133509 200 228 228
-0.130859 0.869468 0.000000 -0.322320 0.937169 -0.133509 200 228 228
-0.100036 0.865818 -0.100036 -0.778166 0.539039 -0.322327 200 228 228
-0.147577 0.857005 0.000000 -0.778166 0.539039 -0.322327 200 228 228
-0.141472 0.865818 0.000000 -0.778166 0.539039 -0.322327 200 228 228
0.000000 0.869468 -0.130859 -0.133509 0.937169 -0.322320 200 228 228
-0.100036 0.865818 -0.100036 -0.133509 0.937169 -0.322320 200 228 228
-0.092531 0.869468 -0.092531 -0.133509 0.937169 -0.322320 200 228 228
0.000000 0.865818 -0.141472 -0.322327 0.539039 -0.778166 200 228 228
-0.104353 0.857005 -0.104353 -0.322327 0.539039 -0.778166 200 228 228
-0.100036 0.865818 -0.100036 -0.322327 0.539039 -0.778166 200 228 228
0.000000 0.869468 -0.130859 0.133509 0.937169 -0.322320 200 228 228
0.100036 0.865818 -0.100036 0.133509 0.937169 -0.322320 200 228 228
0.000000 0.865818 -0.141472 0.133509 0.937169 -0.322320 200 228 228
0.000000 0.865818 -0.141472 0.322327 0.539039 -0.778166 200 228 228
0.104353 0.857005 -0.104353 0.322327 0.539039 -0.778166 200 228 228
0.000000 0.857005 -0.147577 0.322327 0.539039 -0.778166 200 228 228
0.130859 0.869468 -0.000000 0.322320 0.937169 -0.133509 200 228 228
0.100036 0.865818 -0.100036 0.322320 0.937169 -0.133509 200 228 228
0.092531 0.869468 -0.092531 0.322320 0.937169 -0.133509 200 228 228
0.141472 0.865818 -0.000000 0.778166 0.539039 -0.322327 200 228 228
0.104353 0.857005 -0.104353 0.778166 0.539039 -0.322327 200 228 228
0.100036 0.865818 -0.100036 0.778166 0.539039 -0.322327 200 228 228
0.130859 0.869468 -0.000000 0.322320 0.937169 0.133509 200 228 228
0.100036 0.865818 0.100036 0.322320 0.937169 0.133509 200 228 228
0.141472 0.865818 -0.000000 0.322320 0.937169 0.133509 200 228 228
0.100036 0.865818 0.100036 0.778166 0.539039 0.322327 200 228 228
0.147577 0.857005 -0.000000 0.778166 0.539039 0.322327 200 228 228
0.141472 0.865818 -0.000000 0.778166 0.539039 0.322327 200 228 228
-0.092531 0.869468 0.092531 -0.133509 0.937169 0.322320 200 228 228
-0.000000 0.865818 0.141472 -0.133509 0.937169 0.322320 200 228 228
-0.000000 0.869468 0.130859 -0.133509 0.937169 0.322320 200 228 228
-0.100036 0.865818 0.100036 -0.322327 0.539039 0.778166 200 228 228
-0.000000 0.857005 0.147577 -0.322327 0.539039 0.778166 200 228 228
-0.000000 0.865818 0.141472 -0.322327 0.539039 0.778166 200 228 228
-0.000000 0.869468 0.130859 0.133509 0.937169 0.322320 200 228 228
0.100036 0.865818 0.100036 0.133509 0.937169 0.322320 200 228 228
0.092531 0.869468 0.092531 0.133509 0.937169 0.322320 200 228 228
-0.000000 0.865818 0.141472 0.322327 0.539039 0.778166 200 228 228
0.104353 0.857005 0.104353 0.322327 0.539039 0.778166 200 228 228
0.100036 0.865818 0.100036 0.322327 0.539039 0.778166 200 228 228
-0.149457 0.848970 0.000000 -0.903016 0.211320 -0.374041 200 228 228
-0.104353 0.857005 -0.104353 -0.903016 0.211320 -0.374041 200 228 228
-0.105682 0.848970 -0.105682 -0.903016 0.211320 -0.374041 200 228 228
0.000000 0.832638 -0.174168 -0.374743 0.202648 -0.904711 200 228 228
-0.129163 0.794709 -0.129163 -0.374743 0.202648 -0.904711 200 228 228
-0.123155 0.832638 -0.123155 -0.374743 0.202648 -0.904711 200 228 228
0.000000 0.832638 -0.174168 0.374743 0.202648 -0.904710 200 228 228
0.129163 0.794709 -0.129163 0.374743 0.202648 -0.904710 200 228 228
0.000000 0.794709 -0.182664 0.374743 0.202648 -0.904710 200 228 228
0.174168 0.832638 -0.000000 0.904710 0.202648 -0.374743 200 228 228
0.129163 0.794709 -0.129163 0.904710 0.202648 -0.374743 200 228 228
0.123155 0.832638 -0.123155 0.904710 0.202648 -0.374743 200 228 228
-0.000000 0.832638 0.174168 0.374743 0.202648 0.904711 200 228 228
0.129163 0.794709 0.129163 0.374743 0.202648 0.904711 200 228 228
0.123155 0.832638 0.123155 0.374743 0.202648 0.904711 200 228 228
0.174168 0.832638 -0.000000 0.904710 0.202648 0.374743 200 228 228
0.129163 0.794709 0.129163 0.904710 0.202648 0.374743 200 228 228
0.182664 0.794709 -0.000000 0.904710 0.202648 0.374743 200 228 228
-0.123155 0.832638 0.123155 -0.374743 0.202648 0.904711 200 228 228
-0.000000 0.794709 0.182664 -0.374743 0.202648 0.904711 200 228 228
-0.000000 0.832638 0.174168 -0.374743 0.202648 0.904711 200 228 228
-0.174168 0.832638 0.000000 -0.904710 0.202648 0.374743 200 228 228
-0.129163 0.794709 0.129163 -0.904710 0.202648 0.374743 200 228 228
-0.123155 0.832638 0.123155 -0.904710 0.202648 0.374743 200 228 228
-0.392680 -0.418599 0.000000 -0.923630 -0.023226 0.382580 230 79 63
-0.279931 -0.291261 0.279931 -0.923630 -0.023226 0.382580 230 79 62
-0.395882 -0.291261 0.000000 -0.923630 -0.023226 0.382580 230 79 62
-0.282195 -0.201892 0.282195 -0.008998 0.999723 0.021723 230 195 0
-0.000000 -0.202709 0.436693 -0.008998 0.999723 0.021723 230 195 0
-0.000000 -0.201892 0.399084 -0.008998 0.999723 0.021723 230 195 0
-0.392680 -0.418599 0.000000 -0.923630 -0.023225 -0.382580 230 79 63
-0.279931 -0.291261 -0.279931 -0.923630 -0.023225 -0.382580 230 79 62
-0.277666 -0.418599 -0.277667 -0.923630 -0.023225 -0.382580 230 79 63
-0.279931 -0.291261 0.279931 0.021723 -0.999724 -0.008998 230 195 0
-0.433491 -0.292078 0.000000 0.021723 -0.999724 -0.008998 230 195 0
-0.395882 -0.291261 0.000000 0.021723 -0.999724 -0.008998 230 195 0
-0.277666 -0.418599 -0.277667 -0.382580 -0.023226 -0.923630 230 79 63
0.000000 -0.291261 -0.395882 -0.382580 -0.023226 -0.923630 230 79 62
0.000000 -0.418599 -0.392680 -0.382580 -0.023226 -0.923630 230 79 63
0.282195 -0.201892 -0.282195 0.008998 0.999724 -0.021723 230 195 0
0.000000 -0.202709 -0.436693 0.008998 0.999724 -0.021723 230 195 0
0.000000 -0.201892 -0.399084 0.008998 0.999724 -0.021723 230 195 0
0.000000 -0.418599 -0.392680 0.382580 -0.023225 -0.923630 230 79 63
0.279931 -0.291261 -0.279931 0.382580 -0.023225 -0.923630 230 79 62
0.277666 -0.418599 -0.277666 0.382580 -0.023225 -0.923630 230 79 63
-0.279931 -0.291261 0.279931 0.008998 -0.999724 -0.021723 230 195 0
-0.000000 -0.292078 0.433491 0.008998 -0.999724 -0.021723 230 195 0
-0.306525 -0.292078 0.306525 0.008998 -0.999724 -0.021723 230 195 0
0.392680 -0.418599 -0.000000 0.923630 -0.023226 -0.382580 230 79 63
0.279931 -0.291261 -0.279931 0.923630 -0.023226 -0.382580 230 79 62
0.395882 -0.291261 -0.000000 0.923630 -0.023226 -0.382580 230 79 62
0.279931 -0.291261 -0.279931 -0.008998 -0.999724 0.021723 230 195 0
0.000000 -0.292078 -0.433491 -0.008998 -0.999724 0.021723 230 195 0
0.306525 -0.292078 -0.306525 -0.008998 -0.999724 0.021723 230 195 0
0.392680 -0.418599 -0.000000 0.923630 -0.023225 0.382580 230 79 63
0.279931 -0.291261 0.279931 0.923630 -0.023225 0.382580 230 79 62
0.277666 -0.418599 0.277666 0.923630 -0.023225 0.382580 230 79 63
-0.000000 -0.201892 0.399084 0.008998 0.999723 0.021723 230 195 0
0.308789 -0.202709 0.308789 0.008998 0.999723 0.021723 230 195 0
0.282195 -0.201892 0.282195 0.008998 0.999723 0.021723 230 195 0
0.277666 -0.418599 0.277666 0.382580 -0.023225 0.923630 230 79 63
-0.000000 -0.291261 0.395882 0.382580 -0.023225 0.923630 230 79 62
-0.000000 -0.418599 0.392680 0.382580 -0.023225 0.923630 230 79 63
0.000000 -0.201892 -0.399084 -0.008998 0.999723 -0.021723 230 195 0
-0.308789 -0.202709 -0.308789 -0.008998 0.999723 -0.021723 230 195 0
-0.282195 -0.201892 -0.282195 -0.008998 0.999723 -0.021723 230 195 0
-0.277666 -0.418599 0.277667 -0.382580 -0.023225 0.923630 230 79 63
-0.000000 -0.291261 0.395882 -0.382580 -0.023225 0.923630 230 79 62
-0.279931 -0.291261 0.279931 -0.382580 -0.023225 0.923630 230 79 62
0.279931 -0.291261 0.279931 -0.008998 -0.999724 -0.021723 230 195 0
-0.000000 -0.292078 0.433491 -0.008998 -0.999724 -0.021723 230 195 0
-0.000000 -0.291261 0.395882 -0.008998 -0.999724 -0.021723 230 195 0
-0.306525 -0.292078 0.306525 -0.923374 -0.033084 0.382474 230 195 0
-0.436693 -0.202709 0.000000 -0.923374 -0.033084 0.382474 230 195 0
-0.433491 -0.292078 0.000000 -0.923374 -0.033084 0.382474 230 195 0
-0.433491 -0.292078 0.000000 -0.923374 -0.033084 -0.382474 230 195 0
-0.308789 -0.202709 -0.308789 -0.923374 -0.033084 -0.382474 230 195 0
-0.306525 -0.292078 -0.306525 -0.923374 -0.033084 -0.382474 230 195 0
-0.306525 -0.292078 -0.306525 -0.382474 -0.033084 -0.923374 230 195 0
0.000000 -0.202709 -0.436693 -0.382474 -0.033084 -0.923374 230 195 0
0.000000 -0.292078 -0.433491 -0.382474 -0.033084 -0.923374 230 195 0
0.000000 -0.292078 -0.433491 0.382474 -0.033084 -0.923374 230 195 0
0.308789 -0.202709 -0.308789 0.382474 -0.033084 -0.923374 230 195 0
0.306525 -0.292078 -0.306525 0.382474 -0.033084 -0.923374 230 195 0
0.306525 -0.292078 -0.306525 0.923374 -0.033084 -0.382474 230 195 0
0.436693 -0.202709 -0.000000 0.923374 -0.033084 -0.382474 230 195 0
0.433491 -0.292078 -0.000000 0.923374 -0.033084 -0.382474 230 195 0
0.306525 -0.292078 0.306525 0.923374 -0.033084 0.382474 230 195 0
0.436693 -0.202709 -0.000000 0.923374 -0.033084 0.382474 230 195 0
0.308789 -0.202709 0.308789 0.923374 -0.033084 0.382474 230 195 0
-0.000000 -0.292078 0.433491 0.382474 -0.033084 0.923374 230 195 0
0.308789 -0.202709 0.308789 0.382474 -0.033084 0.923374 230 195 0
-0.000000 -0.202709 0.436693 0.382474 -0.033084 0.923374 230 195 0
-0.306525 -0.292078 0.306525 -0.382474 -0.033084 0.923374 230 195 0
-0.000000 -0.202709 0.436693 -0.382474 -0.033084 0.923374 230 195 0
-0.308789 -0.202709 0.308789 -0.382474 -0.033084 0.923374 230 195 0
0.279931 -0.291261 -0.279931 -0.021723 -0.999724 0.008998 230 195 0
0.433491 -0.292078 -0.000000 -0.021723 -0.999724 0.008998 230 195 0
0.395882 -0.291261 -0.000000 -0.021723 -0.999724 0.008998 230 195 0
-0.282195 -0.201892 0.282195 -0.021723 0.999723 0.008998 230 195 0
-0.436693 -0.202709 0.000000 -0.021723 0.999723 0.008998 230 195 0
-0.308789 -0.202709 0.308789 -0.021723 0.999723 0.008998 230 195 0
0.399084 -0.201892 -0.000000 0.021723 0.999724 -0.008998 230 195 0
0.308789 -0.202709 -0.308789 0.021723 0.999724 -0.008998 230 195 0
0.282195 -0.201892 -0.282195 0.021723 0.999724 -0.008998 230 195 0
-0.395882 -0.291261 0.000000 0.021723 -0.999724 0.008998 230 195 0
-0.306525 -0.292078 -0.306525 0.021723 -0.999724 0.008998 230 195 0
-0.279931 -0.291261 -0.279931 0.021723 -0.999724 0.008998 230 195 0
0.395882 -0.291261 -0.000000 -0.021723 -0.999724 -0.008998 230 195 0
0.306525 -0.292078 0.306525 -0.021723 -0.999724 -0.008998 230 195 0
0.279931 -0.291261 0.279931 -0.021723 -0.999724 -0.008998 230 195 0
-0.282195 -0.201892 -0.282195 -0.021723 0.999723 -0.008998 230 195 0
-0.436693 -0.202709 0.000000 -0.021723 0.999723 -0.008998 230 195 0
-0.399084 -0.201892 0.000000 -0.021723 0.999723 -0.008998 230 195 0
0.282195 -0.201892 0.282195 0.021723 0.999723 0.008998 230 195 0
0.436693 -0.202709 -0.000000 0.021723 0.999723 0.008998 230 195 0
0.399084 -0.201892 -0.000000 0.021723 0.999723 0.008998 230 195 0
0.000000 -0.291261 -0.395882 0.008998 -0.999723 0.021723 230 195 0
-0.306525 -0.292078 -0.306525 0.008998 -0.999723 0.021723 230 195 0
0.000000 -0.292078 -0.433491 0.008998 -0.999723 0.021723 230 195 0
-0.000000 0.848970 0.149457 -0.374041 0.211318 0.903016 200 228 228
-0.000000 0.857005 0.147577 -0.374041 0.211318 0.903016 200 228 228
-0.104353 0.857005 0.104353 -0.374041 0.211318 0.903016 200 228 228
-0.000000 -0.074321 0.402286 -0.359310 0.344124 0.867453 230 79 63
-0.000000 0.413661 0.208700 -0.359310 0.344124 0.867453 230 79 63
-0.147573 0.413661 0.147573 -0.359310 0.344124 0.867453 230 79 63
0.147573 0.413661 0.147573 0.359311 0.344124 0.867453 230 79 63
0.147573 0.413661 -0.147573 0.359311 0.344124 -0.867453 230 79 63
-0.147573 0.413661 0.147573 -0.867453 0.344125 0.359311 230 79 63
-0.208700 0.413661 0.000000 -0.867453 0.344125 0.359311 230 79 63
-0.402286 -0.074321 0.000000 -0.867453 0.344125 0.359311 230 79 63
0.208700 0.413661 -0.000000 0.867453 0.344124 -0.359311 230 79 63
-0.402286 -0.074321 0.000000 -0.867453 0.344125 -0.359311 230 79 63
-0.208700 0.413661 0.000000 -0.867453 0.344125 -0.359311 230 79 63
-0.147573 0.413661 -0.147573 -0.867453 0.344125 -0.359311 230 79 63
0.208700 0.413661 -0.000000 0.867453 0.344124 0.359311 230 79 63
-0.147573 0.413661 -0.147573 -0.359310 0.344124 -0.867453 230 79 63
0.000000 0.413661 -0.208700 -0.359310 0.344124 -0.867453 230 79 63
0.000000 -0.074321 -0.402286 -0.359310 0.344124 -0.867453 230 79 63
0.110413 0.921626 -0.000000 0.923880 0.000000 0.382684 109 70 22
-0.110413 0.921626 0.000000 -0.923880 -0.000000 -0.382683 109 70 22
0.078074 0.921626 -0.078074 0.923880 0.000000 -0.382684 109 70 22
-0.078074 0.921626 0.078074 -0.923880 0.000000 0.382683 109 70 22
0.000000 0.921626 -0.110413 0.382684 0.000000 -0.923879 109 70 22
-0.000000 0.921626 0.110413 -0.382683 0.000000 0.923880 109 70 22
0.078074 0.921626 0.078074 0.382683 0.000000 0.923880 109 70 22
-0.078074 0.921626 -0.078074 -0.382683 -0.000000 -0.923880 109 70 22
0.000000 0.848970 -0.149457 -0.374041 0.211319 -0.903016 200 228 228
-0.105682 0.848970 -0.105682 -0.374041 0.211319 -0.903016 200 228 228
-0.104353 0.857005 -0.104353 -0.374041 0.211319 -0.903016 200 228 228
0.104353 0.857005 0.104353 0.374041 0.211318 0.903016 200 228 228
-0.000000 0.857005 0.147577 0.374041 0.211318 0.903016 200 228 228
-0.000000 0.848970 0.149457 0.374041 0.211318 0.903016 200 228 228
-0.000000 -0.074321 0.402286 -0.382580 -0.023184 0.923631 230 79 63
-0.123155 0.832638 -0.123155 -0.904710 0.202648 -0.374743 200 228 228
-0.129163 0.794709 -0.129163 -0.904710 0.202648 -0.374743 200 228 228
-0.182664 0.794709 0.000000 -0.904710 0.202648 -0.374743 200 228 228
0.104353 0.857005 -0.104353 0.903016 0.211318 -0.374042 200 228 228
0.147577 0.857005 -0.000000 0.903016 0.211318 -0.374042 200 228 228
0.149457 0.848970 -0.000000 0.903016 0.211318 -0.374042 200 228 228
0.000000 0.848970 -0.149457 0.374042 0.211318 -0.903016 200 228 228
0.000000 0.857005 -0.147577 0.374042 0.211318 -0.903016 200 228 228
0.104353 0.857005 -0.104353 0.374042 0.211318 -0.903016 200 228 228
-0.174168 0.832638 0.000000 -0.537546 0.813307 0.222659 200 228 228
-0.123155 0.832638 0.123155 -0.537546 0.813307 0.222659 200 228 228
-0.105682 0.848970 0.105682 -0.537546 0.813307 0.222659 200 228 228
0.105682 0.848970 0.105682 0.222659 0.813307 0.537545 200 228 228
0.174168 0.832638 -0.000000 0.537545 0.813307 0.222659 200 228 228
-0.000000 0.740448 0.149457 0.382683 -0.000000 0.923880 200 228 228
0.149457 0.740448 -0.000000 0.923880 0.000000 0.382683 200 228 228
0.105682 0.848970 -0.105682 0.537545 0.813307 -0.222659 200 228 228
0.149457 0.848970 -0.000000 0.903016 0.211318 0.374042 200 228 228
0.147577 0.857005 -0.000000 0.903016 0.211318 0.374042 200 228 228
0.104353 0.857005 0.104353 0.903016 0.211318 0.374042 200 228 228
0.000000 0.848970 -0.149457 0.222659 0.813307 -0.537545 200 228 228
0.105682 0.740448 -0.105682 0.923880 0.000000 -0.382683 200 228 228
-0.105682 0.848970 -0.105682 -0.222658 0.813307 -0.537545 200 228 228
-0.182664 0.794709 0.000000 -0.904711 -0.202648 0.374743 200 228 228
-0.174168 0.756781 0.000000 -0.904711 -0.202648 0.374743 200 228 228
-0.123155 0.756781 0.123155 -0.904711 -0.202648 0.374743 200 228 228
-0.129163 0.794709 0.129163 -0.374743 -0.202648 0.904711 200 228 228
0.123155 0.756781 0.123155 0.904710 -0.202648 0.374743 200 228 228
-0.000000 0.756781 0.174168 0.374743 -0.202648 0.904711 200 228 228
0.182664 0.794709 -0.000000 0.904710 -0.202648 -0.374743 200 228 228
0.123155 0.756781 -0.123155 0.374743 -0.202648 -0.904710 200 228 228
0.000000 0.756781 -0.174168 -0.374743 -0.202648 -0.904711 200 228 228
-0.129163 0.794709 -0.129163 -0.904710 -0.202649 -0.374743 200 228 228
-0.123155 0.756781 -0.123155 -0.904710 -0.202649 -0.374743 200 228 228
-0.174168 0.756781 0.000000 -0.904710 -0.202649 -0.374743 200 228 228
-0.174168 0.832638 0.000000 -0.537545 0.813307 -0.222659 200 228 228
-0.149457 0.848970 0.000000 -0.537545 0.813307 -0.222659 200 228 228
-0.105682 0.848970 -0.105682 -0.537545 0.813307 -0.222659 200 228 228
0.000000 0.740448 -0.149457 0.382683 0.000000 -0.923880 200 228 228
-0.000000 0.832638 0.174168 -0.222658 0.813307 0.537545 200 228 228
-0.000000 0.848970 0.149457 -0.222658 0.813307 0.537545 200 228 228
-0.105682 0.848970 0.105682 -0.222658 0.813307 0.537545 200 228 228
-0.149457 0.740448 0.000000 -0.923880 -0.000000 -0.382683 200 228 228
-0.105682 0.740448 -0.105682 -0.382683 -0.000000 -0.923880 200 228 228
-0.149457 0.848970 0.000000 -0.903016 0.211320 0.374041 200 228 228
-0.105682 0.848970 0.105682 -0.903016 0.211320 0.374041 200 228 228
-0.104353 0.857005 0.104353 -0.903016 0.211320 0.374041 200 228 228
-0.000000 0.740448 0.149457 -0.382683 0.000000 0.923880 200 228 228
-0.105682 0.740448 0.105682 -0.923880 0.000000 0.382683 200 228 228
0.174168 0.756781 -0.000000 0.537544 -0.813308 -0.222658 200 228 228
0.392680 -0.418599 -0.000000 0.847873 -0.397201 -0.351200 230 79 63
0.325359 -0.562304 -0.000000 0.847873 -0.397201 -0.351200 230 79 63
0.230063 -0.562304 -0.230063 0.847873 -0.397201 -0.351200 230 79 63
-0.123155 0.756781 -0.123155 -0.537544 -0.813308 -0.222658 200 228 228
-0.230063 -0.562304 -0.230063 -0.847873 -0.397202 -0.351201 230 79 63
0.000000 0.740448 -0.149457 -0.222658 -0.813308 -0.537544 200 228 228
0.000000 -0.418599 -0.392680 -0.351201 -0.397202 -0.847873 230 79 63
0.000000 -0.562304 -0.325359 -0.351201 -0.397202 -0.847873 230 79 63
-0.230063 -0.562304 -0.230063 -0.351201 -0.397202 -0.847873 230 79 63
0.105682 0.740448 0.105682 0.537544 -0.813308 0.222658 200 228 228
0.277666 -0.418599 0.277666 0.847873 -0.397201 0.351201 230 79 63
0.230063 -0.562304 0.230063 0.847873 -0.397201 0.351201 230 79 63
0.325359 -0.562304 -0.000000 0.847873 -0.397201 0.351201 230 79 63
0.123155 0.756781 -0.123155 0.222658 -0.813308 -0.537544 200 228 228
0.230063 -0.562304 -0.230063 0.351201 -0.397201 -0.847873 230 79 63
-0.000000 0.740448 0.149457 0.222658 -0.813308 0.537544 200 228 228
0.277666 -0.418599 0.277666 0.351201 -0.397202 0.847873 230 79 63
-0.000000 -0.418599 0.392680 0.351201 -0.397202 0.847873 230 79 63
-0.000000 -0.562304 0.325359 0.351201 -0.397202 0.847873 230 79 63
-0.105682 0.740448 0.105682 -0.222658 -0.813308 0.537544 200 228 228
-0.000000 -0.418599 0.392680 -0.351200 -0.397202 0.847873 230 79 63
-0.277666 -0.418599 0.277667 -0.351200 -0.397202 0.847873 230 79 63
-0.230063 -0.562304 0.230063 -0.351200 -0.397202 0.847873 230 79 63
-0.149457 0.740448 0.000000 -0.537544 -0.813308 0.222658 200 228 228
-0.325359 -0.562304 0.000000 -0.847873 -0.397202 0.351201 230 79 63
0.284459 -0.074321 0.284459 0.382581 -0.023184 0.923631 230 79 63
0.402286 -0.074321 -0.000000 0.923631 -0.023184 0.382581 230 79 63
0.284459 -0.074321 -0.284459 0.923631 -0.023184 -0.382581 230 79 63
0.000000 -0.201892 -0.399084 0.382581 -0.023184 -0.923631 230 79 62
-0.284459 -0.074321 -0.284459 -0.382580 -0.023184 -0.923631 230 79 63
-0.402286 -0.074321 0.000000 -0.923631 -0.023184 -0.382581 230 79 63
-0.284459 -0.074321 0.284459 -0.923631 -0.023184 0.382581 230 79 63
-0.105682 0.608306 -0.105682 -0.368396 0.270696 -0.889387 200 228 228
0.208700 0.413661 -0.000000 0.889386 0.270696 -0.368396 200 228 228
0.147573 0.413661 -0.147573 0.889386 0.270696 -0.368396 200 228 228
0.105682 0.608306 -0.105682 0.889386 0.270696 -0.368396 200 228 228
-0.000000 0.413661 0.208700 -0.368396 0.270696 0.889386 200 228 228
-0.000000 0.608306 0.149457 -0.368396 0.270696 0.889386 200 228 228
-0.105682 0.608306 0.105682 -0.368396 0.270696 0.889386 200 228 228
0.149457 0.608306 -0.000000 0.889387 0.270696 0.368396 200 228 228
0.000000 0.413661 -0.208700 0.368396 0.270696 -0.889387 200 228 228
0.000000 0.608306 -0.149457 0.368396 0.270696 -0.889387 200 228 228
0.105682 0.608306 -0.105682 0.368396 0.270696 -0.889387 200 228 228
-0.149457 0.608306 0.000000 -0.889386 0.270696 -0.368396 200 228 228
-0.147573 0.413661 0.147573 -0.889386 0.270696 0.368396 200 228 228
0.147573 0.413661 0.147573 0.368396 0.270696 0.889387 200 228 228
0.105682 0.608306 0.105682 0.368396 0.270696 0.889387 200 228 228
-0.000000 0.608306 0.149457 0.368396 0.270696 0.889387 200 228 228
-0.130859 0.869468 0.000000 -0.322320 0.937169 0.133509 200 228 228
-0.147577 0.857005 0.000000 -0.778166 0.539039 0.322327 200 228 228
-0.100036 0.865818 -0.100036 -0.322320 0.937169 -0.133509 200 228 228
-0.104353 0.857005 -0.104353 -0.778166 0.539039 -0.322327 200 228 228
0.000000 0.865818 -0.141472 -0.133509 0.937169 -0.322320 200 228 228
0.000000 0.857005 -0.147577 -0.322327 0.539039 -0.778166 200 228 228
0.092531 0.869468 -0.092531 0.133509 0.937169 -0.322320 200 228 228
0.100036 0.865818 -0.100036 0.322327 0.539039 -0.778166 200 228 228
0.141472 0.865818 -0.000000 0.322320 0.937169 -0.133509 200 228 228
0.147577 0.857005 -0.000000 0.778166 0.539039 -0.322327 200 228 228
0.092531 0.869468 0.092531 0.322320 0.937169 0.133509 200 228 228
0.104353 0.857005 0.104353 0.778166 0.539039 0.322327 200 228 228
-0.100036 0.865818 0.100036 -0.133509 0.937169 0.322320 200 228 228
-0.104353 0.857005 0.104353 -0.322327 0.539039 0.778166 200 228 228
-0.000000 0.865818 0.141472 0.133509 0.937169 0.322320 200 228 228
-0.000000 0.857005 0.147577 0.322327 0.539039 0.778166 200 228 228
-0.149457 0.848970 0.000000 -0.903016 0.211318 -0.374041 200 228 228
-0.147577 0.857005 0.000000 -0.903016 0.211318 -0.374041 200 228 228
-0.104353 0.857005 -0.104353 -0.903016 0.211318 -0.374041 200 228 228
0.000000 0.794709 -0.182664 -0.374743 0.202648 -0.904711 200 228 228
0.123155 0.832638 -0.123155 0.374743 0.202648 -0.904710 200 228 228
0.182664 0.794709 -0.000000 0.904710 0.202648 -0.374743 200 228 228
-0.000000 0.832638 0.174168 0.374743 0.202648 0.904710 200 228 228
-0.000000 0.794709 0.182664 0.374743 0.202648 0.904710 200 228 228
0.129163 0.794709 0.129163 0.374743 0.202648 0.904710 200 228 228
0.123155 0.832638 0.123155 0.904710 0.202648 0.374743 200 228 228
-0.129163 0.794709 0.129163 -0.374743 0.202648 0.904711 200 228 228
-0.182664 0.794709 0.000000 -0.904710 0.202648 0.374743 200 228 228
-0.392680 -0.418599 0.000000 -0.923630 -0.023225 0.382580 230 79 63
-0.277666 -0.418599 0.277667 -0.923630 -0.023225 0.382580 230 79 63
-0.279931 -0.291261 0.279931 -0.923630 -0.023225 0.382580 230 79 62
-0.282195 -0.201892 0.282195 -0.008998 0.999724 0.021723 230 195 0
-0.308789 -0.202709 0.308789 -0.008998 0.999724 0.021723 230 195 0
-0.000000 -0.202709 0.436693 -0.008998 0.999724 0.021723 230 195 0
-0.392680 -0.418599 0.000000 -0.923630 -0.023226 -0.382580 230 79 63
-0.395882 -0.291261 0.000000 -0.923630 -0.023226 -0.382580 230 79 62
-0.279931 -0.291261 -0.279931 -0.923630 -0.023226 -0.382580 230 79 62
-0.279931 -0.291261 0.279931 0.021723 -0.999723 -0.008998 230 195 0
-0.306525 -0.292078 0.306525 0.021723 -0.999723 -0.008998 230 195 0
-0.433491 -0.292078 0.000000 0.021723 -0.999723 -0.008998 230 195 0
-0.277666 -0.418599 -0.277667 -0.382580 -0.023225 -0.923630 230 79 63
-0.279931 -0.291261 -0.279931 -0.382580 -0.023225 -0.923630 230 79 62
0.000000 -0.291261 -0.395882 -0.382580 -0.023225 -0.923630 230 79 62
0.308789 -0.202709 -0.308789 0.008998 0.999724 -0.021723 230 195 0
0.000000 -0.418599 -0.392680 0.382580 -0.023226 -0.923630 230 79 63
0.000000 -0.291261 -0.395882 0.382580 -0.023226 -0.923630 230 79 62
0.279931 -0.291261 -0.279931 0.382580 -0.023226 -0.923630 230 79 62
-0.279931 -0.291261 0.279931 0.008998 -0.999723 -0.021723 230 195 0
-0.000000 -0.291261 0.395882 0.008998 -0.999723 -0.021723 230 195 0
-0.000000 -0.292078 0.433491 0.008998 -0.999723 -0.021723 230 195 0
0.392680 -0.418599 -0.000000 0.923630 -0.023225 -0.382580 230 79 63
0.277666 -0.418599 -0.277666 0.923630 -0.023225 -0.382580 230 79 63
0.279931 -0.291261 -0.279931 0.923630 -0.023225 -0.382580 230 79 62
0.000000 -0.291261 -0.395882 -0.008998 -0.999724 0.021723 230 195 0
0.392680 -0.418599 -0.000000 0.923630 -0.023226 0.382580 230 79 63
0.395882 -0.291261 -0.000000 0.923630 -0.023226 0.382580 230 79 62
0.279931 -0.291261 0.279931 0.923630 -0.023226 0.382580 230 79 62
-0.000000 -0.202709 0.436693 0.008998 0.999723 0.021723 230 195 0
0.279931 -0.291261 0.279931 0.382580 -0.023225 0.923630 230 79 62
0.000000 -0.202709 -0.436693 -0.008998 0.999723 -0.021723 230 195 0
-0.000000 -0.418599 0.392680 -0.382580 -0.023225 0.923630 230 79 63
0.306525 -0.292078 0.306525 -0.008998 -0.999724 -0.021723 230 195 0
-0.308789 -0.202709 0.308789 -0.923374 -0.033084 0.382474 230 195 0
-0.436693 -0.202709 0.000000 -0.923374 -0.033084 -0.382474 230 195 0
-0.308789 -0.202709 -0.308789 -0.382474 -0.033084 -0.923374 230 195 0
0.000000 -0.202709 -0.436693 0.382474 -0.033084 -0.923374 230 195 0
0.308789 -0.202709 -0.308789 0.923374 -0.033084 -0.382474 230 195 0
0.433491 -0.292078 -0.000000 0.923374 -0.033084 0.382474 230 195 0
0.306525 -0.292078 0.306525 0.382474 -0.033084 0.923374 230 195 0
-0.000000 -0.292078 0.433491 -0.382474 -0.033084 0.923374 230 195 0
0.306525 -0.292078 -0.306525 -0.021723 -0.999724 0.008998 230 195 0
-0.399084 -0.201892 0.000000 -0.021723 0.999723 0.008998 230 195 0
0.436693 -0.202709 -0.000000 0.021723 0.999724 -0.008998 230 195 0
-0.433491 -0.292078 0.000000 0.021723 -0.999724 0.008998 230 195 0
0.433491 -0.292078 -0.000000 -0.021723 -0.999724 -0.008998 230 195 0
-0.282195 -0.201892 -0.282195 -0.021723 0.999724 -0.008998 230 195 0
-0.308789 -0.202709 -0.308789 -0.021723 0.999724 -0.008998 230 195 0
-0.436693 -0.202709 0.000000 -0.021723 0.999724 -0.008998 230 195 0
0.282195 -0.201892 0.282195 0.021723 0.999724 0.008998 230 195 0
0.308789 -0.202709 0.308789 0.021723 0.999724 0.008998 230 195 0
0.436693 -0.202709 -0.000000 0.021723 0.999724 0.008998 230 195 0
0.000000 -0.291261 -0.395882 0.008998 -0.999724 0.021723 230 195 0
-0.279931 -0.291261 -0.279931 0.008998 -0.999724 0.021723 230 195 0
-0.306525 -0.292078 -0.306525 0.008998 -0.999724 0.021723 230 195 0
3 0 1 2
3 3 1 4
3 2 1 5
3 6 7 8
3 5 1 9
3 10 11 12
3 1 0 13
3 1 3 9
3 14 15 16
3 17 18 19
3 20 21 22
3 23 24 25
3 26 27 28
3 29 30 31
3 32 33 34
3 35 36 37
3 38 39 40
3 41 42 43
3 44 45 46
3 47 48 49
3 50 51 52
3 53 54 55
3 56 57 58
3 59 60 61
3 62 63 64
3 65 66 67
3 68 69 70
3 1 13 71
3 72 73 74
3 75 76 77
3 78 79 80
3 81 82 83
3 84 85 86
3 87 69 88
3 89 90 91
3 92 93 94
3 95 96 97
3 98 99 100
3 101 102 103
3 104 105 106
3 107 108 109
3 110 111 112
3 113 114 115
3 68 116 117
3 118 119 120
3 121 122 123
3 124 125 126
3 127 128 129
3 130 131 132
3 133 134 135
3 136 137 138
3 139 140 141
3 142 143 144
3 145 146 147
3 148 149 150
3 87 151 152
3 10 153 154
3 155 156 157
3 158 159 160
3 161 151 11
3 154 116 162
3 163 164 165
3 166 167 168
3 169 170 171
3 172 173 174
3 175 176 177
3 178 179 180
3 181 182 183
3 184 185 186
3 187 188 189
3 190 191 192
3 193 194 195
3 196 197 198
3 199 200 201
3 202 203 204
3 205 206 207
3 208 209 210
3 211 212 213
3 214 215 216
3 217 218 219
3 220 221 222
3 223 224 225
3 226 227 228
3 229 230 231
3 232 233 234
3 235 236 237
3 238 239 240
3 4 1 71
3 241 242 243
3 244 241 243
3 245 244 243
3 246 245 243
3 247 246 243
3 248 247 243
3 249 248 243
3 242 249 243
3 250 251 252
3 253 254 255
3 256 257 258
3 259 260 261
3 262 263 264
3 265 266 267
3 268 269 270
3 271 272 273
3 274 275 276
3 277 278 279
3 280 281 282
3 283 284 285
3 286 287 288
3 289 290 291
3 292 293 294
3 295 296 297
3 298 299 300
3 301 302 303
3 304 305 306
3 307 308 309
3 310 311 312
3 313 314 315
3 316 317 318
3 319 320 321
3 322 323 324
3 325 326 327
3 328 329 330
3 331 332 333
3 334 335 336
3 337 338 339
3 340 341 342
3 343 344 345
3 346 347 348
3 349 350 351
3 352 353 354
3 355 356 357
3 358 359 360
3 361 362 363
3 364 365 366
3 367 368 369
3 370 371 372
3 373 374 375
3 376 377 378
3 379 380 381
3 382 383 384
3 385 386 387
3 388 389 390
3 391 392 393
3 394 395 396
3 397 398 399
3 400 401 402
3 403 404 405
3 406 407 408
3 409 410 411
3 412 413 414
3 415 416 417
3 418 419 420
3 421 422 423
3 424 425 426
3 427 428 429
3 430 431 432
3 433 434 435
3 436 437 438
3 439 440 441
3 442 443 444
3 10 161 11
3 445 446 447
3 17 448 18
3 20 449 21
3 450 451 452
3 26 453 27
3 454 455 456
3 32 457 33
3 458 459 460
3 38 461 39
3 41 462 42
3 44 463 45
3 47 464 48
3 50 465 51
3 53 466 54
3 56 467 57
3 59 468 60
3 469 470 471
3 472 473 474
3 68 117 69
3 72 475 73
3 476 477 478
3 479 480 481
3 482 483 484
3 485 486 487
3 87 70 69
3 89 488 90
3 92 489 93
3 95 490 96
3 98 491 99
3 101 492 102
3 493 494 495
3 107 496 108
3 110 497 111
3 113 498 114
3 68 162 116
3 499 500 501
3 121 502 122
3 124 503 125
3 127 504 128
3 130 505 131
3 133 506 134
3 136 507 137
3 508 509 510
3 511 512 513
3 145 514 146
3 515 516 517
3 87 88 151
3 10 12 153
3 155 518 156
3 158 519 159
3 161 152 151
3 154 153 116
3 520 521 522
3 166 523 167
3 169 524 170
3 172 525 173
3 526 527 528
3 178 529 179
3 181 530 182
3 184 531 185
3 532 533 534
3 190 535 191
3 536 537 538
3 196 539 197
3 199 540 200
3 202 541 203
3 542 543 544
3 208 545 209
3 546 547 548
3 214 549 215
3 217 550 218
3 220 551 221
3 223 552 224
3 226 553 227
3 229 554 230
3 232 555 233
3 235 556 236
3 238 557 239
3 250 558 251
3 559 560 561
3 562 563 564
3 259 565 260
3 566 567 568
3 265 569 266
3 268 570 269
3 571 572 573
3 274 574 275
3 277 575 278
3 280 576 281
3 283 577 284
3 286 578 287
3 289 579 290
3 292 580 293
3 295 581 296
3 298 582 299
3 301 583 302
3 304 584 305
3 307 585 308
3 310 586 311
3 313 587 314
3 316 588 317
3 319 589 320
3 590 591 592
3 325 593 326
3 328 594 329
3 331 595 332
3 596 597 598
3 337 599 338
3 340 600 341
3 343 601 344
3 602 603 604
3 605 606 607
3 608 609 610
3 611 612 613
3 614 615 616
3 361 617 362
3 618 619 620
3 621 622 623
3 624 625 626
3 373 627 374
3 628 629 630
3 379 631 380
3 382 632 383
3 385 633 386
3 388 634 389
3 391 635 392
3 394 636 395
3 397 637 398
3 400 638 401
3 403 639 404
3 406 640 407
3 409 641 410
3 412 642 413
3 415 643 416
3 418 644 419
3 421 645 422
3 424 646 425
3 427 647 428
3 430 648 431
3 649 650 651
3 652 653 654
3 655 656 657
