ply
format ascii 1.0
comment Created by Blender 2.77 (sub 0) - www.blender.org, source file: 'WitchHut0-Colliders.blend'
element vertex 8
property float x
property float y
property float z
property float nx
property float ny
property float nz
element face 12
property list uchar uint vertex_indices
end_header
-0.161250 7.250000 0.061175 -0.428846 0.671987 -0.603717
-0.323777 6.900000 0.636176 -0.699576 -0.446455 0.557848
-0.161250 7.250000 0.636176 -0.428846 0.671987 0.603717
6.072250 7.250000 0.636176 0.425764 0.673421 0.604297
6.238389 6.900000 0.061175 0.701651 -0.443617 -0.557543
6.072250 7.250000 0.061175 0.425764 0.673421 -0.604297
-0.323777 6.900000 0.061175 -0.699576 -0.446455 -0.557848
6.238389 6.900000 0.636176 0.701651 -0.443617 0.557543
3 0 1 2
3 3 0 2
3 3 4 5
3 5 6 0
3 3 1 7
3 7 6 4
3 0 6 1
3 3 5 0
3 3 7 4
3 5 4 6
3 3 2 1
3 7 1 6
