ply
format ascii 1.0
comment Created by Blender 2.77 (sub 0) - www.blender.org, source file: 'WitchHut0-Colliders.blend'
element vertex 8
property float x
property float y
property float z
property float nx
property float ny
property float nz
element face 12
property list uchar uint vertex_indices
end_header
-1.810133 3.359414 16.224998 0.278481 -0.767510 0.577349
-2.104805 3.497182 10.624999 -0.768609 -0.276131 -0.577013
-1.810133 3.359413 10.624999 0.278481 -0.767510 -0.577349
-1.938959 3.846150 16.224998 -0.275979 0.768181 0.577654
-2.104805 3.497183 16.224998 -0.768609 -0.276131 0.577013
-1.646496 3.709413 10.624999 0.767510 0.278481 -0.577349
-1.646496 3.709414 16.224998 0.767510 0.278481 0.577349
-1.938959 3.846149 10.624999 -0.275979 0.768181 -0.577654
3 0 1 2
3 0 3 4
3 0 5 6
3 3 5 7
3 4 7 1
3 2 7 5
3 0 4 1
3 0 6 3
3 0 2 5
3 3 6 5
3 4 3 7
3 2 1 7
