ply
format ascii 1.0
comment Created by Blender 2.77 (sub 0) - www.blender.org, source file: 'WitchHut0-Colliders.blend'
element vertex 8
property float x
property float y
property float z
property float nx
property float ny
property float nz
element face 12
property list uchar uint vertex_indices
end_header
8.300000 1.411038 3.575000 0.594867 -0.540605 0.594867
7.925000 1.411038 2.675000 -0.594867 -0.540605 -0.594867
8.300000 1.411038 2.675000 0.594867 -0.540605 -0.594867
7.925000 1.411038 3.575000 -0.594867 -0.540605 0.594867
7.975000 2.123538 2.725000 -0.558123 0.613971 -0.558123
8.250000 2.123538 2.725000 0.558123 0.613971 -0.558123
8.250000 2.123538 3.525000 0.558123 0.613971 0.558123
7.975000 2.123538 3.525000 -0.558123 0.613971 0.558123
3 0 1 2
3 3 4 1
3 0 5 6
3 4 6 5
3 0 7 3
3 2 4 5
3 0 3 1
3 3 7 4
3 0 2 5
3 4 7 6
3 0 6 7
3 2 1 4
