ply
format ascii 1.0
comment Created by Blender 2.77 (sub 0) - www.blender.org, source file: 'WitchHut0-Colliders.blend'
element vertex 8
property float x
property float y
property float z
property float nx
property float ny
property float nz
element face 12
property list uchar uint vertex_indices
end_header
3.050000 2.250002 10.220084 0.542467 0.618275 -0.568682
2.725000 2.200002 10.570085 -0.615101 0.527696 0.585803
3.050000 2.250002 10.570085 0.542467 0.618275 0.568682
2.725000 2.200002 10.220084 -0.615101 0.527696 -0.585803
3.000000 0.000002 10.220084 0.570299 -0.583117 -0.578509
2.725000 0.000002 10.220084 -0.577349 -0.577349 -0.577349
3.000000 0.000002 10.570085 0.570299 -0.583117 0.578509
2.725000 0.000002 10.570085 -0.577349 -0.577349 0.577349
3 0 1 2
3 3 4 5
3 1 6 2
3 0 6 4
3 4 7 5
3 7 3 5
3 0 3 1
3 3 0 4
3 1 7 6
3 0 2 6
3 4 6 7
3 7 1 3
