ply
format ascii 1.0
comment Created by Blender 2.77 (sub 0) - www.blender.org, source file: 'WitchHut0-Colliders.blend'
element vertex 8
property float x
property float y
property float z
property float nx
property float ny
property float nz
element face 12
property list uchar uint vertex_indices
end_header
-5.596288 0.350001 6.890418 0.794488 -0.577319 -0.188238
-5.838232 0.350001 7.092155 -0.794488 -0.577319 0.188238
-5.681397 0.350001 6.837916 -0.188238 -0.577349 -0.794488
-5.596288 3.350001 6.890417 0.794488 0.577349 -0.188238
-5.681397 3.350001 6.837915 -0.188238 0.577349 -0.794488
-5.838232 3.350001 7.092154 -0.794488 0.577349 0.188238
-5.753122 0.350001 7.144657 0.188238 -0.577349 0.794488
-5.753122 3.350001 7.144656 0.188238 0.577319 0.794488
3 0 1 2
3 3 2 4
3 5 6 7
3 3 5 7
3 5 2 1
3 3 6 0
3 0 6 1
3 3 0 2
3 5 1 6
3 3 4 5
3 5 4 2
3 3 7 6
