ply
format ascii 1.0
comment Created by Blender 2.77 (sub 0) - www.blender.org, source file: 'WitchHut0-Colliders.blend'
element vertex 14
property float x
property float y
property float z
property float nx
property float ny
property float nz
element face 24
property list uchar uint vertex_indices
end_header
0.150000 3.050000 0.500000 0.076266 -0.725181 0.684286
0.176521 3.300000 0.500000 0.593799 0.550157 0.587115
-0.275000 3.050000 0.500000 -0.087344 -0.726829 0.681204
-0.281550 3.051598 -0.263826 -0.629505 -0.496292 -0.597797
-0.275000 3.050000 -0.263826 -0.087344 -0.726829 -0.681204
-0.279074 3.362500 -0.138826 -0.659352 0.751701 0.013092
-0.275073 3.362500 -0.263826 -0.558580 0.584765 -0.588183
-0.305858 3.300000 0.500000 -0.599475 0.538041 0.592517
-0.298826 3.055812 0.500000 -0.632740 -0.504501 0.587420
0.150000 3.050000 -0.075684 0.714042 -0.698935 -0.039857
0.139457 3.050000 -0.263826 0.566637 -0.574419 -0.590686
0.139287 3.362500 -0.138826 0.687948 0.725730 -0.002625
0.132282 3.362500 -0.263826 0.552263 0.586138 -0.592761
0.182104 3.056831 0.500000 0.651082 -0.496689 0.573901
3 0 1 2
3 2 3 4
3 5 6 7
3 7 3 8
3 4 9 2
3 9 10 11
3 7 11 5
3 6 12 4
3 5 12 6
3 0 9 13
3 7 8 2
3 2 1 7
3 13 1 0
3 2 8 3
3 7 6 3
3 0 2 9
3 4 10 9
3 11 1 9
3 13 9 1
3 10 12 11
3 7 1 11
3 10 4 12
3 3 6 4
3 5 11 12
