ply
format ascii 1.0
comment Created by Blender 2.77 (sub 0) - www.blender.org, source file: 'WitchHut0-Colliders.blend'
element vertex 8
property float x
property float y
property float z
property float nx
property float ny
property float nz
element face 12
property list uchar uint vertex_indices
end_header
-3.050000 0.979167 2.850000 -0.577349 0.577349 0.577349
-2.350000 -0.020833 2.850000 0.577349 -0.577349 0.577349
-2.350000 0.979167 2.850000 0.577349 0.577349 0.577349
-3.050000 -0.020833 2.850000 -0.577349 -0.577349 0.577349
-3.050000 0.979167 1.500000 -0.577349 0.577349 -0.577349
-3.050000 -0.020833 1.500000 -0.577349 -0.577349 -0.577349
-2.350000 0.979167 1.500000 0.577349 0.577349 -0.577349
-2.350000 -0.020833 1.500000 0.577349 -0.577349 -0.577349
3 0 1 2
3 3 4 5
3 6 5 4
3 1 5 7
3 1 6 2
3 4 2 6
3 0 3 1
3 3 0 4
3 6 7 5
3 1 3 5
3 1 7 6
3 4 0 2
