ply
format ascii 1.0
comment Created by Blender 2.77 (sub 0) - www.blender.org, source file: 'WitchHut0-Colliders.blend'
element vertex 26
property float x
property float y
property float z
property float nx
property float ny
property float nz
element face 48
property list uchar uint vertex_indices
end_header
4.550000 0.024999 -8.200000 -0.041993 0.249123 -0.967528
4.425000 -0.000001 -8.025000 -0.662069 -0.673208 -0.329295
4.425000 0.024999 -8.025000 -0.881161 0.177313 -0.438276
4.362500 -0.000001 -7.825000 -0.769860 -0.636921 0.040193
4.362500 0.024999 -7.825000 -0.967681 0.240455 0.075686
4.414427 0.124999 -7.865443 -0.695486 0.716880 -0.048311
4.459003 0.124999 -8.008086 -0.593463 0.743675 -0.307688
4.550274 0.124999 -8.135866 -0.048158 0.745445 -0.664785
4.808485 0.249999 -7.157979 -0.126804 0.811121 0.570910
4.857804 0.287499 -7.277086 0.027223 0.997589 0.063387
4.737500 0.249999 -7.190245 -0.538011 0.709159 0.455611
4.988785 0.249999 -7.283568 0.360149 0.932676 0.019166
4.950239 0.249999 -7.392781 0.336192 0.899899 -0.277688
4.437500 0.024999 -7.650000 -0.911924 0.112247 0.394635
4.486538 0.124999 -7.641670 -0.812983 0.496658 0.303903
4.675000 0.024999 -7.150000 -0.735191 0.155095 0.659841
4.675000 -0.000001 -7.150000 -0.563738 -0.647114 0.513230
5.400000 0.024999 -6.887500 0.590045 0.490402 0.641316
5.462500 -0.000001 -7.062500 0.758690 -0.649709 0.047212
5.462500 0.024999 -7.062500 0.862392 0.502029 0.064882
5.437500 -0.000001 -7.175000 0.674306 -0.655873 -0.339244
5.437500 0.024999 -7.175000 0.807550 0.458510 -0.370922
4.550000 -0.000001 -8.200000 -0.038453 -0.565905 -0.823542
5.199999 0.024999 -6.837500 -0.079836 0.439467 0.894681
5.400000 -0.000001 -6.887500 0.529710 -0.614704 0.584368
5.199999 -0.000001 -6.837500 -0.112888 -0.630543 0.767876
3 0 1 2
3 2 3 4
3 2 5 6
3 2 7 0
3 8 9 10
3 9 11 12
3 5 13 14
3 14 15 10
3 14 10 5
3 3 16 13
3 6 12 7
3 9 5 10
3 17 18 19
3 19 20 21
3 0 20 22
3 23 24 17
3 17 19 11
3 16 22 20
3 21 11 19
3 15 23 10
3 23 8 10
3 17 11 9
3 12 21 7
3 21 0 7
3 16 23 15
3 9 23 17
3 0 22 1
3 2 1 3
3 2 4 5
3 2 6 7
3 5 4 13
3 14 13 15
3 15 13 16
3 4 3 13
3 6 9 12
3 9 6 5
3 17 24 18
3 19 18 20
3 0 21 20
3 23 25 24
3 22 16 3
3 18 24 25
3 25 16 20
3 3 1 22
3 20 18 25
3 21 12 11
3 16 25 23
3 9 8 23
