ply
format ascii 1.0
comment Created by Blender 2.77 (sub 0) - www.blender.org, source file: 'WitchHut0-Colliders.blend'
element vertex 8
property float x
property float y
property float z
property float nx
property float ny
property float nz
element face 12
property list uchar uint vertex_indices
end_header
5.800000 6.899999 0.109830 -0.577349 -0.577349 0.577349
6.200000 6.899999 -1.640170 0.577349 -0.577349 -0.577349
6.200000 6.899999 0.109830 0.577349 -0.577349 0.577349
6.200000 7.299999 -1.640170 0.577349 0.577349 -0.577349
5.800000 6.899999 -1.640170 -0.577349 -0.577349 -0.577349
5.800000 7.299999 -1.640170 -0.577349 0.577349 -0.577349
6.200000 7.300000 0.109830 0.577349 0.577349 0.577349
5.800000 7.300000 0.109830 -0.577349 0.577349 0.577349
3 0 1 2
3 3 4 5
3 0 5 4
3 6 5 7
3 2 3 6
3 2 7 0
3 0 4 1
3 3 1 4
3 0 7 5
3 6 3 5
3 2 1 3
3 2 6 7
