ply
format ascii 1.0
comment Created by Blender 2.77 (sub 0) - www.blender.org, source file: 'WitchHut0-Colliders.blend'
element vertex 16
property float x
property float y
property float z
property float nx
property float ny
property float nz
element face 28
property list uchar uint vertex_indices
end_header
-6.335547 0.118282 0.193390 0.112156 0.989654 0.089175
-6.018750 -0.009529 0.650000 0.657918 -0.090823 0.747581
-5.850000 -0.009529 0.200000 0.979797 -0.117222 0.161840
-6.335510 0.118428 -9.268148 0.111820 0.989319 -0.093387
-5.850000 -0.009530 -9.275000 0.978851 -0.117038 -0.167638
-6.018750 -0.009530 -9.706250 0.653005 -0.093204 -0.751579
-10.900001 -0.009529 0.650000 -0.666066 -0.092898 0.740043
-10.638001 0.112791 0.192619 -0.129002 0.987976 0.084902
-11.050000 -0.009529 0.200000 -0.980255 -0.132267 0.146825
-10.450001 -0.009529 0.800000 -0.119663 -0.094455 0.988281
-6.525000 -0.009529 0.800000 0.104617 -0.098788 0.989563
-11.050000 -0.009530 -9.275000 -0.979461 -0.132084 -0.152226
-10.638047 0.112951 -9.267348 -0.128666 0.987671 -0.088870
-10.900001 -0.009530 -9.706250 -0.661031 -0.095401 -0.744255
-6.525000 -0.009530 -9.850000 0.099826 -0.103214 -0.989624
-10.450001 -0.009530 -9.850000 -0.114353 -0.098727 -0.988495
3 0 1 2
3 3 2 4
3 3 4 5
3 6 7 8
3 9 10 7
3 11 12 13
3 0 12 7
3 12 8 7
3 4 2 11
3 3 14 12
3 3 0 2
3 0 7 10
3 6 9 7
3 10 1 0
3 0 3 12
3 12 11 8
3 6 8 9
3 11 13 15
3 15 14 11
3 5 4 14
3 2 1 10
3 10 9 8
3 8 11 2
3 14 4 11
3 2 10 8
3 13 12 15
3 3 5 14
3 14 15 12
