ply
format ascii 1.0
comment Created by Blender 2.77 (sub 0) - www.blender.org, source file: 'WitchHut0-Colliders.blend'
element vertex 8
property float x
property float y
property float z
property float nx
property float ny
property float nz
element face 12
property list uchar uint vertex_indices
end_header
-1.473883 1.262502 11.412501 -0.576128 0.576128 0.579730
-1.411383 1.200002 11.412501 0.576128 -0.576128 0.579730
-1.411383 1.262502 11.412501 0.576128 0.576128 0.579730
-1.488117 1.276736 8.275001 -0.578509 0.578509 -0.574969
-1.397146 1.276736 8.275001 0.578509 0.578509 -0.574969
-1.488117 1.185766 8.275001 -0.578509 -0.578509 -0.574969
-1.473883 1.200002 11.412501 -0.576128 -0.576128 0.579730
-1.397146 1.185766 8.275001 0.578509 -0.578509 -0.574969
3 0 1 2
3 3 2 4
3 4 5 3
3 1 4 2
3 3 6 0
3 5 1 6
3 0 6 1
3 3 0 2
3 4 7 5
3 1 7 4
3 3 5 6
3 5 7 1
