ply
format ascii 1.0
comment Created by Blender 2.77 (sub 0) - www.blender.org, source file: 'WitchHut0-Colliders.blend'
element vertex 8
property float x
property float y
property float z
property float nx
property float ny
property float nz
element face 12
property list uchar uint vertex_indices
end_header
-5.752129 0.022630 -11.623042 0.575488 -0.396222 0.715384
-5.839629 -0.000017 -11.707561 -0.579211 -0.713065 -0.394940
-5.752129 -0.000017 -11.707561 0.579241 -0.713065 -0.394940
-5.839629 0.022630 -11.623042 -0.575488 -0.396222 0.715384
-5.752129 2.562296 -12.401268 0.579241 0.713065 0.394940
-5.839629 2.562296 -12.401268 -0.579241 0.713065 0.394940
-5.839629 2.539649 -12.485786 -0.575488 0.396222 -0.715384
-5.752129 2.539649 -12.485786 0.575488 0.396222 -0.715384
3 0 1 2
3 0 3 1
3 4 3 0
3 4 5 3
3 6 4 7
3 5 4 6
3 1 7 2
3 6 7 1
3 5 6 1
3 3 5 1
3 4 0 2
3 7 4 2
