ply
format ascii 1.0
comment Created by Blender 2.77 (sub 0) - www.blender.org, source file: 'WitchHut0-Colliders.blend'
element vertex 8
property float x
property float y
property float z
property float nx
property float ny
property float nz
element face 12
property list uchar uint vertex_indices
end_header
7.750000 3.950000 0.109830 0.577349 0.577349 0.577349
7.350000 3.950000 -1.440170 -0.577349 0.577349 -0.577349
7.350000 3.950000 0.109830 -0.577349 0.577349 0.577349
7.750000 3.950000 -1.440170 0.577349 0.577349 -0.577349
7.350000 3.549999 -1.440170 -0.577349 -0.577349 -0.577349
7.350000 3.549999 0.109830 -0.577349 -0.577349 0.577349
7.750000 3.549999 -1.440170 0.577349 -0.577349 -0.577349
7.750000 3.549999 0.109830 0.577349 -0.577349 0.577349
3 0 1 2
3 3 4 1
3 5 1 4
3 5 6 7
3 7 3 0
3 7 2 5
3 0 3 1
3 3 6 4
3 5 2 1
3 5 4 6
3 7 6 3
3 7 0 2
