ply
format ascii 1.0
comment Created by Blender 2.77 (sub 0) - www.blender.org, source file: 'WitchHut0-Colliders.blend'
element vertex 8
property float x
property float y
property float z
property float nx
property float ny
property float nz
element face 12
property list uchar uint vertex_indices
end_header
-0.000000 7.100003 16.640167 -0.577349 0.577349 -0.577349
-0.000000 6.700002 18.390167 -0.577349 -0.577349 0.577349
-0.000000 7.100003 18.390167 -0.577349 0.577349 0.577349
0.400000 6.700002 18.390167 0.577349 -0.577349 0.577349
-0.000000 6.700002 16.640167 -0.577349 -0.577349 -0.577349
0.400000 6.700002 16.640167 0.577349 -0.577349 -0.577349
0.400000 7.100003 18.390167 0.577349 0.577349 0.577349
0.400000 7.100003 16.640167 0.577349 0.577349 -0.577349
3 0 1 2
3 3 4 5
3 6 5 7
3 2 3 6
3 5 0 7
3 0 6 7
3 0 4 1
3 3 1 4
3 6 3 5
3 2 1 3
3 5 4 0
3 0 2 6
