ply
format ascii 1.0
comment Created by Blender 2.77 (sub 0) - www.blender.org, source file: 'WitchHut0-Colliders.blend'
element vertex 10
property float x
property float y
property float z
property float nx
property float ny
property float nz
element face 16
property list uchar uint vertex_indices
end_header
-1.728862 0.562501 5.400001 -0.558336 -0.555254 0.616352
-1.303863 0.537501 4.812501 0.586871 -0.605640 -0.537339
-1.328863 0.562501 5.400001 0.558336 -0.555254 0.616352
-1.278864 3.412501 5.250000 0.585772 0.586077 0.559771
-1.778864 3.412501 5.150000 -0.708518 0.702780 -0.063662
-1.778864 3.412501 5.250000 -0.585772 0.586077 0.559771
-1.728862 3.362501 4.650000 -0.544328 0.534837 -0.646229
-1.278864 3.412501 5.150000 0.708518 0.702780 -0.063662
-1.328863 3.362501 4.650000 0.544328 0.534837 -0.646229
-1.753864 0.537501 4.812501 -0.586871 -0.605640 -0.537339
3 0 1 2
3 3 0 2
3 4 0 5
3 6 7 8
3 4 3 7
3 4 6 9
3 7 2 1
3 6 1 9
3 7 1 8
3 0 9 1
3 3 5 0
3 4 9 0
3 6 4 7
3 4 5 3
3 7 3 2
3 6 8 1
