ply
format ascii 1.0
comment Created by Blender 2.77 (sub 0) - www.blender.org, source file: 'WitchHut0-Colliders.blend'
element vertex 8
property float x
property float y
property float z
property float nx
property float ny
property float nz
element face 12
property list uchar uint vertex_indices
end_header
9.252611 0.350000 -0.263825 0.425764 0.673421 -0.604297
1.325000 0.000000 -0.263825 -0.577349 -0.577349 -0.577349
1.325000 0.350000 -0.263825 -0.577349 0.577349 -0.577349
9.252611 0.350000 0.463825 0.425764 0.673421 0.604297
9.418749 0.000000 -0.263825 0.701651 -0.443617 -0.557543
1.325000 0.350000 0.463825 -0.577349 0.577349 0.577349
1.325000 0.000000 0.463825 -0.577349 -0.577349 0.577349
9.418749 0.000000 0.463825 0.701651 -0.443617 0.557543
3 0 1 2
3 3 4 0
3 3 2 5
3 6 3 5
3 1 7 6
3 1 5 2
3 0 4 1
3 3 7 4
3 3 0 2
3 6 7 3
3 1 4 7
3 1 6 5
