ply
format ascii 1.0
comment Created by Blender 2.77 (sub 0) - www.blender.org, source file: 'WitchHut0-Colliders.blend'
element vertex 8
property float x
property float y
property float z
property float nx
property float ny
property float nz
element face 12
property list uchar uint vertex_indices
end_header
-3.435000 0.200003 16.913824 -0.699576 -0.446455 0.557848
9.418749 0.200003 16.738825 0.701651 -0.443617 -0.557543
9.418749 0.200003 16.913824 0.701651 -0.443617 0.557543
9.252611 0.550003 16.913824 0.425764 0.673421 0.604297
-3.272473 0.550003 16.738825 -0.428846 0.671987 -0.603717
-3.272473 0.550003 16.913824 -0.428846 0.671987 0.603717
-3.435000 0.200003 16.738825 -0.699576 -0.446455 -0.557848
9.252611 0.550003 16.738825 0.425764 0.673421 -0.604297
3 0 1 2
3 3 4 5
3 6 7 1
3 4 0 5
3 3 0 2
3 7 2 1
3 0 6 1
3 3 7 4
3 6 4 7
3 4 6 0
3 3 5 0
3 7 3 2
