ply
format ascii 1.0
comment Created by Blender 2.77 (sub 0) - www.blender.org, source file: 'WitchHut0-Colliders.blend'
element vertex 40
property float x
property float y
property float z
property float nx
property float ny
property float nz
element face 76
property list uchar uint vertex_indices
end_header
-12.143750 1.750323 -10.575000 0.000000 0.633869 0.773400
-12.073438 1.750323 -10.599999 0.568926 0.613788 0.547288
-12.050000 1.750323 -10.674999 0.767724 0.640767 0.000000
-12.214063 1.750323 -10.599999 -0.568926 0.613788 0.547288
-12.237500 1.750323 -10.674999 -0.767724 0.640767 0.000000
-12.073438 1.750323 -10.749999 0.568926 0.613788 -0.547319
-12.143750 1.750323 -10.775000 0.000000 0.633869 -0.773400
-12.214063 1.750323 -10.749999 -0.568926 0.613788 -0.547319
-12.237500 -0.005037 -10.674999 -0.763543 -0.645711 0.000000
-12.143750 -0.005037 -10.575000 0.000000 -0.638905 0.769280
-12.214063 -0.005037 -10.599999 -0.565996 -0.619007 0.544481
-12.073438 -0.005037 -10.599999 0.565996 -0.619007 0.544481
-12.050000 -0.005037 -10.674999 0.763543 -0.645711 0.000000
-12.214063 -0.005037 -10.749999 -0.565966 -0.619007 -0.544481
-12.143750 -0.005037 -10.775000 0.000000 -0.638874 -0.769280
-12.073438 -0.005037 -10.749999 0.565966 -0.619007 -0.544481
-12.231552 1.347978 -10.674999 -0.999969 0.005127 0.000000
-12.210039 1.347979 -10.746127 -0.721061 0.005402 -0.692831
-12.243454 0.872643 -10.674999 -0.999969 0.005799 0.000000
-12.218084 0.872643 -10.753868 -0.720145 0.006043 -0.693777
-12.210039 1.347979 -10.603872 -0.721061 0.005402 0.692831
-12.218084 0.872643 -10.596131 -0.720145 0.006043 0.693777
-12.143750 1.347979 -10.769127 0.000000 0.005066 -0.999969
-12.143750 0.872643 -10.780876 0.000000 0.005829 -0.999969
-12.143750 0.872643 -10.569122 0.000000 0.005829 0.999969
-12.143750 1.347980 -10.580872 0.000000 0.005066 0.999969
-12.077462 1.347979 -10.746127 0.721061 0.005402 -0.692801
-12.069417 0.872643 -10.753868 0.720145 0.006043 -0.693777
-12.077462 1.347979 -10.603872 0.721061 0.005402 0.692801
-12.069417 0.872643 -10.596131 0.720145 0.006043 0.693747
-12.044047 0.872643 -10.674999 0.999969 0.005799 0.000000
-12.055949 1.347978 -10.674999 0.999969 0.005127 0.000000
-12.073438 0.378948 -10.749999 0.720603 -0.006287 -0.693289
-12.143750 0.378948 -10.775000 0.000000 -0.005951 -0.999969
-12.214063 0.378948 -10.749999 -0.720603 -0.006287 -0.693289
-12.050000 0.378948 -10.674999 0.999969 -0.006012 0.000000
-12.073438 0.378948 -10.599999 0.720603 -0.006287 0.693289
-12.237500 0.378948 -10.674999 -0.999969 -0.006012 0.000000
-12.214063 0.378948 -10.599999 -0.720603 -0.006287 0.693289
-12.143750 0.378948 -10.575000 0.000000 -0.005951 0.999969
3 0 1 2
3 3 0 2
3 4 3 2
3 4 2 5
3 4 5 6
3 7 4 6
3 8 9 10
3 9 8 11
3 8 12 11
3 12 8 13
3 12 14 15
3 14 12 13
3 16 17 18
3 18 17 19
3 20 16 18
3 21 20 18
3 17 22 23
3 19 17 23
3 24 20 21
3 25 20 24
3 26 27 23
3 22 26 23
3 28 25 24
3 28 24 29
3 28 29 30
3 31 28 30
3 26 31 30
3 26 30 27
3 4 17 16
3 4 7 17
3 3 4 20
3 20 4 16
3 7 6 17
3 6 22 17
3 25 0 20
3 0 3 20
3 6 5 26
3 22 6 26
3 1 0 28
3 0 25 28
3 2 1 28
3 2 28 31
3 5 2 26
3 26 2 31
3 23 27 32
3 23 32 33
3 14 32 15
3 33 32 14
3 19 23 34
3 34 23 33
3 34 14 13
3 34 33 14
3 30 35 32
3 27 30 32
3 32 12 15
3 32 35 12
3 30 29 36
3 30 36 35
3 12 36 11
3 35 36 12
3 37 18 34
3 18 19 34
3 8 34 13
3 37 34 8
3 21 18 38
3 38 18 37
3 38 8 10
3 38 37 8
3 29 24 36
3 24 39 36
3 36 9 11
3 36 39 9
3 39 24 38
3 24 21 38
3 9 38 10
3 39 38 9
