ply
format ascii 1.0
comment Created by Blender 2.77 (sub 0) - www.blender.org, source file: 'WitchHut0-Colliders.blend'
element vertex 8
property float x
property float y
property float z
property float nx
property float ny
property float nz
element face 12
property list uchar uint vertex_indices
end_header
-1.400000 0.197158 14.525000 -0.533189 -0.577044 0.618610
-0.800000 0.197158 13.800000 0.543107 -0.579211 -0.607837
-0.750000 0.197158 14.475000 0.619068 -0.577471 0.532151
-0.800000 0.797158 13.800000 0.543107 0.579211 -0.607837
-1.400000 0.797158 14.525000 -0.533189 0.577044 0.618610
-1.450000 0.797158 13.825000 -0.609027 0.575640 -0.545610
-0.750000 0.797158 14.475000 0.619068 0.577471 0.532151
-1.450000 0.197158 13.825000 -0.609027 -0.575640 -0.545610
3 0 1 2
3 3 2 1
3 4 3 5
3 0 6 4
3 5 0 4
3 1 5 3
3 0 7 1
3 3 6 2
3 4 6 3
3 0 2 6
3 5 7 0
3 1 7 5
