ply
format ascii 1.0
comment Created by Blender 2.77 (sub 0) - www.blender.org, source file: 'WitchHut0-Colliders.blend'
element vertex 8
property float x
property float y
property float z
property float nx
property float ny
property float nz
element face 12
property list uchar uint vertex_indices
end_header
6.509629 6.869055 6.374999 0.768364 -0.275155 -0.577807
6.000979 7.055844 6.374999 -0.769921 0.271737 -0.577349
6.345458 7.220597 6.374999 0.275399 0.769005 -0.576861
6.000979 7.055845 10.124999 -0.769921 0.271737 0.577349
6.509629 6.869056 10.124999 0.768364 -0.275155 0.577807
6.345458 7.220598 10.124999 0.275369 0.769005 0.576861
6.168373 6.705844 6.374999 -0.271737 -0.769921 -0.577349
6.168373 6.705845 10.124999 -0.271737 -0.769921 0.577349
3 0 1 2
3 3 4 5
3 4 6 0
3 3 2 1
3 1 7 3
3 4 2 5
3 0 6 1
3 3 7 4
3 4 7 6
3 3 5 2
3 1 6 7
3 4 0 2
