ply
format ascii 1.0
comment Created by Blender 2.77 (sub 0) - www.blender.org, source file: 'WitchHut0-Colliders.blend'
element vertex 8
property float x
property float y
property float z
property float nx
property float ny
property float nz
element face 12
property list uchar uint vertex_indices
end_header
9.818874 -0.249997 17.519461 0.577349 -0.577349 0.577349
9.818874 -0.000000 -0.959275 0.577349 0.577349 -0.577349
9.818874 0.000003 17.519461 0.577349 0.577349 0.577349
-3.806100 -0.000000 -0.959275 -0.577349 0.577349 -0.577349
-3.806100 -0.249997 17.519461 -0.577349 -0.577349 0.577349
-3.806100 0.000003 17.519461 -0.577349 0.577349 0.577349
9.818874 -0.250000 -0.959275 0.577349 -0.577349 -0.577349
-3.806100 -0.250000 -0.959275 -0.577349 -0.577349 -0.577349
3 0 1 2
3 3 4 5
3 2 3 5
3 5 0 2
3 3 6 7
3 7 0 4
3 0 6 1
3 3 7 4
3 2 1 3
3 5 4 0
3 3 1 6
3 7 6 0
