ply
format ascii 1.0
comment Created by Blender 2.77 (sub 0) - www.blender.org, source file: 'WitchHut0-Colliders.blend'
element vertex 12
property float x
property float y
property float z
property float nx
property float ny
property float nz
element face 20
property list uchar uint vertex_indices
end_header
-4.512113 9.371661 7.199916 -0.596118 0.603046 -0.530015
-2.720809 9.385499 9.100082 0.478469 0.690451 0.542497
-2.720807 9.385498 7.199916 0.478439 0.690451 -0.542497
-4.512113 9.371662 9.100082 -0.596088 0.603168 0.529954
-4.420283 5.845293 6.798052 -0.677206 -0.640034 -0.362957
-4.420232 5.859309 9.536684 -0.678823 -0.635517 0.367779
-4.344960 5.887239 9.606651 -0.271126 -0.434980 0.858638
-4.307591 5.887109 6.693300 -0.268593 -0.436964 -0.858425
-1.658786 5.909913 9.535704 0.785455 -0.509964 0.350658
-1.738784 5.924955 9.611366 0.349895 -0.439222 0.827418
-1.659253 5.912418 6.757853 0.786279 -0.508316 -0.351146
-1.731975 5.926095 6.689070 0.351177 -0.437239 -0.827906
3 0 1 2
3 3 4 5
3 6 3 5
3 2 7 0
3 8 2 1
3 1 6 9
3 0 7 4
3 4 8 5
3 10 4 11
3 4 7 11
3 9 5 8
3 1 9 8
3 2 10 11
3 9 6 5
3 0 3 1
3 3 0 4
3 2 11 7
3 8 10 2
3 1 3 6
3 4 10 8
