ply
format ascii 1.0
comment Created by Blender 2.77 (sub 0) - www.blender.org, source file: 'WitchHut0-Colliders.blend'
element vertex 26
property float x
property float y
property float z
property float nx
property float ny
property float nz
element face 48
property list uchar uint vertex_indices
end_header
6.125000 0.024998 -9.724999 0.930784 0.096255 -0.352641
6.000000 -0.000002 -9.849999 0.259926 -0.621479 -0.739006
6.000000 0.024998 -9.849999 0.331339 0.090457 -0.939146
5.975000 0.024998 -9.362499 0.382702 0.101474 0.918271
6.112500 -0.000002 -9.500000 0.705283 -0.634877 0.315317
6.112500 0.024998 -9.500000 0.908811 0.097903 0.405469
5.830486 0.648830 -9.604667 -0.119114 0.991119 -0.059053
5.929027 0.558595 -9.456796 0.271767 0.574328 0.772179
6.012455 0.555017 -9.540224 0.756523 0.564989 0.329295
5.717048 0.561952 -9.530528 -0.348796 0.774499 0.527696
5.963040 0.555034 -9.757420 0.234321 0.572039 -0.786004
6.021286 0.554914 -9.699175 0.763329 0.572375 -0.299448
6.125000 -0.000002 -9.724999 0.728629 -0.625721 -0.278390
5.200000 0.024998 -9.762500 -0.476455 0.134770 -0.868770
5.075000 -0.000002 -9.612499 -0.776940 -0.612232 -0.146580
5.075000 0.024998 -9.612499 -0.972045 0.146550 -0.183386
5.257314 0.249998 -9.420239 -0.309915 0.476058 0.822962
5.137500 0.024998 -9.424999 -0.787042 0.138340 0.601154
5.250000 0.024998 -9.349999 -0.274239 0.145360 0.950591
5.250000 -0.000002 -9.349999 -0.214942 -0.645772 0.732627
5.145302 0.249998 -9.599235 -0.806207 0.573962 -0.143437
5.137500 -0.000002 -9.424999 -0.610065 -0.640828 0.465957
5.222900 0.249998 -9.692351 -0.491501 0.516251 -0.701315
5.975000 -0.000002 -9.362499 0.302805 -0.631672 0.713614
5.200000 -0.000002 -9.762500 -0.366497 -0.631764 -0.683004
5.190012 0.249998 -9.465108 -0.668599 0.561724 0.487197
3 0 1 2
3 3 4 5
3 6 7 8
3 6 9 7
3 10 6 11
3 6 8 11
3 5 12 0
3 2 11 0
3 8 3 5
3 2 13 10
3 0 8 5
3 13 14 15
3 16 17 18
3 17 19 18
3 17 20 15
3 15 21 17
3 22 15 20
3 3 19 23
3 2 24 13
3 3 16 18
3 4 23 1
3 22 20 6
3 20 25 6
3 25 9 6
3 25 16 9
3 16 7 9
3 22 10 13
3 0 12 1
3 3 23 4
3 5 4 12
3 2 10 11
3 8 7 3
3 0 11 8
3 13 24 14
3 16 25 17
3 17 21 19
3 17 25 20
3 15 14 21
3 22 13 15
3 3 18 19
3 2 1 24
3 3 7 16
3 21 14 24
3 24 1 23
3 12 4 1
3 23 19 24
3 21 24 19
3 22 6 10
