ply
format ascii 1.0
comment Created by Blender 2.77 (sub 0) - www.blender.org, source file: 'WitchHut0-Colliders.blend'
element vertex 16
property float x
property float y
property float z
property float nx
property float ny
property float nz
element face 28
property list uchar uint vertex_indices
end_header
-12.150001 -0.005035 2.100000 0.000000 -0.645711 0.763543
-12.250000 -0.005035 2.006250 -0.769280 -0.638874 0.000000
-12.150001 -0.005035 1.912500 0.000000 -0.645711 -0.763543
-12.050000 1.750325 2.006250 0.769280 0.638874 0.000000
-12.150001 1.750325 1.912500 0.000000 0.645711 -0.763543
-12.150001 1.750325 2.100000 0.000000 0.645711 0.763543
-12.225000 -0.005035 2.076562 -0.544481 -0.619007 0.565966
-12.225000 1.750325 2.076562 -0.544481 0.619007 0.565966
-12.075001 -0.005035 2.076562 0.544481 -0.619007 0.565966
-12.075001 1.750325 2.076562 0.544481 0.619007 0.565966
-12.250000 1.750325 2.006250 -0.769280 0.638874 0.000000
-12.075001 -0.005035 1.935938 0.544481 -0.619007 -0.565966
-12.075001 1.750325 1.935937 0.544481 0.619007 -0.565966
-12.225000 1.750325 1.935937 -0.544481 0.619007 -0.565966
-12.225000 -0.005035 1.935938 -0.544481 -0.619007 -0.565966
-12.050000 -0.005035 2.006250 0.769280 -0.638874 0.000000
3 0 1 2
3 3 4 5
3 6 5 7
3 8 3 9
3 0 9 5
3 10 6 7
3 3 11 12
3 4 11 2
3 13 2 14
3 10 14 1
3 14 2 1
3 11 15 2
3 8 0 15
3 6 1 0
3 2 15 0
3 10 7 5
3 5 9 3
3 3 12 4
3 4 13 10
3 10 5 4
3 6 0 5
3 8 15 3
3 0 8 9
3 10 1 6
3 3 15 11
3 4 12 11
3 13 4 2
3 10 13 14
