ply
format ascii 1.0
comment Created by Blender 2.77 (sub 0) - www.blender.org, source file: 'WitchHut0-Colliders.blend'
element vertex 8
property float x
property float y
property float z
property float nx
property float ny
property float nz
element face 12
property list uchar uint vertex_indices
end_header
-1.650000 3.950003 16.640169 -0.577349 0.577349 -0.577349
-1.650000 3.550003 18.190168 -0.577349 -0.577349 0.577349
-1.650000 3.950003 18.190168 -0.577349 0.577349 0.577349
-1.650000 3.550002 16.640169 -0.577349 -0.577349 -0.577349
-1.250000 3.550003 18.190168 0.577349 -0.577349 0.577349
-1.250000 3.950003 18.190168 0.577349 0.577349 0.577349
-1.250000 3.550002 16.640169 0.577349 -0.577349 -0.577349
-1.250000 3.950003 16.640169 0.577349 0.577349 -0.577349
3 0 1 2
3 3 4 1
3 5 6 7
3 2 7 0
3 2 4 5
3 6 0 7
3 0 3 1
3 3 6 4
3 5 4 6
3 2 5 7
3 2 1 4
3 6 3 0
