ply
format ascii 1.0
comment Created by Blender 2.77 (sub 0) - www.blender.org, source file: 'WitchHut0-Colliders.blend'
element vertex 8
property float x
property float y
property float z
property float nx
property float ny
property float nz
element face 12
property list uchar uint vertex_indices
end_header
7.662431 3.700001 6.438823 0.425764 0.673421 0.604297
-1.879389 3.350001 6.438823 -0.699576 -0.446455 0.557848
7.828568 3.350001 6.438823 0.701651 -0.443617 0.557543
7.662431 3.700001 5.863822 0.425764 0.673421 -0.604297
-1.879389 3.350001 5.863822 -0.699576 -0.446455 -0.557848
-1.716861 3.700001 5.863822 -0.428846 0.671987 -0.603717
7.828568 3.350001 5.863822 0.701651 -0.443617 -0.557543
-1.716861 3.700001 6.438823 -0.428846 0.671987 0.603717
3 0 1 2
3 3 4 5
3 1 6 2
3 1 5 4
3 0 5 7
3 2 3 0
3 0 7 1
3 3 6 4
3 1 4 6
3 1 7 5
3 0 3 5
3 2 6 3
