ply
format ascii 1.0
comment Created by Blender 2.77 (sub 0) - www.blender.org, source file: 'WitchHut0-Colliders.blend'
element vertex 10
property float x
property float y
property float z
property float nx
property float ny
property float nz
element face 16
property list uchar uint vertex_indices
end_header
-3.784019 0.000002 10.625000 -0.162694 -0.732170 -0.661367
-3.435000 0.000003 16.225000 0.712119 -0.428663 0.555956
-3.784019 0.000003 16.225000 -0.162694 -0.732170 0.661367
-3.620382 0.350003 16.225000 0.528398 0.555376 0.642109
-3.435000 0.000002 10.625000 0.712119 -0.428663 -0.555956
-3.829313 0.021178 10.625000 -0.767510 -0.278481 -0.577349
-3.665676 0.371180 16.225000 -0.278481 0.767510 0.577319
-3.665676 0.371179 10.625000 -0.278481 0.767510 -0.577319
-3.829313 0.021179 16.225000 -0.767510 -0.278481 0.577319
-3.620382 0.350002 10.625000 0.528398 0.555376 -0.642109
3 0 1 2
3 2 1 3
3 4 3 1
3 5 6 7
3 5 2 8
3 7 3 9
3 5 7 9
3 0 4 1
3 3 6 8
3 8 2 3
3 4 9 3
3 5 8 6
3 5 0 2
3 7 6 3
3 9 4 0
3 0 5 9
