ply
format ascii 1.0
comment Created by Blender 2.77 (sub 0) - www.blender.org, source file: 'WitchHut0-Colliders.blend'
element vertex 26
property float x
property float y
property float z
property float nx
property float ny
property float nz
element face 48
property list uchar uint vertex_indices
end_header
2.340675 13.300001 0.374998 -0.151097 -0.731010 0.665395
3.200431 13.300000 -1.301246 0.042848 -0.789819 -0.611805
3.513434 13.300001 0.374998 0.154302 -0.731071 0.664602
3.116175 13.477500 -1.357457 0.054659 -0.143376 -0.988128
3.275368 14.077328 -1.357457 0.415143 0.589526 -0.692862
3.589497 13.336378 -1.273141 0.696951 -0.407849 -0.589801
2.264296 13.335710 -1.273141 -0.695181 -0.412763 -0.588458
2.730562 13.477500 -1.357457 -0.055483 -0.143406 -0.988098
2.648138 13.300000 -1.301246 -0.043092 -0.789880 -0.611682
2.570956 14.076113 -1.357457 -0.418653 0.587298 -0.692648
3.513434 13.300000 -1.188827 0.198737 -0.974670 -0.102268
2.340675 13.300000 -1.188827 -0.195166 -0.975646 -0.099826
2.064838 13.415586 -0.272779 -0.937437 -0.341258 -0.068758
2.468200 14.302250 0.241047 -0.507950 0.758110 0.408887
2.468200 14.302250 -0.272779 -0.535020 0.837977 -0.107273
3.100856 14.186398 0.374998 0.031465 0.413068 0.910123
3.260105 14.120640 0.374998 0.247719 0.231422 0.940764
3.375698 14.304262 0.240986 0.502762 0.761681 0.408673
3.375698 14.304262 -0.272840 0.529466 0.841517 -0.107089
3.788276 13.417866 0.240986 0.890072 -0.279672 0.359844
3.614851 13.348505 0.374998 0.469466 -0.453078 0.757805
2.238837 13.347614 0.374998 -0.465651 -0.457411 0.757561
2.064838 13.415586 0.241047 -0.887600 -0.287149 0.360057
2.586182 14.119560 0.374998 -0.249001 0.228553 0.941130
2.744038 14.186663 0.374998 -0.032685 0.416456 0.908536
3.788276 13.417865 -0.272840 0.940275 -0.333323 -0.068697
3 0 1 2
3 3 4 5
3 3 5 1
3 6 7 8
3 9 7 6
3 5 10 1
3 11 6 8
3 12 13 14
3 15 16 17
3 9 12 14
3 8 3 1
3 16 15 2
3 9 18 4
3 19 20 2
3 0 21 22
3 19 16 20
3 14 17 18
3 23 22 21
3 23 24 13
3 25 4 18
3 11 12 6
3 2 10 25
3 0 11 8
3 18 19 25
3 24 17 13
3 3 9 4
3 10 2 1
3 0 8 1
3 12 22 13
3 9 6 12
3 8 7 3
3 23 21 0
3 0 24 23
3 20 16 2
3 15 24 0
3 0 2 15
3 9 14 18
3 19 17 16
3 14 13 17
3 23 13 22
3 25 5 4
3 11 22 12
3 5 25 10
3 19 2 25
3 0 22 11
3 18 17 19
3 24 15 17
3 3 7 9
