ply
format ascii 1.0
comment Created by Blender 2.77 (sub 0) - www.blender.org, source file: 'WitchHut0-Colliders.blend'
element vertex 15
property float x
property float y
property float z
property float nx
property float ny
property float nz
element face 26
property list uchar uint vertex_indices
end_header
7.400000 0.221786 10.650000 -0.584979 -0.577258 0.569689
7.425000 1.109285 8.862500 -0.654988 0.432722 -0.619434
7.425000 0.221785 8.862500 -0.569628 -0.577410 -0.584857
8.400000 1.109285 10.662500 0.668661 0.124149 0.733085
8.190089 1.559286 10.534868 -0.192114 0.817042 0.543596
7.400000 1.109285 10.650000 -0.681234 0.409864 0.606525
8.193057 1.559286 10.387501 -0.239753 0.969939 -0.041414
8.124071 1.371785 8.871131 -0.126896 0.690146 -0.712424
8.426486 1.446785 9.400000 0.695395 0.714988 -0.071780
8.437500 1.371785 8.875000 0.595508 0.530992 -0.602802
8.400000 0.221786 10.662500 0.567370 -0.577776 0.586688
8.302101 1.559286 10.536269 0.418775 0.727317 0.543687
8.437500 0.221785 8.875000 0.587115 -0.576891 -0.567858
8.305223 1.559286 10.387501 0.392376 0.919431 -0.025452
8.407342 1.446786 10.312500 0.932432 0.352763 0.077822
3 0 1 2
3 3 4 5
3 6 5 4
3 6 7 1
3 8 9 7
3 10 5 0
3 11 6 4
3 7 12 1
3 10 2 12
3 13 14 8
3 14 11 3
3 10 8 14
3 0 5 1
3 3 11 4
3 6 1 5
3 7 6 8
3 13 8 6
3 10 3 5
3 11 13 6
3 2 1 12
3 7 9 12
3 10 0 2
3 13 11 14
3 14 3 10
3 10 12 8
3 9 8 12
