ply
format ascii 1.0
comment Created by Blender 2.77 (sub 0) - www.blender.org, source file: 'WitchHut0-Colliders.blend'
element vertex 8
property float x
property float y
property float z
property float nx
property float ny
property float nz
element face 12
property list uchar uint vertex_indices
end_header
-0.890311 1.447158 14.611754 -0.529862 0.523606 0.667104
-0.750000 0.797158 14.475000 0.618763 -0.627705 0.472274
-0.737500 1.447158 14.600000 0.610126 0.523545 0.594653
-0.800000 0.797158 13.800000 0.545152 -0.629383 -0.553728
-0.902811 0.797158 14.486754 -0.562975 -0.618305 0.548357
-0.933106 0.797158 13.805120 -0.616962 -0.611103 -0.495834
-0.787500 1.447158 13.687500 0.543413 0.525986 -0.654195
-0.920606 1.447158 13.692619 -0.585559 0.535020 -0.608966
3 0 1 2
3 3 4 5
3 6 1 3
3 7 3 5
3 4 7 5
3 2 7 0
3 0 4 1
3 3 1 4
3 6 2 1
3 7 6 3
3 4 0 7
3 2 6 7
