ply
format ascii 1.0
comment Created by Blender 2.77 (sub 0) - www.blender.org, source file: 'WitchHut0-Colliders.blend'
element vertex 28
property float x
property float y
property float z
property float nx
property float ny
property float nz
element face 52
property list uchar uint vertex_indices
end_header
4.550000 0.024999 -8.400000 -0.003876 0.410901 0.911649
4.650000 -0.000001 -8.537499 0.603137 -0.695212 0.390973
4.650000 0.024999 -8.537499 0.771813 0.370495 0.516678
4.437500 0.024999 -8.950000 -0.906186 0.093966 -0.412275
4.675000 0.024998 -9.450000 -0.581805 0.489425 -0.649556
4.675000 -0.000002 -9.450000 -0.540300 -0.637410 -0.549303
4.449045 0.087499 -8.707595 -0.515122 0.847224 0.129582
4.425000 0.024999 -8.575000 -0.830927 0.372417 0.413282
4.481672 0.087499 -8.603189 -0.424757 0.877773 0.221503
4.550457 0.087499 -8.506889 -0.004517 0.908658 0.417493
4.362500 0.024999 -8.775000 -0.929807 0.367321 -0.022187
4.425000 -0.000001 -8.575000 -0.662069 -0.673208 0.329295
4.550000 -0.000001 -8.400000 -0.003510 -0.562273 0.826930
4.588386 0.124999 -8.875000 -0.030702 0.997589 0.061892
4.799661 0.124999 -9.091825 0.103824 0.987762 -0.116276
4.593336 0.124999 -9.133090 -0.291635 0.924253 -0.246254
4.766545 0.124999 -8.875000 0.361339 0.899960 0.243812
5.062500 -0.000002 -9.337500 0.771294 -0.597064 -0.220435
4.937500 0.024998 -9.437500 0.458113 0.593829 -0.661397
5.062500 0.024998 -9.337500 0.822748 0.504501 -0.261757
4.812500 0.024998 -9.512500 0.057131 0.533158 -0.844050
4.812500 -0.000002 -9.512500 0.044771 -0.615894 -0.786523
4.937500 -0.000002 -9.437500 0.411939 -0.692282 -0.592456
4.987500 -0.000001 -9.125000 0.660207 -0.687185 0.303079
4.987500 0.024999 -9.125000 0.861415 0.344584 0.373058
4.844630 0.124999 -9.001887 0.438948 0.877895 0.191321
4.486538 0.124999 -8.958329 -0.522629 0.832728 -0.182745
4.362500 -0.000001 -8.775000 -0.769860 -0.636921 -0.040193
3 0 1 2
3 3 4 5
3 6 7 8
3 9 7 0
3 10 11 7
3 7 12 0
3 13 14 15
3 9 2 16
3 17 18 19
3 5 20 21
3 22 20 18
3 23 19 24
3 13 8 9
3 16 13 9
3 19 14 25
3 20 4 15
3 24 25 2
3 25 16 2
3 26 10 6
3 19 25 24
3 20 14 18
3 27 23 1
3 26 6 8
3 15 4 26
3 4 3 26
3 2 23 24
3 0 12 1
3 5 27 3
3 10 3 27
3 6 10 7
3 9 8 7
3 10 27 11
3 7 11 12
3 15 26 13
3 13 16 14
3 25 14 16
3 9 0 2
3 17 22 18
3 5 4 20
3 22 21 20
3 23 17 19
3 13 26 8
3 19 18 14
3 26 3 10
3 20 15 14
3 12 11 1
3 27 5 23
3 21 22 5
3 17 23 22
3 1 11 27
3 5 22 23
3 2 1 23
