ply
format ascii 1.0
comment Created by Blender 2.77 (sub 0) - www.blender.org, source file: 'WitchHut0-Colliders.blend'
element vertex 12
property float x
property float y
property float z
property float nx
property float ny
property float nz
element face 20
property list uchar uint vertex_indices
end_header
9.888309 0.051220 10.125000 0.769036 -0.275277 -0.576861
9.231558 -0.090677 10.125000 -0.369427 -0.714560 -0.594012
3.623034 13.151219 10.124998 0.327464 0.741295 -0.585833
2.980919 12.775993 10.624998 -0.789270 0.042512 0.612537
3.121312 13.000002 10.124998 -0.468184 0.613514 -0.635884
2.980919 12.775993 10.124998 -0.789270 0.042512 -0.612537
9.778709 0.000002 10.625000 0.217780 -0.702292 0.677725
9.778709 0.000002 10.125000 0.217780 -0.702292 -0.677725
3.623034 13.151219 10.624998 0.327464 0.741295 0.585833
9.231558 -0.090677 10.625000 -0.369427 -0.714560 0.594012
9.888309 0.051220 10.625000 0.769036 -0.275277 0.576861
3.121312 13.000002 10.624998 -0.468184 0.613514 0.635884
3 0 1 2
3 3 4 5
3 6 1 7
3 8 3 9
3 8 0 2
3 4 8 2
3 10 7 0
3 3 1 9
3 4 2 5
3 0 7 1
3 1 5 2
3 3 11 4
3 6 9 1
3 9 6 10
3 10 8 9
3 11 3 8
3 8 10 0
3 4 11 8
3 10 6 7
3 3 5 1
