ply
format ascii 1.0
comment Created by Blender 2.77 (sub 0) - www.blender.org, source file: 'WitchHut0-Colliders.blend'
element vertex 8
property float x
property float y
property float z
property float nx
property float ny
property float nz
element face 12
property list uchar uint vertex_indices
end_header
-14.483409 0.672053 -3.135933 -0.577807 0.397992 0.712546
-14.370909 0.481659 -3.188967 0.574389 -0.724052 0.381817
-14.370909 0.672053 -3.135933 0.577807 0.397992 0.712546
-14.483409 1.221450 -5.358728 -0.571154 -0.316111 -0.757500
-14.370909 1.221450 -5.358728 0.571154 -0.316111 -0.757500
-14.483409 0.481659 -3.188967 -0.574389 -0.724052 0.381817
-14.483409 1.300981 -5.320162 -0.586871 0.739464 -0.329722
-14.370909 1.300981 -5.320162 0.586871 0.739464 -0.329753
3 0 1 2
3 1 3 4
3 5 6 3
3 1 7 2
3 6 2 7
3 7 3 6
3 0 5 1
3 1 5 3
3 5 0 6
3 1 4 7
3 6 0 2
3 7 4 3
