ply
format ascii 1.0
comment Created by Blender 2.77 (sub 0) - www.blender.org, source file: 'WitchHut0-Colliders.blend'
element vertex 21
property float x
property float y
property float z
property float nx
property float ny
property float nz
element face 33
property list uchar uint vertex_indices
end_header
-3.435000 0.200002 16.738825 0.377819 -0.925748 -0.014740
-3.784019 0.200003 16.225000 -0.176153 -0.763421 -0.621387
-3.435000 0.200003 16.225000 0.435926 -0.668630 -0.602374
-3.272473 0.550003 16.738825 0.521195 0.781793 -0.342265
-3.272473 0.550003 16.988825 0.906980 -0.421155 0.000000
-3.435000 0.200003 16.913824 -0.906980 0.421155 0.000000
-3.272473 0.550003 16.913824 -0.906980 0.421155 0.000000
2.340675 13.300003 17.788824 -0.342784 0.629871 0.696921
-2.390186 2.450002 17.738825 0.610828 -0.342509 0.713828
2.648138 13.300003 17.788824 0.703207 0.412519 0.579028
2.648138 13.300003 16.738823 0.890255 0.402631 -0.212806
2.064838 13.415589 16.872774 -0.485305 0.867153 0.111637
-4.059856 0.315588 16.358952 -0.854793 -0.332560 -0.398358
-4.059856 0.315588 16.872776 -0.923154 -0.310312 0.226875
-2.732068 2.450002 17.738825 -0.518052 0.147069 0.842586
-3.435000 0.200002 17.238825 0.430006 -0.736534 0.522111
-3.784019 0.200002 17.238825 -0.464766 -0.617817 0.634236
-3.665676 0.571179 16.225000 -0.221412 0.103519 -0.969665
-3.829313 0.221179 16.225000 -0.426832 -0.486801 -0.762078
2.340675 13.300003 16.224998 0.436903 0.369304 -0.820185
2.064838 13.415589 16.358950 -0.416608 0.788324 -0.452712
3 0 1 2
3 3 4 0
3 5 3 0
3 6 3 5
3 7 8 9
3 0 10 8
3 11 12 13
3 14 15 8
3 11 9 10
3 16 0 15
3 12 17 18
3 17 1 18
3 11 14 7
3 17 19 2
3 12 16 13
3 12 0 16
3 16 14 13
3 19 0 2
3 1 12 18
3 20 10 19
3 7 14 8
3 9 8 10
3 15 0 8
3 11 20 12
3 14 16 15
3 11 7 9
3 12 20 17
3 17 2 1
3 11 13 14
3 17 20 19
3 12 1 0
3 19 10 0
3 20 11 10
