ply
format ascii 1.0
comment Created by Blender 2.77 (sub 0) - www.blender.org, source file: 'WitchHut0-Colliders.blend'
element vertex 8
property float x
property float y
property float z
property float nx
property float ny
property float nz
element face 12
property list uchar uint vertex_indices
end_header
4.600000 10.700000 0.109829 0.577349 0.577349 0.577349
4.200000 10.700000 -1.890171 -0.577349 0.577349 -0.577349
4.200000 10.700000 0.109829 -0.577349 0.577349 0.577349
4.600000 10.700000 -1.890171 0.577349 0.577349 -0.577349
4.200000 10.299999 -1.890171 -0.577349 -0.577349 -0.577349
4.200000 10.299999 0.109829 -0.577349 -0.577349 0.577349
4.600000 10.299999 -1.890171 0.577349 -0.577349 -0.577349
4.600000 10.299999 0.109829 0.577349 -0.577349 0.577349
3 0 1 2
3 3 4 1
3 5 1 4
3 5 6 7
3 7 3 0
3 7 2 5
3 0 3 1
3 3 6 4
3 5 2 1
3 5 4 6
3 7 6 3
3 7 0 2
