ply
format ascii 1.0
comment Created by Blender 2.77 (sub 0) - www.blender.org, source file: 'WitchHut0-Colliders.blend'
element vertex 17
property float x
property float y
property float z
property float nx
property float ny
property float nz
element face 30
property list uchar uint vertex_indices
end_header
-3.784019 0.200000 0.375000 -0.151097 -0.731010 0.665395
-3.665676 0.571177 0.375000 -0.221381 0.103519 0.969665
-3.829313 0.221177 0.375000 -0.426801 -0.486801 0.762108
-3.435000 0.200000 0.375000 0.432600 -0.669332 0.603992
-3.784019 0.200000 -0.638825 -0.459304 -0.608234 -0.647328
-3.435000 0.200000 -0.638825 0.430006 -0.736534 -0.522111
2.648138 13.300000 -0.138828 0.890255 0.402631 0.212806
2.064838 13.415586 -0.272779 -0.485305 0.867153 -0.111637
2.064838 13.415586 0.241047 -0.416608 0.788324 0.452712
-3.272473 0.550000 -0.138825 0.909757 -0.414991 0.008240
-2.390186 2.450000 -1.138825 0.610828 -0.342509 -0.713828
-4.059856 0.315586 0.241049 -0.868770 -0.280770 0.407880
-2.732068 2.450000 -1.138825 -0.518052 0.147069 -0.842586
-4.059856 0.315586 -0.272776 -0.923154 -0.310312 -0.226875
2.340675 13.300000 -1.188827 -0.342784 0.629871 -0.696921
2.340675 13.300001 0.374998 0.436903 0.369335 0.820154
2.648138 13.300000 -1.188827 0.703207 0.412519 -0.579028
3 0 1 2
3 3 4 5
3 6 7 8
3 9 5 10
3 0 2 11
3 12 4 13
3 14 10 12
3 9 15 3
3 0 13 4
3 8 13 11
3 1 11 2
3 1 15 8
3 8 15 6
3 12 5 4
3 14 7 16
3 7 12 13
3 0 3 1
3 3 0 4
3 6 16 7
3 10 16 6
3 9 3 5
3 10 6 9
3 14 16 10
3 9 6 15
3 0 11 13
3 8 7 13
3 1 8 11
3 1 3 15
3 12 10 5
3 7 14 12
