ply
format ascii 1.0
comment Created by Blender 2.77 (sub 0) - www.blender.org, source file: 'WitchHut0-Colliders.blend'
element vertex 8
property float x
property float y
property float z
property float nx
property float ny
property float nz
element face 12
property list uchar uint vertex_indices
end_header
-0.825000 3.389929 16.838825 0.575182 0.579913 0.576922
-1.000000 3.388503 16.688826 -0.579455 0.574755 -0.577776
-1.000000 3.388503 16.838825 -0.579455 0.574755 0.577776
-0.825000 0.261503 16.688826 0.577349 -0.577349 -0.577349
-0.825000 3.389929 16.688826 0.575182 0.579882 -0.576891
-0.825000 0.261503 16.838825 0.577349 -0.577349 0.577349
-1.000000 0.261503 16.838825 -0.577349 -0.577349 0.577349
-1.000000 0.261503 16.688826 -0.577349 -0.577349 -0.577349
3 0 1 2
3 0 3 4
3 5 2 6
3 1 6 2
3 5 7 3
3 3 1 4
3 0 4 1
3 0 5 3
3 5 0 2
3 1 7 6
3 5 6 7
3 3 7 1
