ply
format ascii 1.0
comment Created by Blender 2.77 (sub 0) - www.blender.org, source file: 'WitchHut0-Colliders.blend'
element vertex 12
property float x
property float y
property float z
property float nx
property float ny
property float nz
element face 20
property list uchar uint vertex_indices
end_header
-2.875640 0.012502 10.813262 0.388073 -0.711478 0.585803
-3.499999 0.012502 10.463264 -0.583728 -0.592822 -0.554796
-2.875640 0.012502 10.463264 0.388073 -0.711478 -0.585803
-3.499999 0.012502 10.813262 -0.583728 -0.592822 0.554796
-3.149354 1.262502 10.913262 -0.628132 0.257912 0.734092
-3.499999 0.509263 10.813262 -0.819697 0.152226 0.552141
-3.499999 0.509263 10.463264 -0.819697 0.152226 -0.552141
-3.149354 1.262502 10.363261 -0.628132 0.257912 -0.734092
-1.100000 2.887502 10.913262 0.726920 0.402936 0.556047
-2.392888 2.887502 10.363261 -0.428510 0.672140 -0.603778
-2.392888 2.887502 10.913262 -0.428510 0.672140 0.603778
-1.100000 2.887502 10.363261 0.726920 0.402936 -0.556047
3 0 1 2
3 3 4 5
3 1 6 7
3 7 6 4
3 8 9 10
3 2 8 0
3 8 4 0
3 6 3 5
3 2 1 7
3 0 3 1
3 4 10 9
3 9 7 4
3 6 5 4
3 8 11 9
3 2 11 8
3 3 0 4
3 8 10 4
3 6 1 3
3 7 9 11
3 11 2 7
