ply
format ascii 1.0
comment Created by Blender 2.77 (sub 0) - www.blender.org, source file: 'WitchHut0-Colliders.blend'
element vertex 8
property float x
property float y
property float z
property float nx
property float ny
property float nz
element face 12
property list uchar uint vertex_indices
end_header
2.725000 2.400001 5.945084 -0.276437 -0.740928 -0.611988
3.050000 2.450001 6.295084 0.373516 -0.674398 0.636891
2.725000 2.400001 6.295084 -0.276437 -0.740928 0.611988
4.150000 3.725001 6.295084 0.759972 0.348064 0.548845
1.600000 3.725001 5.945084 -0.758476 0.350993 -0.549089
1.600000 3.725001 6.295084 -0.758476 0.350993 0.549089
3.050000 2.450001 5.945084 0.373516 -0.674398 -0.636891
4.150000 3.725001 5.945084 0.759972 0.348064 -0.548845
3 0 1 2
3 3 4 5
3 4 6 0
3 5 1 3
3 4 2 5
3 7 1 6
3 0 6 1
3 3 7 4
3 4 7 6
3 5 2 1
3 4 0 2
3 7 3 1
