ply
format ascii 1.0
comment Created by Blender 2.77 (sub 0) - www.blender.org, source file: 'WitchHut0-Colliders.blend'
element vertex 8
property float x
property float y
property float z
property float nx
property float ny
property float nz
element face 12
property list uchar uint vertex_indices
end_header
0.850000 0.204556 16.725000 0.577349 -0.577349 0.577349
-0.425000 0.204556 15.850000 -0.577349 -0.577349 -0.577349
0.850000 0.204556 15.850000 0.577349 -0.577349 -0.577349
-0.425000 1.842056 15.850000 -0.577349 0.577349 -0.577349
0.850000 1.842056 15.850000 0.577349 0.577349 -0.577349
0.850000 1.842056 16.725000 0.577349 0.577349 0.577349
-0.425000 1.842056 16.725000 -0.577349 0.577349 0.577349
-0.425000 0.204556 16.725000 -0.577349 -0.577349 0.577349
3 0 1 2
3 2 3 4
3 0 4 5
3 5 3 6
3 0 6 7
3 3 7 6
3 0 7 1
3 2 1 3
3 0 2 4
3 5 4 3
3 0 5 6
3 3 1 7
