ply
format ascii 1.0
comment Created by Blender 2.77 (sub 0) - www.blender.org, source file: 'House2-Colliders.blend'
element vertex 8
property float x
property float y
property float z
property float nx
property float ny
property float nz
element face 12
property list uchar uint vertex_indices
end_header
-0.898009 0.331361 -6.327074 0.577349 -0.577349 0.577319
-1.587448 1.152201 -6.326976 -0.577319 0.577319 0.577349
-1.587448 0.331361 -6.326976 -0.577319 -0.577319 0.577349
-0.898009 1.152201 -6.327074 0.577349 0.577349 0.577319
-0.897942 0.331361 -7.311985 0.577349 -0.577319 -0.577319
-0.897942 1.152201 -7.311985 0.577349 0.577319 -0.577319
-1.587380 1.152201 -7.311985 -0.577319 0.577349 -0.577349
-1.587380 0.331361 -7.311985 -0.577319 -0.577349 -0.577349
3 0 1 2
3 3 4 5
3 6 3 5
3 4 6 5
3 7 1 6
3 0 7 4
3 0 3 1
3 3 0 4
3 6 1 3
3 4 7 6
3 7 2 1
3 0 2 7
