ply
format ascii 1.0
comment Created by Blender 2.77 (sub 0) - www.blender.org, source file: 'House2-Colliders.blend'
element vertex 8
property float x
property float y
property float z
property float nx
property float ny
property float nz
element face 12
property list uchar uint vertex_indices
end_header
-11.223579 2.726637 8.183808 -0.577349 -0.577349 0.577319
-8.902633 2.726638 7.426784 0.577349 -0.577349 -0.577349
-8.902633 2.726638 8.183809 0.577349 -0.577349 0.577319
-11.223579 3.831258 8.183884 -0.577319 0.577319 0.577349
-8.902633 3.831258 8.183809 0.577349 0.577349 0.577319
-8.902633 3.831259 7.426784 0.577349 0.577349 -0.577349
-11.223579 3.831258 7.426784 -0.577349 0.577349 -0.577349
-11.223579 2.726637 7.426784 -0.577349 -0.577349 -0.577349
3 0 1 2
3 2 3 0
3 4 1 5
3 6 1 7
3 4 6 3
3 0 6 7
3 0 7 1
3 2 4 3
3 4 2 1
3 6 5 1
3 4 5 6
3 0 3 6
