ply
format ascii 1.0
comment Created by Blender 2.77 (sub 0) - www.blender.org, source file: 'House2-Colliders.blend'
element vertex 8
property float x
property float y
property float z
property float nx
property float ny
property float nz
element face 12
property list uchar uint vertex_indices
end_header
-11.228096 0.231395 6.702261 -0.577349 -0.577349 -0.577349
-11.228096 1.333185 8.207972 -0.577288 0.577319 0.577380
-11.228096 1.333185 6.702261 -0.577349 0.577349 -0.577349
-10.442586 0.231396 6.702261 0.577349 -0.577349 -0.577349
-10.442586 1.333185 6.702261 0.577349 0.577349 -0.577349
-10.442586 1.333185 8.207823 0.577380 0.577349 0.577288
-10.442586 0.231395 8.207823 0.577380 -0.577349 0.577288
-11.228096 0.231395 8.207972 -0.577288 -0.577319 0.577380
3 0 1 2
3 3 2 4
3 2 5 4
3 6 0 3
3 6 1 7
3 3 5 6
3 0 7 1
3 3 0 2
3 2 1 5
3 6 7 0
3 6 5 1
3 3 4 5
