ply
format ascii 1.0
comment Created by Blender 2.77 (sub 0) - www.blender.org, source file: 'House2-Colliders.blend'
element vertex 25
property float x
property float y
property float z
property float nx
property float ny
property float nz
element face 46
property list uchar uint vertex_indices
end_header
1.171506 2.436084 9.366408 0.710715 0.662221 0.237220
0.958040 2.649532 9.366408 0.582507 0.686087 0.435774
1.705715 1.759459 9.544284 0.710898 0.273202 0.648030
-1.996782 0.229041 9.544283 -0.577349 -0.577349 0.577349
1.705715 0.229043 9.544284 0.577349 -0.577349 0.577349
-1.462573 2.436084 9.366408 -0.710746 0.662313 0.236885
-1.996782 1.759723 9.544283 -0.710837 0.273354 0.648030
-1.249107 2.649532 9.366408 -0.561388 0.687613 0.460433
-1.996782 0.229042 6.305433 -0.577349 -0.577349 -0.577349
-1.996782 1.759724 6.305433 -0.652821 0.368603 -0.661733
-0.857329 2.934482 9.366408 -0.233650 0.775445 0.586566
1.705715 0.229043 6.305433 0.577349 -0.577349 -0.577349
1.705715 1.759460 6.305433 0.652852 0.368542 -0.661763
0.566262 2.934482 9.366409 0.171422 0.779717 0.602191
0.637659 2.898731 9.366409 0.428480 0.707389 0.562090
-1.249107 2.649532 7.159932 -0.398114 0.830897 -0.388684
-1.320141 2.578559 7.088593 -0.367534 0.816706 -0.444807
-1.427056 2.471835 6.982057 -0.534684 0.801080 -0.268990
-1.355659 2.543072 7.053080 -0.314554 0.807733 -0.498550
-1.462573 2.436084 6.946228 -0.456282 0.786798 -0.415571
0.566262 2.934482 7.444660 0.161840 0.932035 -0.324198
-0.857329 2.934482 7.444659 -0.231422 0.922086 -0.310099
0.958040 2.649532 7.159932 0.400678 0.827418 -0.393445
1.171506 2.436085 6.946228 0.456069 0.787103 -0.415204
0.637659 2.898731 7.409149 0.332865 0.866451 -0.372021
3 0 1 2
3 2 3 4
3 5 6 7
3 8 6 9
3 6 10 7
3 2 11 12
3 13 2 14
3 15 16 17
3 17 16 18
3 17 18 19
3 13 6 2
3 14 2 1
3 20 10 13
3 7 21 15
3 21 22 15
3 23 2 12
3 15 17 5
3 24 1 22
3 11 3 8
3 19 6 5
3 20 14 24
3 22 0 23
3 8 12 11
3 2 6 3
3 8 3 6
3 2 4 11
3 13 10 6
3 20 21 10
3 7 10 21
3 9 19 12
3 16 15 22
3 19 18 23
3 23 12 19
3 24 22 20
3 21 20 22
3 18 22 23
3 22 18 16
3 23 0 2
3 19 5 17
3 7 15 5
3 24 14 1
3 11 4 3
3 19 9 6
3 20 13 14
3 22 1 0
3 8 9 12
