ply
format ascii 1.0
comment Created by Blender 2.77 (sub 0) - www.blender.org, source file: 'House2-Colliders.blend'
element vertex 8
property float x
property float y
property float z
property float nx
property float ny
property float nz
element face 12
property list uchar uint vertex_indices
end_header
-9.413248 0.973332 3.743327 -0.577349 -0.577349 -0.577349
-9.413249 1.734415 4.834322 -0.577502 0.577380 0.577166
-9.413248 1.734415 3.743327 -0.577349 0.577349 -0.577349
-9.229874 0.973332 3.743327 0.577349 -0.577349 -0.577349
-9.413249 0.973332 4.834322 -0.577502 -0.577380 0.577166
-9.229874 1.734415 3.743327 0.577349 0.577349 -0.577349
-9.229875 1.734415 4.834429 0.577166 0.577319 0.577532
-9.229875 0.973332 4.834429 0.577197 -0.577319 0.577532
3 0 1 2
3 3 4 0
3 5 1 6
3 7 1 4
3 3 6 7
3 2 3 0
3 0 4 1
3 3 7 4
3 5 2 1
3 7 6 1
3 3 5 6
3 2 5 3
