ply
format ascii 1.0
comment Created by Blender 2.77 (sub 0) - www.blender.org, source file: 'House2-Colliders.blend'
element vertex 8
property float x
property float y
property float z
property float nx
property float ny
property float nz
element face 12
property list uchar uint vertex_indices
end_header
8.016153 2.726639 8.183911 -0.577319 -0.577319 0.577349
10.337392 2.726640 7.426712 0.577349 -0.577349 -0.577349
10.337392 2.726640 8.183911 0.577319 -0.577319 0.577349
8.016153 3.831407 7.426712 -0.577349 0.577349 -0.577349
8.016153 2.726639 7.426712 -0.577349 -0.577349 -0.577349
10.337392 3.831408 8.183911 0.577319 0.577319 0.577349
10.337392 3.831408 7.426712 0.577349 0.577349 -0.577349
8.016153 3.831407 8.183838 -0.577349 0.577349 0.577319
3 0 1 2
3 3 1 4
3 5 1 6
3 7 6 3
3 7 4 0
3 2 7 0
3 0 4 1
3 3 6 1
3 5 2 1
3 7 5 6
3 7 3 4
3 2 5 7
