ply
format ascii 1.0
comment Created by Blender 2.77 (sub 0) - www.blender.org, source file: 'House2-Colliders.blend'
element vertex 8
property float x
property float y
property float z
property float nx
property float ny
property float nz
element face 12
property list uchar uint vertex_indices
end_header
-11.232459 0.231917 8.143193 -0.577349 -0.577349 -0.577349
10.346122 0.231923 8.411809 0.577349 -0.577349 0.577349
-11.232459 0.231917 8.411807 -0.577349 -0.577349 0.577349
10.346122 4.529745 8.411809 0.577349 0.577349 0.577349
10.346122 0.231923 8.143195 0.577349 -0.577349 -0.577349
10.346122 4.529745 8.143195 0.577349 0.577349 -0.577349
-11.232459 4.529739 8.411807 -0.577349 0.577349 0.577349
-11.232459 4.529738 8.143193 -0.577349 0.577349 -0.577349
3 0 1 2
3 3 4 5
3 6 1 3
3 7 4 0
3 3 7 6
3 7 2 6
3 0 4 1
3 3 1 4
3 6 2 1
3 7 5 4
3 3 5 7
3 7 0 2
