ply
format ascii 1.0
comment Created by Blender 2.77 (sub 0) - www.blender.org, source file: 'House2-Colliders.blend'
element vertex 8
property float x
property float y
property float z
property float nx
property float ny
property float nz
element face 12
property list uchar uint vertex_indices
end_header
10.340263 0.237784 1.180427 0.577349 -0.577349 0.577349
10.340263 4.515649 0.926705 0.577349 0.577349 -0.577349
10.340263 4.515649 1.180427 0.577349 0.577349 0.577349
4.757286 0.237782 1.180426 -0.577349 -0.577349 0.577349
10.340263 0.237784 0.926705 0.577349 -0.577349 -0.577349
4.757287 4.515647 0.926704 -0.577349 0.577349 -0.577349
4.757286 0.237782 0.926705 -0.577349 -0.577349 -0.577349
4.757287 4.515647 1.180426 -0.577349 0.577349 0.577349
3 0 1 2
3 3 4 0
3 5 4 6
3 5 3 7
3 7 1 5
3 7 0 2
3 0 4 1
3 3 6 4
3 5 1 4
3 5 6 3
3 7 2 1
3 7 3 0
