ply
format ascii 1.0
comment Created by Blender 2.77 (sub 0) - www.blender.org, source file: 'House2-Colliders.blend'
element vertex 8
property float x
property float y
property float z
property float nx
property float ny
property float nz
element face 12
property list uchar uint vertex_indices
end_header
3.054058 0.964101 -1.692370 0.580401 0.573595 0.577990
3.054058 0.230592 -2.783666 0.577349 -0.577319 -0.577349
3.054058 0.964102 -2.783666 0.580432 0.573595 -0.577960
2.274714 0.230520 -2.783667 -0.577288 -0.577380 -0.577349
2.274714 0.973335 -2.783667 -0.574175 0.581072 -0.576739
2.274637 0.973335 -1.692476 -0.574267 0.581072 0.576647
2.274637 0.230520 -1.692476 -0.577380 -0.577380 0.577258
3.054058 0.230592 -1.692370 0.577319 -0.577288 0.577380
3 0 1 2
3 2 3 4
3 3 5 4
3 2 5 0
3 0 6 7
3 1 6 3
3 0 7 1
3 2 1 3
3 3 6 5
3 2 4 5
3 0 5 6
3 1 7 6
