ply
format ascii 1.0
comment Created by Blender 2.77 (sub 0) - www.blender.org, source file: 'House2-Colliders.blend'
element vertex 8
property float x
property float y
property float z
property float nx
property float ny
property float nz
element face 12
property list uchar uint vertex_indices
end_header
10.247730 2.344416 1.168487 0.577349 -0.577349 -0.577349
10.247730 2.707233 1.789367 0.577349 0.577349 0.577349
10.247730 2.344416 1.789367 0.577349 -0.577349 0.577349
7.901287 2.344415 1.168487 -0.577349 -0.577349 -0.577349
7.901287 2.707232 1.789367 -0.577349 0.577349 0.577349
7.901287 2.707232 1.168487 -0.577349 0.577349 -0.577349
10.247730 2.707233 1.168487 0.577349 0.577349 -0.577349
7.901287 2.344415 1.789367 -0.577349 -0.577349 0.577349
3 0 1 2
3 3 4 5
3 6 4 1
3 0 5 6
3 0 7 3
3 2 4 7
3 0 6 1
3 3 7 4
3 6 5 4
3 0 3 5
3 0 2 7
3 2 1 4
