ply
format ascii 1.0
comment Created by Blender 2.77 (sub 0) - www.blender.org, source file: 'House2-Colliders.blend'
element vertex 8
property float x
property float y
property float z
property float nx
property float ny
property float nz
element face 12
property list uchar uint vertex_indices
end_header
-5.240974 0.234902 -9.140236 -0.577349 -0.577349 -0.577349
-5.240973 4.510346 0.532312 -0.578143 0.577502 0.576373
-5.240974 4.510348 -9.140236 -0.577349 0.577349 -0.577349
-4.930528 0.234902 -9.140236 0.577349 -0.577349 -0.577349
-5.240974 0.234901 0.532312 -0.578143 -0.577502 0.576373
-4.930528 4.510347 0.533259 0.576525 0.577166 0.578295
-4.930528 0.234901 0.533260 0.576525 -0.577166 0.578295
-4.930528 4.510348 -9.140236 0.577349 0.577349 -0.577349
3 0 1 2
3 3 4 0
3 3 5 6
3 6 1 4
3 2 3 0
3 1 7 2
3 0 4 1
3 3 6 4
3 3 7 5
3 6 5 1
3 2 7 3
3 1 5 7
