ply
format ascii 1.0
comment Created by Blender 2.77 (sub 0) - www.blender.org, source file: 'House2-Colliders.blend'
element vertex 8
property float x
property float y
property float z
property float nx
property float ny
property float nz
element face 12
property list uchar uint vertex_indices
end_header
-9.425084 3.531654 1.735395 0.577349 -0.577349 0.577349
-9.916995 3.731894 1.735395 -0.577349 0.577349 0.577349
-9.916995 3.531654 1.735395 -0.577349 -0.577349 0.577349
-9.425084 3.731894 1.289159 0.577349 0.577349 -0.577349
-9.425084 3.731894 1.735395 0.577349 0.577349 0.577349
-9.425084 3.531654 1.289159 0.577349 -0.577349 -0.577349
-9.916995 3.531654 1.289159 -0.577349 -0.577349 -0.577349
-9.916995 3.731894 1.289159 -0.577349 0.577349 -0.577349
3 0 1 2
3 3 1 4
3 5 4 0
3 6 1 7
3 5 2 6
3 5 7 3
3 0 4 1
3 3 7 1
3 5 3 4
3 6 2 1
3 5 0 2
3 5 6 7
