ply
format ascii 1.0
comment Created by Blender 2.77 (sub 0) - www.blender.org, source file: 'House2-Colliders.blend'
element vertex 8
property float x
property float y
property float z
property float nx
property float ny
property float nz
element face 12
property list uchar uint vertex_indices
end_header
-4.934015 4.517699 8.048174 0.577044 0.577288 0.577685
-4.933983 0.238385 4.361221 0.577624 -0.577380 -0.576983
-4.933983 4.517699 4.361221 0.577624 0.577380 -0.576983
-5.255322 0.238385 8.047812 -0.577624 -0.577410 0.576983
-4.934015 0.238385 8.048174 0.577044 -0.577288 0.577685
-5.255322 4.517698 8.047812 -0.577624 0.577380 0.576983
-5.255323 0.238385 4.360860 -0.577044 -0.577288 -0.577685
-5.255322 4.517699 4.360860 -0.577044 0.577288 -0.577685
3 0 1 2
3 3 1 4
3 2 5 0
3 5 6 3
3 5 4 0
3 7 1 6
3 0 4 1
3 3 6 1
3 2 7 5
3 5 7 6
3 5 3 4
3 7 2 1
