ply
format ascii 1.0
comment Created by Blender 2.77 (sub 0) - www.blender.org, source file: 'House2-Colliders.blend'
element vertex 28
property float x
property float y
property float z
property float nx
property float ny
property float nz
element face 52
property list uchar uint vertex_indices
end_header
-3.977000 1.419827 -0.170805 0.577288 -0.577319 0.577380
-4.352490 2.010869 -0.170862 -0.659108 0.171972 0.732078
-4.352490 1.419827 -0.170862 -0.577380 -0.577349 0.577288
-4.352490 2.010869 -0.754960 -0.667165 0.144719 -0.730705
-4.338559 2.094253 -0.720079 -0.814936 0.350810 -0.461226
-4.331611 2.115123 -0.713217 -0.269539 0.414380 -0.869259
-4.352490 2.024783 -0.747926 -0.848384 0.273843 -0.453017
-4.046510 2.435143 -0.379514 0.542772 0.728141 0.418500
-4.262064 2.435143 -0.574098 -0.451216 0.838588 -0.305216
-4.262064 2.435143 -0.379513 -0.425153 0.800195 0.422956
-4.004789 2.184693 -0.254288 0.538682 0.442579 0.716849
-3.977000 2.010869 -0.170805 0.660268 0.167486 0.732078
-3.977000 2.024783 -0.177839 0.760216 0.324381 0.562822
-4.269011 2.421229 -0.581074 -0.844844 0.449904 -0.289438
-4.262064 2.428186 -0.581074 -0.259468 0.602100 -0.755058
-4.269011 2.414272 -0.587993 -0.508438 0.452986 -0.732261
-3.977000 1.419827 -0.754959 0.577349 -0.577349 -0.577349
-3.977000 2.010869 -0.754959 0.666372 0.147862 -0.730766
-4.046510 2.435143 -0.574098 0.567125 0.767541 -0.298624
-4.046510 2.428186 -0.581074 0.490066 0.517350 -0.701529
-4.018721 2.275133 -0.643686 0.814814 0.334635 -0.473342
-4.296838 2.281991 -0.643686 -0.379254 0.424757 -0.822016
-4.352490 1.419827 -0.754960 -0.577349 -0.577349 -0.577349
-4.039563 2.393401 -0.594912 0.801752 0.343425 -0.489059
-4.269011 2.421229 -0.372480 -0.659017 0.489242 0.571215
-4.310732 2.226434 -0.664442 -0.894498 0.320261 -0.311899
-4.352490 2.024783 -0.177781 -0.715232 0.350352 0.604663
-3.977000 2.024783 -0.747926 0.850246 0.266335 -0.453993
3 0 1 2
3 3 4 5
3 3 1 6
3 7 8 9
3 10 11 12
3 13 14 15
3 2 16 0
3 11 0 17
3 18 14 8
3 17 19 20
3 5 4 21
3 3 16 22
3 19 18 23
3 17 21 19
3 20 23 18
3 9 13 24
3 25 13 15
3 4 26 25
3 10 24 26
3 20 18 7
3 21 25 15
3 7 10 12
3 0 11 1
3 3 6 4
3 26 6 1
3 3 22 2
3 2 1 3
3 7 18 8
3 13 8 14
3 2 22 16
3 17 27 12
3 12 11 17
3 0 16 17
3 18 19 14
3 23 20 19
3 27 17 20
3 3 17 16
3 14 19 15
3 17 3 5
3 5 21 17
3 15 19 21
3 9 8 13
3 13 25 24
3 4 6 26
3 26 24 25
3 1 11 26
3 10 7 24
3 9 24 7
3 26 11 10
3 7 12 20
3 27 20 12
3 21 4 25
