ply
format ascii 1.0
comment Created by Blender 2.77 (sub 0) - www.blender.org, source file: 'House2-Colliders.blend'
element vertex 8
property float x
property float y
property float z
property float nx
property float ny
property float nz
element face 12
property list uchar uint vertex_indices
end_header
-8.134455 0.732919 7.999191 -0.577319 0.577349 0.577319
-7.468920 0.732919 7.297015 0.577319 0.577319 -0.577380
-8.134520 0.732919 7.297082 -0.577380 0.577349 -0.577288
-7.468920 0.244357 7.297015 0.577319 -0.577319 -0.577380
-8.134520 0.244357 7.297082 -0.577380 -0.577349 -0.577288
-7.468920 0.732919 7.999259 0.577319 0.577319 0.577380
-8.134455 0.244357 7.999191 -0.577319 -0.577349 0.577319
-7.468920 0.244357 7.999259 0.577319 -0.577319 0.577380
3 0 1 2
3 2 3 4
3 4 0 2
3 5 3 1
3 6 3 7
3 7 0 6
3 0 5 1
3 2 1 3
3 4 6 0
3 5 7 3
3 6 4 3
3 7 5 0
