ply
format ascii 1.0
comment Created by Blender 2.77 (sub 0) - www.blender.org, source file: 'House2-Colliders.blend'
element vertex 8
property float x
property float y
property float z
property float nx
property float ny
property float nz
element face 12
property list uchar uint vertex_indices
end_header
0.530787 10.126225 9.366835 0.577319 0.577349 0.577349
-0.786336 10.126225 7.515563 -0.577349 0.577349 -0.577349
-0.786336 10.126225 9.366835 -0.577349 0.577349 0.577349
-0.786336 3.896594 7.515563 -0.577349 -0.577349 -0.577349
-0.786336 3.896594 9.366835 -0.577349 -0.577349 0.577349
0.530787 3.896594 9.366835 0.577319 -0.577349 0.577349
0.530915 10.126225 7.515563 0.577349 0.577319 -0.577319
0.530915 3.896594 7.515563 0.577349 -0.577319 -0.577319
3 0 1 2
3 2 3 4
3 3 5 4
3 6 3 1
3 2 5 0
3 5 6 0
3 0 6 1
3 2 1 3
3 3 7 5
3 6 7 3
3 2 4 5
3 5 7 6
