ply
format ascii 1.0
comment Created by Blender 2.77 (sub 0) - www.blender.org, source file: 'House2-Colliders.blend'
element vertex 12
property float x
property float y
property float z
property float nx
property float ny
property float nz
element face 20
property list uchar uint vertex_indices
end_header
4.278885 2.355505 0.733286 0.696646 -0.033784 0.716605
3.195254 3.155697 0.733286 -0.577441 0.577197 0.577380
3.195254 2.355505 0.733286 -0.696677 -0.033784 0.716575
4.278885 3.155983 0.733286 0.577288 0.577380 0.577349
3.195359 3.155983 -0.966763 -0.577349 0.577349 -0.577288
3.195359 2.372354 -0.966763 -0.696768 -0.033479 -0.716483
4.278885 0.238510 -0.766864 0.582415 -0.601001 -0.547319
3.195359 0.238509 -0.766865 -0.582385 -0.601001 -0.547349
4.278885 0.238509 0.533222 0.582446 -0.601184 0.547044
3.195253 0.238509 0.533222 -0.582476 -0.601184 0.547044
4.278885 2.372355 -0.966929 0.696677 -0.033509 -0.716575
4.278885 3.155983 -0.966929 0.577288 0.577319 -0.577380
3 0 1 2
3 3 4 1
3 5 6 7
3 8 2 9
3 4 10 5
3 7 8 9
3 5 7 2
3 10 3 0
3 0 3 1
3 3 11 4
3 5 10 6
3 8 0 2
3 4 11 10
3 7 6 8
3 2 1 5
3 4 5 1
3 7 9 2
3 0 8 6
3 6 10 0
3 11 3 10
