ply
format ascii 1.0
comment Created by Blender 2.77 (sub 0) - www.blender.org, source file: 'House2-Colliders.blend'
element vertex 14
property float x
property float y
property float z
property float nx
property float ny
property float nz
element face 24
property list uchar uint vertex_indices
end_header
-11.965247 3.107595 -0.001899 -0.630268 -0.717307 -0.296945
11.262047 3.107601 0.157476 0.630268 -0.717277 0.297067
-11.965247 3.107595 0.157474 -0.630238 -0.717277 0.297067
11.262047 3.908691 -0.643528 0.632160 0.288278 -0.719199
11.262048 7.592376 4.642684 0.630238 -0.297098 0.717277
-11.965246 7.592370 4.642681 -0.630238 -0.297098 0.717277
-11.965246 9.274840 4.482273 -0.628376 0.715232 -0.305887
11.262048 9.274847 4.482275 0.628376 0.715232 -0.305887
-11.965247 3.748709 -0.643530 -0.630207 -0.297250 -0.717246
-11.965247 3.908685 -0.643530 -0.632160 0.288278 -0.719199
-11.965246 9.274840 4.642681 -0.577349 0.577319 0.577349
11.262047 3.107601 -0.001897 0.630268 -0.717307 -0.296945
11.262047 3.748715 -0.643528 0.630207 -0.297250 -0.717246
11.262048 9.274847 4.642684 0.577349 0.577349 0.577349
3 0 1 2
3 3 4 1
3 5 1 4
3 3 6 7
3 3 8 9
3 9 2 5
3 10 7 6
3 11 8 12
3 10 4 13
3 0 11 1
3 11 12 3
3 3 7 4
3 13 4 7
3 1 11 3
3 5 2 1
3 3 9 6
3 3 12 8
3 10 6 5
3 9 8 0
3 0 2 9
3 5 6 9
3 10 13 7
3 11 0 8
3 10 5 4
