ply
format ascii 1.0
comment Created by Blender 2.77 (sub 0) - www.blender.org, source file: 'House2-Colliders.blend'
element vertex 8
property float x
property float y
property float z
property float nx
property float ny
property float nz
element face 12
property list uchar uint vertex_indices
end_header
-11.232439 1.308489 5.441717 -0.577349 0.577349 0.577349
-10.026629 1.308490 3.296706 0.577349 0.577349 -0.577349
-11.232439 1.308490 3.296706 -0.577349 0.577349 -0.577349
-11.232439 0.242995 3.296706 -0.577349 -0.577349 -0.577349
-11.232439 0.242994 5.441717 -0.577349 -0.577349 0.577349
-10.026630 1.308490 5.441717 0.577349 0.577349 0.577349
-10.026629 0.242995 3.296706 0.577349 -0.577349 -0.577349
-10.026630 0.242995 5.441717 0.577349 -0.577349 0.577349
3 0 1 2
3 0 3 4
3 5 6 1
3 4 6 7
3 0 7 5
3 2 6 3
3 0 5 1
3 0 2 3
3 5 7 6
3 4 3 6
3 0 4 7
3 2 1 6
