ply
format ascii 1.0
comment Created by Blender 2.77 (sub 0) - www.blender.org, source file: 'House2-Colliders.blend'
element vertex 16
property float x
property float y
property float z
property float nx
property float ny
property float nz
element face 28
property list uchar uint vertex_indices
end_header
-11.965247 3.107594 8.806822 -0.627949 -0.714743 -0.307871
11.262046 3.107600 8.966887 0.642354 -0.727042 0.242409
-11.965247 3.107594 8.966885 -0.642354 -0.727042 0.242409
-11.965247 3.588730 9.608139 -0.691702 -0.545946 0.472701
-11.965247 3.828998 9.768703 -0.633412 0.282418 0.720389
11.262046 3.107600 8.806824 0.627949 -0.714743 -0.307871
-11.965246 7.512080 4.642681 -0.632588 -0.286294 -0.719596
11.262048 7.512086 4.642684 0.632588 -0.286294 -0.719596
-11.965247 3.748708 9.768703 -0.630085 -0.297800 0.717093
11.262046 3.829004 9.768706 0.633412 0.282418 0.720389
-11.965246 9.274840 4.642681 -0.577349 0.577349 -0.577349
-11.965246 9.274840 4.722963 -0.627125 0.713797 0.311716
11.262046 3.588737 9.608141 0.691702 -0.545946 0.472701
11.262046 3.748714 9.768706 0.630085 -0.297800 0.717093
11.262048 9.274847 4.642684 0.577349 0.577349 -0.577349
11.262048 9.274847 4.722965 0.627125 0.713797 0.311716
3 0 1 2
3 3 4 0
3 5 6 7
3 8 9 4
3 10 7 6
3 9 11 4
3 9 12 5
3 3 13 8
3 11 14 10
3 3 1 12
3 0 5 1
3 11 10 6
3 6 0 4
3 2 3 0
3 8 4 3
3 11 6 4
3 5 0 6
3 8 13 9
3 10 14 7
3 9 15 11
3 5 7 9
3 14 15 7
3 9 13 12
3 12 1 5
3 7 15 9
3 3 12 13
3 11 15 14
3 3 2 1
