ply
format ascii 1.0
comment Created by Blender 2.77 (sub 0) - www.blender.org, source file: 'House2-Colliders.blend'
element vertex 8
property float x
property float y
property float z
property float nx
property float ny
property float nz
element face 12
property list uchar uint vertex_indices
end_header
-2.141242 1.152201 -7.791689 0.577288 0.577349 0.577380
-3.126058 1.152201 -8.481197 -0.577349 0.577349 -0.577349
-3.126058 1.152201 -7.791689 -0.577349 0.577349 0.577349
-3.126058 0.331441 -8.481197 -0.577319 -0.577349 -0.577349
-2.141242 0.331441 -7.791689 0.577288 -0.577349 0.577380
-3.126058 0.331440 -7.791689 -0.577349 -0.577349 0.577349
-2.141146 0.331441 -8.481194 0.577380 -0.577319 -0.577288
-2.141146 1.152201 -8.481194 0.577380 0.577319 -0.577288
3 0 1 2
3 3 4 5
3 2 3 5
3 2 4 0
3 1 6 3
3 0 6 7
3 0 7 1
3 3 6 4
3 2 1 3
3 2 5 4
3 1 7 6
3 0 4 6
