ply
format ascii 1.0
comment Created by Blender 2.77 (sub 0) - www.blender.org, source file: 'House2-Colliders.blend'
element vertex 8
property float x
property float y
property float z
property float nx
property float ny
property float nz
element face 12
property list uchar uint vertex_indices
end_header
-3.774179 0.241470 1.413821 0.577349 -0.577349 0.577349
-3.774179 4.514616 0.811585 0.577349 0.577349 -0.577319
-3.774179 4.514616 1.413821 0.577349 0.577349 0.577349
-4.376474 4.514616 1.413821 -0.577380 0.577319 0.577319
-4.376415 4.514616 0.811526 -0.577288 0.577349 -0.577380
-4.376474 0.241470 1.413821 -0.577380 -0.577319 0.577319
-4.376415 0.241470 0.811526 -0.577288 -0.577349 -0.577380
-3.774179 0.241470 0.811586 0.577349 -0.577349 -0.577319
3 0 1 2
3 3 0 2
3 4 5 3
3 6 0 5
3 2 4 3
3 4 7 6
3 0 7 1
3 3 5 0
3 4 6 5
3 6 7 0
3 2 1 4
3 4 1 7
