ply
format ascii 1.0
comment Created by Blender 2.77 (sub 0) - www.blender.org, source file: 'House2-Colliders.blend'
element vertex 8
property float x
property float y
property float z
property float nx
property float ny
property float nz
element face 12
property list uchar uint vertex_indices
end_header
-9.731137 0.233255 6.602070 0.577349 -0.577349 0.577319
-11.109340 0.233254 5.458239 -0.577380 -0.577349 -0.577288
-9.731138 0.233255 5.458015 0.577288 -0.577319 -0.577380
-11.109340 1.637185 6.602182 -0.577319 0.577319 0.577349
-11.109340 0.233254 6.602182 -0.577319 -0.577319 0.577349
-11.109339 1.637185 5.458239 -0.577380 0.577349 -0.577288
-9.731137 1.637186 6.602070 0.577349 0.577349 0.577319
-9.731137 1.637186 5.458015 0.577288 0.577319 -0.577380
3 0 1 2
3 0 3 4
3 5 2 1
3 5 6 7
3 2 6 0
3 1 3 5
3 0 4 1
3 0 6 3
3 5 7 2
3 5 3 6
3 2 7 6
3 1 4 3
