ply
format ascii 1.0
comment Created by Blender 2.77 (sub 0) - www.blender.org, source file: 'House2-Colliders.blend'
element vertex 8
property float x
property float y
property float z
property float nx
property float ny
property float nz
element face 12
property list uchar uint vertex_indices
end_header
9.995655 0.869452 4.719733 0.577349 0.577349 -0.577349
8.224689 0.869452 5.546759 -0.577349 0.577349 0.577349
9.995655 0.869452 5.546760 0.577349 0.577349 0.577349
9.995655 0.237021 5.546760 0.577349 -0.577349 0.577349
9.995655 0.237021 4.719733 0.577349 -0.577349 -0.577349
8.224689 0.237021 4.719733 -0.577349 -0.577349 -0.577349
8.224689 0.869452 4.719733 -0.577349 0.577349 -0.577349
8.224689 0.237020 5.546759 -0.577349 -0.577349 0.577349
3 0 1 2
3 0 3 4
3 5 1 6
3 4 7 5
3 3 1 7
3 4 6 0
3 0 6 1
3 0 2 3
3 5 7 1
3 4 3 7
3 3 2 1
3 4 5 6
