ply
format ascii 1.0
comment Created by Blender 2.77 (sub 0) - www.blender.org, source file: 'House2-Colliders.blend'
element vertex 8
property float x
property float y
property float z
property float nx
property float ny
property float nz
element face 12
property list uchar uint vertex_indices
end_header
-1.977146 0.241538 6.732017 0.577349 -0.577349 -0.577349
-3.378937 0.904401 6.732017 -0.577319 0.577349 -0.577349
-1.977146 0.904402 6.732017 0.577349 0.577349 -0.577349
-3.378937 0.241538 6.732017 -0.577319 -0.577349 -0.577349
-3.379074 0.904401 8.101345 -0.577380 0.577319 0.577319
-1.977146 0.241538 8.101344 0.577349 -0.577349 0.577349
-3.379074 0.241538 8.101345 -0.577380 -0.577319 0.577319
-1.977146 0.904402 8.101344 0.577349 0.577349 0.577349
3 0 1 2
3 3 4 1
3 5 3 0
3 5 4 6
3 0 7 5
3 1 7 2
3 0 3 1
3 3 6 4
3 5 6 3
3 5 7 4
3 0 2 7
3 1 4 7
