ply
format ascii 1.0
comment Created by Blender 2.77 (sub 0) - www.blender.org, source file: 'House2-Colliders.blend'
element vertex 16
property float x
property float y
property float z
property float nx
property float ny
property float nz
element face 28
property list uchar uint vertex_indices
end_header
-5.362871 3.124013 7.179339 0.361644 -0.623005 -0.693564
-5.248046 3.200446 8.173258 0.461776 -0.563005 0.685354
-5.362871 3.124012 8.173258 0.361675 -0.623005 0.693564
-7.446197 3.926719 7.179338 -0.577349 0.577349 -0.577349
-5.401073 3.104864 7.179339 0.173193 -0.732109 -0.658742
-7.274287 3.104863 7.179338 -0.221046 -0.729484 -0.647267
-7.274287 3.104863 8.173258 -0.221046 -0.729484 0.647267
-7.446197 3.219593 7.179338 -0.695456 -0.371960 -0.614765
-5.228944 3.219594 7.179339 0.717399 -0.296609 -0.630329
-5.228945 3.926719 8.173258 0.577349 0.577349 0.577349
-5.228945 3.219594 8.173258 0.717368 -0.296640 0.630360
-5.248045 3.200446 7.179339 0.461806 -0.563005 -0.685354
-5.228944 3.926720 7.179339 0.577349 0.577349 -0.577349
-7.446197 3.926719 8.173258 -0.577349 0.577349 0.577349
-5.401073 3.104864 8.173258 0.173193 -0.732109 0.658742
-7.446197 3.219593 8.173258 -0.695456 -0.371960 0.614765
3 0 1 2
3 3 4 5
3 6 7 5
3 8 9 10
3 11 10 1
3 12 13 9
3 7 13 3
3 13 6 14
3 2 4 0
3 4 6 5
3 0 11 1
3 11 0 12
3 4 3 12
3 7 3 5
3 12 8 11
3 0 4 12
3 6 15 7
3 8 12 9
3 11 8 10
3 12 3 13
3 7 15 13
3 14 2 9
3 1 10 9
3 9 13 14
3 15 6 13
3 2 1 9
3 2 14 4
3 4 14 6
