ply
format ascii 1.0
comment Created by Blender 2.77 (sub 0) - www.blender.org, source file: ''
element vertex 162
property float x
property float y
property float z
property float nx
property float ny
property float nz
property uchar red
property uchar green
property uchar blue
element face 54
property list uchar uint vertex_indices
end_header
-0.000891 0.935946 -0.015994 0.547241 0.313406 -0.776082 109 75 69
-0.001964 0.999240 0.008810 0.547241 0.313406 -0.776082 109 75 69
0.031667 0.894051 -0.009954 0.547241 0.313406 -0.776082 109 75 69
-0.001331 0.249292 -0.050177 -0.187450 -0.196302 -0.962459 109 75 69
0.019563 0.000001 -0.003401 -0.187450 -0.196302 -0.962459 109 75 69
-0.016999 0.001390 0.003436 -0.187450 -0.196302 -0.962459 109 75 69
0.031667 0.894051 -0.009954 0.682800 0.010628 -0.730528 109 75 69
0.029052 0.224864 -0.022134 0.682800 0.010628 -0.730528 109 75 69
-0.001331 0.249292 -0.050177 0.682800 0.010628 -0.730528 109 75 69
-0.016999 0.001390 0.003436 -0.973379 0.012019 -0.228886 109 75 69
-0.000891 0.935946 -0.015994 -0.973379 0.012019 -0.228886 109 75 69
-0.001331 0.249292 -0.050177 -0.973379 0.012019 -0.228886 109 75 69
0.029052 0.224864 -0.022134 0.531339 -0.012567 0.847066 109 75 69
-0.001964 0.999240 0.008810 0.531339 -0.012567 0.847066 109 75 69
-0.016999 0.001390 0.003436 0.531339 -0.012567 0.847066 109 75 69
-0.174512 0.584094 0.209253 0.716400 0.650036 -0.253423 108 97 85
-0.001997 0.299579 -0.032854 0.716400 0.650036 -0.253423 108 97 85
-0.245439 0.659247 0.201518 0.716400 0.650036 -0.253423 108 97 85
0.090177 0.931002 -0.163185 -0.245956 0.825863 0.507400 108 97 85
0.010019 0.817065 -0.016593 -0.245956 0.825863 0.507400 108 97 85
0.140565 0.928453 -0.134612 -0.245956 0.825863 0.507400 108 97 85
-0.028426 0.525675 -0.268870 -0.309195 0.670109 0.674798 108 97 85
-0.000647 0.298214 -0.030262 -0.309195 0.670109 0.674798 108 97 85
0.035407 0.577840 -0.291425 -0.309195 0.670109 0.674798 108 97 85
-0.264886 0.671468 -0.055692 0.935220 0.254449 0.246210 108 97 85
-0.249609 0.669425 -0.111611 0.935220 0.254449 0.246210 108 97 85
-0.307619 0.909476 -0.139344 0.935220 0.254449 0.246210 108 97 85
-0.264886 0.671468 -0.055692 0.718306 0.674229 0.171613 108 97 85
-0.001302 0.384830 -0.032817 0.718306 0.674229 0.171613 108 97 85
-0.249609 0.669425 -0.111611 0.718306 0.674229 0.171613 108 97 85
0.069982 0.669251 0.263388 -0.117411 0.296756 -0.947708 108 97 85
0.012530 0.671468 0.271200 -0.117411 0.296756 -0.947708 108 97 85
0.055565 0.917925 0.343042 -0.117411 0.296756 -0.947708 108 97 85
0.071965 1.485547 0.204393 -0.535083 0.537842 -0.651469 108 97 85
0.052068 1.378510 0.132367 -0.535083 0.537842 -0.651469 108 97 85
0.041734 1.418277 0.173686 -0.535083 0.537842 -0.651469 108 97 85
-0.019257 0.690704 0.145523 0.270504 0.749991 -0.603607 108 97 85
0.010130 0.677985 0.142889 0.270504 0.749991 -0.603607 108 97 85
0.006827 0.550934 -0.016454 0.270504 0.749991 -0.603607 108 97 85
0.069982 0.669251 0.263388 -0.064926 0.726798 -0.683776 108 97 85
-0.002448 0.384687 -0.032203 -0.064926 0.726798 -0.683776 108 97 85
0.012530 0.671468 0.271200 -0.064926 0.726798 -0.683776 108 97 85
0.139776 1.044130 -0.008123 -0.544180 0.612643 -0.573181 108 97 85
0.053428 0.991317 0.017406 -0.544180 0.612643 -0.573181 107 97 85
0.285041 1.262486 0.087351 -0.544180 0.612643 -0.573181 108 97 85
0.090177 0.931002 -0.163185 -0.427890 0.433266 0.793215 108 97 85
0.140565 0.928453 -0.134612 -0.427890 0.433266 0.793215 108 97 85
0.196510 1.090490 -0.192940 -0.427890 0.433266 0.793215 108 97 85
-0.193600 1.342026 0.127436 0.429035 0.664880 -0.611444 108 97 85
-0.000072 1.099180 -0.000840 0.429035 0.664880 -0.611444 108 97 85
-0.167539 1.276967 0.074978 0.429035 0.664880 -0.611444 108 97 85
-0.118899 0.781472 0.076049 0.879755 0.232823 0.414517 108 97 85
-0.081476 0.744035 0.017652 0.879755 0.232823 0.414517 107 97 85
-0.175484 1.039784 0.051058 0.879755 0.232823 0.414517 108 97 85
0.174445 1.399784 -0.021171 -0.808308 0.434411 0.397399 108 97 85
0.123466 1.302824 -0.018870 -0.808308 0.434411 0.397399 108 97 85
0.153154 1.339429 0.001499 -0.808308 0.434411 0.397399 108 97 85
-0.029665 1.418466 -0.149079 -0.200440 0.489289 0.848776 108 97 85
-0.002940 1.368309 -0.113854 -0.200440 0.489289 0.848776 108 97 85
-0.013230 1.492499 -0.187875 -0.200440 0.489289 0.848776 108 97 85
-0.166252 1.418643 -0.045699 0.478804 0.608511 0.632820 108 97 85
0.000470 1.240587 -0.000628 0.478804 0.608511 0.632820 108 97 85
-0.169325 1.458123 -0.081338 0.478804 0.608511 0.632820 108 97 85
-0.022690 1.126930 -0.050269 0.078475 0.429854 0.899482 108 97 85
-0.079336 1.406878 -0.179111 0.078475 0.429854 0.899482 108 97 85
-0.058685 1.174149 -0.069694 0.078475 0.429854 0.899482 108 97 85
0.331395 0.867230 -0.039513 -0.579980 0.501454 0.642002 108 97 85
-0.001491 0.469789 -0.029807 -0.579980 0.501454 0.642002 108 97 85
0.273494 0.754241 -0.003567 -0.579980 0.501454 0.642002 108 97 85
-0.174512 0.584094 0.209253 -0.716401 -0.650036 0.253423 108 97 85
-0.245439 0.659247 0.201518 -0.716401 -0.650036 0.253423 108 97 85
-0.001997 0.299579 -0.032854 -0.716401 -0.650036 0.253423 108 97 85
0.267128 0.751727 -0.061175 0.877305 -0.473834 -0.076270 108 97 85
0.331395 0.867230 -0.039513 0.877305 -0.473834 -0.076270 108 97 85
0.273494 0.754241 -0.003567 0.877305 -0.473834 -0.076270 108 97 85
0.091694 0.925507 -0.165692 0.325912 -0.840520 -0.432790 108 97 85
0.140565 0.928453 -0.134612 0.325912 -0.840520 -0.432790 108 97 85
0.010019 0.817065 -0.016593 0.325912 -0.840520 -0.432790 108 97 85
-0.028426 0.525675 -0.268870 0.309195 -0.670109 -0.674798 108 97 85
0.035407 0.577840 -0.291425 0.309195 -0.670109 -0.674798 108 97 85
-0.000647 0.298214 -0.030262 0.309195 -0.670109 -0.674798 108 97 85
-0.268538 0.667234 -0.056823 -0.910093 -0.257448 -0.324733 108 97 85
-0.307619 0.909476 -0.139344 -0.910093 -0.257448 -0.324733 108 97 85
-0.249609 0.669425 -0.111611 -0.910093 -0.257448 -0.324733 108 97 85
-0.268538 0.667234 -0.056823 -0.689021 -0.674543 -0.265034 108 97 85
-0.249609 0.669425 -0.111611 -0.689021 -0.674543 -0.265034 108 97 85
-0.001302 0.384830 -0.032817 -0.689021 -0.674543 -0.265034 108 97 85
0.069982 0.669251 0.263388 0.199989 -0.288349 0.936408 108 97 85
0.055565 0.917925 0.343042 0.199989 -0.288349 0.936408 108 97 85
0.013142 0.666983 0.274829 0.199989 -0.288349 0.936408 108 97 85
-0.019257 0.690704 0.145523 -0.270504 -0.749991 0.603607 108 97 85
0.006827 0.550934 -0.016454 -0.270504 -0.749991 0.603607 108 97 85
0.010130 0.677985 0.142889 -0.270504 -0.749991 0.603607 108 97 85
0.069982 0.669251 0.263388 0.162660 -0.730435 0.663329 108 97 85
0.013142 0.666983 0.274829 0.162660 -0.730435 0.663329 108 97 85
-0.002448 0.384687 -0.032203 0.162660 -0.730435 0.663329 108 97 85
0.139776 1.044130 -0.008123 0.544180 -0.612643 0.573181 108 97 85
0.285041 1.262486 0.087351 0.544180 -0.612643 0.573181 108 97 85
0.053428 0.991317 0.017406 0.544180 -0.612643 0.573181 107 97 85
0.091694 0.925507 -0.165692 0.500421 -0.440975 -0.745064 108 97 85
0.196510 1.090490 -0.192940 0.500421 -0.440975 -0.745064 108 97 85
0.140565 0.928453 -0.134612 0.500421 -0.440975 -0.745064 108 97 85
-0.193600 1.342026 0.127436 -0.429035 -0.664880 0.611444 108 97 85
-0.167539 1.276967 0.074978 -0.429035 -0.664880 0.611444 108 97 85
-0.000072 1.099180 -0.000840 -0.429035 -0.664880 0.611444 108 97 85
-0.118899 0.781472 0.076049 -0.879755 -0.232823 -0.414517 108 97 85
-0.175484 1.039784 0.051058 -0.879755 -0.232823 -0.414517 108 97 85
-0.081476 0.744035 0.017652 -0.879755 -0.232823 -0.414517 107 97 85
0.052068 1.378510 0.132367 0.535083 -0.537842 0.651469 108 97 85
0.071965 1.485547 0.204393 0.535083 -0.537842 0.651469 108 97 85
0.041734 1.418277 0.173686 0.535083 -0.537842 0.651469 108 97 85
0.123466 1.302824 -0.018870 0.808308 -0.434411 -0.397399 108 97 85
0.174445 1.399784 -0.021171 0.808308 -0.434411 -0.397399 108 97 85
0.153154 1.339429 0.001499 0.808308 -0.434411 -0.397399 108 97 85
-0.166252 1.418643 -0.045699 -0.478804 -0.608512 -0.632820 108 97 85
-0.169325 1.458123 -0.081338 -0.478804 -0.608512 -0.632820 108 97 85
0.000470 1.240587 -0.000628 -0.478804 -0.608512 -0.632820 108 97 85
-0.029665 1.418466 -0.149079 0.200440 -0.489289 -0.848776 108 97 85
-0.013230 1.492499 -0.187875 0.200440 -0.489289 -0.848776 108 97 85
-0.002940 1.368309 -0.113854 0.200440 -0.489289 -0.848776 108 97 85
-0.022690 1.126930 -0.050269 -0.078475 -0.429854 -0.899482 108 97 85
-0.058685 1.174149 -0.069694 -0.078475 -0.429854 -0.899482 108 97 85
-0.079336 1.406878 -0.179111 -0.078475 -0.429854 -0.899482 108 97 85
0.267128 0.751727 -0.061175 0.720366 -0.691832 -0.049413 108 97 85
0.273494 0.754241 -0.003567 0.720366 -0.691832 -0.049413 108 97 85
-0.001491 0.469789 -0.029807 0.720366 -0.691832 -0.049413 108 97 85
-0.264886 0.671468 -0.055692 -0.499492 0.206061 0.841455 108 97 85
-0.307619 0.909476 -0.139344 -0.499492 0.206061 0.841455 108 97 85
-0.268538 0.667234 -0.056823 -0.499492 0.206061 0.841455 108 97 85
-0.002448 0.384687 -0.032203 -0.993463 -0.054328 0.100396 108 97 85
0.013142 0.666983 0.274829 -0.993463 -0.054328 0.100396 108 97 85
0.012530 0.671468 0.271200 -0.993463 -0.054328 0.100396 108 97 85
0.090177 0.931002 -0.163185 -0.550006 0.216199 -0.806691 108 97 85
0.196510 1.090490 -0.192940 -0.550006 0.216199 -0.806691 108 97 85
0.091694 0.925507 -0.165692 -0.550006 0.216199 -0.806691 108 97 85
0.019563 0.000001 -0.003401 0.635082 -0.090706 -0.767101 109 75 69
-0.001331 0.249292 -0.050177 0.635082 -0.090706 -0.767101 109 75 69
0.029052 0.224864 -0.022134 0.635082 -0.090706 -0.767101 109 75 69
0.019563 0.000001 -0.003401 0.186033 0.073774 0.979770 109 75 69
0.029052 0.224864 -0.022134 0.186033 0.073774 0.979770 109 75 69
-0.016999 0.001390 0.003436 0.186033 0.073774 0.979770 109 75 69
-0.000891 0.935946 -0.015994 0.241657 0.048093 -0.969169 109 75 69
0.031667 0.894051 -0.009954 0.241657 0.048093 -0.969169 109 75 69
-0.001331 0.249292 -0.050177 0.241657 0.048093 -0.969169 109 75 69
-0.016999 0.001390 0.003436 -0.996466 0.015459 -0.082567 109 75 69
-0.001964 0.999240 0.008810 -0.996466 0.015459 -0.082567 109 75 69
-0.000891 0.935946 -0.015994 -0.996466 0.015459 -0.082567 109 75 69
0.029052 0.224864 -0.022134 0.443530 -0.018043 0.896078 109 75 69
0.031667 0.894051 -0.009954 0.443530 -0.018043 0.896078 109 75 69
-0.001964 0.999240 0.008810 0.443530 -0.018043 0.896078 109 75 69
-0.001491 0.469789 -0.029807 -0.541705 0.436168 -0.718549 108 97 85
0.331395 0.867230 -0.039513 -0.541705 0.436168 -0.718549 108 97 85
0.267128 0.751727 -0.061175 -0.541705 0.436168 -0.718549 108 97 85
-0.001302 0.384830 -0.032817 -0.190185 -0.096924 0.976952 108 97 85
-0.264886 0.671468 -0.055692 -0.190185 -0.096924 0.976952 108 97 85
-0.268538 0.667234 -0.056823 -0.190185 -0.096924 0.976952 108 97 85
0.012530 0.671468 0.271200 -0.958537 0.088407 0.270909 108 97 85
0.013142 0.666983 0.274829 -0.958537 0.088407 0.270909 108 97 85
0.055565 0.917925 0.343042 -0.958537 0.088407 0.270909 108 97 85
0.010019 0.817065 -0.016593 -0.871608 -0.017113 -0.489905 108 97 85
0.090177 0.931002 -0.163185 -0.871608 -0.017113 -0.489905 108 97 85
0.091694 0.925507 -0.165692 -0.871608 -0.017113 -0.489905 108 97 85
3 0 1 2
3 3 4 5
3 6 7 8
3 9 10 11
3 12 13 14
3 15 16 17
3 18 19 20
3 21 22 23
3 24 25 26
3 27 28 29
3 30 31 32
3 33 34 35
3 36 37 38
3 39 40 41
3 42 43 44
3 45 46 47
3 48 49 50
3 51 52 53
3 54 55 56
3 57 58 59
3 60 61 62
3 63 64 65
3 66 67 68
3 69 70 71
3 72 73 74
3 75 76 77
3 78 79 80
3 81 82 83
3 84 85 86
3 87 88 89
3 90 91 92
3 93 94 95
3 96 97 98
3 99 100 101
3 102 103 104
3 105 106 107
3 108 109 110
3 111 112 113
3 114 115 116
3 117 118 119
3 120 121 122
3 123 124 125
3 126 127 128
3 129 130 131
3 132 133 134
3 135 136 137
3 138 139 140
3 141 142 143
3 144 145 146
3 147 148 149
3 150 151 152
3 153 154 155
3 156 157 158
3 159 160 161
