ply
format ascii 1.0
comment Created by Blender 2.78 (sub 0) - www.blender.org, source file: 'MushroomTrees.blend'
element vertex 288
property float x
property float y
property float z
property float nx
property float ny
property float nz
property uchar red
property uchar green
property uchar blue
element face 96
property list uchar uint vertex_indices
end_header
-0.118321 1.208690 0.196847 -0.875531 -0.320902 0.361202 74 147 159
-0.117721 1.152819 0.148665 -0.875531 -0.320902 0.361202 74 147 159
-0.075807 1.154571 0.251816 -0.875531 -0.320902 0.361202 74 147 159
-0.103814 1.153676 0.307434 -0.576011 -0.759502 -0.302270 74 147 159
-0.118321 1.208690 0.196847 -0.576011 -0.759502 -0.302270 74 147 159
-0.075807 1.154571 0.251816 -0.576011 -0.759502 -0.302270 74 147 159
-0.118321 1.208690 0.196847 -0.099008 -0.650477 0.753045 74 147 159
-0.203696 1.205065 0.182491 -0.099008 -0.650477 0.753045 74 147 159
-0.117721 1.152819 0.148665 -0.099008 -0.650477 0.753045 74 147 159
-0.117721 1.152819 0.148665 0.169291 -0.324035 0.930775 74 147 159
-0.203696 1.205065 0.182491 0.169291 -0.324035 0.930775 74 147 159
-0.248967 1.155263 0.173387 0.169291 -0.324035 0.930775 74 147 159
-0.203696 1.205065 0.182491 0.740166 -0.672421 -0.002216 74 147 159
-0.248931 1.154835 0.315104 0.740166 -0.672421 -0.002216 74 147 159
-0.248967 1.155263 0.173387 0.740166 -0.672421 -0.002216 74 147 159
-0.103814 1.153676 0.307434 0.171601 -0.898303 0.404481 74 147 159
-0.169539 1.236454 0.519159 0.171601 -0.898303 0.404481 74 147 159
-0.186973 1.153539 0.342411 0.171601 -0.898303 0.404481 74 147 159
0.042934 1.228028 0.456790 0.076061 -0.920417 0.383468 74 147 159
-0.169539 1.236454 0.519159 0.076061 -0.920417 0.383468 74 147 159
-0.103814 1.153676 0.307434 0.076061 -0.920417 0.383468 74 147 159
-0.134924 1.230958 -0.036809 0.153119 -0.905528 -0.395694 74 147 159
0.075811 1.229655 0.047720 0.153119 -0.905528 -0.395694 74 147 159
-0.117721 1.152819 0.148665 0.153119 -0.905528 -0.395694 74 147 159
-0.134924 1.230958 -0.036809 0.371837 -0.036780 -0.927569 51 51 51
0.084332 1.340980 0.046722 0.371837 -0.036780 -0.927569 51 51 51
0.075811 1.229655 0.047720 0.371837 -0.036780 -0.927569 51 51 51
-0.130838 1.341094 -0.034473 0.353046 0.006750 -0.935581 51 51 51
0.084332 1.340980 0.046722 0.353046 0.006750 -0.935581 51 51 51
-0.134924 1.230958 -0.036809 0.353046 0.006750 -0.935581 51 51 51
0.124282 1.341817 0.259166 0.786317 0.542118 0.296334 51 51 51
-0.003021 1.477178 0.349332 0.786317 0.542118 0.296334 51 51 51
0.051053 1.338990 0.458651 0.786317 0.542118 0.296334 51 51 51
-0.036952 1.481435 0.102377 0.697524 0.711671 -0.083570 51 51 51
-0.003021 1.477178 0.349332 0.697524 0.711671 -0.083570 51 51 51
0.124282 1.341817 0.259166 0.697524 0.711671 -0.083570 51 51 51
0.084332 1.340980 0.046722 0.721799 0.678123 -0.138407 51 51 51
-0.036952 1.481435 0.102377 0.721799 0.678123 -0.138407 51 51 51
0.124282 1.341817 0.259166 0.721799 0.678123 -0.138407 51 51 51
-0.130838 1.341094 -0.034473 0.292775 0.559939 -0.775082 51 51 51
-0.036952 1.481435 0.102377 0.292775 0.559939 -0.775082 51 51 51
0.084332 1.340980 0.046722 0.292775 0.559939 -0.775082 51 51 51
-0.297040 1.478185 0.345596 -0.797445 0.574202 0.185399 51 51 51
-0.421338 1.339728 0.239776 -0.797445 0.574202 0.185399 51 51 51
-0.372480 1.339202 0.451559 -0.797445 0.574202 0.185399 51 51 51
-0.036952 1.481435 0.102377 0.180164 0.983606 -0.007800 51 51 51
-0.153013 1.504836 0.372580 0.180164 0.983606 -0.007800 51 51 51
-0.003021 1.477178 0.349332 0.180164 0.983606 -0.007800 51 51 51
-0.153013 1.504836 0.372580 -0.041669 0.993708 -0.103959 51 51 51
-0.036952 1.481435 0.102377 -0.041669 0.993708 -0.103959 51 51 51
-0.255132 1.475020 0.128513 -0.041669 0.993708 -0.103959 51 51 51
-0.153013 1.504836 0.372580 -0.173089 0.983748 -0.047755 51 51 51
-0.255132 1.475020 0.128513 -0.173089 0.983748 -0.047755 51 51 51
-0.297040 1.478185 0.345596 -0.173089 0.983748 -0.047755 51 51 51
-0.353830 1.237660 0.051404 -0.291030 -0.890003 -0.350994 0 0 0
-0.337490 1.239079 0.034257 -0.291030 -0.890003 -0.350994 0 0 0
-0.248967 1.155263 0.173387 -0.291030 -0.890003 -0.350994 0 0 0
-0.337490 1.239079 0.034257 -0.103772 -0.879755 -0.463964 74 147 159
-0.117721 1.152819 0.148665 -0.103772 -0.879755 -0.463964 74 147 159
-0.248967 1.155263 0.173387 -0.103772 -0.879755 -0.463964 74 147 159
-0.337490 1.239079 0.034257 -0.166346 -0.914143 -0.369692 74 147 159
-0.134924 1.230958 -0.036809 -0.166346 -0.914143 -0.369692 74 147 159
-0.117721 1.152819 0.148665 -0.166346 -0.914143 -0.369692 74 147 159
-0.428382 1.228257 0.238907 -0.434752 -0.874090 -0.216694 74 147 159
-0.353830 1.237660 0.051404 -0.434752 -0.874090 -0.216694 74 147 159
-0.248967 1.155263 0.173387 -0.434752 -0.874090 -0.216694 74 147 159
-0.335743 1.329822 0.049237 -0.321040 0.160274 -0.933405 51 51 51
-0.134924 1.230958 -0.036809 -0.321040 0.160274 -0.933405 51 51 51
-0.337490 1.239079 0.034257 -0.321040 0.160274 -0.933405 51 51 51
-0.335743 1.329822 0.049237 -0.379561 0.033698 -0.924553 51 51 51
-0.130838 1.341094 -0.034473 -0.379561 0.033698 -0.924553 51 51 51
-0.134924 1.230958 -0.036809 -0.379561 0.033698 -0.924553 51 51 51
-0.428382 1.228257 0.238907 -0.918348 0.171847 -0.356518 51 51 51
-0.335743 1.329822 0.049237 -0.918348 0.171847 -0.356518 51 51 51
-0.353830 1.237660 0.051404 -0.918348 0.171847 -0.356518 51 51 51
-0.421338 1.339728 0.239776 -0.909323 0.060665 -0.411645 51 51 51
-0.335743 1.329822 0.049237 -0.909323 0.060665 -0.411645 51 51 51
-0.428382 1.228257 0.238907 -0.909323 0.060665 -0.411645 51 51 51
-0.255132 1.475020 0.128513 -0.333492 0.587646 -0.737194 51 51 51
-0.130838 1.341094 -0.034473 -0.333492 0.587646 -0.737194 51 51 51
-0.335743 1.329822 0.049237 -0.333492 0.587646 -0.737194 51 51 51
-0.255132 1.475020 0.128513 -0.102530 0.728779 -0.677030 51 51 51
-0.036952 1.481435 0.102377 -0.102530 0.728779 -0.677030 51 51 51
-0.130838 1.341094 -0.034473 -0.102530 0.728779 -0.677030 51 51 51
-0.421338 1.339728 0.239776 -0.721532 0.594426 -0.355035 51 51 51
-0.255132 1.475020 0.128513 -0.721532 0.594426 -0.355035 51 51 51
-0.335743 1.329822 0.049237 -0.721532 0.594426 -0.355035 51 51 51
-0.297040 1.478185 0.345596 -0.680281 0.719101 -0.141813 51 51 51
-0.255132 1.475020 0.128513 -0.680281 0.719101 -0.141813 51 51 51
-0.421338 1.339728 0.239776 -0.680281 0.719101 -0.141813 51 51 51
-0.335743 1.329822 0.049237 -0.723346 0.125998 -0.678892 0 0 0
-0.337490 1.239079 0.034257 -0.723346 0.125998 -0.678892 0 0 0
-0.353830 1.237660 0.051404 -0.723346 0.125998 -0.678892 0 0 0
-0.370450 1.237252 0.459320 -0.512036 -0.856983 0.058303 0 0 0
-0.378280 1.239975 0.430572 -0.512036 -0.856983 0.058303 0 0 0
-0.248931 1.154835 0.315104 -0.512036 -0.856983 0.058303 0 0 0
-0.372480 1.339202 0.451559 -0.077327 0.074150 0.994245 0 0 0
-0.402314 1.217707 0.458300 -0.077327 0.074150 0.994245 0 0 0
-0.370450 1.237252 0.459320 -0.077327 0.074150 0.994245 0 0 0
-0.428382 1.228257 0.238907 -0.377694 -0.925927 -0.002700 74 147 159
-0.248967 1.155263 0.173387 -0.377694 -0.925927 -0.002700 74 147 159
-0.248931 1.154835 0.315104 -0.377694 -0.925927 -0.002700 74 147 159
-0.378280 1.239975 0.430572 -0.433398 -0.885513 0.167431 74 147 159
-0.428382 1.228257 0.238907 -0.433398 -0.885513 0.167431 74 147 159
-0.248931 1.154835 0.315104 -0.433398 -0.885513 0.167431 74 147 159
-0.370450 1.237252 0.459320 -0.181378 -0.911851 0.368279 74 147 159
-0.248931 1.154835 0.315104 -0.181378 -0.911851 0.368279 74 147 159
-0.186973 1.153539 0.342411 -0.181378 -0.911851 0.368279 74 147 159
-0.169539 1.236454 0.519159 -0.132100 -0.892325 0.431632 74 147 159
-0.370450 1.237252 0.459320 -0.132100 -0.892325 0.431632 74 147 159
-0.186973 1.153539 0.342411 -0.132100 -0.892325 0.431632 74 147 159
-0.428382 1.228257 0.238907 0.604447 -0.789048 -0.109762 0 0 0
-0.378280 1.239975 0.430572 0.604447 -0.789048 -0.109762 0 0 0
-0.402314 1.217707 0.458300 0.604447 -0.789048 -0.109762 0 0 0
-0.372480 1.339202 0.451559 -0.961771 0.243164 0.125967 51 51 51
-0.428382 1.228257 0.238907 -0.961771 0.243164 0.125967 51 51 51
-0.402314 1.217707 0.458300 -0.961771 0.243164 0.125967 51 51 51
-0.372480 1.339202 0.451559 -0.972635 0.059708 0.224536 51 51 51
-0.421338 1.339728 0.239776 -0.972635 0.059708 0.224536 51 51 51
-0.428382 1.228257 0.238907 -0.972635 0.059708 0.224536 51 51 51
-0.378280 1.239975 0.430572 0.515288 -0.828611 -0.218819 0 0 0
-0.370450 1.237252 0.459320 0.515288 -0.828611 -0.218819 0 0 0
-0.402314 1.217707 0.458300 0.515288 -0.828611 -0.218819 0 0 0
0.042934 1.228028 0.456790 -0.129420 -0.940620 -0.313822 51 51 51
-0.169635 1.226786 0.548176 -0.129420 -0.940620 -0.313822 51 51 51
-0.169539 1.236454 0.519159 -0.129420 -0.940620 -0.313822 51 51 51
0.051053 1.338990 0.458651 0.249748 0.254271 0.934330 51 51 51
-0.163541 1.349110 0.513258 0.249748 0.254271 0.934330 51 51 51
-0.169635 1.226786 0.548176 0.249748 0.254271 0.934330 51 51 51
0.042934 1.228028 0.456790 0.394792 -0.044276 0.917703 51 51 51
0.051053 1.338990 0.458651 0.394792 -0.044276 0.917703 51 51 51
-0.169635 1.226786 0.548176 0.394792 -0.044276 0.917703 51 51 51
-0.003021 1.477178 0.349332 0.231731 0.643423 0.729594 51 51 51
-0.153013 1.504836 0.372580 0.231731 0.643423 0.729594 51 51 51
-0.163541 1.349110 0.513258 0.231731 0.643423 0.729594 51 51 51
0.051053 1.338990 0.458651 0.214991 0.656277 0.723243 51 51 51
-0.003021 1.477178 0.349332 0.214991 0.656277 0.723243 51 51 51
-0.163541 1.349110 0.513258 0.214991 0.656277 0.723243 51 51 51
-0.297040 1.478185 0.345596 -0.239803 0.667571 0.704871 51 51 51
-0.372480 1.339202 0.451559 -0.239803 0.667571 0.704871 51 51 51
-0.163541 1.349110 0.513258 -0.239803 0.667571 0.704871 51 51 51
-0.153013 1.504836 0.372580 -0.254534 0.657684 0.708989 51 51 51
-0.297040 1.478185 0.345596 -0.254534 0.657684 0.708989 51 51 51
-0.163541 1.349110 0.513258 -0.254534 0.657684 0.708989 51 51 51
-0.370450 1.237252 0.459320 0.089929 -0.944972 -0.314548 0 0 0
-0.169539 1.236454 0.519159 0.089929 -0.944972 -0.314548 0 0 0
-0.169635 1.226786 0.548176 0.089929 -0.944972 -0.314548 0 0 0
-0.372480 1.339202 0.451559 -0.401181 0.061588 0.913926 51 51 51
-0.370450 1.237252 0.459320 -0.401181 0.061588 0.913926 51 51 51
-0.169635 1.226786 0.548176 -0.401181 0.061588 0.913926 51 51 51
-0.163541 1.349110 0.513258 -0.284212 0.276239 0.918104 51 51 51
-0.372480 1.339202 0.451559 -0.284212 0.276239 0.918104 51 51 51
-0.169635 1.226786 0.548176 -0.284212 0.276239 0.918104 51 51 51
0.103728 1.234031 0.241934 0.395422 -0.909439 -0.128692 0 0 0
0.119980 1.236569 0.273934 0.395422 -0.909439 -0.128692 0 0 0
-0.075807 1.154571 0.251816 0.395422 -0.909439 -0.128692 0 0 0
0.145129 1.222543 0.246237 0.754123 0.060926 0.653901 0 0 0
0.124282 1.341817 0.259166 0.754123 0.060926 0.653901 0 0 0
0.119980 1.236569 0.273934 0.754123 0.060926 0.653901 0 0 0
0.119980 1.236569 0.273934 0.359500 -0.926853 0.108184 74 147 159
0.042934 1.228028 0.456790 0.359500 -0.926853 0.108184 74 147 159
-0.103814 1.153676 0.307434 0.359500 -0.926853 0.108184 74 147 159
-0.075807 1.154571 0.251816 0.364475 -0.915787 0.168798 74 147 159
0.119980 1.236569 0.273934 0.364475 -0.915787 0.168798 74 147 159
-0.103814 1.153676 0.307434 0.364475 -0.915787 0.168798 74 147 159
-0.117721 1.152819 0.148665 0.393800 -0.907752 -0.144599 74 147 159
0.103728 1.234031 0.241934 0.393800 -0.907752 -0.144599 74 147 159
-0.075807 1.154571 0.251816 0.393800 -0.907752 -0.144599 74 147 159
0.075811 1.229655 0.047720 0.355270 -0.934282 -0.030018 74 147 159
0.103728 1.234031 0.241934 0.355270 -0.934282 -0.030018 74 147 159
-0.117721 1.152819 0.148665 0.355270 -0.934282 -0.030018 74 147 159
0.075811 1.229655 0.047720 -0.272749 -0.960160 0.060839 51 51 51
0.145129 1.222543 0.246237 -0.272749 -0.960160 0.060839 51 51 51
0.103728 1.234031 0.241934 -0.272749 -0.960160 0.060839 51 51 51
0.119980 1.236569 0.273934 0.920255 -0.073780 0.384301 51 51 51
0.051053 1.338990 0.458651 0.920255 -0.073780 0.384301 51 51 51
0.042934 1.228028 0.456790 0.920255 -0.073780 0.384301 51 51 51
0.124282 1.341817 0.259166 0.938654 0.009999 0.344714 51 51 51
0.051053 1.338990 0.458651 0.938654 0.009999 0.344714 51 51 51
0.119980 1.236569 0.273934 0.938654 0.009999 0.344714 51 51 51
0.084332 1.340980 0.046722 0.965036 0.188420 -0.182219 51 51 51
0.124282 1.341817 0.259166 0.965036 0.188420 -0.182219 51 51 51
0.145129 1.222543 0.246237 0.965036 0.188420 -0.182219 51 51 51
0.075811 1.229655 0.047720 0.940603 -0.074968 -0.331128 51 51 51
0.084332 1.340980 0.046722 0.940603 -0.074968 -0.331128 51 51 51
0.145129 1.222543 0.246237 0.940603 -0.074968 -0.331128 51 51 51
0.103728 1.234031 0.241934 -0.281892 -0.934514 0.217301 0 0 0
0.145129 1.222543 0.246237 -0.281892 -0.934514 0.217301 0 0 0
0.119980 1.236569 0.273934 -0.281892 -0.934514 0.217301 0 0 0
0.065249 -0.006757 0.100228 0.056169 -0.998255 -0.018229 0 0 0
-0.082778 -0.010505 -0.150681 0.056169 -0.998255 -0.018229 0 0 0
0.075448 -0.001504 -0.156035 0.056169 -0.998255 -0.018229 0 0 0
-0.098891 0.001374 0.098078 -0.050010 -0.997761 0.044406 0 0 0
-0.082778 -0.010505 -0.150681 -0.050010 -0.997761 0.044406 0 0 0
0.065249 -0.006757 0.100228 -0.050010 -0.997761 0.044406 0 0 0
0.037541 0.094654 -0.116335 0.926928 0.371155 0.055207 0 0 0
0.022489 0.106598 0.056090 0.926928 0.371155 0.055207 0 0 0
0.065249 -0.006757 0.100228 0.926928 0.371155 0.055207 0 0 0
0.037541 0.094654 -0.116335 0.935523 0.350461 0.044417 0 0 0
0.065249 -0.006757 0.100228 0.935523 0.350461 0.044417 0 0 0
0.075448 -0.001504 -0.156035 0.935523 0.350461 0.044417 0 0 0
-0.043602 0.098552 -0.115697 0.011258 0.385388 -0.922686 0 0 0
0.037541 0.094654 -0.116335 0.011258 0.385388 -0.922686 0 0 0
0.075448 -0.001504 -0.156035 0.011258 0.385388 -0.922686 0 0 0
-0.082778 -0.010505 -0.150681 -0.050283 0.321406 -0.945606 0 0 0
-0.043602 0.098552 -0.115697 -0.050283 0.321406 -0.945606 0 0 0
0.075448 -0.001504 -0.156035 -0.050283 0.321406 -0.945606 0 0 0
-0.043602 0.098552 -0.115697 -0.930140 0.358958 -0.077390 0 0 0
-0.082778 -0.010505 -0.150681 -0.930140 0.358958 -0.077390 0 0 0
-0.098891 0.001374 0.098078 -0.930140 0.358958 -0.077390 0 0 0
-0.053565 0.098034 0.063073 -0.911067 0.409266 -0.049588 0 0 0
-0.043602 0.098552 -0.115697 -0.911067 0.409266 -0.049588 0 0 0
-0.098891 0.001374 0.098078 -0.911067 0.409266 -0.049588 0 0 0
-0.053565 0.098034 0.063073 0.004451 0.338653 0.940901 0 0 0
-0.098891 0.001374 0.098078 0.004451 0.338653 0.940901 0 0 0
0.065249 -0.006757 0.100228 0.004451 0.338653 0.940901 0 0 0
0.022489 0.106598 0.056090 0.042594 0.376428 0.925466 0 0 0
-0.053565 0.098034 0.063073 0.042594 0.376428 0.925466 0 0 0
0.065249 -0.006757 0.100228 0.042594 0.376428 0.925466 0 0 0
-0.123021 0.924846 0.296067 -0.031834 -0.046921 0.998391 0 0 0
-0.103814 1.153676 0.307434 -0.031834 -0.046921 0.998391 0 0 0
-0.204992 0.871320 0.290938 -0.031834 -0.046921 0.998391 0 0 0
-0.186973 1.153539 0.342411 -0.401798 -0.139414 0.905054 0 0 0
-0.248931 1.154835 0.315104 -0.401798 -0.139414 0.905054 0 0 0
-0.204992 0.871320 0.290938 -0.401798 -0.139414 0.905054 0 0 0
-0.103814 1.153676 0.307434 0.380952 -0.189381 0.904992 0 0 0
-0.186973 1.153539 0.342411 0.380952 -0.189381 0.904992 0 0 0
-0.204992 0.871320 0.290938 0.380952 -0.189381 0.904992 0 0 0
-0.099906 0.847800 0.185770 0.983579 0.044823 0.174824 0 0 0
-0.118321 1.208690 0.196847 0.983579 0.044823 0.174824 0 0 0
-0.123021 0.924846 0.296067 0.983579 0.044823 0.174824 0 0 0
-0.118321 1.208690 0.196847 0.983330 -0.074295 -0.165955 0 0 0
-0.103814 1.153676 0.307434 0.983330 -0.074295 -0.165955 0 0 0
-0.123021 0.924846 0.296067 0.983330 -0.074295 -0.165955 0 0 0
-0.118321 1.208690 0.196847 -0.073079 0.026874 -0.996964 0 0 0
-0.099906 0.847800 0.185770 -0.073079 0.026874 -0.996964 0 0 0
-0.193830 0.871387 0.193290 -0.073079 0.026874 -0.996964 0 0 0
-0.203696 1.205065 0.182491 0.166879 -0.026963 -0.985609 0 0 0
-0.118321 1.208690 0.196847 0.166879 -0.026963 -0.985609 0 0 0
-0.193830 0.871387 0.193290 0.166879 -0.026963 -0.985609 0 0 0
-0.203696 1.205065 0.182491 -0.992985 -0.033034 -0.113534 0 0 0
-0.193830 0.871387 0.193290 -0.992985 -0.033034 -0.113534 0 0 0
-0.204992 0.871320 0.290938 -0.992985 -0.033034 -0.113534 0 0 0
-0.248931 1.154835 0.315104 -0.926529 -0.113006 -0.358852 0 0 0
-0.203696 1.205065 0.182491 -0.926529 -0.113006 -0.358852 0 0 0
-0.204992 0.871320 0.290938 -0.926529 -0.113006 -0.358852 0 0 0
-0.123021 0.924846 0.296067 0.072584 -0.204697 0.976130 0 0 0
-0.204992 0.871320 0.290938 0.072584 -0.204697 0.976130 0 0 0
-0.007400 0.339050 0.164627 0.072584 -0.204697 0.976130 0 0 0
-0.099906 0.847800 0.185770 0.976100 0.171962 0.132879 0 0 0
-0.007400 0.339050 0.164627 0.976100 0.171962 0.132879 0 0 0
0.012041 0.308154 0.061803 0.976100 0.171962 0.132879 0 0 0
-0.099906 0.847800 0.185770 0.981043 0.174916 0.083419 0 0 0
-0.123021 0.924846 0.296067 0.981043 0.174916 0.083419 0 0 0
-0.007400 0.339050 0.164627 0.981043 0.174916 0.083419 0 0 0
-0.193830 0.871387 0.193290 -0.023030 0.219287 -0.975389 0 0 0
-0.099906 0.847800 0.185770 -0.023030 0.219287 -0.975389 0 0 0
0.012041 0.308154 0.061803 -0.023030 0.219287 -0.975389 0 0 0
-0.007400 0.339050 0.164627 0.128788 -0.405910 0.904793 0 0 0
-0.053565 0.098034 0.063073 0.128788 -0.405910 0.904793 0 0 0
0.022489 0.106598 0.056090 0.128788 -0.405910 0.904793 0 0 0
-0.007400 0.339050 0.164627 -0.294214 -0.322704 0.899611 0 0 0
-0.204992 0.871320 0.290938 -0.294214 -0.322704 0.899611 0 0 0
-0.053565 0.098034 0.063073 -0.294214 -0.322704 0.899611 0 0 0
0.012041 0.308154 0.061803 0.983985 0.046126 0.172180 0 0 0
-0.007400 0.339050 0.164627 0.983985 0.046126 0.172180 0 0 0
0.022489 0.106598 0.056090 0.983985 0.046126 0.172180 0 0 0
0.012041 0.308154 0.061803 0.995293 0.049227 0.083475 0 0 0
0.022489 0.106598 0.056090 0.995293 0.049227 0.083475 0 0 0
0.037541 0.094654 -0.116335 0.995293 0.049227 0.083475 0 0 0
-0.070250 0.297568 0.053549 -0.006815 0.647286 -0.762217 0 0 0
0.012041 0.308154 0.061803 -0.006815 0.647286 -0.762217 0 0 0
-0.043602 0.098552 -0.115697 -0.006815 0.647286 -0.762217 0 0 0
-0.043602 0.098552 -0.115697 0.024825 0.642202 -0.766133 0 0 0
0.012041 0.308154 0.061803 0.024825 0.642202 -0.766133 0 0 0
0.037541 0.094654 -0.116335 0.024825 0.642202 -0.766133 0 0 0
-0.193830 0.871387 0.193290 0.064856 0.249279 -0.966258 0 0 0
0.012041 0.308154 0.061803 0.064856 0.249279 -0.966258 0 0 0
-0.070250 0.297568 0.053549 0.064856 0.249279 -0.966258 0 0 0
-0.053565 0.098034 0.063073 -0.994751 -0.085842 -0.055686 0 0 0
-0.070250 0.297568 0.053549 -0.994751 -0.085842 -0.055686 0 0 0
-0.043602 0.098552 -0.115697 -0.994751 -0.085842 -0.055686 0 0 0
-0.204992 0.871320 0.290938 -0.980877 -0.159006 -0.112237 0 0 0
-0.193830 0.871387 0.193290 -0.980877 -0.159006 -0.112237 0 0 0
-0.053565 0.098034 0.063073 -0.980877 -0.159006 -0.112237 0 0 0
-0.053565 0.098034 0.063073 -0.906976 -0.095426 -0.410230 0 0 0
-0.193830 0.871387 0.193290 -0.906976 -0.095426 -0.410230 0 0 0
-0.070250 0.297568 0.053549 -0.906976 -0.095426 -0.410230 0 0 0
3 0 1 2
3 3 4 5
3 6 7 8
3 9 10 11
3 12 13 14
3 15 16 17
3 18 19 20
3 21 22 23
3 24 25 26
3 27 28 29
3 30 31 32
3 33 34 35
3 36 37 38
3 39 40 41
3 42 43 44
3 45 46 47
3 48 49 50
3 51 52 53
3 54 55 56
3 57 58 59
3 60 61 62
3 63 64 65
3 66 67 68
3 69 70 71
3 72 73 74
3 75 76 77
3 78 79 80
3 81 82 83
3 84 85 86
3 87 88 89
3 90 91 92
3 93 94 95
3 96 97 98
3 99 100 101
3 102 103 104
3 105 106 107
3 108 109 110
3 111 112 113
3 114 115 116
3 117 118 119
3 120 121 122
3 123 124 125
3 126 127 128
3 129 130 131
3 132 133 134
3 135 136 137
3 138 139 140
3 141 142 143
3 144 145 146
3 147 148 149
3 150 151 152
3 153 154 155
3 156 157 158
3 159 160 161
3 162 163 164
3 165 166 167
3 168 169 170
3 171 172 173
3 174 175 176
3 177 178 179
3 180 181 182
3 183 184 185
3 186 187 188
3 189 190 191
3 192 193 194
3 195 196 197
3 198 199 200
3 201 202 203
3 204 205 206
3 207 208 209
3 210 211 212
3 213 214 215
3 216 217 218
3 219 220 221
3 222 223 224
3 225 226 227
3 228 229 230
3 231 232 233
3 234 235 236
3 237 238 239
3 240 241 242
3 243 244 245
3 246 247 248
3 249 250 251
3 252 253 254
3 255 256 257
3 258 259 260
3 261 262 263
3 264 265 266
3 267 268 269
3 270 271 272
3 273 274 275
3 276 277 278
3 279 280 281
3 282 283 284
3 285 286 287
