ply
format ascii 1.0
comment Created by Blender 2.77 (sub 0) - www.blender.org, source file: 'Masonry0-Colliders.blend'
element vertex 16
property float x
property float y
property float z
property float nx
property float ny
property float nz
element face 28
property list uchar uint vertex_indices
end_header
0.608952 0.144420 -0.093181 -0.500961 -0.682333 0.532334
0.341511 0.714819 -0.409607 -0.788812 0.604541 0.110843
0.341511 0.144420 -0.409607 -0.788812 -0.604541 0.110843
0.511372 0.144419 -0.787492 -0.480453 -0.614399 -0.625813
0.511373 0.714819 -0.787492 -0.480453 0.614399 -0.625813
2.044287 0.714820 0.501809 0.621845 0.612781 0.487625
2.110557 0.144420 0.092837 0.728141 -0.684225 0.040437
2.110557 0.714819 0.092837 0.728141 0.684225 0.040437
1.637792 0.714820 0.674356 -0.094638 0.610340 0.786462
2.044287 0.144420 0.501809 0.621845 -0.612781 0.487625
1.711762 0.714819 -0.982633 0.144078 0.637562 -0.756767
2.067652 0.144419 -0.770516 0.675924 -0.614643 -0.406537
1.711762 0.144419 -0.982633 0.144078 -0.637562 -0.756767
2.067652 0.714819 -0.770516 0.675924 0.614643 -0.406537
1.637792 0.144420 0.674356 -0.094638 -0.610340 0.786462
0.608952 0.714819 -0.093181 -0.500961 0.682333 0.532334
3 0 1 2
3 3 1 4
3 5 6 7
3 8 9 5
3 10 11 12
3 3 10 12
3 3 12 0
3 6 13 7
3 14 15 0
3 10 4 15
3 0 15 1
3 3 2 1
3 5 9 6
3 8 14 9
3 10 13 11
3 3 4 10
3 6 9 14
3 14 0 6
3 2 3 0
3 12 11 6
3 6 0 12
3 6 11 13
3 14 8 15
3 15 8 7
3 5 7 8
3 13 10 7
3 4 1 15
3 15 7 10
