ply
format ascii 1.0
comment Created by Blender 2.77 (sub 0) - www.blender.org, source file: 'Masonry0-Colliders.blend'
element vertex 8
property float x
property float y
property float z
property float nx
property float ny
property float nz
element face 12
property list uchar uint vertex_indices
end_header
-1.967653 3.836877 -4.200333 0.577349 0.577349 0.577349
-2.501253 3.386077 -4.200333 -0.577349 -0.577349 0.577349
-1.967653 3.386077 -4.200333 0.577349 -0.577349 0.577349
-2.501253 3.386077 -4.586733 -0.577349 -0.577349 -0.577349
-2.501253 3.836877 -4.200333 -0.577349 0.577349 0.577349
-2.501253 3.836877 -4.586733 -0.577349 0.577349 -0.577349
-1.967653 3.386077 -4.586733 0.577349 -0.577349 -0.577349
-1.967653 3.836877 -4.586733 0.577349 0.577349 -0.577349
3 0 1 2
3 3 4 5
3 6 0 2
3 7 4 0
3 6 1 3
3 5 6 3
3 0 4 1
3 3 1 4
3 6 7 0
3 7 5 4
3 6 2 1
3 5 7 6
