ply
format ascii 1.0
comment Created by Blender 2.77 (sub 0) - www.blender.org, source file: 'Masonry0-Colliders.blend'
element vertex 8
property float x
property float y
property float z
property float nx
property float ny
property float nz
element face 12
property list uchar uint vertex_indices
end_header
0.240347 2.484468 6.725007 0.577349 -0.768090 0.276864
-0.017253 4.509763 2.416650 -0.577349 -0.276864 -0.768090
0.240347 4.509763 2.416650 0.577349 -0.276864 -0.768090
0.240347 4.759542 2.534067 0.577349 0.768090 -0.276864
0.240347 2.734246 6.842424 0.577349 0.276864 0.768090
-0.017253 4.759542 2.534067 -0.577349 0.768090 -0.276864
-0.017253 2.734246 6.842424 -0.577349 0.276864 0.768090
-0.017253 2.484468 6.725007 -0.577349 -0.768090 0.276864
3 0 1 2
3 0 3 4
3 2 5 3
3 0 6 7
3 5 7 6
3 4 5 6
3 0 7 1
3 0 2 3
3 2 1 5
3 0 4 6
3 5 1 7
3 4 3 5
