ply
format ascii 1.0
comment Created by Blender 2.77 (sub 0) - www.blender.org, source file: 'Masonry0-Colliders.blend'
element vertex 8
property float x
property float y
property float z
property float nx
property float ny
property float nz
element face 12
property list uchar uint vertex_indices
end_header
-4.543653 3.118410 2.046467 -0.772271 0.546831 0.323283
-4.433253 0.137610 1.935512 -0.299722 -0.630451 -0.715995
-4.543653 0.137610 2.046468 -0.772271 -0.546831 0.323283
0.240347 3.118410 2.022451 0.774621 0.546953 0.317423
-4.433253 3.118410 1.935511 -0.299722 0.630451 -0.715995
0.129947 0.137610 1.912604 0.294443 -0.630055 -0.718528
0.129947 3.118410 1.912604 0.294443 0.630055 -0.718528
0.240347 0.137610 2.022451 0.774621 -0.546953 0.317423
3 0 1 2
3 3 4 0
3 3 5 6
3 7 1 5
3 0 7 3
3 4 5 1
3 0 4 1
3 3 6 4
3 3 7 5
3 7 2 1
3 0 2 7
3 4 6 5
