ply
format ascii 1.0
comment Created by Blender 2.77 (sub 0) - www.blender.org, source file: 'Masonry0-Colliders.blend'
element vertex 11
property float x
property float y
property float z
property float nx
property float ny
property float nz
element face 18
property list uchar uint vertex_indices
end_header
0.773947 3.117004 1.194555 0.569445 -0.564562 0.597461
0.773947 3.393003 -2.165085 0.579974 0.605609 -0.544847
0.773947 3.393004 1.182567 0.574236 0.587573 0.570086
-2.901777 3.117004 1.117577 -0.151280 -0.657216 0.738334
-2.930698 3.393004 1.104984 -0.168218 0.673544 0.719718
-2.967141 3.117003 -2.110645 -0.710868 -0.624775 -0.322947
-2.967141 3.393003 -2.110645 -0.588672 0.603137 -0.538194
-2.930495 3.117003 -2.142650 -0.257057 -0.611957 -0.747917
0.773947 3.117003 -2.196891 0.567492 -0.545030 -0.617145
-2.967141 3.117004 1.089116 -0.667837 -0.602069 0.437605
-2.967141 3.393004 1.089116 -0.667806 0.602069 0.437605
3 0 1 2
3 3 2 4
3 5 6 7
3 7 1 8
3 7 3 5
3 9 4 10
3 10 5 9
3 1 6 4
3 0 8 1
3 3 0 2
3 7 6 1
3 9 5 3
3 7 8 3
3 0 3 8
3 9 3 4
3 10 6 5
3 10 4 6
3 2 1 4
