ply
format ascii 1.0
comment Created by Blender 2.77 (sub 0) - www.blender.org, source file: 'Masonry0-Colliders.blend'
element vertex 8
property float x
property float y
property float z
property float nx
property float ny
property float nz
element face 12
property list uchar uint vertex_indices
end_header
6.661946 3.123123 -0.446733 0.651295 0.469405 -0.596179
6.330747 0.027210 -0.446732 -0.577349 -0.577349 -0.577349
6.330747 3.233523 -0.446733 -0.483505 0.670827 -0.562273
6.661946 0.027210 -0.115532 0.577349 -0.577349 0.577349
6.330747 0.027210 -0.115532 -0.577349 -0.577349 0.577349
6.661946 3.123123 -0.115533 0.651295 0.469405 0.596179
6.330747 3.233523 -0.115533 -0.483505 0.670827 0.562273
6.661946 0.027210 -0.446732 0.577349 -0.577349 -0.577349
3 0 1 2
3 1 3 4
3 5 4 3
3 2 4 6
3 2 5 0
3 0 3 7
3 0 7 1
3 1 7 3
3 5 6 4
3 2 1 4
3 2 6 5
3 0 5 3
