ply
format ascii 1.0
comment Created by Blender 2.77 (sub 0) - www.blender.org, source file: 'Masonry0-Colliders.blend'
element vertex 8
property float x
property float y
property float z
property float nx
property float ny
property float nz
element face 12
property list uchar uint vertex_indices
end_header
0.553147 6.460366 -5.009933 -0.577349 0.577349 -0.577349
0.663547 6.460367 2.313267 0.577349 0.577349 0.577349
0.663547 6.460366 -5.009933 0.577349 0.577349 -0.577349
0.663547 3.369167 2.313267 0.577349 -0.577349 0.577349
0.553147 6.460367 2.313267 -0.577349 0.577349 0.577349
0.553147 3.369166 -5.009933 -0.577349 -0.577349 -0.577349
0.553147 3.369167 2.313267 -0.577349 -0.577349 0.577349
0.663547 3.369166 -5.009933 0.577349 -0.577349 -0.577349
3 0 1 2
3 3 2 1
3 4 3 1
3 2 5 0
3 5 3 6
3 6 0 5
3 0 4 1
3 3 7 2
3 4 6 3
3 2 7 5
3 5 7 3
3 6 4 0
