ply
format ascii 1.0
comment Created by Blender 2.77 (sub 0) - www.blender.org, source file: 'Masonry0-Colliders.blend'
element vertex 8
property float x
property float y
property float z
property float nx
property float ny
property float nz
element face 12
property list uchar uint vertex_indices
end_header
-4.506853 0.689611 4.502868 -0.577349 0.577349 0.577349
-3.402853 0.137611 4.502868 0.577349 -0.577349 0.577349
-3.402853 0.689611 4.502868 0.577349 0.577349 0.577349
-3.402853 0.137611 4.171668 0.577349 -0.577349 -0.577349
-4.506853 0.137611 4.502868 -0.577349 -0.577349 0.577349
-4.506853 0.137611 4.171668 -0.577349 -0.577349 -0.577349
-4.506853 0.689611 4.171668 -0.577349 0.577349 -0.577349
-3.402853 0.689611 4.171668 0.577349 0.577349 -0.577349
3 0 1 2
3 3 4 5
3 5 0 6
3 3 2 1
3 7 0 2
3 6 3 5
3 0 4 1
3 3 1 4
3 5 4 0
3 3 7 2
3 7 6 0
3 6 7 3
