ply
format ascii 1.0
comment Created by Blender 2.77 (sub 0) - www.blender.org, source file: 'Masonry0-Colliders.blend'
element vertex 8
property float x
property float y
property float z
property float nx
property float ny
property float nz
element face 12
property list uchar uint vertex_indices
end_header
0.618867 4.644100 -1.812422 -0.723075 -0.381054 -0.576098
7.420663 2.542421 -1.545908 0.382092 -0.722556 0.576098
0.618867 4.644100 -1.518022 -0.721000 -0.381268 0.578570
7.502143 2.806120 -1.545908 0.723075 0.381054 0.576098
7.420663 2.542421 -1.840308 0.380230 -0.721549 -0.578570
7.502143 2.806120 -1.840308 0.721000 0.381268 -0.578570
0.700347 4.907799 -1.812422 -0.382092 0.722556 -0.576098
0.700347 4.907799 -1.518022 -0.380230 0.721549 0.578570
3 0 1 2
3 3 2 1
3 3 4 5
3 0 5 4
3 2 6 0
3 6 3 5
3 0 4 1
3 3 7 2
3 3 1 4
3 0 6 5
3 2 7 6
3 6 7 3
