ply
format ascii 1.0
comment Created by Blender 2.77 (sub 0) - www.blender.org, source file: 'Masonry0-Colliders.blend'
element vertex 8
property float x
property float y
property float z
property float nx
property float ny
property float nz
element face 12
property list uchar uint vertex_indices
end_header
-2.460964 9.253960 2.994066 0.180944 0.808496 -0.559954
-2.293264 8.828291 3.212459 0.780114 -0.180364 0.599048
-2.293264 8.828291 2.994066 0.780114 -0.180364 -0.599048
-5.423955 5.963475 2.994067 -0.030427 -0.815394 -0.578082
-2.460964 9.253960 3.212459 0.180944 0.808496 0.559954
-5.674388 6.229561 2.994067 -0.816095 0.024720 -0.577349
-5.674388 6.229561 3.212460 -0.816095 0.024720 0.577349
-5.423955 5.963475 3.212460 -0.030427 -0.815394 0.578082
3 0 1 2
3 1 3 2
3 4 5 6
3 1 6 7
3 5 2 3
3 6 3 7
3 0 4 1
3 1 7 3
3 4 0 5
3 1 4 6
3 5 0 2
3 6 5 3
