ply
format ascii 1.0
comment Created by Blender 2.77 (sub 0) - www.blender.org, source file: 'Masonry0-Colliders.blend'
element vertex 8
property float x
property float y
property float z
property float nx
property float ny
property float nz
element face 12
property list uchar uint vertex_indices
end_header
-1.397253 3.118409 -3.615318 0.563555 0.603931 -0.563555
-1.342053 2.032809 -3.431318 0.590197 -0.550676 0.590197
-1.342053 2.032809 -3.670518 0.590197 -0.550676 -0.590197
-1.397253 3.118409 -3.486518 0.563555 0.603931 0.563555
-2.924453 3.118409 -3.615318 -0.563555 0.603931 -0.563555
-2.924453 3.118409 -3.486518 -0.563555 0.603931 0.563555
-2.979653 2.032809 -3.431318 -0.590197 -0.550676 0.590197
-2.979653 2.032809 -3.670518 -0.590197 -0.550676 -0.590197
3 0 1 2
3 3 4 5
3 6 2 1
3 1 5 6
3 4 6 5
3 7 0 2
3 0 3 1
3 3 0 4
3 6 7 2
3 1 3 5
3 4 7 6
3 7 4 0
