ply
format ascii 1.0
comment Created by Blender 2.77 (sub 0) - www.blender.org, source file: 'Masonry0-Colliders.blend'
element vertex 10
property float x
property float y
property float z
property float nx
property float ny
property float nz
element face 16
property list uchar uint vertex_indices
end_header
-4.506853 0.689610 2.258068 -0.692496 0.047761 -0.719810
-3.402853 0.137610 2.258068 0.577349 -0.577349 -0.577349
-4.506853 0.137610 2.258068 -0.577349 -0.577349 -0.577349
-4.506853 1.793611 3.067668 -0.577349 0.577349 0.577349
-3.402853 1.793610 2.405267 0.584613 0.610401 -0.534410
-4.506853 1.793610 2.405267 -0.584613 0.610401 -0.534410
-3.402853 0.137610 3.067668 0.577349 -0.577349 0.577349
-4.506853 0.137610 3.067668 -0.577349 -0.577349 0.577349
-3.402853 0.689610 2.258068 0.692496 0.047761 -0.719810
-3.402853 1.793611 3.067668 0.577349 0.577349 0.577349
3 0 1 2
3 3 4 5
3 6 3 7
3 6 1 8
3 8 5 4
3 3 5 0
3 6 2 1
3 0 8 1
3 3 9 4
3 6 9 3
3 8 4 9
3 9 6 8
3 8 0 5
3 0 2 7
3 7 3 0
3 6 7 2
