ply
format ascii 1.0
comment Created by Blender 2.77 (sub 0) - www.blender.org, source file: 'Masonry0-Colliders.blend'
element vertex 8
property float x
property float y
property float z
property float nx
property float ny
property float nz
element face 12
property list uchar uint vertex_indices
end_header
-0.992454 8.127924 2.276466 0.711753 0.319620 -0.625477
-1.323653 3.376010 2.276467 -0.577349 -0.577349 -0.577349
-1.323653 8.422323 2.276466 -0.342540 0.762780 -0.548448
-0.992454 3.376010 2.607667 0.577349 -0.577349 0.577349
-1.323653 3.376010 2.607667 -0.577349 -0.577349 0.577349
-0.992454 8.127924 2.607667 0.711753 0.319620 0.625477
-1.323653 8.422323 2.607667 -0.342540 0.762780 0.548448
-0.992454 3.376010 2.276467 0.577349 -0.577349 -0.577349
3 0 1 2
3 1 3 4
3 5 4 3
3 2 4 6
3 2 5 0
3 3 0 5
3 0 7 1
3 1 7 3
3 5 6 4
3 2 1 4
3 2 6 5
3 3 7 0
