ply
format ascii 1.0
comment Created by Blender 2.77 (sub 0) - www.blender.org, source file: 'Masonry0-Colliders.blend'
element vertex 8
property float x
property float y
property float z
property float nx
property float ny
property float nz
element face 12
property list uchar uint vertex_indices
end_header
0.424347 6.751717 -3.335533 0.276833 0.721488 0.634632
-4.801253 6.751717 -3.703533 -0.319620 0.711753 -0.625477
-4.801253 6.751717 -3.335533 -0.319620 0.711753 0.625477
-5.095653 6.420517 -3.335533 -0.762780 -0.342540 0.548448
-5.095653 6.420516 -3.703533 -0.762780 -0.342540 -0.548448
0.792347 6.420517 -3.335533 0.782373 -0.300211 0.545610
0.424347 6.751717 -3.703533 0.276833 0.721488 -0.634632
0.792347 6.420516 -3.703533 0.782373 -0.300211 -0.545610
3 0 1 2
3 3 1 4
3 0 3 5
3 6 4 1
3 5 4 7
3 6 5 7
3 0 6 1
3 3 2 1
3 0 2 3
3 6 7 4
3 5 3 4
3 6 0 5
