ply
format ascii 1.0
comment Created by Blender 2.77 (sub 0) - www.blender.org, source file: 'Masonry0-Colliders.blend'
element vertex 23
property float x
property float y
property float z
property float nx
property float ny
property float nz
element face 42
property list uchar uint vertex_indices
end_header
0.562347 4.235628 0.105267 0.699240 -0.052675 0.712912
0.212747 4.806028 0.105267 -0.595050 0.508652 0.622211
0.212747 4.235628 0.105267 -0.678060 -0.408918 0.610706
0.535845 4.905717 -0.550693 0.609210 0.792962 -0.005158
0.296955 4.905717 -0.532160 -0.126133 0.989746 -0.066775
0.296955 4.905717 -0.444106 -0.172033 0.982360 0.073092
0.555342 4.070028 0.087112 0.569323 -0.616535 0.543809
0.536943 4.070028 -1.311288 -0.115513 -0.767449 -0.630604
0.555342 4.070028 -1.311288 0.569475 -0.617237 -0.542833
0.414715 4.905717 -0.326346 -0.064638 0.992889 0.099857
0.481743 4.088428 0.087112 -0.316019 -0.763878 0.562670
0.536943 4.070028 0.087112 -0.115574 -0.766503 0.631733
0.562347 4.235628 -1.329933 0.698904 -0.053682 -0.713157
0.212747 4.806028 -1.329933 -0.586291 0.535936 -0.607440
0.562347 4.806028 -1.329933 0.585284 0.534349 -0.609790
0.282280 4.905717 -0.488133 -0.461898 0.886898 0.002838
0.521170 4.905717 -0.594720 0.137669 0.986663 -0.086612
0.517445 4.905717 -0.370373 0.396008 0.916959 0.048463
0.502769 4.905717 -0.326346 0.205054 0.972289 0.112094
0.562347 4.806028 0.105267 0.592669 0.502914 0.629109
0.458743 4.905717 -0.311671 0.004669 0.991729 0.128025
0.481743 4.088428 -1.311288 -0.316630 -0.766045 -0.559343
0.212747 4.235628 -1.329933 -0.677938 -0.409040 -0.610767
3 0 1 2
3 3 4 5
3 6 7 8
3 9 5 1
3 2 10 11
3 12 13 14
3 5 15 1
3 15 13 1
3 8 12 0
3 16 13 4
3 16 3 14
3 17 18 19
3 4 13 15
3 19 20 1
3 14 3 19
3 3 17 19
3 2 21 10
3 2 13 22
3 21 22 7
3 12 7 22
3 11 21 7
3 11 0 2
3 0 19 1
3 9 20 17
3 18 17 20
3 3 16 4
3 4 15 5
3 5 9 17
3 17 3 5
3 6 11 7
3 12 22 13
3 19 0 12
3 6 8 0
3 12 14 19
3 16 14 13
3 9 1 20
3 19 18 20
3 2 22 21
3 2 1 13
3 12 8 7
3 11 10 21
3 11 6 0
