ply
format ascii 1.0
comment Created by Blender 2.77 (sub 0) - www.blender.org, source file: 'Masonry0-Colliders.blend'
element vertex 8
property float x
property float y
property float z
property float nx
property float ny
property float nz
element face 12
property list uchar uint vertex_indices
end_header
0.129947 0.137610 1.912604 -0.717063 -0.630055 0.298044
0.129947 3.118409 -3.510333 -0.717277 0.630238 -0.297098
0.129947 0.137609 -3.510332 -0.717277 -0.630238 -0.297098
0.240347 0.137610 2.022451 0.321329 -0.546953 0.773003
0.240347 3.118409 -3.620733 0.320353 0.546892 -0.773431
0.240347 3.118410 2.022451 0.321329 0.546953 0.773003
0.240347 0.137609 -3.620732 0.320353 -0.546892 -0.773431
0.129947 3.118410 1.912604 -0.717063 0.630055 0.298044
3 0 1 2
3 3 4 5
3 3 2 6
3 6 1 4
3 5 1 7
3 3 7 0
3 0 7 1
3 3 6 4
3 3 0 2
3 6 2 1
3 5 4 1
3 3 5 7
