ply
format ascii 1.0
comment Created by Blender 2.77 (sub 0) - www.blender.org, source file: 'Masonry0-Colliders.blend'
element vertex 8
property float x
property float y
property float z
property float nx
property float ny
property float nz
element face 12
property list uchar uint vertex_indices
end_header
-2.409253 2.484468 6.725007 0.577349 -0.768090 0.276864
-2.740453 2.734246 6.842424 -0.577349 0.276864 0.768090
-2.740453 2.484468 6.725007 -0.577349 -0.768090 0.276864
-2.740453 4.759542 2.534067 -0.577349 0.768090 -0.276864
-2.740453 4.509763 2.416650 -0.577349 -0.276864 -0.768090
-2.409253 4.509763 2.416650 0.577349 -0.276864 -0.768090
-2.409253 4.759542 2.534067 0.577349 0.768090 -0.276864
-2.409253 2.734246 6.842424 0.577349 0.276864 0.768090
3 0 1 2
3 2 3 4
3 5 3 6
3 0 6 7
3 7 3 1
3 0 4 5
3 0 7 1
3 2 1 3
3 5 4 3
3 0 5 6
3 7 6 3
3 0 2 4
