ply
format ascii 1.0
comment Created by Blender 2.77 (sub 0) - www.blender.org, source file: 'Masonry0-Colliders.blend'
element vertex 10
property float x
property float y
property float z
property float nx
property float ny
property float nz
element face 16
property list uchar uint vertex_indices
end_header
-1.645653 0.410430 2.672068 -0.583544 0.578600 0.569750
-1.645653 0.125230 2.267268 -0.587786 -0.579485 -0.564501
-1.645653 0.125230 2.672068 -0.583544 -0.578600 0.569750
0.277147 0.410430 2.718068 0.571001 0.576098 0.584826
0.277147 0.125231 2.313268 0.598102 -0.581744 -0.551164
0.277147 0.410430 2.313268 0.598102 0.581744 -0.551164
-0.734853 0.125230 2.230468 0.014832 -0.693625 -0.720145
-1.645653 0.410430 2.267268 -0.587786 0.579485 -0.564501
-0.734853 0.410430 2.230468 0.014832 0.693625 -0.720145
0.277147 0.125231 2.718068 0.571001 -0.576098 0.584826
3 0 1 2
3 3 4 5
3 6 7 8
3 9 0 2
3 6 9 2
3 0 3 8
3 4 8 5
3 0 7 1
3 3 9 4
3 6 1 7
3 9 3 0
3 2 1 6
3 6 4 9
3 5 8 3
3 7 0 8
3 4 6 8
