ply
format ascii 1.0
comment Created by Blender 2.77 (sub 0) - www.blender.org, source file: 'Masonry0-Colliders.blend'
element vertex 8
property float x
property float y
property float z
property float nx
property float ny
property float nz
element face 12
property list uchar uint vertex_indices
end_header
-4.506916 0.699398 1.894694 0.568163 0.574877 0.588763
-5.683664 0.000198 1.845891 -0.586108 -0.579882 0.565813
-4.506916 0.000198 1.894694 0.568163 -0.574877 0.588763
-4.511609 0.000198 1.085655 0.574084 -0.577349 -0.580554
-4.511609 0.699398 1.085655 0.574084 0.577349 -0.580554
-5.688357 0.699398 1.092051 -0.580706 0.577288 -0.573992
-5.688357 0.000198 1.092052 -0.580706 -0.577288 -0.573992
-5.683664 0.699398 1.845890 -0.586108 0.579882 0.565813
3 0 1 2
3 0 3 4
3 5 3 6
3 7 6 1
3 1 3 2
3 4 7 0
3 0 7 1
3 0 2 3
3 5 4 3
3 7 5 6
3 1 6 3
3 4 5 7
