ply
format ascii 1.0
comment Created by Blender 2.77 (sub 0) - www.blender.org, source file: 'Masonry0-Colliders.blend'
element vertex 10
property float x
property float y
property float z
property float nx
property float ny
property float nz
element face 16
property list uchar uint vertex_indices
end_header
-4.439141 3.393004 1.073393 0.574236 0.587573 0.570086
-5.150853 3.117004 1.070475 -0.580645 -0.566973 0.584216
-4.439141 3.117004 1.085380 0.569445 -0.564562 0.597461
-5.150853 3.117003 -2.110139 -0.575549 -0.546953 -0.607868
-4.439141 3.117003 -2.110645 0.725486 -0.683767 -0.078066
-4.439141 3.393003 -2.088752 0.579974 0.605609 -0.544847
-4.439141 3.203041 -2.110645 0.701926 0.080874 -0.707602
-4.441294 3.117003 -2.120528 0.492233 -0.559496 -0.666768
-5.150853 3.393003 -2.078331 -0.587207 0.606708 -0.535752
-5.150853 3.393004 1.058488 -0.584979 0.589526 0.556932
3 0 1 2
3 3 4 1
3 4 5 2
3 6 4 7
3 8 5 6
3 8 1 9
3 9 5 8
3 0 9 1
3 2 1 4
3 3 7 4
3 0 2 5
3 4 6 5
3 6 7 3
3 3 8 6
3 8 3 1
3 9 0 5
