ply
format ascii 1.0
comment Created by Blender 2.77 (sub 0) - www.blender.org, source file: 'Masonry0-Colliders.blend'
element vertex 10
property float x
property float y
property float z
property float nx
property float ny
property float nz
element face 16
property list uchar uint vertex_indices
end_header
-1.608853 0.631230 3.205668 -0.586230 0.579150 0.566454
-1.608853 0.125231 2.800868 -0.585528 -0.579028 -0.567309
-1.608853 0.125231 3.205668 -0.586230 -0.579150 0.566454
0.267947 0.631230 3.270068 0.568224 0.575549 0.588061
0.267947 0.125230 2.865268 0.600513 -0.582293 -0.547960
0.267947 0.631230 2.865268 0.600513 0.582293 -0.547960
-0.734853 0.631230 2.773268 0.021577 0.693503 -0.720084
-0.734853 0.125231 2.773268 0.021577 -0.693503 -0.720084
0.267947 0.125230 3.270068 0.568224 -0.575549 0.588061
-1.608853 0.631230 2.800868 -0.585528 0.579028 -0.567309
3 0 1 2
3 3 4 5
3 1 6 7
3 8 2 7
3 7 5 4
3 6 0 3
3 3 2 8
3 0 9 1
3 3 8 4
3 1 9 6
3 1 7 2
3 4 8 7
3 7 6 5
3 3 5 6
3 6 9 0
3 3 0 2
