ply
format ascii 1.0
comment Created by Blender 2.77 (sub 0) - www.blender.org, source file: 'Masonry0-Colliders.blend'
element vertex 8
property float x
property float y
property float z
property float nx
property float ny
property float nz
element face 12
property list uchar uint vertex_indices
end_header
-2.848741 3.228810 0.050067 0.549058 0.326060 0.769524
-2.903941 3.247210 -0.520333 -0.624104 0.720145 -0.303018
-2.903941 3.228810 0.050067 -0.549058 0.326060 0.769524
-2.848741 1.039210 -1.937132 0.545701 -0.781701 -0.301828
-2.903941 1.701610 -1.937132 -0.633869 0.280374 -0.720786
-2.903941 1.039210 -1.937132 -0.545701 -0.781701 -0.301828
-2.848741 3.247210 -0.520333 0.624104 0.720145 -0.303018
-2.848741 1.701610 -1.937132 0.633869 0.280374 -0.720786
3 0 1 2
3 2 3 0
3 4 3 5
3 6 4 1
3 4 2 1
3 7 0 3
3 0 6 1
3 2 5 3
3 4 7 3
3 6 7 4
3 4 5 2
3 7 6 0
