ply
format ascii 1.0
comment Created by Blender 2.77 (sub 0) - www.blender.org, source file: 'Masonry0-Colliders.blend'
element vertex 8
property float x
property float y
property float z
property float nx
property float ny
property float nz
element face 12
property list uchar uint vertex_indices
end_header
0.442747 3.376009 -5.267532 -0.577349 -0.577349 -0.577349
0.773946 3.376009 -4.936333 0.577349 -0.577349 0.577349
0.442747 3.376009 -4.936333 -0.577349 -0.577349 0.577349
0.442747 6.471922 -5.267533 -0.577349 0.577349 -0.577349
0.442747 6.471923 -4.936333 -0.577349 0.577349 0.577349
0.773946 6.471923 -4.936333 0.577349 0.577349 0.577349
0.773946 6.471922 -5.267533 0.577349 0.577349 -0.577349
0.773946 3.376009 -5.267532 0.577349 -0.577349 -0.577349
3 0 1 2
3 3 2 4
3 4 1 5
3 3 5 6
3 6 1 7
3 7 3 6
3 0 7 1
3 3 0 2
3 4 2 1
3 3 4 5
3 6 5 1
3 7 0 3
