ply
format ascii 1.0
comment Created by Blender 2.77 (sub 0) - www.blender.org, source file: 'Masonry0-Colliders.blend'
element vertex 12
property float x
property float y
property float z
property float nx
property float ny
property float nz
element face 20
property list uchar uint vertex_indices
end_header
7.076077 3.301427 -3.721932 0.644520 0.479690 0.595355
0.731142 5.265061 -4.071533 -0.380993 0.722160 -0.577319
0.731142 5.265061 -3.721933 -0.380993 0.722160 0.577319
0.700347 5.165398 -4.071533 -0.729545 0.110111 -0.674978
0.700347 5.165398 -3.721933 -0.729545 0.110111 0.674978
6.974747 2.969079 -3.721932 -0.110141 -0.729545 0.674978
7.079059 2.969079 -4.071532 0.580157 -0.574969 -0.576861
7.079059 2.969079 -3.721932 0.580157 -0.574969 0.576861
0.700347 4.907798 -4.071533 -0.646901 -0.477187 -0.594745
0.700347 4.907798 -3.721933 -0.646901 -0.477187 0.594745
7.076077 3.301426 -4.071532 0.644520 0.479690 -0.595355
6.974747 2.969079 -4.071532 -0.110141 -0.729545 -0.674978
3 0 1 2
3 2 3 4
3 5 6 7
3 4 8 9
3 10 7 6
3 0 2 9
3 1 10 8
3 9 11 5
3 0 10 1
3 2 1 3
3 5 11 6
3 4 3 8
3 10 0 7
3 9 5 0
3 7 0 5
3 2 4 9
3 11 8 10
3 3 1 8
3 10 6 11
3 9 8 11
