ply
format ascii 1.0
comment Created by Blender 2.77 (sub 0) - www.blender.org, source file: 'Masonry0-Colliders.blend'
element vertex 10
property float x
property float y
property float z
property float nx
property float ny
property float nz
element face 16
property list uchar uint vertex_indices
end_header
0.700347 4.759542 2.534067 0.418958 0.835871 -0.354595
0.424347 4.509763 2.416650 -0.690634 -0.311014 -0.652882
0.424347 4.759542 2.534067 -0.690634 0.701163 -0.177038
2.806741 2.959040 6.364226 0.733787 0.667318 0.127293
2.801273 2.474439 6.746340 0.571581 -0.770531 0.282022
2.806741 2.709262 6.246809 0.733787 -0.523789 -0.432600
2.437599 2.475972 6.743080 -0.444960 -0.826807 0.344005
2.437599 2.725750 6.860497 -0.444960 0.262642 0.856136
2.801273 2.724217 6.863758 0.571581 0.274453 0.773247
0.700347 4.509763 2.416650 0.418958 -0.260231 -0.869869
3 0 1 2
3 3 4 5
3 1 5 6
3 7 4 8
3 0 5 9
3 2 6 7
3 7 8 3
3 0 9 1
3 3 8 4
3 4 6 5
3 1 9 5
3 7 6 4
3 0 3 5
3 2 1 6
3 3 0 2
3 2 7 3
