ply
format ascii 1.0
comment Created by Blender 2.77 (sub 0) - www.blender.org, source file: 'Masonry0-Colliders.blend'
element vertex 8
property float x
property float y
property float z
property float nx
property float ny
property float nz
element face 12
property list uchar uint vertex_indices
end_header
-3.163385 0.027209 -3.620732 -0.838374 -0.088900 0.537736
2.264347 0.082409 -3.620732 0.050386 0.720389 0.691733
-2.906053 0.082409 -3.620732 -0.076907 0.725272 0.684103
2.656951 0.027209 -3.620732 0.841304 -0.058840 0.537309
2.264347 0.082409 -5.019132 0.048280 0.995331 -0.083560
-3.163385 0.027209 -5.283031 -0.703635 -0.054018 -0.708457
-2.906053 0.082409 -5.019132 -0.079775 0.993805 -0.077059
2.656951 0.027209 -5.283031 0.742698 -0.042573 -0.668233
3 0 1 2
3 3 4 1
3 4 5 6
3 6 1 4
3 3 5 7
3 0 6 5
3 0 3 1
3 3 7 4
3 4 7 5
3 6 2 1
3 3 0 5
3 0 2 6
