ply
format ascii 1.0
comment Created by Blender 2.77 (sub 0) - www.blender.org, source file: 'Masonry0-Colliders.blend'
element vertex 12
property float x
property float y
property float z
property float nx
property float ny
property float nz
element face 20
property list uchar uint vertex_indices
end_header
-2.460964 9.437960 3.212459 -0.577349 0.577349 0.577349
-2.460964 9.253960 2.994066 -0.731590 -0.138890 -0.667409
-2.460964 9.253960 3.212459 -0.731590 -0.138890 0.667409
-2.293264 8.828291 3.212459 -0.453017 -0.659078 0.600269
-2.192395 8.827398 2.994066 0.449629 -0.662801 -0.598743
-2.192395 8.827398 3.212459 0.449629 -0.662801 0.598743
-2.027042 9.253960 3.212459 0.731498 -0.136814 0.667959
-2.027042 9.437960 3.212459 0.577349 0.577349 0.577349
-2.293264 8.828291 2.994066 -0.453017 -0.659078 -0.600269
-2.460964 9.437960 2.994066 -0.577349 0.577349 -0.577349
-2.027042 9.253960 2.994066 0.731498 -0.136814 -0.667959
-2.027042 9.437960 2.994066 0.577349 0.577349 -0.577349
3 0 1 2
3 3 4 5
3 6 7 2
3 3 1 8
3 7 9 0
3 6 4 10
3 6 11 7
3 9 10 1
3 0 9 1
3 3 8 4
3 2 3 6
3 5 6 3
3 7 0 2
3 3 2 1
3 7 11 9
3 6 5 4
3 6 10 11
3 8 1 10
3 9 11 10
3 10 4 8
