ply
format ascii 1.0
comment Created by Blender 2.77 (sub 0) - www.blender.org, source file: 'Masonry0-Colliders.blend'
element vertex 8
property float x
property float y
property float z
property float nx
property float ny
property float nz
element face 12
property list uchar uint vertex_indices
end_header
-4.828651 0.432011 4.539668 0.576312 0.750206 0.324015
-4.828651 0.008810 3.674868 0.590808 -0.766930 -0.250465
-4.828651 0.064010 3.638068 0.567522 0.241432 -0.787133
-5.914251 0.008810 3.674868 -0.590808 -0.766930 -0.250465
-5.914251 0.064010 3.638068 -0.567522 0.241432 -0.787133
-5.914251 0.432011 4.539668 -0.574999 0.743767 0.340800
-5.914251 0.337441 4.571134 -0.580035 -0.354625 0.733299
-4.828651 0.339042 4.575500 0.576373 -0.337474 0.744194
3 0 1 2
3 2 3 4
3 0 4 5
3 5 3 6
3 5 7 0
3 1 6 3
3 0 7 1
3 2 1 3
3 0 2 4
3 5 4 3
3 5 6 7
3 1 7 6
