ply
format ascii 1.0
comment Created by Blender 2.77 (sub 0) - www.blender.org, source file: 'GiantTree0-Colliders.blend'
element vertex 12
property float x
property float y
property float z
property float nx
property float ny
property float nz
element face 20
property list uchar uint vertex_indices
end_header
-1.481172 -0.124104 -0.530835 -0.550615 -0.598865 0.581500
-1.444653 0.180195 -0.530340 0.268746 0.200385 0.942106
-1.474800 0.198136 -0.537558 -0.497024 0.404309 0.767754
-1.414321 -0.124104 -0.550683 0.778619 -0.598987 0.186895
-1.442017 -0.124104 -0.521460 0.228004 -0.598529 0.767937
-1.492631 -0.124104 -0.569431 -0.778405 -0.599567 -0.185888
-1.462299 0.222440 -0.589774 -0.223304 0.620014 -0.752129
-1.483623 0.222440 -0.567274 -0.705954 0.707633 0.029054
-1.423329 0.204870 -0.552839 0.778405 0.487686 0.395245
-1.425780 -0.124104 -0.589279 0.550676 -0.599689 -0.580584
-1.432152 0.222440 -0.582556 0.586322 0.707450 -0.394574
-1.464935 -0.124104 -0.598653 -0.227699 -0.599933 -0.766930
3 0 1 2
3 3 1 4
3 2 5 0
3 6 5 7
3 8 9 10
3 10 6 7
3 1 8 2
3 8 7 2
3 9 6 10
3 5 11 3
3 0 4 1
3 3 8 1
3 2 7 5
3 6 11 5
3 8 3 9
3 8 10 7
3 9 11 6
3 3 4 0
3 0 5 3
3 11 9 3
