ply
format ascii 1.0
comment Created by Blender 2.77 (sub 0) - www.blender.org, source file: 'GiantTree0-Colliders.blend'
element vertex 12
property float x
property float y
property float z
property float nx
property float ny
property float nz
element face 20
property list uchar uint vertex_indices
end_header
-0.986911 -0.010113 1.041051 0.578875 0.786126 -0.216468
-1.230058 -0.076981 0.912802 -0.148137 0.130955 -0.980224
-1.249862 -0.024010 0.947387 -0.348003 0.747612 -0.565600
-0.990156 -0.016755 1.109914 0.424268 0.706870 0.565935
-1.291605 -0.031411 0.998349 -0.734947 0.666372 0.125462
-0.981776 -0.078987 1.139135 0.447432 -0.025452 0.893918
-1.313544 -0.091784 1.014725 -0.926389 -0.068728 0.370190
-1.293740 -0.144755 0.980139 -0.707541 -0.704367 -0.056642
-1.251997 -0.137354 0.929177 -0.303842 -0.600909 -0.739280
-0.970152 -0.134576 1.099492 0.603015 -0.665456 0.439894
-0.966907 -0.127934 1.030628 0.745201 -0.569842 -0.346233
-0.975287 -0.065702 1.001408 0.738639 0.160344 -0.654714
3 0 1 2
3 3 2 4
3 5 4 6
3 7 5 6
3 8 9 7
3 1 10 8
3 8 4 2
3 0 9 10
3 0 11 1
3 3 0 2
3 5 3 4
3 7 9 5
3 8 10 9
3 1 11 10
3 2 1 8
3 8 7 6
3 6 4 8
3 10 11 0
3 0 3 5
3 5 9 0
