ply
format ascii 1.0
comment Created by Blender 2.77 (sub 0) - www.blender.org, source file: 'GiantTree0-Colliders.blend'
element vertex 12
property float x
property float y
property float z
property float nx
property float ny
property float nz
element face 20
property list uchar uint vertex_indices
end_header
-0.165825 0.018198 0.606881 0.609241 0.754021 -0.245491
-0.539982 0.010222 0.850517 -0.798425 0.593890 -0.098788
-0.505744 0.025563 0.917470 -0.356548 0.762291 0.540147
-0.128706 -0.039127 0.641898 0.977599 0.161992 0.134312
-0.482755 -0.031891 0.962866 -0.069918 0.163762 0.984008
-0.494003 -0.104685 0.941309 -0.213111 -0.593097 0.776391
-0.528241 -0.120026 0.874356 -0.653676 -0.745537 0.129734
-0.145050 -0.111968 0.624084 0.805078 -0.591357 -0.046113
-0.551230 -0.062572 0.828960 -0.945128 -0.149480 -0.290445
-0.198515 -0.127483 0.571254 0.261727 -0.751061 -0.606098
-0.219290 0.002683 0.554051 0.068789 0.592120 -0.802881
-0.235635 -0.070158 0.536237 -0.105136 -0.157872 -0.981842
3 0 1 2
3 3 2 4
3 5 3 4
3 6 7 5
3 8 9 6
3 10 8 1
3 1 6 2
3 3 9 10
3 0 10 1
3 3 0 2
3 5 7 3
3 6 9 7
3 8 11 9
3 10 11 8
3 4 2 6
3 1 8 6
3 6 5 4
3 10 0 3
3 3 7 9
3 9 11 10
