ply
format ascii 1.0
comment Created by Blender 2.77 (sub 0) - www.blender.org, source file: 'GiantTree0-Colliders.blend'
element vertex 12
property float x
property float y
property float z
property float nx
property float ny
property float nz
element face 20
property list uchar uint vertex_indices
end_header
-0.236929 0.456165 0.005614 -0.833949 -0.125645 0.537309
-0.148408 0.684121 -0.118936 -0.393780 0.709128 -0.584826
-0.242373 0.421947 -0.045810 -0.871059 -0.455275 -0.184301
-0.183959 0.455485 0.037843 -0.188452 -0.196478 0.962218
-0.154011 0.694234 -0.055045 -0.444685 0.873196 0.199408
-0.051180 0.651523 -0.039266 0.833186 0.400281 0.381512
-0.136434 0.420587 0.018648 0.443709 -0.563585 0.696738
-0.045577 0.641410 -0.103157 0.888760 0.229011 -0.396985
-0.141878 0.386369 -0.032777 0.426252 -0.904324 -0.021332
-0.094190 0.657709 -0.142992 0.274178 0.384350 -0.881497
-0.194848 0.387049 -0.065006 -0.239814 -0.856777 -0.456496
-0.105397 0.677935 -0.015209 0.170690 0.716575 0.676290
3 0 1 2
3 3 4 0
3 5 3 6
3 7 6 8
3 9 8 10
3 2 9 10
3 0 10 6
3 9 4 7
3 0 4 1
3 3 11 4
3 5 11 3
3 7 5 6
3 9 7 8
3 2 1 9
3 6 3 0
3 0 2 10
3 10 8 6
3 5 7 4
3 9 1 4
3 4 11 5
