ply
format ascii 1.0
comment Created by Blender 2.77 (sub 0) - www.blender.org, source file: 'GiantTree0-Colliders.blend'
element vertex 12
property float x
property float y
property float z
property float nx
property float ny
property float nz
element face 20
property list uchar uint vertex_indices
end_header
0.466598 2.254923 -0.589971 -0.500412 -0.165746 0.849757
0.676170 2.515015 -0.684848 -0.054292 0.991363 0.119205
0.423811 2.281977 -0.641707 -0.947722 0.155889 0.278329
0.514527 2.203125 -0.606064 0.016633 -0.737999 0.674551
0.710054 2.481344 -0.633069 0.345470 0.628620 0.696738
0.765656 2.410583 -0.715471 0.958617 -0.174078 -0.225227
0.519671 2.178383 -0.673890 0.092288 -0.993133 -0.071505
0.731772 2.444255 -0.767250 0.560442 0.187078 -0.806757
0.476885 2.205438 -0.725626 -0.354137 -0.674795 -0.647450
0.687029 2.496471 -0.751938 0.052980 0.771172 -0.634388
0.428955 2.257235 -0.709534 -0.875820 -0.099216 -0.472274
0.754797 2.429127 -0.648381 0.850093 0.048128 0.524369
3 0 1 2
3 3 4 0
3 5 3 6
3 7 6 8
3 9 8 10
3 2 9 10
3 5 7 1
3 10 6 2
3 0 4 1
3 3 11 4
3 5 11 3
3 7 5 6
3 9 7 8
3 2 1 9
3 1 4 11
3 11 5 1
3 7 9 1
3 0 2 6
3 10 8 6
3 6 3 0
