ply
format ascii 1.0
comment Created by Blender 2.77 (sub 0) - www.blender.org, source file: 'GiantTree0-Colliders.blend'
element vertex 12
property float x
property float y
property float z
property float nx
property float ny
property float nz
element face 20
property list uchar uint vertex_indices
end_header
-1.577947 -0.012161 0.356073 -0.552843 0.730308 -0.401227
-1.220436 -0.010452 0.737504 0.775628 0.624409 0.092074
-1.509819 -0.024577 0.322988 0.123753 0.594928 -0.794183
-1.621115 -0.071531 0.378479 -0.984039 0.115787 -0.135075
-1.270759 0.002799 0.793914 0.191382 0.767754 0.611469
-1.282345 -0.128045 0.814316 0.049501 -0.593097 0.803583
-1.596156 -0.143317 0.367798 -0.732597 -0.628864 -0.260323
-1.232021 -0.141297 0.757905 0.633564 -0.722495 0.276650
-1.528027 -0.155733 0.334713 -0.051912 -0.754967 -0.653676
-1.201066 -0.082500 0.719499 0.991638 -0.110874 -0.065950
-1.484858 -0.096363 0.312308 0.368694 -0.141972 -0.918638
-1.301714 -0.055997 0.832320 -0.168706 0.154790 0.973418
3 0 1 2
3 3 4 0
3 5 3 6
3 7 6 8
3 9 8 10
3 2 9 10
3 0 8 6
3 5 7 1
3 0 4 1
3 3 11 4
3 5 11 3
3 7 5 6
3 9 7 8
3 2 1 9
3 6 3 0
3 0 2 10
3 10 8 0
3 1 4 11
3 11 5 1
3 7 9 1
