ply
format ascii 1.0
comment Created by Blender 2.77 (sub 0) - www.blender.org, source file: 'GiantTree0-Colliders.blend'
element vertex 12
property float x
property float y
property float z
property float nx
property float ny
property float nz
element face 20
property list uchar uint vertex_indices
end_header
-0.081128 1.882061 -0.479405 -0.638020 0.134556 -0.758141
-0.047232 1.729947 -0.215983 -0.194464 -0.955718 0.220740
-0.095693 1.771472 -0.182742 -0.742668 -0.454451 0.491836
-0.059962 1.942063 -0.444851 -0.392163 0.818842 -0.419141
-0.074592 1.831400 -0.148960 -0.510880 0.235206 0.826838
0.006874 1.946325 -0.417337 0.371654 0.900693 -0.224860
-0.005030 1.849801 -0.148419 0.263894 0.421735 0.867428
0.043431 1.808276 -0.181661 0.806116 -0.092837 0.584368
0.022329 1.748349 -0.215443 0.572344 -0.770928 0.279427
0.052544 1.890584 -0.424375 0.877377 0.310343 -0.365856
0.031377 1.830581 -0.458929 0.643605 -0.366588 -0.671834
-0.035459 1.826319 -0.486444 -0.124058 -0.464522 -0.876797
3 0 1 2
3 3 2 4
3 5 4 6
3 7 5 6
3 8 9 7
3 1 10 8
3 0 9 10
3 8 6 2
3 0 11 1
3 3 0 2
3 5 3 4
3 7 9 5
3 8 10 9
3 1 11 10
3 10 11 0
3 0 3 5
3 5 9 0
3 2 1 8
3 8 7 6
3 6 4 2
