ply
format ascii 1.0
comment Created by Blender 2.77 (sub 0) - www.blender.org, source file: 'GiantTree0-Colliders.blend'
element vertex 12
property float x
property float y
property float z
property float nx
property float ny
property float nz
element face 20
property list uchar uint vertex_indices
end_header
-0.136253 0.799779 0.105999 0.039277 -0.389141 0.920316
-0.184562 1.076538 -0.007350 -0.623127 0.761498 0.178259
-0.191236 0.786399 0.077056 -0.650441 -0.521989 0.551744
-0.081892 0.798554 0.073085 0.716758 -0.463820 0.520646
-0.127073 1.078870 0.026441 0.069216 0.816950 0.572497
-0.082515 0.783950 0.011229 0.707450 -0.666219 -0.235786
-0.070367 1.059342 -0.002806 0.750175 0.628864 0.204260
-0.128640 1.035149 -0.099635 0.055635 0.326975 -0.943358
-0.137499 0.770570 -0.017714 0.028047 -0.793634 -0.607715
-0.185345 1.054677 -0.070388 -0.630085 0.514817 -0.581286
-0.191859 0.771795 0.015200 -0.656117 -0.723167 -0.215644
-0.071151 1.037481 -0.065843 0.740867 0.386731 -0.549089
3 0 1 2
3 3 4 0
3 5 6 3
3 7 5 8
3 9 8 10
3 1 10 2
3 7 1 11
3 10 8 3
3 0 4 1
3 3 6 4
3 5 11 6
3 7 11 5
3 9 7 8
3 1 9 10
3 6 11 1
3 7 9 1
3 1 4 6
3 3 0 2
3 2 10 3
3 8 5 3
