ply
format ascii 1.0
comment Created by Blender 2.77 (sub 0) - www.blender.org, source file: 'GiantTree0-Colliders.blend'
element vertex 12
property float x
property float y
property float z
property float nx
property float ny
property float nz
element face 20
property list uchar uint vertex_indices
end_header
0.051680 0.034676 0.360295 0.516037 0.819208 -0.250160
-0.219290 0.002683 0.554051 -0.815058 0.570666 0.099979
-0.165825 0.018198 0.606881 -0.252205 0.732780 0.631977
-0.128706 -0.039127 0.641898 0.147923 0.141758 0.978759
-0.145050 -0.111968 0.624084 -0.016968 -0.612476 0.790277
0.098521 -0.021258 0.384116 0.970489 0.238014 0.038057
-0.198515 -0.127483 0.571254 -0.581439 -0.772210 0.256142
0.087505 -0.093336 0.360166 0.837550 -0.514206 -0.184576
-0.017195 -0.053546 0.288573 -0.205847 -0.090762 -0.974334
-0.235635 -0.070158 0.536237 -0.979919 -0.178961 -0.087771
-0.006178 0.018532 0.312524 -0.066683 0.653554 -0.753899
0.029647 -0.109480 0.312395 0.246712 -0.679098 -0.691305
3 0 1 2
3 3 0 2
3 4 5 3
3 6 7 4
3 8 6 9
3 10 9 1
3 6 3 1
3 0 5 11
3 0 10 1
3 3 5 0
3 4 7 5
3 6 11 7
3 8 11 6
3 10 8 9
3 1 9 6
3 6 4 3
3 3 2 1
3 11 8 10
3 10 0 11
3 5 7 11
