ply
format ascii 1.0
comment Created by Blender 2.77 (sub 0) - www.blender.org, source file: 'GiantTree0-Colliders.blend'
element vertex 12
property float x
property float y
property float z
property float nx
property float ny
property float nz
element face 20
property list uchar uint vertex_indices
end_header
0.197072 2.661615 0.814371 0.017243 0.166936 0.985809
0.257488 2.341277 0.591696 -0.347179 -0.935331 0.067812
0.326646 2.345456 0.612721 0.400159 -0.856655 0.325480
0.243818 2.702308 0.777081 0.526322 0.620899 0.580889
0.373418 2.386252 0.575433 0.912259 -0.401807 -0.079348
0.351032 2.422869 0.517120 0.673238 -0.027009 -0.738884
0.281874 2.418691 0.496096 -0.072359 -0.111881 -0.991058
0.224283 2.730796 0.713531 0.305246 0.946196 -0.107364
0.235102 2.377895 0.533384 -0.577868 -0.563860 -0.589953
0.158002 2.718591 0.687273 -0.422346 0.817805 -0.390820
0.130791 2.649411 0.788113 -0.712729 0.038789 0.700339
0.111255 2.677899 0.724564 -0.931028 0.364696 0.011567
3 0 1 2
3 3 2 4
3 5 3 4
3 6 7 5
3 8 9 6
3 10 8 1
3 7 11 3
3 8 4 2
3 0 10 1
3 3 0 2
3 5 7 3
3 6 9 7
3 8 11 9
3 10 11 8
3 0 3 11
3 7 9 11
3 11 10 0
3 2 1 8
3 8 6 5
3 5 4 8
