ply
format ascii 1.0
comment Created by Blender 2.77 (sub 0) - www.blender.org, source file: 'GiantTree0-Colliders.blend'
element vertex 12
property float x
property float y
property float z
property float nx
property float ny
property float nz
element face 20
property list uchar uint vertex_indices
end_header
0.205695 -0.029788 0.909159 -0.355510 0.597430 -0.718772
0.146245 -0.005862 1.237560 -0.875393 0.114719 0.469558
0.183078 0.056472 1.237804 -0.466170 0.788751 0.400586
0.276976 -0.030758 0.910379 0.428571 0.593188 -0.681478
0.253588 0.056794 1.254253 0.321818 0.785272 0.528855
0.287264 -0.005219 1.270459 0.691366 0.103153 0.715079
0.250431 -0.067553 1.270216 0.270394 -0.572893 0.773705
0.311736 -0.092937 0.913392 0.818659 -0.084231 -0.568041
0.179921 -0.067875 1.253766 -0.509079 -0.558306 0.655049
0.275214 -0.154146 0.915186 0.408795 -0.765893 -0.496231
0.169173 -0.090996 0.910953 -0.768273 -0.067110 -0.636586
0.203932 -0.153175 0.913966 -0.386273 -0.756890 -0.527146
3 0 1 2
3 3 2 4
3 5 3 4
3 6 7 5
3 8 9 6
3 10 8 1
3 5 1 8
3 10 0 7
3 0 10 1
3 3 0 2
3 5 7 3
3 6 9 7
3 8 11 9
3 10 11 8
3 8 6 5
3 5 4 2
3 2 1 5
3 7 9 11
3 11 10 7
3 0 3 7
