ply
format ascii 1.0
comment Created by Blender 2.77 (sub 0) - www.blender.org, source file: 'GiantTree0-Colliders.blend'
element vertex 12
property float x
property float y
property float z
property float nx
property float ny
property float nz
element face 20
property list uchar uint vertex_indices
end_header
0.296137 1.556000 -0.044136 0.461318 0.174902 0.869808
0.158354 1.383715 -0.110487 -0.643727 -0.554094 0.527787
0.224183 1.353625 -0.112341 0.085910 -0.849818 0.520005
0.339628 1.571343 -0.099952 0.927061 0.290384 0.237098
0.260225 1.349224 -0.174982 0.508316 -0.847346 -0.153478
0.230437 1.374913 -0.235770 0.190466 -0.543687 -0.817377
0.164608 1.405002 -0.233916 -0.545671 -0.240974 -0.802576
0.313766 1.607435 -0.157143 0.634968 0.657796 -0.405072
0.128567 1.409404 -0.171275 -0.960234 -0.249153 -0.125797
0.244413 1.628185 -0.158518 -0.122959 0.902860 -0.411908
0.226783 1.576749 -0.045511 -0.286203 0.420728 0.860836
0.200922 1.612842 -0.102702 -0.582415 0.781091 0.224982
3 0 1 2
3 3 2 4
3 5 3 4
3 6 7 5
3 8 9 6
3 10 8 1
3 9 10 7
3 8 6 4
3 0 10 1
3 3 0 2
3 5 7 3
3 6 9 7
3 8 11 9
3 10 11 8
3 3 7 10
3 9 11 10
3 10 0 3
3 4 2 1
3 1 8 4
3 6 5 4
