ply
format ascii 1.0
comment Created by Blender 2.77 (sub 0) - www.blender.org, source file: 'GiantTree0-Colliders.blend'
element vertex 12
property float x
property float y
property float z
property float nx
property float ny
property float nz
element face 20
property list uchar uint vertex_indices
end_header
0.144730 2.596186 0.460115 -0.647664 0.393017 0.652699
0.112406 2.116052 0.217873 -0.708579 -0.463271 -0.532182
0.116793 2.094365 0.284437 -0.658040 -0.719779 0.221107
0.179540 2.087571 0.315047 0.056429 -0.829737 0.555254
0.237899 2.102465 0.279094 0.715201 -0.685049 0.138462
0.203326 2.584267 0.486267 0.056429 0.249153 0.966796
0.233513 2.124152 0.212531 0.666738 -0.428449 -0.609760
0.257484 2.601783 0.454338 0.713767 0.414106 0.564806
0.194451 2.643135 0.370105 -0.049776 0.877041 -0.477767
0.170766 2.130946 0.181920 -0.043519 -0.316263 -0.947661
0.140293 2.625620 0.402035 -0.706717 0.704154 -0.068453
0.253047 2.631216 0.396257 0.662679 0.731559 -0.160070
3 0 1 2
3 3 0 2
3 4 5 3
3 6 7 4
3 8 6 9
3 10 9 1
3 7 8 0
3 2 1 6
3 0 10 1
3 3 5 0
3 4 7 5
3 6 11 7
3 8 11 6
3 10 8 9
3 0 5 7
3 7 11 8
3 8 10 0
3 6 4 3
3 3 2 6
3 1 9 6
