ply
format ascii 1.0
comment Created by Blender 2.77 (sub 0) - www.blender.org, source file: 'GiantTree0-Colliders.blend'
element vertex 12
property float x
property float y
property float z
property float nx
property float ny
property float nz
element face 20
property list uchar uint vertex_indices
end_header
-0.205012 0.517381 0.013731 -0.987793 0.019257 0.154424
-0.010397 0.754557 -0.071922 -0.086306 0.724601 -0.683706
-0.192036 0.484498 -0.040301 -0.780419 -0.318796 -0.537858
-0.169507 0.507630 0.066773 -0.575579 -0.132969 0.806818
-0.036137 0.765851 -0.016979 -0.379009 0.925047 0.023774
0.048699 0.722666 0.031644 0.683370 0.340373 0.645833
-0.121025 0.464996 0.065782 0.051943 -0.611469 0.789544
0.074440 0.711372 -0.023298 0.988647 0.138035 -0.059328
-0.108049 0.432112 0.011751 0.268685 -0.957671 0.103061
0.044892 0.727317 -0.075081 0.602496 0.331889 -0.725791
-0.143555 0.441863 -0.041291 -0.152287 -0.813654 -0.560991
-0.006589 0.749906 0.034804 0.003571 0.734550 0.678487
3 0 1 2
3 3 4 0
3 5 3 6
3 7 6 8
3 9 8 10
3 2 9 10
3 1 5 7
3 2 10 6
3 0 4 1
3 3 11 4
3 5 11 3
3 7 5 6
3 9 7 8
3 2 1 9
3 7 9 1
3 1 4 11
3 11 5 1
3 6 3 0
3 0 2 6
3 10 8 6
