ply
format ascii 1.0
comment Created by Blender 2.77 (sub 0) - www.blender.org, source file: 'GiantTree0-Colliders.blend'
element vertex 12
property float x
property float y
property float z
property float nx
property float ny
property float nz
element face 20
property list uchar uint vertex_indices
end_header
-0.046215 0.883301 0.150229 0.658437 -0.720084 -0.218848
-0.040302 1.164950 0.093525 0.753075 0.657155 0.031648
-0.039528 0.903554 0.214389 0.740043 -0.435499 0.512467
-0.107760 0.872269 0.124501 -0.054781 -0.857021 -0.512314
-0.047562 1.132502 0.031360 0.670522 0.307749 -0.675008
-0.162618 0.881490 0.162933 -0.699057 -0.710227 -0.082888
-0.111651 1.124271 0.003167 -0.049654 0.187872 -0.980926
-0.161220 1.180935 0.099303 -0.616474 0.776238 0.131748
-0.155931 0.901743 0.227093 -0.625904 -0.427595 0.652181
-0.097131 1.189166 0.127496 0.111240 0.891903 0.438246
-0.094386 0.912775 0.252821 0.096500 -0.290597 0.951933
-0.168480 1.148488 0.037138 -0.697165 0.422498 -0.579150
3 0 1 2
3 3 4 0
3 5 6 3
3 7 5 8
3 9 8 10
3 1 10 2
3 8 3 10
3 6 9 1
3 0 4 1
3 3 6 4
3 5 11 6
3 7 11 5
3 9 7 8
3 1 9 10
3 2 10 3
3 8 5 3
3 3 0 2
3 1 4 6
3 6 11 7
3 7 9 6
