ply
format ascii 1.0
comment Created by Blender 2.77 (sub 0) - www.blender.org, source file: 'GiantTree0-Colliders.blend'
element vertex 12
property float x
property float y
property float z
property float nx
property float ny
property float nz
element face 20
property list uchar uint vertex_indices
end_header
-1.775426 0.014354 -0.045786 0.055391 0.594348 -0.802271
-1.573585 0.042450 0.296498 0.975616 0.106388 0.191900
-1.744435 -0.030953 -0.049628 0.493698 -0.057222 -0.867733
-1.652392 0.086409 0.332160 -0.158971 0.729148 0.665609
-1.826999 0.010893 -0.026911 -0.670675 0.555681 -0.491256
-1.674163 0.036549 0.345509 -0.446883 0.023103 0.894284
-1.847580 -0.037875 -0.011878 -0.958647 -0.143590 -0.245705
-1.645645 -0.010361 0.334353 -0.021546 -0.632557 0.774163
-1.816589 -0.083182 -0.015720 -0.514389 -0.799310 -0.310556
-1.765017 -0.079721 -0.034595 0.214057 -0.753044 -0.622150
-1.595356 -0.007410 0.309848 0.684500 -0.591998 0.425336
-1.602102 0.089359 0.307655 0.554308 0.770898 0.313700
3 0 1 2
3 3 0 4
3 5 4 6
3 7 6 8
3 9 7 8
3 2 10 9
3 0 9 4
3 3 5 10
3 0 11 1
3 3 11 0
3 5 3 4
3 7 5 6
3 9 10 7
3 2 1 10
3 6 4 9
3 0 2 9
3 9 8 6
3 10 1 11
3 11 3 10
3 5 7 10
