ply
format ascii 1.0
comment Created by Blender 2.77 (sub 0) - www.blender.org, source file: 'GiantTree0-Colliders.blend'
element vertex 12
property float x
property float y
property float z
property float nx
property float ny
property float nz
element face 20
property list uchar uint vertex_indices
end_header
-0.521691 2.576559 0.085275 0.206854 0.867855 -0.451643
-0.335843 2.063279 0.019535 0.938322 -0.345317 0.016907
-0.362069 2.064015 -0.045050 0.630146 -0.302011 -0.715323
-0.580145 2.553301 0.074124 -0.533921 0.619037 -0.575915
-0.427579 2.043013 -0.056309 -0.125889 -0.524583 -0.841975
-0.613194 2.525916 0.121452 -0.949614 0.312906 0.016755
-0.466865 2.021274 -0.002984 -0.570147 -0.787530 -0.233894
-0.440639 2.020537 0.061601 -0.256722 -0.828852 0.497055
-0.375128 2.041539 0.072860 0.495346 -0.609027 0.619404
-0.587790 2.521790 0.179930 -0.633808 0.248238 0.732566
-0.529337 2.545048 0.191080 0.104923 0.492508 0.863948
-0.496287 2.572433 0.143753 0.527238 0.805414 0.270760
3 0 1 2
3 3 2 4
3 5 4 6
3 7 5 6
3 8 9 7
3 1 10 8
3 2 8 6
3 11 3 10
3 0 11 1
3 3 0 2
3 5 3 4
3 7 9 5
3 8 10 9
3 1 11 10
3 6 4 2
3 2 1 8
3 8 7 6
3 9 10 3
3 11 0 3
3 3 5 9
