ply
format ascii 1.0
comment Created by Blender 2.77 (sub 0) - www.blender.org, source file: 'GiantTree0-Colliders.blend'
element vertex 12
property float x
property float y
property float z
property float nx
property float ny
property float nz
element face 20
property list uchar uint vertex_indices
end_header
-0.224921 1.976449 -0.050103 0.146306 0.984588 0.095706
-0.050658 1.667612 0.141569 0.214362 -0.208350 0.954253
0.005576 1.694015 0.104382 0.833461 0.079226 0.546831
0.016169 1.673906 0.035638 0.966186 -0.166784 -0.196539
-0.029472 1.627394 0.004081 0.483352 -0.698019 -0.528275
-0.211289 1.952075 -0.116811 0.297525 0.715812 -0.631672
-0.085706 1.600991 0.041269 -0.131748 -0.983428 -0.124424
-0.256589 1.905213 -0.148146 -0.181951 0.182257 -0.966247
-0.329153 1.907099 -0.046064 -0.968810 0.188116 0.161260
-0.096299 1.621099 0.110013 -0.269387 -0.740349 0.615833
-0.283853 1.953961 -0.014729 -0.484451 0.722221 0.493606
-0.315521 1.882725 -0.112773 -0.817316 -0.082400 -0.570238
3 0 1 2
3 3 0 2
3 4 5 3
3 6 7 4
3 8 6 9
3 10 9 1
3 4 1 9
3 7 8 5
3 0 10 1
3 3 5 0
3 4 7 5
3 6 11 7
3 8 11 6
3 10 8 9
3 9 6 4
3 4 3 2
3 2 1 4
3 0 5 8
3 7 11 8
3 8 10 0
