ply
format ascii 1.0
comment Created by Blender 2.77 (sub 0) - www.blender.org, source file: 'GiantTree0-Colliders.blend'
element vertex 12
property float x
property float y
property float z
property float nx
property float ny
property float nz
element face 20
property list uchar uint vertex_indices
end_header
-0.204421 2.451135 -0.119778 -0.405560 0.373363 0.834315
-0.047865 2.133443 -0.169477 -0.309030 -0.879452 0.361950
0.003863 2.162771 -0.128169 0.233772 -0.535234 0.811670
-0.159155 2.498988 -0.149836 0.134068 0.853175 0.504044
0.064053 2.188988 -0.158701 0.859951 -0.177221 0.478561
-0.160531 2.510137 -0.221362 0.146367 0.946745 -0.286691
0.072513 2.185877 -0.230542 0.933103 -0.172948 -0.315256
0.020785 2.156549 -0.271850 0.375683 -0.518143 -0.768334
-0.039404 2.130333 -0.241317 -0.248451 -0.871395 -0.422956
-0.207171 2.473433 -0.262833 -0.377667 0.555376 -0.740867
-0.252436 2.425580 -0.232775 -0.913205 0.074465 -0.400586
-0.251061 2.414430 -0.161249 -0.923338 -0.009613 0.383801
3 0 1 2
3 3 2 4
3 5 4 6
3 7 5 6
3 8 9 7
3 1 10 8
3 8 4 2
3 5 10 0
3 0 11 1
3 3 0 2
3 5 3 4
3 7 9 5
3 8 10 9
3 1 11 10
3 2 1 8
3 8 7 6
3 6 4 8
3 0 3 5
3 5 9 10
3 10 11 0
