ply
format ascii 1.0
comment Created by Blender 2.77 (sub 0) - www.blender.org, source file: 'GiantTree0-Colliders.blend'
element vertex 12
property float x
property float y
property float z
property float nx
property float ny
property float nz
element face 20
property list uchar uint vertex_indices
end_header
0.864351 0.107047 -0.070229 -0.582232 0.748161 0.318125
1.388726 -0.021952 0.014541 0.530351 -0.108341 0.840785
1.402113 0.029437 -0.014931 0.686728 0.566210 0.455794
0.874029 0.106342 -0.134321 -0.479385 0.739982 -0.471755
1.406524 0.029437 -0.075505 0.755852 0.563219 -0.333750
0.875148 0.049974 -0.166312 -0.497024 0.049928 -0.866268
1.397548 -0.021952 -0.106606 0.669454 -0.113620 -0.734092
1.384162 -0.073340 -0.077133 0.515458 -0.782952 -0.348155
1.379751 -0.073340 -0.016559 0.445387 -0.781976 0.435957
0.866590 -0.005688 -0.134210 -0.616504 -0.628163 -0.474624
0.856912 -0.004982 -0.070118 -0.717734 -0.622913 0.311136
0.855792 0.051386 -0.038127 -0.701041 0.064882 0.710135
3 0 1 2
3 3 2 4
3 5 4 6
3 7 5 6
3 8 9 7
3 1 10 8
3 6 4 1
3 0 3 9
3 0 11 1
3 3 0 2
3 5 3 4
3 7 9 5
3 8 10 9
3 1 11 10
3 1 8 7
3 7 6 1
3 4 2 1
3 9 10 11
3 11 0 9
3 3 5 9
