ply
format ascii 1.0
comment Created by Blender 2.77 (sub 0) - www.blender.org, source file: 'GiantTree0-Colliders.blend'
element vertex 12
property float x
property float y
property float z
property float nx
property float ny
property float nz
element face 20
property list uchar uint vertex_indices
end_header
-0.770691 2.884009 -0.381705 0.922941 -0.125675 0.363781
-0.849309 3.104954 -0.644245 0.240150 0.965087 -0.104312
-0.810039 2.916777 -0.330516 0.462111 0.319681 0.827174
-0.796236 2.824814 -0.414654 0.649739 -0.760033 0.012543
-0.805613 3.062144 -0.682898 0.724418 0.478439 -0.496261
-0.904911 2.997087 -0.723097 -0.359691 -0.271798 -0.892575
-0.861130 2.798387 -0.396415 -0.100864 -0.989685 0.101413
-0.948607 3.039898 -0.684446 -0.844966 0.219459 -0.487655
-0.900479 2.831154 -0.345226 -0.574816 -0.567125 0.589831
-0.920806 3.093832 -0.645019 -0.542528 0.834437 -0.096713
-0.874933 2.890349 -0.312277 -0.293741 0.085910 0.951994
-0.833414 3.008210 -0.722323 0.426069 -0.142308 -0.893399
3 0 1 2
3 3 4 0
3 5 3 6
3 7 6 8
3 9 8 10
3 2 9 10
3 3 2 6
3 1 4 5
3 0 4 1
3 3 11 4
3 5 11 3
3 7 5 6
3 9 7 8
3 2 1 9
3 8 6 2
3 3 0 2
3 2 10 8
3 5 7 9
3 9 1 5
3 4 11 5
