ply
format ascii 1.0
comment Created by Blender 2.77 (sub 0) - www.blender.org, source file: 'GiantTree0-Colliders.blend'
element vertex 12
property float x
property float y
property float z
property float nx
property float ny
property float nz
element face 20
property list uchar uint vertex_indices
end_header
0.648247 0.105808 -0.112225 -0.541215 0.780999 0.311594
0.855792 0.051386 -0.038127 0.469802 -0.009613 0.882687
0.864351 0.107047 -0.070229 0.557054 0.670980 0.489303
0.874029 0.106342 -0.134321 0.693075 0.660390 -0.288919
0.875148 0.049974 -0.166312 0.739647 -0.032380 -0.672170
0.654556 0.105823 -0.180440 -0.421766 0.779778 -0.462600
0.866590 -0.005688 -0.134210 0.647511 -0.709098 -0.279000
0.639387 0.049429 -0.216256 -0.471114 0.099033 -0.876461
0.611601 -0.006997 -0.115639 -0.759056 -0.572985 0.308969
0.856912 -0.004982 -0.070118 0.514664 -0.701437 0.493027
0.626769 0.049398 -0.079824 -0.693533 0.117924 0.710685
0.617909 -0.006981 -0.183855 -0.655202 -0.578082 -0.486251
3 0 1 2
3 3 0 2
3 4 5 3
3 6 7 4
3 8 6 9
3 10 9 1
3 1 6 2
3 11 10 5
3 0 10 1
3 3 5 0
3 4 7 5
3 6 11 7
3 8 11 6
3 10 8 9
3 3 2 6
3 1 9 6
3 6 4 3
3 5 7 11
3 11 8 10
3 10 0 5
