ply
format ascii 1.0
comment Created by Blender 2.77 (sub 0) - www.blender.org, source file: 'GiantTree0-Colliders.blend'
element vertex 12
property float x
property float y
property float z
property float nx
property float ny
property float nz
element face 20
property list uchar uint vertex_indices
end_header
0.114913 0.058122 -0.044504 0.668477 0.325449 -0.668722
0.068291 0.117781 0.133648 0.534532 0.472793 0.700491
0.141656 0.000151 -0.008254 0.942625 -0.271554 -0.194128
0.045469 0.057682 -0.068321 -0.076144 0.303110 -0.949889
0.053154 0.151794 0.080821 0.312082 0.942869 0.116367
0.002767 -0.000729 -0.055886 -0.569201 -0.303232 -0.764214
-0.006531 0.148478 0.056257 -0.392285 0.903226 -0.173986
-0.035941 0.077136 0.137346 -0.708487 -0.072451 0.701956
0.029510 -0.058700 -0.019636 -0.302896 -0.906308 -0.294656
0.023744 0.080452 0.161910 0.019349 -0.034394 0.999207
0.098954 -0.058260 0.004181 0.455367 -0.890164 -0.013550
-0.051079 0.111149 0.084519 -0.910977 0.398907 0.104740
3 0 1 2
3 3 4 0
3 5 6 3
3 7 5 8
3 9 8 10
3 1 10 2
3 6 11 9
3 5 2 10
3 0 4 1
3 3 6 4
3 5 11 6
3 7 11 5
3 9 7 8
3 1 9 10
3 9 1 4
3 4 6 9
3 11 7 9
3 10 8 5
3 5 3 0
3 0 2 5
