ply
format ascii 1.0
comment Created by Blender 2.77 (sub 0) - www.blender.org, source file: 'GiantTree0-Colliders.blend'
element vertex 12
property float x
property float y
property float z
property float nx
property float ny
property float nz
element face 20
property list uchar uint vertex_indices
end_header
1.013487 3.837918 0.342241 0.755486 -0.645741 -0.110569
0.939323 4.897536 0.033851 0.531083 0.803949 0.267464
1.003623 3.844096 0.385588 0.581744 -0.482253 0.654958
0.980569 3.835943 0.311795 0.161565 -0.756798 -0.633320
0.945015 4.888291 0.010953 0.704245 0.542558 -0.457839
0.937787 3.840145 0.324696 -0.590320 -0.700736 -0.400586
0.926585 4.879767 -0.004208 0.125431 0.315439 -0.940580
0.896773 4.889730 0.026427 -0.797327 0.603320 0.016327
0.927922 3.846323 0.368043 -0.770959 -0.529344 0.354106
0.915203 4.898255 0.041588 -0.221900 0.833918 0.505295
0.960840 3.848299 0.398489 -0.182653 -0.421766 0.888089
0.902465 4.880486 0.003528 -0.619953 0.346538 -0.703940
3 0 1 2
3 3 4 0
3 5 6 3
3 7 5 8
3 9 8 10
3 1 10 2
3 6 9 1
3 8 0 2
3 0 4 1
3 3 6 4
3 5 11 6
3 7 11 5
3 9 7 8
3 1 9 10
3 1 4 6
3 6 11 7
3 7 9 6
3 2 10 8
3 8 5 3
3 3 0 8
