ply
format ascii 1.0
comment Created by Blender 2.77 (sub 0) - www.blender.org, source file: 'GiantTree0-Colliders.blend'
element vertex 12
property float x
property float y
property float z
property float nx
property float ny
property float nz
element face 20
property list uchar uint vertex_indices
end_header
-0.363001 -0.164102 2.182546 -0.796381 0.426252 0.428999
-0.011935 -0.001237 1.626328 -0.363231 0.148534 -0.919767
-0.377881 -0.219461 2.138317 -0.979827 -0.198096 -0.025452
-0.306129 -0.167723 2.227209 -0.159642 0.395764 0.904355
0.014982 0.060639 1.652582 -0.111850 0.815546 -0.567736
0.115189 -0.001237 1.695675 0.987304 0.133000 -0.086459
-0.264136 -0.226703 2.227642 0.291208 -0.258858 0.920927
0.088272 -0.063112 1.669421 0.724662 -0.528398 -0.442305
-0.279016 -0.282063 2.183414 0.102359 -0.880123 0.463546
0.024711 -0.063112 1.634748 0.056856 -0.511826 -0.857173
-0.335888 -0.278442 2.138751 -0.531449 -0.847041 -0.005890
0.078543 0.060639 1.687255 0.568804 0.808069 -0.153081
3 0 1 2
3 3 4 0
3 5 3 6
3 7 6 8
3 9 8 10
3 2 9 10
3 5 9 11
3 8 0 2
3 0 4 1
3 3 11 4
3 5 11 3
3 7 5 6
3 9 7 8
3 2 1 9
3 4 11 9
3 5 7 9
3 9 1 4
3 2 10 8
3 8 6 3
3 3 0 8
