ply
format ascii 1.0
comment Created by Blender 2.77 (sub 0) - www.blender.org, source file: 'GiantTree0-Colliders.blend'
element vertex 12
property float x
property float y
property float z
property float nx
property float ny
property float nz
element face 20
property list uchar uint vertex_indices
end_header
-1.849114 -0.021298 -0.357663 0.269204 0.696036 -0.665578
-1.744435 -0.030953 -0.049628 0.927702 0.136357 0.347453
-1.817903 -0.066542 -0.360261 0.712088 0.055177 -0.699881
-1.826999 0.010893 -0.026911 -0.275246 0.732780 0.622272
-1.903963 -0.025700 -0.357203 -0.513565 0.644826 -0.566027
-1.847580 -0.037875 -0.011878 -0.584338 0.022706 0.811151
-1.927600 -0.075345 -0.359343 -0.853481 -0.075716 -0.515549
-1.816589 -0.083182 -0.015720 -0.133580 -0.629749 0.765191
-1.896388 -0.120589 -0.361941 -0.400983 -0.731437 -0.551530
-1.841539 -0.116187 -0.362400 0.390210 -0.664724 -0.637043
-1.765017 -0.079721 -0.034595 0.625324 -0.570635 0.532273
-1.775426 0.014354 -0.045786 0.481338 0.784539 0.390851
3 0 1 2
3 3 0 4
3 5 4 6
3 7 6 8
3 9 7 8
3 2 10 9
3 3 5 10
3 9 6 2
3 0 11 1
3 3 11 0
3 5 3 4
3 7 5 6
3 9 10 7
3 2 1 10
3 10 1 11
3 11 3 10
3 5 7 10
3 0 2 6
3 9 8 6
3 6 4 0
