ply
format ascii 1.0
comment Created by Blender 2.77 (sub 0) - www.blender.org, source file: 'GiantTree0-Colliders.blend'
element vertex 12
property float x
property float y
property float z
property float nx
property float ny
property float nz
element face 20
property list uchar uint vertex_indices
end_header
1.223376 2.794899 -0.676347 0.148808 0.795556 -0.587298
0.972498 2.413471 -0.795712 -0.018616 -0.643330 -0.765343
0.927516 2.467502 -0.800488 -0.560228 -0.059084 -0.826197
0.895239 2.491690 -0.742706 -0.969085 0.167364 -0.181188
0.907944 2.461846 -0.680147 -0.838282 -0.180242 0.514542
1.185418 2.807621 -0.624309 -0.292795 0.955596 0.032533
0.952926 2.407814 -0.675372 -0.294626 -0.756218 0.584185
1.204543 2.788886 -0.564360 -0.121921 0.661306 0.740104
1.299586 2.744710 -0.608488 0.980071 0.043031 0.193823
0.985203 2.383626 -0.733154 0.116092 -0.991638 -0.056246
1.280460 2.763444 -0.668436 0.785180 0.334208 -0.521287
1.261628 2.757431 -0.556450 0.525376 0.204932 0.825800
3 0 1 2
3 3 0 2
3 4 5 3
3 6 7 4
3 8 6 9
3 10 9 1
3 6 2 1
3 7 8 5
3 0 10 1
3 3 5 0
3 4 7 5
3 6 11 7
3 8 11 6
3 10 8 9
3 1 9 6
3 6 4 3
3 3 2 6
3 0 5 8
3 7 11 8
3 8 10 0
