ply
format ascii 1.0
comment Created by Blender 2.77 (sub 0) - www.blender.org, source file: 'GiantTree0-Colliders.blend'
element vertex 12
property float x
property float y
property float z
property float nx
property float ny
property float nz
element face 20
property list uchar uint vertex_indices
end_header
-0.973896 4.139687 -1.439094 0.674306 0.689901 -0.263192
-0.883760 3.480706 -1.019894 0.404523 -0.078707 0.911130
-0.843662 3.450986 -1.067471 0.864956 -0.374798 0.333659
-0.999896 4.113921 -1.486755 0.337382 0.329264 -0.881863
-0.871752 3.411081 -1.116187 0.536088 -0.805200 -0.253426
-0.939940 3.400896 -1.117325 -0.252693 -0.931791 -0.260475
-0.980038 3.430616 -1.069749 -0.708182 -0.628895 0.320811
-1.058900 4.102534 -1.486298 -0.440901 0.185278 -0.878201
-0.951948 3.470520 -1.021034 -0.375103 -0.206549 0.903653
-1.091906 4.116914 -1.438180 -0.878536 0.402936 -0.256478
-1.006902 4.154067 -1.390977 0.232978 0.905667 0.354137
-1.065906 4.142680 -1.390519 -0.539628 0.762688 0.356456
3 0 1 2
3 3 2 4
3 5 3 4
3 6 7 5
3 8 9 6
3 10 8 1
3 3 9 10
3 6 5 2
3 0 10 1
3 3 0 2
3 5 7 3
3 6 9 7
3 8 11 9
3 10 11 8
3 10 0 3
3 3 7 9
3 9 11 10
3 2 1 8
3 8 6 2
3 5 4 2
