ply
format ascii 1.0
comment Created by Blender 2.77 (sub 0) - www.blender.org, source file: 'GiantTree0-Colliders.blend'
element vertex 12
property float x
property float y
property float z
property float nx
property float ny
property float nz
element face 20
property list uchar uint vertex_indices
end_header
0.099149 0.462749 -0.067588 0.581652 0.805963 -0.109714
0.090051 0.248092 -0.200546 0.742607 -0.523820 -0.417280
0.067927 0.304136 -0.236500 0.479690 0.074313 -0.874264
0.036930 0.474615 -0.073271 -0.172704 0.972686 -0.155004
-0.000797 0.316281 -0.243742 -0.290353 0.240150 -0.926267
-0.003981 0.450872 -0.030765 -0.689901 0.642323 0.333750
-0.047398 0.272383 -0.215031 -0.826136 -0.204779 -0.524918
-0.025274 0.216340 -0.179077 -0.569933 -0.818293 -0.074313
0.043450 0.204194 -0.171835 0.217566 -0.975921 -0.014954
0.017326 0.415263 0.017425 -0.440901 0.142308 0.886166
0.079545 0.403397 0.023108 0.331187 -0.024018 0.943236
0.120456 0.427140 -0.019398 0.844447 0.306192 0.439436
3 0 1 2
3 3 2 4
3 5 4 6
3 7 5 6
3 8 9 7
3 1 10 8
3 9 10 0
3 7 2 1
3 0 11 1
3 3 0 2
3 5 3 4
3 7 9 5
3 8 10 9
3 1 11 10
3 0 3 5
3 5 9 0
3 10 11 0
3 1 8 7
3 7 6 4
3 4 2 7
