ply
format ascii 1.0
comment Created by Blender 2.77 (sub 0) - www.blender.org, source file: 'GiantTree0-Colliders.blend'
element vertex 12
property float x
property float y
property float z
property float nx
property float ny
property float nz
element face 20
property list uchar uint vertex_indices
end_header
-1.194867 0.505569 0.335919 -0.785302 0.617084 0.049257
-1.184547 -0.125559 0.370207 -0.354869 -0.602832 0.714560
-1.179219 0.505569 0.359479 -0.349986 0.617084 0.704733
-1.126456 -0.125559 0.331628 0.796258 -0.602832 -0.049928
-1.154058 0.505569 0.308817 0.349986 0.617084 -0.704733
-1.138411 0.505569 0.332377 0.785302 0.617084 -0.049257
-1.150991 0.505569 0.357709 0.435316 0.617084 0.655477
-1.144365 -0.125559 0.367687 0.441389 -0.602832 0.664602
-1.182286 0.505569 0.310587 -0.435316 0.617084 -0.655477
-1.148730 -0.125559 0.298089 0.354869 -0.602832 -0.714560
-1.188913 -0.125559 0.300609 -0.441389 -0.602832 -0.664602
-1.206821 -0.125559 0.336668 -0.796258 -0.602832 0.049928
3 0 1 2
3 3 4 5
3 3 6 7
3 8 9 10
3 10 0 8
3 2 4 8
3 6 1 7
3 1 10 3
3 0 11 1
3 3 9 4
3 3 5 6
3 8 4 9
3 10 11 0
3 8 0 2
3 2 6 5
3 5 4 2
3 6 2 1
3 3 7 1
3 1 11 10
3 10 9 3
