ply
format ascii 1.0
comment Created by Blender 2.77 (sub 0) - www.blender.org, source file: 'GiantTree0-Colliders.blend'
element vertex 12
property float x
property float y
property float z
property float nx
property float ny
property float nz
element face 20
property list uchar uint vertex_indices
end_header
1.586510 -0.134949 -1.071958 0.815821 0.502976 0.285287
0.981826 -0.019423 -0.938421 -0.371258 0.146672 0.916837
1.572908 -0.181079 -1.038395 0.670888 -0.131352 0.729820
1.583357 -0.139233 -1.130363 0.731773 0.460891 -0.502060
0.981188 0.035134 -0.972216 -0.320292 0.811701 0.488388
1.566603 -0.189647 -1.155206 0.499893 -0.219184 -0.837855
0.959882 0.035134 -1.032755 -0.526414 0.801630 -0.283212
0.939851 -0.073980 -1.025705 -0.817682 -0.546434 -0.181005
1.553000 -0.235777 -1.121643 0.352611 -0.853175 -0.384350
0.961157 -0.073980 -0.965166 -0.615802 -0.525010 0.587451
1.556153 -0.231493 -1.063237 0.440779 -0.804163 0.398724
0.939213 -0.019423 -1.059499 -0.776574 0.120975 -0.618244
3 0 1 2
3 3 4 0
3 5 6 3
3 7 5 8
3 9 8 10
3 1 10 2
3 2 8 3
3 4 11 1
3 0 4 1
3 3 6 4
3 5 11 6
3 7 11 5
3 9 7 8
3 1 9 10
3 3 0 2
3 2 10 8
3 8 5 3
3 9 1 11
3 4 6 11
3 11 7 9
