ply
format ascii 1.0
comment Created by Blender 2.77 (sub 0) - www.blender.org, source file: 'GiantTree0-Colliders.blend'
element vertex 12
property float x
property float y
property float z
property float nx
property float ny
property float nz
element face 20
property list uchar uint vertex_indices
end_header
-0.026232 0.421582 0.074191 0.521165 0.833399 0.183752
0.061866 0.192189 -0.098967 0.891049 -0.451460 -0.046541
0.056237 0.236862 -0.131419 0.824122 0.151708 -0.545671
-0.076341 0.432135 0.046089 -0.148503 0.968261 -0.200964
0.010000 0.243784 -0.161331 0.164861 0.265816 -0.949797
-0.030607 0.206035 -0.158790 -0.445967 -0.230506 -0.864834
-0.024978 0.161363 -0.126338 -0.383740 -0.847591 -0.366436
-0.126131 0.408324 0.065220 -0.814600 0.579974 -0.004303
0.021258 0.154440 -0.096427 0.285195 -0.957366 0.045778
-0.125812 0.373959 0.112454 -0.797937 0.055635 0.600116
-0.025913 0.387217 0.121425 0.552324 0.306681 0.775140
-0.075703 0.363406 0.140556 -0.113742 -0.082644 0.990051
3 0 1 2
3 3 2 4
3 5 3 4
3 6 7 5
3 8 9 6
3 10 8 1
3 6 4 8
3 0 3 9
3 0 10 1
3 3 0 2
3 5 7 3
3 6 9 7
3 8 11 9
3 10 11 8
3 1 8 4
3 6 5 4
3 4 2 1
3 9 11 10
3 10 0 9
3 3 7 9
