ply
format ascii 1.0
comment Created by Blender 2.77 (sub 0) - www.blender.org, source file: 'GiantTree0-Colliders.blend'
element vertex 12
property float x
property float y
property float z
property float nx
property float ny
property float nz
element face 20
property list uchar uint vertex_indices
end_header
-0.178463 0.282318 -0.110927 -0.747154 -0.255837 0.613392
-0.068014 0.582427 -0.203855 -0.454421 0.846370 -0.277657
-0.196513 0.271289 -0.177973 -0.933927 -0.320811 -0.157445
-0.114531 0.263861 -0.088242 -0.039125 -0.491287 0.870083
-0.057530 0.576011 -0.137107 -0.313273 0.807001 0.500565
0.048951 0.530871 -0.158169 0.924070 0.283944 0.255776
-0.068648 0.234373 -0.132604 0.493240 -0.788202 0.367931
0.038467 0.537287 -0.224918 0.789331 0.320322 -0.523728
-0.086698 0.223344 -0.199650 0.315104 -0.858150 -0.405255
-0.020015 0.563065 -0.247761 0.098636 0.603046 -0.791559
-0.150631 0.241802 -0.222335 -0.401898 -0.625965 -0.668264
0.000952 0.550233 -0.114263 0.373821 0.527360 0.762932
3 0 1 2
3 3 4 0
3 5 3 6
3 7 6 8
3 9 8 10
3 2 9 10
3 1 11 9
3 10 8 3
3 0 4 1
3 3 11 4
3 5 11 3
3 7 5 6
3 9 7 8
3 2 1 9
3 7 9 11
3 1 4 11
3 11 5 7
3 3 0 2
3 2 10 3
3 8 6 3
