ply
format ascii 1.0
comment Created by Blender 2.77 (sub 0) - www.blender.org, source file: 'GiantTree0-Colliders.blend'
element vertex 12
property float x
property float y
property float z
property float nx
property float ny
property float nz
element face 20
property list uchar uint vertex_indices
end_header
-0.531796 2.716012 -0.022528 -0.377392 0.159642 0.912168
-0.251061 2.414430 -0.161249 -0.011994 -0.976501 0.215064
-0.204421 2.451135 -0.119778 0.479690 -0.565722 0.670675
-0.499200 2.774769 -0.049183 0.003021 0.788568 0.614887
-0.159155 2.498988 -0.149836 0.934294 0.002747 0.356456
-0.509238 2.793453 -0.118288 -0.092410 0.984466 -0.149113
-0.160531 2.510137 -0.221362 0.892392 0.153874 -0.424177
-0.207171 2.473433 -0.262833 0.390728 -0.261391 -0.882595
-0.252436 2.425580 -0.232775 -0.063173 -0.827601 -0.557726
-0.551870 2.753380 -0.160738 -0.568224 0.549242 -0.612690
-0.584465 2.694623 -0.134083 -0.947111 -0.079714 -0.310770
-0.574428 2.675939 -0.064977 -0.850581 -0.271950 0.449995
3 0 1 2
3 3 2 4
3 5 4 6
3 7 5 6
3 8 9 7
3 1 10 8
3 2 8 6
3 9 11 5
3 0 11 1
3 3 0 2
3 5 3 4
3 7 9 5
3 8 10 9
3 1 11 10
3 6 4 2
3 2 1 8
3 8 7 6
3 3 5 11
3 9 10 11
3 11 0 3
