ply
format ascii 1.0
comment Created by Blender 2.77 (sub 0) - www.blender.org, source file: 'GiantTree0-Colliders.blend'
element vertex 12
property float x
property float y
property float z
property float nx
property float ny
property float nz
element face 20
property list uchar uint vertex_indices
end_header
-0.036137 0.765851 -0.016979 -0.965667 -0.259590 -0.008179
0.106176 1.098483 -0.018539 -0.244728 0.769646 -0.589648
-0.010397 0.754557 -0.071922 -0.613849 -0.340587 -0.712119
-0.006589 0.749906 0.034804 -0.595538 -0.477065 0.646290
0.075682 1.098495 0.037543 -0.618824 0.778375 0.105564
0.048699 0.722666 0.031644 0.133915 -0.775872 0.616504
0.107988 1.087259 0.091442 -0.234199 0.592425 0.770806
0.201281 1.075999 0.033177 0.919004 0.392285 0.038850
0.074440 0.711372 -0.023298 0.493606 -0.865566 -0.084231
0.168975 1.087234 -0.020722 0.523148 0.574969 -0.629017
0.044892 0.727317 -0.075081 0.117435 -0.648762 -0.751854
0.170788 1.076011 0.089259 0.539506 0.400311 0.740684
3 0 1 2
3 3 4 0
3 5 6 3
3 7 5 8
3 9 8 10
3 1 10 2
3 4 11 1
3 2 10 5
3 0 4 1
3 3 6 4
3 5 11 6
3 7 11 5
3 9 7 8
3 1 9 10
3 9 1 11
3 4 6 11
3 11 7 9
3 5 3 0
3 0 2 5
3 10 8 5
