ply
format ascii 1.0
comment Created by Blender 2.77 (sub 0) - www.blender.org, source file: 'GiantTree0-Colliders.blend'
element vertex 12
property float x
property float y
property float z
property float nx
property float ny
property float nz
element face 20
property list uchar uint vertex_indices
end_header
0.345256 1.785020 0.111866 0.350475 0.004730 0.936552
0.226783 1.576749 -0.045511 -0.619312 -0.731986 0.283914
0.296137 1.556000 -0.044136 0.139256 -0.939756 0.312113
0.392089 1.814983 0.065485 0.861171 0.303201 0.407910
0.339628 1.571343 -0.099952 0.632893 -0.725516 -0.270272
0.368321 1.860237 0.014207 0.598346 0.783258 -0.168706
0.313766 1.607435 -0.157143 0.357219 -0.300638 -0.884304
0.244413 1.628185 -0.158518 -0.409803 -0.088931 -0.907804
0.200922 1.612842 -0.102702 -0.896725 -0.306619 -0.319132
0.297721 1.875529 0.009310 -0.174963 0.961028 -0.213996
0.250888 1.845567 0.055691 -0.681692 0.658956 0.317820
0.274655 1.800312 0.106969 -0.416822 0.183264 0.890286
3 0 1 2
3 3 2 4
3 5 4 6
3 7 5 6
3 8 9 7
3 1 10 8
3 7 4 1
3 9 0 3
3 0 11 1
3 3 0 2
3 5 3 4
3 7 9 5
3 8 10 9
3 1 11 10
3 1 8 7
3 7 6 4
3 4 2 1
3 3 5 9
3 9 10 11
3 11 0 9
