ply
format ascii 1.0
comment Created by Blender 2.77 (sub 0) - www.blender.org, source file: 'GiantTree0-Colliders.blend'
element vertex 12
property float x
property float y
property float z
property float nx
property float ny
property float nz
element face 20
property list uchar uint vertex_indices
end_header
0.003863 2.162771 -0.128169 -0.335643 0.636891 0.694021
0.042007 1.818258 -0.101732 -0.613910 -0.661519 0.430677
0.097258 1.834857 -0.058449 -0.019684 -0.437513 0.898953
0.164392 1.836647 -0.084743 0.713340 -0.362102 0.599994
0.176276 1.821837 -0.154320 0.842555 -0.510239 -0.172308
0.064053 2.188988 -0.158701 0.358104 0.855007 0.375072
0.121026 1.805238 -0.197603 0.238563 -0.730399 -0.639943
0.072513 2.185877 -0.230542 0.468947 0.781671 -0.411115
-0.039404 2.130333 -0.241317 -0.801263 0.263894 -0.536912
0.053892 1.803448 -0.171310 -0.489547 -0.806421 -0.331645
-0.047865 2.133443 -0.169477 -0.906705 0.348216 0.237831
0.020785 2.156549 -0.271850 -0.110813 0.482315 -0.868954
3 0 1 2
3 3 0 2
3 4 5 3
3 6 7 4
3 8 6 9
3 10 9 1
3 2 6 4
3 5 7 8
3 0 10 1
3 3 5 0
3 4 7 5
3 6 11 7
3 8 11 6
3 10 8 9
3 4 3 2
3 2 1 9
3 9 6 2
3 8 10 0
3 0 5 8
3 7 11 8
