ply
format ascii 1.0
comment Created by Blender 2.77 (sub 0) - www.blender.org, source file: 'GiantTree0-Colliders.blend'
element vertex 12
property float x
property float y
property float z
property float nx
property float ny
property float nz
element face 20
property list uchar uint vertex_indices
end_header
-1.270759 0.002799 0.793914 -0.671743 0.725944 -0.147343
-0.875716 0.006654 0.920487 0.716819 0.614673 -0.329081
-1.220436 -0.010452 0.737504 -0.220161 0.575488 -0.787591
-1.301714 -0.055997 0.832320 -0.951048 0.116489 0.286111
-0.886699 0.021379 0.995004 0.473464 0.777123 0.414533
-0.886589 -0.109028 1.020789 0.446272 -0.584460 0.677633
-1.282345 -0.128045 0.814316 -0.769616 -0.632893 0.084109
-0.875606 -0.123752 0.946271 0.683065 -0.726585 -0.073885
-1.232021 -0.141297 0.757905 -0.311838 -0.768975 -0.558031
-0.870170 -0.065911 0.896121 0.824488 -0.121708 -0.552599
-1.201066 -0.082500 0.719499 -0.048677 -0.161870 -0.985595
-0.892135 -0.036462 1.045155 0.351482 0.170293 0.920560
3 0 1 2
3 3 4 0
3 5 3 6
3 7 6 8
3 9 8 10
3 2 9 10
3 2 10 6
3 1 11 7
3 0 4 1
3 3 11 4
3 5 11 3
3 7 5 6
3 9 7 8
3 2 1 9
3 6 3 0
3 0 2 6
3 10 8 6
3 7 9 1
3 1 4 11
3 11 5 7
