ply
format ascii 1.0
comment Created by Blender 2.77 (sub 0) - www.blender.org, source file: 'GiantTree0-Colliders.blend'
element vertex 12
property float x
property float y
property float z
property float nx
property float ny
property float nz
element face 20
property list uchar uint vertex_indices
end_header
-0.010284 0.999999 -0.076562 0.109043 -0.576617 0.809687
0.057792 1.208527 -0.119062 0.098178 0.791650 0.603015
-0.071416 1.038354 -0.073843 -0.537431 -0.127628 0.833552
0.008255 0.965873 -0.137450 0.323466 -0.935820 0.139897
0.118144 1.168599 -0.121441 0.739250 0.335093 0.584094
0.108977 1.162185 -0.246348 0.597858 0.198248 -0.776666
-0.034337 0.970102 -0.195619 -0.112583 -0.850246 -0.514145
0.048625 1.202113 -0.243969 -0.054201 0.656423 -0.752403
-0.095469 1.008457 -0.192899 -0.770623 -0.402448 -0.494095
0.023033 1.225284 -0.180326 -0.301370 0.951567 -0.060244
-0.114008 1.042583 -0.132012 -0.982635 -0.039064 0.181249
0.143737 1.145427 -0.185084 0.993744 0.035432 -0.105838
3 0 1 2
3 3 4 0
3 5 3 6
3 7 6 8
3 9 8 10
3 2 9 10
3 0 8 6
3 7 9 4
3 0 4 1
3 3 11 4
3 5 11 3
3 7 5 6
3 9 7 8
3 2 1 9
3 6 3 0
3 0 2 10
3 10 8 0
3 4 11 5
3 5 7 4
3 9 1 4
