ply
format ascii 1.0
comment Created by Blender 2.77 (sub 0) - www.blender.org, source file: 'GiantTree0-Colliders.blend'
element vertex 12
property float x
property float y
property float z
property float nx
property float ny
property float nz
element face 20
property list uchar uint vertex_indices
end_header
-0.069805 0.555703 0.146327 -0.194098 0.661550 0.724296
-0.022093 0.305338 0.139108 -0.347179 -0.796899 0.494339
0.030362 0.332983 0.166777 0.296915 -0.469405 0.831538
-0.020417 0.569116 0.111685 0.422163 0.863399 0.276223
0.079551 0.354509 0.129382 0.900479 -0.218238 0.376171
-0.022410 0.560759 0.050486 0.388989 0.771935 -0.502762
0.076286 0.348390 0.064319 0.861110 -0.293558 -0.415021
0.023831 0.320746 0.036651 0.218635 -0.620380 -0.753166
-0.025358 0.299219 0.074045 -0.386364 -0.872585 -0.298776
-0.073790 0.538990 0.023929 -0.256020 0.477767 -0.840327
-0.123179 0.525577 0.058571 -0.875759 0.274209 -0.397290
-0.121186 0.533934 0.119770 -0.845790 0.366894 0.387310
3 0 1 2
3 3 2 4
3 5 4 6
3 7 5 6
3 8 9 7
3 1 10 8
3 2 8 4
3 10 3 5
3 0 11 1
3 3 0 2
3 5 3 4
3 7 9 5
3 8 10 9
3 1 11 10
3 6 4 8
3 2 1 8
3 8 7 6
3 5 9 10
3 10 11 0
3 0 3 10
