ply
format ascii 1.0
comment Created by Blender 2.77 (sub 0) - www.blender.org, source file: 'GiantTree0-Colliders.blend'
element vertex 18
property float x
property float y
property float z
property float nx
property float ny
property float nz
element face 32
property list uchar uint vertex_indices
end_header
-0.785385 0.327413 0.583436 0.547533 0.184576 0.816126
-0.761409 -0.123425 0.556512 0.797754 -0.600848 -0.049989
-0.772354 0.330041 0.557199 0.982910 0.181799 -0.028199
-0.819500 -0.123425 0.595092 -0.355480 -0.600879 0.715903
-0.814622 0.332025 0.585270 -0.403638 0.189062 0.895138
-0.841774 -0.123425 0.561553 -0.797632 -0.601032 0.050142
-0.817799 0.341934 0.534629 -0.542344 0.197302 -0.816645
-0.783684 -0.123425 0.522973 0.355602 -0.601001 -0.715751
-0.823866 -0.123425 0.525494 -0.442091 -0.601123 -0.665700
-0.788561 0.341934 0.532795 0.471236 0.220405 -0.853999
-0.825933 0.353655 0.560559 -0.574664 0.801141 0.166967
-0.815085 0.353655 0.538716 -0.363506 0.753807 -0.547349
-0.790743 0.353655 0.537189 0.388897 0.799219 -0.458205
-0.777250 0.341761 0.557505 0.777551 0.621296 0.096866
-0.830829 0.341934 0.560867 -0.971465 0.217048 0.095370
-0.812440 0.343745 0.580877 -0.184210 0.668874 0.720145
-0.788099 0.339133 0.579350 0.443709 0.627552 0.639729
-0.779318 -0.123425 0.592572 0.442213 -0.600818 0.665883
3 0 1 2
3 3 0 4
3 4 5 3
3 6 7 8
3 2 7 9
3 6 10 11
3 9 11 12
3 13 9 12
3 14 15 10
3 12 11 10
3 8 14 6
3 16 10 15
3 3 8 1
3 16 4 0
3 13 12 16
3 16 2 13
3 0 17 1
3 3 17 0
3 4 14 5
3 6 9 7
3 2 1 7
3 6 14 10
3 9 6 11
3 13 2 9
3 14 4 15
3 8 5 14
3 16 12 10
3 1 17 3
3 3 5 8
3 8 7 1
3 16 15 4
3 16 0 2
