ply
format ascii 1.0
comment Created by Blender 2.77 (sub 0) - www.blender.org, source file: 'GiantTree0-Colliders.blend'
element vertex 12
property float x
property float y
property float z
property float nx
property float ny
property float nz
element face 20
property list uchar uint vertex_indices
end_header
0.058168 1.273621 0.087498 0.321970 0.698508 -0.639058
0.130408 1.029535 0.147386 0.867336 -0.484756 0.112522
0.108273 1.031819 0.086988 0.597674 -0.492508 -0.632588
-0.003121 1.248178 0.075661 -0.425550 0.465438 -0.776055
0.045292 1.025115 0.075517 -0.169134 -0.613514 -0.771325
-0.045452 1.237009 0.126917 -0.922361 0.343577 -0.176489
0.004446 1.016127 0.124445 -0.666036 -0.724967 -0.175481
0.026581 1.013843 0.184843 -0.404309 -0.717368 0.567339
0.089561 1.020547 0.196314 0.365459 -0.597430 0.713767
-0.026494 1.251283 0.190009 -0.685537 0.448866 0.573138
0.034795 1.276726 0.201846 0.062227 0.690023 0.721061
0.077126 1.287895 0.150590 0.566698 0.816065 0.113407
3 0 1 2
3 3 2 4
3 5 4 6
3 7 5 6
3 8 9 7
3 1 10 8
3 8 7 4
3 9 10 0
3 0 11 1
3 3 0 2
3 5 3 4
3 7 9 5
3 8 10 9
3 1 11 10
3 4 2 1
3 1 8 4
3 7 6 4
3 0 3 5
3 5 9 0
3 10 11 0
