ply
format ascii 1.0
comment Created by Blender 2.77 (sub 0) - www.blender.org, source file: 'GiantTree0-Colliders.blend'
element vertex 12
property float x
property float y
property float z
property float nx
property float ny
property float nz
element face 20
property list uchar uint vertex_indices
end_header
-0.045256 4.032933 1.310395 0.031190 -0.737053 0.675100
0.241015 4.911682 1.374548 -0.263131 0.734825 0.625111
-0.095695 4.046258 1.297962 -0.710990 -0.497024 0.497391
-0.007737 4.031306 1.272109 0.570055 -0.816248 0.093387
0.276268 4.894631 1.383006 0.442732 0.420667 0.791833
-0.020656 4.043005 1.221389 0.374859 -0.655477 -0.655599
0.301257 4.884526 1.353367 0.944914 0.252083 0.208655
0.255740 4.908523 1.306810 0.044099 0.705557 -0.707236
-0.071095 4.056330 1.208956 -0.358531 -0.411237 -0.838038
0.230751 4.918628 1.336450 -0.462905 0.877316 -0.126438
-0.108614 4.057957 1.247243 -0.906247 -0.332621 -0.260811
0.290993 4.891472 1.315269 0.745842 0.394421 -0.536760
3 0 1 2
3 3 4 0
3 5 6 3
3 7 5 8
3 9 8 10
3 1 10 2
3 7 4 6
3 0 10 3
3 0 4 1
3 3 6 4
3 5 11 6
3 7 11 5
3 9 7 8
3 1 9 10
3 6 11 7
3 7 9 1
3 1 4 7
3 5 3 10
3 0 2 10
3 10 8 5
