ply
format ascii 1.0
comment Created by Blender 2.77 (sub 0) - www.blender.org, source file: 'GiantTree0-Colliders.blend'
element vertex 12
property float x
property float y
property float z
property float nx
property float ny
property float nz
element face 20
property list uchar uint vertex_indices
end_header
-0.047562 1.132502 0.031360 0.544572 -0.836604 -0.059206
0.018183 1.406981 -0.053010 0.858974 0.509354 0.051576
-0.040302 1.164950 0.093525 0.629871 -0.460036 0.625751
-0.111651 1.124271 0.003167 -0.166967 -0.904935 -0.391339
0.010065 1.370815 -0.114878 0.770409 0.115024 -0.627033
-0.108335 1.409960 -0.122224 -0.552202 0.488296 -0.675710
-0.168480 1.148488 0.037138 -0.802301 -0.595965 -0.033235
-0.100216 1.446126 -0.060355 -0.463179 0.886196 0.008942
-0.161220 1.180935 0.099303 -0.719321 -0.217322 0.659749
-0.036957 1.444636 -0.025748 0.244423 0.895047 0.372997
-0.097131 1.189166 0.127496 -0.000275 -0.148259 0.988922
-0.053194 1.372304 -0.149485 0.066988 0.101413 -0.992553
3 0 1 2
3 3 4 0
3 5 3 6
3 7 6 8
3 9 8 10
3 2 9 10
3 8 3 10
3 9 1 11
3 0 4 1
3 3 11 4
3 5 11 3
3 7 5 6
3 9 7 8
3 2 1 9
3 2 10 3
3 8 6 3
3 3 0 2
3 11 5 7
3 7 9 11
3 1 4 11
