ply
format ascii 1.0
comment Created by Blender 2.77 (sub 0) - www.blender.org, source file: 'GiantTree0-Colliders.blend'
element vertex 12
property float x
property float y
property float z
property float nx
property float ny
property float nz
element face 20
property list uchar uint vertex_indices
end_header
-0.943166 3.252973 0.287898 0.020020 0.905576 -0.423688
-0.496287 2.572433 0.143753 0.981170 -0.192877 0.006348
-0.521691 2.576559 0.085275 0.668935 -0.152867 -0.727409
-0.580145 2.553301 0.074124 -0.041810 -0.483444 -0.874355
-0.613194 2.525916 0.121452 -0.434980 -0.851619 -0.292367
-0.986945 3.222449 0.275402 -0.635548 0.496628 -0.591083
-0.587790 2.521790 0.179930 -0.128117 -0.890774 0.435987
-1.011244 3.192226 0.314140 -0.996094 0.083651 -0.027924
-0.947985 3.223052 0.377871 -0.053224 0.477828 0.876827
-0.529337 2.545048 0.191080 0.580096 -0.561663 0.589862
-0.923686 3.253275 0.339133 0.311869 0.897214 0.312601
-0.991764 3.192528 0.365374 -0.708029 0.071871 0.702475
3 0 1 2
3 3 0 2
3 4 5 3
3 6 7 4
3 8 6 9
3 10 9 1
3 7 10 0
3 6 3 9
3 0 10 1
3 3 5 0
3 4 7 5
3 6 11 7
3 8 11 6
3 10 8 9
3 0 5 7
3 7 11 8
3 8 10 7
3 1 9 3
3 6 4 3
3 3 2 1
