ply
format ascii 1.0
comment Created by Blender 2.77 (sub 0) - www.blender.org, source file: 'GiantTree0-Colliders.blend'
element vertex 12
property float x
property float y
property float z
property float nx
property float ny
property float nz
element face 20
property list uchar uint vertex_indices
end_header
0.180361 0.015827 -0.283028 0.292673 0.709647 0.640858
0.279305 -0.051730 -0.655674 0.910672 -0.029664 -0.412030
0.245699 0.013026 -0.668465 0.548082 0.661458 -0.511887
0.104291 0.017629 -0.299927 -0.484756 0.727165 0.486007
0.174824 0.014364 -0.689941 -0.221015 0.680349 -0.698721
0.137554 -0.049053 -0.698625 -0.622730 0.002045 -0.782434
0.171159 -0.113810 -0.685835 -0.252785 -0.691549 -0.676626
0.063357 -0.048654 -0.302495 -0.898129 0.053346 0.436476
0.242035 -0.115148 -0.664359 0.513932 -0.702384 -0.492447
0.098494 -0.116738 -0.288163 -0.533738 -0.646504 0.545091
0.215497 -0.052258 -0.268696 0.662038 0.013703 0.749321
0.174564 -0.118540 -0.271263 0.248024 -0.666738 0.702780
3 0 1 2
3 3 2 4
3 5 3 4
3 6 7 5
3 8 9 6
3 10 8 1
3 8 6 4
3 11 10 3
3 0 10 1
3 3 0 2
3 5 7 3
3 6 9 7
3 8 11 9
3 10 11 8
3 4 2 1
3 1 8 4
3 6 5 4
3 3 7 9
3 9 11 3
3 10 0 3
