ply
format ascii 1.0
comment Created by Blender 2.77 (sub 0) - www.blender.org, source file: 'GiantTree0-Colliders.blend'
element vertex 12
property float x
property float y
property float z
property float nx
property float ny
property float nz
element face 20
property list uchar uint vertex_indices
end_header
0.927516 2.467502 -0.800488 0.327433 0.692984 -0.642293
0.560538 2.146061 -0.817693 -0.313242 -0.696402 -0.645650
0.525156 2.209034 -0.822152 -0.720695 -0.012391 -0.693136
0.895239 2.491690 -0.742706 0.017945 0.999664 0.018616
0.510270 2.246509 -0.762058 -0.928465 0.370373 -0.027345
0.530765 2.221012 -0.697504 -0.732322 0.071688 0.677114
0.566146 2.158038 -0.693045 -0.326914 -0.603107 0.727561
0.907944 2.461846 -0.680147 0.173833 0.675924 0.716147
0.581032 2.120563 -0.753139 -0.113987 -0.991211 0.066897
0.952926 2.407814 -0.675372 0.636830 0.041292 0.769890
0.972498 2.413471 -0.795712 0.801447 0.056154 -0.595416
0.985203 2.383626 -0.733154 0.955718 -0.271828 0.112613
3 0 1 2
3 3 2 4
3 5 3 4
3 6 7 5
3 8 9 6
3 10 8 1
3 8 4 2
3 9 0 3
3 0 10 1
3 3 0 2
3 5 7 3
3 6 9 7
3 8 11 9
3 10 11 8
3 2 1 8
3 8 6 5
3 5 4 8
3 3 7 9
3 9 11 10
3 10 0 9
