ply
format ascii 1.0
comment Created by Blender 2.77 (sub 0) - www.blender.org, source file: 'GiantTree0-Colliders.blend'
element vertex 12
property float x
property float y
property float z
property float nx
property float ny
property float nz
element face 20
property list uchar uint vertex_indices
end_header
-0.031284 1.394359 -0.097810 -0.158788 -0.179785 0.970794
0.015215 1.671596 -0.279716 -0.426740 0.904111 -0.020966
-0.090105 1.397300 -0.135361 -0.825922 -0.145878 0.544542
0.025226 1.362624 -0.123853 0.474990 -0.555773 0.682241
0.076426 1.670357 -0.242050 0.247200 0.881466 0.402295
0.127335 1.595191 -0.327252 0.822596 0.085360 -0.562151
0.022915 1.333830 -0.187447 0.441389 -0.896817 -0.029542
0.066124 1.596429 -0.364919 0.151830 0.109867 -0.982269
-0.035907 1.336770 -0.224998 -0.222205 -0.862911 -0.453841
0.010064 1.634633 -0.341151 -0.472457 0.517258 -0.713584
-0.092417 1.368505 -0.198955 -0.856319 -0.488021 -0.168828
0.132485 1.632155 -0.265817 0.872555 0.470595 0.130894
3 0 1 2
3 3 4 0
3 5 3 6
3 7 6 8
3 9 8 10
3 2 9 10
3 7 9 4
3 6 3 2
3 0 4 1
3 3 11 4
3 5 11 3
3 7 5 6
3 9 7 8
3 2 1 9
3 4 11 5
3 5 7 4
3 9 1 4
3 2 10 8
3 8 6 2
3 3 0 2
