ply
format ascii 1.0
comment Created by Blender 2.77 (sub 0) - www.blender.org, source file: 'GiantTree0-Colliders.blend'
element vertex 12
property float x
property float y
property float z
property float nx
property float ny
property float nz
element face 20
property list uchar uint vertex_indices
end_header
-0.362069 2.064015 -0.045050 0.242958 0.803552 -0.543352
-0.215362 1.761259 0.001587 0.959532 -0.230628 0.161382
-0.234531 1.742893 -0.065632 0.723106 -0.364483 -0.586688
-0.427579 2.043013 -0.056309 -0.495621 0.546617 -0.674886
-0.297785 1.709996 -0.077457 0.007569 -0.692984 -0.720878
-0.341869 1.695464 -0.022063 -0.468642 -0.876919 -0.106601
-0.322700 1.713829 0.045155 -0.222663 -0.736656 0.638508
-0.466865 2.021274 -0.002984 -0.946959 0.314432 -0.066134
-0.259447 1.746727 0.056981 0.489181 -0.419691 0.764550
-0.440639 2.020537 0.061601 -0.658132 0.340922 0.671255
-0.335843 2.063279 0.019535 0.525986 0.827601 0.195776
-0.375128 2.041539 0.072860 0.075533 0.597125 0.798547
3 0 1 2
3 3 2 4
3 5 3 4
3 6 7 5
3 8 9 6
3 10 8 1
3 0 7 11
3 8 5 1
3 0 10 1
3 3 0 2
3 5 7 3
3 6 9 7
3 8 11 9
3 10 11 8
3 11 10 0
3 0 3 7
3 7 9 11
3 2 1 5
3 8 6 5
3 5 4 2
