ply
format ascii 1.0
comment Created by Blender 2.77 (sub 0) - www.blender.org, source file: 'GiantTree0-Colliders.blend'
element vertex 12
property float x
property float y
property float z
property float nx
property float ny
property float nz
element face 20
property list uchar uint vertex_indices
end_header
-1.790107 0.038427 -0.635229 0.023774 0.546800 0.836879
-1.608391 0.054836 -0.879625 0.995575 0.087588 -0.033570
-1.632840 0.102683 -0.891491 0.616413 0.771081 -0.159459
-1.675795 0.103851 -0.925863 -0.032014 0.783502 -0.620502
-1.694301 0.057172 -0.948369 -0.298532 0.107974 -0.948241
-1.841088 0.036870 -0.655882 -0.686911 0.542711 0.483261
-1.669852 0.009325 -0.936503 0.085452 -0.574602 -0.813929
-1.861630 -0.010502 -0.674905 -0.973601 -0.136937 0.182562
-1.780213 -0.054757 -0.652623 0.166234 -0.791284 0.588397
-1.626897 0.008156 -0.902131 0.733116 -0.578143 -0.358135
-1.759670 -0.007386 -0.633600 0.442274 -0.119144 0.888913
-1.831193 -0.056315 -0.673276 -0.544389 -0.805841 0.232795
3 0 1 2
3 3 0 2
3 4 5 3
3 6 7 4
3 8 6 9
3 10 9 1
3 1 4 3
3 8 0 11
3 0 10 1
3 3 5 0
3 4 7 5
3 6 11 7
3 8 11 6
3 10 8 9
3 3 2 1
3 1 9 6
3 6 4 1
3 7 11 0
3 8 10 0
3 0 5 7
