ply
format ascii 1.0
comment Created by Blender 2.77 (sub 0) - www.blender.org, source file: 'GiantTree0-Colliders.blend'
element vertex 12
property float x
property float y
property float z
property float nx
property float ny
property float nz
element face 20
property list uchar uint vertex_indices
end_header
-0.332033 2.594040 -0.287212 0.133671 0.942045 -0.307596
-0.189439 2.345519 -0.267283 0.901059 -0.351146 0.254402
-0.197246 2.355486 -0.338571 0.813501 -0.237434 -0.530839
-0.379538 2.553320 -0.323645 -0.452864 0.563372 -0.691000
-0.261249 2.343075 -0.370065 0.128819 -0.439985 -0.888699
-0.317445 2.320698 -0.330272 -0.454024 -0.764153 -0.458144
-0.309638 2.310731 -0.258983 -0.365978 -0.878292 0.307566
-0.421004 2.505666 -0.288262 -0.953520 0.108676 -0.281014
-0.245635 2.323142 -0.227489 0.305795 -0.669424 0.676992
-0.414965 2.498733 -0.216444 -0.873897 0.008728 0.485977
-0.325993 2.587106 -0.215394 0.212836 0.850002 0.481826
-0.367460 2.539453 -0.180010 -0.287667 0.373791 0.881741
3 0 1 2
3 3 2 4
3 5 3 4
3 6 7 5
3 8 9 6
3 10 8 1
3 7 11 3
3 6 4 1
3 0 10 1
3 3 0 2
3 5 7 3
3 6 9 7
3 8 11 9
3 10 11 8
3 0 3 11
3 7 9 11
3 11 10 0
3 1 8 6
3 6 5 4
3 4 2 1
