ply
format ascii 1.0
comment Created by Blender 2.77 (sub 0) - www.blender.org, source file: 'GiantTree0-Colliders.blend'
element vertex 12
property float x
property float y
property float z
property float nx
property float ny
property float nz
element face 20
property list uchar uint vertex_indices
end_header
0.056237 0.236862 -0.131419 0.258522 0.832820 0.489425
0.253551 0.067015 -0.382644 0.972930 -0.230628 0.012940
0.241396 0.116688 -0.405866 0.820582 0.455702 -0.344859
0.010000 0.243784 -0.161331 -0.382672 0.922697 0.046480
0.198162 0.121236 -0.441424 0.200507 0.528947 -0.824610
0.167083 0.076111 -0.453761 -0.277566 -0.091861 -0.956267
0.179238 0.026440 -0.430540 -0.125614 -0.789056 -0.601306
-0.030607 0.206035 -0.158790 -0.935026 0.353771 0.022889
0.222472 0.021891 -0.394982 0.500259 -0.858364 -0.113712
-0.024978 0.161363 -0.126338 -0.835688 -0.307993 0.454665
0.061866 0.192189 -0.098967 0.367595 0.177923 0.912778
0.021258 0.154440 -0.096427 -0.181341 -0.397778 0.899350
3 0 1 2
3 3 2 4
3 5 3 4
3 6 7 5
3 8 9 6
3 10 8 1
3 7 11 3
3 1 6 4
3 0 10 1
3 3 0 2
3 5 7 3
3 6 9 7
3 8 11 9
3 10 11 8
3 0 3 11
3 7 9 11
3 11 10 0
3 4 2 1
3 1 8 6
3 6 5 4
