ply
format ascii 1.0
comment Created by Blender 2.77 (sub 0) - www.blender.org, source file: 'GiantTree0-Colliders.blend'
element vertex 12
property float x
property float y
property float z
property float nx
property float ny
property float nz
element face 20
property list uchar uint vertex_indices
end_header
-0.136253 0.799779 0.105999 -0.095981 0.746452 0.658437
-0.121186 0.533934 0.119770 -0.458693 -0.717612 0.524033
-0.069805 0.555703 0.146327 0.206763 -0.454909 0.866176
-0.081892 0.798554 0.073085 0.572069 0.787378 0.229621
-0.020417 0.569116 0.111685 0.848689 -0.315775 0.424238
-0.082515 0.783950 0.011229 0.557604 0.627918 -0.542894
-0.022410 0.560759 0.050486 0.826624 -0.438032 -0.353252
-0.073790 0.538990 0.023929 0.166814 -0.698325 -0.696036
-0.123179 0.525577 0.058571 -0.478530 -0.839015 -0.258889
-0.137499 0.770570 -0.017714 -0.117374 0.422163 -0.898862
-0.191859 0.771795 0.015200 -0.791925 0.380566 -0.477493
-0.191236 0.786399 0.077056 -0.781487 0.545183 0.303293
3 0 1 2
3 3 2 4
3 5 4 6
3 7 5 6
3 8 9 7
3 1 10 8
3 4 2 8
3 5 10 3
3 0 11 1
3 3 0 2
3 5 3 4
3 7 9 5
3 8 10 9
3 1 11 10
3 8 7 6
3 6 4 8
3 2 1 8
3 0 3 10
3 5 9 10
3 10 11 0
