ply
format ascii 1.0
comment Created by Blender 2.77 (sub 0) - www.blender.org, source file: 'GiantTree0-Colliders.blend'
element vertex 12
property float x
property float y
property float z
property float nx
property float ny
property float nz
element face 20
property list uchar uint vertex_indices
end_header
-0.154011 0.694234 -0.055045 -0.916471 -0.231971 0.325968
-0.019410 0.945092 -0.113773 -0.262459 0.854305 -0.448561
-0.148408 0.684121 -0.118936 -0.831965 -0.313425 -0.457778
-0.105397 0.677935 -0.015209 -0.344554 -0.477676 0.808130
-0.031232 0.943313 -0.046837 -0.386212 0.857753 0.339213
-0.051180 0.651523 -0.039266 0.308603 -0.797876 0.517808
0.013937 0.914319 -0.005093 0.154454 0.540147 0.827265
0.082750 0.888881 -0.097223 0.944212 0.212592 -0.251473
-0.045577 0.641410 -0.103157 0.402295 -0.877926 -0.259560
0.037581 0.917876 -0.138966 0.403882 0.531510 -0.744530
-0.094190 0.657709 -0.142992 -0.170202 -0.637349 -0.751518
0.070928 0.887102 -0.030287 0.817042 0.218482 0.533525
3 0 1 2
3 3 4 0
3 5 6 3
3 7 5 8
3 9 8 10
3 1 10 2
3 0 8 5
3 9 4 7
3 0 4 1
3 3 6 4
3 5 11 6
3 7 11 5
3 9 7 8
3 1 9 10
3 5 3 0
3 0 2 10
3 10 8 0
3 11 7 4
3 9 1 4
3 4 6 11
