ply
format ascii 1.0
comment Created by Blender 2.77 (sub 0) - www.blender.org, source file: 'GiantTree0-Colliders.blend'
element vertex 12
property float x
property float y
property float z
property float nx
property float ny
property float nz
element face 20
property list uchar uint vertex_indices
end_header
0.161393 1.442558 0.038118 -0.642018 0.695578 0.322398
0.116994 1.193879 -0.061776 -0.744499 -0.331950 -0.579211
0.102834 1.187973 0.007322 -0.900510 -0.392041 0.187902
0.215293 1.432434 0.085113 -0.058840 0.542589 0.837916
0.151694 1.161818 0.051350 -0.342448 -0.636830 0.690725
0.283301 1.426943 0.061428 0.686728 0.444655 0.574999
0.214713 1.141570 0.026282 0.378735 -0.826014 0.417371
0.228872 1.147476 -0.042816 0.536058 -0.764031 -0.358959
0.180013 1.173631 -0.086845 -0.028993 -0.514115 -0.857204
0.297409 1.431576 -0.009252 0.842647 0.498032 -0.204627
0.243509 1.441700 -0.056247 0.252144 0.649342 -0.717429
0.175501 1.447191 -0.032562 -0.487197 0.748589 -0.449660
3 0 1 2
3 3 2 4
3 5 4 6
3 7 5 6
3 8 9 7
3 1 10 8
3 3 5 10
3 7 4 1
3 0 11 1
3 3 0 2
3 5 3 4
3 7 9 5
3 8 10 9
3 1 11 10
3 10 11 0
3 0 3 10
3 5 9 10
3 1 8 7
3 7 6 4
3 4 2 1
