ply
format ascii 1.0
comment Created by Blender 2.77 (sub 0) - www.blender.org, source file: 'GiantTree0-Colliders.blend'
element vertex 12
property float x
property float y
property float z
property float nx
property float ny
property float nz
element face 20
property list uchar uint vertex_indices
end_header
-1.453975 3.320200 0.512357 0.626270 -0.760186 0.172826
-1.782453 3.838039 1.068656 -0.554918 -0.197913 0.808008
-1.500481 3.303043 0.494630 -0.101444 -0.993042 -0.059725
-1.431515 3.362557 0.490610 0.974578 -0.138279 -0.176122
-1.745426 3.845848 1.076352 0.193365 -0.021088 0.980895
-1.746422 3.895125 1.031139 0.172582 0.983062 0.061373
-1.455561 3.387757 0.451136 0.603504 0.258614 -0.754234
-1.783448 3.887316 1.023443 -0.575579 0.809656 -0.114628
-1.502068 3.370600 0.433408 -0.124241 0.031709 -0.991729
-1.801463 3.858773 1.042201 -0.940794 0.218207 0.259346
-1.524528 3.328243 0.455155 -0.477157 -0.597064 -0.644826
-1.727411 3.874391 1.057594 0.554552 0.568224 0.607898
3 0 1 2
3 3 4 0
3 5 3 6
3 7 6 8
3 9 8 10
3 2 9 10
3 10 6 2
3 5 9 11
3 0 4 1
3 3 11 4
3 5 11 3
3 7 5 6
3 9 7 8
3 2 1 9
3 0 2 6
3 10 8 6
3 6 3 0
3 4 11 9
3 5 7 9
3 9 1 4
