ply
format ascii 1.0
comment Created by Blender 2.77 (sub 0) - www.blender.org, source file: 'GiantTree0-Colliders.blend'
element vertex 12
property float x
property float y
property float z
property float nx
property float ny
property float nz
element face 20
property list uchar uint vertex_indices
end_header
1.493596 4.249465 -0.899048 -0.059358 0.768792 0.636677
1.246028 3.253844 -0.739865 -0.893094 -0.333171 0.302194
1.285883 3.245397 -0.699736 -0.327189 -0.400098 0.856044
1.536711 4.240957 -0.912141 0.681570 0.601581 0.416517
1.337179 3.224732 -0.714286 0.403638 -0.645833 0.648030
1.348621 3.212514 -0.768966 0.562822 -0.818445 -0.115482
1.308767 3.220962 -0.809096 -0.009766 -0.744865 -0.667135
1.545791 4.230774 -0.955920 0.838343 0.426862 -0.339000
1.257470 3.241627 -0.794545 -0.735527 -0.504257 -0.452406
1.511757 4.229099 -0.986606 0.253578 0.420148 -0.871273
1.459561 4.247791 -0.929733 -0.639668 0.761711 0.102847
1.468642 4.237607 -0.973512 -0.483627 0.588061 -0.648274
3 0 1 2
3 3 2 4
3 5 3 4
3 6 7 5
3 8 9 6
3 10 8 1
3 8 6 4
3 10 0 7
3 0 10 1
3 3 0 2
3 5 7 3
3 6 9 7
3 8 11 9
3 10 11 8
3 4 2 1
3 1 8 4
3 6 5 4
3 7 9 11
3 11 10 7
3 0 3 7
