ply
format ascii 1.0
comment Created by Blender 2.77 (sub 0) - www.blender.org, source file: 'GiantTree0-Colliders.blend'
element vertex 12
property float x
property float y
property float z
property float nx
property float ny
property float nz
element face 20
property list uchar uint vertex_indices
end_header
-1.333767 -0.222808 1.677701 -0.891781 0.450087 0.045930
-0.837876 -0.054622 1.340598 -0.045503 0.231117 -0.971831
-1.326727 -0.273279 1.627292 -0.865688 -0.135289 -0.481918
-1.308818 -0.234516 1.743871 -0.546373 0.354442 0.758812
-0.825722 0.004417 1.379314 0.028199 0.862331 -0.505509
-1.276828 -0.296695 1.759632 -0.174078 -0.329783 0.927824
-0.774666 0.004417 1.429568 0.533464 0.838343 0.112156
-0.747916 -0.113661 1.402391 0.858760 -0.464217 -0.216712
-1.269788 -0.347166 1.709223 -0.143834 -0.912259 0.383465
-0.798973 -0.113661 1.352137 0.357036 -0.423322 -0.832636
-1.294737 -0.335458 1.643054 -0.496597 -0.806360 -0.321085
-0.735763 -0.054622 1.441106 0.951537 0.174017 0.253487
3 0 1 2
3 3 4 0
3 5 6 3
3 7 5 8
3 9 8 10
3 1 10 2
3 1 6 9
3 3 0 10
3 0 4 1
3 3 6 4
3 5 11 6
3 7 11 5
3 9 7 8
3 1 9 10
3 7 9 6
3 1 4 6
3 6 11 7
3 10 8 3
3 5 3 8
3 0 2 10
