ply
format ascii 1.0
comment Created by Blender 2.77 (sub 0) - www.blender.org, source file: 'GiantTree0-Colliders.blend'
element vertex 12
property float x
property float y
property float z
property float nx
property float ny
property float nz
element face 20
property list uchar uint vertex_indices
end_header
-1.849114 -0.021298 -0.357663 0.286111 0.628254 0.723472
-1.759670 -0.007386 -0.633600 0.929289 0.162084 -0.331797
-1.790107 0.038427 -0.635229 0.486129 0.812891 -0.320719
-1.841088 0.036870 -0.655882 -0.270730 0.782342 -0.560869
-1.861630 -0.010502 -0.674905 -0.578875 0.089114 -0.810511
-1.903963 -0.025700 -0.357203 -0.499191 0.586108 0.638173
-1.831193 -0.056315 -0.673276 -0.129215 -0.566485 -0.813837
-1.927600 -0.075345 -0.359343 -0.840968 -0.126408 0.526078
-1.841539 -0.116187 -0.362400 0.405133 -0.722983 0.559557
-1.780213 -0.054757 -0.652623 0.628681 -0.525071 -0.573595
-1.817903 -0.066542 -0.360261 0.729179 -0.012635 0.684194
-1.896388 -0.120589 -0.361941 -0.388531 -0.782037 0.487228
3 0 1 2
3 3 0 2
3 4 5 3
3 6 7 4
3 8 6 9
3 10 9 1
3 10 0 7
3 1 9 4
3 0 10 1
3 3 5 0
3 4 7 5
3 6 11 7
3 8 11 6
3 10 8 9
3 7 11 8
3 8 10 7
3 0 5 7
3 4 3 2
3 2 1 4
3 9 6 4
