ply
format ascii 1.0
comment Created by Blender 2.77 (sub 0) - www.blender.org, source file: 'GiantTree0-Colliders.blend'
element vertex 12
property float x
property float y
property float z
property float nx
property float ny
property float nz
element face 20
property list uchar uint vertex_indices
end_header
0.115601 0.715161 0.040963 0.498215 -0.463393 -0.732810
0.130408 1.029535 0.147386 0.734794 0.646382 0.205481
0.137586 0.699004 0.096419 0.784112 -0.620472 -0.012391
0.045292 1.025115 0.075517 -0.325846 0.664968 -0.672018
0.054595 0.718902 0.031798 -0.278878 -0.442274 -0.852382
0.004446 1.016127 0.124445 -0.827265 0.557268 -0.070864
0.015574 0.706486 0.078090 -0.777398 -0.572802 -0.259835
0.026581 1.013843 0.184843 -0.554277 0.491256 0.671865
0.037558 0.690330 0.133546 -0.499588 -0.731315 0.464278
0.098564 0.686589 0.142710 0.283822 -0.757012 0.588488
0.089561 1.020547 0.196314 0.228217 0.536821 0.812220
0.108273 1.031819 0.086988 0.455580 0.708945 -0.538316
3 0 1 2
3 3 0 4
3 5 4 6
3 7 6 8
3 9 7 8
3 2 10 9
3 10 3 5
3 4 9 8
3 0 11 1
3 3 11 0
3 5 3 4
3 7 5 6
3 9 10 7
3 2 1 10
3 5 7 10
3 10 1 11
3 11 3 10
3 8 6 4
3 4 0 2
3 2 9 4
