ply
format ascii 1.0
comment Created by Blender 2.77 (sub 0) - www.blender.org, source file: 'GiantTree0-Colliders.blend'
element vertex 12
property float x
property float y
property float z
property float nx
property float ny
property float nz
element face 20
property list uchar uint vertex_indices
end_header
0.911685 3.126340 0.297845 0.929014 0.368450 -0.033540
0.683093 2.630555 0.099635 0.231880 -0.954192 0.188879
0.705494 2.652305 0.038852 0.495682 -0.696371 -0.518937
0.872560 3.148565 0.259355 0.427015 0.745598 -0.511551
0.665878 2.692350 0.000171 0.031190 -0.231391 -0.972350
0.817153 3.160084 0.276778 -0.291330 0.917295 -0.271371
0.603861 2.710647 0.022273 -0.695608 -0.025636 -0.717917
0.581460 2.688898 0.083055 -0.958647 -0.284280 -0.011780
0.621076 2.648852 0.121736 -0.494888 -0.748253 0.441755
0.800870 3.149377 0.332693 -0.537584 0.716758 0.444136
0.839995 3.127152 0.371184 -0.042299 0.343547 0.938169
0.895402 3.115634 0.353760 0.694418 0.171911 0.698691
3 0 1 2
3 3 2 4
3 5 4 6
3 7 5 6
3 8 9 7
3 1 10 8
3 10 11 3
3 4 8 7
3 0 11 1
3 3 0 2
3 5 3 4
3 7 9 5
3 8 10 9
3 1 11 10
3 3 5 9
3 9 10 3
3 11 0 3
3 7 6 4
3 4 2 1
3 1 8 4
