ply
format ascii 1.0
comment Created by Blender 2.77 (sub 0) - www.blender.org, source file: 'GiantTree0-Colliders.blend'
element vertex 12
property float x
property float y
property float z
property float nx
property float ny
property float nz
element face 20
property list uchar uint vertex_indices
end_header
-0.084629 3.435094 1.173026 0.079073 0.320658 0.943876
-0.014623 3.007773 0.970645 -0.357189 -0.912442 0.199561
0.049446 3.019182 0.995781 0.378552 -0.789666 0.482772
-0.039047 3.453957 1.132993 0.627888 0.623646 0.465590
0.096090 3.054420 0.957708 0.915372 -0.400525 0.040590
-0.054111 3.472225 1.074040 0.437574 0.863155 -0.251839
0.078664 3.078250 0.894498 0.718284 -0.135044 -0.682485
0.014594 3.066840 0.869362 -0.014740 -0.257210 -0.966216
-0.032049 3.031602 0.907435 -0.553758 -0.645985 -0.525346
-0.114755 3.471630 1.055120 -0.299875 0.804376 -0.512864
-0.160336 3.452767 1.095153 -0.861293 0.506516 -0.039583
-0.145273 3.434499 1.154106 -0.671163 0.265542 0.692068
3 0 1 2
3 3 2 4
3 5 4 6
3 7 5 6
3 8 9 7
3 1 10 8
3 5 9 11
3 6 4 1
3 0 11 1
3 3 0 2
3 5 3 4
3 7 9 5
3 8 10 9
3 1 11 10
3 11 0 3
3 3 5 11
3 9 10 11
3 1 8 7
3 7 6 1
3 4 2 1
