ply
format ascii 1.0
comment Created by Blender 2.77 (sub 0) - www.blender.org, source file: 'GiantTree0-Colliders.blend'
element vertex 12
property float x
property float y
property float z
property float nx
property float ny
property float nz
element face 20
property list uchar uint vertex_indices
end_header
1.020553 3.493665 0.240797 -0.823664 0.541337 0.168798
1.452356 3.523767 0.336454 0.648823 0.744224 -0.158452
1.035227 3.490490 0.173129 -0.607074 0.516465 -0.603870
1.033729 3.439284 0.281705 -0.783807 -0.129734 0.607257
1.427667 3.523594 0.393754 0.352702 0.742027 0.570025
1.061580 3.381728 0.254945 -0.536210 -0.798395 0.273843
1.421515 3.469888 0.424910 0.267190 0.062410 0.961608
1.464743 3.416529 0.341468 0.779534 -0.617389 -0.105258
1.076255 3.378554 0.187277 -0.301004 -0.826655 -0.475387
1.470894 3.470234 0.310311 0.864589 0.066408 -0.498032
1.063079 3.432935 0.146369 -0.333354 -0.164556 -0.928312
1.440053 3.416356 0.398767 0.478744 -0.617389 0.624165
3 0 1 2
3 3 4 0
3 5 6 3
3 7 5 8
3 9 8 10
3 1 10 2
3 11 7 1
3 3 0 10
3 0 4 1
3 3 6 4
3 5 11 6
3 7 11 5
3 9 7 8
3 1 9 10
3 1 4 6
3 6 11 1
3 7 9 1
3 10 8 5
3 5 3 10
3 0 2 10
