ply
format ascii 1.0
comment Created by Blender 2.77 (sub 0) - www.blender.org, source file: 'GiantTree0-Colliders.blend'
element vertex 12
property float x
property float y
property float z
property float nx
property float ny
property float nz
element face 20
property list uchar uint vertex_indices
end_header
1.002949 0.072244 0.950417 0.034211 0.604205 0.796045
0.753155 0.037367 0.576124 -0.988586 -0.005005 -0.150426
0.968771 0.015364 0.959715 -0.355510 -0.077486 0.931425
1.058398 0.072244 0.912795 0.709098 0.599078 0.371776
0.780716 0.094194 0.556890 -0.642567 0.680593 -0.351909
1.079667 0.015364 0.884470 0.991882 -0.088595 0.091098
0.838795 0.093753 0.525496 0.053652 0.674764 -0.736045
0.841751 -0.020343 0.532570 0.049348 -0.696280 -0.716056
1.045488 -0.041516 0.893769 0.605487 -0.761010 0.232795
0.783673 -0.019902 0.563965 -0.639485 -0.691671 -0.335582
0.990040 -0.041516 0.931392 -0.064302 -0.760308 0.646321
0.869312 0.036484 0.513337 0.399304 -0.017060 -0.916654
3 0 1 2
3 3 4 0
3 5 6 3
3 7 5 8
3 9 8 10
3 1 10 2
3 2 10 5
3 4 7 9
3 0 4 1
3 3 6 4
3 5 11 6
3 7 11 5
3 9 7 8
3 1 9 10
3 5 3 0
3 0 2 5
3 10 8 5
3 9 1 4
3 4 6 11
3 11 7 4
