ply
format ascii 1.0
comment Created by Blender 2.77 (sub 0) - www.blender.org, source file: 'GiantTree0-Colliders.blend'
element vertex 14
property float x
property float y
property float z
property float nx
property float ny
property float nz
element face 24
property list uchar uint vertex_indices
end_header
-0.725289 -0.259577 -1.872087 0.522477 -0.167730 -0.835963
-0.802537 -0.241298 -1.867514 -0.432997 -0.265664 -0.861324
-0.797442 -0.233589 -1.869126 -0.103000 0.153081 -0.982818
-0.759246 -0.314861 -1.765607 0.079287 -0.919095 0.385876
-0.681004 -0.257087 -1.809454 0.975555 -0.156438 -0.154241
-0.735778 -0.251247 -1.729655 0.376110 -0.385022 0.842769
-0.708872 -0.228609 -1.743860 0.829341 0.074618 0.553697
-0.930055 -0.155698 -1.764534 -0.979308 -0.171239 0.107700
-0.792626 -0.309888 -1.834537 -0.301157 -0.875759 -0.377209
-0.888254 -0.163608 -1.700656 -0.614643 -0.197180 0.763756
-0.921013 -0.093716 -1.808881 -0.803674 0.411328 -0.429975
-0.870169 -0.039644 -1.789351 -0.192541 0.946501 -0.258889
-0.837411 -0.109536 -1.681126 -0.051912 0.316294 0.947233
-0.828368 -0.047554 -1.725473 0.187170 0.901395 0.390393
3 0 1 2
3 3 0 4
3 5 4 6
3 7 1 8
3 9 8 3
3 5 9 3
3 10 9 11
3 2 10 11
3 6 12 5
3 0 13 4
3 0 2 11
3 13 6 4
3 0 8 1
3 3 8 0
3 5 3 4
3 7 10 1
3 9 7 8
3 5 12 9
3 13 11 9
3 10 7 9
3 9 12 13
3 2 1 10
3 6 13 12
3 0 11 13
