ply
format ascii 1.0
comment Created by Blender 2.77 (sub 0) - www.blender.org, source file: 'GiantTree0-Colliders.blend'
element vertex 12
property float x
property float y
property float z
property float nx
property float ny
property float nz
element face 20
property list uchar uint vertex_indices
end_header
0.234528 0.996133 0.058117 0.639546 -0.762169 0.099979
0.190412 1.124924 0.143927 0.080752 0.342906 0.935881
0.180121 0.992333 0.098077 0.000519 -0.831080 0.556078
0.240898 1.157758 0.037705 0.654653 0.704825 -0.273080
0.228164 1.017493 -0.005717 0.564898 -0.514512 -0.645070
0.176774 1.163310 0.008943 -0.074099 0.807917 -0.584552
0.167393 1.035054 -0.029589 -0.148808 -0.336192 -0.929929
0.119468 1.149669 0.047673 -0.719565 0.680837 -0.136570
0.112985 1.031255 0.010372 -0.782067 -0.406781 -0.472060
0.119350 1.009894 0.074205 -0.708426 -0.653371 0.266823
0.126287 1.130476 0.115166 -0.644581 0.448073 0.619434
0.247717 1.138565 0.105197 0.732688 0.473128 0.489181
3 0 1 2
3 3 0 4
3 5 4 6
3 7 6 8
3 9 7 8
3 2 10 9
3 6 4 2
3 11 3 7
3 0 11 1
3 3 11 0
3 5 3 4
3 7 5 6
3 9 10 7
3 2 1 10
3 2 9 8
3 8 6 2
3 4 0 2
3 7 10 1
3 1 11 7
3 3 5 7
