ply
format ascii 1.0
comment Created by Blender 2.77 (sub 0) - www.blender.org, source file: 'VegetablePlot0-Colliders.blend'
element vertex 245
property float x
property float y
property float z
property float nx
property float ny
property float nz
element face 430
property list uchar uint vertex_indices
end_header
-5.375000 1.271618 1.475000 -0.577349 0.577349 0.577349
-4.150000 -0.028382 1.475000 0.577349 -0.577349 0.577349
-4.150000 1.271618 1.475000 0.577349 0.577349 0.577349
-5.375000 -0.028382 1.475000 -0.577349 -0.577349 0.577349
-5.375000 1.271618 -0.950000 -0.577349 0.577349 -0.577349
-5.375000 -0.028382 -0.950000 -0.577349 -0.577349 -0.577349
-4.150000 1.271618 -0.950000 0.577349 0.577349 -0.577349
-4.150000 -0.028382 -0.950000 0.577349 -0.577349 -0.577349
-12.024754 1.640615 2.005750 0.577349 0.577349 0.577349
-12.275251 1.640614 -10.624752 -0.577349 0.577349 -0.577349
-12.275251 1.640615 2.005750 -0.577349 0.577349 0.577349
-12.024754 0.000000 2.005750 0.577349 -0.577319 0.577349
-12.024754 1.640614 -10.624752 0.577349 0.577349 -0.577349
-12.275251 -0.000001 -10.624752 -0.577349 -0.577319 -0.577349
-12.024754 -0.000001 -10.624752 0.577349 -0.577349 -0.577349
-12.275251 0.000000 2.005750 -0.577349 -0.577349 0.577349
-2.087499 1.640614 -10.816748 0.577349 0.577349 -0.577349
-2.087499 -0.000001 -10.533251 0.577349 -0.577349 0.577349
-2.087499 -0.000001 -10.816748 0.577349 -0.577349 -0.577349
-2.087499 1.640614 -10.533251 0.577349 0.577349 0.577349
-12.112501 -0.000001 -10.533251 -0.577349 -0.577349 0.577349
-12.112501 1.640614 -10.816748 -0.577349 0.577349 -0.577349
-12.112501 -0.000001 -10.816748 -0.577349 -0.577349 -0.577349
-12.112501 1.640614 -10.533251 -0.577349 0.577349 0.577349
-12.112501 1.640615 2.106875 -0.577349 0.577349 0.577349
-3.987501 0.000000 2.106876 0.577349 -0.577349 0.577349
-3.987501 1.640615 2.106875 0.577349 0.577349 0.577349
-3.987501 1.640615 1.893125 0.577349 0.577349 -0.577349
-12.112501 0.000000 1.893125 -0.577349 -0.577349 -0.577349
-12.112501 1.640615 1.893125 -0.577349 0.577349 -0.577349
-12.112501 0.000000 2.106876 -0.577349 -0.577349 0.577349
-3.987501 0.000000 1.893125 0.577349 -0.577349 -0.577349
-12.150002 -0.005034 2.100000 0.000000 -0.645711 0.763543
-12.250000 -0.005034 2.006250 -0.769280 -0.638874 0.000000
-12.150002 -0.005034 1.912500 0.000000 -0.645711 -0.763543
-12.050001 1.750325 2.006249 0.769280 0.638874 0.000000
-12.150002 1.750325 1.912499 0.000000 0.645711 -0.763543
-12.150002 1.750325 2.099999 0.000000 0.645711 0.763543
-12.225000 -0.005034 2.076562 -0.544481 -0.619007 0.565966
-12.225000 1.750325 2.076562 -0.544481 0.619007 0.565966
-12.075001 -0.005034 2.076562 0.544481 -0.619007 0.565966
-12.075001 1.750325 2.076562 0.544481 0.619007 0.565966
-12.250000 1.750325 2.006249 -0.769280 0.638874 0.000000
-12.075001 -0.005034 1.935937 0.544481 -0.619007 -0.565966
-12.075001 1.750325 1.935937 0.544481 0.619007 -0.565966
-12.225000 1.750325 1.935937 -0.544481 0.619007 -0.565966
-12.225000 -0.005034 1.935937 -0.544481 -0.619007 -0.565966
-1.950000 -0.005036 -10.675001 0.763543 -0.645711 0.000000
-2.043750 -0.005036 -10.575001 0.000000 -0.638874 0.769280
-2.137500 -0.005036 -10.675001 -0.763543 -0.645711 0.000000
-1.973437 1.750324 -10.600002 0.565966 0.619007 0.544481
-1.973437 -0.005036 -10.600002 0.565996 -0.619007 0.544450
-1.973437 -0.005036 -10.750000 0.565996 -0.619007 -0.544450
-2.043750 1.750324 -10.775002 0.000000 0.638874 -0.769280
-1.973437 1.750324 -10.750000 0.565966 0.619007 -0.544481
-2.043750 1.750324 -10.575001 0.000000 0.638874 0.769280
-1.950000 1.750324 -10.675001 0.763543 0.645711 0.000000
-2.137500 1.750324 -10.675001 -0.763543 0.645711 0.000000
-2.114062 1.750324 -10.750000 -0.565966 0.619007 -0.544481
-2.114062 -0.005036 -10.750000 -0.565996 -0.619007 -0.544450
-2.114062 1.750324 -10.600002 -0.565966 0.619007 0.544481
-2.114062 -0.005036 -10.600002 -0.565996 -0.619007 0.544450
-3.943750 1.750325 2.099999 0.000000 0.638874 0.769280
-3.850000 1.750325 2.000000 0.763543 0.645711 0.000000
-4.037500 1.750325 2.000000 -0.763543 0.645711 0.000000
-3.943750 1.750325 1.900000 0.000000 0.638874 -0.769280
-4.014062 -0.005034 1.925000 -0.565966 -0.619007 -0.544481
-4.014062 1.750325 1.924999 -0.565966 0.619007 -0.544481
-4.014062 1.750325 2.075000 -0.565966 0.619007 0.544481
-4.037500 -0.005034 2.000000 -0.763543 -0.645711 0.000000
-4.014062 -0.005034 2.075000 -0.565966 -0.619007 0.544481
-3.873437 -0.005034 2.075000 0.565966 -0.619007 0.544481
-3.873437 1.750325 2.075000 0.565966 0.619007 0.544481
-3.873437 -0.005034 1.925000 0.565966 -0.619007 -0.544481
-3.873437 1.750325 1.924999 0.565966 0.619007 -0.544481
-3.943750 -0.005034 2.100000 0.000000 -0.638874 0.769280
-3.850000 -0.005034 2.000000 0.763543 -0.645711 0.000000
-3.943750 -0.005034 1.900000 0.000000 -0.638874 -0.769280
-12.143751 1.750324 -10.575001 0.000000 0.633869 0.773400
-12.073439 1.750324 -10.600000 0.568926 0.613788 0.547319
-12.050001 1.750324 -10.675001 0.767724 0.640767 0.000000
-12.214064 1.750324 -10.600000 -0.568926 0.613788 0.547319
-12.237501 1.750324 -10.675001 -0.767724 0.640767 0.000000
-12.073439 1.750324 -10.750000 0.568926 0.613788 -0.547288
-12.143751 1.750324 -10.775002 0.000000 0.633869 -0.773400
-12.214064 1.750324 -10.750000 -0.568926 0.613788 -0.547288
-12.237501 -0.005036 -10.675001 -0.763543 -0.645711 0.000000
-12.143751 -0.005036 -10.575001 0.000000 -0.638874 0.769280
-12.214064 -0.005036 -10.600000 -0.565966 -0.619007 0.544481
-12.073439 -0.005036 -10.600000 0.565966 -0.619007 0.544481
-12.050001 -0.005036 -10.675001 0.763543 -0.645711 0.000000
-12.214064 -0.005036 -10.750000 -0.565996 -0.619007 -0.544450
-12.143751 -0.005036 -10.775002 0.000000 -0.638874 -0.769280
-12.073439 -0.005036 -10.750000 0.565996 -0.619007 -0.544450
-12.231552 1.347979 -10.675001 -0.999969 0.005127 0.000000
-12.210039 1.347979 -10.746128 -0.721061 0.005402 -0.692801
-12.243454 0.872644 -10.675001 -0.999969 0.005799 0.000000
-12.218084 0.872644 -10.753870 -0.720145 0.006043 -0.693777
-12.210039 1.347979 -10.603874 -0.721061 0.005402 0.692801
-12.218084 0.872644 -10.596132 -0.720145 0.006043 0.693777
-12.143751 1.347980 -10.769129 0.000000 0.005066 -0.999969
-12.143751 0.872644 -10.780878 0.000000 0.005829 -0.999969
-12.143751 0.872644 -10.569124 0.000000 0.005829 0.999969
-12.143751 1.347980 -10.580873 0.000000 0.005066 0.999969
-12.077463 1.347980 -10.746128 0.721061 0.005402 -0.692801
-12.069418 0.872644 -10.753870 0.720145 0.006043 -0.693777
-12.077463 1.347979 -10.603874 0.721061 0.005402 0.692801
-12.069418 0.872644 -10.596132 0.720145 0.006043 0.693777
-12.044048 0.872644 -10.675001 0.999969 0.005799 0.000000
-12.055950 1.347979 -10.675001 0.999969 0.005127 0.000000
-12.073439 0.378949 -10.750000 0.720603 -0.006287 -0.693289
-12.143751 0.378949 -10.775002 0.000000 -0.005951 -0.999969
-12.214064 0.378949 -10.750000 -0.720603 -0.006287 -0.693289
-12.050001 0.378949 -10.675001 0.999969 -0.006012 0.000000
-12.073439 0.378949 -10.600000 0.720603 -0.006287 0.693289
-12.237501 0.378949 -10.675001 -0.999969 -0.006012 0.000000
-12.214064 0.378949 -10.600000 -0.720603 -0.006287 0.693289
-12.143751 0.378949 -10.575001 0.000000 -0.005951 0.999969
-6.335547 0.118282 0.193390 0.112156 0.989654 0.089175
-6.018750 -0.009529 0.650000 0.657918 -0.090823 0.747581
-5.850000 -0.009529 0.200000 0.979797 -0.117222 0.161840
-6.335510 0.118428 -9.268150 0.111820 0.989319 -0.093387
-5.850000 -0.009531 -9.275002 0.978851 -0.117038 -0.167638
-6.018750 -0.009530 -9.706251 0.653005 -0.093204 -0.751579
-10.900002 -0.009529 0.650000 -0.666066 -0.092898 0.740043
-10.638002 0.112791 0.192619 -0.129002 0.987976 0.084902
-11.050001 -0.009529 0.200000 -0.980255 -0.132267 0.146794
-10.450001 -0.009529 0.800000 -0.119663 -0.094455 0.988281
-6.525000 -0.009529 0.800000 0.104617 -0.098788 0.989563
-11.050001 -0.009531 -9.275002 -0.979461 -0.132084 -0.152226
-10.638048 0.112951 -9.267349 -0.128666 0.987671 -0.088870
-10.900002 -0.009530 -9.706251 -0.661031 -0.095401 -0.744255
-6.525000 -0.009530 -9.850002 0.099826 -0.103214 -0.989624
-3.509457 0.122897 -9.268803 0.065127 0.993561 -0.092410
-0.811677 -0.220298 -9.275000 0.865658 -0.093692 -0.491775
-3.137500 -0.009530 -9.706251 0.394757 -0.102176 -0.913053
-3.509516 0.122642 -2.180775 0.058290 0.993164 0.100986
-3.137500 -0.009529 -1.706250 0.308481 -0.087619 0.947172
-0.811677 -0.220296 -2.175000 0.867763 -0.093844 0.487960
-5.339876 0.120015 -9.268381 -0.115268 0.990234 -0.078372
-3.700000 -0.009530 -10.027924 0.188086 -0.079623 -0.978912
-5.339809 0.119745 -2.181166 -0.109012 0.990204 0.086978
-3.700000 -0.009529 -1.550000 0.099124 -0.098331 0.990173
-5.850000 -0.009530 -9.275002 -0.978515 -0.112705 -0.172613
-5.675000 -0.009530 -9.706251 -0.737693 -0.099033 -0.667776
-5.675000 -0.009529 -1.706250 -0.660054 -0.087863 0.746025
-5.850000 -0.009529 -2.175000 -0.980407 -0.113102 0.161199
-6.867111 1.220032 0.566561 -0.190435 0.749596 -0.633869
-6.440044 0.673412 0.566561 0.706412 -0.254585 -0.660390
-7.251451 0.773040 0.566561 -0.747032 -0.076144 -0.660390
-7.228204 0.962368 0.648311 -0.669729 0.398358 0.626698
-7.228204 0.962368 0.566561 -0.669729 0.398358 -0.626698
-6.416798 0.862740 0.648311 0.746208 0.224494 0.626698
-6.704830 1.200107 0.566561 0.366131 0.681265 -0.633869
-6.704830 1.200107 0.648311 0.366131 0.681265 0.633869
-7.009912 0.057016 0.566561 -0.503189 -0.617420 -0.604602
-6.847631 0.037091 0.648311 0.338878 -0.720817 0.604602
-7.009912 0.057016 0.648311 -0.503189 -0.617420 0.604602
-6.440044 0.673412 0.648311 0.706412 -0.254585 0.660390
-6.867111 1.220032 0.648311 -0.190435 0.749596 0.633869
-7.251451 0.773040 0.648311 -0.747032 -0.076144 0.660390
-6.416798 0.862740 0.566561 0.746208 0.224494 -0.626698
-6.847631 0.037091 0.566561 0.338878 -0.720817 -0.604602
-9.769573 0.701381 0.644936 0.742027 -0.115116 0.660390
-9.781780 0.875954 0.569936 0.689657 0.362743 -0.626698
-9.781780 0.875954 0.644936 0.689657 0.362743 0.626698
-10.174879 0.046513 0.644936 -0.376141 -0.702109 0.604602
-10.517746 0.649063 0.569936 -0.718772 -0.217292 -0.660390
-10.174879 0.046513 0.569936 -0.376141 -0.702109 -0.604602
-9.769573 0.701381 0.569936 0.742027 -0.115116 -0.660390
-10.249866 1.118894 0.569936 -0.329966 0.699484 -0.633869
-10.100233 1.129357 0.644936 0.229408 0.738609 0.633869
-10.100233 1.129357 0.569936 0.229408 0.738609 -0.633869
-10.025244 0.056976 0.644936 0.470199 -0.642903 0.604602
-10.517746 0.649063 0.644936 -0.718772 -0.217292 0.660390
-10.529953 0.823637 0.569936 -0.733421 0.263253 -0.626698
-10.249866 1.118894 0.644936 -0.329966 0.699484 0.633869
-10.529953 0.823637 0.644936 -0.733421 0.263253 0.626698
-10.025244 0.056976 0.569936 0.470199 -0.642903 -0.604602
-11.443493 0.074286 -4.905877 -0.196966 0.976104 -0.091556
-11.734241 -0.014091 -4.686999 -0.986419 -0.164098 0.000000
-11.520435 0.074286 -4.686999 -0.234291 0.972137 0.000000
-9.572643 0.091538 -3.303696 0.091311 0.986053 0.138890
-9.125000 -0.006351 -3.387499 0.951292 -0.117954 0.284738
-9.454561 0.091538 -3.485245 0.154515 0.986938 0.045015
-10.667570 0.091537 -5.937964 -0.093661 0.986908 -0.131199
-10.125000 -0.006351 -6.375000 0.003906 -0.125828 -0.992035
-10.875000 -0.006351 -6.234375 -0.563005 -0.103275 -0.819941
-9.582430 0.091537 -5.937964 0.095401 0.986053 -0.136326
-9.125000 -0.006351 -5.812500 0.957030 -0.119480 -0.264138
-9.375000 -0.006351 -6.234375 0.570055 -0.106937 -0.814600
-11.443493 0.074286 -4.468121 -0.197638 0.977081 0.078707
-11.600365 -0.014091 -4.306164 -0.896146 -0.193579 0.399243
-10.125000 -0.006351 -2.875000 0.000000 -0.128971 0.991638
-10.125000 0.091538 -3.209335 0.000000 0.987610 0.156835
-10.677359 0.091538 -3.303696 -0.091464 0.986908 0.132603
-9.454561 0.091538 -5.722186 0.154485 0.987121 -0.041505
-11.125000 -0.006351 -3.387499 -0.840052 -0.136113 0.525101
-11.600365 -0.014091 -5.067833 -0.864009 -0.180609 -0.469924
-10.125000 0.091537 -6.039696 0.000000 0.987457 -0.157811
-11.369654 0.074286 1.183166 -0.165075 0.971435 0.170446
-10.948185 -0.014090 1.527924 0.005402 -0.169927 0.985412
-10.948185 0.074286 1.316383 -0.002167 0.971435 0.237251
-11.719305 -0.014090 0.796721 -0.983795 -0.170782 0.054415
-11.526525 -0.014090 1.345123 -0.687948 -0.149083 0.710257
-9.535271 0.091538 -1.971783 0.072573 0.986358 -0.147618
-9.375000 -0.006351 -2.284375 0.453291 -0.113132 -0.884121
-10.125000 -0.006351 -2.375000 0.000000 -0.117893 -0.993011
-10.526716 0.074286 1.183166 0.077639 0.966430 0.244850
-9.549257 0.091538 0.713174 0.092349 0.988495 0.119602
-9.375000 -0.006351 1.021875 0.577868 -0.116123 0.807794
-9.125000 -0.006351 0.712500 0.937590 -0.113407 0.328684
-10.875000 -0.006351 -2.284375 -0.453291 -0.113132 -0.884121
-10.795439 0.091538 -1.884011 -0.136937 0.987610 -0.076479
-10.714727 0.091538 -1.971783 -0.072573 0.986358 -0.147618
-9.454559 0.091538 0.595987 0.152684 0.986724 0.054781
-9.454559 0.091538 -1.884011 0.154210 0.986175 -0.060121
-11.125000 -0.006351 -2.012500 -0.882321 -0.117801 -0.455611
-11.505501 0.074286 0.796721 -0.229896 0.972991 0.020112
-6.410271 0.091538 -1.971783 0.072573 0.986358 -0.147618
-6.250000 -0.006351 -2.284375 0.453291 -0.113132 -0.884121
-7.000000 -0.006351 -2.375000 0.000000 -0.117893 -0.993011
-7.575742 0.091539 0.713174 -0.078280 0.986297 0.145116
-7.750000 -0.006351 1.021875 -0.488510 -0.111087 0.865444
-7.000000 -0.006351 1.125000 0.000000 -0.115360 0.993316
-6.329560 0.091538 -1.884010 0.154210 0.986175 -0.060121
-6.000000 -0.006351 -2.012499 0.925871 -0.111545 -0.360973
-8.000000 -0.006351 0.712500 -0.936613 -0.114292 0.331126
-8.000000 -0.006351 -2.012499 -0.925871 -0.111545 -0.360973
-6.000000 -0.006351 0.712500 0.936613 -0.114292 0.331126
-7.750000 -0.006351 -2.284375 -0.453291 -0.113132 -0.884121
-7.670438 0.091538 -1.884010 -0.154210 0.986175 -0.060121
-7.589729 0.091538 -1.971783 -0.072604 0.986358 -0.147618
-7.670438 0.091539 0.595988 -0.155309 0.986328 0.054903
-6.424256 0.091539 0.713174 0.078280 0.986297 0.145116
-6.329560 0.091539 0.595988 0.155309 0.986328 0.054903
-12.050001 -0.005034 2.006250 0.769280 -0.638874 0.000000
-2.043750 -0.005036 -10.775002 0.000000 -0.638874 -0.769280
-10.450001 -0.009530 -9.850002 -0.114353 -0.098727 -0.988495
-5.150000 -0.009530 -10.027924 -0.201514 -0.078036 -0.976348
-5.150000 -0.009529 -1.550000 -0.109073 -0.096316 0.989349
-9.375000 -0.006351 -3.003125 0.546190 -0.108036 0.830653
-10.875000 -0.006351 -3.003125 -0.546190 -0.108036 0.830653
-9.125000 -0.006351 -2.012500 0.925871 -0.111545 -0.360973
-6.250000 -0.006351 1.021875 0.488510 -0.111087 0.865444
3 0 1 2
3 3 4 5
3 6 5 4
3 1 5 7
3 1 6 2
3 4 2 6
3 8 9 10
3 11 12 8
3 10 11 8
3 11 13 14
3 12 13 9
3 15 9 13
3 16 17 18
3 16 19 17
3 20 21 22
3 23 21 20
3 22 16 18
3 21 16 22
3 21 19 16
3 23 19 21
3 19 23 17
3 23 20 17
3 17 20 18
3 20 22 18
3 24 25 26
3 27 28 29
3 28 25 30
3 29 26 27
3 27 25 31
3 29 30 24
3 32 33 34
3 35 36 37
3 38 37 39
3 40 35 41
3 32 41 37
3 42 38 39
3 35 43 44
3 36 43 34
3 45 34 46
3 42 46 33
3 47 48 49
3 50 48 51
3 52 53 54
3 55 56 57
3 49 58 59
3 47 50 51
3 47 54 56
3 60 49 61
3 60 48 55
3 53 59 58
3 62 63 64
3 65 66 67
3 68 69 70
3 71 63 72
3 69 67 66
3 73 65 74
3 68 75 62
3 72 75 71
3 74 76 73
3 69 77 76
3 78 79 80
3 81 78 80
3 82 81 80
3 82 80 83
3 82 83 84
3 85 82 84
3 86 87 88
3 87 86 89
3 86 90 89
3 90 86 91
3 90 92 93
3 92 90 91
3 94 95 96
3 96 95 97
3 98 94 96
3 99 98 96
3 95 100 101
3 97 95 101
3 102 98 99
3 103 98 102
3 104 105 101
3 100 104 101
3 106 103 102
3 106 102 107
3 106 107 108
3 109 106 108
3 104 109 108
3 104 108 105
3 82 95 94
3 82 85 95
3 81 82 98
3 98 82 94
3 85 84 95
3 84 100 95
3 103 78 98
3 78 81 98
3 84 83 104
3 100 84 104
3 79 78 106
3 78 103 106
3 80 79 106
3 80 106 109
3 83 80 104
3 104 80 109
3 101 105 110
3 101 110 111
3 92 110 93
3 111 110 92
3 97 101 112
3 112 101 111
3 112 92 91
3 112 111 92
3 108 113 110
3 105 108 110
3 110 90 93
3 110 113 90
3 108 107 114
3 108 114 113
3 90 114 89
3 113 114 90
3 115 96 112
3 96 97 112
3 86 112 91
3 115 112 86
3 99 96 116
3 116 96 115
3 116 86 88
3 116 115 86
3 107 102 114
3 102 117 114
3 114 87 89
3 114 117 87
3 117 102 116
3 102 99 116
3 87 116 88
3 117 116 87
3 118 119 120
3 121 120 122
3 121 122 123
3 124 125 126
3 127 128 125
3 129 130 131
3 118 130 125
3 130 126 125
3 122 120 129
3 121 132 130
3 133 134 135
3 136 137 138
3 139 133 140
3 138 133 136
3 141 142 136
3 143 139 144
3 145 141 146
3 146 139 143
3 139 136 133
3 146 135 137
3 147 148 149
3 149 150 151
3 152 153 154
3 155 156 157
3 158 159 160
3 159 153 147
3 159 151 150
3 157 149 155
3 152 148 161
3 158 162 148
3 163 164 165
3 166 167 168
3 169 168 167
3 170 171 172
3 168 173 166
3 174 175 167
3 176 175 177
3 163 178 169
3 165 172 171
3 171 176 163
3 179 180 181
3 182 183 184
3 185 186 187
3 188 189 190
3 191 180 192
3 193 182 194
3 189 184 183
3 195 193 194
3 179 191 196
3 197 192 183
3 191 192 197
3 198 185 187
3 188 186 199
3 200 201 202
3 200 203 204
3 205 206 207
3 208 209 202
3 210 203 211
3 201 208 202
3 212 213 214
3 209 208 210
3 209 211 215
3 211 216 215
3 217 218 213
3 216 206 205
3 218 215 213
3 219 220 221
3 222 223 224
3 220 225 226
3 227 228 229
3 230 231 232
3 225 229 226
3 231 227 233
3 234 229 235
3 222 227 223
3 225 231 233
3 0 3 1
3 3 0 4
3 6 7 5
3 1 3 5
3 1 7 6
3 4 0 2
3 8 12 9
3 11 14 12
3 10 15 11
3 11 15 13
3 12 14 13
3 15 10 9
3 24 30 25
3 27 31 28
3 28 31 25
3 29 24 26
3 27 26 25
3 29 28 30
3 46 34 33
3 43 236 34
3 40 32 236
3 38 33 32
3 34 236 32
3 42 39 37
3 37 41 35
3 35 44 36
3 36 45 42
3 42 37 36
3 38 32 37
3 40 236 35
3 32 40 41
3 42 33 38
3 35 236 43
3 36 44 43
3 45 36 34
3 42 45 46
3 49 59 237
3 237 52 47
3 47 51 48
3 48 61 49
3 49 237 47
3 50 55 48
3 52 237 53
3 53 58 57
3 57 60 55
3 55 50 56
3 56 54 53
3 53 57 56
3 49 57 58
3 47 56 50
3 47 52 54
3 60 57 49
3 60 61 48
3 53 237 59
3 65 67 64
3 64 68 62
3 62 72 63
3 63 74 65
3 65 64 63
3 65 77 66
3 68 64 69
3 71 76 63
3 69 64 67
3 73 77 65
3 68 70 75
3 72 62 75
3 74 63 76
3 73 76 77
3 71 75 76
3 70 69 75
3 66 77 69
3 76 75 69
3 121 118 120
3 118 125 128
3 124 127 125
3 128 119 118
3 118 121 130
3 130 129 126
3 124 126 127
3 129 131 238
3 238 132 129
3 123 122 132
3 120 119 128
3 128 127 126
3 126 129 120
3 132 122 129
3 120 128 126
3 131 130 238
3 121 123 132
3 132 238 130
3 135 140 133
3 239 144 139
3 139 140 239
3 138 134 133
3 137 136 142
3 141 145 240
3 240 142 141
3 146 141 139
3 139 141 136
3 137 142 146
3 240 145 146
3 146 143 135
3 144 239 143
3 135 134 138
3 239 140 143
3 240 146 142
3 138 137 135
3 140 135 143
3 162 155 149
3 149 151 147
3 147 153 148
3 161 148 153
3 162 149 148
3 149 160 150
3 152 161 153
3 155 162 156
3 159 150 160
3 160 157 156
3 156 158 160
3 152 154 158
3 159 158 154
3 159 154 153
3 159 147 151
3 157 160 149
3 152 158 148
3 158 156 162
3 163 169 164
3 166 174 167
3 167 175 170
3 170 172 169
3 164 169 172
3 178 168 169
3 167 170 169
3 170 176 171
3 168 178 173
3 174 177 175
3 176 170 175
3 163 173 178
3 165 164 172
3 174 166 163
3 173 163 166
3 165 171 163
3 176 177 174
3 174 163 176
3 179 198 180
3 182 241 183
3 185 199 186
3 188 196 189
3 191 181 180
3 193 241 182
3 189 196 184
3 195 242 193
3 184 196 191
3 188 199 196
3 185 179 196
3 181 191 179
3 195 194 184
3 182 184 194
3 199 185 196
3 191 195 184
3 186 190 189
3 189 183 192
3 241 193 183
3 242 197 193
3 192 180 198
3 198 187 186
3 186 189 198
3 193 197 183
3 192 198 189
3 197 242 195
3 195 191 197
3 198 179 185
3 188 190 186
3 200 204 201
3 200 218 203
3 207 212 214
3 214 205 207
3 217 212 207
3 207 206 243
3 243 211 217
3 210 201 203
3 204 203 201
3 217 207 243
3 211 203 217
3 201 210 208
3 212 217 213
3 209 210 211
3 211 243 216
3 217 203 218
3 216 243 206
3 214 213 205
3 218 200 202
3 202 209 218
3 215 216 213
3 205 213 216
3 218 209 215
3 221 230 232
3 232 219 221
3 224 244 234
3 234 222 224
3 220 219 225
3 221 220 226
3 226 229 228
3 244 224 229
3 223 227 224
3 228 230 221
3 221 226 228
3 224 227 229
3 230 228 231
3 225 235 229
3 231 228 227
3 234 244 229
3 222 233 227
3 233 222 234
3 234 235 233
3 225 219 232
3 232 231 225
3 233 235 225
