ply
format ascii 1.0
comment Created by Blender 2.77 (sub 0) - www.blender.org, source file: 'Fountain0-Colliders.blend'
element vertex 391
property float x
property float y
property float z
property float nx
property float ny
property float nz
element face 746
property list uchar uint vertex_indices
end_header
3.078610 1.349876 4.703012 -0.778466 0.048952 -0.625721
3.090714 1.386156 4.695825 -0.706992 0.261452 -0.657063
3.102084 1.371576 4.686245 -0.558123 0.046876 -0.828425
3.419552 1.106159 5.217376 0.131077 -0.303629 0.943724
3.444327 1.114599 5.209406 0.495346 -0.267037 0.826624
3.401784 1.348772 5.238410 -0.268349 0.125553 0.955077
3.404029 1.086289 5.210419 -0.259011 -0.442976 0.858272
3.155827 1.018661 4.880500 -0.562639 -0.713218 0.417982
3.155759 1.029227 4.880514 -0.835566 -0.004089 0.549364
3.457489 1.500912 5.140881 0.106632 0.854396 -0.508499
3.402881 1.487723 5.140915 -0.478378 0.381970 -0.790704
3.409363 1.500883 5.151597 -0.272622 0.850520 -0.449690
3.154338 1.386253 4.657689 -0.249947 0.264290 -0.931455
3.179343 1.350136 4.650381 0.481643 0.190435 -0.855403
3.166743 1.350007 4.650179 -0.181738 0.052858 -0.981903
3.155725 1.225430 4.880884 -0.838710 0.063967 0.540757
3.150148 1.029244 4.871518 -0.848476 -0.003662 0.529191
3.077119 1.209722 4.754836 -0.848598 -0.001038 0.529008
3.071538 1.029472 4.745477 -0.981506 -0.008484 0.191229
-3.212895 1.029455 4.676099 -0.882534 -0.003632 -0.470199
-3.207912 1.018918 4.666884 -0.258583 -0.604846 -0.753136
-3.282698 1.018661 4.807248 -0.643300 -0.713218 -0.278268
3.092994 1.349905 4.747616 -0.824427 0.252235 0.506607
3.413446 1.383705 5.231483 -0.145970 0.536454 0.831172
3.107614 1.393707 4.738943 -0.608417 0.697256 0.378948
3.290679 1.225622 4.796711 0.866817 0.080081 -0.492141
3.199393 1.350072 4.683825 0.829829 0.270302 -0.488113
3.486653 1.348909 5.187532 0.967864 0.132359 0.213691
3.474203 1.505485 5.183343 0.096652 0.993805 -0.054506
3.502588 1.500769 5.216077 0.502548 0.852748 0.142308
3.496250 1.500860 5.170437 0.444502 0.857845 -0.257881
3.478145 1.487484 5.266411 0.472091 0.381329 0.794794
3.515440 1.487586 5.218767 0.890072 0.388897 0.237587
3.122175 1.401552 4.676996 -0.478256 0.374248 -0.794458
3.121083 1.380869 4.674881 -0.513047 0.072085 -0.855281
3.290682 1.204415 4.796669 0.876614 -0.003784 -0.481155
3.478035 1.505430 5.210899 0.110172 0.993316 0.034211
3.471697 1.500685 5.255538 0.270180 0.847987 0.455885
-3.351945 1.487695 5.253623 0.798669 0.392621 0.455977
-3.225275 -0.036298 5.159859 0.800928 -0.552812 -0.229835
-3.344440 1.487759 5.195262 0.877804 0.391308 -0.276254
3.423894 1.057861 5.175170 0.236244 -0.887906 0.394665
3.290780 1.018853 4.796329 0.641469 -0.701804 -0.309763
3.448740 1.065179 5.166233 0.619190 -0.760918 0.193793
3.463530 1.106230 5.191003 0.773553 -0.297891 0.559313
3.464942 1.086394 5.173882 0.885800 -0.432936 0.166936
3.474725 1.311601 5.194607 0.541002 -0.015534 0.840877
3.199227 1.072100 4.659831 -0.306467 -0.070498 -0.949248
3.154356 1.311277 4.657526 -0.398968 -0.075106 -0.913877
3.102095 1.326310 4.686147 -0.554247 -0.044893 -0.831111
3.140503 1.326374 4.663123 -0.473739 -0.046632 -0.879421
3.122200 1.297926 4.676773 -0.515885 -0.099857 -0.850795
3.147979 1.349754 4.658686 -0.452467 0.002564 -0.891751
3.071661 1.018918 4.745551 -0.781549 -0.604846 -0.152593
3.090732 1.311180 4.695663 -0.621448 -0.082553 -0.779046
3.421756 1.505499 5.171972 -0.059999 0.993439 -0.097201
3.407822 1.505394 5.223155 -0.096164 0.993469 0.061098
3.430110 1.505365 5.239638 -0.025086 0.993103 0.114444
3.443769 1.298750 5.213140 0.514054 -0.010315 0.857692
3.402887 1.505451 5.194247 -0.110813 0.993347 -0.030305
3.386277 1.500709 5.236382 -0.440443 0.855342 0.272622
3.072945 1.349969 4.714171 -0.983032 0.181707 0.024934
3.071508 1.209739 4.745839 -0.957121 -0.000610 0.289621
3.071549 1.225687 4.745930 -0.959197 0.042329 0.279458
3.378110 1.500803 5.188488 -0.502548 0.853114 -0.139927
3.125543 1.412368 4.682762 -0.231147 0.897122 -0.376446
3.087555 1.393770 4.705493 -0.778008 0.626362 -0.048189
-3.442133 1.487628 5.141004 -0.236305 0.389264 -0.890286
-3.384697 1.487723 5.151411 0.445570 0.381970 -0.809656
-3.471843 -0.036630 5.022917 -0.227088 -0.554155 -0.800806
3.375015 1.487513 5.243277 -0.784570 0.388714 0.483016
3.419602 1.487455 5.276247 -0.216926 0.386883 0.896207
3.282299 1.209700 4.783225 0.848476 0.001556 -0.529221
3.206614 1.019109 4.661380 0.209479 -0.601794 -0.770653
3.206532 1.209931 4.661717 0.314005 0.002533 -0.949400
3.460985 1.487759 5.127977 0.199622 0.391278 -0.898343
3.507775 1.487695 5.163658 0.794244 0.392590 -0.463698
3.459384 1.505379 5.234715 0.059664 0.992920 0.102390
3.140492 1.371629 4.663220 -0.469924 0.051454 -0.881191
3.450804 1.505517 5.165499 0.022095 0.993561 -0.110904
3.150117 1.209500 4.871880 -0.848201 -0.000946 0.529618
3.184417 1.393822 4.692893 0.614795 0.704611 -0.354259
3.145591 1.412304 4.716207 0.002075 0.999878 0.013489
3.206562 1.029675 4.661355 0.535874 0.000641 -0.844264
3.206502 1.225878 4.661758 0.665914 0.041932 -0.744835
3.248029 -0.036630 5.152138 -0.807092 -0.554155 -0.203711
3.634980 -0.036759 5.248961 0.807276 -0.554613 0.201666
3.393086 -0.037091 5.394028 -0.201239 -0.555925 0.806482
3.423209 1.500660 5.263683 -0.117924 0.851466 0.510941
3.164368 1.393897 4.659448 0.318308 0.632618 -0.705985
-3.428528 1.065108 5.178886 -0.615284 -0.759056 0.212531
-3.444316 1.086289 5.187157 -0.872799 -0.442976 0.204810
-3.403857 1.057861 5.186736 -0.223670 -0.887906 0.401929
-3.199033 1.349905 4.686392 -0.850948 0.252205 -0.460677
-3.457850 1.383705 5.205845 -0.792810 0.536454 0.289163
-3.184213 1.393707 4.694715 -0.632405 0.697256 -0.337413
-3.397751 1.106230 5.228978 -0.097598 -0.297861 0.949583
-3.382218 1.086394 5.221641 0.298837 -0.432600 0.850612
-3.383183 1.348910 5.247268 0.299295 0.131932 0.944975
-3.423289 1.114599 5.221550 -0.468184 -0.267006 0.842280
-3.395274 1.311601 5.240476 -0.457717 -0.015534 0.888943
-3.090589 1.350073 4.746640 0.837642 0.270302 0.474593
-3.142710 1.225622 4.882139 0.855922 0.075076 0.511612
-3.071651 1.350136 4.712555 0.981628 0.190435 -0.010559
-3.067925 1.225878 4.741763 0.978057 0.041749 0.204047
-3.072860 1.209914 4.751127 0.883023 0.001831 0.469283
-3.137644 1.156717 4.872833 0.882534 0.001343 0.470199
-3.277992 1.145923 4.797995 -0.882534 -0.001129 -0.470199
-3.208238 1.209740 4.666896 -0.703024 -0.000458 -0.711142
3.489910 -0.036298 5.007075 0.201392 -0.552812 -0.808557
-3.383694 1.065179 5.203785 0.141728 -0.760918 0.633168
-3.142328 1.018853 4.882037 0.589007 -0.701804 0.400616
-3.067541 1.019109 4.741671 0.772149 -0.601794 -0.203894
-3.208297 1.225687 4.666976 -0.721580 0.042329 -0.691031
-3.283081 1.225430 4.807352 -0.887631 0.063875 -0.456038
-3.469680 1.348772 5.199208 -0.961303 0.125553 0.245125
-3.282744 1.029227 4.807197 -0.893521 -0.004059 -0.448958
-3.207909 1.029473 4.666740 -0.655843 -0.008576 -0.754814
3.474708 1.383799 5.194764 0.797082 0.542039 0.266030
-3.078604 1.349876 -4.703014 0.778497 0.048982 0.625721
-3.090708 1.386156 -4.695827 0.706992 0.261452 0.657063
-3.102078 1.371576 -4.686247 0.558123 0.046907 0.828425
-3.102089 1.326311 -4.686149 0.554247 -0.044893 0.831111
-3.122194 1.297926 -4.676774 0.515854 -0.099857 0.850795
-3.071654 1.018918 -4.745553 0.781579 -0.604846 0.152562
-3.090726 1.311180 -4.695665 0.621479 -0.082553 0.779046
-3.077144 1.029456 -4.754476 0.848476 -0.003601 -0.529191
-3.071532 1.029473 -4.745479 0.981445 -0.008454 -0.191412
-3.457484 1.500913 -5.140883 -0.106632 0.854396 0.508499
-3.402875 1.487723 -5.140917 0.478378 0.381970 0.790704
-3.409358 1.500883 -5.151599 0.272622 0.850551 0.449660
-3.154332 1.386254 -4.657691 0.249977 0.264290 0.931455
-3.179338 1.350136 -4.650383 -0.481643 0.190435 0.855403
-3.166737 1.350007 -4.650181 0.181738 0.052858 0.981903
-3.474702 1.383799 -5.194765 -0.797113 0.542070 -0.265999
-3.145586 1.412304 -4.716209 -0.002075 0.999878 -0.013489
-3.443739 1.398538 -5.213361 -0.325602 0.768456 -0.550859
3.208213 1.156765 -4.666994 0.889370 -0.001190 0.457137
3.208297 1.225687 -4.666974 0.721580 0.042268 0.691031
3.207911 1.029473 -4.666739 0.656362 -0.008515 0.754387
-3.413440 1.383705 -5.231485 0.146001 0.536485 -0.831172
-3.107608 1.393707 -4.738944 0.608417 0.697256 -0.378979
-3.287905 1.209683 -4.792222 -0.848872 0.001434 0.528550
-3.290673 1.225622 -4.796713 -0.866817 0.080111 0.492141
-3.290676 1.204416 -4.796671 -0.872463 0.001282 0.488632
3.487281 1.487513 -5.178458 0.810602 0.388714 0.437910
3.471845 -0.036630 -5.022914 0.227088 -0.554155 0.800806
3.608799 -0.037091 -5.269482 0.799036 -0.555925 -0.228950
-3.474197 1.505485 -5.183344 -0.096652 0.993805 0.054506
-3.502583 1.500769 -5.216079 -0.502548 0.852748 -0.142308
-3.496243 1.500860 -5.170439 -0.444472 0.857845 0.257881
-3.478140 1.487484 -5.266412 -0.472060 0.381329 -0.794794
-3.515435 1.487586 -5.218768 -0.890072 0.388928 -0.237587
-3.122169 1.401553 -4.676999 0.478256 0.374248 0.794458
-3.121078 1.380870 -4.674882 0.513016 0.072115 0.855312
-3.071543 1.225687 -4.745931 0.959197 0.042329 -0.279458
-3.092989 1.349906 -4.747618 0.824427 0.252235 -0.506607
-3.072939 1.349969 -4.714173 0.983032 0.181707 -0.024964
-3.478029 1.505430 -5.210900 -0.110172 0.993316 -0.034181
-3.471692 1.500685 -5.255539 -0.270180 0.847987 -0.455916
-3.071502 1.209740 -4.745841 0.967376 -0.000458 -0.253243
-3.464936 1.086394 -5.173884 -0.883114 -0.435957 -0.173315
-3.448735 1.065179 -5.166234 -0.619221 -0.760888 -0.193793
-3.290775 1.018853 -4.796330 -0.636006 -0.704947 0.313822
-3.290773 1.029461 -4.796352 -0.755150 0.001495 0.655507
-3.150141 1.029244 -4.871520 0.848445 -0.003693 -0.529221
-3.147973 1.349754 -4.658688 0.452406 0.002564 0.891781
3.180096 1.349969 -4.652304 0.513108 0.181707 0.838832
3.199035 1.349905 -4.686389 0.850948 0.252235 0.460677
-3.421750 1.505499 -5.171974 0.059999 0.993439 0.097201
-3.407817 1.505394 -5.223156 0.096164 0.993469 -0.061098
-3.430106 1.505365 -5.239639 0.025086 0.993103 -0.114444
-3.486647 1.348910 -5.187534 -0.966857 0.135716 -0.216132
-3.401778 1.348772 -5.238412 0.268349 0.125553 -0.955077
-3.443764 1.298750 -5.213141 -0.514054 -0.010315 -0.857662
-3.423888 1.057862 -5.175172 -0.236244 -0.887906 -0.394665
-3.402882 1.505451 -5.194250 0.110813 0.993347 0.030274
-3.386271 1.500709 -5.236383 0.440443 0.855342 -0.272622
-3.206496 1.225879 -4.661760 -0.667562 0.042421 0.743309
-3.199387 1.350073 -4.683826 -0.829829 0.270302 0.488113
-3.140497 1.326374 -4.663125 0.473739 -0.046632 0.879421
-3.154350 1.311278 -4.657528 0.398938 -0.075106 0.913877
-3.206526 1.209931 -4.661719 -0.651021 0.002136 0.759026
-3.206557 1.029675 -4.661358 -0.528611 0.000702 0.848842
-3.378103 1.500804 -5.188489 0.502579 0.853114 0.139927
-3.125537 1.412368 -4.682765 0.231147 0.897122 0.376415
-3.087548 1.393770 -4.705495 0.778008 0.626362 0.048189
-3.199222 1.072101 -4.659833 0.306986 -0.070498 0.949065
-3.375010 1.487513 -5.243279 0.784570 0.388714 -0.483016
-3.419597 1.487455 -5.276248 0.216926 0.386883 -0.896207
-3.460980 1.487759 -5.127979 -0.199622 0.391278 0.898343
-3.507771 1.487695 -5.163660 -0.794214 0.392621 0.463668
-3.459379 1.505380 -5.234716 -0.059664 0.992920 -0.102390
-3.140486 1.371629 -4.663222 0.469924 0.051454 0.881191
3.426804 1.298750 -5.222932 0.485733 -0.010315 -0.874020
3.457709 1.311517 -5.205780 0.516923 -0.017121 -0.855831
3.423291 1.114599 -5.221547 0.468184 -0.267006 -0.842280
-3.206608 1.019110 -4.661382 -0.209510 -0.601794 0.770653
3.395276 1.311601 -5.240473 0.457656 -0.015534 -0.888974
3.455749 1.487484 -5.279337 0.452254 0.381329 -0.806238
3.362220 -0.036759 -5.406435 -0.228980 -0.554613 -0.799951
3.395841 1.487586 -5.287813 -0.239265 0.388897 -0.889645
3.403859 1.057862 -5.186733 0.223670 -0.887906 -0.401929
3.142329 1.018853 -4.882033 -0.589740 -0.704978 -0.393902
3.383696 1.065179 -5.203783 -0.141728 -0.760918 -0.633168
-3.450798 1.505517 -5.165501 -0.022095 0.993561 0.110874
-3.184412 1.393823 -4.692895 -0.614765 0.704611 0.354259
3.283083 1.225430 -4.807348 0.887570 0.064241 0.456099
3.493539 1.487455 -5.233555 0.884610 0.386883 -0.260231
3.457851 1.383705 -5.205842 0.792810 0.536454 -0.289163
3.184214 1.393707 -4.694713 0.632405 0.697256 0.337413
3.142711 1.225622 -4.882137 -0.859584 0.080081 -0.504624
3.090591 1.350073 -4.746638 -0.837642 0.270302 -0.474593
3.383184 1.348910 -5.247266 -0.296243 0.135716 -0.945402
3.142673 1.204416 -4.882118 -0.859310 0.001282 -0.511399
3.397753 1.106230 -5.228974 0.097598 -0.297861 -0.949583
3.382219 1.086394 -5.221639 -0.291421 -0.435957 -0.851436
3.142349 1.029461 -4.882042 -0.859828 0.001190 -0.510575
3.140205 1.209683 -4.877494 -0.882107 0.001404 -0.471023
3.213225 1.209723 -4.676251 0.882412 -0.001068 0.470412
3.067876 1.209931 -4.741766 -0.961425 0.002380 0.274972
3.072862 1.209914 -4.751124 -0.882504 0.002075 -0.470229
3.067543 1.019109 -4.741668 -0.772179 -0.601733 0.203986
-3.463523 1.106230 -5.191004 -0.773553 -0.297861 -0.559343
3.067926 1.225878 -4.741762 -0.978057 0.041902 -0.204016
-3.474720 1.311601 -5.194608 -0.540971 -0.015534 -0.840877
-3.444322 1.114599 -5.209407 -0.495346 -0.267037 -0.826594
3.071653 1.350136 -4.712553 -0.981628 0.190466 0.010498
3.077778 1.350007 -4.701539 -0.759514 0.052889 0.648305
3.069895 1.072101 -4.734497 -0.668294 -0.070528 0.740501
3.090334 1.311278 -4.694486 -0.591968 -0.075106 0.802423
3.102108 1.326374 -4.685287 -0.524705 -0.046632 0.849971
3.123080 1.297926 -4.676260 -0.478866 -0.099857 0.872158
3.207914 1.018918 -4.666882 0.258614 -0.604846 0.753136
3.141251 1.326311 -4.663537 -0.442640 -0.044893 0.895535
3.155174 1.311180 -4.658453 -0.363903 -0.082553 0.927732
3.167599 1.349876 -4.651630 -0.152623 0.048952 0.987060
-3.413456 1.311518 -5.231331 -0.482650 -0.017121 -0.875607
3.277761 1.029244 -4.797837 0.882534 -0.003693 0.470168
-3.248024 -0.036630 -5.152139 0.807092 -0.554155 0.203711
-3.634974 -0.036758 -5.248962 -0.807276 -0.554613 -0.201666
-3.393080 -0.037091 -5.394029 0.201239 -0.555925 -0.806482
3.283074 1.209483 -4.807348 0.892972 -0.000885 0.450026
3.282745 1.029227 -4.807194 0.893551 -0.004120 0.448897
-3.423203 1.500661 -5.263685 0.117924 0.851466 -0.510910
-3.404023 1.086289 -5.210421 0.259011 -0.442976 -0.858272
3.469681 1.348772 -5.199206 0.961303 0.125553 -0.245125
3.208239 1.209740 -4.666893 0.729148 -0.000610 0.684347
3.145535 1.412304 -4.716236 0.010620 0.999878 -0.008545
3.427006 1.398538 -5.223020 0.314249 0.768426 -0.557421
-3.164362 1.393897 -4.659450 -0.318308 0.632618 0.705985
3.442580 1.106159 -5.204076 0.751762 -0.303629 -0.585345
3.444317 1.086289 -5.187154 0.872799 -0.442976 -0.204810
3.442135 1.487628 -5.141001 0.236274 0.389264 0.890286
3.384699 1.487723 -5.151409 -0.445570 0.381970 0.809626
3.282700 1.018661 -4.807247 0.643300 -0.713218 0.278237
3.428530 1.065108 -5.178885 0.615314 -0.759056 -0.212561
-3.489904 -0.036298 -5.007077 -0.201392 -0.552812 0.808557
3.351947 1.487695 -5.253621 -0.798669 0.392621 -0.455977
3.225277 -0.036298 -5.159858 -0.800958 -0.552812 0.229835
3.344442 1.487759 -5.195260 -0.877804 0.391278 0.276254
3.155324 1.386156 -4.658519 -0.215522 0.261452 0.940825
3.141342 1.371576 -4.663576 -0.438368 0.046876 0.897549
3.404760 1.065108 5.192612 -0.123569 -0.759056 0.639149
3.357366 1.500913 -5.198684 -0.493728 0.854396 0.161870
3.390709 1.500883 -5.162364 -0.253121 0.850551 0.460952
3.090484 1.386254 -4.694551 -0.681692 0.264290 0.682211
-3.455747 1.487484 5.279339 -0.452254 0.381329 0.806238
-3.493538 1.487455 5.233558 -0.884640 0.386883 0.260201
-3.608796 -0.037091 5.269485 -0.799036 -0.555925 0.228950
-3.487278 1.487513 5.178460 -0.810602 0.388714 -0.437941
3.385782 1.505485 -5.234389 -0.095553 0.993805 -0.056429
3.399937 1.500769 -5.275338 -0.128025 0.852718 -0.506363
3.363581 1.500860 -5.247028 -0.445570 0.857845 -0.255959
3.123287 1.401553 -4.676350 -0.448866 0.374279 0.811426
3.122000 1.380869 -4.674348 -0.484176 0.072085 0.871975
3.407730 1.505430 -5.251485 -0.025452 0.993316 -0.112522
3.449557 1.500685 -5.268316 0.259713 0.848018 -0.461959
-3.362218 -0.036759 5.406438 0.228980 -0.554613 0.799951
-3.395839 1.487586 5.287816 0.239265 0.388897 0.889645
3.287910 1.209683 4.792220 0.848872 0.001434 -0.528550
3.094527 1.349754 -4.689543 -0.546068 0.002564 0.837703
3.402158 1.505499 -5.183283 -0.054170 0.993439 0.100589
3.453451 1.505394 -5.196807 0.100986 0.993469 0.052705
3.456580 1.505365 -5.224351 0.111637 0.993103 -0.035493
3.430883 1.505451 -5.178080 0.029145 0.993347 0.111118
3.475678 1.500709 -5.184762 0.456343 0.855342 0.245125
3.438284 1.500804 -5.153741 0.130070 0.853114 0.505203
3.126596 1.412368 -4.682151 -0.210395 0.897122 0.388379
3.165276 1.393770 -4.660617 0.347240 0.626362 0.697897
3.413462 1.311517 5.231329 0.482711 -0.017121 0.875576
3.437680 1.505380 -5.247241 0.058840 0.992920 -0.102878
3.102197 1.371629 -4.685326 -0.528123 0.051424 0.847591
3.382028 1.505517 -5.205202 -0.107089 0.993561 0.036287
3.443744 1.398538 5.213359 0.325602 0.768456 0.550829
3.105932 1.393823 -4.738202 -0.614215 0.704611 -0.355266
3.480856 1.500661 -5.230397 0.501450 0.851466 -0.153325
3.086993 1.393897 -4.704117 -0.770562 0.632618 0.077303
3.365149 1.487627 5.185452 -0.889157 0.389264 -0.240486
3.395419 1.383799 -5.240537 -0.168187 0.542039 -0.823298
-3.167598 1.349876 4.651632 0.152623 0.048952 -0.987060
-3.155322 1.386156 4.658522 0.215552 0.261452 -0.940825
-3.141341 1.371576 4.663579 0.438368 0.046907 -0.897549
-3.145534 1.412304 4.716238 -0.010651 0.999878 0.008545
-3.395418 1.383799 5.240539 0.168157 0.542070 0.823298
-3.105931 1.393822 4.738205 0.614185 0.704642 0.355266
-3.077777 1.350007 4.701542 0.759484 0.052858 -0.648335
-3.069894 1.072101 4.734499 0.668355 -0.070528 -0.740471
-3.090333 1.311278 4.694489 0.591968 -0.075106 -0.802423
-3.102106 1.326374 4.685288 0.524735 -0.046632 -0.849971
-3.123079 1.297926 4.676262 0.478866 -0.099857 -0.872158
-3.141249 1.326310 4.663538 0.442640 -0.044893 -0.895535
-3.180094 1.349969 4.652307 -0.513138 0.181707 -0.838832
-3.357364 1.500912 5.198687 0.493698 0.854396 -0.161870
-3.390707 1.500883 5.162366 0.253121 0.850551 -0.460952
-3.090483 1.386254 4.694553 0.681692 0.264321 -0.682211
-3.385780 1.505485 5.234392 0.095553 0.993805 0.056429
-3.399936 1.500769 5.275341 0.128025 0.852718 0.506363
-3.363580 1.500860 5.247031 0.445570 0.857845 0.255989
-3.123286 1.401552 4.676353 0.448866 0.374248 -0.811426
-3.121999 1.380869 4.674350 0.484146 0.072115 -0.872005
-3.407728 1.505430 5.251488 0.025452 0.993316 0.112522
-3.449555 1.500685 5.268319 -0.259713 0.848018 0.461959
-3.442579 1.106159 5.204078 -0.751762 -0.303598 0.585345
-3.426802 1.298750 5.222934 -0.485733 -0.010315 0.874020
-3.457708 1.311517 5.205782 -0.517014 -0.017121 0.855800
-3.094526 1.349754 4.689545 0.546068 0.002594 -0.837733
-3.402157 1.505499 5.183285 0.054170 0.993439 -0.100589
-3.453449 1.505394 5.196810 -0.100986 0.993469 -0.052736
-3.456579 1.505365 5.224353 -0.111637 0.993103 0.035493
-3.430882 1.505451 5.178083 -0.029145 0.993347 -0.111118
-3.475676 1.500709 5.184765 -0.456343 0.855342 -0.245125
-3.067886 1.204672 4.741745 0.983062 0.001770 0.183172
-3.067546 1.029675 4.741614 0.998993 0.000732 0.044313
-3.438282 1.500804 5.153745 -0.130070 0.853114 -0.505173
-3.126595 1.412367 4.682153 0.210425 0.897122 -0.388409
-3.165274 1.393770 4.660620 -0.347240 0.626362 -0.697897
-3.437679 1.505379 5.247244 -0.058840 0.992920 0.102878
-3.102196 1.371629 4.685328 0.528153 0.051454 -0.847560
-3.382027 1.505517 5.205205 0.107089 0.993561 -0.036287
-3.155172 1.311180 4.658456 0.363933 -0.082553 -0.927732
-3.480854 1.500660 5.230400 -0.501450 0.851466 0.153325
-3.086991 1.393897 4.704121 0.770562 0.632618 -0.077303
-0.013370 0.965309 -0.369921 -0.118748 -0.009766 -0.992859
0.024066 1.002744 -0.369921 0.254646 0.187384 -0.948668
0.024066 0.965309 -0.369921 0.047914 -0.008057 -0.998810
-0.013370 1.002744 -0.369921 -0.121250 0.107852 -0.986724
0.024066 1.002744 0.378795 0.274789 0.218726 0.936277
-0.013370 0.965309 0.378795 -0.133457 -0.012482 0.990966
0.024066 0.965309 0.378795 0.063631 -0.010743 0.997894
-0.013370 1.002744 0.378795 -0.152654 0.144230 0.977691
0.288861 0.581160 -0.100204 0.953093 0.275185 -0.126011
0.414194 0.038283 0.012103 0.960021 -0.166478 0.225013
0.422615 0.001807 -0.100204 0.844234 -0.509568 -0.166112
0.297137 0.545313 0.012103 0.960143 0.259316 0.104068
-0.247317 0.615895 0.256214 -0.852046 0.172704 0.494095
-0.288740 0.533283 0.176668 -0.969695 0.138676 0.201086
-0.268236 0.009683 0.305745 -0.630390 -0.495987 0.597125
-0.054022 1.096247 -0.343181 -0.060427 0.802545 -0.593463
0.064718 1.096247 0.268309 0.266549 0.963805 0.000000
0.064718 1.096247 -0.305745 0.164892 0.939421 -0.300424
-0.268236 0.009683 -0.305745 -0.626209 -0.493759 -0.603320
-0.232076 -0.000006 -0.305745 -0.115513 -0.810785 -0.573809
-0.299486 0.000000 0.000000 -0.719291 -0.694632 0.005615
0.242772 -0.000006 0.343181 0.052980 -0.723624 0.688131
-0.232076 -0.000006 0.305745 -0.115513 -0.810755 0.573809
-0.090183 1.086558 -0.343181 -0.580828 0.593524 -0.557054
-0.305667 0.485952 -0.135302 -0.956084 0.150456 -0.251503
-0.311194 0.485952 -0.035794 -0.987945 0.154515 0.008698
-0.260669 0.624429 0.184190 -0.945524 0.308603 0.103397
-0.090183 1.086558 0.305745 -0.680898 0.732322 0.005432
0.401772 -0.003005 -0.100204 0.144963 -0.988983 -0.029115
0.278932 0.009683 -0.343181 0.513016 -0.446547 -0.733055
-0.090183 1.086558 0.343181 -0.595813 0.602649 0.530808
-0.054022 1.096247 0.343181 -0.064791 0.824061 0.562731
0.100878 1.086558 -0.305745 0.632618 0.633381 -0.445601
0.064718 1.096247 0.305745 0.164892 0.939421 0.300424
0.100878 1.086558 0.305745 0.640461 0.637074 0.428785
0.278932 0.009683 0.343181 0.564776 -0.460829 0.684561
0.242772 -0.000006 -0.343181 0.037172 -0.714866 -0.698233
-0.311193 0.464560 -0.035794 -0.999634 -0.011658 0.023408
-0.305667 0.464560 -0.135302 -0.991302 -0.010498 -0.131016
-3.155753 1.029227 -4.880516 0.835536 -0.004120 -0.549394
-3.155821 1.018662 -4.880501 0.562578 -0.713248 -0.417982
-3.404755 1.065108 -5.192613 0.123508 -0.759087 -0.639149
-3.365144 1.487628 -5.185454 0.889157 0.389264 0.240486
-3.155720 1.225431 -4.880885 0.838771 0.063875 -0.540696
3.208193 1.146162 -4.666985 0.888730 -0.001251 0.458357
-3.419546 1.106159 -5.217377 -0.131046 -0.303629 -0.943724
0.275186 0.485952 -0.201010 0.877865 0.176733 -0.445051
-3.427004 1.398538 5.223022 -0.314249 0.768426 0.557421
3 0 1 2
3 3 4 5
3 6 3 5
3 7 6 5
3 8 7 5
3 9 10 11
3 12 13 14
3 15 8 5
3 16 17 18
3 19 20 21
3 22 23 24
3 25 26 27
3 28 29 30
3 29 31 32
3 2 33 34
3 35 25 27
3 36 37 29
3 38 39 40
3 41 42 43
3 44 45 27
3 4 44 27
3 46 4 27
3 14 47 48
3 49 50 51
3 2 52 49
3 49 51 53
3 54 49 53
3 55 56 57
3 27 5 58
3 0 54 53
3 59 60 56
3 61 0 53
3 61 53 18
3 50 14 48
3 62 61 18
3 18 17 63
3 32 30 29
3 59 11 64
3 65 1 66
3 62 18 63
3 61 62 63
3 67 68 69
3 64 70 60
3 71 60 70
3 72 73 74
3 75 30 76
3 57 37 77
3 78 33 12
3 42 53 73
3 11 79 9
3 63 17 80
3 81 65 82
3 28 9 79
3 83 13 84
3 74 83 84
3 74 84 72
3 35 45 42
3 83 74 73
3 13 83 73
3 85 86 87
3 88 56 60
3 4 6 41
3 14 13 73
3 65 24 82
3 89 26 13
3 22 66 61
3 90 91 21
3 14 78 12
3 12 65 89
3 90 21 92
3 47 14 73
3 93 94 95
3 96 97 98
3 99 96 98
3 100 99 98
3 101 98 102
3 103 101 102
3 31 88 71
3 10 64 11
3 104 103 102
3 105 104 102
3 105 102 106
3 19 107 108
3 10 109 85
3 97 110 111
3 92 111 110
3 106 102 111
3 106 112 105
3 93 113 114
3 61 1 0
3 115 116 21
3 19 117 20
3 118 26 81
3 119 120 121
3 122 123 124
3 125 122 124
3 126 127 124
3 125 124 119
3 128 129 130
3 131 132 133
3 134 135 136
3 137 138 139
3 140 135 141
3 142 143 144
3 145 146 147
3 148 149 150
3 149 151 152
3 121 153 154
3 155 156 157
3 158 159 149
3 160 155 157
3 161 162 163
3 144 164 163
3 127 160 157
3 124 127 157
3 142 144 163
3 165 160 126
3 121 166 122
3 119 124 157
3 167 138 168
3 169 170 171
3 172 173 174
3 175 163 162
3 176 177 170
3 143 178 132
3 179 143 132
3 180 133 181
3 182 183 132
3 178 182 132
3 152 150 149
3 176 130 184
3 185 120 186
3 133 187 181
3 143 179 172
3 144 143 172
3 184 188 177
3 189 177 188
3 164 144 172
3 190 150 191
3 171 159 192
3 193 153 131
3 194 195 196
3 163 124 197
3 198 194 196
3 199 200 201
3 202 203 204
3 130 205 128
3 163 164 172
3 206 185 135
3 168 138 207
3 148 128 205
3 208 145 147
3 161 163 172
3 168 209 210
3 211 212 213
3 214 211 213
3 215 216 213
3 196 215 213
3 198 196 213
3 214 213 217
3 218 214 217
3 51 50 73
3 219 207 138
3 220 221 222
3 223 161 172
3 224 220 222
3 225 174 226
3 227 224 222
3 228 227 222
3 229 228 222
3 230 229 222
3 231 230 222
3 232 231 222
3 232 222 233
3 234 232 233
3 235 234 233
3 172 225 226
3 236 235 233
3 223 172 226
3 174 237 226
3 167 236 233
3 139 167 233
3 139 233 238
3 70 85 87
3 239 240 241
3 217 221 218
3 242 238 243
3 244 170 177
3 226 245 175
3 168 207 246
3 199 208 147
3 138 247 139
3 248 209 249
3 185 141 135
3 250 179 132
3 196 195 246
3 156 186 157
3 251 196 246
3 242 243 246
3 133 193 131
3 131 185 250
3 207 242 246
3 140 156 173
3 251 246 252
3 222 217 203
3 253 254 146
3 216 204 203
3 213 216 203
3 217 213 203
3 238 233 255
3 151 244 189
3 129 184 130
3 243 238 255
3 246 243 255
3 31 71 87
3 219 238 242
3 252 246 255
3 256 252 255
3 129 257 239
3 211 214 218
3 71 70 87
3 202 256 255
3 211 221 224
3 258 259 260
3 221 220 224
3 211 224 227
3 212 211 227
3 228 229 230
3 157 120 119
3 231 232 234
3 247 138 167
3 247 167 139
3 179 134 172
3 236 261 262
3 18 53 7
3 16 18 7
3 263 6 7
3 264 254 265
3 266 227 228
3 41 263 7
3 16 7 8
3 267 268 269
3 270 69 269
3 16 8 15
3 271 272 273
3 272 199 201
3 262 274 275
3 80 16 15
3 276 277 272
3 91 115 21
3 82 118 81
3 267 278 279
3 13 26 25
3 84 13 25
3 72 84 25
3 280 72 25
3 262 281 234
3 280 25 35
3 72 280 42
3 282 283 284
3 213 246 194
3 116 19 21
3 285 286 283
3 268 270 269
3 63 15 22
3 231 228 230
3 280 35 42
3 43 42 45
3 201 273 272
3 285 265 287
3 288 261 289
3 4 46 58
3 4 58 290
3 22 15 5
3 287 145 286
3 208 286 145
3 38 279 278
3 260 273 258
3 284 277 291
3 292 274 266
3 203 233 222
3 265 293 264
3 82 23 294
3 295 288 248
3 271 264 293
3 4 290 5
3 48 47 73
3 53 51 73
3 50 48 73
3 76 32 86
3 61 63 22
3 146 200 147
3 296 283 286
3 196 252 202
3 31 86 32
3 288 210 248
3 295 227 297
3 168 289 167
3 228 292 266
3 266 288 297
3 298 10 85
3 199 296 208
3 254 287 265
3 254 259 146
3 167 261 236
3 76 109 75
3 258 201 200
3 299 212 295
3 300 301 302
3 303 304 305
3 306 307 308
3 309 310 311
3 113 93 312
3 313 68 314
3 315 103 306
3 108 113 312
3 108 312 117
3 108 117 19
3 97 102 98
3 316 317 318
3 317 267 279
3 302 319 320
3 114 107 116
3 321 322 317
3 93 114 115
3 94 303 95
3 114 116 115
3 323 115 91
3 115 323 99
3 324 99 100
3 115 99 325
3 302 326 311
3 99 324 325
3 327 328 329
3 98 115 324
3 108 114 113
3 330 331 328
3 332 333 103
3 332 103 104
3 309 306 308
3 332 104 105
3 332 105 112
3 279 318 317
3 330 314 334
3 335 301 336
3 333 332 112
3 103 333 112
3 306 103 112
3 334 270 331
3 268 331 270
3 307 306 112
3 40 318 38
3 329 322 337
3 338 319 315
3 111 20 112
3 314 339 313
3 308 307 112
3 305 335 303
3 316 313 339
3 309 308 112
3 310 309 112
3 310 112 20
3 311 310 20
3 340 311 20
3 300 340 20
3 69 278 269
3 341 328 331
3 99 91 92
3 312 300 20
3 335 95 303
3 342 101 103
3 93 336 312
3 306 338 315
3 315 335 342
3 117 312 20
3 267 341 268
3 68 334 314
3 68 39 69
3 312 301 300
3 304 101 305
3 343 344 345
3 346 344 343
3 347 348 349
3 347 350 348
3 351 352 353
3 351 354 352
3 355 356 357
3 358 359 360
3 361 362 363
3 363 364 365
3 366 367 368
3 366 368 369
3 370 366 369
3 368 356 369
3 371 372 353
3 370 373 374
3 366 370 374
3 358 366 374
3 355 369 356
3 375 354 351
3 376 359 374
3 377 378 352
3 352 354 377
3 376 374 377
3 345 379 343
3 353 352 378
3 379 363 362
3 378 371 353
3 345 344 372
3 365 364 357
3 364 349 348
3 363 365 357
3 343 379 361
3 380 363 357
3 346 343 361
3 379 362 361
3 361 381 367
3 248 299 295
3 191 152 240
3 188 239 241
3 382 165 383
3 151 189 241
3 189 188 241
3 191 257 190
3 384 245 383
3 385 129 239
3 151 240 152
3 382 386 165
3 175 384 383
3 123 197 124
3 383 165 124
3 165 126 124
3 126 160 127
3 142 178 143
3 138 137 219
3 386 155 160
3 386 156 155
3 386 173 156
3 387 137 139
3 197 142 163
3 387 139 219
3 386 382 173
3 382 383 173
3 383 245 173
3 245 388 173
3 388 226 173
3 226 237 173
3 180 123 122
3 180 197 123
3 180 181 197
3 181 187 197
3 187 133 197
3 133 132 197
3 132 183 197
3 183 182 197
3 137 387 219
3 358 360 375
3 361 367 366
3 368 381 380
3 373 357 350
3 378 347 349
3 381 363 380
3 344 346 358
3 350 357 348
3 359 376 360
3 375 351 353
3 357 364 348
3 374 373 350
3 373 355 357
3 356 380 357
3 346 366 358
3 346 361 366
3 355 370 369
3 344 358 375
3 389 372 375
3 372 344 375
3 360 377 375
3 374 347 377
3 389 375 353
3 372 389 353
3 2 49 0
3 54 0 49
3 9 75 10
3 12 89 13
3 16 80 17
3 22 5 23
3 28 36 29
3 29 37 31
3 2 1 33
3 36 77 37
3 38 278 39
3 41 7 42
3 50 49 52
3 2 34 52
3 78 52 34
3 57 77 55
3 36 28 55
3 79 55 28
3 59 56 55
3 77 36 55
3 23 5 294
3 290 58 5
3 46 27 58
3 118 294 27
3 5 27 294
3 59 64 60
3 50 52 14
3 32 76 30
3 59 55 11
3 65 33 1
3 64 298 70
3 71 88 60
3 72 42 73
3 75 9 30
3 57 88 37
3 78 34 33
3 42 7 53
3 11 55 79
3 81 89 65
3 28 30 9
3 35 27 45
3 85 109 86
3 88 57 56
3 263 41 6
3 43 45 41
3 44 4 45
3 3 6 4
3 41 45 4
3 65 66 24
3 89 81 26
3 22 24 66
3 14 52 78
3 12 33 65
3 93 115 94
3 31 37 88
3 10 298 64
3 19 116 107
3 10 75 109
3 92 21 111
3 106 111 112
3 61 66 1
3 118 27 26
3 121 122 119
3 125 119 122
3 128 190 129
3 131 250 132
3 134 206 135
3 140 136 135
3 145 253 146
3 148 158 149
3 149 159 151
3 121 120 153
3 158 192 159
3 165 386 160
3 180 122 166
3 121 154 166
3 193 166 154
3 171 192 169
3 158 148 169
3 205 169 148
3 176 170 169
3 192 158 169
3 140 173 136
3 237 174 173
3 225 172 174
3 134 136 172
3 173 172 136
3 175 383 163
3 176 184 177
3 180 166 133
3 152 191 150
3 176 169 130
3 185 153 120
3 184 385 188
3 189 244 177
3 190 128 150
3 171 244 159
3 193 154 153
3 163 383 124
3 199 147 200
3 202 255 203
3 130 169 205
3 206 250 185
3 148 150 128
3 168 246 209
3 219 242 207
3 70 298 85
3 239 257 240
3 217 222 221
3 244 171 170
3 384 175 245
3 162 161 175
3 223 226 161
3 388 245 226
3 175 161 226
3 248 210 209
3 185 186 141
3 250 206 179
3 156 141 186
3 133 166 193
3 131 153 185
3 140 141 156
3 151 159 244
3 129 385 184
3 219 139 238
3 129 190 257
3 211 218 221
3 258 200 259
3 157 186 120
3 179 206 134
3 262 234 236
3 235 236 234
3 264 260 254
3 266 297 227
3 270 67 69
3 271 276 272
3 272 277 199
3 262 261 274
3 276 291 277
3 82 294 118
3 267 269 278
3 231 234 281
3 262 275 281
3 292 281 275
3 284 291 282
3 276 271 282
3 293 282 271
3 285 283 282
3 291 276 282
3 209 246 249
3 195 194 246
3 198 213 194
3 299 249 213
3 246 213 249
3 285 287 286
3 63 80 15
3 231 281 228
3 201 258 273
3 285 282 265
3 288 274 261
3 287 253 145
3 208 296 286
3 260 264 273
3 284 296 277
3 292 275 274
3 203 255 233
3 265 282 293
3 82 24 23
3 295 297 288
3 271 273 264
3 146 259 200
3 296 284 283
3 256 202 252
3 204 216 202
3 215 196 216
3 251 252 196
3 202 216 196
3 31 87 86
3 288 289 210
3 295 212 227
3 168 210 289
3 228 281 292
3 266 274 288
3 199 277 296
3 254 253 287
3 254 260 259
3 167 289 261
3 76 86 109
3 299 213 212
3 302 311 300
3 340 300 311
3 303 390 304
3 313 40 68
3 315 342 103
3 97 111 102
3 316 321 317
3 317 322 267
3 302 301 319
3 321 337 322
3 94 390 303
3 309 311 326
3 302 320 326
3 338 326 320
3 329 337 327
3 321 316 327
3 339 327 316
3 330 328 327
3 337 321 327
3 94 115 390
3 325 324 115
3 100 98 324
3 304 390 98
3 115 98 390
3 108 107 114
3 330 334 331
3 309 326 306
3 279 38 318
3 330 327 314
3 335 319 301
3 334 67 270
3 268 341 331
3 40 313 318
3 329 341 322
3 338 320 319
3 111 21 20
3 314 327 339
3 305 342 335
3 316 318 313
3 69 39 278
3 341 329 328
3 90 92 91
3 110 97 92
3 96 99 97
3 323 91 99
3 92 97 99
3 335 336 95
3 342 305 101
3 93 95 336
3 306 326 338
3 315 319 335
3 267 322 341
3 68 67 334
3 68 40 39
3 312 336 301
3 304 98 101
3 358 374 359
3 363 371 364
3 368 380 356
3 371 379 372
3 375 377 354
3 377 347 378
3 345 372 379
3 379 371 363
3 378 364 371
3 364 378 349
3 248 249 299
3 188 385 239
3 191 240 257
3 151 241 240
3 142 182 178
3 197 182 142
3 368 367 381
3 381 361 363
3 355 373 370
3 360 376 377
3 374 350 347
