ply
format ascii 1.0
comment Created by Blender 2.77 (sub 0) - www.blender.org, source file: 'Farm0_Prop1-Colliders.blend'
element vertex 8
property float x
property float y
property float z
property float nx
property float ny
property float nz
element face 12
property list uchar uint vertex_indices
end_header
-5.197939 0.692153 -1.550688 -0.522660 0.620441 0.584643
-5.222166 -0.141993 -1.574350 0.504715 -0.648549 0.569750
-5.111654 0.683084 -1.550688 0.640248 0.498215 0.584643
-5.222166 -0.141993 -1.613787 0.504715 -0.648549 -0.569750
-5.111654 0.683084 -1.637448 0.640248 0.498215 -0.584643
-5.261386 -0.137871 -1.613787 -0.628529 -0.529435 -0.569750
-5.197939 0.692153 -1.637448 -0.522660 0.620441 -0.584643
-5.261386 -0.137871 -1.574350 -0.628529 -0.529435 0.569750
3 0 1 2
3 2 3 4
3 5 0 6
3 6 3 5
3 3 7 5
3 4 0 2
3 0 7 1
3 2 1 3
3 5 7 0
3 6 4 3
3 3 1 7
3 4 6 0
