ply
format ascii 1.0
comment Created by Blender 2.77 (sub 0) - www.blender.org, source file: 'Farm0_Prop1-Colliders.blend'
element vertex 12
property float x
property float y
property float z
property float nx
property float ny
property float nz
element face 20
property list uchar uint vertex_indices
end_header
-5.808950 -0.119142 2.301702 -0.422315 -0.802026 0.422315
-5.382947 -0.119142 -1.732735 0.422315 -0.802026 -0.422315
-5.382947 -0.119142 2.301702 0.422315 -0.802026 0.422315
-5.986953 0.231114 2.479704 -0.680349 -0.272408 0.680349
-5.986953 0.414855 -1.910738 -0.577349 0.577349 -0.577349
-5.986953 0.231115 -1.910738 -0.680349 -0.272408 -0.680349
-5.204945 0.414855 -1.910738 0.577349 0.577349 -0.577349
-5.204945 0.231115 -1.910738 0.680349 -0.272408 -0.680349
-5.204945 0.414855 2.479704 0.577349 0.577349 0.577349
-5.986953 0.414855 2.479704 -0.577349 0.577349 0.577349
-5.808950 -0.119142 -1.732735 -0.422315 -0.802026 -0.422315
-5.204945 0.231114 2.479704 0.680349 -0.272408 0.680349
3 0 1 2
3 3 4 5
3 5 6 7
3 5 0 3
3 3 8 9
3 2 3 0
3 7 2 1
3 5 1 10
3 9 6 4
3 11 6 8
3 0 10 1
3 3 9 4
3 5 4 6
3 5 10 0
3 3 11 8
3 2 11 3
3 7 11 2
3 5 7 1
3 9 8 6
3 11 7 6
