ply
format ascii 1.0
comment Created by Blender 2.77 (sub 0) - www.blender.org, source file: 'Farm0_Prop0-Colliders.blend'
element vertex 12
property float x
property float y
property float z
property float nx
property float ny
property float nz
element face 20
property list uchar uint vertex_indices
end_header
-4.969094 0.563953 -1.456623 0.700919 -0.094272 -0.706931
-5.079537 -0.034114 -1.438876 -0.628346 -0.529893 -0.569506
-5.033807 0.570755 -1.456623 -0.705222 0.053499 -0.706931
-5.050122 -0.037206 -1.409299 0.504440 -0.648976 0.569506
-5.033807 0.570755 -1.391552 -0.705222 0.053499 0.706931
-5.079537 -0.034114 -1.409299 -0.628346 -0.529893 0.569506
-4.969094 0.563953 -1.391552 0.700919 -0.094272 0.706961
-5.050122 -0.037206 -1.438876 0.504440 -0.648946 -0.569506
-5.031952 0.588404 -1.456623 -0.513840 0.634510 -0.577349
-5.031952 0.588404 -1.391552 -0.513810 0.634510 0.577349
-4.967238 0.581602 -1.456623 0.634510 0.513810 -0.577319
-4.967238 0.581602 -1.391552 0.634541 0.513810 0.577349
3 0 1 2
3 3 4 5
3 6 7 0
3 5 1 7
3 5 7 3
3 8 9 10
3 10 9 11
3 4 1 5
3 2 8 0
3 8 10 0
3 8 2 4
3 9 8 4
3 9 4 6
3 11 9 6
3 0 10 6
3 10 11 6
3 0 7 1
3 3 6 4
3 6 3 7
3 4 2 1
