ply
format ascii 1.0
comment Created by Blender 2.77 (sub 0) - www.blender.org, source file: 'Farm0_Prop0-Colliders.blend'
element vertex 20
property float x
property float y
property float z
property float nx
property float ny
property float nz
element face 36
property list uchar uint vertex_indices
end_header
-6.365234 0.797154 -6.414730 0.000000 0.645711 -0.763543
-6.420837 -0.092504 -6.397353 -0.544481 -0.619007 -0.565966
-6.420837 0.797154 -6.397353 -0.544481 0.619007 -0.565966
-6.439372 -0.092504 -6.345224 -0.730766 -0.670827 -0.126255
-6.439372 0.797154 -6.345224 -0.730766 0.670827 -0.126255
-6.309629 -0.092504 -6.397353 0.544481 -0.619007 -0.565966
-6.309629 0.797154 -6.397353 0.544481 0.619007 -0.565966
-6.291096 -0.092504 -6.345224 0.731071 -0.670614 -0.125584
-6.291096 0.797154 -6.345224 0.731040 0.670614 -0.125584
-6.377586 -0.092504 6.439457 0.000000 -0.638874 0.769280
-6.325459 0.797153 6.420922 0.565966 0.619007 0.544481
-6.377586 0.797153 6.439457 0.000000 0.638874 0.769280
-6.325459 -0.092504 6.420922 0.565966 -0.619007 0.544481
-6.308082 0.797153 6.365319 0.729453 0.674795 0.111820
-6.447091 0.797153 6.365319 -0.729728 0.674612 0.111118
-6.429715 -0.092504 6.420922 -0.565966 -0.619007 0.544481
-6.429715 0.797153 6.420922 -0.565966 0.619007 0.544481
-6.447091 -0.092504 6.365319 -0.729728 -0.674612 0.111118
-6.308082 -0.092504 6.365319 0.729453 -0.674795 0.111820
-6.365234 -0.092504 -6.414730 0.000000 -0.645711 -0.763543
3 0 1 2
3 2 3 4
3 5 0 6
3 7 6 8
3 9 10 11
3 12 13 10
3 14 15 16
3 16 9 11
3 14 13 4
3 14 3 17
3 18 3 7
3 18 8 13
3 0 19 1
3 2 1 3
3 5 19 0
3 7 5 6
3 9 12 10
3 12 18 13
3 14 17 15
3 16 15 9
3 6 0 8
3 2 4 0
3 14 16 11
3 11 10 13
3 13 8 4
3 0 4 8
3 14 11 13
3 14 4 3
3 1 19 3
3 5 7 19
3 18 12 9
3 9 15 17
3 17 3 18
3 19 7 3
3 18 9 17
3 18 7 8
