ply
format ascii 1.0
comment Created by Blender 2.77 (sub 0) - www.blender.org, source file: 'Farm0_Prop0-Colliders.blend'
element vertex 12
property float x
property float y
property float z
property float nx
property float ny
property float nz
element face 20
property list uchar uint vertex_indices
end_header
-5.018352 -0.037159 1.400547 0.569506 -0.592669 -0.569506
-5.047929 -0.037159 1.430124 -0.569506 -0.592669 0.569506
-5.047929 -0.037159 1.400547 -0.569506 -0.592669 -0.569506
-5.018352 -0.037159 1.430124 0.569506 -0.592669 0.569506
-5.065675 0.586923 1.382801 -0.577349 0.577349 -0.577349
-5.065675 0.586923 1.447871 -0.577349 0.577349 0.577349
-5.000606 0.586923 1.382801 0.577349 0.577349 -0.577349
-5.000606 0.586923 1.447871 0.577349 0.577349 0.577349
-5.065675 0.569176 1.447871 -0.706931 -0.020478 0.706931
-5.000606 0.569176 1.447871 0.706931 -0.020478 0.706931
-5.065675 0.569176 1.382801 -0.706931 -0.020478 -0.706931
-5.000606 0.569176 1.382801 0.706931 -0.020478 -0.706931
3 0 1 2
3 0 3 1
3 4 5 6
3 5 7 6
3 4 8 5
3 9 1 3
3 10 1 8
3 6 9 11
3 7 8 9
3 3 11 9
3 2 11 0
3 10 6 11
3 4 10 8
3 9 8 1
3 10 2 1
3 6 7 9
3 7 5 8
3 3 0 11
3 2 10 11
3 10 4 6
