ply
format ascii 1.0
comment Created by Blender 2.77 (sub 0) - www.blender.org, source file: 'Windmill1-Colliders.blend'
element vertex 76
property float x
property float y
property float z
property float nx
property float ny
property float nz
property uchar red
property uchar green
property uchar blue
element face 104
property list uchar uint vertex_indices
end_header
1.610101 3.631328 -0.352482 0.899075 -0.153356 -0.410016 255 255 255
1.423737 3.507723 -0.501338 0.480941 -0.252297 -0.839625 255 255 255
1.511040 3.782045 -0.519984 0.664693 0.040925 -0.745964 255 255 255
0.529465 6.018316 0.161252 0.497299 0.829218 -0.255074 184 160 42
0.240209 6.037167 0.123906 -0.035859 0.929319 -0.367504 184 160 42
0.424252 6.028406 0.488714 -0.074587 0.951353 0.298898 184 160 42
0.105800 6.043423 0.172702 -0.437635 0.892087 -0.112400 184 160 42
1.621335 3.734433 -0.235814 0.986389 0.160527 -0.034822 114 74 37
1.623651 3.606588 -0.279705 0.968688 -0.145573 -0.201086 114 74 37
1.610101 3.631328 -0.352482 0.899075 -0.153356 -0.410016 114 74 37
-1.803941 3.985377 -0.024683 -0.814417 0.457411 -0.357006 231 168 50
-0.334295 5.275596 -0.997303 -0.355785 0.557848 -0.749779 255 255 255
-1.864289 3.830879 -0.077488 -0.768639 0.436689 -0.467391 255 255 255
-1.952012 3.741740 -0.004172 -0.922697 0.385083 -0.016938 114 74 37
-0.700202 5.263057 -0.159800 -0.695517 0.715140 -0.069063 255 255 255
-1.921960 3.738457 0.088899 -0.891476 0.347270 0.290872 114 74 37
-1.917539 3.568145 0.229439 -0.809961 -0.126286 0.572710 255 255 255
-1.852454 3.744472 0.274763 -0.637684 0.201819 0.743370 255 255 255
-1.921960 3.738457 0.088899 -0.891476 0.347270 0.290872 255 255 255
-1.917539 3.568145 0.229439 -0.809961 -0.126286 0.572710 231 168 50
-1.769955 3.297248 0.258856 -0.584643 -0.328379 0.741813 231 168 50
-1.802755 3.327607 0.201479 -0.869655 -0.453230 0.195593 231 168 50
-1.897538 3.510463 0.189911 -0.882290 -0.437483 0.173589 255 255 255
-1.802755 3.327607 0.201479 -0.869655 -0.453230 0.195593 255 255 255
-1.897538 3.510463 0.189911 -0.882290 -0.437483 0.173589 231 168 50
-1.962564 3.572593 -0.006733 -0.956572 -0.279427 -0.082736 114 74 37
-0.088866 -0.016518 -0.100996 -0.601367 -0.757653 -0.253456 114 74 37
-1.877475 3.411589 -0.023673 -0.859493 -0.440535 -0.259072 255 255 255
-0.302017 5.180757 -1.015686 -0.190741 0.002747 -0.981628 255 255 255
-0.013162 -0.016518 -0.155998 -0.007691 -0.705985 -0.708152 114 74 37
-1.854467 3.515047 -0.166144 -0.645405 -0.233406 -0.727287 255 255 255
-1.775660 3.804166 -0.229021 -0.631245 0.179022 -0.754601 255 255 255
-0.334295 5.275596 -0.997303 -0.355785 0.557848 -0.749779 184 160 42
0.367335 5.150187 -1.005529 0.287240 0.353099 -0.890378 184 160 42
-1.972314 3.658809 -0.051989 -0.948882 0.064974 -0.308817 114 74 37
-1.801576 4.026893 0.028123 -0.832698 0.553117 0.025452 231 168 50
0.062542 -0.016518 -0.100996 0.619800 -0.750755 -0.228431 114 74 37
1.602169 3.707620 -0.366924 0.926420 0.122990 -0.355785 114 74 37
1.502827 3.847269 -0.484672 0.841578 0.370525 -0.392926 255 255 255
1.607785 3.759173 -0.308591 0.939360 0.259743 -0.223792 114 74 37
-0.059949 -0.016518 -0.012001 -0.333659 -0.722037 0.606037 114 74 37
0.367335 5.150187 -1.005529 0.287240 0.353099 -0.890378 255 255 255
1.626417 3.488936 -0.115579 0.936460 -0.309061 -0.165716 231 168 50
0.033626 -0.016518 -0.012001 0.361126 -0.708213 0.606616 114 74 37
-0.036470 1.917157 0.299984 -0.010987 -0.145268 0.989319 255 255 255
-1.769955 3.297248 0.258856 -0.584643 -0.328379 0.741813 255 255 255
-0.085771 4.956232 0.732016 -0.149571 -0.032624 0.988189 255 255 255
-0.085771 4.956232 0.732016 -0.149571 -0.032624 0.988189 184 160 42
-0.041862 5.028158 0.733248 -0.268685 0.151341 0.951231 184 160 42
0.521812 5.906568 0.752217 -0.123051 0.481185 0.867916 255 255 255
-0.657981 5.069714 0.425620 -0.601703 0.504440 0.619221 255 255 255
-1.777853 3.909302 0.219225 -0.697531 0.511826 0.501450 255 255 255
-1.801576 4.026893 0.028123 -0.832698 0.553117 0.025452 255 255 255
0.105800 6.043423 0.172702 -0.437635 0.892087 -0.112400 255 255 255
-0.700202 5.263057 -0.159800 -0.695517 0.715140 -0.069063 184 160 42
-0.748652 5.177613 -0.252456 -0.721244 0.637959 -0.269753 184 160 42
1.545624 3.485219 -0.353397 0.776238 -0.349467 -0.524674 255 255 255
0.689022 4.843066 0.661215 0.313730 -0.098788 0.944334 184 160 42
1.511554 3.294322 -0.249546 0.869320 -0.385907 -0.308725 255 255 255
1.626417 3.488936 -0.115579 0.936460 -0.309061 -0.165716 255 255 255
0.909314 4.988452 -0.604323 0.748375 0.472549 -0.465377 184 160 42
0.915709 4.890999 -0.649194 0.662984 0.300211 -0.685781 184 160 42
0.689022 4.843066 0.661215 0.313730 -0.098788 0.944334 255 255 255
0.623466 5.927576 0.726563 0.547319 0.584155 0.599292 184 160 42
0.521812 5.906568 0.752217 -0.123051 0.481185 0.867916 184 160 42
1.586225 3.884051 -0.159546 0.938200 0.332713 0.095065 255 255 255
1.502827 3.847269 -0.484672 0.841578 0.370525 -0.392926 231 168 50
1.511040 3.782045 -0.519984 0.664693 0.040925 -0.745964 231 168 50
1.623651 3.606588 -0.279705 0.968688 -0.145573 -0.201086 255 255 255
1.638637 3.498423 -0.044434 0.881588 -0.172216 0.439436 231 168 50
1.629268 3.658140 -0.221371 0.996551 0.062655 -0.053896 114 74 37
1.638637 3.498423 -0.044434 0.881588 -0.172216 0.439436 255 255 255
1.586225 3.884051 -0.159546 0.938200 0.332713 0.095065 231 168 50
1.588194 3.851570 -0.224677 0.902127 0.386090 -0.192450 231 168 50
1.607785 3.759173 -0.308591 0.939360 0.259743 -0.223792 255 255 255
-0.302017 5.180757 -1.015686 -0.190741 0.002747 -0.981628 184 160 42
3 0 1 2
3 3 4 5
3 4 6 5
3 7 8 9
3 10 11 12
3 10 12 13
3 4 14 6
3 15 13 16
3 17 18 19
3 20 17 19
3 21 20 19
3 22 23 19
3 24 19 25
3 23 22 25
3 26 23 25
3 27 26 25
3 28 29 30
3 31 28 30
3 27 25 30
3 32 31 12
3 33 4 3
3 30 25 34
3 25 16 34
3 10 15 35
3 29 36 26
3 13 12 34
3 16 13 34
3 37 38 39
3 20 26 40
3 28 41 29
3 41 1 29
3 42 43 36
3 32 33 28
3 40 44 45
3 31 34 12
3 46 17 20
3 47 48 17
3 48 49 17
3 49 50 17
3 50 51 17
3 51 52 17
3 52 15 17
3 51 50 52
3 50 53 52
3 53 14 52
3 54 55 52
3 55 11 52
3 11 10 35
3 55 54 32
3 27 29 26
3 36 1 56
3 40 36 43
3 41 2 1
3 57 45 44
3 56 58 36
3 58 59 36
3 3 60 33
3 60 61 33
3 61 2 41
3 43 44 40
3 43 62 44
3 57 49 47
3 49 48 47
3 63 5 64
3 5 6 64
3 53 50 49
3 57 63 64
3 5 63 3
3 63 65 3
3 65 60 3
3 8 58 9
3 58 56 0
3 2 37 9
3 61 60 2
3 60 66 67
3 42 68 69
3 8 70 69
3 70 7 69
3 7 65 69
3 65 63 69
3 63 57 69
3 62 43 71
3 68 42 58
3 72 73 60
3 73 74 60
3 39 38 60
3 7 39 65
3 74 73 72
3 0 56 1
3 9 37 7
3 39 7 37
3 70 8 7
3 4 32 14
3 32 75 31
3 33 32 4
3 10 13 15
3 37 2 38
3 20 21 26
3 42 71 43
3 31 30 34
3 27 30 29
3 36 29 1
3 40 26 36
3 57 46 45
