ply
format ascii 1.0
comment Created by Blender 2.77 (sub 0) - www.blender.org, source file: 'Windmill0-Colliders.blend'
element vertex 12
property float x
property float y
property float z
property float nx
property float ny
property float nz
element face 20
property list uchar uint vertex_indices
end_header
-0.059111 4.586870 -0.199726 0.622547 0.516251 -0.588122
-2.212893 4.504556 -0.199726 -0.722282 -0.231574 -0.651631
-2.212893 4.586760 -0.199726 -0.722282 0.231574 -0.651631
-0.059111 4.586870 -0.089509 0.622547 0.516251 0.588122
-2.212893 4.504556 -0.089509 -0.722282 -0.231574 0.651631
-0.059111 4.502592 -0.089509 0.622333 -0.516587 0.588061
-2.212893 4.586760 -0.089509 -0.722282 0.231574 0.651631
-1.971147 4.949805 -0.115059 -0.309702 0.758385 0.573504
-0.059111 4.502592 -0.199726 0.622333 -0.516587 -0.588061
-1.971147 4.949805 -0.174176 -0.309702 0.758385 -0.573504
-1.971147 4.141510 -0.174176 -0.310038 -0.758202 -0.573534
-1.971147 4.141510 -0.115059 -0.310038 -0.758202 0.573534
3 0 1 2
3 3 4 5
3 6 3 7
3 1 6 2
3 3 8 0
3 3 9 7
3 10 5 11
3 4 11 5
3 11 1 10
3 0 2 9
3 8 10 1
3 7 2 6
3 0 8 1
3 3 6 4
3 1 4 6
3 3 5 8
3 3 0 9
3 10 8 5
3 11 4 1
3 7 9 2
