ply
format ascii 1.0
comment Created by Blender 2.77 (sub 0) - www.blender.org, source file: 'Kunai.blend'
element vertex 515
property float x
property float y
property float z
property float nx
property float ny
property float nz
property uchar red
property uchar green
property uchar blue
element face 201
property list uchar uint vertex_indices
end_header
-0.221572 -0.873274 0.000914 -0.681838 0.332331 -0.651654 158 158 158
-0.265726 -1.066192 -0.051271 -0.681838 0.332331 -0.651654 158 158 158
-0.315601 -1.066192 0.000914 -0.681838 0.332331 -0.651654 158 158 158
-0.265726 -1.066192 -0.051271 0.044848 -0.018576 -0.998821 158 158 158
-0.134250 -0.926507 -0.047965 0.044848 -0.018576 -0.998821 158 158 158
-0.192109 -1.066193 -0.047965 0.044848 -0.018576 -0.998821 158 158 158
-0.192109 -1.066193 -0.047965 0.815165 -0.337652 -0.470635 158 158 158
-0.114295 -0.946462 0.000914 0.815165 -0.337652 -0.470635 158 158 158
-0.163889 -1.066193 0.000914 0.815165 -0.337652 -0.470635 158 158 158
-0.114295 -0.946462 0.000914 0.815165 -0.337652 0.470634 158 158 158
-0.192109 -1.066193 0.049794 0.815165 -0.337652 0.470634 158 158 158
-0.163889 -1.066193 0.000914 0.815165 -0.337652 0.470634 158 158 158
-0.134250 -0.926507 0.049794 0.044848 -0.018576 0.998821 158 158 158
-0.265726 -1.066192 0.053099 0.044848 -0.018576 0.998821 158 158 158
-0.192109 -1.066193 0.049794 0.044848 -0.018576 0.998821 158 158 158
-0.265726 -1.066192 0.053099 -0.681838 0.332331 0.651654 158 158 158
-0.221572 -0.873274 0.000914 -0.681838 0.332331 0.651654 158 158 158
-0.315601 -1.066192 0.000914 -0.681838 0.332331 0.651654 158 158 158
-0.186305 -0.874452 -0.051271 -0.249968 -0.308251 -0.917877 158 158 158
0.005435 -0.868648 -0.105437 -0.249968 -0.308251 -0.917877 158 158 158
-0.134250 -0.926507 -0.047965 -0.249968 -0.308251 -0.917877 158 158 158
-0.134250 -0.926507 -0.047965 0.210407 -0.872036 -0.441907 158 158 158
0.005435 -0.917574 0.000914 0.210407 -0.872036 -0.441907 158 158 158
-0.114295 -0.946462 0.000914 0.210407 -0.872036 -0.441907 158 158 158
0.005435 -0.917574 0.000914 0.210407 -0.872036 0.441907 158 158 158
-0.134250 -0.926507 0.049794 0.210407 -0.872036 0.441907 158 158 158
-0.114295 -0.946462 0.000914 0.210407 -0.872036 0.441907 158 158 158
0.005435 -0.868648 0.102113 -0.228974 -0.288017 0.929848 158 158 158
-0.186305 -0.874452 0.053099 -0.228974 -0.288017 0.929848 158 158 158
-0.134250 -0.926507 0.049794 -0.228974 -0.288017 0.929848 158 158 158
0.197175 -0.874452 -0.051271 0.263194 -0.169178 -0.949793 158 158 158
0.005435 -0.868648 -0.105437 0.263194 -0.169178 -0.949793 158 158 158
-0.002027 -0.794226 -0.120761 0.263194 -0.169178 -0.949793 158 158 158
0.145120 -0.926507 -0.047965 -0.200211 -0.890083 -0.409473 158 158 158
0.005435 -0.917574 0.000914 -0.200211 -0.890083 -0.409473 158 158 158
0.005435 -0.868648 -0.105437 -0.200211 -0.890083 -0.409473 158 158 158
0.005435 -0.917574 0.000914 -0.205414 -0.881105 0.425981 158 158 158
0.145120 -0.926507 0.049794 -0.205414 -0.881105 0.425981 158 158 158
0.005435 -0.868648 0.102113 -0.205414 -0.881105 0.425981 158 158 158
0.005435 -0.868648 0.102113 0.240225 -0.155541 0.958175 158 158 158
0.197175 -0.874452 0.053099 0.240225 -0.155541 0.958175 158 158 158
0.005435 -0.795031 0.114063 0.240225 -0.155541 0.958175 158 158 158
0.232442 -0.873274 0.000914 0.780628 0.323347 -0.534852 158 158 158
0.276597 -1.066192 -0.051271 0.780628 0.323347 -0.534852 158 158 158
0.197175 -0.874452 -0.051271 0.780628 0.323347 -0.534852 158 158 158
0.276597 -1.066192 -0.051271 -0.044847 -0.018576 -0.998821 158 158 158
0.145120 -0.926507 -0.047965 -0.044847 -0.018576 -0.998821 158 158 158
0.197175 -0.874452 -0.051271 -0.044847 -0.018576 -0.998821 158 158 158
0.145120 -0.926507 -0.047965 -0.815165 -0.337652 -0.470635 158 158 158
0.174759 -1.066192 0.000914 -0.815165 -0.337652 -0.470635 158 158 158
0.125165 -0.946462 0.000914 -0.815165 -0.337652 -0.470635 158 158 158
0.174759 -1.066192 0.000914 -0.815165 -0.337652 0.470635 158 158 158
0.145120 -0.926507 0.049794 -0.815165 -0.337652 0.470635 158 158 158
0.125165 -0.946462 0.000914 -0.815165 -0.337652 0.470635 158 158 158
0.145120 -0.926507 0.049794 -0.044848 -0.018577 0.998821 158 158 158
0.276597 -1.066192 0.053099 -0.044848 -0.018577 0.998821 158 158 158
0.197175 -0.874452 0.053099 -0.044848 -0.018577 0.998821 158 158 158
0.276597 -1.066192 0.053099 0.780628 0.323347 0.534852 158 158 158
0.232442 -0.873274 0.000914 0.780628 0.323347 0.534852 158 158 158
0.197175 -0.874452 0.053099 0.780628 0.323347 0.534852 158 158 158
0.232442 -1.293199 0.000914 0.692544 -0.286861 -0.661886 158 158 158
0.276597 -1.066192 -0.051271 0.692544 -0.286861 -0.661886 158 158 158
0.326471 -1.066192 0.000914 0.692544 -0.286861 -0.661886 158 158 158
0.197175 -1.257932 -0.051271 -0.044847 0.018576 -0.998821 158 158 158
0.202980 -1.066192 -0.047965 -0.044847 0.018576 -0.998821 158 158 158
0.276597 -1.066192 -0.051271 -0.044847 0.018576 -0.998821 158 158 158
0.202980 -1.066192 -0.047965 -0.815164 0.337651 -0.470637 158 158 158
0.125165 -1.185923 0.000914 -0.815164 0.337651 -0.470637 158 158 158
0.174759 -1.066192 0.000914 -0.815164 0.337651 -0.470637 158 158 158
0.125165 -1.185923 0.000914 -0.815164 0.337651 0.470637 158 158 158
0.202980 -1.066192 0.049794 -0.815164 0.337651 0.470637 158 158 158
0.174759 -1.066192 0.000914 -0.815164 0.337651 0.470637 158 158 158
0.202980 -1.066192 0.049794 -0.044848 0.018576 0.998821 158 158 158
0.197175 -1.257932 0.053099 -0.044848 0.018576 0.998821 158 158 158
0.276597 -1.066192 0.053099 -0.044848 0.018576 0.998821 158 158 158
0.276597 -1.066192 0.053099 0.692544 -0.286861 0.661886 158 158 158
0.232442 -1.293199 0.000914 0.692544 -0.286861 0.661886 158 158 158
0.326471 -1.066192 0.000914 0.692544 -0.286861 0.661886 158 158 158
0.005435 -1.387228 0.000914 0.286861 -0.692544 -0.661886 158 158 158
0.197175 -1.257932 -0.051271 0.286861 -0.692544 -0.661886 158 158 158
0.232442 -1.293199 0.000914 0.286861 -0.692544 -0.661886 158 158 158
0.005435 -1.337354 -0.051271 -0.018577 0.044848 -0.998821 158 158 158
0.145120 -1.205878 -0.047965 -0.018577 0.044848 -0.998821 158 158 158
0.197175 -1.257932 -0.051271 -0.018577 0.044848 -0.998821 158 158 158
0.005435 -1.263737 -0.047965 -0.337650 0.815165 -0.470637 158 158 158
0.125165 -1.185923 0.000914 -0.337650 0.815165 -0.470637 158 158 158
0.145120 -1.205878 -0.047965 -0.337650 0.815165 -0.470637 158 158 158
0.125165 -1.185923 0.000914 -0.337650 0.815164 0.470637 158 158 158
0.005435 -1.263737 0.049794 -0.337650 0.815164 0.470637 158 158 158
0.145120 -1.205878 0.049794 -0.337650 0.815164 0.470637 158 158 158
0.145120 -1.205878 0.049794 -0.018577 0.044848 0.998821 158 158 158
0.005435 -1.337354 0.053099 -0.018577 0.044848 0.998821 158 158 158
0.197175 -1.257932 0.053099 -0.018577 0.044848 0.998821 158 158 158
0.197175 -1.257932 0.053099 0.286861 -0.692544 0.661886 158 158 158
0.005435 -1.387228 0.000914 0.286861 -0.692544 0.661886 158 158 158
0.232442 -1.293199 0.000914 0.286861 -0.692544 0.661886 158 158 158
0.005435 -1.387228 0.000914 -0.286862 -0.692545 -0.661885 158 158 158
-0.186305 -1.257932 -0.051271 -0.286862 -0.692545 -0.661885 158 158 158
0.005435 -1.337354 -0.051271 -0.286862 -0.692545 -0.661885 158 158 158
0.005435 -1.337354 -0.051271 0.018576 0.044847 -0.998821 158 158 158
-0.134250 -1.205878 -0.047965 0.018576 0.044847 -0.998821 158 158 158
0.005435 -1.263737 -0.047965 0.018576 0.044847 -0.998821 158 158 158
0.005435 -1.263737 -0.047965 0.337654 0.815166 -0.470632 158 158 158
-0.114295 -1.185923 0.000914 0.337654 0.815166 -0.470632 158 158 158
0.005435 -1.235517 0.000914 0.337654 0.815166 -0.470632 158 158 158
-0.114295 -1.185923 0.000914 0.337654 0.815166 0.470632 158 158 158
0.005435 -1.263737 0.049794 0.337654 0.815166 0.470632 158 158 158
0.005435 -1.235517 0.000914 0.337654 0.815166 0.470632 158 158 158
-0.134250 -1.205878 0.049794 0.018576 0.044848 0.998821 158 158 158
0.005435 -1.337354 0.053099 0.018576 0.044848 0.998821 158 158 158
0.005435 -1.263737 0.049794 0.018576 0.044848 0.998821 158 158 158
-0.186305 -1.257932 0.053099 -0.286862 -0.692545 0.661885 158 158 158
0.005435 -1.387228 0.000914 -0.286862 -0.692545 0.661885 158 158 158
0.005435 -1.337354 0.053099 -0.286862 -0.692545 0.661885 158 158 158
-0.221572 -1.293199 0.000914 -0.692544 -0.286862 -0.661886 158 158 158
-0.265726 -1.066192 -0.051271 -0.692544 -0.286862 -0.661886 158 158 158
-0.186305 -1.257932 -0.051271 -0.692544 -0.286862 -0.661886 158 158 158
-0.186305 -1.257932 -0.051271 0.044848 0.018576 -0.998821 158 158 158
-0.192109 -1.066193 -0.047965 0.044848 0.018576 -0.998821 158 158 158
-0.134250 -1.205878 -0.047965 0.044848 0.018576 -0.998821 158 158 158
-0.192109 -1.066193 -0.047965 0.815164 0.337652 -0.470636 158 158 158
-0.114295 -1.185923 0.000914 0.815164 0.337652 -0.470636 158 158 158
-0.134250 -1.205878 -0.047965 0.815164 0.337652 -0.470636 158 158 158
-0.114295 -1.185923 0.000914 0.815164 0.337652 0.470636 158 158 158
-0.192109 -1.066193 0.049794 0.815164 0.337652 0.470636 158 158 158
-0.134250 -1.205878 0.049794 0.815164 0.337652 0.470636 158 158 158
-0.192109 -1.066193 0.049794 0.044848 0.018577 0.998821 158 158 158
-0.186305 -1.257932 0.053099 0.044848 0.018577 0.998821 158 158 158
-0.134250 -1.205878 0.049794 0.044848 0.018577 0.998821 158 158 158
-0.265726 -1.066192 0.053099 -0.692544 -0.286862 0.661886 158 158 158
-0.221572 -1.293199 0.000914 -0.692544 -0.286862 0.661886 158 158 158
-0.186305 -1.257932 0.053099 -0.692544 -0.286862 0.661886 158 158 158
0.098549 0.163890 -0.099244 0.806902 -0.567028 -0.165495 158 158 158
0.297077 0.417046 0.001340 0.806902 -0.567028 -0.165495 158 158 158
0.119178 0.163890 0.001340 0.806902 -0.567028 -0.165495 158 158 158
-0.102612 0.163890 0.101916 -0.806912 -0.567010 0.165509 158 158 158
-0.301132 0.417046 0.001340 -0.806912 -0.567010 0.165509 158 158 158
-0.123241 0.163890 0.001340 -0.806912 -0.567010 0.165509 158 158 158
-0.102612 0.163890 -0.099244 -0.182459 -0.572483 -0.799357 158 158 158
-0.002028 0.417046 -0.303508 -0.182459 -0.572483 -0.799357 158 158 158
-0.002028 0.163890 -0.122203 -0.182459 -0.572483 -0.799357 158 158 158
0.098549 0.163890 0.101916 0.182472 -0.572481 0.799356 158 158 158
-0.002028 0.417046 0.306180 0.182472 -0.572481 0.799356 158 158 158
-0.002028 0.163890 0.124875 0.182472 -0.572481 0.799356 158 158 158
-0.002028 0.417046 0.306180 -0.710273 0.099152 0.696908 158 158 158
-0.002030 2.559668 0.001338 -0.710273 0.099152 0.696908 158 158 158
-0.301132 0.417046 0.001340 -0.710273 0.099152 0.696908 158 158 158
-0.002028 0.417046 -0.303508 0.710282 0.099154 -0.696899 158 158 158
-0.002030 2.559668 0.001338 0.710282 0.099154 -0.696899 158 158 158
0.297077 0.417046 0.001340 0.710282 0.099154 -0.696899 158 158 158
-0.102612 0.163890 0.101916 -0.687087 -0.270964 0.674159 158 158 158
-0.002028 0.417046 0.306180 -0.687087 -0.270964 0.674159 158 158 158
-0.301132 0.417046 0.001340 -0.687087 -0.270964 0.674159 158 158 158
0.098549 0.163890 -0.099244 0.687093 -0.270974 -0.674148 158 158 158
-0.002028 0.417046 -0.303508 0.687093 -0.270974 -0.674148 158 158 158
0.297077 0.417046 0.001340 0.687093 -0.270974 -0.674148 158 158 158
-0.102612 0.163890 -0.099244 -0.687097 -0.270955 -0.674152 158 158 158
-0.301132 0.417046 0.001340 -0.687097 -0.270955 -0.674152 158 158 158
-0.002028 0.417046 -0.303508 -0.687097 -0.270955 -0.674152 158 158 158
0.098549 0.163890 0.101916 0.687083 -0.270983 0.674155 158 158 158
0.297077 0.417046 0.001340 0.687083 -0.270983 0.674155 158 158 158
-0.002028 0.417046 0.306180 0.687083 -0.270983 0.674155 158 158 158
-0.002028 0.417046 -0.303508 -0.710282 0.099152 -0.696899 158 158 158
-0.301132 0.417046 0.001340 -0.710282 0.099152 -0.696899 158 158 158
-0.002030 2.559668 0.001338 -0.710282 0.099152 -0.696899 158 158 158
-0.002028 0.417046 0.306180 0.710273 0.099154 0.696908 158 158 158
0.297077 0.417046 0.001340 0.710273 0.099154 0.696908 158 158 158
-0.002030 2.559668 0.001338 0.710273 0.099154 0.696908 158 158 158
-0.102612 0.163890 0.101916 -0.182459 -0.572483 0.799357 158 158 158
-0.002028 0.163890 0.124875 -0.182459 -0.572483 0.799357 158 158 158
-0.002028 0.417046 0.306180 -0.182459 -0.572483 0.799357 158 158 158
0.098549 0.163890 -0.099244 0.182472 -0.572481 -0.799355 158 158 158
-0.002028 0.163890 -0.122203 0.182472 -0.572481 -0.799355 158 158 158
-0.002028 0.417046 -0.303508 0.182472 -0.572481 -0.799355 158 158 158
-0.102612 0.163890 -0.099244 -0.806913 -0.567011 -0.165497 158 158 158
-0.123241 0.163890 0.001340 -0.806913 -0.567011 -0.165497 158 158 158
-0.301132 0.417046 0.001340 -0.806913 -0.567011 -0.165497 158 158 158
0.098549 0.163890 0.101916 0.806900 -0.567026 0.165507 158 158 158
0.119178 0.163890 0.001340 0.806900 -0.567026 0.165507 158 158 158
0.297077 0.417046 0.001340 0.806900 -0.567026 0.165507 158 158 158
0.098549 0.163890 0.101916 0.000000 0.000000 0.000000 158 158 158
0.119178 0.163890 0.001340 0.000000 0.000000 0.000000 158 158 158
0.119178 0.163890 0.001340 0.000000 0.000000 0.000000 158 158 158
-0.002028 0.163890 -0.122203 0.000000 0.000000 0.000000 158 158 158
-0.102612 0.163890 -0.099244 0.000000 0.000000 0.000000 158 158 158
-0.102612 0.163890 -0.099244 0.000000 0.000000 0.000000 158 158 158
-0.123241 0.163890 0.001340 0.000000 0.000000 0.000000 158 158 158
-0.102612 0.163890 0.101916 0.000000 0.000000 0.000000 158 158 158
-0.102612 0.163890 0.101916 0.000000 0.000000 0.000000 158 158 158
-0.002028 0.163890 0.124875 0.000000 0.000000 0.000000 158 158 158
-0.002028 0.163890 0.124875 0.000000 0.000000 0.000000 158 158 158
0.098549 0.163890 -0.099244 0.000000 0.000000 0.000000 158 158 158
0.098549 0.163890 -0.099244 0.000000 0.000000 0.000000 158 158 158
-0.186305 -0.874452 -0.051271 -0.816416 0.536556 -0.213478 158 158 158
-0.147337 -0.794226 0.001341 -0.816416 0.536556 -0.213478 158 158 158
-0.122606 -0.794226 -0.093238 -0.816416 0.536556 -0.213478 158 158 158
-0.102612 0.163890 -0.099244 -0.898037 0.399506 -0.184187 158 158 158
-0.147337 0.109727 0.001341 -0.898037 0.399506 -0.184187 158 158 158
-0.123241 0.163890 0.001340 -0.898037 0.399506 -0.184187 158 158 158
-0.002027 -0.794226 -0.120761 -0.211115 -0.316206 -0.924902 158 158 158
-0.186305 -0.874452 -0.051271 -0.211115 -0.316206 -0.924902 158 158 158
-0.122606 -0.794226 -0.093238 -0.211115 -0.316206 -0.924902 158 158 158
-0.102612 0.163890 -0.099244 -0.203534 0.404306 -0.891690 158 158 158
-0.002027 0.109727 -0.146761 -0.203534 0.404306 -0.891690 158 158 158
-0.122606 0.109727 -0.119238 -0.203534 0.404306 -0.891690 158 158 158
-0.186305 -0.874452 0.053099 -0.128344 -0.390052 0.911804 158 158 158
0.005435 -0.795031 0.114063 -0.128344 -0.390052 0.911804 158 158 158
-0.122606 -0.794226 0.096384 -0.128344 -0.390052 0.911804 158 158 158
0.197175 -0.874452 0.053099 0.751035 0.630680 0.195420 158 158 158
0.143273 -0.794226 0.001341 0.751035 0.630680 0.195420 158 158 158
0.118543 -0.794226 0.096384 0.751035 0.630680 0.195420 158 158 158
-0.102612 0.163890 0.101916 -0.203535 0.404301 0.891692 158 158 158
-0.002027 0.109727 0.149433 -0.203535 0.404301 0.891692 158 158 158
-0.002028 0.163890 0.124875 -0.203535 0.404301 0.891692 158 158 158
0.098549 0.163890 0.101916 0.898036 0.399503 0.184200 158 158 158
0.143273 0.109727 0.001341 0.898036 0.399503 0.184200 158 158 158
0.119178 0.163890 0.001340 0.898036 0.399503 0.184200 158 158 158
-0.123241 0.163890 0.001340 0.000000 0.000000 0.000000 158 158 158
0.098549 0.163890 0.101916 0.000000 0.000000 0.000000 158 158 158
-0.002028 0.163890 -0.122203 0.000000 0.000000 0.000000 158 158 158
0.197175 -0.874452 0.053099 0.033388 -0.999442 0.000000 158 158 158
0.197175 -0.874452 -0.051271 0.033388 -0.999442 0.000000 158 158 158
0.232442 -0.873274 0.000914 0.033388 -0.999442 0.000000 158 158 158
0.118543 -0.794226 0.096384 0.540077 0.834293 0.110777 158 158 158
0.088365 -0.762071 0.001339 0.540077 0.834293 0.110777 158 158 158
0.072979 -0.762071 0.076347 0.540077 0.834293 0.110777 158 158 158
-0.002027 0.109727 0.149433 -0.112990 -0.861508 0.495012 158 158 158
-0.077042 0.077572 0.076347 -0.112990 -0.861508 0.495012 158 158 158
-0.002028 0.077572 0.093470 -0.112990 -0.861508 0.495012 158 158 158
0.143273 0.109727 0.001341 0.502652 -0.858319 0.103101 158 158 158
0.072979 0.077572 0.076347 0.502652 -0.858319 0.103101 158 158 158
0.088365 0.077572 0.001339 0.502652 -0.858319 0.103101 158 158 158
-0.002027 -0.794226 -0.120761 0.164722 0.672431 -0.721598 158 158 158
0.072979 -0.762071 -0.073674 0.164722 0.672431 -0.721598 158 158 158
0.118543 -0.794226 -0.093238 0.164722 0.672431 -0.721598 158 158 158
-0.002027 0.109727 -0.146761 0.112996 -0.861513 -0.495002 158 158 158
0.072979 0.077572 -0.073674 0.112996 -0.861513 -0.495002 158 158 158
-0.002028 0.077572 -0.090797 0.112996 -0.861513 -0.495002 158 158 158
-0.122606 -0.794226 0.096384 -0.501024 0.855558 0.130367 158 158 158
-0.092427 -0.762071 0.001339 -0.501024 0.855558 0.130367 158 158 158
-0.147337 -0.794226 0.001341 -0.501024 0.855558 0.130367 158 158 158
-0.147337 0.109727 0.001341 -0.502646 -0.858322 0.103100 158 158 158
-0.077042 0.077572 0.076347 -0.502646 -0.858322 0.103100 158 158 158
-0.122606 0.109727 0.121910 -0.502646 -0.858322 0.103100 158 158 158
0.118543 -0.794226 -0.093238 0.500992 0.855480 -0.131000 158 158 158
0.088365 -0.762071 0.001339 0.500992 0.855480 -0.131000 158 158 158
0.143273 -0.794226 0.001341 0.500992 0.855480 -0.131000 158 158 158
0.098549 0.163890 0.101916 0.203549 0.404303 0.891688 158 158 158
-0.002027 0.109727 0.149433 0.203549 0.404303 0.891688 158 158 158
0.118543 0.109727 0.121910 0.203549 0.404303 0.891688 158 158 158
0.005435 -0.795031 0.114063 0.146866 -0.354326 0.923517 158 158 158
0.197175 -0.874452 0.053099 0.146866 -0.354326 0.923517 158 158 158
0.118543 -0.794226 0.096384 0.146866 -0.354326 0.923517 158 158 158
0.098549 0.163890 -0.099244 0.898039 0.399501 -0.184187 158 158 158
0.143273 0.109727 0.001341 0.898039 0.399501 -0.184187 158 158 158
0.118543 0.109727 -0.119238 0.898039 0.399501 -0.184187 158 158 158
0.197175 -0.874452 -0.051271 0.600526 0.679687 -0.421183 158 158 158
0.143273 -0.794226 0.001341 0.600526 0.679687 -0.421183 158 158 158
0.232442 -0.873274 0.000914 0.600526 0.679687 -0.421183 158 158 158
-0.102612 0.163890 0.101916 -0.898033 0.399508 0.184200 158 158 158
-0.147337 0.109727 0.001341 -0.898033 0.399508 0.184200 158 158 158
-0.122606 0.109727 0.121910 -0.898033 0.399508 0.184200 158 158 158
-0.186305 -0.874452 0.053099 -0.650864 0.608790 0.453598 158 158 158
-0.147337 -0.794226 0.001341 -0.650864 0.608790 0.453598 158 158 158
-0.221572 -0.873274 0.000914 -0.650864 0.608790 0.453598 158 158 158
0.098549 0.163890 -0.099244 0.203548 0.404308 -0.891685 158 158 158
-0.002027 0.109727 -0.146761 0.203548 0.404308 -0.891685 158 158 158
-0.002028 0.163890 -0.122203 0.203548 0.404308 -0.891685 158 158 158
0.197175 -0.874452 -0.051271 0.213636 -0.280176 -0.935874 158 158 158
-0.002027 -0.794226 -0.120761 0.213636 -0.280176 -0.935874 158 158 158
0.118543 -0.794226 -0.093238 0.213636 -0.280176 -0.935874 158 158 158
0.088365 0.077572 0.001339 0.979608 0.000000 -0.200917 255 255 255
0.072979 -0.762071 -0.073674 0.979608 0.000000 -0.200917 255 255 255
0.072979 0.077572 -0.073674 0.979608 0.000000 -0.200917 255 255 255
-0.002028 0.077572 -0.090797 -0.222533 -0.000000 -0.974925 255 255 255
-0.077042 -0.762071 -0.073674 -0.222533 -0.000000 -0.974925 255 255 255
-0.077042 0.077572 -0.073674 -0.222533 -0.000000 -0.974925 255 255 255
-0.002028 -0.762071 0.093470 0.222549 0.000000 0.974921 255 255 255
0.072979 0.077572 0.076347 0.222549 0.000000 0.974921 255 255 255
-0.002028 0.077572 0.093470 0.222549 0.000000 0.974921 255 255 255
-0.092427 0.077572 0.001339 -0.979605 -0.000000 0.200931 255 255 255
-0.077042 -0.762071 0.076347 -0.979605 -0.000000 0.200931 255 255 255
-0.077042 0.077572 0.076347 -0.979605 -0.000000 0.200931 255 255 255
0.072979 0.077572 0.076347 0.979605 0.000000 0.200931 255 255 255
0.088365 -0.762071 0.001339 0.979605 0.000000 0.200931 255 255 255
0.088365 0.077572 0.001339 0.979605 0.000000 0.200931 255 255 255
-0.077042 0.077572 -0.073674 -0.979608 -0.000000 -0.200917 255 255 255
-0.092427 -0.762071 0.001339 -0.979608 -0.000000 -0.200917 255 255 255
-0.092427 0.077572 0.001339 -0.979608 -0.000000 -0.200917 255 255 255
-0.077042 0.077572 0.076347 -0.222533 0.000000 0.974925 255 255 255
-0.002028 -0.762071 0.093470 -0.222533 0.000000 0.974925 255 255 255
-0.002028 0.077572 0.093470 -0.222533 0.000000 0.974925 255 255 255
0.072979 0.077572 -0.073674 0.222549 -0.000000 -0.974921 255 255 255
-0.002028 -0.762071 -0.090797 0.222549 -0.000000 -0.974921 255 255 255
-0.002028 0.077572 -0.090797 0.222549 -0.000000 -0.974921 255 255 255
0.005435 -0.795031 0.114063 -0.102703 0.626815 0.772370 158 158 158
-0.077042 -0.762071 0.076347 -0.102703 0.626815 0.772370 158 158 158
-0.122606 -0.794226 0.096384 -0.102703 0.626815 0.772370 158 158 158
-0.002027 0.109727 -0.146761 -0.112989 -0.861512 -0.495006 158 158 158
-0.077042 0.077572 -0.073674 -0.112989 -0.861512 -0.495006 158 158 158
-0.122606 0.109727 -0.119238 -0.112989 -0.861512 -0.495006 158 158 158
-0.002027 -0.794226 -0.120761 -0.164711 0.672425 -0.721606 158 158 158
-0.077042 -0.762071 -0.073674 -0.164711 0.672425 -0.721606 158 158 158
-0.002028 -0.762071 -0.090797 -0.164711 0.672425 -0.721606 158 158 158
-0.147337 0.109727 0.001341 -0.502650 -0.858321 -0.103093 158 158 158
-0.077042 0.077572 -0.073674 -0.502650 -0.858321 -0.103093 158 158 158
-0.092427 0.077572 0.001339 -0.502650 -0.858321 -0.103093 158 158 158
-0.122606 -0.794226 -0.093238 -0.540809 0.833800 -0.110919 158 158 158
-0.092427 -0.762071 0.001339 -0.540809 0.833800 -0.110919 158 158 158
-0.077042 -0.762071 -0.073674 -0.540809 0.833800 -0.110919 158 158 158
-0.002027 0.109727 0.149433 0.112997 -0.861510 0.495008 158 158 158
0.072979 0.077572 0.076347 0.112997 -0.861510 0.495008 158 158 158
0.118543 0.109727 0.121910 0.112997 -0.861510 0.495008 158 158 158
0.005435 -0.795031 0.114063 0.185782 0.550566 0.813856 158 158 158
0.072979 -0.762071 0.076347 0.185782 0.550566 0.813856 158 158 158
-0.002028 -0.762071 0.093470 0.185782 0.550566 0.813856 158 158 158
0.143273 0.109727 0.001341 0.502656 -0.858317 -0.103094 158 158 158
0.072979 0.077572 -0.073674 0.502656 -0.858317 -0.103094 158 158 158
0.118543 0.109727 -0.119238 0.502656 -0.858317 -0.103094 158 158 158
-0.186305 -0.874452 0.053099 -0.033381 -0.999443 0.000000 158 158 158
-0.221572 -0.873274 0.000914 -0.033381 -0.999443 0.000000 158 158 158
-0.186305 -0.874452 -0.051271 -0.033381 -0.999443 0.000000 158 158 158
-0.221572 -0.873274 0.000914 -0.780629 0.323346 -0.534852 158 158 158
-0.186305 -0.874452 -0.051271 -0.780629 0.323346 -0.534852 158 158 158
-0.265726 -1.066192 -0.051271 -0.780629 0.323346 -0.534852 158 158 158
-0.265726 -1.066192 -0.051271 0.044848 -0.018577 -0.998821 158 158 158
-0.186305 -0.874452 -0.051271 0.044848 -0.018577 -0.998821 158 158 158
-0.134250 -0.926507 -0.047965 0.044848 -0.018577 -0.998821 158 158 158
-0.192109 -1.066193 -0.047965 0.815165 -0.337652 -0.470636 158 158 158
-0.134250 -0.926507 -0.047965 0.815165 -0.337652 -0.470636 158 158 158
-0.114295 -0.946462 0.000914 0.815165 -0.337652 -0.470636 158 158 158
-0.114295 -0.946462 0.000914 0.815165 -0.337651 0.470636 158 158 158
-0.134250 -0.926507 0.049794 0.815165 -0.337651 0.470636 158 158 158
-0.192109 -1.066193 0.049794 0.815165 -0.337651 0.470636 158 158 158
-0.134250 -0.926507 0.049794 0.044848 -0.018577 0.998821 158 158 158
-0.186305 -0.874452 0.053099 0.044848 -0.018577 0.998821 158 158 158
-0.265726 -1.066192 0.053099 0.044848 -0.018577 0.998821 158 158 158
-0.265726 -1.066192 0.053099 -0.780629 0.323347 0.534851 158 158 158
-0.186305 -0.874452 0.053099 -0.780629 0.323347 0.534851 158 158 158
-0.221572 -0.873274 0.000914 -0.780629 0.323347 0.534851 158 158 158
-0.186305 -0.874452 -0.051271 -0.259057 -0.219643 -0.940556 158 158 158
-0.002027 -0.794226 -0.120761 -0.259057 -0.219643 -0.940556 158 158 158
0.005435 -0.868648 -0.105437 -0.259057 -0.219643 -0.940556 158 158 158
-0.134250 -0.926507 -0.047965 0.200211 -0.890083 -0.409473 158 158 158
0.005435 -0.868648 -0.105437 0.200211 -0.890083 -0.409473 158 158 158
0.005435 -0.917574 0.000914 0.200211 -0.890083 -0.409473 158 158 158
0.005435 -0.917574 0.000914 0.205414 -0.881105 0.425981 158 158 158
0.005435 -0.868648 0.102113 0.205414 -0.881105 0.425981 158 158 158
-0.134250 -0.926507 0.049794 0.205414 -0.881105 0.425981 158 158 158
0.005435 -0.868648 0.102113 -0.240225 -0.155541 0.958175 158 158 158
0.005435 -0.795031 0.114063 -0.240225 -0.155541 0.958175 158 158 158
-0.186305 -0.874452 0.053099 -0.240225 -0.155541 0.958175 158 158 158
0.197175 -0.874452 -0.051271 0.249967 -0.308251 -0.917876 158 158 158
0.145120 -0.926507 -0.047965 0.249967 -0.308251 -0.917876 158 158 158
0.005435 -0.868648 -0.105437 0.249967 -0.308251 -0.917876 158 158 158
0.145120 -0.926507 -0.047965 -0.210406 -0.872038 -0.441904 158 158 158
0.125165 -0.946462 0.000914 -0.210406 -0.872038 -0.441904 158 158 158
0.005435 -0.917574 0.000914 -0.210406 -0.872038 -0.441904 158 158 158
0.005435 -0.917574 0.000914 -0.210406 -0.872038 0.441904 158 158 158
0.125165 -0.946462 0.000914 -0.210406 -0.872038 0.441904 158 158 158
0.145120 -0.926507 0.049794 -0.210406 -0.872038 0.441904 158 158 158
0.005435 -0.868648 0.102113 0.228973 -0.288018 0.929848 158 158 158
0.145120 -0.926507 0.049794 0.228973 -0.288018 0.929848 158 158 158
0.197175 -0.874452 0.053099 0.228973 -0.288018 0.929848 158 158 158
0.232442 -0.873274 0.000914 0.681838 0.332332 -0.651654 158 158 158
0.326471 -1.066192 0.000914 0.681838 0.332332 -0.651654 158 158 158
0.276597 -1.066192 -0.051271 0.681838 0.332332 -0.651654 158 158 158
0.202980 -1.066192 -0.047965 -0.044847 -0.018576 -0.998821 158 158 158
0.145120 -0.926507 -0.047965 -0.815164 -0.337652 -0.470636 158 158 158
0.202980 -1.066192 -0.047965 -0.815164 -0.337652 -0.470636 158 158 158
0.174759 -1.066192 0.000914 -0.815164 -0.337652 -0.470636 158 158 158
0.174759 -1.066192 0.000914 -0.815164 -0.337652 0.470637 158 158 158
0.202980 -1.066192 0.049794 -0.815164 -0.337652 0.470637 158 158 158
0.145120 -0.926507 0.049794 -0.815164 -0.337652 0.470637 158 158 158
0.145120 -0.926507 0.049794 -0.044847 -0.018576 0.998821 158 158 158
0.202980 -1.066192 0.049794 -0.044847 -0.018576 0.998821 158 158 158
0.276597 -1.066192 0.053099 -0.044847 -0.018576 0.998821 158 158 158
0.276597 -1.066192 0.053099 0.681838 0.332332 0.651654 158 158 158
0.326471 -1.066192 0.000914 0.681838 0.332332 0.651654 158 158 158
0.232442 -0.873274 0.000914 0.681838 0.332332 0.651654 158 158 158
0.197175 -1.257932 -0.051271 0.692544 -0.286861 -0.661886 158 158 158
0.197175 -1.257932 -0.051271 -0.044848 0.018576 -0.998821 158 158 158
0.145120 -1.205878 -0.047965 -0.044848 0.018576 -0.998821 158 158 158
0.202980 -1.066192 -0.047965 -0.044848 0.018576 -0.998821 158 158 158
0.202980 -1.066192 -0.047965 -0.815165 0.337651 -0.470636 158 158 158
0.145120 -1.205878 -0.047965 -0.815165 0.337651 -0.470636 158 158 158
0.125165 -1.185923 0.000914 -0.815165 0.337651 -0.470636 158 158 158
0.125165 -1.185923 0.000914 -0.815164 0.337652 0.470636 158 158 158
0.145120 -1.205878 0.049794 -0.815164 0.337652 0.470636 158 158 158
0.202980 -1.066192 0.049794 -0.815164 0.337652 0.470636 158 158 158
0.145120 -1.205878 0.049794 -0.044848 0.018576 0.998821 158 158 158
0.197175 -1.257932 0.053099 0.692544 -0.286861 0.661886 158 158 158
0.005435 -1.387228 0.000914 0.286862 -0.692545 -0.661885 158 158 158
0.005435 -1.337354 -0.051271 0.286862 -0.692545 -0.661885 158 158 158
0.197175 -1.257932 -0.051271 0.286862 -0.692545 -0.661885 158 158 158
0.005435 -1.337354 -0.051271 -0.018576 0.044847 -0.998821 158 158 158
0.005435 -1.263737 -0.047965 -0.018576 0.044847 -0.998821 158 158 158
0.145120 -1.205878 -0.047965 -0.018576 0.044847 -0.998821 158 158 158
0.005435 -1.263737 -0.047965 -0.337653 0.815166 -0.470632 158 158 158
0.005435 -1.235517 0.000914 -0.337653 0.815166 -0.470632 158 158 158
0.125165 -1.185923 0.000914 -0.337653 0.815166 -0.470632 158 158 158
0.125165 -1.185923 0.000914 -0.337653 0.815166 0.470632 158 158 158
0.005435 -1.235517 0.000914 -0.337653 0.815166 0.470632 158 158 158
0.005435 -1.263737 0.049794 -0.337653 0.815166 0.470632 158 158 158
0.145120 -1.205878 0.049794 -0.018576 0.044848 0.998821 158 158 158
0.005435 -1.263737 0.049794 -0.018576 0.044848 0.998821 158 158 158
0.005435 -1.337354 0.053099 -0.018576 0.044848 0.998821 158 158 158
0.197175 -1.257932 0.053099 0.286862 -0.692545 0.661885 158 158 158
0.005435 -1.337354 0.053099 0.286862 -0.692545 0.661885 158 158 158
0.005435 -1.387228 0.000914 0.286862 -0.692545 0.661885 158 158 158
0.005435 -1.387228 0.000914 -0.286861 -0.692544 -0.661886 158 158 158
-0.221572 -1.293199 0.000914 -0.286861 -0.692544 -0.661886 158 158 158
-0.186305 -1.257932 -0.051271 -0.286861 -0.692544 -0.661886 158 158 158
0.005435 -1.337354 -0.051271 0.018577 0.044848 -0.998821 158 158 158
-0.186305 -1.257932 -0.051271 0.018577 0.044848 -0.998821 158 158 158
-0.134250 -1.205878 -0.047965 0.018577 0.044848 -0.998821 158 158 158
0.005435 -1.263737 -0.047965 0.337651 0.815164 -0.470637 158 158 158
-0.134250 -1.205878 -0.047965 0.337651 0.815164 -0.470637 158 158 158
-0.114295 -1.185923 0.000914 0.337651 0.815164 -0.470637 158 158 158
-0.114295 -1.185923 0.000914 0.337651 0.815164 0.470637 158 158 158
-0.134250 -1.205878 0.049794 0.337651 0.815164 0.470637 158 158 158
0.005435 -1.263737 0.049794 0.337651 0.815164 0.470637 158 158 158
-0.134250 -1.205878 0.049794 0.018577 0.044848 0.998821 158 158 158
-0.186305 -1.257932 0.053099 0.018577 0.044848 0.998821 158 158 158
0.005435 -1.337354 0.053099 0.018577 0.044848 0.998821 158 158 158
-0.186305 -1.257932 0.053099 -0.286862 -0.692544 0.661886 158 158 158
-0.221572 -1.293199 0.000914 -0.286862 -0.692544 0.661886 158 158 158
0.005435 -1.387228 0.000914 -0.286862 -0.692544 0.661886 158 158 158
-0.315601 -1.066192 0.000914 -0.692544 -0.286862 -0.661886 158 158 158
-0.265726 -1.066192 -0.051271 0.044848 0.018576 -0.998821 158 158 158
-0.192109 -1.066193 -0.047965 0.815165 0.337653 -0.470635 158 158 158
-0.163889 -1.066193 0.000914 0.815165 0.337653 -0.470635 158 158 158
-0.114295 -1.185923 0.000914 0.815165 0.337653 -0.470635 158 158 158
-0.114295 -1.185923 0.000914 0.815165 0.337653 0.470634 158 158 158
-0.163889 -1.066193 0.000914 0.815165 0.337653 0.470634 158 158 158
-0.192109 -1.066193 0.049794 0.815165 0.337653 0.470634 158 158 158
-0.265726 -1.066192 0.053099 0.044848 0.018577 0.998821 158 158 158
-0.315601 -1.066192 0.000914 -0.692544 -0.286862 0.661886 158 158 158
-0.186305 -0.874452 -0.051271 -0.648893 0.611826 -0.452335 158 158 158
-0.221572 -0.873274 0.000914 -0.648893 0.611826 -0.452335 158 158 158
-0.147337 -0.794226 0.001341 -0.648893 0.611826 -0.452335 158 158 158
-0.122606 0.109727 -0.119238 -0.898037 0.399506 -0.184187 158 158 158
-0.002028 0.163890 -0.122203 -0.203534 0.404306 -0.891690 158 158 158
0.197175 -0.874452 0.053099 0.602409 0.677260 0.422400 158 158 158
0.232442 -0.873274 0.000914 0.602409 0.677260 0.422400 158 158 158
0.143273 -0.794226 0.001341 0.602409 0.677260 0.422400 158 158 158
-0.122606 0.109727 0.121910 -0.203535 0.404301 0.891692 158 158 158
0.098549 0.163890 0.101916 0.898035 0.399503 0.184200 158 158 158
0.118543 0.109727 0.121910 0.898035 0.399503 0.184200 158 158 158
0.143273 0.109727 0.001341 0.898035 0.399503 0.184200 158 158 158
0.197175 -0.874452 0.053099 -0.373578 -0.927599 0.000000 158 158 158
-0.002027 -0.794226 -0.120761 -0.373578 -0.927599 0.000000 158 158 158
0.197175 -0.874452 -0.051271 -0.373578 -0.927599 0.000000 158 158 158
0.118543 -0.794226 0.096384 0.501030 0.855554 0.130369 158 158 158
0.143273 -0.794226 0.001341 0.501030 0.855554 0.130369 158 158 158
0.088365 -0.762071 0.001339 0.501030 0.855554 0.130369 158 158 158
-0.122606 0.109727 0.121910 -0.112990 -0.861508 0.495012 158 158 158
0.118543 0.109727 0.121910 0.502652 -0.858319 0.103101 158 158 158
-0.002027 -0.794226 -0.120761 0.164722 0.672430 -0.721598 158 158 158
-0.002028 -0.762071 -0.090797 0.164722 0.672430 -0.721598 158 158 158
0.072979 -0.762071 -0.073674 0.164722 0.672430 -0.721598 158 158 158
0.118543 0.109727 -0.119238 0.112996 -0.861513 -0.495002 158 158 158
-0.122606 -0.794226 0.096384 -0.540071 0.834298 0.110776 158 158 158
-0.077042 -0.762071 0.076347 -0.540071 0.834298 0.110776 158 158 158
-0.092427 -0.762071 0.001339 -0.540071 0.834298 0.110776 158 158 158
-0.147337 0.109727 0.001341 -0.502646 -0.858323 0.103100 158 158 158
-0.092427 0.077572 0.001339 -0.502646 -0.858323 0.103100 158 158 158
-0.077042 0.077572 0.076347 -0.502646 -0.858323 0.103100 158 158 158
0.118543 -0.794226 -0.093238 0.540816 0.833796 -0.110921 158 158 158
0.072979 -0.762071 -0.073674 0.540816 0.833796 -0.110921 158 158 158
0.088365 -0.762071 0.001339 0.540816 0.833796 -0.110921 158 158 158
0.098549 0.163890 0.101916 0.203549 0.404303 0.891687 158 158 158
-0.002028 0.163890 0.124875 0.203549 0.404303 0.891687 158 158 158
-0.002027 0.109727 0.149433 0.203549 0.404303 0.891687 158 158 158
0.098549 0.163890 -0.099244 0.898039 0.399500 -0.184187 158 158 158
0.119178 0.163890 0.001340 0.898039 0.399500 -0.184187 158 158 158
0.143273 0.109727 0.001341 0.898039 0.399500 -0.184187 158 158 158
0.197175 -0.874452 -0.051271 0.749612 0.632188 -0.196010 158 158 158
0.118543 -0.794226 -0.093238 0.749612 0.632188 -0.196010 158 158 158
0.143273 -0.794226 0.001341 0.749612 0.632188 -0.196010 158 158 158
-0.123241 0.163890 0.001340 -0.898033 0.399508 0.184200 158 158 158
-0.186305 -0.874452 0.053099 -0.817887 0.534575 0.212816 158 158 158
-0.122606 -0.794226 0.096384 -0.817887 0.534575 0.212816 158 158 158
-0.147337 -0.794226 0.001341 -0.817887 0.534575 0.212816 158 158 158
0.118543 0.109727 -0.119238 0.203548 0.404308 -0.891685 158 158 158
0.088365 0.077572 0.001339 0.979608 0.000000 -0.200916 255 255 255
0.088365 -0.762071 0.001339 0.979608 0.000000 -0.200916 255 255 255
0.072979 -0.762071 -0.073674 0.979608 0.000000 -0.200916 255 255 255
-0.002028 -0.762071 -0.090797 -0.222533 0.000000 -0.974925 255 255 255
0.072979 -0.762071 0.076347 0.222549 0.000000 0.974921 255 255 255
-0.092427 -0.762071 0.001339 -0.979605 -0.000000 0.200931 255 255 255
0.072979 -0.762071 0.076347 0.979605 0.000000 0.200931 255 255 255
-0.077042 -0.762071 -0.073674 -0.979608 -0.000000 -0.200917 255 255 255
-0.077042 -0.762071 0.076347 -0.222533 -0.000000 0.974925 255 255 255
0.072979 -0.762071 -0.073674 0.222549 0.000000 -0.974921 255 255 255
0.005435 -0.795031 0.114063 -0.194266 0.487768 0.851084 158 158 158
-0.002028 -0.762071 0.093470 -0.194266 0.487768 0.851084 158 158 158
-0.077042 -0.762071 0.076347 -0.194266 0.487768 0.851084 158 158 158
-0.002028 0.077572 -0.090797 -0.112989 -0.861512 -0.495006 158 158 158
-0.122606 -0.794226 -0.093238 -0.164711 0.672425 -0.721606 158 158 158
-0.122606 0.109727 -0.119238 -0.502650 -0.858321 -0.103093 158 158 158
-0.122606 -0.794226 -0.093238 -0.500986 0.855484 -0.130999 158 158 158
-0.147337 -0.794226 0.001341 -0.500986 0.855484 -0.130999 158 158 158
-0.092427 -0.762071 0.001339 -0.500986 0.855484 -0.130999 158 158 158
-0.002028 0.077572 0.093470 0.112997 -0.861510 0.495008 158 158 158
0.005435 -0.795031 0.114063 0.114583 0.637244 0.762096 158 158 158
0.118543 -0.794226 0.096384 0.114583 0.637244 0.762096 158 158 158
0.072979 -0.762071 0.076347 0.114583 0.637244 0.762096 158 158 158
0.088365 0.077572 0.001339 0.502656 -0.858317 -0.103094 158 158 158
-0.186305 -0.874452 -0.051271 0.394142 -0.918916 -0.015673 158 158 158
-0.002027 -0.794226 -0.120761 0.394142 -0.918916 -0.015673 158 158 158
0.005435 -0.795031 0.114063 0.394142 -0.918916 -0.015673 158 158 158
0.005435 -0.795031 0.114063 0.382683 -0.923880 0.000000 158 158 158
-0.186305 -0.874452 0.053099 0.382683 -0.923880 0.000000 158 158 158
-0.186305 -0.874452 -0.051271 0.382683 -0.923880 0.000000 158 158 158
3 0 1 2
3 3 4 5
3 6 7 8
3 9 10 11
3 12 13 14
3 15 16 17
3 18 19 20
3 21 22 23
3 24 25 26
3 27 28 29
3 30 31 32
3 33 34 35
3 36 37 38
3 39 40 41
3 42 43 44
3 45 46 47
3 48 49 50
3 51 52 53
3 54 55 56
3 57 58 59
3 60 61 62
3 63 64 65
3 66 67 68
3 69 70 71
3 72 73 74
3 75 76 77
3 78 79 80
3 81 82 83
3 84 85 86
3 87 88 89
3 90 91 92
3 93 94 95
3 96 97 98
3 99 100 101
3 102 103 104
3 105 106 107
3 108 109 110
3 111 112 113
3 114 115 116
3 117 118 119
3 120 121 122
3 123 124 125
3 126 127 128
3 129 130 131
3 132 133 134
3 135 136 137
3 138 139 140
3 141 142 143
3 144 145 146
3 147 148 149
3 150 151 152
3 153 154 155
3 156 157 158
3 159 160 161
3 162 163 164
3 165 166 167
3 168 169 170
3 171 172 173
3 174 175 176
3 177 178 179
3 180 181 182
3 183 184 185
3 186 187 188
3 188 189 190
3 182 191 192
3 193 194 195
3 196 197 198
3 199 200 201
3 202 203 204
3 205 206 207
3 208 209 210
3 211 212 213
3 214 215 216
3 185 217 186
3 190 218 180
3 192 219 183
3 220 221 222
3 223 224 225
3 226 227 228
3 229 230 231
3 232 233 234
3 235 236 237
3 238 239 240
3 241 242 243
3 244 245 246
3 247 248 249
3 250 251 252
3 253 254 255
3 256 257 258
3 259 260 261
3 262 263 264
3 265 266 267
3 268 269 270
3 271 272 273
3 274 275 276
3 277 278 279
3 280 281 282
3 283 284 285
3 286 287 288
3 289 290 291
3 292 293 294
3 295 296 297
3 298 299 300
3 301 302 303
3 304 305 306
3 307 308 309
3 310 311 312
3 313 314 315
3 316 317 318
3 319 320 321
3 322 323 324
3 325 326 327
3 328 329 330
3 331 332 333
3 334 335 336
3 337 338 339
3 340 341 342
3 343 344 345
3 346 347 348
3 349 350 351
3 352 353 354
3 355 356 357
3 358 359 360
3 361 362 363
3 364 365 366
3 45 367 46
3 368 369 370
3 371 372 373
3 374 375 376
3 377 378 379
3 60 380 61
3 381 382 383
3 384 385 386
3 387 388 389
3 72 390 73
3 75 391 76
3 392 393 394
3 395 396 397
3 398 399 400
3 401 402 403
3 404 405 406
3 407 408 409
3 410 411 412
3 413 414 415
3 416 417 418
3 419 420 421
3 422 423 424
3 425 426 427
3 114 428 115
3 117 429 118
3 430 431 432
3 433 434 435
3 126 436 127
3 129 437 130
3 180 218 181
3 183 219 184
3 186 217 187
3 188 187 189
3 182 181 191
3 438 439 440
3 196 441 197
3 202 442 203
3 443 444 445
3 211 446 212
3 447 448 449
3 185 184 217
3 190 189 218
3 192 191 219
3 450 451 452
3 453 454 455
3 226 456 227
3 229 457 230
3 458 459 460
3 235 461 236
3 462 463 464
3 465 466 467
3 468 469 470
3 471 472 473
3 474 475 476
3 477 478 479
3 259 480 260
3 481 482 483
3 265 484 266
3 485 486 487
3 274 488 275
3 277 489 278
3 280 490 281
3 283 491 284
3 286 492 287
3 289 493 290
3 292 494 293
3 495 496 497
3 298 498 299
3 301 499 302
3 304 500 305
3 501 502 503
3 310 504 311
3 505 506 507
3 316 508 317
3 509 510 511
3 512 513 514
