ply
format ascii 1.0
comment Created by Blender 2.77 (sub 0) - www.blender.org, source file: 'SteelArrow.blend'
element vertex 513
property float x
property float y
property float z
property float nx
property float ny
property float nz
property uchar red
property uchar green
property uchar blue
element face 200
property list uchar uint vertex_indices
end_header
0.001376 0.159464 0.021582 0.223831 0.002399 0.974625 222 222 222
-0.000000 -0.269625 0.022954 0.223831 0.002399 0.974625 222 222 222
0.018190 -0.269623 0.018776 0.223831 0.002399 0.974625 222 222 222
0.020625 0.159465 -0.001013 0.979609 0.002313 -0.200901 222 222 222
0.021944 -0.269625 0.000474 0.979609 0.002313 -0.200901 222 222 222
0.018190 -0.269623 -0.017829 0.979609 0.002313 -0.200901 222 222 222
0.017275 0.193042 -0.016914 0.796132 -0.582676 -0.163286 145 145 145
0.060411 0.247108 0.000474 0.796132 -0.582676 -0.163286 145 145 145
0.020841 0.193042 0.000474 0.796132 -0.582676 -0.163286 145 145 145
-0.000000 -0.269625 0.000474 0.000085 -1.000000 0.000000 222 222 222
0.018190 -0.269623 0.018776 0.000085 -1.000000 0.000000 222 222 222
-0.000000 -0.269625 0.022954 0.000085 -1.000000 0.000000 222 222 222
0.017275 0.193042 0.017861 0.181120 -0.588007 0.788316 145 145 145
0.000000 0.247108 0.062159 0.181120 -0.588007 0.788316 145 145 145
0.000000 0.193042 0.021830 0.181120 -0.588007 0.788316 145 145 145
0.000953 0.389388 0.000474 0.706276 0.342651 -0.619488 145 145 145
0.000000 0.389388 -0.000613 0.706276 0.342651 -0.619488 145 145 145
0.000000 0.391353 0.000474 0.706276 0.342651 -0.619488 145 145 145
0.060411 0.247108 0.000474 0.906674 0.378895 -0.185421 145 145 145
0.000772 0.389388 -0.000411 0.906674 0.378895 -0.185421 145 145 145
0.000953 0.389388 0.000474 0.906674 0.378895 -0.185421 145 145 145
0.000000 0.247108 0.062159 0.234696 0.380899 0.894334 145 145 145
0.000772 0.389388 0.001359 0.234696 0.380899 0.894334 145 145 145
0.000000 0.389388 0.001561 0.234696 0.380899 0.894334 145 145 145
0.000000 0.247108 -0.061211 0.205928 0.383584 -0.900254 145 145 145
0.000772 0.389388 -0.000411 0.205928 0.383584 -0.900254 145 145 145
0.050110 0.247108 -0.049749 0.205928 0.383584 -0.900254 145 145 145
0.017275 0.193042 -0.016914 0.180322 -0.588259 -0.788311 145 145 145
0.000000 0.247108 -0.061211 0.180322 -0.588259 -0.788311 145 145 145
0.050110 0.247108 -0.049749 0.180322 -0.588259 -0.788311 145 145 145
0.018190 -0.269623 -0.017829 0.222549 0.002347 -0.974919 222 222 222
0.001376 0.159464 -0.020635 0.222549 0.002347 -0.974919 222 222 222
0.017349 0.159465 -0.016988 0.222549 0.002347 -0.974919 222 222 222
0.060411 0.247108 0.000474 0.906581 0.378854 0.185961 145 145 145
0.000772 0.389388 0.001359 0.906581 0.378854 0.185961 145 145 145
0.050110 0.247108 0.050696 0.906581 0.378854 0.185961 145 145 145
0.000000 0.389388 0.001561 0.706276 0.342651 0.619487 145 145 145
0.000953 0.389388 0.000474 0.706276 0.342651 0.619487 145 145 145
0.000000 0.391353 0.000474 0.706276 0.342651 0.619487 145 145 145
0.018190 -0.269623 -0.017829 0.000085 -1.000000 -0.000000 222 222 222
-0.000000 -0.269625 -0.022007 0.000085 -1.000000 -0.000000 222 222 222
0.017275 0.193042 0.017861 0.796131 -0.582673 0.163305 145 145 145
0.060411 0.247108 0.000474 0.796131 -0.582673 0.163305 145 145 145
0.050110 0.247108 0.050696 0.796131 -0.582673 0.163305 145 145 145
0.018190 -0.269623 0.018776 0.979603 0.002313 0.200931 222 222 222
0.020625 0.159465 0.001962 0.979603 0.002313 0.200931 222 222 222
0.017349 0.159465 0.017936 0.979603 0.002313 0.200931 222 222 222
0.051410 -0.207274 0.017160 -0.094925 0.000000 0.995484 133 11 14
0.014980 -0.132244 0.013686 -0.094925 0.000000 0.995484 133 11 14
0.014980 -0.247238 0.013686 -0.094925 0.000000 0.995484 133 11 14
0.081217 -0.301121 -0.013428 1.000000 -0.000000 0.000000 179 84 0
0.081217 -0.162684 0.012066 1.000000 -0.000000 0.000000 179 84 0
0.081217 -0.301121 0.012066 1.000000 -0.000000 0.000000 179 84 0
0.014980 -0.247238 -0.015050 -0.094902 -0.000000 -0.995487 133 11 14
0.051410 -0.207274 -0.018523 -0.094902 -0.000000 -0.995487 133 11 14
0.051410 -0.276039 -0.018523 -0.094902 -0.000000 -0.995487 133 11 14
0.014980 -0.247238 0.013686 -1.000000 0.000000 0.000000 133 11 14
0.014980 -0.132244 -0.015050 -1.000000 0.000000 0.000000 133 11 14
0.014980 -0.247238 -0.015050 -1.000000 0.000000 0.000000 133 11 14
0.081217 -0.162684 0.012066 0.438244 0.898856 -0.000000 179 84 0
0.051410 -0.148152 -0.007107 0.438244 0.898856 -0.000000 179 84 0
0.051410 -0.148152 0.017160 0.438244 0.898856 -0.000000 179 84 0
0.081217 -0.301121 -0.013428 -0.643853 -0.765149 0.000000 179 84 0
0.051410 -0.276039 0.005744 -0.643853 -0.765149 0.000000 179 84 0
0.051410 -0.276039 -0.018523 -0.643853 -0.765149 0.000000 179 84 0
0.018190 -0.269623 0.018776 0.222549 0.002347 0.974919 222 222 222
0.017349 0.159465 0.017936 0.222549 0.002347 0.974919 222 222 222
0.001376 0.159464 0.021582 0.222549 0.002347 0.974919 222 222 222
0.018190 -0.269623 -0.017829 0.979606 0.002313 -0.200916 222 222 222
0.017349 0.159465 -0.016988 0.979606 0.002313 -0.200916 222 222 222
0.020625 0.159465 -0.001013 0.979606 0.002313 -0.200916 222 222 222
0.017275 0.193042 -0.016914 0.796133 -0.582671 -0.163301 145 145 145
0.050110 0.247108 -0.049749 0.796133 -0.582671 -0.163301 145 145 145
0.060411 0.247108 0.000474 0.796133 -0.582671 -0.163301 145 145 145
-0.000000 -0.269625 0.000474 0.000000 -1.000000 0.000085 222 222 222
0.021944 -0.269625 0.000474 0.000000 -1.000000 0.000085 222 222 222
0.018190 -0.269623 0.018776 0.000000 -1.000000 0.000085 222 222 222
0.017275 0.193042 0.017861 0.180322 -0.588259 0.788312 145 145 145
0.050110 0.247108 0.050696 0.180322 -0.588259 0.788312 145 145 145
0.000000 0.247108 0.062159 0.180322 -0.588259 0.788312 145 145 145
0.000953 0.389388 0.000474 0.000000 1.000000 0.000000 145 145 145
0.000772 0.389388 -0.000411 0.000000 1.000000 0.000000 145 145 145
0.000000 0.389388 -0.000613 0.000000 1.000000 0.000000 145 145 145
0.060411 0.247108 0.000474 0.906582 0.378853 -0.185956 145 145 145
0.050110 0.247108 -0.049749 0.906582 0.378853 -0.185956 145 145 145
0.000772 0.389388 -0.000411 0.906582 0.378853 -0.185956 145 145 145
0.000000 0.247108 0.062159 0.205928 0.383584 0.900254 145 145 145
0.050110 0.247108 0.050696 0.205928 0.383584 0.900254 145 145 145
0.000772 0.389388 0.001359 0.205928 0.383584 0.900254 145 145 145
0.000000 0.247108 -0.061211 0.233014 0.381065 -0.894703 145 145 145
0.000000 0.389388 -0.000613 0.233014 0.381065 -0.894703 145 145 145
0.000772 0.389388 -0.000411 0.233014 0.381065 -0.894703 145 145 145
0.017275 0.193042 -0.016914 0.181121 -0.588008 -0.788316 145 145 145
0.000000 0.193042 -0.020883 0.181121 -0.588008 -0.788316 145 145 145
0.000000 0.247108 -0.061211 0.181121 -0.588008 -0.788316 145 145 145
-0.000000 -0.269625 -0.022007 0.223831 0.002399 -0.974625 222 222 222
0.001376 0.159464 -0.020635 0.223831 0.002399 -0.974625 222 222 222
0.018190 -0.269623 -0.017829 0.223831 0.002399 -0.974625 222 222 222
0.060411 0.247108 0.000474 0.906620 0.378872 0.185731 145 145 145
0.000953 0.389388 0.000474 0.906620 0.378872 0.185731 145 145 145
0.000772 0.389388 0.001359 0.906620 0.378872 0.185731 145 145 145
0.000000 0.389388 0.001561 0.000000 1.000000 0.000000 145 145 145
0.000772 0.389388 0.001359 0.000000 1.000000 0.000000 145 145 145
0.018190 -0.269623 -0.017829 -0.000000 -1.000000 -0.000085 222 222 222
0.021944 -0.269625 0.000474 -0.000000 -1.000000 -0.000085 222 222 222
-0.000000 -0.269625 0.000474 -0.000000 -1.000000 -0.000085 222 222 222
0.017275 0.193042 0.017861 0.796131 -0.582675 0.163298 145 145 145
0.020841 0.193042 0.000474 0.796131 -0.582675 0.163298 145 145 145
0.060411 0.247108 0.000474 0.796131 -0.582675 0.163298 145 145 145
0.021944 -0.269625 0.000474 0.979605 0.002313 0.200917 222 222 222
0.020625 0.159465 0.001962 0.979605 0.002313 0.200917 222 222 222
0.018190 -0.269623 0.018776 0.979605 0.002313 0.200917 222 222 222
0.051410 -0.276039 0.017160 -0.094925 -0.000000 0.995484 133 11 14
0.081217 -0.162684 -0.013428 1.000000 -0.000000 0.000000 179 84 0
0.014980 -0.132244 -0.015050 -0.094902 0.000000 -0.995487 133 11 14
0.014980 -0.132244 0.013686 -1.000000 0.000000 0.000000 133 11 14
0.081217 -0.162684 -0.013428 0.438244 0.898856 0.000000 179 84 0
0.081217 -0.301121 0.012066 -0.643853 -0.765149 0.000000 179 84 0
0.000000 0.159543 0.025114 0.237293 0.003058 0.971433 63 63 63
0.001597 0.159543 0.024724 0.237293 0.003058 0.971433 63 63 63
0.000000 0.192883 0.025009 0.237293 0.003058 0.971433 63 63 63
0.017275 0.193042 -0.016914 0.011456 0.998691 -0.049859 63 63 63
0.000000 0.192883 -0.024062 0.011456 0.998691 -0.049859 63 63 63
0.000000 0.193042 -0.020883 0.011456 0.998691 -0.049859 63 63 63
0.020931 0.159465 0.000474 0.025316 -0.999666 -0.005227 63 63 63
0.023713 0.159544 -0.001235 0.025316 -0.999666 -0.005227 63 63 63
0.024063 0.159544 0.000474 0.025316 -0.999666 -0.005227 63 63 63
0.017349 0.159465 -0.016988 0.025322 -0.999666 -0.005183 63 63 63
0.023713 0.159544 -0.001235 0.025322 -0.999666 -0.005183 63 63 63
0.020625 0.159465 -0.001013 0.025322 -0.999666 -0.005183 63 63 63
0.017275 0.193042 -0.016914 0.050817 0.998654 -0.010423 63 63 63
0.023960 0.192883 0.000474 0.050817 0.998654 -0.010423 63 63 63
0.019863 0.192883 -0.019502 0.050817 0.998654 -0.010423 63 63 63
0.017349 0.159465 0.017936 0.005712 -0.999675 0.024841 63 63 63
0.001597 0.159543 0.024724 0.005712 -0.999675 0.024841 63 63 63
0.001376 0.159464 0.021582 0.005712 -0.999675 0.024841 63 63 63
0.000000 0.159464 0.021921 0.006070 -0.999673 0.024848 63 63 63
0.001597 0.159543 0.024724 0.006070 -0.999673 0.024848 63 63 63
0.000000 0.159543 0.025114 0.006070 -0.999673 0.024848 63 63 63
0.020931 0.159465 0.000474 0.025313 -0.999665 0.005302 63 63 63
0.023713 0.159544 0.002183 0.025313 -0.999665 0.005302 63 63 63
0.020625 0.159465 0.001962 0.025313 -0.999665 0.005302 63 63 63
0.023713 0.159544 -0.001235 0.979604 0.003027 -0.200916 63 63 63
0.019863 0.192883 -0.019502 0.979604 0.003027 -0.200916 63 63 63
0.023960 0.192883 0.000474 0.979604 0.003027 -0.200916 63 63 63
0.001597 0.159543 -0.023777 0.222548 0.003070 -0.974917 63 63 63
0.019863 0.192883 -0.019502 0.222548 0.003070 -0.974917 63 63 63
0.019949 0.159544 -0.019588 0.222548 0.003070 -0.974917 63 63 63
0.023713 0.159544 0.002183 0.979603 0.003026 0.200918 63 63 63
0.024063 0.159544 0.000474 0.979603 0.003026 0.200918 63 63 63
0.023960 0.192883 0.000474 0.979603 0.003026 0.200918 63 63 63
0.001597 0.159543 0.024724 0.223742 0.002381 0.974646 63 63 63
0.019863 0.192883 0.020450 0.223742 0.002381 0.974646 63 63 63
0.000000 0.192883 0.025009 0.223742 0.002381 0.974646 63 63 63
0.024063 0.159544 0.000474 0.979607 0.003026 -0.200901 63 63 63
0.023713 0.159544 -0.001235 0.979607 0.003026 -0.200901 63 63 63
0.023960 0.192883 0.000474 0.979607 0.003026 -0.200901 63 63 63
0.023713 0.159544 0.002183 0.979601 0.003027 0.200930 63 63 63
0.019863 0.192883 0.020450 0.979601 0.003027 0.200930 63 63 63
0.019949 0.159544 0.020535 0.979601 0.003027 0.200930 63 63 63
0.001597 0.159543 -0.023777 0.237293 0.003058 -0.971433 63 63 63
0.000000 0.159543 -0.024167 0.237293 0.003058 -0.971433 63 63 63
0.000000 0.192883 -0.024062 0.237293 0.003058 -0.971433 63 63 63
0.017349 0.159465 -0.016988 0.005700 -0.999676 -0.024814 63 63 63
0.001597 0.159543 -0.023777 0.005700 -0.999676 -0.024814 63 63 63
0.019949 0.159544 -0.019588 0.005700 -0.999676 -0.024814 63 63 63
0.017275 0.193042 0.017861 0.050817 0.998654 0.010423 63 63 63
0.023960 0.192883 0.000474 0.050817 0.998654 0.010423 63 63 63
0.020841 0.193042 0.000474 0.050817 0.998654 0.010423 63 63 63
0.017349 0.159465 0.017936 0.025334 -0.999666 0.005181 63 63 63
0.023713 0.159544 0.002183 0.025334 -0.999666 0.005181 63 63 63
0.019949 0.159544 0.020535 0.025334 -0.999666 0.005181 63 63 63
0.000000 0.159464 -0.020974 0.006136 -0.999673 -0.024810 63 63 63
0.001597 0.159543 -0.023777 0.006136 -0.999673 -0.024810 63 63 63
0.001376 0.159464 -0.020635 0.006136 -0.999673 -0.024810 63 63 63
0.017275 0.193042 0.017861 0.011434 0.998693 0.049808 63 63 63
0.000000 0.192883 0.025009 0.011434 0.998693 0.049808 63 63 63
0.019863 0.192883 0.020450 0.011434 0.998693 0.049808 63 63 63
0.051410 -0.148152 -0.007107 0.400167 0.916443 -0.000000 133 11 14
0.014980 -0.132244 0.013686 0.400167 0.916443 -0.000000 133 11 14
0.051410 -0.148152 0.017160 0.400167 0.916443 -0.000000 133 11 14
0.051410 -0.148152 -0.007107 0.400166 0.916442 0.000000 133 11 14
0.051410 -0.148152 -0.018523 0.400166 0.916442 0.000000 133 11 14
0.014980 -0.132244 -0.015050 0.400166 0.916442 0.000000 133 11 14
0.051410 -0.148152 0.017160 0.168447 0.000000 0.985711 179 84 0
0.051410 -0.207274 0.017160 0.168447 0.000000 0.985711 179 84 0
0.081217 -0.162684 0.012066 0.168447 0.000000 0.985711 179 84 0
0.081217 -0.301121 0.012066 0.168447 -0.000000 0.985711 179 84 0
0.051410 -0.207274 -0.018523 0.168469 -0.000000 -0.985707 179 84 0
0.081217 -0.301121 -0.013428 0.168469 -0.000000 -0.985707 179 84 0
0.051410 -0.276039 -0.018523 0.168469 -0.000000 -0.985707 179 84 0
0.051410 -0.148152 -0.018523 0.168469 -0.000000 -0.985707 179 84 0
0.081217 -0.162684 -0.013428 0.168469 -0.000000 -0.985707 179 84 0
0.051410 -0.276039 0.005744 -0.620173 -0.784465 0.000000 133 11 14
0.014980 -0.247238 -0.015050 -0.620173 -0.784465 0.000000 133 11 14
0.051410 -0.276039 -0.018523 -0.620173 -0.784465 0.000000 133 11 14
0.051410 -0.276039 0.017160 -0.620173 -0.784465 -0.000000 133 11 14
0.014980 -0.247238 0.013686 -0.620173 -0.784465 -0.000000 133 11 14
-0.000000 -0.269625 0.022954 -0.223831 0.002399 0.974625 222 222 222
-0.001376 0.159464 0.021582 -0.223831 0.002399 0.974625 222 222 222
-0.018190 -0.269623 0.018776 -0.223831 0.002399 0.974625 222 222 222
-0.021944 -0.269625 0.000474 -0.979609 0.002313 -0.200901 222 222 222
-0.020625 0.159465 -0.001013 -0.979609 0.002313 -0.200901 222 222 222
-0.018190 -0.269623 -0.017829 -0.979609 0.002313 -0.200901 222 222 222
-0.017275 0.193042 -0.016914 -0.796132 -0.582676 -0.163286 145 145 145
-0.020841 0.193042 0.000474 -0.796132 -0.582676 -0.163286 145 145 145
-0.060411 0.247108 0.000474 -0.796132 -0.582676 -0.163286 145 145 145
-0.000000 -0.269625 0.000474 -0.000085 -1.000000 0.000000 222 222 222
-0.000000 -0.269625 0.022954 -0.000085 -1.000000 0.000000 222 222 222
-0.018190 -0.269623 0.018776 -0.000085 -1.000000 0.000000 222 222 222
-0.017275 0.193042 0.017861 -0.181121 -0.588007 0.788316 145 145 145
0.000000 0.193042 0.021830 -0.181121 -0.588007 0.788316 145 145 145
0.000000 0.247108 0.062159 -0.181121 -0.588007 0.788316 145 145 145
-0.000953 0.389388 0.000474 -0.706276 0.342651 -0.619487 145 145 145
0.000000 0.391353 0.000474 -0.706276 0.342651 -0.619487 145 145 145
0.000000 0.389388 -0.000613 -0.706276 0.342651 -0.619487 145 145 145
-0.060411 0.247108 0.000474 -0.906674 0.378895 -0.185420 145 145 145
-0.000953 0.389388 0.000474 -0.906674 0.378895 -0.185420 145 145 145
-0.000772 0.389388 -0.000411 -0.906674 0.378895 -0.185420 145 145 145
0.000000 0.247108 0.062159 -0.234696 0.380899 0.894334 145 145 145
0.000000 0.389388 0.001561 -0.234696 0.380899 0.894334 145 145 145
-0.000772 0.389388 0.001359 -0.234696 0.380899 0.894334 145 145 145
0.000000 0.247108 -0.061211 -0.205928 0.383584 -0.900254 145 145 145
-0.050110 0.247108 -0.049749 -0.205928 0.383584 -0.900254 145 145 145
-0.000772 0.389388 -0.000411 -0.205928 0.383584 -0.900254 145 145 145
-0.017275 0.193042 -0.016914 -0.180322 -0.588259 -0.788311 145 145 145
-0.050110 0.247108 -0.049749 -0.180322 -0.588259 -0.788311 145 145 145
0.000000 0.247108 -0.061211 -0.180322 -0.588259 -0.788311 145 145 145
-0.018190 -0.269623 -0.017829 -0.222549 0.002347 -0.974919 222 222 222
-0.017349 0.159465 -0.016988 -0.222549 0.002347 -0.974919 222 222 222
-0.001376 0.159464 -0.020635 -0.222549 0.002347 -0.974919 222 222 222
-0.060411 0.247108 0.000474 -0.906581 0.378854 0.185961 145 145 145
-0.050110 0.247108 0.050696 -0.906581 0.378854 0.185961 145 145 145
-0.000772 0.389388 0.001359 -0.906581 0.378854 0.185961 145 145 145
0.000000 0.389388 0.001561 -0.706276 0.342651 0.619487 145 145 145
0.000000 0.391353 0.000474 -0.706276 0.342651 0.619487 145 145 145
-0.000953 0.389388 0.000474 -0.706276 0.342651 0.619487 145 145 145
-0.018190 -0.269623 -0.017829 -0.000085 -1.000000 0.000000 222 222 222
-0.000000 -0.269625 -0.022007 -0.000085 -1.000000 0.000000 222 222 222
-0.017275 0.193042 0.017861 -0.796131 -0.582673 0.163305 145 145 145
-0.050110 0.247108 0.050696 -0.796131 -0.582673 0.163305 145 145 145
-0.060411 0.247108 0.000474 -0.796131 -0.582673 0.163305 145 145 145
-0.018190 -0.269623 0.018776 -0.979603 0.002314 0.200931 222 222 222
-0.017349 0.159465 0.017936 -0.979603 0.002314 0.200931 222 222 222
-0.020625 0.159465 0.001962 -0.979603 0.002314 0.200931 222 222 222
-0.014980 -0.132244 0.013686 0.094925 -0.000000 0.995484 133 11 14
-0.051410 -0.207274 0.017160 0.094925 -0.000000 0.995484 133 11 14
-0.014980 -0.247238 0.013686 0.094925 -0.000000 0.995484 133 11 14
-0.081217 -0.301121 -0.013428 -1.000000 0.000000 0.000000 179 84 0
-0.081217 -0.301121 0.012066 -1.000000 0.000000 0.000000 179 84 0
-0.081217 -0.162684 0.012066 -1.000000 0.000000 0.000000 179 84 0
-0.014980 -0.247238 -0.015050 0.094902 -0.000000 -0.995487 133 11 14
-0.051410 -0.276039 -0.018523 0.094902 -0.000000 -0.995487 133 11 14
-0.051410 -0.207274 -0.018523 0.094902 -0.000000 -0.995487 133 11 14
-0.014980 -0.247238 0.013686 1.000000 -0.000000 -0.000000 133 11 14
-0.014980 -0.247238 -0.015050 1.000000 -0.000000 -0.000000 133 11 14
-0.014980 -0.132244 -0.015050 1.000000 -0.000000 -0.000000 133 11 14
-0.081217 -0.162684 0.012066 -0.438244 0.898856 -0.000000 179 84 0
-0.051410 -0.148152 0.017160 -0.438244 0.898856 -0.000000 179 84 0
-0.051410 -0.148152 -0.007107 -0.438244 0.898856 -0.000000 179 84 0
-0.081217 -0.301121 -0.013428 0.643853 -0.765149 0.000000 179 84 0
-0.051410 -0.276039 -0.018523 0.643853 -0.765149 0.000000 179 84 0
-0.051410 -0.276039 0.005744 0.643853 -0.765149 0.000000 179 84 0
-0.018190 -0.269623 0.018776 -0.222549 0.002347 0.974919 222 222 222
-0.001376 0.159464 0.021582 -0.222549 0.002347 0.974919 222 222 222
-0.017349 0.159465 0.017936 -0.222549 0.002347 0.974919 222 222 222
-0.018190 -0.269623 -0.017829 -0.979606 0.002314 -0.200916 222 222 222
-0.020625 0.159465 -0.001013 -0.979606 0.002314 -0.200916 222 222 222
-0.017349 0.159465 -0.016988 -0.979606 0.002314 -0.200916 222 222 222
-0.017275 0.193042 -0.016914 -0.796133 -0.582671 -0.163300 145 145 145
-0.060411 0.247108 0.000474 -0.796133 -0.582671 -0.163300 145 145 145
-0.050110 0.247108 -0.049749 -0.796133 -0.582671 -0.163300 145 145 145
-0.018190 -0.269623 0.018776 0.000000 -1.000000 0.000085 222 222 222
-0.021944 -0.269625 0.000474 0.000000 -1.000000 0.000085 222 222 222
-0.017275 0.193042 0.017861 -0.180322 -0.588259 0.788312 145 145 145
0.000000 0.247108 0.062159 -0.180322 -0.588259 0.788312 145 145 145
-0.050110 0.247108 0.050696 -0.180322 -0.588259 0.788312 145 145 145
-0.000953 0.389388 0.000474 -0.000000 1.000000 -0.000000 145 145 145
-0.000772 0.389388 -0.000411 -0.000000 1.000000 -0.000000 145 145 145
-0.060411 0.247108 0.000474 -0.906582 0.378853 -0.185956 145 145 145
-0.000772 0.389388 -0.000411 -0.906582 0.378853 -0.185956 145 145 145
-0.050110 0.247108 -0.049749 -0.906582 0.378853 -0.185956 145 145 145
0.000000 0.247108 0.062159 -0.205928 0.383584 0.900254 145 145 145
-0.000772 0.389388 0.001359 -0.205928 0.383584 0.900254 145 145 145
-0.050110 0.247108 0.050696 -0.205928 0.383584 0.900254 145 145 145
0.000000 0.247108 -0.061211 -0.233014 0.381065 -0.894703 145 145 145
-0.000772 0.389388 -0.000411 -0.233014 0.381065 -0.894703 145 145 145
0.000000 0.389388 -0.000613 -0.233014 0.381065 -0.894703 145 145 145
-0.017275 0.193042 -0.016914 -0.181121 -0.588008 -0.788316 145 145 145
0.000000 0.247108 -0.061211 -0.181121 -0.588008 -0.788316 145 145 145
0.000000 0.193042 -0.020883 -0.181121 -0.588008 -0.788316 145 145 145
-0.001376 0.159464 -0.020635 -0.223831 0.002399 -0.974625 222 222 222
-0.000000 -0.269625 -0.022007 -0.223831 0.002399 -0.974625 222 222 222
-0.018190 -0.269623 -0.017829 -0.223831 0.002399 -0.974625 222 222 222
-0.060411 0.247108 0.000474 -0.906620 0.378872 0.185731 145 145 145
-0.000772 0.389388 0.001359 -0.906620 0.378872 0.185731 145 145 145
-0.000953 0.389388 0.000474 -0.906620 0.378872 0.185731 145 145 145
-0.000772 0.389388 0.001359 -0.000000 1.000000 0.000000 145 145 145
-0.018190 -0.269623 -0.017829 -0.000000 -1.000000 -0.000085 222 222 222
-0.021944 -0.269625 0.000474 -0.000000 -1.000000 -0.000085 222 222 222
-0.017275 0.193042 0.017861 -0.796131 -0.582675 0.163298 145 145 145
-0.060411 0.247108 0.000474 -0.796131 -0.582675 0.163298 145 145 145
-0.020841 0.193042 0.000474 -0.796131 -0.582675 0.163298 145 145 145
-0.020625 0.159465 0.001962 -0.979605 0.002313 0.200917 222 222 222
-0.021944 -0.269625 0.000474 -0.979605 0.002313 0.200917 222 222 222
-0.018190 -0.269623 0.018776 -0.979605 0.002313 0.200917 222 222 222
-0.051410 -0.276039 0.017160 0.094925 -0.000000 0.995484 133 11 14
-0.081217 -0.162684 -0.013428 -1.000000 0.000000 0.000000 179 84 0
-0.014980 -0.132244 -0.015050 0.094902 -0.000000 -0.995487 133 11 14
-0.014980 -0.132244 0.013686 1.000000 -0.000000 -0.000000 133 11 14
-0.081217 -0.162684 -0.013428 -0.438244 0.898856 0.000000 179 84 0
-0.081217 -0.301121 0.012066 0.643853 -0.765149 0.000000 179 84 0
0.000000 0.159543 0.025114 -0.237293 0.003058 0.971433 63 63 63
0.000000 0.192883 0.025009 -0.237293 0.003058 0.971433 63 63 63
-0.001597 0.159543 0.024724 -0.237293 0.003058 0.971433 63 63 63
0.000000 0.192883 -0.024062 -0.011456 0.998691 -0.049859 63 63 63
-0.017275 0.193042 -0.016914 -0.011456 0.998691 -0.049859 63 63 63
0.000000 0.193042 -0.020883 -0.011456 0.998691 -0.049859 63 63 63
-0.020931 0.159465 0.000474 -0.025319 -0.999666 -0.005223 63 63 63
-0.023713 0.159544 -0.001235 -0.025319 -0.999666 -0.005223 63 63 63
-0.020625 0.159465 -0.001013 -0.025319 -0.999666 -0.005223 63 63 63
-0.023713 0.159544 -0.001235 -0.025322 -0.999666 -0.005183 63 63 63
-0.017349 0.159465 -0.016988 -0.025322 -0.999666 -0.005183 63 63 63
-0.020625 0.159465 -0.001013 -0.025322 -0.999666 -0.005183 63 63 63
-0.017275 0.193042 -0.016914 -0.050817 0.998654 -0.010423 63 63 63
-0.023960 0.192883 0.000474 -0.050817 0.998654 -0.010423 63 63 63
-0.020841 0.193042 0.000474 -0.050817 0.998654 -0.010423 63 63 63
-0.001597 0.159543 0.024724 -0.005712 -0.999675 0.024841 63 63 63
-0.017349 0.159465 0.017936 -0.005712 -0.999675 0.024841 63 63 63
-0.001376 0.159464 0.021582 -0.005712 -0.999675 0.024841 63 63 63
0.000000 0.159464 0.021921 -0.006136 -0.999673 0.024811 63 63 63
-0.001597 0.159543 0.024724 -0.006136 -0.999673 0.024811 63 63 63
-0.001376 0.159464 0.021582 -0.006136 -0.999673 0.024811 63 63 63
-0.023713 0.159544 0.002183 -0.025313 -0.999665 0.005302 63 63 63
-0.020931 0.159465 0.000474 -0.025313 -0.999665 0.005302 63 63 63
-0.020625 0.159465 0.001962 -0.025313 -0.999665 0.005302 63 63 63
-0.023713 0.159544 -0.001235 -0.979604 0.003027 -0.200916 63 63 63
-0.019863 0.192883 -0.019502 -0.979604 0.003027 -0.200916 63 63 63
-0.019949 0.159544 -0.019588 -0.979604 0.003027 -0.200916 63 63 63
-0.019863 0.192883 -0.019502 -0.222548 0.003070 -0.974917 63 63 63
-0.001597 0.159543 -0.023777 -0.222548 0.003070 -0.974917 63 63 63
-0.019949 0.159544 -0.019588 -0.222548 0.003070 -0.974917 63 63 63
-0.023713 0.159544 0.002183 -0.979603 0.003026 0.200918 63 63 63
-0.023960 0.192883 0.000474 -0.979603 0.003026 0.200918 63 63 63
-0.024063 0.159544 0.000474 -0.979603 0.003026 0.200918 63 63 63
-0.001597 0.159543 0.024724 -0.222548 0.003070 0.974917 63 63 63
-0.019863 0.192883 0.020450 -0.222548 0.003070 0.974917 63 63 63
-0.019948 0.159544 0.020535 -0.222548 0.003070 0.974917 63 63 63
-0.024063 0.159544 0.000474 -0.979607 0.003026 -0.200901 63 63 63
-0.023960 0.192883 0.000474 -0.979607 0.003026 -0.200901 63 63 63
-0.023713 0.159544 -0.001235 -0.979607 0.003026 -0.200901 63 63 63
-0.019863 0.192883 0.020450 -0.979601 0.003027 0.200930 63 63 63
-0.023713 0.159544 0.002183 -0.979601 0.003027 0.200930 63 63 63
-0.019948 0.159544 0.020535 -0.979601 0.003027 0.200930 63 63 63
-0.001597 0.159543 -0.023777 -0.237293 0.003058 -0.971433 63 63 63
0.000000 0.192883 -0.024062 -0.237293 0.003058 -0.971433 63 63 63
0.000000 0.159543 -0.024167 -0.237293 0.003058 -0.971433 63 63 63
-0.017349 0.159465 -0.016988 -0.005711 -0.999675 -0.024840 63 63 63
-0.001597 0.159543 -0.023777 -0.005711 -0.999675 -0.024840 63 63 63
-0.001376 0.159464 -0.020635 -0.005711 -0.999675 -0.024840 63 63 63
-0.023960 0.192883 0.000474 -0.050817 0.998654 0.010423 63 63 63
-0.017275 0.193042 0.017861 -0.050817 0.998654 0.010423 63 63 63
-0.020841 0.193042 0.000474 -0.050817 0.998654 0.010423 63 63 63
-0.017349 0.159465 0.017936 -0.025322 -0.999666 0.005176 63 63 63
-0.023713 0.159544 0.002183 -0.025322 -0.999666 0.005176 63 63 63
-0.020625 0.159465 0.001962 -0.025322 -0.999666 0.005176 63 63 63
-0.001597 0.159543 -0.023777 -0.006136 -0.999673 -0.024810 63 63 63
0.000000 0.159464 -0.020974 -0.006136 -0.999673 -0.024810 63 63 63
-0.001376 0.159464 -0.020635 -0.006136 -0.999673 -0.024810 63 63 63
-0.017275 0.193042 0.017861 -0.011456 0.998691 0.049860 63 63 63
0.000000 0.192883 0.025009 -0.011456 0.998691 0.049860 63 63 63
0.000000 0.193042 0.021830 -0.011456 0.998691 0.049860 63 63 63
-0.014980 -0.132244 0.013686 -0.400166 0.916442 -0.000000 133 11 14
-0.051410 -0.148152 -0.007107 -0.400166 0.916442 -0.000000 133 11 14
-0.051410 -0.148152 0.017160 -0.400166 0.916442 -0.000000 133 11 14
-0.014980 -0.132244 -0.015050 -0.400166 0.916442 0.000000 133 11 14
-0.051410 -0.148152 -0.018523 -0.400166 0.916442 0.000000 133 11 14
-0.051410 -0.148152 0.017160 -0.168447 0.000000 0.985711 179 84 0
-0.081217 -0.162684 0.012066 -0.168447 0.000000 0.985711 179 84 0
-0.051410 -0.207274 0.017160 -0.168447 0.000000 0.985711 179 84 0
-0.081217 -0.301121 0.012066 -0.168447 -0.000000 0.985711 179 84 0
-0.051410 -0.276039 0.017160 -0.168447 -0.000000 0.985711 179 84 0
-0.081217 -0.301121 -0.013428 -0.168469 -0.000000 -0.985707 179 84 0
-0.051410 -0.207274 -0.018523 -0.168469 -0.000000 -0.985707 179 84 0
-0.051410 -0.276039 -0.018523 -0.168469 -0.000000 -0.985707 179 84 0
-0.051410 -0.207274 -0.018523 -0.168470 0.000000 -0.985707 179 84 0
-0.081217 -0.162684 -0.013428 -0.168470 0.000000 -0.985707 179 84 0
-0.051410 -0.148152 -0.018523 -0.168470 0.000000 -0.985707 179 84 0
-0.014980 -0.247238 -0.015050 0.620173 -0.784465 0.000000 133 11 14
-0.051410 -0.276039 0.005744 0.620173 -0.784465 0.000000 133 11 14
-0.051410 -0.276039 -0.018523 0.620173 -0.784465 0.000000 133 11 14
-0.014980 -0.247238 0.013686 0.620173 -0.784465 -0.000000 133 11 14
-0.051410 -0.276039 0.017160 0.620173 -0.784465 -0.000000 133 11 14
0.001376 0.159464 0.021582 0.239668 0.002336 0.970852 222 222 222
0.000000 0.159464 0.021921 0.239668 0.002336 0.970852 222 222 222
-0.000000 -0.269625 0.022954 0.239668 0.002336 0.970852 222 222 222
0.020625 0.159465 -0.001013 0.979609 0.002313 -0.200900 222 222 222
0.020931 0.159465 0.000474 0.979609 0.002313 -0.200900 222 222 222
0.021944 -0.269625 0.000474 0.979609 0.002313 -0.200900 222 222 222
0.051410 -0.148152 0.017160 -0.094925 0.000000 0.995484 133 11 14
-0.000000 -0.269625 -0.022007 0.239667 0.002336 -0.970852 222 222 222
0.000000 0.159464 -0.020974 0.239667 0.002336 -0.970852 222 222 222
0.001376 0.159464 -0.020635 0.239667 0.002336 -0.970852 222 222 222
0.021944 -0.269625 0.000474 0.979606 0.002313 0.200917 222 222 222
0.020931 0.159465 0.000474 0.979606 0.002313 0.200917 222 222 222
0.020625 0.159465 0.001962 0.979606 0.002313 0.200917 222 222 222
0.051410 -0.148152 -0.018523 -0.094902 0.000000 -0.995487 133 11 14
0.051410 -0.148152 -0.018523 0.438244 0.898856 0.000000 179 84 0
0.051410 -0.276039 0.017160 -0.643853 -0.765149 -0.000000 179 84 0
0.017275 0.193042 -0.016914 0.011434 0.998693 -0.049807 63 63 63
0.019863 0.192883 -0.019502 0.011434 0.998693 -0.049807 63 63 63
0.000000 0.192883 -0.024062 0.011434 0.998693 -0.049807 63 63 63
0.020931 0.159465 0.000474 0.025319 -0.999666 -0.005223 63 63 63
0.020625 0.159465 -0.001013 0.025319 -0.999666 -0.005223 63 63 63
0.023713 0.159544 -0.001235 0.025319 -0.999666 -0.005223 63 63 63
0.017349 0.159465 -0.016988 0.025329 -0.999666 -0.005186 63 63 63
0.019949 0.159544 -0.019588 0.025329 -0.999666 -0.005186 63 63 63
0.023713 0.159544 -0.001235 0.025329 -0.999666 -0.005186 63 63 63
0.020841 0.193042 0.000474 0.050817 0.998654 -0.010423 63 63 63
0.017349 0.159465 0.017936 0.005700 -0.999676 0.024815 63 63 63
0.019949 0.159544 0.020535 0.005700 -0.999676 0.024815 63 63 63
0.001597 0.159543 0.024724 0.005700 -0.999676 0.024815 63 63 63
0.000000 0.159464 0.021921 0.006136 -0.999673 0.024811 63 63 63
0.001376 0.159464 0.021582 0.006136 -0.999673 0.024811 63 63 63
0.001597 0.159543 0.024724 0.006136 -0.999673 0.024811 63 63 63
0.020931 0.159465 0.000474 0.025316 -0.999665 0.005297 63 63 63
0.024063 0.159544 0.000474 0.025316 -0.999665 0.005297 63 63 63
0.023713 0.159544 0.002183 0.025316 -0.999665 0.005297 63 63 63
0.019949 0.159544 -0.019588 0.979604 0.003027 -0.200916 63 63 63
0.001597 0.159543 -0.023777 0.223742 0.002381 -0.974646 63 63 63
0.000000 0.192883 -0.024062 0.223742 0.002381 -0.974646 63 63 63
0.019863 0.192883 -0.019502 0.223742 0.002381 -0.974646 63 63 63
0.001597 0.159543 0.024724 0.222548 0.003070 0.974917 63 63 63
0.019949 0.159544 0.020535 0.222548 0.003070 0.974917 63 63 63
0.019863 0.192883 0.020450 0.222548 0.003070 0.974917 63 63 63
0.023960 0.192883 0.000474 0.979601 0.003027 0.200930 63 63 63
0.017349 0.159465 -0.016988 0.005711 -0.999675 -0.024840 63 63 63
0.001376 0.159464 -0.020635 0.005711 -0.999675 -0.024840 63 63 63
0.001597 0.159543 -0.023777 0.005711 -0.999675 -0.024840 63 63 63
0.019863 0.192883 0.020450 0.050817 0.998654 0.010423 63 63 63
0.017349 0.159465 0.017936 0.025322 -0.999666 0.005176 63 63 63
0.020625 0.159465 0.001962 0.025322 -0.999666 0.005176 63 63 63
0.023713 0.159544 0.002183 0.025322 -0.999666 0.005176 63 63 63
0.000000 0.159464 -0.020974 0.006070 -0.999673 -0.024848 63 63 63
0.000000 0.159543 -0.024167 0.006070 -0.999673 -0.024848 63 63 63
0.001597 0.159543 -0.023777 0.006070 -0.999673 -0.024848 63 63 63
0.017275 0.193042 0.017861 0.011456 0.998691 0.049860 63 63 63
0.000000 0.193042 0.021830 0.011456 0.998691 0.049860 63 63 63
0.000000 0.192883 0.025009 0.011456 0.998691 0.049860 63 63 63
0.051410 -0.148152 -0.007107 0.400167 0.916442 -0.000000 133 11 14
0.014980 -0.132244 -0.015050 0.400167 0.916442 -0.000000 133 11 14
0.014980 -0.132244 0.013686 0.400167 0.916442 -0.000000 133 11 14
0.051410 -0.276039 0.017160 0.168447 -0.000000 0.985711 179 84 0
-0.000000 -0.269625 0.022954 -0.239668 0.002336 0.970852 222 222 222
0.000000 0.159464 0.021921 -0.239668 0.002336 0.970852 222 222 222
-0.001376 0.159464 0.021582 -0.239668 0.002336 0.970852 222 222 222
-0.021944 -0.269625 0.000474 -0.979609 0.002313 -0.200900 222 222 222
-0.020931 0.159465 0.000474 -0.979609 0.002313 -0.200900 222 222 222
-0.020625 0.159465 -0.001013 -0.979609 0.002313 -0.200900 222 222 222
-0.051410 -0.148152 0.017160 0.094925 0.000000 0.995484 133 11 14
-0.001376 0.159464 -0.020635 -0.239667 0.002336 -0.970852 222 222 222
0.000000 0.159464 -0.020974 -0.239667 0.002336 -0.970852 222 222 222
-0.000000 -0.269625 -0.022007 -0.239667 0.002336 -0.970852 222 222 222
-0.020625 0.159465 0.001962 -0.979606 0.002313 0.200917 222 222 222
-0.020931 0.159465 0.000474 -0.979606 0.002313 0.200917 222 222 222
-0.021944 -0.269625 0.000474 -0.979606 0.002313 0.200917 222 222 222
-0.051410 -0.148152 -0.018523 0.094902 0.000000 -0.995487 133 11 14
-0.051410 -0.148152 -0.018523 -0.438244 0.898856 0.000000 179 84 0
-0.051410 -0.276039 0.017160 0.643853 -0.765149 -0.000000 179 84 0
0.000000 0.192883 -0.024062 -0.011434 0.998693 -0.049807 63 63 63
-0.019863 0.192883 -0.019502 -0.011434 0.998693 -0.049807 63 63 63
-0.017275 0.193042 -0.016914 -0.011434 0.998693 -0.049807 63 63 63
-0.020931 0.159465 0.000474 -0.025316 -0.999666 -0.005227 63 63 63
-0.024063 0.159544 0.000474 -0.025316 -0.999666 -0.005227 63 63 63
-0.023713 0.159544 -0.001235 -0.025316 -0.999666 -0.005227 63 63 63
-0.023713 0.159544 -0.001235 -0.025329 -0.999666 -0.005186 63 63 63
-0.019949 0.159544 -0.019588 -0.025329 -0.999666 -0.005186 63 63 63
-0.017349 0.159465 -0.016988 -0.025329 -0.999666 -0.005186 63 63 63
-0.019863 0.192883 -0.019502 -0.050817 0.998654 -0.010423 63 63 63
-0.001597 0.159543 0.024724 -0.005700 -0.999676 0.024815 63 63 63
-0.019948 0.159544 0.020535 -0.005700 -0.999676 0.024815 63 63 63
-0.017349 0.159465 0.017936 -0.005700 -0.999676 0.024815 63 63 63
0.000000 0.159464 0.021921 -0.006070 -0.999673 0.024848 63 63 63
0.000000 0.159543 0.025114 -0.006070 -0.999673 0.024848 63 63 63
-0.001597 0.159543 0.024724 -0.006070 -0.999673 0.024848 63 63 63
-0.023713 0.159544 0.002183 -0.025316 -0.999665 0.005297 63 63 63
-0.024063 0.159544 0.000474 -0.025316 -0.999665 0.005297 63 63 63
-0.020931 0.159465 0.000474 -0.025316 -0.999665 0.005297 63 63 63
-0.023960 0.192883 0.000474 -0.979604 0.003027 -0.200916 63 63 63
-0.019863 0.192883 -0.019502 -0.223742 0.002381 -0.974646 63 63 63
0.000000 0.192883 -0.024062 -0.223742 0.002381 -0.974646 63 63 63
-0.001597 0.159543 -0.023777 -0.223742 0.002381 -0.974646 63 63 63
-0.001597 0.159543 0.024724 -0.223742 0.002381 0.974646 63 63 63
0.000000 0.192883 0.025009 -0.223742 0.002381 0.974646 63 63 63
-0.019863 0.192883 0.020450 -0.223742 0.002381 0.974646 63 63 63
-0.023960 0.192883 0.000474 -0.979601 0.003027 0.200930 63 63 63
-0.017349 0.159465 -0.016988 -0.005700 -0.999676 -0.024814 63 63 63
-0.019949 0.159544 -0.019588 -0.005700 -0.999676 -0.024814 63 63 63
-0.001597 0.159543 -0.023777 -0.005700 -0.999676 -0.024814 63 63 63
-0.019863 0.192883 0.020450 -0.050817 0.998654 0.010423 63 63 63
-0.017349 0.159465 0.017936 -0.025334 -0.999666 0.005181 63 63 63
-0.019948 0.159544 0.020535 -0.025334 -0.999666 0.005181 63 63 63
-0.023713 0.159544 0.002183 -0.025334 -0.999666 0.005181 63 63 63
-0.001597 0.159543 -0.023777 -0.006070 -0.999673 -0.024848 63 63 63
0.000000 0.159543 -0.024167 -0.006070 -0.999673 -0.024848 63 63 63
0.000000 0.159464 -0.020974 -0.006070 -0.999673 -0.024848 63 63 63
-0.017275 0.193042 0.017861 -0.011434 0.998693 0.049808 63 63 63
-0.019863 0.192883 0.020450 -0.011434 0.998693 0.049808 63 63 63
0.000000 0.192883 0.025009 -0.011434 0.998693 0.049808 63 63 63
-0.014980 -0.132244 0.013686 -0.400167 0.916442 0.000000 133 11 14
-0.014980 -0.132244 -0.015050 -0.400167 0.916442 0.000000 133 11 14
-0.051410 -0.148152 -0.007107 -0.400167 0.916442 0.000000 133 11 14
-0.081217 -0.301121 -0.013428 -0.168470 0.000000 -0.985707 179 84 0
3 0 1 2
3 3 4 5
3 6 7 8
3 9 10 11
3 12 13 14
3 15 16 17
3 18 19 20
3 21 22 23
3 24 25 26
3 27 28 29
3 30 31 32
3 33 34 35
3 36 37 38
3 39 9 40
3 41 42 43
3 44 45 46
3 47 48 49
3 50 51 52
3 53 54 55
3 56 57 58
3 59 60 61
3 62 63 64
3 65 66 67
3 68 69 70
3 71 72 73
3 74 75 76
3 77 78 79
3 80 81 82
3 83 84 85
3 86 87 88
3 89 90 91
3 92 93 94
3 95 96 97
3 98 99 100
3 101 102 80
3 103 104 105
3 106 107 108
3 109 110 111
3 49 112 47
3 50 113 51
3 114 54 53
3 56 115 57
3 116 60 59
3 117 63 62
3 118 119 120
3 121 122 123
3 124 125 126
3 127 128 129
3 130 131 132
3 133 134 135
3 136 137 138
3 139 140 141
3 142 143 144
3 145 146 147
3 148 149 150
3 151 152 153
3 154 155 156
3 157 158 159
3 160 161 162
3 163 164 165
3 166 167 168
3 169 170 171
3 172 173 174
3 175 176 177
3 178 179 180
3 181 182 183
3 184 185 186
3 185 187 186
3 188 189 190
3 188 191 192
3 193 194 195
3 193 196 197
3 198 199 200
3 201 202 203
3 204 205 206
3 207 208 209
3 210 211 212
3 213 214 215
3 216 217 218
3 219 220 221
3 222 223 224
3 225 226 227
3 228 229 230
3 231 232 233
3 234 235 236
3 237 238 207
3 239 240 241
3 242 243 244
3 245 246 247
3 248 249 250
3 251 252 253
3 254 255 256
3 257 258 259
3 260 261 262
3 263 264 265
3 266 267 268
3 269 270 271
3 74 272 273
3 274 275 276
3 277 82 278
3 279 280 281
3 282 283 284
3 285 286 287
3 288 289 290
3 291 292 293
3 294 295 296
3 101 277 297
3 298 105 299
3 300 301 302
3 303 304 305
3 247 246 306
3 248 250 307
3 253 308 251
3 254 256 309
3 259 310 257
3 262 311 260
3 312 313 314
3 315 316 317
3 318 319 320
3 321 322 323
3 324 325 326
3 327 328 329
3 330 331 332
3 333 334 335
3 336 337 338
3 339 340 341
3 342 343 344
3 345 346 347
3 348 349 350
3 351 352 353
3 354 355 356
3 357 358 359
3 360 361 362
3 363 364 365
3 366 367 368
3 369 370 371
3 372 373 374
3 373 375 376
3 377 378 379
3 379 380 381
3 382 383 384
3 385 386 387
3 388 389 390
3 389 391 392
3 393 394 395
3 396 397 398
3 47 399 48
3 400 401 402
3 403 404 405
3 114 406 54
3 116 407 60
3 117 408 63
3 409 410 411
3 412 413 414
3 415 416 417
3 130 418 131
3 419 420 421
3 422 423 424
3 425 426 427
3 142 428 143
3 429 430 431
3 432 433 434
3 157 435 158
3 436 437 438
3 166 439 167
3 440 441 442
3 443 444 445
3 446 447 448
3 449 450 451
3 185 452 187
3 188 192 189
3 193 197 194
3 453 454 455
3 456 457 458
3 245 459 246
3 460 461 462
3 463 464 465
3 253 466 308
3 259 467 310
3 262 468 311
3 469 470 471
3 472 473 474
3 475 476 477
3 324 478 325
3 479 480 481
3 482 483 484
3 485 486 487
3 336 488 337
3 489 490 491
3 492 493 494
3 351 495 352
3 496 497 498
3 360 499 361
3 500 501 502
3 503 504 505
3 506 507 508
3 509 510 511
3 379 378 380
3 512 386 385
3 388 391 389
