ply
format ascii 1.0
comment Created by Blender 2.77 (sub 0) - www.blender.org, source file: ''
element vertex 141
property float x
property float y
property float z
property float nx
property float ny
property float nz
property uchar red
property uchar green
property uchar blue
element face 47
property list uchar uint vertex_indices
end_header
-0.020671 -0.036126 -0.026545 -0.766122 -0.037727 -0.641587 0 0 0
-0.051035 0.346030 -0.012759 -0.766122 -0.037727 -0.641587 0 0 0
-0.011201 0.345279 -0.060280 -0.766122 -0.037727 -0.641587 0 0 0
-0.020671 -0.036126 -0.026545 -0.080660 -0.085832 -0.993039 0 0 0
-0.011201 0.345279 -0.060280 -0.080660 -0.085832 -0.993039 0 0 0
0.028181 -0.036455 -0.030484 -0.080660 -0.085832 -0.993039 0 0 0
-0.020364 -0.036330 0.025348 -0.065605 0.093744 0.993432 0 0 0
0.018268 0.345236 -0.008107 -0.065605 0.093744 0.993432 0 0 0
-0.051035 0.346030 -0.012759 -0.065605 0.093744 0.993432 0 0 0
-0.124494 0.642762 0.230126 -0.682955 -0.503039 0.529646 51 51 51
-0.049479 0.278347 -0.019254 -0.682955 -0.503039 0.529646 51 51 51
-0.007770 0.387980 0.138653 -0.682955 -0.503039 0.529646 51 51 51
0.106694 0.645778 0.251149 0.360683 -0.502910 0.785487 50 50 50
-0.007770 0.387980 0.138653 0.360683 -0.502910 0.785487 51 51 51
0.148933 0.371003 0.055828 0.360683 -0.502910 0.785487 51 51 51
0.148933 0.371003 0.055828 0.485456 -0.838213 -0.248458 51 51 51
-0.049479 0.278347 -0.019254 0.485456 -0.838213 -0.248458 51 51 51
0.176128 0.444688 -0.139623 0.485456 -0.838213 -0.248458 51 51 51
0.273400 1.411351 0.050959 0.959676 -0.062450 -0.274083 51 51 51
0.247404 0.764525 0.107315 0.959676 -0.062450 -0.274083 51 51 51
0.205964 0.960138 -0.082353 0.959676 -0.062450 -0.274083 51 51 51
0.247404 0.764525 0.107315 0.969823 -0.029243 -0.242051 51 51 51
0.176128 0.444688 -0.139623 0.969823 -0.029243 -0.242051 51 51 51
0.205964 0.960138 -0.082353 0.969823 -0.029243 -0.242051 51 51 51
0.247404 0.764525 0.107315 0.967975 -0.247623 0.041332 51 51 51
0.148933 0.371003 0.055828 0.967975 -0.247623 0.041332 51 51 51
0.176128 0.444688 -0.139623 0.967975 -0.247623 0.041332 51 51 51
0.247404 0.764525 0.107315 0.790179 -0.269729 0.550330 51 51 51
0.106694 0.645778 0.251149 0.790179 -0.269729 0.550330 50 50 50
0.148933 0.371003 0.055828 0.790179 -0.269729 0.550330 51 51 51
0.273400 1.411351 0.050959 0.906443 0.226521 -0.356440 51 51 51
0.228253 1.349441 -0.103196 0.906443 0.226521 -0.356440 51 51 51
0.140183 1.833275 -0.019680 0.906443 0.226521 -0.356440 51 51 51
0.176128 0.444688 -0.139623 0.556937 0.033845 -0.829865 51 51 51
0.067670 0.472129 -0.211292 0.556937 0.033845 -0.829865 51 51 51
0.049754 1.135468 -0.196262 0.556937 0.033845 -0.829865 51 51 51
0.075121 1.974159 -0.065701 0.847656 0.236289 -0.475023 51 51 51
0.140183 1.833275 -0.019680 0.847656 0.236289 -0.475023 51 51 51
0.228253 1.349441 -0.103196 0.847656 0.236289 -0.475023 51 51 51
0.049754 1.135468 -0.196262 0.325090 0.135857 -0.935873 51 51 51
0.075121 1.974159 -0.065701 0.325090 0.135857 -0.935873 51 51 51
0.228253 1.349441 -0.103196 0.325090 0.135857 -0.935873 51 51 51
-0.049479 0.278347 -0.019254 0.221383 -0.750690 -0.622458 51 51 51
0.067670 0.472129 -0.211292 0.221383 -0.750690 -0.622458 51 51 51
0.176128 0.444688 -0.139623 0.221383 -0.750690 -0.622458 51 51 51
-0.124494 0.642762 0.230126 -0.727934 -0.482923 0.486721 51 51 51
-0.242724 0.593361 0.004287 -0.727934 -0.482923 0.486721 51 51 51
-0.049479 0.278347 -0.019254 -0.727934 -0.482923 0.486721 51 51 51
-0.124494 0.642762 0.230126 -0.889402 0.052802 0.454066 51 51 51
-0.127668 1.346143 0.142114 -0.889402 0.052802 0.454066 51 51 51
-0.242724 0.593361 0.004287 -0.889402 0.052802 0.454066 51 51 51
0.075121 1.974159 -0.065701 -0.520034 0.146720 -0.841450 51 51 51
0.049754 1.135468 -0.196262 -0.520034 0.146720 -0.841450 51 51 51
-0.080049 1.744901 -0.009777 -0.520034 0.146720 -0.841450 51 51 51
-0.080049 1.744901 -0.009777 -0.471823 0.164562 -0.866200 51 51 51
0.049754 1.135468 -0.196262 -0.471823 0.164562 -0.866200 51 51 51
-0.137405 0.715922 -0.174022 -0.471823 0.164562 -0.866200 51 51 51
-0.137405 0.715922 -0.174022 -0.802990 -0.149383 -0.576968 51 51 51
-0.079280 0.463785 -0.189636 -0.802990 -0.149383 -0.576968 51 51 51
-0.242724 0.593361 0.004287 -0.802990 -0.149383 -0.576968 51 51 51
-0.080049 1.744901 -0.009777 -0.888753 0.120149 -0.442360 51 51 51
-0.137405 0.715922 -0.174022 -0.888753 0.120149 -0.442360 51 51 51
-0.242724 0.593361 0.004287 -0.888753 0.120149 -0.442360 51 51 51
-0.124494 0.642762 0.230126 -0.079400 -0.368863 0.926086 51 51 51
-0.007770 0.387980 0.138653 -0.079400 -0.368863 0.926086 51 51 51
0.106694 0.645778 0.251149 -0.079400 -0.368863 0.926086 50 50 50
-0.124494 0.642762 0.230126 -0.337917 0.115354 0.934080 51 51 51
0.139487 1.463884 0.224221 -0.337917 0.115354 0.934080 51 51 51
-0.127668 1.346143 0.142114 -0.337917 0.115354 0.934080 51 51 51
-0.080049 1.744901 -0.009777 -0.720557 0.484705 0.495841 51 51 51
0.052786 1.837598 0.092644 -0.720557 0.484705 0.495841 51 51 51
0.141826 2.054838 0.009677 -0.720557 0.484705 0.495841 51 51 51
0.052786 1.837598 0.092644 0.784607 -0.087151 0.613838 51 51 51
0.140183 1.833275 -0.019680 0.784607 -0.087151 0.613838 51 51 51
0.141826 2.054838 0.009677 0.784607 -0.087151 0.613838 51 51 51
0.139487 1.463884 0.224221 0.717211 -0.005812 0.696832 51 51 51
0.106694 0.645778 0.251149 0.717211 -0.005812 0.696832 50 50 50
0.247404 0.764525 0.107315 0.717211 -0.005812 0.696832 51 51 51
-0.049479 0.278347 -0.019254 -0.068780 -0.680949 -0.729093 51 51 51
-0.079280 0.463785 -0.189636 -0.068780 -0.680949 -0.729093 51 51 51
0.067670 0.472129 -0.211292 -0.068780 -0.680949 -0.729093 51 51 51
0.052786 1.837598 0.092644 0.740221 0.369503 0.561729 51 51 51
0.139487 1.463884 0.224221 0.740221 0.369503 0.561729 51 51 51
0.140183 1.833275 -0.019680 0.740221 0.369503 0.561729 51 51 51
0.140183 1.833275 -0.019680 0.791863 0.335458 0.510315 51 51 51
0.139487 1.463884 0.224221 0.791863 0.335458 0.510315 51 51 51
0.273400 1.411351 0.050959 0.791863 0.335458 0.510315 51 51 51
0.205964 0.960138 -0.082353 0.530734 -0.075582 -0.844162 51 51 51
0.049754 1.135468 -0.196262 0.530734 -0.075582 -0.844162 51 51 51
0.228253 1.349441 -0.103196 0.530734 -0.075582 -0.844162 51 51 51
0.228253 1.349441 -0.103196 0.964532 -0.068866 -0.254823 51 51 51
0.273400 1.411351 0.050959 0.964532 -0.068866 -0.254823 51 51 51
0.205964 0.960138 -0.082353 0.964532 -0.068866 -0.254823 51 51 51
0.139487 1.463884 0.224221 0.794118 0.021005 0.607401 51 51 51
0.247404 0.764525 0.107315 0.794118 0.021005 0.607401 51 51 51
0.273400 1.411351 0.050959 0.794118 0.021005 0.607401 51 51 51
0.049754 1.135468 -0.196262 0.624765 0.050410 -0.779184 51 51 51
0.205964 0.960138 -0.082353 0.624765 0.050410 -0.779184 51 51 51
0.176128 0.444688 -0.139623 0.624765 0.050410 -0.779184 51 51 51
-0.007770 0.387980 0.138653 0.188212 -0.829342 0.526088 51 51 51
-0.049479 0.278347 -0.019254 0.188212 -0.829342 0.526088 51 51 51
0.148933 0.371003 0.055828 0.188212 -0.829342 0.526088 51 51 51
-0.127668 1.346143 0.142114 -0.988370 0.140340 0.058569 51 51 51
-0.080049 1.744901 -0.009777 -0.988370 0.140340 0.058569 51 51 51
-0.242724 0.593361 0.004287 -0.988370 0.140340 0.058569 51 51 51
0.075121 1.974159 -0.065701 -0.811829 0.574681 0.103321 51 51 51
-0.080049 1.744901 -0.009777 -0.811829 0.574681 0.103321 51 51 51
0.141826 2.054838 0.009677 -0.811829 0.574681 0.103321 51 51 51
-0.137405 0.715922 -0.174022 -0.147255 0.027282 -0.988722 51 51 51
0.067670 0.472129 -0.211292 -0.147255 0.027282 -0.988722 51 51 51
-0.079280 0.463785 -0.189636 -0.147255 0.027282 -0.988722 51 51 51
-0.049479 0.278347 -0.019254 -0.804948 -0.466383 -0.366805 51 51 51
-0.242724 0.593361 0.004287 -0.804948 -0.466383 -0.366805 51 51 51
-0.079280 0.463785 -0.189636 -0.804948 -0.466383 -0.366805 51 51 51
0.139487 1.463884 0.224221 -0.090972 0.036404 0.995188 51 51 51
-0.124494 0.642762 0.230126 -0.090972 0.036404 0.995188 51 51 51
0.106694 0.645778 0.251149 -0.090972 0.036404 0.995188 50 50 50
-0.127668 1.346143 0.142114 -0.708934 0.323398 0.626758 51 51 51
0.052786 1.837598 0.092644 -0.708934 0.323398 0.626758 51 51 51
-0.080049 1.744901 -0.009777 -0.708934 0.323398 0.626758 51 51 51
0.139487 1.463884 0.224221 -0.376670 0.228667 0.897681 51 51 51
0.052786 1.837598 0.092644 -0.376670 0.228667 0.897681 51 51 51
-0.127668 1.346143 0.142114 -0.376670 0.228667 0.897681 51 51 51
0.075121 1.974159 -0.065701 0.696608 0.089159 -0.711890 51 51 51
0.141826 2.054838 0.009677 0.696608 0.089159 -0.711890 51 51 51
0.140183 1.833275 -0.019680 0.696608 0.089159 -0.711890 51 51 51
-0.137405 0.715922 -0.174022 -0.157904 0.018104 -0.987288 51 51 51
0.049754 1.135468 -0.196262 -0.157904 0.018104 -0.987288 51 51 51
0.067670 0.472129 -0.211292 -0.157904 0.018104 -0.987288 51 51 51
0.028181 -0.036455 -0.030484 0.869573 0.051378 -0.491124 0 0 0
-0.011201 0.345279 -0.060280 0.869573 0.051378 -0.491124 0 0 0
0.018268 0.345236 -0.008107 0.869573 0.051378 -0.491124 0 0 0
-0.020671 -0.036126 -0.026545 -0.996827 -0.079404 0.005580 0 0 0
-0.020364 -0.036330 0.025348 -0.996827 -0.079404 0.005580 0 0 0
-0.051035 0.346030 -0.012759 -0.996827 -0.079404 0.005580 0 0 0
0.030747 -0.036209 0.024536 0.998498 0.028671 -0.046695 0 0 0
0.028181 -0.036455 -0.030484 0.998498 0.028671 -0.046695 0 0 0
0.018268 0.345236 -0.008107 0.998498 0.028671 -0.046695 0 0 0
-0.020364 -0.036330 0.025348 0.015615 0.085763 0.996193 0 0 0
0.030747 -0.036209 0.024536 0.015615 0.085763 0.996193 0 0 0
0.018268 0.345236 -0.008107 0.015615 0.085763 0.996193 0 0 0
3 0 1 2
3 3 4 5
3 6 7 8
3 9 10 11
3 12 13 14
3 15 16 17
3 18 19 20
3 21 22 23
3 24 25 26
3 27 28 29
3 30 31 32
3 33 34 35
3 36 37 38
3 39 40 41
3 42 43 44
3 45 46 47
3 48 49 50
3 51 52 53
3 54 55 56
3 57 58 59
3 60 61 62
3 63 64 65
3 66 67 68
3 69 70 71
3 72 73 74
3 75 76 77
3 78 79 80
3 81 82 83
3 84 85 86
3 87 88 89
3 90 91 92
3 93 94 95
3 96 97 98
3 99 100 101
3 102 103 104
3 105 106 107
3 108 109 110
3 111 112 113
3 114 115 116
3 117 118 119
3 120 121 122
3 123 124 125
3 126 127 128
3 129 130 131
3 132 133 134
3 135 136 137
3 138 139 140
