ply
format ascii 1.0
comment Created by Blender 2.77 (sub 0) - www.blender.org, source file: ''
element vertex 315
property float x
property float y
property float z
property float nx
property float ny
property float nz
property uchar red
property uchar green
property uchar blue
element face 105
property list uchar uint vertex_indices
end_header
-0.038078 0.286115 -0.011405 -0.993526 -0.066999 0.091750 0 0 0
-0.017744 -0.031009 -0.022785 -0.993526 -0.066999 0.091750 0 0 0
-0.013271 -0.031148 0.025550 -0.993526 -0.066999 0.091750 0 0 0
0.011868 -0.031263 -0.032455 0.701840 0.002795 -0.712329 0 0 0
0.019921 0.355160 -0.023004 0.701840 0.002795 -0.712329 0 0 0
0.032890 -0.031268 -0.011743 0.701840 0.002795 -0.712329 0 0 0
0.001170 0.296636 0.005202 0.874168 -0.047133 0.483331 0 0 0
0.019921 0.355160 -0.023004 0.874168 -0.047133 0.483331 0 0 0
0.013029 0.797597 0.032605 0.874168 -0.047133 0.483331 0 0 0
-0.017744 -0.031009 -0.022785 -0.943186 -0.048684 -0.328679 0 0 0
-0.038078 0.286115 -0.011405 -0.943186 -0.048684 -0.328679 0 0 0
-0.025638 0.302583 -0.049542 -0.943186 -0.048684 -0.328679 0 0 0
0.026393 -0.031081 0.021060 0.734291 0.089079 0.672964 0 0 0
0.019921 0.355160 -0.023004 0.734291 0.089079 0.672964 0 0 0
0.001170 0.296636 0.005202 0.734291 0.089079 0.672964 0 0 0
-0.017744 -0.031009 -0.022785 -0.310429 -0.049480 -0.949308 0 0 0
0.004078 0.339661 -0.049241 -0.310429 -0.049480 -0.949308 0 0 0
0.011868 -0.031263 -0.032455 -0.310429 -0.049480 -0.949308 0 0 0
-0.013271 -0.031148 0.025550 -0.405454 0.074420 0.911081 0 0 0
0.001170 0.296636 0.005202 -0.405454 0.074420 0.911081 0 0 0
-0.038078 0.286115 -0.011405 -0.405454 0.074420 0.911081 0 0 0
0.001170 0.296636 0.005202 -0.370058 -0.080410 0.925522 0 0 0
-0.018944 0.797705 0.040693 -0.370058 -0.080410 0.925522 0 0 0
-0.038078 0.286115 -0.011405 -0.370058 -0.080410 0.925522 0 0 0
-0.038078 0.286115 -0.011405 -0.950111 -0.004547 -0.311879 0 0 0
-0.046531 0.797503 0.006891 -0.950111 -0.004547 -0.311879 0 0 0
-0.025638 0.302583 -0.049542 -0.950111 -0.004547 -0.311879 0 0 0
-0.025638 0.302583 -0.049542 -0.092164 0.081931 -0.992367 0 0 0
0.008992 0.797616 -0.011888 -0.092164 0.081931 -0.992367 0 0 0
0.004078 0.339661 -0.049241 -0.092164 0.081931 -0.992367 0 0 0
-0.018944 0.797705 0.040693 -0.774135 -0.035409 0.632030 0 0 0
-0.046531 0.797503 0.006891 -0.774135 -0.035409 0.632030 0 0 0
-0.038078 0.286115 -0.011405 -0.774135 -0.035409 0.632030 0 0 0
0.188980 2.235098 0.223739 0.594299 0.118206 0.795510 51 51 51
0.133982 3.249239 0.114133 0.594299 0.118206 0.795510 51 51 51
0.030845 3.169969 0.202962 0.594299 0.118206 0.795510 51 51 51
0.133982 3.249239 0.114133 0.972690 0.125450 0.195285 51 51 51
0.177287 3.170736 -0.051134 0.972690 0.125450 0.195285 51 51 51
0.102820 3.631691 0.023661 0.972690 0.125450 0.195285 51 51 51
0.096279 3.203672 -0.164102 0.761228 0.250722 -0.598056 51 51 51
0.008683 3.608701 -0.105798 0.761228 0.250722 -0.598056 51 51 51
0.102820 3.631691 0.023661 0.761228 0.250722 -0.598056 51 51 51
0.271487 1.046362 0.061952 0.965714 -0.191432 -0.175360 51 51 51
0.238557 1.098939 -0.176790 0.965714 -0.191432 -0.175360 51 51 51
0.341812 1.382983 0.081762 0.965714 -0.191432 -0.175360 51 51 51
0.238557 1.098939 -0.176790 0.540320 -0.430390 -0.723062 51 51 51
0.136125 0.831850 -0.094354 0.540320 -0.430390 -0.723062 51 51 51
0.036871 1.039871 -0.292344 0.540320 -0.430390 -0.723062 51 51 51
0.036871 1.039871 -0.292344 0.530598 -0.200645 -0.823533 51 51 51
0.051677 1.384818 -0.366847 0.530598 -0.200645 -0.823533 51 51 51
0.238557 1.098939 -0.176790 0.530598 -0.200645 -0.823533 51 51 51
0.186989 1.924044 -0.283405 0.609158 0.198063 -0.767918 51 51 51
0.037452 2.435383 -0.270141 0.609158 0.198063 -0.767918 51 51 51
0.234693 2.271166 -0.156033 0.609158 0.198063 -0.767918 51 51 51
0.234693 2.271166 -0.156033 0.544611 0.073609 -0.835452 51 51 51
0.037452 2.435383 -0.270141 0.544611 0.073609 -0.835452 51 51 51
0.096279 3.203672 -0.164102 0.544611 0.073609 -0.835452 51 51 51
0.234693 2.271166 -0.156033 0.822926 0.117339 -0.555900 51 51 51
0.096279 3.203672 -0.164102 0.822926 0.117339 -0.555900 51 51 51
0.177287 3.170736 -0.051134 0.822926 0.117339 -0.555900 51 51 51
0.284396 1.433972 -0.200029 0.585464 -0.021508 -0.810413 51 51 51
0.051677 1.384818 -0.366847 0.585464 -0.021508 -0.810413 51 51 51
0.186989 1.924044 -0.283405 0.585464 -0.021508 -0.810413 51 51 51
0.284396 1.433972 -0.200029 0.596029 -0.136435 -0.791287 51 51 51
0.238557 1.098939 -0.176790 0.596029 -0.136435 -0.791287 51 51 51
0.051677 1.384818 -0.366847 0.596029 -0.136435 -0.791287 51 51 51
0.179786 1.416832 0.310297 0.798472 -0.136601 0.586330 51 51 51
0.157579 1.092307 0.264932 0.798472 -0.136601 0.586330 51 51 51
0.341812 1.382983 0.081762 0.798472 -0.136601 0.586330 51 51 51
0.271487 1.046362 0.061952 0.833211 -0.204308 0.513826 51 51 51
0.341812 1.382983 0.081762 0.833211 -0.204308 0.513826 51 51 51
0.157579 1.092307 0.264932 0.833211 -0.204308 0.513826 51 51 51
0.157579 1.092307 0.264932 0.741399 -0.431700 0.513773 51 51 51
0.079285 0.826922 0.154923 0.741399 -0.431700 0.513773 51 51 51
0.271487 1.046362 0.061952 0.741399 -0.431700 0.513773 51 51 51
-0.180832 0.832601 0.101363 -0.142240 -0.781113 0.607973 51 51 51
-0.022110 0.725884 0.001389 -0.142240 -0.781113 0.607973 51 51 51
0.079285 0.826922 0.154923 -0.142240 -0.781113 0.607973 51 51 51
0.079285 0.826922 0.154923 0.602076 -0.789112 0.121685 51 51 51
-0.022110 0.725884 0.001389 0.602076 -0.789112 0.121685 51 51 51
0.136125 0.831850 -0.094354 0.602076 -0.789112 0.121685 51 51 51
-0.128251 0.825939 -0.149410 -0.599437 -0.793557 -0.104606 51 51 51
-0.022110 0.725884 0.001389 -0.599437 -0.793557 -0.104606 51 51 51
-0.180832 0.832601 0.101363 -0.599437 -0.793557 -0.104606 51 51 51
0.136125 0.831850 -0.094354 0.145609 -0.774094 -0.616098 51 51 51
-0.022110 0.725884 0.001389 0.145609 -0.774094 -0.616098 51 51 51
-0.128251 0.825939 -0.149410 0.145609 -0.774094 -0.616098 51 51 51
-0.348124 1.168538 -0.106388 -0.839574 -0.518445 -0.162265 51 51 51
-0.128251 0.825939 -0.149410 -0.839574 -0.518445 -0.162265 51 51 51
-0.180832 0.832601 0.101363 -0.839574 -0.518445 -0.162265 51 51 51
-0.348124 1.168538 -0.106388 -0.954275 -0.252715 0.159669 51 51 51
-0.284894 1.108380 0.176297 -0.954275 -0.252715 0.159669 51 51 51
-0.372701 1.391380 0.099427 -0.954275 -0.252715 0.159669 51 51 51
-0.372701 1.391380 0.099427 -0.978440 0.091271 0.185269 51 51 51
-0.288689 2.137083 0.175748 -0.978440 0.091271 0.185269 51 51 51
-0.367994 1.814170 -0.083997 -0.978440 0.091271 0.185269 51 51 51
0.136125 0.831850 -0.094354 0.171045 -0.635222 -0.753151 51 51 51
-0.128251 0.825939 -0.149410 0.171045 -0.635222 -0.753151 51 51 51
0.036871 1.039871 -0.292344 0.171045 -0.635222 -0.753151 51 51 51
0.051677 1.384818 -0.366847 -0.208735 -0.146968 -0.966866 51 51 51
-0.196589 1.090574 -0.268523 -0.208735 -0.146968 -0.966866 51 51 51
-0.224099 1.418243 -0.312391 -0.208735 -0.146968 -0.966866 51 51 51
-0.348124 1.168538 -0.106388 -0.852322 -0.008094 -0.522955 51 51 51
-0.367994 1.814170 -0.083997 -0.852322 -0.008094 -0.522955 51 51 51
-0.224099 1.418243 -0.312391 -0.852322 -0.008094 -0.522955 51 51 51
-0.188516 2.348736 -0.251560 -0.144226 0.166965 -0.975357 50 50 50
0.037452 2.435383 -0.270141 -0.144226 0.166965 -0.975357 51 51 51
-0.026997 1.899933 -0.352271 -0.144226 0.166965 -0.975357 51 51 51
-0.188516 2.348736 -0.251560 -0.109032 0.071733 -0.991447 50 50 50
-0.074478 3.266994 -0.197663 -0.109032 0.071733 -0.991447 51 51 51
0.037452 2.435383 -0.270141 -0.109032 0.071733 -0.991447 51 51 51
-0.182228 3.275029 -0.131461 -0.972629 0.117162 -0.200661 51 51 51
-0.367994 1.814170 -0.083997 -0.972629 0.117162 -0.200661 51 51 51
-0.222269 3.235323 0.039439 -0.972629 0.117162 -0.200661 51 51 51
-0.146469 3.198869 0.161161 -0.826623 0.118280 0.550186 51 51 51
-0.222269 3.235323 0.039439 -0.826623 0.118280 0.550186 51 51 51
-0.288689 2.137083 0.175748 -0.826623 0.118280 0.550186 51 51 51
-0.172147 1.835104 0.311742 -0.600037 0.124315 0.790254 51 51 51
-0.077492 2.576166 0.267037 -0.600037 0.124315 0.790254 51 51 51
-0.288689 2.137083 0.175748 -0.600037 0.124315 0.790254 51 51 51
-0.079939 1.048501 0.295341 0.164058 -0.222392 0.961055 51 51 51
0.157579 1.092307 0.264932 0.164058 -0.222392 0.961055 51 51 51
-0.007154 1.393598 0.362773 0.164058 -0.222392 0.961055 51 51 51
-0.079939 1.048501 0.295341 0.191469 -0.423518 0.885422 51 51 51
0.079285 0.826922 0.154923 0.191469 -0.423518 0.885422 51 51 51
0.157579 1.092307 0.264932 0.191469 -0.423518 0.885422 51 51 51
-0.079939 1.048501 0.295341 -0.538356 -0.232115 0.810120 51 51 51
-0.257558 1.406291 0.279820 -0.538356 -0.232115 0.810120 51 51 51
-0.284894 1.108380 0.176297 -0.538356 -0.232115 0.810120 51 51 51
-0.180832 0.832601 0.101363 -0.172212 -0.612600 0.771404 51 51 51
0.079285 0.826922 0.154923 -0.172212 -0.612600 0.771404 51 51 51
-0.079939 1.048501 0.295341 -0.172212 -0.612600 0.771404 51 51 51
-0.007154 1.393598 0.362773 0.284575 -0.151792 0.946560 51 51 51
0.157579 1.092307 0.264932 0.284575 -0.151792 0.946560 51 51 51
0.179786 1.416832 0.310297 0.284575 -0.151792 0.946560 51 51 51
-0.196589 1.090574 -0.268523 -0.754770 -0.421248 -0.502864 51 51 51
-0.128251 0.825939 -0.149410 -0.754770 -0.421248 -0.502864 51 51 51
-0.348124 1.168538 -0.106388 -0.754770 -0.421248 -0.502864 51 51 51
0.079285 0.826922 0.154923 0.775518 -0.609441 0.164785 51 51 51
0.136125 0.831850 -0.094354 0.775518 -0.609441 0.164785 51 51 51
0.271487 1.046362 0.061952 0.775518 -0.609441 0.164785 51 51 51
-0.196589 1.090574 -0.268523 -0.142944 -0.203082 -0.968672 51 51 51
0.051677 1.384818 -0.366847 -0.142944 -0.203082 -0.968672 51 51 51
0.036871 1.039871 -0.292344 -0.142944 -0.203082 -0.968672 51 51 51
-0.007154 1.393598 0.362773 -0.128441 0.066371 0.989494 51 51 51
0.056836 1.972249 0.332266 -0.128441 0.066371 0.989494 51 51 51
-0.172147 1.835104 0.311742 -0.128441 0.066371 0.989494 51 51 51
-0.224099 1.418243 -0.312391 -0.757128 -0.148728 -0.636111 51 51 51
-0.196589 1.090574 -0.268523 -0.757128 -0.148728 -0.636111 51 51 51
-0.348124 1.168538 -0.106388 -0.757128 -0.148728 -0.636111 51 51 51
0.341812 1.382983 0.081762 0.963624 -0.147310 -0.222997 51 51 51
0.238557 1.098939 -0.176790 0.963624 -0.147310 -0.222997 51 51 51
0.284396 1.433972 -0.200029 0.963624 -0.147310 -0.222997 51 51 51
-0.288689 2.137083 0.175748 -0.977292 0.083288 0.194842 51 51 51
-0.222269 3.235323 0.039439 -0.977292 0.083288 0.194842 51 51 51
-0.367994 1.814170 -0.083997 -0.977292 0.083288 0.194842 51 51 51
-0.146469 3.198869 0.161161 -0.190505 0.216215 0.957580 51 51 51
0.030845 3.169969 0.202962 -0.190505 0.216215 0.957580 51 51 51
-0.028858 3.736619 0.063139 -0.190505 0.216215 0.957580 51 51 51
-0.257558 1.406291 0.279820 -0.665691 0.077340 0.742209 51 51 51
-0.172147 1.835104 0.311742 -0.665691 0.077340 0.742209 51 51 51
-0.288689 2.137083 0.175748 -0.665691 0.077340 0.742209 51 51 51
-0.077492 2.576166 0.267037 -0.000255 0.107329 0.994223 51 51 51
0.056836 1.972249 0.332266 -0.000255 0.107329 0.994223 51 51 51
0.030845 3.169969 0.202962 -0.000255 0.107329 0.994223 51 51 51
-0.367994 1.814170 -0.083997 -0.784524 0.070279 -0.616103 51 51 51
-0.188516 2.348736 -0.251560 -0.784524 0.070279 -0.616103 50 50 50
-0.224099 1.418243 -0.312391 -0.784524 0.070279 -0.616103 51 51 51
-0.074478 3.266994 -0.197663 0.232620 0.115473 -0.965688 51 51 51
0.096279 3.203672 -0.164102 0.232620 0.115473 -0.965688 51 51 51
0.037452 2.435383 -0.270141 0.232620 0.115473 -0.965688 51 51 51
-0.028858 3.736619 0.063139 0.449350 0.240163 0.860469 51 51 51
0.133982 3.249239 0.114133 0.449350 0.240163 0.860469 51 51 51
0.102820 3.631691 0.023661 0.449350 0.240163 0.860469 51 51 51
0.096279 3.203672 -0.164102 0.257331 0.191983 -0.947060 51 51 51
-0.074478 3.266994 -0.197663 0.257331 0.191983 -0.947060 51 51 51
0.008683 3.608701 -0.105798 0.257331 0.191983 -0.947060 51 51 51
-0.180832 0.832601 0.101363 -0.544809 -0.405080 0.734229 51 51 51
-0.079939 1.048501 0.295341 -0.544809 -0.405080 0.734229 51 51 51
-0.284894 1.108380 0.176297 -0.544809 -0.405080 0.734229 51 51 51
-0.079939 1.048501 0.295341 -0.317648 -0.116872 0.940978 51 51 51
-0.007154 1.393598 0.362773 -0.317648 -0.116872 0.940978 51 51 51
-0.257558 1.406291 0.279820 -0.317648 -0.116872 0.940978 51 51 51
-0.007154 1.393598 0.362773 -0.314823 -0.007948 0.949117 51 51 51
-0.172147 1.835104 0.311742 -0.314823 -0.007948 0.949117 51 51 51
-0.257558 1.406291 0.279820 -0.314823 -0.007948 0.949117 51 51 51
0.179786 1.416832 0.310297 0.267763 0.021173 0.963252 51 51 51
0.056836 1.972249 0.332266 0.267763 0.021173 0.963252 51 51 51
-0.007154 1.393598 0.362773 0.267763 0.021173 0.963252 51 51 51
0.188980 2.235098 0.223739 0.499940 0.103675 0.859832 51 51 51
0.030845 3.169969 0.202962 0.499940 0.103675 0.859832 51 51 51
0.056836 1.972249 0.332266 0.499940 0.103675 0.859832 51 51 51
0.177287 3.170736 -0.051134 0.972516 0.130432 0.192873 51 51 51
0.133982 3.249239 0.114133 0.972516 0.130432 0.192873 51 51 51
0.318884 1.928109 0.075230 0.972516 0.130432 0.192873 51 51 51
0.177287 3.170736 -0.051134 0.822090 0.218143 -0.525911 51 51 51
0.096279 3.203672 -0.164102 0.822090 0.218143 -0.525911 51 51 51
0.102820 3.631691 0.023661 0.822090 0.218143 -0.525911 51 51 51
0.179786 1.416832 0.310297 0.803902 0.053626 0.592339 51 51 51
0.318884 1.928109 0.075230 0.803902 0.053626 0.592339 51 51 51
0.188980 2.235098 0.223739 0.803902 0.053626 0.592339 51 51 51
-0.026997 1.899933 -0.352271 -0.369898 0.074687 -0.926066 51 51 51
-0.224099 1.418243 -0.312391 -0.369898 0.074687 -0.926066 51 51 51
-0.188516 2.348736 -0.251560 -0.369898 0.074687 -0.926066 50 50 50
0.271487 1.046362 0.061952 0.888782 -0.406314 -0.212071 51 51 51
0.136125 0.831850 -0.094354 0.888782 -0.406314 -0.212071 51 51 51
0.238557 1.098939 -0.176790 0.888782 -0.406314 -0.212071 51 51 51
-0.026997 1.899933 -0.352271 0.293188 0.110375 -0.949662 51 51 51
0.037452 2.435383 -0.270141 0.293188 0.110375 -0.949662 51 51 51
0.186989 1.924044 -0.283405 0.293188 0.110375 -0.949662 51 51 51
0.284396 1.433972 -0.200029 0.845048 0.077968 -0.528975 51 51 51
0.186989 1.924044 -0.283405 0.845048 0.077968 -0.528975 51 51 51
0.234693 2.271166 -0.156033 0.845048 0.077968 -0.528975 51 51 51
0.051677 1.384818 -0.366847 0.298137 0.072467 -0.951768 51 51 51
-0.026997 1.899933 -0.352271 0.298137 0.072467 -0.951768 51 51 51
0.186989 1.924044 -0.283405 0.298137 0.072467 -0.951768 51 51 51
-0.348124 1.168538 -0.106388 -0.916735 -0.379681 0.124253 51 51 51
-0.180832 0.832601 0.101363 -0.916735 -0.379681 0.124253 51 51 51
-0.284894 1.108380 0.176297 -0.916735 -0.379681 0.124253 51 51 51
-0.367994 1.814170 -0.083997 -0.995645 -0.027553 -0.089061 51 51 51
-0.348124 1.168538 -0.106388 -0.995645 -0.027553 -0.089061 51 51 51
-0.372701 1.391380 0.099427 -0.995645 -0.027553 -0.089061 51 51 51
0.318884 1.928109 0.075230 0.966352 0.070373 -0.247409 51 51 51
0.284396 1.433972 -0.200029 0.966352 0.070373 -0.247409 51 51 51
0.234693 2.271166 -0.156033 0.966352 0.070373 -0.247409 51 51 51
-0.182228 3.275029 -0.131461 -0.475118 0.334436 -0.813889 51 51 51
0.008683 3.608701 -0.105798 -0.475118 0.334436 -0.813889 51 51 51
-0.074478 3.266994 -0.197663 -0.475118 0.334436 -0.813889 51 51 51
0.179786 1.416832 0.310297 0.528047 0.083464 0.845104 51 51 51
0.188980 2.235098 0.223739 0.528047 0.083464 0.845104 51 51 51
0.056836 1.972249 0.332266 0.528047 0.083464 0.845104 51 51 51
-0.372701 1.391380 0.099427 -0.833452 -0.111591 0.541208 51 51 51
-0.284894 1.108380 0.176297 -0.833452 -0.111591 0.541208 51 51 51
-0.257558 1.406291 0.279820 -0.833452 -0.111591 0.541208 51 51 51
-0.257558 1.406291 0.279820 -0.843748 0.040279 0.535226 51 51 51
-0.288689 2.137083 0.175748 -0.843748 0.040279 0.535226 51 51 51
-0.372701 1.391380 0.099427 -0.843748 0.040279 0.535226 51 51 51
-0.196589 1.090574 -0.268523 -0.185667 -0.442775 -0.877199 51 51 51
0.036871 1.039871 -0.292344 -0.185667 -0.442775 -0.877199 51 51 51
-0.128251 0.825939 -0.149410 -0.185667 -0.442775 -0.877199 51 51 51
-0.182228 3.275029 -0.131461 -0.800193 0.082453 -0.594048 51 51 51
-0.188516 2.348736 -0.251560 -0.800193 0.082453 -0.594048 50 50 50
-0.367994 1.814170 -0.083997 -0.800193 0.082453 -0.594048 51 51 51
0.234693 2.271166 -0.156033 0.970850 0.087955 -0.222965 51 51 51
0.177287 3.170736 -0.051134 0.970850 0.087955 -0.222965 51 51 51
0.318884 1.928109 0.075230 0.970850 0.087955 -0.222965 51 51 51
0.030845 3.169969 0.202962 -0.205160 0.141925 0.968383 51 51 51
-0.146469 3.198869 0.161161 -0.205160 0.141925 0.968383 51 51 51
-0.077492 2.576166 0.267037 -0.205160 0.141925 0.968383 51 51 51
-0.288689 2.137083 0.175748 -0.536375 0.083382 0.839850 51 51 51
-0.077492 2.576166 0.267037 -0.536375 0.083382 0.839850 51 51 51
-0.146469 3.198869 0.161161 -0.536375 0.083382 0.839850 51 51 51
0.030845 3.169969 0.202962 0.510108 0.256337 0.821025 51 51 51
0.133982 3.249239 0.114133 0.510108 0.256337 0.821025 51 51 51
-0.028858 3.736619 0.063139 0.510108 0.256337 0.821025 51 51 51
0.056836 1.972249 0.332266 -0.134536 0.076782 0.987929 51 51 51
-0.077492 2.576166 0.267037 -0.134536 0.076782 0.987929 51 51 51
-0.172147 1.835104 0.311742 -0.134536 0.076782 0.987929 51 51 51
0.133982 3.249239 0.114133 0.844142 0.102649 0.526201 51 51 51
0.188980 2.235098 0.223739 0.844142 0.102649 0.526201 51 51 51
0.318884 1.928109 0.075230 0.844142 0.102649 0.526201 51 51 51
-0.146469 3.198869 0.161161 -0.780984 0.264787 0.565643 51 51 51
-0.121874 3.675035 -0.027782 -0.780984 0.264787 0.565643 51 51 51
-0.222269 3.235323 0.039439 -0.780984 0.264787 0.565643 51 51 51
0.008683 3.608701 -0.105798 0.460321 0.753988 -0.468623 51 51 51
-0.028858 3.736619 0.063139 0.460321 0.753988 -0.468623 51 51 51
0.102820 3.631691 0.023661 0.460321 0.753988 -0.468623 51 51 51
-0.121874 3.675035 -0.027782 -0.964418 0.192489 -0.181236 51 51 51
-0.182228 3.275029 -0.131461 -0.964418 0.192489 -0.181236 51 51 51
-0.222269 3.235323 0.039439 -0.964418 0.192489 -0.181236 51 51 51
0.011868 -0.031263 -0.032455 0.857411 -0.005283 -0.514605 0 0 0
0.004078 0.339661 -0.049241 0.857411 -0.005283 -0.514605 0 0 0
0.019921 0.355160 -0.023004 0.857411 -0.005283 -0.514605 0 0 0
0.026393 -0.031081 0.021060 0.980257 0.038550 0.193934 0 0 0
0.032890 -0.031268 -0.011743 0.980257 0.038550 0.193934 0 0 0
0.019921 0.355160 -0.023004 0.980257 0.038550 0.193934 0 0 0
-0.017744 -0.031009 -0.022785 0.106131 -0.077005 -0.991366 0 0 0
-0.025638 0.302583 -0.049542 0.106131 -0.077005 -0.991366 0 0 0
0.004078 0.339661 -0.049241 0.106131 -0.077005 -0.991366 0 0 0
-0.013271 -0.031148 0.025550 0.112202 0.056642 0.992070 0 0 0
0.026393 -0.031081 0.021060 0.112202 0.056642 0.992070 0 0 0
0.001170 0.296636 0.005202 0.112202 0.056642 0.992070 0 0 0
0.001170 0.296636 0.005202 0.244631 -0.058733 0.967836 0 0 0
0.013029 0.797597 0.032605 0.244631 -0.058733 0.967836 0 0 0
-0.018944 0.797705 0.040693 0.244631 -0.058733 0.967836 0 0 0
0.019921 0.355160 -0.023004 0.846460 0.034257 -0.531349 0 0 0
0.004078 0.339661 -0.049241 0.846460 0.034257 -0.531349 0 0 0
0.008992 0.797616 -0.011888 0.846460 0.034257 -0.531349 0 0 0
0.013029 0.797597 0.032605 0.995551 0.026859 -0.090319 0 0 0
0.019921 0.355160 -0.023004 0.995551 0.026859 -0.090319 0 0 0
0.008992 0.797616 -0.011888 0.995551 0.026859 -0.090319 0 0 0
-0.025638 0.302583 -0.049542 -0.319144 0.094056 -0.943027 0 0 0
-0.046531 0.797503 0.006891 -0.319144 0.094056 -0.943027 0 0 0
0.008992 0.797616 -0.011888 -0.319144 0.094056 -0.943027 0 0 0
-0.188516 2.348736 -0.251560 -0.513924 0.113730 -0.850263 50 50 50
-0.182228 3.275029 -0.131461 -0.513924 0.113730 -0.850263 51 51 51
-0.074478 3.266994 -0.197663 -0.513924 0.113730 -0.850263 51 51 51
0.179786 1.416832 0.310297 0.817956 0.041278 0.573798 51 51 51
0.341812 1.382983 0.081762 0.817956 0.041278 0.573798 51 51 51
0.318884 1.928109 0.075230 0.817956 0.041278 0.573798 51 51 51
-0.026997 1.899933 -0.352271 -0.193941 -0.001861 -0.981011 51 51 51
0.051677 1.384818 -0.366847 -0.193941 -0.001861 -0.981011 51 51 51
-0.224099 1.418243 -0.312391 -0.193941 -0.001861 -0.981011 51 51 51
0.318884 1.928109 0.075230 0.980479 0.038929 -0.192732 51 51 51
0.341812 1.382983 0.081762 0.980479 0.038929 -0.192732 51 51 51
0.284396 1.433972 -0.200029 0.980479 0.038929 -0.192732 51 51 51
-0.182228 3.275029 -0.131461 -0.380599 0.285411 -0.879594 51 51 51
-0.121874 3.675035 -0.027782 -0.380599 0.285411 -0.879594 51 51 51
0.008683 3.608701 -0.105798 -0.380599 0.285411 -0.879594 51 51 51
-0.146469 3.198869 0.161161 -0.758854 0.273690 0.590960 51 51 51
-0.028858 3.736619 0.063139 -0.758854 0.273690 0.590960 51 51 51
-0.121874 3.675035 -0.027782 -0.758854 0.273690 0.590960 51 51 51
0.008683 3.608701 -0.105798 0.051410 0.801650 -0.595580 51 51 51
-0.121874 3.675035 -0.027782 0.051410 0.801650 -0.595580 51 51 51
-0.028858 3.736619 0.063139 0.051410 0.801650 -0.595580 51 51 51
3 0 1 2
3 3 4 5
3 6 7 8
3 9 10 11
3 12 13 14
3 15 16 17
3 18 19 20
3 21 22 23
3 24 25 26
3 27 28 29
3 30 31 32
3 33 34 35
3 36 37 38
3 39 40 41
3 42 43 44
3 45 46 47
3 48 49 50
3 51 52 53
3 54 55 56
3 57 58 59
3 60 61 62
3 63 64 65
3 66 67 68
3 69 70 71
3 72 73 74
3 75 76 77
3 78 79 80
3 81 82 83
3 84 85 86
3 87 88 89
3 90 91 92
3 93 94 95
3 96 97 98
3 99 100 101
3 102 103 104
3 105 106 107
3 108 109 110
3 111 112 113
3 114 115 116
3 117 118 119
3 120 121 122
3 123 124 125
3 126 127 128
3 129 130 131
3 132 133 134
3 135 136 137
3 138 139 140
3 141 142 143
3 144 145 146
3 147 148 149
3 150 151 152
3 153 154 155
3 156 157 158
3 159 160 161
3 162 163 164
3 165 166 167
3 168 169 170
3 171 172 173
3 174 175 176
3 177 178 179
3 180 181 182
3 183 184 185
3 186 187 188
3 189 190 191
3 192 193 194
3 195 196 197
3 198 199 200
3 201 202 203
3 204 205 206
3 207 208 209
3 210 211 212
3 213 214 215
3 216 217 218
3 219 220 221
3 222 223 224
3 225 226 227
3 228 229 230
3 231 232 233
3 234 235 236
3 237 238 239
3 240 241 242
3 243 244 245
3 246 247 248
3 249 250 251
3 252 253 254
3 255 256 257
3 258 259 260
3 261 262 263
3 264 265 266
3 267 268 269
3 270 271 272
3 273 274 275
3 276 277 278
3 279 280 281
3 282 283 284
3 285 286 287
3 288 289 290
3 291 292 293
3 294 295 296
3 297 298 299
3 300 301 302
3 303 304 305
3 306 307 308
3 309 310 311
3 312 313 314
