ply
format ascii 1.0
comment Created by Blender 2.77 (sub 0) - www.blender.org, source file: 'Armor.blend'
element vertex 390
property float x
property float y
property float z
property float nx
property float ny
property float nz
property uchar red
property uchar green
property uchar blue
element face 134
property list uchar uint vertex_indices
end_header
-1.868623 0.966377 0.699981 -0.892040 -0.398769 -0.212717 76 73 102
-1.579370 0.248476 0.832792 -0.892040 -0.398769 -0.212717 76 73 102
-1.928824 1.043826 0.807245 -0.892040 -0.398769 -0.212717 76 73 102
-1.580206 0.966378 -0.846373 -0.358476 -0.903759 -0.233913 76 73 102
-2.277659 1.045156 -0.081883 -0.358476 -0.903759 -0.233913 76 73 102
-1.649183 1.024612 -0.965660 -0.358476 -0.903759 -0.233913 76 73 102
-1.868623 0.966377 0.699981 -0.705106 -0.640467 0.304347 76 73 102
-2.277659 1.045156 -0.081883 -0.705106 -0.640467 0.304347 76 73 102
-2.202352 0.966377 -0.073195 -0.705106 -0.640467 0.304347 76 73 102
-1.493131 0.264631 0.699981 -0.747838 0.511343 -0.423398 76 73 102
-1.496338 -0.379729 -0.072556 -0.747838 0.511343 -0.423398 76 73 102
-1.579370 0.248476 0.832792 -0.747838 0.511343 -0.423398 76 73 102
-1.580206 0.966378 -0.846373 -0.760310 -0.299339 0.576476 76 73 102
-1.295267 0.218082 -0.859127 -0.760310 -0.299339 0.576476 76 73 102
-1.203614 0.234640 -0.729648 -0.760310 -0.299339 0.576476 76 73 102
-1.408945 -1.728854 -0.057714 -0.950233 0.053978 0.306830 76 73 102
-1.136734 -1.218066 0.695446 -0.950233 0.053978 0.306830 76 73 102
-1.371986 -0.948536 -0.080530 -0.950233 0.053978 0.306830 76 73 102
-0.019179 -1.259858 0.865015 -0.149798 0.005880 0.988699 76 73 102
-1.136734 -1.218066 0.695446 -0.149798 0.005880 0.988699 76 73 102
-0.019179 -1.829970 0.868405 -0.149798 0.005880 0.988699 76 73 102
-1.371986 -0.948536 -0.080530 -0.973844 -0.213973 0.076438 76 73 102
-1.458291 -0.309097 0.609896 -0.973844 -0.213973 0.076438 76 73 102
-1.496338 -0.379729 -0.072556 -0.973844 -0.213973 0.076438 76 73 102
-1.088341 -1.219980 -0.795938 -0.343710 -0.020536 -0.938851 76 73 102
-0.019179 -0.465180 -1.203865 -0.343710 -0.020536 -0.938851 76 73 102
-0.019179 -1.243339 -1.186844 -0.343710 -0.020536 -0.938851 76 73 102
-1.928824 1.043826 0.807245 -0.468376 0.863933 0.185053 76 73 102
-1.093217 1.649874 0.092817 -0.468376 0.863933 0.185053 76 73 102
-2.277659 1.045156 -0.081883 -0.468376 0.863933 0.185053 76 73 102
-1.297017 -0.167351 -0.681846 -0.910420 -0.193913 -0.365423 76 73 102
-1.371986 -0.948536 -0.080530 -0.910420 -0.193913 -0.365423 76 73 102
-1.496338 -0.379729 -0.072556 -0.910420 -0.193913 -0.365423 76 73 102
-1.088341 -1.219980 -0.795938 -0.924788 0.032717 -0.379074 76 73 102
-1.408945 -1.728854 -0.057714 -0.924788 0.032717 -0.379074 76 73 102
-1.371986 -0.948536 -0.080530 -0.924788 0.032717 -0.379074 76 73 102
-1.579370 0.248476 0.832792 -0.225160 -0.067709 0.971966 76 73 102
-1.164943 0.593410 0.952825 -0.225160 -0.067709 0.971966 76 73 102
-1.928824 1.043826 0.807245 -0.225160 -0.067709 0.971966 76 73 102
-0.019179 -1.243339 -1.186844 -0.343741 -0.088839 -0.934853 76 73 102
-0.019179 -1.788330 -1.135054 -0.343741 -0.088839 -0.934853 76 73 102
-1.088341 -1.219980 -0.795938 -0.343741 -0.088839 -0.934853 76 73 102
-1.037656 -1.786643 -0.804275 -0.308886 -0.013636 -0.951001 76 73 102
-1.088341 -1.219980 -0.795938 -0.308886 -0.013636 -0.951001 76 73 102
-0.019179 -1.788330 -1.135054 -0.308886 -0.013636 -0.951001 76 73 102
-1.408945 -1.728854 -0.057714 -0.889142 -0.158935 0.429147 76 73 102
-1.082417 -1.646257 0.649402 -0.889142 -0.158935 0.429147 76 73 102
-1.136734 -1.218066 0.695446 -0.889142 -0.158935 0.429147 76 73 102
-0.019179 -0.332785 1.051639 -0.168500 -0.177411 0.969605 76 73 102
-1.108570 -0.826400 0.772004 -0.168500 -0.177411 0.969605 76 73 102
-1.136734 -1.218066 0.695446 -0.168500 -0.177411 0.969605 76 73 102
-1.082417 -1.646257 0.649402 -0.221808 -0.132022 0.966111 76 73 102
-0.019179 -1.829970 0.868405 -0.221808 -0.132022 0.966111 76 73 102
-1.136734 -1.218066 0.695446 -0.221808 -0.132022 0.966111 76 73 102
-1.371986 -0.948536 -0.080530 -0.828134 -0.459064 0.321643 76 73 102
-1.108570 -0.826400 0.772004 -0.828134 -0.459064 0.321643 76 73 102
-1.458291 -0.309097 0.609896 -0.828134 -0.459064 0.321643 76 73 102
-0.019179 0.669559 -1.270864 -0.137170 0.203571 -0.969404 76 73 102
-1.649183 1.024612 -0.965660 -0.137170 0.203571 -0.969404 76 73 102
-1.149650 1.434340 -0.950302 -0.137170 0.203571 -0.969404 76 73 102
-1.297017 -0.167351 -0.681846 -0.372715 0.026649 -0.927563 76 73 102
-0.019179 -0.465180 -1.203865 -0.372715 0.026649 -0.927563 76 73 102
-1.088341 -1.219980 -0.795938 -0.372715 0.026649 -0.927563 76 73 102
-1.928824 1.043826 0.807245 -0.453668 0.867255 0.205073 76 73 102
-0.832943 1.616752 0.808675 -0.453668 0.867255 0.205073 76 73 102
-1.093217 1.649874 0.092817 -0.453668 0.867255 0.205073 76 73 102
-1.649183 1.024612 -0.965660 -0.397552 0.866163 -0.302844 76 73 102
-2.277659 1.045156 -0.081883 -0.397552 0.866163 -0.302844 76 73 102
-1.093217 1.649874 0.092817 -0.397552 0.866163 -0.302844 76 73 102
-1.088341 -1.219980 -0.795938 -0.895212 -0.073605 -0.439520 76 73 102
-1.037656 -1.786643 -0.804275 -0.895212 -0.073605 -0.439520 76 73 102
-1.408945 -1.728854 -0.057714 -0.895212 -0.073605 -0.439520 76 73 102
-1.579370 0.248476 0.832792 -0.232136 -0.058955 0.970895 76 73 102
-1.378990 -0.218304 0.852358 -0.232136 -0.058955 0.970895 76 73 102
-1.164943 0.593410 0.952825 -0.232136 -0.058955 0.970895 76 73 102
-0.019179 -1.259858 0.865015 -0.154259 -0.194984 0.968600 76 73 102
-0.019179 -0.332785 1.051639 -0.154259 -0.194984 0.968600 76 73 102
-1.136734 -1.218066 0.695446 -0.154259 -0.194984 0.968600 76 73 102
-1.295267 0.218082 -0.859127 -0.288438 -0.056436 -0.955834 76 73 102
-0.019179 0.669559 -1.270864 -0.288438 -0.056436 -0.955834 76 73 102
-0.019179 -0.465180 -1.203865 -0.288438 -0.056436 -0.955834 76 73 102
-1.649183 1.024612 -0.965660 -0.626910 0.769002 -0.124979 76 73 102
-1.093217 1.649874 0.092817 -0.626910 0.769002 -0.124979 76 73 102
-1.149650 1.434340 -0.950302 -0.626910 0.769002 -0.124979 76 73 102
-1.295267 0.218082 -0.859127 -0.226377 -0.224531 -0.947808 76 73 102
-1.649183 1.024612 -0.965660 -0.226377 -0.224531 -0.947808 76 73 102
-0.019179 0.669559 -1.270864 -0.226377 -0.224531 -0.947808 76 73 102
-1.108570 -0.826400 0.772004 -0.807620 -0.414566 0.419386 76 73 102
-1.378990 -0.218304 0.852358 -0.807620 -0.414566 0.419386 76 73 102
-1.458291 -0.309097 0.609896 -0.807620 -0.414566 0.419386 76 73 102
-1.458291 -0.309097 0.609896 -0.845737 -0.346034 0.406190 76 73 102
-1.378990 -0.218304 0.852358 -0.845737 -0.346034 0.406190 76 73 102
-1.579370 0.248476 0.832792 -0.845737 -0.346034 0.406190 76 73 102
-1.297017 -0.167351 -0.681846 -0.949723 0.191187 -0.247938 76 73 102
-1.445983 -0.118022 -0.073196 -0.949723 0.191187 -0.247938 76 73 102
-1.203614 0.234640 -0.729648 -0.949723 0.191187 -0.247938 76 73 102
-1.496338 -0.379729 -0.072556 -0.967168 -0.241574 0.078922 76 73 102
-1.458291 -0.309097 0.609896 -0.967168 -0.241574 0.078922 76 73 102
-1.579370 0.248476 0.832792 -0.967168 -0.241574 0.078922 76 73 102
1.828014 0.966377 0.699981 0.746866 -0.397239 -0.533284 76 73 102
1.541012 0.248476 0.832792 0.746866 -0.397239 -0.533284 76 73 102
1.454773 0.264631 0.699981 0.746866 -0.397239 -0.533284 76 73 102
1.539597 0.966378 -0.846373 0.604256 -0.631239 -0.486223 76 73 102
2.237050 1.045156 -0.081883 0.604256 -0.631239 -0.486223 76 73 102
2.161743 0.966377 -0.073195 0.604256 -0.631239 -0.486223 76 73 102
2.237050 1.045156 -0.081883 0.705106 -0.640467 0.304347 76 73 102
1.828014 0.966377 0.699981 0.705106 -0.640467 0.304347 76 73 102
2.161743 0.966377 -0.073195 0.705106 -0.640467 0.304347 76 73 102
1.454773 0.264631 0.699981 0.979858 0.148666 -0.133327 76 73 102
1.452255 -0.416822 -0.078378 0.979858 0.148666 -0.133327 76 73 102
1.407625 -0.118022 -0.073196 0.979858 0.148666 -0.133327 76 73 102
-0.026442 1.466632 0.929615 0.119822 0.167392 0.978582 76 73 102
1.068654 0.551080 0.952137 0.119822 0.167392 0.978582 76 73 102
0.751548 1.616752 0.808675 0.119822 0.167392 0.978582 76 73 102
1.114435 0.268489 -0.905097 0.818752 -0.471188 -0.328065 76 73 102
1.539597 0.966378 -0.846373 0.818752 -0.471188 -0.328065 76 73 102
1.165255 0.234640 -0.729648 0.818752 -0.471188 -0.328065 76 73 102
1.275441 -1.720164 -0.057714 0.960995 -0.064514 0.268935 76 73 102
1.333627 -0.948536 -0.080530 0.960995 -0.064514 0.268935 76 73 102
1.098376 -1.218066 0.695446 0.960995 -0.064514 0.268935 76 73 102
-0.019179 -1.259858 0.865015 0.149798 0.005880 0.988699 76 73 102
-0.019179 -1.829970 0.868405 0.149798 0.005880 0.988699 76 73 102
1.098376 -1.218066 0.695446 0.149798 0.005880 0.988699 76 73 102
1.333627 -0.948536 -0.080530 0.973950 -0.217551 0.063974 76 73 102
1.452255 -0.416822 -0.078378 0.973950 -0.217551 0.063974 76 73 102
1.438308 -0.344326 0.380484 0.973950 -0.217551 0.063974 76 73 102
1.049982 -1.219980 -0.795938 0.343710 -0.020536 -0.938851 76 73 102
-0.019179 -1.243339 -1.186844 0.343710 -0.020536 -0.938851 76 73 102
-0.019179 -0.465180 -1.203865 0.343710 -0.020536 -0.938851 76 73 102
1.888215 1.043826 0.807245 0.441730 0.879990 0.174622 76 73 102
2.237050 1.045156 -0.081883 0.441730 0.879990 0.174622 76 73 102
0.991161 1.646245 0.040634 0.441730 0.879990 0.174622 76 73 102
1.333627 -0.948536 -0.080530 0.905706 -0.200554 -0.373464 76 73 102
1.258659 -0.167351 -0.681846 0.905706 -0.200554 -0.373464 76 73 102
1.452255 -0.416822 -0.078378 0.905706 -0.200554 -0.373464 76 73 102
1.049982 -1.219980 -0.795938 0.936682 -0.080708 -0.340753 76 73 102
1.333627 -0.948536 -0.080530 0.936682 -0.080708 -0.340753 76 73 102
1.275441 -1.720164 -0.057714 0.936682 -0.080708 -0.340753 76 73 102
1.888215 1.043826 0.807245 0.208442 -0.059637 0.976215 76 73 102
1.068654 0.551080 0.952137 0.208442 -0.059637 0.976215 76 73 102
1.541012 0.248476 0.832792 0.208442 -0.059637 0.976215 76 73 102
-0.019179 -1.243339 -1.186844 0.343741 -0.088839 -0.934853 76 73 102
1.049982 -1.219980 -0.795938 0.343741 -0.088839 -0.934853 76 73 102
-0.019179 -1.788330 -1.135054 0.343741 -0.088839 -0.934853 76 73 102
0.999298 -1.786643 -0.804275 0.308886 -0.013636 -0.951001 76 73 102
-0.019179 -1.788330 -1.135054 0.308886 -0.013636 -0.951001 76 73 102
1.049982 -1.219980 -0.795938 0.308886 -0.013636 -0.951001 76 73 102
1.275441 -1.720164 -0.057714 0.862368 -0.303610 0.405144 76 73 102
1.098376 -1.218066 0.695446 0.862368 -0.303610 0.405144 76 73 102
0.969255 -1.646257 0.649402 0.862368 -0.303610 0.405144 76 73 102
-0.019179 -0.332785 1.051639 0.134668 -0.246492 0.959743 76 73 102
1.070211 -0.826400 0.772004 0.134668 -0.246492 0.959743 76 73 102
1.271103 -0.224337 0.898444 0.134668 -0.246492 0.959743 76 73 102
0.969255 -1.646257 0.649402 0.244029 -0.176131 0.953639 76 73 102
1.098376 -1.218066 0.695446 0.244029 -0.176131 0.953639 76 73 102
-0.019179 -1.829970 0.868405 0.244029 -0.176131 0.953639 76 73 102
1.333627 -0.948536 -0.080530 0.955828 0.011322 0.293709 76 73 102
1.070211 -0.826400 0.772004 0.955828 0.011322 0.293709 76 73 102
1.098376 -1.218066 0.695446 0.955828 0.011322 0.293709 76 73 102
1.109040 1.434340 -0.950302 0.136751 0.204534 -0.969260 76 73 102
1.480809 0.862173 -1.018589 0.136751 0.204534 -0.969260 76 73 102
-0.019179 0.669559 -1.270864 0.136751 0.204534 -0.969260 76 73 102
-0.019179 -0.465180 -1.203865 0.372715 0.026649 -0.927563 76 73 102
1.258659 -0.167351 -0.681846 0.372715 0.026649 -0.927563 76 73 102
1.049982 -1.219980 -0.795938 0.372715 0.026649 -0.927563 76 73 102
1.888215 1.043826 0.807245 0.443550 0.879560 0.172155 76 73 102
0.991161 1.646245 0.040634 0.443550 0.879560 0.172155 76 73 102
0.751548 1.616752 0.808675 0.443550 0.879560 0.172155 76 73 102
1.608573 1.024612 -0.965660 0.390821 0.870836 -0.298167 76 73 102
0.991161 1.646245 0.040634 0.390821 0.870836 -0.298167 76 73 102
2.237050 1.045156 -0.081883 0.390821 0.870836 -0.298167 76 73 102
1.049982 -1.219980 -0.795938 0.937241 -0.078833 -0.339653 76 73 102
1.275441 -1.720164 -0.057714 0.937241 -0.078833 -0.339653 76 73 102
0.999298 -1.786643 -0.804275 0.937241 -0.078833 -0.339653 76 73 102
1.541012 0.248476 0.832792 0.242657 -0.003819 0.970105 76 73 102
1.068654 0.551080 0.952137 0.242657 -0.003819 0.970105 76 73 102
1.271103 -0.224337 0.898444 0.242657 -0.003819 0.970105 76 73 102
-0.019179 -1.259858 0.865015 0.154259 -0.194984 0.968600 76 73 102
1.098376 -1.218066 0.695446 0.154259 -0.194984 0.968600 76 73 102
-0.019179 -0.332785 1.051639 0.154259 -0.194984 0.968600 76 73 102
1.118215 0.143820 -0.896595 0.288437 -0.056439 -0.955834 76 73 102
-0.019179 0.669559 -1.270864 0.288437 -0.056439 -0.955834 76 73 102
1.114435 0.268489 -0.905097 0.288437 -0.056439 -0.955834 76 73 102
1.608573 1.024612 -0.965660 0.629952 0.771399 -0.090021 76 73 102
1.109040 1.434340 -0.950302 0.629952 0.771399 -0.090021 76 73 102
0.991161 1.646245 0.040634 0.629952 0.771399 -0.090021 76 73 102
1.114435 0.268489 -0.905097 0.195495 -0.299184 -0.933954 76 73 102
-0.019179 0.669559 -1.270864 0.195495 -0.299184 -0.933954 76 73 102
1.480809 0.862173 -1.018589 0.195495 -0.299184 -0.933954 76 73 102
1.070211 -0.826400 0.772004 0.859086 -0.362532 0.361307 76 73 102
1.438308 -0.344326 0.380484 0.859086 -0.362532 0.361307 76 73 102
1.271103 -0.224337 0.898444 0.859086 -0.362532 0.361307 76 73 102
1.480809 0.862173 -1.018589 0.798225 -0.542604 -0.261569 76 73 102
1.608573 1.024612 -0.965660 0.798225 -0.542604 -0.261569 76 73 102
1.114435 0.268489 -0.905097 0.798225 -0.542604 -0.261569 76 73 102
1.165255 0.234640 -0.729648 0.949723 0.191187 -0.247939 76 73 102
1.407625 -0.118022 -0.073196 0.949723 0.191187 -0.247939 76 73 102
1.258659 -0.167351 -0.681846 0.949723 0.191187 -0.247939 76 73 102
1.541012 0.248476 0.832792 0.973950 -0.217551 0.063974 76 73 102
1.438308 -0.344326 0.380484 0.829282 -0.422635 0.365609 76 73 102
1.541012 0.248476 0.832792 0.829282 -0.422635 0.365609 76 73 102
1.271103 -0.224337 0.898444 0.829282 -0.422635 0.365609 76 73 102
-0.832943 1.616752 0.808675 -0.114119 0.174782 0.977971 76 73 102
-1.164943 0.593410 0.952825 -0.114119 0.174782 0.977971 76 73 102
-0.026442 1.466632 0.929615 -0.114119 0.174782 0.977971 76 73 102
1.271103 -0.224337 0.898444 0.120897 -0.037123 0.991971 76 73 102
1.068654 0.551080 0.952137 0.120897 -0.037123 0.991971 76 73 102
-0.019179 -0.332785 1.051639 0.120897 -0.037123 0.991971 76 73 102
-1.378990 -0.218304 0.852358 -0.151271 -0.082035 0.985082 76 73 102
-0.019179 -0.332785 1.051639 -0.151271 -0.082035 0.985082 76 73 102
-1.164943 0.593410 0.952825 -0.151271 -0.082035 0.985082 76 73 102
-1.164943 0.593410 0.952825 -0.031441 0.067498 0.997224 76 73 102
-0.019179 -0.332785 1.051639 -0.031441 0.067498 0.997224 76 73 102
-0.026442 1.466632 0.929615 -0.031441 0.067498 0.997224 76 73 102
1.068654 0.551080 0.952137 0.036144 0.067759 0.997047 76 73 102
-0.026442 1.466632 0.929615 0.036144 0.067759 0.997047 76 73 102
-0.019179 -0.332785 1.051639 0.036144 0.067759 0.997047 76 73 102
-1.164943 0.593410 0.952825 -0.088627 0.167073 0.981953 76 73 102
-0.832943 1.616752 0.808675 -0.088627 0.167073 0.981953 76 73 102
-1.928824 1.043826 0.807245 -0.088627 0.167073 0.981953 76 73 102
0.991161 1.646245 0.040634 -0.423719 0.864663 -0.269853 76 73 102
0.953027 1.375817 -0.765996 -0.423719 0.864663 -0.269853 76 73 102
0.865769 1.593511 0.068552 -0.423719 0.864663 -0.269853 76 73 102
-0.832943 1.616752 0.808675 0.307096 0.944724 -0.114840 76 73 102
-0.676582 1.556862 0.734123 0.307096 0.944724 -0.114840 76 73 102
-0.812656 1.592782 0.665735 0.307096 0.944724 -0.114840 76 73 102
-1.093217 1.649874 0.092817 0.439702 0.889160 -0.126717 76 73 102
-0.812656 1.592782 0.665735 0.439702 0.889160 -0.126717 76 73 102
-0.979904 1.596494 0.111450 0.439702 0.889160 -0.126717 76 73 102
-0.026442 1.466632 0.929615 -0.170637 0.984089 -0.049525 76 73 102
0.550662 1.556862 0.734123 -0.170637 0.984089 -0.049525 76 73 102
-0.062960 1.453745 0.799349 -0.170637 0.984089 -0.049525 76 73 102
0.751548 1.616752 0.808675 -0.268059 0.962075 -0.050558 76 73 102
0.692477 1.592782 0.665735 -0.268059 0.962075 -0.050558 76 73 102
0.550662 1.556862 0.734123 -0.268059 0.962075 -0.050558 76 73 102
-0.026442 1.466632 0.929615 0.217209 0.931256 -0.292543 76 73 102
-0.676582 1.556862 0.734123 0.217209 0.931256 -0.292543 76 73 102
-0.832943 1.616752 0.808675 0.217209 0.931256 -0.292543 76 73 102
-1.093217 1.649874 0.092817 0.834932 0.528273 -0.154323 76 73 102
-1.078555 1.375817 -0.765996 0.834932 0.528273 -0.154323 76 73 102
-1.149650 1.434340 -0.950302 0.834932 0.528273 -0.154323 76 73 102
0.991161 1.646245 0.040634 -0.273036 0.960791 -0.048286 76 73 102
0.692477 1.592782 0.665735 -0.273036 0.960791 -0.048286 76 73 102
0.751548 1.616752 0.808675 -0.273036 0.960791 -0.048286 76 73 102
-0.019179 0.669559 -1.270864 -0.518491 0.837400 -0.172995 76 73 102
0.953027 1.375817 -0.765996 -0.518491 0.837400 -0.172995 76 73 102
1.109040 1.434340 -0.950302 -0.518491 0.837400 -0.172995 76 73 102
-0.019179 0.669559 -1.270864 0.554704 0.832048 0.000000 76 73 102
-1.078555 1.375817 -0.765996 0.554704 0.832048 0.000000 76 73 102
-0.019179 0.669559 -1.072437 0.554704 0.832048 0.000000 76 73 102
0.969255 -1.646257 0.649402 0.013819 -0.993851 0.109859 76 73 102
0.971729 -1.725120 -0.064353 0.013819 -0.993851 0.109859 76 73 102
1.275441 -1.720164 -0.057714 0.013819 -0.993851 0.109859 76 73 102
-0.019179 -1.788330 -1.135054 0.012876 -0.998916 0.044740 76 73 102
-0.807487 -1.776256 -0.638602 0.012876 -0.998916 0.044740 76 73 102
-1.037656 -1.786643 -0.804275 0.012876 -0.998916 0.044740 76 73 102
-0.019179 -1.829970 0.868405 -0.152042 -0.984477 -0.087685 76 73 102
-0.841917 -1.668272 0.479555 -0.152042 -0.984477 -0.087685 76 73 102
-0.024082 -1.809582 0.648010 -0.152042 -0.984477 -0.087685 76 73 102
-1.037656 -1.786643 -0.804275 -0.007777 -0.997277 0.073329 76 73 102
-1.093079 -1.731805 -0.064353 -0.007777 -0.997277 0.073329 76 73 102
-1.408945 -1.728854 -0.057714 -0.007777 -0.997277 0.073329 76 73 102
-0.019179 -1.829970 0.868405 0.161646 -0.982317 -0.094464 76 73 102
0.736213 -1.668272 0.479555 0.161646 -0.982317 -0.094464 76 73 102
0.969255 -1.646257 0.649402 0.161646 -0.982317 -0.094464 76 73 102
-1.082417 -1.646257 0.649402 -0.006773 -0.992859 0.119101 76 73 102
-1.093079 -1.731805 -0.064353 -0.006773 -0.992859 0.119101 76 73 102
-0.841917 -1.668272 0.479555 -0.006773 -0.992859 0.119101 76 73 102
0.999298 -1.786643 -0.804275 0.014440 -0.996413 0.083387 76 73 102
0.971729 -1.725120 -0.064353 0.014440 -0.996413 0.083387 76 73 102
0.759322 -1.776256 -0.638602 0.014440 -0.996413 0.083387 76 73 102
-0.019179 -1.788330 -1.135054 -0.012708 -0.998941 0.044223 76 73 102
0.759322 -1.776256 -0.638602 -0.012708 -0.998941 0.044223 76 73 102
-0.024082 -1.777553 -0.893034 -0.012708 -0.998941 0.044223 76 73 102
-1.868623 0.966377 0.699981 -0.746038 -0.399192 -0.532984 76 73 102
-1.493131 0.264631 0.699981 -0.746038 -0.399192 -0.532984 76 73 102
-1.579370 0.248476 0.832792 -0.746038 -0.399192 -0.532984 76 73 102
-1.580206 0.966378 -0.846373 -0.604256 -0.631239 -0.486223 76 73 102
-2.202352 0.966377 -0.073195 -0.604256 -0.631239 -0.486223 76 73 102
-2.277659 1.045156 -0.081883 -0.604256 -0.631239 -0.486223 76 73 102
-1.868623 0.966377 0.699981 -0.588305 -0.775344 0.229652 76 73 102
-1.928824 1.043826 0.807245 -0.588305 -0.775344 0.229652 76 73 102
-2.277659 1.045156 -0.081883 -0.588305 -0.775344 0.229652 76 73 102
-1.493131 0.264631 0.699981 -0.970730 0.186406 -0.151448 76 73 102
-1.445983 -0.118022 -0.073196 -0.970730 0.186406 -0.151448 76 73 102
-1.496338 -0.379729 -0.072556 -0.970730 0.186406 -0.151448 76 73 102
-1.580206 0.966378 -0.846373 -0.876553 -0.339590 0.341077 76 73 102
-1.649183 1.024612 -0.965660 -0.876553 -0.339590 0.341077 76 73 102
-1.295267 0.218082 -0.859127 -0.876553 -0.339590 0.341077 76 73 102
-1.297017 -0.167351 -0.681846 -0.937214 -0.151762 -0.314004 76 73 102
-1.088341 -1.219980 -0.795938 -0.937214 -0.151762 -0.314004 76 73 102
-1.371986 -0.948536 -0.080530 -0.937214 -0.151762 -0.314004 76 73 102
-0.019179 -0.332785 1.051639 -0.158445 -0.198273 0.967255 76 73 102
-1.378990 -0.218304 0.852358 -0.158445 -0.198273 0.967255 76 73 102
-1.108570 -0.826400 0.772004 -0.158445 -0.198273 0.967255 76 73 102
-1.371986 -0.948536 -0.080530 -0.955828 0.011321 0.293709 76 73 102
-1.136734 -1.218066 0.695446 -0.955828 0.011321 0.293709 76 73 102
-1.108570 -0.826400 0.772004 -0.955828 0.011321 0.293709 76 73 102
-1.297017 -0.167351 -0.681846 -0.424215 -0.376817 -0.823438 76 73 102
-1.295267 0.218082 -0.859127 -0.424215 -0.376817 -0.823438 76 73 102
-0.019179 -0.465180 -1.203865 -0.424215 -0.376817 -0.823438 76 73 102
-1.203614 0.234640 -0.729648 -0.804928 0.250965 0.537687 76 73 102
-1.295267 0.218082 -0.859127 -0.804928 0.250965 0.537687 76 73 102
-1.297017 -0.167351 -0.681846 -0.804928 0.250965 0.537687 76 73 102
-1.297017 -0.167351 -0.681846 -0.951506 0.182472 -0.247668 76 73 102
-1.496338 -0.379729 -0.072556 -0.951506 0.182472 -0.247668 76 73 102
-1.445983 -0.118022 -0.073196 -0.951506 0.182472 -0.247668 76 73 102
1.828014 0.966377 0.699981 0.892576 -0.396540 -0.214628 76 73 102
1.888215 1.043826 0.807245 0.892576 -0.396540 -0.214628 76 73 102
1.541012 0.248476 0.832792 0.892576 -0.396540 -0.214628 76 73 102
1.539597 0.966378 -0.846373 0.358476 -0.903759 -0.233913 76 73 102
1.608573 1.024612 -0.965660 0.358476 -0.903759 -0.233913 76 73 102
2.237050 1.045156 -0.081883 0.358476 -0.903759 -0.233913 76 73 102
2.237050 1.045156 -0.081883 0.588304 -0.775344 0.229652 76 73 102
1.888215 1.043826 0.807245 0.588304 -0.775344 0.229652 76 73 102
1.828014 0.966377 0.699981 0.588304 -0.775344 0.229652 76 73 102
1.454773 0.264631 0.699981 0.756939 0.490461 -0.431847 76 73 102
1.541012 0.248476 0.832792 0.756939 0.490461 -0.431847 76 73 102
1.452255 -0.416822 -0.078378 0.756939 0.490461 -0.431847 76 73 102
1.114435 0.268489 -0.905097 0.824204 -0.520823 0.222333 76 73 102
1.608573 1.024612 -0.965660 0.824204 -0.520823 0.222333 76 73 102
1.539597 0.966378 -0.846373 0.824204 -0.520823 0.222333 76 73 102
1.333627 -0.948536 -0.080530 0.937214 -0.151762 -0.314005 76 73 102
1.049982 -1.219980 -0.795938 0.937214 -0.151762 -0.314005 76 73 102
1.258659 -0.167351 -0.681846 0.937214 -0.151762 -0.314005 76 73 102
1.888215 1.043826 0.807245 0.080043 0.156346 0.984454 76 73 102
0.751548 1.616752 0.808675 0.080043 0.156346 0.984454 76 73 102
1.068654 0.551080 0.952137 0.080043 0.156346 0.984454 76 73 102
-0.019179 -0.332785 1.051639 0.168500 -0.177411 0.969604 76 73 102
1.098376 -1.218066 0.695446 0.168500 -0.177411 0.969604 76 73 102
1.070211 -0.826400 0.772004 0.168500 -0.177411 0.969604 76 73 102
1.333627 -0.948536 -0.080530 0.860245 -0.395023 0.322390 76 73 102
1.438308 -0.344326 0.380484 0.860245 -0.395023 0.322390 76 73 102
1.070211 -0.826400 0.772004 0.860245 -0.395023 0.322390 76 73 102
1.109040 1.434340 -0.950302 0.139251 0.206077 -0.968577 76 73 102
1.608573 1.024612 -0.965660 0.139251 0.206077 -0.968577 76 73 102
1.480809 0.862173 -1.018589 0.139251 0.206077 -0.968577 76 73 102
-0.019179 -0.465180 -1.203865 0.424215 -0.376817 -0.823438 76 73 102
1.118215 0.143820 -0.896595 0.424215 -0.376817 -0.823438 76 73 102
1.258659 -0.167351 -0.681846 0.424215 -0.376817 -0.823438 76 73 102
1.118215 0.143820 -0.896595 0.288438 -0.056436 -0.955834 76 73 102
-0.019179 -0.465180 -1.203865 0.288438 -0.056436 -0.955834 76 73 102
-0.019179 0.669559 -1.270864 0.288438 -0.056436 -0.955834 76 73 102
1.258659 -0.167351 -0.681846 0.919853 0.171795 -0.352643 76 73 102
1.118215 0.143820 -0.896595 0.919853 0.171795 -0.352643 76 73 102
1.165255 0.234640 -0.729648 0.919853 0.171795 -0.352643 76 73 102
1.114435 0.268489 -0.905097 0.960994 0.010289 -0.276376 76 73 102
1.165255 0.234640 -0.729648 0.960994 0.010289 -0.276376 76 73 102
1.118215 0.143820 -0.896595 0.960994 0.010289 -0.276376 76 73 102
1.407625 -0.118022 -0.073196 0.957905 0.147348 -0.246388 76 73 102
1.452255 -0.416822 -0.078378 0.957905 0.147348 -0.246388 76 73 102
1.258659 -0.167351 -0.681846 0.957905 0.147348 -0.246388 76 73 102
0.991161 1.646245 0.040634 -0.573154 0.784731 -0.235991 76 73 102
1.109040 1.434340 -0.950302 -0.573154 0.784731 -0.235991 76 73 102
0.953027 1.375817 -0.765996 -0.573154 0.784731 -0.235991 76 73 102
-1.093217 1.649874 0.092817 0.387885 0.916416 -0.098627 76 73 102
-0.832943 1.616752 0.808675 0.387885 0.916416 -0.098627 76 73 102
-0.812656 1.592782 0.665735 0.387885 0.916416 -0.098627 76 73 102
-0.026442 1.466632 0.929615 -0.214552 0.957795 -0.191299 76 73 102
0.751548 1.616752 0.808675 -0.214552 0.957795 -0.191299 76 73 102
0.550662 1.556862 0.734123 -0.214552 0.957795 -0.191299 76 73 102
-0.026442 1.466632 0.929615 0.179056 0.972879 -0.146446 76 73 102
-0.062960 1.453745 0.799349 0.179056 0.972879 -0.146446 76 73 102
-0.676582 1.556862 0.734123 0.179056 0.972879 -0.146446 76 73 102
-1.093217 1.649874 0.092817 0.446245 0.854733 -0.265137 76 73 102
-0.979904 1.596494 0.111450 0.446245 0.854733 -0.265137 76 73 102
-1.078555 1.375817 -0.765996 0.446245 0.854733 -0.265137 76 73 102
0.991161 1.646245 0.040634 -0.407027 0.905891 -0.117005 76 73 102
0.865769 1.593511 0.068552 -0.407027 0.905891 -0.117005 76 73 102
0.692477 1.592782 0.665735 -0.407027 0.905891 -0.117005 76 73 102
-0.019179 0.669559 -1.270864 -0.587736 0.809053 0.000000 76 73 102
-0.019179 0.669559 -1.072437 -0.587736 0.809053 0.000000 76 73 102
0.953027 1.375817 -0.765996 -0.587736 0.809053 0.000000 76 73 102
-0.019179 0.669559 -1.270864 0.567970 0.821981 0.041917 76 73 102
-1.149650 1.434340 -0.950302 0.567970 0.821981 0.041917 76 73 102
-1.078555 1.375817 -0.765996 0.567970 0.821981 0.041917 76 73 102
0.736213 -1.668272 0.479555 0.013819 -0.993851 0.109859 76 73 102
-0.024082 -1.777553 -0.893034 0.012876 -0.998916 0.044740 76 73 102
-0.019179 -1.829970 0.868405 -0.152043 -0.984477 -0.087685 76 73 102
-1.082417 -1.646257 0.649402 -0.152043 -0.984477 -0.087685 76 73 102
-0.841917 -1.668272 0.479555 -0.152043 -0.984477 -0.087685 76 73 102
-1.037656 -1.786643 -0.804275 -0.007776 -0.997277 0.073329 76 73 102
-0.807487 -1.776256 -0.638602 -0.007776 -0.997277 0.073329 76 73 102
-1.093079 -1.731805 -0.064353 -0.007776 -0.997277 0.073329 76 73 102
-0.024082 -1.809582 0.648010 0.161646 -0.982317 -0.094464 76 73 102
-1.408945 -1.728854 -0.057714 -0.006773 -0.992859 0.119101 76 73 102
0.999298 -1.786643 -0.804275 0.014439 -0.996413 0.083387 76 73 102
1.275441 -1.720164 -0.057714 0.014439 -0.996413 0.083387 76 73 102
0.971729 -1.725120 -0.064353 0.014439 -0.996413 0.083387 76 73 102
0.999298 -1.786643 -0.804275 -0.012708 -0.998941 0.044223 76 73 102
3 0 1 2
3 3 4 5
3 6 7 8
3 9 10 11
3 12 13 14
3 15 16 17
3 18 19 20
3 21 22 23
3 24 25 26
3 27 28 29
3 30 31 32
3 33 34 35
3 36 37 38
3 39 40 41
3 42 43 44
3 45 46 47
3 48 49 50
3 51 52 53
3 54 55 56
3 57 58 59
3 60 61 62
3 63 64 65
3 66 67 68
3 69 70 71
3 72 73 74
3 75 76 77
3 78 79 80
3 81 82 83
3 84 85 86
3 87 88 89
3 90 91 92
3 93 94 95
3 96 97 98
3 99 100 101
3 102 103 104
3 105 106 107
3 108 109 110
3 111 112 113
3 114 115 116
3 117 118 119
3 120 121 122
3 123 124 125
3 126 127 128
3 129 130 131
3 132 133 134
3 135 136 137
3 138 139 140
3 141 142 143
3 144 145 146
3 147 148 149
3 150 151 152
3 153 154 155
3 156 157 158
3 159 160 161
3 162 163 164
3 165 166 167
3 168 169 170
3 171 172 173
3 174 175 176
3 177 178 179
3 180 181 182
3 183 184 185
3 186 187 188
3 189 190 191
3 192 193 194
3 195 196 197
3 124 198 125
3 199 200 201
3 202 203 204
3 205 206 207
3 208 209 210
3 211 212 213
3 214 215 216
3 217 218 219
3 220 221 222
3 223 224 225
3 226 227 228
3 229 230 231
3 232 233 234
3 235 236 237
3 238 239 240
3 241 242 243
3 244 245 246
3 247 248 249
3 250 251 252
3 253 254 255
3 256 257 258
3 259 260 261
3 262 263 264
3 265 266 267
3 268 269 270
3 271 272 273
3 274 275 276
3 277 278 279
3 280 281 282
3 283 284 285
3 286 287 288
3 289 290 291
3 292 293 294
3 295 296 297
3 298 299 300
3 301 302 303
3 304 305 306
3 307 308 309
3 310 311 312
3 313 314 315
3 316 317 318
3 319 320 321
3 322 323 324
3 325 326 327
3 328 329 330
3 331 332 333
3 334 335 336
3 337 338 339
3 340 341 342
3 343 344 345
3 346 347 348
3 349 350 351
3 352 353 354
3 355 356 357
3 358 359 360
3 361 362 363
3 364 365 366
3 367 368 369
3 370 371 372
3 373 374 375
3 250 376 251
3 253 377 254
3 378 379 380
3 381 382 383
3 262 384 263
3 265 385 266
3 386 387 388
3 271 389 272
