ply
format ascii 1.0
comment Created by Blender 2.77 (sub 0) - www.blender.org, source file: 'Dungeon0-Scene.blend'
element vertex 440
property float x
property float y
property float z
property float nx
property float ny
property float nz
property uchar red
property uchar green
property uchar blue
element face 784
property list uchar uint vertex_indices
end_header
-84.336342 21.862106 -72.918129 0.577349 0.577349 0.577349 0 255 255
-84.336342 8.002309 -74.918129 0.577349 -0.577349 -0.577349 0 255 255
-84.336342 21.862106 -74.918129 0.577349 0.577349 -0.577349 0 255 255
-94.688324 21.862106 -72.918129 -0.577349 0.577349 0.577349 0 255 255
-84.336342 8.002310 -72.918129 0.577349 -0.577349 0.577349 0 255 255
-94.688324 21.862106 -74.918129 -0.577349 0.577349 -0.577349 0 255 255
-94.688324 8.002310 -72.918129 -0.577349 -0.577349 0.577349 0 255 255
-94.688324 8.002309 -74.918129 -0.577349 -0.577349 -0.577349 0 255 255
-41.463097 23.386900 44.414452 -0.313669 0.896207 0.313669 255 0 255
-41.204094 23.386900 44.143410 0.313669 0.896207 -0.313669 255 0 255
-41.463097 23.386900 44.143410 -0.313669 0.896207 -0.313669 255 0 255
-41.204094 23.386900 44.414452 0.313669 0.896207 0.313669 255 0 255
-83.288254 18.870079 -31.861015 -0.941954 -0.211127 0.260994 255 0 0
-82.808685 19.226322 -31.194984 -0.668386 0.627491 0.399335 255 0 0
-83.283836 18.909229 -31.861015 -0.867214 0.452254 0.208197 255 0 0
-40.686104 22.831903 82.176384 0.637074 0.433851 -0.637074 255 0 255
-41.463097 23.386906 82.694389 -0.313669 0.896207 -0.313669 255 0 255
-41.204094 23.386906 82.694389 0.313669 0.896207 -0.313669 255 0 255
-82.808685 19.226322 -32.690174 -0.668386 0.627491 -0.399335 255 0 0
-83.288254 18.870079 -32.024143 -0.941954 -0.211035 -0.260994 255 0 0
-83.283836 18.909229 -32.024143 -0.867183 0.452315 -0.208167 255 0 0
-42.129112 21.092903 82.028374 -0.598346 -0.532823 -0.598346 255 0 255
-41.981102 22.831905 83.483421 -0.637074 0.433851 0.637074 255 0 255
-41.981102 22.831903 82.176384 -0.637074 0.433851 -0.637074 255 0 255
-82.127686 18.047506 -31.859823 0.375927 -0.918363 0.123386 255 0 0
-82.506973 17.950346 -32.024414 -0.202887 -0.962462 -0.180181 255 0 0
-82.127686 18.047506 -32.025333 0.375927 -0.918393 -0.123386 255 0 0
-41.463097 23.386908 82.965431 -0.313669 0.896207 0.313669 255 0 255
-18.455467 21.092903 82.028374 0.598346 -0.532823 -0.598346 255 0 255
-18.603477 22.831905 83.483421 0.637074 0.433851 0.637074 255 0 255
-18.455467 21.092905 83.631432 0.598346 -0.532823 0.598346 255 0 255
-40.538109 21.092905 83.631432 0.598346 -0.532853 0.598346 255 0 255
-40.686104 22.831905 83.483421 0.637074 0.433851 0.637074 255 0 255
-20.046471 21.092903 82.028374 -0.598346 -0.532853 -0.598346 255 0 255
-19.898476 22.831905 83.483421 -0.637074 0.433851 0.637074 255 0 255
-19.898476 22.831903 82.176384 -0.637074 0.433851 -0.637074 255 0 255
-42.129112 21.092905 83.631432 -0.598346 -0.532823 0.598346 255 0 255
-42.129112 21.092897 43.477409 -0.598346 -0.532823 -0.598346 255 0 255
-40.538109 21.092897 45.080467 0.598346 -0.532853 0.598346 255 0 255
-42.129112 21.092897 45.080467 -0.598346 -0.532823 0.598346 255 0 255
-83.571487 18.732361 -45.264252 0.971862 0.190405 0.138615 255 0 0
-83.682816 18.665781 -44.853798 0.780755 -0.043611 0.623280 255 0 0
-83.526596 18.400892 -45.260746 0.934965 -0.305521 0.180181 255 0 0
-19.380486 23.386906 82.694389 -0.313669 0.896207 -0.313669 255 0 255
-19.380486 23.386908 82.965431 -0.313669 0.896207 0.313669 255 0 255
-82.794662 19.202047 -32.721912 -0.449293 0.142705 -0.881893 255 0 0
-82.895248 18.585949 -32.451988 -0.693503 -0.322520 -0.644185 255 0 0
-19.121483 23.386908 82.965431 0.313669 0.896207 0.313669 255 0 255
-84.306976 17.950344 -45.424416 -0.202887 -0.962462 -0.180181 255 0 0
-84.571587 18.154951 -45.264252 -0.650838 -0.746422 0.138615 255 0 0
-84.571587 18.154951 -45.420914 -0.650807 -0.746452 -0.138615 255 0 0
-18.603477 22.831903 82.176384 0.637074 0.433851 -0.637074 255 0 255
-81.882812 18.665783 -31.453796 0.780755 -0.043641 0.623310 255 0 0
-82.211357 18.479202 -31.311481 0.312174 -0.214850 0.925382 255 0 0
-82.052231 18.212816 -31.450993 0.549303 -0.543260 0.634877 255 0 0
-41.204094 23.386908 82.965431 0.313669 0.896207 0.313669 255 0 255
-19.121483 23.386906 82.694389 0.313669 0.896207 -0.313669 255 0 255
-84.178452 18.479172 -45.997974 -0.043916 -0.272622 -0.961089 255 0 0
-84.458267 18.218073 -45.831360 -0.352611 -0.697958 -0.623280 255 0 0
-84.518341 18.279051 -45.852161 -0.519211 -0.533738 -0.667440 255 0 0
-84.608681 19.226320 -46.090176 -0.668264 0.627674 -0.399243 255 0 0
-85.088257 18.870077 -45.424141 -0.941984 -0.211005 -0.260964 255 0 0
-85.083832 18.909227 -45.424141 -0.867153 0.452437 -0.208136 255 0 0
-84.011353 18.479200 -45.973679 0.312174 -0.214850 -0.925382 255 0 0
-83.682816 18.665781 -45.831360 0.780755 -0.043580 -0.623280 255 0 0
-83.852234 18.212814 -45.834167 0.549303 -0.543260 -0.634877 255 0 0
-82.168579 19.553122 -32.024143 0.041780 0.977203 -0.208136 255 0 0
-82.680771 19.300171 -31.194984 -0.209357 0.892575 0.399304 255 0 0
-82.168579 19.553122 -31.861015 0.041749 0.977203 0.208136 255 0 0
-82.680771 19.300171 -32.690174 -0.209357 0.892575 -0.399335 255 0 0
-82.132469 19.537374 -32.024143 0.653737 0.710257 -0.260964 255 0 0
-82.082916 19.054949 -32.451988 0.626057 0.439344 -0.644185 255 0 0
-82.666756 19.275896 -32.721912 0.100986 0.460463 -0.881893 255 0 0
-84.594666 19.202045 -46.121914 -0.449293 0.142827 -0.881863 255 0 0
-84.695244 18.585947 -45.851990 -0.693503 -0.322520 -0.644185 255 0 0
-82.132469 19.537374 -31.861015 0.653737 0.710288 0.260964 255 0 0
-84.048836 18.554005 -45.997974 0.258065 -0.098270 -0.961089 255 0 0
-82.794662 19.202047 -31.163246 -0.449263 0.142705 0.881893 255 0 0
-82.248840 18.554007 -31.287186 0.258065 -0.098270 0.961089 255 0 0
-82.666756 19.275896 -31.163246 0.100986 0.460463 0.881893 255 0 0
-82.378448 18.479174 -32.597973 -0.043916 -0.272591 -0.961089 255 0 0
-82.718346 18.279053 -32.452160 -0.519242 -0.533738 -0.667440 255 0 0
-82.833420 18.216154 -32.024906 -0.756188 -0.637715 -0.146397 255 0 0
-81.793571 18.816515 -31.860256 0.930387 0.335978 0.146367 255 0 0
-82.506973 17.950340 -61.024414 -0.202887 -0.962462 -0.180181 255 0 0
-82.181274 18.138309 -61.434166 0.195807 -0.747368 -0.634877 255 0 0
-82.127686 18.047503 -61.025333 0.375896 -0.918393 -0.123386 255 0 0
-82.248840 18.554007 -32.597973 0.258034 -0.098239 -0.961089 255 0 0
-82.895248 18.585949 -31.433170 -0.693503 -0.322520 0.644185 255 0 0
-81.882812 18.665779 -60.453796 0.780755 -0.043611 0.623280 255 0 0
-82.211357 18.479198 -60.311481 0.312143 -0.214850 0.925382 255 0 0
-82.052231 18.212812 -60.450993 0.549303 -0.543260 0.634877 255 0 0
-81.726601 18.400890 -60.860744 0.934965 -0.305490 0.180181 255 0 0
-82.378448 18.479174 -31.287186 -0.043916 -0.272622 0.961089 255 0 0
-82.771591 18.154953 -32.020912 -0.650868 -0.746391 -0.138615 255 0 0
-82.658264 18.218075 -32.431362 -0.352611 -0.697928 -0.623310 255 0 0
-83.927689 18.047504 -45.259827 0.375927 -0.918363 0.123417 255 0 0
-83.927689 18.047504 -45.425335 0.375896 -0.918393 -0.123386 255 0 0
-82.082916 19.054949 -31.433170 0.626057 0.439344 0.644185 255 0 0
-85.088257 18.870077 -45.261017 -0.942015 -0.210883 0.260994 255 0 0
-84.608681 19.226320 -44.594986 -0.668294 0.627613 0.399274 255 0 0
-85.083832 18.909227 -45.261017 -0.867092 0.452559 0.208136 255 0 0
-81.793571 18.816515 -32.024906 0.930387 0.336039 -0.146367 255 0 0
-81.905579 18.748304 -32.452160 0.721854 0.182775 -0.667440 255 0 0
-83.852234 18.212814 -44.850994 0.549303 -0.543260 0.634877 255 0 0
-83.526596 18.400892 -45.424416 0.934965 -0.305521 -0.180181 255 0 0
-83.800385 18.121002 -45.425335 0.607349 -0.784753 -0.123386 255 0 0
-82.658264 18.218075 -31.453796 -0.352641 -0.697928 0.623310 255 0 0
-82.332413 18.409313 -31.311481 0.029969 -0.377789 0.925382 255 0 0
-81.882812 18.665783 -32.431362 0.780725 -0.043611 -0.623310 255 0 0
-82.211357 18.479202 -32.573681 0.312174 -0.214850 -0.925382 255 0 0
-82.332413 18.409313 -32.573681 0.029969 -0.377758 -0.925382 255 0 0
-82.181274 18.138315 -32.434166 0.195807 -0.747368 -0.634877 255 0 0
-82.378448 18.479168 -61.597973 -0.043916 -0.272591 -0.961089 255 0 0
-82.211357 18.479198 -61.573681 0.312174 -0.214850 -0.925382 255 0 0
-82.332413 18.409309 -61.573681 0.029969 -0.377758 -0.925382 255 0 0
-82.833420 18.216154 -31.860256 -0.756188 -0.637745 0.146367 255 0 0
-82.718346 18.279053 -31.432999 -0.519242 -0.533738 0.667440 255 0 0
-82.000381 18.121006 -32.025333 0.607379 -0.784753 -0.123386 255 0 0
-81.726601 18.400894 -31.860744 0.934965 -0.305521 0.180181 255 0 0
-82.000381 18.121006 -31.859825 0.607379 -0.784753 0.123386 255 0 0
-82.506973 17.950346 -31.860743 -0.202887 -0.962462 0.180181 255 0 0
-82.181274 18.138315 -31.450993 0.195807 -0.747368 0.634877 255 0 0
-82.771591 18.154953 -31.864250 -0.650838 -0.746422 0.138615 255 0 0
-81.905579 18.748304 -31.432999 0.721854 0.182745 0.667440 255 0 0
-84.633423 18.216152 -45.424904 -0.756157 -0.637776 -0.146367 255 0 0
-82.052231 18.212816 -32.434166 0.549303 -0.543260 -0.634877 255 0 0
-82.248840 18.554003 -60.287186 0.258034 -0.098270 0.961089 255 0 0
-81.905579 18.748299 -60.432999 0.721854 0.182745 0.667440 255 0 0
-83.981277 18.138313 -45.834167 0.195807 -0.747337 -0.634877 255 0 0
-84.132408 18.409311 -44.711479 0.029969 -0.377789 0.925382 255 0 0
-84.458267 18.218073 -44.853798 -0.352580 -0.697958 0.623280 255 0 0
-83.981277 18.138313 -44.850994 0.195807 -0.747368 0.634877 255 0 0
-83.571487 18.732361 -45.420914 0.971862 0.190344 -0.138615 255 0 0
-81.882812 18.665779 -61.431362 0.780755 -0.043611 -0.623280 255 0 0
-81.771484 18.732359 -61.020912 0.971831 0.190466 -0.138615 255 0 0
-81.726601 18.400890 -61.024414 0.934965 -0.305521 -0.180181 255 0 0
-84.132408 18.409311 -45.973679 0.029969 -0.377789 -0.925382 255 0 0
-81.726601 18.400894 -32.024414 0.934965 -0.305521 -0.180181 255 0 0
-81.771484 18.732363 -32.020912 0.971831 0.190466 -0.138615 255 0 0
-84.011353 18.479200 -44.711479 0.312174 -0.214820 0.925382 255 0 0
-20.046471 21.092905 83.631432 -0.598346 -0.532853 0.598346 255 0 255
-40.686104 22.831898 43.625420 0.637074 0.433851 -0.637074 255 0 255
-40.686104 22.831898 44.932457 0.637074 0.433851 0.637074 255 0 255
-40.538109 21.092903 82.028374 0.598346 -0.532853 -0.598346 255 0 255
-40.538109 21.092897 43.477409 0.598346 -0.532853 -0.598346 255 0 255
-41.981102 22.831898 43.625420 -0.637074 0.433851 -0.637074 255 0 255
-20.046471 21.092897 43.477409 -0.598346 -0.532853 -0.598346 255 0 255
-18.455467 21.092897 45.080467 0.598346 -0.532823 0.598346 255 0 255
-20.046471 21.092897 45.080467 -0.598346 -0.532853 0.598346 255 0 255
41.178719 36.631897 49.043232 -0.637074 0.433851 0.637074 255 0 255
41.967751 37.186897 48.525227 0.313669 0.896207 0.313669 255 0 255
41.696709 37.186897 48.525227 -0.313669 0.896207 0.313669 255 0 255
42.633766 34.892899 49.191246 0.598346 -0.532823 0.598346 255 0 255
41.030708 34.892899 49.191246 -0.598346 -0.532823 0.598346 255 0 255
-19.898476 22.831898 43.625420 -0.637074 0.433851 -0.637074 255 0 255
-19.380486 23.386900 44.414452 -0.313669 0.896207 0.313669 255 0 255
-19.380486 23.386900 44.143410 -0.313669 0.896207 -0.313669 255 0 255
42.633766 34.892899 47.600243 0.598346 -0.532853 -0.598346 255 0 255
41.178719 36.631897 47.748234 -0.637074 0.433851 -0.637074 255 0 255
42.485756 36.631897 47.748234 0.637074 0.433851 -0.637074 255 0 255
-18.603477 22.831898 43.625420 0.637074 0.433851 -0.637074 255 0 255
-19.121483 23.386900 44.414452 0.313669 0.896207 0.313669 255 0 255
-18.603477 22.831898 44.932457 0.637074 0.433851 0.637074 255 0 255
41.030708 34.892899 47.600243 -0.598346 -0.532853 -0.598346 255 0 255
-19.121483 23.386900 44.143410 0.313669 0.896207 -0.313669 255 0 255
41.967751 37.186905 67.025230 0.313669 0.896207 0.313669 255 0 255
41.696709 37.186905 66.766228 -0.313669 0.896207 -0.313669 255 0 255
41.696709 37.186905 67.025230 -0.313669 0.896207 0.313669 255 0 255
-19.898476 22.831898 44.932457 -0.637074 0.433851 0.637074 255 0 255
-18.455467 21.092897 43.477409 0.598346 -0.532823 -0.598346 255 0 255
-81.771484 18.732363 -31.864250 0.971831 0.190435 0.138615 255 0 0
41.696709 37.186897 48.266224 -0.313669 0.896207 -0.313669 255 0 255
64.447670 37.186905 67.025230 -0.313669 0.896207 0.313669 255 0 255
64.718712 37.186905 67.025230 0.313669 0.896207 0.313669 255 0 255
64.718712 37.186905 66.766228 0.313669 0.896207 -0.313669 255 0 255
64.447670 37.186905 66.766228 -0.313669 0.896207 -0.313669 255 0 255
41.967751 37.186897 48.266224 0.313669 0.896207 -0.313669 255 0 255
41.178719 36.631901 66.248238 -0.637074 0.433851 -0.637074 255 0 255
63.929665 29.331894 19.943230 -0.637074 0.433851 0.637074 255 0 255
64.447670 29.886896 19.166235 -0.313669 0.896207 -0.313669 255 0 255
63.929665 29.331894 18.648247 -0.637074 0.433851 -0.637074 255 0 255
65.384712 27.592894 20.091240 0.598346 -0.532853 0.598346 255 0 255
65.236702 29.331894 18.648247 0.637074 0.433851 -0.637074 255 0 255
65.236702 29.331894 19.943230 0.637074 0.433851 0.637074 255 0 255
42.633766 34.892902 67.691246 0.598346 -0.532823 0.598346 255 0 255
41.178719 36.631905 67.543236 -0.637074 0.433851 0.637074 255 0 255
41.030708 34.892902 67.691246 -0.598346 -0.532853 0.598346 255 0 255
65.384712 27.592894 18.500237 0.598346 -0.532853 -0.598346 255 0 255
63.781654 27.592894 18.500237 -0.598346 -0.532823 -0.598346 255 0 255
65.384712 34.892902 67.691246 0.598346 -0.532853 0.598346 255 0 255
63.781654 34.892902 66.100243 -0.598346 -0.532853 -0.598346 255 0 255
65.384712 34.892902 66.100243 0.598346 -0.532853 -0.598346 255 0 255
64.447670 37.186897 48.525227 -0.313669 0.896207 0.313669 255 0 255
64.718712 37.186897 48.525227 0.313669 0.896207 0.313669 255 0 255
64.718712 37.186897 48.266224 0.313669 0.896207 -0.313669 255 0 255
64.447670 37.186897 48.266224 -0.313669 0.896207 -0.313669 255 0 255
64.718712 29.886896 19.166235 0.313669 0.896207 -0.313669 255 0 255
41.030708 34.892902 66.100243 -0.598346 -0.532853 -0.598346 255 0 255
65.236702 36.631901 66.248238 0.637074 0.433851 -0.637074 255 0 255
64.718712 29.886896 19.425238 0.313669 0.896207 0.313669 255 0 255
63.929665 36.631901 66.248238 -0.637074 0.433851 -0.637074 255 0 255
42.633766 34.892902 66.100243 0.598346 -0.532853 -0.598346 255 0 255
65.236702 36.631905 67.543236 0.637074 0.433851 0.637074 255 0 255
65.384712 34.892899 49.191246 0.598346 -0.532823 0.598346 255 0 255
63.781654 34.892899 47.600243 -0.598346 -0.532853 -0.598346 255 0 255
65.384712 34.892899 47.600243 0.598346 -0.532853 -0.598346 255 0 255
64.447670 29.886896 19.425238 -0.313669 0.896207 0.313669 255 0 255
41.967751 37.186905 66.766228 0.313669 0.896207 -0.313669 255 0 255
-41.981102 22.831898 44.932457 -0.637074 0.433851 0.637074 255 0 255
42.485756 36.631905 67.543236 0.637074 0.433851 0.637074 255 0 255
42.485756 36.631901 66.248238 0.637074 0.433851 -0.637074 255 0 255
42.485756 36.631897 49.043232 0.637074 0.433851 0.637074 255 0 255
63.781654 27.592894 20.091240 -0.598346 -0.532823 0.598346 255 0 255
63.929665 36.631897 47.748234 -0.637074 0.433851 -0.637074 255 0 255
65.236702 36.631897 47.748234 0.637074 0.433851 -0.637074 255 0 255
63.929665 36.631905 67.543236 -0.637074 0.433851 0.637074 255 0 255
63.781654 34.892902 67.691246 -0.598346 -0.532823 0.598346 255 0 255
63.929665 36.631897 49.043232 -0.637074 0.433851 0.637074 255 0 255
63.781654 34.892899 49.191246 -0.598346 -0.532823 0.598346 255 0 255
42.633766 27.592894 20.091240 0.598346 -0.532853 0.598346 255 0 255
41.030708 27.592894 18.500237 -0.598346 -0.532853 -0.598346 255 0 255
42.633766 27.592894 18.500237 0.598346 -0.532823 -0.598346 255 0 255
83.100487 46.252609 -74.467056 -0.420057 0.801599 0.425367 0 255 0
83.514946 46.052608 -74.367065 0.532548 0.540361 0.651448 0 255 0
83.414940 46.252609 -74.467056 0.420057 0.801599 0.425367 0 255 0
86.507713 40.244934 -72.245590 0.693411 0.247536 0.676656 0 255 0
32.129707 27.105379 -55.788811 0.669362 0.322245 -0.669362 255 0 255
30.145714 27.745380 -54.892815 -0.313913 0.896023 -0.313913 255 0 255
31.233711 27.745380 -54.892815 0.313913 0.896023 -0.313913 255 0 255
57.350929 45.605370 -106.723572 0.669362 0.322245 0.669362 255 0 255
56.806938 42.933372 -109.059570 0.517991 -0.680654 -0.517991 255 0 255
57.350929 45.605370 -109.603577 0.669362 0.322245 -0.669362 255 0 255
30.145714 27.745380 -53.772812 -0.313913 0.896023 0.313913 255 0 255
30.945717 27.937382 -54.060814 0.223243 0.948851 0.223212 255 0 255
30.433708 27.937382 -54.060814 -0.223243 0.948851 0.223212 255 0 255
35.286201 39.105373 -98.075569 0.000000 0.322245 0.946623 255 0 255
36.078148 39.745373 -100.134659 0.443953 0.896023 0.000000 255 0 255
35.286186 39.745373 -99.342697 0.000000 0.896023 0.443953 255 0 255
31.233711 27.745380 -53.772812 0.313913 0.896023 0.313913 255 0 255
55.334938 46.245369 -107.619583 -0.313944 0.896023 0.313913 255 0 255
55.622932 46.437370 -108.419571 -0.223243 0.948851 -0.223212 255 0 255
55.334938 46.245369 -108.707581 -0.313913 0.896023 -0.313913 255 0 255
29.793709 24.433380 -55.244812 -0.517991 -0.680654 -0.517991 255 0 255
31.585716 24.433380 -55.244812 0.517991 -0.680654 -0.517991 255 0 255
86.507713 40.244930 -77.045578 0.693533 0.247291 -0.676626 0 255 0
32.129707 27.105381 -52.876808 0.669362 0.322245 0.669362 255 0 255
82.924004 24.433382 -42.028576 0.000000 -0.680654 0.732566 255 0 255
82.946617 24.433382 -44.585476 0.000000 -0.680654 -0.732566 255 0 255
84.213768 24.433382 -43.318336 0.732566 -0.680654 0.000000 255 0 255
86.507713 40.194931 -72.245590 0.577319 -0.577349 0.577349 0 255 0
80.007713 40.194931 -72.245590 -0.577349 -0.577349 0.577349 0 255 0
80.007713 40.244934 -72.245590 -0.693411 0.247536 0.676656 0 255 0
86.507713 40.194931 -77.045578 0.577349 -0.577349 -0.577349 0 255 0
80.007713 40.194931 -77.045578 -0.577319 -0.577349 -0.577349 0 255 0
80.007713 40.244930 -77.045578 -0.693533 0.247291 -0.676626 0 255 0
83.414940 46.252609 -74.831528 0.420057 0.801599 -0.425367 0 255 0
83.100487 46.252609 -74.831528 -0.420057 0.801599 -0.425367 0 255 0
33.249733 39.105373 -100.112045 -0.946623 0.322245 0.000000 255 0 255
34.516853 39.745373 -100.112030 -0.443953 0.896023 0.000000 255 0 255
30.538033 33.745377 -81.031532 0.313913 0.896023 -0.313944 255 0 255
30.250038 33.937378 -80.199524 0.223243 0.948851 0.223243 255 0 255
30.538033 33.745377 -79.911522 0.313913 0.896023 0.313944 255 0 255
54.438942 45.605370 -109.603577 -0.669362 0.322245 -0.669362 255 0 255
29.450035 33.745377 -79.911530 -0.313913 0.896023 0.313944 255 0 255
29.738029 33.937378 -80.199524 -0.223243 0.948851 0.223243 255 0 255
54.438942 45.605370 -106.723572 -0.669362 0.322245 0.669362 255 0 255
-39.646477 29.592888 -7.022580 -0.598346 -0.532853 -0.598346 255 0 255
-39.498482 31.331890 -5.567533 -0.637074 0.433851 0.637074 255 0 255
-39.498482 31.331890 -6.874578 -0.637074 0.433851 -0.637074 255 0 255
54.982948 42.933372 -109.059570 -0.517991 -0.680654 -0.517991 255 0 255
54.982948 42.933372 -107.267578 -0.517991 -0.680654 0.517991 255 0 255
29.098030 30.433374 -81.383530 -0.517991 -0.680654 -0.517991 255 0 255
31.434029 33.105377 -81.927521 0.669362 0.322245 -0.669362 255 0 255
30.890022 30.433374 -81.383522 0.517991 -0.680654 -0.517991 255 0 255
56.454933 46.245369 -108.707581 0.313913 0.896023 -0.313913 255 0 255
29.450035 33.745377 -81.031525 -0.313913 0.896023 -0.313913 255 0 255
30.250038 33.937378 -80.743530 0.223243 0.948851 -0.223243 255 0 255
56.166939 46.437370 -108.419571 0.223243 0.948851 -0.223212 255 0 255
36.575951 36.433372 -100.134659 0.732566 -0.680654 0.000000 255 0 255
35.308815 39.105373 -102.171127 0.000000 0.322245 -0.946623 255 0 255
37.345284 39.105373 -100.134651 0.946623 0.322245 0.000000 255 0 255
-22.398476 31.331888 -13.367532 -0.637074 0.433851 0.637074 255 0 255
-20.955482 29.592888 -13.219529 0.598346 -0.532853 0.598346 255 0 255
-21.103477 31.331888 -13.367532 0.637074 0.433851 0.637074 255 0 255
35.308815 39.745373 -100.903992 0.000000 0.896023 -0.443953 255 0 255
35.670860 39.937370 -100.134659 0.315683 0.948851 0.000000 255 0 255
56.454933 46.245369 -107.619583 0.313944 0.896023 0.313913 255 0 255
55.622932 46.437370 -107.907578 -0.223212 0.948851 0.223243 255 0 255
35.286186 36.433372 -98.844902 0.000000 -0.680654 0.732566 255 0 255
56.166939 46.437370 -107.907578 0.223243 0.948851 0.223243 255 0 255
35.308815 39.937370 -100.496704 0.000000 0.948851 -0.315683 255 0 255
30.890022 30.433374 -79.559532 0.517991 -0.680654 0.517991 255 0 255
28.554024 33.105377 -79.015541 -0.669362 0.322245 0.669362 255 0 255
29.098030 30.433374 -79.559540 -0.517991 -0.680654 0.517991 255 0 255
-38.980476 31.886890 -6.085538 -0.313669 0.896207 0.313669 255 0 255
-38.203484 31.331890 -5.567533 0.637074 0.433851 0.637074 255 0 255
-38.721481 31.886890 -6.085538 0.313669 0.896207 0.313669 255 0 255
35.286186 39.937370 -99.749992 0.000000 0.948851 0.315683 255 0 255
34.924141 39.937370 -100.112030 -0.315683 0.948851 0.000000 255 0 255
-22.546486 29.592888 -14.822579 -0.598346 -0.532853 -0.598346 255 0 255
-22.546486 29.592888 -13.219529 -0.598346 -0.532853 0.598346 255 0 255
35.308815 36.433372 -101.401794 0.000000 -0.680654 -0.732566 255 0 255
-39.498482 31.331888 -14.674577 -0.637074 0.433851 -0.637074 255 0 255
-38.980476 31.886890 -13.885537 -0.313669 0.896207 0.313669 255 0 255
-38.980476 31.886890 -14.156579 -0.313669 0.896207 -0.313669 255 0 255
-22.398476 31.331888 -14.674577 -0.637074 0.433851 -0.637074 255 0 255
-21.621483 31.886890 -14.156579 0.313669 0.896207 -0.313669 255 0 255
-21.103477 31.331888 -14.674577 0.637074 0.433851 -0.637074 255 0 255
-21.621483 31.886890 -13.885537 0.313669 0.896207 0.313669 255 0 255
56.806938 42.933372 -107.267578 0.517991 -0.680654 0.517991 255 0 255
-21.103477 31.331890 -6.874578 0.637074 0.433851 -0.637074 255 0 255
-21.621483 31.886890 -6.085538 0.313669 0.896207 0.313669 255 0 255
-21.103477 31.331890 -5.567533 0.637074 0.433851 0.637074 255 0 255
29.738029 33.937378 -80.743530 -0.223243 0.948851 -0.223243 255 0 255
-38.980476 31.886890 -6.356580 -0.313669 0.896207 -0.313669 255 0 255
-38.721481 31.886890 -6.356580 0.313669 0.896207 -0.313669 255 0 255
-20.955482 29.592888 -14.822579 0.598346 -0.532853 -0.598346 255 0 255
-38.203484 31.331888 -14.674577 0.637074 0.433851 -0.637074 255 0 255
31.434029 33.105377 -79.015533 0.669362 0.322245 0.669362 255 0 255
-39.646477 29.592888 -13.219529 -0.598346 -0.532853 0.598346 255 0 255
-38.203484 31.331888 -13.367532 0.637074 0.433851 0.637074 255 0 255
-39.498482 31.331888 -13.367532 -0.637074 0.433851 0.637074 255 0 255
-38.721474 31.886890 -13.885537 0.313669 0.896207 0.313669 255 0 255
-38.721474 31.886890 -14.156579 0.313669 0.896207 -0.313669 255 0 255
34.019066 36.433372 -100.112038 -0.732566 -0.680654 0.000000 255 0 255
41.178719 29.331894 19.943230 -0.637074 0.433851 0.637074 255 0 255
41.696709 29.886896 19.166235 -0.313669 0.896207 -0.313669 255 0 255
41.178719 29.331894 18.648247 -0.637074 0.433851 -0.637074 255 0 255
-38.055473 29.592888 -14.822579 0.598346 -0.532853 -0.598346 255 0 255
-38.055473 29.592888 -13.219529 0.598346 -0.532853 0.598346 255 0 255
-21.880486 31.886890 -13.885537 -0.313669 0.896207 0.313669 255 0 255
-21.880486 31.886890 -14.156579 -0.313669 0.896207 -0.313669 255 0 255
30.945717 27.937380 -54.604813 0.223243 0.948851 -0.223212 255 0 255
30.433708 27.937380 -54.604813 -0.223243 0.948851 -0.223212 255 0 255
83.514946 46.052608 -74.931519 0.532945 0.539903 -0.651479 0 255 0
83.000481 46.052608 -74.931519 -0.532884 0.539964 -0.651479 0 255 0
83.000481 46.052608 -74.367065 -0.532548 0.540361 0.651418 0 255 0
31.585716 24.433380 -53.420815 0.517991 -0.680654 0.517991 255 0 255
29.793709 24.433380 -53.420815 -0.517991 -0.680654 0.517991 255 0 255
-22.546486 29.592888 -7.022580 -0.598346 -0.532853 -0.598346 255 0 255
-22.398476 31.331890 -5.567533 -0.637074 0.433851 0.637074 255 0 255
-22.398476 31.331890 -6.874578 -0.637074 0.433851 -0.637074 255 0 255
-21.880486 31.886890 -6.085538 -0.313669 0.896207 0.313669 255 0 255
-38.203484 31.331890 -6.874578 0.637074 0.433851 -0.637074 255 0 255
41.967751 29.886896 19.425238 0.313669 0.896207 0.313669 255 0 255
41.696709 29.886896 19.425238 -0.313669 0.896207 0.313669 255 0 255
-20.955482 29.592888 -7.022580 0.598346 -0.532853 -0.598346 255 0 255
-21.880486 31.886890 -6.356580 -0.313669 0.896207 -0.313669 255 0 255
-38.055481 29.592888 -7.022580 0.598346 -0.532853 -0.598346 255 0 255
-39.646477 29.592888 -14.822579 -0.598346 -0.532853 -0.598346 255 0 255
-38.055481 29.592888 -5.419530 0.598346 -0.532853 0.598346 255 0 255
42.485756 29.331894 18.648247 0.637074 0.433851 -0.637074 255 0 255
42.485756 29.331894 19.943230 0.637074 0.433851 0.637074 255 0 255
41.967751 29.886896 19.166235 0.313669 0.896207 -0.313669 255 0 255
-39.646477 29.592888 -5.419530 -0.598346 -0.532853 0.598346 255 0 255
41.030708 27.592894 20.091240 -0.598346 -0.532823 0.598346 255 0 255
-21.621483 31.886890 -6.356580 0.313669 0.896207 -0.313669 255 0 255
-20.955482 29.592888 -5.419530 0.598346 -0.532853 0.598346 255 0 255
65.236702 36.631897 49.043232 0.637074 0.433851 0.637074 255 0 255
-22.546486 29.592888 -5.419530 -0.598346 -0.532823 0.598346 255 0 255
-82.771591 18.154949 -60.864250 -0.650838 -0.746422 0.138615 255 0 0
-82.833420 18.216150 -61.024906 -0.756188 -0.637715 -0.146397 255 0 0
-82.771591 18.154949 -61.020912 -0.650838 -0.746422 -0.138615 255 0 0
-83.968582 19.553120 -45.424141 0.041780 0.977172 -0.208167 255 0 0
-84.480774 19.300169 -44.594986 -0.209357 0.892575 0.399274 255 0 0
-83.968582 19.553120 -45.261017 0.041780 0.977172 0.208136 255 0 0
-84.480774 19.300169 -46.090176 -0.209357 0.892575 -0.399274 255 0 0
-83.932465 19.537373 -45.424141 0.653737 0.710257 -0.260994 255 0 0
-83.882912 19.054947 -45.851990 0.626057 0.439344 -0.644185 255 0 0
-84.466759 19.275894 -46.121914 0.100986 0.460494 -0.881863 255 0 0
-81.771484 18.732359 -60.864250 0.971831 0.190435 0.138615 255 0 0
-83.932465 19.537373 -45.261017 0.653737 0.710257 0.260994 255 0 0
-84.594666 19.202045 -44.563248 -0.449293 0.142766 0.881893 255 0 0
-84.048836 18.554005 -44.687187 0.258034 -0.098209 0.961119 255 0 0
-84.466759 19.275894 -44.563248 0.100986 0.460494 0.881863 255 0 0
-82.833420 18.216150 -60.860256 -0.756188 -0.637745 0.146367 255 0 0
-83.288254 18.870075 -61.024143 -0.941954 -0.211035 -0.260994 255 0 0
-83.593567 18.816513 -45.260254 0.930418 0.335948 0.146367 255 0 0
-82.052231 18.212812 -61.434166 0.549303 -0.543260 -0.634877 255 0 0
-84.695244 18.585947 -44.833172 -0.693503 -0.322520 0.644185 255 0 0
-82.808685 19.226318 -61.690174 -0.668386 0.627491 -0.399335 255 0 0
-82.794662 19.202044 -61.721912 -0.449293 0.142674 -0.881893 255 0 0
-83.288254 18.870075 -60.861015 -0.941954 -0.211097 0.260994 255 0 0
-82.808685 19.226318 -60.194984 -0.668416 0.627461 0.399304 255 0 0
-83.283836 18.909225 -60.861015 -0.867214 0.452254 0.208197 255 0 0
-83.882912 19.054947 -44.833172 0.626057 0.439344 0.644185 255 0 0
-82.895248 18.585945 -61.451988 -0.693503 -0.322550 -0.644185 255 0 0
-83.593567 18.816513 -45.424904 0.930418 0.335917 -0.146367 255 0 0
-83.705582 18.748302 -45.852161 0.721854 0.182775 -0.667440 255 0 0
-82.658264 18.218071 -61.431362 -0.352611 -0.697928 -0.623310 255 0 0
-82.718346 18.279049 -61.452160 -0.519242 -0.533738 -0.667440 255 0 0
-82.000381 18.121000 -61.025333 0.607379 -0.784753 -0.123386 255 0 0
-84.178452 18.479172 -44.687187 -0.043947 -0.272622 0.961089 255 0 0
-82.332413 18.409309 -60.311481 0.029969 -0.377789 0.925382 255 0 0
-82.658264 18.218071 -60.453796 -0.352641 -0.697897 0.623310 255 0 0
-82.181274 18.138309 -60.450993 0.195807 -0.747368 0.634877 255 0 0
-84.633423 18.216152 -45.260254 -0.756188 -0.637745 0.146397 255 0 0
-84.518341 18.279051 -44.833000 -0.519211 -0.533769 0.667440 255 0 0
-83.800385 18.121004 -45.259827 0.607379 -0.784753 0.123417 255 0 0
-84.306976 17.950344 -45.260746 -0.202887 -0.962462 0.180181 255 0 0
-83.705582 18.748302 -44.833000 0.721854 0.182745 0.667440 255 0 0
-82.506973 17.950340 -60.860744 -0.202887 -0.962462 0.180181 255 0 0
-83.283836 18.909225 -61.024143 -0.867183 0.452315 -0.208197 255 0 0
-82.168579 19.553118 -61.024143 0.041780 0.977203 -0.208136 255 0 0
-82.680771 19.300167 -60.194984 -0.209357 0.892575 0.399304 255 0 0
-82.168579 19.553118 -60.861015 0.041719 0.977203 0.208136 255 0 0
-82.680771 19.300167 -61.690174 -0.209296 0.892575 -0.399335 255 0 0
-82.132469 19.537371 -61.024143 0.653737 0.710257 -0.260964 255 0 0
-82.082916 19.054945 -61.451988 0.626087 0.439344 -0.644185 255 0 0
-82.666756 19.275892 -61.721912 0.101047 0.460433 -0.881893 255 0 0
-82.132469 19.537371 -60.861015 0.653706 0.710288 0.260964 255 0 0
-82.794662 19.202044 -60.163246 -0.449324 0.142674 0.881893 255 0 0
-82.666756 19.275892 -60.163246 0.100986 0.460463 0.881893 255 0 0
-81.793571 18.816511 -60.860256 0.930387 0.336009 0.146367 255 0 0
-82.248840 18.554003 -61.597973 0.258065 -0.098239 -0.961089 255 0 0
-82.895248 18.585945 -60.433170 -0.693503 -0.322520 0.644185 255 0 0
-82.378448 18.479168 -60.287186 -0.043916 -0.272622 0.961089 255 0 0
-82.082916 19.054945 -60.433170 0.626057 0.439344 0.644185 255 0 0
-81.793571 18.816511 -61.024906 0.930387 0.336039 -0.146367 255 0 0
-81.905579 18.748299 -61.452160 0.721854 0.182775 -0.667440 255 0 0
-82.718346 18.279049 -60.432999 -0.519242 -0.533708 0.667440 255 0 0
-82.127686 18.047503 -60.859825 0.375896 -0.918393 0.123386 255 0 0
-82.000381 18.121000 -60.859825 0.607379 -0.784753 0.123386 255 0 0
82.924004 27.745382 -42.526379 0.000000 0.896023 0.443953 255 0 255
80.887535 27.105381 -43.295704 -0.946623 0.322245 0.000000 255 0 255
82.924004 27.105381 -41.259232 0.000000 0.322245 0.946623 255 0 255
83.308662 27.937382 -43.318344 0.315683 0.948851 0.000000 255 0 255
82.923988 27.937382 -42.933681 0.000000 0.948851 0.315683 255 0 255
84.983101 27.105381 -43.318329 0.946623 0.322245 0.000000 255 0 255
82.946632 27.105381 -45.354801 0.000000 0.322245 -0.946623 255 0 255
83.715965 27.745382 -43.318340 0.443953 0.896023 0.000000 255 0 255
29.249702 27.105379 -55.788811 -0.669362 0.322245 -0.669362 255 0 255
82.154671 27.745382 -43.295708 -0.443983 0.896023 0.000000 255 0 255
82.946617 27.937382 -43.680382 0.000000 0.948851 -0.315683 255 0 255
82.946632 27.745382 -44.087669 0.000000 0.896023 -0.443983 255 0 255
81.656868 24.433382 -43.295715 -0.732566 -0.680654 0.000000 255 0 255
28.554024 33.105377 -81.927521 -0.669362 0.322275 -0.669362 255 0 255
29.249702 27.105381 -52.876808 -0.669362 0.322245 0.669362 255 0 255
82.561958 27.937382 -43.295715 -0.315683 0.948851 0.000000 255 0 255
3 0 1 2
3 3 4 0
3 5 6 3
3 2 7 5
3 4 7 1
3 3 2 5
3 8 9 10
3 8 11 9
3 12 13 14
3 15 16 17
3 18 19 20
3 21 22 23
3 24 25 26
3 16 22 27
3 28 29 30
3 22 31 32
3 33 34 35
3 21 31 36
3 37 38 39
3 40 41 42
3 43 34 44
3 45 46 19
3 34 47 44
3 48 49 50
3 33 51 28
3 52 53 54
3 16 55 17
3 44 47 56
3 44 56 43
3 18 14 13
3 57 58 59
3 60 61 62
3 18 20 14
3 63 64 65
3 12 20 19
3 66 67 68
3 66 69 67
3 70 71 72
3 73 74 61
3 67 75 68
3 76 64 63
3 77 78 79
3 45 80 81
3 46 45 81
3 19 46 81
3 82 19 81
3 83 70 75
3 84 85 86
3 87 45 72
3 12 88 77
3 89 90 91
3 70 69 66
3 91 92 89
3 93 53 78
3 94 95 25
3 96 48 97
3 79 98 75
3 99 100 101
3 70 102 103
3 71 70 103
3 72 71 103
3 87 72 103
3 104 42 41
3 65 105 106
3 93 107 108
3 87 109 110
3 95 111 112
3 113 114 115
3 12 116 117
3 88 12 117
3 77 88 117
3 77 117 93
3 118 119 120
3 121 122 107
3 107 123 121
3 79 78 124
3 98 79 124
3 75 98 124
3 75 124 83
3 49 125 50
3 116 19 82
3 25 112 26
3 110 109 126
3 127 89 128
3 122 53 108
3 48 129 97
3 78 52 124
3 130 131 132
3 80 110 111
3 64 133 105
3 134 135 136
3 110 112 111
3 137 65 129
3 108 107 122
3 126 138 118
3 80 95 81
3 109 139 138
3 41 140 104
3 33 30 141
3 54 119 52
3 32 17 55
3 141 29 34
3 142 11 143
3 144 32 31
3 145 146 142
3 123 82 94
3 147 148 149
3 27 32 55
3 150 151 152
3 29 56 47
3 153 150 154
3 155 156 157
3 158 159 160
3 161 162 163
3 153 164 158
3 157 162 165
3 166 167 168
3 145 143 38
3 147 169 155
3 35 56 51
3 170 163 148
3 171 52 119
3 149 163 169
3 144 23 15
3 169 162 156
3 146 8 10
3 151 172 152
3 173 174 175
3 173 175 176
3 151 160 177
3 178 168 167
3 179 180 181
3 8 143 11
3 182 183 184
3 185 186 187
3 181 188 189
3 177 159 172
3 190 191 192
3 193 194 195
3 193 195 196
3 183 180 197
3 198 186 178
3 199 176 175
3 184 197 200
3 201 173 176
3 185 198 202
3 203 192 199
3 155 165 161
3 204 205 206
3 207 200 197
3 207 197 180
3 147 161 170
3 142 10 9
3 208 178 167
3 37 209 146
3 166 186 210
3 159 152 172
3 210 202 211
3 212 158 160
3 202 178 211
3 164 150 159
3 182 189 188
3 182 179 213
3 184 207 179
3 206 214 215
3 190 216 217
3 204 218 219
3 209 38 143
3 194 215 195
3 220 221 222
3 223 224 225
3 224 226 225
3 227 228 229
3 230 231 232
3 233 234 235
3 236 237 238
3 229 234 239
3 240 241 242
3 243 227 244
3 245 225 226
3 227 239 246
3 247 248 249
3 250 226 251
3 226 252 251
3 245 253 254
3 255 245 254
3 251 252 254
3 252 255 254
3 250 251 253
3 253 251 254
3 223 225 256
3 223 256 257
3 258 238 259
3 260 261 262
3 263 240 242
3 264 261 265
3 230 240 266
3 267 268 269
3 266 270 271
3 272 273 274
3 232 242 275
3 273 276 260
3 276 277 260
3 275 241 278
3 279 280 281
3 282 283 284
3 270 232 231
3 285 286 237
3 287 288 240
3 258 289 236
3 290 241 288
3 259 291 285
3 245 250 253
3 292 293 294
3 295 296 297
3 280 237 281
3 259 298 299
3 300 283 301
3 302 258 280
3 303 304 305
3 285 258 259
3 306 307 308
3 236 279 281
3 308 309 284
3 310 270 231
3 299 298 291
3 298 286 291
3 311 312 313
3 309 282 284
3 276 265 314
3 315 297 316
3 273 292 274
3 317 306 308
3 276 293 264
3 305 318 303
3 264 319 262
3 320 321 322
3 305 323 324
3 273 262 319
3 294 274 292
3 317 284 283
3 325 279 289
3 326 327 328
3 329 321 330
3 300 282 306
3 269 295 315
3 306 331 332
3 314 261 277
3 235 234 333
3 235 333 334
3 287 232 275
3 257 335 336
3 287 278 290
3 252 224 337
3 243 338 339
3 340 341 342
3 341 312 343
3 344 315 316
3 345 327 346
3 347 342 311
3 326 345 346
3 344 297 296
3 342 343 348
3 267 344 349
3 350 330 320
3 349 296 351
3 220 352 353
3 318 323 321
3 173 203 174
3 350 318 329
3 354 328 327
3 350 322 303
3 355 296 268
3 304 321 323
3 332 309 307
3 166 211 208
3 215 196 195
3 328 222 221
3 191 216 201
3 356 328 221
3 218 205 219
3 220 326 356
3 214 193 196
3 353 354 345
3 348 312 357
3 174 199 175
3 341 358 313
3 359 193 218
3 340 358 360
3 192 201 199
3 347 313 358
3 213 181 189
3 342 357 311
3 359 206 215
3 351 267 349
3 171 124 52
3 83 124 171
3 103 102 139
3 103 139 109
3 117 116 123
3 107 117 123
3 81 95 94
3 82 81 94
3 121 123 25
3 123 94 25
3 171 119 138
3 139 171 138
3 83 171 139
3 102 83 139
3 68 75 70
3 66 68 70
3 69 72 45
3 18 69 45
3 60 101 100
3 361 362 363
3 60 62 101
3 99 62 61
3 364 365 366
3 364 367 365
3 368 369 370
3 371 89 92
3 365 372 366
3 373 374 375
3 73 57 59
3 74 73 59
3 61 74 59
3 125 61 59
3 376 377 362
3 378 368 372
3 114 134 379
3 76 73 370
3 99 380 373
3 377 381 382
3 368 367 364
3 76 137 57
3 50 58 48
3 383 384 385
3 375 386 372
3 382 387 377
3 368 388 389
3 369 368 389
3 370 369 389
3 79 67 77
3 67 13 77
3 76 370 389
3 113 390 391
3 92 392 136
3 130 374 393
3 394 395 396
3 393 131 130
3 58 137 129
3 99 397 398
3 380 99 398
3 373 380 398
3 373 398 393
3 396 90 394
3 106 42 399
3 400 132 131
3 120 54 24
3 54 122 24
3 118 120 24
3 118 24 26
3 126 118 26
3 112 126 26
3 130 104 140
3 131 49 400
3 375 374 401
3 386 375 401
3 372 386 401
3 372 401 378
3 402 396 395
3 397 61 125
3 374 41 401
3 67 18 13
3 40 401 41
3 378 401 40
3 389 388 133
3 389 133 64
3 398 397 49
3 131 398 49
3 59 58 50
3 125 59 50
3 40 42 105
3 133 40 105
3 378 40 133
3 388 378 133
3 366 372 368
3 364 366 368
3 367 370 73
3 60 367 73
3 381 385 384
3 114 85 115
3 381 403 385
3 383 403 377
3 404 405 406
3 404 407 405
3 408 409 410
3 405 411 406
3 412 127 413
3 382 113 391
3 387 382 391
3 377 387 391
3 362 377 391
3 414 408 411
3 415 382 410
3 383 416 412
3 408 407 404
3 417 90 127
3 363 390 84
3 375 365 373
3 365 100 373
3 413 418 411
3 408 419 420
3 409 408 420
3 410 409 420
3 415 410 420
3 417 395 394
3 415 134 114
3 390 115 85
3 383 376 421
3 416 383 421
3 412 416 421
3 399 104 96
3 104 132 96
3 106 399 96
3 106 96 97
3 65 106 97
3 129 65 97
3 412 421 417
3 422 84 86
3 379 136 392
3 395 361 402
3 413 127 128
3 418 413 128
3 411 418 128
3 411 128 414
3 365 60 100
3 371 128 89
3 414 128 371
3 420 419 135
3 420 135 134
3 421 376 361
3 395 421 361
3 391 390 363
3 362 391 363
3 402 361 84
3 361 363 84
3 371 92 136
3 135 371 136
3 414 371 135
3 419 414 135
3 406 411 408
3 404 406 408
3 407 410 382
3 381 407 382
3 413 405 412
3 405 384 412
3 423 91 422
3 91 396 422
3 392 423 422
3 392 422 86
3 379 392 86
3 85 379 86
3 405 381 384
3 424 425 426
3 424 427 428
3 233 246 239
3 429 424 426
3 228 333 229
3 429 247 249
3 230 271 310
3 430 431 429
3 336 245 255
3 432 233 228
3 246 339 338
3 433 434 435
3 252 337 223
3 427 435 434
3 245 335 256
3 436 430 248
3 336 255 257
3 434 428 427
3 437 294 293
3 430 249 248
3 432 339 438
3 430 433 435
3 298 237 286
3 433 428 439
3 228 235 334
3 247 425 436
3 338 227 246
3 223 255 252
3 0 4 1
3 3 6 4
3 5 7 6
3 2 1 7
3 4 6 7
3 3 0 2
3 12 77 13
3 15 23 16
3 18 45 19
3 21 36 22
3 24 121 25
3 16 23 22
3 28 51 29
3 22 36 31
3 33 141 34
3 21 144 31
3 37 145 38
3 43 35 34
3 34 29 47
3 48 400 49
3 33 35 51
3 16 27 55
3 57 137 58
3 60 73 61
3 12 14 20
3 67 79 75
3 76 389 64
3 77 93 78
3 83 102 70
3 84 390 85
3 87 80 45
3 70 72 69
3 91 423 92
3 93 108 53
3 96 400 48
3 99 373 100
3 104 399 42
3 65 64 105
3 93 117 107
3 87 103 109
3 113 415 114
3 118 138 119
3 121 24 122
3 49 397 125
3 116 12 19
3 25 95 112
3 127 90 89
3 122 54 53
3 48 58 129
3 78 53 52
3 80 87 110
3 110 126 112
3 137 63 65
3 126 109 138
3 80 111 95
3 33 28 30
3 54 120 119
3 32 15 17
3 141 30 29
3 142 9 11
3 144 15 32
3 145 37 146
3 123 116 82
3 147 170 148
3 27 22 32
3 150 212 151
3 29 51 56
3 153 212 150
3 155 169 156
3 158 164 159
3 161 165 162
3 153 154 164
3 157 156 162
3 166 208 167
3 145 142 143
3 147 149 169
3 35 43 56
3 170 161 163
3 149 148 163
3 144 21 23
3 169 163 162
3 146 209 8
3 151 177 172
3 151 212 160
3 178 186 168
3 179 207 180
3 8 209 143
3 182 188 183
3 185 210 186
3 181 183 188
3 177 160 159
3 190 217 191
3 183 181 180
3 198 187 186
3 199 201 176
3 184 183 197
3 201 216 173
3 185 187 198
3 203 190 192
3 155 157 165
3 204 219 205
3 147 155 161
3 142 146 10
3 208 211 178
3 37 39 209
3 166 168 186
3 159 150 152
3 210 185 202
3 212 153 158
3 202 198 178
3 164 154 150
3 182 213 189
3 182 184 179
3 184 200 207
3 206 205 214
3 190 203 216
3 204 359 218
3 209 39 38
3 194 359 215
3 220 356 221
3 223 337 224
3 227 432 228
3 230 310 231
3 233 239 234
3 236 281 237
3 229 333 234
3 240 288 241
3 243 432 227
3 245 256 225
3 227 229 239
3 247 436 248
3 258 236 238
3 260 277 261
3 263 266 240
3 264 262 261
3 230 287 240
3 267 355 268
3 266 263 270
3 272 437 273
3 232 263 242
3 273 437 276
3 276 314 277
3 275 242 241
3 279 302 280
3 282 301 283
3 270 263 232
3 285 291 286
3 287 290 288
3 258 325 289
3 290 278 241
3 259 299 291
3 245 226 250
3 292 319 293
3 295 268 296
3 280 285 237
3 259 238 298
3 300 317 283
3 302 325 258
3 303 322 304
3 285 280 258
3 306 332 307
3 236 289 279
3 308 307 309
3 310 271 270
3 311 357 312
3 309 331 282
3 276 264 265
3 315 295 297
3 273 319 292
3 317 300 306
3 276 437 293
3 305 324 318
3 264 293 319
3 320 330 321
3 305 304 323
3 273 260 262
3 294 272 274
3 317 308 284
3 325 302 279
3 326 346 327
3 329 318 321
3 300 301 282
3 269 268 295
3 306 282 331
3 314 265 261
3 287 230 232
3 257 256 335
3 287 275 278
3 252 226 224
3 243 244 338
3 340 360 341
3 341 313 312
3 344 269 315
3 345 354 327
3 347 340 342
3 326 353 345
3 344 316 297
3 342 341 343
3 267 269 344
3 350 329 330
3 349 344 296
3 220 222 352
3 318 324 323
3 173 216 203
3 350 303 318
3 354 352 328
3 350 320 322
3 355 351 296
3 304 322 321
3 332 331 309
3 166 210 211
3 215 214 196
3 328 352 222
3 191 217 216
3 356 326 328
3 218 214 205
3 220 353 326
3 214 218 193
3 353 352 354
3 348 343 312
3 174 203 199
3 341 360 358
3 359 194 193
3 340 347 358
3 192 191 201
3 347 311 313
3 213 179 181
3 342 348 357
3 359 204 206
3 351 355 267
3 361 376 362
3 99 101 62
3 365 375 372
3 373 393 374
3 376 383 377
3 378 388 368
3 76 57 73
3 377 403 381
3 368 370 367
3 76 63 137
3 383 412 384
3 113 115 390
3 92 423 392
3 130 140 374
3 393 398 131
3 396 91 90
3 106 105 42
3 400 96 132
3 130 132 104
3 402 422 396
3 397 99 61
3 374 140 41
3 67 69 18
3 114 379 85
3 383 385 403
3 405 413 411
3 412 417 127
3 414 419 408
3 415 113 382
3 408 410 407
3 417 394 90
3 417 421 395
3 415 420 134
3 422 402 84
3 379 134 136
3 365 367 60
3 405 407 381
3 424 433 425
3 424 431 427
3 233 438 246
3 429 431 424
3 228 334 333
3 429 426 247
3 230 266 271
3 430 435 431
3 336 335 245
3 432 438 233
3 246 438 339
3 433 439 434
3 427 431 435
3 436 425 430
3 434 439 428
3 437 272 294
3 430 429 249
3 432 243 339
3 430 425 433
3 298 238 237
3 433 424 428
3 228 233 235
3 247 426 425
3 338 244 227
3 223 257 255
