ply
format ascii 1.0
comment Created by Blender 2.77 (sub 0) - www.blender.org, source file: 'Dungeon0-Scene.blend'
element vertex 444
property float x
property float y
property float z
property float nx
property float ny
property float nz
property uchar red
property uchar green
property uchar blue
element face 754
property list uchar uint vertex_indices
end_header
-84.981094 21.874584 -74.272285 0.000000 0.000000 -0.999969 0 255 255
-94.910980 9.206590 -74.272285 0.000000 0.000000 -0.999969 0 255 255
-94.910980 21.874584 -74.272285 0.000000 0.000000 -1.000000 0 255 255
53.414803 21.795401 73.304176 0.000000 0.999969 0.000000 255 255 255
50.914818 21.795403 76.804176 0.000000 1.000000 0.000000 255 255 255
55.914818 21.795403 76.804176 0.000000 0.999969 0.000000 255 255 255
72.707710 18.795382 -44.645580 0.000000 1.000000 0.000000 255 255 0
70.207710 18.795383 -41.145580 0.000000 1.000000 0.000000 255 255 0
75.207710 18.795383 -41.145580 0.000000 1.000000 0.000000 255 255 0
38.707710 18.795382 -44.645580 0.000000 1.000000 0.000000 255 255 0
36.207710 18.795383 -41.145580 0.000000 1.000000 0.000000 255 255 0
41.207710 18.795383 -41.145580 0.000000 1.000000 0.000000 255 255 0
-3.685692 18.795399 62.233101 0.000000 0.999969 0.000000 255 255 0
-7.928337 18.795399 62.940208 0.000000 1.000000 0.000000 255 255 0
-4.392799 18.795401 66.475746 0.000000 1.000000 0.000000 255 255 0
-33.292290 18.795387 -9.645579 0.000000 1.000000 0.000000 255 255 0
-29.792290 18.795387 -7.145579 0.000000 1.000000 0.000000 255 255 0
-29.792290 18.795387 -12.145579 0.000000 1.000000 0.000000 255 255 0
-76.792297 2.795368 -115.645576 0.000000 1.000000 0.000000 0 0 0
-79.292297 2.795368 -112.145576 0.000000 1.000000 0.000000 0 0 0
-74.292297 2.795368 -112.145576 0.000000 1.000000 0.000000 0 0 0
-102.292297 2.795368 -115.645576 0.000000 1.000000 0.000000 0 0 0
-104.792297 2.795368 -112.145576 0.000000 1.000000 0.000000 0 0 0
-99.792297 2.795368 -112.145576 0.000000 1.000000 0.000000 0 0 0
-41.463097 23.386900 44.414452 -0.313669 0.896207 0.313669 255 0 255
-41.204094 23.386900 44.143410 0.313669 0.896207 -0.313669 255 0 255
-41.463097 23.386900 44.143410 -0.313669 0.896207 -0.313669 255 0 255
-41.204094 23.386900 44.414452 0.313669 0.896207 0.313669 255 0 255
-83.288254 18.870079 -31.861015 -0.941954 -0.211127 0.260994 255 0 0
-82.808685 19.226322 -31.194984 -0.668386 0.627491 0.399335 255 0 0
-83.283836 18.909229 -31.861015 -0.867214 0.452254 0.208197 255 0 0
-40.686104 22.831903 82.176384 0.637074 0.433851 -0.637074 255 0 255
-41.463097 23.386906 82.694389 -0.313669 0.896207 -0.313669 255 0 255
-41.204094 23.386906 82.694389 0.313669 0.896207 -0.313669 255 0 255
-82.808685 19.226322 -32.690174 -0.668386 0.627491 -0.399335 255 0 0
-83.288254 18.870079 -32.024143 -0.941954 -0.211035 -0.260994 255 0 0
-83.283836 18.909229 -32.024143 -0.867183 0.452315 -0.208167 255 0 0
-42.129112 21.092903 82.028374 -0.598346 -0.532823 -0.598346 255 0 255
-41.981102 22.831905 83.483421 -0.637074 0.433851 0.637074 255 0 255
-41.981102 22.831903 82.176384 -0.637074 0.433851 -0.637074 255 0 255
-82.127686 18.047506 -31.859823 0.375927 -0.918363 0.123386 255 0 0
-82.506973 17.950346 -32.024414 -0.202887 -0.962462 -0.180181 255 0 0
-82.127686 18.047506 -32.025333 0.375927 -0.918393 -0.123386 255 0 0
-41.463097 23.386908 82.965431 -0.313669 0.896207 0.313669 255 0 255
-18.455467 21.092903 82.028374 0.598346 -0.532823 -0.598346 255 0 255
-18.603477 22.831905 83.483421 0.637074 0.433851 0.637074 255 0 255
-18.455467 21.092905 83.631432 0.598346 -0.532823 0.598346 255 0 255
-40.538109 21.092905 83.631432 0.598346 -0.532853 0.598346 255 0 255
-40.686104 22.831905 83.483421 0.637074 0.433851 0.637074 255 0 255
-20.046471 21.092903 82.028374 -0.598346 -0.532853 -0.598346 255 0 255
-19.898476 22.831905 83.483421 -0.637074 0.433851 0.637074 255 0 255
-19.898476 22.831903 82.176384 -0.637074 0.433851 -0.637074 255 0 255
-42.129112 21.092905 83.631432 -0.598346 -0.532823 0.598346 255 0 255
-42.129112 21.092897 43.477409 -0.598346 -0.532823 -0.598346 255 0 255
-40.538109 21.092897 45.080467 0.598346 -0.532853 0.598346 255 0 255
-42.129112 21.092897 45.080467 -0.598346 -0.532823 0.598346 255 0 255
-83.571487 18.732361 -45.264252 0.971862 0.190405 0.138615 255 0 0
-83.682816 18.665781 -44.853798 0.780755 -0.043611 0.623280 255 0 0
-83.526596 18.400892 -45.260746 0.934965 -0.305521 0.180181 255 0 0
-19.380486 23.386906 82.694389 -0.313669 0.896207 -0.313669 255 0 255
-19.380486 23.386908 82.965431 -0.313669 0.896207 0.313669 255 0 255
-82.794662 19.202047 -32.721912 -0.449293 0.142705 -0.881893 255 0 0
-82.895248 18.585949 -32.451988 -0.693503 -0.322520 -0.644185 255 0 0
-19.121483 23.386908 82.965431 0.313669 0.896207 0.313669 255 0 255
-84.306976 17.950344 -45.424416 -0.202887 -0.962462 -0.180181 255 0 0
-84.571587 18.154951 -45.264252 -0.650838 -0.746422 0.138615 255 0 0
-84.571587 18.154951 -45.420914 -0.650807 -0.746452 -0.138615 255 0 0
-18.603477 22.831903 82.176384 0.637074 0.433851 -0.637074 255 0 255
-81.882812 18.665783 -31.453796 0.780755 -0.043641 0.623310 255 0 0
-82.211357 18.479202 -31.311481 0.312174 -0.214850 0.925382 255 0 0
-82.052231 18.212816 -31.450993 0.549303 -0.543260 0.634877 255 0 0
-41.204094 23.386908 82.965431 0.313669 0.896207 0.313669 255 0 255
-19.121483 23.386906 82.694389 0.313669 0.896207 -0.313669 255 0 255
-84.178452 18.479172 -45.997974 -0.043916 -0.272622 -0.961089 255 0 0
-84.458267 18.218073 -45.831360 -0.352611 -0.697958 -0.623280 255 0 0
-84.518341 18.279051 -45.852161 -0.519211 -0.533738 -0.667440 255 0 0
-84.608681 19.226320 -46.090176 -0.668264 0.627674 -0.399243 255 0 0
-85.088257 18.870077 -45.424141 -0.941984 -0.211005 -0.260964 255 0 0
-85.083832 18.909227 -45.424141 -0.867153 0.452437 -0.208136 255 0 0
-84.011353 18.479200 -45.973679 0.312174 -0.214850 -0.925382 255 0 0
-83.682816 18.665781 -45.831360 0.780755 -0.043580 -0.623280 255 0 0
-83.852234 18.212814 -45.834167 0.549303 -0.543260 -0.634877 255 0 0
-82.168579 19.553122 -32.024143 0.041780 0.977203 -0.208136 255 0 0
-82.680771 19.300171 -31.194984 -0.209357 0.892575 0.399304 255 0 0
-82.168579 19.553122 -31.861015 0.041749 0.977203 0.208136 255 0 0
-82.680771 19.300171 -32.690174 -0.209357 0.892575 -0.399335 255 0 0
-82.132469 19.537374 -32.024143 0.653737 0.710257 -0.260964 255 0 0
-82.082916 19.054949 -32.451988 0.626057 0.439344 -0.644185 255 0 0
-82.666756 19.275896 -32.721912 0.100986 0.460463 -0.881893 255 0 0
-84.594666 19.202045 -46.121914 -0.449293 0.142827 -0.881863 255 0 0
-84.695244 18.585947 -45.851990 -0.693503 -0.322520 -0.644185 255 0 0
-82.132469 19.537374 -31.861015 0.653737 0.710288 0.260964 255 0 0
-84.048836 18.554005 -45.997974 0.258065 -0.098270 -0.961089 255 0 0
-82.794662 19.202047 -31.163246 -0.449263 0.142705 0.881893 255 0 0
-82.248840 18.554007 -31.287186 0.258065 -0.098270 0.961089 255 0 0
-82.666756 19.275896 -31.163246 0.100986 0.460463 0.881893 255 0 0
-82.378448 18.479174 -32.597973 -0.043916 -0.272591 -0.961089 255 0 0
-82.718346 18.279053 -32.452160 -0.519242 -0.533738 -0.667440 255 0 0
-82.833420 18.216154 -32.024906 -0.756188 -0.637715 -0.146397 255 0 0
-81.793571 18.816515 -31.860256 0.930387 0.335978 0.146367 255 0 0
-82.506973 17.950340 -61.024414 -0.202887 -0.962462 -0.180181 255 0 0
-82.181274 18.138309 -61.434166 0.195807 -0.747368 -0.634877 255 0 0
-82.127686 18.047503 -61.025333 0.375896 -0.918393 -0.123386 255 0 0
-82.248840 18.554007 -32.597973 0.258034 -0.098239 -0.961089 255 0 0
-82.895248 18.585949 -31.433170 -0.693503 -0.322520 0.644185 255 0 0
-81.882812 18.665779 -60.453796 0.780755 -0.043611 0.623280 255 0 0
-82.211357 18.479198 -60.311481 0.312143 -0.214850 0.925382 255 0 0
-82.052231 18.212812 -60.450993 0.549303 -0.543260 0.634877 255 0 0
-81.726601 18.400890 -60.860744 0.934965 -0.305490 0.180181 255 0 0
-82.378448 18.479174 -31.287186 -0.043916 -0.272622 0.961089 255 0 0
-82.771591 18.154953 -32.020912 -0.650868 -0.746391 -0.138615 255 0 0
-82.658264 18.218075 -32.431362 -0.352611 -0.697928 -0.623310 255 0 0
-83.927689 18.047504 -45.259827 0.375927 -0.918363 0.123417 255 0 0
-83.927689 18.047504 -45.425335 0.375896 -0.918393 -0.123386 255 0 0
-82.082916 19.054949 -31.433170 0.626057 0.439344 0.644185 255 0 0
-85.088257 18.870077 -45.261017 -0.942015 -0.210883 0.260994 255 0 0
-84.608681 19.226320 -44.594986 -0.668294 0.627613 0.399274 255 0 0
-85.083832 18.909227 -45.261017 -0.867092 0.452559 0.208136 255 0 0
-81.793571 18.816515 -32.024906 0.930387 0.336039 -0.146367 255 0 0
-81.905579 18.748304 -32.452160 0.721854 0.182775 -0.667440 255 0 0
-83.852234 18.212814 -44.850994 0.549303 -0.543260 0.634877 255 0 0
-83.526596 18.400892 -45.424416 0.934965 -0.305521 -0.180181 255 0 0
-83.800385 18.121002 -45.425335 0.607349 -0.784753 -0.123386 255 0 0
-82.658264 18.218075 -31.453796 -0.352641 -0.697928 0.623310 255 0 0
-82.332413 18.409313 -31.311481 0.029969 -0.377789 0.925382 255 0 0
-81.882812 18.665783 -32.431362 0.780725 -0.043611 -0.623310 255 0 0
-82.211357 18.479202 -32.573681 0.312174 -0.214850 -0.925382 255 0 0
-82.332413 18.409313 -32.573681 0.029969 -0.377758 -0.925382 255 0 0
-82.181274 18.138315 -32.434166 0.195807 -0.747368 -0.634877 255 0 0
-82.378448 18.479168 -61.597973 -0.043916 -0.272591 -0.961089 255 0 0
-82.211357 18.479198 -61.573681 0.312174 -0.214850 -0.925382 255 0 0
-82.332413 18.409309 -61.573681 0.029969 -0.377758 -0.925382 255 0 0
-82.833420 18.216154 -31.860256 -0.756188 -0.637745 0.146367 255 0 0
-82.718346 18.279053 -31.432999 -0.519242 -0.533738 0.667440 255 0 0
-82.000381 18.121006 -32.025333 0.607379 -0.784753 -0.123386 255 0 0
-81.726601 18.400894 -31.860744 0.934965 -0.305521 0.180181 255 0 0
-82.000381 18.121006 -31.859825 0.607379 -0.784753 0.123386 255 0 0
-82.506973 17.950346 -31.860743 -0.202887 -0.962462 0.180181 255 0 0
-82.181274 18.138315 -31.450993 0.195807 -0.747368 0.634877 255 0 0
-82.771591 18.154953 -31.864250 -0.650838 -0.746422 0.138615 255 0 0
-81.905579 18.748304 -31.432999 0.721854 0.182745 0.667440 255 0 0
-84.633423 18.216152 -45.424904 -0.756157 -0.637776 -0.146367 255 0 0
-82.052231 18.212816 -32.434166 0.549303 -0.543260 -0.634877 255 0 0
-82.248840 18.554003 -60.287186 0.258034 -0.098270 0.961089 255 0 0
-81.905579 18.748299 -60.432999 0.721854 0.182745 0.667440 255 0 0
-83.981277 18.138313 -45.834167 0.195807 -0.747337 -0.634877 255 0 0
-84.132408 18.409311 -44.711479 0.029969 -0.377789 0.925382 255 0 0
-84.458267 18.218073 -44.853798 -0.352580 -0.697958 0.623280 255 0 0
-83.981277 18.138313 -44.850994 0.195807 -0.747368 0.634877 255 0 0
-83.571487 18.732361 -45.420914 0.971862 0.190344 -0.138615 255 0 0
-81.882812 18.665779 -61.431362 0.780755 -0.043611 -0.623280 255 0 0
-81.771484 18.732359 -61.020912 0.971831 0.190466 -0.138615 255 0 0
-81.726601 18.400890 -61.024414 0.934965 -0.305521 -0.180181 255 0 0
-84.132408 18.409311 -45.973679 0.029969 -0.377789 -0.925382 255 0 0
-81.726601 18.400894 -32.024414 0.934965 -0.305521 -0.180181 255 0 0
-81.771484 18.732363 -32.020912 0.971831 0.190466 -0.138615 255 0 0
-84.011353 18.479200 -44.711479 0.312174 -0.214820 0.925382 255 0 0
-20.046471 21.092905 83.631432 -0.598346 -0.532853 0.598346 255 0 255
-40.686104 22.831898 43.625420 0.637074 0.433851 -0.637074 255 0 255
-40.686104 22.831898 44.932457 0.637074 0.433851 0.637074 255 0 255
-40.538109 21.092903 82.028374 0.598346 -0.532853 -0.598346 255 0 255
-40.538109 21.092897 43.477409 0.598346 -0.532853 -0.598346 255 0 255
-41.981102 22.831898 43.625420 -0.637074 0.433851 -0.637074 255 0 255
-20.046471 21.092897 43.477409 -0.598346 -0.532853 -0.598346 255 0 255
-18.455467 21.092897 45.080467 0.598346 -0.532823 0.598346 255 0 255
-20.046471 21.092897 45.080467 -0.598346 -0.532853 0.598346 255 0 255
41.178719 36.631897 49.043232 -0.637074 0.433851 0.637074 255 0 255
41.967751 37.186897 48.525227 0.313669 0.896207 0.313669 255 0 255
41.696709 37.186897 48.525227 -0.313669 0.896207 0.313669 255 0 255
42.633766 34.892899 49.191246 0.598346 -0.532823 0.598346 255 0 255
41.030708 34.892899 49.191246 -0.598346 -0.532823 0.598346 255 0 255
-19.898476 22.831898 43.625420 -0.637074 0.433851 -0.637074 255 0 255
-19.380486 23.386900 44.414452 -0.313669 0.896207 0.313669 255 0 255
-19.380486 23.386900 44.143410 -0.313669 0.896207 -0.313669 255 0 255
42.633766 34.892899 47.600243 0.598346 -0.532853 -0.598346 255 0 255
41.178719 36.631897 47.748234 -0.637074 0.433851 -0.637074 255 0 255
42.485756 36.631897 47.748234 0.637074 0.433851 -0.637074 255 0 255
-18.603477 22.831898 43.625420 0.637074 0.433851 -0.637074 255 0 255
-19.121483 23.386900 44.414452 0.313669 0.896207 0.313669 255 0 255
-18.603477 22.831898 44.932457 0.637074 0.433851 0.637074 255 0 255
41.030708 34.892899 47.600243 -0.598346 -0.532853 -0.598346 255 0 255
-19.121483 23.386900 44.143410 0.313669 0.896207 -0.313669 255 0 255
41.967751 37.186905 67.025230 0.313669 0.896207 0.313669 255 0 255
41.696709 37.186905 66.766228 -0.313669 0.896207 -0.313669 255 0 255
41.696709 37.186905 67.025230 -0.313669 0.896207 0.313669 255 0 255
-19.898476 22.831898 44.932457 -0.637074 0.433851 0.637074 255 0 255
-18.455467 21.092897 43.477409 0.598346 -0.532823 -0.598346 255 0 255
-81.771484 18.732363 -31.864250 0.971831 0.190435 0.138615 255 0 0
41.696709 37.186897 48.266224 -0.313669 0.896207 -0.313669 255 0 255
64.447670 37.186905 67.025230 -0.313669 0.896207 0.313669 255 0 255
64.718712 37.186905 67.025230 0.313669 0.896207 0.313669 255 0 255
64.718712 37.186905 66.766228 0.313669 0.896207 -0.313669 255 0 255
64.447670 37.186905 66.766228 -0.313669 0.896207 -0.313669 255 0 255
41.967751 37.186897 48.266224 0.313669 0.896207 -0.313669 255 0 255
41.178719 36.631901 66.248238 -0.637074 0.433851 -0.637074 255 0 255
63.929665 29.331894 19.943230 -0.637074 0.433851 0.637074 255 0 255
64.447670 29.886896 19.166235 -0.313669 0.896207 -0.313669 255 0 255
63.929665 29.331894 18.648247 -0.637074 0.433851 -0.637074 255 0 255
65.384712 27.592894 20.091240 0.598346 -0.532853 0.598346 255 0 255
65.236702 29.331894 18.648247 0.637074 0.433851 -0.637074 255 0 255
65.236702 29.331894 19.943230 0.637074 0.433851 0.637074 255 0 255
42.633766 34.892902 67.691246 0.598346 -0.532823 0.598346 255 0 255
41.178719 36.631905 67.543236 -0.637074 0.433851 0.637074 255 0 255
41.030708 34.892902 67.691246 -0.598346 -0.532853 0.598346 255 0 255
65.384712 27.592894 18.500237 0.598346 -0.532853 -0.598346 255 0 255
63.781654 27.592894 18.500237 -0.598346 -0.532823 -0.598346 255 0 255
65.384712 34.892902 67.691246 0.598346 -0.532853 0.598346 255 0 255
63.781654 34.892902 66.100243 -0.598346 -0.532853 -0.598346 255 0 255
65.384712 34.892902 66.100243 0.598346 -0.532853 -0.598346 255 0 255
64.447670 37.186897 48.525227 -0.313669 0.896207 0.313669 255 0 255
64.718712 37.186897 48.525227 0.313669 0.896207 0.313669 255 0 255
64.718712 37.186897 48.266224 0.313669 0.896207 -0.313669 255 0 255
64.447670 37.186897 48.266224 -0.313669 0.896207 -0.313669 255 0 255
64.718712 29.886896 19.166235 0.313669 0.896207 -0.313669 255 0 255
41.030708 34.892902 66.100243 -0.598346 -0.532853 -0.598346 255 0 255
65.236702 36.631901 66.248238 0.637074 0.433851 -0.637074 255 0 255
64.718712 29.886896 19.425238 0.313669 0.896207 0.313669 255 0 255
63.929665 36.631901 66.248238 -0.637074 0.433851 -0.637074 255 0 255
42.633766 34.892902 66.100243 0.598346 -0.532853 -0.598346 255 0 255
65.236702 36.631905 67.543236 0.637074 0.433851 0.637074 255 0 255
65.384712 34.892899 49.191246 0.598346 -0.532823 0.598346 255 0 255
63.781654 34.892899 47.600243 -0.598346 -0.532853 -0.598346 255 0 255
65.384712 34.892899 47.600243 0.598346 -0.532853 -0.598346 255 0 255
64.447670 29.886896 19.425238 -0.313669 0.896207 0.313669 255 0 255
41.967751 37.186905 66.766228 0.313669 0.896207 -0.313669 255 0 255
-41.981102 22.831898 44.932457 -0.637074 0.433851 0.637074 255 0 255
42.485756 36.631905 67.543236 0.637074 0.433851 0.637074 255 0 255
42.485756 36.631901 66.248238 0.637074 0.433851 -0.637074 255 0 255
42.485756 36.631897 49.043232 0.637074 0.433851 0.637074 255 0 255
63.781654 27.592894 20.091240 -0.598346 -0.532823 0.598346 255 0 255
63.929665 36.631897 47.748234 -0.637074 0.433851 -0.637074 255 0 255
65.236702 36.631897 47.748234 0.637074 0.433851 -0.637074 255 0 255
63.929665 36.631905 67.543236 -0.637074 0.433851 0.637074 255 0 255
63.781654 34.892902 67.691246 -0.598346 -0.532823 0.598346 255 0 255
63.929665 36.631897 49.043232 -0.637074 0.433851 0.637074 255 0 255
63.781654 34.892899 49.191246 -0.598346 -0.532823 0.598346 255 0 255
42.633766 27.592894 20.091240 0.598346 -0.532853 0.598346 255 0 255
41.030708 27.592894 18.500237 -0.598346 -0.532853 -0.598346 255 0 255
42.633766 27.592894 18.500237 0.598346 -0.532823 -0.598346 255 0 255
32.129707 27.105379 -55.788811 0.669362 0.322245 -0.669362 255 0 255
30.145714 27.745380 -54.892815 -0.313913 0.896023 -0.313913 255 0 255
31.233711 27.745380 -54.892815 0.313913 0.896023 -0.313913 255 0 255
57.350929 45.605370 -106.723572 0.669362 0.322245 0.669362 255 0 255
56.806938 42.933372 -109.059570 0.517991 -0.680654 -0.517991 255 0 255
57.350929 45.605370 -109.603577 0.669362 0.322245 -0.669362 255 0 255
30.145714 27.745380 -53.772812 -0.313913 0.896023 0.313913 255 0 255
30.945717 27.937382 -54.060814 0.223243 0.948851 0.223212 255 0 255
30.433708 27.937382 -54.060814 -0.223243 0.948851 0.223212 255 0 255
35.286201 39.105373 -98.075569 0.000000 0.322245 0.946623 255 0 255
36.078148 39.745373 -100.134659 0.443953 0.896023 0.000000 255 0 255
35.286186 39.745373 -99.342697 0.000000 0.896023 0.443953 255 0 255
31.233711 27.745380 -53.772812 0.313913 0.896023 0.313913 255 0 255
55.334938 46.245369 -107.619583 -0.313944 0.896023 0.313913 255 0 255
55.622932 46.437370 -108.419571 -0.223243 0.948851 -0.223212 255 0 255
55.334938 46.245369 -108.707581 -0.313913 0.896023 -0.313913 255 0 255
29.793709 24.433380 -55.244812 -0.517991 -0.680654 -0.517991 255 0 255
31.585716 24.433380 -55.244812 0.517991 -0.680654 -0.517991 255 0 255
32.129707 27.105381 -52.876808 0.669362 0.322245 0.669362 255 0 255
82.924004 24.433382 -42.028576 0.000000 -0.680654 0.732566 255 0 255
82.946617 24.433382 -44.585476 0.000000 -0.680654 -0.732566 255 0 255
84.213768 24.433382 -43.318336 0.732566 -0.680654 0.000000 255 0 255
33.249733 39.105373 -100.112045 -0.946623 0.322245 0.000000 255 0 255
34.516853 39.745373 -100.112030 -0.443953 0.896023 0.000000 255 0 255
30.538033 33.745377 -81.031532 0.313913 0.896023 -0.313944 255 0 255
30.250038 33.937378 -80.199524 0.223243 0.948851 0.223243 255 0 255
30.538033 33.745377 -79.911522 0.313913 0.896023 0.313944 255 0 255
54.438942 45.605370 -109.603577 -0.669362 0.322245 -0.669362 255 0 255
29.450035 33.745377 -79.911530 -0.313913 0.896023 0.313944 255 0 255
29.738029 33.937378 -80.199524 -0.223243 0.948851 0.223243 255 0 255
54.438942 45.605370 -106.723572 -0.669362 0.322245 0.669362 255 0 255
-39.646477 29.592888 -7.022580 -0.598346 -0.532853 -0.598346 255 0 255
-39.498482 31.331890 -5.567533 -0.637074 0.433851 0.637074 255 0 255
-39.498482 31.331890 -6.874578 -0.637074 0.433851 -0.637074 255 0 255
54.982948 42.933372 -109.059570 -0.517991 -0.680654 -0.517991 255 0 255
54.982948 42.933372 -107.267578 -0.517991 -0.680654 0.517991 255 0 255
29.098030 30.433374 -81.383530 -0.517991 -0.680654 -0.517991 255 0 255
31.434029 33.105377 -81.927521 0.669362 0.322245 -0.669362 255 0 255
30.890022 30.433374 -81.383522 0.517991 -0.680654 -0.517991 255 0 255
56.454933 46.245369 -108.707581 0.313913 0.896023 -0.313913 255 0 255
29.450035 33.745377 -81.031525 -0.313913 0.896023 -0.313913 255 0 255
30.250038 33.937378 -80.743530 0.223243 0.948851 -0.223243 255 0 255
56.166939 46.437370 -108.419571 0.223243 0.948851 -0.223212 255 0 255
36.575951 36.433372 -100.134659 0.732566 -0.680654 0.000000 255 0 255
35.308815 39.105373 -102.171127 0.000000 0.322245 -0.946623 255 0 255
37.345284 39.105373 -100.134651 0.946623 0.322245 0.000000 255 0 255
-22.398476 31.331888 -13.367532 -0.637074 0.433851 0.637074 255 0 255
-20.955482 29.592888 -13.219529 0.598346 -0.532853 0.598346 255 0 255
-21.103477 31.331888 -13.367532 0.637074 0.433851 0.637074 255 0 255
35.308815 39.745373 -100.903992 0.000000 0.896023 -0.443953 255 0 255
35.670860 39.937370 -100.134659 0.315683 0.948851 0.000000 255 0 255
56.454933 46.245369 -107.619583 0.313944 0.896023 0.313913 255 0 255
55.622932 46.437370 -107.907578 -0.223212 0.948851 0.223243 255 0 255
35.286186 36.433372 -98.844902 0.000000 -0.680654 0.732566 255 0 255
56.166939 46.437370 -107.907578 0.223243 0.948851 0.223243 255 0 255
35.308815 39.937370 -100.496704 0.000000 0.948851 -0.315683 255 0 255
30.890022 30.433374 -79.559532 0.517991 -0.680654 0.517991 255 0 255
28.554024 33.105377 -79.015541 -0.669362 0.322245 0.669362 255 0 255
29.098030 30.433374 -79.559540 -0.517991 -0.680654 0.517991 255 0 255
-38.980476 31.886890 -6.085538 -0.313669 0.896207 0.313669 255 0 255
-38.203484 31.331890 -5.567533 0.637074 0.433851 0.637074 255 0 255
-38.721481 31.886890 -6.085538 0.313669 0.896207 0.313669 255 0 255
35.286186 39.937370 -99.749992 0.000000 0.948851 0.315683 255 0 255
34.924141 39.937370 -100.112030 -0.315683 0.948851 0.000000 255 0 255
-22.546486 29.592888 -14.822579 -0.598346 -0.532853 -0.598346 255 0 255
-22.546486 29.592888 -13.219529 -0.598346 -0.532853 0.598346 255 0 255
35.308815 36.433372 -101.401794 0.000000 -0.680654 -0.732566 255 0 255
-39.498482 31.331888 -14.674577 -0.637074 0.433851 -0.637074 255 0 255
-38.980476 31.886890 -13.885537 -0.313669 0.896207 0.313669 255 0 255
-38.980476 31.886890 -14.156579 -0.313669 0.896207 -0.313669 255 0 255
-22.398476 31.331888 -14.674577 -0.637074 0.433851 -0.637074 255 0 255
-21.621483 31.886890 -14.156579 0.313669 0.896207 -0.313669 255 0 255
-21.103477 31.331888 -14.674577 0.637074 0.433851 -0.637074 255 0 255
-21.621483 31.886890 -13.885537 0.313669 0.896207 0.313669 255 0 255
56.806938 42.933372 -107.267578 0.517991 -0.680654 0.517991 255 0 255
-21.103477 31.331890 -6.874578 0.637074 0.433851 -0.637074 255 0 255
-21.621483 31.886890 -6.085538 0.313669 0.896207 0.313669 255 0 255
-21.103477 31.331890 -5.567533 0.637074 0.433851 0.637074 255 0 255
29.738029 33.937378 -80.743530 -0.223243 0.948851 -0.223243 255 0 255
-38.980476 31.886890 -6.356580 -0.313669 0.896207 -0.313669 255 0 255
-38.721481 31.886890 -6.356580 0.313669 0.896207 -0.313669 255 0 255
-20.955482 29.592888 -14.822579 0.598346 -0.532853 -0.598346 255 0 255
-38.203484 31.331888 -14.674577 0.637074 0.433851 -0.637074 255 0 255
31.434029 33.105377 -79.015533 0.669362 0.322245 0.669362 255 0 255
-39.646477 29.592888 -13.219529 -0.598346 -0.532853 0.598346 255 0 255
-38.203484 31.331888 -13.367532 0.637074 0.433851 0.637074 255 0 255
-39.498482 31.331888 -13.367532 -0.637074 0.433851 0.637074 255 0 255
-38.721474 31.886890 -13.885537 0.313669 0.896207 0.313669 255 0 255
-38.721474 31.886890 -14.156579 0.313669 0.896207 -0.313669 255 0 255
34.019066 36.433372 -100.112038 -0.732566 -0.680654 0.000000 255 0 255
41.178719 29.331894 19.943230 -0.637074 0.433851 0.637074 255 0 255
41.696709 29.886896 19.166235 -0.313669 0.896207 -0.313669 255 0 255
41.178719 29.331894 18.648247 -0.637074 0.433851 -0.637074 255 0 255
-38.055473 29.592888 -14.822579 0.598346 -0.532853 -0.598346 255 0 255
-38.055473 29.592888 -13.219529 0.598346 -0.532853 0.598346 255 0 255
-21.880486 31.886890 -13.885537 -0.313669 0.896207 0.313669 255 0 255
-21.880486 31.886890 -14.156579 -0.313669 0.896207 -0.313669 255 0 255
30.945717 27.937380 -54.604813 0.223243 0.948851 -0.223212 255 0 255
30.433708 27.937380 -54.604813 -0.223243 0.948851 -0.223212 255 0 255
31.585716 24.433380 -53.420815 0.517991 -0.680654 0.517991 255 0 255
29.793709 24.433380 -53.420815 -0.517991 -0.680654 0.517991 255 0 255
-22.546486 29.592888 -7.022580 -0.598346 -0.532853 -0.598346 255 0 255
-22.398476 31.331890 -5.567533 -0.637074 0.433851 0.637074 255 0 255
-22.398476 31.331890 -6.874578 -0.637074 0.433851 -0.637074 255 0 255
-21.880486 31.886890 -6.085538 -0.313669 0.896207 0.313669 255 0 255
-38.203484 31.331890 -6.874578 0.637074 0.433851 -0.637074 255 0 255
41.967751 29.886896 19.425238 0.313669 0.896207 0.313669 255 0 255
41.696709 29.886896 19.425238 -0.313669 0.896207 0.313669 255 0 255
-20.955482 29.592888 -7.022580 0.598346 -0.532853 -0.598346 255 0 255
-21.880486 31.886890 -6.356580 -0.313669 0.896207 -0.313669 255 0 255
-38.055481 29.592888 -7.022580 0.598346 -0.532853 -0.598346 255 0 255
-39.646477 29.592888 -14.822579 -0.598346 -0.532853 -0.598346 255 0 255
-38.055481 29.592888 -5.419530 0.598346 -0.532853 0.598346 255 0 255
42.485756 29.331894 18.648247 0.637074 0.433851 -0.637074 255 0 255
42.485756 29.331894 19.943230 0.637074 0.433851 0.637074 255 0 255
41.967751 29.886896 19.166235 0.313669 0.896207 -0.313669 255 0 255
-39.646477 29.592888 -5.419530 -0.598346 -0.532853 0.598346 255 0 255
41.030708 27.592894 20.091240 -0.598346 -0.532823 0.598346 255 0 255
-21.621483 31.886890 -6.356580 0.313669 0.896207 -0.313669 255 0 255
-20.955482 29.592888 -5.419530 0.598346 -0.532853 0.598346 255 0 255
65.236702 36.631897 49.043232 0.637074 0.433851 0.637074 255 0 255
-22.546486 29.592888 -5.419530 -0.598346 -0.532823 0.598346 255 0 255
-82.771591 18.154949 -60.864250 -0.650838 -0.746422 0.138615 255 0 0
-82.833420 18.216150 -61.024906 -0.756188 -0.637715 -0.146397 255 0 0
-82.771591 18.154949 -61.020912 -0.650838 -0.746422 -0.138615 255 0 0
-83.968582 19.553120 -45.424141 0.041780 0.977172 -0.208167 255 0 0
-84.480774 19.300169 -44.594986 -0.209357 0.892575 0.399274 255 0 0
-83.968582 19.553120 -45.261017 0.041780 0.977172 0.208136 255 0 0
-84.480774 19.300169 -46.090176 -0.209357 0.892575 -0.399274 255 0 0
-83.932465 19.537373 -45.424141 0.653737 0.710257 -0.260994 255 0 0
-83.882912 19.054947 -45.851990 0.626057 0.439344 -0.644185 255 0 0
-84.466759 19.275894 -46.121914 0.100986 0.460494 -0.881863 255 0 0
-81.771484 18.732359 -60.864250 0.971831 0.190435 0.138615 255 0 0
-83.932465 19.537373 -45.261017 0.653737 0.710257 0.260994 255 0 0
-84.594666 19.202045 -44.563248 -0.449293 0.142766 0.881893 255 0 0
-84.048836 18.554005 -44.687187 0.258034 -0.098209 0.961119 255 0 0
-84.466759 19.275894 -44.563248 0.100986 0.460494 0.881863 255 0 0
-82.833420 18.216150 -60.860256 -0.756188 -0.637745 0.146367 255 0 0
-83.288254 18.870075 -61.024143 -0.941954 -0.211035 -0.260994 255 0 0
-83.593567 18.816513 -45.260254 0.930418 0.335948 0.146367 255 0 0
-82.052231 18.212812 -61.434166 0.549303 -0.543260 -0.634877 255 0 0
-84.695244 18.585947 -44.833172 -0.693503 -0.322520 0.644185 255 0 0
-82.808685 19.226318 -61.690174 -0.668386 0.627491 -0.399335 255 0 0
-82.794662 19.202044 -61.721912 -0.449293 0.142674 -0.881893 255 0 0
-83.288254 18.870075 -60.861015 -0.941954 -0.211097 0.260994 255 0 0
-82.808685 19.226318 -60.194984 -0.668416 0.627461 0.399304 255 0 0
-83.283836 18.909225 -60.861015 -0.867214 0.452254 0.208197 255 0 0
-83.882912 19.054947 -44.833172 0.626057 0.439344 0.644185 255 0 0
-82.895248 18.585945 -61.451988 -0.693503 -0.322550 -0.644185 255 0 0
-83.593567 18.816513 -45.424904 0.930418 0.335917 -0.146367 255 0 0
-83.705582 18.748302 -45.852161 0.721854 0.182775 -0.667440 255 0 0
-82.658264 18.218071 -61.431362 -0.352611 -0.697928 -0.623310 255 0 0
-82.718346 18.279049 -61.452160 -0.519242 -0.533738 -0.667440 255 0 0
-82.000381 18.121000 -61.025333 0.607379 -0.784753 -0.123386 255 0 0
-84.178452 18.479172 -44.687187 -0.043947 -0.272622 0.961089 255 0 0
-82.332413 18.409309 -60.311481 0.029969 -0.377789 0.925382 255 0 0
-82.658264 18.218071 -60.453796 -0.352641 -0.697897 0.623310 255 0 0
-82.181274 18.138309 -60.450993 0.195807 -0.747368 0.634877 255 0 0
-84.633423 18.216152 -45.260254 -0.756188 -0.637745 0.146397 255 0 0
-84.518341 18.279051 -44.833000 -0.519211 -0.533769 0.667440 255 0 0
-83.800385 18.121004 -45.259827 0.607379 -0.784753 0.123417 255 0 0
-84.306976 17.950344 -45.260746 -0.202887 -0.962462 0.180181 255 0 0
-83.705582 18.748302 -44.833000 0.721854 0.182745 0.667440 255 0 0
-82.506973 17.950340 -60.860744 -0.202887 -0.962462 0.180181 255 0 0
-83.283836 18.909225 -61.024143 -0.867183 0.452315 -0.208197 255 0 0
-82.168579 19.553118 -61.024143 0.041780 0.977203 -0.208136 255 0 0
-82.680771 19.300167 -60.194984 -0.209357 0.892575 0.399304 255 0 0
-82.168579 19.553118 -60.861015 0.041719 0.977203 0.208136 255 0 0
-82.680771 19.300167 -61.690174 -0.209296 0.892575 -0.399335 255 0 0
-82.132469 19.537371 -61.024143 0.653737 0.710257 -0.260964 255 0 0
-82.082916 19.054945 -61.451988 0.626087 0.439344 -0.644185 255 0 0
-82.666756 19.275892 -61.721912 0.101047 0.460433 -0.881893 255 0 0
-82.132469 19.537371 -60.861015 0.653706 0.710288 0.260964 255 0 0
-82.794662 19.202044 -60.163246 -0.449324 0.142674 0.881893 255 0 0
-82.666756 19.275892 -60.163246 0.100986 0.460463 0.881893 255 0 0
-81.793571 18.816511 -60.860256 0.930387 0.336009 0.146367 255 0 0
-82.248840 18.554003 -61.597973 0.258065 -0.098239 -0.961089 255 0 0
-82.895248 18.585945 -60.433170 -0.693503 -0.322520 0.644185 255 0 0
-82.378448 18.479168 -60.287186 -0.043916 -0.272622 0.961089 255 0 0
-82.082916 19.054945 -60.433170 0.626057 0.439344 0.644185 255 0 0
-81.793571 18.816511 -61.024906 0.930387 0.336039 -0.146367 255 0 0
-81.905579 18.748299 -61.452160 0.721854 0.182775 -0.667440 255 0 0
-82.718346 18.279049 -60.432999 -0.519242 -0.533708 0.667440 255 0 0
-82.127686 18.047503 -60.859825 0.375896 -0.918393 0.123386 255 0 0
-82.000381 18.121000 -60.859825 0.607379 -0.784753 0.123386 255 0 0
82.924004 27.745382 -42.526379 0.000000 0.896023 0.443953 255 0 255
80.887535 27.105381 -43.295704 -0.946623 0.322245 0.000000 255 0 255
82.924004 27.105381 -41.259232 0.000000 0.322245 0.946623 255 0 255
83.308662 27.937382 -43.318344 0.315683 0.948851 0.000000 255 0 255
82.923988 27.937382 -42.933681 0.000000 0.948851 0.315683 255 0 255
84.983101 27.105381 -43.318329 0.946623 0.322245 0.000000 255 0 255
82.946632 27.105381 -45.354801 0.000000 0.322245 -0.946623 255 0 255
83.715965 27.745382 -43.318340 0.443953 0.896023 0.000000 255 0 255
29.249702 27.105379 -55.788811 -0.669362 0.322245 -0.669362 255 0 255
82.154671 27.745382 -43.295708 -0.443983 0.896023 0.000000 255 0 255
82.946617 27.937382 -43.680382 0.000000 0.948851 -0.315683 255 0 255
82.946632 27.745382 -44.087669 0.000000 0.896023 -0.443983 255 0 255
81.656868 24.433382 -43.295715 -0.732566 -0.680654 0.000000 255 0 255
28.554024 33.105377 -81.927521 -0.669362 0.322275 -0.669362 255 0 255
29.249702 27.105381 -52.876808 -0.669362 0.322245 0.669362 255 0 255
82.561958 27.937382 -43.295715 -0.315683 0.948851 0.000000 255 0 255
85.675934 45.183960 -90.804993 0.000000 1.000000 0.000000 255 255 0
83.175926 45.183960 -87.304993 0.000000 0.999969 0.000000 255 255 0
88.175934 45.183960 -87.304993 0.000000 1.000000 0.000000 255 255 0
-84.981094 9.206590 -74.272285 0.000000 0.000000 -1.000000 0 255 255
3 0 1 2
3 3 4 5
3 6 7 8
3 9 10 11
3 12 13 14
3 15 16 17
3 18 19 20
3 21 22 23
3 24 25 26
3 24 27 25
3 28 29 30
3 31 32 33
3 34 35 36
3 37 38 39
3 40 41 42
3 32 38 43
3 44 45 46
3 38 47 48
3 49 50 51
3 37 47 52
3 53 54 55
3 56 57 58
3 59 50 60
3 61 62 35
3 50 63 60
3 64 65 66
3 49 67 44
3 68 69 70
3 32 71 33
3 60 63 72
3 60 72 59
3 34 30 29
3 73 74 75
3 76 77 78
3 34 36 30
3 79 80 81
3 28 36 35
3 82 83 84
3 82 85 83
3 86 87 88
3 89 90 77
3 83 91 84
3 92 80 79
3 93 94 95
3 61 96 97
3 62 61 97
3 35 62 97
3 98 35 97
3 99 86 91
3 100 101 102
3 103 61 88
3 28 104 93
3 105 106 107
3 86 85 82
3 107 108 105
3 109 69 94
3 110 111 41
3 112 64 113
3 95 114 91
3 115 116 117
3 86 118 119
3 87 86 119
3 88 87 119
3 103 88 119
3 120 58 57
3 81 121 122
3 109 123 124
3 103 125 126
3 111 127 128
3 129 130 131
3 28 132 133
3 104 28 133
3 93 104 133
3 93 133 109
3 134 135 136
3 137 138 123
3 123 139 137
3 95 94 140
3 114 95 140
3 91 114 140
3 91 140 99
3 65 141 66
3 132 35 98
3 41 128 42
3 126 125 142
3 143 105 144
3 138 69 124
3 64 145 113
3 94 68 140
3 146 147 148
3 96 126 127
3 80 149 121
3 150 151 152
3 126 128 127
3 153 81 145
3 124 123 138
3 142 154 134
3 96 111 97
3 125 155 154
3 57 156 120
3 49 46 157
3 70 135 68
3 48 33 71
3 157 45 50
3 158 27 159
3 160 48 47
3 161 162 158
3 139 98 110
3 163 164 165
3 43 48 71
3 166 167 168
3 45 72 63
3 169 166 170
3 171 172 173
3 174 175 176
3 177 178 179
3 169 180 174
3 173 178 181
3 182 183 184
3 161 159 54
3 163 185 171
3 51 72 67
3 186 179 164
3 187 68 135
3 165 179 185
3 160 39 31
3 185 178 172
3 162 24 26
3 167 188 168
3 189 190 191
3 189 191 192
3 167 176 193
3 194 184 183
3 195 196 197
3 24 159 27
3 198 199 200
3 201 202 203
3 197 204 205
3 193 175 188
3 206 207 208
3 209 210 211
3 209 211 212
3 199 196 213
3 214 202 194
3 215 192 191
3 200 213 216
3 217 189 192
3 201 214 218
3 219 208 215
3 171 181 177
3 220 221 222
3 223 216 213
3 223 213 196
3 163 177 186
3 158 26 25
3 224 194 183
3 53 225 162
3 182 202 226
3 175 168 188
3 226 218 227
3 228 174 176
3 218 194 227
3 180 166 175
3 198 205 204
3 198 195 229
3 200 223 195
3 222 230 231
3 206 232 233
3 220 234 235
3 225 54 159
3 210 231 211
3 236 237 238
3 239 240 241
3 242 243 244
3 245 246 247
3 248 249 250
3 241 246 251
3 252 253 254
3 255 239 256
3 239 251 257
3 258 259 260
3 261 250 262
3 263 264 265
3 266 252 254
3 267 264 268
3 242 252 269
3 270 271 272
3 269 273 274
3 275 276 277
3 244 254 278
3 276 279 263
3 279 280 263
3 278 253 281
3 282 283 284
3 285 286 287
3 273 244 243
3 288 289 249
3 290 291 252
3 261 292 248
3 293 253 291
3 262 294 288
3 295 296 297
3 298 299 300
3 283 249 284
3 262 301 302
3 303 286 304
3 305 261 283
3 306 307 308
3 288 261 262
3 309 310 311
3 248 282 284
3 311 312 287
3 313 273 243
3 302 301 294
3 301 289 294
3 314 315 316
3 312 285 287
3 279 268 317
3 318 300 319
3 276 295 277
3 320 309 311
3 279 296 267
3 308 321 306
3 267 322 265
3 323 324 325
3 308 326 327
3 276 265 322
3 297 277 295
3 320 287 286
3 328 282 292
3 329 330 331
3 332 324 333
3 303 285 309
3 272 298 318
3 309 334 335
3 317 264 280
3 247 246 336
3 247 336 337
3 290 244 278
3 290 281 293
3 255 338 339
3 340 341 342
3 341 315 343
3 344 318 319
3 345 330 346
3 347 342 314
3 329 345 346
3 344 300 299
3 342 343 348
3 270 344 349
3 350 333 323
3 349 299 351
3 236 352 353
3 321 326 324
3 189 219 190
3 350 321 332
3 354 331 330
3 350 325 306
3 355 299 271
3 307 324 326
3 335 312 310
3 182 227 224
3 231 212 211
3 331 238 237
3 207 232 217
3 356 331 237
3 234 221 235
3 236 329 356
3 230 209 212
3 353 354 345
3 348 315 357
3 190 215 191
3 341 358 316
3 359 209 234
3 340 358 360
3 208 217 215
3 347 316 358
3 229 197 205
3 342 357 314
3 359 222 231
3 351 270 349
3 187 140 68
3 99 140 187
3 119 118 155
3 119 155 125
3 133 132 139
3 123 133 139
3 97 111 110
3 98 97 110
3 137 139 41
3 139 110 41
3 187 135 154
3 155 187 154
3 99 187 155
3 118 99 155
3 84 91 86
3 82 84 86
3 85 88 61
3 34 85 61
3 76 117 116
3 361 362 363
3 76 78 117
3 115 78 77
3 364 365 366
3 364 367 365
3 368 369 370
3 371 105 108
3 365 372 366
3 373 374 375
3 89 73 75
3 90 89 75
3 77 90 75
3 141 77 75
3 376 377 362
3 378 368 372
3 130 150 379
3 92 89 370
3 115 380 373
3 377 381 382
3 368 367 364
3 92 153 73
3 66 74 64
3 383 384 385
3 375 386 372
3 382 387 377
3 368 388 389
3 369 368 389
3 370 369 389
3 95 83 93
3 83 29 93
3 92 370 389
3 129 390 391
3 108 392 152
3 146 374 393
3 394 395 396
3 393 147 146
3 74 153 145
3 115 397 398
3 380 115 398
3 373 380 398
3 373 398 393
3 396 106 394
3 122 58 399
3 400 148 147
3 136 70 40
3 70 138 40
3 134 136 40
3 134 40 42
3 142 134 42
3 128 142 42
3 146 120 156
3 147 65 400
3 375 374 401
3 386 375 401
3 372 386 401
3 372 401 378
3 402 396 395
3 397 77 141
3 374 57 401
3 83 34 29
3 56 401 57
3 378 401 56
3 389 388 149
3 389 149 80
3 398 397 65
3 147 398 65
3 75 74 66
3 141 75 66
3 56 58 121
3 149 56 121
3 378 56 149
3 388 378 149
3 366 372 368
3 364 366 368
3 367 370 89
3 76 367 89
3 381 385 384
3 130 101 131
3 381 403 385
3 383 403 377
3 404 405 406
3 404 407 405
3 408 409 410
3 405 411 406
3 412 143 413
3 382 129 391
3 387 382 391
3 377 387 391
3 362 377 391
3 414 408 411
3 415 382 410
3 383 416 412
3 408 407 404
3 417 106 143
3 363 390 100
3 375 365 373
3 365 116 373
3 413 418 411
3 408 419 420
3 409 408 420
3 410 409 420
3 415 410 420
3 417 395 394
3 415 150 130
3 390 131 101
3 383 376 421
3 416 383 421
3 412 416 421
3 399 120 112
3 120 148 112
3 122 399 112
3 122 112 113
3 81 122 113
3 145 81 113
3 412 421 417
3 422 100 102
3 379 152 392
3 395 361 402
3 413 143 144
3 418 413 144
3 411 418 144
3 411 144 414
3 365 76 116
3 371 144 105
3 414 144 371
3 420 419 151
3 420 151 150
3 421 376 361
3 395 421 361
3 391 390 363
3 362 391 363
3 402 361 100
3 361 363 100
3 371 108 152
3 151 371 152
3 414 371 151
3 419 414 151
3 406 411 408
3 404 406 408
3 407 410 382
3 381 407 382
3 413 405 412
3 405 384 412
3 423 107 422
3 107 396 422
3 392 423 422
3 392 422 102
3 379 392 102
3 101 379 102
3 405 381 384
3 424 425 426
3 424 427 428
3 245 257 251
3 429 424 426
3 240 336 241
3 429 258 260
3 242 274 313
3 430 431 429
3 432 245 240
3 257 339 338
3 433 434 435
3 427 435 434
3 436 430 259
3 434 428 427
3 437 297 296
3 430 260 259
3 432 339 438
3 430 433 435
3 301 249 289
3 433 428 439
3 240 247 337
3 258 425 436
3 338 239 257
3 440 441 442
3 0 443 1
3 28 93 29
3 31 39 32
3 34 61 35
3 37 52 38
3 40 137 41
3 32 39 38
3 44 67 45
3 38 52 47
3 49 157 50
3 37 160 47
3 53 161 54
3 59 51 50
3 50 45 63
3 64 400 65
3 49 51 67
3 32 43 71
3 73 153 74
3 76 89 77
3 28 30 36
3 83 95 91
3 92 389 80
3 93 109 94
3 99 118 86
3 100 390 101
3 103 96 61
3 86 88 85
3 107 423 108
3 109 124 69
3 112 400 64
3 115 373 116
3 120 399 58
3 81 80 121
3 109 133 123
3 103 119 125
3 129 415 130
3 134 154 135
3 137 40 138
3 65 397 141
3 132 28 35
3 41 111 128
3 143 106 105
3 138 70 69
3 64 74 145
3 94 69 68
3 96 103 126
3 126 142 128
3 153 79 81
3 142 125 154
3 96 127 111
3 49 44 46
3 70 136 135
3 48 31 33
3 157 46 45
3 158 25 27
3 160 31 48
3 161 53 162
3 139 132 98
3 163 186 164
3 43 38 48
3 166 228 167
3 45 67 72
3 169 228 166
3 171 185 172
3 174 180 175
3 177 181 178
3 169 170 180
3 173 172 178
3 182 224 183
3 161 158 159
3 163 165 185
3 51 59 72
3 186 177 179
3 165 164 179
3 160 37 39
3 185 179 178
3 162 225 24
3 167 193 188
3 167 228 176
3 194 202 184
3 195 223 196
3 24 225 159
3 198 204 199
3 201 226 202
3 197 199 204
3 193 176 175
3 206 233 207
3 199 197 196
3 214 203 202
3 215 217 192
3 200 199 213
3 217 232 189
3 201 203 214
3 219 206 208
3 171 173 181
3 220 235 221
3 163 171 177
3 158 162 26
3 224 227 194
3 53 55 225
3 182 184 202
3 175 166 168
3 226 201 218
3 228 169 174
3 218 214 194
3 180 170 166
3 198 229 205
3 198 200 195
3 200 216 223
3 222 221 230
3 206 219 232
3 220 359 234
3 225 55 54
3 210 359 231
3 236 356 237
3 239 432 240
3 242 313 243
3 245 251 246
3 248 284 249
3 241 336 246
3 252 291 253
3 255 432 239
3 239 241 251
3 258 436 259
3 261 248 250
3 263 280 264
3 266 269 252
3 267 265 264
3 242 290 252
3 270 355 271
3 269 266 273
3 275 437 276
3 244 266 254
3 276 437 279
3 279 317 280
3 278 254 253
3 282 305 283
3 285 304 286
3 273 266 244
3 288 294 289
3 290 293 291
3 261 328 292
3 293 281 253
3 262 302 294
3 295 322 296
3 298 271 299
3 283 288 249
3 262 250 301
3 303 320 286
3 305 328 261
3 306 325 307
3 288 283 261
3 309 335 310
3 248 292 282
3 311 310 312
3 313 274 273
3 314 357 315
3 312 334 285
3 279 267 268
3 318 298 300
3 276 322 295
3 320 303 309
3 279 437 296
3 308 327 321
3 267 296 322
3 323 333 324
3 308 307 326
3 276 263 265
3 297 275 277
3 320 311 287
3 328 305 282
3 329 346 330
3 332 321 324
3 303 304 285
3 272 271 298
3 309 285 334
3 317 268 264
3 290 242 244
3 290 278 281
3 255 256 338
3 340 360 341
3 341 316 315
3 344 272 318
3 345 354 330
3 347 340 342
3 329 353 345
3 344 319 300
3 342 341 343
3 270 272 344
3 350 332 333
3 349 344 299
3 236 238 352
3 321 327 326
3 189 232 219
3 350 306 321
3 354 352 331
3 350 323 325
3 355 351 299
3 307 325 324
3 335 334 312
3 182 226 227
3 231 230 212
3 331 352 238
3 207 233 232
3 356 329 331
3 234 230 221
3 236 353 329
3 230 234 209
3 353 352 354
3 348 343 315
3 190 219 215
3 341 360 358
3 359 210 209
3 340 347 358
3 208 207 217
3 347 314 316
3 229 195 197
3 342 348 357
3 359 220 222
3 351 355 270
3 361 376 362
3 115 117 78
3 365 375 372
3 373 393 374
3 376 383 377
3 378 388 368
3 92 73 89
3 377 403 381
3 368 370 367
3 92 79 153
3 383 412 384
3 129 131 390
3 108 423 392
3 146 156 374
3 393 398 147
3 396 107 106
3 122 121 58
3 400 112 148
3 146 148 120
3 402 422 396
3 397 115 77
3 374 156 57
3 83 85 34
3 130 379 101
3 383 385 403
3 405 413 411
3 412 417 143
3 414 419 408
3 415 129 382
3 408 410 407
3 417 394 106
3 417 421 395
3 415 420 150
3 422 402 100
3 379 150 152
3 365 367 76
3 405 407 381
3 424 433 425
3 424 431 427
3 245 438 257
3 429 431 424
3 240 337 336
3 429 426 258
3 242 269 274
3 430 435 431
3 432 438 245
3 257 438 339
3 433 439 434
3 427 431 435
3 436 425 430
3 434 439 428
3 437 275 297
3 430 429 260
3 432 255 339
3 430 425 433
3 301 250 249
3 433 424 428
3 240 245 247
3 258 426 425
3 338 256 239
