ply
format ascii 1.0
comment Created by Blender 2.77 (sub 0) - www.blender.org, source file: 'Dungeon0-Scene.blend'
element vertex 458
property float x
property float y
property float z
property float nx
property float ny
property float nz
property uchar red
property uchar green
property uchar blue
element face 790
property list uchar uint vertex_indices
end_header
72.707710 18.795382 -44.645580 0.000000 1.000000 0.000000 255 255 0
70.207710 18.795383 -41.145580 0.000000 1.000000 0.000000 255 255 0
75.207710 18.795383 -41.145580 0.000000 1.000000 0.000000 255 255 0
38.707710 18.795382 -44.645580 0.000000 1.000000 0.000000 255 255 0
36.207710 18.795383 -41.145580 0.000000 1.000000 0.000000 255 255 0
41.207710 18.795383 -41.145580 0.000000 1.000000 0.000000 255 255 0
-3.685692 18.795399 62.233101 0.000000 0.999969 0.000000 255 255 0
-7.928337 18.795399 62.940208 0.000000 1.000000 0.000000 255 255 0
-4.392799 18.795401 66.475746 0.000000 1.000000 0.000000 255 255 0
-33.292290 18.795387 -9.645579 0.000000 1.000000 0.000000 255 255 0
-29.792290 18.795387 -7.145579 0.000000 1.000000 0.000000 255 255 0
-29.792290 18.795387 -12.145579 0.000000 1.000000 0.000000 255 255 0
-76.792297 2.795368 -115.645576 0.000000 1.000000 0.000000 0 0 0
-79.292297 2.795368 -112.145576 0.000000 1.000000 0.000000 0 0 0
-74.292297 2.795368 -112.145576 0.000000 1.000000 0.000000 0 0 0
-102.292297 2.795368 -115.645576 0.000000 1.000000 0.000000 0 0 0
-104.792297 2.795368 -112.145576 0.000000 1.000000 0.000000 0 0 0
-99.792297 2.795368 -112.145576 0.000000 1.000000 0.000000 0 0 0
-84.336342 21.862106 -72.918129 0.577349 0.577349 0.577349 0 255 255
-84.336342 8.002309 -74.918129 0.577349 -0.577349 -0.577349 0 255 255
-84.336342 21.862106 -74.918129 0.577349 0.577349 -0.577349 0 255 255
-94.688324 21.862106 -72.918129 -0.577349 0.577349 0.577349 0 255 255
-84.336342 8.002310 -72.918129 0.577349 -0.577349 0.577349 0 255 255
-94.688324 21.862106 -74.918129 -0.577349 0.577349 -0.577349 0 255 255
-94.688324 8.002310 -72.918129 -0.577349 -0.577349 0.577349 0 255 255
-94.688324 8.002309 -74.918129 -0.577349 -0.577349 -0.577349 0 255 255
-41.463097 23.386900 44.414452 -0.313669 0.896207 0.313669 255 0 255
-41.204094 23.386900 44.143410 0.313669 0.896207 -0.313669 255 0 255
-41.463097 23.386900 44.143410 -0.313669 0.896207 -0.313669 255 0 255
-41.204094 23.386900 44.414452 0.313669 0.896207 0.313669 255 0 255
-83.288254 18.870079 -31.861015 -0.941954 -0.211127 0.260994 255 0 0
-82.808685 19.226322 -31.194984 -0.668386 0.627491 0.399335 255 0 0
-83.283836 18.909229 -31.861015 -0.867214 0.452254 0.208197 255 0 0
-40.686104 22.831903 82.176384 0.637074 0.433851 -0.637074 255 0 255
-41.463097 23.386906 82.694389 -0.313669 0.896207 -0.313669 255 0 255
-41.204094 23.386906 82.694389 0.313669 0.896207 -0.313669 255 0 255
-82.808685 19.226322 -32.690174 -0.668386 0.627491 -0.399335 255 0 0
-83.288254 18.870079 -32.024143 -0.941954 -0.211035 -0.260994 255 0 0
-83.283836 18.909229 -32.024143 -0.867183 0.452315 -0.208167 255 0 0
-42.129112 21.092903 82.028374 -0.598346 -0.532823 -0.598346 255 0 255
-41.981102 22.831905 83.483421 -0.637074 0.433851 0.637074 255 0 255
-41.981102 22.831903 82.176384 -0.637074 0.433851 -0.637074 255 0 255
-82.127686 18.047506 -31.859823 0.375927 -0.918363 0.123386 255 0 0
-82.506973 17.950346 -32.024414 -0.202887 -0.962462 -0.180181 255 0 0
-82.127686 18.047506 -32.025333 0.375927 -0.918393 -0.123386 255 0 0
-41.463097 23.386908 82.965431 -0.313669 0.896207 0.313669 255 0 255
-18.455467 21.092903 82.028374 0.598346 -0.532823 -0.598346 255 0 255
-18.603477 22.831905 83.483421 0.637074 0.433851 0.637074 255 0 255
-18.455467 21.092905 83.631432 0.598346 -0.532823 0.598346 255 0 255
-40.538109 21.092905 83.631432 0.598346 -0.532853 0.598346 255 0 255
-40.686104 22.831905 83.483421 0.637074 0.433851 0.637074 255 0 255
-20.046471 21.092903 82.028374 -0.598346 -0.532853 -0.598346 255 0 255
-19.898476 22.831905 83.483421 -0.637074 0.433851 0.637074 255 0 255
-19.898476 22.831903 82.176384 -0.637074 0.433851 -0.637074 255 0 255
-42.129112 21.092905 83.631432 -0.598346 -0.532823 0.598346 255 0 255
-42.129112 21.092897 43.477409 -0.598346 -0.532823 -0.598346 255 0 255
-40.538109 21.092897 45.080467 0.598346 -0.532853 0.598346 255 0 255
-42.129112 21.092897 45.080467 -0.598346 -0.532823 0.598346 255 0 255
-83.571487 18.732361 -45.264252 0.971862 0.190405 0.138615 255 0 0
-83.682816 18.665781 -44.853798 0.780755 -0.043611 0.623280 255 0 0
-83.526596 18.400892 -45.260746 0.934965 -0.305521 0.180181 255 0 0
-19.380486 23.386906 82.694389 -0.313669 0.896207 -0.313669 255 0 255
-19.380486 23.386908 82.965431 -0.313669 0.896207 0.313669 255 0 255
-82.794662 19.202047 -32.721912 -0.449293 0.142705 -0.881893 255 0 0
-82.895248 18.585949 -32.451988 -0.693503 -0.322520 -0.644185 255 0 0
-19.121483 23.386908 82.965431 0.313669 0.896207 0.313669 255 0 255
-84.306976 17.950344 -45.424416 -0.202887 -0.962462 -0.180181 255 0 0
-84.571587 18.154951 -45.264252 -0.650838 -0.746422 0.138615 255 0 0
-84.571587 18.154951 -45.420914 -0.650807 -0.746452 -0.138615 255 0 0
-18.603477 22.831903 82.176384 0.637074 0.433851 -0.637074 255 0 255
-81.882812 18.665783 -31.453796 0.780755 -0.043641 0.623310 255 0 0
-82.211357 18.479202 -31.311481 0.312174 -0.214850 0.925382 255 0 0
-82.052231 18.212816 -31.450993 0.549303 -0.543260 0.634877 255 0 0
-41.204094 23.386908 82.965431 0.313669 0.896207 0.313669 255 0 255
-19.121483 23.386906 82.694389 0.313669 0.896207 -0.313669 255 0 255
-84.178452 18.479172 -45.997974 -0.043916 -0.272622 -0.961089 255 0 0
-84.458267 18.218073 -45.831360 -0.352611 -0.697958 -0.623280 255 0 0
-84.518341 18.279051 -45.852161 -0.519211 -0.533738 -0.667440 255 0 0
-84.608681 19.226320 -46.090176 -0.668264 0.627674 -0.399243 255 0 0
-85.088257 18.870077 -45.424141 -0.941984 -0.211005 -0.260964 255 0 0
-85.083832 18.909227 -45.424141 -0.867153 0.452437 -0.208136 255 0 0
-84.011353 18.479200 -45.973679 0.312174 -0.214850 -0.925382 255 0 0
-83.682816 18.665781 -45.831360 0.780755 -0.043580 -0.623280 255 0 0
-83.852234 18.212814 -45.834167 0.549303 -0.543260 -0.634877 255 0 0
-82.168579 19.553122 -32.024143 0.041780 0.977203 -0.208136 255 0 0
-82.680771 19.300171 -31.194984 -0.209357 0.892575 0.399304 255 0 0
-82.168579 19.553122 -31.861015 0.041749 0.977203 0.208136 255 0 0
-82.680771 19.300171 -32.690174 -0.209357 0.892575 -0.399335 255 0 0
-82.132469 19.537374 -32.024143 0.653737 0.710257 -0.260964 255 0 0
-82.082916 19.054949 -32.451988 0.626057 0.439344 -0.644185 255 0 0
-82.666756 19.275896 -32.721912 0.100986 0.460463 -0.881893 255 0 0
-84.594666 19.202045 -46.121914 -0.449293 0.142827 -0.881863 255 0 0
-84.695244 18.585947 -45.851990 -0.693503 -0.322520 -0.644185 255 0 0
-82.132469 19.537374 -31.861015 0.653737 0.710288 0.260964 255 0 0
-84.048836 18.554005 -45.997974 0.258065 -0.098270 -0.961089 255 0 0
-82.794662 19.202047 -31.163246 -0.449263 0.142705 0.881893 255 0 0
-82.248840 18.554007 -31.287186 0.258065 -0.098270 0.961089 255 0 0
-82.666756 19.275896 -31.163246 0.100986 0.460463 0.881893 255 0 0
-82.378448 18.479174 -32.597973 -0.043916 -0.272591 -0.961089 255 0 0
-82.718346 18.279053 -32.452160 -0.519242 -0.533738 -0.667440 255 0 0
-82.833420 18.216154 -32.024906 -0.756188 -0.637715 -0.146397 255 0 0
-81.793571 18.816515 -31.860256 0.930387 0.335978 0.146367 255 0 0
-82.506973 17.950340 -61.024414 -0.202887 -0.962462 -0.180181 255 0 0
-82.181274 18.138309 -61.434166 0.195807 -0.747368 -0.634877 255 0 0
-82.127686 18.047503 -61.025333 0.375896 -0.918393 -0.123386 255 0 0
-82.248840 18.554007 -32.597973 0.258034 -0.098239 -0.961089 255 0 0
-82.895248 18.585949 -31.433170 -0.693503 -0.322520 0.644185 255 0 0
-81.882812 18.665779 -60.453796 0.780755 -0.043611 0.623280 255 0 0
-82.211357 18.479198 -60.311481 0.312143 -0.214850 0.925382 255 0 0
-82.052231 18.212812 -60.450993 0.549303 -0.543260 0.634877 255 0 0
-81.726601 18.400890 -60.860744 0.934965 -0.305490 0.180181 255 0 0
-82.378448 18.479174 -31.287186 -0.043916 -0.272622 0.961089 255 0 0
-82.771591 18.154953 -32.020912 -0.650868 -0.746391 -0.138615 255 0 0
-82.658264 18.218075 -32.431362 -0.352611 -0.697928 -0.623310 255 0 0
-83.927689 18.047504 -45.259827 0.375927 -0.918363 0.123417 255 0 0
-83.927689 18.047504 -45.425335 0.375896 -0.918393 -0.123386 255 0 0
-82.082916 19.054949 -31.433170 0.626057 0.439344 0.644185 255 0 0
-85.088257 18.870077 -45.261017 -0.942015 -0.210883 0.260994 255 0 0
-84.608681 19.226320 -44.594986 -0.668294 0.627613 0.399274 255 0 0
-85.083832 18.909227 -45.261017 -0.867092 0.452559 0.208136 255 0 0
-81.793571 18.816515 -32.024906 0.930387 0.336039 -0.146367 255 0 0
-81.905579 18.748304 -32.452160 0.721854 0.182775 -0.667440 255 0 0
-83.852234 18.212814 -44.850994 0.549303 -0.543260 0.634877 255 0 0
-83.526596 18.400892 -45.424416 0.934965 -0.305521 -0.180181 255 0 0
-83.800385 18.121002 -45.425335 0.607349 -0.784753 -0.123386 255 0 0
-82.658264 18.218075 -31.453796 -0.352641 -0.697928 0.623310 255 0 0
-82.332413 18.409313 -31.311481 0.029969 -0.377789 0.925382 255 0 0
-81.882812 18.665783 -32.431362 0.780725 -0.043611 -0.623310 255 0 0
-82.211357 18.479202 -32.573681 0.312174 -0.214850 -0.925382 255 0 0
-82.332413 18.409313 -32.573681 0.029969 -0.377758 -0.925382 255 0 0
-82.181274 18.138315 -32.434166 0.195807 -0.747368 -0.634877 255 0 0
-82.378448 18.479168 -61.597973 -0.043916 -0.272591 -0.961089 255 0 0
-82.211357 18.479198 -61.573681 0.312174 -0.214850 -0.925382 255 0 0
-82.332413 18.409309 -61.573681 0.029969 -0.377758 -0.925382 255 0 0
-82.833420 18.216154 -31.860256 -0.756188 -0.637745 0.146367 255 0 0
-82.718346 18.279053 -31.432999 -0.519242 -0.533738 0.667440 255 0 0
-82.000381 18.121006 -32.025333 0.607379 -0.784753 -0.123386 255 0 0
-81.726601 18.400894 -31.860744 0.934965 -0.305521 0.180181 255 0 0
-82.000381 18.121006 -31.859825 0.607379 -0.784753 0.123386 255 0 0
-82.506973 17.950346 -31.860743 -0.202887 -0.962462 0.180181 255 0 0
-82.181274 18.138315 -31.450993 0.195807 -0.747368 0.634877 255 0 0
-82.771591 18.154953 -31.864250 -0.650838 -0.746422 0.138615 255 0 0
-81.905579 18.748304 -31.432999 0.721854 0.182745 0.667440 255 0 0
-84.633423 18.216152 -45.424904 -0.756157 -0.637776 -0.146367 255 0 0
-82.052231 18.212816 -32.434166 0.549303 -0.543260 -0.634877 255 0 0
-82.248840 18.554003 -60.287186 0.258034 -0.098270 0.961089 255 0 0
-81.905579 18.748299 -60.432999 0.721854 0.182745 0.667440 255 0 0
-83.981277 18.138313 -45.834167 0.195807 -0.747337 -0.634877 255 0 0
-84.132408 18.409311 -44.711479 0.029969 -0.377789 0.925382 255 0 0
-84.458267 18.218073 -44.853798 -0.352580 -0.697958 0.623280 255 0 0
-83.981277 18.138313 -44.850994 0.195807 -0.747368 0.634877 255 0 0
-83.571487 18.732361 -45.420914 0.971862 0.190344 -0.138615 255 0 0
-81.882812 18.665779 -61.431362 0.780755 -0.043611 -0.623280 255 0 0
-81.771484 18.732359 -61.020912 0.971831 0.190466 -0.138615 255 0 0
-81.726601 18.400890 -61.024414 0.934965 -0.305521 -0.180181 255 0 0
-84.132408 18.409311 -45.973679 0.029969 -0.377789 -0.925382 255 0 0
-81.726601 18.400894 -32.024414 0.934965 -0.305521 -0.180181 255 0 0
-81.771484 18.732363 -32.020912 0.971831 0.190466 -0.138615 255 0 0
-84.011353 18.479200 -44.711479 0.312174 -0.214820 0.925382 255 0 0
-20.046471 21.092905 83.631432 -0.598346 -0.532853 0.598346 255 0 255
-40.686104 22.831898 43.625420 0.637074 0.433851 -0.637074 255 0 255
-40.686104 22.831898 44.932457 0.637074 0.433851 0.637074 255 0 255
-40.538109 21.092903 82.028374 0.598346 -0.532853 -0.598346 255 0 255
-40.538109 21.092897 43.477409 0.598346 -0.532853 -0.598346 255 0 255
-41.981102 22.831898 43.625420 -0.637074 0.433851 -0.637074 255 0 255
-20.046471 21.092897 43.477409 -0.598346 -0.532853 -0.598346 255 0 255
-18.455467 21.092897 45.080467 0.598346 -0.532823 0.598346 255 0 255
-20.046471 21.092897 45.080467 -0.598346 -0.532853 0.598346 255 0 255
41.178719 36.631897 49.043232 -0.637074 0.433851 0.637074 255 0 255
41.967751 37.186897 48.525227 0.313669 0.896207 0.313669 255 0 255
41.696709 37.186897 48.525227 -0.313669 0.896207 0.313669 255 0 255
42.633766 34.892899 49.191246 0.598346 -0.532823 0.598346 255 0 255
41.030708 34.892899 49.191246 -0.598346 -0.532823 0.598346 255 0 255
-19.898476 22.831898 43.625420 -0.637074 0.433851 -0.637074 255 0 255
-19.380486 23.386900 44.414452 -0.313669 0.896207 0.313669 255 0 255
-19.380486 23.386900 44.143410 -0.313669 0.896207 -0.313669 255 0 255
42.633766 34.892899 47.600243 0.598346 -0.532853 -0.598346 255 0 255
41.178719 36.631897 47.748234 -0.637074 0.433851 -0.637074 255 0 255
42.485756 36.631897 47.748234 0.637074 0.433851 -0.637074 255 0 255
-18.603477 22.831898 43.625420 0.637074 0.433851 -0.637074 255 0 255
-19.121483 23.386900 44.414452 0.313669 0.896207 0.313669 255 0 255
-18.603477 22.831898 44.932457 0.637074 0.433851 0.637074 255 0 255
41.030708 34.892899 47.600243 -0.598346 -0.532853 -0.598346 255 0 255
-19.121483 23.386900 44.143410 0.313669 0.896207 -0.313669 255 0 255
41.967751 37.186905 67.025230 0.313669 0.896207 0.313669 255 0 255
41.696709 37.186905 66.766228 -0.313669 0.896207 -0.313669 255 0 255
41.696709 37.186905 67.025230 -0.313669 0.896207 0.313669 255 0 255
-19.898476 22.831898 44.932457 -0.637074 0.433851 0.637074 255 0 255
-18.455467 21.092897 43.477409 0.598346 -0.532823 -0.598346 255 0 255
-81.771484 18.732363 -31.864250 0.971831 0.190435 0.138615 255 0 0
41.696709 37.186897 48.266224 -0.313669 0.896207 -0.313669 255 0 255
64.447670 37.186905 67.025230 -0.313669 0.896207 0.313669 255 0 255
64.718712 37.186905 67.025230 0.313669 0.896207 0.313669 255 0 255
64.718712 37.186905 66.766228 0.313669 0.896207 -0.313669 255 0 255
64.447670 37.186905 66.766228 -0.313669 0.896207 -0.313669 255 0 255
41.967751 37.186897 48.266224 0.313669 0.896207 -0.313669 255 0 255
41.178719 36.631901 66.248238 -0.637074 0.433851 -0.637074 255 0 255
63.929665 29.331894 19.943230 -0.637074 0.433851 0.637074 255 0 255
64.447670 29.886896 19.166235 -0.313669 0.896207 -0.313669 255 0 255
63.929665 29.331894 18.648247 -0.637074 0.433851 -0.637074 255 0 255
65.384712 27.592894 20.091240 0.598346 -0.532853 0.598346 255 0 255
65.236702 29.331894 18.648247 0.637074 0.433851 -0.637074 255 0 255
65.236702 29.331894 19.943230 0.637074 0.433851 0.637074 255 0 255
42.633766 34.892902 67.691246 0.598346 -0.532823 0.598346 255 0 255
41.178719 36.631905 67.543236 -0.637074 0.433851 0.637074 255 0 255
41.030708 34.892902 67.691246 -0.598346 -0.532853 0.598346 255 0 255
65.384712 27.592894 18.500237 0.598346 -0.532853 -0.598346 255 0 255
63.781654 27.592894 18.500237 -0.598346 -0.532823 -0.598346 255 0 255
65.384712 34.892902 67.691246 0.598346 -0.532853 0.598346 255 0 255
63.781654 34.892902 66.100243 -0.598346 -0.532853 -0.598346 255 0 255
65.384712 34.892902 66.100243 0.598346 -0.532853 -0.598346 255 0 255
64.447670 37.186897 48.525227 -0.313669 0.896207 0.313669 255 0 255
64.718712 37.186897 48.525227 0.313669 0.896207 0.313669 255 0 255
64.718712 37.186897 48.266224 0.313669 0.896207 -0.313669 255 0 255
64.447670 37.186897 48.266224 -0.313669 0.896207 -0.313669 255 0 255
64.718712 29.886896 19.166235 0.313669 0.896207 -0.313669 255 0 255
41.030708 34.892902 66.100243 -0.598346 -0.532853 -0.598346 255 0 255
65.236702 36.631901 66.248238 0.637074 0.433851 -0.637074 255 0 255
64.718712 29.886896 19.425238 0.313669 0.896207 0.313669 255 0 255
63.929665 36.631901 66.248238 -0.637074 0.433851 -0.637074 255 0 255
42.633766 34.892902 66.100243 0.598346 -0.532853 -0.598346 255 0 255
65.236702 36.631905 67.543236 0.637074 0.433851 0.637074 255 0 255
65.384712 34.892899 49.191246 0.598346 -0.532823 0.598346 255 0 255
63.781654 34.892899 47.600243 -0.598346 -0.532853 -0.598346 255 0 255
65.384712 34.892899 47.600243 0.598346 -0.532853 -0.598346 255 0 255
64.447670 29.886896 19.425238 -0.313669 0.896207 0.313669 255 0 255
41.967751 37.186905 66.766228 0.313669 0.896207 -0.313669 255 0 255
-41.981102 22.831898 44.932457 -0.637074 0.433851 0.637074 255 0 255
42.485756 36.631905 67.543236 0.637074 0.433851 0.637074 255 0 255
42.485756 36.631901 66.248238 0.637074 0.433851 -0.637074 255 0 255
42.485756 36.631897 49.043232 0.637074 0.433851 0.637074 255 0 255
63.781654 27.592894 20.091240 -0.598346 -0.532823 0.598346 255 0 255
63.929665 36.631897 47.748234 -0.637074 0.433851 -0.637074 255 0 255
65.236702 36.631897 47.748234 0.637074 0.433851 -0.637074 255 0 255
63.929665 36.631905 67.543236 -0.637074 0.433851 0.637074 255 0 255
63.781654 34.892902 67.691246 -0.598346 -0.532823 0.598346 255 0 255
63.929665 36.631897 49.043232 -0.637074 0.433851 0.637074 255 0 255
63.781654 34.892899 49.191246 -0.598346 -0.532823 0.598346 255 0 255
42.633766 27.592894 20.091240 0.598346 -0.532853 0.598346 255 0 255
41.030708 27.592894 18.500237 -0.598346 -0.532853 -0.598346 255 0 255
42.633766 27.592894 18.500237 0.598346 -0.532823 -0.598346 255 0 255
83.100487 46.252609 -74.467056 -0.420057 0.801599 0.425367 0 255 0
83.514946 46.052608 -74.367065 0.532548 0.540361 0.651448 0 255 0
83.414940 46.252609 -74.467056 0.420057 0.801599 0.425367 0 255 0
86.507713 40.244934 -72.245590 0.693411 0.247536 0.676656 0 255 0
32.129707 27.105379 -55.788811 0.669362 0.322245 -0.669362 255 0 255
30.145714 27.745380 -54.892815 -0.313913 0.896023 -0.313913 255 0 255
31.233711 27.745380 -54.892815 0.313913 0.896023 -0.313913 255 0 255
57.350929 45.605370 -106.723572 0.669362 0.322245 0.669362 255 0 255
56.806938 42.933372 -109.059570 0.517991 -0.680654 -0.517991 255 0 255
57.350929 45.605370 -109.603577 0.669362 0.322245 -0.669362 255 0 255
30.145714 27.745380 -53.772812 -0.313913 0.896023 0.313913 255 0 255
30.945717 27.937382 -54.060814 0.223243 0.948851 0.223212 255 0 255
30.433708 27.937382 -54.060814 -0.223243 0.948851 0.223212 255 0 255
35.286201 39.105373 -98.075569 0.000000 0.322245 0.946623 255 0 255
36.078148 39.745373 -100.134659 0.443953 0.896023 0.000000 255 0 255
35.286186 39.745373 -99.342697 0.000000 0.896023 0.443953 255 0 255
31.233711 27.745380 -53.772812 0.313913 0.896023 0.313913 255 0 255
55.334938 46.245369 -107.619583 -0.313944 0.896023 0.313913 255 0 255
55.622932 46.437370 -108.419571 -0.223243 0.948851 -0.223212 255 0 255
55.334938 46.245369 -108.707581 -0.313913 0.896023 -0.313913 255 0 255
29.793709 24.433380 -55.244812 -0.517991 -0.680654 -0.517991 255 0 255
31.585716 24.433380 -55.244812 0.517991 -0.680654 -0.517991 255 0 255
86.507713 40.244930 -77.045578 0.693533 0.247291 -0.676626 0 255 0
32.129707 27.105381 -52.876808 0.669362 0.322245 0.669362 255 0 255
82.924004 24.433382 -42.028576 0.000000 -0.680654 0.732566 255 0 255
82.946617 24.433382 -44.585476 0.000000 -0.680654 -0.732566 255 0 255
84.213768 24.433382 -43.318336 0.732566 -0.680654 0.000000 255 0 255
86.507713 40.194931 -72.245590 0.577319 -0.577349 0.577349 0 255 0
80.007713 40.194931 -72.245590 -0.577349 -0.577349 0.577349 0 255 0
80.007713 40.244934 -72.245590 -0.693411 0.247536 0.676656 0 255 0
86.507713 40.194931 -77.045578 0.577349 -0.577349 -0.577349 0 255 0
80.007713 40.194931 -77.045578 -0.577319 -0.577349 -0.577349 0 255 0
80.007713 40.244930 -77.045578 -0.693533 0.247291 -0.676626 0 255 0
83.414940 46.252609 -74.831528 0.420057 0.801599 -0.425367 0 255 0
83.100487 46.252609 -74.831528 -0.420057 0.801599 -0.425367 0 255 0
33.249733 39.105373 -100.112045 -0.946623 0.322245 0.000000 255 0 255
34.516853 39.745373 -100.112030 -0.443953 0.896023 0.000000 255 0 255
30.538033 33.745377 -81.031532 0.313913 0.896023 -0.313944 255 0 255
30.250038 33.937378 -80.199524 0.223243 0.948851 0.223243 255 0 255
30.538033 33.745377 -79.911522 0.313913 0.896023 0.313944 255 0 255
54.438942 45.605370 -109.603577 -0.669362 0.322245 -0.669362 255 0 255
29.450035 33.745377 -79.911530 -0.313913 0.896023 0.313944 255 0 255
29.738029 33.937378 -80.199524 -0.223243 0.948851 0.223243 255 0 255
54.438942 45.605370 -106.723572 -0.669362 0.322245 0.669362 255 0 255
-39.646477 29.592888 -7.022580 -0.598346 -0.532853 -0.598346 255 0 255
-39.498482 31.331890 -5.567533 -0.637074 0.433851 0.637074 255 0 255
-39.498482 31.331890 -6.874578 -0.637074 0.433851 -0.637074 255 0 255
54.982948 42.933372 -109.059570 -0.517991 -0.680654 -0.517991 255 0 255
54.982948 42.933372 -107.267578 -0.517991 -0.680654 0.517991 255 0 255
29.098030 30.433374 -81.383530 -0.517991 -0.680654 -0.517991 255 0 255
31.434029 33.105377 -81.927521 0.669362 0.322245 -0.669362 255 0 255
30.890022 30.433374 -81.383522 0.517991 -0.680654 -0.517991 255 0 255
56.454933 46.245369 -108.707581 0.313913 0.896023 -0.313913 255 0 255
29.450035 33.745377 -81.031525 -0.313913 0.896023 -0.313913 255 0 255
30.250038 33.937378 -80.743530 0.223243 0.948851 -0.223243 255 0 255
56.166939 46.437370 -108.419571 0.223243 0.948851 -0.223212 255 0 255
36.575951 36.433372 -100.134659 0.732566 -0.680654 0.000000 255 0 255
35.308815 39.105373 -102.171127 0.000000 0.322245 -0.946623 255 0 255
37.345284 39.105373 -100.134651 0.946623 0.322245 0.000000 255 0 255
-22.398476 31.331888 -13.367532 -0.637074 0.433851 0.637074 255 0 255
-20.955482 29.592888 -13.219529 0.598346 -0.532853 0.598346 255 0 255
-21.103477 31.331888 -13.367532 0.637074 0.433851 0.637074 255 0 255
35.308815 39.745373 -100.903992 0.000000 0.896023 -0.443953 255 0 255
35.670860 39.937370 -100.134659 0.315683 0.948851 0.000000 255 0 255
56.454933 46.245369 -107.619583 0.313944 0.896023 0.313913 255 0 255
55.622932 46.437370 -107.907578 -0.223212 0.948851 0.223243 255 0 255
35.286186 36.433372 -98.844902 0.000000 -0.680654 0.732566 255 0 255
56.166939 46.437370 -107.907578 0.223243 0.948851 0.223243 255 0 255
35.308815 39.937370 -100.496704 0.000000 0.948851 -0.315683 255 0 255
30.890022 30.433374 -79.559532 0.517991 -0.680654 0.517991 255 0 255
28.554024 33.105377 -79.015541 -0.669362 0.322245 0.669362 255 0 255
29.098030 30.433374 -79.559540 -0.517991 -0.680654 0.517991 255 0 255
-38.980476 31.886890 -6.085538 -0.313669 0.896207 0.313669 255 0 255
-38.203484 31.331890 -5.567533 0.637074 0.433851 0.637074 255 0 255
-38.721481 31.886890 -6.085538 0.313669 0.896207 0.313669 255 0 255
35.286186 39.937370 -99.749992 0.000000 0.948851 0.315683 255 0 255
34.924141 39.937370 -100.112030 -0.315683 0.948851 0.000000 255 0 255
-22.546486 29.592888 -14.822579 -0.598346 -0.532853 -0.598346 255 0 255
-22.546486 29.592888 -13.219529 -0.598346 -0.532853 0.598346 255 0 255
35.308815 36.433372 -101.401794 0.000000 -0.680654 -0.732566 255 0 255
-39.498482 31.331888 -14.674577 -0.637074 0.433851 -0.637074 255 0 255
-38.980476 31.886890 -13.885537 -0.313669 0.896207 0.313669 255 0 255
-38.980476 31.886890 -14.156579 -0.313669 0.896207 -0.313669 255 0 255
-22.398476 31.331888 -14.674577 -0.637074 0.433851 -0.637074 255 0 255
-21.621483 31.886890 -14.156579 0.313669 0.896207 -0.313669 255 0 255
-21.103477 31.331888 -14.674577 0.637074 0.433851 -0.637074 255 0 255
-21.621483 31.886890 -13.885537 0.313669 0.896207 0.313669 255 0 255
56.806938 42.933372 -107.267578 0.517991 -0.680654 0.517991 255 0 255
-21.103477 31.331890 -6.874578 0.637074 0.433851 -0.637074 255 0 255
-21.621483 31.886890 -6.085538 0.313669 0.896207 0.313669 255 0 255
-21.103477 31.331890 -5.567533 0.637074 0.433851 0.637074 255 0 255
29.738029 33.937378 -80.743530 -0.223243 0.948851 -0.223243 255 0 255
-38.980476 31.886890 -6.356580 -0.313669 0.896207 -0.313669 255 0 255
-38.721481 31.886890 -6.356580 0.313669 0.896207 -0.313669 255 0 255
-20.955482 29.592888 -14.822579 0.598346 -0.532853 -0.598346 255 0 255
-38.203484 31.331888 -14.674577 0.637074 0.433851 -0.637074 255 0 255
31.434029 33.105377 -79.015533 0.669362 0.322245 0.669362 255 0 255
-39.646477 29.592888 -13.219529 -0.598346 -0.532853 0.598346 255 0 255
-38.203484 31.331888 -13.367532 0.637074 0.433851 0.637074 255 0 255
-39.498482 31.331888 -13.367532 -0.637074 0.433851 0.637074 255 0 255
-38.721474 31.886890 -13.885537 0.313669 0.896207 0.313669 255 0 255
-38.721474 31.886890 -14.156579 0.313669 0.896207 -0.313669 255 0 255
34.019066 36.433372 -100.112038 -0.732566 -0.680654 0.000000 255 0 255
41.178719 29.331894 19.943230 -0.637074 0.433851 0.637074 255 0 255
41.696709 29.886896 19.166235 -0.313669 0.896207 -0.313669 255 0 255
41.178719 29.331894 18.648247 -0.637074 0.433851 -0.637074 255 0 255
-38.055473 29.592888 -14.822579 0.598346 -0.532853 -0.598346 255 0 255
-38.055473 29.592888 -13.219529 0.598346 -0.532853 0.598346 255 0 255
-21.880486 31.886890 -13.885537 -0.313669 0.896207 0.313669 255 0 255
-21.880486 31.886890 -14.156579 -0.313669 0.896207 -0.313669 255 0 255
30.945717 27.937380 -54.604813 0.223243 0.948851 -0.223212 255 0 255
30.433708 27.937380 -54.604813 -0.223243 0.948851 -0.223212 255 0 255
83.514946 46.052608 -74.931519 0.532945 0.539903 -0.651479 0 255 0
83.000481 46.052608 -74.931519 -0.532884 0.539964 -0.651479 0 255 0
83.000481 46.052608 -74.367065 -0.532548 0.540361 0.651418 0 255 0
31.585716 24.433380 -53.420815 0.517991 -0.680654 0.517991 255 0 255
29.793709 24.433380 -53.420815 -0.517991 -0.680654 0.517991 255 0 255
-22.546486 29.592888 -7.022580 -0.598346 -0.532853 -0.598346 255 0 255
-22.398476 31.331890 -5.567533 -0.637074 0.433851 0.637074 255 0 255
-22.398476 31.331890 -6.874578 -0.637074 0.433851 -0.637074 255 0 255
-21.880486 31.886890 -6.085538 -0.313669 0.896207 0.313669 255 0 255
-38.203484 31.331890 -6.874578 0.637074 0.433851 -0.637074 255 0 255
41.967751 29.886896 19.425238 0.313669 0.896207 0.313669 255 0 255
41.696709 29.886896 19.425238 -0.313669 0.896207 0.313669 255 0 255
-20.955482 29.592888 -7.022580 0.598346 -0.532853 -0.598346 255 0 255
-21.880486 31.886890 -6.356580 -0.313669 0.896207 -0.313669 255 0 255
-38.055481 29.592888 -7.022580 0.598346 -0.532853 -0.598346 255 0 255
-39.646477 29.592888 -14.822579 -0.598346 -0.532853 -0.598346 255 0 255
-38.055481 29.592888 -5.419530 0.598346 -0.532853 0.598346 255 0 255
42.485756 29.331894 18.648247 0.637074 0.433851 -0.637074 255 0 255
42.485756 29.331894 19.943230 0.637074 0.433851 0.637074 255 0 255
41.967751 29.886896 19.166235 0.313669 0.896207 -0.313669 255 0 255
-39.646477 29.592888 -5.419530 -0.598346 -0.532853 0.598346 255 0 255
41.030708 27.592894 20.091240 -0.598346 -0.532823 0.598346 255 0 255
-21.621483 31.886890 -6.356580 0.313669 0.896207 -0.313669 255 0 255
-20.955482 29.592888 -5.419530 0.598346 -0.532853 0.598346 255 0 255
65.236702 36.631897 49.043232 0.637074 0.433851 0.637074 255 0 255
-22.546486 29.592888 -5.419530 -0.598346 -0.532823 0.598346 255 0 255
-82.771591 18.154949 -60.864250 -0.650838 -0.746422 0.138615 255 0 0
-82.833420 18.216150 -61.024906 -0.756188 -0.637715 -0.146397 255 0 0
-82.771591 18.154949 -61.020912 -0.650838 -0.746422 -0.138615 255 0 0
-83.968582 19.553120 -45.424141 0.041780 0.977172 -0.208167 255 0 0
-84.480774 19.300169 -44.594986 -0.209357 0.892575 0.399274 255 0 0
-83.968582 19.553120 -45.261017 0.041780 0.977172 0.208136 255 0 0
-84.480774 19.300169 -46.090176 -0.209357 0.892575 -0.399274 255 0 0
-83.932465 19.537373 -45.424141 0.653737 0.710257 -0.260994 255 0 0
-83.882912 19.054947 -45.851990 0.626057 0.439344 -0.644185 255 0 0
-84.466759 19.275894 -46.121914 0.100986 0.460494 -0.881863 255 0 0
-81.771484 18.732359 -60.864250 0.971831 0.190435 0.138615 255 0 0
-83.932465 19.537373 -45.261017 0.653737 0.710257 0.260994 255 0 0
-84.594666 19.202045 -44.563248 -0.449293 0.142766 0.881893 255 0 0
-84.048836 18.554005 -44.687187 0.258034 -0.098209 0.961119 255 0 0
-84.466759 19.275894 -44.563248 0.100986 0.460494 0.881863 255 0 0
-82.833420 18.216150 -60.860256 -0.756188 -0.637745 0.146367 255 0 0
-83.288254 18.870075 -61.024143 -0.941954 -0.211035 -0.260994 255 0 0
-83.593567 18.816513 -45.260254 0.930418 0.335948 0.146367 255 0 0
-82.052231 18.212812 -61.434166 0.549303 -0.543260 -0.634877 255 0 0
-84.695244 18.585947 -44.833172 -0.693503 -0.322520 0.644185 255 0 0
-82.808685 19.226318 -61.690174 -0.668386 0.627491 -0.399335 255 0 0
-82.794662 19.202044 -61.721912 -0.449293 0.142674 -0.881893 255 0 0
-83.288254 18.870075 -60.861015 -0.941954 -0.211097 0.260994 255 0 0
-82.808685 19.226318 -60.194984 -0.668416 0.627461 0.399304 255 0 0
-83.283836 18.909225 -60.861015 -0.867214 0.452254 0.208197 255 0 0
-83.882912 19.054947 -44.833172 0.626057 0.439344 0.644185 255 0 0
-82.895248 18.585945 -61.451988 -0.693503 -0.322550 -0.644185 255 0 0
-83.593567 18.816513 -45.424904 0.930418 0.335917 -0.146367 255 0 0
-83.705582 18.748302 -45.852161 0.721854 0.182775 -0.667440 255 0 0
-82.658264 18.218071 -61.431362 -0.352611 -0.697928 -0.623310 255 0 0
-82.718346 18.279049 -61.452160 -0.519242 -0.533738 -0.667440 255 0 0
-82.000381 18.121000 -61.025333 0.607379 -0.784753 -0.123386 255 0 0
-84.178452 18.479172 -44.687187 -0.043947 -0.272622 0.961089 255 0 0
-82.332413 18.409309 -60.311481 0.029969 -0.377789 0.925382 255 0 0
-82.658264 18.218071 -60.453796 -0.352641 -0.697897 0.623310 255 0 0
-82.181274 18.138309 -60.450993 0.195807 -0.747368 0.634877 255 0 0
-84.633423 18.216152 -45.260254 -0.756188 -0.637745 0.146397 255 0 0
-84.518341 18.279051 -44.833000 -0.519211 -0.533769 0.667440 255 0 0
-83.800385 18.121004 -45.259827 0.607379 -0.784753 0.123417 255 0 0
-84.306976 17.950344 -45.260746 -0.202887 -0.962462 0.180181 255 0 0
-83.705582 18.748302 -44.833000 0.721854 0.182745 0.667440 255 0 0
-82.506973 17.950340 -60.860744 -0.202887 -0.962462 0.180181 255 0 0
-83.283836 18.909225 -61.024143 -0.867183 0.452315 -0.208197 255 0 0
-82.168579 19.553118 -61.024143 0.041780 0.977203 -0.208136 255 0 0
-82.680771 19.300167 -60.194984 -0.209357 0.892575 0.399304 255 0 0
-82.168579 19.553118 -60.861015 0.041719 0.977203 0.208136 255 0 0
-82.680771 19.300167 -61.690174 -0.209296 0.892575 -0.399335 255 0 0
-82.132469 19.537371 -61.024143 0.653737 0.710257 -0.260964 255 0 0
-82.082916 19.054945 -61.451988 0.626087 0.439344 -0.644185 255 0 0
-82.666756 19.275892 -61.721912 0.101047 0.460433 -0.881893 255 0 0
-82.132469 19.537371 -60.861015 0.653706 0.710288 0.260964 255 0 0
-82.794662 19.202044 -60.163246 -0.449324 0.142674 0.881893 255 0 0
-82.666756 19.275892 -60.163246 0.100986 0.460463 0.881893 255 0 0
-81.793571 18.816511 -60.860256 0.930387 0.336009 0.146367 255 0 0
-82.248840 18.554003 -61.597973 0.258065 -0.098239 -0.961089 255 0 0
-82.895248 18.585945 -60.433170 -0.693503 -0.322520 0.644185 255 0 0
-82.378448 18.479168 -60.287186 -0.043916 -0.272622 0.961089 255 0 0
-82.082916 19.054945 -60.433170 0.626057 0.439344 0.644185 255 0 0
-81.793571 18.816511 -61.024906 0.930387 0.336039 -0.146367 255 0 0
-81.905579 18.748299 -61.452160 0.721854 0.182775 -0.667440 255 0 0
-82.718346 18.279049 -60.432999 -0.519242 -0.533708 0.667440 255 0 0
-82.127686 18.047503 -60.859825 0.375896 -0.918393 0.123386 255 0 0
-82.000381 18.121000 -60.859825 0.607379 -0.784753 0.123386 255 0 0
82.924004 27.745382 -42.526379 0.000000 0.896023 0.443953 255 0 255
80.887535 27.105381 -43.295704 -0.946623 0.322245 0.000000 255 0 255
82.924004 27.105381 -41.259232 0.000000 0.322245 0.946623 255 0 255
83.308662 27.937382 -43.318344 0.315683 0.948851 0.000000 255 0 255
82.923988 27.937382 -42.933681 0.000000 0.948851 0.315683 255 0 255
84.983101 27.105381 -43.318329 0.946623 0.322245 0.000000 255 0 255
82.946632 27.105381 -45.354801 0.000000 0.322245 -0.946623 255 0 255
83.715965 27.745382 -43.318340 0.443953 0.896023 0.000000 255 0 255
29.249702 27.105379 -55.788811 -0.669362 0.322245 -0.669362 255 0 255
82.154671 27.745382 -43.295708 -0.443983 0.896023 0.000000 255 0 255
82.946617 27.937382 -43.680382 0.000000 0.948851 -0.315683 255 0 255
82.946632 27.745382 -44.087669 0.000000 0.896023 -0.443983 255 0 255
81.656868 24.433382 -43.295715 -0.732566 -0.680654 0.000000 255 0 255
28.554024 33.105377 -81.927521 -0.669362 0.322275 -0.669362 255 0 255
29.249702 27.105381 -52.876808 -0.669362 0.322245 0.669362 255 0 255
82.561958 27.937382 -43.295715 -0.315683 0.948851 0.000000 255 0 255
3 0 1 2
3 3 4 5
3 6 7 8
3 9 10 11
3 12 13 14
3 15 16 17
3 18 19 20
3 21 22 18
3 23 24 21
3 20 25 23
3 22 25 19
3 21 20 23
3 26 27 28
3 26 29 27
3 30 31 32
3 33 34 35
3 36 37 38
3 39 40 41
3 42 43 44
3 34 40 45
3 46 47 48
3 40 49 50
3 51 52 53
3 39 49 54
3 55 56 57
3 58 59 60
3 61 52 62
3 63 64 37
3 52 65 62
3 66 67 68
3 51 69 46
3 70 71 72
3 34 73 35
3 62 65 74
3 62 74 61
3 36 32 31
3 75 76 77
3 78 79 80
3 36 38 32
3 81 82 83
3 30 38 37
3 84 85 86
3 84 87 85
3 88 89 90
3 91 92 79
3 85 93 86
3 94 82 81
3 95 96 97
3 63 98 99
3 64 63 99
3 37 64 99
3 100 37 99
3 101 88 93
3 102 103 104
3 105 63 90
3 30 106 95
3 107 108 109
3 88 87 84
3 109 110 107
3 111 71 96
3 112 113 43
3 114 66 115
3 97 116 93
3 117 118 119
3 88 120 121
3 89 88 121
3 90 89 121
3 105 90 121
3 122 60 59
3 83 123 124
3 111 125 126
3 105 127 128
3 113 129 130
3 131 132 133
3 30 134 135
3 106 30 135
3 95 106 135
3 95 135 111
3 136 137 138
3 139 140 125
3 125 141 139
3 97 96 142
3 116 97 142
3 93 116 142
3 93 142 101
3 67 143 68
3 134 37 100
3 43 130 44
3 128 127 144
3 145 107 146
3 140 71 126
3 66 147 115
3 96 70 142
3 148 149 150
3 98 128 129
3 82 151 123
3 152 153 154
3 128 130 129
3 155 83 147
3 126 125 140
3 144 156 136
3 98 113 99
3 127 157 156
3 59 158 122
3 51 48 159
3 72 137 70
3 50 35 73
3 159 47 52
3 160 29 161
3 162 50 49
3 163 164 160
3 141 100 112
3 165 166 167
3 45 50 73
3 168 169 170
3 47 74 65
3 171 168 172
3 173 174 175
3 176 177 178
3 179 180 181
3 171 182 176
3 175 180 183
3 184 185 186
3 163 161 56
3 165 187 173
3 53 74 69
3 188 181 166
3 189 70 137
3 167 181 187
3 162 41 33
3 187 180 174
3 164 26 28
3 169 190 170
3 191 192 193
3 191 193 194
3 169 178 195
3 196 186 185
3 197 198 199
3 26 161 29
3 200 201 202
3 203 204 205
3 199 206 207
3 195 177 190
3 208 209 210
3 211 212 213
3 211 213 214
3 201 198 215
3 216 204 196
3 217 194 193
3 202 215 218
3 219 191 194
3 203 216 220
3 221 210 217
3 173 183 179
3 222 223 224
3 225 218 215
3 225 215 198
3 165 179 188
3 160 28 27
3 226 196 185
3 55 227 164
3 184 204 228
3 177 170 190
3 228 220 229
3 230 176 178
3 220 196 229
3 182 168 177
3 200 207 206
3 200 197 231
3 202 225 197
3 224 232 233
3 208 234 235
3 222 236 237
3 227 56 161
3 212 233 213
3 238 239 240
3 241 242 243
3 242 244 243
3 245 246 247
3 248 249 250
3 251 252 253
3 254 255 256
3 247 252 257
3 258 259 260
3 261 245 262
3 263 243 244
3 245 257 264
3 265 266 267
3 268 244 269
3 244 270 269
3 263 271 272
3 273 263 272
3 269 270 272
3 270 273 272
3 268 269 271
3 271 269 272
3 241 243 274
3 241 274 275
3 276 256 277
3 278 279 280
3 281 258 260
3 282 279 283
3 248 258 284
3 285 286 287
3 284 288 289
3 290 291 292
3 250 260 293
3 291 294 278
3 294 295 278
3 293 259 296
3 297 298 299
3 300 301 302
3 288 250 249
3 303 304 255
3 305 306 258
3 276 307 254
3 308 259 306
3 277 309 303
3 263 268 271
3 310 311 312
3 313 314 315
3 298 255 299
3 277 316 317
3 318 301 319
3 320 276 298
3 321 322 323
3 303 276 277
3 324 325 326
3 254 297 299
3 326 327 302
3 328 288 249
3 317 316 309
3 316 304 309
3 329 330 331
3 327 300 302
3 294 283 332
3 333 315 334
3 291 310 292
3 335 324 326
3 294 311 282
3 323 336 321
3 282 337 280
3 338 339 340
3 323 341 342
3 291 280 337
3 312 292 310
3 335 302 301
3 343 297 307
3 344 345 346
3 347 339 348
3 318 300 324
3 287 313 333
3 324 349 350
3 332 279 295
3 253 252 351
3 253 351 352
3 305 250 293
3 275 353 354
3 305 296 308
3 270 242 355
3 261 356 357
3 358 359 360
3 359 330 361
3 362 333 334
3 363 345 364
3 365 360 329
3 344 363 364
3 362 315 314
3 360 361 366
3 285 362 367
3 368 348 338
3 367 314 369
3 238 370 371
3 336 341 339
3 191 221 192
3 368 336 347
3 372 346 345
3 368 340 321
3 373 314 286
3 322 339 341
3 350 327 325
3 184 229 226
3 233 214 213
3 346 240 239
3 209 234 219
3 374 346 239
3 236 223 237
3 238 344 374
3 232 211 214
3 371 372 363
3 366 330 375
3 192 217 193
3 359 376 331
3 377 211 236
3 358 376 378
3 210 219 217
3 365 331 376
3 231 199 207
3 360 375 329
3 377 224 233
3 369 285 367
3 189 142 70
3 101 142 189
3 121 120 157
3 121 157 127
3 135 134 141
3 125 135 141
3 99 113 112
3 100 99 112
3 139 141 43
3 141 112 43
3 189 137 156
3 157 189 156
3 101 189 157
3 120 101 157
3 86 93 88
3 84 86 88
3 87 90 63
3 36 87 63
3 78 119 118
3 379 380 381
3 78 80 119
3 117 80 79
3 382 383 384
3 382 385 383
3 386 387 388
3 389 107 110
3 383 390 384
3 391 392 393
3 91 75 77
3 92 91 77
3 79 92 77
3 143 79 77
3 394 395 380
3 396 386 390
3 132 152 397
3 94 91 388
3 117 398 391
3 395 399 400
3 386 385 382
3 94 155 75
3 68 76 66
3 401 402 403
3 393 404 390
3 400 405 395
3 386 406 407
3 387 386 407
3 388 387 407
3 97 85 95
3 85 31 95
3 94 388 407
3 131 408 409
3 110 410 154
3 148 392 411
3 412 413 414
3 411 149 148
3 76 155 147
3 117 415 416
3 398 117 416
3 391 398 416
3 391 416 411
3 414 108 412
3 124 60 417
3 418 150 149
3 138 72 42
3 72 140 42
3 136 138 42
3 136 42 44
3 144 136 44
3 130 144 44
3 148 122 158
3 149 67 418
3 393 392 419
3 404 393 419
3 390 404 419
3 390 419 396
3 420 414 413
3 415 79 143
3 392 59 419
3 85 36 31
3 58 419 59
3 396 419 58
3 407 406 151
3 407 151 82
3 416 415 67
3 149 416 67
3 77 76 68
3 143 77 68
3 58 60 123
3 151 58 123
3 396 58 151
3 406 396 151
3 384 390 386
3 382 384 386
3 385 388 91
3 78 385 91
3 399 403 402
3 132 103 133
3 399 421 403
3 401 421 395
3 422 423 424
3 422 425 423
3 426 427 428
3 423 429 424
3 430 145 431
3 400 131 409
3 405 400 409
3 395 405 409
3 380 395 409
3 432 426 429
3 433 400 428
3 401 434 430
3 426 425 422
3 435 108 145
3 381 408 102
3 393 383 391
3 383 118 391
3 431 436 429
3 426 437 438
3 427 426 438
3 428 427 438
3 433 428 438
3 435 413 412
3 433 152 132
3 408 133 103
3 401 394 439
3 434 401 439
3 430 434 439
3 417 122 114
3 122 150 114
3 124 417 114
3 124 114 115
3 83 124 115
3 147 83 115
3 430 439 435
3 440 102 104
3 397 154 410
3 413 379 420
3 431 145 146
3 436 431 146
3 429 436 146
3 429 146 432
3 383 78 118
3 389 146 107
3 432 146 389
3 438 437 153
3 438 153 152
3 439 394 379
3 413 439 379
3 409 408 381
3 380 409 381
3 420 379 102
3 379 381 102
3 389 110 154
3 153 389 154
3 432 389 153
3 437 432 153
3 424 429 426
3 422 424 426
3 425 428 400
3 399 425 400
3 431 423 430
3 423 402 430
3 441 109 440
3 109 414 440
3 410 441 440
3 410 440 104
3 397 410 104
3 103 397 104
3 423 399 402
3 442 443 444
3 442 445 446
3 251 264 257
3 447 442 444
3 246 351 247
3 447 265 267
3 248 289 328
3 448 449 447
3 354 263 273
3 450 251 246
3 264 357 356
3 451 452 453
3 270 355 241
3 445 453 452
3 263 353 274
3 454 448 266
3 354 273 275
3 452 446 445
3 455 312 311
3 448 267 266
3 450 357 456
3 448 451 453
3 316 255 304
3 451 446 457
3 246 253 352
3 265 443 454
3 356 245 264
3 241 273 270
3 18 22 19
3 21 24 22
3 23 25 24
3 20 19 25
3 22 24 25
3 21 18 20
3 30 95 31
3 33 41 34
3 36 63 37
3 39 54 40
3 42 139 43
3 34 41 40
3 46 69 47
3 40 54 49
3 51 159 52
3 39 162 49
3 55 163 56
3 61 53 52
3 52 47 65
3 66 418 67
3 51 53 69
3 34 45 73
3 75 155 76
3 78 91 79
3 30 32 38
3 85 97 93
3 94 407 82
3 95 111 96
3 101 120 88
3 102 408 103
3 105 98 63
3 88 90 87
3 109 441 110
3 111 126 71
3 114 418 66
3 117 391 118
3 122 417 60
3 83 82 123
3 111 135 125
3 105 121 127
3 131 433 132
3 136 156 137
3 139 42 140
3 67 415 143
3 134 30 37
3 43 113 130
3 145 108 107
3 140 72 71
3 66 76 147
3 96 71 70
3 98 105 128
3 128 144 130
3 155 81 83
3 144 127 156
3 98 129 113
3 51 46 48
3 72 138 137
3 50 33 35
3 159 48 47
3 160 27 29
3 162 33 50
3 163 55 164
3 141 134 100
3 165 188 166
3 45 40 50
3 168 230 169
3 47 69 74
3 171 230 168
3 173 187 174
3 176 182 177
3 179 183 180
3 171 172 182
3 175 174 180
3 184 226 185
3 163 160 161
3 165 167 187
3 53 61 74
3 188 179 181
3 167 166 181
3 162 39 41
3 187 181 180
3 164 227 26
3 169 195 190
3 169 230 178
3 196 204 186
3 197 225 198
3 26 227 161
3 200 206 201
3 203 228 204
3 199 201 206
3 195 178 177
3 208 235 209
3 201 199 198
3 216 205 204
3 217 219 194
3 202 201 215
3 219 234 191
3 203 205 216
3 221 208 210
3 173 175 183
3 222 237 223
3 165 173 179
3 160 164 28
3 226 229 196
3 55 57 227
3 184 186 204
3 177 168 170
3 228 203 220
3 230 171 176
3 220 216 196
3 182 172 168
3 200 231 207
3 200 202 197
3 202 218 225
3 224 223 232
3 208 221 234
3 222 377 236
3 227 57 56
3 212 377 233
3 238 374 239
3 241 355 242
3 245 450 246
3 248 328 249
3 251 257 252
3 254 299 255
3 247 351 252
3 258 306 259
3 261 450 245
3 263 274 243
3 245 247 257
3 265 454 266
3 276 254 256
3 278 295 279
3 281 284 258
3 282 280 279
3 248 305 258
3 285 373 286
3 284 281 288
3 290 455 291
3 250 281 260
3 291 455 294
3 294 332 295
3 293 260 259
3 297 320 298
3 300 319 301
3 288 281 250
3 303 309 304
3 305 308 306
3 276 343 307
3 308 296 259
3 277 317 309
3 263 244 268
3 310 337 311
3 313 286 314
3 298 303 255
3 277 256 316
3 318 335 301
3 320 343 276
3 321 340 322
3 303 298 276
3 324 350 325
3 254 307 297
3 326 325 327
3 328 289 288
3 329 375 330
3 327 349 300
3 294 282 283
3 333 313 315
3 291 337 310
3 335 318 324
3 294 455 311
3 323 342 336
3 282 311 337
3 338 348 339
3 323 322 341
3 291 278 280
3 312 290 292
3 335 326 302
3 343 320 297
3 344 364 345
3 347 336 339
3 318 319 300
3 287 286 313
3 324 300 349
3 332 283 279
3 305 248 250
3 275 274 353
3 305 293 296
3 270 244 242
3 261 262 356
3 358 378 359
3 359 331 330
3 362 287 333
3 363 372 345
3 365 358 360
3 344 371 363
3 362 334 315
3 360 359 361
3 285 287 362
3 368 347 348
3 367 362 314
3 238 240 370
3 336 342 341
3 191 234 221
3 368 321 336
3 372 370 346
3 368 338 340
3 373 369 314
3 322 340 339
3 350 349 327
3 184 228 229
3 233 232 214
3 346 370 240
3 209 235 234
3 374 344 346
3 236 232 223
3 238 371 344
3 232 236 211
3 371 370 372
3 366 361 330
3 192 221 217
3 359 378 376
3 377 212 211
3 358 365 376
3 210 209 219
3 365 329 331
3 231 197 199
3 360 366 375
3 377 222 224
3 369 373 285
3 379 394 380
3 117 119 80
3 383 393 390
3 391 411 392
3 394 401 395
3 396 406 386
3 94 75 91
3 395 421 399
3 386 388 385
3 94 81 155
3 401 430 402
3 131 133 408
3 110 441 410
3 148 158 392
3 411 416 149
3 414 109 108
3 124 123 60
3 418 114 150
3 148 150 122
3 420 440 414
3 415 117 79
3 392 158 59
3 85 87 36
3 132 397 103
3 401 403 421
3 423 431 429
3 430 435 145
3 432 437 426
3 433 131 400
3 426 428 425
3 435 412 108
3 435 439 413
3 433 438 152
3 440 420 102
3 397 152 154
3 383 385 78
3 423 425 399
3 442 451 443
3 442 449 445
3 251 456 264
3 447 449 442
3 246 352 351
3 447 444 265
3 248 284 289
3 448 453 449
3 354 353 263
3 450 456 251
3 264 456 357
3 451 457 452
3 445 449 453
3 454 443 448
3 452 457 446
3 455 290 312
3 448 447 267
3 450 261 357
3 448 443 451
3 316 256 255
3 451 442 446
3 246 251 253
3 265 444 443
3 356 262 245
3 241 275 273
