ply
format ascii 1.0
comment Created by Blender 2.77 (sub 0) - www.blender.org, source file: 'LightArmorer0-Colliders.blend'
element vertex 8
property float x
property float y
property float z
property float nx
property float ny
property float nz
element face 12
property list uchar uint vertex_indices
end_header
4.324608 0.078809 3.132916 0.717277 -0.630238 -0.297098
4.171870 2.994809 2.980178 -0.320353 0.546892 -0.773431
4.324608 2.994809 3.132915 0.717277 0.630238 -0.297098
4.171870 2.994809 6.220178 -0.717277 0.630238 0.297098
4.324608 2.994809 6.372916 0.320353 0.546892 0.773431
4.171870 0.078809 6.220179 -0.717277 -0.630238 0.297098
4.171870 0.078809 2.980178 -0.320353 -0.546892 -0.773431
4.324608 0.078809 6.372916 0.320353 -0.546892 0.773431
3 0 1 2
3 2 3 4
3 0 5 6
3 1 5 3
3 7 2 4
3 7 3 5
3 0 6 1
3 2 1 3
3 0 7 5
3 1 6 5
3 7 0 2
3 7 4 3
