ply
format ascii 1.0
comment Created by Blender 2.77 (sub 0) - www.blender.org, source file: 'LightArmorer0-Colliders.blend'
element vertex 20
property float x
property float y
property float z
property float nx
property float ny
property float nz
element face 36
property list uchar uint vertex_indices
end_header
2.547108 0.075158 -0.116084 0.000000 -0.643330 0.765557
2.361483 0.507158 -0.176834 -0.552293 0.618946 0.558428
2.361483 0.075158 -0.176834 -0.552293 -0.618946 0.558428
2.732733 0.507158 -0.176834 0.552293 0.618946 0.558428
2.547108 0.507158 -0.116084 0.000000 0.643330 0.765557
2.732733 0.075158 -0.176834 0.552293 -0.618946 0.558428
2.794608 0.507158 -0.359084 0.730461 0.672201 0.120609
2.299608 0.507158 -0.359084 -0.730461 0.672201 0.120609
2.299608 0.075158 -0.359084 -0.730461 -0.672201 0.120609
2.299608 0.507158 -0.890084 -0.730461 0.672201 -0.120609
2.732733 0.507158 -1.072335 0.552293 0.618946 -0.558428
2.794608 0.075157 -0.890084 0.730461 -0.672201 -0.120609
2.732733 0.075157 -1.072335 0.552293 -0.618946 -0.558428
2.299608 0.075157 -0.890084 -0.730461 -0.672201 -0.120609
2.794608 0.075158 -0.359084 0.730461 -0.672201 0.120609
2.794608 0.507158 -0.890084 0.730461 0.672201 -0.120609
2.547108 0.507158 -1.133084 0.000000 0.643330 -0.765557
2.547108 0.075157 -1.133084 0.000000 -0.643330 -0.765557
2.361483 0.075157 -1.072335 -0.552293 -0.618946 -0.558428
2.361483 0.507158 -1.072335 -0.552293 0.618946 -0.558428
3 0 1 2
3 0 3 4
3 5 6 3
3 2 7 8
3 9 8 7
3 10 11 12
3 8 13 14
3 7 15 9
3 16 12 17
3 15 14 11
3 9 18 13
3 19 17 18
3 0 4 1
3 0 5 3
3 5 14 6
3 2 1 7
3 9 13 8
3 10 15 11
3 17 12 11
3 11 14 13
3 5 0 14
3 2 8 0
3 13 18 17
3 17 11 13
3 0 8 14
3 10 16 15
3 19 9 16
3 7 1 4
3 4 3 6
3 6 15 7
3 16 9 15
3 7 4 6
3 16 10 12
3 15 6 14
3 9 19 18
3 19 16 17
