ply
format ascii 1.0
comment Created by Blender 2.77 (sub 0) - www.blender.org, source file: 'LightArmorer0-Colliders.blend'
element vertex 8
property float x
property float y
property float z
property float nx
property float ny
property float nz
element face 12
property list uchar uint vertex_indices
end_header
-0.265392 5.805114 0.972915 0.577349 0.577349 0.577349
-5.485392 5.805114 0.612915 -0.577349 0.577349 -0.577349
-5.485392 5.805114 0.972915 -0.577349 0.577349 0.577349
-0.265392 5.265114 0.612915 0.577349 -0.577349 -0.577349
-5.485392 5.265114 0.612915 -0.577349 -0.577349 -0.577349
-5.485392 5.265114 0.972915 -0.577349 -0.577349 0.577349
-0.265392 5.265114 0.972915 0.577349 -0.577349 0.577349
-0.265392 5.805114 0.612915 0.577349 0.577349 -0.577349
3 0 1 2
3 1 3 4
3 1 5 2
3 2 6 0
3 6 7 0
3 5 3 6
3 0 7 1
3 1 7 3
3 1 4 5
3 2 5 6
3 6 3 7
3 5 4 3
