ply
format ascii 1.0
comment Created by Blender 2.77 (sub 0) - www.blender.org, source file: 'LightArmorer0-Colliders.blend'
element vertex 11
property float x
property float y
property float z
property float nx
property float ny
property float nz
element face 18
property list uchar uint vertex_indices
end_header
-1.647320 4.994700 2.772916 0.726432 -0.166601 -0.666677
-2.120729 4.996743 2.772916 -0.726432 -0.163427 -0.667501
-1.647320 5.174700 2.772916 0.578478 0.575976 -0.577563
-1.647320 5.174700 3.042916 0.578478 0.575976 0.577563
-2.120729 5.176743 2.772916 -0.576189 0.578692 -0.577105
-2.120729 5.176743 3.042916 -0.576189 0.578692 0.577105
-1.647320 4.994700 3.042916 0.727165 -0.089602 0.680563
-2.120729 4.996743 3.042916 -0.726676 -0.086062 0.681539
-2.102955 4.922763 3.042916 -0.615192 -0.402142 0.678060
-1.885796 4.552218 2.772916 -0.003815 -0.951933 -0.306253
-1.665798 4.920877 3.042916 0.611438 -0.407514 0.678243
3 0 1 2
3 3 4 5
3 6 3 7
3 8 9 10
3 9 0 10
3 1 5 4
3 6 2 3
3 7 1 8
3 1 9 8
3 10 0 6
3 4 2 1
3 0 9 1
3 3 2 4
3 7 8 10
3 10 6 7
3 3 5 7
3 1 7 5
3 6 0 2
