ply
format ascii 1.0
comment Created by Blender 2.77 (sub 0) - www.blender.org, source file: 'LightArmorer0-Colliders.blend'
element vertex 8
property float x
property float y
property float z
property float nx
property float ny
property float nz
element face 12
property list uchar uint vertex_indices
end_header
5.201232 2.577646 4.572916 0.788232 0.220771 -0.574358
4.414608 2.693023 4.572916 -0.681387 -0.408155 -0.607501
4.414608 2.990901 4.572916 -0.429762 0.711509 -0.555895
4.414608 2.693463 4.932916 -0.681387 -0.407453 0.607959
5.201232 2.577646 4.932916 0.788232 0.220771 0.574358
4.414608 2.990694 4.932916 -0.429884 0.711142 0.556230
5.062171 2.346211 4.932916 0.216437 -0.785302 0.580004
5.062171 2.346211 4.572916 0.216498 -0.785302 -0.579974
3 0 1 2
3 3 4 5
3 1 6 3
3 0 5 4
3 4 7 0
3 2 3 5
3 0 7 1
3 3 6 4
3 1 7 6
3 0 2 5
3 4 6 7
3 2 1 3
