ply
format ascii 1.0
comment Created by Blender 2.77 (sub 0) - www.blender.org, source file: 'LightArmorer0-Colliders.blend'
element vertex 12
property float x
property float y
property float z
property float nx
property float ny
property float nz
element face 20
property list uchar uint vertex_indices
end_header
-4.635690 5.298809 0.612915 0.635823 0.722495 -0.271462
-4.761690 4.794808 0.036915 -0.621784 0.334971 -0.707907
-4.761690 5.298809 0.612915 -0.635823 0.722495 -0.271462
-4.815690 1.932808 -0.017084 -0.582232 -0.567431 -0.582232
-4.581689 1.932809 1.584916 0.582202 -0.568072 0.581622
-4.815690 1.932809 1.584916 -0.582202 -0.568072 0.581622
-4.635690 4.794808 0.036915 0.621784 0.334971 -0.707907
-4.581689 1.932808 -0.017084 0.582232 -0.567431 -0.582232
-4.761690 5.082809 1.530915 -0.596851 0.462325 0.655721
-4.761690 5.298809 0.972915 -0.667989 0.731468 0.136631
-4.635690 5.082809 1.530915 0.596851 0.462325 0.655721
-4.635690 5.298809 0.972915 0.667989 0.731468 0.136631
3 0 1 2
3 3 4 5
3 3 6 7
3 4 8 5
3 9 10 11
3 2 11 0
3 10 4 6
3 8 9 1
3 0 6 1
3 3 7 4
3 3 1 6
3 4 10 8
3 9 8 10
3 2 9 11
3 6 0 11
3 11 10 6
3 4 7 6
3 1 3 5
3 5 8 1
3 9 2 1
