ply
format ascii 1.0
comment Created by Blender 2.77 (sub 0) - www.blender.org, source file: 'LightArmorer0-Colliders.blend'
element vertex 8
property float x
property float y
property float z
property float nx
property float ny
property float nz
element face 12
property list uchar uint vertex_indices
end_header
1.075608 3.227865 13.113916 -0.507248 0.810907 0.291665
1.219608 3.155865 13.257916 0.361370 0.473922 0.802972
1.219608 2.993865 11.376917 0.585101 0.534501 -0.609821
1.075608 2.993865 11.376917 -0.584704 0.533952 -0.610706
1.219608 0.077864 11.376917 0.577349 -0.577349 -0.577349
1.075608 0.077865 13.113916 -0.717277 -0.630238 0.297098
1.219608 0.077865 13.257917 0.320353 -0.546892 0.773431
1.075608 0.077864 11.376917 -0.577349 -0.577349 -0.577349
3 0 1 2
3 0 2 3
3 4 3 2
3 3 5 0
3 6 2 1
3 1 5 6
3 5 4 6
3 4 7 3
3 3 7 5
3 6 4 2
3 1 0 5
3 5 7 4
