ply
format ascii 1.0
comment Created by Blender 2.77 (sub 0) - www.blender.org, source file: 'LightArmorer0-Colliders.blend'
element vertex 8
property float x
property float y
property float z
property float nx
property float ny
property float nz
element face 12
property list uchar uint vertex_indices
end_header
-1.885392 4.634642 7.182916 -0.970977 -0.236671 -0.033692
-1.665798 4.920878 13.752916 -0.172826 0.791131 0.586688
-1.665798 4.920877 3.042916 -0.277535 0.188147 -0.942076
1.714608 2.834642 7.182916 0.413465 -0.859127 -0.301492
1.714608 2.834643 13.752916 0.317637 -0.757866 0.569842
1.797495 3.090419 13.752916 0.750145 0.304483 0.586963
1.797495 3.090417 7.182916 0.912687 0.299661 -0.277810
-1.885392 4.634644 13.752916 -0.802026 -0.184698 0.567949
3 0 1 2
3 0 3 4
3 3 5 4
3 1 6 2
3 6 3 2
3 1 4 5
3 0 7 1
3 4 7 0
3 0 2 3
3 3 6 5
3 1 5 6
3 1 7 4
