ply
format ascii 1.0
comment Created by Blender 2.77 (sub 0) - www.blender.org, source file: 'LightArmorer0-Colliders.blend'
element vertex 8
property float x
property float y
property float z
property float nx
property float ny
property float nz
element face 12
property list uchar uint vertex_indices
end_header
-4.927393 3.467419 -1.439085 -0.577349 0.577349 -0.577349
-4.603393 -0.029192 -1.439084 0.577349 -0.577349 -0.577349
-4.927393 -0.029192 -1.439084 -0.577349 -0.577349 -0.577349
-4.603393 3.467419 -1.115085 0.577349 0.577349 0.577349
-4.927393 3.467419 -1.115085 -0.577349 0.577349 0.577349
-4.603393 -0.029192 -1.115084 0.577349 -0.577349 0.577349
-4.927393 -0.029192 -1.115084 -0.577349 -0.577349 0.577349
-4.603393 3.467419 -1.439085 0.577349 0.577349 -0.577349
3 0 1 2
3 3 0 4
3 5 4 6
3 6 0 2
3 5 2 1
3 5 7 3
3 0 7 1
3 3 7 0
3 5 3 4
3 6 4 0
3 5 6 2
3 5 1 7
