ply
format ascii 1.0
comment Created by Blender 2.77 (sub 0) - www.blender.org, source file: 'LightArmorer0-Colliders.blend'
element vertex 9
property float x
property float y
property float z
property float nx
property float ny
property float nz
element face 14
property list uchar uint vertex_indices
end_header
-5.485392 3.146212 6.974994 0.601428 0.440992 0.666158
-5.845392 5.687192 0.985538 -0.568011 0.701437 -0.430464
-5.845392 3.146212 6.974994 -0.601428 0.440992 0.666158
-5.845392 5.203035 0.960292 -0.599994 -0.428236 -0.675710
-5.485392 5.203035 0.960292 0.599414 -0.431806 -0.673940
-5.485392 5.625113 0.972915 0.685171 0.082247 -0.723685
-5.485392 5.687192 0.985538 0.567522 0.728599 -0.383465
-5.485392 2.651345 6.974994 0.559130 -0.691305 0.457656
-5.845392 2.651345 6.974994 -0.559130 -0.691305 0.457656
3 0 1 2
3 3 2 1
3 4 5 6
3 7 2 8
3 5 1 6
3 7 3 4
3 5 3 1
3 0 6 1
3 3 8 2
3 6 0 4
3 7 4 0
3 7 0 2
3 7 8 3
3 5 4 3
