ply
format ascii 1.0
comment Created by Blender 2.77 (sub 0) - www.blender.org, source file: 'LightArmorer0-Colliders.blend'
element vertex 25
property float x
property float y
property float z
property float nx
property float ny
property float nz
element face 46
property list uchar uint vertex_indices
end_header
-3.721392 1.684738 -4.418086 -0.698904 -0.053682 0.713157
-3.696541 1.522739 -4.436324 0.115513 -0.767449 0.630604
-3.379392 1.684738 -4.418086 0.677938 -0.409040 0.610767
-3.447413 1.836261 -5.241586 0.359233 0.931150 -0.062258
-3.461770 1.836261 -5.284656 0.180517 0.979980 -0.083865
-3.399540 1.856876 -4.611585 0.642750 0.765618 0.026002
-3.379392 1.738738 -5.822085 0.593371 0.508988 -0.623524
-3.379392 1.738738 -4.418086 0.675100 0.246315 0.695364
-3.436665 1.856876 -4.500211 0.381603 0.855800 0.349193
-3.548040 1.856876 -4.463086 0.000793 0.819483 0.573046
-3.379392 1.684738 -5.822085 0.678060 -0.408918 -0.610706
-3.642541 1.540739 -4.436324 0.316599 -0.766076 0.559343
-3.642541 1.540738 -5.804325 0.316019 -0.763878 -0.562670
-3.721392 1.738738 -4.418086 -0.675985 0.253365 0.691977
-3.721392 1.684738 -5.822085 -0.699240 -0.052675 -0.712912
-3.721392 1.738738 -5.822085 -0.591876 0.504990 -0.628163
-3.677467 1.836260 -5.356785 -0.436689 0.897427 -0.062502
-3.695466 1.836261 -5.180386 -0.705802 0.707785 -0.028718
-3.696540 1.856876 -4.611585 -0.627949 0.777764 0.026917
-3.663110 1.836260 -5.399855 -0.190741 0.972655 -0.132359
-3.576970 1.836260 -5.399855 0.047151 0.991699 -0.119480
-3.696541 1.522738 -5.804325 0.115574 -0.766503 -0.631733
-3.714540 1.522739 -4.436324 -0.569475 -0.617237 0.542833
-3.714540 1.522738 -5.804325 -0.569323 -0.616504 -0.543809
-3.659415 1.856876 -4.500211 -0.372173 0.861049 0.346446
3 0 1 2
3 3 4 5
3 6 5 7
3 5 8 7
3 8 9 7
3 10 11 12
3 13 2 7
3 6 14 15
3 16 17 18
3 17 15 18
3 16 19 15
3 17 16 15
3 9 5 18
3 1 11 2
3 0 13 14
3 20 4 6
3 4 3 6
3 3 5 6
3 19 16 18
3 11 21 12
3 21 22 23
3 7 9 13
3 12 21 10
3 9 24 13
3 20 15 19
3 24 18 13
3 18 15 13
3 7 10 6
3 14 21 23
3 0 22 1
3 10 2 11
3 13 0 2
3 6 10 14
3 4 20 19
3 19 18 4
3 24 9 18
3 8 5 9
3 4 18 5
3 14 23 22
3 22 0 14
3 13 15 14
3 11 1 21
3 21 1 22
3 20 6 15
3 7 2 10
3 14 10 21
