ply
format ascii 1.0
comment Created by Blender 2.77 (sub 0) - www.blender.org, source file: 'LightArmorer0-Colliders.blend'
element vertex 8
property float x
property float y
property float z
property float nx
property float ny
property float nz
element face 12
property list uchar uint vertex_indices
end_header
2.668608 0.573809 2.844916 -0.644948 0.566332 0.513077
3.316608 0.078809 2.844916 0.664632 -0.563250 0.490890
3.316608 0.573809 2.844916 0.664632 0.563250 0.490890
2.776608 0.573809 2.376915 -0.502548 0.590197 -0.631703
2.668608 0.078809 2.844916 -0.644948 -0.566332 0.513077
3.172608 0.078809 2.376915 0.477615 -0.594684 -0.646687
3.172608 0.573809 2.376915 0.477615 0.594684 -0.646687
2.776608 0.078809 2.376915 -0.502548 -0.590197 -0.631703
3 0 1 2
3 3 4 0
3 2 5 6
3 3 5 7
3 4 5 1
3 0 6 3
3 0 4 1
3 3 7 4
3 2 1 5
3 3 6 5
3 4 7 5
3 0 2 6
