ply
format ascii 1.0
comment Created by Blender 2.77 (sub 0) - www.blender.org, source file: 'LightArmorer0-Colliders.blend'
element vertex 8
property float x
property float y
property float z
property float nx
property float ny
property float nz
element face 12
property list uchar uint vertex_indices
end_header
0.094608 3.285115 6.912915 0.601428 0.440992 0.666158
-0.265392 5.805114 0.972915 -0.559130 0.691305 -0.457656
-0.265392 3.285115 6.912915 -0.601428 0.440992 0.666158
0.094608 2.745115 6.912915 0.559130 -0.691305 0.457656
-0.265392 2.745115 6.912915 -0.559130 -0.691305 0.457656
0.094608 5.265114 0.972915 0.601428 -0.440992 -0.666158
0.094608 5.805114 0.972915 0.559130 0.691305 -0.457656
-0.265392 5.265114 0.972915 -0.601428 -0.440992 -0.666158
3 0 1 2
3 3 2 4
3 0 5 6
3 3 7 5
3 2 7 4
3 5 1 6
3 0 6 1
3 3 0 2
3 0 3 5
3 3 4 7
3 2 1 7
3 5 7 1
