ply
format ascii 1.0
comment Created by Blender 2.77 (sub 0) - www.blender.org, source file: 'LightArmorer0-Colliders.blend'
element vertex 8
property float x
property float y
property float z
property float nx
property float ny
property float nz
element face 12
property list uchar uint vertex_indices
end_header
1.219608 3.155864 7.722916 0.361400 0.474227 -0.802789
1.075608 3.227864 7.866917 -0.506851 0.811365 -0.291086
1.219608 2.993864 9.576917 0.585253 0.533830 0.610279
1.075608 2.993864 9.576917 -0.584826 0.533250 0.611194
1.219608 0.077864 7.722917 0.320353 -0.546892 -0.773431
1.075608 0.077864 9.576917 -0.577349 -0.577349 0.577349
1.075608 0.077864 7.866917 -0.717277 -0.630238 -0.297098
1.219608 0.077864 9.576917 0.577349 -0.577349 0.577349
3 0 1 2
3 2 1 3
3 2 4 0
3 5 2 3
3 6 7 5
3 3 6 5
3 0 6 1
3 2 7 4
3 5 7 2
3 6 4 7
3 3 1 6
3 0 4 6
