ply
format ascii 1.0
comment Created by Blender 2.77 (sub 0) - www.blender.org, source file: 'LightArmorer0-Colliders.blend'
element vertex 12
property float x
property float y
property float z
property float nx
property float ny
property float nz
element face 20
property list uchar uint vertex_indices
end_header
-4.945392 0.330810 10.314917 -0.609027 0.401044 -0.684255
-4.189392 0.582810 10.764916 0.654439 0.731590 -0.190893
-4.189392 0.330810 10.314917 0.609027 0.401044 -0.684255
-4.945392 0.078810 10.314917 -0.577349 -0.577349 -0.577349
-4.189392 0.078810 12.006918 0.577349 -0.577349 0.577349
-4.945392 0.078810 12.006918 -0.577349 -0.577349 0.577349
-4.945392 0.582810 10.764916 -0.654439 0.731590 -0.190893
-4.189392 0.582810 11.844916 0.613483 0.693106 0.378399
-4.189392 0.330810 12.006918 0.648823 0.214423 0.730064
-4.945392 0.330810 12.006918 -0.648823 0.214423 0.730064
-4.945392 0.582810 11.844916 -0.613483 0.693106 0.378399
-4.189392 0.078810 10.314917 0.577349 -0.577349 -0.577349
3 0 1 2
3 3 4 5
3 6 7 1
3 5 8 9
3 3 5 6
3 4 1 7
3 2 3 0
3 10 8 7
3 0 6 1
3 3 11 4
3 6 10 7
3 5 4 8
3 10 6 5
3 0 3 6
3 5 9 10
3 7 8 4
3 4 11 1
3 2 1 11
3 2 11 3
3 10 9 8
