ply
format ascii 1.0
comment Created by Blender 2.77 (sub 0) - www.blender.org, source file: 'LightArmorer0-Colliders.blend'
element vertex 8
property float x
property float y
property float z
property float nx
property float ny
property float nz
element face 12
property list uchar uint vertex_indices
end_header
-0.265392 2.745115 6.912915 0.559130 -0.691305 0.457656
-5.485392 5.265114 0.972915 -0.601428 -0.440992 -0.666158
-0.265392 5.265114 0.972915 0.601428 -0.440992 -0.666158
-5.485392 5.625113 0.972915 -0.559130 0.691305 -0.457656
-0.265392 3.105115 6.912915 0.601428 0.440992 0.666158
-0.265392 5.625113 0.972915 0.559130 0.691305 -0.457656
-5.485392 2.745115 6.912915 -0.559130 -0.691305 0.457656
-5.485392 3.105115 6.912915 -0.601428 0.440992 0.666158
3 0 1 2
3 3 4 5
3 4 6 0
3 7 1 6
3 2 4 0
3 3 2 1
3 0 6 1
3 3 7 4
3 4 7 6
3 7 3 1
3 2 5 4
3 3 5 2
