ply
format ascii 1.0
comment Created by Blender 2.77 (sub 0) - www.blender.org, source file: 'LightArmorer0-Colliders.blend'
element vertex 16
property float x
property float y
property float z
property float nx
property float ny
property float nz
element face 28
property list uchar uint vertex_indices
end_header
4.450607 -0.029191 6.372916 0.682058 -0.610675 0.402264
4.558608 0.078808 -1.277084 0.733421 0.667653 -0.127628
4.450607 0.078809 6.372916 0.682058 0.610675 0.402264
-4.585392 -0.029191 6.444916 -0.351238 -0.618915 0.702506
-4.639392 0.078809 6.372916 -0.722495 0.644429 0.250313
-4.639392 -0.029191 6.372916 -0.722495 -0.644429 0.250282
4.324608 -0.029191 6.444916 0.194220 -0.653615 0.731437
-4.585392 0.078809 6.444916 -0.351238 0.618915 0.702506
4.324608 0.078809 6.444916 0.194220 0.653615 0.731437
-4.765392 0.078808 -1.331084 -0.300333 0.631062 -0.715232
-4.819392 -0.029192 -1.277084 -0.722160 -0.628315 -0.289224
-4.819392 0.078808 -1.277084 -0.722160 0.628315 -0.289224
-4.765392 -0.029192 -1.331084 -0.300333 -0.631062 -0.715201
4.504608 -0.029192 -1.421084 0.453322 -0.597949 -0.661000
4.504608 0.078808 -1.421084 0.453322 0.597949 -0.661000
4.558608 -0.029192 -1.277084 0.733421 -0.667653 -0.127628
3 0 1 2
3 3 4 5
3 6 7 3
3 8 1 9
3 10 4 11
3 6 2 8
3 10 9 12
3 6 5 12
3 13 9 14
3 15 14 1
3 0 15 1
3 3 7 4
3 6 8 7
3 9 11 4
3 4 7 8
3 8 2 1
3 1 14 9
3 9 4 8
3 10 5 4
3 6 0 2
3 10 11 9
3 12 13 15
3 15 0 6
3 6 3 5
3 5 10 12
3 12 15 6
3 13 12 9
3 15 13 14
