ply
format ascii 1.0
comment Created by Blender 2.77 (sub 0) - www.blender.org, source file: 'LightArmorer0-Colliders.blend'
element vertex 8
property float x
property float y
property float z
property float nx
property float ny
property float nz
element face 12
property list uchar uint vertex_indices
end_header
-1.453392 0.573808 1.206916 0.644948 0.566332 -0.513077
-1.561392 0.078808 1.674916 0.502548 -0.590197 0.631703
-1.453392 0.078808 1.206916 0.644948 -0.566332 -0.513077
-1.957392 0.573808 1.674916 -0.477615 0.594684 0.646687
-1.561392 0.573808 1.674916 0.502548 0.590197 0.631703
-1.957392 0.078808 1.674916 -0.477615 -0.594684 0.646687
-2.101393 0.573808 1.206916 -0.664632 0.563250 -0.490890
-2.101393 0.078808 1.206916 -0.664632 -0.563250 -0.490890
3 0 1 2
3 0 3 4
3 5 2 1
3 6 2 7
3 6 5 3
3 1 3 5
3 0 4 1
3 0 6 3
3 5 7 2
3 6 0 2
3 6 7 5
3 1 4 3
