ply
format ascii 1.0
comment Created by Blender 2.77 (sub 0) - www.blender.org, source file: 'LightArmorer0-Colliders.blend'
element vertex 12
property float x
property float y
property float z
property float nx
property float ny
property float nz
element face 20
property list uchar uint vertex_indices
end_header
2.074608 0.670275 0.612916 -0.626148 0.511246 -0.588672
2.074608 0.608009 1.206916 -0.729972 -0.114994 0.673696
2.074608 0.670275 1.206916 -0.626148 0.511246 0.588672
2.398608 0.736408 0.612916 -0.047884 0.733665 -0.677786
2.398608 0.736409 1.206916 -0.047884 0.733665 0.677786
2.245608 0.078809 1.206916 -0.472671 -0.649464 0.595569
4.126608 0.613609 0.612916 0.726890 0.399853 -0.558306
3.838609 0.078809 1.206916 0.407147 -0.681692 0.607868
3.838609 0.078808 0.612916 0.407147 -0.681692 -0.607868
2.074608 0.608008 0.612916 -0.729972 -0.114994 -0.673696
2.245608 0.078808 0.612916 -0.472671 -0.649464 -0.595569
4.126608 0.613609 1.206916 0.726890 0.399853 0.558306
3 0 1 2
3 3 2 4
3 4 1 5
3 6 7 8
3 9 3 10
3 5 8 7
3 11 3 4
3 9 5 1
3 0 9 1
3 3 0 2
3 5 7 4
3 11 4 7
3 2 1 4
3 6 11 7
3 8 10 3
3 9 0 3
3 3 6 8
3 5 10 8
3 11 6 3
3 9 10 5
