ply
format ascii 1.0
comment Created by Blender 2.77 (sub 0) - www.blender.org, source file: 'LightArmorer0-Colliders.blend'
element vertex 8
property float x
property float y
property float z
property float nx
property float ny
property float nz
element face 12
property list uchar uint vertex_indices
end_header
-3.739392 0.457183 -4.553084 -0.577349 0.577349 0.577349
-3.217392 0.079183 -4.553084 0.577349 -0.577349 0.577349
-3.217392 0.457183 -4.553084 0.577349 0.577349 0.577349
-3.739392 0.457183 -5.633085 -0.577349 0.577349 -0.577349
-3.217392 0.457183 -5.633085 0.577349 0.577349 -0.577349
-3.217392 0.079183 -5.633084 0.577349 -0.577349 -0.577349
-3.739392 0.079183 -5.633084 -0.577349 -0.577349 -0.577349
-3.739392 0.079183 -4.553084 -0.577349 -0.577349 0.577349
3 0 1 2
3 3 2 4
3 4 1 5
3 3 5 6
3 6 1 7
3 7 3 6
3 0 7 1
3 3 0 2
3 4 2 1
3 3 4 5
3 6 5 1
3 7 0 3
