ply
format ascii 1.0
comment Created by Blender 2.77 (sub 0) - www.blender.org, source file: 'LightArmorer0-Colliders.blend'
element vertex 8
property float x
property float y
property float z
property float nx
property float ny
property float nz
element face 12
property list uchar uint vertex_indices
end_header
-0.265392 5.445112 -7.397085 -0.577349 0.577349 -0.577349
0.094608 5.445113 -1.817085 0.577349 0.577349 0.577349
0.094608 5.445112 -7.397085 0.577349 0.577349 -0.577349
0.094608 4.905113 -1.817085 0.577349 -0.577349 0.577349
-0.265392 5.445113 -1.817085 -0.577349 0.577349 0.577349
-0.265392 4.905113 -1.817085 -0.577349 -0.577349 0.577349
-0.265392 4.905112 -7.397085 -0.577349 -0.577349 -0.577349
0.094608 4.905112 -7.397085 0.577349 -0.577349 -0.577349
3 0 1 2
3 3 2 1
3 3 4 5
3 5 0 6
3 3 6 7
3 0 7 6
3 0 4 1
3 3 7 2
3 3 1 4
3 5 4 0
3 3 5 6
3 0 2 7
