ply
format ascii 1.0
comment Created by Blender 2.77 (sub 0) - www.blender.org, source file: 'LightArmorer0-Colliders.blend'
element vertex 12
property float x
property float y
property float z
property float nx
property float ny
property float nz
element face 20
property list uchar uint vertex_indices
end_header
-1.048392 1.176807 -7.010085 -0.580187 -0.592883 0.558428
-1.048392 2.310807 -7.118085 -0.652638 0.729484 -0.204688
-1.039392 1.770807 -7.838084 -0.688040 -0.058046 -0.723319
-1.021392 1.212807 -7.757084 -0.564684 -0.610431 -0.555376
-0.920784 1.176807 -7.010085 0.579363 -0.592486 0.559709
-1.048392 2.310807 -7.010085 -0.577349 0.577349 0.577349
-0.920784 2.310807 -7.010085 0.577349 0.577349 0.577349
-0.920784 2.310807 -7.118085 0.652638 0.729484 -0.204688
-0.929783 1.770807 -7.838084 0.687643 -0.055696 -0.723869
-1.039392 1.878807 -7.838084 -0.606677 0.389721 -0.692831
-0.929783 1.878807 -7.838084 0.606677 0.389721 -0.692831
-0.940392 1.212807 -7.757084 0.572649 -0.606006 -0.552080
3 0 1 2
3 3 4 0
3 5 4 6
3 7 4 8
3 9 7 10
3 1 6 7
3 3 8 11
3 8 9 10
3 2 3 0
3 0 5 1
3 1 9 2
3 3 11 4
3 5 0 4
3 11 8 4
3 10 7 8
3 6 4 7
3 9 1 7
3 1 5 6
3 3 2 8
3 8 2 9
