ply
format ascii 1.0
comment Created by Blender 2.77 (sub 0) - www.blender.org, source file: 'LightArmorer0-Colliders.blend'
element vertex 8
property float x
property float y
property float z
property float nx
property float ny
property float nz
element face 12
property list uchar uint vertex_indices
end_header
4.171870 2.994809 6.220178 0.299020 0.627583 -0.718802
-4.585392 3.039809 6.372916 -0.772485 0.548265 0.320353
4.324608 2.994809 6.372916 0.774377 0.545610 0.320353
-4.432655 0.078809 6.220179 -0.297098 -0.630238 -0.717277
-4.432655 3.039809 6.220178 -0.295083 0.632984 -0.715690
-4.585392 0.078809 6.372916 -0.773431 -0.546892 0.320353
4.171870 0.078809 6.220179 0.297098 -0.630238 -0.717277
4.324608 0.078809 6.372916 0.773431 -0.546892 0.320353
3 0 1 2
3 0 3 4
3 5 6 7
3 2 5 7
3 1 3 5
3 2 6 0
3 0 4 1
3 0 6 3
3 5 3 6
3 2 1 5
3 1 4 3
3 2 7 6
