ply
format ascii 1.0
comment Created by Blender 2.77 (sub 0) - www.blender.org, source file: 'LightArmorer0-Colliders.blend'
element vertex 8
property float x
property float y
property float z
property float nx
property float ny
property float nz
element face 12
property list uchar uint vertex_indices
end_header
-4.981392 0.077865 13.113916 0.717277 -0.630238 0.297098
-4.981392 3.245864 7.866917 0.534349 0.778466 -0.329295
-4.981392 3.245865 13.113916 0.534349 0.778466 0.329295
-5.125392 0.077865 13.257917 -0.320353 -0.546892 0.773431
-4.981392 0.077864 7.866917 0.717277 -0.630238 -0.297098
-5.125392 3.173865 13.257916 -0.359569 0.453932 0.815241
-5.125392 3.173864 7.722916 -0.359569 0.453932 -0.815241
-5.125392 0.077864 7.722917 -0.320353 -0.546892 -0.773431
3 0 1 2
3 3 4 0
3 5 1 6
3 3 6 7
3 6 4 7
3 5 0 2
3 0 4 1
3 3 7 4
3 5 2 1
3 3 5 6
3 6 1 4
3 5 3 0
