ply
format ascii 1.0
comment Created by Blender 2.77 (sub 0) - www.blender.org, source file: 'LightArmorer0-Colliders.blend'
element vertex 10
property float x
property float y
property float z
property float nx
property float ny
property float nz
element face 16
property list uchar uint vertex_indices
end_header
-2.803392 0.564810 12.042917 0.649312 0.212378 -0.730247
-4.963392 0.078810 12.042917 -0.577349 -0.577349 -0.577349
-4.963392 0.564810 12.042917 -0.649312 0.212378 -0.730247
-4.963392 1.428810 12.591918 -0.613086 0.692373 -0.380383
-2.803392 1.428811 13.194916 0.577349 0.577349 0.577349
-2.803392 1.428810 12.591918 0.613086 0.692373 -0.380383
-2.803392 0.078810 13.194916 0.577349 -0.577349 0.577349
-4.963392 0.078810 13.194916 -0.577349 -0.577349 0.577349
-4.963392 1.428811 13.194916 -0.577349 0.577349 0.577349
-2.803392 0.078810 12.042917 0.577349 -0.577349 -0.577349
3 0 1 2
3 3 4 5
3 3 0 2
3 5 4 6
3 2 1 7
3 8 6 4
3 7 9 6
3 0 9 1
3 3 8 4
3 3 5 0
3 6 9 0
3 0 5 6
3 7 8 3
3 3 2 7
3 8 7 6
3 7 1 9
