ply
format ascii 1.0
comment Created by Blender 2.77 (sub 0) - www.blender.org, source file: 'LightArmorer0-Colliders.blend'
element vertex 8
property float x
property float y
property float z
property float nx
property float ny
property float nz
element face 12
property list uchar uint vertex_indices
end_header
-1.569558 0.078809 5.455293 -0.490188 -0.566332 0.662526
-1.586365 0.573809 4.975285 -0.648915 0.590197 -0.480117
-1.586365 0.078809 4.975285 -0.648915 -0.590197 -0.480117
-1.569558 0.573809 5.455292 -0.490188 0.566332 0.662526
-1.203859 0.573809 4.872793 0.293954 0.594684 -0.748253
-0.943637 0.573809 5.287578 0.769036 0.563250 0.302133
-1.203859 0.078809 4.872793 0.293954 -0.594684 -0.748253
-0.943637 0.078809 5.287578 0.769036 -0.563250 0.302133
3 0 1 2
3 3 4 1
3 0 5 3
3 4 2 1
3 0 6 7
3 7 4 5
3 0 3 1
3 3 5 4
3 0 7 5
3 4 6 2
3 0 2 6
3 7 6 4
