ply
format ascii 1.0
comment Created by Blender 2.77 (sub 0) - www.blender.org, source file: 'LightArmorer0-Colliders.blend'
element vertex 8
property float x
property float y
property float z
property float nx
property float ny
property float nz
element face 12
property list uchar uint vertex_indices
end_header
2.794608 2.745113 -1.817085 0.361797 -0.752770 0.549913
2.794608 3.105113 -7.397085 0.706168 0.339396 -0.621357
2.794608 3.105114 -1.817085 0.706168 0.339396 0.621357
0.094608 5.265113 -1.817085 -0.361797 0.752770 0.549913
0.094608 5.265112 -7.397085 -0.361797 0.752770 -0.549913
0.094608 4.905113 -1.817085 -0.706168 -0.339396 0.621357
0.094608 4.905112 -7.397085 -0.706168 -0.339396 -0.621357
2.794608 2.745112 -7.397085 0.361797 -0.752770 -0.549913
3 0 1 2
3 3 1 4
3 2 5 0
3 6 1 7
3 6 0 5
3 4 5 3
3 0 7 1
3 3 2 1
3 2 3 5
3 6 4 1
3 6 7 0
3 4 6 5
