ply
format ascii 1.0
comment Created by Blender 2.77 (sub 0) - www.blender.org, source file: 'LightArmorer0-Colliders.blend'
element vertex 8
property float x
property float y
property float z
property float nx
property float ny
property float nz
element face 12
property list uchar uint vertex_indices
end_header
-2.605392 0.979183 -5.021085 -0.569597 0.534349 0.624500
-2.605392 0.511183 -5.613825 -0.585955 -0.615711 -0.526811
-2.605392 0.511183 -5.094345 -0.585955 -0.615711 0.526811
-2.515392 0.511183 -5.094345 0.585955 -0.615711 0.526811
-2.515392 0.979183 -5.021085 0.569597 0.534349 0.624500
-2.515392 0.511183 -5.613825 0.585955 -0.615711 -0.526811
-2.515392 0.979183 -5.687085 0.569597 0.534318 -0.624500
-2.605392 0.979183 -5.687085 -0.569597 0.534318 -0.624500
3 0 1 2
3 3 0 2
3 4 5 6
3 3 1 5
3 5 7 6
3 7 4 6
3 0 7 1
3 3 4 0
3 4 3 5
3 3 2 1
3 5 1 7
3 7 0 4
