ply
format ascii 1.0
comment Created by Blender 2.77 (sub 0) - www.blender.org, source file: 'LightArmorer0-Colliders.blend'
element vertex 12
property float x
property float y
property float z
property float nx
property float ny
property float nz
element face 20
property list uchar uint vertex_indices
end_header
-5.845392 5.203035 0.960292 -0.585498 -0.589068 0.556902
-5.485392 5.203035 0.639293 0.601459 -0.666250 -0.440809
-5.485392 5.203035 0.960292 0.588610 -0.625965 0.511490
-5.485392 5.687192 0.586537 0.700125 -0.022248 -0.713645
-5.845392 5.867192 0.586537 -0.577349 0.577349 -0.577349
-5.485392 5.867192 0.586537 0.577349 0.577349 -0.577349
-5.845392 5.867192 0.985538 -0.576983 0.569720 0.585192
-5.485392 5.265114 0.972915 0.683370 -0.078249 0.725822
-5.485392 5.867192 0.985538 0.576250 0.571795 0.583911
-5.845392 5.687192 0.586537 -0.699362 -0.029695 -0.714103
-5.485392 5.265114 0.612915 0.663900 -0.168859 -0.728477
-5.845392 5.203035 0.639293 -0.594501 -0.607776 -0.526414
3 0 1 2
3 3 4 5
3 6 7 8
3 6 9 0
3 2 7 0
3 8 4 6
3 8 7 3
3 10 9 3
3 1 11 10
3 0 11 1
3 3 9 4
3 6 0 7
3 11 0 9
3 6 4 9
3 8 5 4
3 10 3 7
3 5 8 3
3 7 2 1
3 1 10 7
3 10 11 9
