ply
format ascii 1.0
comment Created by Blender 2.77 (sub 0) - www.blender.org, source file: 'LightArmorer0-Colliders.blend'
element vertex 24
property float x
property float y
property float z
property float nx
property float ny
property float nz
element face 44
property list uchar uint vertex_indices
end_header
-3.541086 0.673183 -3.850779 -0.527207 0.666372 -0.527207
-3.667392 0.124183 -3.671084 -0.998230 0.059420 0.000000
-3.600984 0.673183 -3.671084 -0.726890 0.686728 0.000000
-3.181698 0.673183 -3.491391 0.527207 0.666372 0.527207
-3.361392 0.124183 -3.365085 0.000000 0.059420 0.998230
-3.131892 0.124183 -3.441585 0.705710 0.062624 0.705710
-3.541086 0.673183 -3.491391 -0.527207 0.666372 0.527207
-3.361392 0.673183 -3.431493 0.000000 0.686728 0.726890
-3.361392 0.079183 -3.365085 0.000000 -0.642354 0.766381
-3.590892 0.124183 -3.441585 -0.705710 0.062624 0.705710
-3.590892 0.079183 -3.441585 -0.555376 -0.618915 0.555376
-3.181698 0.673183 -3.850779 0.527207 0.666372 -0.527207
-3.055392 0.124183 -3.671084 0.998230 0.059420 0.000000
-3.131892 0.124183 -3.900585 0.705710 0.062624 -0.705710
-3.121800 0.673183 -3.671084 0.726890 0.686728 0.000000
-3.055392 0.079183 -3.671084 0.766381 -0.642354 0.000000
-3.131892 0.079183 -3.900585 0.555376 -0.618915 -0.555376
-3.361392 0.124183 -3.977085 0.000000 0.059420 -0.998230
-3.361392 0.673183 -3.910677 0.000000 0.686728 -0.726890
-3.667392 0.079183 -3.671084 -0.766381 -0.642354 0.000000
-3.361392 0.079183 -3.977085 0.000000 -0.642354 -0.766381
-3.590892 0.079183 -3.900585 -0.555376 -0.618915 -0.555376
-3.131892 0.079183 -3.441585 0.555376 -0.618915 0.555376
-3.590892 0.124183 -3.900585 -0.705710 0.062624 -0.705710
3 0 1 2
3 3 4 5
3 6 4 7
3 8 9 10
3 11 12 13
3 3 12 14
3 15 13 12
3 16 17 13
3 11 17 18
3 6 1 9
3 8 19 20
3 21 17 20
3 14 18 7
3 22 12 5
3 17 0 18
3 8 5 4
3 10 1 19
3 19 23 21
3 0 23 1
3 3 7 4
3 6 9 4
3 8 4 9
3 11 14 12
3 3 5 12
3 15 16 13
3 16 20 17
3 11 13 17
3 6 2 1
3 21 20 19
3 16 15 20
3 22 8 15
3 10 19 8
3 20 15 8
3 21 23 17
3 0 2 18
3 6 7 2
3 3 14 7
3 11 18 14
3 2 7 18
3 22 15 12
3 17 23 0
3 8 22 5
3 10 9 1
3 19 1 23
