ply
format ascii 1.0
comment Created by Blender 2.77 (sub 0) - www.blender.org, source file: 'LightArmorer0-Colliders.blend'
element vertex 9
property float x
property float y
property float z
property float nx
property float ny
property float nz
element face 14
property list uchar uint vertex_indices
end_header
-5.845392 5.203035 0.639293 -0.627125 -0.261269 0.733757
-5.485392 2.591304 -1.879163 0.546434 -0.776605 -0.313425
-5.485392 5.203035 0.639293 0.626637 -0.268960 0.731407
-5.485392 5.687192 0.586537 0.559099 0.815271 0.150639
-5.485392 5.625113 0.612915 0.663900 0.168859 0.728477
-5.845392 3.130168 -1.879163 -0.631764 0.290109 -0.718802
-5.485392 3.130168 -1.879163 0.631764 0.290109 -0.718802
-5.845392 5.687192 0.586537 -0.567492 0.783715 0.252419
-5.845392 2.591304 -1.879163 -0.546434 -0.776605 -0.313425
3 0 1 2
3 3 4 2
3 1 5 6
3 4 0 2
3 5 0 7
3 3 5 7
3 4 3 7
3 0 8 1
3 2 1 6
3 6 3 2
3 1 8 5
3 4 7 0
3 5 8 0
3 3 6 5
