ply
format ascii 1.0
comment Created by Blender 2.77 (sub 0) - www.blender.org, source file: 'LightArmorer0-Colliders.blend'
element vertex 12
property float x
property float y
property float z
property float nx
property float ny
property float nz
element face 20
property list uchar uint vertex_indices
end_header
-2.749392 0.996810 13.158916 -0.727592 0.093020 0.679617
-2.515392 1.896810 12.060915 -0.493027 0.637593 -0.591906
-2.749392 0.996810 12.060915 -0.727592 0.093020 -0.679617
-2.749392 0.078810 12.060915 -0.577349 -0.577349 -0.577349
1.066608 0.078810 13.158916 0.577349 -0.577349 0.577349
-2.749392 0.078810 13.158916 -0.577349 -0.577349 0.577349
0.526608 1.896810 13.158916 0.389935 0.688711 0.611194
0.526608 1.896810 12.060915 0.389935 0.688711 -0.611194
1.066608 0.996810 12.060915 0.730979 0.202460 -0.651662
1.066608 0.078810 12.060915 0.577349 -0.577349 -0.577349
1.066608 0.996810 13.158916 0.730979 0.202460 0.651662
-2.515392 1.896810 13.158916 -0.493027 0.637593 0.591906
3 0 1 2
3 3 4 5
3 1 6 7
3 8 4 9
3 7 10 8
3 2 7 3
3 0 5 6
3 2 5 0
3 0 11 1
3 3 9 4
3 1 11 6
3 8 10 4
3 7 6 10
3 9 3 7
3 2 1 7
3 7 8 9
3 10 6 4
3 11 0 6
3 5 4 6
3 2 3 5
