ply
format ascii 1.0
comment Created by Blender 2.77 (sub 0) - www.blender.org, source file: 'LightArmorer0-Colliders.blend'
element vertex 8
property float x
property float y
property float z
property float nx
property float ny
property float nz
element face 12
property list uchar uint vertex_indices
end_header
4.864608 3.285114 0.612915 -0.577349 0.577349 -0.577349
5.008609 2.745114 0.612916 0.577349 -0.577349 -0.577349
4.864608 2.745114 0.612916 -0.577349 -0.577349 -0.577349
5.008609 2.745114 0.972916 0.577349 -0.577349 0.577349
4.864608 2.745114 0.972916 -0.577349 -0.577349 0.577349
4.864608 3.285114 0.972915 -0.577349 0.577349 0.577349
5.008609 3.285114 0.972915 0.577349 0.577349 0.577349
5.008609 3.285114 0.612915 0.577349 0.577349 -0.577349
3 0 1 2
3 2 3 4
3 0 4 5
3 5 3 6
3 0 6 7
3 3 7 6
3 0 7 1
3 2 1 3
3 0 2 4
3 5 4 3
3 0 5 6
3 3 1 7
