ply
format ascii 1.0
comment Created by Blender 2.77 (sub 0) - www.blender.org, source file: 'LightArmorer0-Colliders.blend'
element vertex 10
property float x
property float y
property float z
property float nx
property float ny
property float nz
element face 16
property list uchar uint vertex_indices
end_header
-4.981392 0.077865 13.113916 -0.297098 -0.630238 -0.717277
1.219608 0.077865 13.257917 0.773431 -0.546892 0.320353
-5.125392 0.077865 13.257917 -0.773431 -0.546892 0.320353
1.219608 3.155865 13.257916 0.871822 0.337474 0.354961
1.075608 0.077865 13.113916 0.297098 -0.630238 -0.717277
1.075608 3.227865 13.113916 0.475204 0.521073 -0.708945
-1.867393 4.721865 13.113916 0.010620 0.784448 -0.620075
-1.867393 4.721865 13.257916 0.010620 0.784448 0.620075
-4.981392 3.245865 13.113916 -0.470626 0.537980 -0.699301
-5.125392 3.173865 13.257916 -0.869167 0.344249 0.354991
3 0 1 2
3 3 4 5
3 6 5 4
3 5 7 3
3 7 8 9
3 0 9 8
3 7 2 1
3 0 4 1
3 3 1 4
3 4 0 6
3 8 6 0
3 5 6 7
3 7 6 8
3 0 2 9
3 1 3 7
3 7 9 2
