ply
format ascii 1.0
comment Created by Blender 2.77 (sub 0) - www.blender.org, source file: 'LightArmorer0-Colliders.blend'
element vertex 14
property float x
property float y
property float z
property float nx
property float ny
property float nz
element face 24
property list uchar uint vertex_indices
end_header
-3.379392 1.234739 -4.418085 0.577349 0.577349 0.577349
-3.721392 1.234738 -5.822084 -0.577349 0.577349 -0.577349
-3.721392 1.234739 -4.418085 -0.577349 0.577349 0.577349
-3.721392 1.180739 -4.418085 -0.698904 -0.053682 0.713157
-3.696541 1.018738 -4.436324 0.115513 -0.767449 0.630604
-3.379392 1.180739 -4.418085 0.677938 -0.409040 0.610767
-3.379392 1.234738 -5.822084 0.577349 0.577349 -0.577349
-3.721392 1.180738 -5.822084 -0.699240 -0.052675 -0.712912
-3.379392 1.180738 -5.822084 0.678060 -0.408918 -0.610706
-3.714540 1.018738 -4.436324 -0.569475 -0.617237 0.542833
-3.696541 1.018738 -5.804325 0.115574 -0.766503 -0.631733
-3.642541 1.036738 -4.436324 0.316630 -0.766045 0.559343
-3.642541 1.036738 -5.804325 0.316019 -0.763848 -0.562670
-3.714540 1.018738 -5.804325 -0.569323 -0.616504 -0.543809
3 0 1 2
3 3 4 5
3 6 7 1
3 0 8 6
3 2 7 3
3 9 10 4
3 8 11 12
3 7 10 13
3 12 10 8
3 11 10 12
3 4 11 5
3 2 5 0
3 0 6 1
3 3 9 4
3 6 8 7
3 0 5 8
3 9 3 7
3 2 1 7
3 7 13 9
3 9 13 10
3 8 5 11
3 7 8 10
3 11 4 10
3 2 3 5
