ply
format ascii 1.0
comment Created by Blender 2.77 (sub 0) - www.blender.org, source file: 'Birch2.blend'
element vertex 173
property float x
property float y
property float z
property float nx
property float ny
property float nz
element face 346
property list uchar uint vertex_indices
end_header
-0.255872 3.851627 -0.535742 -0.744987 -0.235084 -0.624226
-0.170110 3.344895 -0.357495 -0.412397 -0.698996 -0.584185
-0.451739 3.435169 -0.074992 -0.868618 -0.443403 -0.221076
0.541970 4.024367 -0.042039 0.991058 -0.007172 0.133183
0.389024 4.484629 -0.446171 0.870632 0.261635 -0.416547
0.421733 4.716866 -0.018778 0.842830 0.481216 0.240822
0.196027 3.986693 -0.694179 0.331339 -0.157994 -0.930174
0.395917 3.610927 -0.440856 0.748955 -0.411908 -0.518967
0.016470 3.513453 -0.525882 -0.039338 -0.514542 -0.856533
0.427205 4.036418 -0.520020 0.843165 -0.025788 -0.537004
0.171852 4.448440 -0.718821 0.329569 0.185827 -0.925626
-0.088175 4.867275 -0.560092 -0.264809 0.756066 -0.598498
-0.333821 4.681022 -0.583434 -0.607196 0.434462 -0.665212
-0.214382 4.801727 -0.376828 -0.626911 0.776025 -0.068972
-0.063543 3.908992 -0.704491 -0.255654 -0.233131 -0.938231
-0.073365 4.408530 -0.690056 -0.206366 0.093295 -0.973998
0.188147 4.929060 -0.156573 0.284433 0.945982 0.155522
-0.108299 4.914017 -0.138838 -0.369884 0.893155 0.255806
0.220273 4.776030 0.108016 0.238533 0.723563 0.647694
0.294510 4.840181 -0.220825 0.745537 0.640614 -0.183660
0.035180 2.378005 0.250320 0.664693 -0.234474 -0.709342
0.132299 2.603117 0.644309 0.971496 0.110691 -0.209510
0.122650 2.289654 0.458063 0.876614 -0.406659 -0.257118
-0.638715 2.923532 0.597593 -0.953734 0.079989 -0.289743
-0.469420 2.992449 0.426332 -0.500931 0.500839 -0.705832
-0.319294 2.793133 0.184175 -0.270241 0.314005 -0.910123
-0.150101 2.194406 0.358187 0.096194 -0.810114 -0.578265
-0.089019 2.094325 0.507262 0.241249 -0.954436 -0.175481
-0.356484 2.157670 0.572890 -0.291757 -0.952422 -0.087863
-0.550063 2.232338 0.651661 -0.805200 -0.592669 -0.019745
-0.434240 2.234073 0.354808 -0.582080 -0.592242 -0.557115
0.137589 3.278872 0.256095 0.475051 -0.850917 0.224189
-0.191779 3.234663 0.491395 -0.338847 -0.836665 0.430250
-0.008835 3.208552 0.290827 0.199042 -0.953368 0.226753
-0.306715 3.368603 0.814761 0.053255 0.985687 -0.159917
0.030460 3.128455 0.570122 0.672109 0.588946 -0.448744
-0.256871 3.106334 0.457893 -0.037263 0.707907 -0.705313
-0.107161 2.866616 0.276987 0.406415 0.445265 -0.797815
0.050307 2.813873 0.452621 0.878353 0.200018 -0.434126
-0.295832 2.654214 1.214641 0.128666 -0.084658 0.988037
-0.430768 2.255934 1.064299 -0.403241 -0.671560 0.621570
-0.068123 2.380826 1.074010 0.541581 -0.426771 0.724235
-0.603405 3.143169 1.065063 -0.812281 0.203253 0.546648
-0.326788 3.231818 1.177292 0.050691 0.538194 0.841273
-0.129937 3.263056 0.965033 0.495712 0.772118 0.397534
0.049819 2.975391 1.025022 0.742241 0.160833 0.650533
0.062975 3.173778 0.832329 0.801233 0.588916 0.105686
-0.192364 2.377723 0.159464 -0.024903 -0.300027 -0.953581
-0.546666 3.314744 0.955859 -0.558824 0.803583 0.204779
-0.596477 3.216530 0.737483 -0.743797 0.577746 -0.336039
-0.226591 2.141973 0.763134 0.070620 -0.953215 0.293893
0.209086 3.214178 -0.229970 0.411573 -0.861568 -0.297098
-0.489981 2.602201 1.162747 -0.665487 -0.155705 0.729972
-0.497655 4.571981 -0.377584 -0.924833 0.302744 -0.230232
0.159622 2.654636 0.845338 0.953032 -0.049562 0.298715
0.069700 2.249655 0.627650 0.746788 -0.610096 0.264657
0.121666 4.897589 -0.532402 0.328593 0.772240 -0.543718
-0.260902 3.493543 0.652607 -0.494766 -0.348186 0.796197
-0.140326 4.115017 0.728619 -0.172277 0.343730 0.923093
-0.494613 3.997861 0.475178 -0.881497 0.070650 0.466811
0.168458 3.384126 0.622678 0.518571 -0.522202 0.677023
0.393340 3.572004 0.209440 0.916898 -0.315012 0.244942
-0.232667 3.254460 0.122491 -0.421064 -0.904111 -0.072481
-0.435442 3.650527 0.435435 -0.907651 -0.286050 0.307077
0.095034 3.815042 0.729055 0.441237 0.004425 0.897366
-0.403537 4.621243 -0.131685 -0.737144 0.620136 0.268319
-0.513745 4.024279 0.266330 -0.999847 -0.008759 -0.013153
-0.472307 4.237752 0.297561 -0.842128 0.425367 0.331400
-0.326406 4.169005 0.582505 -0.554521 0.465224 0.689932
0.063151 4.186313 0.628946 0.470321 0.423261 0.774346
0.221961 3.809050 0.517865 0.859951 0.036134 0.509049
-0.000000 -0.072028 0.000000 0.000000 -0.999969 0.000000
-0.077840 -0.067542 0.042150 -0.137028 -0.987762 0.074221
-0.082415 -0.069505 -0.024513 -0.189917 -0.980163 -0.056459
0.042149 -0.067542 0.077841 0.074190 -0.987762 0.137059
-0.024514 -0.069504 0.082415 -0.056490 -0.980132 0.189947
0.077841 -0.067544 -0.042149 0.136998 -0.987762 -0.074160
0.082415 -0.069505 0.024514 0.189917 -0.980163 0.056490
-0.042150 -0.067544 -0.077840 -0.074190 -0.987762 -0.136967
0.024514 -0.069506 -0.082414 0.056459 -0.980163 -0.189856
-0.031276 -0.061935 0.105149 -0.233589 -0.556566 0.797266
0.055403 -0.061935 0.102318 0.404492 -0.553484 0.728019
-0.105148 -0.061938 -0.031275 -0.797021 -0.556047 -0.235633
-0.102317 -0.061935 0.055405 -0.725608 -0.567034 0.389752
0.031275 -0.061941 -0.105147 0.242042 -0.550035 -0.799249
-0.055406 -0.061940 -0.102317 -0.391186 -0.565447 -0.726066
0.105148 -0.061938 0.031277 0.810022 -0.535051 0.239875
0.102319 -0.061940 -0.055403 0.737999 -0.548845 -0.392499
-0.125740 1.955830 0.668851 0.514969 -0.258309 0.817347
-0.102189 1.930607 0.626023 0.958739 0.011536 0.284005
-0.123265 2.000592 0.667192 0.839686 0.053652 0.540391
-0.148299 2.012451 0.690340 0.296335 -0.144932 0.943999
-0.170489 1.992490 0.682995 -0.282785 -0.343913 0.895383
-0.173039 1.937051 0.649931 -0.600879 -0.485672 0.634846
-0.148045 1.932418 0.660949 -0.090762 -0.536393 0.839045
-0.162378 1.509280 0.173839 -0.974792 -0.172918 -0.140843
-0.120841 1.475560 0.094432 -0.965453 0.260414 -0.004639
-0.125591 1.440150 0.091292 -0.990905 -0.131748 -0.026856
-0.147580 1.481675 0.177832 -0.687796 -0.652669 0.317667
-0.178709 2.163978 0.704389 0.685598 0.101993 0.720786
-0.189031 2.143192 0.712823 0.188208 -0.083163 0.978576
-0.173725 2.148329 0.701744 0.691061 0.099094 0.715934
-0.230774 2.295592 0.731242 0.031709 0.509476 0.859890
-0.210510 2.132764 0.705833 -0.431562 -0.237251 0.870296
-0.193158 1.996481 0.669867 -0.749840 -0.336497 0.569597
-0.251064 2.294395 0.724586 -0.496384 0.471877 0.728629
-0.228837 2.135317 0.690793 -0.835139 -0.261696 0.483749
0.057989 3.390199 0.240960 0.646626 0.758538 -0.080416
-0.044724 3.304870 -0.094104 0.556047 0.585284 -0.590106
0.043373 3.397734 0.241746 0.020753 0.997192 0.071505
0.055850 3.364949 0.294874 -0.175604 0.412214 0.893979
0.038584 3.391158 0.259253 -0.335307 0.817957 0.467391
-0.066729 2.977959 0.065420 -0.888699 -0.019776 0.458022
-0.070754 2.367114 0.027421 -0.830012 -0.357860 0.427747
0.042963 3.377790 0.281091 -0.409345 0.590594 0.695395
-0.048663 1.469632 0.138777 0.965026 0.247993 -0.084902
-0.039827 1.457296 0.124657 0.455092 0.044527 0.889309
-0.058448 1.487805 0.118758 0.597797 0.529191 0.602100
-0.042648 1.422500 0.122214 0.842524 -0.523240 -0.127750
-0.142697 2.050912 0.685279 0.736625 0.097781 0.669149
-0.109794 1.853631 -0.099832 -0.933042 0.035829 -0.357921
-0.099349 2.145518 -0.027671 -0.999207 0.038911 -0.003815
-0.097919 2.169244 -0.064427 -0.935392 0.137547 -0.325724
-0.085345 1.858142 -0.130063 -0.417188 0.046327 -0.907620
-0.045878 1.866622 -0.128365 0.329814 0.052126 -0.942595
-0.073794 2.175369 -0.094941 -0.440107 0.194586 -0.876583
-0.034399 2.184379 -0.093185 0.268532 0.151738 -0.951231
-0.014805 1.873883 -0.103516 0.678823 0.041536 -0.733085
0.069273 3.358421 0.295178 0.544084 0.202002 0.814325
-0.129950 3.283017 -0.054125 -0.900052 -0.008026 0.435621
-0.098459 2.168409 -0.025073 -0.991791 0.083926 0.096255
-0.070310 2.368390 -0.011999 -0.884915 -0.337931 -0.320414
-0.046273 2.374958 -0.042591 -0.341838 -0.261666 -0.902585
-0.006899 2.384114 -0.040818 0.392315 -0.276376 -0.877316
0.000202 2.203875 -0.069064 0.666066 0.085360 -0.740959
0.075255 3.363990 0.276581 0.879452 0.400006 0.257912
0.072070 3.376351 0.253653 0.838160 0.545335 0.007416
0.027309 2.385173 0.027125 0.892148 -0.348399 0.287515
-0.153843 1.651406 0.421579 -0.606494 -0.605609 0.515152
-0.167586 1.677131 0.417497 -0.912320 -0.317881 0.257973
0.028674 2.406975 -0.016898 0.879482 -0.170385 -0.444349
0.003070 2.398018 0.057336 0.405438 -0.296793 0.864559
-0.039353 2.373834 0.052131 -0.261971 -0.394086 0.880917
0.060723 3.181521 0.055685 0.954192 0.142430 -0.263009
-0.073885 3.300150 -0.116843 0.230903 0.525712 -0.818690
-0.138745 3.313404 -0.072045 -0.786370 0.603320 -0.132664
0.062578 3.149333 0.073292 0.996185 -0.025117 -0.083346
0.051435 3.136158 0.014620 0.897671 0.045015 -0.438276
0.027771 2.612803 -0.020311 0.772332 -0.006500 -0.635151
-0.130696 3.285681 -0.090181 -0.878750 -0.022401 -0.476699
0.030403 0.619543 -0.102196 0.494827 0.008728 -0.868923
-0.139699 2.174974 0.566268 0.288186 0.639760 -0.712455
-0.091956 1.492669 0.106135 -0.341899 0.918973 0.196356
-0.162726 2.176548 0.560865 0.105319 0.631825 -0.767907
0.076340 0.624292 -0.068517 0.833277 0.024506 -0.552293
-0.110679 1.854395 -0.060717 -0.999298 0.035859 -0.010743
-0.115522 1.640669 -0.080299 -0.967437 -0.000366 -0.253059
-0.109929 3.292371 -0.118511 -0.393139 0.332347 -0.857295
-0.124699 1.648140 0.432193 -0.080355 -0.729331 0.679373
-0.108900 1.409028 0.096494 -0.263588 -0.804926 -0.531541
-0.265102 2.295571 0.708479 -0.822565 0.481491 0.302499
-0.260490 2.299100 0.690922 -0.680685 0.692740 -0.238136
-0.158611 1.540745 0.176844 -0.841639 0.211829 -0.496719
-0.244914 2.302649 0.680747 -0.247169 0.863826 -0.438948
-0.175331 2.183238 0.566146 -0.173711 0.608448 -0.774316
-0.073462 1.404778 0.109814 0.271706 -0.899899 -0.341075
-0.103287 1.903906 0.625030 0.736930 -0.349803 0.578387
-0.099681 1.663032 0.441965 0.552110 -0.545671 0.630390
-0.120412 2.177474 0.578226 0.699057 0.537828 -0.471175
-0.119024 2.183003 0.592612 0.886227 0.462874 0.018372
-0.213453 2.302747 0.702276 0.474227 0.877560 0.070498
-0.216631 2.299179 0.720450 0.483077 0.696402 0.530656
-0.226058 2.303884 0.686786 0.164464 0.950713 -0.262764
3 0 1 2
3 3 4 5
3 6 7 8
3 9 10 4
3 11 12 13
3 8 0 14
3 14 6 8
3 15 6 14
3 16 17 18
3 5 4 19
3 20 21 22
3 23 24 25
3 26 22 27
3 28 29 30
3 31 32 33
3 34 35 36
3 37 38 20
3 39 40 41
3 42 39 43
3 44 45 46
3 30 25 47
3 44 46 34
3 26 30 47
3 48 34 49
3 48 49 42
3 50 40 29
3 34 43 44
3 47 20 26
3 37 24 36
3 3 9 4
3 8 51 1
3 51 8 7
3 23 52 42
3 41 40 50
3 53 13 12
3 23 30 29
3 46 45 54
3 54 41 55
3 56 16 19
3 37 47 25
3 5 19 16
3 5 16 18
3 43 45 44
3 39 54 45
3 49 24 23
3 42 49 23
3 35 37 36
3 0 12 14
3 48 42 43
3 54 35 46
3 57 58 59
3 31 51 60
3 51 61 60
3 61 7 3
3 31 33 51
3 3 7 9
3 33 32 62
3 57 63 32
3 57 60 64
3 65 13 53
3 66 59 53
3 59 67 53
3 67 65 53
3 55 27 22
3 49 36 24
3 65 67 17
3 67 68 17
3 4 56 19
3 50 28 27
3 18 69 5
3 69 64 5
3 64 3 5
3 64 70 3
3 70 60 3
3 60 61 3
3 18 68 58
3 55 41 27
3 41 50 27
3 62 51 33
3 62 2 1
3 35 21 38
3 62 32 2
3 11 56 10
3 32 63 2
3 54 55 22
3 63 59 2
3 59 66 2
3 63 57 59
3 66 0 2
3 58 68 59
3 14 12 15
3 68 67 59
3 58 69 18
3 17 56 11
3 64 69 58
3 40 52 29
3 21 54 22
3 28 26 27
3 11 15 12
3 60 70 64
3 13 17 11
3 50 29 28
3 71 72 73
3 71 74 75
3 71 76 77
3 71 78 79
3 80 74 81
3 80 72 75
3 82 72 83
3 82 78 73
3 84 78 85
3 84 76 79
3 86 76 87
3 86 74 77
3 88 89 90
3 90 91 88
3 92 93 94
3 88 92 94
3 95 96 97
3 97 98 95
3 99 100 101
3 99 102 100
3 103 104 92
3 105 106 103
3 100 105 103
3 103 91 100
3 107 108 109
3 110 109 111
3 112 113 114
3 115 116 117
3 118 116 115
3 100 119 101
3 120 121 122
3 122 123 120
3 124 125 126
3 126 127 124
3 107 110 128
3 129 112 114
3 110 111 114
3 130 131 122
3 131 125 122
3 126 132 133
3 133 134 126
3 135 136 107
3 137 113 131
3 137 131 132
3 128 135 107
3 95 138 139
3 137 132 133
3 140 137 133
3 128 141 137
3 128 140 135
3 141 142 137
3 135 143 136
3 109 108 144
3 129 114 145
3 146 135 140
3 143 146 140
3 113 129 145
3 131 113 145
3 147 143 140
3 148 147 140
3 109 144 145
3 111 109 145
3 148 140 108
3 147 148 108
3 114 111 145
3 131 145 149
3 143 147 108
3 122 121 130
3 140 144 108
3 114 142 110
3 150 87 84
3 151 152 153
3 81 116 80
3 116 117 80
3 85 120 123
3 117 152 80
3 142 116 141
3 150 84 124
3 116 81 141
3 137 142 113
3 154 124 127
3 97 121 155
3 117 142 152
3 117 116 142
3 83 97 82
3 97 156 82
3 96 113 97
3 113 130 97
3 130 121 97
3 83 80 97
3 80 96 97
3 87 137 86
3 113 152 142
3 149 145 157
3 87 154 140
3 154 134 140
3 154 127 134
3 112 129 113
3 81 137 141
3 141 110 142
3 84 123 124
3 149 132 131
3 82 156 120
3 145 144 157
3 156 97 120
3 97 155 120
3 143 107 136
3 80 152 96
3 133 157 144
3 93 158 94
3 138 98 159
3 139 160 95
3 160 161 95
3 161 162 95
3 161 96 162
3 161 163 96
3 163 164 96
3 138 165 158
3 166 94 167
3 94 158 167
3 152 165 97
3 151 168 117
3 168 115 117
3 168 169 115
3 168 170 169
3 170 171 169
3 171 119 169
3 119 90 169
3 90 89 169
3 88 94 166
3 93 104 138
3 104 139 138
3 104 106 139
3 106 160 139
3 158 118 167
3 152 164 153
3 172 168 151
3 165 159 97
3 172 163 161
3 105 170 160
3 153 164 163
3 172 153 163
3 96 152 97
3 172 160 170
3 152 117 118
3 117 115 118
3 105 102 171
3 115 169 118
3 169 89 118
3 99 101 171
3 89 166 118
3 101 119 171
3 166 167 118
3 6 9 7
3 9 6 10
3 8 1 0
3 15 10 6
3 20 38 21
3 26 20 22
3 31 60 32
3 34 46 35
3 39 52 40
3 42 52 39
3 34 48 43
3 37 25 24
3 23 29 52
3 23 25 30
3 37 20 47
3 43 39 45
3 39 41 54
3 35 38 37
3 0 53 12
3 54 21 35
3 57 64 58
3 61 51 7
3 57 32 60
3 65 17 13
3 49 34 36
3 4 10 56
3 18 17 68
3 62 1 51
3 66 53 0
3 17 16 56
3 28 30 26
3 11 10 15
3 71 75 72
3 71 77 74
3 71 79 76
3 71 73 78
3 80 75 74
3 80 83 72
3 82 73 72
3 82 85 78
3 84 79 78
3 84 87 76
3 86 77 76
3 86 81 74
3 88 166 89
3 90 119 91
3 92 104 93
3 88 91 92
3 95 162 96
3 97 159 98
3 99 171 102
3 103 106 104
3 105 160 106
3 100 102 105
3 103 92 91
3 100 91 119
3 120 155 121
3 122 125 123
3 124 123 125
3 126 134 127
3 107 109 110
3 130 113 131
3 131 132 125
3 126 125 132
3 133 140 134
3 95 98 138
3 128 137 140
3 135 146 143
3 140 133 144
3 114 113 142
3 150 154 87
3 151 117 152
3 85 82 120
3 154 150 124
3 87 140 137
3 113 96 152
3 81 86 137
3 141 128 110
3 84 85 123
3 149 157 132
3 143 108 107
3 133 132 157
3 93 138 158
3 138 159 165
3 152 118 165
3 158 165 118
3 152 96 164
3 172 170 168
3 105 171 170
3 172 151 153
3 172 161 160
