ply
format ascii 1.0
comment Created by Blender 2.77 (sub 0) - www.blender.org, source file: ''
element vertex 684
property float x
property float y
property float z
property float nx
property float ny
property float nz
property uchar red
property uchar green
property uchar blue
element face 228
property list uchar uint vertex_indices
end_header
0.027031 2.592450 -0.908136 -0.762073 -0.076614 -0.642943 51 51 51
-0.228770 1.620190 -0.489083 -0.762073 -0.076614 -0.642943 51 51 51
-0.269110 2.761582 -0.577278 -0.762073 -0.076614 -0.642943 51 51 51
0.492479 1.719703 -0.787966 0.186369 -0.695895 -0.693539 51 51 51
-0.081347 1.488056 -0.709732 0.186369 -0.695895 -0.693539 51 51 51
-0.065824 1.804946 -1.023527 0.186369 -0.695895 -0.693539 51 51 51
-0.081347 1.488056 -0.709732 -0.992308 0.108188 0.060167 51 51 51
0.027031 2.592450 -0.908136 -0.992308 0.108188 0.060167 51 51 51
-0.065824 1.804946 -1.023527 -0.992308 0.108188 0.060167 51 51 51
0.027031 2.592450 -0.908136 -0.375030 0.645291 -0.665546 51 51 51
-0.269110 2.761582 -0.577278 -0.375030 0.645291 -0.665546 51 51 51
0.125370 3.037585 -0.531961 -0.375030 0.645291 -0.665546 50 50 50
0.402071 1.444872 -0.994698 0.535667 -0.297141 0.790423 51 51 51
0.072946 1.794556 -0.640196 0.535667 -0.297141 0.790423 51 51 51
0.062371 1.271736 -0.829571 0.535667 -0.297141 0.790423 51 51 51
0.492479 1.719703 -0.787966 0.856239 -0.032647 0.515547 51 51 51
0.474498 2.722810 -0.694580 0.856239 -0.032647 0.515547 51 51 51
0.251529 1.385090 -0.408978 0.856239 -0.032647 0.515547 51 51 51
0.011814 2.747750 -0.202655 0.522598 0.542515 0.657700 51 51 51
0.364075 2.397342 -0.193516 0.522598 0.542515 0.657700 51 51 51
0.125370 3.037585 -0.531961 0.522598 0.542515 0.657700 50 50 50
0.125370 3.037585 -0.531961 0.698165 0.520279 0.491808 50 50 50
0.364075 2.397342 -0.193516 0.698165 0.520279 0.491808 51 51 51
0.474498 2.722810 -0.694580 0.698165 0.520279 0.491808 51 51 51
-0.269110 2.761582 -0.577278 -0.949488 -0.009321 0.313666 51 51 51
-0.228770 1.620190 -0.489083 -0.949488 -0.009321 0.313666 51 51 51
-0.131369 1.925817 -0.185162 -0.949488 -0.009321 0.313666 51 51 51
-0.168991 1.664825 0.124898 -0.629544 0.033997 0.776221 51 51 51
0.157960 2.616320 0.348394 -0.629544 0.033997 0.776221 51 51 51
-0.236640 2.375798 0.038893 -0.629544 0.033997 0.776221 51 51 51
-0.287867 1.755148 -0.934002 -0.624468 -0.077127 0.777233 51 51 51
0.072946 1.794556 -0.640196 -0.624468 -0.077127 0.777233 51 51 51
-0.217022 2.270909 -0.825901 -0.624468 -0.077127 0.777233 51 51 51
0.402071 1.444872 -0.994698 0.966368 0.232181 0.110571 51 51 51
0.276265 2.091907 -1.253846 0.966368 0.232181 0.110571 51 51 51
0.178143 2.281077 -0.793502 0.966368 0.232181 0.110571 51 51 51
0.008113 1.127784 -0.184922 -0.344088 -0.296622 -0.890853 51 51 51
-0.289212 2.001439 -0.360978 -0.344088 -0.296622 -0.890853 51 51 51
0.433586 1.564192 -0.494568 -0.344088 -0.296622 -0.890853 51 51 51
0.171485 1.442713 0.894003 0.254478 -0.953208 -0.163202 51 51 51
0.469006 1.429464 1.435304 0.254478 -0.953208 -0.163202 51 51 51
0.079900 1.360953 1.228728 0.254478 -0.953208 -0.163202 51 51 51
-0.289212 2.001439 -0.360978 -0.947388 -0.319831 0.012835 51 51 51
0.008113 1.127784 -0.184922 -0.947388 -0.319831 0.012835 51 51 51
-0.168991 1.664825 0.124898 -0.947388 -0.319831 0.012835 51 51 51
-0.289212 2.001439 -0.360978 -0.978552 -0.069658 0.193866 51 51 51
-0.168991 1.664825 0.124898 -0.978552 -0.069658 0.193866 51 51 51
-0.236640 2.375798 0.038893 -0.978552 -0.069658 0.193866 51 51 51
-0.289212 2.001439 -0.360978 -0.227464 -0.079490 -0.970537 51 51 51
0.282426 2.698183 -0.552018 -0.227464 -0.079490 -0.970537 51 51 51
0.433586 1.564192 -0.494568 -0.227464 -0.079490 -0.970537 51 51 51
-0.168991 1.664825 0.124898 -0.435550 -0.553271 0.710061 51 51 51
0.008113 1.127784 -0.184922 -0.435550 -0.553271 0.710061 51 51 51
0.466949 1.397719 0.306857 -0.435550 -0.553271 0.710061 51 51 51
0.663537 2.319288 0.168835 0.898349 -0.128732 0.419997 51 51 51
0.466949 1.397719 0.306857 0.898349 -0.128732 0.419997 51 51 51
0.749548 1.696338 -0.206077 0.898349 -0.128732 0.419997 51 51 51
0.282426 2.698183 -0.552018 -0.762243 0.519500 -0.386142 51 51 51
-0.289212 2.001439 -0.360978 -0.762243 0.519500 -0.386142 51 51 51
-0.236640 2.375798 0.038893 -0.762243 0.519500 -0.386142 51 51 51
0.433586 1.564192 -0.494568 0.661858 0.050333 -0.747938 51 51 51
0.282426 2.698183 -0.552018 0.661858 0.050333 -0.747938 51 51 51
0.749548 1.696338 -0.206077 0.661858 0.050333 -0.747938 51 51 51
0.008113 1.127784 -0.184922 0.601207 -0.788779 -0.127977 51 51 51
0.749548 1.696338 -0.206077 0.601207 -0.788779 -0.127977 51 51 51
0.466949 1.397719 0.306857 0.601207 -0.788779 -0.127977 51 51 51
0.048927 2.912977 -0.356295 -0.093451 0.912375 0.398547 51 51 51
0.157960 2.616320 0.348394 -0.093451 0.912375 0.398547 51 51 51
0.513069 2.854330 -0.113206 -0.093451 0.912375 0.398547 51 51 51
0.282426 2.698183 -0.552018 0.349349 0.809597 -0.471707 51 51 51
0.048927 2.912977 -0.356295 0.349349 0.809597 -0.471707 51 51 51
0.513069 2.854330 -0.113206 0.349349 0.809597 -0.471707 51 51 51
0.513069 2.854330 -0.113206 0.832297 0.211076 -0.512570 51 51 51
0.749548 1.696338 -0.206077 0.832297 0.211076 -0.512570 51 51 51
0.282426 2.698183 -0.552018 0.832297 0.211076 -0.512570 51 51 51
0.517874 2.923705 1.317338 0.963842 0.143817 -0.224332 51 51 51
0.653063 1.672481 1.096027 0.963842 0.143817 -0.224332 51 51 51
0.429461 2.891214 0.916640 0.963842 0.143817 -0.224332 51 51 51
0.427458 2.076459 1.856483 -0.011571 -0.094376 0.995469 51 51 51
-0.105574 2.370125 1.878128 -0.011571 -0.094376 0.995469 51 51 51
0.084762 1.896157 1.835406 -0.011571 -0.094376 0.995469 51 51 51
0.429461 2.891214 0.916640 -0.015404 0.103310 -0.994530 51 51 51
0.458277 1.872811 0.810404 -0.015404 0.103310 -0.994530 51 51 51
-0.080637 2.094693 0.841800 -0.015404 0.103310 -0.994530 51 51 51
0.517874 2.923705 1.317338 0.590643 0.044292 0.805717 51 51 51
0.198668 1.758490 1.615392 0.590643 0.044292 0.805717 51 51 51
0.469006 1.429464 1.435304 0.590643 0.044292 0.805717 51 51 51
0.517874 2.923705 1.317338 0.876109 0.009401 0.482021 51 51 51
0.469006 1.429464 1.435304 0.876109 0.009401 0.482021 51 51 51
0.653063 1.672481 1.096027 0.876109 0.009401 0.482021 51 51 51
0.079900 1.360953 1.228728 -0.872167 -0.363485 -0.327421 51 51 51
-0.080637 2.094693 0.841800 -0.872167 -0.363485 -0.327421 51 51 51
0.171485 1.442713 0.894003 -0.872167 -0.363485 -0.327421 51 51 51
0.198668 1.758490 1.615392 -0.276684 -0.626264 0.728861 51 51 51
0.079900 1.360953 1.228728 -0.276684 -0.626264 0.728861 51 51 51
0.469006 1.429464 1.435304 -0.276684 -0.626264 0.728861 51 51 51
0.198668 1.758490 1.615392 -0.817326 -0.257267 0.515551 51 51 51
-0.145916 2.216342 1.297582 -0.817326 -0.257267 0.515551 51 51 51
0.079900 1.360953 1.228728 -0.817326 -0.257267 0.515551 51 51 51
0.429461 2.891214 0.916640 -0.451110 0.365399 -0.814238 51 51 51
-0.080637 2.094693 0.841800 -0.451110 0.365399 -0.814238 51 51 51
0.020628 2.939313 1.164730 -0.451110 0.365399 -0.814238 51 51 51
0.590430 1.694737 1.201170 0.819319 -0.571692 -0.043410 51 51 51
0.463599 1.477261 1.671443 0.819319 -0.571692 -0.043410 51 51 51
0.158638 1.066701 1.322526 0.819319 -0.571692 -0.043410 51 51 51
-0.302509 1.363243 1.448868 -0.478570 -0.597019 -0.643847 51 51 51
-0.300560 1.657890 1.174203 -0.478570 -0.597019 -0.643847 51 51 51
0.117336 1.433147 1.071979 -0.478570 -0.597019 -0.643847 51 51 51
0.117336 1.433147 1.071979 -0.520446 -0.521143 -0.676422 51 51 51
0.158638 1.066701 1.322526 -0.520446 -0.521143 -0.676422 51 51 51
-0.302509 1.363243 1.448868 -0.520446 -0.521143 -0.676422 51 51 51
-0.302509 1.363243 1.448868 -0.743643 0.057251 0.666122 51 51 51
0.149233 1.331085 1.955946 -0.743643 0.057251 0.666122 51 51 51
0.084762 1.896157 1.835406 -0.743643 0.057251 0.666122 51 51 51
0.084762 1.896157 1.835406 0.591096 0.232219 0.772451 51 51 51
0.149233 1.331085 1.955946 0.591096 0.232219 0.772451 51 51 51
0.463599 1.477261 1.671443 0.591096 0.232219 0.772451 51 51 51
0.084762 1.896157 1.835406 0.093255 -0.288639 0.952886 51 51 51
0.463599 1.477261 1.671443 0.093255 -0.288639 0.952886 51 51 51
0.427458 2.076459 1.856483 0.093255 -0.288639 0.952886 51 51 51
0.590430 1.694737 1.201170 0.243749 0.037781 -0.969102 51 51 51
0.117336 1.433147 1.071979 0.243749 0.037781 -0.969102 51 51 51
0.126331 2.360369 1.110390 0.243749 0.037781 -0.969102 51 51 51
0.590430 1.694737 1.201170 0.738889 0.446329 -0.504811 51 51 51
0.126331 2.360369 1.110390 0.738889 0.446329 -0.504811 51 51 51
0.359515 2.509325 1.583399 0.738889 0.446329 -0.504811 51 51 51
0.359515 2.509325 1.583399 0.990606 0.091212 -0.101883 51 51 51
0.427458 2.076459 1.856483 0.990606 0.091212 -0.101883 51 51 51
0.463599 1.477261 1.671443 0.990606 0.091212 -0.101883 51 51 51
-0.167893 2.412499 1.437523 -0.212064 0.969455 0.123229 51 51 51
-0.105574 2.370125 1.878128 -0.212064 0.969455 0.123229 51 51 51
0.359515 2.509325 1.583399 -0.212064 0.969455 0.123229 51 51 51
0.565432 2.068862 0.050978 0.975495 0.011169 -0.219739 51 51 51
0.632932 3.478396 0.422273 0.975495 0.011169 -0.219739 51 51 51
0.716747 1.408249 0.689138 0.975495 0.011169 -0.219739 51 51 51
-0.167893 2.412499 1.437523 -0.983293 0.127557 0.129860 51 51 51
-0.300560 1.657890 1.174203 -0.983293 0.127557 0.129860 51 51 51
-0.302509 1.363243 1.448868 -0.983293 0.127557 0.129860 51 51 51
-0.011356 1.708602 1.226009 -0.888692 -0.446209 0.105472 51 51 51
-0.312248 2.079904 0.261566 -0.888692 -0.446209 0.105472 51 51 51
0.215922 1.150725 0.780872 -0.888692 -0.446209 0.105472 51 51 51
0.193409 1.403177 0.284555 0.346443 -0.829679 -0.437732 51 51 51
0.716747 1.408249 0.689138 0.346443 -0.829679 -0.437732 51 51 51
0.215922 1.150725 0.780872 0.346443 -0.829679 -0.437732 51 51 51
0.215922 1.150725 0.780872 -0.198269 -0.659401 0.725175 51 51 51
0.565083 1.340455 1.048857 -0.198269 -0.659401 0.725175 51 51 51
-0.011356 1.708602 1.226009 -0.198269 -0.659401 0.725175 51 51 51
0.716747 1.408249 0.689138 0.893399 -0.318751 0.316600 51 51 51
0.788544 2.053656 1.136329 0.893399 -0.318751 0.316600 51 51 51
0.565083 1.340455 1.048857 0.893399 -0.318751 0.316600 51 51 51
-0.214759 3.446605 0.633228 -0.995970 0.081328 -0.037816 51 51 51
-0.221378 3.178274 0.230475 -0.995970 0.081328 -0.037816 51 51 51
-0.312248 2.079904 0.261566 -0.995970 0.081328 -0.037816 51 51 51
0.716747 1.408249 0.689138 0.983247 0.016407 -0.181540 51 51 51
0.632932 3.478396 0.422273 0.983247 0.016407 -0.181540 51 51 51
0.788544 2.053656 1.136329 0.983247 0.016407 -0.181540 51 51 51
0.193409 1.403177 0.284555 -0.768833 -0.583375 -0.261860 51 51 51
0.215922 1.150725 0.780872 -0.768833 -0.583375 -0.261860 51 51 51
-0.312248 2.079904 0.261566 -0.768833 -0.583375 -0.261860 51 51 51
0.445312 3.164444 1.063403 0.080582 0.885665 0.457280 51 51 51
0.632932 3.478396 0.422273 0.080582 0.885665 0.457280 51 51 51
-0.214759 3.446605 0.633228 0.080582 0.885665 0.457280 51 51 51
0.632932 3.478396 0.422273 0.128917 0.246825 -0.960447 51 51 51
0.565432 2.068862 0.050978 0.128917 0.246825 -0.960447 51 51 51
-0.221378 3.178274 0.230475 0.128917 0.246825 -0.960447 51 51 51
0.632932 3.478396 0.422273 -0.166408 0.821869 -0.544830 51 51 51
-0.221378 3.178274 0.230475 -0.166408 0.821869 -0.544830 51 51 51
-0.214759 3.446605 0.633228 -0.166408 0.821869 -0.544830 51 51 51
0.445312 3.164444 1.063403 0.868613 0.294558 0.398432 51 51 51
0.788544 2.053656 1.136329 0.868613 0.294558 0.398432 51 51 51
0.632932 3.478396 0.422273 0.868613 0.294558 0.398432 51 51 51
0.251529 1.385090 -0.408978 0.232107 -0.227125 0.945802 51 51 51
0.364075 2.397342 -0.193516 0.232107 -0.227125 0.945802 51 51 51
-0.131369 1.925817 -0.185162 0.232107 -0.227125 0.945802 51 51 51
0.027031 2.592450 -0.908136 0.408903 0.084924 -0.908618 51 51 51
0.474498 2.722810 -0.694580 0.408903 0.084924 -0.908618 51 51 51
-0.065824 1.804946 -1.023527 0.408903 0.084924 -0.908618 51 51 51
0.011814 2.747750 -0.202655 -0.004067 0.021986 0.999750 51 51 51
-0.131369 1.925817 -0.185162 -0.004067 0.021986 0.999750 51 51 51
0.364075 2.397342 -0.193516 -0.004067 0.021986 0.999750 51 51 51
0.492479 1.719703 -0.787966 0.398989 0.092086 -0.912320 51 51 51
-0.065824 1.804946 -1.023527 0.398989 0.092086 -0.912320 51 51 51
0.474498 2.722810 -0.694580 0.398989 0.092086 -0.912320 51 51 51
-0.287867 1.755148 -0.934002 -0.789983 -0.599810 -0.127102 51 51 51
0.004702 1.454344 -1.332889 -0.789983 -0.599810 -0.127102 51 51 51
0.062371 1.271736 -0.829571 -0.789983 -0.599810 -0.127102 51 51 51
-0.217022 2.270909 -0.825901 -0.812718 0.224342 -0.537736 51 51 51
-0.004216 2.359016 -1.110772 -0.812718 0.224342 -0.537736 51 51 51
-0.287867 1.755148 -0.934002 -0.812718 0.224342 -0.537736 51 51 51
0.178143 2.281077 -0.793502 -0.046387 0.963579 0.263370 51 51 51
-0.004216 2.359016 -1.110772 -0.046387 0.963579 0.263370 51 51 51
-0.217022 2.270909 -0.825901 -0.046387 0.963579 0.263370 51 51 51
0.276265 2.091907 -1.253846 0.630133 0.756179 -0.176425 51 51 51
-0.004216 2.359016 -1.110772 0.630133 0.756179 -0.176425 51 51 51
0.178143 2.281077 -0.793502 0.630133 0.756179 -0.176425 51 51 51
0.008113 1.127784 -0.184922 0.578500 -0.764942 -0.283198 51 51 51
0.433586 1.564192 -0.494568 0.578500 -0.764942 -0.283198 51 51 51
0.749548 1.696338 -0.206077 0.578500 -0.764942 -0.283198 51 51 51
0.048927 2.912977 -0.356295 -0.706628 -0.135299 -0.694529 51 51 51
0.282426 2.698183 -0.552018 -0.706628 -0.135299 -0.694529 51 51 51
-0.236640 2.375798 0.038893 -0.706628 -0.135299 -0.694529 51 51 51
0.466949 1.397719 0.306857 0.365723 0.061077 0.928717 51 51 51
0.663537 2.319288 0.168835 0.365723 0.061077 0.928717 51 51 51
0.157960 2.616320 0.348394 0.365723 0.061077 0.928717 51 51 51
0.020628 2.939313 1.164730 0.059987 0.993780 -0.093818 51 51 51
0.517874 2.923705 1.317338 0.059987 0.993780 -0.093818 51 51 51
0.429461 2.891214 0.916640 0.059987 0.993780 -0.093818 51 51 51
0.517874 2.923705 1.317338 -0.088937 0.919129 0.383787 51 51 51
0.020628 2.939313 1.164730 -0.088937 0.919129 0.383787 51 51 51
0.196541 2.842972 1.436221 -0.088937 0.919129 0.383787 51 51 51
0.020628 2.939313 1.164730 -0.756132 0.282644 0.590235 51 51 51
-0.145916 2.216342 1.297582 -0.756132 0.282644 0.590235 51 51 51
0.196541 2.842972 1.436221 -0.756132 0.282644 0.590235 51 51 51
0.198668 1.758490 1.615392 -0.570895 0.132740 0.810222 51 51 51
0.196541 2.842972 1.436221 -0.570895 0.132740 0.810222 51 51 51
-0.145916 2.216342 1.297582 -0.570895 0.132740 0.810222 51 51 51
0.079900 1.360953 1.228728 -0.965791 -0.249180 -0.071818 51 51 51
-0.145916 2.216342 1.297582 -0.965791 -0.249180 -0.071818 51 51 51
-0.080637 2.094693 0.841800 -0.965791 -0.249180 -0.071818 51 51 51
0.171485 1.442713 0.894003 0.524972 -0.485882 -0.698802 51 51 51
0.458277 1.872811 0.810404 0.524972 -0.485882 -0.698802 51 51 51
0.653063 1.672481 1.096027 0.524972 -0.485882 -0.698802 51 51 51
0.590430 1.694737 1.201170 0.462874 -0.464164 -0.755182 51 51 51
0.158638 1.066701 1.322526 0.462874 -0.464164 -0.755182 51 51 51
0.117336 1.433147 1.071979 0.462874 -0.464164 -0.755182 51 51 51
0.463599 1.477261 1.671443 0.617334 -0.722699 0.310814 51 51 51
0.149233 1.331085 1.955946 0.617334 -0.722699 0.310814 51 51 51
0.158638 1.066701 1.322526 0.617334 -0.722699 0.310814 51 51 51
0.158638 1.066701 1.322526 -0.440929 -0.830595 0.340137 51 51 51
0.149233 1.331085 1.955946 -0.440929 -0.830595 0.340137 51 51 51
-0.302509 1.363243 1.448868 -0.440929 -0.830595 0.340137 51 51 51
0.359515 2.509325 1.583399 0.942774 0.121566 0.310481 51 51 51
0.463599 1.477261 1.671443 0.942774 0.121566 0.310481 51 51 51
0.590430 1.694737 1.201170 0.942774 0.121566 0.310481 51 51 51
0.359515 2.509325 1.583399 -0.107502 0.962252 -0.250027 51 51 51
0.126331 2.360369 1.110390 -0.107502 0.962252 -0.250027 51 51 51
-0.167893 2.412499 1.437523 -0.107502 0.962252 -0.250027 51 51 51
0.126331 2.360369 1.110390 -0.740281 0.034994 -0.671386 51 51 51
0.117336 1.433147 1.071979 -0.740281 0.034994 -0.671386 51 51 51
-0.167893 2.412499 1.437523 -0.740281 0.034994 -0.671386 51 51 51
-0.105574 2.370125 1.878128 -0.980304 0.127401 0.150906 51 51 51
-0.167893 2.412499 1.437523 -0.980304 0.127401 0.150906 51 51 51
-0.302509 1.363243 1.448868 -0.980304 0.127401 0.150906 51 51 51
-0.105574 2.370125 1.878128 -0.472947 -0.265649 0.840090 51 51 51
-0.302509 1.363243 1.448868 -0.472947 -0.265649 0.840090 51 51 51
0.084762 1.896157 1.835406 -0.472947 -0.265649 0.840090 51 51 51
-0.011356 1.708602 1.226009 0.102584 0.020667 0.994510 51 51 51
0.788544 2.053656 1.136329 0.102584 0.020667 0.994510 51 51 51
0.064765 2.784703 1.195795 0.102584 0.020667 0.994510 51 51 51
0.011814 2.747750 -0.202655 -0.548655 0.712300 0.437729 51 51 51
0.125370 3.037585 -0.531961 -0.548655 0.712300 0.437729 50 50 50
-0.269110 2.761582 -0.577278 -0.548655 0.712300 0.437729 51 51 51
-0.228770 1.620190 -0.489083 -0.457915 -0.863548 0.211181 51 51 51
-0.081347 1.488056 -0.709732 -0.457915 -0.863548 0.211181 51 51 51
0.251529 1.385090 -0.408978 -0.457915 -0.863548 0.211181 51 51 51
-0.269110 2.761582 -0.577278 -0.788322 0.150027 0.596691 51 51 51
-0.131369 1.925817 -0.185162 -0.788322 0.150027 0.596691 51 51 51
0.011814 2.747750 -0.202655 -0.788322 0.150027 0.596691 51 51 51
0.251529 1.385090 -0.408978 -0.401507 -0.578279 0.710201 51 51 51
-0.131369 1.925817 -0.185162 -0.401507 -0.578279 0.710201 51 51 51
-0.228770 1.620190 -0.489083 -0.401507 -0.578279 0.710201 51 51 51
0.474498 2.722810 -0.694580 0.982362 -0.136439 0.127865 51 51 51
0.364075 2.397342 -0.193516 0.982362 -0.136439 0.127865 51 51 51
0.251529 1.385090 -0.408978 0.982362 -0.136439 0.127865 51 51 51
0.062371 1.271736 -0.829571 -0.591527 -0.263989 0.761843 51 51 51
0.072946 1.794556 -0.640196 -0.591527 -0.263989 0.761843 51 51 51
-0.287867 1.755148 -0.934002 -0.591527 -0.263989 0.761843 51 51 51
0.402071 1.444872 -0.994698 0.635381 -0.177460 -0.751531 51 51 51
0.004702 1.454344 -1.332889 0.635381 -0.177460 -0.751531 51 51 51
0.276265 2.091907 -1.253846 0.635381 -0.177460 -0.751531 51 51 51
-0.004216 2.359016 -1.110772 -0.737707 0.154108 -0.657296 51 51 51
0.004702 1.454344 -1.332889 -0.737707 0.154108 -0.657296 51 51 51
-0.287867 1.755148 -0.934002 -0.737707 0.154108 -0.657296 51 51 51
0.072946 1.794556 -0.640196 -0.085600 0.316226 0.944814 51 51 51
0.178143 2.281077 -0.793502 -0.085600 0.316226 0.944814 51 51 51
-0.217022 2.270909 -0.825901 -0.085600 0.316226 0.944814 51 51 51
0.062371 1.271736 -0.829571 0.281400 -0.891270 -0.355601 51 51 51
0.004702 1.454344 -1.332889 0.281400 -0.891270 -0.355601 51 51 51
0.402071 1.444872 -0.994698 0.281400 -0.891270 -0.355601 51 51 51
0.157960 2.616320 0.348394 -0.678078 0.634005 0.371816 51 51 51
0.048927 2.912977 -0.356295 -0.678078 0.634005 0.371816 51 51 51
-0.236640 2.375798 0.038893 -0.678078 0.634005 0.371816 51 51 51
0.749548 1.696338 -0.206077 0.970353 0.208028 -0.123043 51 51 51
0.513069 2.854330 -0.113206 0.970353 0.208028 -0.123043 51 51 51
0.663537 2.319288 0.168835 0.970353 0.208028 -0.123043 51 51 51
0.513069 2.854330 -0.113206 0.537147 0.506577 0.674428 51 51 51
0.157960 2.616320 0.348394 0.537147 0.506577 0.674428 51 51 51
0.663537 2.319288 0.168835 0.537147 0.506577 0.674428 51 51 51
-0.145916 2.216342 1.297582 -0.964078 0.187516 -0.188127 51 51 51
0.020628 2.939313 1.164730 -0.964078 0.187516 -0.188127 51 51 51
-0.080637 2.094693 0.841800 -0.964078 0.187516 -0.188127 51 51 51
0.517874 2.923705 1.317338 0.308115 0.155662 0.938528 51 51 51
0.196541 2.842972 1.436221 0.308115 0.155662 0.938528 51 51 51
0.198668 1.758490 1.615392 0.308115 0.155662 0.938528 51 51 51
0.458277 1.872811 0.810404 0.848417 0.078611 -0.523458 51 51 51
0.429461 2.891214 0.916640 0.848417 0.078611 -0.523458 51 51 51
0.653063 1.672481 1.096027 0.848417 0.078611 -0.523458 51 51 51
-0.080637 2.094693 0.841800 -0.107080 -0.120430 -0.986930 51 51 51
0.458277 1.872811 0.810404 -0.107080 -0.120430 -0.986930 51 51 51
0.171485 1.442713 0.894003 -0.107080 -0.120430 -0.986930 51 51 51
-0.167893 2.412499 1.437523 -0.048928 0.336729 -0.940329 51 51 51
0.117336 1.433147 1.071979 -0.048928 0.336729 -0.940329 51 51 51
-0.300560 1.657890 1.174203 -0.048928 0.336729 -0.940329 51 51 51
-0.214759 3.446605 0.633228 -0.855115 0.074892 0.513000 51 51 51
-0.011356 1.708602 1.226009 -0.855115 0.074892 0.513000 51 51 51
0.064765 2.784703 1.195795 -0.855115 0.074892 0.513000 51 51 51
-0.011356 1.708602 1.226009 -0.955825 -0.011689 0.293703 51 51 51
-0.214759 3.446605 0.633228 -0.955825 -0.011689 0.293703 51 51 51
-0.312248 2.079904 0.261566 -0.955825 -0.011689 0.293703 51 51 51
0.788544 2.053656 1.136329 0.184490 -0.176389 0.966877 51 51 51
-0.011356 1.708602 1.226009 0.184490 -0.176389 0.966877 51 51 51
0.565083 1.340455 1.048857 0.184490 -0.176389 0.966877 51 51 51
-0.312248 2.079904 0.261566 -0.230806 -0.204774 -0.951208 51 51 51
0.565432 2.068862 0.050978 -0.230806 -0.204774 -0.951208 51 51 51
0.193409 1.403177 0.284555 -0.230806 -0.204774 -0.951208 51 51 51
-0.221378 3.178274 0.230475 -0.233405 -0.008214 -0.972345 51 51 51
0.565432 2.068862 0.050978 -0.233405 -0.008214 -0.972345 51 51 51
-0.312248 2.079904 0.261566 -0.233405 -0.008214 -0.972345 51 51 51
0.215922 1.150725 0.780872 0.461058 -0.886952 0.027232 51 51 51
0.716747 1.408249 0.689138 0.461058 -0.886952 0.027232 51 51 51
0.565083 1.340455 1.048857 0.461058 -0.886952 0.027232 51 51 51
0.788544 2.053656 1.136329 0.209233 0.128297 0.969413 51 51 51
0.445312 3.164444 1.063403 0.209233 0.128297 0.969413 51 51 51
0.064765 2.784703 1.195795 0.209233 0.128297 0.969413 51 51 51
0.107097 -0.038165 -0.089144 0.934181 0.347011 0.082998 211 215 207
-0.043769 0.339886 0.028306 0.934181 0.347011 0.082998 210 215 206
-0.035362 0.298654 0.106075 0.934181 0.347011 0.082998 211 215 207
-0.035362 0.298654 0.106075 0.915765 0.178842 0.359707 211 215 207
0.043872 -0.038077 0.071775 0.915765 0.178842 0.359707 211 215 207
0.107097 -0.038165 -0.089144 0.915765 0.178842 0.359707 211 215 207
0.043872 -0.038077 0.071775 0.235312 -0.043533 0.970944 211 215 207
-0.035362 0.298654 0.106075 0.235312 -0.043533 0.970944 211 215 207
-0.164416 0.340016 0.139206 0.235312 -0.043533 0.970944 210 215 207
-0.164416 0.340016 0.139206 -0.266394 -0.309550 0.912805 210 215 207
-0.114040 -0.038207 0.025646 -0.266394 -0.309550 0.912805 211 215 207
0.043872 -0.038077 0.071775 -0.266394 -0.309550 0.912805 211 215 207
-0.141229 0.352708 0.012050 -0.979694 -0.074614 -0.186096 211 215 207
-0.114040 -0.038207 0.025646 -0.979694 -0.074614 -0.186096 211 215 207
-0.164416 0.340016 0.139206 -0.979694 -0.074614 -0.186096 210 215 207
-0.043769 0.339886 0.028306 0.201426 0.394167 -0.896694 210 215 206
-0.046516 -0.038096 -0.138463 0.201426 0.394167 -0.896694 211 215 207
-0.141229 0.352708 0.012050 0.201426 0.394167 -0.896694 211 215 207
-0.082912 0.673532 0.171907 -0.782021 0.523818 0.337724 210 215 207
0.082824 0.846051 0.288100 -0.782021 0.523818 0.337724 211 215 207
0.064262 1.029816 -0.039907 -0.782021 0.523818 0.337724 211 215 207
0.164494 1.515735 -0.261847 -0.803391 -0.149205 -0.576455 211 215 207
0.160239 1.306901 -0.201864 -0.803391 -0.149205 -0.576455 211 215 207
0.119300 1.518479 -0.199572 -0.803391 -0.149205 -0.576455 211 215 207
0.050910 0.649989 0.246584 0.273212 -0.788847 0.550523 211 215 207
0.175746 0.943379 0.605032 0.273212 -0.788847 0.550523 211 215 206
-0.059496 0.626135 0.267197 0.273212 -0.788847 0.550523 211 215 206
0.274718 1.594422 0.589170 0.256913 -0.849965 -0.459951 211 215 207
0.293369 1.547356 0.686564 0.256913 -0.849965 -0.459951 211 215 206
0.208211 1.548610 0.636680 0.256913 -0.849965 -0.459951 211 215 206
0.293369 1.547356 0.686564 0.750232 -0.220715 0.623247 211 215 206
0.228304 1.552278 0.766629 0.750232 -0.220715 0.623247 211 215 207
0.215932 1.055473 0.605584 0.750232 -0.220715 0.623247 211 215 207
0.274718 1.594422 0.589170 -0.361255 -0.365299 -0.857934 211 215 207
0.208211 1.548610 0.636680 -0.361255 -0.365299 -0.857934 211 215 206
0.229628 1.637622 0.589762 -0.361255 -0.365299 -0.857934 211 215 207
0.188626 1.143686 1.047972 0.974517 0.223774 0.015532 210 215 207
0.215932 1.055473 0.605584 0.974517 0.223774 0.015532 211 215 207
0.170424 1.222208 1.058687 0.974517 0.223774 0.015532 211 215 207
0.188626 1.143686 1.047972 -0.163451 -0.827883 0.536557 210 215 207
0.136192 1.438149 1.486342 -0.163451 -0.827883 0.536557 211 215 207
0.086536 1.146415 1.021082 -0.163451 -0.827883 0.536557 210 214 206
0.170424 1.222208 1.058687 0.206808 0.924737 -0.319518 211 215 207
0.215932 1.055473 0.605584 0.206808 0.924737 -0.319518 211 215 207
0.137287 1.071943 0.602347 0.206808 0.924737 -0.319518 211 215 207
0.137287 1.071943 0.602347 -0.601954 0.770429 -0.209977 211 215 207
0.086536 1.146415 1.021082 -0.601954 0.770429 -0.209977 210 214 206
0.170424 1.222208 1.058687 -0.601954 0.770429 -0.209977 211 215 207
0.086536 1.146415 1.021082 -0.859633 0.474814 -0.188633 210 214 206
0.137287 1.071943 0.602347 -0.859633 0.474814 -0.188633 211 215 207
0.082305 0.949298 0.544195 -0.859633 0.474814 -0.188633 211 215 207
0.086536 1.146415 1.021082 -0.132514 -0.901675 0.411610 210 214 206
0.175746 0.943379 0.605032 -0.132514 -0.901675 0.411610 211 215 206
0.188626 1.143686 1.047972 -0.132514 -0.901675 0.411610 210 215 207
0.188626 1.143686 1.047972 0.972271 0.230645 -0.038636 210 215 207
0.170424 1.222208 1.058687 0.972271 0.230645 -0.038636 211 215 207
0.136192 1.438149 1.486342 0.972271 0.230645 -0.038636 211 215 207
0.059954 1.435544 1.384965 -0.780522 0.460418 -0.422849 211 215 207
0.110836 1.434037 1.289402 -0.780522 0.460418 -0.422849 211 215 207
0.086536 1.146415 1.021082 -0.780522 0.460418 -0.422849 210 214 206
0.136192 1.438149 1.486342 0.987682 0.007163 0.156310 211 215 207
0.160849 1.439947 1.330461 0.987682 0.007163 0.156310 211 215 207
0.143872 1.527354 1.433730 0.987682 0.007163 0.156310 211 215 207
0.059954 1.435544 1.384965 -0.916534 -0.397236 0.046570 211 215 207
0.058555 1.446419 1.450193 -0.916534 -0.397236 0.046570 211 215 207
0.045595 1.473676 1.427629 -0.916534 -0.397236 0.046570 211 215 207
0.107471 1.506886 1.546219 -0.363462 -0.693627 0.621914 211 215 207
0.058555 1.446419 1.450193 -0.363462 -0.693627 0.621914 211 215 207
0.136192 1.438149 1.486342 -0.363462 -0.693627 0.621914 211 215 207
-0.035362 0.298654 0.106075 0.090904 -0.434234 0.896202 211 215 207
-0.059496 0.626135 0.267197 0.090904 -0.434234 0.896202 211 215 206
-0.164416 0.340016 0.139206 0.090904 -0.434234 0.896202 210 215 207
-0.141229 0.352708 0.012050 -0.394346 0.466258 -0.791893 211 215 207
-0.082912 0.673532 0.171907 -0.394346 0.466258 -0.791893 210 215 207
0.033863 0.711086 0.135867 -0.394346 0.466258 -0.791893 211 215 207
0.033863 0.711086 0.135867 0.190041 0.236371 -0.952897 211 215 207
-0.043769 0.339886 0.028306 0.190041 0.236371 -0.952897 210 215 206
-0.141229 0.352708 0.012050 0.190041 0.236371 -0.952897 211 215 207
-0.043769 0.339886 0.028306 0.968314 -0.161639 -0.190372 210 215 206
0.050910 0.649989 0.246584 0.968314 -0.161639 -0.190372 211 215 207
-0.035362 0.298654 0.106075 0.968314 -0.161639 -0.190372 211 215 207
-0.164416 0.340016 0.139206 -0.925780 0.194450 0.324221 210 215 207
-0.059496 0.626135 0.267197 -0.925780 0.194450 0.324221 211 215 206
-0.082912 0.673532 0.171907 -0.925780 0.194450 0.324221 210 215 207
-0.082912 0.673532 0.171907 -0.956983 0.248543 -0.149698 210 215 207
-0.141229 0.352708 0.012050 -0.956983 0.248543 -0.149698 211 215 207
-0.164416 0.340016 0.139206 -0.956983 0.248543 -0.149698 210 215 207
0.208211 1.548610 0.636680 0.450046 0.200277 -0.870257 211 215 206
0.232316 1.002282 0.523417 0.450046 0.200277 -0.870257 211 215 207
0.120476 0.963969 0.456763 0.450046 0.200277 -0.870257 211 215 207
0.293369 1.547356 0.686564 0.928844 -0.197798 0.313249 211 215 206
0.215932 1.055473 0.605584 0.928844 -0.197798 0.313249 211 215 207
0.232316 1.002282 0.523417 0.928844 -0.197798 0.313249 211 215 207
0.143723 0.917784 0.089664 0.110666 0.464091 0.878847 211 215 207
0.182258 1.277399 -0.105089 0.110666 0.464091 0.878847 211 214 207
0.102180 1.024554 0.038514 0.110666 0.464091 0.878847 210 215 207
0.176373 0.949806 -0.031501 0.967698 -0.066100 0.243294 210 215 206
0.240803 1.268938 -0.201064 0.967698 -0.066100 0.243294 210 215 206
0.143723 0.917784 0.089664 0.967698 -0.066100 0.243294 211 215 207
0.149810 1.082339 -0.120803 0.290262 -0.494051 -0.819550 211 215 207
0.240803 1.268938 -0.201064 0.290262 -0.494051 -0.819550 210 215 206
0.176373 0.949806 -0.031501 0.290262 -0.494051 -0.819550 210 215 206
0.176373 0.949806 -0.031501 0.259973 -0.653561 -0.710825 210 215 206
0.033863 0.711086 0.135867 0.259973 -0.653561 -0.710825 211 215 207
0.068918 0.953767 -0.074442 0.259973 -0.653561 -0.710825 210 214 206
0.182258 1.277399 -0.105089 -0.970445 -0.173265 0.167977 211 214 207
0.143328 1.420065 -0.182837 -0.970445 -0.173265 0.167977 211 214 207
0.160239 1.306901 -0.201864 -0.970445 -0.173265 0.167977 211 215 207
0.182258 1.277399 -0.105089 -0.777721 0.478104 0.408126 211 214 207
0.064262 1.029816 -0.039907 -0.777721 0.478104 0.408126 211 215 207
0.102180 1.024554 0.038514 -0.777721 0.478104 0.408126 210 215 207
0.143723 0.917784 0.089664 -0.894490 -0.145514 0.422745 211 215 207
0.102180 1.024554 0.038514 -0.894490 -0.145514 0.422745 210 215 207
0.064262 1.029816 -0.039907 -0.894490 -0.145514 0.422745 211 215 207
0.064262 1.029816 -0.039907 0.435124 0.795772 0.421205 211 215 207
0.082824 0.846051 0.288100 0.435124 0.795772 0.421205 211 215 207
0.143723 0.917784 0.089664 0.435124 0.795772 0.421205 211 215 207
0.082305 0.949298 0.544195 -0.557913 -0.137913 0.818360 211 215 207
0.137287 1.071943 0.602347 -0.557913 -0.137913 0.818360 211 215 207
0.180051 1.559997 0.713750 -0.557913 -0.137913 0.818360 210 214 207
0.082305 0.949298 0.544195 -0.903072 0.244240 -0.353281 211 215 207
0.208211 1.548610 0.636680 -0.903072 0.244240 -0.353281 211 215 206
0.120476 0.963969 0.456763 -0.903072 0.244240 -0.353281 211 215 207
0.180051 1.559997 0.713750 -0.742168 -0.086668 0.664586 210 214 207
0.137287 1.071943 0.602347 -0.742168 -0.086668 0.664586 211 215 207
0.228304 1.552278 0.766629 -0.742168 -0.086668 0.664586 211 215 207
0.154230 1.137227 -0.523436 0.962967 0.269251 -0.014117 210 214 207
0.094969 1.343310 -0.635224 0.962967 0.269251 -0.014117 211 215 207
0.179003 1.065248 -0.206461 0.962967 0.269251 -0.014117 211 215 207
0.154230 1.137227 -0.523436 -0.564711 -0.661579 -0.493370 210 214 207
0.013557 1.512496 -0.865636 -0.564711 -0.661579 -0.493370 211 215 207
0.124982 1.362261 -0.791715 -0.564711 -0.661579 -0.493370 210 215 207
0.179003 1.065248 -0.206461 0.553289 0.832687 0.022424 211 215 207
0.056757 1.153522 -0.468106 0.553289 0.832687 0.022424 211 215 207
0.149810 1.082339 -0.120803 0.553289 0.832687 0.022424 211 215 207
0.068918 0.953767 -0.074442 -0.372312 -0.832243 -0.410798 210 214 206
0.056757 1.153522 -0.468106 -0.372312 -0.832243 -0.410798 211 215 207
0.154230 1.137227 -0.523436 -0.372312 -0.832243 -0.410798 210 214 207
0.154230 1.137227 -0.523436 0.108960 -0.927272 -0.358182 210 214 207
0.176373 0.949806 -0.031501 0.108960 -0.927272 -0.358182 210 215 206
0.068918 0.953767 -0.074442 0.108960 -0.927272 -0.358182 210 214 206
0.124982 1.362261 -0.791715 0.900028 0.377222 0.218294 210 215 207
0.094969 1.343310 -0.635224 0.900028 0.377222 0.218294 211 215 207
0.154230 1.137227 -0.523436 0.900028 0.377222 0.218294 210 214 207
0.048725 1.479115 -0.773918 0.398902 0.386940 -0.831357 211 215 207
0.124374 1.472786 -0.740565 0.398902 0.386940 -0.831357 211 215 207
0.124982 1.362261 -0.791715 0.398902 0.386940 -0.831357 210 215 207
0.013557 1.512496 -0.865636 -0.877831 -0.477274 -0.040286 211 215 207
0.094969 1.343310 -0.635224 -0.877831 -0.477274 -0.040286 211 215 207
0.031427 1.465779 -0.701541 -0.877831 -0.477274 -0.040286 210 214 207
0.048725 1.479115 -0.773918 0.318396 -0.845009 -0.429632 211 215 207
0.013557 1.512496 -0.865636 0.318396 -0.845009 -0.429632 211 215 207
0.088267 1.542350 -0.868986 0.318396 -0.845009 -0.429632 211 215 207
0.149810 1.082339 -0.120803 -0.306098 0.913154 0.269172 211 215 207
0.056757 1.153522 -0.468106 -0.306098 0.913154 0.269172 211 215 207
0.064262 1.029816 -0.039907 -0.306098 0.913154 0.269172 211 215 207
0.179003 1.065248 -0.206461 0.970137 -0.208904 -0.123258 211 215 207
0.176373 0.949806 -0.031501 0.970137 -0.208904 -0.123258 210 215 206
0.154230 1.137227 -0.523436 0.970137 -0.208904 -0.123258 210 214 207
0.143723 0.917784 0.089664 0.956013 -0.213435 0.201207 211 215 207
0.050910 0.649989 0.246584 0.956013 -0.213435 0.201207 211 215 207
0.176373 0.949806 -0.031501 0.956013 -0.213435 0.201207 210 215 206
0.047682 1.551356 -0.667066 0.794594 0.264266 0.546611 211 215 207
0.094969 1.343310 -0.635224 0.794594 0.264266 0.546611 211 215 207
0.124374 1.472786 -0.740565 0.794594 0.264266 0.546611 211 215 207
0.243560 1.439967 -0.081056 0.941697 0.182956 -0.282370 211 215 206
0.240803 1.268938 -0.201064 0.941697 0.182956 -0.282370 210 215 206
0.221253 1.498051 -0.117815 0.941697 0.182956 -0.282370 211 214 206
0.149810 1.082339 -0.120803 -0.146177 -0.329870 -0.932640 211 215 207
0.160239 1.306901 -0.201864 -0.146177 -0.329870 -0.932640 211 215 207
0.240803 1.268938 -0.201064 -0.146177 -0.329870 -0.932640 210 215 206
0.027031 2.592450 -0.908136 -0.835917 -0.016526 -0.548608 51 51 51
-0.081347 1.488056 -0.709732 -0.835917 -0.016526 -0.548608 51 51 51
-0.228770 1.620190 -0.489083 -0.835917 -0.016526 -0.548608 51 51 51
0.492479 1.719703 -0.787966 0.247853 -0.799003 -0.547871 51 51 51
0.251529 1.385090 -0.408978 0.247853 -0.799003 -0.547871 51 51 51
-0.081347 1.488056 -0.709732 0.247853 -0.799003 -0.547871 51 51 51
0.402071 1.444872 -0.994698 0.753352 0.043867 0.656153 51 51 51
0.178143 2.281077 -0.793502 0.753352 0.043867 0.656153 51 51 51
0.072946 1.794556 -0.640196 0.753352 0.043867 0.656153 51 51 51
0.004702 1.454344 -1.332889 -0.261593 0.227705 -0.937934 51 51 51
-0.004216 2.359016 -1.110772 -0.261593 0.227705 -0.937934 51 51 51
0.276265 2.091907 -1.253846 -0.261593 0.227705 -0.937934 51 51 51
-0.168991 1.664825 0.124898 -0.316698 -0.112406 0.941843 51 51 51
0.466949 1.397719 0.306857 -0.316698 -0.112406 0.941843 51 51 51
0.157960 2.616320 0.348394 -0.316698 -0.112406 0.941843 51 51 51
0.171485 1.442713 0.894003 0.510422 -0.805796 -0.300272 51 51 51
0.653063 1.672481 1.096027 0.510422 -0.805796 -0.300272 51 51 51
0.469006 1.429464 1.435304 0.510422 -0.805796 -0.300272 51 51 51
0.427458 2.076459 1.856483 0.329095 0.540255 0.774481 51 51 51
0.359515 2.509325 1.583399 0.329095 0.540255 0.774481 51 51 51
-0.105574 2.370125 1.878128 0.329095 0.540255 0.774481 51 51 51
0.193409 1.403177 0.284555 0.522899 -0.527238 -0.669773 51 51 51
0.565432 2.068862 0.050978 0.522899 -0.527238 -0.669773 51 51 51
0.716747 1.408249 0.689138 0.522899 -0.527238 -0.669773 51 51 51
-0.214759 3.446605 0.633228 -0.276865 0.551735 0.786724 51 51 51
0.064765 2.784703 1.195795 -0.276865 0.551735 0.786724 51 51 51
0.445312 3.164444 1.063403 -0.276865 0.551735 0.786724 51 51 51
0.027031 2.592450 -0.908136 0.190195 0.608831 -0.770163 51 51 51
0.125370 3.037585 -0.531961 0.190195 0.608831 -0.770163 50 50 50
0.474498 2.722810 -0.694580 0.190195 0.608831 -0.770163 51 51 51
-0.141229 0.352708 0.012050 -0.921991 -0.077323 -0.379413 211 215 207
-0.046516 -0.038096 -0.138463 -0.921991 -0.077323 -0.379413 211 215 207
-0.114040 -0.038207 0.025646 -0.921991 -0.077323 -0.379413 211 215 207
-0.043769 0.339886 0.028306 0.282214 0.385540 -0.878473 210 215 206
0.107097 -0.038165 -0.089144 0.282214 0.385540 -0.878473 211 215 207
-0.046516 -0.038096 -0.138463 0.282214 0.385540 -0.878473 211 215 207
-0.114040 -0.038207 0.025646 0.000593 -1.000000 0.000778 211 215 207
0.107097 -0.038165 -0.089144 0.000593 -1.000000 0.000778 211 215 207
0.043872 -0.038077 0.071775 0.000593 -1.000000 0.000778 211 215 207
-0.114040 -0.038207 0.025646 -0.000207 -1.000000 -0.000763 211 215 207
-0.046516 -0.038096 -0.138463 -0.000207 -1.000000 -0.000763 211 215 207
0.107097 -0.038165 -0.089144 -0.000207 -1.000000 -0.000763 211 215 207
-0.059496 0.626135 0.267197 -0.940135 0.150382 0.305830 211 215 206
0.082305 0.949298 0.544195 -0.940135 0.150382 0.305830 211 215 207
-0.082912 0.673532 0.171907 -0.940135 0.150382 0.305830 210 215 207
0.120476 0.963969 0.456763 0.069261 0.810269 -0.581951 211 215 207
0.232316 1.002282 0.523417 0.069261 0.810269 -0.581951 211 215 207
0.082824 0.846051 0.288100 0.069261 0.810269 -0.581951 211 215 207
0.164494 1.515735 -0.261847 -0.118629 -0.271879 -0.954991 211 215 207
0.240803 1.268938 -0.201064 -0.118629 -0.271879 -0.954991 210 215 206
0.160239 1.306901 -0.201864 -0.118629 -0.271879 -0.954991 211 215 207
-0.059496 0.626135 0.267197 -0.514385 -0.416723 0.749500 211 215 206
0.175746 0.943379 0.605032 -0.514385 -0.416723 0.749500 211 215 206
0.082305 0.949298 0.544195 -0.514385 -0.416723 0.749500 211 215 207
0.221975 1.420768 -0.239752 -0.044498 -0.251852 -0.966742 211 215 207
0.240803 1.268938 -0.201064 -0.044498 -0.251852 -0.966742 210 215 206
0.164494 1.515735 -0.261847 -0.044498 -0.251852 -0.966742 211 215 207
0.243560 1.439967 -0.081056 -0.683280 -0.178987 0.707879 211 215 206
0.198802 1.516801 -0.104831 -0.683280 -0.178987 0.707879 211 215 207
0.143328 1.420065 -0.182837 -0.683280 -0.178987 0.707879 211 214 207
0.143328 1.420065 -0.182837 -0.718518 0.171291 0.674086 211 214 207
0.182258 1.277399 -0.105089 -0.718518 0.171291 0.674086 211 214 207
0.243560 1.439967 -0.081056 -0.718518 0.171291 0.674086 211 215 206
0.120476 0.963969 0.456763 -0.496077 0.759717 -0.420402 211 215 207
0.082824 0.846051 0.288100 -0.496077 0.759717 -0.420402 211 215 207
-0.082912 0.673532 0.171907 -0.496077 0.759717 -0.420402 210 215 207
-0.082912 0.673532 0.171907 -0.704640 0.682796 -0.193059 210 215 207
0.082305 0.949298 0.544195 -0.704640 0.682796 -0.193059 211 215 207
0.120476 0.963969 0.456763 -0.704640 0.682796 -0.193059 211 215 207
0.050910 0.649989 0.246584 0.852059 -0.028015 -0.522696 211 215 207
0.082824 0.846051 0.288100 0.852059 -0.028015 -0.522696 211 215 207
0.232316 1.002282 0.523417 0.852059 -0.028015 -0.522696 211 215 207
0.232316 1.002282 0.523417 0.816700 -0.552203 0.167551 211 215 207
0.175746 0.943379 0.605032 0.816700 -0.552203 0.167551 211 215 206
0.050910 0.649989 0.246584 0.816700 -0.552203 0.167551 211 215 207
0.180051 1.559997 0.713750 -0.940411 -0.040929 -0.337569 210 214 207
0.196090 1.608573 0.663178 -0.940411 -0.040929 -0.337569 211 215 207
0.208211 1.548610 0.636680 -0.940411 -0.040929 -0.337569 211 215 206
0.293369 1.547356 0.686564 0.775130 0.100763 0.623715 211 215 206
0.266121 1.608573 0.710537 0.775130 0.100763 0.623715 211 215 207
0.228304 1.552278 0.766629 0.775130 0.100763 0.623715 211 215 207
0.188626 1.143686 1.047972 0.833175 -0.512575 0.207570 210 215 207
0.175746 0.943379 0.605032 0.833175 -0.512575 0.207570 211 215 206
0.232316 1.002282 0.523417 0.833175 -0.512575 0.207570 211 215 207
0.188626 1.143686 1.047972 0.955879 0.293760 0.000426 210 215 207
0.232316 1.002282 0.523417 0.955879 0.293760 0.000426 211 215 207
0.215932 1.055473 0.605584 0.955879 0.293760 0.000426 211 215 207
0.086536 1.146415 1.021082 -0.328728 -0.783951 0.526649 210 214 206
0.136192 1.438149 1.486342 -0.328728 -0.783951 0.526649 211 215 207
0.058555 1.446419 1.450193 -0.328728 -0.783951 0.526649 211 215 207
0.086536 1.146415 1.021082 -0.294975 -0.882117 0.367231 210 214 206
0.082305 0.949298 0.544195 -0.294975 -0.882117 0.367231 211 215 207
0.175746 0.943379 0.605032 -0.294975 -0.882117 0.367231 211 215 206
0.170424 1.222208 1.058687 -0.293304 0.665277 -0.686570 211 215 207
0.086536 1.146415 1.021082 -0.293304 0.665277 -0.686570 210 214 206
0.110836 1.434037 1.289402 -0.293304 0.665277 -0.686570 211 215 207
0.110836 1.434037 1.289402 0.381681 0.727853 -0.569692 211 215 207
0.160849 1.439947 1.330461 0.381681 0.727853 -0.569692 211 215 207
0.170424 1.222208 1.058687 0.381681 0.727853 -0.569692 211 215 207
0.170424 1.222208 1.058687 0.977132 -0.147815 0.152853 211 215 207
0.160849 1.439947 1.330461 0.977132 -0.147815 0.152853 211 215 207
0.136192 1.438149 1.486342 0.977132 -0.147815 0.152853 211 215 207
0.086536 1.146415 1.021082 -0.996610 -0.081902 -0.007725 210 214 206
0.058555 1.446419 1.450193 -0.996610 -0.081902 -0.007725 211 215 207
0.059954 1.435544 1.384965 -0.996610 -0.081902 -0.007725 211 215 207
0.059954 1.435544 1.384965 -0.839285 -0.316765 -0.441883 211 215 207
0.057210 1.495066 1.347508 -0.839285 -0.316765 -0.441883 211 215 207
0.110836 1.434037 1.289402 -0.839285 -0.316765 -0.441883 211 215 207
0.107471 1.506886 1.546219 -0.329053 -0.714442 0.617493 211 215 207
0.039411 1.511865 1.515712 -0.329053 -0.714442 0.617493 211 215 207
0.058555 1.446419 1.450193 -0.329053 -0.714442 0.617493 211 215 207
-0.035362 0.298654 0.106075 0.252481 -0.412117 0.875450 211 215 207
0.050910 0.649989 0.246584 0.252481 -0.412117 0.875450 211 215 207
-0.059496 0.626135 0.267197 0.252481 -0.412117 0.875450 211 215 206
-0.043769 0.339886 0.028306 0.964910 -0.136864 -0.224093 210 215 206
0.033863 0.711086 0.135867 0.964910 -0.136864 -0.224093 211 215 207
0.050910 0.649989 0.246584 0.964910 -0.136864 -0.224093 211 215 207
0.208211 1.548610 0.636680 0.497688 0.197074 -0.844671 211 215 206
0.293369 1.547356 0.686564 0.497688 0.197074 -0.844671 211 215 206
0.232316 1.002282 0.523417 0.497688 0.197074 -0.844671 211 215 207
0.143723 0.917784 0.089664 0.846690 0.180370 0.500583 211 215 207
0.240803 1.268938 -0.201064 0.846690 0.180370 0.500583 210 215 206
0.182258 1.277399 -0.105089 0.846690 0.180370 0.500583 211 214 207
0.243560 1.439967 -0.081056 0.778757 -0.368690 0.507548 211 215 206
0.182258 1.277399 -0.105089 0.778757 -0.368690 0.507548 211 214 207
0.240803 1.268938 -0.201064 0.778757 -0.368690 0.507548 210 215 206
0.064262 1.029816 -0.039907 -0.903370 0.130245 -0.408605 211 215 207
0.068918 0.953767 -0.074442 -0.903370 0.130245 -0.408605 210 214 206
-0.082912 0.673532 0.171907 -0.903370 0.130245 -0.408605 210 215 207
0.033863 0.711086 0.135867 -0.023766 -0.652759 -0.757193 211 215 207
-0.082912 0.673532 0.171907 -0.023766 -0.652759 -0.757193 210 215 207
0.068918 0.953767 -0.074442 -0.023766 -0.652759 -0.757193 210 214 206
0.182258 1.277399 -0.105089 -0.815262 0.475548 0.330458 211 214 207
0.160239 1.306901 -0.201864 -0.815262 0.475548 0.330458 211 215 207
0.064262 1.029816 -0.039907 -0.815262 0.475548 0.330458 211 215 207
0.082305 0.949298 0.544195 -0.898412 0.244987 -0.364467 211 215 207
0.180051 1.559997 0.713750 -0.898412 0.244987 -0.364467 210 214 207
0.208211 1.548610 0.636680 -0.898412 0.244987 -0.364467 211 215 206
0.228304 1.552278 0.766629 -0.102728 -0.304418 0.946983 211 215 207
0.137287 1.071943 0.602347 -0.102728 -0.304418 0.946983 211 215 207
0.215932 1.055473 0.605584 -0.102728 -0.304418 0.946983 211 215 207
0.274718 1.594422 0.589170 0.908975 -0.279585 -0.309187 211 215 207
0.302163 1.627361 0.640071 0.908975 -0.279585 -0.309187 211 215 207
0.293369 1.547356 0.686564 0.908975 -0.279585 -0.309187 211 215 206
0.154230 1.137227 -0.523436 -0.441344 -0.689319 -0.574504 210 214 207
0.056757 1.153522 -0.468106 -0.441344 -0.689319 -0.574504 211 215 207
0.013557 1.512496 -0.865636 -0.441344 -0.689319 -0.574504 211 215 207
0.179003 1.065248 -0.206461 -0.653788 0.569923 0.497743 211 215 207
0.094969 1.343310 -0.635224 -0.653788 0.569923 0.497743 211 215 207
0.056757 1.153522 -0.468106 -0.653788 0.569923 0.497743 211 215 207
0.124982 1.362261 -0.791715 0.980851 -0.077325 0.178750 210 215 207
0.124374 1.472786 -0.740565 0.980851 -0.077325 0.178750 211 215 207
0.094969 1.343310 -0.635224 0.980851 -0.077325 0.178750 211 215 207
0.056757 1.153522 -0.468106 -0.442233 0.641231 0.627099 211 215 207
0.094969 1.343310 -0.635224 -0.442233 0.641231 0.627099 211 215 207
0.013557 1.512496 -0.865636 -0.442233 0.641231 0.627099 211 215 207
0.031427 1.465779 -0.701541 -0.907748 -0.396017 0.138438 210 214 207
0.094969 1.343310 -0.635224 -0.907748 -0.396017 0.138438 211 215 207
0.007566 1.551511 -0.612754 -0.907748 -0.396017 0.138438 211 215 207
0.048725 1.479115 -0.773918 0.823971 0.555064 -0.113911 211 215 207
0.124982 1.362261 -0.791715 0.823971 0.555064 -0.113911 210 215 207
0.013557 1.512496 -0.865636 0.823971 0.555064 -0.113911 211 215 207
0.064262 1.029816 -0.039907 -0.998135 -0.061050 -0.000144 211 215 207
0.056757 1.153522 -0.468106 -0.998135 -0.061050 -0.000144 211 215 207
0.068918 0.953767 -0.074442 -0.998135 -0.061050 -0.000144 210 214 206
0.149810 1.082339 -0.120803 -0.578094 -0.253161 -0.775704 211 215 207
0.064262 1.029816 -0.039907 -0.578094 -0.253161 -0.775704 211 215 207
0.160239 1.306901 -0.201864 -0.578094 -0.253161 -0.775704 211 215 207
0.143723 0.917784 0.089664 0.954395 -0.201916 0.219909 211 215 207
0.082824 0.846051 0.288100 0.954395 -0.201916 0.219909 211 215 207
0.050910 0.649989 0.246584 0.954395 -0.201916 0.219909 211 215 207
0.176373 0.949806 -0.031501 0.582855 -0.670144 -0.459551 210 215 206
0.050910 0.649989 0.246584 0.582855 -0.670144 -0.459551 211 215 207
0.033863 0.711086 0.135867 0.582855 -0.670144 -0.459551 211 215 207
0.179003 1.065248 -0.206461 0.907580 0.344066 0.240660 211 215 207
0.149810 1.082339 -0.120803 0.907580 0.344066 0.240660 211 215 207
0.176373 0.949806 -0.031501 0.907580 0.344066 0.240660 210 215 206
0.047682 1.551356 -0.667066 0.776181 0.264052 0.572555 211 215 207
0.007566 1.551511 -0.612754 0.776181 0.264052 0.572555 211 215 207
0.094969 1.343310 -0.635224 0.776181 0.264052 0.572555 211 215 207
0.046570 1.539777 -0.827692 -0.771372 0.584989 0.250543 211 215 207
0.013557 1.512496 -0.865636 -0.771372 0.584989 0.250543 211 215 207
0.031427 1.465779 -0.701541 -0.771372 0.584989 0.250543 210 214 207
0.119300 1.518479 -0.199572 -0.946153 -0.185946 0.264987 211 215 207
0.160239 1.306901 -0.201864 -0.946153 -0.185946 0.264987 211 215 207
0.143328 1.420065 -0.182837 -0.946153 -0.185946 0.264987 211 214 207
0.221253 1.498051 -0.117815 0.992294 0.107230 -0.062081 211 214 206
0.240803 1.268938 -0.201064 0.992294 0.107230 -0.062081 210 215 206
0.221975 1.420768 -0.239752 0.992294 0.107230 -0.062081 211 215 207
3 0 1 2
3 3 4 5
3 6 7 8
3 9 10 11
3 12 13 14
3 15 16 17
3 18 19 20
3 21 22 23
3 24 25 26
3 27 28 29
3 30 31 32
3 33 34 35
3 36 37 38
3 39 40 41
3 42 43 44
3 45 46 47
3 48 49 50
3 51 52 53
3 54 55 56
3 57 58 59
3 60 61 62
3 63 64 65
3 66 67 68
3 69 70 71
3 72 73 74
3 75 76 77
3 78 79 80
3 81 82 83
3 84 85 86
3 87 88 89
3 90 91 92
3 93 94 95
3 96 97 98
3 99 100 101
3 102 103 104
3 105 106 107
3 108 109 110
3 111 112 113
3 114 115 116
3 117 118 119
3 120 121 122
3 123 124 125
3 126 127 128
3 129 130 131
3 132 133 134
3 135 136 137
3 138 139 140
3 141 142 143
3 144 145 146
3 147 148 149
3 150 151 152
3 153 154 155
3 156 157 158
3 159 160 161
3 162 163 164
3 165 166 167
3 168 169 170
3 171 172 173
3 174 175 176
3 177 178 179
3 180 181 182
3 183 184 185
3 186 187 188
3 189 190 191
3 192 193 194
3 195 196 197
3 198 199 200
3 201 202 203
3 204 205 206
3 207 208 209
3 210 211 212
3 213 214 215
3 216 217 218
3 219 220 221
3 222 223 224
3 225 226 227
3 228 229 230
3 231 232 233
3 234 235 236
3 237 238 239
3 240 241 242
3 243 244 245
3 246 247 248
3 249 250 251
3 252 253 254
3 255 256 257
3 258 259 260
3 261 262 263
3 264 265 266
3 267 268 269
3 270 271 272
3 273 274 275
3 276 277 278
3 279 280 281
3 282 283 284
3 285 286 287
3 288 289 290
3 291 292 293
3 294 295 296
3 297 298 299
3 300 301 302
3 303 304 305
3 306 307 308
3 309 310 311
3 312 313 314
3 315 316 317
3 318 319 320
3 321 322 323
3 324 325 326
3 327 328 329
3 330 331 332
3 333 334 335
3 336 337 338
3 339 340 341
3 342 343 344
3 345 346 347
3 348 349 350
3 351 352 353
3 354 355 356
3 357 358 359
3 360 361 362
3 363 364 365
3 366 367 368
3 369 370 371
3 372 373 374
3 375 376 377
3 378 379 380
3 381 382 383
3 384 385 386
3 387 388 389
3 390 391 392
3 393 394 395
3 396 397 398
3 399 400 401
3 402 403 404
3 405 406 407
3 408 409 410
3 411 412 413
3 414 415 416
3 417 418 419
3 420 421 422
3 423 424 425
3 426 427 428
3 429 430 431
3 432 433 434
3 435 436 437
3 438 439 440
3 441 442 443
3 444 445 446
3 447 448 449
3 450 451 452
3 453 454 455
3 456 457 458
3 459 460 461
3 462 463 464
3 465 466 467
3 468 469 470
3 471 472 473
3 474 475 476
3 477 478 479
3 480 481 482
3 483 484 485
3 486 487 488
3 489 490 491
3 492 493 494
3 495 496 497
3 498 499 500
3 501 502 503
3 504 505 506
3 507 508 509
3 510 511 512
3 513 514 515
3 516 517 518
3 519 520 521
3 522 523 524
3 525 526 527
3 528 529 530
3 531 532 533
3 534 535 536
3 537 538 539
3 540 541 542
3 543 544 545
3 546 547 548
3 549 550 551
3 552 553 554
3 555 556 557
3 558 559 560
3 561 562 563
3 564 565 566
3 567 568 569
3 570 571 572
3 573 574 575
3 576 577 578
3 579 580 581
3 582 583 584
3 585 586 587
3 588 589 590
3 591 592 593
3 594 595 596
3 597 598 599
3 600 601 602
3 603 604 605
3 606 607 608
3 609 610 611
3 612 613 614
3 615 616 617
3 618 619 620
3 621 622 623
3 624 625 626
3 627 628 629
3 630 631 632
3 633 634 635
3 636 637 638
3 639 640 641
3 642 643 644
3 645 646 647
3 648 649 650
3 651 652 653
3 654 655 656
3 657 658 659
3 660 661 662
3 663 664 665
3 666 667 668
3 669 670 671
3 672 673 674
3 675 676 677
3 678 679 680
3 681 682 683
