ply
format ascii 1.0
comment Created by Blender 2.77 (sub 0) - www.blender.org, source file: 'Birch1.blend'
element vertex 214
property float x
property float y
property float z
property float nx
property float ny
property float nz
element face 420
property list uchar uint vertex_indices
end_header
-0.058407 1.317823 -1.166179 -0.430433 -0.768609 -0.473190
0.362934 1.379958 -0.891118 0.683554 -0.660726 -0.310038
0.196828 1.239670 -0.797185 0.238929 -0.947264 -0.213416
0.365374 1.568507 -1.125594 0.812738 -0.224006 -0.537797
0.141547 1.410328 -1.321160 0.201147 -0.522904 -0.828272
-0.092865 1.668776 0.202665 -0.650960 -0.233070 0.722404
0.078017 2.348507 0.356552 -0.301126 0.151402 0.941465
-0.139636 2.371418 0.140939 -0.766656 0.202948 0.609088
0.141812 1.170967 0.036017 -0.159337 -0.897885 0.410321
0.290584 1.391604 0.300890 -0.041261 -0.534288 0.844264
-0.282950 2.077849 -0.044570 -0.943175 0.000580 0.332286
-0.188053 1.561744 -0.019692 -0.878567 -0.331095 0.344157
0.342801 1.219676 -0.097354 0.408002 -0.911802 0.045595
0.399673 1.778774 0.364256 0.236518 -0.067965 0.969237
0.605012 1.372911 0.169058 0.679952 -0.579394 0.449324
0.628861 2.279188 0.214783 0.704245 0.182012 0.686209
0.096573 2.887637 -0.098198 -0.340220 0.826441 0.448531
0.212389 2.712043 0.285651 -0.056124 0.560350 0.826319
0.510685 2.893439 -0.029555 0.576739 0.737266 0.351787
-0.240644 2.101914 1.665136 -0.934996 0.088229 0.343425
-0.150647 3.369892 0.861734 -0.576861 0.691549 0.434706
-0.224800 3.124908 0.601659 -0.993255 0.108341 0.040956
-0.346916 1.456240 1.487540 -0.924772 -0.334758 0.180792
-0.188544 2.560348 -0.037106 -0.828730 0.368450 0.421155
-0.221378 3.178274 0.230475 -0.693289 0.322520 -0.644398
0.089907 2.836360 0.126100 -0.093570 0.168493 -0.981231
-0.188900 2.186346 0.158540 -0.658254 -0.100345 -0.746055
-0.105574 2.370125 1.878128 -0.449751 0.373547 0.811243
0.207654 1.155282 1.685670 0.176885 -0.892178 0.415540
0.009357 1.403655 1.967042 -0.307901 -0.383679 0.870602
-0.104933 1.212841 1.531522 -0.556627 -0.791528 0.252113
-0.157462 1.259806 1.338322 -0.709311 -0.686605 -0.159368
0.081631 1.083716 1.272875 -0.200842 -0.978484 -0.046693
0.766783 1.955098 0.652533 0.983551 -0.109378 -0.143620
0.576117 1.671620 0.220748 0.637226 -0.360302 -0.681234
0.678231 2.230323 0.189996 0.833430 -0.027009 -0.551927
0.453761 2.266682 0.009335 0.237556 -0.010376 -0.971313
0.358454 1.145947 0.747864 0.127049 -0.955443 -0.266366
0.002135 1.543403 0.383026 -0.684225 -0.568285 -0.457015
0.248305 1.414649 0.224290 -0.117100 -0.680990 -0.722831
0.699411 1.382546 0.696635 0.826502 -0.536332 -0.170843
0.682416 1.492084 0.962607 0.943449 -0.280251 0.176916
-0.358276 1.988634 0.568732 -0.954833 -0.172674 -0.241768
0.755263 2.985761 0.516113 0.944365 0.212928 -0.250618
0.796485 2.761235 0.774388 0.983642 0.137120 0.116764
0.788544 2.053656 1.136329 0.977447 -0.026399 0.209418
0.260992 3.425039 0.692022 0.057253 0.943052 0.327586
0.498954 3.484499 0.325106 0.393597 0.764824 -0.509995
-0.174295 3.480009 0.561929 -0.594928 0.801813 -0.055696
0.191196 3.307999 0.267603 -0.006745 0.315622 -0.948851
0.600523 3.412340 0.667959 0.606891 0.760277 0.231452
0.603821 3.117516 1.011306 0.681265 0.512009 0.523118
0.294112 1.407563 1.899568 0.439894 -0.349590 0.827174
0.440925 1.327232 1.619795 0.762200 -0.562517 0.320231
0.524580 1.719526 1.809194 0.752403 -0.126041 0.646504
0.160674 2.580994 1.670761 0.266274 0.544603 0.795251
0.487450 2.086118 1.777966 0.723197 0.255715 0.641530
0.503749 2.658900 1.459615 0.631886 0.419477 0.651692
0.288983 2.083784 1.929338 0.314127 0.230140 0.921049
0.550524 2.355789 1.538659 0.866085 0.215766 0.450880
0.704160 1.666977 1.070327 0.937681 -0.259163 0.231422
-0.122555 1.715055 -1.251844 -0.633869 0.116794 -0.764550
0.330356 3.169705 1.096634 0.178625 0.761589 0.622913
0.018116 1.294686 0.824511 -0.599902 -0.722831 -0.342906
0.241452 2.941383 1.375784 0.142338 0.675588 0.723380
0.385562 1.227610 1.347574 0.589557 -0.799066 0.117832
-0.114897 1.248644 -0.230637 -0.681265 -0.721671 0.122410
-0.318168 1.896651 -0.594904 -0.997101 -0.071871 -0.024903
-0.193987 2.481400 1.535911 -0.938749 0.230445 0.256111
-0.307141 1.726546 -0.999992 -0.945006 -0.072390 -0.318857
0.311118 2.969158 -0.394572 0.430128 0.882443 -0.190374
0.054690 3.059521 -0.512560 -0.089358 0.973113 -0.212195
-0.094520 2.316248 -1.134433 -0.519730 0.354625 -0.777215
0.077476 2.670395 -0.923352 -0.009613 0.623402 -0.781793
0.141155 1.973338 -1.318011 0.073214 0.196753 -0.977691
0.348364 2.079386 -1.160254 0.689596 0.225623 -0.688101
0.470717 2.794923 -0.651292 0.675466 0.570147 -0.467574
0.586563 1.906181 -0.647573 0.933287 0.001465 -0.359081
0.738597 2.136952 -0.175613 0.996185 0.054384 -0.068056
0.714887 1.608926 -0.195059 0.956938 -0.281716 -0.069735
0.705058 2.382510 0.012260 0.933714 0.257241 0.248909
0.098919 2.863427 -0.725379 0.115390 0.749229 -0.652120
-0.320396 2.438607 -0.683118 -0.963591 0.138554 -0.228523
-0.254054 2.870450 -0.497929 -0.801447 0.595752 -0.052004
-0.150282 2.787736 -0.677338 -0.500198 0.601703 -0.622669
0.551322 2.756275 -0.213385 0.924284 0.364116 -0.114414
0.076033 1.522375 -0.885121 0.209723 0.152562 -0.965758
0.041491 1.513076 -0.878820 -0.353954 0.034028 -0.934629
0.007887 1.516420 -0.858783 -0.740440 0.097201 -0.664998
0.101820 1.444867 -0.838543 0.484176 -0.334178 -0.808618
0.088267 1.542350 -0.868986 0.484909 0.651906 -0.582965
0.116834 1.399949 -0.810642 0.551042 -0.397443 -0.733726
0.195664 1.013320 -0.035257 0.942717 -0.321055 -0.090274
0.189365 1.016007 -0.098141 0.923582 -0.356639 -0.140660
0.220619 1.138289 -0.101479 0.970183 -0.224982 -0.089999
0.255245 1.396196 -0.175475 0.979949 -0.105594 -0.168828
0.240165 1.298974 -0.193596 0.976012 -0.119419 -0.181890
0.162616 1.172117 -0.514331 0.931486 -0.260994 -0.253395
0.112917 1.468726 -0.821015 0.906156 0.028291 -0.421949
0.128853 1.421903 -0.789826 0.944578 0.018464 -0.327708
0.153204 1.074412 -0.381140 0.633045 -0.692404 -0.346080
0.171027 1.106563 -0.377427 0.917508 -0.342601 -0.201849
0.177866 1.066336 -0.268633 0.908841 -0.374035 -0.184576
-0.008383 0.747237 0.374386 -0.662069 0.182226 0.726920
0.040377 0.736944 0.388732 -0.054628 -0.176275 0.982818
0.118243 0.778116 0.335691 0.974548 -0.185583 0.125706
-0.023299 0.769751 0.323502 -0.774560 0.576434 0.260292
0.137393 1.120800 1.025025 -0.145665 -0.846614 0.511856
0.093925 0.747237 0.376025 0.444838 -0.577990 0.684103
0.178622 1.130615 1.032561 0.561602 -0.701712 0.438368
0.255326 1.516801 -0.138704 0.831751 0.529740 -0.165960
0.140445 1.352927 -0.732065 0.949644 -0.138981 -0.280679
0.272700 1.483162 -0.125062 0.978210 0.153081 -0.140202
0.270640 1.472900 -0.131010 0.981048 -0.101108 -0.165227
0.236681 1.237585 -0.170835 0.977386 -0.174902 -0.118809
0.271424 1.449522 -0.100330 0.992218 -0.108402 -0.060793
0.126844 1.333381 -0.754840 0.561296 -0.539232 -0.627796
0.147098 1.142672 -0.523500 0.545213 -0.687735 -0.479293
0.137622 1.204178 -0.602631 0.399518 -0.691733 -0.601520
0.302947 1.603983 0.609390 0.999664 -0.021760 0.013215
0.240493 1.076476 0.570620 0.985839 -0.160283 0.048860
0.087757 1.323913 -0.749377 -0.185583 -0.705893 -0.683554
0.215229 1.024716 0.684795 0.923185 -0.343669 0.172002
0.184728 1.062354 0.890200 0.703238 -0.634999 0.319620
0.192322 0.937327 0.577884 0.806879 -0.554186 0.204382
0.202550 1.095480 0.886488 0.936003 -0.300607 0.183050
0.252142 1.191585 0.610539 0.986847 -0.128300 0.098117
0.194139 1.160059 1.023391 0.943999 -0.260811 0.202033
0.220889 1.003950 0.607201 0.931181 -0.336436 0.140263
0.268204 1.392045 0.679895 0.984436 -0.121189 0.127171
0.204034 0.937459 0.504832 0.899075 -0.435469 0.044740
0.162843 0.856583 0.425363 0.868160 -0.494736 0.038392
0.172511 0.949517 0.004229 0.891903 -0.439100 -0.107974
0.183706 1.036590 -0.175735 0.914274 -0.366497 -0.172399
0.160799 0.949385 -0.068824 0.805567 -0.553850 -0.210395
0.071211 1.408880 1.411785 -0.538224 -0.692404 0.480453
0.058385 1.446539 1.450111 -0.573748 -0.661397 0.483047
-0.018334 0.778116 0.333561 -0.930479 -0.273598 0.243568
0.109322 0.848693 0.041312 0.689413 -0.346355 -0.636158
0.091048 1.246043 1.187348 -0.497726 -0.728690 0.470382
0.129363 1.237432 1.208255 -0.182440 -0.821711 0.539842
0.157408 0.847022 0.414437 -0.293039 -0.947691 0.126438
-0.014413 -0.038396 0.076679 -0.016938 -0.776696 0.629597
-0.103417 0.006504 0.058634 -0.420850 -0.291787 0.858882
-0.151097 0.147170 0.020679 -0.987884 -0.135472 -0.075350
-0.093470 -0.038396 0.049357 -0.519883 -0.732719 0.439070
0.007761 0.848693 0.047793 -0.495437 -0.351451 -0.794336
0.056915 0.842044 0.030136 -0.099124 -0.359752 -0.927732
-0.034348 0.771972 0.210083 -0.884579 -0.463454 -0.051729
0.105869 1.132858 -0.515965 -0.146336 -0.829402 -0.539109
0.066761 1.142672 -0.498664 -0.556810 -0.687918 -0.465468
0.059524 1.203975 -0.573861 -0.593799 -0.644185 -0.482040
0.049523 1.326626 -0.724968 -0.649495 -0.580462 -0.491073
0.026862 1.438234 -0.809206 -0.684805 -0.506027 -0.524338
0.001108 1.521756 -0.824850 -0.984863 0.111270 -0.132725
0.100156 0.771972 0.210212 0.590289 -0.790246 -0.164373
0.227187 1.001262 0.544318 0.956542 -0.288705 0.040315
0.011503 1.554322 -0.817461 -0.563677 0.794000 -0.227546
0.102785 1.569109 -0.663770 0.348338 0.931089 -0.108188
0.302163 1.627361 0.640071 0.754112 0.646474 0.115390
0.183584 1.271876 1.200615 0.950255 -0.226295 0.213996
0.171968 1.380346 1.356055 0.957213 -0.164861 0.237709
-0.151370 0.283313 0.120828 -0.800043 -0.235969 0.551561
-0.170441 0.317168 0.072440 -0.999207 0.024201 -0.031190
-0.150064 0.329722 0.018901 -0.805231 0.171850 -0.567492
-0.124531 0.153134 -0.045106 -0.746452 0.079440 -0.660634
-0.051914 0.721540 0.265532 -0.923399 0.339793 0.178350
0.003466 0.819444 0.278402 -0.872066 0.482894 0.079104
0.084867 0.721540 0.265593 0.948180 -0.298990 -0.107273
0.117314 0.819444 0.279498 0.945891 -0.293985 -0.137272
0.039284 0.836635 0.461267 -0.637776 -0.335826 0.693106
0.088438 0.829986 0.478924 0.024171 -0.711844 0.701895
0.140846 0.836635 0.467748 0.735710 -0.632069 0.243171
0.027049 0.856583 0.417150 -0.926328 0.168371 0.336955
0.169145 1.246043 1.215468 0.558489 -0.673360 0.484359
0.119280 1.348229 1.366542 -0.202918 -0.800714 0.563585
0.081046 1.356259 1.343332 -0.500351 -0.721519 0.478530
0.158367 1.356259 1.373959 0.564592 -0.635212 0.526963
0.148357 1.408880 1.443068 0.551805 -0.546556 0.629871
0.160377 1.434884 1.427607 0.949431 -0.034852 0.311991
0.133344 1.446539 1.480188 0.503311 -0.493606 0.709220
0.109888 1.400213 1.434479 -0.215461 -0.759301 0.614002
0.096147 1.437494 1.470869 -0.246437 -0.718619 0.650227
0.073014 1.504184 1.534518 -0.353954 -0.172887 0.919126
0.107557 1.511865 1.542715 0.329356 0.328471 0.885220
-0.004474 0.868641 0.091911 -0.509934 0.857540 -0.067537
-0.076562 0.675246 0.215725 -0.943419 0.293191 0.154668
-0.095147 0.627620 0.186804 -0.955321 0.273049 0.112888
-0.150414 0.456032 0.121146 -0.980529 0.195074 0.022034
-0.154086 0.304615 0.125979 -0.823664 -0.165136 0.542436
-0.137009 0.435639 0.170306 -0.878414 -0.002503 0.477828
-0.129645 0.476425 0.071987 -0.891568 0.280496 -0.355541
-0.088150 0.009487 -0.097207 -0.729514 0.062258 -0.681082
-0.112068 -0.038396 -0.032609 -0.702170 -0.703574 -0.109134
0.087909 -0.038396 -0.114575 0.586261 -0.570330 -0.575335
0.125885 0.859079 0.094624 0.705741 0.708396 -0.006623
0.106507 -0.038396 -0.032609 0.743980 -0.667745 0.022950
-0.086866 0.595447 0.235342 -0.929655 0.164373 0.329661
-0.106458 0.533007 0.209931 -0.926603 0.150517 0.344523
-0.069010 0.640731 0.262837 -0.928465 0.164647 0.332896
-0.076022 -0.038396 -0.114575 -0.490341 -0.586077 -0.644978
0.070461 -0.038396 0.049357 0.489029 -0.734306 0.470748
0.015311 0.746051 0.116600 -0.265542 -0.550218 -0.791650
0.078365 1.389600 -0.804176 -0.215461 -0.605182 -0.766350
0.064623 1.433989 -0.831448 -0.246437 -0.557512 -0.792718
0.039688 1.393050 -0.780130 -0.577105 -0.561235 -0.593219
-0.121826 0.007996 -0.019287 -0.331675 0.083865 -0.939634
-0.133255 0.141206 0.086465 -0.789331 -0.264412 0.554064
0.008851 -0.038396 -0.141897 0.000031 -0.568560 -0.822596
0.144440 1.473676 1.468354 0.923826 0.120182 0.363445
0.039411 1.511865 1.515712 -0.740104 0.329997 0.585925
0.020871 1.559398 -0.620824 -0.560839 0.827876 0.006073
0.229628 1.637622 0.589762 -0.137425 0.990448 0.010620
-0.049771 0.725449 0.151235 -0.248878 -0.551836 -0.795923
3 0 1 2
3 3 1 4
3 5 6 7
3 5 8 9
3 5 10 11
3 12 9 8
3 13 14 15
3 16 17 18
3 19 20 21
3 19 21 22
3 7 6 17
3 7 17 23
3 7 23 10
3 24 25 26
3 27 19 22
3 28 29 30
3 30 31 32
3 33 34 35
3 35 34 36
3 37 38 39
3 39 40 37
3 39 36 34
3 33 41 40
3 21 26 42
3 33 43 44
3 33 44 45
3 42 26 38
3 46 47 48
3 48 20 46
3 49 25 24
3 44 50 51
3 29 27 22
3 30 29 22
3 43 33 35
3 47 43 35
3 52 28 53
3 47 35 36
3 54 52 53
3 25 47 36
3 55 56 57
3 26 25 36
3 29 54 58
3 59 56 45
3 60 41 45
3 60 53 41
3 54 45 56
3 0 61 4
3 62 51 50
3 20 62 50
3 46 20 50
3 22 21 42
3 21 48 24
3 59 44 51
3 31 38 63
3 55 57 64
3 28 32 37
3 65 28 37
3 8 5 11
3 55 64 27
3 41 53 40
3 58 55 27
3 58 27 29
3 65 37 40
3 53 65 40
3 66 8 11
3 32 63 37
3 9 13 6
3 64 51 62
3 67 66 11
3 53 28 65
3 28 52 29
3 32 28 30
3 22 31 30
3 27 68 19
3 48 21 20
3 43 47 50
3 42 31 22
3 44 43 50
3 69 61 0
3 18 70 71
3 10 67 11
3 16 18 71
3 68 27 20
3 72 73 74
3 73 75 74
3 73 76 75
3 76 77 75
3 76 78 77
3 78 79 77
3 78 80 79
3 70 81 71
3 57 59 51
3 17 80 18
3 58 54 56
3 3 74 75
3 24 48 47
3 82 83 72
3 83 84 72
3 84 73 72
3 84 71 73
3 71 81 73
3 81 76 73
3 23 82 10
3 70 18 76
3 18 85 76
3 85 80 76
3 80 78 76
3 85 18 80
3 15 79 80
3 57 56 59
3 61 74 4
3 74 69 72
3 6 15 17
3 49 24 47
3 27 64 20
3 77 79 3
3 79 1 3
3 75 77 3
3 12 2 1
3 79 14 1
3 49 47 25
3 14 12 1
3 72 67 82
3 64 62 20
3 16 71 83
3 19 68 20
3 71 84 83
3 8 0 2
3 26 39 38
3 8 66 0
3 23 17 83
3 66 69 0
3 17 16 83
3 86 87 88
3 89 86 90
3 91 89 90
3 92 93 94
3 95 96 97
3 98 91 90
3 99 98 90
3 100 101 102
3 103 104 105
3 106 103 105
3 107 108 109
3 110 99 90
3 111 99 112
3 113 111 112
3 114 113 112
3 115 114 112
3 116 117 118
3 115 112 119
3 120 115 119
3 116 118 121
3 122 123 124
3 125 120 126
3 127 125 126
3 128 122 124
3 129 127 126
3 120 119 126
3 130 131 132
3 92 130 132
3 133 93 134
3 102 133 134
3 135 136 137
3 100 102 134
3 100 134 138
3 139 135 137
3 140 139 137
3 117 100 138
3 131 141 105
3 107 140 137
3 103 142 104
3 132 131 105
3 143 144 145
3 146 147 148
3 149 146 148
3 150 149 148
3 151 150 148
3 152 151 148
3 91 98 99
3 153 152 148
3 88 153 148
3 95 97 111
3 154 88 148
3 104 108 105
3 155 147 138
3 92 156 130
3 88 154 157
3 95 111 113
3 93 133 114
3 138 149 117
3 90 157 158
3 94 93 114
3 156 94 114
3 129 126 159
3 127 129 159
3 95 113 114
3 96 95 114
3 160 127 159
3 161 160 159
3 97 96 114
3 101 97 114
3 144 162 163
3 144 164 165
3 166 167 148
3 168 169 105
3 170 104 171
3 171 108 172
3 173 103 170
3 130 172 131
3 125 109 123
3 156 124 130
3 140 109 174
3 174 175 140
3 140 176 139
3 174 127 160
3 160 177 174
3 178 161 179
3 179 180 178
3 181 177 178
3 178 182 181
3 182 135 181
3 183 136 182
3 183 180 184
3 166 106 185
3 186 166 185
3 187 186 185
3 188 187 185
3 188 189 190
3 164 191 146
3 165 164 146
3 165 146 192
3 165 192 193
3 194 147 138
3 195 105 196
3 197 198 199
3 185 195 138
3 163 162 189
3 185 138 147
3 146 185 147
3 106 103 137
3 167 106 137
3 192 146 200
3 104 201 108
3 202 146 147
3 101 117 97
3 92 134 93
3 111 91 99
3 191 185 146
3 106 195 185
3 163 188 191
3 203 116 121
3 204 91 203
3 205 204 203
3 206 144 165
3 206 165 193
3 87 153 88
3 87 89 204
3 144 206 193
3 145 144 193
3 201 105 108
3 199 198 103
3 196 138 195
3 162 207 103
3 189 162 103
3 190 189 103
3 198 190 103
3 163 191 164
3 193 192 200
3 197 199 166
3 199 103 106
3 166 199 106
3 166 186 187
3 166 187 188
3 197 166 188
3 198 197 188
3 190 198 188
3 194 200 208
3 194 193 200
3 143 207 144
3 194 145 193
3 114 120 156
3 179 161 159
3 209 179 159
3 102 101 114
3 133 102 114
3 90 158 159
3 110 90 159
3 123 122 125
3 112 110 159
3 119 112 159
3 128 156 120
3 122 128 120
3 126 119 159
3 209 159 184
3 125 122 120
3 194 142 145
3 180 209 184
3 121 205 203
3 154 148 210
3 194 201 142
3 157 154 210
3 211 157 210
3 88 90 86
3 176 135 139
3 183 184 210
3 137 136 210
3 148 137 210
3 211 210 212
3 157 211 212
3 158 157 212
3 159 158 212
3 194 196 201
3 97 116 111
3 207 143 145
3 137 155 108
3 118 117 149
3 121 118 149
3 147 146 149
3 149 150 151
3 149 151 152
3 121 149 152
3 103 207 145
3 175 135 176
3 205 152 153
3 147 200 146
3 123 109 108
3 124 123 108
3 172 124 108
3 131 172 108
3 141 131 108
3 105 141 108
3 132 105 155
3 134 132 155
3 138 134 155
3 159 210 184
3 105 108 155
3 0 4 1
3 5 9 6
3 5 7 10
3 12 14 9
3 13 9 14
3 33 40 34
3 37 63 38
3 39 34 40
3 33 45 41
3 21 24 26
3 46 50 47
3 55 58 56
3 29 52 54
3 60 54 53
3 54 60 45
3 59 45 44
3 32 31 63
3 64 57 51
3 67 69 66
3 42 38 31
3 10 82 67
3 70 76 81
3 17 15 80
3 3 4 74
3 23 83 82
3 15 14 79
3 74 61 69
3 6 13 15
3 12 8 2
3 72 69 67
3 26 36 39
3 107 137 108
3 110 112 99
3 103 145 142
3 155 148 147
3 92 94 156
3 138 147 149
3 144 207 162
3 144 163 164
3 166 106 167
3 168 155 169
3 170 103 104
3 171 104 108
3 173 137 103
3 130 124 172
3 125 127 109
3 156 128 124
3 140 107 109
3 174 177 175
3 140 175 176
3 174 109 127
3 160 161 177
3 178 177 161
3 179 209 180
3 181 175 177
3 178 180 182
3 182 136 135
3 183 210 136
3 183 182 180
3 188 163 189
3 194 208 147
3 104 142 201
3 202 213 146
3 101 100 117
3 92 132 134
3 111 116 91
3 191 188 185
3 106 105 195
3 203 91 116
3 204 89 91
3 205 153 204
3 87 204 153
3 87 86 89
3 201 196 105
3 196 194 138
3 114 115 120
3 121 152 205
3 88 157 90
3 97 117 116
3 137 148 155
3 175 181 135
3 147 208 200
3 159 212 210
