ply
format ascii 1.0
comment Created by Blender 2.77 (sub 0) - www.blender.org, source file: ''
element vertex 318
property float x
property float y
property float z
property float nx
property float ny
property float nz
property uchar red
property uchar green
property uchar blue
element face 106
property list uchar uint vertex_indices
end_header
0.191153 0.291713 -0.146953 -0.468551 0.314203 0.825673 0 0 0
-0.000977 0.273628 -0.249101 -0.468551 0.314203 0.825673 0 0 0
0.109393 0.069440 -0.108766 -0.468551 0.314203 0.825673 0 0 0
-0.000977 0.273628 -0.249101 0.494152 0.475157 0.728038 0 0 0
-0.196352 0.303167 -0.135769 0.494152 0.475157 0.728038 0 0 0
-0.066998 0.038715 -0.050972 0.494152 0.475157 0.728038 0 0 0
-0.000977 0.273628 -0.249101 0.147489 0.613120 0.776100 0 0 0
-0.066998 0.038715 -0.050972 0.147489 0.613120 0.776100 0 0 0
0.109393 0.069440 -0.108766 0.147489 0.613120 0.776100 0 0 0
0.191153 0.291713 -0.146953 -0.290025 -0.686280 0.667012 0 0 0
-0.015517 0.438654 -0.085631 -0.290025 -0.686280 0.667012 0 0 0
-0.000977 0.273628 -0.249101 -0.290025 -0.686280 0.667012 0 0 0
-0.015517 0.438654 -0.085631 0.301181 -0.657549 0.690593 0 0 0
-0.196352 0.303167 -0.135769 0.301181 -0.657549 0.690593 0 0 0
-0.000977 0.273628 -0.249101 0.301181 -0.657549 0.690593 0 0 0
0.004200 0.153907 -0.252443 -0.012876 -0.866082 -0.499736 0 0 0
0.109393 0.069440 -0.108766 -0.012876 -0.866082 -0.499736 0 0 0
-0.066998 0.038715 -0.050972 -0.012876 -0.866082 -0.499736 0 0 0
0.191153 0.291713 -0.146953 0.107678 0.508077 -0.854554 0 0 0
0.004200 0.153907 -0.252443 0.107678 0.508077 -0.854554 0 0 0
-0.015517 0.438654 -0.085631 0.107678 0.508077 -0.854554 0 0 0
0.004200 0.153907 -0.252443 -0.682772 -0.503683 -0.529269 0 0 0
-0.066998 0.038715 -0.050972 -0.682772 -0.503683 -0.529269 0 0 0
-0.196352 0.303167 -0.135769 -0.682772 -0.503683 -0.529269 0 0 0
0.063993 0.074632 0.101921 -0.055212 -0.990251 0.127884 0 0 0
-0.168550 0.072179 -0.017466 -0.055212 -0.990251 0.127884 0 0 0
0.070574 0.046230 -0.115163 -0.055212 -0.990251 0.127884 0 0 0
-0.025019 0.284591 0.222426 0.543691 -0.232375 0.806475 0 0 0
0.063993 0.074632 0.101921 0.543691 -0.232375 0.806475 0 0 0
0.190544 0.286512 0.077656 0.543691 -0.232375 0.806475 0 0 0
0.190544 0.286512 0.077656 0.904460 -0.425299 -0.032755 0 0 0
0.070574 0.046230 -0.115163 0.904460 -0.425299 -0.032755 0 0 0
0.186191 0.293650 -0.135223 0.904460 -0.425299 -0.032755 0 0 0
-0.015214 0.425387 -0.018943 -0.148729 0.856794 0.493745 0 0 0
-0.247237 0.305814 0.118659 -0.148729 0.856794 0.493745 0 0 0
-0.025019 0.284591 0.222426 -0.148729 0.856794 0.493745 0 0 0
-0.015214 0.425387 -0.018943 0.319857 0.812691 0.487057 0 0 0
-0.025019 0.284591 0.222426 0.319857 0.812691 0.487057 0 0 0
0.190544 0.286512 0.077656 0.319857 0.812691 0.487057 0 0 0
-0.015214 0.425387 -0.018943 0.554005 0.832348 0.016582 0 0 0
0.190544 0.286512 0.077656 0.554005 0.832348 0.016582 0 0 0
0.186191 0.293650 -0.135223 0.554005 0.832348 0.016582 0 0 0
-0.015214 0.425387 -0.018943 0.250462 0.827078 -0.503201 0 0 0
0.186191 0.293650 -0.135223 0.250462 0.827078 -0.503201 0 0 0
-0.002988 0.280920 -0.250308 0.250462 0.827078 -0.503201 0 0 0
-0.226320 0.285337 -0.129693 -0.265176 0.811499 -0.520721 0 0 0
-0.015214 0.425387 -0.018943 -0.265176 0.811499 -0.520721 0 0 0
-0.002988 0.280920 -0.250308 -0.265176 0.811499 -0.520721 0 0 0
-0.247237 0.305814 0.118659 -0.507360 0.854271 -0.113167 0 0 0
-0.015214 0.425387 -0.018943 -0.507360 0.854271 -0.113167 0 0 0
-0.226320 0.285337 -0.129693 -0.507360 0.854271 -0.113167 0 0 0
-0.226320 0.285337 -0.129693 -0.955694 -0.288856 -0.056674 0 0 0
-0.168550 0.072179 -0.017466 -0.955694 -0.288856 -0.056674 0 0 0
-0.247237 0.305814 0.118659 -0.955694 -0.288856 -0.056674 0 0 0
-0.025019 0.284591 0.222426 -0.368745 -0.575351 0.730067 0 0 0
-0.168550 0.072179 -0.017466 -0.368745 -0.575351 0.730067 0 0 0
0.063993 0.074632 0.101921 -0.368745 -0.575351 0.730067 0 0 0
-0.002988 0.280920 -0.250308 -0.416709 -0.509358 -0.752933 0 0 0
-0.168550 0.072179 -0.017466 -0.416709 -0.509358 -0.752933 0 0 0
-0.226320 0.285337 -0.129693 -0.416709 -0.509358 -0.752933 0 0 0
0.155817 0.258409 0.222118 0.240298 -0.760171 0.603653 0 0 0
-0.235756 0.282868 0.408793 0.240298 -0.760171 0.603653 0 0 0
0.014965 0.020852 -0.020965 0.240298 -0.760171 0.603653 0 0 0
0.387662 0.444341 -0.032233 0.737899 -0.644029 0.201820 0 0 0
0.155817 0.258409 0.222118 0.737899 -0.644029 0.201820 0 0 0
0.014965 0.020852 -0.020965 0.737899 -0.644029 0.201820 0 0 0
0.150245 0.262273 0.215568 -0.733110 0.638987 -0.232904 0 0 0
0.387662 0.444341 -0.032233 -0.733110 0.638987 -0.232904 0 0 0
0.014965 0.020852 -0.020965 -0.733110 0.638987 -0.232904 0 0 0
0.387662 0.444341 -0.032233 0.738559 0.001337 0.674187 0 0 0
0.205844 0.705929 0.166427 0.738559 0.001337 0.674187 0 0 0
0.155817 0.258409 0.222118 0.738559 0.001337 0.674187 0 0 0
0.205844 0.705929 0.166427 0.383150 0.071769 0.920894 0 0 0
0.062094 0.797811 0.219075 0.383150 0.071769 0.920894 0 0 0
0.155817 0.258409 0.222118 0.383150 0.071769 0.920894 0 0 0
0.205844 0.705929 0.166427 -0.727547 0.015204 -0.685890 0 0 0
0.387662 0.444341 -0.032233 -0.727547 0.015204 -0.685890 0 0 0
0.150245 0.262273 0.215568 -0.727547 0.015204 -0.685890 0 0 0
0.062094 0.797811 0.219075 0.698599 0.125358 0.704447 0 0 0
-0.057014 0.578029 0.376306 0.698599 0.125358 0.704447 0 0 0
0.155817 0.258409 0.222118 0.698599 0.125358 0.704447 0 0 0
0.155817 0.258409 0.222118 0.417327 -0.154146 0.895588 0 0 0
-0.057014 0.578029 0.376306 0.417327 -0.154146 0.895588 0 0 0
-0.235756 0.282868 0.408793 0.417327 -0.154146 0.895588 0 0 0
-0.057014 0.578029 0.376306 -0.621273 -0.008930 -0.783543 0 0 0
0.205844 0.705929 0.166427 -0.621273 -0.008930 -0.783543 0 0 0
0.150245 0.262273 0.215568 -0.621273 -0.008930 -0.783543 0 0 0
-0.057014 0.578029 0.376306 -0.434372 0.165591 -0.885382 0 0 0
0.150245 0.262273 0.215568 -0.434372 0.165591 -0.885382 0 0 0
-0.235756 0.282868 0.408793 -0.434372 0.165591 -0.885382 0 0 0
0.062094 0.797811 0.219075 -0.495863 -0.311246 -0.810707 0 0 0
0.205844 0.705929 0.166427 -0.495863 -0.311246 -0.810707 0 0 0
-0.057014 0.578029 0.376306 -0.495863 -0.311246 -0.810707 0 0 0
-0.235756 0.282868 0.408793 -0.265559 0.746522 -0.610069 0 0 0
0.150245 0.262273 0.215568 -0.265559 0.746522 -0.610069 0 0 0
0.014965 0.020852 -0.020965 -0.265559 0.746522 -0.610069 0 0 0
0.314343 0.242403 -0.138447 0.587972 -0.808431 -0.027003 0 0 0
0.240877 0.177217 0.213457 0.587972 -0.808431 -0.027003 0 0 0
0.002207 0.011209 -0.013378 0.587972 -0.808431 -0.027003 0 0 0
0.240877 0.177217 0.213457 -0.601451 0.797389 0.049267 0 0 0
0.305741 0.247719 -0.135782 -0.601451 0.797389 0.049267 0 0 0
0.002207 0.011209 -0.013378 -0.601451 0.797389 0.049267 0 0 0
0.097055 0.176830 -0.329955 0.495842 -0.821599 -0.281274 0 0 0
0.314343 0.242403 -0.138447 0.495842 -0.821599 -0.281274 0 0 0
0.002207 0.011209 -0.013378 0.495842 -0.821599 -0.281274 0 0 0
0.305741 0.247719 -0.135782 -0.523140 0.809432 0.266729 0 0 0
0.097055 0.176830 -0.329955 -0.523140 0.809432 0.266729 0 0 0
0.002207 0.011209 -0.013378 -0.523140 0.809432 0.266729 0 0 0
0.130446 0.433414 -0.506867 0.850671 -0.151786 -0.503308 0 0 0
0.293028 0.712249 -0.316167 0.850671 -0.151786 -0.503308 0 0 0
0.314343 0.242403 -0.138447 0.850671 -0.151786 -0.503308 0 0 0
0.293028 0.712249 -0.316167 0.996250 0.012832 -0.085559 0 0 0
0.303526 0.849425 -0.173361 0.996250 0.012832 -0.085559 0 0 0
0.314343 0.242403 -0.138447 0.996250 0.012832 -0.085559 0 0 0
0.293028 0.712249 -0.316167 -0.856974 0.166005 0.487892 0 0 0
0.130446 0.433414 -0.506867 -0.856974 0.166005 0.487892 0 0 0
0.305741 0.247719 -0.135782 -0.856974 0.166005 0.487892 0 0 0
0.303526 0.849425 -0.173361 0.888303 -0.010578 -0.459135 0 0 0
0.419939 0.647190 0.056528 0.888303 -0.010578 -0.459135 0 0 0
0.314343 0.242403 -0.138447 0.888303 -0.010578 -0.459135 0 0 0
0.419939 0.647190 0.056528 0.972953 -0.220228 -0.069727 0 0 0
0.388444 0.425885 0.316024 0.972953 -0.220228 -0.069727 0 0 0
0.314343 0.242403 -0.138447 0.972953 -0.220228 -0.069727 0 0 0
0.419939 0.647190 0.056528 -0.935614 0.105247 0.336971 0 0 0
0.293028 0.712249 -0.316167 -0.935614 0.105247 0.336971 0 0 0
0.305741 0.247719 -0.135782 -0.935614 0.105247 0.336971 0 0 0
0.388444 0.425885 0.316024 -0.968043 0.236291 0.084021 0 0 0
0.419939 0.647190 0.056528 -0.968043 0.236291 0.084021 0 0 0
0.305741 0.247719 -0.135782 -0.968043 0.236291 0.084021 0 0 0
0.130446 0.433414 -0.506867 0.656168 -0.484363 -0.578650 0 0 0
0.314343 0.242403 -0.138447 0.656168 -0.484363 -0.578650 0 0 0
0.097055 0.176830 -0.329955 0.656168 -0.484363 -0.578650 0 0 0
0.305741 0.247719 -0.135782 -0.680754 0.473782 0.558663 0 0 0
0.130446 0.433414 -0.506867 -0.680754 0.473782 0.558663 0 0 0
0.097055 0.176830 -0.329955 -0.680754 0.473782 0.558663 0 0 0
0.314343 0.242403 -0.138447 0.843057 -0.532224 0.077414 0 0 0
0.388444 0.425885 0.316024 0.843057 -0.532224 0.077414 0 0 0
0.240877 0.177217 0.213457 0.843057 -0.532224 0.077414 0 0 0
0.388444 0.425885 0.316024 -0.849325 0.525334 -0.051692 0 0 0
0.305741 0.247719 -0.135782 -0.849325 0.525334 -0.051692 0 0 0
0.240877 0.177217 0.213457 -0.849325 0.525334 -0.051692 0 0 0
0.303526 0.849425 -0.173361 -0.934535 -0.219827 0.279857 0 0 0
0.293028 0.712249 -0.316167 -0.934535 -0.219827 0.279857 0 0 0
0.419939 0.647190 0.056528 -0.934535 -0.219827 0.279857 0 0 0
0.048246 0.141960 -0.402671 0.033047 -0.953986 -0.298023 0 0 0
0.121759 0.027834 -0.029195 0.033047 -0.953986 -0.298023 0 0 0
-0.085765 0.029788 -0.058464 0.033047 -0.953986 -0.298023 0 0 0
0.121759 0.027834 -0.029195 -0.036599 0.945806 0.322663 0 0 0
0.047220 0.150577 -0.397441 -0.036599 0.945806 0.322663 0 0 0
-0.085765 0.029788 -0.058464 -0.036599 0.945806 0.322663 0 0 0
-0.346327 0.246000 -0.582106 -0.091798 -0.935692 -0.340667 0 0 0
0.048246 0.141960 -0.402671 -0.091798 -0.935692 -0.340667 0 0 0
-0.085765 0.029788 -0.058464 -0.091798 -0.935692 -0.340667 0 0 0
0.047220 0.150577 -0.397441 0.059289 0.932745 0.355627 0 0 0
-0.346327 0.246000 -0.582106 0.059289 0.932745 0.355627 0 0 0
-0.085765 0.029788 -0.058464 0.059289 0.932745 0.355627 0 0 0
-0.346327 0.246000 -0.582106 0.099828 -0.749698 -0.654207 0 0 0
0.108994 0.525404 -0.832815 0.099828 -0.749698 -0.654207 0 0 0
0.048246 0.141960 -0.402671 0.099828 -0.749698 -0.654207 0 0 0
0.108994 0.525404 -0.832815 -0.115208 0.760814 0.638662 0 0 0
-0.346327 0.246000 -0.582106 -0.115208 0.760814 0.638662 0 0 0
0.047220 0.150577 -0.397441 -0.115208 0.760814 0.638662 0 0 0
0.108994 0.525404 -0.832815 0.180245 -0.746747 -0.640219 0 0 0
0.507817 0.240037 -0.387682 0.180245 -0.746747 -0.640219 0 0 0
0.048246 0.141960 -0.402671 0.180245 -0.746747 -0.640219 0 0 0
0.507817 0.240037 -0.387682 -0.160809 0.759140 0.630751 0 0 0
0.108994 0.525404 -0.832815 -0.160809 0.759140 0.630751 0 0 0
0.047220 0.150577 -0.397441 -0.160809 0.759140 0.630751 0 0 0
0.048246 0.141960 -0.402671 0.207587 -0.923347 -0.323015 0 0 0
0.507817 0.240037 -0.387682 0.207587 -0.923347 -0.323015 0 0 0
0.121759 0.027834 -0.029195 0.207587 -0.923347 -0.323015 0 0 0
0.507817 0.240037 -0.387682 -0.186027 0.920215 0.344380 0 0 0
0.047220 0.150577 -0.397441 -0.186027 0.920215 0.344380 0 0 0
0.121759 0.027834 -0.029195 -0.186027 0.920215 0.344380 0 0 0
0.367433 0.141959 0.125248 0.277368 -0.953987 0.113913 0 0 0
-0.011836 0.027835 0.092974 0.277368 -0.953987 0.113913 0 0 0
0.073498 0.029788 -0.098447 0.277368 -0.953987 0.113913 0 0 0
-0.011836 0.027835 0.092974 -0.300075 0.945806 -0.124119 0 0 0
0.362690 0.150577 0.122821 -0.300075 0.945806 -0.124119 0 0 0
0.073498 0.029788 -0.098447 -0.300075 0.945806 -0.124119 0 0 0
0.647983 0.245582 -0.204447 0.352592 -0.935758 0.005927 0 0 0
0.367433 0.141959 0.125248 0.352592 -0.935758 0.005927 0 0 0
0.073498 0.029788 -0.098447 0.352592 -0.935758 0.005927 0 0 0
0.362690 0.150577 0.122821 -0.358009 0.932804 -0.041302 0 0 0
0.647983 0.245582 -0.204447 -0.358009 0.932804 -0.041302 0 0 0
0.073498 0.029788 -0.098447 -0.358009 0.932804 -0.041302 0 0 0
0.647983 0.245582 -0.204447 0.601490 -0.749603 0.276233 0 0 0
0.764120 0.525481 0.302219 0.601490 -0.749603 0.276233 0 0 0
0.367433 0.141959 0.125248 0.601490 -0.749603 0.276233 0 0 0
0.764120 0.525481 0.302219 -0.582293 0.760720 -0.286775 0 0 0
0.647983 0.245582 -0.204447 -0.582293 0.760720 -0.286775 0 0 0
0.362690 0.150577 0.122821 -0.582293 0.760720 -0.286775 0 0 0
0.764120 0.525481 0.302219 0.565847 -0.746657 0.349744 0 0 0
0.226351 0.240036 0.562883 0.565847 -0.746657 0.349744 0 0 0
0.367433 0.141959 0.125248 0.565847 -0.746657 0.349744 0 0 0
0.226351 0.240036 0.562883 -0.562105 0.759049 -0.328456 0 0 0
0.764120 0.525481 0.302219 -0.562105 0.759049 -0.328456 0 0 0
0.362690 0.150577 0.122821 -0.562105 0.759049 -0.328456 0 0 0
0.367433 0.141959 0.125248 0.253285 -0.923346 0.288580 0 0 0
0.226351 0.240036 0.562883 0.253285 -0.923346 0.288580 0 0 0
-0.011836 0.027835 0.092974 0.253285 -0.923346 0.288580 0 0 0
0.226351 0.240036 0.562883 -0.279764 0.920215 -0.273745 0 0 0
0.362690 0.150577 0.122821 -0.279764 0.920215 -0.273745 0 0 0
-0.011836 0.027835 0.092974 -0.279764 0.920215 -0.273745 0 0 0
-0.048297 0.084178 0.345559 0.014030 -0.988061 0.153424 0 0 0
-0.114987 0.023145 -0.041401 0.014030 -0.988061 0.153424 0 0 0
0.092102 0.030950 -0.010073 0.014030 -0.988061 0.153424 0 0 0
-0.114987 0.023145 -0.041401 -0.010006 0.983805 -0.178964 0 0 0
-0.047690 0.093514 0.341671 -0.010006 0.983805 -0.178964 0 0 0
0.092102 0.030950 -0.010073 -0.010006 0.983805 -0.178964 0 0 0
0.340075 0.179783 0.542378 0.137689 -0.970163 0.199564 0 0 0
-0.048297 0.084178 0.345559 0.137689 -0.970163 0.199564 0 0 0
0.092102 0.030950 -0.010073 0.137689 -0.970163 0.199564 0 0 0
-0.047690 0.093514 0.341671 -0.105034 0.971068 -0.214465 0 0 0
0.340075 0.179783 0.542378 -0.105034 0.971068 -0.214465 0 0 0
0.092102 0.030950 -0.010073 -0.105034 0.971068 -0.214465 0 0 0
0.340075 0.179783 0.542378 -0.063874 -0.842311 0.535193 0 0 0
-0.129357 0.396234 0.827012 -0.063874 -0.842311 0.535193 0 0 0
-0.048297 0.084178 0.345559 -0.063874 -0.842311 0.535193 0 0 0
-0.129357 0.396234 0.827012 0.078634 0.851744 -0.518024 0 0 0
0.340075 0.179783 0.542378 0.078634 0.851744 -0.518024 0 0 0
-0.047690 0.093514 0.341671 0.078634 0.851744 -0.518024 0 0 0
-0.129357 0.396234 0.827012 -0.144304 -0.841280 0.520984 0 0 0
-0.512164 0.160667 0.340589 -0.144304 -0.841280 0.520984 0 0 0
-0.048297 0.084178 0.345559 -0.144304 -0.841280 0.520984 0 0 0
-0.512164 0.160667 0.340589 0.124248 0.851162 -0.509986 0 0 0
-0.129357 0.396234 0.827012 0.124248 0.851162 -0.509986 0 0 0
-0.047690 0.093514 0.341671 0.124248 0.851162 -0.509986 0 0 0
-0.048297 0.084178 0.345559 -0.161899 -0.970083 0.180909 0 0 0
-0.512164 0.160667 0.340589 -0.161899 -0.970083 0.180909 0 0 0
-0.114987 0.023145 -0.041401 -0.161899 -0.970083 0.180909 0 0 0
-0.512164 0.160667 0.340589 0.140583 0.969094 -0.202716 0 0 0
-0.047690 0.093514 0.341671 0.140583 0.969094 -0.202716 0 0 0
-0.114987 0.023145 -0.041401 0.140583 0.969094 -0.202716 0 0 0
0.006246 0.022936 -0.155888 0.044501 -0.998855 0.017552 0 0 0
0.042738 0.028187 0.050433 0.044501 -0.998855 0.017552 0 0 0
-0.342552 0.010735 0.034120 0.044501 -0.998855 0.017552 0 0 0
0.042738 0.028187 0.050433 -0.018710 0.999580 -0.022132 0 0 0
0.006246 0.022936 -0.155888 -0.018710 0.999580 -0.022132 0 0 0
-0.340472 0.020648 0.033871 -0.018710 0.999580 -0.022132 0 0 0
0.042738 0.028187 0.050433 0.038408 -0.987967 0.149821 0 0 0
-0.416578 0.073731 0.468512 0.038408 -0.987967 0.149821 0 0 0
-0.342552 0.010735 0.034120 0.038408 -0.987967 0.149821 0 0 0
-0.416578 0.073731 0.468512 -0.014177 0.992223 -0.123664 0 0 0
0.042738 0.028187 0.050433 -0.014177 0.992223 -0.123664 0 0 0
-0.340472 0.020648 0.033871 -0.014177 0.992223 -0.123664 0 0 0
-0.416578 0.073731 0.468512 -0.362017 -0.929303 0.073076 0 0 0
-0.873167 0.224669 0.126044 -0.362017 -0.929303 0.073076 0 0 0
-0.342552 0.010735 0.034120 -0.362017 -0.929303 0.073076 0 0 0
-0.873167 0.224669 0.126044 0.349127 0.935568 -0.053130 0 0 0
-0.416578 0.073731 0.468512 0.349127 0.935568 -0.053130 0 0 0
-0.340472 0.020648 0.033871 0.349127 0.935568 -0.053130 0 0 0
-0.873167 0.224669 0.126044 -0.375091 -0.926955 -0.007854 0 0 0
-0.503115 0.079413 -0.403300 -0.375091 -0.926955 -0.007854 0 0 0
-0.342552 0.010735 0.034120 -0.375091 -0.926955 -0.007854 0 0 0
-0.503115 0.079413 -0.403300 0.356584 0.934236 -0.007081 0 0 0
-0.873167 0.224669 0.126044 0.356584 0.934236 -0.007081 0 0 0
-0.340472 0.020648 0.033871 0.356584 0.934236 -0.007081 0 0 0
-0.342552 0.010735 0.034120 -0.041674 -0.989271 -0.140025 0 0 0
-0.503115 0.079413 -0.403300 -0.041674 -0.989271 -0.140025 0 0 0
0.006246 0.022936 -0.155888 -0.041674 -0.989271 -0.140025 0 0 0
-0.503115 0.079413 -0.403300 0.055199 0.992081 0.112821 0 0 0
-0.340472 0.020648 0.033871 0.055199 0.992081 0.112821 0 0 0
0.006246 0.022936 -0.155888 0.055199 0.992081 0.112821 0 0 0
-0.300543 0.170391 -0.093357 -0.192854 -0.821115 -0.537194 0 0 0
-0.129971 0.359870 -0.444217 -0.192854 -0.821115 -0.537194 0 0 0
0.033688 0.039288 -0.012952 -0.192854 -0.821115 -0.537194 0 0 0
-0.129971 0.359870 -0.444217 0.220356 0.821008 0.526677 0 0 0
-0.294492 0.176772 -0.089963 0.220356 0.821008 0.526677 0 0 0
0.033688 0.039288 -0.012952 0.220356 0.821008 0.526677 0 0 0
-0.405229 0.244313 0.276235 -0.380030 -0.921786 0.076725 0 0 0
-0.300543 0.170391 -0.093357 -0.380030 -0.921786 0.076725 0 0 0
0.033688 0.039288 -0.012952 -0.380030 -0.921786 0.076725 0 0 0
-0.294492 0.176772 -0.089963 0.395771 0.917017 -0.049453 0 0 0
-0.405229 0.244313 0.276235 0.395771 0.917017 -0.049453 0 0 0
0.033688 0.039288 -0.012952 0.395771 0.917017 -0.049453 0 0 0
-0.405229 0.244313 0.276235 -0.907502 -0.378926 -0.181259 0 0 0
-0.491040 0.547512 0.072016 -0.907502 -0.378926 -0.181259 0 0 0
-0.300543 0.170391 -0.093357 -0.907502 -0.378926 -0.181259 0 0 0
-0.491040 0.547512 0.072016 -0.814964 -0.168525 -0.554466 0 0 0
-0.453838 0.691624 -0.026466 -0.814964 -0.168525 -0.554466 0 0 0
-0.300543 0.170391 -0.093357 -0.814964 -0.168525 -0.554466 0 0 0
-0.491040 0.547512 0.072016 0.899134 0.389251 0.200104 0 0 0
-0.405229 0.244313 0.276235 0.899134 0.389251 0.200104 0 0 0
-0.294492 0.176772 -0.089963 0.899134 0.389251 0.200104 0 0 0
-0.453838 0.691624 -0.026466 -0.946483 -0.252574 -0.200939 0 0 0
-0.363466 0.541669 -0.263659 -0.946483 -0.252574 -0.200939 0 0 0
-0.300543 0.170391 -0.093357 -0.946483 -0.252574 -0.200939 0 0 0
-0.363466 0.541669 -0.263659 -0.732874 -0.382340 -0.562771 0 0 0
-0.129971 0.359870 -0.444217 -0.732874 -0.382340 -0.562771 0 0 0
-0.300543 0.170391 -0.093357 -0.732874 -0.382340 -0.562771 0 0 0
-0.363466 0.541669 -0.263659 0.885879 0.325023 0.331025 0 0 0
-0.491040 0.547512 0.072016 0.885879 0.325023 0.331025 0 0 0
-0.294492 0.176772 -0.089963 0.885879 0.325023 0.331025 0 0 0
-0.129971 0.359870 -0.444217 0.734885 0.399709 0.547883 0 0 0
-0.363466 0.541669 -0.263659 0.734885 0.399709 0.547883 0 0 0
-0.294492 0.176772 -0.089963 0.734885 0.399709 0.547883 0 0 0
-0.363466 0.541669 -0.263659 0.934774 0.001450 0.355240 0 0 0
-0.453838 0.691624 -0.026466 0.934774 0.001450 0.355240 0 0 0
-0.491040 0.547512 0.072016 0.934774 0.001450 0.355240 0 0 0
0.004200 0.153907 -0.252443 0.643569 -0.353371 -0.678931 0 0 0
0.191153 0.291713 -0.146953 0.643569 -0.353371 -0.678931 0 0 0
0.109393 0.069440 -0.108766 0.643569 -0.353371 -0.678931 0 0 0
-0.015517 0.438654 -0.085631 -0.132053 0.494225 -0.859246 0 0 0
0.004200 0.153907 -0.252443 -0.132053 0.494225 -0.859246 0 0 0
-0.196352 0.303167 -0.135769 -0.132053 0.494225 -0.859246 0 0 0
0.190544 0.286512 0.077656 0.859491 -0.502833 0.091842 0 0 0
0.063993 0.074632 0.101921 0.859491 -0.502833 0.091842 0 0 0
0.070574 0.046230 -0.115163 0.859491 -0.502833 0.091842 0 0 0
-0.025019 0.284591 0.222426 -0.394234 -0.558159 0.730095 0 0 0
-0.247237 0.305814 0.118659 -0.394234 -0.558159 0.730095 0 0 0
-0.168550 0.072179 -0.017466 -0.394234 -0.558159 0.730095 0 0 0
-0.002988 0.280920 -0.250308 -0.366658 -0.547908 -0.751904 0 0 0
0.070574 0.046230 -0.115163 -0.366658 -0.547908 -0.751904 0 0 0
-0.168550 0.072179 -0.017466 -0.366658 -0.547908 -0.751904 0 0 0
-0.002988 0.280920 -0.250308 0.510024 -0.303582 -0.804807 0 0 0
0.186191 0.293650 -0.135223 0.510024 -0.303582 -0.804807 0 0 0
0.070574 0.046230 -0.115163 0.510024 -0.303582 -0.804807 0 0 0
3 0 1 2
3 3 4 5
3 6 7 8
3 9 10 11
3 12 13 14
3 15 16 17
3 18 19 20
3 21 22 23
3 24 25 26
3 27 28 29
3 30 31 32
3 33 34 35
3 36 37 38
3 39 40 41
3 42 43 44
3 45 46 47
3 48 49 50
3 51 52 53
3 54 55 56
3 57 58 59
3 60 61 62
3 63 64 65
3 66 67 68
3 69 70 71
3 72 73 74
3 75 76 77
3 78 79 80
3 81 82 83
3 84 85 86
3 87 88 89
3 90 91 92
3 93 94 95
3 96 97 98
3 99 100 101
3 102 103 104
3 105 106 107
3 108 109 110
3 111 112 113
3 114 115 116
3 117 118 119
3 120 121 122
3 123 124 125
3 126 127 128
3 129 130 131
3 132 133 134
3 135 136 137
3 138 139 140
3 141 142 143
3 144 145 146
3 147 148 149
3 150 151 152
3 153 154 155
3 156 157 158
3 159 160 161
3 162 163 164
3 165 166 167
3 168 169 170
3 171 172 173
3 174 175 176
3 177 178 179
3 180 181 182
3 183 184 185
3 186 187 188
3 189 190 191
3 192 193 194
3 195 196 197
3 198 199 200
3 201 202 203
3 204 205 206
3 207 208 209
3 210 211 212
3 213 214 215
3 216 217 218
3 219 220 221
3 222 223 224
3 225 226 227
3 228 229 230
3 231 232 233
3 234 235 236
3 237 238 239
3 240 241 242
3 243 244 245
3 246 247 248
3 249 250 251
3 252 253 254
3 255 256 257
3 258 259 260
3 261 262 263
3 264 265 266
3 267 268 269
3 270 271 272
3 273 274 275
3 276 277 278
3 279 280 281
3 282 283 284
3 285 286 287
3 288 289 290
3 291 292 293
3 294 295 296
3 297 298 299
3 300 301 302
3 303 304 305
3 306 307 308
3 309 310 311
3 312 313 314
3 315 316 317
