ply
format ascii 1.0
comment Created by Blender 2.77 (sub 0) - www.blender.org, source file: ''
element vertex 481
property float x
property float y
property float z
property float nx
property float ny
property float nz
property uchar red
property uchar green
property uchar blue
element face 161
property list uchar uint vertex_indices
end_header
0.156463 2.233613 -0.090764 -0.103515 -0.038364 -0.993888 255 202 0
0.016268 2.166815 -0.073584 -0.103515 -0.038364 -0.993888 255 202 0
0.089899 2.293037 -0.086125 -0.103515 -0.038364 -0.993888 255 202 0
0.156463 2.233613 -0.090764 0.533405 -0.801601 -0.270026 255 202 0
0.042356 2.139170 -0.035805 0.533405 -0.801601 -0.270026 255 202 0
0.038040 2.146333 -0.065595 0.533405 -0.801601 -0.270026 255 202 0
0.121020 2.250221 0.048409 0.194787 -0.676535 0.710182 255 202 0
0.042356 2.139170 -0.035805 0.194787 -0.676535 0.710182 255 202 0
0.175696 2.207151 -0.007617 0.194787 -0.676535 0.710182 255 202 0
0.089899 2.293037 -0.086125 -0.843088 0.464971 -0.270193 255 202 0
0.003129 2.172972 -0.021993 -0.843088 0.464971 -0.270193 255 202 0
0.067994 2.303301 -0.000111 -0.843088 0.464971 -0.270193 255 202 0
0.175696 2.207151 -0.007617 0.474292 -0.410784 0.778655 255 202 0
0.298195 2.448447 0.045064 0.474292 -0.410784 0.778655 255 202 0
0.121020 2.250221 0.048409 0.474292 -0.410784 0.778655 255 202 0
0.298195 2.448447 0.045064 -0.397959 0.369864 0.839541 255 202 0
0.067994 2.303301 -0.000111 -0.397959 0.369864 0.839541 255 202 0
0.121020 2.250221 0.048409 -0.397959 0.369864 0.839541 255 202 0
0.089899 2.293037 -0.086125 -0.656753 0.710729 -0.252072 255 202 0
0.261035 2.485645 0.011062 -0.656753 0.710729 -0.252072 255 202 0
0.276386 2.478452 -0.049215 -0.656753 0.710729 -0.252072 255 202 0
0.334755 2.522551 0.009341 -0.441094 0.871011 -0.216276 255 202 0
0.276386 2.478452 -0.049215 -0.441094 0.871011 -0.216276 255 202 0
0.261035 2.485645 0.011062 -0.441094 0.871011 -0.216276 255 202 0
0.156463 2.233613 -0.090764 0.755543 -0.553234 -0.350837 255 202 0
0.336511 2.418264 0.005802 0.755543 -0.553234 -0.350837 255 202 0
0.175696 2.207151 -0.007617 0.755543 -0.553234 -0.350837 255 202 0
0.334755 2.522551 0.009341 -0.238420 0.514647 0.823586 255 202 0
0.261035 2.485645 0.011062 -0.238420 0.514647 0.823586 255 202 0
0.298195 2.448447 0.045064 -0.238420 0.514647 0.823586 255 202 0
0.323033 2.436808 -0.052466 0.920662 -0.256220 -0.294502 255 202 0
0.358022 2.500548 0.001461 0.920662 -0.256220 -0.294502 255 202 0
0.336511 2.418264 0.005802 0.920662 -0.256220 -0.294502 255 202 0
0.358022 2.500548 0.001461 0.656549 -0.132463 0.742561 255 202 0
0.298195 2.448447 0.045064 0.656549 -0.132463 0.742561 255 202 0
0.336511 2.418264 0.005802 0.656549 -0.132463 0.742561 255 202 0
0.276386 2.478452 -0.049215 0.212178 0.310018 -0.926752 255 202 0
0.344808 2.516402 -0.020855 0.212178 0.310018 -0.926752 255 202 0
0.323033 2.436808 -0.052466 0.212178 0.310018 -0.926752 255 202 0
0.334755 2.522551 0.009341 0.700095 0.708507 0.088801 255 202 0
0.358022 2.500548 0.001461 0.700095 0.708507 0.088801 255 202 0
0.344808 2.516402 -0.020855 0.700095 0.708507 0.088801 255 202 0
0.042356 2.139170 -0.035805 -0.666916 -0.740667 -0.081456 255 202 0
0.003129 2.172972 -0.021993 -0.666916 -0.740667 -0.081456 255 202 0
0.016268 2.166815 -0.073584 -0.666916 -0.740667 -0.081456 255 202 0
0.050338 2.168751 -0.088483 -0.025552 0.812692 0.582133 0 0 0
-0.010400 2.128121 -0.034427 -0.025552 0.812692 0.582133 0 0 0
0.076738 2.119856 -0.019064 -0.025552 0.812692 0.582133 0 0 0
-0.010400 2.128121 -0.034427 -0.046030 -0.965029 -0.258072 0 0 0
0.034977 2.144235 -0.102777 -0.046030 -0.965029 -0.258072 0 0 0
0.076738 2.119856 -0.019064 -0.046030 -0.965029 -0.258072 0 0 0
0.001673 2.209283 -0.087647 0.397622 0.461043 0.793307 0 0 0
-0.010400 2.128121 -0.034427 0.397622 0.461043 0.793307 0 0 0
0.050338 2.168751 -0.088483 0.397622 0.461043 0.793307 0 0 0
0.050338 2.168751 -0.088483 -0.422029 0.563176 0.710440 0 0 0
0.266530 2.275838 -0.044946 -0.422029 0.563176 0.710440 0 0 0
0.219764 2.331756 -0.117054 -0.422029 0.563176 0.710440 0 0 0
0.356983 2.509161 -0.050100 -0.241724 -0.173355 0.954734 0 0 0
0.159330 2.396297 -0.120636 -0.241724 -0.173355 0.954734 0 0 0
0.219764 2.331756 -0.117054 -0.241724 -0.173355 0.954734 0 0 0
0.159330 2.396297 -0.120636 0.124676 0.359593 -0.924742 0 0 0
0.356983 2.509161 -0.050100 0.124676 0.359593 -0.924742 0 0 0
0.223016 2.320667 -0.141459 0.124676 0.359593 -0.924742 0 0 0
0.223016 2.320667 -0.141459 0.798653 -0.320862 -0.509118 0 0 0
0.356983 2.509161 -0.050100 0.798653 -0.320862 -0.509118 0 0 0
0.266530 2.275838 -0.044946 0.798653 -0.320862 -0.509118 0 0 0
0.001673 2.209283 -0.087647 -0.774250 -0.262457 -0.575894 0 0 0
0.034977 2.144235 -0.102777 -0.774250 -0.262457 -0.575894 0 0 0
-0.010400 2.128121 -0.034427 -0.774250 -0.262457 -0.575894 0 0 0
0.034977 2.144235 -0.102777 0.522110 -0.712951 -0.468084 0 0 0
0.266530 2.275838 -0.044946 0.522110 -0.712951 -0.468084 0 0 0
0.076738 2.119856 -0.019064 0.522110 -0.712951 -0.468084 0 0 0
0.001673 2.209283 -0.087647 0.067314 0.118016 0.990728 0 0 0
0.219764 2.331756 -0.117054 0.067314 0.118016 0.990728 0 0 0
0.159330 2.396297 -0.120636 0.067314 0.118016 0.990728 0 0 0
0.223016 2.320667 -0.141459 -0.258633 0.047846 -0.964790 0 0 0
0.001673 2.209283 -0.087647 -0.258633 0.047846 -0.964790 0 0 0
0.159330 2.396297 -0.120636 -0.258633 0.047846 -0.964790 0 0 0
-0.010400 2.128121 -0.034427 -0.902213 0.358312 0.240050 0 0 0
0.009317 2.145585 0.013610 -0.902213 0.358312 0.240050 0 0 0
0.011700 2.157125 0.005342 -0.902213 0.358312 0.240050 0 0 0
0.076738 2.119856 -0.019064 0.183960 0.742692 -0.643869 0 0 0
-0.010400 2.128121 -0.034427 0.183960 0.742692 -0.643869 0 0 0
0.011700 2.157125 0.005342 0.183960 0.742692 -0.643869 0 0 0
0.107925 2.301522 0.074537 -0.357005 0.367838 0.858629 0 0 0
0.111530 2.270816 0.089190 -0.357005 0.367838 0.858629 0 0 0
0.327164 2.481855 0.088438 -0.357005 0.367838 0.858629 0 0 0
0.356983 2.509161 -0.050100 -0.690079 0.282246 0.666430 0 0 0
0.219764 2.331756 -0.117054 -0.690079 0.282246 0.666430 0 0 0
0.266530 2.275838 -0.044946 -0.690079 0.282246 0.666430 0 0 0
0.327164 2.481855 0.088438 -0.081485 0.174706 -0.981243 0 0 0
0.194066 2.244091 0.057158 -0.081485 0.174706 -0.981243 0 0 0
0.107925 2.301522 0.074537 -0.081485 0.174706 -0.981243 0 0 0
0.076738 2.119856 -0.019064 -0.155279 -0.906244 0.393206 0 0 0
0.009317 2.145585 0.013610 -0.155279 -0.906244 0.393206 0 0 0
-0.010400 2.128121 -0.034427 -0.155279 -0.906244 0.393206 0 0 0
0.076738 2.119856 -0.019064 0.152450 -0.598905 0.786175 0 0 0
0.111530 2.270816 0.089190 0.152450 -0.598905 0.786175 0 0 0
0.009317 2.145585 0.013610 0.152450 -0.598905 0.786175 0 0 0
0.194066 2.244091 0.057158 0.074817 0.389942 -0.917795 0 0 0
0.011700 2.157125 0.005342 0.074817 0.389942 -0.917795 0 0 0
0.107925 2.301522 0.074537 0.074817 0.389942 -0.917795 0 0 0
0.111530 2.270816 0.089190 -0.815905 0.438500 0.376851 0 0 0
0.011700 2.157125 0.005342 -0.815905 0.438500 0.376851 0 0 0
0.009317 2.145585 0.013610 -0.815905 0.438500 0.376851 0 0 0
0.072392 0.972758 -0.160439 0.873520 -0.296829 0.385818 255 202 0
0.026306 0.941390 -0.080230 0.873520 -0.296829 0.385818 255 202 0
0.032240 0.912047 -0.116240 0.873520 -0.296829 0.385818 255 202 0
0.007183 1.026541 -0.113068 0.128741 0.381858 0.915211 255 202 0
0.026306 0.941390 -0.080230 0.128741 0.381858 0.915211 255 202 0
0.064804 1.010283 -0.114390 0.128741 0.381858 0.915211 255 202 0
-0.042912 0.934456 -0.112955 -0.828889 0.451324 0.330528 255 202 0
-0.018752 0.954104 -0.079197 -0.828889 0.451324 0.330528 255 202 0
0.007183 1.026541 -0.113068 -0.828889 0.451324 0.330528 255 202 0
-0.042912 0.934456 -0.112955 -0.686877 -0.247744 -0.683245 255 202 0
0.044906 1.067786 -0.249585 -0.686877 -0.247744 -0.683245 255 202 0
-0.004610 0.903026 -0.140064 -0.686877 -0.247744 -0.683245 255 202 0
0.036382 1.109935 -0.197860 -0.866251 0.471447 0.165372 255 202 0
-0.042912 0.934456 -0.112955 -0.866251 0.471447 0.165372 255 202 0
0.007183 1.026541 -0.113068 -0.866251 0.471447 0.165372 255 202 0
-0.004610 0.903026 -0.140064 0.310893 -0.566326 -0.763296 255 202 0
0.081650 1.072599 -0.230745 0.310893 -0.566326 -0.763296 255 202 0
0.072392 0.972758 -0.160439 0.310893 -0.566326 -0.763296 255 202 0
0.076382 1.098649 -0.198778 0.203373 0.662140 0.721256 255 202 0
0.007183 1.026541 -0.113068 0.203373 0.662140 0.721256 255 202 0
0.064804 1.010283 -0.114390 0.203373 0.662140 0.721256 255 202 0
0.081650 1.072599 -0.230745 0.971445 0.235158 -0.031542 255 202 0
0.067492 1.129096 -0.245583 0.971445 0.235158 -0.031542 255 202 0
0.076382 1.098649 -0.198778 0.971445 0.235158 -0.031542 255 202 0
0.067492 1.129096 -0.245583 0.246431 0.833126 0.495149 255 202 0
0.036382 1.109935 -0.197860 0.246431 0.833126 0.495149 255 202 0
0.076382 1.098649 -0.198778 0.246431 0.833126 0.495149 255 202 0
0.044906 1.067786 -0.249585 0.461759 -0.370486 -0.805928 255 202 0
0.061116 1.118202 -0.263474 0.461759 -0.370486 -0.805928 255 202 0
0.081650 1.072599 -0.230745 0.461759 -0.370486 -0.805928 255 202 0
0.023952 0.877334 -0.065148 -0.409245 0.244058 -0.879178 0 0 0
-0.023389 0.855277 -0.049234 -0.409245 0.244058 -0.879178 0 0 0
-0.022074 0.912270 -0.034025 -0.409245 0.244058 -0.879178 0 0 0
-0.023389 0.855277 -0.049234 0.051398 -0.258601 0.964616 0 0 0
0.028498 0.874848 -0.046752 0.051398 -0.258601 0.964616 0 0 0
-0.022074 0.912270 -0.034025 0.051398 -0.258601 0.964616 0 0 0
0.023952 0.877334 -0.065148 -0.636298 -0.037122 -0.770550 0 0 0
0.042090 1.029869 -0.087474 -0.636298 -0.037122 -0.770550 0 0 0
0.092741 1.002503 -0.127982 -0.636298 -0.037122 -0.770550 0 0 0
0.090746 0.962193 -0.171378 0.876438 0.332034 -0.348725 0 0 0
0.092741 1.002503 -0.127982 0.876438 0.332034 -0.348725 0 0 0
0.103184 0.991421 -0.112289 0.876438 0.332034 -0.348725 0 0 0
-0.055246 0.971014 -0.151490 -0.646916 0.669576 -0.364922 0 0 0
-0.066762 0.967553 -0.137426 -0.646916 0.669576 -0.364922 0 0 0
-0.038295 1.012087 -0.106178 -0.646916 0.669576 -0.364922 0 0 0
0.103184 0.991421 -0.112289 0.575352 0.797741 0.180497 0 0 0
0.092741 1.002503 -0.127982 0.575352 0.797741 0.180497 0 0 0
0.042090 1.029869 -0.087474 0.575352 0.797741 0.180497 0 0 0
0.023952 0.877334 -0.065148 0.353805 -0.911310 -0.210562 0 0 0
0.028498 0.874848 -0.046752 0.353805 -0.911310 -0.210562 0 0 0
-0.023389 0.855277 -0.049234 0.353805 -0.911310 -0.210562 0 0 0
0.028498 0.874848 -0.046752 0.378217 0.204032 0.902952 0 0 0
0.042090 1.029869 -0.087474 0.378217 0.204032 0.902952 0 0 0
-0.022074 0.912270 -0.034025 0.378217 0.204032 0.902952 0 0 0
0.090746 0.962193 -0.171378 -0.893399 0.348909 -0.283019 0 0 0
0.023952 0.877334 -0.065148 -0.893399 0.348909 -0.283019 0 0 0
0.092741 1.002503 -0.127982 -0.893399 0.348909 -0.283019 0 0 0
0.103184 0.991421 -0.112289 0.835308 -0.541985 0.092260 0 0 0
0.023952 0.877334 -0.065148 0.835308 -0.541985 0.092260 0 0 0
0.090746 0.962193 -0.171378 0.835308 -0.541985 0.092260 0 0 0
-0.023389 0.855277 -0.049234 -0.350454 -0.749386 -0.561785 0 0 0
-0.048970 0.877344 -0.062712 -0.350454 -0.749386 -0.561785 0 0 0
-0.041897 0.878740 -0.068987 -0.350454 -0.749386 -0.561785 0 0 0
-0.022074 0.912270 -0.034025 0.799129 0.137719 -0.585173 0 0 0
-0.023389 0.855277 -0.049234 0.799129 0.137719 -0.585173 0 0 0
-0.041897 0.878740 -0.068987 0.799129 0.137719 -0.585173 0 0 0
-0.022074 0.912270 -0.034025 -0.584403 -0.196609 0.787285 0 0 0
-0.048970 0.877344 -0.062712 -0.584403 -0.196609 0.787285 0 0 0
-0.023389 0.855277 -0.049234 -0.584403 -0.196609 0.787285 0 0 0
-0.022074 0.912270 -0.034025 -0.837104 0.241455 0.490874 0 0 0
-0.066762 0.967553 -0.137426 -0.837104 0.241455 0.490874 0 0 0
-0.048970 0.877344 -0.062712 -0.837104 0.241455 0.490874 0 0 0
-0.038295 1.012087 -0.106178 0.958323 -0.100476 -0.267435 0 0 0
-0.041897 0.878740 -0.068987 0.958323 -0.100476 -0.267435 0 0 0
-0.055246 0.971014 -0.151490 0.958323 -0.100476 -0.267435 0 0 0
-0.066762 0.967553 -0.137426 -0.447978 -0.621030 -0.643147 0 0 0
-0.041897 0.878740 -0.068987 -0.447978 -0.621030 -0.643147 0 0 0
-0.048970 0.877344 -0.062712 -0.447978 -0.621030 -0.643147 0 0 0
-0.174556 1.497196 -0.046577 -0.318410 0.266785 0.909638 255 202 0
-0.183313 1.642984 -0.092400 -0.318410 0.266785 0.909638 255 202 0
-0.248213 1.706600 -0.133775 -0.318410 0.266785 0.909638 255 202 0
-0.105158 1.425262 -0.073232 -0.226214 -0.737010 -0.636902 255 202 0
-0.183032 1.475530 -0.103742 -0.226214 -0.737010 -0.636902 255 202 0
-0.132545 1.488567 -0.136760 -0.226214 -0.737010 -0.636902 255 202 0
-0.092867 1.518291 -0.100001 0.755606 -0.271377 -0.596167 255 202 0
-0.105158 1.425262 -0.073232 0.755606 -0.271377 -0.596167 255 202 0
-0.132545 1.488567 -0.136760 0.755606 -0.271377 -0.596167 255 202 0
-0.174556 1.497196 -0.046577 -0.016493 -0.052574 0.998481 255 202 0
-0.092061 1.437587 -0.048353 -0.016493 -0.052574 0.998481 255 202 0
-0.118831 1.523624 -0.044265 -0.016493 -0.052574 0.998481 255 202 0
-0.118831 1.523624 -0.044265 0.885203 0.256997 0.387772 255 202 0
-0.092061 1.437587 -0.048353 0.885203 0.256997 0.387772 255 202 0
-0.092867 1.518291 -0.100001 0.885203 0.256997 0.387772 255 202 0
-0.164849 1.639192 -0.132036 0.778389 0.545681 0.310392 255 202 0
-0.118831 1.523624 -0.044265 0.778389 0.545681 0.310392 255 202 0
-0.092867 1.518291 -0.100001 0.778389 0.545681 0.310392 255 202 0
-0.174556 1.497196 -0.046577 -0.933704 -0.266276 0.239363 255 202 0
-0.228969 1.608783 -0.134697 -0.933704 -0.266276 0.239363 255 202 0
-0.183032 1.475530 -0.103742 -0.933704 -0.266276 0.239363 255 202 0
-0.183032 1.475530 -0.103742 -0.449238 -0.346194 -0.823611 255 202 0
-0.193066 1.618054 -0.158177 -0.449238 -0.346194 -0.823611 255 202 0
-0.132545 1.488567 -0.136760 -0.449238 -0.346194 -0.823611 255 202 0
-0.092867 1.518291 -0.100001 0.606646 0.154561 -0.779803 255 202 0
-0.193066 1.618054 -0.158177 0.606646 0.154561 -0.779803 255 202 0
-0.164849 1.639192 -0.132036 0.606646 0.154561 -0.779803 255 202 0
0.276386 2.478452 -0.049215 0.056263 0.140194 -0.988524 255 202 0
0.156463 2.233613 -0.090764 0.056263 0.140194 -0.988524 255 202 0
0.089899 2.293037 -0.086125 0.056263 0.140194 -0.988524 255 202 0
-0.228165 1.715334 -0.136658 0.729660 0.623753 0.280229 255 202 0
-0.183313 1.642984 -0.092400 0.729660 0.623753 0.280229 255 202 0
-0.164849 1.639192 -0.132036 0.729660 0.623753 0.280229 255 202 0
-0.228969 1.608783 -0.134697 -0.497258 -0.207722 -0.842369 255 202 0
-0.234719 1.705620 -0.155182 -0.497258 -0.207722 -0.842369 255 202 0
-0.193066 1.618054 -0.158177 -0.497258 -0.207722 -0.842369 255 202 0
-0.234719 1.705620 -0.155182 0.531117 0.279991 -0.799700 255 202 0
-0.164849 1.639192 -0.132036 0.531117 0.279991 -0.799700 255 202 0
-0.193066 1.618054 -0.158177 0.531117 0.279991 -0.799700 255 202 0
-0.228165 1.715334 -0.136658 -0.416937 0.857281 -0.302047 255 202 0
-0.234719 1.705620 -0.155182 -0.416937 0.857281 -0.302047 255 202 0
-0.248213 1.706600 -0.133775 -0.416937 0.857281 -0.302047 255 202 0
-0.124000 1.439866 -0.026193 0.416108 0.757568 -0.502936 0 0 0
-0.092332 1.404537 -0.053209 0.416108 0.757568 -0.502936 0 0 0
-0.142717 1.412533 -0.082851 0.416108 0.757568 -0.502936 0 0 0
-0.092332 1.404537 -0.053209 -0.274830 -0.937305 0.214309 0 0 0
-0.132767 1.423880 -0.020464 -0.274830 -0.937305 0.214309 0 0 0
-0.142717 1.412533 -0.082851 -0.274830 -0.937305 0.214309 0 0 0
-0.124000 1.439866 -0.026193 0.685880 0.510188 -0.518919 0 0 0
-0.236743 1.521201 -0.095245 0.685880 0.510188 -0.518919 0 0 0
-0.216179 1.551777 -0.038003 0.685880 0.510188 -0.518919 0 0 0
-0.216179 1.551777 -0.038003 -0.249977 -0.417599 -0.873569 0 0 0
-0.264704 1.652740 -0.072381 -0.249977 -0.417599 -0.873569 0 0 0
-0.258231 1.660805 -0.078089 -0.249977 -0.417599 -0.873569 0 0 0
-0.124000 1.439866 -0.026193 0.612847 -0.053521 0.788387 0 0 0
-0.132767 1.423880 -0.020464 0.612847 -0.053521 0.788387 0 0 0
-0.092332 1.404537 -0.053209 0.612847 -0.053521 0.788387 0 0 0
-0.132767 1.423880 -0.020464 -0.748477 -0.621127 0.232344 0 0 0
-0.236743 1.521201 -0.095245 -0.748477 -0.621127 0.232344 0 0 0
-0.142717 1.412533 -0.082851 -0.748477 -0.621127 0.232344 0 0 0
-0.225444 1.545789 -0.023871 -0.942443 -0.240680 0.232108 0 0 0
-0.264704 1.652740 -0.072381 -0.942443 -0.240680 0.232108 0 0 0
-0.236743 1.521201 -0.095245 -0.942443 -0.240680 0.232108 0 0 0
-0.170394 1.583941 -0.020087 0.280379 0.130591 -0.950965 0 0 0
-0.124000 1.439866 -0.026193 0.280379 0.130591 -0.950965 0 0 0
-0.216179 1.551777 -0.038003 0.280379 0.130591 -0.950965 0 0 0
-0.225444 1.545789 -0.023871 -0.032120 -0.052647 0.998097 0 0 0
-0.124000 1.439866 -0.026193 -0.032120 -0.052647 0.998097 0 0 0
-0.170394 1.583941 -0.020087 -0.032120 -0.052647 0.998097 0 0 0
-0.092332 1.404537 -0.053209 0.987229 0.124009 0.100009 0 0 0
-0.090543 1.417626 -0.087099 0.987229 0.124009 0.100009 0 0 0
-0.092054 1.425658 -0.082145 0.987229 0.124009 0.100009 0 0 0
-0.142717 1.412533 -0.082851 -0.212721 0.790204 0.574741 0 0 0
-0.092332 1.404537 -0.053209 -0.212721 0.790204 0.574741 0 0 0
-0.092054 1.425658 -0.082145 -0.212721 0.790204 0.574741 0 0 0
-0.176658 1.509061 -0.153299 0.006708 -0.231432 -0.972828 0 0 0
-0.166915 1.625700 -0.180980 0.006708 -0.231432 -0.972828 0 0 0
-0.115352 1.512431 -0.153678 0.006708 -0.231432 -0.972828 0 0 0
-0.109407 1.535907 -0.142374 0.561246 0.603133 0.566775 0 0 0
-0.166915 1.625700 -0.180980 0.561246 0.603133 0.566775 0 0 0
-0.174760 1.629372 -0.177119 0.561246 0.603133 0.566775 0 0 0
-0.142717 1.412533 -0.082851 0.061946 -0.932146 -0.356745 0 0 0
-0.090543 1.417626 -0.087099 0.061946 -0.932146 -0.356745 0 0 0
-0.092332 1.404537 -0.053209 0.061946 -0.932146 -0.356745 0 0 0
-0.142717 1.412533 -0.082851 -0.010251 -0.576475 -0.817050 0 0 0
-0.115352 1.512431 -0.153678 -0.010251 -0.576475 -0.817050 0 0 0
-0.090543 1.417626 -0.087099 -0.010251 -0.576475 -0.817050 0 0 0
-0.166915 1.625700 -0.180980 0.705477 0.154426 -0.691704 0 0 0
-0.109407 1.535907 -0.142374 0.705477 0.154426 -0.691704 0 0 0
-0.115352 1.512431 -0.153678 0.705477 0.154426 -0.691704 0 0 0
-0.176658 1.509061 -0.153299 -0.306090 0.418855 0.854909 0 0 0
-0.092054 1.425658 -0.082145 -0.306090 0.418855 0.854909 0 0 0
-0.109407 1.535907 -0.142374 -0.306090 0.418855 0.854909 0 0 0
-0.115352 1.512431 -0.153678 0.974684 0.216876 -0.054371 0 0 0
-0.092054 1.425658 -0.082145 0.974684 0.216876 -0.054371 0 0 0
-0.090543 1.417626 -0.087099 0.974684 0.216876 -0.054371 0 0 0
-0.170394 1.583941 -0.020087 -0.277644 0.310445 0.909141 0 0 0
-0.264704 1.652740 -0.072381 -0.277644 0.310445 0.909141 0 0 0
-0.225444 1.545789 -0.023871 -0.277644 0.310445 0.909141 0 0 0
0.072392 0.972758 -0.160439 0.988434 0.014641 0.150944 255 202 0
0.076382 1.098649 -0.198778 0.988434 0.014641 0.150944 255 202 0
0.064804 1.010283 -0.114390 0.988434 0.014641 0.150944 255 202 0
0.067994 2.303301 -0.000111 -0.613317 0.103112 0.783077 255 202 0
0.024901 2.152490 -0.014004 -0.613317 0.103112 0.783077 255 202 0
0.121020 2.250221 0.048409 -0.613317 0.103112 0.783077 255 202 0
-0.124222 1.421679 -0.052804 -0.775644 -0.543458 0.320981 255 202 0
-0.174556 1.497196 -0.046577 -0.775644 -0.543458 0.320981 255 202 0
-0.183032 1.475530 -0.103742 -0.775644 -0.543458 0.320981 255 202 0
0.327164 2.481855 0.088438 0.270085 -0.272675 0.923419 0 0 0
0.111530 2.270816 0.089190 0.270085 -0.272675 0.923419 0 0 0
0.194066 2.244091 0.057158 0.270085 -0.272675 0.923419 0 0 0
0.156463 2.233613 -0.090764 0.039686 -0.326203 -0.944466 255 202 0
0.038040 2.146333 -0.065595 0.039686 -0.326203 -0.944466 255 202 0
0.016268 2.166815 -0.073584 0.039686 -0.326203 -0.944466 255 202 0
0.156463 2.233613 -0.090764 0.482958 -0.795932 -0.365025 255 202 0
0.175696 2.207151 -0.007617 0.482958 -0.795932 -0.365025 255 202 0
0.042356 2.139170 -0.035805 0.482958 -0.795932 -0.365025 255 202 0
0.121020 2.250221 0.048409 0.285238 -0.699192 0.655568 255 202 0
0.024901 2.152490 -0.014004 0.285238 -0.699192 0.655568 255 202 0
0.042356 2.139170 -0.035805 0.285238 -0.699192 0.655568 255 202 0
0.089899 2.293037 -0.086125 -0.843088 0.464965 -0.270204 255 202 0
0.016268 2.166815 -0.073584 -0.843088 0.464965 -0.270204 255 202 0
0.003129 2.172972 -0.021993 -0.843088 0.464965 -0.270204 255 202 0
0.175696 2.207151 -0.007617 0.474290 -0.410784 0.778656 255 202 0
0.336511 2.418264 0.005802 0.474290 -0.410784 0.778656 255 202 0
0.298195 2.448447 0.045064 0.474290 -0.410784 0.778656 255 202 0
0.298195 2.448447 0.045064 -0.397957 0.369860 0.839544 255 202 0
0.261035 2.485645 0.011062 -0.397957 0.369860 0.839544 255 202 0
0.067994 2.303301 -0.000111 -0.397957 0.369860 0.839544 255 202 0
0.089899 2.293037 -0.086125 -0.656755 0.710728 -0.252067 255 202 0
0.067994 2.303301 -0.000111 -0.656755 0.710728 -0.252067 255 202 0
0.261035 2.485645 0.011062 -0.656755 0.710728 -0.252067 255 202 0
0.334755 2.522551 0.009341 -0.364209 0.881419 -0.300753 255 202 0
0.344808 2.516402 -0.020855 -0.364209 0.881419 -0.300753 255 202 0
0.276386 2.478452 -0.049215 -0.364209 0.881419 -0.300753 255 202 0
0.156463 2.233613 -0.090764 0.755543 -0.553235 -0.350836 255 202 0
0.323033 2.436808 -0.052466 0.755543 -0.553235 -0.350836 255 202 0
0.336511 2.418264 0.005802 0.755543 -0.553235 -0.350836 255 202 0
0.323033 2.436808 -0.052466 0.852134 -0.025535 -0.522701 255 202 0
0.344808 2.516402 -0.020855 0.852134 -0.025535 -0.522701 255 202 0
0.358022 2.500548 0.001461 0.852134 -0.025535 -0.522701 255 202 0
0.358022 2.500548 0.001461 0.468095 0.185550 0.863978 255 202 0
0.334755 2.522551 0.009341 0.468095 0.185550 0.863978 255 202 0
0.298195 2.448447 0.045064 0.468095 0.185550 0.863978 255 202 0
0.016268 2.166815 -0.073584 -0.666899 -0.740680 -0.081477 255 202 0
0.038040 2.146333 -0.065595 -0.666899 -0.740680 -0.081477 255 202 0
0.042356 2.139170 -0.035805 -0.666899 -0.740680 -0.081477 255 202 0
0.042356 2.139170 -0.035805 -0.666912 -0.740674 -0.081427 255 202 0
0.024901 2.152490 -0.014004 -0.666912 -0.740674 -0.081427 255 202 0
0.003129 2.172972 -0.021993 -0.666912 -0.740674 -0.081427 255 202 0
0.050338 2.168751 -0.088483 -0.444411 0.644057 0.622647 0 0 0
0.076738 2.119856 -0.019064 -0.444411 0.644057 0.622647 0 0 0
0.266530 2.275838 -0.044946 -0.444411 0.644057 0.622647 0 0 0
0.034977 2.144235 -0.102777 0.513629 -0.666016 -0.540932 0 0 0
0.223016 2.320667 -0.141459 0.513629 -0.666016 -0.540932 0 0 0
0.266530 2.275838 -0.044946 0.513629 -0.666016 -0.540932 0 0 0
0.001673 2.209283 -0.087647 0.086816 0.083761 0.992697 0 0 0
0.050338 2.168751 -0.088483 0.086816 0.083761 0.992697 0 0 0
0.219764 2.331756 -0.117054 0.086816 0.083761 0.992697 0 0 0
0.223016 2.320667 -0.141459 -0.274377 0.082370 -0.958088 0 0 0
0.034977 2.144235 -0.102777 -0.274377 0.082370 -0.958088 0 0 0
0.001673 2.209283 -0.087647 -0.274377 0.082370 -0.958088 0 0 0
0.076738 2.119856 -0.019064 0.115256 -0.596276 0.794463 0 0 0
0.194066 2.244091 0.057158 0.115256 -0.596276 0.794463 0 0 0
0.111530 2.270816 0.089190 0.115256 -0.596276 0.794463 0 0 0
0.194066 2.244091 0.057158 -0.013019 0.531811 -0.846763 0 0 0
0.076738 2.119856 -0.019064 -0.013019 0.531811 -0.846763 0 0 0
0.011700 2.157125 0.005342 -0.013019 0.531811 -0.846763 0 0 0
0.111530 2.270816 0.089190 -0.756686 0.207095 0.620112 0 0 0
0.107925 2.301522 0.074537 -0.756686 0.207095 0.620112 0 0 0
0.011700 2.157125 0.005342 -0.756686 0.207095 0.620112 0 0 0
0.061116 1.118202 -0.263474 -0.470276 -0.090634 -0.877853 255 202 0
0.044906 1.067786 -0.249585 -0.470276 -0.090634 -0.877853 255 202 0
0.043545 1.128445 -0.255118 -0.470276 -0.090634 -0.877853 255 202 0
0.072392 0.972758 -0.160439 0.873520 -0.296825 0.385820 255 202 0
0.064804 1.010283 -0.114390 0.873520 -0.296825 0.385820 255 202 0
0.026306 0.941390 -0.080230 0.873520 -0.296825 0.385820 255 202 0
0.007183 1.026541 -0.113068 0.128731 0.381857 0.915213 255 202 0
-0.018752 0.954104 -0.079197 0.128731 0.381857 0.915213 255 202 0
0.026306 0.941390 -0.080230 0.128731 0.381857 0.915213 255 202 0
-0.042912 0.934456 -0.112955 -0.805766 -0.071710 -0.587877 255 202 0
0.043545 1.128445 -0.255118 -0.805766 -0.071710 -0.587877 255 202 0
0.044906 1.067786 -0.249585 -0.805766 -0.071710 -0.587877 255 202 0
-0.004610 0.903026 -0.140064 0.500262 -0.700943 -0.508347 255 202 0
0.072392 0.972758 -0.160439 0.500262 -0.700943 -0.508347 255 202 0
0.032240 0.912047 -0.116240 0.500262 -0.700943 -0.508347 255 202 0
0.036382 1.109935 -0.197860 -0.906911 0.420718 0.022553 255 202 0
0.043545 1.128445 -0.255118 -0.906911 0.420718 0.022553 255 202 0
-0.042912 0.934456 -0.112955 -0.906911 0.420718 0.022553 255 202 0
-0.004610 0.903026 -0.140064 0.429196 -0.585911 -0.687386 255 202 0
0.044906 1.067786 -0.249585 0.429196 -0.585911 -0.687386 255 202 0
0.081650 1.072599 -0.230745 0.429196 -0.585911 -0.687386 255 202 0
0.076382 1.098649 -0.198778 0.203376 0.662139 0.721256 255 202 0
0.036382 1.109935 -0.197860 0.203376 0.662139 0.721256 255 202 0
0.007183 1.026541 -0.113068 0.203376 0.662139 0.721256 255 202 0
0.081650 1.072599 -0.230745 0.908758 0.122998 -0.398786 255 202 0
0.061116 1.118202 -0.263474 0.908758 0.122998 -0.398786 255 202 0
0.067492 1.129096 -0.245583 0.908758 0.122998 -0.398786 255 202 0
0.067492 1.129096 -0.245583 0.201471 0.803053 -0.560817 255 202 0
0.061116 1.118202 -0.263474 0.201471 0.803053 -0.560817 255 202 0
0.043545 1.128445 -0.255118 0.201471 0.803053 -0.560817 255 202 0
0.067492 1.129096 -0.245583 -0.140657 0.947073 0.288561 255 202 0
0.043545 1.128445 -0.255118 -0.140657 0.947073 0.288561 255 202 0
0.036382 1.109935 -0.197860 -0.140657 0.947073 0.288561 255 202 0
0.023952 0.877334 -0.065148 -0.584733 -0.048991 -0.809745 0 0 0
-0.022074 0.912270 -0.034025 -0.584733 -0.048991 -0.809745 0 0 0
0.042090 1.029869 -0.087474 -0.584733 -0.048991 -0.809745 0 0 0
0.028498 0.874848 -0.046752 0.467939 0.185929 0.863981 0 0 0
0.103184 0.991421 -0.112289 0.467939 0.185929 0.863981 0 0 0
0.042090 1.029869 -0.087474 0.467939 0.185929 0.863981 0 0 0
0.103184 0.991421 -0.112289 0.736767 -0.621604 -0.266049 0 0 0
0.028498 0.874848 -0.046752 0.736767 -0.621604 -0.266049 0 0 0
0.023952 0.877334 -0.065148 0.736767 -0.621604 -0.266049 0 0 0
-0.022074 0.912270 -0.034025 -0.852356 0.208246 0.479711 0 0 0
-0.038295 1.012087 -0.106178 -0.852356 0.208246 0.479711 0 0 0
-0.066762 0.967553 -0.137426 -0.852356 0.208246 0.479711 0 0 0
-0.038295 1.012087 -0.106178 0.911513 -0.133150 -0.389121 0 0 0
-0.022074 0.912270 -0.034025 0.911513 -0.133150 -0.389121 0 0 0
-0.041897 0.878740 -0.068987 0.911513 -0.133150 -0.389121 0 0 0
-0.066762 0.967553 -0.137426 -0.537309 -0.604016 -0.588612 0 0 0
-0.055246 0.971014 -0.151490 -0.537309 -0.604016 -0.588612 0 0 0
-0.041897 0.878740 -0.068987 -0.537309 -0.604016 -0.588612 0 0 0
-0.174556 1.497196 -0.046577 -0.174584 0.285686 0.942287 255 202 0
-0.118831 1.523624 -0.044265 -0.174584 0.285686 0.942287 255 202 0
-0.183313 1.642984 -0.092400 -0.174584 0.285686 0.942287 255 202 0
-0.105158 1.425262 -0.073232 -0.344540 -0.815742 -0.464603 255 202 0
-0.124222 1.421679 -0.052804 -0.344540 -0.815742 -0.464603 255 202 0
-0.183032 1.475530 -0.103742 -0.344540 -0.815742 -0.464603 255 202 0
-0.092867 1.518291 -0.100001 0.903735 -0.224319 -0.364616 255 202 0
-0.092061 1.437587 -0.048353 0.903735 -0.224319 -0.364616 255 202 0
-0.105158 1.425262 -0.073232 0.903735 -0.224319 -0.364616 255 202 0
-0.174556 1.497196 -0.046577 -0.072591 -0.129924 0.988863 255 202 0
-0.124222 1.421679 -0.052804 -0.072591 -0.129924 0.988863 255 202 0
-0.092061 1.437587 -0.048353 -0.072591 -0.129924 0.988863 255 202 0
-0.164849 1.639192 -0.132036 0.778386 0.545683 0.310396 255 202 0
-0.183313 1.642984 -0.092400 0.778386 0.545683 0.310396 255 202 0
-0.118831 1.523624 -0.044265 0.778386 0.545683 0.310396 255 202 0
-0.174556 1.497196 -0.046577 -0.923485 -0.184850 0.336164 255 202 0
-0.248213 1.706600 -0.133775 -0.923485 -0.184850 0.336164 255 202 0
-0.228969 1.608783 -0.134697 -0.923485 -0.184850 0.336164 255 202 0
-0.183032 1.475530 -0.103742 -0.449234 -0.346194 -0.823613 255 202 0
-0.228969 1.608783 -0.134697 -0.449234 -0.346194 -0.823613 255 202 0
-0.193066 1.618054 -0.158177 -0.449234 -0.346194 -0.823613 255 202 0
-0.092867 1.518291 -0.100001 0.606646 0.154562 -0.779802 255 202 0
-0.132545 1.488567 -0.136760 0.606646 0.154562 -0.779802 255 202 0
-0.193066 1.618054 -0.158177 0.606646 0.154562 -0.779802 255 202 0
0.323033 2.436808 -0.052466 0.056263 0.140194 -0.988524 255 202 0
-0.228969 1.608783 -0.134697 -0.838341 -0.160020 -0.521131 255 202 0
-0.248213 1.706600 -0.133775 -0.838341 -0.160020 -0.521131 255 202 0
-0.234719 1.705620 -0.155182 -0.838341 -0.160020 -0.521131 255 202 0
-0.248213 1.706600 -0.133775 -0.084308 0.481413 0.872430 255 202 0
-0.183313 1.642984 -0.092400 -0.084308 0.481413 0.872430 255 202 0
-0.228165 1.715334 -0.136658 -0.084308 0.481413 0.872430 255 202 0
-0.234719 1.705620 -0.155182 0.673836 0.529012 -0.515841 255 202 0
-0.228165 1.715334 -0.136658 0.673836 0.529012 -0.515841 255 202 0
-0.164849 1.639192 -0.132036 0.673836 0.529012 -0.515841 255 202 0
-0.124222 1.421679 -0.052804 0.406918 -0.885464 0.224434 255 202 0
-0.105158 1.425262 -0.073232 0.406918 -0.885464 0.224434 255 202 0
-0.092061 1.437587 -0.048353 0.406918 -0.885464 0.224434 255 202 0
-0.124000 1.439866 -0.026193 0.687179 0.539037 -0.487057 0 0 0
-0.142717 1.412533 -0.082851 0.687179 0.539037 -0.487057 0 0 0
-0.236743 1.521201 -0.095245 0.687179 0.539037 -0.487057 0 0 0
-0.216179 1.551777 -0.038003 0.856380 0.259621 -0.446329 0 0 0
-0.236743 1.521201 -0.095245 0.856380 0.259621 -0.446329 0 0 0
-0.264704 1.652740 -0.072381 0.856380 0.259621 -0.446329 0 0 0
-0.258231 1.660805 -0.078089 0.449951 -0.150129 -0.880344 0 0 0
-0.170394 1.583941 -0.020087 0.449951 -0.150129 -0.880344 0 0 0
-0.216179 1.551777 -0.038003 0.449951 -0.150129 -0.880344 0 0 0
-0.132767 1.423880 -0.020464 -0.759498 -0.568547 0.316096 0 0 0
-0.225444 1.545789 -0.023871 -0.759498 -0.568547 0.316096 0 0 0
-0.236743 1.521201 -0.095245 -0.759498 -0.568547 0.316096 0 0 0
-0.225444 1.545789 -0.023871 0.239453 0.208537 0.948248 0 0 0
-0.132767 1.423880 -0.020464 0.239453 0.208537 0.948248 0 0 0
-0.124000 1.439866 -0.026193 0.239453 0.208537 0.948248 0 0 0
-0.176658 1.509061 -0.153299 -0.231736 0.192448 0.953552 0 0 0
-0.109407 1.535907 -0.142374 -0.231736 0.192448 0.953552 0 0 0
-0.174760 1.629372 -0.177119 -0.231736 0.192448 0.953552 0 0 0
-0.176658 1.509061 -0.153299 -0.495492 -0.161171 -0.853529 0 0 0
-0.174760 1.629372 -0.177119 -0.495492 -0.161171 -0.853529 0 0 0
-0.166915 1.625700 -0.180980 -0.495492 -0.161171 -0.853529 0 0 0
-0.142717 1.412533 -0.082851 0.027033 -0.583082 -0.811964 0 0 0
-0.176658 1.509061 -0.153299 0.027033 -0.583082 -0.811964 0 0 0
-0.115352 1.512431 -0.153678 0.027033 -0.583082 -0.811964 0 0 0
-0.176658 1.509061 -0.153299 -0.153144 0.546864 0.823096 0 0 0
-0.142717 1.412533 -0.082851 -0.153144 0.546864 0.823096 0 0 0
-0.092054 1.425658 -0.082145 -0.153144 0.546864 0.823096 0 0 0
-0.115352 1.512431 -0.153678 0.927152 -0.056421 -0.370413 0 0 0
-0.109407 1.535907 -0.142374 0.927152 -0.056421 -0.370413 0 0 0
-0.092054 1.425658 -0.082145 0.927152 -0.056421 -0.370413 0 0 0
-0.170394 1.583941 -0.020087 -0.019491 0.587950 0.808663 0 0 0
-0.258231 1.660805 -0.078089 -0.019491 0.587950 0.808663 0 0 0
-0.264704 1.652740 -0.072381 -0.019491 0.587950 0.808663 0 0 0
0.072392 0.972758 -0.160439 0.988432 0.014644 0.150955 255 202 0
0.081650 1.072599 -0.230745 0.988432 0.014644 0.150955 255 202 0
0.076382 1.098649 -0.198778 0.988432 0.014644 0.150955 255 202 0
0.067994 2.303301 -0.000111 -0.336621 0.009445 0.941593 255 202 0
0.003129 2.172972 -0.021993 -0.336621 0.009445 0.941593 255 202 0
0.024901 2.152490 -0.014004 -0.336621 0.009445 0.941593 255 202 0
3 0 1 2
3 3 4 5
3 6 7 8
3 9 10 11
3 12 13 14
3 15 16 17
3 18 19 20
3 21 22 23
3 24 25 26
3 27 28 29
3 30 31 32
3 33 34 35
3 36 37 38
3 39 40 41
3 42 43 44
3 45 46 47
3 48 49 50
3 51 52 53
3 54 55 56
3 57 58 59
3 60 61 62
3 63 64 65
3 66 67 68
3 69 70 71
3 72 73 74
3 75 76 77
3 78 79 80
3 81 82 83
3 84 85 86
3 87 88 89
3 90 91 92
3 93 94 95
3 96 97 98
3 99 100 101
3 102 103 104
3 105 106 107
3 108 109 110
3 111 112 113
3 114 115 116
3 117 118 119
3 120 121 122
3 123 124 125
3 126 127 128
3 129 130 131
3 132 133 134
3 135 136 137
3 138 139 140
3 141 142 143
3 144 145 146
3 147 148 149
3 150 151 152
3 153 154 155
3 156 157 158
3 159 160 161
3 162 163 164
3 165 166 167
3 168 169 170
3 171 172 173
3 174 175 176
3 177 178 179
3 180 181 182
3 183 184 185
3 186 187 188
3 189 190 191
3 192 193 194
3 195 196 197
3 198 199 200
3 201 202 203
3 204 205 206
3 207 208 209
3 210 211 212
3 213 214 215
3 216 217 218
3 219 220 221
3 222 223 224
3 225 226 227
3 228 229 230
3 231 232 233
3 234 235 236
3 237 238 239
3 240 241 242
3 243 244 245
3 246 247 248
3 249 250 251
3 252 253 254
3 255 256 257
3 258 259 260
3 261 262 263
3 264 265 266
3 267 268 269
3 270 271 272
3 273 274 275
3 276 277 278
3 279 280 281
3 282 283 284
3 285 286 287
3 288 289 290
3 291 292 293
3 294 295 296
3 297 298 299
3 300 301 302
3 303 304 305
3 306 307 308
3 309 310 311
3 312 313 314
3 315 316 317
3 318 319 320
3 321 322 323
3 324 325 326
3 327 328 329
3 330 331 332
3 333 334 335
3 336 337 338
3 339 340 341
3 342 343 344
3 345 346 347
3 348 349 350
3 351 352 353
3 354 355 356
3 357 358 359
3 360 361 362
3 363 364 365
3 366 367 368
3 369 370 371
3 372 373 374
3 375 376 377
3 378 379 380
3 381 382 383
3 384 385 386
3 387 388 389
3 390 391 392
3 393 394 395
3 396 397 398
3 399 400 401
3 402 403 404
3 405 406 407
3 408 409 410
3 411 412 413
3 414 415 416
3 417 418 419
3 420 421 422
3 423 424 425
3 426 427 428
3 210 429 211
3 430 431 432
3 433 434 435
3 436 437 438
3 439 440 441
3 442 443 444
3 445 446 447
3 448 449 450
3 451 452 453
3 454 455 456
3 457 458 459
3 460 461 462
3 463 464 465
3 466 467 468
3 469 470 471
3 472 473 474
3 475 476 477
3 478 479 480
