ply
format ascii 1.0
comment Created by Blender 2.77 (sub 0) - www.blender.org, source file: ''
element vertex 555
property float x
property float y
property float z
property float nx
property float ny
property float nz
property uchar red
property uchar green
property uchar blue
element face 185
property list uchar uint vertex_indices
end_header
-0.088334 1.982133 -0.054042 -0.996716 0.077785 0.022488 0 0 0
-0.037967 2.621919 -0.034661 -0.996716 0.077785 0.022488 0 0 0
-0.039110 2.621919 -0.085321 -0.996716 0.077785 0.022488 0 0 0
0.004457 2.621919 -0.044990 0.235856 0.077122 0.968723 0 0 0
-0.057776 2.971702 -0.057685 0.235856 0.077122 0.968723 0 0 0
-0.037967 2.621919 -0.034661 0.235856 0.077122 0.968723 0 0 0
-0.027822 1.957602 0.004844 0.704679 0.037439 -0.708538 0 0 0
-0.022029 0.005235 -0.092556 0.704679 0.037439 -0.708538 0 0 0
-0.088334 1.982133 -0.054042 0.704679 0.037439 -0.708538 0 0 0
-0.027822 1.957602 0.004844 0.110215 0.060677 0.992054 0 0 0
-0.037967 2.621919 -0.034661 0.110215 0.060677 0.992054 0 0 0
-0.092210 1.983904 0.010388 0.110215 0.060677 0.992054 0 0 0
-0.333753 2.469690 0.143980 0.754151 0.649344 0.098025 0 0 0
-0.110239 2.234749 -0.019302 0.754151 0.649344 0.098025 0 0 0
-0.316728 2.473046 -0.009232 0.754151 0.649344 0.098025 0 0 0
-0.023608 0.719472 -0.030761 0.801501 -0.533546 -0.270046 0 0 0
0.040466 0.891310 -0.180099 0.801501 -0.533546 -0.270046 0 0 0
0.114608 0.956260 -0.088370 0.801501 -0.533546 -0.270046 0 0 0
-0.333753 2.469690 0.143980 -0.631007 -0.746655 0.210563 0 0 0
-0.341519 2.432248 -0.012062 -0.631007 -0.746655 0.210563 0 0 0
-0.110239 2.234749 -0.019302 -0.631007 -0.746655 0.210563 0 0 0
-0.812401 1.670181 -0.420064 -0.060503 -0.905095 0.420883 0 0 0
-0.537512 1.674124 -0.372069 -0.060503 -0.905095 0.420883 0 0 0
-0.642027 1.728469 -0.270226 -0.060503 -0.905095 0.420883 0 0 0
-0.532485 2.541384 -0.013456 -0.096566 0.638145 0.763837 0 0 0
-0.785197 2.554003 -0.055947 -0.096566 0.638145 0.763837 0 0 0
-0.803743 2.450454 0.028218 -0.096566 0.638145 0.763837 0 0 0
-0.840413 2.407819 0.039690 -0.499903 0.598422 0.626089 0 0 0
-0.803743 2.450454 0.028218 -0.499903 0.598422 0.626089 0 0 0
-0.785197 2.554003 -0.055947 -0.499903 0.598422 0.626089 0 0 0
-0.840413 2.407819 0.039690 -0.766593 0.593140 -0.246009 0 0 0
-0.797664 2.492276 0.110110 -0.766593 0.593140 -0.246009 0 0 0
-0.803743 2.450454 0.028218 -0.766593 0.593140 -0.246009 0 0 0
-0.797664 2.492276 0.110110 -0.345923 0.845755 -0.406246 0 0 0
-0.532485 2.541384 -0.013456 -0.345923 0.845755 -0.406246 0 0 0
-0.803743 2.450454 0.028218 -0.345923 0.845755 -0.406246 0 0 0
-0.110239 2.234749 -0.019302 -0.438926 -0.486304 -0.755548 0 0 0
-0.341519 2.432248 -0.012062 -0.438926 -0.486304 -0.755548 0 0 0
-0.290037 2.553859 -0.120244 -0.438926 -0.486304 -0.755548 0 0 0
-0.534407 2.487619 -0.014750 -0.008283 -0.549686 -0.835330 0 0 0
-0.785197 2.554003 -0.055947 -0.008283 -0.549686 -0.835330 0 0 0
-0.471967 2.634508 -0.112029 -0.008283 -0.549686 -0.835330 0 0 0
-0.341519 2.432248 -0.012062 -0.286005 -0.566453 -0.772873 0 0 0
-0.471967 2.634508 -0.112029 -0.286005 -0.566453 -0.772873 0 0 0
-0.290037 2.553859 -0.120244 -0.286005 -0.566453 -0.772873 0 0 0
-0.532423 2.543091 0.115055 -0.366750 -0.900336 0.234286 0 0 0
-0.341519 2.432248 -0.012062 -0.366750 -0.900336 0.234286 0 0 0
-0.333753 2.469690 0.143980 -0.366750 -0.900336 0.234286 0 0 0
-0.316728 2.473046 -0.009232 0.192079 0.651783 0.733678 0 0 0
-0.471967 2.634508 -0.112029 0.192079 0.651783 0.733678 0 0 0
-0.532485 2.541384 -0.013456 0.192079 0.651783 0.733678 0 0 0
-0.532423 2.543091 0.115055 0.302154 0.953173 -0.012807 0 0 0
-0.316728 2.473046 -0.009232 0.302154 0.953173 -0.012807 0 0 0
-0.532485 2.541384 -0.013456 0.302154 0.953173 -0.012807 0 0 0
-0.116925 2.241578 -0.014823 -0.657556 -0.199755 -0.726442 0 0 0
-0.072263 2.171949 -0.036104 -0.657556 -0.199755 -0.726442 0 0 0
-0.081315 2.164147 -0.025765 -0.657556 -0.199755 -0.726442 0 0 0
-0.116925 2.241578 -0.014823 0.851573 0.486655 0.194911 0 0 0
-0.074798 2.168487 -0.016385 0.851573 0.486655 0.194911 0 0 0
-0.072263 2.171949 -0.036104 0.851573 0.486655 0.194911 0 0 0
0.213847 2.839848 -0.007311 -0.592854 0.602827 -0.533969 0 0 0
0.004636 2.627828 -0.014390 -0.592854 0.602827 -0.533969 0 0 0
0.106891 2.833437 0.104202 -0.592854 0.602827 -0.533969 0 0 0
-0.316728 2.473046 -0.009232 0.644874 0.535762 0.545066 0 0 0
-0.110239 2.234749 -0.019302 0.644874 0.535762 0.545066 0 0 0
-0.290037 2.553859 -0.120244 0.644874 0.535762 0.545066 0 0 0
0.213847 2.839848 -0.007311 0.688638 -0.687236 0.231267 0 0 0
0.185745 2.877102 0.187071 0.688638 -0.687236 0.231267 0 0 0
0.004636 2.627828 -0.014390 0.688638 -0.687236 0.231267 0 0 0
-0.797664 2.492276 0.110110 0.166696 -0.907603 0.385316 0 0 0
-0.534407 2.487619 -0.014750 0.166696 -0.907603 0.385316 0 0 0
-0.532423 2.543091 0.115055 0.166696 -0.907603 0.385316 0 0 0
0.410239 3.019207 0.360458 0.235371 0.899259 0.368691 0 0 0
0.413498 3.049977 0.283327 0.235371 0.899259 0.368691 0 0 0
0.372937 3.032557 0.351710 0.235371 0.899259 0.368691 0 0 0
0.413498 3.049977 0.283327 -0.431673 0.901645 -0.026356 0 0 0
0.209498 2.950521 0.222130 -0.431673 0.901645 -0.026356 0 0 0
0.372937 3.032557 0.351710 -0.431673 0.901645 -0.026356 0 0 0
0.004636 2.627828 -0.014390 -0.115416 -0.572300 0.811882 0 0 0
0.185745 2.877102 0.187071 -0.115416 -0.572300 0.811882 0 0 0
-0.007958 2.934135 0.199738 -0.115416 -0.572300 0.811882 0 0 0
0.185745 2.877102 0.187071 -0.137977 -0.637042 0.758380 0 0 0
0.372937 3.032557 0.351710 -0.137977 -0.637042 0.758380 0 0 0
-0.007958 2.934135 0.199738 -0.137977 -0.637042 0.758380 0 0 0
0.299070 2.953244 0.106625 0.650752 -0.722785 0.232603 0 0 0
0.185745 2.877102 0.187071 0.650752 -0.722785 0.232603 0 0 0
0.213847 2.839848 -0.007311 0.650752 -0.722785 0.232603 0 0 0
0.106891 2.833437 0.104202 0.020686 0.700433 -0.713418 0 0 0
-0.007958 2.934135 0.199738 0.020686 0.700433 -0.713418 0 0 0
0.209498 2.950521 0.222130 0.020686 0.700433 -0.713418 0 0 0
0.299070 2.953244 0.106625 -0.490011 0.793320 -0.361293 0 0 0
0.106891 2.833437 0.104202 -0.490011 0.793320 -0.361293 0 0 0
0.209498 2.950521 0.222130 -0.490011 0.793320 -0.361293 0 0 0
-0.003259 0.771042 -0.101297 0.134020 0.916268 -0.377481 0 0 0
0.004849 0.771567 -0.097144 0.134020 0.916268 -0.377481 0 0 0
0.001937 0.769554 -0.103064 0.134020 0.916268 -0.377481 0 0 0
0.121877 1.056402 -0.380453 -0.642269 0.741320 -0.194771 0 0 0
0.186255 1.128262 -0.319236 -0.642269 0.741320 -0.194771 0 0 0
0.226240 1.088884 -0.600966 -0.642269 0.741320 -0.194771 0 0 0
0.226240 1.088884 -0.600966 -0.261352 -0.871236 -0.415504 0 0 0
0.118313 1.013527 -0.375070 -0.261352 -0.871236 -0.415504 0 0 0
0.025098 1.064316 -0.422933 -0.261352 -0.871236 -0.415504 0 0 0
0.226240 1.088884 -0.600966 0.014007 0.988250 0.152201 0 0 0
0.025098 1.064316 -0.422933 0.014007 0.988250 0.152201 0 0 0
0.121877 1.056402 -0.380453 0.014007 0.988250 0.152201 0 0 0
0.037753 1.164900 0.280217 -0.517608 -0.697259 0.495895 0 0 0
0.080793 1.304228 0.521045 -0.517608 -0.697259 0.495895 0 0 0
-0.091682 1.233085 0.240987 -0.517608 -0.697259 0.495895 0 0 0
0.040466 0.891310 -0.180099 -0.026815 -0.650012 -0.759451 0 0 0
-0.023608 0.719472 -0.030761 -0.026815 -0.650012 -0.759451 0 0 0
-0.098590 0.943413 -0.219784 -0.026815 -0.650012 -0.759451 0 0 0
-0.023608 0.719472 -0.030761 -0.662593 0.518306 0.540675 0 0 0
0.114608 0.956260 -0.088370 -0.662593 0.518306 0.540675 0 0 0
0.032919 0.923874 -0.157433 -0.662593 0.518306 0.540675 0 0 0
0.226240 1.088884 -0.600966 0.800256 -0.567773 0.192937 0 0 0
0.186255 1.128262 -0.319236 0.800256 -0.567773 0.192937 0 0 0
0.118313 1.013527 -0.375070 0.800256 -0.567773 0.192937 0 0 0
-0.098590 0.943413 -0.219784 -0.125214 0.884209 0.449995 0 0 0
0.121877 1.056402 -0.380453 -0.125214 0.884209 0.449995 0 0 0
0.025098 1.064316 -0.422933 -0.125214 0.884209 0.449995 0 0 0
0.032919 0.923874 -0.157433 -0.771315 0.632772 0.068358 0 0 0
0.186255 1.128262 -0.319236 -0.771315 0.632772 0.068358 0 0 0
0.121877 1.056402 -0.380453 -0.771315 0.632772 0.068358 0 0 0
-0.098590 0.943413 -0.219784 -0.142719 -0.811978 -0.565971 0 0 0
0.118313 1.013527 -0.375070 -0.142719 -0.811978 -0.565971 0 0 0
0.040466 0.891310 -0.180099 -0.142719 -0.811978 -0.565971 0 0 0
0.118313 1.013527 -0.375070 0.735926 -0.665711 -0.123462 0 0 0
0.114608 0.956260 -0.088370 0.735926 -0.665711 -0.123462 0 0 0
0.040466 0.891310 -0.180099 0.735926 -0.665711 -0.123462 0 0 0
-0.023608 0.719472 -0.030761 -0.285268 0.560642 0.777369 0 0 0
0.032919 0.923874 -0.157433 -0.285268 0.560642 0.777369 0 0 0
-0.098590 0.943413 -0.219784 -0.285268 0.560642 0.777369 0 0 0
0.014857 0.986834 0.067533 0.149316 0.208052 -0.966654 0 0 0
0.006431 0.912290 0.050187 0.149316 0.208052 -0.966654 0 0 0
-0.094440 1.022553 0.058338 0.149316 0.208052 -0.966654 0 0 0
0.108100 0.999585 -0.000062 -0.590747 0.245611 -0.768566 0 0 0
0.006431 0.912290 0.050187 -0.590747 0.245611 -0.768566 0 0 0
0.014857 0.986834 0.067533 -0.590747 0.245611 -0.768566 0 0 0
0.166645 1.216519 0.214273 -0.733722 0.679450 -0.000373 0 0 0
0.185139 1.236649 0.503166 -0.733722 0.679450 -0.000373 0 0 0
0.242045 1.298090 0.483996 -0.733722 0.679450 -0.000373 0 0 0
0.290039 1.201368 0.712270 0.524883 0.842507 -0.121163 0 0 0
0.185139 1.236649 0.503166 0.524883 0.842507 -0.121163 0 0 0
0.080793 1.304228 0.521045 0.524883 0.842507 -0.121163 0 0 0
0.290039 1.201368 0.712270 -0.598846 0.684408 0.415896 0 0 0
0.242045 1.298090 0.483996 -0.598846 0.684408 0.415896 0 0 0
0.185139 1.236649 0.503166 -0.598846 0.684408 0.415896 0 0 0
0.290039 1.201368 0.712270 -0.570767 -0.797476 0.195593 0 0 0
0.080793 1.304228 0.521045 -0.570767 -0.797476 0.195593 0 0 0
0.196862 1.214521 0.493995 -0.570767 -0.797476 0.195593 0 0 0
0.166645 1.216519 0.214273 0.351630 -0.935073 -0.044664 0 0 0
0.196862 1.214521 0.493995 0.351630 -0.935073 -0.044664 0 0 0
0.037753 1.164900 0.280217 0.351630 -0.935073 -0.044664 0 0 0
0.242045 1.298090 0.483996 0.798228 -0.475777 -0.369417 0 0 0
0.290039 1.201368 0.712270 0.798228 -0.475777 -0.369417 0 0 0
0.196862 1.214521 0.493995 0.798228 -0.475777 -0.369417 0 0 0
0.166645 1.216519 0.214273 0.702708 -0.586944 0.402118 0 0 0
0.006431 0.912290 0.050187 0.702708 -0.586944 0.402118 0 0 0
0.108100 0.999585 -0.000062 0.702708 -0.586944 0.402118 0 0 0
0.026991 1.192565 0.252832 0.286096 0.625783 -0.725634 0 0 0
-0.094440 1.022553 0.058338 0.286096 0.625783 -0.725634 0 0 0
-0.091682 1.233085 0.240987 0.286096 0.625783 -0.725634 0 0 0
0.166645 1.216519 0.214273 -0.304011 0.647407 -0.698886 0 0 0
0.014857 0.986834 0.067533 -0.304011 0.647407 -0.698886 0 0 0
0.026991 1.192565 0.252832 -0.304011 0.647407 -0.698886 0 0 0
0.037753 1.164900 0.280217 -0.530391 -0.533889 0.658519 0 0 0
-0.094440 1.022553 0.058338 -0.530391 -0.533889 0.658519 0 0 0
0.006431 0.912290 0.050187 -0.530391 -0.533889 0.658519 0 0 0
-0.130627 1.389269 -0.074821 0.182739 -0.554429 -0.811920 0 0 0
-0.211079 1.468966 -0.147351 0.182739 -0.554429 -0.811920 0 0 0
-0.123406 1.581590 -0.204525 0.182739 -0.554429 -0.811920 0 0 0
-0.539213 1.734951 -0.355941 -0.602914 0.693723 0.394009 0 0 0
-0.691422 1.722401 -0.566755 -0.602914 0.693723 0.394009 0 0 0
-0.766217 1.615689 -0.493321 -0.602914 0.693723 0.394009 0 0 0
-0.823436 1.557055 -0.510508 -0.729856 0.652293 0.204509 0 0 0
-0.766217 1.615689 -0.493321 -0.729856 0.652293 0.204509 0 0 0
-0.691422 1.722401 -0.566755 -0.729856 0.652293 0.204509 0 0 0
-0.823436 1.557055 -0.510508 -0.401231 0.595545 -0.695945 0 0 0
-0.812401 1.670181 -0.420064 -0.401231 0.595545 -0.695945 0 0 0
-0.766217 1.615689 -0.493321 -0.401231 0.595545 -0.695945 0 0 0
-0.642027 1.728469 -0.270226 0.168394 0.838786 -0.517766 0 0 0
-0.766217 1.615689 -0.493321 0.168394 0.838786 -0.517766 0 0 0
-0.812401 1.670181 -0.420064 0.168394 0.838786 -0.517766 0 0 0
-0.261320 1.534881 -0.003509 -0.728587 -0.682471 0.058259 0 0 0
-0.211079 1.468966 -0.147351 -0.728587 -0.682471 0.058259 0 0 0
-0.130627 1.389269 -0.074821 -0.728587 -0.682471 0.058259 0 0 0
-0.261320 1.534881 -0.003509 -0.750010 -0.660181 0.040562 0 0 0
-0.357117 1.629312 -0.237892 -0.750010 -0.660181 0.040562 0 0 0
-0.211079 1.468966 -0.147351 -0.750010 -0.660181 0.040562 0 0 0
-0.537512 1.674124 -0.372069 0.633194 -0.467850 -0.616589 0 0 0
-0.691422 1.722401 -0.566755 0.633194 -0.467850 -0.616589 0 0 0
-0.478569 1.824270 -0.425465 0.633194 -0.467850 -0.616589 0 0 0
-0.357117 1.629312 -0.237892 0.286137 -0.565774 -0.773321 0 0 0
-0.478569 1.824270 -0.425465 0.286137 -0.565774 -0.773321 0 0 0
-0.260467 1.761900 -0.299134 0.286137 -0.565774 -0.773321 0 0 0
-0.449027 1.688987 -0.090871 -0.347228 -0.924354 0.158121 0 0 0
-0.537512 1.674124 -0.372069 -0.347228 -0.924354 0.158121 0 0 0
-0.357117 1.629312 -0.237892 -0.347228 -0.924354 0.158121 0 0 0
-0.539213 1.734951 -0.355941 -0.208493 0.684957 0.698115 0 0 0
-0.260467 1.761900 -0.299134 -0.208493 0.684957 0.698115 0 0 0
-0.478569 1.824270 -0.425465 -0.208493 0.684957 0.698115 0 0 0
-0.449027 1.688987 -0.090871 0.062663 0.986731 0.149782 0 0 0
-0.539213 1.734951 -0.355941 0.062663 0.986731 0.149782 0 0 0
-0.642027 1.728469 -0.270226 0.062663 0.986731 0.149782 0 0 0
-0.337640 1.679558 -0.218508 0.211538 0.575353 0.790076 0 0 0
-0.123406 1.581590 -0.204525 0.211538 0.575353 0.790076 0 0 0
-0.260467 1.761900 -0.299134 0.211538 0.575353 0.790076 0 0 0
-0.261320 1.534881 -0.003509 0.484114 0.795842 0.363688 0 0 0
-0.337640 1.679558 -0.218508 0.484114 0.795842 0.363688 0 0 0
-0.449027 1.688987 -0.090871 0.484114 0.795842 0.363688 0 0 0
-0.357117 1.629312 -0.237892 0.029756 -0.470785 -0.881746 0 0 0
-0.123406 1.581590 -0.204525 0.029756 -0.470785 -0.881746 0 0 0
-0.211079 1.468966 -0.147351 0.029756 -0.470785 -0.881746 0 0 0
0.276571 2.275480 -0.185827 -0.623453 0.780963 -0.037445 0 0 0
0.002849 2.065457 -0.008695 -0.623453 0.780963 -0.037445 0 0 0
0.272756 2.281560 0.004496 -0.623453 0.780963 -0.037445 0 0 0
0.276571 2.275480 -0.185827 0.497334 -0.837890 -0.224943 0 0 0
0.500458 2.358231 0.000933 0.497334 -0.837890 -0.224943 0 0 0
0.002849 2.065457 -0.008695 0.497334 -0.837890 -0.224943 0 0 0
0.413498 3.049977 0.283327 0.586639 -0.807461 0.062140 0 0 0
0.185745 2.877102 0.187071 0.586639 -0.807461 0.062140 0 0 0
0.299070 2.953244 0.106625 0.586639 -0.807461 0.062140 0 0 0
0.922993 2.519632 -0.035426 -0.059473 0.993412 0.097955 0 0 0
0.759554 2.516408 -0.101960 -0.059473 0.993412 0.097955 0 0 0
0.841862 2.513095 -0.018388 -0.059473 0.993412 0.097955 0 0 0
0.759554 2.516408 -0.101960 -0.232768 0.935355 0.266327 0 0 0
0.525976 2.427711 0.005403 -0.232768 0.935355 0.266327 0 0 0
0.841862 2.513095 -0.018388 -0.232768 0.935355 0.266327 0 0 0
0.002849 2.065457 -0.008695 0.353967 -0.624509 0.696200 0 0 0
0.500458 2.358231 0.000933 0.353967 -0.624509 0.696200 0 0 0
0.385061 2.491577 0.179218 0.353967 -0.624509 0.696200 0 0 0
0.500458 2.358231 0.000933 0.329977 -0.640990 0.692999 0 0 0
0.841862 2.513095 -0.018388 0.329977 -0.640990 0.692999 0 0 0
0.385061 2.491577 0.179218 0.329977 -0.640990 0.692999 0 0 0
0.509193 2.420887 -0.171817 0.522284 -0.809796 -0.267301 0 0 0
0.500458 2.358231 0.000933 0.522284 -0.809796 -0.267301 0 0 0
0.276571 2.275480 -0.185827 0.522284 -0.809796 -0.267301 0 0 0
0.272756 2.281560 0.004496 -0.403649 0.702993 -0.585550 0 0 0
0.385061 2.491577 0.179218 -0.403649 0.702993 -0.585550 0 0 0
0.525976 2.427711 0.005403 -0.403649 0.702993 -0.585550 0 0 0
0.509193 2.420887 -0.171817 -0.499872 0.865986 0.013993 0 0 0
0.272756 2.281560 0.004496 -0.499872 0.865986 0.013993 0 0 0
0.525976 2.427711 0.005403 -0.499872 0.865986 0.013993 0 0 0
0.010696 2.069611 -0.010904 0.682692 -0.423861 -0.595209 0 0 0
-0.039266 1.993677 -0.014135 0.682692 -0.423861 -0.595209 0 0 0
-0.046350 1.999107 -0.026127 0.682692 -0.423861 -0.595209 0 0 0
0.010696 2.069611 -0.010904 -0.731569 0.641666 -0.230373 0 0 0
-0.046350 1.999107 -0.026127 -0.731569 0.641666 -0.230373 0 0 0
-0.052448 2.001719 0.000513 -0.731569 0.641666 -0.230373 0 0 0
0.100633 1.601712 -0.352330 -0.597144 0.644189 0.477954 0 0 0
-0.003038 1.278889 -0.046751 -0.597144 0.644189 0.477954 0 0 0
0.192023 1.570492 -0.196071 -0.597144 0.644189 0.477954 0 0 0
0.100633 1.601712 -0.352330 0.290782 -0.705336 -0.646488 0 0 0
0.213403 1.524674 -0.217557 0.290782 -0.705336 -0.646488 0 0 0
-0.003038 1.278889 -0.046751 0.290782 -0.705336 -0.646488 0 0 0
0.412748 1.666402 -0.337805 -0.293867 0.770601 -0.565522 0 0 0
0.660360 1.678275 -0.450295 -0.293867 0.770601 -0.565522 0 0 0
0.613714 1.578947 -0.561404 -0.293867 0.770601 -0.565522 0 0 0
0.765620 1.421960 -0.745372 -0.024479 0.750386 -0.660546 0 0 0
0.613714 1.578947 -0.561404 -0.024479 0.750386 -0.660546 0 0 0
0.660360 1.678275 -0.450295 -0.024479 0.750386 -0.660546 0 0 0
0.765620 1.421960 -0.745372 0.737481 0.674545 0.033338 0 0 0
0.557474 1.643587 -0.625196 0.737481 0.674545 0.033338 0 0 0
0.613714 1.578947 -0.561404 0.737481 0.674545 0.033338 0 0 0
0.765620 1.421960 -0.745372 0.180755 -0.709684 0.680937 0 0 0
0.660360 1.678275 -0.450295 0.180755 -0.709684 0.680937 0 0 0
0.603041 1.548769 -0.570053 0.180755 -0.709684 0.680937 0 0 0
0.557474 1.643587 -0.625196 0.600901 0.761768 0.242131 0 0 0
0.412748 1.666402 -0.337805 0.600901 0.761768 0.242131 0 0 0
0.613714 1.578947 -0.561404 0.600901 0.761768 0.242131 0 0 0
0.557474 1.643587 -0.625196 -0.771081 -0.553556 -0.314659 0 0 0
0.765620 1.421960 -0.745372 -0.771081 -0.553556 -0.314659 0 0 0
0.603041 1.548769 -0.570053 -0.771081 -0.553556 -0.314659 0 0 0
-0.003038 1.278889 -0.046751 0.807263 -0.528952 0.261796 0 0 0
0.213403 1.524674 -0.217557 0.807263 -0.528952 0.261796 0 0 0
0.231357 1.631740 -0.056595 0.807263 -0.528952 0.261796 0 0 0
0.410881 1.604983 -0.348554 0.437281 -0.693302 0.572816 0 0 0
0.660360 1.678275 -0.450295 0.437281 -0.693302 0.572816 0 0 0
0.428159 1.748920 -0.187531 0.437281 -0.693302 0.572816 0 0 0
0.213403 1.524674 -0.217557 0.644985 -0.667508 0.372058 0 0 0
0.428159 1.748920 -0.187531 0.644985 -0.667508 0.372058 0 0 0
0.231357 1.631740 -0.056595 0.644985 -0.667508 0.372058 0 0 0
0.100633 1.601712 -0.352330 0.015250 -0.862523 -0.505789 0 0 0
0.410881 1.604983 -0.348554 0.015250 -0.862523 -0.505789 0 0 0
0.213403 1.524674 -0.217557 0.015250 -0.862523 -0.505789 0 0 0
0.192023 1.570492 -0.196071 -0.555171 0.751760 -0.355870 0 0 0
0.428159 1.748920 -0.187531 -0.555171 0.751760 -0.355870 0 0 0
0.412748 1.666402 -0.337805 -0.555171 0.751760 -0.355870 0 0 0
0.100633 1.601712 -0.352330 -0.205125 0.907226 0.367239 0 0 0
0.412748 1.666402 -0.337805 -0.205125 0.907226 0.367239 0 0 0
0.328087 1.695466 -0.456893 -0.205125 0.907226 0.367239 0 0 0
-0.051624 2.968450 -0.087403 -0.167804 0.258905 -0.951215 255 202 0
0.102344 3.136125 -0.068926 -0.167804 0.258905 -0.951215 255 202 0
-0.024361 2.962669 -0.093786 -0.167804 0.258905 -0.951215 255 202 0
-0.051624 2.968450 -0.087403 -0.604268 0.485227 0.631993 255 202 0
-0.031854 2.965824 -0.066484 -0.604268 0.485227 0.631993 255 202 0
0.102344 3.136125 -0.068926 -0.604268 0.485227 0.631993 255 202 0
-0.028911 2.976381 -0.076702 0.552426 0.800734 -0.231624 255 202 0
-0.024504 2.968221 -0.094400 0.552426 0.800734 -0.231624 255 202 0
-0.040685 2.979453 -0.094163 0.552426 0.800734 -0.231624 255 202 0
-0.088334 1.982133 -0.054042 -0.997828 -0.028841 -0.059228 0 0 0
-0.033372 0.005267 -0.017375 -0.997828 -0.028841 -0.059228 0 0 0
-0.092210 1.983904 0.010388 -0.997828 -0.028841 -0.059228 0 0 0
-0.058352 2.966041 -0.108970 0.679276 -0.012445 -0.733778 0 0 0
0.004457 2.621919 -0.044990 0.679276 -0.012445 -0.733778 0 0 0
-0.039110 2.621919 -0.085321 0.679276 -0.012445 -0.733778 0 0 0
-0.057776 2.971702 -0.057685 -0.218688 0.970169 -0.104634 0 0 0
-0.014200 2.980227 -0.069717 -0.218688 0.970169 -0.104634 0 0 0
-0.058352 2.966041 -0.108970 -0.218688 0.970169 -0.104634 0 0 0
-0.043427 2.960449 -0.083672 -0.271829 0.925744 0.262881 255 202 0
-0.035810 2.956907 -0.063324 -0.271829 0.925744 0.262881 255 201 0
-0.022245 2.964058 -0.074478 -0.271829 0.925744 0.262881 255 202 0
-0.021688 2.969477 -0.093728 -0.366107 0.855398 -0.366415 255 202 0
-0.042178 2.959381 -0.096824 -0.366107 0.855398 -0.366415 255 202 0
-0.038606 2.967518 -0.081398 -0.366107 0.855398 -0.366415 254 202 0
-0.027822 1.957602 0.004844 0.039520 -0.011483 0.999153 0 0 0
-0.033372 0.005267 -0.017375 0.039520 -0.011483 0.999153 0 0 0
0.053380 0.005210 -0.020807 0.039520 -0.011483 0.999153 0 0 0
-0.039110 2.621919 -0.085321 -0.998357 -0.054639 0.017244 0 0 0
-0.057776 2.971702 -0.057685 -0.998357 -0.054639 0.017244 0 0 0
-0.058352 2.966041 -0.108970 -0.998357 -0.054639 0.017244 0 0 0
0.759554 2.516408 -0.101960 0.411024 -0.863462 -0.292392 0 0 0
0.500458 2.358231 0.000933 0.411024 -0.863462 -0.292392 0 0 0
0.509193 2.420887 -0.171817 0.411024 -0.863462 -0.292392 0 0 0
0.557474 1.643587 -0.625196 -0.443499 -0.825051 -0.350142 0 0 0
0.410881 1.604983 -0.348554 -0.443499 -0.825051 -0.350142 0 0 0
0.328087 1.695466 -0.456893 -0.443499 -0.825051 -0.350142 0 0 0
-0.039110 2.621919 -0.085321 0.676215 -0.087787 -0.731455 0 0 0
-0.027822 1.957602 0.004844 0.676215 -0.087787 -0.731455 0 0 0
-0.088334 1.982133 -0.054042 0.676215 -0.087787 -0.731455 0 0 0
-0.024361 2.962669 -0.093786 0.756819 -0.592416 0.276167 255 202 0
0.102344 3.136125 -0.068926 0.756819 -0.592416 0.276167 255 202 0
-0.031854 2.965824 -0.066484 0.756819 -0.592416 0.276167 255 202 0
0.106891 2.833437 0.104202 -0.183757 0.558103 -0.809169 0 0 0
0.004636 2.627828 -0.014390 -0.183757 0.558103 -0.809169 0 0 0
-0.007958 2.934135 0.199738 -0.183757 0.558103 -0.809169 0 0 0
0.026991 1.192565 0.252832 0.441953 0.793226 -0.418891 0 0 0
0.080793 1.304228 0.521045 0.441953 0.793226 -0.418891 0 0 0
0.185139 1.236649 0.503166 0.441953 0.793226 -0.418891 0 0 0
0.272756 2.281560 0.004496 -0.529792 0.691658 -0.490846 0 0 0
0.002849 2.065457 -0.008695 -0.529792 0.691658 -0.490846 0 0 0
0.385061 2.491577 0.179218 -0.529792 0.691658 -0.490846 0 0 0
0.192023 1.570492 -0.196071 -0.833039 0.553156 -0.007979 0 0 0
-0.003038 1.278889 -0.046751 -0.833039 0.553156 -0.007979 0 0 0
0.231357 1.631740 -0.056595 -0.833039 0.553156 -0.007979 0 0 0
-0.088334 1.982133 -0.054042 -0.994846 0.080199 -0.062047 0 0 0
-0.092210 1.983904 0.010388 -0.994846 0.080199 -0.062047 0 0 0
-0.037967 2.621919 -0.034661 -0.994846 0.080199 -0.062047 0 0 0
0.004457 2.621919 -0.044990 0.250804 0.079638 0.964757 0 0 0
-0.014200 2.980227 -0.069717 0.250804 0.079638 0.964757 0 0 0
-0.057776 2.971702 -0.057685 0.250804 0.079638 0.964757 0 0 0
-0.027822 1.957602 0.004844 0.688812 0.038160 -0.723935 0 0 0
0.053380 0.005210 -0.020807 0.688812 0.038160 -0.723935 0 0 0
-0.022029 0.005235 -0.092556 0.688812 0.038160 -0.723935 0 0 0
-0.027822 1.957602 0.004844 0.236116 0.061276 0.969791 0 0 0
0.004457 2.621919 -0.044990 0.236116 0.061276 0.969791 0 0 0
-0.037967 2.621919 -0.034661 0.236116 0.061276 0.969791 0 0 0
-0.812401 1.670181 -0.420064 -0.127536 -0.611738 0.780712 0 0 0
-0.823436 1.557055 -0.510508 -0.127536 -0.611738 0.780712 0 0 0
-0.537512 1.674124 -0.372069 -0.127536 -0.611738 0.780712 0 0 0
-0.532485 2.541384 -0.013456 -0.073758 0.747143 0.660558 0 0 0
-0.471967 2.634508 -0.112029 -0.073758 0.747143 0.660558 0 0 0
-0.785197 2.554003 -0.055947 -0.073758 0.747143 0.660558 0 0 0
-0.797664 2.492276 0.110110 -0.187910 0.982101 -0.012955 0 0 0
-0.532423 2.543091 0.115055 -0.187910 0.982101 -0.012955 0 0 0
-0.532485 2.541384 -0.013456 -0.187910 0.982101 -0.012955 0 0 0
-0.534407 2.487619 -0.014750 -0.006783 -0.545662 -0.837978 0 0 0
-0.840413 2.407819 0.039690 -0.006783 -0.545662 -0.837978 0 0 0
-0.785197 2.554003 -0.055947 -0.006783 -0.545662 -0.837978 0 0 0
-0.341519 2.432248 -0.012062 -0.133694 -0.507068 -0.851474 0 0 0
-0.534407 2.487619 -0.014750 -0.133694 -0.507068 -0.851474 0 0 0
-0.471967 2.634508 -0.112029 -0.133694 -0.507068 -0.851474 0 0 0
-0.532423 2.543091 0.115055 -0.259824 -0.886529 0.382829 0 0 0
-0.534407 2.487619 -0.014750 -0.259824 -0.886529 0.382829 0 0 0
-0.341519 2.432248 -0.012062 -0.259824 -0.886529 0.382829 0 0 0
-0.316728 2.473046 -0.009232 0.345302 0.717296 0.605189 0 0 0
-0.290037 2.553859 -0.120244 0.345302 0.717296 0.605189 0 0 0
-0.471967 2.634508 -0.112029 0.345302 0.717296 0.605189 0 0 0
-0.532423 2.543091 0.115055 0.338512 0.939161 0.058187 0 0 0
-0.333753 2.469690 0.143980 0.338512 0.939161 0.058187 0 0 0
-0.316728 2.473046 -0.009232 0.338512 0.939161 0.058187 0 0 0
-0.116925 2.241578 -0.014823 -0.659450 -0.393769 0.640369 0 0 0
-0.081315 2.164147 -0.025765 -0.659450 -0.393769 0.640369 0 0 0
-0.074798 2.168487 -0.016385 -0.659450 -0.393769 0.640369 0 0 0
-0.797664 2.492276 0.110110 0.297729 -0.695739 0.653686 0 0 0
-0.840413 2.407819 0.039690 0.297729 -0.695739 0.653686 0 0 0
-0.534407 2.487619 -0.014750 0.297729 -0.695739 0.653686 0 0 0
0.209498 2.950521 0.222130 -0.009930 0.850484 -0.525907 0 0 0
-0.007958 2.934135 0.199738 -0.009930 0.850484 -0.525907 0 0 0
0.372937 3.032557 0.351710 -0.009930 0.850484 -0.525907 0 0 0
0.413498 3.049977 0.283327 -0.359800 0.896684 -0.257879 0 0 0
0.299070 2.953244 0.106625 -0.359800 0.896684 -0.257879 0 0 0
0.209498 2.950521 0.222130 -0.359800 0.896684 -0.257879 0 0 0
0.185745 2.877102 0.187071 -0.352626 -0.446400 0.822425 0 0 0
0.410239 3.019207 0.360458 -0.352626 -0.446400 0.822425 0 0 0
0.372937 3.032557 0.351710 -0.352626 -0.446400 0.822425 0 0 0
0.299070 2.953244 0.106625 -0.477855 0.774882 -0.413778 0 0 0
0.213847 2.839848 -0.007311 -0.477855 0.774882 -0.413778 0 0 0
0.106891 2.833437 0.104202 -0.477855 0.774882 -0.413778 0 0 0
0.015460 2.648785 -0.001942 -0.324401 -0.254512 0.911037 0 0 0
-0.039400 2.566578 -0.044442 -0.324401 -0.254512 0.911037 0 0 0
-0.018139 2.558690 -0.039075 -0.324401 -0.254512 0.911037 0 0 0
-0.012582 2.559967 -0.054444 -0.173479 0.541165 -0.822828 0 0 0
-0.039400 2.566578 -0.044442 -0.173479 0.541165 -0.822828 0 0 0
0.015460 2.648785 -0.001942 -0.173479 0.541165 -0.822828 0 0 0
0.037753 1.164900 0.280217 -0.450521 -0.735502 0.506031 0 0 0
0.196862 1.214521 0.493995 -0.450521 -0.735502 0.506031 0 0 0
0.080793 1.304228 0.521045 -0.450521 -0.735502 0.506031 0 0 0
-0.098590 0.943413 -0.219784 -0.097674 0.872184 0.479328 0 0 0
0.032919 0.923874 -0.157433 -0.097674 0.872184 0.479328 0 0 0
0.121877 1.056402 -0.380453 -0.097674 0.872184 0.479328 0 0 0
0.032919 0.923874 -0.157433 -0.589241 0.724758 0.357101 0 0 0
0.114608 0.956260 -0.088370 -0.589241 0.724758 0.357101 0 0 0
0.186255 1.128262 -0.319236 -0.589241 0.724758 0.357101 0 0 0
-0.098590 0.943413 -0.219784 -0.147279 -0.807965 -0.570527 0 0 0
0.025098 1.064316 -0.422933 -0.147279 -0.807965 -0.570527 0 0 0
0.118313 1.013527 -0.375070 -0.147279 -0.807965 -0.570527 0 0 0
0.118313 1.013527 -0.375070 0.874800 -0.477147 -0.084003 0 0 0
0.186255 1.128262 -0.319236 0.874800 -0.477147 -0.084003 0 0 0
0.114608 0.956260 -0.088370 0.874800 -0.477147 -0.084003 0 0 0
0.166645 1.216519 0.214273 -0.183946 0.981305 -0.056602 0 0 0
0.026991 1.192565 0.252832 -0.183946 0.981305 -0.056602 0 0 0
0.185139 1.236649 0.503166 -0.183946 0.981305 -0.056602 0 0 0
0.166645 1.216519 0.214273 0.870543 -0.482339 -0.097486 0 0 0
0.242045 1.298090 0.483996 0.870543 -0.482339 -0.097486 0 0 0
0.196862 1.214521 0.493995 0.870543 -0.482339 -0.097486 0 0 0
0.166645 1.216519 0.214273 0.541401 -0.601788 0.587142 0 0 0
0.037753 1.164900 0.280217 0.541401 -0.601788 0.587142 0 0 0
0.006431 0.912290 0.050187 0.541401 -0.601788 0.587142 0 0 0
0.026991 1.192565 0.252832 0.268669 0.635843 -0.723547 0 0 0
0.014857 0.986834 0.067533 0.268669 0.635843 -0.723547 0 0 0
-0.094440 1.022553 0.058338 0.268669 0.635843 -0.723547 0 0 0
0.166645 1.216519 0.214273 -0.490991 0.675740 -0.549821 0 0 0
0.108100 0.999585 -0.000062 -0.490991 0.675740 -0.549821 0 0 0
0.014857 0.986834 0.067533 -0.490991 0.675740 -0.549821 0 0 0
0.037753 1.164900 0.280217 -0.497175 -0.564860 0.658598 0 0 0
-0.091682 1.233085 0.240987 -0.497175 -0.564860 0.658598 0 0 0
-0.094440 1.022553 0.058338 -0.497175 -0.564860 0.658598 0 0 0
0.007592 0.876147 0.033288 -0.415153 -0.355313 0.837497 0 0 0
-0.028584 0.783172 -0.024090 -0.415153 -0.355313 0.837497 0 0 0
-0.003839 0.780086 -0.013133 -0.415153 -0.355313 0.837497 0 0 0
0.005241 0.784191 -0.028869 -0.132589 0.557390 -0.819596 0 0 0
-0.028584 0.783172 -0.024090 -0.132589 0.557390 -0.819596 0 0 0
0.007592 0.876147 0.033288 -0.132589 0.557390 -0.819596 0 0 0
-0.539213 1.734951 -0.355941 -0.594342 0.704888 0.387156 0 0 0
-0.478569 1.824270 -0.425465 -0.594342 0.704888 0.387156 0 0 0
-0.691422 1.722401 -0.566755 -0.594342 0.704888 0.387156 0 0 0
-0.642027 1.728469 -0.270226 -0.300495 0.908060 -0.291770 0 0 0
-0.539213 1.734951 -0.355941 -0.300495 0.908060 -0.291770 0 0 0
-0.766217 1.615689 -0.493321 -0.300495 0.908060 -0.291770 0 0 0
-0.261320 1.534881 -0.003509 -0.614836 -0.785942 -0.065354 0 0 0
-0.449027 1.688987 -0.090871 -0.614836 -0.785942 -0.065354 0 0 0
-0.357117 1.629312 -0.237892 -0.614836 -0.785942 -0.065354 0 0 0
-0.537512 1.674124 -0.372069 0.532674 -0.620920 -0.575080 0 0 0
-0.823436 1.557055 -0.510508 0.532674 -0.620920 -0.575080 0 0 0
-0.691422 1.722401 -0.566755 0.532674 -0.620920 -0.575080 0 0 0
-0.357117 1.629312 -0.237892 0.457390 -0.451923 -0.765872 0 0 0
-0.537512 1.674124 -0.372069 0.457390 -0.451923 -0.765872 0 0 0
-0.478569 1.824270 -0.425465 0.457390 -0.451923 -0.765872 0 0 0
-0.449027 1.688987 -0.090871 -0.333466 -0.930084 0.154093 0 0 0
-0.642027 1.728469 -0.270226 -0.333466 -0.930084 0.154093 0 0 0
-0.537512 1.674124 -0.372069 -0.333466 -0.930084 0.154093 0 0 0
-0.539213 1.734951 -0.355941 -0.197428 0.774052 0.601553 0 0 0
-0.337640 1.679558 -0.218508 -0.197428 0.774052 0.601553 0 0 0
-0.260467 1.761900 -0.299134 -0.197428 0.774052 0.601553 0 0 0
-0.449027 1.688987 -0.090871 0.198730 0.974793 0.101417 0 0 0
-0.337640 1.679558 -0.218508 0.198730 0.974793 0.101417 0 0 0
-0.539213 1.734951 -0.355941 0.198730 0.974793 0.101417 0 0 0
-0.337640 1.679558 -0.218508 0.195171 0.543337 0.816513 0 0 0
-0.130627 1.389269 -0.074821 0.195171 0.543337 0.816513 0 0 0
-0.123406 1.581590 -0.204525 0.195171 0.543337 0.816513 0 0 0
-0.261320 1.534881 -0.003509 0.770502 0.620891 0.144298 0 0 0
-0.130627 1.389269 -0.074821 0.770502 0.620891 0.144298 0 0 0
-0.337640 1.679558 -0.218508 0.770502 0.620891 0.144298 0 0 0
-0.357117 1.629312 -0.237892 0.037808 -0.441609 -0.896410 0 0 0
-0.260467 1.761900 -0.299134 0.037808 -0.441609 -0.896410 0 0 0
-0.123406 1.581590 -0.204525 0.037808 -0.441609 -0.896410 0 0 0
-0.044629 1.259113 -0.040078 -0.127396 -0.348481 -0.928618 0 0 0
-0.072696 1.245508 -0.031122 -0.127396 -0.348481 -0.928618 0 0 0
-0.141437 1.406021 -0.081927 -0.127396 -0.348481 -0.928618 0 0 0
-0.073676 1.255605 -0.011047 0.558385 0.545902 0.624657 0 0 0
-0.044629 1.259113 -0.040078 0.558385 0.545902 0.624657 0 0 0
-0.141437 1.406021 -0.081927 0.558385 0.545902 0.624657 0 0 0
0.413498 3.049977 0.283327 0.650897 -0.714194 -0.257409 0 0 0
0.410239 3.019207 0.360458 0.650897 -0.714194 -0.257409 0 0 0
0.185745 2.877102 0.187071 0.650897 -0.714194 -0.257409 0 0 0
0.525976 2.427711 0.005403 -0.259898 0.818962 -0.511620 0 0 0
0.385061 2.491577 0.179218 -0.259898 0.818962 -0.511620 0 0 0
0.841862 2.513095 -0.018388 -0.259898 0.818962 -0.511620 0 0 0
0.759554 2.516408 -0.101960 -0.355913 0.934516 -0.002279 0 0 0
0.509193 2.420887 -0.171817 -0.355913 0.934516 -0.002279 0 0 0
0.525976 2.427711 0.005403 -0.355913 0.934516 -0.002279 0 0 0
0.500458 2.358231 0.000933 0.219398 -0.371102 0.902301 0 0 0
0.922993 2.519632 -0.035426 0.219398 -0.371102 0.902301 0 0 0
0.841862 2.513095 -0.018388 0.219398 -0.371102 0.902301 0 0 0
0.509193 2.420887 -0.171817 -0.528037 0.848385 -0.037686 0 0 0
0.276571 2.275480 -0.185827 -0.528037 0.848385 -0.037686 0 0 0
0.272756 2.281560 0.004496 -0.528037 0.848385 -0.037686 0 0 0
0.010696 2.069611 -0.010904 0.561148 -0.400048 0.724620 0 0 0
-0.052448 2.001719 0.000513 0.561148 -0.400048 0.724620 0 0 0
-0.039266 1.993677 -0.014135 0.561148 -0.400048 0.724620 0 0 0
0.412748 1.666402 -0.337805 -0.244476 0.860304 -0.447336 0 0 0
0.428159 1.748920 -0.187531 -0.244476 0.860304 -0.447336 0 0 0
0.660360 1.678275 -0.450295 -0.244476 0.860304 -0.447336 0 0 0
0.557474 1.643587 -0.625196 0.256989 0.964970 0.052810 0 0 0
0.328087 1.695466 -0.456893 0.256989 0.964970 0.052810 0 0 0
0.412748 1.666402 -0.337805 0.256989 0.964970 0.052810 0 0 0
0.410881 1.604983 -0.348554 0.434987 -0.707538 0.556935 0 0 0
0.603041 1.548769 -0.570053 0.434987 -0.707538 0.556935 0 0 0
0.660360 1.678275 -0.450295 0.434987 -0.707538 0.556935 0 0 0
0.213403 1.524674 -0.217557 0.590104 -0.632338 0.501922 0 0 0
0.410881 1.604983 -0.348554 0.590104 -0.632338 0.501922 0 0 0
0.428159 1.748920 -0.187531 0.590104 -0.632338 0.501922 0 0 0
0.100633 1.601712 -0.352330 0.015915 -0.761407 -0.648078 0 0 0
0.328087 1.695466 -0.456893 0.015915 -0.761407 -0.648078 0 0 0
0.410881 1.604983 -0.348554 0.015915 -0.761407 -0.648078 0 0 0
0.192023 1.570492 -0.196071 -0.588873 0.787941 -0.179938 0 0 0
0.231357 1.631740 -0.056595 -0.588873 0.787941 -0.179938 0 0 0
0.428159 1.748920 -0.187531 -0.588873 0.787941 -0.179938 0 0 0
0.100633 1.601712 -0.352330 -0.206835 0.929094 0.306600 0 0 0
0.192023 1.570492 -0.196071 -0.206835 0.929094 0.306600 0 0 0
0.412748 1.666402 -0.337805 -0.206835 0.929094 0.306600 0 0 0
-0.088334 1.982133 -0.054042 -0.988358 -0.030245 -0.149107 0 0 0
-0.022029 0.005235 -0.092556 -0.988358 -0.030245 -0.149107 0 0 0
-0.033372 0.005267 -0.017375 -0.988358 -0.030245 -0.149107 0 0 0
-0.058352 2.966041 -0.108970 0.667316 -0.016637 -0.744588 0 0 0
-0.014200 2.980227 -0.069717 0.667316 -0.016637 -0.744588 0 0 0
0.004457 2.621919 -0.044990 0.667316 -0.016637 -0.744588 0 0 0
-0.027822 1.957602 0.004844 0.081095 -0.011573 0.996639 0 0 0
-0.092210 1.983904 0.010388 0.081095 -0.011573 0.996639 0 0 0
-0.033372 0.005267 -0.017375 0.081095 -0.011573 0.996639 0 0 0
-0.039110 2.621919 -0.085321 -0.998230 -0.055049 0.022522 0 0 0
-0.037967 2.621919 -0.034661 -0.998230 -0.055049 0.022522 0 0 0
-0.057776 2.971702 -0.057685 -0.998230 -0.055049 0.022522 0 0 0
0.759554 2.516408 -0.101960 0.248823 -0.780572 -0.573406 0 0 0
0.922993 2.519632 -0.035426 0.248823 -0.780572 -0.573406 0 0 0
0.500458 2.358231 0.000933 0.248823 -0.780572 -0.573406 0 0 0
0.557474 1.643587 -0.625196 -0.680577 -0.584214 -0.442163 0 0 0
0.603041 1.548769 -0.570053 -0.680577 -0.584214 -0.442163 0 0 0
0.410881 1.604983 -0.348554 -0.680577 -0.584214 -0.442163 0 0 0
-0.039110 2.621919 -0.085321 0.676709 -0.087718 -0.731006 0 0 0
0.004457 2.621919 -0.044990 0.676709 -0.087718 -0.731006 0 0 0
-0.027822 1.957602 0.004844 0.676709 -0.087718 -0.731006 0 0 0
-0.141437 1.406021 -0.081927 -0.925622 -0.354304 0.133017 0 0 0
-0.072696 1.245508 -0.031122 -0.925622 -0.354304 0.133017 0 0 0
-0.073676 1.255605 -0.011047 -0.925622 -0.354304 0.133017 0 0 0
-0.003839 0.780086 -0.013133 0.857522 -0.302966 0.415774 0 0 0
0.005241 0.784191 -0.028869 0.857522 -0.302966 0.415774 0 0 0
0.007592 0.876147 0.033288 0.857522 -0.302966 0.415774 0 0 0
-0.018139 2.558690 -0.039075 0.858483 -0.433253 0.274406 0 0 0
-0.012582 2.559967 -0.054444 0.858483 -0.433253 0.274406 0 0 0
0.015460 2.648785 -0.001942 0.858483 -0.433253 0.274406 0 0 0
0.026991 1.192565 0.252832 0.330602 0.845913 -0.418489 0 0 0
-0.091682 1.233085 0.240987 0.330602 0.845913 -0.418489 0 0 0
0.080793 1.304228 0.521045 0.330602 0.845913 -0.418489 0 0 0
3 0 1 2
3 3 4 5
3 6 7 8
3 9 10 11
3 12 13 14
3 15 16 17
3 18 19 20
3 21 22 23
3 24 25 26
3 27 28 29
3 30 31 32
3 33 34 35
3 36 37 38
3 39 40 41
3 42 43 44
3 45 46 47
3 48 49 50
3 51 52 53
3 54 55 56
3 57 58 59
3 60 61 62
3 63 64 65
3 66 67 68
3 69 70 71
3 72 73 74
3 75 76 77
3 78 79 80
3 81 82 83
3 84 85 86
3 87 88 89
3 90 91 92
3 93 94 95
3 96 97 98
3 99 100 101
3 102 103 104
3 105 106 107
3 108 109 110
3 111 112 113
3 114 115 116
3 117 118 119
3 120 121 122
3 123 124 125
3 126 127 128
3 129 130 131
3 132 133 134
3 135 136 137
3 138 139 140
3 141 142 143
3 144 145 146
3 147 148 149
3 150 151 152
3 153 154 155
3 156 157 158
3 159 160 161
3 162 163 164
3 165 166 167
3 168 169 170
3 171 172 173
3 174 175 176
3 177 178 179
3 180 181 182
3 183 184 185
3 186 187 188
3 189 190 191
3 192 193 194
3 195 196 197
3 198 199 200
3 201 202 203
3 204 205 206
3 207 208 209
3 210 211 212
3 213 214 215
3 216 217 218
3 219 220 221
3 222 223 224
3 225 226 227
3 228 229 230
3 231 232 233
3 234 235 236
3 237 238 239
3 240 241 242
3 243 244 245
3 246 247 248
3 249 250 251
3 252 253 254
3 255 256 257
3 258 259 260
3 261 262 263
3 264 265 266
3 267 268 269
3 270 271 272
3 273 274 275
3 276 277 278
3 279 280 281
3 282 283 284
3 285 286 287
3 288 289 290
3 291 292 293
3 294 295 296
3 297 298 299
3 300 301 302
3 303 304 305
3 306 307 308
3 309 310 311
3 312 313 314
3 315 316 317
3 318 319 320
3 321 322 323
3 324 325 326
3 327 328 329
3 330 331 332
3 333 334 335
3 336 337 338
3 339 340 341
3 342 343 344
3 345 346 347
3 348 349 350
3 351 352 353
3 354 355 356
3 357 358 359
3 360 361 362
3 363 364 365
3 366 367 368
3 369 370 371
3 372 373 374
3 375 376 377
3 378 379 380
3 381 382 383
3 384 385 386
3 387 388 389
3 390 391 392
3 393 394 395
3 396 397 398
3 399 400 401
3 402 403 404
3 405 406 407
3 408 409 410
3 411 412 413
3 414 415 416
3 417 418 419
3 420 421 422
3 423 424 425
3 426 427 428
3 429 430 431
3 432 433 434
3 435 436 437
3 438 439 440
3 441 442 443
3 444 445 446
3 447 448 449
3 450 451 452
3 453 454 455
3 456 457 458
3 459 460 461
3 462 463 464
3 465 466 467
3 468 469 470
3 471 472 473
3 474 475 476
3 477 478 479
3 480 481 482
3 483 484 485
3 486 487 488
3 489 490 491
3 492 493 494
3 495 496 497
3 498 499 500
3 501 502 503
3 504 505 506
3 507 508 509
3 510 511 512
3 513 514 515
3 516 517 518
3 519 520 521
3 522 523 524
3 525 526 527
3 528 529 530
3 531 532 533
3 534 535 536
3 537 538 539
3 540 541 542
3 543 544 545
3 546 547 548
3 549 550 551
3 552 553 554
