ply
format ascii 1.0
comment Created by Blender 2.77 (sub 0) - www.blender.org, source file: ''
element vertex 336
property float x
property float y
property float z
property float nx
property float ny
property float nz
property uchar red
property uchar green
property uchar blue
element face 112
property list uchar uint vertex_indices
end_header
0.050431 1.701687 -0.010043 -0.699550 0.021846 -0.714249 0 0 0
0.088782 1.531260 -0.052817 -0.699550 0.021846 -0.714249 0 0 0
-0.026689 0.000689 0.013462 -0.699550 0.021846 -0.714249 0 0 0
0.061550 0.000942 0.052991 0.833199 -0.052885 -0.550439 0 0 0
0.088782 1.531260 -0.052817 0.833199 -0.052885 -0.550439 0 0 0
0.135216 1.519429 0.018606 0.833199 -0.052885 -0.550439 0 0 0
0.135216 1.519429 0.018606 0.782839 0.004390 -0.622208 0 0 0
0.047662 2.850340 -0.082161 0.782839 0.004390 -0.622208 0 0 0
0.089800 2.985031 -0.028194 0.782839 0.004390 -0.622208 0 0 0
0.088782 1.531260 -0.052817 -0.508191 -0.034985 -0.860534 0 0 0
0.023465 2.390936 -0.049194 -0.508191 -0.034985 -0.860534 0 0 0
0.047662 2.850340 -0.082161 -0.508191 -0.034985 -0.860534 0 0 0
0.023465 2.390936 -0.049194 -0.775097 0.064327 0.628559 0 0 0
0.089800 2.985031 -0.028194 -0.775097 0.064327 0.628559 0 0 0
0.083493 3.349658 -0.073288 -0.775097 0.064327 0.628559 0 0 0
-0.249474 3.107978 -0.032833 0.731107 0.346497 0.587727 0 0 0
-0.127219 3.044141 -0.147277 0.731107 0.346497 0.587727 0 0 0
-0.139884 3.116731 -0.174318 0.731107 0.346497 0.587727 0 0 0
-0.486145 3.178365 -0.244575 -0.165240 0.844742 -0.509025 0 0 0
-0.361768 3.185134 -0.273715 -0.165240 0.844742 -0.509025 0 0 0
-0.581462 3.071186 -0.391500 -0.165240 0.844742 -0.509025 0 0 0
-0.368938 3.129201 -0.267087 0.531617 -0.166560 -0.830446 0 0 0
-0.581462 3.071186 -0.391500 0.531617 -0.166560 -0.830446 0 0 0
-0.361768 3.185134 -0.273715 0.531617 -0.166560 -0.830446 0 0 0
-0.127219 3.044141 -0.147277 0.318648 -0.281568 -0.905087 0 0 0
-0.361768 3.185134 -0.273715 0.318648 -0.281568 -0.905087 0 0 0
-0.139884 3.116731 -0.174318 0.318648 -0.281568 -0.905087 0 0 0
-0.249474 3.107978 -0.032833 -0.377739 -0.919434 0.109340 0 0 0
-0.368938 3.129201 -0.267087 -0.377739 -0.919434 0.109340 0 0 0
-0.127219 3.044141 -0.147277 -0.377739 -0.919434 0.109340 0 0 0
-0.249474 3.107978 -0.032833 0.017743 0.954563 0.297482 0 0 0
-0.361768 3.185134 -0.273715 0.017743 0.954563 0.297482 0 0 0
-0.486145 3.178365 -0.244575 0.017743 0.954563 0.297482 0 0 0
0.013760 2.874802 -0.068741 -0.885606 -0.421047 0.196017 0 0 0
0.052119 2.804046 -0.047420 -0.885606 -0.421047 0.196017 0 0 0
0.013946 2.877066 -0.063038 -0.885606 -0.421047 0.196017 0 0 0
0.013760 2.874802 -0.068741 -0.196496 -0.230888 -0.952932 0 0 0
0.064714 2.807525 -0.062947 -0.196496 -0.230888 -0.952932 0 0 0
0.051960 2.799691 -0.058419 -0.196496 -0.230888 -0.952932 0 0 0
0.019581 2.878810 -0.070895 0.631680 0.468780 0.617434 0 0 0
0.052119 2.804046 -0.047420 0.631680 0.468780 0.617434 0 0 0
0.064714 2.807525 -0.062947 0.631680 0.468780 0.617434 0 0 0
0.234362 3.481522 0.480183 0.089643 0.655554 -0.749809 0 0 0
0.102406 3.266411 0.276337 0.089643 0.655554 -0.749809 0 0 0
0.098598 3.385601 0.380089 0.089643 0.655554 -0.749809 0 0 0
0.234362 3.481522 0.480183 -0.421983 0.868534 -0.259961 0 0 0
0.098598 3.385601 0.380089 -0.421983 0.868534 -0.259961 0 0 0
0.206066 3.522861 0.664230 -0.421983 0.868534 -0.259961 0 0 0
0.102406 3.266411 0.276337 -0.735240 -0.458236 0.499442 0 0 0
0.206066 3.522861 0.664230 -0.735240 -0.458236 0.499442 0 0 0
0.098598 3.385601 0.380089 -0.735240 -0.458236 0.499442 0 0 0
0.073714 3.080810 0.061303 0.325288 0.612451 -0.720480 0 0 0
0.078848 2.947570 -0.049641 0.325288 0.612451 -0.720480 0 0 0
0.045099 2.955558 -0.058088 0.325288 0.612451 -0.720480 0 0 0
-0.232973 1.405096 -0.061740 0.614523 0.262344 0.744001 0 0 0
-0.065890 1.268600 -0.151616 0.614523 0.262344 0.744001 0 0 0
-0.043190 1.388157 -0.212522 0.614523 0.262344 0.744001 0 0 0
-0.357700 1.554217 -0.237342 -0.589830 0.768734 0.247283 0 0 0
-0.469627 1.538498 -0.455449 -0.589830 0.768734 0.247283 0 0 0
-0.487699 1.521464 -0.445602 -0.589830 0.768734 0.247283 0 0 0
-0.257022 1.474251 -0.327000 0.436366 -0.271223 -0.857918 0 0 0
-0.469627 1.538498 -0.455449 0.436366 -0.271223 -0.857918 0 0 0
-0.244848 1.535435 -0.340150 0.436366 -0.271223 -0.857918 0 0 0
-0.257022 1.474251 -0.327000 0.257789 -0.476997 -0.840249 0 0 0
-0.043190 1.388157 -0.212522 0.257789 -0.476997 -0.840249 0 0 0
-0.065890 1.268600 -0.151616 0.257789 -0.476997 -0.840249 0 0 0
-0.232973 1.405096 -0.061740 -0.668365 -0.732327 -0.130327 0 0 0
-0.257022 1.474251 -0.327000 -0.668365 -0.732327 -0.130327 0 0 0
-0.065890 1.268600 -0.151616 -0.668365 -0.732327 -0.130327 0 0 0
-0.232973 1.405096 -0.061740 0.462520 0.810384 0.359657 0 0 0
-0.244848 1.535435 -0.340150 0.462520 0.810384 0.359657 0 0 0
-0.357700 1.554217 -0.237342 0.462520 0.810384 0.359657 0 0 0
0.016884 1.066464 -0.048780 -0.941445 -0.318114 0.111740 0 0 0
0.054593 0.962303 -0.027607 -0.941445 -0.318114 0.111740 0 0 0
0.054793 0.966125 -0.015041 -0.941445 -0.318114 0.111740 0 0 0
0.024537 1.066490 -0.056554 -0.078963 -0.287943 -0.954387 0 0 0
0.054593 0.962303 -0.027607 -0.078963 -0.287943 -0.954387 0 0 0
0.016672 1.064517 -0.055308 -0.078963 -0.287943 -0.954387 0 0 0
0.024537 1.066490 -0.056554 0.608268 0.452963 0.651794 0 0 0
0.054793 0.966125 -0.015041 0.608268 0.452963 0.651794 0 0 0
0.071431 0.965633 -0.030226 0.608268 0.452963 0.651794 0 0 0
-0.070013 2.084548 -0.231232 -0.021197 0.334120 0.942292 0 0 0
0.125077 1.976315 -0.188466 -0.021197 0.334120 0.942292 0 0 0
0.173580 2.072976 -0.221649 -0.021197 0.334120 0.942292 0 0 0
-0.112280 2.209320 -0.884525 0.595371 0.716374 -0.363788 0 0 0
0.061620 2.198397 -0.621434 0.595371 0.716374 -0.363788 0 0 0
-0.027534 2.121458 -0.918850 0.595371 0.716374 -0.363788 0 0 0
0.051119 2.145089 -0.612611 0.947946 -0.224158 -0.226169 0 0 0
-0.027534 2.121458 -0.918850 0.947946 -0.224158 -0.226169 0 0 0
0.061620 2.198397 -0.621434 0.947946 -0.224158 -0.226169 0 0 0
0.051119 2.145089 -0.612611 0.787909 -0.512534 -0.341333 0 0 0
0.173580 2.072976 -0.221649 0.787909 -0.512534 -0.341333 0 0 0
0.125077 1.976315 -0.188466 0.787909 -0.512534 -0.341333 0 0 0
-0.070013 2.084548 -0.231232 -0.420840 -0.865683 -0.271086 0 0 0
0.051119 2.145089 -0.612611 -0.420840 -0.865683 -0.271086 0 0 0
0.125077 1.976315 -0.188466 -0.420840 -0.865683 -0.271086 0 0 0
-0.070013 2.084548 -0.231232 0.114119 0.942691 0.313545 0 0 0
0.061620 2.198397 -0.621434 0.114119 0.942691 0.313545 0 0 0
-0.084134 2.211985 -0.609239 0.114119 0.942691 0.313545 0 0 0
-0.276717 2.517047 0.124634 0.811724 0.583091 0.033299 0 0 0
-0.228770 2.459999 -0.045212 0.811724 0.583091 0.033299 0 0 0
-0.268923 2.517336 -0.070416 0.811724 0.583091 0.033299 0 0 0
-0.268923 2.517336 -0.070416 0.176379 0.984285 0.008507 0 0 0
-0.613632 2.578264 0.027038 0.176379 0.984285 0.008507 0 0 0
-0.276717 2.517047 0.124634 0.176379 0.984285 0.008507 0 0 0
-0.613632 2.578264 0.027038 -0.242004 -0.938348 0.246854 0 0 0
-0.228770 2.459999 -0.045212 -0.242004 -0.938348 0.246854 0 0 0
-0.276717 2.517047 0.124634 -0.242004 -0.938348 0.246854 0 0 0
-0.228770 2.459999 -0.045212 -0.101641 -0.459129 -0.882536 0 0 0
-0.627781 2.544324 -0.043127 -0.101641 -0.459129 -0.882536 0 0 0
-0.268923 2.517336 -0.070416 -0.101641 -0.459129 -0.882536 0 0 0
-0.006801 2.324965 -0.030927 -0.590392 -0.533177 0.605937 0 0 0
0.048116 2.259251 -0.035242 -0.590392 -0.533177 0.605937 0 0 0
-0.004150 2.327313 -0.026278 -0.590392 -0.533177 0.605937 0 0 0
-0.001931 2.328903 -0.036430 -0.603612 -0.290869 -0.742326 0 0 0
0.043110 2.254817 -0.044025 -0.603612 -0.290869 -0.742326 0 0 0
-0.006801 2.324965 -0.030927 -0.603612 -0.290869 -0.742326 0 0 0
-0.001931 2.328903 -0.036430 0.782130 0.566414 0.259705 0 0 0
0.048116 2.259251 -0.035242 0.782130 0.566414 0.259705 0 0 0
0.052309 2.262255 -0.054421 0.782130 0.566414 0.259705 0 0 0
0.298262 2.837642 -0.358670 -0.730514 0.664922 0.155655 0 0 0
0.128697 2.585293 -0.076488 -0.730514 0.664922 0.155655 0 0 0
0.345952 2.826285 -0.086340 -0.730514 0.664922 0.155655 0 0 0
0.744402 3.022976 -0.214073 0.184815 0.980459 -0.067413 0 0 0
0.631417 3.036391 -0.328715 0.184815 0.980459 -0.067413 0 0 0
0.682178 3.037941 -0.167007 0.184815 0.980459 -0.067413 0 0 0
0.128697 2.585293 -0.076488 0.417091 -0.341575 0.842236 0 0 0
0.682178 3.037941 -0.167007 0.417091 -0.341575 0.842236 0 0 0
0.345952 2.826285 -0.086340 0.417091 -0.341575 0.842236 0 0 0
0.631417 3.036391 -0.328715 0.496869 -0.773611 -0.393252 0 0 0
0.128697 2.585293 -0.076488 0.496869 -0.773611 -0.393252 0 0 0
0.298262 2.837642 -0.358670 0.496869 -0.773611 -0.393252 0 0 0
0.631417 3.036391 -0.328715 -0.500923 0.852557 0.149073 0 0 0
0.345952 2.826285 -0.086340 -0.500923 0.852557 0.149073 0 0 0
0.682178 3.037941 -0.167007 -0.500923 0.852557 0.149073 0 0 0
0.121996 2.582966 -0.080555 0.410823 -0.536347 -0.737263 0 0 0
0.067479 2.508553 -0.056799 0.410823 -0.536347 -0.737263 0 0 0
0.057293 2.514189 -0.066575 0.410823 -0.536347 -0.737263 0 0 0
0.122217 2.584452 -0.066156 0.687445 -0.423006 0.590326 0 0 0
0.067479 2.508553 -0.056799 0.687445 -0.423006 0.590326 0 0 0
0.127388 2.579983 -0.075380 0.687445 -0.423006 0.590326 0 0 0
0.122217 2.584452 -0.066156 -0.733017 0.677669 -0.058741 0 0 0
0.057293 2.514189 -0.066575 -0.733017 0.677669 -0.058741 0 0 0
0.057710 2.516998 -0.039372 -0.733017 0.677669 -0.058741 0 0 0
0.336089 2.045552 0.298871 -0.197623 0.585508 -0.786210 0 0 0
0.093046 1.599887 0.028066 -0.197623 0.585508 -0.786210 0 0 0
0.066850 1.994967 0.328876 -0.197623 0.585508 -0.786210 0 0 0
0.336089 2.045552 0.298871 0.495290 -0.632173 0.595856 0 0 0
0.116965 1.935966 0.364747 0.495290 -0.632173 0.595856 0 0 0
0.093046 1.599887 0.028066 0.495290 -0.632173 0.595856 0 0 0
0.356105 1.962983 1.088230 -0.260220 0.573174 0.777018 0 0 0
0.418799 2.109730 1.000977 -0.260220 0.573174 0.777018 0 0 0
0.294408 2.031959 1.016687 -0.260220 0.573174 0.777018 0 0 0
0.418799 2.109730 1.000977 -0.457969 0.807569 0.371613 0 0 0
0.142725 2.120851 0.636581 -0.457969 0.807569 0.371613 0 0 0
0.294408 2.031959 1.016687 -0.457969 0.807569 0.371613 0 0 0
0.093046 1.599887 0.028066 -0.795873 -0.399303 0.455130 0 0 0
0.116965 1.935966 0.364747 -0.795873 -0.399303 0.455130 0 0 0
0.066850 1.994967 0.328876 -0.795873 -0.399303 0.455130 0 0 0
0.159682 2.039750 0.640758 -0.694242 -0.680399 0.234702 0 0 0
0.294408 2.031959 1.016687 -0.694242 -0.680399 0.234702 0 0 0
-0.025038 2.200496 0.560362 -0.694242 -0.680399 0.234702 0 0 0
0.116965 1.935966 0.364747 -0.801776 -0.567944 0.185996 0 0 0
-0.025038 2.200496 0.560362 -0.801776 -0.567944 0.185996 0 0 0
0.066850 1.994967 0.328876 -0.801776 -0.567944 0.185996 0 0 0
0.336089 2.045552 0.298871 0.490860 -0.837800 0.239056 0 0 0
0.159682 2.039750 0.640758 0.490860 -0.837800 0.239056 0 0 0
0.116965 1.935966 0.364747 0.490860 -0.837800 0.239056 0 0 0
0.066850 1.994967 0.328876 0.539073 0.724600 -0.429365 0 0 0
-0.025038 2.200496 0.560362 0.539073 0.724600 -0.429365 0 0 0
0.142725 2.120851 0.636581 0.539073 0.724600 -0.429365 0 0 0
0.331695 2.165926 0.597694 -0.279736 0.910799 -0.303635 0 0 0
0.066850 1.994967 0.328876 -0.279736 0.910799 -0.303635 0 0 0
0.142725 2.120851 0.636581 -0.279736 0.910799 -0.303635 0 0 0
-0.084134 2.211985 -0.609239 -0.432560 -0.883601 0.179281 0 0 0
-0.027534 2.121458 -0.918850 -0.432560 -0.883601 0.179281 0 0 0
0.051119 2.145089 -0.612611 -0.432560 -0.883601 0.179281 0 0 0
-0.357700 1.554217 -0.237342 -0.361493 -0.859714 0.360854 0 0 0
-0.487699 1.521464 -0.445602 -0.361493 -0.859714 0.360854 0 0 0
-0.257022 1.474251 -0.327000 -0.361493 -0.859714 0.360854 0 0 0
0.418799 2.109730 1.000977 0.537759 -0.811344 -0.229207 0 0 0
0.159682 2.039750 0.640758 0.537759 -0.811344 -0.229207 0 0 0
0.331695 2.165926 0.597694 0.537759 -0.811344 -0.229207 0 0 0
0.061550 0.000942 0.052991 0.832851 -0.052915 -0.550962 0 0 0
0.004036 0.000942 -0.033949 0.832851 -0.052915 -0.550962 0 0 0
0.088782 1.531260 -0.052817 0.832851 -0.052915 -0.550962 0 0 0
0.050431 1.701687 -0.010043 -0.270281 0.025554 0.962442 0 0 0
-0.026689 0.000689 0.013462 -0.270281 0.025554 0.962442 0 0 0
0.135216 1.519429 0.018606 -0.270281 0.025554 0.962442 0 0 0
0.061550 0.000942 0.052991 -0.408587 0.040469 0.911822 0 0 0
0.135216 1.519429 0.018606 -0.408587 0.040469 0.911822 0 0 0
-0.026689 0.000689 0.013462 -0.408587 0.040469 0.911822 0 0 0
0.023465 2.390936 -0.049194 -0.975865 0.066330 0.208060 0 0 0
0.083493 3.349658 -0.073288 -0.975865 0.066330 0.208060 0 0 0
0.047662 2.850340 -0.082161 -0.975865 0.066330 0.208060 0 0 0
0.088782 1.531260 -0.052817 -0.854290 -0.062733 -0.515997 0 0 0
0.050431 1.701687 -0.010043 -0.854290 -0.062733 -0.515997 0 0 0
0.023465 2.390936 -0.049194 -0.854290 -0.062733 -0.515997 0 0 0
0.023465 2.390936 -0.049194 -0.426540 0.015660 0.904333 0 0 0
0.135216 1.519429 0.018606 -0.426540 0.015660 0.904333 0 0 0
0.089800 2.985031 -0.028194 -0.426540 0.015660 0.904333 0 0 0
-0.127219 3.044141 -0.147277 0.393412 -0.157765 -0.905725 0 0 0
-0.368938 3.129201 -0.267087 0.393412 -0.157765 -0.905725 0 0 0
-0.361768 3.185134 -0.273715 0.393412 -0.157765 -0.905725 0 0 0
-0.249474 3.107978 -0.032833 -0.367701 -0.924134 0.103794 0 0 0
-0.486145 3.178365 -0.244575 -0.367701 -0.924134 0.103794 0 0 0
-0.368938 3.129201 -0.267087 -0.367701 -0.924134 0.103794 0 0 0
-0.249474 3.107978 -0.032833 0.199220 0.956420 0.213476 0 0 0
-0.139884 3.116731 -0.174318 0.199220 0.956420 0.213476 0 0 0
-0.361768 3.185134 -0.273715 0.199220 0.956420 0.213476 0 0 0
0.013760 2.874802 -0.068741 -0.886404 -0.425874 0.181435 0 0 0
0.051960 2.799691 -0.058419 -0.886404 -0.425874 0.181435 0 0 0
0.052119 2.804046 -0.047420 -0.886404 -0.425874 0.181435 0 0 0
0.013760 2.874802 -0.068741 -0.194762 -0.229632 -0.953591 0 0 0
0.019581 2.878810 -0.070895 -0.194762 -0.229632 -0.953591 0 0 0
0.064714 2.807525 -0.062947 -0.194762 -0.229632 -0.953591 0 0 0
0.019581 2.878810 -0.070895 0.663849 0.471250 0.580713 0 0 0
0.013946 2.877066 -0.063038 0.663849 0.471250 0.580713 0 0 0
0.052119 2.804046 -0.047420 0.663849 0.471250 0.580713 0 0 0
-0.486145 3.178365 -0.244575 -0.182382 -0.734241 0.653932 0 0 0
-0.581462 3.071186 -0.391500 -0.182382 -0.734241 0.653932 0 0 0
-0.368938 3.129201 -0.267087 -0.182382 -0.734241 0.653932 0 0 0
0.073714 3.080810 0.061303 -0.779752 -0.329383 0.532441 0 0 0
0.045099 2.955558 -0.058088 -0.779752 -0.329383 0.532441 0 0 0
0.062759 2.946000 -0.038138 -0.779752 -0.329383 0.532441 0 0 0
-0.357700 1.554217 -0.237342 0.068121 0.991982 -0.106451 0 0 0
-0.244848 1.535435 -0.340150 0.068121 0.991982 -0.106451 0 0 0
-0.469627 1.538498 -0.455449 0.068121 0.991982 -0.106451 0 0 0
-0.257022 1.474251 -0.327000 0.232413 -0.659730 -0.714661 0 0 0
-0.487699 1.521464 -0.445602 0.232413 -0.659730 -0.714661 0 0 0
-0.469627 1.538498 -0.455449 0.232413 -0.659730 -0.714661 0 0 0
-0.257022 1.474251 -0.327000 0.370006 -0.265007 -0.890431 0 0 0
-0.244848 1.535435 -0.340150 0.370006 -0.265007 -0.890431 0 0 0
-0.043190 1.388157 -0.212522 0.370006 -0.265007 -0.890431 0 0 0
-0.232973 1.405096 -0.061740 -0.683206 -0.719344 -0.125597 0 0 0
-0.357700 1.554217 -0.237342 -0.683206 -0.719344 -0.125597 0 0 0
-0.257022 1.474251 -0.327000 -0.683206 -0.719344 -0.125597 0 0 0
-0.232973 1.405096 -0.061740 0.376916 0.844941 0.379486 0 0 0
-0.043190 1.388157 -0.212522 0.376916 0.844941 0.379486 0 0 0
-0.244848 1.535435 -0.340150 0.376916 0.844941 0.379486 0 0 0
0.016884 1.066464 -0.048780 -0.940790 -0.315267 0.124579 0 0 0
0.016672 1.064517 -0.055308 -0.940790 -0.315267 0.124579 0 0 0
0.054593 0.962303 -0.027607 -0.940790 -0.315267 0.124579 0 0 0
0.024537 1.066490 -0.056554 -0.090643 -0.290784 -0.952485 0 0 0
0.071431 0.965633 -0.030226 -0.090643 -0.290784 -0.952485 0 0 0
0.054593 0.962303 -0.027607 -0.090643 -0.290784 -0.952485 0 0 0
0.024537 1.066490 -0.056554 0.635336 0.450852 0.626961 0 0 0
0.016884 1.066464 -0.048780 0.635336 0.450852 0.626961 0 0 0
0.054793 0.966125 -0.015041 0.635336 0.450852 0.626961 0 0 0
-0.112280 2.209320 -0.884525 0.091236 0.995649 -0.018967 0 0 0
-0.084134 2.211985 -0.609239 0.091236 0.995649 -0.018967 0 0 0
0.061620 2.198397 -0.621434 0.091236 0.995649 -0.018967 0 0 0
0.051119 2.145089 -0.612611 0.914441 -0.234696 -0.329719 0 0 0
0.061620 2.198397 -0.621434 0.914441 -0.234696 -0.329719 0 0 0
0.173580 2.072976 -0.221649 0.914441 -0.234696 -0.329719 0 0 0
-0.070013 2.084548 -0.231232 -0.431893 -0.859424 -0.273603 0 0 0
-0.084134 2.211985 -0.609239 -0.431893 -0.859424 -0.273603 0 0 0
0.051119 2.145089 -0.612611 -0.431893 -0.859424 -0.273603 0 0 0
-0.070013 2.084548 -0.231232 0.034001 0.956276 0.290481 0 0 0
0.173580 2.072976 -0.221649 0.034001 0.956276 0.290481 0 0 0
0.061620 2.198397 -0.621434 0.034001 0.956276 0.290481 0 0 0
-0.268923 2.517336 -0.070416 0.033944 0.896996 -0.440733 0 0 0
-0.627781 2.544324 -0.043127 0.033944 0.896996 -0.440733 0 0 0
-0.613632 2.578264 0.027038 0.033944 0.896996 -0.440733 0 0 0
-0.613632 2.578264 0.027038 -0.181556 -0.870405 0.457637 0 0 0
-0.627781 2.544324 -0.043127 -0.181556 -0.870405 0.457637 0 0 0
-0.228770 2.459999 -0.045212 -0.181556 -0.870405 0.457637 0 0 0
-0.006801 2.324965 -0.030927 -0.590493 -0.533251 0.605773 0 0 0
0.043110 2.254817 -0.044025 -0.590493 -0.533251 0.605773 0 0 0
0.048116 2.259251 -0.035242 -0.590493 -0.533251 0.605773 0 0 0
-0.001931 2.328903 -0.036430 -0.603655 -0.290900 -0.742278 0 0 0
0.052309 2.262255 -0.054421 -0.603655 -0.290900 -0.742278 0 0 0
0.043110 2.254817 -0.044025 -0.603655 -0.290900 -0.742278 0 0 0
-0.001931 2.328903 -0.036430 0.782138 0.566419 0.259671 0 0 0
-0.004150 2.327313 -0.026278 0.782138 0.566419 0.259671 0 0 0
0.048116 2.259251 -0.035242 0.782138 0.566419 0.259671 0 0 0
0.128697 2.585293 -0.076488 0.476759 -0.429600 0.766906 0 0 0
0.744402 3.022976 -0.214073 0.476759 -0.429600 0.766906 0 0 0
0.682178 3.037941 -0.167007 0.476759 -0.429600 0.766906 0 0 0
0.631417 3.036391 -0.328715 0.422514 -0.752959 -0.504515 0 0 0
0.744402 3.022976 -0.214073 0.422514 -0.752959 -0.504515 0 0 0
0.128697 2.585293 -0.076488 0.422514 -0.752959 -0.504515 0 0 0
0.631417 3.036391 -0.328715 -0.516574 0.846954 0.125782 0 0 0
0.298262 2.837642 -0.358670 -0.516574 0.846954 0.125782 0 0 0
0.345952 2.826285 -0.086340 -0.516574 0.846954 0.125782 0 0 0
0.121996 2.582966 -0.080555 0.410841 -0.536355 -0.737247 0 0 0
0.127388 2.579983 -0.075380 0.410841 -0.536355 -0.737247 0 0 0
0.067479 2.508553 -0.056799 0.410841 -0.536355 -0.737247 0 0 0
0.122217 2.584452 -0.066156 0.687438 -0.423000 0.590339 0 0 0
0.057710 2.516998 -0.039372 0.687438 -0.423000 0.590339 0 0 0
0.067479 2.508553 -0.056799 0.687438 -0.423000 0.590339 0 0 0
0.122217 2.584452 -0.066156 -0.733020 0.677672 -0.058678 0 0 0
0.121996 2.582966 -0.080555 -0.733020 0.677672 -0.058678 0 0 0
0.057293 2.514189 -0.066575 -0.733020 0.677672 -0.058678 0 0 0
0.142725 2.120851 0.636581 0.409940 0.910773 0.049406 0 0 0
-0.025038 2.200496 0.560362 0.409940 0.910773 0.049406 0 0 0
0.294408 2.031959 1.016687 0.409940 0.910773 0.049406 0 0 0
0.418799 2.109730 1.000977 -0.193900 0.965040 0.176355 0 0 0
0.331695 2.165926 0.597694 -0.193900 0.965040 0.176355 0 0 0
0.142725 2.120851 0.636581 -0.193900 0.965040 0.176355 0 0 0
0.159682 2.039750 0.640758 -0.843339 -0.450544 0.292899 0 0 0
0.356105 1.962983 1.088230 -0.843339 -0.450544 0.292899 0 0 0
0.294408 2.031959 1.016687 -0.843339 -0.450544 0.292899 0 0 0
0.116965 1.935966 0.364747 -0.697111 -0.628857 0.344348 0 0 0
0.159682 2.039750 0.640758 -0.697111 -0.628857 0.344348 0 0 0
-0.025038 2.200496 0.560362 -0.697111 -0.628857 0.344348 0 0 0
0.336089 2.045552 0.298871 0.611808 -0.730555 0.303283 0 0 0
0.331695 2.165926 0.597694 0.611808 -0.730555 0.303283 0 0 0
0.159682 2.039750 0.640758 0.611808 -0.730555 0.303283 0 0 0
0.331695 2.165926 0.597694 -0.211140 0.905578 -0.367896 0 0 0
0.336089 2.045552 0.298871 -0.211140 0.905578 -0.367896 0 0 0
0.066850 1.994967 0.328876 -0.211140 0.905578 -0.367896 0 0 0
0.088782 1.531260 -0.052817 0.839379 0.014079 -0.543364 0 0 0
0.047662 2.850340 -0.082161 0.839379 0.014079 -0.543364 0 0 0
0.135216 1.519429 0.018606 0.839379 0.014079 -0.543364 0 0 0
-0.084134 2.211985 -0.609239 -0.702003 -0.707820 0.078627 0 0 0
-0.112280 2.209320 -0.884525 -0.702003 -0.707820 0.078627 0 0 0
-0.027534 2.121458 -0.918850 -0.702003 -0.707820 0.078627 0 0 0
0.418799 2.109730 1.000977 0.723049 -0.554146 -0.412458 0 0 0
0.356105 1.962983 1.088230 0.723049 -0.554146 -0.412458 0 0 0
0.159682 2.039750 0.640758 0.723049 -0.554146 -0.412458 0 0 0
0.234362 3.481522 0.480183 0.695514 -0.670752 0.257589 0 0 0
0.206066 3.522861 0.664230 0.695514 -0.670752 0.257589 0 0 0
0.102406 3.266411 0.276337 0.695514 -0.670752 0.257589 0 0 0
-0.026689 0.000689 0.013462 -0.838626 0.039743 -0.543256 0 0 0
0.088782 1.531260 -0.052817 -0.838626 0.039743 -0.543256 0 0 0
0.004036 0.000942 -0.033949 -0.838626 0.039743 -0.543256 0 0 0
0.135216 1.519429 0.018606 -0.229089 0.046266 0.972305 0 0 0
0.023465 2.390936 -0.049194 -0.229089 0.046266 0.972305 0 0 0
0.050431 1.701687 -0.010043 -0.229089 0.046266 0.972305 0 0 0
0.083493 3.349658 -0.073288 0.845119 -0.051189 -0.532122 0 0 0
0.089800 2.985031 -0.028194 0.845119 -0.051189 -0.532122 0 0 0
0.047662 2.850340 -0.082161 0.845119 -0.051189 -0.532122 0 0 0
0.062759 2.946000 -0.038138 0.526187 -0.532071 0.663346 0 0 0
0.078848 2.947570 -0.049641 0.526187 -0.532071 0.663346 0 0 0
0.073714 3.080810 0.061303 0.526187 -0.532071 0.663346 0 0 0
3 0 1 2
3 3 4 5
3 6 7 8
3 9 10 11
3 12 13 14
3 15 16 17
3 18 19 20
3 21 22 23
3 24 25 26
3 27 28 29
3 30 31 32
3 33 34 35
3 36 37 38
3 39 40 41
3 42 43 44
3 45 46 47
3 48 49 50
3 51 52 53
3 54 55 56
3 57 58 59
3 60 61 62
3 63 64 65
3 66 67 68
3 69 70 71
3 72 73 74
3 75 76 77
3 78 79 80
3 81 82 83
3 84 85 86
3 87 88 89
3 90 91 92
3 93 94 95
3 96 97 98
3 99 100 101
3 102 103 104
3 105 106 107
3 108 109 110
3 111 112 113
3 114 115 116
3 117 118 119
3 120 121 122
3 123 124 125
3 126 127 128
3 129 130 131
3 132 133 134
3 135 136 137
3 138 139 140
3 141 142 143
3 144 145 146
3 147 148 149
3 150 151 152
3 153 154 155
3 156 157 158
3 159 160 161
3 162 163 164
3 165 166 167
3 168 169 170
3 171 172 173
3 174 175 176
3 177 178 179
3 180 181 182
3 183 184 185
3 186 187 188
3 189 190 191
3 192 193 194
3 195 196 197
3 198 199 200
3 201 202 203
3 204 205 206
3 207 208 209
3 210 211 212
3 213 214 215
3 216 217 218
3 219 220 221
3 222 223 224
3 225 226 227
3 228 229 230
3 231 232 233
3 234 235 236
3 237 238 239
3 240 241 242
3 243 244 245
3 246 247 248
3 249 250 251
3 252 253 254
3 255 256 257
3 258 259 260
3 261 262 263
3 264 265 266
3 267 268 269
3 270 271 272
3 273 274 275
3 276 277 278
3 279 280 281
3 282 283 284
3 285 286 287
3 288 289 290
3 291 292 293
3 294 295 296
3 297 298 299
3 300 301 302
3 303 304 305
3 306 307 308
3 309 310 311
3 312 313 314
3 315 316 317
3 318 319 320
3 321 322 323
3 324 325 326
3 327 328 329
3 330 331 332
3 333 334 335
