ply
format ascii 1.0
comment Created by Blender 2.77 (sub 0) - www.blender.org, source file: ''
element vertex 573
property float x
property float y
property float z
property float nx
property float ny
property float nz
property uchar red
property uchar green
property uchar blue
element face 191
property list uchar uint vertex_indices
end_header
-0.125054 0.986327 -1.671852 0.217762 0.786064 -0.578518 51 51 51
0.097777 0.879623 -1.732961 0.217762 0.786064 -0.578518 51 51 51
0.118477 0.644770 -2.044277 0.217762 0.786064 -0.578518 51 51 51
0.118477 0.644770 -2.044277 -0.290568 -0.773061 0.563867 51 51 51
0.097777 0.879623 -1.732961 -0.290568 -0.773061 0.563867 51 51 51
-0.191661 0.980124 -1.744325 -0.290568 -0.773061 0.563867 51 51 51
-0.166980 0.896051 -2.009530 0.616478 0.738198 -0.273895 51 51 51
-0.125054 0.986327 -1.671852 0.616478 0.738198 -0.273895 51 51 51
0.118477 0.644770 -2.044277 0.616478 0.738198 -0.273895 51 51 51
-0.166980 0.896051 -2.009530 -0.637866 -0.749257 0.178161 51 51 51
0.118477 0.644770 -2.044277 -0.637866 -0.749257 0.178161 51 51 51
-0.191661 0.980124 -1.744325 -0.637866 -0.749257 0.178161 51 51 51
-0.166980 0.896051 -2.009530 0.214170 0.936694 -0.277011 51 51 51
-0.191661 0.980124 -1.744325 0.214170 0.936694 -0.277011 51 51 51
-0.125054 0.986327 -1.671852 0.214170 0.936694 -0.277011 51 51 51
0.011280 0.959742 -1.934529 0.482151 0.846283 -0.226575 51 51 51
0.250231 0.941196 -1.495313 0.482151 0.846283 -0.226575 51 51 51
0.308681 0.854777 -1.693717 0.482151 0.846283 -0.226575 51 51 51
-0.347752 0.998518 -1.867361 0.079211 -0.962992 0.257627 51 51 51
-0.104123 0.979521 -2.013278 0.079211 -0.962992 0.257627 51 51 51
-0.113562 1.062848 -1.698904 0.079211 -0.962992 0.257627 51 51 51
-0.423190 1.086247 -1.658829 -0.020478 -0.924185 0.381395 51 51 51
-0.347752 0.998518 -1.867361 -0.020478 -0.924185 0.381395 51 51 51
-0.113562 1.062848 -1.698904 -0.020478 -0.924185 0.381395 51 51 51
-0.316436 0.991398 -2.011574 0.041070 0.967931 -0.247835 51 51 51
-0.423190 1.086247 -1.658829 0.041070 0.967931 -0.247835 51 51 51
-0.113562 1.062848 -1.698904 0.041070 0.967931 -0.247835 51 51 51
-0.423190 1.086247 -1.658829 -0.389445 0.853085 -0.347245 51 51 51
-0.316436 0.991398 -2.011574 -0.389445 0.853085 -0.347245 51 51 51
-0.671710 0.815490 -2.045282 -0.389445 0.853085 -0.347245 51 51 51
-0.347752 0.998518 -1.867361 0.429035 -0.892801 0.137240 51 51 51
-0.671710 0.815490 -2.045282 0.429035 -0.892801 0.137240 51 51 51
-0.316436 0.991398 -2.011574 0.429035 -0.892801 0.137240 51 51 51
-0.316436 0.991398 -2.011574 -0.055520 -0.997764 0.037202 51 51 51
-0.104123 0.979521 -2.013278 -0.055520 -0.997764 0.037202 51 51 51
-0.347752 0.998518 -1.867361 -0.055520 -0.997764 0.037202 51 51 51
0.865291 1.125238 -2.334712 -0.379623 -0.751246 0.539922 51 51 51
0.721648 1.502840 -1.910314 -0.379623 -0.751246 0.539922 51 51 51
0.300730 1.631617 -2.027085 -0.379623 -0.751246 0.539922 51 51 51
0.428601 1.491188 -2.403634 0.165481 0.941126 -0.294784 51 51 51
0.300730 1.631617 -2.027085 0.165481 0.941126 -0.294784 51 51 51
0.380502 1.656139 -1.904016 0.165481 0.941126 -0.294784 51 51 51
0.428601 1.491188 -2.403634 -0.646881 -0.759923 0.063730 51 51 51
0.865291 1.125238 -2.334712 -0.646881 -0.759923 0.063730 51 51 51
0.300730 1.631617 -2.027085 -0.646881 -0.759923 0.063730 51 51 51
0.380502 1.656139 -1.904016 0.330198 0.757928 -0.562596 51 51 51
0.721648 1.502840 -1.910314 0.330198 0.757928 -0.562596 51 51 51
0.865291 1.125238 -2.334712 0.330198 0.757928 -0.562596 51 51 51
0.268351 1.685869 -1.923790 0.696294 0.569335 -0.437073 51 51 51
0.378075 1.741946 -1.675944 0.696294 0.569335 -0.437073 50 50 50
0.686733 1.471016 -1.537142 0.696294 0.569335 -0.437073 51 51 51
0.587176 1.478674 -1.938960 0.537232 0.835253 -0.117191 51 51 51
0.268351 1.685869 -1.923790 0.537232 0.835253 -0.117191 51 51 51
0.686733 1.471016 -1.537142 0.537232 0.835253 -0.117191 51 51 51
0.378075 1.741946 -1.675944 -0.701648 -0.615135 0.359581 50 50 50
0.334219 1.611870 -1.984042 -0.701648 -0.615135 0.359581 51 51 51
0.686733 1.471016 -1.537142 -0.701648 -0.615135 0.359581 51 51 51
0.334219 1.611870 -1.984042 -0.477629 -0.872654 0.101710 51 51 51
0.587176 1.478674 -1.938960 -0.477629 -0.872654 0.101710 51 51 51
0.686733 1.471016 -1.537142 -0.477629 -0.872654 0.101710 51 51 51
0.587176 1.478674 -1.938960 0.480270 0.769802 -0.420411 51 51 51
0.334219 1.611870 -1.984042 0.480270 0.769802 -0.420411 51 51 51
0.268351 1.685869 -1.923790 0.480270 0.769802 -0.420411 51 51 51
0.010012 1.724774 -2.364606 -0.609176 -0.780350 0.141275 51 51 51
0.630795 1.173804 -2.731150 -0.609176 -0.780350 0.141275 51 51 51
0.229216 1.620326 -1.996332 -0.609176 -0.780350 0.141275 51 51 51
0.010012 1.724774 -2.364606 0.558891 0.823291 -0.099166 51 51 51
0.229216 1.620326 -1.996332 0.558891 0.823291 -0.099166 51 51 51
0.620872 1.348149 -2.048649 0.558891 0.823291 -0.099166 51 51 51
0.961134 0.890464 1.111670 -0.542045 -0.829139 -0.136801 51 51 51
1.215845 0.682126 1.365152 -0.542045 -0.829139 -0.136801 51 51 51
0.904925 0.902307 1.262610 -0.542045 -0.829139 -0.136801 51 51 51
1.137067 0.938111 0.929959 0.015823 -0.970830 -0.239245 51 51 51
0.961134 0.890464 1.111670 0.015823 -0.970830 -0.239245 51 51 51
0.716799 0.933848 0.919464 0.015823 -0.970830 -0.239245 51 51 51
0.716799 0.933848 0.919464 -0.012550 0.995073 0.098344 51 51 51
0.904925 0.902307 1.262610 -0.012550 0.995073 0.098344 51 51 51
1.137067 0.938111 0.929959 -0.012550 0.995073 0.098344 51 51 51
1.137067 0.938111 0.929959 0.440870 0.806256 0.394443 51 51 51
0.904925 0.902307 1.262610 0.440870 0.806256 0.394443 51 51 51
1.215845 0.682126 1.365152 0.440870 0.806256 0.394443 51 51 51
0.904925 0.902307 1.262610 -0.113461 -0.992903 0.035651 51 51 51
0.715128 0.922615 1.224161 -0.113461 -0.992903 0.035651 51 51 51
0.961134 0.890464 1.111670 -0.113461 -0.992903 0.035651 51 51 51
0.527040 0.830787 1.019756 0.223085 -0.881247 -0.416697 51 51 51
0.286173 0.698784 1.169970 0.223085 -0.881247 -0.416697 51 51 51
0.436554 0.862048 0.905202 0.223085 -0.881247 -0.416697 51 51 51
0.596969 0.861385 1.160823 0.260666 -0.962152 0.079474 51 51 51
0.527040 0.830787 1.019756 0.260666 -0.962152 0.079474 51 51 51
0.796106 0.892555 0.885038 0.260666 -0.962152 0.079474 51 51 51
0.436554 0.862048 0.905202 -0.088009 -0.976456 -0.196947 51 51 51
0.525146 0.885067 0.751486 -0.088009 -0.976456 -0.196947 51 51 51
0.527040 0.830787 1.019756 -0.088009 -0.976456 -0.196947 51 51 51
0.596969 0.861385 1.160823 -0.061207 0.995782 0.068351 51 51 51
0.796106 0.892555 0.885038 -0.061207 0.995782 0.068351 51 51 51
0.525146 0.885067 0.751486 -0.061207 0.995782 0.068351 51 51 51
0.578280 0.782065 1.019388 0.312548 -0.873946 -0.372199 51 51 51
0.855340 0.890559 0.997295 0.312548 -0.873946 -0.372199 51 51 51
0.549457 0.620784 1.373883 0.312548 -0.873946 -0.372199 51 51 51
0.823394 0.875746 1.296299 -0.130843 0.990782 0.035103 51 51 51
0.855340 0.890559 0.997295 -0.130843 0.990782 0.035103 51 51 51
0.793247 0.884194 0.945480 -0.130843 0.990782 0.035103 51 51 51
0.793247 0.884194 0.945480 -0.288541 0.880136 0.376967 51 51 51
0.578280 0.782065 1.019388 -0.288541 0.880136 0.376967 51 51 51
0.549457 0.620784 1.373883 -0.288541 0.880136 0.376967 51 51 51
1.137067 0.938111 0.929959 -0.242470 -0.854767 -0.458892 51 51 51
1.215845 0.682126 1.365152 -0.242470 -0.854767 -0.458892 51 51 51
0.961134 0.890464 1.111670 -0.242470 -0.854767 -0.458892 51 51 51
1.640194 1.311563 1.024204 -0.572477 -0.789721 -0.220481 51 51 51
1.266190 1.583420 1.021564 -0.572477 -0.789721 -0.220481 51 51 51
1.368257 1.646562 0.530385 -0.572477 -0.789721 -0.220481 51 51 51
1.368257 1.646562 0.530385 -0.333743 -0.923708 -0.188096 51 51 51
1.266190 1.583420 1.021564 -0.333743 -0.923708 -0.188096 51 51 51
1.199543 1.661332 0.757201 -0.333743 -0.923708 -0.188096 51 51 51
1.552476 1.558838 0.682736 0.122847 -0.788543 -0.602585 51 51 51
1.640194 1.311563 1.024204 0.122847 -0.788543 -0.602585 51 51 51
1.368257 1.646562 0.530385 0.122847 -0.788543 -0.602585 51 51 51
1.199543 1.661332 0.757201 0.585163 0.805906 0.089993 51 51 51
1.266190 1.583420 1.021564 0.585163 0.805906 0.089993 51 51 51
1.640194 1.311563 1.024204 0.585163 0.805906 0.089993 51 51 51
1.014511 1.639726 0.841603 -0.058464 -0.967313 -0.246753 51 51 51
0.868012 1.684198 0.701978 -0.058464 -0.967313 -0.246753 51 51 51
1.161175 1.689459 0.611895 -0.058464 -0.967313 -0.246753 51 51 51
1.220997 1.681650 0.873294 -0.008185 0.999463 0.031729 51 51 51
1.161175 1.689459 0.611895 -0.008185 0.999463 0.031729 51 51 51
0.868012 1.684198 0.701978 -0.008185 0.999463 0.031729 51 51 51
-0.290415 0.000703 0.027165 0.254337 -0.080694 0.963743 0 0 0
-0.225333 0.417528 0.044890 0.254337 -0.080694 0.963743 0 0 0
-0.305088 0.174978 0.045629 0.254337 -0.080694 0.963743 0 0 0
-0.261470 0.275296 -0.056592 0.734684 -0.267597 -0.623403 0 0 0
-0.151243 0.400270 0.019665 0.734684 -0.267597 -0.623403 0 0 0
-0.290415 0.000703 0.027165 0.734684 -0.267597 -0.623403 0 0 0
-0.151243 0.400270 0.019665 0.348479 0.141795 0.926529 0 0 0
0.187413 0.979005 -0.196277 0.348479 0.141795 0.926529 0 0 0
-0.225333 0.417528 0.044890 0.348479 0.141795 0.926529 0 0 0
-0.261470 0.275296 -0.056592 -0.784454 0.479740 -0.393042 0 0 0
-0.225333 0.417528 0.044890 -0.784454 0.479740 -0.393042 0 0 0
-0.197270 0.423361 -0.004000 -0.784454 0.479740 -0.393042 0 0 0
0.695394 1.317782 -0.149513 -0.743760 0.667457 -0.036371 0 0 0
1.004730 1.685636 0.275408 -0.743760 0.667457 -0.036371 0 0 0
1.030974 1.712570 0.233010 -0.743760 0.667457 -0.036371 0 0 0
-0.197270 0.423361 -0.004000 0.165711 -0.525156 -0.834716 0 0 0
0.340991 1.004150 -0.262541 0.165711 -0.525156 -0.834716 0 0 0
-0.151243 0.400270 0.019665 0.165711 -0.525156 -0.834716 0 0 0
-0.197270 0.423361 -0.004000 -0.210814 0.446812 0.869435 0 0 0
0.187413 0.979005 -0.196277 -0.210814 0.446812 0.869435 0 0 0
0.163398 1.003710 -0.214796 -0.210814 0.446812 0.869435 0 0 0
0.870349 1.440084 -0.008818 0.235404 -0.786126 0.571481 0 0 0
1.062846 1.666669 0.223578 0.235404 -0.786126 0.571481 0 0 0
0.817543 1.442478 0.016227 0.235404 -0.786126 0.571481 0 0 0
0.695394 1.317782 -0.149513 0.161983 0.636125 -0.754391 0 0 0
1.062846 1.666669 0.223578 0.161983 0.636125 -0.754391 0 0 0
0.870349 1.440084 -0.008818 0.161983 0.636125 -0.754391 0 0 0
1.030974 1.712570 0.233010 0.762536 0.585864 -0.274412 0 0 0
1.170064 1.702963 0.599002 0.762536 0.585864 -0.274412 0 0 0
1.062846 1.666669 0.223578 0.762536 0.585864 -0.274412 0 0 0
1.004730 1.685636 0.275408 -0.508334 0.833871 0.215073 0 0 0
1.170064 1.702963 0.599002 -0.508334 0.833871 0.215073 0 0 0
1.030974 1.712570 0.233010 -0.508334 0.833871 0.215073 0 0 0
0.715973 1.347329 -0.008226 -0.599980 0.475031 0.643716 0 0 0
0.845720 0.986122 0.379258 -0.599980 0.475031 0.643716 0 0 0
0.817543 1.442478 0.016227 -0.599980 0.475031 0.643716 0 0 0
0.340991 1.004150 -0.262541 0.353176 -0.774649 0.524581 0 0 0
0.715973 1.347329 -0.008226 0.353176 -0.774649 0.524581 0 0 0
0.187413 0.979005 -0.196277 0.353176 -0.774649 0.524581 0 0 0
0.163398 1.003710 -0.214796 -0.316290 0.352699 0.880661 0 0 0
0.187413 0.979005 -0.196277 -0.316290 0.352699 0.880661 0 0 0
0.695394 1.317782 -0.149513 -0.316290 0.352699 0.880661 0 0 0
1.170064 1.702963 0.599002 -0.185943 -0.971499 0.147023 0 0 0
1.004730 1.685636 0.275408 -0.185943 -0.971499 0.147023 0 0 0
1.062846 1.666669 0.223578 -0.185943 -0.971499 0.147023 0 0 0
0.340991 1.004150 -0.262541 0.685098 -0.680234 -0.260620 0 0 0
0.695394 1.317782 -0.149513 0.685098 -0.680234 -0.260620 0 0 0
0.870349 1.440084 -0.008818 0.685098 -0.680234 -0.260620 0 0 0
0.919178 0.914935 0.517835 -0.066534 -0.996706 -0.046371 0 0 0
0.825594 0.901378 0.943509 -0.066534 -0.996706 -0.046371 0 0 0
0.848794 0.920396 0.501444 -0.066534 -0.996706 -0.046371 0 0 0
0.870349 1.440084 -0.008818 0.864582 -0.352794 -0.357819 0 0 0
0.845720 0.986122 0.379258 0.864582 -0.352794 -0.357819 0 0 0
0.817806 1.042646 0.256080 0.864582 -0.352794 -0.357819 0 0 0
0.817806 1.042646 0.256080 -0.927841 -0.367136 -0.065741 0 0 0
0.848794 0.920396 0.501444 -0.927841 -0.367136 -0.065741 0 0 0
0.715973 1.347329 -0.008226 -0.927841 -0.367136 -0.065741 0 0 0
0.817806 1.042646 0.256080 0.164423 0.910103 0.380365 0 0 0
0.845720 0.986122 0.379258 0.164423 0.910103 0.380365 0 0 0
0.919178 0.914935 0.517835 0.164423 0.910103 0.380365 0 0 0
0.845720 0.986122 0.379258 0.534920 0.832521 0.144115 0 0 0
0.825594 0.901378 0.943509 0.534920 0.832521 0.144115 0 0 0
0.919178 0.914935 0.517835 0.534920 0.832521 0.144115 0 0 0
-1.977635 1.381566 0.765870 -0.279435 0.863259 0.420358 51 51 51
-1.698079 1.158056 1.410710 -0.279435 0.863259 0.420358 51 51 51
-1.749801 1.517779 0.637591 -0.279435 0.863259 0.420358 51 51 51
-1.900980 1.668323 0.271953 0.507447 -0.633277 -0.584344 51 51 51
-1.535848 1.779879 0.468136 0.507447 -0.633277 -0.584344 51 51 51
-1.455171 1.625977 0.704987 0.507447 -0.633277 -0.584344 51 51 51
-1.833233 1.564864 0.672938 0.179363 -0.848492 -0.497886 51 51 51
-1.455171 1.625977 0.704987 0.179363 -0.848492 -0.497886 51 51 51
-1.536499 1.589348 0.738111 0.179363 -0.848492 -0.497886 51 51 51
-1.833233 1.564864 0.672938 -0.137775 0.953177 0.269207 51 51 51
-1.536499 1.589348 0.738111 -0.137775 0.953177 0.269207 51 51 51
-1.900980 1.668323 0.271953 -0.137775 0.953177 0.269207 51 51 51
-1.833233 1.564864 0.672938 0.176051 -0.945563 -0.273709 51 51 51
-1.900980 1.668323 0.271953 0.176051 -0.945563 -0.273709 51 51 51
-1.455171 1.625977 0.704987 0.176051 -0.945563 -0.273709 51 51 51
-1.536499 1.589348 0.738111 -0.132116 0.810013 0.571336 51 51 51
-1.455171 1.625977 0.704987 -0.132116 0.810013 0.571336 51 51 51
-1.535848 1.779879 0.468136 -0.132116 0.810013 0.571336 51 51 51
-0.317522 0.260367 -0.009290 -0.978534 0.156708 -0.133845 0 0 0
-0.358568 0.000924 -0.012964 -0.978534 0.156708 -0.133845 0 0 0
-0.370606 -0.000435 0.073452 -0.978534 0.156708 -0.133845 0 0 0
-0.317522 0.260367 -0.009290 0.656917 -0.097650 0.747613 0 0 0
-0.261470 0.275296 -0.056592 0.656917 -0.097650 0.747613 0 0 0
-0.261377 0.501706 -0.027101 0.656917 -0.097650 0.747613 0 0 0
-0.358568 0.000924 -0.012964 -0.375381 0.098869 0.921582 0 0 0
-0.261377 0.501706 -0.027101 -0.375381 0.098869 0.921582 0 0 0
-0.326023 0.508960 -0.054211 -0.375381 0.098869 0.921582 0 0 0
-0.421308 1.683280 -0.940384 0.026207 0.638222 0.769406 0 0 0
-0.172921 1.906514 -1.134017 0.026207 0.638222 0.769406 0 0 0
-0.217824 1.933203 -1.154626 0.026207 0.638222 0.769406 0 0 0
-0.326023 0.508960 -0.054211 -0.963449 -0.265830 -0.033161 0 0 0
-0.507480 1.221543 -0.494540 -0.963449 -0.265830 -0.033161 0 0 0
-0.261470 0.275296 -0.056592 -0.963449 -0.265830 -0.033161 0 0 0
-0.525145 1.265608 -0.464953 -0.295025 0.866145 -0.403426 0 0 0
-0.426799 1.102782 -0.886457 -0.295025 0.866145 -0.403426 0 0 0
-0.447114 1.091309 -0.896233 -0.295025 0.866145 -0.403426 0 0 0
-0.186101 1.861032 -1.164200 0.815009 -0.465326 0.345300 0 0 0
0.059219 1.936728 -1.641218 0.815009 -0.465326 0.345300 0 0 0
-0.172921 1.906514 -1.134017 0.815009 -0.465326 0.345300 0 0 0
-0.217824 1.933203 -1.154626 -0.827767 -0.301038 -0.473473 0 0 0
0.059219 1.936728 -1.641218 -0.827767 -0.301038 -0.473473 0 0 0
-0.186101 1.861032 -1.164200 -0.827767 -0.301038 -0.473473 0 0 0
-0.376405 1.656592 -0.919775 0.848847 -0.440219 0.292690 0 0 0
-0.186101 1.861032 -1.164200 0.848847 -0.440219 0.292690 0 0 0
-0.172921 1.906514 -1.134017 0.848847 -0.440219 0.292690 0 0 0
-0.484887 1.294994 -0.470726 0.959553 -0.281480 0.005148 0 0 0
-0.389585 1.611110 -0.949958 0.959553 -0.281480 0.005148 0 0 0
-0.376405 1.656592 -0.919775 0.959553 -0.281480 0.005148 0 0 0
-0.484887 1.294994 -0.470726 -0.447649 0.717998 0.533000 0 0 0
-0.421308 1.683280 -0.940384 -0.447649 0.717998 0.533000 0 0 0
-0.525145 1.265608 -0.464953 -0.447649 0.717998 0.533000 0 0 0
-0.421308 1.683280 -0.940384 -0.611089 -0.165935 -0.773974 0 0 0
-0.186101 1.861032 -1.164200 -0.611089 -0.165935 -0.773974 0 0 0
-0.389585 1.611110 -0.949958 -0.611089 -0.165935 -0.773974 0 0 0
-0.484887 1.294994 -0.470726 -0.317759 0.393016 0.862884 0 0 0
-0.326023 0.508960 -0.054211 -0.317759 0.393016 0.862884 0 0 0
-0.261377 0.501706 -0.027101 -0.317759 0.393016 0.862884 0 0 0
-0.261377 0.501706 -0.027101 0.829494 -0.075738 -0.553356 0 0 0
-0.507480 1.221543 -0.494540 0.829494 -0.075738 -0.553356 0 0 0
-0.484887 1.294994 -0.470726 0.829494 -0.075738 -0.553356 0 0 0
-0.170747 0.975764 -1.164798 -0.524762 -0.831507 -0.182267 0 0 0
-0.414016 1.063625 -0.865230 -0.524762 -0.831507 -0.182267 0 0 0
-0.447114 1.091309 -0.896233 -0.524762 -0.831507 -0.182267 0 0 0
-0.504811 1.263163 -0.510508 0.940653 0.335342 0.052134 0 0 0
-0.414016 1.063625 -0.865230 0.940653 0.335342 0.052134 0 0 0
-0.426799 1.102782 -0.886457 0.940653 0.335342 0.052134 0 0 0
-0.414016 1.063625 -0.865230 0.741337 0.490394 0.458185 0 0 0
-0.170747 0.975764 -1.164798 0.741337 0.490394 0.458185 0 0 0
-0.426799 1.102782 -0.886457 0.741337 0.490394 0.458185 0 0 0
-0.426799 1.102782 -0.886457 -0.194389 0.812500 -0.549597 0 0 0
-0.170747 0.975764 -1.164798 -0.194389 0.812500 -0.549597 0 0 0
-0.447114 1.091309 -0.896233 -0.194389 0.812500 -0.549597 0 0 0
1.422578 1.668601 0.763004 -0.314029 -0.930551 0.188311 51 51 51
1.601396 1.610735 0.775256 -0.314029 -0.930551 0.188311 51 51 51
1.367668 1.705924 0.855874 -0.314029 -0.930551 0.188311 51 51 51
1.601396 1.610735 0.775256 -0.296707 -0.945417 -0.134725 51 51 51
1.422578 1.668601 0.763004 -0.296707 -0.945417 -0.134725 51 51 51
1.376874 1.721934 0.489397 -0.296707 -0.945417 -0.134725 51 51 51
1.422578 1.668601 0.763004 -0.285194 -0.955780 0.071762 51 51 51
1.101385 1.768730 0.820133 -0.285194 -0.955780 0.071762 51 51 51
1.164043 1.733764 0.603447 -0.285194 -0.955780 0.071762 51 51 51
1.376874 1.721934 0.489397 -0.143312 -0.975617 -0.166235 51 51 51
1.422578 1.668601 0.763004 -0.143312 -0.975617 -0.166235 51 51 51
1.164043 1.733764 0.603447 -0.143312 -0.975617 -0.166235 51 51 51
1.164043 1.733764 0.603447 0.177697 0.956247 0.232411 51 51 51
1.601396 1.610735 0.775256 0.177697 0.956247 0.232411 51 51 51
1.376874 1.721934 0.489397 0.177697 0.956247 0.232411 51 51 51
1.164043 1.733764 0.603447 0.324790 0.932295 -0.159176 51 51 51
1.367668 1.705924 0.855874 0.324790 0.932295 -0.159176 51 51 51
1.601396 1.610735 0.775256 0.324790 0.932295 -0.159176 51 51 51
1.164043 1.733764 0.603447 0.239709 0.966964 -0.086720 51 51 51
1.101385 1.768730 0.820133 0.239709 0.966964 -0.086720 51 51 51
1.367668 1.705924 0.855874 0.239709 0.966964 -0.086720 51 51 51
1.422578 1.668601 0.763004 -0.252445 -0.940218 0.228609 51 51 51
1.367668 1.705924 0.855874 -0.252445 -0.940218 0.228609 51 51 51
1.101385 1.768730 0.820133 -0.252445 -0.940218 0.228609 51 51 51
-1.497814 1.624849 0.710026 0.122684 -0.750810 -0.649025 51 51 51
-2.219141 1.273978 0.979573 0.122684 -0.750810 -0.649025 51 51 51
-2.040309 1.535703 0.710606 0.122684 -0.750810 -0.649025 51 51 51
-1.685286 1.468691 1.087890 0.203094 -0.936393 -0.286218 51 51 51
-1.497814 1.624849 0.710026 0.203094 -0.936393 -0.286218 51 51 51
-1.430503 1.559754 0.970756 0.203094 -0.936393 -0.286218 51 51 51
-1.430503 1.559754 0.970756 0.328437 0.932841 0.148108 51 51 51
-1.497814 1.624849 0.710026 0.328437 0.932841 0.148108 51 51 51
-1.626606 1.695236 0.552307 0.328437 0.932841 0.148108 51 51 51
-1.430503 1.559754 0.970756 -0.199930 0.900845 0.385365 51 51 51
-1.626606 1.695236 0.552307 -0.199930 0.900845 0.385365 51 51 51
-2.040309 1.535703 0.710606 -0.199930 0.900845 0.385365 51 51 51
-1.685286 1.468691 1.087890 -0.384488 0.776208 0.499670 51 51 51
-2.040309 1.535703 0.710606 -0.384488 0.776208 0.499670 51 51 51
-2.219141 1.273978 0.979573 -0.384488 0.776208 0.499670 51 51 51
-1.936831 1.623879 0.623916 0.093864 -0.878382 -0.468653 51 51 51
-1.626606 1.695236 0.552307 0.093864 -0.878382 -0.468653 51 51 51
-1.497814 1.624849 0.710026 0.093864 -0.878382 -0.468653 51 51 51
-0.380201 1.077930 0.314339 -0.365768 -0.366663 0.855437 0 0 0
-0.635368 1.585764 0.422906 -0.365768 -0.366663 0.855437 0 0 0
-0.317522 0.260367 -0.009290 -0.365768 -0.366663 0.855437 0 0 0
-0.687495 1.600231 0.508182 -0.831387 -0.320725 -0.453796 0 0 0
-0.635368 1.585764 0.422906 -0.831387 -0.320725 -0.453796 0 0 0
-0.380201 1.077930 0.314339 -0.831387 -0.320725 -0.453796 0 0 0
-0.635368 1.585764 0.422906 -0.279932 0.436045 -0.855280 0 0 0
-1.169048 1.745375 0.678953 -0.279932 0.436045 -0.855280 0 0 0
-0.682368 1.648028 0.470033 -0.279932 0.436045 -0.855280 0 0 0
-0.356000 1.097992 0.280615 0.738334 0.194754 0.645704 0 0 0
-0.687495 1.600231 0.508182 0.738334 0.194754 0.645704 0 0 0
-0.380201 1.077930 0.314339 0.738334 0.194754 0.645704 0 0 0
-0.356000 1.097992 0.280615 0.856385 0.392686 0.335265 0 0 0
-0.635368 1.585764 0.422906 0.856385 0.392686 0.335265 0 0 0
-0.682368 1.648028 0.470033 0.856385 0.392686 0.335265 0 0 0
1.220997 1.681650 0.873294 0.241491 -0.879618 -0.409823 51 51 51
0.920073 1.513453 1.056980 0.241491 -0.879618 -0.409823 51 51 51
1.014511 1.639726 0.841603 0.241491 -0.879618 -0.409823 51 51 51
0.549457 0.620784 1.373883 0.686476 -0.726192 0.037368 51 51 51
0.855340 0.890559 0.997295 0.686476 -0.726192 0.037368 51 51 51
0.823394 0.875746 1.296299 0.686476 -0.726192 0.037368 51 51 51
-0.525145 1.265608 -0.464953 -0.945668 -0.306760 -0.107753 0 0 0
-0.414016 1.063625 -0.865230 -0.945668 -0.306760 -0.107753 0 0 0
-0.507480 1.221543 -0.494540 -0.945668 -0.306760 -0.107753 0 0 0
-0.261470 0.275296 -0.056592 0.462125 0.526338 0.713729 0 0 0
-0.317522 0.260367 -0.009290 0.462125 0.526338 0.713729 0 0 0
-0.305088 0.174978 0.045629 0.462125 0.526338 0.713729 0 0 0
-0.423190 1.086247 -1.658829 0.239800 -0.860810 0.448891 51 51 51
-0.671710 0.815490 -2.045282 0.239800 -0.860810 0.448891 51 51 51
-0.347752 0.998518 -1.867361 0.239800 -0.860810 0.448891 51 51 51
-1.685286 1.468691 1.087890 0.370405 -0.908847 -0.191825 51 51 51
-2.219141 1.273978 0.979573 0.370405 -0.908847 -0.191825 51 51 51
-1.497814 1.624849 0.710026 0.370405 -0.908847 -0.191825 51 51 51
-1.900980 1.668323 0.271953 -0.488030 0.713674 0.502490 51 51 51
-1.536499 1.589348 0.738111 -0.488030 0.713674 0.502490 51 51 51
-1.535848 1.779879 0.468136 -0.488030 0.713674 0.502490 51 51 51
-0.504811 1.263163 -0.510508 -0.833583 -0.305342 -0.460333 0 0 0
-0.421308 1.683280 -0.940384 -0.833583 -0.305342 -0.460333 0 0 0
-0.389585 1.611110 -0.949958 -0.833583 -0.305342 -0.460333 0 0 0
-0.380201 1.077930 0.314339 0.834198 -0.092397 0.543670 0 0 0
-0.305088 0.174978 0.045629 0.834198 -0.092397 0.543670 0 0 0
-0.356000 1.097992 0.280615 0.834198 -0.092397 0.543670 0 0 0
-0.380201 1.077930 0.314339 -0.928228 0.073216 -0.364736 0 0 0
-0.317522 0.260367 -0.009290 -0.928228 0.073216 -0.364736 0 0 0
-0.370606 -0.000435 0.073452 -0.928228 0.073216 -0.364736 0 0 0
-0.635368 1.585764 0.422906 0.096960 0.329502 -0.939163 0 0 0
-0.356000 1.097992 0.280615 0.096960 0.329502 -0.939163 0 0 0
-0.317522 0.260367 -0.009290 0.096960 0.329502 -0.939163 0 0 0
-1.304071 1.559974 0.831515 0.269977 -0.859781 -0.433463 51 51 51
-1.977635 1.381566 0.765870 0.269977 -0.859781 -0.433463 51 51 51
-1.749801 1.517779 0.637591 0.269977 -0.859781 -0.433463 51 51 51
-0.191661 0.980124 -1.744325 -0.317951 -0.874179 0.367040 51 51 51
0.097777 0.879623 -1.732961 -0.317951 -0.874179 0.367040 51 51 51
-0.125054 0.986327 -1.671852 -0.317951 -0.874179 0.367040 51 51 51
-0.009119 1.049943 -1.419831 0.157762 0.973698 -0.164388 51 51 51
0.011280 0.959742 -1.934529 0.157762 0.973698 -0.164388 51 51 51
-0.182747 1.027557 -1.719057 0.157762 0.973698 -0.164388 51 51 51
0.250231 0.941196 -1.495313 -0.289819 -0.905776 0.309151 51 51 51
-0.009119 1.049943 -1.419831 -0.289819 -0.905776 0.309151 51 51 51
0.308681 0.854777 -1.693717 -0.289819 -0.905776 0.309151 51 51 51
-0.009119 1.049943 -1.419831 -0.332157 -0.906522 0.260556 51 51 51
-0.182747 1.027557 -1.719057 -0.332157 -0.906522 0.260556 51 51 51
0.308681 0.854777 -1.693717 -0.332157 -0.906522 0.260556 51 51 51
-0.009119 1.049943 -1.419831 0.345265 0.926648 -0.148711 51 51 51
0.250231 0.941196 -1.495313 0.345265 0.926648 -0.148711 51 51 51
0.011280 0.959742 -1.934529 0.345265 0.926648 -0.148711 51 51 51
-0.182747 1.027557 -1.719057 -0.331606 -0.943416 -0.001685 51 51 51
0.011280 0.959742 -1.934529 -0.331606 -0.943416 -0.001685 51 51 51
0.308681 0.854777 -1.693717 -0.331606 -0.943416 -0.001685 51 51 51
-0.104123 0.979521 -2.013278 0.051982 0.965700 -0.254405 51 51 51
-0.316436 0.991398 -2.011574 0.051982 0.965700 -0.254405 51 51 51
-0.113562 1.062848 -1.698904 0.051982 0.965700 -0.254405 51 51 51
0.300730 1.631617 -2.027085 -0.368432 -0.836558 0.405498 51 51 51
0.721648 1.502840 -1.910314 -0.368432 -0.836558 0.405498 51 51 51
0.380502 1.656139 -1.904016 -0.368432 -0.836558 0.405498 51 51 51
0.865291 1.125238 -2.334712 0.648294 0.739391 -0.181700 51 51 51
0.428601 1.491188 -2.403634 0.648294 0.739391 -0.181700 51 51 51
0.380502 1.656139 -1.904016 0.648294 0.739391 -0.181700 51 51 51
0.378075 1.741946 -1.675944 -0.501667 -0.769050 0.396096 50 50 50
0.268351 1.685869 -1.923790 -0.501667 -0.769050 0.396096 51 51 51
0.334219 1.611870 -1.984042 -0.501667 -0.769050 0.396096 51 51 51
0.229216 1.620326 -1.996332 -0.540819 -0.816821 0.200794 51 51 51
0.630795 1.173804 -2.731150 -0.540819 -0.816821 0.200794 51 51 51
0.620872 1.348149 -2.048649 -0.540819 -0.816821 0.200794 51 51 51
0.961134 0.890464 1.111670 -0.146225 -0.988550 -0.037246 51 51 51
0.715128 0.922615 1.224161 -0.146225 -0.988550 -0.037246 51 51 51
0.716799 0.933848 0.919464 -0.146225 -0.988550 -0.037246 51 51 51
0.716799 0.933848 0.919464 0.098863 0.994405 0.037202 51 51 51
0.715128 0.922615 1.224161 0.098863 0.994405 0.037202 51 51 51
0.904925 0.902307 1.262610 0.098863 0.994405 0.037202 51 51 51
0.596969 0.861385 1.160823 0.462391 -0.885901 -0.037063 51 51 51
0.286173 0.698784 1.169970 0.462391 -0.885901 -0.037063 51 51 51
0.527040 0.830787 1.019756 0.462391 -0.885901 -0.037063 51 51 51
0.527040 0.830787 1.019756 0.124274 -0.972370 -0.197619 51 51 51
0.525146 0.885067 0.751486 0.124274 -0.972370 -0.197619 51 51 51
0.796106 0.892555 0.885038 0.124274 -0.972370 -0.197619 51 51 51
0.286173 0.698784 1.169970 -0.438911 0.854555 0.277656 51 51 51
0.596969 0.861385 1.160823 -0.438911 0.854555 0.277656 51 51 51
0.436554 0.862048 0.905202 -0.438911 0.854555 0.277656 51 51 51
0.436554 0.862048 0.905202 -0.120956 0.989551 0.078474 51 51 51
0.596969 0.861385 1.160823 -0.120956 0.989551 0.078474 51 51 51
0.525146 0.885067 0.751486 -0.120956 0.989551 0.078474 51 51 51
0.855340 0.890559 0.997295 0.329782 -0.900125 -0.284639 51 51 51
0.578280 0.782065 1.019388 0.329782 -0.900125 -0.284639 51 51 51
0.793247 0.884194 0.945480 0.329782 -0.900125 -0.284639 51 51 51
0.549457 0.620784 1.373883 -0.667872 0.740465 0.075225 51 51 51
0.823394 0.875746 1.296299 -0.667872 0.740465 0.075225 51 51 51
0.793247 0.884194 0.945480 -0.667872 0.740465 0.075225 51 51 51
1.552476 1.558838 0.682736 0.307395 0.936697 0.167651 51 51 51
1.368257 1.646562 0.530385 0.307395 0.936697 0.167651 51 51 51
1.199543 1.661332 0.757201 0.307395 0.936697 0.167651 51 51 51
1.640194 1.311563 1.024204 0.336985 0.801568 0.493893 51 51 51
1.552476 1.558838 0.682736 0.336985 0.801568 0.493893 51 51 51
1.199543 1.661332 0.757201 0.336985 0.801568 0.493893 51 51 51
0.868012 1.684198 0.701978 -0.211479 0.868326 0.448651 51 51 51
0.920073 1.513453 1.056980 -0.211479 0.868326 0.448651 51 51 51
1.220997 1.681650 0.873294 -0.211479 0.868326 0.448651 51 51 51
1.014511 1.639726 0.841603 0.158490 -0.880513 -0.446741 51 51 51
0.920073 1.513453 1.056980 0.158490 -0.880513 -0.446741 51 51 51
0.868012 1.684198 0.701978 0.158490 -0.880513 -0.446741 51 51 51
1.161175 1.689459 0.611895 0.209736 -0.974712 -0.077115 51 51 51
1.220997 1.681650 0.873294 0.209736 -0.974712 -0.077115 51 51 51
1.014511 1.639726 0.841603 0.209736 -0.974712 -0.077115 51 51 51
-0.358568 0.000924 -0.012964 0.483026 -0.301647 -0.822007 0 0 0
-0.261470 0.275296 -0.056592 0.483026 -0.301647 -0.822007 0 0 0
-0.290415 0.000703 0.027165 0.483026 -0.301647 -0.822007 0 0 0
-0.290415 0.000703 0.027165 0.302707 -0.087622 0.949048 0 0 0
-0.151243 0.400270 0.019665 0.302707 -0.087622 0.949048 0 0 0
-0.225333 0.417528 0.044890 0.302707 -0.087622 0.949048 0 0 0
-0.261470 0.275296 -0.056592 0.492131 0.094016 -0.865430 0 0 0
-0.197270 0.423361 -0.004000 0.492131 0.094016 -0.865430 0 0 0
-0.151243 0.400270 0.019665 0.492131 0.094016 -0.865430 0 0 0
-0.151243 0.400270 0.019665 0.376203 0.122538 0.918399 0 0 0
0.340991 1.004150 -0.262541 0.376203 0.122538 0.918399 0 0 0
0.187413 0.979005 -0.196277 0.376203 0.122538 0.918399 0 0 0
-0.261470 0.275296 -0.056592 -0.945420 0.310571 -0.098627 0 0 0
-0.305088 0.174978 0.045629 -0.945420 0.310571 -0.098627 0 0 0
-0.225333 0.417528 0.044890 -0.945420 0.310571 -0.098627 0 0 0
0.695394 1.317782 -0.149513 -0.780588 -0.062036 0.621960 0 0 0
0.817543 1.442478 0.016227 -0.780588 -0.062036 0.621960 0 0 0
1.004730 1.685636 0.275408 -0.780588 -0.062036 0.621960 0 0 0
-0.197270 0.423361 -0.004000 -0.254647 -0.186406 -0.948898 0 0 0
0.163398 1.003710 -0.214796 -0.254647 -0.186406 -0.948898 0 0 0
0.340991 1.004150 -0.262541 -0.254647 -0.186406 -0.948898 0 0 0
-0.197270 0.423361 -0.004000 -0.809008 0.416599 -0.414669 0 0 0
-0.225333 0.417528 0.044890 -0.809008 0.416599 -0.414669 0 0 0
0.187413 0.979005 -0.196277 -0.809008 0.416599 -0.414669 0 0 0
1.004730 1.685636 0.275408 0.244926 -0.789056 0.563384 0 0 0
0.817543 1.442478 0.016227 0.244926 -0.789056 0.563384 0 0 0
1.062846 1.666669 0.223578 0.244926 -0.789056 0.563384 0 0 0
0.695394 1.317782 -0.149513 0.397641 0.441398 -0.804394 0 0 0
1.030974 1.712570 0.233010 0.397641 0.441398 -0.804394 0 0 0
1.062846 1.666669 0.223578 0.397641 0.441398 -0.804394 0 0 0
0.870349 1.440084 -0.008818 0.329578 -0.553408 -0.764930 0 0 0
0.817806 1.042646 0.256080 0.329578 -0.553408 -0.764930 0 0 0
0.715973 1.347329 -0.008226 0.329578 -0.553408 -0.764930 0 0 0
0.340991 1.004150 -0.262541 0.480081 -0.796678 0.367187 0 0 0
0.870349 1.440084 -0.008818 0.480081 -0.796678 0.367187 0 0 0
0.715973 1.347329 -0.008226 0.480081 -0.796678 0.367187 0 0 0
0.340991 1.004150 -0.262541 -0.219634 0.540806 -0.811967 0 0 0
0.163398 1.003710 -0.214796 -0.219634 0.540806 -0.811967 0 0 0
0.695394 1.317782 -0.149513 -0.219634 0.540806 -0.811967 0 0 0
0.695394 1.317782 -0.149513 -0.546326 0.832229 -0.094465 0 0 0
0.187413 0.979005 -0.196277 -0.546326 0.832229 -0.094465 0 0 0
0.715973 1.347329 -0.008226 -0.546326 0.832229 -0.094465 0 0 0
0.870349 1.440084 -0.008818 0.366864 0.592906 0.716849 0 0 0
0.817543 1.442478 0.016227 0.366864 0.592906 0.716849 0 0 0
0.845720 0.986122 0.379258 0.366864 0.592906 0.716849 0 0 0
0.817806 1.042646 0.256080 0.035357 -0.892707 -0.449248 0 0 0
0.919178 0.914935 0.517835 0.035357 -0.892707 -0.449248 0 0 0
0.848794 0.920396 0.501444 0.035357 -0.892707 -0.449248 0 0 0
0.845720 0.986122 0.379258 0.750606 0.589595 0.298275 0 0 0
0.715973 1.347329 -0.008226 0.750606 0.589595 0.298275 0 0 0
0.848794 0.920396 0.501444 0.750606 0.589595 0.298275 0 0 0
0.845720 0.986122 0.379258 -0.986232 -0.154709 -0.058413 0 0 0
0.848794 0.920396 0.501444 -0.986232 -0.154709 -0.058413 0 0 0
0.825594 0.901378 0.943509 -0.986232 -0.154709 -0.058413 0 0 0
-1.749801 1.517779 0.637591 -0.170876 0.968325 0.182064 51 51 51
-1.249393 1.514307 1.125714 -0.170876 0.968325 0.182064 51 51 51
-1.304071 1.559974 0.831515 -0.170876 0.968325 0.182064 51 51 51
-1.977635 1.381566 0.765870 0.367877 -0.817630 -0.442885 51 51 51
-1.249393 1.514307 1.125714 0.367877 -0.817630 -0.442885 51 51 51
-1.698079 1.158056 1.410710 0.367877 -0.817630 -0.442885 51 51 51
-1.249393 1.514307 1.125714 -0.393567 0.823139 0.409326 51 51 51
-1.749801 1.517779 0.637591 -0.393567 0.823139 0.409326 51 51 51
-1.698079 1.158056 1.410710 -0.393567 0.823139 0.409326 51 51 51
-1.249393 1.514307 1.125714 0.268895 -0.942945 -0.196342 51 51 51
-1.977635 1.381566 0.765870 0.268895 -0.942945 -0.196342 51 51 51
-1.304071 1.559974 0.831515 0.268895 -0.942945 -0.196342 51 51 51
-0.358568 0.000924 -0.012964 -0.258829 -0.061682 -0.963952 0 0 0
-0.326023 0.508960 -0.054211 -0.258829 -0.061682 -0.963952 0 0 0
-0.261470 0.275296 -0.056592 -0.258829 -0.061682 -0.963952 0 0 0
-0.484887 1.294994 -0.470726 0.929784 -0.182315 -0.319785 0 0 0
-0.507480 1.221543 -0.494540 0.929784 -0.182315 -0.319785 0 0 0
-0.504811 1.263163 -0.510508 0.929784 -0.182315 -0.319785 0 0 0
-0.358568 0.000924 -0.012964 -0.757019 0.128838 -0.640565 0 0 0
-0.317522 0.260367 -0.009290 -0.757019 0.128838 -0.640565 0 0 0
-0.261377 0.501706 -0.027101 -0.757019 0.128838 -0.640565 0 0 0
-0.421308 1.683280 -0.940384 0.026199 0.638227 0.769402 0 0 0
-0.376405 1.656592 -0.919775 0.026199 0.638227 0.769402 0 0 0
-0.172921 1.906514 -1.134017 0.026199 0.638227 0.769402 0 0 0
-0.326023 0.508960 -0.054211 -0.945622 -0.307076 -0.107255 0 0 0
-0.525145 1.265608 -0.464953 -0.945622 -0.307076 -0.107255 0 0 0
-0.507480 1.221543 -0.494540 -0.945622 -0.307076 -0.107255 0 0 0
-0.525145 1.265608 -0.464953 -0.780539 0.499948 -0.375247 0 0 0
-0.504811 1.263163 -0.510508 -0.780539 0.499948 -0.375247 0 0 0
-0.426799 1.102782 -0.886457 -0.780539 0.499948 -0.375247 0 0 0
-0.376405 1.656592 -0.919775 0.848847 -0.440219 0.292689 0 0 0
-0.389585 1.611110 -0.949958 0.848847 -0.440219 0.292689 0 0 0
-0.186101 1.861032 -1.164200 0.848847 -0.440219 0.292689 0 0 0
-0.217824 1.933203 -1.154626 0.411827 0.878859 0.240843 0 0 0
-0.172921 1.906514 -1.134017 0.411827 0.878859 0.240843 0 0 0
0.059219 1.936728 -1.641218 0.411827 0.878859 0.240843 0 0 0
-0.484887 1.294994 -0.470726 0.896758 -0.429835 -0.105199 0 0 0
-0.504811 1.263163 -0.510508 0.896758 -0.429835 -0.105199 0 0 0
-0.389585 1.611110 -0.949958 0.896758 -0.429835 -0.105199 0 0 0
-0.484887 1.294994 -0.470726 0.152059 0.751544 0.641918 0 0 0
-0.376405 1.656592 -0.919775 0.152059 0.751544 0.641918 0 0 0
-0.421308 1.683280 -0.940384 0.152059 0.751544 0.641918 0 0 0
-0.421308 1.683280 -0.940384 -0.611090 -0.165934 -0.773974 0 0 0
-0.217824 1.933203 -1.154626 -0.611090 -0.165934 -0.773974 0 0 0
-0.186101 1.861032 -1.164200 -0.611090 -0.165934 -0.773974 0 0 0
-0.484887 1.294994 -0.470726 -0.187307 0.430110 0.883132 0 0 0
-0.525145 1.265608 -0.464953 -0.187307 0.430110 0.883132 0 0 0
-0.326023 0.508960 -0.054211 -0.187307 0.430110 0.883132 0 0 0
-0.261377 0.501706 -0.027101 0.914400 0.051920 -0.401469 0 0 0
-0.261470 0.275296 -0.056592 0.914400 0.051920 -0.401469 0 0 0
-0.507480 1.221543 -0.494540 0.914400 0.051920 -0.401469 0 0 0
-0.504811 1.263163 -0.510508 0.971983 0.027240 0.233467 0 0 0
-0.507480 1.221543 -0.494540 0.971983 0.027240 0.233467 0 0 0
-0.414016 1.063625 -0.865230 0.971983 0.027240 0.233467 0 0 0
0.620872 1.348149 -2.048649 0.585266 0.787614 -0.192687 51 51 51
0.630795 1.173804 -2.731150 0.585266 0.787614 -0.192687 51 51 51
0.010012 1.724774 -2.364606 0.585266 0.787614 -0.192687 51 51 51
-1.685286 1.468691 1.087890 -0.178276 0.926185 0.332264 51 51 51
-1.430503 1.559754 0.970756 -0.178276 0.926185 0.332264 51 51 51
-2.040309 1.535703 0.710606 -0.178276 0.926185 0.332264 51 51 51
-1.936831 1.623879 0.623916 0.004597 0.698318 0.715773 51 51 51
-2.040309 1.535703 0.710606 0.004597 0.698318 0.715773 51 51 51
-1.626606 1.695236 0.552307 0.004597 0.698318 0.715773 51 51 51
-1.497814 1.624849 0.710026 0.125267 -0.766410 -0.630019 51 51 51
-2.040309 1.535703 0.710606 0.125267 -0.766410 -0.630019 51 51 51
-1.936831 1.623879 0.623916 0.125267 -0.766410 -0.630019 51 51 51
-0.290415 0.000703 0.027165 0.499830 -0.049533 0.864706 0 0 0
-0.305088 0.174978 0.045629 0.499830 -0.049533 0.864706 0 0 0
-0.370606 -0.000435 0.073452 0.499830 -0.049533 0.864706 0 0 0
-0.317522 0.260367 -0.009290 0.991762 0.080144 -0.099927 0 0 0
-0.356000 1.097992 0.280615 0.991762 0.080144 -0.099927 0 0 0
-0.305088 0.174978 0.045629 0.991762 0.080144 -0.099927 0 0 0
-0.635368 1.585764 0.422906 -0.294322 -0.955540 -0.017806 0 0 0
-0.687495 1.600231 0.508182 -0.294322 -0.955540 -0.017806 0 0 0
-1.169048 1.745375 0.678953 -0.294322 -0.955540 -0.017806 0 0 0
-0.687495 1.600231 0.508182 0.421105 0.537783 0.730384 0 0 0
-0.682368 1.648028 0.470033 0.421105 0.537783 0.730384 0 0 0
-1.169048 1.745375 0.678953 0.421105 0.537783 0.730384 0 0 0
-0.356000 1.097992 0.280615 0.810546 0.309773 0.497048 0 0 0
-0.682368 1.648028 0.470033 0.810546 0.309773 0.497048 0 0 0
-0.687495 1.600231 0.508182 0.810546 0.309773 0.497048 0 0 0
-0.525145 1.265608 -0.464953 -0.712510 -0.685821 0.148256 0 0 0
-0.447114 1.091309 -0.896233 -0.712510 -0.685821 0.148256 0 0 0
-0.414016 1.063625 -0.865230 -0.712510 -0.685821 0.148256 0 0 0
0.695394 1.317782 -0.149513 -0.675480 0.735296 -0.055381 0 0 0
0.715973 1.347329 -0.008226 -0.675480 0.735296 -0.055381 0 0 0
0.817543 1.442478 0.016227 -0.675480 0.735296 -0.055381 0 0 0
-0.504811 1.263163 -0.510508 -0.895322 -0.218948 -0.387893 0 0 0
-0.525145 1.265608 -0.464953 -0.895322 -0.218948 -0.387893 0 0 0
-0.421308 1.683280 -0.940384 -0.895322 -0.218948 -0.387893 0 0 0
-0.380201 1.077930 0.314339 0.698732 -0.150032 0.699474 0 0 0
-0.370606 -0.000435 0.073452 0.698732 -0.150032 0.699474 0 0 0
-0.305088 0.174978 0.045629 0.698732 -0.150032 0.699474 0 0 0
3 0 1 2
3 3 4 5
3 6 7 8
3 9 10 11
3 12 13 14
3 15 16 17
3 18 19 20
3 21 22 23
3 24 25 26
3 27 28 29
3 30 31 32
3 33 34 35
3 36 37 38
3 39 40 41
3 42 43 44
3 45 46 47
3 48 49 50
3 51 52 53
3 54 55 56
3 57 58 59
3 60 61 62
3 63 64 65
3 66 67 68
3 69 70 71
3 72 73 74
3 75 76 77
3 78 79 80
3 81 82 83
3 84 85 86
3 87 88 89
3 90 91 92
3 93 94 95
3 96 97 98
3 99 100 101
3 102 103 104
3 105 106 107
3 108 109 110
3 111 112 113
3 114 115 116
3 117 118 119
3 120 121 122
3 123 124 125
3 126 127 128
3 129 130 131
3 132 133 134
3 135 136 137
3 138 139 140
3 141 142 143
3 144 145 146
3 147 148 149
3 150 151 152
3 153 154 155
3 156 157 158
3 159 160 161
3 162 163 164
3 165 166 167
3 168 169 170
3 171 172 173
3 174 175 176
3 177 178 179
3 180 181 182
3 183 184 185
3 186 187 188
3 189 190 191
3 192 193 194
3 195 196 197
3 198 199 200
3 201 202 203
3 204 205 206
3 207 208 209
3 210 211 212
3 213 214 215
3 216 217 218
3 219 220 221
3 222 223 224
3 225 226 227
3 228 229 230
3 231 232 233
3 234 235 236
3 237 238 239
3 240 241 242
3 243 244 245
3 246 247 248
3 249 250 251
3 252 253 254
3 255 256 257
3 258 259 260
3 261 262 263
3 264 265 266
3 267 268 269
3 270 271 272
3 273 274 275
3 276 277 278
3 279 280 281
3 282 283 284
3 285 286 287
3 288 289 290
3 291 292 293
3 294 295 296
3 297 298 299
3 300 301 302
3 303 304 305
3 306 307 308
3 309 310 311
3 312 313 314
3 315 316 317
3 318 319 320
3 321 322 323
3 324 325 326
3 327 328 329
3 330 331 332
3 333 334 335
3 336 337 338
3 339 340 341
3 342 343 344
3 345 346 347
3 348 349 350
3 351 352 353
3 354 355 356
3 357 358 359
3 360 361 362
3 363 364 365
3 366 367 368
3 369 370 371
3 372 373 374
3 375 376 377
3 378 379 380
3 381 382 383
3 384 385 386
3 387 388 389
3 390 391 392
3 393 394 395
3 396 397 398
3 399 400 401
3 402 403 404
3 405 406 407
3 408 409 410
3 411 412 413
3 414 415 416
3 417 418 419
3 420 421 422
3 423 424 425
3 426 427 428
3 429 430 431
3 432 433 434
3 435 436 437
3 438 439 440
3 441 442 443
3 444 445 446
3 447 448 449
3 450 451 452
3 453 454 455
3 456 457 458
3 459 460 461
3 462 463 464
3 465 466 467
3 468 469 470
3 471 472 473
3 474 475 476
3 477 478 479
3 480 481 482
3 483 484 485
3 486 487 488
3 489 490 491
3 492 493 494
3 495 496 497
3 498 499 500
3 501 502 503
3 504 505 506
3 507 508 509
3 510 511 512
3 513 514 515
3 516 517 518
3 519 520 521
3 522 523 524
3 525 526 527
3 528 529 530
3 531 532 533
3 534 535 536
3 537 538 539
3 540 541 542
3 543 544 545
3 546 547 548
3 549 550 551
3 552 553 554
3 555 556 557
3 558 559 560
3 561 562 563
3 564 565 566
3 567 568 569
3 570 571 572
