ply
format ascii 1.0
comment Created by Blender 2.77 (sub 0) - www.blender.org, source file: ''
element vertex 354
property float x
property float y
property float z
property float nx
property float ny
property float nz
property uchar red
property uchar green
property uchar blue
element face 118
property list uchar uint vertex_indices
end_header
-0.817952 0.858689 0.205433 -0.682872 0.514025 -0.519099 0 0 0
-0.917629 0.610526 0.090821 -0.682872 0.514025 -0.519099 0 0 0
-0.985706 0.614686 0.184495 -0.682872 0.514025 -0.519099 0 0 0
-0.956735 0.620639 -0.180104 -0.131182 0.947406 -0.291912 255 140 21
-1.025402 0.590621 -0.246670 -0.131182 0.947406 -0.291912 255 140 21
-1.153666 0.641966 -0.022390 -0.131182 0.947406 -0.291912 254 139 21
-0.971693 0.163564 -0.196199 -0.176726 -0.418132 -0.891029 255 140 21
-1.234399 0.316235 -0.215738 -0.176726 -0.418132 -0.891029 254 140 21
-0.973113 0.355199 -0.285846 -0.176726 -0.418132 -0.891029 255 140 21
-0.971693 0.163564 -0.196199 -0.028773 -0.772775 -0.634028 255 140 21
-1.043819 -0.004156 0.011497 -0.028773 -0.772775 -0.634028 255 140 21
-1.221337 0.113553 -0.123915 -0.028773 -0.772775 -0.634028 255 140 21
-1.234399 0.316235 -0.215738 -0.473059 0.265624 -0.840035 254 140 21
-1.243946 0.561329 -0.132861 -0.473059 0.265624 -0.840035 255 140 21
-1.025402 0.590621 -0.246670 -0.473059 0.265624 -0.840035 255 140 21
-1.285730 0.576812 -0.091193 -0.168680 0.856687 -0.487477 255 140 21
-1.153666 0.641966 -0.022390 -0.168680 0.856687 -0.487477 254 139 21
-1.243946 0.561329 -0.132861 -0.168680 0.856687 -0.487477 255 140 21
-1.153666 0.641966 -0.022390 -0.402196 0.911047 -0.090730 254 139 21
-1.285730 0.576812 -0.091193 -0.402196 0.911047 -0.090730 255 140 21
-1.205142 0.640815 0.194248 -0.402196 0.911047 -0.090730 254 140 21
-1.221337 0.113553 -0.123915 -0.739597 -0.316714 -0.593876 255 140 21
-1.394702 0.192425 0.049928 -0.739597 -0.316714 -0.593876 255 140 21
-1.234399 0.316235 -0.215738 -0.739597 -0.316714 -0.593876 254 140 21
-1.151204 0.001902 0.071319 -0.586501 -0.775728 -0.232944 255 140 20
-1.394702 0.192425 0.049928 -0.586501 -0.775728 -0.232944 255 140 21
-1.221337 0.113553 -0.123915 -0.586501 -0.775728 -0.232944 255 140 21
-1.400646 0.239780 0.241138 -0.795816 -0.559675 -0.231174 255 140 21
-1.196509 -0.007936 0.138120 -0.795816 -0.559675 -0.231174 255 140 21
-1.220719 -0.017404 0.244383 -0.795816 -0.559675 -0.231174 254 140 21
-1.395328 0.529586 0.242012 -0.999195 0.018443 -0.035627 255 140 21
-1.394702 0.192425 0.049928 -0.999195 0.018443 -0.035627 255 140 21
-1.400646 0.239780 0.241138 -0.999195 0.018443 -0.035627 255 140 21
-1.205142 0.640815 0.194248 0.119650 0.992244 0.033698 254 140 21
-0.985706 0.614686 0.184495 0.119650 0.992244 0.033698 255 140 21
-1.153666 0.641966 -0.022390 0.119650 0.992244 0.033698 254 139 21
-0.973113 0.355199 -0.285846 -0.568662 0.334459 -0.751506 255 140 21
-0.956735 0.620639 -0.180104 -0.568662 0.334459 -0.751506 255 140 21
-0.889281 0.593997 -0.243004 -0.568662 0.334459 -0.751506 255 140 21
-0.917629 0.610526 0.090821 -0.219776 0.973174 0.068048 254 140 20
-0.737866 0.662747 -0.075417 -0.219776 0.973174 0.068048 254 140 20
-0.956735 0.620639 -0.180104 -0.219776 0.973174 0.068048 255 140 21
-0.889281 0.593997 -0.243004 0.006226 0.923171 -0.384339 255 140 21
-0.956735 0.620639 -0.180104 0.006226 0.923171 -0.384339 255 140 21
-0.737866 0.662747 -0.075417 0.006226 0.923171 -0.384339 254 140 20
-0.687178 0.186165 -0.157394 0.264255 -0.258978 -0.929032 254 140 20
-0.973113 0.355199 -0.285846 0.264255 -0.258978 -0.929032 255 140 21
-0.785105 0.484620 -0.268446 0.264255 -0.258978 -0.929032 255 140 21
-0.844793 -0.009609 -0.028474 0.153965 -0.626891 -0.763743 255 140 21
-0.971693 0.163564 -0.196199 0.153965 -0.626891 -0.763743 255 140 21
-0.687178 0.186165 -0.157394 0.153965 -0.626891 -0.763743 254 140 20
-0.687178 0.186165 -0.157394 0.660390 -0.061781 -0.748377 254 140 20
-0.785105 0.484620 -0.268446 0.660390 -0.061781 -0.748377 255 140 21
-0.660053 0.592949 -0.167040 0.660390 -0.061781 -0.748377 255 140 21
-0.687178 0.186165 -0.157394 0.652854 0.087712 -0.752389 254 140 20
-0.461251 0.593893 0.086177 0.652854 0.087712 -0.752389 255 140 21
-0.537902 0.222015 -0.023686 0.652854 0.087712 -0.752389 255 140 21
-0.593042 0.681621 0.109507 0.349317 0.864341 -0.361791 255 140 21
-0.660053 0.592949 -0.167040 0.349317 0.864341 -0.361791 255 140 21
-0.737866 0.662747 -0.075417 0.349317 0.864341 -0.361791 254 140 20
-0.738584 0.005739 -0.003416 0.615099 -0.616784 -0.491153 255 140 21
-0.537902 0.222015 -0.023686 0.615099 -0.616784 -0.491153 255 140 21
-0.684185 0.003648 0.067338 0.615099 -0.616784 -0.491153 255 140 21
-0.530060 0.182233 0.176078 0.791676 -0.592477 -0.149067 255 140 21
-0.684185 0.003648 0.067338 0.791676 -0.592477 -0.149067 255 140 21
-0.537902 0.222015 -0.023686 0.791676 -0.592477 -0.149067 255 140 21
-0.660053 0.592949 -0.167040 0.468296 0.802069 -0.370654 255 140 21
-0.593042 0.681621 0.109507 0.468296 0.802069 -0.370654 255 140 21
-0.461251 0.593893 0.086177 0.468296 0.802069 -0.370654 255 140 21
-0.961057 0.541720 0.678007 0.556038 0.251629 0.792152 255 140 21
-0.918079 0.367942 0.703041 0.556038 0.251629 0.792152 255 140 21
-0.904410 0.620823 0.613117 0.556038 0.251629 0.792152 255 140 21
-0.904410 0.620823 0.613117 -0.076335 0.952865 0.293636 255 140 21
-0.891488 0.675052 0.440502 -0.076335 0.952865 0.293636 254 139 21
-1.104789 0.659159 0.436626 -0.076335 0.952865 0.293636 255 140 21
-1.057503 0.022983 0.414974 -0.160061 -0.748484 0.643547 255 140 21
-0.954336 0.171568 0.613447 -0.160061 -0.748484 0.643547 255 140 21
-1.154005 0.181910 0.575814 -0.160061 -0.748484 0.643547 255 140 21
-1.245044 0.335360 0.593911 -0.364603 0.125768 0.922631 255 140 21
-0.961057 0.541720 0.678007 -0.364603 0.125768 0.922631 255 140 21
-1.248823 0.544848 0.563862 -0.364603 0.125768 0.922631 255 140 21
-0.891488 0.675052 0.440502 -0.069507 0.979252 -0.190352 254 139 21
-1.097022 0.647854 0.375633 -0.069507 0.979252 -0.190352 255 140 21
-1.104789 0.659159 0.436626 -0.069507 0.979252 -0.190352 255 140 21
-1.248823 0.544848 0.563862 -0.251042 0.715015 0.652481 255 140 21
-0.961057 0.541720 0.678007 -0.251042 0.715015 0.652481 255 140 21
-0.904410 0.620823 0.613117 -0.251042 0.715015 0.652481 255 140 21
-1.154005 0.181910 0.575814 -0.046675 -0.724409 0.687788 255 140 21
-1.119935 0.022400 0.410123 -0.046675 -0.724409 0.687788 255 140 21
-1.057503 0.022983 0.414974 -0.046675 -0.724409 0.687788 255 140 21
-1.097022 0.647854 0.375633 -0.716316 0.664056 -0.214290 255 140 21
-1.248823 0.544848 0.563862 -0.716316 0.664056 -0.214290 255 140 21
-1.104789 0.659159 0.436626 -0.716316 0.664056 -0.214290 255 140 21
-1.097022 0.647854 0.375633 0.028071 0.867184 0.497197 255 140 21
-1.314502 0.582106 0.502586 0.028071 0.867184 0.497197 255 140 21
-1.248823 0.544848 0.563862 0.028071 0.867184 0.497197 255 140 21
-1.248823 0.544848 0.563862 -0.693787 0.089980 0.714537 255 140 21
-1.389317 0.349741 0.452018 -0.693787 0.089980 0.714537 255 140 21
-1.245044 0.335360 0.593911 -0.693787 0.089980 0.714537 255 140 21
-1.119935 0.022400 0.410123 -0.574155 -0.550104 0.606409 255 140 21
-1.389317 0.349741 0.452018 -0.574155 -0.550104 0.606409 255 140 21
-1.180312 0.002888 0.335257 -0.574155 -0.550104 0.606409 255 140 21
-1.400646 0.239780 0.241138 -0.752527 -0.566501 0.335827 255 140 21
-1.180312 0.002888 0.335257 -0.752527 -0.566501 0.335827 255 140 21
-1.389317 0.349741 0.452018 -0.752527 -0.566501 0.335827 255 140 21
-1.395328 0.529586 0.242012 -0.937968 0.249630 0.240627 255 140 21
-1.389317 0.349741 0.452018 -0.937968 0.249630 0.240627 255 140 21
-1.314502 0.582106 0.502586 -0.937968 0.249630 0.240627 255 140 21
-1.314502 0.582106 0.502586 -0.507789 0.861331 -0.016099 255 140 21
-1.205142 0.640815 0.194248 -0.507789 0.861331 -0.016099 254 140 21
-1.395328 0.529586 0.242012 -0.507789 0.861331 -0.016099 255 140 21
-0.904410 0.620823 0.613117 -0.256696 0.336104 0.906168 255 140 21
-0.918079 0.367942 0.703041 -0.256696 0.336104 0.906168 255 140 21
-0.799545 0.605128 0.648645 -0.256696 0.336104 0.906168 255 140 21
-0.891488 0.675052 0.440502 -0.124917 0.973410 -0.192014 254 139 21
-0.657938 0.693379 0.381473 -0.124917 0.973410 -0.192014 254 140 20
-0.845457 0.633035 0.197549 -0.124917 0.973410 -0.192014 255 140 21
-0.891488 0.675052 0.440502 0.005492 0.948655 0.316266 254 139 21
-0.799545 0.605128 0.648645 0.005492 0.948655 0.316266 255 140 21
-0.657938 0.693379 0.381473 0.005492 0.948655 0.316266 254 140 20
-0.918079 0.367942 0.703041 0.265460 -0.332239 0.905068 255 140 21
-0.710013 0.158329 0.565068 0.265460 -0.332239 0.905068 255 140 21
-0.668894 0.368360 0.630107 0.265460 -0.332239 0.905068 255 140 21
-0.954336 0.171568 0.613447 0.106932 -0.679398 0.725937 255 140 21
-0.875228 -0.008604 0.433173 0.106932 -0.679398 0.725937 255 140 21
-0.710013 0.158329 0.565068 0.106932 -0.679398 0.725937 255 140 21
-0.799545 0.605128 0.648645 0.566275 0.251010 0.785065 255 140 21
-0.668894 0.368360 0.630107 0.566275 0.251010 0.785065 255 140 21
-0.581874 0.614933 0.488502 0.566275 0.251010 0.785065 255 140 21
-0.499839 0.228868 0.371974 0.840133 0.014872 0.542177 255 140 21
-0.581874 0.614933 0.488502 0.840133 0.014872 0.542177 255 140 21
-0.668894 0.368360 0.630107 0.840133 0.014872 0.542177 255 140 21
-0.845457 0.633035 0.197549 -0.219836 0.970955 -0.094435 255 140 21
-0.657938 0.693379 0.381473 -0.219836 0.970955 -0.094435 254 140 20
-0.593042 0.681621 0.109507 -0.219836 0.970955 -0.094435 255 140 21
-0.657938 0.693379 0.381473 0.388310 0.920010 0.052884 254 140 20
-0.474614 0.620526 0.302790 0.388310 0.920010 0.052884 255 140 21
-0.593042 0.681621 0.109507 0.388310 0.920010 0.052884 255 140 21
-0.499839 0.228868 0.371974 0.696096 -0.333208 0.635942 255 140 21
-0.668894 0.368360 0.630107 0.696096 -0.333208 0.635942 255 140 21
-0.710013 0.158329 0.565068 0.696096 -0.333208 0.635942 255 140 21
-0.694265 0.002363 0.302360 0.518307 -0.721366 0.459335 255 140 21
-0.710013 0.158329 0.565068 0.518307 -0.721366 0.459335 255 140 21
-0.761842 0.001042 0.376538 0.518307 -0.721366 0.459335 254 140 21
-0.660273 0.007235 0.188485 0.716814 -0.672216 0.185212 255 140 21
-0.499839 0.228868 0.371974 0.716814 -0.672216 0.185212 255 140 21
-0.694265 0.002363 0.302360 0.716814 -0.672216 0.185212 255 140 21
-0.436390 0.482038 0.142805 0.968686 -0.018655 0.247589 255 140 21
-0.474614 0.620526 0.302790 0.968686 -0.018655 0.247589 255 140 21
-0.499839 0.228868 0.371974 0.968686 -0.018655 0.247589 255 140 21
-0.461251 0.593893 0.086177 0.544275 0.836047 -0.069219 255 140 21
-0.593042 0.681621 0.109507 0.544275 0.836047 -0.069219 255 140 21
-0.474614 0.620526 0.302790 0.544275 0.836047 -0.069219 255 140 21
-1.097022 0.647854 0.375633 -0.105264 0.967666 -0.229222 0 0 0
-0.845457 0.633035 0.197549 -0.105264 0.967666 -0.229222 0 0 0
-0.985706 0.614686 0.184495 -0.105264 0.967666 -0.229222 0 0 0
-0.845457 0.633035 0.197549 -0.089555 -0.023872 0.995696 0 0 0
-0.817952 0.858689 0.205433 -0.089555 -0.023872 0.995696 0 0 0
-0.985706 0.614686 0.184495 -0.089555 -0.023872 0.995696 0 0 0
-0.802149 0.822290 0.208708 0.396122 -0.911362 -0.111832 0 0 0
-0.545403 0.939204 0.165358 0.396122 -0.911362 -0.111832 0 0 0
-0.797880 0.822573 0.221524 0.396122 -0.911362 -0.111832 0 0 0
-0.802149 0.822290 0.208708 0.833062 -0.159398 -0.529716 0 0 0
-0.845457 0.633035 0.197549 0.833062 -0.159398 -0.529716 0 0 0
-0.917629 0.610526 0.090821 0.833062 -0.159398 -0.529716 0 0 0
-0.224522 0.781950 -0.117882 -0.514649 -0.843786 -0.152191 0 0 0
-0.537385 0.923577 0.154880 -0.514649 -0.843786 -0.152191 0 0 0
-0.558069 0.939816 0.134792 -0.514649 -0.843786 -0.152191 0 0 0
-0.558069 0.939816 0.134792 -0.380337 0.907989 0.175785 0 0 0
-0.797880 0.822573 0.221524 -0.380337 0.907989 0.175785 0 0 0
-0.545403 0.939204 0.165358 -0.380337 0.907989 0.175785 0 0 0
-0.537385 0.923577 0.154880 0.579356 -0.227528 0.782674 0 0 0
-0.224522 0.781950 -0.117882 0.579356 -0.227528 0.782674 0 0 0
-0.545403 0.939204 0.165358 0.579356 -0.227528 0.782674 0 0 0
-0.973113 0.355199 -0.285846 0.611043 0.260129 -0.747636 255 140 21
-1.025402 0.590621 -0.246670 0.611043 0.260129 -0.747636 255 140 21
-0.956735 0.620639 -0.180104 0.611043 0.260129 -0.747636 255 140 21
-0.985706 0.614686 0.184495 0.113731 0.992763 0.038572 0 0 0
-0.917629 0.610526 0.090821 0.113731 0.992763 0.038572 0 0 0
-1.153666 0.641966 -0.022390 0.113731 0.992763 0.038572 0 0 0
-0.558069 0.939816 0.134792 -0.206571 -0.176291 -0.962419 0 0 0
-0.802149 0.822290 0.208708 -0.206571 -0.176291 -0.962419 0 0 0
-0.817952 0.858689 0.205433 -0.206571 -0.176291 -0.962419 0 0 0
-0.817952 0.858689 0.205433 0.543696 0.161952 -0.823509 0 0 0
-0.802149 0.822290 0.208708 0.543696 0.161952 -0.823509 0 0 0
-0.917629 0.610526 0.090821 0.543696 0.161952 -0.823509 0 0 0
-0.973113 0.355199 -0.285846 -0.271623 0.098973 -0.957301 255 140 21
-1.234399 0.316235 -0.215738 -0.271623 0.098973 -0.957301 254 140 21
-1.025402 0.590621 -0.246670 -0.271623 0.098973 -0.957301 255 140 21
-0.917629 0.610526 0.090821 0.122906 0.992231 0.019294 254 140 20
-0.956735 0.620639 -0.180104 0.122906 0.992231 0.019294 255 140 21
-1.153666 0.641966 -0.022390 0.122906 0.992231 0.019294 254 139 21
-0.971693 0.163564 -0.196199 -0.175162 -0.415630 -0.892508 255 140 21
-1.221337 0.113553 -0.123915 -0.175162 -0.415630 -0.892508 255 140 21
-1.234399 0.316235 -0.215738 -0.175162 -0.415630 -0.892508 254 140 21
-0.971693 0.163564 -0.196199 -0.164925 -0.738572 -0.653690 255 140 21
-0.942284 -0.005361 -0.012759 -0.164925 -0.738572 -0.653690 255 140 21
-1.043819 -0.004156 0.011497 -0.164925 -0.738572 -0.653690 255 140 21
-1.025402 0.590621 -0.246670 -0.313980 0.870563 -0.378862 255 140 21
-1.243946 0.561329 -0.132861 -0.313980 0.870563 -0.378862 255 140 21
-1.153666 0.641966 -0.022390 -0.313980 0.870563 -0.378862 254 139 21
-1.043819 -0.004156 0.011497 -0.273117 -0.874069 -0.401759 255 140 21
-1.151204 0.001902 0.071319 -0.273117 -0.874069 -0.401759 255 140 20
-1.221337 0.113553 -0.123915 -0.273117 -0.874069 -0.401759 255 140 21
-1.234399 0.316235 -0.215738 -0.646107 0.221782 -0.730314 254 140 21
-1.285730 0.576812 -0.091193 -0.646107 0.221782 -0.730314 255 140 21
-1.243946 0.561329 -0.132861 -0.646107 0.221782 -0.730314 255 140 21
-1.234399 0.316235 -0.215738 -0.867484 0.064852 -0.493220 254 140 21
-1.394702 0.192425 0.049928 -0.867484 0.064852 -0.493220 255 140 21
-1.285730 0.576812 -0.091193 -0.867484 0.064852 -0.493220 255 140 21
-1.151204 0.001902 0.071319 -0.521843 -0.718556 -0.459735 255 140 20
-1.196509 -0.007936 0.138120 -0.521843 -0.718556 -0.459735 255 140 21
-1.394702 0.192425 0.049928 -0.521843 -0.718556 -0.459735 255 140 21
-1.400646 0.239780 0.241138 -0.734237 -0.663960 0.141610 255 140 21
-1.394702 0.192425 0.049928 -0.734237 -0.663960 0.141610 255 140 21
-1.196509 -0.007936 0.138120 -0.734237 -0.663960 0.141610 255 140 21
-1.395328 0.529586 0.242012 -0.943965 0.162053 -0.287521 255 140 21
-1.285730 0.576812 -0.091193 -0.943965 0.162053 -0.287521 255 140 21
-1.394702 0.192425 0.049928 -0.943965 0.162053 -0.287521 255 140 21
-1.285730 0.576812 -0.091193 -0.513105 0.857021 -0.047303 255 140 21
-1.395328 0.529586 0.242012 -0.513105 0.857021 -0.047303 255 140 21
-1.205142 0.640815 0.194248 -0.513105 0.857021 -0.047303 254 140 21
-0.785105 0.484620 -0.268446 -0.040037 0.190046 -0.980959 255 140 21
-0.973113 0.355199 -0.285846 -0.040037 0.190046 -0.980959 255 140 21
-0.889281 0.593997 -0.243004 -0.040037 0.190046 -0.980959 255 140 21
-0.687178 0.186165 -0.157394 0.155278 -0.417644 -0.895244 254 140 20
-0.971693 0.163564 -0.196199 0.155278 -0.417644 -0.895244 255 140 21
-0.973113 0.355199 -0.285846 0.155278 -0.417644 -0.895244 255 140 21
-0.844793 -0.009609 -0.028474 -0.138416 -0.739489 -0.658784 255 140 21
-0.942284 -0.005361 -0.012759 -0.138416 -0.739489 -0.658784 255 140 21
-0.971693 0.163564 -0.196199 -0.138416 -0.739489 -0.658784 255 140 21
-0.737866 0.662747 -0.075417 0.170125 0.848173 -0.501656 254 140 20
-0.660053 0.592949 -0.167040 0.170125 0.848173 -0.501656 255 140 21
-0.889281 0.593997 -0.243004 0.170125 0.848173 -0.501656 255 140 21
-0.660053 0.592949 -0.167040 0.280736 0.462952 -0.840751 255 140 21
-0.785105 0.484620 -0.268446 0.280736 0.462952 -0.840751 255 140 21
-0.889281 0.593997 -0.243004 0.280736 0.462952 -0.840751 255 140 21
-0.738584 0.005739 -0.003416 0.260912 -0.668607 -0.696341 255 140 21
-0.844793 -0.009609 -0.028474 0.260912 -0.668607 -0.696341 255 140 21
-0.687178 0.186165 -0.157394 0.260912 -0.668607 -0.696341 254 140 20
-0.687178 0.186165 -0.157394 0.784907 -0.066945 -0.615987 254 140 20
-0.660053 0.592949 -0.167040 0.784907 -0.066945 -0.615987 255 140 21
-0.461251 0.593893 0.086177 0.784907 -0.066945 -0.615987 255 140 21
-0.738584 0.005739 -0.003416 0.605132 -0.609506 -0.512169 255 140 21
-0.687178 0.186165 -0.157394 0.605132 -0.609506 -0.512169 254 140 20
-0.537902 0.222015 -0.023686 0.605132 -0.609506 -0.512169 255 140 21
-0.530060 0.182233 0.176078 0.789856 -0.597517 -0.138210 255 140 21
-0.660273 0.007235 0.188485 0.789856 -0.597517 -0.138210 255 140 21
-0.684185 0.003648 0.067338 0.789856 -0.597517 -0.138210 255 140 21
-0.436390 0.482038 0.142805 0.946724 -0.306694 -0.098243 255 140 21
-0.530060 0.182233 0.176078 0.946724 -0.306694 -0.098243 255 140 21
-0.537902 0.222015 -0.023686 0.946724 -0.306694 -0.098243 255 140 21
-0.461251 0.593893 0.086177 0.881183 -0.042523 -0.470860 255 140 21
-0.436390 0.482038 0.142805 0.881183 -0.042523 -0.470860 255 140 21
-0.537902 0.222015 -0.023686 0.881183 -0.042523 -0.470860 255 140 21
-0.593042 0.681621 0.109507 -0.176219 0.983632 0.037610 255 140 21
-0.737866 0.662747 -0.075417 -0.176219 0.983632 0.037610 254 140 20
-0.845457 0.633035 0.197549 -0.176219 0.983632 0.037610 255 140 21
-0.918079 0.367942 0.703041 -0.190338 -0.378189 0.905949 255 140 21
-1.154005 0.181910 0.575814 -0.190338 -0.378189 0.905949 255 140 21
-0.954336 0.171568 0.613447 -0.190338 -0.378189 0.905949 255 140 21
-1.057503 0.022983 0.414974 -0.265711 -0.700390 0.662459 255 140 21
-0.968902 0.008311 0.435000 -0.265711 -0.700390 0.662459 255 140 21
-0.954336 0.171568 0.613447 -0.265711 -0.700390 0.662459 255 140 21
-1.245044 0.335360 0.593911 -0.321170 0.056750 0.945320 255 140 21
-0.918079 0.367942 0.703041 -0.321170 0.056750 0.945320 255 140 21
-0.961057 0.541720 0.678007 -0.321170 0.056750 0.945320 255 140 21
-1.104789 0.659159 0.436626 -0.253740 0.844558 0.471527 255 140 21
-1.248823 0.544848 0.563862 -0.253740 0.844558 0.471527 255 140 21
-0.904410 0.620823 0.613117 -0.253740 0.844558 0.471527 255 140 21
-1.154005 0.181910 0.575814 -0.279720 -0.274456 0.920017 255 140 21
-0.918079 0.367942 0.703041 -0.279720 -0.274456 0.920017 255 140 21
-1.245044 0.335360 0.593911 -0.279720 -0.274456 0.920017 255 140 21
-1.154005 0.181910 0.575814 -0.795033 -0.510344 0.327828 255 140 21
-1.245044 0.335360 0.593911 -0.795033 -0.510344 0.327828 255 140 21
-1.119935 0.022400 0.410123 -0.795033 -0.510344 0.327828 255 140 21
-1.248823 0.544848 0.563862 -0.665279 0.052119 0.744773 255 140 21
-1.314502 0.582106 0.502586 -0.665279 0.052119 0.744773 255 140 21
-1.389317 0.349741 0.452018 -0.665279 0.052119 0.744773 255 140 21
-1.097022 0.647854 0.375633 -0.233158 0.967132 0.101452 255 140 21
-1.205142 0.640815 0.194248 -0.233158 0.967132 0.101452 254 140 21
-1.314502 0.582106 0.502586 -0.233158 0.967132 0.101452 255 140 21
-1.119935 0.022400 0.410123 -0.604762 -0.568998 0.557229 255 140 21
-1.245044 0.335360 0.593911 -0.604762 -0.568998 0.557229 255 140 21
-1.389317 0.349741 0.452018 -0.604762 -0.568998 0.557229 255 140 21
-1.400646 0.239780 0.241138 -0.737623 -0.510468 0.441967 255 140 21
-1.220719 -0.017404 0.244383 -0.737623 -0.510468 0.441967 254 140 21
-1.180312 0.002888 0.335257 -0.737623 -0.510468 0.441967 255 140 21
-1.395328 0.529586 0.242012 -0.998858 0.018196 0.044174 255 140 21
-1.400646 0.239780 0.241138 -0.998858 0.018196 0.044174 255 140 21
-1.389317 0.349741 0.452018 -0.998858 0.018196 0.044174 255 140 21
-1.205142 0.640815 0.194248 0.112947 0.987967 -0.105662 254 140 21
-1.097022 0.647854 0.375633 0.112947 0.987967 -0.105662 255 140 21
-0.985706 0.614686 0.184495 0.112947 0.987967 -0.105662 255 140 21
-0.891488 0.675052 0.440502 0.040159 0.952395 0.302209 254 139 21
-0.904410 0.620823 0.613117 0.040159 0.952395 0.302209 255 140 21
-0.799545 0.605128 0.648645 0.040159 0.952395 0.302209 255 140 21
-0.799545 0.605128 0.648645 0.279891 0.079540 0.956731 255 140 21
-0.918079 0.367942 0.703041 0.279891 0.079540 0.956731 255 140 21
-0.668894 0.368360 0.630107 0.279891 0.079540 0.956731 255 140 21
-0.918079 0.367942 0.703041 0.152398 -0.433384 0.888230 255 140 21
-0.954336 0.171568 0.613447 0.152398 -0.433384 0.888230 255 140 21
-0.710013 0.158329 0.565068 0.152398 -0.433384 0.888230 255 140 21
-0.954336 0.171568 0.613447 -0.118250 -0.727810 0.675507 255 140 21
-0.968902 0.008311 0.435000 -0.118250 -0.727810 0.675507 255 140 21
-0.875228 -0.008604 0.433173 -0.118250 -0.727810 0.675507 255 140 21
-0.657938 0.693379 0.381473 0.278514 0.858240 0.431109 254 140 20
-0.799545 0.605128 0.648645 0.278514 0.858240 0.431109 255 140 21
-0.581874 0.614933 0.488502 0.278514 0.858240 0.431109 255 140 21
-0.710013 0.158329 0.565068 0.338087 -0.766286 0.546355 255 140 21
-0.875228 -0.008604 0.433173 0.338087 -0.766286 0.546355 255 140 21
-0.761842 0.001042 0.376538 0.338087 -0.766286 0.546355 254 140 21
-0.499839 0.228868 0.371974 0.865055 0.032714 0.500610 255 140 21
-0.474614 0.620526 0.302790 0.865055 0.032714 0.500610 255 140 21
-0.581874 0.614933 0.488502 0.865055 0.032714 0.500610 255 140 21
-0.657938 0.693379 0.381473 0.458344 0.840122 0.290027 254 140 20
-0.581874 0.614933 0.488502 0.458344 0.840122 0.290027 255 140 21
-0.474614 0.620526 0.302790 0.458344 0.840122 0.290027 255 140 21
-0.694265 0.002363 0.302360 0.615976 -0.660623 0.429127 255 140 21
-0.499839 0.228868 0.371974 0.615976 -0.660623 0.429127 255 140 21
-0.710013 0.158329 0.565068 0.615976 -0.660623 0.429127 255 140 21
-0.660273 0.007235 0.188485 0.802755 -0.596036 0.018054 255 140 21
-0.530060 0.182233 0.176078 0.802755 -0.596036 0.018054 255 140 21
-0.499839 0.228868 0.371974 0.802755 -0.596036 0.018054 255 140 21
-0.530060 0.182233 0.176078 0.949523 -0.304867 -0.073904 255 140 21
-0.436390 0.482038 0.142805 0.949523 -0.304867 -0.073904 255 140 21
-0.499839 0.228868 0.371974 0.949523 -0.304867 -0.073904 255 140 21
-0.474614 0.620526 0.302790 0.972205 0.232007 0.031449 255 140 21
-0.436390 0.482038 0.142805 0.972205 0.232007 0.031449 255 140 21
-0.461251 0.593893 0.086177 0.972205 0.232007 0.031449 255 140 21
-0.737866 0.662747 -0.075417 -0.286212 0.958128 -0.008520 0 0 0
-0.917629 0.610526 0.090821 -0.286212 0.958128 -0.008520 0 0 0
-0.845457 0.633035 0.197549 -0.286212 0.958128 -0.008520 0 0 0
-1.097022 0.647854 0.375633 -0.071925 0.980443 -0.183190 0 0 0
-0.891488 0.675052 0.440502 -0.071925 0.980443 -0.183190 0 0 0
-0.845457 0.633035 0.197549 -0.071925 0.980443 -0.183190 0 0 0
-0.845457 0.633035 0.197549 -0.577884 0.041962 0.815039 0 0 0
-0.797880 0.822573 0.221524 -0.577884 0.041962 0.815039 0 0 0
-0.817952 0.858689 0.205433 -0.577884 0.041962 0.815039 0 0 0
-0.802149 0.822290 0.208708 0.328178 -0.404105 0.853814 0 0 0
-0.537385 0.923577 0.154880 0.328178 -0.404105 0.853814 0 0 0
-0.545403 0.939204 0.165358 0.328178 -0.404105 0.853814 0 0 0
-0.802149 0.822290 0.208708 0.931787 -0.195177 -0.306070 0 0 0
-0.797880 0.822573 0.221524 0.931787 -0.195177 -0.306070 0 0 0
-0.845457 0.633035 0.197549 0.931787 -0.195177 -0.306070 0 0 0
-0.558069 0.939816 0.134792 0.100319 0.450911 0.886913 0 0 0
-0.817952 0.858689 0.205433 0.100319 0.450911 0.886913 0 0 0
-0.797880 0.822573 0.221524 0.100319 0.450911 0.886913 0 0 0
-0.558069 0.939816 0.134792 0.345745 0.930013 -0.124649 0 0 0
-0.545403 0.939204 0.165358 0.345745 0.930013 -0.124649 0 0 0
-0.224522 0.781950 -0.117882 0.345745 0.930013 -0.124649 0 0 0
-0.558069 0.939816 0.134792 0.126922 -0.703433 -0.699337 0 0 0
-0.537385 0.923577 0.154880 0.126922 -0.703433 -0.699337 0 0 0
-0.802149 0.822290 0.208708 0.126922 -0.703433 -0.699337 0 0 0
3 0 1 2
3 3 4 5
3 6 7 8
3 9 10 11
3 12 13 14
3 15 16 17
3 18 19 20
3 21 22 23
3 24 25 26
3 27 28 29
3 30 31 32
3 33 34 35
3 36 37 38
3 39 40 41
3 42 43 44
3 45 46 47
3 48 49 50
3 51 52 53
3 54 55 56
3 57 58 59
3 60 61 62
3 63 64 65
3 66 67 68
3 69 70 71
3 72 73 74
3 75 76 77
3 78 79 80
3 81 82 83
3 84 85 86
3 87 88 89
3 90 91 92
3 93 94 95
3 96 97 98
3 99 100 101
3 102 103 104
3 105 106 107
3 108 109 110
3 111 112 113
3 114 115 116
3 117 118 119
3 120 121 122
3 123 124 125
3 126 127 128
3 129 130 131
3 132 133 134
3 135 136 137
3 138 139 140
3 141 142 143
3 144 145 146
3 147 148 149
3 150 151 152
3 153 154 155
3 156 157 158
3 159 160 161
3 162 163 164
3 165 166 167
3 168 169 170
3 171 172 173
3 174 175 176
3 177 178 179
3 180 181 182
3 183 184 185
3 186 187 188
3 189 190 191
3 192 193 194
3 195 196 197
3 198 199 200
3 201 202 203
3 204 205 206
3 207 208 209
3 210 211 212
3 213 214 215
3 216 217 218
3 219 220 221
3 222 223 224
3 225 226 227
3 228 229 230
3 231 232 233
3 234 235 236
3 237 238 239
3 240 241 242
3 243 244 245
3 246 247 248
3 249 250 251
3 252 253 254
3 255 256 257
3 258 259 260
3 261 262 263
3 264 265 266
3 267 268 269
3 270 271 272
3 273 274 275
3 276 277 278
3 279 280 281
3 282 283 284
3 285 286 287
3 288 289 290
3 291 292 293
3 294 295 296
3 297 298 299
3 300 301 302
3 303 304 305
3 306 307 308
3 309 310 311
3 312 313 314
3 315 316 317
3 318 319 320
3 321 322 323
3 324 325 326
3 327 328 329
3 330 331 332
3 333 334 335
3 336 337 338
3 339 340 341
3 342 343 344
3 345 346 347
3 348 349 350
3 351 352 353
