ply
format ascii 1.0
comment Created by Blender 2.77 (sub 0) - www.blender.org, source file: ''
element vertex 426
property float x
property float y
property float z
property float nx
property float ny
property float nz
property uchar red
property uchar green
property uchar blue
element face 142
property list uchar uint vertex_indices
end_header
-0.426899 1.938429 0.462053 -0.240816 -0.316538 -0.917503 231 160 0
-0.414235 1.968131 0.448482 -0.240816 -0.316538 -0.917503 231 160 0
-0.402466 1.950212 0.451575 -0.240816 -0.316538 -0.917503 231 160 0
-0.414235 1.968131 0.448482 0.240816 0.316538 0.917503 231 160 0
-0.426899 1.938429 0.462053 0.240816 0.316538 0.917503 231 160 0
-0.402466 1.950212 0.451575 0.240816 0.316538 0.917503 231 160 0
-0.235750 2.117710 0.397509 0.326131 -0.112178 -0.938645 231 160 0
-0.204898 2.166517 0.402395 0.326131 -0.112178 -0.938645 231 160 0
-0.146683 2.153042 0.424232 0.326131 -0.112178 -0.938645 231 160 0
-0.073316 2.108166 0.456195 0.730210 -0.349853 -0.586852 231 160 0
-0.033717 2.152724 0.478904 0.730210 -0.349853 -0.586852 231 160 0
-0.047056 2.117343 0.483399 0.730210 -0.349853 -0.586852 231 160 0
-0.073316 2.108166 0.456195 -0.569310 0.089442 0.817243 231 160 0
-0.033717 2.152724 0.478904 -0.569310 0.089442 0.817243 231 160 0
-0.092630 2.162451 0.436799 -0.569310 0.089442 0.817243 231 160 0
0.025470 2.212578 0.489132 0.584246 -0.279749 -0.761838 231 160 0
0.059613 2.220579 0.512378 0.584246 -0.279749 -0.761838 231 160 0
0.057709 2.170952 0.529140 0.584246 -0.279749 -0.761838 231 160 0
0.032194 2.042564 0.549059 -0.861504 0.115719 0.494389 231 160 0
0.033635 2.089025 0.540695 -0.861504 0.115719 0.494389 231 160 0
0.014851 2.119896 0.500736 -0.861504 0.115719 0.494389 230 160 0
0.107315 2.064270 0.630243 0.832821 -0.245325 -0.496211 231 160 0
0.113025 2.034771 0.654410 0.832821 -0.245325 -0.496211 231 160 0
0.100397 2.041840 0.629722 0.832821 -0.245325 -0.496211 231 160 0
0.022503 1.920202 0.623508 -0.659568 0.655359 0.368069 231 160 0
0.058111 1.948524 0.636890 -0.659568 0.655359 0.368069 230 160 0
0.079380 1.986526 0.607338 -0.659568 0.655359 0.368069 231 160 0
0.026929 1.871242 0.716484 0.755640 -0.590039 -0.284361 231 160 0
0.008019 1.846551 0.717465 0.755640 -0.590039 -0.284361 231 160 0
0.009583 1.855678 0.702682 0.755640 -0.590039 -0.284361 231 159 0
-0.083565 1.828049 0.622917 -0.357143 0.795748 0.489116 231 160 0
-0.043497 1.818586 0.667568 -0.357143 0.795748 0.489116 231 160 0
0.003181 1.841133 0.664970 -0.357143 0.795748 0.489116 231 160 0
-0.140079 1.751343 0.701317 0.329362 -0.908127 -0.258508 231 160 0
-0.167222 1.739376 0.708773 0.329362 -0.908127 -0.258508 231 160 0
-0.210548 1.731247 0.682129 0.329362 -0.908127 -0.258508 231 160 0
-0.164696 1.785172 0.611443 0.005329 -0.861027 -0.508531 231 160 0
-0.216461 1.793050 0.597561 0.005329 -0.861027 -0.508531 231 160 0
-0.236176 1.814106 0.561703 0.005329 -0.861027 -0.508531 231 160 0
-0.278230 1.879438 0.484191 0.015391 -0.140195 -0.990004 231 160 0
-0.347786 1.887246 0.482004 0.015391 -0.140195 -0.990004 231 160 0
-0.303298 1.907856 0.479777 0.015391 -0.140195 -0.990004 231 160 0
-0.278230 1.879438 0.484191 0.026440 0.480998 0.876323 231 160 0
-0.347786 1.887246 0.482004 0.026440 0.480998 0.876323 231 160 0
-0.320407 1.830025 0.512586 0.026440 0.480998 0.876323 230 160 0
-0.264115 2.015812 0.439514 0.258949 -0.366818 -0.893527 231 160 0
-0.294128 2.066062 0.410187 0.258949 -0.366818 -0.893527 231 160 0
-0.258584 2.048489 0.427702 0.258949 -0.366818 -0.893527 231 160 0
-0.264115 2.015812 0.439514 -0.110162 0.451090 0.885654 231 160 0
-0.294128 2.066062 0.410187 -0.110162 0.451090 0.885654 231 160 0
-0.330542 2.010552 0.433930 -0.110162 0.451090 0.885654 230 159 0
0.057709 2.170952 0.529140 -0.584246 0.279749 0.761838 231 160 0
0.059613 2.220579 0.512378 -0.584246 0.279749 0.761838 231 160 0
0.025470 2.212578 0.489132 -0.584246 0.279749 0.761838 231 160 0
0.079380 1.986526 0.607338 0.659568 -0.655359 -0.368069 231 160 0
0.058111 1.948524 0.636890 0.659568 -0.655359 -0.368069 230 160 0
0.022503 1.920202 0.623508 0.659568 -0.655359 -0.368069 231 160 0
0.009583 1.855678 0.702682 -0.755640 0.590039 0.284361 231 159 0
0.008019 1.846551 0.717465 -0.755640 0.590039 0.284361 231 160 0
0.026929 1.871242 0.716484 -0.755640 0.590039 0.284361 231 160 0
0.003181 1.841133 0.664970 0.357143 -0.795748 -0.489116 231 160 0
-0.043497 1.818586 0.667568 0.357143 -0.795748 -0.489116 231 160 0
-0.083565 1.828049 0.622917 0.357143 -0.795748 -0.489116 231 160 0
-0.303574 2.087280 0.399994 -0.389989 0.439610 0.809106 231 160 0
-0.300156 2.157967 0.363235 -0.389989 0.439610 0.809106 230 160 0
-0.358200 2.181992 0.322205 -0.389989 0.439610 0.809106 231 160 0
-0.303574 2.087280 0.399994 0.389989 -0.439610 -0.809106 231 160 0
-0.358200 2.181992 0.322205 0.389989 -0.439610 -0.809106 231 160 0
-0.300156 2.157967 0.363235 0.389989 -0.439610 -0.809106 230 160 0
-0.156912 2.253416 0.428166 0.254898 0.655359 -0.711007 231 160 0
-0.135347 2.249457 0.432249 0.254898 0.655359 -0.711007 231 160 0
-0.178432 2.243944 0.411721 0.254898 0.655359 -0.711007 231 160 0
0.014851 2.119896 0.500736 0.861504 -0.115719 -0.494389 230 160 0
0.033635 2.089025 0.540695 0.861504 -0.115719 -0.494389 231 160 0
0.032194 2.042564 0.549059 0.861504 -0.115719 -0.494389 231 160 0
-0.115892 2.105317 0.529657 0.047623 0.922870 0.382155 106 60 13
0.018290 2.096159 0.535053 0.047623 0.922870 0.382155 106 60 13
-0.091297 2.144072 0.433003 0.047623 0.922870 0.382155 106 60 12
-0.075507 1.943118 0.642761 0.013287 -0.242741 0.970000 106 60 13
-0.185124 1.809172 0.610742 0.013287 -0.242741 0.970000 106 60 13
0.019786 1.902535 0.631299 0.013287 -0.242741 0.970000 106 60 13
-0.115892 2.105317 0.529657 -0.577279 0.365444 0.730205 106 60 13
-0.151329 1.996162 0.556271 -0.577279 0.365444 0.730205 106 60 13
-0.075507 1.943118 0.642761 -0.577279 0.365444 0.730205 106 60 13
-0.274292 1.982197 0.529464 -0.235666 0.301742 0.923804 106 60 13
-0.151329 1.996162 0.556271 -0.235666 0.301742 0.923804 106 60 13
-0.115892 2.105317 0.529657 -0.235666 0.301742 0.923804 106 60 13
-0.075507 1.943118 0.642761 -0.223545 0.731242 0.644448 106 60 13
-0.151329 1.996162 0.556271 -0.223545 0.731242 0.644448 106 60 13
-0.274292 1.982197 0.529464 -0.223545 0.731242 0.644448 106 60 13
-0.185124 1.809172 0.610742 -0.462419 0.170436 0.870127 106 60 13
-0.075507 1.943118 0.642761 -0.462419 0.170436 0.870127 106 60 13
-0.274292 1.982197 0.529464 -0.462419 0.170436 0.870127 106 60 13
-0.232660 2.106855 0.413547 -0.520090 0.668283 0.531888 106 60 13
-0.274292 1.982197 0.529464 -0.520090 0.668283 0.531888 106 60 13
-0.115892 2.105317 0.529657 -0.520090 0.668283 0.531888 106 60 13
0.018290 2.096159 0.535053 0.006154 0.573000 0.819532 106 60 13
-0.115892 2.105317 0.529657 0.006154 0.573000 0.819532 106 60 13
-0.075507 1.943118 0.642761 0.006154 0.573000 0.819532 106 60 13
-0.049142 1.972365 0.440860 0.707115 0.141903 -0.692714 106 60 13
-0.091297 2.144072 0.433003 0.707115 0.141903 -0.692714 106 60 12
0.018290 2.096159 0.535053 0.707115 0.141903 -0.692714 106 60 13
-0.320952 1.906697 0.471921 -0.088070 -0.853571 -0.513478 106 60 13
-0.120432 1.923007 0.410415 -0.088070 -0.853571 -0.513478 106 60 13
-0.185124 1.809172 0.610742 -0.088070 -0.853571 -0.513478 106 60 13
-0.232660 2.106855 0.413547 -0.278309 -0.153738 -0.948108 106 60 13
-0.120432 1.923007 0.410415 -0.278309 -0.153738 -0.948108 106 60 13
-0.320952 1.906697 0.471921 -0.278309 -0.153738 -0.948108 106 60 13
-0.052613 1.895041 0.463283 0.905806 -0.182962 -0.382153 106 60 13
0.018290 2.096159 0.535053 0.905806 -0.182962 -0.382153 106 60 13
0.019786 1.902535 0.631299 0.905806 -0.182962 -0.382153 106 60 13
-0.185124 1.809172 0.610742 0.422179 -0.895324 -0.141985 106 60 13
-0.052613 1.895041 0.463283 0.422179 -0.895324 -0.141985 106 60 13
0.019786 1.902535 0.631299 0.422179 -0.895324 -0.141985 106 60 13
-0.091297 2.144072 0.433003 0.113538 0.086168 -0.989790 106 60 12
-0.120432 1.923007 0.410415 0.113538 0.086168 -0.989790 106 60 13
-0.232660 2.106855 0.413547 0.113538 0.086168 -0.989790 106 60 13
-0.052613 1.895041 0.463283 0.990948 -0.005573 0.134132 0 0 0
-0.007520 1.654097 0.120140 0.990948 -0.005573 0.134132 0 0 0
-0.049142 1.972365 0.440860 0.990948 -0.005573 0.134132 0 0 0
-0.017756 1.632154 0.185281 -0.714763 -0.281947 0.640015 0 0 0
0.036451 1.019244 -0.024188 -0.714763 -0.281947 0.640015 0 0 0
0.103916 0.912208 0.004004 -0.714763 -0.281947 0.640015 0 0 0
-0.120432 1.923007 0.410415 -0.103225 0.709333 -0.697274 0 0 0
-0.007520 1.654097 0.120140 -0.103225 0.709333 -0.697274 0 0 0
-0.069839 1.689822 0.165708 -0.103225 0.709333 -0.697274 0 0 0
-0.007520 1.654097 0.120140 0.989126 0.143607 0.031723 0 0 0
0.103916 0.912208 0.004004 0.989126 0.143607 0.031723 0 0 0
0.118528 0.826211 -0.062302 0.989126 0.143607 0.031723 0 0 0
-0.075223 1.984728 0.451695 -0.488675 0.739983 0.462192 0 0 0
-0.034736 2.006941 0.458938 -0.488675 0.739983 0.462192 0 0 0
0.032749 2.116082 0.355552 -0.488675 0.739983 0.462192 0 0 0
-0.049158 1.993581 0.433861 0.120130 0.397471 0.909717 0 0 0
-0.059616 1.956796 0.451314 0.120130 0.397471 0.909717 0 0 0
0.092853 2.028668 0.399778 0.120130 0.397471 0.909717 0 0 0
-0.059616 1.956796 0.451314 0.168009 -0.784474 -0.596970 0 0 0
0.092853 2.028668 0.399778 0.168009 -0.784474 -0.596970 0 0 0
-0.019473 1.955579 0.464211 0.168009 -0.784474 -0.596970 0 0 0
-0.095516 2.070976 0.397270 0.127634 -0.778372 -0.614693 0 0 0
-0.056283 2.078835 0.395466 0.127634 -0.778372 -0.614693 0 0 0
-0.054649 2.062229 0.416832 0.127634 -0.778372 -0.614693 0 0 0
-0.095516 2.070976 0.397270 -0.127634 0.778372 0.614693 0 0 0
-0.054649 2.062229 0.416832 -0.127634 0.778372 0.614693 0 0 0
-0.056283 2.078835 0.395466 -0.127634 0.778372 0.614693 0 0 0
-0.144133 1.958046 0.426822 -0.774686 0.230910 0.588679 0 0 0
-0.157372 1.991032 0.396461 -0.774686 0.230910 0.588679 0 0 0
-0.260483 1.967044 0.270179 -0.774686 0.230910 0.588679 0 0 0
-0.151987 1.969646 0.397495 -0.271420 0.814132 0.513343 0 0 0
-0.115904 1.968112 0.419006 -0.271420 0.814132 0.513343 0 0 0
-0.165526 2.046175 0.268966 -0.271420 0.814132 0.513343 0 0 0
-0.115904 1.968112 0.419006 0.733435 -0.472695 -0.488500 0 0 0
-0.165526 2.046175 0.268966 0.733435 -0.472695 -0.488500 0 0 0
-0.106422 2.003834 0.398676 0.733435 -0.472695 -0.488500 0 0 0
-0.116216 1.888380 0.490692 -0.065379 0.301678 0.951166 0 0 0
-0.146091 1.850884 0.500531 -0.065379 0.301678 0.951166 0 0 0
-0.094665 1.694956 0.553521 -0.065379 0.301678 0.951166 0 0 0
-0.128922 1.860549 0.476384 -0.732392 0.273491 0.623542 0 0 0
-0.134043 1.896212 0.454727 -0.732392 0.273491 0.623542 0 0 0
-0.204234 1.734954 0.443012 -0.732392 0.273491 0.623542 0 0 0
-0.134043 1.896212 0.454727 0.307155 -0.064720 -0.949456 0 0 0
-0.204234 1.734954 0.443012 0.307155 -0.064720 -0.949456 0 0 0
-0.171395 1.879978 0.443750 0.307155 -0.064720 -0.949456 0 0 0
-0.046948 1.890121 0.489183 -0.414364 -0.056222 0.908373 0 0 0
-0.085010 1.895443 0.472150 -0.414364 -0.056222 0.908373 0 0 0
0.013941 1.754189 0.508545 -0.414364 -0.056222 0.908373 0 0 0
-0.085010 1.895443 0.472150 -0.048630 -0.281022 -0.958468 0 0 0
0.013941 1.754189 0.508545 -0.048630 -0.281022 -0.958468 0 0 0
-0.092021 1.855626 0.484180 -0.048630 -0.281022 -0.958468 0 0 0
-0.052721 1.943495 0.487335 -0.128454 0.745835 0.653628 0 0 0
-0.018876 1.922749 0.517659 -0.128454 0.745835 0.653628 0 0 0
0.153983 1.956116 0.513556 -0.128454 0.745835 0.653628 0 0 0
-0.024941 1.946560 0.476804 -0.151743 0.159062 0.975537 0 0 0
-0.059910 1.923289 0.475159 -0.151743 0.159062 0.975537 0 0 0
0.109560 1.887127 0.507416 -0.151743 0.159062 0.975537 0 0 0
-0.059910 1.923289 0.475159 0.000394 -0.664636 -0.747167 0 0 0
0.109560 1.887127 0.507416 0.000394 -0.664636 -0.747167 0 0 0
-0.038650 1.896074 0.499379 0.000394 -0.664636 -0.747167 0 0 0
-0.019454 1.980179 0.482239 -0.137050 0.257171 0.956598 0 0 0
-0.052721 1.943495 0.487335 -0.137050 0.257171 0.956598 0 0 0
0.153983 1.956116 0.513556 -0.137050 0.257171 0.956598 0 0 0
-0.024497 1.900317 0.519055 -0.393819 0.074269 0.916183 0 0 0
-0.074978 1.895541 0.497743 -0.393819 0.074269 0.916183 0 0 0
0.080232 1.744335 0.576717 -0.393819 0.074269 0.916183 0 0 0
-0.074978 1.895541 0.497743 -0.016086 -0.475817 -0.879397 0 0 0
0.080232 1.744335 0.576717 -0.016086 -0.475817 -0.879397 0 0 0
-0.076396 1.847026 0.524019 -0.016086 -0.475817 -0.879397 0 0 0
-0.084810 1.865762 0.520374 -0.601070 0.185536 0.777362 0 0 0
-0.116216 1.888380 0.490692 -0.601070 0.185536 0.777362 0 0 0
-0.094665 1.694956 0.553521 -0.601070 0.185536 0.777362 0 0 0
-0.174036 1.878154 0.460083 -0.714817 0.467827 0.519784 0 0 0
-0.156376 1.919327 0.447312 -0.714817 0.467827 0.519784 0 0 0
-0.290432 1.799772 0.370560 -0.714817 0.467827 0.519784 0 0 0
-0.156376 1.919327 0.447312 0.522671 -0.039339 -0.851626 0 0 0
-0.290432 1.799772 0.370560 0.522671 -0.039339 -0.851626 0 0 0
-0.195897 1.924212 0.422831 0.522671 -0.039339 -0.851626 0 0 0
-0.183643 1.936573 0.414654 -0.529697 0.727989 0.435262 0 0 0
-0.144133 1.958046 0.426822 -0.529697 0.727989 0.435262 0 0 0
-0.260483 1.967044 0.270179 -0.529697 0.727989 0.435262 0 0 0
-0.136846 2.009096 0.401663 -0.167473 0.746877 0.643527 0 0 0
-0.103333 1.990431 0.432047 -0.167473 0.746877 0.643527 0 0 0
-0.095918 2.125230 0.277529 -0.167473 0.746877 0.643527 0 0 0
-0.103333 1.990431 0.432047 -0.682354 0.566771 0.461697 0 0 0
-0.077248 2.030613 0.421272 -0.682354 0.566771 0.461697 0 0 0
-0.095918 2.125230 0.277529 -0.682354 0.566771 0.461697 0 0 0
-0.085315 2.020549 0.423674 -0.036103 0.609401 0.792040 0 0 0
-0.075223 1.984728 0.451695 -0.036103 0.609401 0.792040 0 0 0
0.032749 2.116082 0.355552 -0.036103 0.609401 0.792040 0 0 0
-0.052613 1.895041 0.463283 -0.741889 -0.531147 0.409247 0 0 0
-0.069839 1.689822 0.165708 -0.741889 -0.531147 0.409247 0 0 0
-0.017756 1.632154 0.185281 -0.741889 -0.531147 0.409247 0 0 0
-0.031906 -0.000163 0.001547 -0.322836 0.045514 0.945360 0 0 0
0.103916 0.912208 0.004004 -0.322836 0.045514 0.945360 0 0 0
0.036451 1.019244 -0.024188 -0.322836 0.045514 0.945360 0 0 0
0.036451 1.019244 -0.024188 -0.412172 0.004638 -0.911094 0 0 0
0.118528 0.826211 -0.062302 -0.412172 0.004638 -0.911094 0 0 0
-0.031906 -0.000163 0.001547 -0.412172 0.004638 -0.911094 0 0 0
0.021416 -0.000458 0.037434 0.993255 -0.115612 0.008865 0 0 0
0.022082 0.000000 -0.031189 0.993255 -0.115612 0.008865 0 0 0
0.118528 0.826211 -0.062302 0.993255 -0.115612 0.008865 0 0 0
-0.205852 1.008482 0.128029 0.325902 0.936673 0.128184 0 0 0
0.019903 0.940221 0.052859 0.325902 0.936673 0.128184 0 0 0
0.009985 0.947300 0.026347 0.325902 0.936673 0.128184 0 0 0
-0.001159 0.927070 0.039755 -0.300324 -0.387485 0.871585 0 0 0
0.082253 0.738019 -0.015551 -0.300324 -0.387485 0.871585 0 0 0
0.019903 0.940221 0.052859 -0.300324 -0.387485 0.871585 0 0 0
0.335390 0.752182 0.262758 0.201837 0.979398 -0.006430 0 0 0
0.210245 0.776681 0.066127 0.201837 0.979398 -0.006430 0 0 0
0.181501 0.782719 0.083548 0.201837 0.979398 -0.006430 0 0 0
0.200640 0.759718 0.092580 0.866846 -0.498551 -0.004947 0 0 0
0.087616 0.564534 -0.041912 0.866846 -0.498551 -0.004947 0 0 0
0.210245 0.776681 0.066127 0.866846 -0.498551 -0.004947 0 0 0
0.045942 0.109296 -0.014656 0.130293 0.501030 0.855566 0 0 0
0.054518 0.365660 -0.166092 0.130293 0.501030 0.855566 0 0 0
0.016906 0.101982 -0.005951 0.130293 0.501030 0.855566 0 0 0
0.054518 0.365660 -0.166092 0.842603 -0.294518 -0.450866 0 0 0
0.045942 0.109296 -0.014656 0.842603 -0.294518 -0.450866 0 0 0
0.031276 0.089599 -0.029198 0.842603 -0.294518 -0.450866 0 0 0
-0.130455 0.915954 0.310379 -0.581928 0.565869 0.584082 51 51 51
-0.170065 1.010466 0.179350 -0.581928 0.565869 0.584082 51 51 51
-0.227608 0.882788 0.245716 -0.581928 0.565869 0.584082 51 51 51
0.120012 0.411841 -0.285318 0.582031 0.712501 -0.391895 51 51 51
0.165669 0.272090 -0.471590 0.582031 0.712501 -0.391895 51 51 51
0.102380 0.371792 -0.384317 0.582031 0.712501 -0.391895 51 51 51
0.129090 0.393900 -0.279126 0.437547 0.897740 -0.051146 51 51 51
0.361062 0.279565 -0.301516 0.437547 0.897740 -0.051146 51 51 51
0.219746 0.346328 -0.338594 0.437547 0.897740 -0.051146 51 51 51
0.409256 0.762662 0.270081 0.272529 0.856638 0.438062 51 51 51
0.290960 0.821287 0.229034 0.272529 0.856638 0.438062 51 51 51
0.393637 0.750498 0.303585 0.272529 0.856638 0.438062 51 51 51
0.320931 0.816336 0.203827 -0.196978 0.916101 0.349227 51 51 51
0.235515 0.744270 0.344694 -0.196978 0.916101 0.349227 51 51 51
0.315699 0.786200 0.279931 -0.196978 0.916101 0.349227 51 51 51
0.409431 0.627604 0.397753 0.031641 0.741277 0.670453 51 51 51
0.376724 0.715424 0.302200 0.031641 0.741277 0.670453 51 51 51
0.349283 0.621993 0.406796 0.031641 0.741277 0.670453 50 50 50
0.200640 0.759718 0.092580 -0.730951 -0.387686 0.561614 0 0 0
0.335390 0.752182 0.262758 -0.730951 -0.387686 0.561614 0 0 0
0.181501 0.782719 0.083548 -0.730951 -0.387686 0.561614 0 0 0
0.068565 0.571796 -0.016537 -0.541197 0.608432 -0.580444 0 0 0
0.210245 0.776681 0.066127 -0.541197 0.608432 -0.580444 0 0 0
0.087616 0.564534 -0.041912 -0.541197 0.608432 -0.580444 0 0 0
0.200640 0.759718 0.092580 -0.388525 -0.243027 0.888812 0 0 0
0.068565 0.571796 -0.016537 -0.388525 -0.243027 0.888812 0 0 0
0.081346 0.544941 -0.018293 -0.388525 -0.243027 0.888812 0 0 0
-0.205852 1.008482 0.128029 -0.473906 -0.290009 -0.831450 0 0 0
0.009985 0.947300 0.026347 -0.473906 -0.290009 -0.831450 0 0 0
-0.001159 0.927070 0.039755 -0.473906 -0.290009 -0.831450 0 0 0
-0.001159 0.927070 0.039755 -0.762558 0.009874 -0.646844 0 0 0
0.069994 0.746755 -0.046879 -0.762558 0.009874 -0.646844 0 0 0
0.055116 0.724511 -0.029679 -0.762558 0.009874 -0.646844 0 0 0
0.069994 0.746755 -0.046879 0.898009 0.361672 -0.250547 0 0 0
0.019903 0.940221 0.052859 0.898009 0.361672 -0.250547 0 0 0
0.082253 0.738019 -0.015551 0.898009 0.361672 -0.250547 0 0 0
0.052304 1.197891 0.026678 0.350654 -0.417585 -0.838251 0 0 0
0.035217 1.204136 0.016419 0.350654 -0.417585 -0.838251 0 0 0
0.088807 1.459872 -0.088562 0.350654 -0.417585 -0.838251 0 0 0
0.056465 1.217337 0.037248 -0.757146 0.377509 0.533120 0 0 0
0.088807 1.459872 -0.088562 -0.757146 0.377509 0.533120 0 0 0
0.035217 1.204136 0.016419 -0.757146 0.377509 0.533120 0 0 0
0.290165 1.609429 -0.293947 -0.420945 0.888456 -0.182898 51 51 51
0.299296 1.590010 -0.409292 -0.420945 0.888456 -0.182898 51 51 51
0.221033 1.550411 -0.421524 -0.420945 0.888456 -0.182898 51 51 51
-0.007520 1.654097 0.120140 -0.524111 0.154117 -0.837589 0 0 0
0.036451 1.019244 -0.024188 -0.524111 0.154117 -0.837589 0 0 0
-0.069839 1.689822 0.165708 -0.524111 0.154117 -0.837589 0 0 0
-0.235750 2.117710 0.397509 -0.326131 0.112178 0.938645 231 160 0
-0.146683 2.153042 0.424232 -0.326131 0.112178 0.938645 231 160 0
-0.204898 2.166517 0.402395 -0.326131 0.112178 0.938645 231 160 0
-0.073316 2.108166 0.456195 0.569310 -0.089442 -0.817243 231 160 0
-0.092630 2.162451 0.436799 0.569310 -0.089442 -0.817243 231 160 0
-0.033717 2.152724 0.478904 0.569310 -0.089442 -0.817243 231 160 0
-0.236176 1.814106 0.561703 -0.005329 0.861027 0.508531 231 160 0
-0.216461 1.793050 0.597561 -0.005329 0.861027 0.508531 231 160 0
-0.164696 1.785172 0.611443 -0.005329 0.861027 0.508531 231 160 0
-0.278230 1.879438 0.484191 -0.026440 -0.480998 -0.876323 231 160 0
-0.320407 1.830025 0.512586 -0.026440 -0.480998 -0.876323 230 160 0
-0.347786 1.887246 0.482004 -0.026440 -0.480998 -0.876323 231 160 0
-0.264115 2.015812 0.439514 0.110162 -0.451090 -0.885654 231 160 0
-0.330542 2.010552 0.433930 0.110162 -0.451090 -0.885654 230 159 0
-0.294128 2.066062 0.410187 0.110162 -0.451090 -0.885654 231 160 0
-0.335796 1.817612 0.553734 -0.460472 0.538711 0.705518 231 160 0
-0.377422 1.753944 0.575180 -0.460472 0.538711 0.705518 231 160 0
-0.329117 1.744606 0.613838 -0.460472 0.538711 0.705518 230 160 0
-0.329117 1.744606 0.613838 0.460472 -0.538711 -0.705518 230 160 0
-0.377422 1.753944 0.575180 0.460472 -0.538711 -0.705518 231 160 0
-0.335796 1.817612 0.553734 0.460472 -0.538711 -0.705518 231 160 0
-0.140079 1.751343 0.701317 -0.329362 0.908127 0.258508 231 160 0
-0.210548 1.731247 0.682129 -0.329362 0.908127 0.258508 231 160 0
-0.167222 1.739376 0.708773 -0.329362 0.908127 0.258508 231 160 0
-0.178432 2.243944 0.411721 -0.254898 -0.655359 0.711007 231 160 0
-0.135347 2.249457 0.432249 -0.254898 -0.655359 0.711007 231 160 0
-0.156912 2.253416 0.428166 -0.254898 -0.655359 0.711007 231 160 0
0.107315 2.064270 0.630243 -0.832821 0.245325 0.496211 231 160 0
0.100397 2.041840 0.629722 -0.832821 0.245325 0.496211 231 160 0
0.113025 2.034771 0.654410 -0.832821 0.245325 0.496211 231 160 0
-0.185124 1.809172 0.610742 -0.734557 -0.061100 0.675791 106 60 13
-0.274292 1.982197 0.529464 -0.734557 -0.061100 0.675791 106 60 13
-0.320952 1.906697 0.471921 -0.734557 -0.061100 0.675791 106 60 13
-0.232660 2.106855 0.413547 -0.887936 0.435146 0.149053 106 60 13
-0.320952 1.906697 0.471921 -0.887936 0.435146 0.149053 106 60 13
-0.274292 1.982197 0.529464 -0.887936 0.435146 0.149053 106 60 13
0.018290 2.096159 0.535053 0.285538 0.428355 0.857309 106 60 13
-0.075507 1.943118 0.642761 0.285538 0.428355 0.857309 106 60 13
0.019786 1.902535 0.631299 0.285538 0.428355 0.857309 106 60 13
-0.232660 2.106855 0.413547 -0.281015 0.913334 0.294706 106 60 13
-0.115892 2.105317 0.529657 -0.281015 0.913334 0.294706 106 60 13
-0.091297 2.144072 0.433003 -0.281015 0.913334 0.294706 106 60 12
-0.049142 1.972365 0.440860 0.364627 0.046964 -0.929969 106 60 13
-0.120432 1.923007 0.410415 0.364627 0.046964 -0.929969 106 60 13
-0.091297 2.144072 0.433003 0.364627 0.046964 -0.929969 106 60 12
-0.052613 1.895041 0.463283 0.890995 -0.162882 -0.423790 106 60 13
-0.049142 1.972365 0.440860 0.890995 -0.162882 -0.423790 106 60 13
0.018290 2.096159 0.535053 0.890995 -0.162882 -0.423790 106 60 13
-0.185124 1.809172 0.610742 0.021332 -0.872179 -0.488722 106 60 13
-0.120432 1.923007 0.410415 0.021332 -0.872179 -0.488722 106 60 13
-0.052613 1.895041 0.463283 0.021332 -0.872179 -0.488722 106 60 13
-0.052613 1.895041 0.463283 0.988815 -0.024478 0.147127 0 0 0
-0.017756 1.632154 0.185281 0.988815 -0.024478 0.147127 0 0 0
-0.007520 1.654097 0.120140 0.988815 -0.024478 0.147127 0 0 0
-0.017756 1.632154 0.185281 -0.611095 -0.303845 0.730918 0 0 0
-0.069839 1.689822 0.165708 -0.611095 -0.303845 0.730918 0 0 0
0.036451 1.019244 -0.024188 -0.611095 -0.303845 0.730918 0 0 0
-0.120432 1.923007 0.410415 -0.174932 0.687426 -0.704872 0 0 0
-0.049142 1.972365 0.440860 -0.174932 0.687426 -0.704872 0 0 0
-0.007520 1.654097 0.120140 -0.174932 0.687426 -0.704872 0 0 0
-0.007520 1.654097 0.120140 0.974429 0.116267 0.192276 0 0 0
-0.017756 1.632154 0.185281 0.974429 0.116267 0.192276 0 0 0
0.103916 0.912208 0.004004 0.974429 0.116267 0.192276 0 0 0
-0.052613 1.895041 0.463283 -0.623232 -0.626462 0.468111 0 0 0
-0.120432 1.923007 0.410415 -0.623232 -0.626462 0.468111 0 0 0
-0.069839 1.689822 0.165708 -0.623232 -0.626462 0.468111 0 0 0
-0.031906 -0.000163 0.001547 -0.556221 0.080575 0.827119 0 0 0
0.021416 -0.000458 0.037434 -0.556221 0.080575 0.827119 0 0 0
0.103916 0.912208 0.004004 -0.556221 0.080575 0.827119 0 0 0
0.103916 0.912208 0.004004 0.949135 -0.074591 0.305908 0 0 0
0.021416 -0.000458 0.037434 0.949135 -0.074591 0.305908 0 0 0
0.118528 0.826211 -0.062302 0.949135 -0.074591 0.305908 0 0 0
-0.031906 -0.000163 0.001547 -0.518335 0.028321 -0.854709 0 0 0
0.118528 0.826211 -0.062302 -0.518335 0.028321 -0.854709 0 0 0
0.022082 0.000000 -0.031189 -0.518335 0.028321 -0.854709 0 0 0
-0.001159 0.927070 0.039755 -0.271991 -0.378795 0.884610 0 0 0
0.055116 0.724511 -0.029679 -0.271991 -0.378795 0.884610 0 0 0
0.082253 0.738019 -0.015551 -0.271991 -0.378795 0.884610 0 0 0
0.200640 0.759718 0.092580 0.893081 -0.433006 -0.122117 0 0 0
0.081346 0.544941 -0.018293 0.893081 -0.433006 -0.122117 0 0 0
0.087616 0.564534 -0.041912 0.893081 -0.433006 -0.122117 0 0 0
-0.305256 0.921635 0.214355 0.441342 -0.770459 -0.460011 51 51 51
-0.333654 0.949751 0.140018 0.441342 -0.770459 -0.460011 51 51 51
-0.240105 1.024163 0.105142 0.441342 -0.770459 -0.460011 51 51 51
-0.305256 0.921635 0.214355 -0.441342 0.770459 0.460011 51 51 51
-0.240105 1.024163 0.105142 -0.441342 0.770459 0.460011 51 51 51
-0.333654 0.949751 0.140018 -0.441342 0.770459 0.460011 51 51 51
-0.170065 1.010466 0.179350 0.581928 -0.565869 -0.584082 51 51 51
-0.130455 0.915954 0.310379 0.581928 -0.565869 -0.584082 51 51 51
-0.227608 0.882788 0.245716 0.581928 -0.565869 -0.584082 51 51 51
0.102380 0.371792 -0.384317 -0.582031 -0.712501 0.391895 51 51 51
0.165669 0.272090 -0.471590 -0.582031 -0.712501 0.391895 51 51 51
0.120012 0.411841 -0.285318 -0.582031 -0.712501 0.391895 51 51 51
0.219746 0.346328 -0.338594 -0.437547 -0.897740 0.051146 51 51 51
0.361062 0.279565 -0.301516 -0.437547 -0.897740 0.051146 51 51 51
0.129090 0.393900 -0.279126 -0.437547 -0.897740 0.051146 51 51 51
0.290960 0.821287 0.229034 -0.272529 -0.856638 -0.438062 51 51 51
0.409256 0.762662 0.270081 -0.272529 -0.856638 -0.438062 51 51 51
0.393637 0.750498 0.303585 -0.272529 -0.856638 -0.438062 51 51 51
0.315699 0.786200 0.279931 0.196978 -0.916101 -0.349227 51 51 51
0.235515 0.744270 0.344694 0.196978 -0.916101 -0.349227 51 51 51
0.320931 0.816336 0.203827 0.196978 -0.916101 -0.349227 51 51 51
0.376724 0.715424 0.302200 -0.031641 -0.741277 -0.670453 51 51 51
0.409431 0.627604 0.397753 -0.031641 -0.741277 -0.670453 51 51 51
0.349283 0.621993 0.406796 -0.031641 -0.741277 -0.670453 50 50 50
0.068565 0.571796 -0.016537 -0.346777 0.547164 -0.761812 0 0 0
0.181501 0.782719 0.083548 -0.346777 0.547164 -0.761812 0 0 0
0.210245 0.776681 0.066127 -0.346777 0.547164 -0.761812 0 0 0
0.200640 0.759718 0.092580 -0.532085 -0.113255 0.839082 0 0 0
0.181501 0.782719 0.083548 -0.532085 -0.113255 0.839082 0 0 0
0.068565 0.571796 -0.016537 -0.532085 -0.113255 0.839082 0 0 0
-0.001159 0.927070 0.039755 -0.770611 0.002112 -0.637303 0 0 0
0.009985 0.947300 0.026347 -0.770611 0.002112 -0.637303 0 0 0
0.069994 0.746755 -0.046879 -0.770611 0.002112 -0.637303 0 0 0
0.069994 0.746755 -0.046879 0.901834 0.358126 -0.241748 0 0 0
0.009985 0.947300 0.026347 0.901834 0.358126 -0.241748 0 0 0
0.019903 0.940221 0.052859 0.901834 0.358126 -0.241748 0 0 0
0.052304 1.197891 0.026678 0.982668 -0.169716 -0.074563 0 0 0
0.088807 1.459872 -0.088562 0.982668 -0.169716 -0.074563 0 0 0
0.056465 1.217337 0.037248 0.982668 -0.169716 -0.074563 0 0 0
0.221033 1.550411 -0.421524 0.420945 -0.888456 0.182898 51 51 51
0.299296 1.590010 -0.409292 0.420945 -0.888456 0.182898 51 51 51
0.290165 1.609429 -0.293947 0.420945 -0.888456 0.182898 51 51 51
0.253898 1.588712 -0.313210 -0.289812 0.946413 -0.142520 51 51 51
0.309574 1.618332 -0.229736 -0.289812 0.946413 -0.142520 51 51 51
0.292289 1.598611 -0.325546 -0.289812 0.946413 -0.142520 51 51 51
0.253898 1.588712 -0.313210 0.289812 -0.946413 0.142520 51 51 51
0.292289 1.598611 -0.325546 0.289812 -0.946413 0.142520 51 51 51
0.309574 1.618332 -0.229736 0.289812 -0.946413 0.142520 51 51 51
0.054518 0.365660 -0.166092 -0.875044 -0.153901 -0.458925 0 0 0
0.031276 0.089599 -0.029198 -0.875044 -0.153901 -0.458925 0 0 0
0.016906 0.101982 -0.005951 -0.875044 -0.153901 -0.458925 0 0 0
-0.205852 1.008482 0.128029 0.014862 -0.717606 0.696291 0 0 0
-0.001159 0.927070 0.039755 0.014862 -0.717606 0.696291 0 0 0
0.019903 0.940221 0.052859 0.014862 -0.717606 0.696291 0 0 0
0.200640 0.759718 0.092580 0.425904 -0.823974 -0.373729 0 0 0
0.210245 0.776681 0.066127 0.425904 -0.823974 -0.373729 0 0 0
0.335390 0.752182 0.262758 0.425904 -0.823974 -0.373729 0 0 0
-0.007520 1.654097 0.120140 0.081517 0.226311 -0.970638 0 0 0
0.118528 0.826211 -0.062302 0.081517 0.226311 -0.970638 0 0 0
0.036451 1.019244 -0.024188 0.081517 0.226311 -0.970638 0 0 0
3 0 1 2
3 3 4 5
3 6 7 8
3 9 10 11
3 12 13 14
3 15 16 17
3 18 19 20
3 21 22 23
3 24 25 26
3 27 28 29
3 30 31 32
3 33 34 35
3 36 37 38
3 39 40 41
3 42 43 44
3 45 46 47
3 48 49 50
3 51 52 53
3 54 55 56
3 57 58 59
3 60 61 62
3 63 64 65
3 66 67 68
3 69 70 71
3 72 73 74
3 75 76 77
3 78 79 80
3 81 82 83
3 84 85 86
3 87 88 89
3 90 91 92
3 93 94 95
3 96 97 98
3 99 100 101
3 102 103 104
3 105 106 107
3 108 109 110
3 111 112 113
3 114 115 116
3 117 118 119
3 120 121 122
3 123 124 125
3 126 127 128
3 129 130 131
3 132 133 134
3 135 136 137
3 138 139 140
3 141 142 143
3 144 145 146
3 147 148 149
3 150 151 152
3 153 154 155
3 156 157 158
3 159 160 161
3 162 163 164
3 165 166 167
3 168 169 170
3 171 172 173
3 174 175 176
3 177 178 179
3 180 181 182
3 183 184 185
3 186 187 188
3 189 190 191
3 192 193 194
3 195 196 197
3 198 199 200
3 201 202 203
3 204 205 206
3 207 208 209
3 210 211 212
3 213 214 215
3 216 217 218
3 219 220 221
3 222 223 224
3 225 226 227
3 228 229 230
3 231 232 233
3 234 235 236
3 237 238 239
3 240 241 242
3 243 244 245
3 246 247 248
3 249 250 251
3 252 253 254
3 255 256 257
3 258 259 260
3 261 262 263
3 264 265 266
3 267 268 269
3 270 271 272
3 273 274 275
3 276 277 278
3 279 280 281
3 282 283 284
3 285 286 287
3 288 289 290
3 291 292 293
3 294 295 296
3 297 298 299
3 300 301 302
3 303 304 305
3 306 307 308
3 309 310 311
3 312 313 314
3 315 316 317
3 318 319 320
3 321 322 323
3 324 325 326
3 327 328 329
3 330 331 332
3 333 334 335
3 336 337 338
3 339 340 341
3 342 343 344
3 345 346 347
3 348 349 350
3 351 352 353
3 354 355 356
3 357 358 359
3 360 361 362
3 363 364 365
3 366 367 368
3 369 370 371
3 372 373 374
3 375 376 377
3 378 379 380
3 381 382 383
3 384 385 386
3 387 388 389
3 390 391 392
3 393 394 395
3 396 397 398
3 399 400 401
3 402 403 404
3 405 406 407
3 408 409 410
3 411 412 413
3 414 415 416
3 417 418 419
3 420 421 422
3 423 424 425
