ply
format ascii 1.0
comment Created by Blender 2.77 (sub 0) - www.blender.org, source file: ''
element vertex 489
property float x
property float y
property float z
property float nx
property float ny
property float nz
property uchar red
property uchar green
property uchar blue
element face 163
property list uchar uint vertex_indices
end_header
-0.051482 -0.037578 -0.028336 -0.261266 0.009589 -0.965219 0 0 0
0.012389 0.988734 -0.035429 -0.261266 0.009589 -0.965219 0 0 0
0.029116 -0.037755 -0.050154 -0.261266 0.009589 -0.965219 0 0 0
0.012389 0.988734 -0.035429 0.982777 0.018653 -0.183852 0 0 0
0.044792 -0.037658 0.033651 0.982777 0.018653 -0.183852 0 0 0
0.029116 -0.037755 -0.050154 0.982777 0.018653 -0.183852 0 0 0
-0.051482 -0.037578 -0.028336 -0.999974 -0.002180 0.006856 0 0 0
-0.051110 -0.037578 0.026020 -0.999974 -0.002180 0.006856 0 0 0
-0.056887 2.403141 -0.040504 -0.999974 -0.002180 0.006856 0 0 0
0.012389 0.988734 -0.035429 0.943572 0.007506 -0.331082 0 0 0
0.016451 2.402624 0.008203 0.943572 0.007506 -0.331082 0 0 0
0.044792 -0.037658 0.033651 0.943572 0.007506 -0.331082 0 0 0
-0.056887 2.403141 -0.040504 -0.370023 -0.021456 -0.928775 0 0 0
-0.004340 2.431308 -0.062089 -0.370023 -0.021456 -0.928775 0 0 0
0.012389 0.988734 -0.035429 -0.370023 -0.021456 -0.928775 0 0 0
-0.051110 -0.037578 0.026020 -0.428100 0.005527 0.903714 0 0 0
-0.017471 2.344465 0.027387 -0.428100 0.005527 0.903714 0 0 0
-0.064371 2.351166 0.005129 -0.428100 0.005527 0.903714 0 0 0
0.044792 -0.037658 0.033651 0.422643 0.013430 0.906197 0 0 0
-0.017471 2.344465 0.027387 0.422643 0.013430 0.906197 0 0 0
-0.008066 -0.037606 0.058303 0.422643 0.013430 0.906197 0 0 0
-0.017471 2.344465 0.027387 0.370704 0.088732 0.924502 0 0 0
0.016451 2.402624 0.008203 0.370704 0.088732 0.924502 0 0 0
-0.019406 2.414078 0.021482 0.370704 0.088732 0.924502 0 0 0
-0.056887 2.403141 -0.040504 -0.990543 0.137053 -0.006360 0 0 0
-0.064371 2.351166 0.005129 -0.990543 0.137053 -0.006360 0 0 0
-0.055537 2.414579 -0.004272 -0.990543 0.137053 -0.006360 0 0 0
-0.004340 2.431308 -0.062089 0.983814 -0.078154 0.161249 0 0 0
0.029791 2.983061 -0.002903 0.983814 -0.078154 0.161249 0 0 0
-0.019406 2.414078 0.021482 0.983814 -0.078154 0.161249 0 0 0
-0.019406 2.414078 0.021482 -0.580397 0.002790 0.814329 0 0 0
-0.019895 2.983080 0.019184 -0.580397 0.002790 0.814329 0 0 0
-0.055537 2.414579 -0.004272 -0.580397 0.002790 0.814329 0 0 0
-0.019406 2.414078 0.021482 0.406203 0.004039 0.913774 0 0 0
0.029791 2.983061 -0.002903 0.406203 0.004039 0.913774 0 0 0
-0.019895 2.983080 0.019184 0.406203 0.004039 0.913774 0 0 0
-0.019406 2.414078 0.021482 -0.561773 0.824434 0.068697 0 0 0
0.313881 2.633582 0.112680 -0.561773 0.824434 0.068697 0 0 0
-0.004340 2.431308 -0.062089 -0.561773 0.824434 0.068697 0 0 0
-0.004340 2.431308 -0.062089 0.493923 -0.237197 -0.836527 0 0 0
0.338427 2.596030 0.093588 0.493923 -0.237197 -0.836527 0 0 0
0.016828 2.405376 -0.042238 0.493923 -0.237197 -0.836527 0 0 0
0.325160 2.619446 0.156984 -0.829276 0.435584 0.350097 0 0 0
0.489027 2.908195 0.185881 -0.829276 0.435584 0.350097 0 0 0
0.313881 2.633582 0.112680 -0.829276 0.435584 0.350097 0 0 0
0.016451 2.402624 0.008203 0.395977 -0.831357 0.389932 0 0 0
0.338427 2.596030 0.093588 0.395977 -0.831357 0.389932 0 0 0
0.325160 2.619446 0.156984 0.395977 -0.831357 0.389932 0 0 0
0.313881 2.633582 0.112680 -0.136193 0.376796 -0.916229 0 0 0
0.519429 2.881907 0.184249 -0.136193 0.376796 -0.916229 0 0 0
0.338427 2.596030 0.093588 -0.136193 0.376796 -0.916229 0 0 0
0.325160 2.619446 0.156984 0.707972 -0.567675 0.420142 0 0 0
0.519429 2.881907 0.184249 0.707972 -0.567675 0.420142 0 0 0
0.502378 2.900345 0.237896 0.707972 -0.567675 0.420142 0 0 0
-0.056887 2.403141 -0.040504 0.255818 -0.841676 -0.475540 0 0 0
-0.137506 2.545357 -0.335586 0.255818 -0.841676 -0.475540 0 0 0
-0.004340 2.431308 -0.062089 0.255818 -0.841676 -0.475540 0 0 0
-0.173915 2.562773 -0.291749 -0.823847 0.162140 0.543127 0 0 0
-0.205881 2.937026 -0.451963 -0.823847 0.162140 0.543127 0 0 0
-0.200510 2.529592 -0.322184 -0.823847 0.162140 0.543127 0 0 0
-0.004340 2.431308 -0.062089 0.157357 0.902671 0.400530 0 0 0
-0.173915 2.562773 -0.291749 0.157357 0.902671 0.400530 0 0 0
-0.055537 2.414579 -0.004272 0.157357 0.902671 0.400530 0 0 0
-0.055537 2.414579 -0.004272 -0.846205 0.243490 0.473972 0 0 0
-0.173915 2.562773 -0.291749 -0.846205 0.243490 0.473972 0 0 0
-0.200510 2.529592 -0.322184 -0.846205 0.243490 0.473972 0 0 0
-0.137506 2.545357 -0.335586 0.791513 0.240197 0.561972 0 0 0
-0.176204 2.933341 -0.446913 0.791513 0.240197 0.561972 0 0 0
-0.173915 2.562773 -0.291749 0.791513 0.240197 0.561972 0 0 0
-0.200510 2.529592 -0.322184 -0.895445 -0.145786 -0.420624 0 0 0
-0.205881 2.937026 -0.451963 -0.895445 -0.145786 -0.420624 0 0 0
-0.180760 2.935271 -0.504833 -0.895445 -0.145786 -0.420624 0 0 0
-0.055537 2.414579 -0.004272 -0.320884 0.576867 -0.751171 0 0 0
-0.195953 2.627850 0.219494 -0.320884 0.576867 -0.751171 0 0 0
-0.145893 2.672699 0.232552 -0.320884 0.576867 -0.751171 0 0 0
-0.195953 2.627850 0.219494 -0.196142 0.469560 -0.860838 0 0 0
-0.251612 2.985840 0.427448 -0.196142 0.469560 -0.860838 0 0 0
-0.145893 2.672699 0.232552 -0.196142 0.469560 -0.860838 0 0 0
-0.154505 2.653160 0.274178 0.268145 -0.443790 0.855072 0 0 0
-0.199943 2.976174 0.456074 0.268145 -0.443790 0.855072 0 0 0
-0.262722 2.971155 0.473156 0.268145 -0.443790 0.855072 0 0 0
-0.017471 2.344465 0.027387 -0.393510 -0.672649 0.626652 0 0 0
-0.195953 2.627850 0.219494 -0.393510 -0.672649 0.626652 0 0 0
-0.064371 2.351166 0.005129 -0.393510 -0.672649 0.626652 0 0 0
-0.019406 2.414078 0.021482 0.903132 0.061153 0.424985 0 0 0
-0.154505 2.653160 0.274178 0.903132 0.061153 0.424985 0 0 0
-0.017471 2.344465 0.027387 0.903132 0.061153 0.424985 0 0 0
-0.145893 2.672699 0.232552 0.476180 0.574897 -0.665391 0 0 0
-0.251612 2.985840 0.427448 0.476180 0.574897 -0.665391 0 0 0
-0.199943 2.976174 0.456074 0.476180 0.574897 -0.665391 0 0 0
-0.154505 2.653160 0.274178 -0.501523 -0.575098 0.646325 0 0 0
-0.262722 2.971155 0.473156 -0.501523 -0.575098 0.646325 0 0 0
-0.195953 2.627850 0.219494 -0.501523 -0.575098 0.646325 0 0 0
-0.404416 3.383640 0.398873 -0.462824 0.554891 0.691296 51 51 51
-0.389824 3.173510 0.577310 -0.462824 0.554891 0.691296 51 51 51
-0.199323 3.335037 0.575196 -0.462824 0.554891 0.691296 51 51 51
-0.404416 3.383640 0.398873 -0.308014 0.762817 0.568540 51 51 51
-0.199323 3.335037 0.575196 -0.308014 0.762817 0.568540 51 51 51
-0.164214 3.536871 0.323414 -0.308014 0.762817 0.568540 51 51 51
-0.449634 3.510246 0.098116 -0.397355 0.822894 0.406146 51 51 51
-0.404416 3.383640 0.398873 -0.397355 0.822894 0.406146 51 51 51
-0.164214 3.536871 0.323414 -0.397355 0.822894 0.406146 51 51 51
-0.164214 3.536871 0.323414 -0.043770 0.782473 0.621144 51 51 51
-0.199323 3.335037 0.575196 -0.043770 0.782473 0.621144 51 51 51
0.329765 3.475189 0.435925 -0.043770 0.782473 0.621144 51 51 51
-0.199323 3.335037 0.575196 -0.303397 0.369315 0.878383 51 51 51
-0.389824 3.173510 0.577310 -0.303397 0.369315 0.878383 51 51 51
-0.199970 3.125595 0.663032 -0.303397 0.369315 0.878383 51 51 51
-0.733240 2.923515 -0.054543 -0.874800 -0.046688 0.482229 51 51 51
-0.551104 3.037462 0.286898 -0.874800 -0.046688 0.482229 51 51 51
-0.637431 3.257907 0.151637 -0.874800 -0.046688 0.482229 51 51 51
-0.551104 3.037462 0.286898 -0.575293 -0.632934 0.518105 51 51 51
-0.733240 2.923515 -0.054543 -0.575293 -0.632934 0.518105 51 51 51
-0.408035 2.840709 0.205399 -0.575293 -0.632934 0.518105 51 51 51
-0.223202 2.867589 0.554704 -0.058836 -0.992462 0.107507 51 51 51
-0.408035 2.840709 0.205399 -0.058836 -0.992462 0.107507 51 51 51
0.203472 2.822732 0.374106 -0.058836 -0.992462 0.107507 51 51 51
-0.214707 3.135606 -0.771264 -0.712419 0.346403 -0.610298 51 51 51
-0.445724 3.183705 -0.474290 -0.712419 0.346403 -0.610298 51 51 51
-0.381081 3.415339 -0.418276 -0.712419 0.346403 -0.610298 51 51 51
-0.404393 2.926767 -0.464493 -0.909235 -0.160899 -0.383932 51 51 51
-0.445724 3.183705 -0.474290 -0.909235 -0.160899 -0.383932 51 51 51
-0.299120 2.938936 -0.718902 -0.909235 -0.160899 -0.383932 51 51 51
-0.048085 3.248569 -0.729853 0.068214 0.789873 -0.609465 51 51 51
-0.221264 3.535287 -0.377647 0.068214 0.789873 -0.609465 51 51 51
0.161682 3.464074 -0.427079 0.068214 0.789873 -0.609465 51 51 51
0.161682 3.464074 -0.427079 0.253915 0.529612 -0.809344 51 51 51
0.410639 3.300018 -0.456327 0.253915 0.529612 -0.809344 51 51 51
0.202711 3.134717 -0.629729 0.253915 0.529612 -0.809344 51 51 51
-0.048085 3.248569 -0.729853 0.506775 0.496677 -0.704621 51 51 51
0.161682 3.464074 -0.427079 0.506775 0.496677 -0.704621 51 51 51
0.202711 3.134717 -0.629729 0.506775 0.496677 -0.704621 51 51 51
0.718510 3.310137 -0.002107 0.843815 0.464305 0.269068 51 51 51
0.584531 3.321395 0.398634 0.843815 0.464305 0.269068 51 51 51
0.776115 3.066233 0.238123 0.843815 0.464305 0.269068 51 51 51
0.584531 3.321395 0.398634 0.766465 0.189424 0.613718 51 51 51
0.557899 3.007895 0.528656 0.766465 0.189424 0.613718 51 51 51
0.776115 3.066233 0.238123 0.766465 0.189424 0.613718 51 51 51
0.557899 3.007895 0.528656 0.729797 -0.520118 0.443704 51 51 51
0.479986 2.820298 0.436902 0.729797 -0.520118 0.443704 51 51 51
0.776115 3.066233 0.238123 0.729797 -0.520118 0.443704 51 51 51
0.410639 3.300018 -0.456327 0.538134 0.751583 -0.381491 51 51 51
0.383793 3.556554 0.011209 0.538134 0.751583 -0.381491 51 51 51
0.718510 3.310137 -0.002107 0.538134 0.751583 -0.381491 51 51 51
0.383793 3.556554 0.011209 0.469858 0.784998 -0.403746 51 51 51
0.410639 3.300018 -0.456327 0.469858 0.784998 -0.403746 51 51 51
0.161682 3.464074 -0.427079 0.469858 0.784998 -0.403746 51 51 51
0.736659 2.903461 0.010628 0.325227 -0.909634 -0.258445 51 51 51
0.468704 2.793493 0.060482 0.325227 -0.909634 -0.258445 51 51 51
0.586466 2.920519 -0.238412 0.325227 -0.909634 -0.258445 51 51 51
0.462599 3.031960 -0.506714 0.734276 -0.436193 -0.520168 51 51 51
0.586466 2.920519 -0.238412 0.734276 -0.436193 -0.520168 51 51 51
0.404285 2.817959 -0.409578 0.734276 -0.436193 -0.520168 51 51 51
0.410639 3.300018 -0.456327 0.753887 0.401652 -0.519933 51 51 51
0.718510 3.310137 -0.002107 0.753887 0.401652 -0.519933 51 51 51
0.750917 3.151882 -0.077370 0.753887 0.401652 -0.519933 51 51 51
0.074527 2.788279 -0.316309 -0.055908 -0.995817 0.072268 51 51 51
0.167942 2.775409 -0.421377 -0.055908 -0.995817 0.072268 51 51 51
0.468704 2.793493 0.060482 -0.055908 -0.995817 0.072268 51 51 51
0.167942 2.775409 -0.421377 0.170448 -0.779668 -0.602549 51 51 51
0.270854 2.913191 -0.570548 0.170448 -0.779668 -0.602549 51 51 51
0.404285 2.817959 -0.409578 0.170448 -0.779668 -0.602549 51 51 51
0.202711 3.134717 -0.629729 0.683572 0.015325 -0.729722 51 51 51
0.270854 2.913191 -0.570548 0.683572 0.015325 -0.729722 51 51 51
0.028152 3.030928 -0.795428 0.683572 0.015325 -0.729722 51 51 51
-0.010827 2.763447 -0.615530 0.635723 -0.539470 -0.552113 51 51 51
-0.070086 2.869455 -0.787344 0.635723 -0.539470 -0.552113 51 51 51
0.167942 2.775409 -0.421377 0.635723 -0.539470 -0.552113 51 51 51
-0.299120 2.938936 -0.718902 -0.316276 -0.114965 -0.941675 51 51 51
-0.214707 3.135606 -0.771264 -0.316276 -0.114965 -0.941675 51 51 51
-0.070086 2.869455 -0.787344 -0.316276 -0.114965 -0.941675 51 51 51
-0.214707 3.135606 -0.771264 0.034109 0.299256 -0.953563 51 51 51
-0.048085 3.248569 -0.729853 0.034109 0.299256 -0.953563 51 51 51
0.028152 3.030928 -0.795428 0.034109 0.299256 -0.953563 51 51 51
-0.408035 2.840709 0.205399 -0.498879 -0.781212 0.375270 51 51 51
-0.733240 2.923515 -0.054543 -0.498879 -0.781212 0.375270 51 51 51
-0.470377 2.763097 -0.039044 -0.498879 -0.781212 0.375270 51 51 51
-0.637431 3.257907 0.151637 -0.904992 0.391256 0.167059 51 51 51
-0.611640 3.385926 -0.008471 -0.904992 0.391256 0.167059 51 51 51
-0.740337 3.133793 -0.115148 -0.904992 0.391256 0.167059 51 51 51
-0.740337 3.133793 -0.115148 -0.796857 0.529692 -0.290594 51 51 51
-0.611640 3.385926 -0.008471 -0.796857 0.529692 -0.290594 51 51 51
-0.707112 3.084764 -0.295628 -0.796857 0.529692 -0.290594 51 51 51
-0.611640 3.385926 -0.008471 -0.726745 0.580517 -0.367208 51 51 51
-0.381081 3.415339 -0.418276 -0.726745 0.580517 -0.367208 51 51 51
-0.707112 3.084764 -0.295628 -0.726745 0.580517 -0.367208 51 51 51
-0.733240 2.923515 -0.054543 -0.817096 -0.434351 -0.379071 51 51 51
-0.707112 3.084764 -0.295628 -0.817096 -0.434351 -0.379071 51 51 51
-0.583706 2.817862 -0.255808 -0.817096 -0.434351 -0.379071 51 51 51
-0.445724 3.183705 -0.474290 -0.615097 0.343302 -0.709788 51 51 51
-0.707112 3.084764 -0.295628 -0.615097 0.343302 -0.709788 51 51 51
-0.381081 3.415339 -0.418276 -0.615097 0.343302 -0.709788 51 51 51
-0.611640 3.385926 -0.008471 -0.509869 0.836510 -0.200713 51 51 51
-0.449634 3.510246 0.098116 -0.509869 0.836510 -0.200713 51 51 51
-0.221264 3.535287 -0.377647 -0.509869 0.836510 -0.200713 51 51 51
-0.381081 3.415339 -0.418276 -0.540864 0.804155 -0.246579 51 51 51
-0.611640 3.385926 -0.008471 -0.540864 0.804155 -0.246579 51 51 51
-0.221264 3.535287 -0.377647 -0.540864 0.804155 -0.246579 51 51 51
-0.274088 2.816294 -0.331261 -0.137914 -0.824509 -0.548785 51 51 51
-0.583706 2.817862 -0.255808 -0.137914 -0.824509 -0.548785 51 51 51
-0.404393 2.926767 -0.464493 -0.137914 -0.824509 -0.548785 51 51 51
-0.583706 2.817862 -0.255808 -0.057607 -0.974664 -0.216128 51 51 51
-0.274088 2.816294 -0.331261 -0.057607 -0.974664 -0.216128 51 51 51
-0.470377 2.763097 -0.039044 -0.057607 -0.974664 -0.216128 51 51 51
-0.551104 3.037462 0.286898 -0.717009 -0.637840 0.281173 51 51 51
-0.408035 2.840709 0.205399 -0.717009 -0.637840 0.281173 51 51 51
-0.376097 2.945410 0.524358 -0.717009 -0.637840 0.281173 51 51 51
-0.389824 3.173510 0.577310 -0.823747 -0.174779 0.539345 51 51 51
-0.551104 3.037462 0.286898 -0.823747 -0.174779 0.539345 51 51 51
-0.376097 2.945410 0.524358 -0.823747 -0.174779 0.539345 51 51 51
-0.199970 3.125595 0.663032 0.130104 -0.393774 0.909953 51 51 51
-0.223202 2.867589 0.554704 0.130104 -0.393774 0.909953 51 51 51
0.198126 2.997459 0.550663 0.130104 -0.393774 0.909953 51 51 51
-0.389824 3.173510 0.577310 -0.866827 -0.034238 0.497431 51 51 51
-0.637431 3.257907 0.151637 -0.866827 -0.034238 0.497431 51 51 51
-0.551104 3.037462 0.286898 -0.866827 -0.034238 0.497431 51 51 51
-0.199970 3.125595 0.663032 -0.345257 -0.336723 0.876022 51 51 51
-0.376097 2.945410 0.524358 -0.345257 -0.336723 0.876022 51 51 51
-0.223202 2.867589 0.554704 -0.345257 -0.336723 0.876022 51 51 51
-0.404416 3.383640 0.398873 -0.711509 0.600242 0.365327 51 51 51
-0.611640 3.385926 -0.008471 -0.711509 0.600242 0.365327 51 51 51
-0.637431 3.257907 0.151637 -0.711509 0.600242 0.365327 51 51 51
0.329765 3.475189 0.435925 0.088588 0.513632 0.853425 51 51 51
-0.199323 3.335037 0.575196 0.088588 0.513632 0.853425 51 51 51
0.317150 3.236941 0.580624 0.088588 0.513632 0.853425 51 51 51
-0.637431 3.257907 0.151637 -0.760969 0.388436 0.519657 51 51 51
-0.389824 3.173510 0.577310 -0.760969 0.388436 0.519657 51 51 51
-0.404416 3.383640 0.398873 -0.760969 0.388436 0.519657 51 51 51
0.317150 3.236941 0.580624 0.394898 0.461548 0.794374 51 51 51
0.584531 3.321395 0.398634 0.394898 0.461548 0.794374 51 51 51
0.329765 3.475189 0.435925 0.394898 0.461548 0.794374 51 51 51
0.329765 3.475189 0.435925 0.179769 0.961662 0.207098 51 51 51
0.383793 3.556554 0.011209 0.179769 0.961662 0.207098 51 51 51
-0.025296 3.637954 -0.011672 0.179769 0.961662 0.207098 51 51 51
-0.186672 2.745132 -0.574892 -0.391440 -0.684288 -0.615243 51 51 51
-0.299120 2.938936 -0.718902 -0.391440 -0.684288 -0.615243 51 51 51
-0.070086 2.869455 -0.787344 -0.391440 -0.684288 -0.615243 51 51 51
0.028152 3.030928 -0.795428 0.491527 0.404538 -0.771200 51 51 51
-0.048085 3.248569 -0.729853 0.491527 0.404538 -0.771200 51 51 51
0.202711 3.134717 -0.629729 0.491527 0.404538 -0.771200 51 51 51
-0.470377 2.763097 -0.039044 0.287172 -0.957699 0.018557 51 51 51
-0.274088 2.816294 -0.331261 0.287172 -0.957699 0.018557 51 51 51
-0.000161 2.903822 -0.053125 0.287172 -0.957699 0.018557 51 51 51
-0.408035 2.840709 0.205399 0.285612 -0.932020 0.223078 51 51 51
-0.470377 2.763097 -0.039044 0.285612 -0.932020 0.223078 51 51 51
-0.000161 2.903822 -0.053125 0.285612 -0.932020 0.223078 51 51 51
-0.381081 3.415339 -0.418276 -0.315909 0.653799 -0.687567 51 51 51
-0.221264 3.535287 -0.377647 -0.315909 0.653799 -0.687567 51 51 51
-0.048085 3.248569 -0.729853 -0.315909 0.653799 -0.687567 51 51 51
-0.199323 3.335037 0.575196 0.063604 0.385797 0.920389 51 51 51
-0.199970 3.125595 0.663032 0.063604 0.385797 0.920389 51 51 51
0.317150 3.236941 0.580624 0.063604 0.385797 0.920389 51 51 51
0.411352 2.960461 0.586090 0.452759 -0.536400 0.712239 51 51 51
0.479986 2.820298 0.436902 0.452759 -0.536400 0.712239 51 51 51
0.557899 3.007895 0.528656 0.452759 -0.536400 0.712239 51 51 51
0.198126 2.997459 0.550663 -0.170285 -0.038553 0.984640 51 51 51
0.411352 2.960461 0.586090 -0.170285 -0.038553 0.984640 51 51 51
0.317150 3.236941 0.580624 -0.170285 -0.038553 0.984640 51 51 51
0.203472 2.822732 0.374106 -0.233575 -0.694646 0.680374 51 51 51
0.411352 2.960461 0.586090 -0.233575 -0.694646 0.680374 51 51 51
0.198126 2.997459 0.550663 -0.233575 -0.694646 0.680374 51 51 51
0.317150 3.236941 0.580624 0.325257 0.129342 0.936738 51 51 51
0.411352 2.960461 0.586090 0.325257 0.129342 0.936738 51 51 51
0.557899 3.007895 0.528656 0.325257 0.129342 0.936738 51 51 51
0.203472 2.822732 0.374106 -0.151713 -0.754248 0.638822 51 51 51
0.479986 2.820298 0.436902 -0.151713 -0.754248 0.638822 51 51 51
0.411352 2.960461 0.586090 -0.151713 -0.754248 0.638822 51 51 51
0.203472 2.822732 0.374106 -0.025071 -0.997107 0.071756 51 51 51
0.468704 2.793493 0.060482 -0.025071 -0.997107 0.071756 51 51 51
0.479986 2.820298 0.436902 -0.025071 -0.997107 0.071756 51 51 51
-0.223202 2.867589 0.554704 0.219343 -0.690143 0.689631 51 51 51
0.203472 2.822732 0.374106 0.219343 -0.690143 0.689631 51 51 51
0.198126 2.997459 0.550663 0.219343 -0.690143 0.689631 51 51 51
0.074527 2.788279 -0.316309 -0.088207 -0.964222 0.249989 51 51 51
-0.274088 2.816294 -0.331261 -0.088207 -0.964222 0.249989 51 51 51
-0.186672 2.745132 -0.574892 -0.088207 -0.964222 0.249989 51 51 51
-0.025296 3.637954 -0.011672 -0.237898 0.952766 0.188789 51 51 51
-0.449634 3.510246 0.098116 -0.237898 0.952766 0.188789 51 51 51
-0.164214 3.536871 0.323414 -0.237898 0.952766 0.188789 51 51 51
0.074527 2.788279 -0.316309 -0.289029 -0.904055 0.314875 51 51 51
0.468704 2.793493 0.060482 -0.289029 -0.904055 0.314875 51 51 51
-0.000161 2.903822 -0.053125 -0.289029 -0.904055 0.314875 51 51 51
0.167942 2.775409 -0.421377 0.395165 -0.794456 -0.461177 51 51 51
-0.070086 2.869455 -0.787344 0.395165 -0.794456 -0.461177 51 51 51
0.270854 2.913191 -0.570548 0.395165 -0.794456 -0.461177 51 51 51
0.462599 3.031960 -0.506714 0.525667 -0.466220 -0.711557 51 51 51
0.404285 2.817959 -0.409578 0.525667 -0.466220 -0.711557 51 51 51
0.270854 2.913191 -0.570548 0.525667 -0.466220 -0.711557 51 51 51
0.161682 3.464074 -0.427079 0.202283 0.932481 -0.299267 51 51 51
-0.025296 3.637954 -0.011672 0.202283 0.932481 -0.299267 51 51 51
0.383793 3.556554 0.011209 0.202283 0.932481 -0.299267 51 51 51
-0.404393 2.926767 -0.464493 -0.642615 -0.766159 -0.006787 51 51 51
-0.186672 2.745132 -0.574892 -0.642615 -0.766159 -0.006787 51 51 51
-0.274088 2.816294 -0.331261 -0.642615 -0.766159 -0.006787 51 51 51
-0.404393 2.926767 -0.464493 -0.697284 -0.641785 -0.319230 51 51 51
-0.299120 2.938936 -0.718902 -0.697284 -0.641785 -0.319230 51 51 51
-0.186672 2.745132 -0.574892 -0.697284 -0.641785 -0.319230 51 51 51
-0.445724 3.183705 -0.474290 -0.765770 0.163047 -0.622103 51 51 51
-0.214707 3.135606 -0.771264 -0.765770 0.163047 -0.622103 51 51 51
-0.299120 2.938936 -0.718902 -0.765770 0.163047 -0.622103 51 51 51
0.586466 2.920519 -0.238412 0.826425 -0.229554 -0.514128 51 51 51
0.750917 3.151882 -0.077370 0.826425 -0.229554 -0.514128 51 51 51
0.736659 2.903461 0.010628 0.826425 -0.229554 -0.514128 51 51 51
-0.186672 2.745132 -0.574892 0.097121 -0.994875 -0.028128 51 51 51
-0.010827 2.763447 -0.615530 0.097121 -0.994875 -0.028128 51 51 51
0.167942 2.775409 -0.421377 0.097121 -0.994875 -0.028128 51 51 51
-0.274088 2.816294 -0.331261 -0.090263 -0.921084 0.378758 51 51 51
0.074527 2.788279 -0.316309 -0.090263 -0.921084 0.378758 51 51 51
-0.000161 2.903822 -0.053125 -0.090263 -0.921084 0.378758 51 51 51
0.167942 2.775409 -0.421377 0.180338 -0.980683 -0.075758 51 51 51
0.404285 2.817959 -0.409578 0.180338 -0.980683 -0.075758 51 51 51
0.468704 2.793493 0.060482 0.180338 -0.980683 -0.075758 51 51 51
0.479986 2.820298 0.436902 0.387684 -0.920215 0.053910 51 51 51
0.468704 2.793493 0.060482 0.387684 -0.920215 0.053910 51 51 51
0.736659 2.903461 0.010628 0.387684 -0.920215 0.053910 51 51 51
0.479986 2.820298 0.436902 0.722536 -0.615399 0.315002 51 51 51
0.736659 2.903461 0.010628 0.722536 -0.615399 0.315002 51 51 51
0.776115 3.066233 0.238123 0.722536 -0.615399 0.315002 51 51 51
0.750917 3.151882 -0.077370 0.990079 -0.093865 -0.104557 51 51 51
0.776115 3.066233 0.238123 0.990079 -0.093865 -0.104557 51 51 51
0.736659 2.903461 0.010628 0.990079 -0.093865 -0.104557 51 51 51
0.718510 3.310137 -0.002107 0.977442 0.210155 -0.021013 51 51 51
0.776115 3.066233 0.238123 0.977442 0.210155 -0.021013 51 51 51
0.750917 3.151882 -0.077370 0.977442 0.210155 -0.021013 51 51 51
0.383793 3.556554 0.011209 0.527491 0.819473 0.224092 51 51 51
0.329765 3.475189 0.435925 0.527491 0.819473 0.224092 51 51 51
0.584531 3.321395 0.398634 0.527491 0.819473 0.224092 51 51 51
0.750917 3.151882 -0.077370 0.834490 -0.252101 -0.489971 51 51 51
0.586466 2.920519 -0.238412 0.834490 -0.252101 -0.489971 51 51 51
0.462599 3.031960 -0.506714 0.834490 -0.252101 -0.489971 51 51 51
0.468704 2.793493 0.060482 0.570530 -0.812393 -0.120472 51 51 51
0.404285 2.817959 -0.409578 0.570530 -0.812393 -0.120472 51 51 51
0.586466 2.920519 -0.238412 0.570530 -0.812393 -0.120472 51 51 51
0.410639 3.300018 -0.456327 0.766809 0.259029 -0.587288 51 51 51
0.750917 3.151882 -0.077370 0.766809 0.259029 -0.587288 51 51 51
0.462599 3.031960 -0.506714 0.766809 0.259029 -0.587288 51 51 51
0.270854 2.913191 -0.570548 0.383046 -0.126619 -0.915010 51 51 51
0.202711 3.134717 -0.629729 0.383046 -0.126619 -0.915010 51 51 51
0.462599 3.031960 -0.506714 0.383046 -0.126619 -0.915010 51 51 51
0.202711 3.134717 -0.629729 0.493654 0.252137 -0.832305 51 51 51
0.410639 3.300018 -0.456327 0.493654 0.252137 -0.832305 51 51 51
0.462599 3.031960 -0.506714 0.493654 0.252137 -0.832305 51 51 51
0.028152 3.030928 -0.795428 0.532766 -0.362415 -0.764732 51 51 51
0.270854 2.913191 -0.570548 0.532766 -0.362415 -0.764732 51 51 51
-0.070086 2.869455 -0.787344 0.532766 -0.362415 -0.764732 51 51 51
-0.583706 2.817862 -0.255808 -0.593967 -0.380388 -0.708878 51 51 51
-0.707112 3.084764 -0.295628 -0.593967 -0.380388 -0.708878 51 51 51
-0.404393 2.926767 -0.464493 -0.593967 -0.380388 -0.708878 51 51 51
-0.733240 2.923515 -0.054543 -0.522545 -0.850617 0.058290 51 51 51
-0.583706 2.817862 -0.255808 -0.522545 -0.850617 0.058290 51 51 51
-0.470377 2.763097 -0.039044 -0.522545 -0.850617 0.058290 51 51 51
-0.733240 2.923515 -0.054543 -0.940741 0.064224 0.332990 51 51 51
-0.637431 3.257907 0.151637 -0.940741 0.064224 0.332990 51 51 51
-0.740337 3.133793 -0.115148 -0.940741 0.064224 0.332990 51 51 51
-0.733240 2.923515 -0.054543 -0.983994 -0.079215 -0.159628 51 51 51
-0.740337 3.133793 -0.115148 -0.983994 -0.079215 -0.159628 51 51 51
-0.707112 3.084764 -0.295628 -0.983994 -0.079215 -0.159628 51 51 51
-0.381081 3.415339 -0.418276 -0.291871 0.677872 -0.674760 51 51 51
-0.048085 3.248569 -0.729853 -0.291871 0.677872 -0.674760 51 51 51
-0.214707 3.135606 -0.771264 -0.291871 0.677872 -0.674760 51 51 51
0.317150 3.236941 0.580624 0.199289 -0.218557 0.955257 51 51 51
-0.199970 3.125595 0.663032 0.199289 -0.218557 0.955257 51 51 51
0.198126 2.997459 0.550663 0.199289 -0.218557 0.955257 51 51 51
-0.449634 3.510246 0.098116 -0.310201 0.945488 -0.099135 51 51 51
-0.025296 3.637954 -0.011672 -0.310201 0.945488 -0.099135 51 51 51
-0.221264 3.535287 -0.377647 -0.310201 0.945488 -0.099135 51 51 51
0.074527 2.788279 -0.316309 0.023121 -0.989629 0.141774 51 51 51
-0.186672 2.745132 -0.574892 0.023121 -0.989629 0.141774 51 51 51
0.167942 2.775409 -0.421377 0.023121 -0.989629 0.141774 51 51 51
-0.025296 3.637954 -0.011672 0.048773 0.950477 0.306945 51 51 51
-0.164214 3.536871 0.323414 0.048773 0.950477 0.306945 51 51 51
0.329765 3.475189 0.435925 0.048773 0.950477 0.306945 51 51 51
0.203472 2.822732 0.374106 0.025910 -0.979795 -0.198319 51 51 51
-0.408035 2.840709 0.205399 0.025910 -0.979795 -0.198319 51 51 51
-0.000161 2.903822 -0.053125 0.025910 -0.979795 -0.198319 51 51 51
-0.376097 2.945410 0.524358 -0.479431 -0.818453 0.316671 51 51 51
-0.408035 2.840709 0.205399 -0.479431 -0.818453 0.316671 51 51 51
-0.223202 2.867589 0.554704 -0.479431 -0.818453 0.316671 51 51 51
-0.070086 2.869455 -0.787344 -0.095482 0.008255 -0.995397 51 51 51
-0.214707 3.135606 -0.771264 -0.095482 0.008255 -0.995397 51 51 51
0.028152 3.030928 -0.795428 -0.095482 0.008255 -0.995397 51 51 51
-0.611640 3.385926 -0.008471 -0.705659 0.608861 0.362400 51 51 51
-0.404416 3.383640 0.398873 -0.705659 0.608861 0.362400 51 51 51
-0.449634 3.510246 0.098116 -0.705659 0.608861 0.362400 51 51 51
0.584531 3.321395 0.398634 0.468469 0.304213 0.829452 51 51 51
0.317150 3.236941 0.580624 0.468469 0.304213 0.829452 51 51 51
0.557899 3.007895 0.528656 0.468469 0.304213 0.829452 51 51 51
0.584531 3.321395 0.398634 0.588257 0.789625 0.174489 51 51 51
0.718510 3.310137 -0.002107 0.588257 0.789625 0.174489 51 51 51
0.383793 3.556554 0.011209 0.588257 0.789625 0.174489 51 51 51
0.203472 2.822732 0.374106 -0.208532 -0.974269 -0.085527 51 51 51
-0.000161 2.903822 -0.053125 -0.208532 -0.974269 -0.085527 51 51 51
0.468704 2.793493 0.060482 -0.208532 -0.974269 -0.085527 51 51 51
-0.186672 2.745132 -0.574892 -0.030446 -0.855310 -0.517221 51 51 51
-0.070086 2.869455 -0.787344 -0.030446 -0.855310 -0.517221 51 51 51
-0.010827 2.763447 -0.615530 -0.030446 -0.855310 -0.517221 51 51 51
-0.051482 -0.037578 -0.028336 -0.029864 -0.005049 -0.999541 0 0 0
-0.056887 2.403141 -0.040504 -0.029864 -0.005049 -0.999541 0 0 0
0.012389 0.988734 -0.035429 -0.029864 -0.005049 -0.999541 0 0 0
-0.051110 -0.037578 0.026020 -0.985496 -0.006954 -0.169555 0 0 0
-0.064371 2.351166 0.005129 -0.985496 -0.006954 -0.169555 0 0 0
-0.056887 2.403141 -0.040504 -0.985496 -0.006954 -0.169555 0 0 0
0.012389 0.988734 -0.035429 0.999968 -0.003098 0.007303 0 0 0
0.016828 2.405376 -0.042238 0.999968 -0.003098 0.007303 0 0 0
0.016451 2.402624 0.008203 0.999968 -0.003098 0.007303 0 0 0
-0.051110 -0.037578 0.026020 -0.599983 0.008014 0.799973 0 0 0
-0.008066 -0.037606 0.058303 -0.599983 0.008014 0.799973 0 0 0
-0.017471 2.344465 0.027387 -0.599983 0.008014 0.799973 0 0 0
0.044792 -0.037658 0.033651 0.473025 0.014680 0.880927 0 0 0
0.016451 2.402624 0.008203 0.473025 0.014680 0.880927 0 0 0
-0.017471 2.344465 0.027387 0.473025 0.014680 0.880927 0 0 0
0.012389 0.988734 -0.035429 0.680360 -0.005655 -0.732857 0 0 0
-0.004340 2.431308 -0.062089 0.680360 -0.005655 -0.732857 0 0 0
0.016828 2.405376 -0.042238 0.680360 -0.005655 -0.732857 0 0 0
-0.055537 2.414579 -0.004272 -0.996983 0.064300 -0.043483 0 0 0
-0.019895 2.983080 0.019184 -0.996983 0.064300 -0.043483 0 0 0
-0.016796 2.982954 -0.052049 -0.996983 0.064300 -0.043483 0 0 0
-0.004340 2.431308 -0.062089 0.725413 0.028897 -0.687707 0 0 0
-0.016796 2.982954 -0.052049 0.725413 0.028897 -0.687707 0 0 0
0.029791 2.983061 -0.002903 0.725413 0.028897 -0.687707 0 0 0
-0.004340 2.431308 -0.062089 -0.747968 -0.004809 -0.663718 0 0 0
-0.055537 2.414579 -0.004272 -0.747968 -0.004809 -0.663718 0 0 0
-0.016796 2.982954 -0.052049 -0.747968 -0.004809 -0.663718 0 0 0
-0.019406 2.414078 0.021482 0.079517 -0.638498 0.765505 0 0 0
0.016451 2.402624 0.008203 0.079517 -0.638498 0.765505 0 0 0
0.325160 2.619446 0.156984 0.079517 -0.638498 0.765505 0 0 0
-0.019406 2.414078 0.021482 -0.579144 0.722340 0.377911 0 0 0
0.325160 2.619446 0.156984 -0.579144 0.722340 0.377911 0 0 0
0.313881 2.633582 0.112680 -0.579144 0.722340 0.377911 0 0 0
0.325160 2.619446 0.156984 -0.845572 0.451332 0.285144 0 0 0
0.502378 2.900345 0.237896 -0.845572 0.451332 0.285144 0 0 0
0.489027 2.908195 0.185881 -0.845572 0.451332 0.285144 0 0 0
0.016451 2.402624 0.008203 0.522728 -0.851437 -0.042544 0 0 0
0.016828 2.405376 -0.042238 0.522728 -0.851437 -0.042544 0 0 0
0.338427 2.596030 0.093588 0.522728 -0.851437 -0.042544 0 0 0
-0.004340 2.431308 -0.062089 0.134916 0.517716 -0.844848 0 0 0
0.313881 2.633582 0.112680 0.134916 0.517716 -0.844848 0 0 0
0.338427 2.596030 0.093588 0.134916 0.517716 -0.844848 0 0 0
0.313881 2.633582 0.112680 0.111184 0.189153 -0.975633 0 0 0
0.489027 2.908195 0.185881 0.111184 0.189153 -0.975633 0 0 0
0.519429 2.881907 0.184249 0.111184 0.189153 -0.975633 0 0 0
0.325160 2.619446 0.156984 0.729384 -0.577908 0.366089 0 0 0
0.338427 2.596030 0.093588 0.729384 -0.577908 0.366089 0 0 0
0.519429 2.881907 0.184249 0.729384 -0.577908 0.366089 0 0 0
-0.056887 2.403141 -0.040504 0.122910 -0.880456 -0.457919 0 0 0
-0.200510 2.529592 -0.322184 0.122910 -0.880456 -0.457919 0 0 0
-0.137506 2.545357 -0.335586 0.122910 -0.880456 -0.457919 0 0 0
-0.056887 2.403141 -0.040504 -0.834461 -0.515822 0.193915 0 0 0
-0.055537 2.414579 -0.004272 -0.834461 -0.515822 0.193915 0 0 0
-0.200510 2.529592 -0.322184 -0.834461 -0.515822 0.193915 0 0 0
-0.173915 2.562773 -0.291749 -0.108478 0.383378 0.917199 0 0 0
-0.176204 2.933341 -0.446913 -0.108478 0.383378 0.917199 0 0 0
-0.205881 2.937026 -0.451963 -0.108478 0.383378 0.917199 0 0 0
-0.004340 2.431308 -0.062089 0.523212 0.846520 0.098249 0 0 0
-0.137506 2.545357 -0.335586 0.523212 0.846520 0.098249 0 0 0
-0.173915 2.562773 -0.291749 0.523212 0.846520 0.098249 0 0 0
-0.137506 2.545357 -0.335586 0.994124 0.077456 -0.075624 0 0 0
-0.180760 2.935271 -0.504833 0.994124 0.077456 -0.075624 0 0 0
-0.176204 2.933341 -0.446913 0.994124 0.077456 -0.075624 0 0 0
-0.137506 2.545357 -0.335586 -0.092140 -0.405060 -0.909635 0 0 0
-0.200510 2.529592 -0.322184 -0.092140 -0.405060 -0.909635 0 0 0
-0.180760 2.935271 -0.504833 -0.092140 -0.405060 -0.909635 0 0 0
-0.019406 2.414078 0.021482 0.427601 0.687837 -0.586548 0 0 0
-0.055537 2.414579 -0.004272 0.427601 0.687837 -0.586548 0 0 0
-0.145893 2.672699 0.232552 0.427601 0.687837 -0.586548 0 0 0
-0.055537 2.414579 -0.004272 -0.831769 0.033731 -0.554097 0 0 0
-0.064371 2.351166 0.005129 -0.831769 0.033731 -0.554097 0 0 0
-0.195953 2.627850 0.219494 -0.831769 0.033731 -0.554097 0 0 0
-0.154505 2.653160 0.274178 0.977316 0.018682 0.210959 0 0 0
-0.145893 2.672699 0.232552 0.977316 0.018682 0.210959 0 0 0
-0.199943 2.976174 0.456074 0.977316 0.018682 0.210959 0 0 0
-0.017471 2.344465 0.027387 -0.404347 -0.673871 0.618386 0 0 0
-0.154505 2.653160 0.274178 -0.404347 -0.673871 0.618386 0 0 0
-0.195953 2.627850 0.219494 -0.404347 -0.673871 0.618386 0 0 0
-0.019406 2.414078 0.021482 0.931213 0.215613 0.293859 0 0 0
-0.145893 2.672699 0.232552 0.931213 0.215613 0.293859 0 0 0
-0.154505 2.653160 0.274178 0.931213 0.215613 0.293859 0 0 0
-0.195953 2.627850 0.219494 -0.970772 -0.011678 -0.239720 0 0 0
-0.262722 2.971155 0.473156 -0.970772 -0.011678 -0.239720 0 0 0
-0.251612 2.985840 0.427448 -0.970772 -0.011678 -0.239720 0 0 0
-0.199970 3.125595 0.663032 -0.447855 -0.227671 0.864634 51 51 51
-0.389824 3.173510 0.577310 -0.447855 -0.227671 0.864634 51 51 51
-0.376097 2.945410 0.524358 -0.447855 -0.227671 0.864634 51 51 51
0.161682 3.464074 -0.427079 0.130840 0.934122 -0.332110 51 51 51
-0.221264 3.535287 -0.377647 0.130840 0.934122 -0.332110 51 51 51
-0.025296 3.637954 -0.011672 0.130840 0.934122 -0.332110 51 51 51
-0.445724 3.183705 -0.474290 -0.529769 -0.117248 -0.839998 51 51 51
-0.404393 2.926767 -0.464493 -0.529769 -0.117248 -0.839998 51 51 51
-0.707112 3.084764 -0.295628 -0.529769 -0.117248 -0.839998 51 51 51
3 0 1 2
3 3 4 5
3 6 7 8
3 9 10 11
3 12 13 14
3 15 16 17
3 18 19 20
3 21 22 23
3 24 25 26
3 27 28 29
3 30 31 32
3 33 34 35
3 36 37 38
3 39 40 41
3 42 43 44
3 45 46 47
3 48 49 50
3 51 52 53
3 54 55 56
3 57 58 59
3 60 61 62
3 63 64 65
3 66 67 68
3 69 70 71
3 72 73 74
3 75 76 77
3 78 79 80
3 81 82 83
3 84 85 86
3 87 88 89
3 90 91 92
3 93 94 95
3 96 97 98
3 99 100 101
3 102 103 104
3 105 106 107
3 108 109 110
3 111 112 113
3 114 115 116
3 117 118 119
3 120 121 122
3 123 124 125
3 126 127 128
3 129 130 131
3 132 133 134
3 135 136 137
3 138 139 140
3 141 142 143
3 144 145 146
3 147 148 149
3 150 151 152
3 153 154 155
3 156 157 158
3 159 160 161
3 162 163 164
3 165 166 167
3 168 169 170
3 171 172 173
3 174 175 176
3 177 178 179
3 180 181 182
3 183 184 185
3 186 187 188
3 189 190 191
3 192 193 194
3 195 196 197
3 198 199 200
3 201 202 203
3 204 205 206
3 207 208 209
3 210 211 212
3 213 214 215
3 216 217 218
3 219 220 221
3 222 223 224
3 225 226 227
3 228 229 230
3 231 232 233
3 234 235 236
3 237 238 239
3 240 241 242
3 243 244 245
3 246 247 248
3 249 250 251
3 252 253 254
3 255 256 257
3 258 259 260
3 261 262 263
3 264 265 266
3 267 268 269
3 270 271 272
3 273 274 275
3 276 277 278
3 279 280 281
3 282 283 284
3 285 286 287
3 288 289 290
3 291 292 293
3 294 295 296
3 297 298 299
3 300 301 302
3 303 304 305
3 306 307 308
3 309 310 311
3 312 313 314
3 315 316 317
3 318 319 320
3 321 322 323
3 324 325 326
3 327 328 329
3 330 331 332
3 333 334 335
3 336 337 338
3 339 340 341
3 342 343 344
3 345 346 347
3 348 349 350
3 351 352 353
3 354 355 356
3 357 358 359
3 360 361 362
3 363 364 365
3 366 367 368
3 369 370 371
3 372 373 374
3 375 376 377
3 378 379 380
3 381 382 383
3 384 385 386
3 387 388 389
3 390 391 392
3 393 394 395
3 396 397 398
3 399 400 401
3 402 403 404
3 405 406 407
3 408 409 410
3 411 412 413
3 414 415 416
3 417 418 419
3 420 421 422
3 423 424 425
3 426 427 428
3 429 430 431
3 432 433 434
3 435 436 437
3 438 439 440
3 441 442 443
3 444 445 446
3 447 448 449
3 450 451 452
3 453 454 455
3 456 457 458
3 459 460 461
3 462 463 464
3 465 466 467
3 468 469 470
3 471 472 473
3 474 475 476
3 477 478 479
3 480 481 482
3 483 484 485
3 486 487 488
