ply
format ascii 1.0
comment Created by Blender 2.77 (sub 0) - www.blender.org, source file: ''
element vertex 636
property float x
property float y
property float z
property float nx
property float ny
property float nz
property uchar red
property uchar green
property uchar blue
element face 212
property list uchar uint vertex_indices
end_header
-0.083960 1.546610 0.634128 0.285896 0.387834 0.876270 51 51 51
0.153621 1.450381 0.599204 0.285896 0.387834 0.876270 51 51 51
0.136494 1.627248 0.526511 0.285896 0.387834 0.876270 51 51 51
-0.283741 1.849541 0.143180 -0.014149 0.971775 0.235484 51 51 51
-0.032634 1.801679 0.355782 -0.014149 0.971775 0.235484 51 51 51
-0.168991 1.896085 -0.042000 -0.014149 0.971775 0.235484 51 51 51
0.148576 1.827556 0.080767 0.719840 0.625645 0.300664 51 51 51
0.136494 1.627248 0.526511 0.719840 0.625645 0.300664 51 51 51
0.272792 1.569190 0.321001 0.719840 0.625645 0.300664 51 51 51
0.344269 1.464189 0.351197 0.657720 0.195163 0.727541 51 51 51
0.482296 1.488487 0.219898 0.657720 0.195163 0.727541 51 51 51
0.478368 1.563406 0.203352 0.657720 0.195163 0.727541 51 51 51
-0.238823 1.391622 -0.567365 -0.013294 -0.804381 -0.593965 51 51 51
-0.370547 1.333715 -0.485996 -0.013294 -0.804381 -0.593965 51 51 51
-0.467996 1.446272 -0.636246 -0.013294 -0.804381 -0.593965 51 51 51
-0.370547 1.333715 -0.485996 -0.015813 -0.805128 -0.592891 51 51 51
-0.627329 1.199433 -0.296797 -0.015813 -0.805128 -0.592891 51 51 51
-0.467996 1.446272 -0.636246 -0.015813 -0.805128 -0.592891 51 51 51
-0.448553 1.240595 -0.244325 0.124224 -0.974189 0.188478 51 51 51
-0.303831 1.251122 -0.285300 0.124224 -0.974189 0.188478 51 51 51
-0.490948 1.298492 0.082871 0.124224 -0.974189 0.188478 51 51 51
-0.303831 1.251122 -0.285300 -0.293710 -0.903629 0.311751 51 51 51
-0.067389 1.177845 -0.274939 -0.293710 -0.903629 0.311751 51 51 51
-0.072689 1.273289 -0.003281 -0.293710 -0.903629 0.311751 51 51 51
0.101720 1.349263 0.486026 -0.025983 -0.986380 0.162415 51 51 51
-0.490948 1.298492 0.082871 -0.025983 -0.986380 0.162415 51 51 51
-0.072689 1.273289 -0.003281 -0.025983 -0.986380 0.162415 51 51 51
-0.223135 1.352277 0.389255 -0.296467 -0.862310 0.410522 51 51 51
-0.433108 1.426416 0.393350 -0.296467 -0.862310 0.410522 51 51 51
-0.490948 1.298492 0.082871 -0.296467 -0.862310 0.410522 51 51 51
-0.577031 1.353890 0.173566 -0.882648 -0.299370 0.362367 51 51 51
-0.598784 1.531991 0.267719 -0.882648 -0.299370 0.362367 51 51 51
-0.654383 1.448830 0.063588 -0.882648 -0.299370 0.362367 51 51 51
-0.448553 1.240595 -0.244325 0.678289 -0.647516 0.347342 51 51 51
-0.681234 1.198683 0.131921 0.678289 -0.647516 0.347342 51 51 51
-0.648022 1.154120 -0.016009 0.678289 -0.647516 0.347342 51 51 51
-0.577031 1.353890 0.173566 0.453165 -0.501914 0.736698 51 51 51
-0.681234 1.198683 0.131921 0.453165 -0.501914 0.736698 51 51 51
-0.490948 1.298492 0.082871 0.453165 -0.501914 0.736698 51 51 51
-0.654383 1.448830 0.063588 -0.792679 0.238365 0.561107 51 51 51
-0.769740 1.264922 -0.021252 -0.792679 0.238365 0.561107 51 51 51
-0.681234 1.198683 0.131921 -0.792679 0.238365 0.561107 51 51 51
-0.448553 1.240595 -0.244325 0.288828 -0.920940 -0.261627 51 51 51
-0.627329 1.199433 -0.296797 0.288828 -0.920940 -0.261627 51 51 51
-0.370547 1.333715 -0.485996 0.288828 -0.920940 -0.261627 51 51 51
-0.531046 1.497315 -0.618057 -0.534836 -0.394344 -0.747290 51 51 51
-0.467996 1.446272 -0.636246 -0.534836 -0.394344 -0.747290 51 51 51
-0.641592 1.415951 -0.496003 -0.534836 -0.394344 -0.747290 51 51 51
-0.531046 1.497315 -0.618057 -0.702759 0.689007 -0.177196 51 51 51
-0.641592 1.415951 -0.496003 -0.702759 0.689007 -0.177196 51 51 51
-0.492798 1.609623 -0.333050 -0.702759 0.689007 -0.177196 51 51 51
-0.334350 1.780518 -0.254294 -0.162959 0.734885 -0.658323 51 51 51
-0.108034 1.833645 -0.251010 -0.162959 0.734885 -0.658323 51 51 51
-0.268602 1.635022 -0.432986 -0.162959 0.734885 -0.658323 51 51 51
-0.268602 1.635022 -0.432986 -0.078089 0.974419 -0.210734 51 51 51
0.095501 1.678020 -0.369087 -0.078089 0.974419 -0.210734 51 51 51
0.054227 1.627827 -0.585883 -0.078089 0.974419 -0.210734 51 51 51
0.424067 1.600029 -0.186572 0.444532 0.833872 -0.327184 51 51 51
0.220374 1.603773 -0.453779 0.444532 0.833872 -0.327184 51 51 51
0.241886 1.725257 -0.114934 0.444532 0.833872 -0.327184 51 51 51
-0.133287 1.192365 -0.608030 0.103065 -0.914504 -0.391228 51 51 51
-0.014757 1.299798 -0.827932 0.103065 -0.914504 -0.391228 51 51 51
0.283476 1.299482 -0.748626 0.103065 -0.914504 -0.391228 51 51 51
0.283476 1.299482 -0.748626 0.809081 0.105496 -0.578151 51 51 51
0.261157 1.407196 -0.760204 0.809081 0.105496 -0.578151 51 51 51
0.399763 1.377207 -0.571707 0.809081 0.105496 -0.578151 51 51 51
-0.133287 1.192365 -0.608030 -0.333235 -0.763803 -0.552774 51 51 51
-0.237739 1.290444 -0.680584 -0.333235 -0.763803 -0.552774 51 51 51
-0.014757 1.299798 -0.827932 -0.333235 -0.763803 -0.552774 51 51 51
-0.237739 1.290444 -0.680584 -0.551928 0.076468 -0.830379 51 51 51
0.014837 1.390856 -0.839217 -0.551928 0.076468 -0.830379 51 51 51
-0.014757 1.299798 -0.827932 -0.551928 0.076468 -0.830379 51 51 51
0.220374 1.603773 -0.453779 0.583669 0.494519 -0.644036 51 51 51
0.198657 1.475629 -0.571855 0.583669 0.494519 -0.644036 51 51 51
0.054227 1.627827 -0.585883 0.583669 0.494519 -0.644036 51 51 51
0.220374 1.603773 -0.453779 0.902945 0.198293 -0.381274 51 51 51
0.331044 1.437692 -0.278061 0.902945 0.198293 -0.381274 51 51 51
0.198657 1.475629 -0.571855 0.902945 0.198293 -0.381274 51 51 51
0.331044 1.437692 -0.278061 0.965451 0.018807 0.259904 51 51 51
0.272691 1.354892 -0.055306 0.965451 0.018807 0.259904 51 51 51
0.380755 1.275410 -0.450976 0.965451 0.018807 0.259904 51 51 51
0.331044 1.437692 -0.278061 0.974379 0.071120 0.213374 51 51 51
0.380755 1.275410 -0.450976 0.974379 0.071120 0.213374 51 51 51
0.399763 1.377207 -0.571707 0.974379 0.071120 0.213374 51 51 51
0.424067 1.600029 -0.186572 0.789487 -0.112328 -0.603401 51 51 51
0.331044 1.437692 -0.278061 0.789487 -0.112328 -0.603401 51 51 51
0.220374 1.603773 -0.453779 0.789487 -0.112328 -0.603401 51 51 51
0.478368 1.563406 0.203352 0.990483 0.021924 -0.135877 51 51 51
0.482296 1.488487 0.219898 0.990483 0.021924 -0.135877 51 51 51
0.424067 1.600029 -0.186572 0.990483 0.021924 -0.135877 51 51 51
0.095501 1.678020 -0.369087 0.300404 0.891634 -0.338743 51 51 51
0.241886 1.725257 -0.114934 0.300404 0.891634 -0.338743 51 51 51
0.220374 1.603773 -0.453779 0.300404 0.891634 -0.338743 51 51 51
0.084409 1.847517 -0.120782 0.557786 0.696893 -0.450794 51 51 51
0.241886 1.725257 -0.114934 0.557786 0.696893 -0.450794 51 51 51
0.095501 1.678020 -0.369087 0.557786 0.696893 -0.450794 51 51 51
0.084409 1.847517 -0.120782 0.104386 0.960862 -0.256607 51 51 51
-0.108034 1.833645 -0.251010 0.104386 0.960862 -0.256607 51 51 51
-0.168991 1.896085 -0.042000 0.104386 0.960862 -0.256607 51 51 51
-0.143507 1.558452 -0.577315 -0.174185 0.384505 -0.906540 50 50 50
0.054227 1.627827 -0.585883 -0.174185 0.384505 -0.906540 51 51 51
0.011702 1.454837 -0.651085 -0.174185 0.384505 -0.906540 51 51 51
-0.143507 1.558452 -0.577315 0.037889 0.376636 -0.925586 50 50 50
-0.467996 1.446272 -0.636246 0.037889 0.376636 -0.925586 51 51 51
-0.531046 1.497315 -0.618057 0.037889 0.376636 -0.925586 51 51 51
-0.448553 1.240595 -0.244325 -0.037148 -0.928400 -0.369719 51 51 51
-0.370547 1.333715 -0.485996 -0.037148 -0.928400 -0.369719 51 51 51
-0.303831 1.251122 -0.285300 -0.037148 -0.928400 -0.369719 51 51 51
-0.370547 1.333715 -0.485996 -0.365101 -0.369937 -0.854311 51 51 51
-0.238823 1.391622 -0.567365 -0.365101 -0.369937 -0.854311 51 51 51
-0.289120 1.259075 -0.488474 -0.365101 -0.369937 -0.854311 51 51 51
-0.237739 1.290444 -0.680584 -0.948586 0.231446 -0.215913 51 51 51
-0.289120 1.259075 -0.488474 -0.948586 0.231446 -0.215913 51 51 51
-0.238823 1.391622 -0.567365 -0.948586 0.231446 -0.215913 51 51 51
0.331044 1.437692 -0.278061 0.637680 -0.761515 -0.116012 51 51 51
0.482296 1.488487 0.219898 0.637680 -0.761515 -0.116012 51 51 51
0.272691 1.354892 -0.055306 0.637680 -0.761515 -0.116012 51 51 51
0.153621 1.450381 0.599204 0.630955 0.578251 0.517224 51 51 51
0.344269 1.464189 0.351197 0.630955 0.578251 0.517224 51 51 51
0.272792 1.569190 0.321001 0.630955 0.578251 0.517224 51 51 51
-0.283741 1.849541 0.143180 -0.417514 0.908160 -0.030458 51 51 51
-0.168991 1.896085 -0.042000 -0.417514 0.908160 -0.030458 51 51 51
-0.517394 1.737170 -0.004474 -0.417514 0.908160 -0.030458 51 51 51
-0.334350 1.780518 -0.254294 -0.210651 0.918108 -0.335714 51 51 51
-0.168991 1.896085 -0.042000 -0.210651 0.918108 -0.335714 51 51 51
-0.108034 1.833645 -0.251010 -0.210651 0.918108 -0.335714 51 51 51
-0.737717 1.191790 -0.145088 -0.966335 0.012052 -0.257006 51 51 51
-0.769740 1.264922 -0.021252 -0.966335 0.012052 -0.257006 51 51 51
-0.641592 1.415951 -0.496003 -0.966335 0.012052 -0.257006 51 51 51
-0.517394 1.737170 -0.004474 -0.744695 0.620721 0.245222 51 51 51
-0.598784 1.531991 0.267719 -0.744695 0.620721 0.245222 51 51 51
-0.430925 1.740773 0.248995 -0.744695 0.620721 0.245222 51 51 51
-0.083960 1.546610 0.634128 -0.278464 0.733127 0.620470 51 51 51
-0.032634 1.801679 0.355782 -0.278464 0.733127 0.620470 51 51 51
-0.430925 1.740773 0.248995 -0.278464 0.733127 0.620470 51 51 51
-0.065024 1.375917 0.582994 -0.304870 -0.883129 0.356564 51 51 51
-0.433108 1.426416 0.393350 -0.304870 -0.883129 0.356564 51 51 51
-0.223135 1.352277 0.389255 -0.304870 -0.883129 0.356564 51 51 51
-0.083960 1.546610 0.634128 0.065392 0.729649 0.680688 51 51 51
0.136494 1.627248 0.526511 0.065392 0.729649 0.680688 51 51 51
-0.032634 1.801679 0.355782 0.065392 0.729649 0.680688 51 51 51
-0.032634 1.801679 0.355782 0.454309 0.807900 0.375368 51 51 51
0.136494 1.627248 0.526511 0.454309 0.807900 0.375368 51 51 51
0.148576 1.827556 0.080767 0.454309 0.807900 0.375368 51 51 51
0.241886 1.725257 -0.114934 0.842232 0.523750 0.127795 51 51 51
0.148576 1.827556 0.080767 0.842232 0.523750 0.127795 51 51 51
0.272792 1.569190 0.321001 0.842232 0.523750 0.127795 51 51 51
0.101720 1.349263 0.486026 0.238759 -0.968879 0.065333 51 51 51
-0.072689 1.273289 -0.003281 0.238759 -0.968879 0.065333 51 51 51
0.272691 1.354892 -0.055306 0.238759 -0.968879 0.065333 51 51 51
-0.517394 1.737170 -0.004474 -0.508766 0.845613 0.161541 51 51 51
-0.430925 1.740773 0.248995 -0.508766 0.845613 0.161541 51 51 51
-0.283741 1.849541 0.143180 -0.508766 0.845613 0.161541 51 51 51
-0.467996 1.446272 -0.636246 0.239738 -0.193708 -0.951316 51 51 51
-0.143507 1.558452 -0.577315 0.239738 -0.193708 -0.951316 50 50 50
-0.238823 1.391622 -0.567365 0.239738 -0.193708 -0.951316 51 51 51
0.101720 1.349263 0.486026 0.414940 -0.901676 0.121675 51 51 51
0.272691 1.354892 -0.055306 0.414940 -0.901676 0.121675 51 51 51
0.482296 1.488487 0.219898 0.414940 -0.901676 0.121675 51 51 51
0.272691 1.354892 -0.055306 0.268084 -0.867481 0.419055 51 51 51
-0.072689 1.273289 -0.003281 0.268084 -0.867481 0.419055 51 51 51
0.208512 1.192755 -0.349887 0.268084 -0.867481 0.419055 51 51 51
0.095501 1.678020 -0.369087 0.300442 0.793959 -0.528548 51 51 51
-0.108034 1.833645 -0.251010 0.300442 0.793959 -0.528548 51 51 51
0.084409 1.847517 -0.120782 0.300442 0.793959 -0.528548 51 51 51
-0.241238 1.011546 -0.028350 0.412367 -0.845418 0.339444 51 51 51
-0.447258 0.877815 -0.111140 0.412367 -0.845418 0.339444 51 51 51
-0.188451 0.970013 -0.195920 0.412367 -0.845418 0.339444 51 51 51
-0.247281 1.000761 -0.265662 0.704336 -0.198349 -0.681592 51 51 51
-0.188451 0.970013 -0.195920 0.704336 -0.198349 -0.681592 51 51 51
-0.307264 0.867976 -0.289005 0.704336 -0.198349 -0.681592 51 51 51
-0.447258 0.877815 -0.111140 -0.756153 -0.104153 0.646053 51 51 51
-0.394429 1.079468 -0.016799 -0.756153 -0.104153 0.646053 51 51 51
-0.506139 0.951053 -0.168249 -0.756153 -0.104153 0.646053 51 51 51
-0.447258 0.877815 -0.111140 -0.842060 -0.468319 0.267604 51 51 51
-0.506139 0.951053 -0.168249 -0.842060 -0.468319 0.267604 51 51 51
-0.481322 0.848417 -0.269776 -0.842060 -0.468319 0.267604 51 51 51
-0.188451 0.970013 -0.195920 0.911218 0.361522 0.197443 51 51 51
-0.257130 1.087884 -0.094783 0.911218 0.361522 0.197443 51 51 51
-0.241238 1.011546 -0.028350 0.911218 0.361522 0.197443 51 51 51
-0.072689 1.273289 -0.003281 0.140254 -0.933279 0.330635 51 51 51
-0.067389 1.177845 -0.274939 0.140254 -0.933279 0.330635 51 51 51
0.208512 1.192755 -0.349887 0.140254 -0.933279 0.330635 51 51 51
-0.334350 1.780518 -0.254294 -0.369823 0.649194 -0.664664 51 51 51
-0.268602 1.635022 -0.432986 -0.369823 0.649194 -0.664664 51 51 51
-0.492798 1.609623 -0.333050 -0.369823 0.649194 -0.664664 51 51 51
0.380755 1.275410 -0.450976 0.335222 -0.923941 -0.184280 51 51 51
0.208512 1.192755 -0.349887 0.335222 -0.923941 -0.184280 51 51 51
0.283476 1.299482 -0.748626 0.335222 -0.923941 -0.184280 51 51 51
-0.065024 1.375917 0.582994 -0.469082 -0.300784 0.830356 51 51 51
-0.083960 1.546610 0.634128 -0.469082 -0.300784 0.830356 51 51 51
-0.433108 1.426416 0.393350 -0.469082 -0.300784 0.830356 51 51 51
-0.517394 1.737170 -0.004474 -0.423764 0.892296 -0.155665 51 51 51
-0.168991 1.896085 -0.042000 -0.423764 0.892296 -0.155665 51 51 51
-0.334350 1.780518 -0.254294 -0.423764 0.892296 -0.155665 51 51 51
0.148576 1.827556 0.080767 0.198284 0.979559 0.033886 51 51 51
0.084409 1.847517 -0.120782 0.198284 0.979559 0.033886 51 51 51
-0.168991 1.896085 -0.042000 0.198284 0.979559 0.033886 51 51 51
-0.431204 0.865853 -0.329969 -0.633938 0.523315 -0.569442 51 51 51
-0.506139 0.951053 -0.168249 -0.633938 0.523315 -0.569442 51 51 51
-0.381260 1.037495 -0.227832 -0.633938 0.523315 -0.569442 51 51 51
-0.447258 0.877815 -0.111140 0.417595 -0.827878 0.374477 51 51 51
-0.307264 0.867976 -0.289005 0.417595 -0.827878 0.374477 51 51 51
-0.188451 0.970013 -0.195920 0.417595 -0.827878 0.374477 51 51 51
-0.257130 1.087884 -0.094783 0.693436 0.657291 -0.295153 51 51 51
-0.188451 0.970013 -0.195920 0.693436 0.657291 -0.295153 51 51 51
-0.247281 1.000761 -0.265662 0.693436 0.657291 -0.295153 51 51 51
-0.648022 1.154120 -0.016009 -0.164938 -0.971722 -0.168971 51 51 51
-0.737717 1.191790 -0.145088 -0.164938 -0.971722 -0.168971 51 51 51
-0.627329 1.199433 -0.296797 -0.164938 -0.971722 -0.168971 51 51 51
-0.490948 1.298492 0.082871 0.496362 -0.841523 0.213222 51 51 51
-0.681234 1.198683 0.131921 0.496362 -0.841523 0.213222 51 51 51
-0.448553 1.240595 -0.244325 0.496362 -0.841523 0.213222 51 51 51
-0.737717 1.191790 -0.145088 -0.676968 -0.521991 -0.518883 51 51 51
-0.641592 1.415951 -0.496003 -0.676968 -0.521991 -0.518883 51 51 51
-0.627329 1.199433 -0.296797 -0.676968 -0.521991 -0.518883 51 51 51
-0.065024 1.375917 0.582994 0.220208 -0.775417 0.591808 51 51 51
0.101720 1.349263 0.486026 0.220208 -0.775417 0.591808 51 51 51
0.153621 1.450381 0.599204 0.220208 -0.775417 0.591808 51 51 51
-0.133287 1.192365 -0.608030 -0.549234 -0.788877 -0.275709 51 51 51
-0.289120 1.259075 -0.488474 -0.549234 -0.788877 -0.275709 51 51 51
-0.237739 1.290444 -0.680584 -0.549234 -0.788877 -0.275709 51 51 51
0.261157 1.407196 -0.760204 0.432704 0.883879 -0.177556 51 51 51
0.198657 1.475629 -0.571855 0.432704 0.883879 -0.177556 51 51 51
0.399763 1.377207 -0.571707 0.432704 0.883879 -0.177556 51 51 51
0.014837 1.390856 -0.839217 0.030931 0.946452 -0.321359 51 51 51
0.011702 1.454837 -0.651085 0.030931 0.946452 -0.321359 51 51 51
0.198657 1.475629 -0.571855 0.030931 0.946452 -0.321359 51 51 51
-0.268602 1.635022 -0.432986 -0.281579 0.724926 -0.628645 51 51 51
0.054227 1.627827 -0.585883 -0.281579 0.724926 -0.628645 51 51 51
-0.143507 1.558452 -0.577315 -0.281579 0.724926 -0.628645 50 50 50
0.399763 1.377207 -0.571707 0.804101 -0.510820 -0.304112 51 51 51
0.380755 1.275410 -0.450976 0.804101 -0.510820 -0.304112 51 51 51
0.283476 1.299482 -0.748626 0.804101 -0.510820 -0.304112 51 51 51
0.054227 1.627827 -0.585883 0.353605 0.252544 -0.900658 51 51 51
0.198657 1.475629 -0.571855 0.353605 0.252544 -0.900658 51 51 51
0.011702 1.454837 -0.651085 0.353605 0.252544 -0.900658 51 51 51
-0.083960 1.546610 0.634128 0.025751 -0.284248 0.958405 51 51 51
-0.065024 1.375917 0.582994 0.025751 -0.284248 0.958405 51 51 51
0.153621 1.450381 0.599204 0.025751 -0.284248 0.958405 51 51 51
-0.598784 1.531991 0.267719 -0.895394 0.440596 0.064382 51 51 51
-0.517394 1.737170 -0.004474 -0.895394 0.440596 0.064382 51 51 51
-0.654383 1.448830 0.063588 -0.895394 0.440596 0.064382 51 51 51
-0.492798 1.609623 -0.333050 -0.614063 0.719175 -0.325137 51 51 51
-0.517394 1.737170 -0.004474 -0.614063 0.719175 -0.325137 51 51 51
-0.334350 1.780518 -0.254294 -0.614063 0.719175 -0.325137 51 51 51
0.272792 1.569190 0.321001 0.437796 0.510794 0.739882 51 51 51
0.344269 1.464189 0.351197 0.437796 0.510794 0.739882 51 51 51
0.478368 1.563406 0.203352 0.437796 0.510794 0.739882 51 51 51
-0.067389 1.177845 -0.274939 -0.296664 -0.954829 0.017069 51 51 51
-0.303831 1.251122 -0.285300 -0.296664 -0.954829 0.017069 51 51 51
-0.133287 1.192365 -0.608030 -0.296664 -0.954829 0.017069 51 51 51
-0.303831 1.251122 -0.285300 -0.435462 -0.897735 -0.066673 51 51 51
-0.289120 1.259075 -0.488474 -0.435462 -0.897735 -0.066673 51 51 51
-0.133287 1.192365 -0.608030 -0.435462 -0.897735 -0.066673 51 51 51
-0.303831 1.251122 -0.285300 -0.674962 -0.733761 -0.077595 51 51 51
-0.370547 1.333715 -0.485996 -0.674962 -0.733761 -0.077595 51 51 51
-0.289120 1.259075 -0.488474 -0.674962 -0.733761 -0.077595 51 51 51
-0.490948 1.298492 0.082871 -0.037452 -0.993361 0.108775 51 51 51
-0.303831 1.251122 -0.285300 -0.037452 -0.993361 0.108775 51 51 51
-0.072689 1.273289 -0.003281 -0.037452 -0.993361 0.108775 51 51 51
-0.433108 1.426416 0.393350 -0.157970 -0.902272 0.401186 51 51 51
-0.577031 1.353890 0.173566 -0.157970 -0.902272 0.401186 51 51 51
-0.490948 1.298492 0.082871 -0.157970 -0.902272 0.401186 51 51 51
-0.083960 1.546610 0.634128 -0.517753 0.479794 0.708329 51 51 51
-0.430925 1.740773 0.248995 -0.517753 0.479794 0.708329 51 51 51
-0.598784 1.531991 0.267719 -0.517753 0.479794 0.708329 51 51 51
0.153621 1.450381 0.599204 0.562765 -0.727707 0.392093 51 51 51
0.101720 1.349263 0.486026 0.562765 -0.727707 0.392093 51 51 51
0.344269 1.464189 0.351197 0.562765 -0.727707 0.392093 51 51 51
-0.433108 1.426416 0.393350 -0.701718 -0.398071 0.590873 51 51 51
-0.598784 1.531991 0.267719 -0.701718 -0.398071 0.590873 51 51 51
-0.577031 1.353890 0.173566 -0.701718 -0.398071 0.590873 51 51 51
-0.769740 1.264922 -0.021252 -0.673151 -0.736126 0.070621 51 51 51
-0.648022 1.154120 -0.016009 -0.673151 -0.736126 0.070621 51 51 51
-0.681234 1.198683 0.131921 -0.673151 -0.736126 0.070621 51 51 51
-0.627329 1.199433 -0.296797 -0.418690 -0.629655 -0.654396 51 51 51
-0.641592 1.415951 -0.496003 -0.418690 -0.629655 -0.654396 51 51 51
-0.467996 1.446272 -0.636246 -0.418690 -0.629655 -0.654396 51 51 51
-0.492798 1.609623 -0.333050 -0.248659 0.912069 -0.326034 51 51 51
-0.268602 1.635022 -0.432986 -0.248659 0.912069 -0.326034 51 51 51
-0.531046 1.497315 -0.618057 -0.248659 0.912069 -0.326034 51 51 51
-0.268602 1.635022 -0.432986 0.056433 0.649271 -0.758460 51 51 51
-0.108034 1.833645 -0.251010 0.056433 0.649271 -0.758460 51 51 51
0.095501 1.678020 -0.369087 0.056433 0.649271 -0.758460 51 51 51
0.220374 1.603773 -0.453779 0.347529 0.896806 -0.273794 51 51 51
0.054227 1.627827 -0.585883 0.347529 0.896806 -0.273794 51 51 51
0.095501 1.678020 -0.369087 0.347529 0.896806 -0.273794 51 51 51
0.014837 1.390856 -0.839217 0.042816 0.943500 -0.328595 51 51 51
0.198657 1.475629 -0.571855 0.042816 0.943500 -0.328595 51 51 51
0.261157 1.407196 -0.760204 0.042816 0.943500 -0.328595 51 51 51
0.208512 1.192755 -0.349887 0.170780 -0.959352 -0.224673 51 51 51
-0.133287 1.192365 -0.608030 0.170780 -0.959352 -0.224673 51 51 51
0.283476 1.299482 -0.748626 0.170780 -0.959352 -0.224673 51 51 51
-0.237739 1.290444 -0.680584 -0.582143 0.603496 -0.544887 51 51 51
-0.238823 1.391622 -0.567365 -0.582143 0.603496 -0.544887 51 51 51
0.014837 1.390856 -0.839217 -0.582143 0.603496 -0.544887 51 51 51
-0.238823 1.391622 -0.567365 -0.328478 0.892533 -0.309010 51 51 51
0.011702 1.454837 -0.651085 -0.328478 0.892533 -0.309010 51 51 51
0.014837 1.390856 -0.839217 -0.328478 0.892533 -0.309010 51 51 51
-0.492798 1.609623 -0.333050 -0.819707 0.562940 -0.105727 51 51 51
-0.769740 1.264922 -0.021252 -0.819707 0.562940 -0.105727 51 51 51
-0.654383 1.448830 0.063588 -0.819707 0.562940 -0.105727 51 51 51
0.261157 1.407196 -0.760204 0.307529 -0.038478 -0.950760 51 51 51
0.283476 1.299482 -0.748626 0.307529 -0.038478 -0.950760 51 51 51
0.014837 1.390856 -0.839217 0.307529 -0.038478 -0.950760 51 51 51
0.331044 1.437692 -0.278061 0.438157 0.895165 -0.081849 51 51 51
0.399763 1.377207 -0.571707 0.438157 0.895165 -0.081849 51 51 51
0.198657 1.475629 -0.571855 0.438157 0.895165 -0.081849 51 51 51
0.272691 1.354892 -0.055306 0.552020 -0.775441 0.306537 51 51 51
0.208512 1.192755 -0.349887 0.552020 -0.775441 0.306537 51 51 51
0.380755 1.275410 -0.450976 0.552020 -0.775441 0.306537 51 51 51
0.424067 1.600029 -0.186572 0.894605 -0.381413 -0.232824 51 51 51
0.482296 1.488487 0.219898 0.894605 -0.381413 -0.232824 51 51 51
0.331044 1.437692 -0.278061 0.894605 -0.381413 -0.232824 51 51 51
0.241886 1.725257 -0.114934 0.566086 0.824345 -0.001410 51 51 51
0.478368 1.563406 0.203352 0.566086 0.824345 -0.001410 51 51 51
0.424067 1.600029 -0.186572 0.566086 0.824345 -0.001410 51 51 51
0.084409 1.847517 -0.120782 0.611729 0.782326 -0.117276 51 51 51
0.148576 1.827556 0.080767 0.611729 0.782326 -0.117276 51 51 51
0.241886 1.725257 -0.114934 0.611729 0.782326 -0.117276 51 51 51
0.482296 1.488487 0.219898 0.580500 -0.650410 0.489884 51 51 51
0.344269 1.464189 0.351197 0.580500 -0.650410 0.489884 51 51 51
0.101720 1.349263 0.486026 0.580500 -0.650410 0.489884 51 51 51
-0.307264 0.867976 -0.289005 -0.197204 0.255472 -0.946491 51 51 51
-0.381260 1.037495 -0.227832 -0.197204 0.255472 -0.946491 51 51 51
-0.247281 1.000761 -0.265662 -0.197204 0.255472 -0.946491 51 51 51
-0.448553 1.240595 -0.244325 0.259816 -0.956153 -0.135156 51 51 51
-0.648022 1.154120 -0.016009 0.259816 -0.956153 -0.135156 51 51 51
-0.627329 1.199433 -0.296797 0.259816 -0.956153 -0.135156 51 51 51
-0.283741 1.849541 0.143180 -0.259199 0.830461 0.493103 51 51 51
-0.430925 1.740773 0.248995 -0.259199 0.830461 0.493103 51 51 51
-0.032634 1.801679 0.355782 -0.259199 0.830461 0.493103 51 51 51
0.136494 1.627248 0.526511 0.835038 0.276389 0.475732 51 51 51
0.153621 1.450381 0.599204 0.835038 0.276389 0.475732 51 51 51
0.272792 1.569190 0.321001 0.835038 0.276389 0.475732 51 51 51
-0.681234 1.198683 0.131921 -0.668363 0.261923 0.696195 51 51 51
-0.577031 1.353890 0.173566 -0.668363 0.261923 0.696195 51 51 51
-0.654383 1.448830 0.063588 -0.668363 0.261923 0.696195 51 51 51
0.272792 1.569190 0.321001 0.207272 0.925610 0.316678 51 51 51
0.478368 1.563406 0.203352 0.207272 0.925610 0.316678 51 51 51
0.241886 1.725257 -0.114934 0.207272 0.925610 0.316678 51 51 51
-0.433108 1.426416 0.393350 -0.579984 0.056860 0.812641 51 51 51
-0.083960 1.546610 0.634128 -0.579984 0.056860 0.812641 51 51 51
-0.598784 1.531991 0.267719 -0.579984 0.056860 0.812641 51 51 51
-0.065024 1.375917 0.582994 -0.059312 -0.983922 0.168463 51 51 51
-0.223135 1.352277 0.389255 -0.059312 -0.983922 0.168463 51 51 51
0.101720 1.349263 0.486026 -0.059312 -0.983922 0.168463 51 51 51
-0.394429 1.079468 -0.016799 0.341757 0.656424 0.672540 51 51 51
-0.241238 1.011546 -0.028350 0.341757 0.656424 0.672540 51 51 51
-0.257130 1.087884 -0.094783 0.341757 0.656424 0.672540 51 51 51
-0.257130 1.087884 -0.094783 0.117472 0.887444 -0.445694 51 51 51
-0.247281 1.000761 -0.265662 0.117472 0.887444 -0.445694 51 51 51
-0.381260 1.037495 -0.227832 0.117472 0.887444 -0.445694 51 51 51
-0.381260 1.037495 -0.227832 -0.174105 0.963674 -0.202533 51 51 51
-0.394429 1.079468 -0.016799 -0.174105 0.963674 -0.202533 51 51 51
-0.257130 1.087884 -0.094783 -0.174105 0.963674 -0.202533 51 51 51
-0.431204 0.865853 -0.329969 0.411706 -0.907814 0.079827 51 51 51
-0.447258 0.877815 -0.111140 0.411706 -0.907814 0.079827 51 51 51
-0.481322 0.848417 -0.269776 0.411706 -0.907814 0.079827 51 51 51
-0.133287 1.192365 -0.608030 0.039964 -0.997878 -0.051405 51 51 51
0.208512 1.192755 -0.349887 0.039964 -0.997878 -0.051405 51 51 51
-0.067389 1.177845 -0.274939 0.039964 -0.997878 -0.051405 51 51 51
-0.394429 1.079468 -0.016799 -0.107766 -0.397988 0.911039 51 51 51
-0.447258 0.877815 -0.111140 -0.107766 -0.397988 0.911039 51 51 51
-0.241238 1.011546 -0.028350 -0.107766 -0.397988 0.911039 51 51 51
-0.506139 0.951053 -0.168249 -0.618507 0.762405 -0.190234 51 51 51
-0.394429 1.079468 -0.016799 -0.618507 0.762405 -0.190234 51 51 51
-0.381260 1.037495 -0.227832 -0.618507 0.762405 -0.190234 51 51 51
-0.481322 0.848417 -0.269776 -0.767693 0.347178 -0.538623 51 51 51
-0.506139 0.951053 -0.168249 -0.767693 0.347178 -0.538623 51 51 51
-0.431204 0.865853 -0.329969 -0.767693 0.347178 -0.538623 51 51 51
-0.223135 1.352277 0.389255 -0.080533 -0.967373 0.240215 51 51 51
-0.490948 1.298492 0.082871 -0.080533 -0.967373 0.240215 51 51 51
0.101720 1.349263 0.486026 -0.080533 -0.967373 0.240215 51 51 51
-0.168991 1.896085 -0.042000 0.139157 0.973165 0.183262 51 51 51
-0.032634 1.801679 0.355782 0.139157 0.973165 0.183262 51 51 51
0.148576 1.827556 0.080767 0.139157 0.973165 0.183262 51 51 51
-0.654383 1.448830 0.063588 -0.900937 0.377520 -0.213987 51 51 51
-0.517394 1.737170 -0.004474 -0.900937 0.377520 -0.213987 51 51 51
-0.492798 1.609623 -0.333050 -0.900937 0.377520 -0.213987 51 51 51
-0.238823 1.391622 -0.567365 -0.345833 0.142274 -0.927447 51 51 51
-0.143507 1.558452 -0.577315 -0.345833 0.142274 -0.927447 50 50 50
0.011702 1.454837 -0.651085 -0.345833 0.142274 -0.927447 51 51 51
0.049319 0.322357 -0.053419 -0.887327 -0.221057 -0.404703 0 0 0
-0.007124 0.435145 0.008727 -0.887327 -0.221057 -0.404703 0 0 0
0.014444 0.544842 -0.098480 -0.887327 -0.221057 -0.404703 0 0 0
0.012794 0.873253 -0.114807 0.974653 0.086955 -0.206130 0 0 0
0.023837 0.901018 -0.050875 0.974653 0.086955 -0.206130 0 0 0
0.080363 0.376081 -0.005046 0.974653 0.086955 -0.206130 0 0 0
0.014444 0.544842 -0.098480 0.709295 -0.031446 -0.704210 0 0 0
0.012794 0.873253 -0.114807 0.709295 -0.031446 -0.704210 0 0 0
0.049319 0.322357 -0.053419 0.709295 -0.031446 -0.704210 0 0 0
0.014444 0.544842 -0.098480 -0.641746 -0.141108 -0.753824 0 0 0
-0.052407 0.847565 -0.098234 -0.641746 -0.141108 -0.753824 0 0 0
-0.030745 0.904330 -0.127302 -0.641746 -0.141108 -0.753824 0 0 0
-0.007124 0.435145 0.008727 -0.386263 0.077157 0.919156 0 0 0
-0.005319 0.879285 -0.027798 -0.386263 0.077157 0.919156 0 0 0
-0.052843 0.838838 -0.044374 -0.386263 0.077157 0.919156 0 0 0
0.044754 0.317722 0.040717 0.542889 0.149239 0.826438 0 0 0
0.023837 0.901018 -0.050875 0.542889 0.149239 0.826438 0 0 0
-0.005319 0.879285 -0.027798 0.542889 0.149239 0.826438 0 0 0
0.025456 -0.048827 -0.045556 0.975699 -0.107897 -0.190708 0 0 0
0.080363 0.376081 -0.005046 0.975699 -0.107897 -0.190708 0 0 0
0.039591 -0.048955 0.026833 0.975699 -0.107897 -0.190708 0 0 0
0.039591 -0.048955 0.026833 0.411274 -0.040270 0.910622 0 0 0
0.044754 0.317722 0.040717 0.411274 -0.040270 0.910622 0 0 0
-0.008168 -0.049013 0.048401 0.411274 -0.040270 0.910622 0 0 0
-0.049725 -0.048905 -0.007872 -0.448094 0.009872 -0.893932 0 0 0
0.049319 0.322357 -0.053419 -0.448094 0.009872 -0.893932 0 0 0
0.025456 -0.048827 -0.045556 -0.448094 0.009872 -0.893932 0 0 0
-0.008168 -0.049013 0.048401 -0.803355 0.050356 0.593367 0 0 0
-0.007124 0.435145 0.008727 -0.803355 0.050356 0.593367 0 0 0
-0.049725 -0.048905 -0.007872 -0.803355 0.050356 0.593367 0 0 0
-0.030745 0.904330 -0.127302 -0.245283 -0.637328 -0.730513 0 0 0
0.105273 0.978577 -0.237748 -0.245283 -0.637328 -0.730513 0 0 0
0.012794 0.873253 -0.114807 -0.245283 -0.637328 -0.730513 0 0 0
-0.063533 0.896023 -0.073086 -0.637312 -0.244286 0.730860 0 0 0
-0.067306 1.127334 0.000938 -0.637312 -0.244286 0.730860 0 0 0
-0.122248 1.140023 -0.042730 -0.637312 -0.244286 0.730860 0 0 0
0.012109 0.954496 -0.092744 0.929742 0.274551 -0.245359 0 0 0
-0.120919 1.463115 -0.027697 0.929742 0.274551 -0.245359 0 0 0
-0.031748 1.167297 -0.020812 0.929742 0.274551 -0.245359 0 0 0
-0.067306 1.127334 0.000938 -0.416035 -0.867955 0.271235 0 0 0
-0.075988 1.202226 0.227276 -0.416035 -0.867955 0.271235 0 0 0
-0.122248 1.140023 -0.042730 -0.416035 -0.867955 0.271235 0 0 0
-0.120919 1.463115 -0.027697 0.794985 0.217349 -0.566355 0 0 0
-0.127824 1.377434 -0.070272 0.794985 0.217349 -0.566355 0 0 0
-0.261378 1.767672 -0.107978 0.794985 0.217349 -0.566355 0 0 0
-0.122248 1.140023 -0.042730 -0.729370 -0.193270 0.656252 0 0 0
-0.155876 1.440536 0.008398 -0.729370 -0.193270 0.656252 0 0 0
-0.192793 1.434952 -0.034276 -0.729370 -0.193270 0.656252 0 0 0
-0.120919 1.463115 -0.027697 0.498395 0.170021 0.850115 0 0 0
-0.075254 1.165557 0.005042 0.498395 0.170021 0.850115 0 0 0
-0.031748 1.167297 -0.020812 0.498395 0.170021 0.850115 0 0 0
-0.127824 1.377434 -0.070272 0.706369 0.268509 -0.654939 0 0 0
-0.120919 1.463115 -0.027697 0.706369 0.268509 -0.654939 0 0 0
0.012109 0.954496 -0.092744 0.706369 0.268509 -0.654939 0 0 0
-0.127824 1.377434 -0.070272 -0.647127 -0.289613 -0.705231 0 0 0
-0.192793 1.434952 -0.034276 -0.647127 -0.289613 -0.705231 0 0 0
-0.261378 1.767672 -0.107978 -0.647127 -0.289613 -0.705231 0 0 0
-0.192793 1.434952 -0.034276 -0.755550 -0.010654 0.655004 0 0 0
-0.155876 1.440536 0.008398 -0.755550 -0.010654 0.655004 0 0 0
-0.261378 1.767672 -0.107978 -0.755550 -0.010654 0.655004 0 0 0
-0.155876 1.440536 0.008398 0.499903 0.428890 0.752429 0 0 0
-0.120919 1.463115 -0.027697 0.499903 0.428890 0.752429 0 0 0
-0.261378 1.767672 -0.107978 0.499903 0.428890 0.752429 0 0 0
0.058104 1.019374 -0.242092 -0.443023 -0.584589 -0.679696 0 0 0
0.043208 1.228278 -0.412055 -0.443023 -0.584589 -0.679696 0 0 0
0.105273 0.978577 -0.237748 -0.443023 -0.584589 -0.679696 0 0 0
0.023837 0.901018 -0.050875 0.886595 -0.408603 0.216778 0 0 0
0.105273 0.978577 -0.237748 0.886595 -0.408603 0.216778 0 0 0
0.118654 1.024685 -0.205567 0.886595 -0.408603 0.216778 0 0 0
0.012109 0.954496 -0.092744 -0.772422 0.633999 0.037532 0 0 0
0.058104 1.019374 -0.242092 -0.772422 0.633999 0.037532 0 0 0
-0.030745 0.904330 -0.127302 -0.772422 0.633999 0.037532 0 0 0
0.105273 0.978577 -0.237748 0.938038 -0.031369 -0.345109 0 0 0
0.067460 1.235229 -0.363855 0.938038 -0.031369 -0.345109 0 0 0
0.118654 1.024685 -0.205567 0.938038 -0.031369 -0.345109 0 0 0
0.058104 1.019374 -0.242092 -0.214488 0.486918 0.846703 0 0 0
0.067460 1.235229 -0.363855 -0.214488 0.486918 0.846703 0 0 0
0.005138 1.291599 -0.412060 -0.214488 0.486918 0.846703 0 0 0
0.067460 1.235229 -0.363855 0.764867 0.459822 -0.451157 0 0 0
0.043208 1.228278 -0.412055 0.764867 0.459822 -0.451157 0 0 0
0.005138 1.291599 -0.412060 0.764867 0.459822 -0.451157 0 0 0
-0.075254 1.165557 0.005042 0.948535 0.221538 -0.226278 0 0 0
-0.043087 1.231474 0.204420 0.948535 0.221538 -0.226278 0 0 0
-0.067306 1.127334 0.000938 0.948535 0.221538 -0.226278 0 0 0
-0.043087 1.231474 0.204420 0.335473 0.578740 -0.743316 0 0 0
-0.104109 1.245796 0.188031 0.335473 0.578740 -0.743316 0 0 0
0.007520 1.565110 0.487026 0.335473 0.578740 -0.743316 0 0 0
-0.075254 1.165557 0.005042 0.300931 0.889916 -0.342769 0 0 0
-0.104109 1.245796 0.188031 0.300931 0.889916 -0.342769 0 0 0
-0.043087 1.231474 0.204420 0.300931 0.889916 -0.342769 0 0 0
-0.075988 1.202226 0.227276 0.747442 -0.491737 0.446682 0 0 0
-0.043087 1.231474 0.204420 0.747442 -0.491737 0.446682 0 0 0
0.007520 1.565110 0.487026 0.747442 -0.491737 0.446682 0 0 0
-0.104109 1.245796 0.188031 -0.870996 -0.137228 0.471736 0 0 0
-0.075988 1.202226 0.227276 -0.870996 -0.137228 0.471736 0 0 0
0.007520 1.565110 0.487026 -0.870996 -0.137228 0.471736 0 0 0
-0.052407 0.847565 -0.098234 -0.327899 -0.944701 0.004627 0 0 0
-0.333409 0.944914 -0.135892 -0.327899 -0.944701 0.004627 0 0 0
-0.282070 0.926847 -0.186403 -0.327899 -0.944701 0.004627 0 0 0
-0.052407 0.847565 -0.098234 0.549553 0.480769 -0.683267 0 0 0
-0.250025 0.968309 -0.172219 0.549553 0.480769 -0.683267 0 0 0
-0.063533 0.896023 -0.073086 0.549553 0.480769 -0.683267 0 0 0
-0.250025 0.968309 -0.172219 0.534331 0.844042 0.045644 0 0 0
-0.401481 1.059588 -0.087105 0.534331 0.844042 0.045644 0 0 0
-0.231629 0.953296 -0.109950 0.534331 0.844042 0.045644 0 0 0
-0.063533 0.896023 -0.073086 -0.046160 0.441331 0.896156 0 0 0
-0.231629 0.953296 -0.109950 -0.046160 0.441331 0.896156 0 0 0
-0.052843 0.838838 -0.044374 -0.046160 0.441331 0.896156 0 0 0
-0.282070 0.926847 -0.186403 -0.687404 -0.511329 -0.515770 0 0 0
-0.333409 0.944914 -0.135892 -0.687404 -0.511329 -0.515770 0 0 0
-0.654381 1.300458 -0.060592 -0.687404 -0.511329 -0.515770 0 0 0
-0.333409 0.944914 -0.135892 -0.468496 -0.566515 0.677918 0 0 0
-0.401481 1.059588 -0.087105 -0.468496 -0.566515 0.677918 0 0 0
-0.654381 1.300458 -0.060592 -0.468496 -0.566515 0.677918 0 0 0
-0.401481 1.059588 -0.087105 0.634137 0.614090 0.469855 0 0 0
-0.250025 0.968309 -0.172219 0.634137 0.614090 0.469855 0 0 0
-0.654381 1.300458 -0.060592 0.634137 0.614090 0.469855 0 0 0
-0.250025 0.968309 -0.172219 0.002873 0.321705 -0.946836 0 0 0
-0.282070 0.926847 -0.186403 0.002873 0.321705 -0.946836 0 0 0
-0.654381 1.300458 -0.060592 0.002873 0.321705 -0.946836 0 0 0
-0.030745 0.904330 -0.127302 -0.858277 0.066992 -0.508795 0 0 0
-0.052407 0.847565 -0.098234 -0.858277 0.066992 -0.508795 0 0 0
-0.063533 0.896023 -0.073086 -0.858277 0.066992 -0.508795 0 0 0
0.012109 0.954496 -0.092744 0.978573 0.205577 -0.011536 0 0 0
-0.031748 1.167297 -0.020812 0.978573 0.205577 -0.011536 0 0 0
0.023837 0.901018 -0.050875 0.978573 0.205577 -0.011536 0 0 0
0.023837 0.901018 -0.050875 0.593937 0.055443 0.802599 0 0 0
-0.067306 1.127334 0.000938 0.593937 0.055443 0.802599 0 0 0
-0.005319 0.879285 -0.027798 0.593937 0.055443 0.802599 0 0 0
-0.031748 1.167297 -0.020812 0.510410 0.013820 0.859820 0 0 0
-0.075254 1.165557 0.005042 0.510410 0.013820 0.859820 0 0 0
-0.067306 1.127334 0.000938 0.510410 0.013820 0.859820 0 0 0
-0.127824 1.377434 -0.070272 -0.553706 -0.108779 -0.825577 0 0 0
-0.122248 1.140023 -0.042730 -0.553706 -0.108779 -0.825577 0 0 0
-0.192793 1.434952 -0.034276 -0.553706 -0.108779 -0.825577 0 0 0
-0.769740 1.264922 -0.021252 -0.657716 -0.710701 0.249628 51 51 51
-0.737717 1.191790 -0.145088 -0.657716 -0.710701 0.249628 51 51 51
-0.648022 1.154120 -0.016009 -0.657716 -0.710701 0.249628 51 51 51
-0.143507 1.558452 -0.577315 -0.079487 0.850422 -0.520062 50 50 50
-0.531046 1.497315 -0.618057 -0.079487 0.850422 -0.520062 51 51 51
-0.268602 1.635022 -0.432986 -0.079487 0.850422 -0.520062 51 51 51
0.283476 1.299482 -0.748626 0.251645 -0.199156 -0.947107 51 51 51
-0.014757 1.299798 -0.827932 0.251645 -0.199156 -0.947107 51 51 51
0.014837 1.390856 -0.839217 0.251645 -0.199156 -0.947107 51 51 51
-0.492798 1.609623 -0.333050 -0.786409 0.617503 -0.015831 51 51 51
-0.641592 1.415951 -0.496003 -0.786409 0.617503 -0.015831 51 51 51
-0.769740 1.264922 -0.021252 -0.786409 0.617503 -0.015831 51 51 51
-0.307264 0.867976 -0.289005 0.276558 0.430723 -0.859065 51 51 51
-0.431204 0.865853 -0.329969 0.276558 0.430723 -0.859065 51 51 51
-0.381260 1.037495 -0.227832 0.276558 0.430723 -0.859065 51 51 51
-0.431204 0.865853 -0.329969 -0.000915 -0.998513 0.054514 51 51 51
-0.307264 0.867976 -0.289005 -0.000915 -0.998513 0.054514 51 51 51
-0.447258 0.877815 -0.111140 -0.000915 -0.998513 0.054514 51 51 51
0.049319 0.322357 -0.053419 -0.657509 0.083544 -0.748801 0 0 0
-0.049725 -0.048905 -0.007872 -0.657509 0.083544 -0.748801 0 0 0
-0.007124 0.435145 0.008727 -0.657509 0.083544 -0.748801 0 0 0
0.049319 0.322357 -0.053419 0.843558 -0.003914 -0.537024 0 0 0
0.012794 0.873253 -0.114807 0.843558 -0.003914 -0.537024 0 0 0
0.080363 0.376081 -0.005046 0.843558 -0.003914 -0.537024 0 0 0
0.014444 0.544842 -0.098480 -0.901390 -0.198746 -0.384703 0 0 0
-0.007124 0.435145 0.008727 -0.901390 -0.198746 -0.384703 0 0 0
-0.052407 0.847565 -0.098234 -0.901390 -0.198746 -0.384703 0 0 0
-0.007124 0.435145 0.008727 -0.391210 0.077006 0.917074 0 0 0
0.044754 0.317722 0.040717 -0.391210 0.077006 0.917074 0 0 0
-0.005319 0.879285 -0.027798 -0.391210 0.077006 0.917074 0 0 0
0.044754 0.317722 0.040717 0.690035 0.136360 0.710814 0 0 0
0.080363 0.376081 -0.005046 0.690035 0.136360 0.710814 0 0 0
0.023837 0.901018 -0.050875 0.690035 0.136360 0.710814 0 0 0
0.014444 0.544842 -0.098480 0.244450 -0.046923 -0.968526 0 0 0
-0.030745 0.904330 -0.127302 0.244450 -0.046923 -0.968526 0 0 0
0.012794 0.873253 -0.114807 0.244450 -0.046923 -0.968526 0 0 0
-0.052407 0.847565 -0.098234 -0.992890 -0.115975 -0.026819 0 0 0
-0.007124 0.435145 0.008727 -0.992890 -0.115975 -0.026819 0 0 0
-0.052843 0.838838 -0.044374 -0.992890 -0.115975 -0.026819 0 0 0
0.025456 -0.048827 -0.045556 0.871601 -0.066321 -0.485710 0 0 0
0.049319 0.322357 -0.053419 0.871601 -0.066321 -0.485710 0 0 0
0.080363 0.376081 -0.005046 0.871601 -0.066321 -0.485710 0 0 0
0.039591 -0.048955 0.026833 0.809098 -0.033607 0.586712 0 0 0
0.080363 0.376081 -0.005046 0.809098 -0.033607 0.586712 0 0 0
0.044754 0.317722 0.040717 0.809098 -0.033607 0.586712 0 0 0
-0.008168 -0.049013 0.048401 -0.393170 0.075936 0.916325 0 0 0
0.044754 0.317722 0.040717 -0.393170 0.075936 0.916325 0 0 0
-0.007124 0.435145 0.008727 -0.393170 0.075936 0.916325 0 0 0
-0.030745 0.904330 -0.127302 -0.362644 -0.502832 -0.784633 0 0 0
0.058104 1.019374 -0.242092 -0.362644 -0.502832 -0.784633 0 0 0
0.105273 0.978577 -0.237748 -0.362644 -0.502832 -0.784633 0 0 0
-0.063533 0.896023 -0.073086 -0.738773 -0.094760 -0.667260 0 0 0
-0.122248 1.140023 -0.042730 -0.738773 -0.094760 -0.667260 0 0 0
-0.127824 1.377434 -0.070272 -0.738773 -0.094760 -0.667260 0 0 0
-0.127824 1.377434 -0.070272 -0.843022 -0.109504 -0.526614 0 0 0
-0.030745 0.904330 -0.127302 -0.843022 -0.109504 -0.526614 0 0 0
-0.063533 0.896023 -0.073086 -0.843022 -0.109504 -0.526614 0 0 0
-0.063533 0.896023 -0.073086 -0.638210 -0.244073 0.730148 0 0 0
-0.005319 0.879285 -0.027798 -0.638210 -0.244073 0.730148 0 0 0
-0.067306 1.127334 0.000938 -0.638210 -0.244073 0.730148 0 0 0
-0.122248 1.140023 -0.042730 -0.643884 -0.197801 0.739113 0 0 0
-0.075254 1.165557 0.005042 -0.643884 -0.197801 0.739113 0 0 0
-0.155876 1.440536 0.008398 -0.643884 -0.197801 0.739113 0 0 0
-0.120919 1.463115 -0.027697 0.647555 0.180825 0.740254 0 0 0
-0.155876 1.440536 0.008398 0.647555 0.180825 0.740254 0 0 0
-0.075254 1.165557 0.005042 0.647555 0.180825 0.740254 0 0 0
0.012109 0.954496 -0.092744 0.334590 0.625326 0.704994 0 0 0
0.023837 0.901018 -0.050875 0.334590 0.625326 0.704994 0 0 0
0.118654 1.024685 -0.205567 0.334590 0.625326 0.704994 0 0 0
0.058104 1.019374 -0.242092 -0.748311 -0.449933 -0.487433 0 0 0
0.005138 1.291599 -0.412060 -0.748311 -0.449933 -0.487433 0 0 0
0.043208 1.228278 -0.412055 -0.748311 -0.449933 -0.487433 0 0 0
0.023837 0.901018 -0.050875 0.807795 -0.578761 0.111816 0 0 0
0.012794 0.873253 -0.114807 0.807795 -0.578761 0.111816 0 0 0
0.105273 0.978577 -0.237748 0.807795 -0.578761 0.111816 0 0 0
0.012109 0.954496 -0.092744 -0.268696 0.910959 0.312979 0 0 0
0.118654 1.024685 -0.205567 -0.268696 0.910959 0.312979 0 0 0
0.058104 1.019374 -0.242092 -0.268696 0.910959 0.312979 0 0 0
0.105273 0.978577 -0.237748 0.894959 -0.083489 -0.438267 0 0 0
0.043208 1.228278 -0.412055 0.894959 -0.083489 -0.438267 0 0 0
0.067460 1.235229 -0.363855 0.894959 -0.083489 -0.438267 0 0 0
0.058104 1.019374 -0.242092 -0.491042 0.444053 0.749463 0 0 0
0.118654 1.024685 -0.205567 -0.491042 0.444053 0.749463 0 0 0
0.067460 1.235229 -0.363855 -0.491042 0.444053 0.749463 0 0 0
-0.067306 1.127334 0.000938 0.732588 -0.637338 0.238988 0 0 0
-0.043087 1.231474 0.204420 0.732588 -0.637338 0.238988 0 0 0
-0.075988 1.202226 0.227276 0.732588 -0.637338 0.238988 0 0 0
-0.122248 1.140023 -0.042730 -0.899613 -0.365862 0.238415 0 0 0
-0.075988 1.202226 0.227276 -0.899613 -0.365862 0.238415 0 0 0
-0.104109 1.245796 0.188031 -0.899613 -0.365862 0.238415 0 0 0
-0.075254 1.165557 0.005042 -0.076430 0.908656 -0.410490 0 0 0
-0.122248 1.140023 -0.042730 -0.076430 0.908656 -0.410490 0 0 0
-0.104109 1.245796 0.188031 -0.076430 0.908656 -0.410490 0 0 0
-0.052407 0.847565 -0.098234 -0.304830 -0.939754 -0.154731 0 0 0
-0.052843 0.838838 -0.044374 -0.304830 -0.939754 -0.154731 0 0 0
-0.333409 0.944914 -0.135892 -0.304830 -0.939754 -0.154731 0 0 0
-0.052843 0.838838 -0.044374 -0.255688 0.147969 0.955369 0 0 0
-0.231629 0.953296 -0.109950 -0.255688 0.147969 0.955369 0 0 0
-0.333409 0.944914 -0.135892 -0.255688 0.147969 0.955369 0 0 0
-0.052407 0.847565 -0.098234 0.368201 0.033297 -0.929150 0 0 0
-0.282070 0.926847 -0.186403 0.368201 0.033297 -0.929150 0 0 0
-0.250025 0.968309 -0.172219 0.368201 0.033297 -0.929150 0 0 0
-0.063533 0.896023 -0.073086 0.291183 0.946059 0.142073 0 0 0
-0.250025 0.968309 -0.172219 0.291183 0.946059 0.142073 0 0 0
-0.231629 0.953296 -0.109950 0.291183 0.946059 0.142073 0 0 0
-0.231629 0.953296 -0.109950 -0.180640 -0.473893 0.861855 0 0 0
-0.401481 1.059588 -0.087105 -0.180640 -0.473893 0.861855 0 0 0
-0.333409 0.944914 -0.135892 -0.180640 -0.473893 0.861855 0 0 0
-0.005319 0.879285 -0.027798 -0.530948 0.298882 0.792946 0 0 0
-0.063533 0.896023 -0.073086 -0.530948 0.298882 0.792946 0 0 0
-0.052843 0.838838 -0.044374 -0.530948 0.298882 0.792946 0 0 0
-0.030745 0.904330 -0.127302 0.463251 0.199155 -0.863560 0 0 0
-0.127824 1.377434 -0.070272 0.463251 0.199155 -0.863560 0 0 0
0.012109 0.954496 -0.092744 0.463251 0.199155 -0.863560 0 0 0
0.023837 0.901018 -0.050875 0.513350 0.010278 0.858118 0 0 0
-0.031748 1.167297 -0.020812 0.513350 0.010278 0.858118 0 0 0
-0.067306 1.127334 0.000938 0.513350 0.010278 0.858118 0 0 0
3 0 1 2
3 3 4 5
3 6 7 8
3 9 10 11
3 12 13 14
3 15 16 17
3 18 19 20
3 21 22 23
3 24 25 26
3 27 28 29
3 30 31 32
3 33 34 35
3 36 37 38
3 39 40 41
3 42 43 44
3 45 46 47
3 48 49 50
3 51 52 53
3 54 55 56
3 57 58 59
3 60 61 62
3 63 64 65
3 66 67 68
3 69 70 71
3 72 73 74
3 75 76 77
3 78 79 80
3 81 82 83
3 84 85 86
3 87 88 89
3 90 91 92
3 93 94 95
3 96 97 98
3 99 100 101
3 102 103 104
3 105 106 107
3 108 109 110
3 111 112 113
3 114 115 116
3 117 118 119
3 120 121 122
3 123 124 125
3 126 127 128
3 129 130 131
3 132 133 134
3 135 136 137
3 138 139 140
3 141 142 143
3 144 145 146
3 147 148 149
3 150 151 152
3 153 154 155
3 156 157 158
3 159 160 161
3 162 163 164
3 165 166 167
3 168 169 170
3 171 172 173
3 174 175 176
3 177 178 179
3 180 181 182
3 183 184 185
3 186 187 188
3 189 190 191
3 192 193 194
3 195 196 197
3 198 199 200
3 201 202 203
3 204 205 206
3 207 208 209
3 210 211 212
3 213 214 215
3 216 217 218
3 219 220 221
3 222 223 224
3 225 226 227
3 228 229 230
3 231 232 233
3 234 235 236
3 237 238 239
3 240 241 242
3 243 244 245
3 246 247 248
3 249 250 251
3 252 253 254
3 255 256 257
3 258 259 260
3 261 262 263
3 264 265 266
3 267 268 269
3 270 271 272
3 273 274 275
3 276 277 278
3 279 280 281
3 282 283 284
3 285 286 287
3 288 289 290
3 291 292 293
3 294 295 296
3 297 298 299
3 300 301 302
3 303 304 305
3 306 307 308
3 309 310 311
3 312 313 314
3 315 316 317
3 318 319 320
3 321 322 323
3 324 325 326
3 327 328 329
3 330 331 332
3 333 334 335
3 336 337 338
3 339 340 341
3 342 343 344
3 345 346 347
3 348 349 350
3 351 352 353
3 354 355 356
3 357 358 359
3 360 361 362
3 363 364 365
3 366 367 368
3 369 370 371
3 372 373 374
3 375 376 377
3 378 379 380
3 381 382 383
3 384 385 386
3 387 388 389
3 390 391 392
3 393 394 395
3 396 397 398
3 399 400 401
3 402 403 404
3 405 406 407
3 408 409 410
3 411 412 413
3 414 415 416
3 417 418 419
3 420 421 422
3 423 424 425
3 426 427 428
3 429 430 431
3 432 433 434
3 435 436 437
3 438 439 440
3 441 442 443
3 444 445 446
3 447 448 449
3 450 451 452
3 453 454 455
3 456 457 458
3 459 460 461
3 462 463 464
3 465 466 467
3 468 469 470
3 471 472 473
3 474 475 476
3 477 478 479
3 480 481 482
3 483 484 485
3 486 487 488
3 489 490 491
3 492 493 494
3 495 496 497
3 498 499 500
3 501 502 503
3 504 505 506
3 507 508 509
3 510 511 512
3 513 514 515
3 516 517 518
3 519 520 521
3 522 523 524
3 525 526 527
3 528 529 530
3 531 532 533
3 534 535 536
3 537 538 539
3 540 541 542
3 543 544 545
3 546 547 548
3 549 550 551
3 552 553 554
3 555 556 557
3 558 559 560
3 561 562 563
3 564 565 566
3 567 568 569
3 570 571 572
3 573 574 575
3 576 577 578
3 579 580 581
3 582 583 584
3 585 586 587
3 588 589 590
3 591 592 593
3 594 595 596
3 597 598 599
3 600 601 602
3 603 604 605
3 606 607 608
3 609 610 611
3 612 613 614
3 615 616 617
3 618 619 620
3 621 622 623
3 624 625 626
3 627 628 629
3 630 631 632
3 633 634 635
