ply
format ascii 1.0
comment Created by Blender 2.77 (sub 0) - www.blender.org, source file: 'Tradesman0-Collisions.blend'
element vertex 8
property float x
property float y
property float z
property float nx
property float ny
property float nz
element face 12
property list uchar uint vertex_indices
end_header
-6.352225 -0.018928 -0.327177 -0.577349 -0.577349 0.577349
-6.352225 4.401785 -0.658377 -0.577349 0.577349 -0.577349
-6.352225 -0.018928 -0.658376 -0.577349 -0.577349 -0.577349
-6.352225 4.401785 -0.327177 -0.577349 0.577349 0.577349
-6.021025 -0.018928 -0.327177 0.577349 -0.577349 0.577349
-6.021025 4.401785 -0.327177 0.577349 0.577349 0.577349
-6.021025 4.401785 -0.658377 0.577349 0.577349 -0.577349
-6.021025 -0.018928 -0.658376 0.577349 -0.577349 -0.577349
3 0 1 2
3 3 4 5
3 6 2 1
3 3 6 1
3 2 4 0
3 6 4 7
3 0 3 1
3 3 0 4
3 6 7 2
3 3 5 6
3 2 7 4
3 6 5 4
