ply
format ascii 1.0
comment Created by Blender 2.77 (sub 0) - www.blender.org, source file: 'Tradesman0-Colliders.blend'
element vertex 8
property float x
property float y
property float z
property float nx
property float ny
property float nz
element face 12
property list uchar uint vertex_indices
end_header
1.850734 0.864273 3.573624 -0.577349 -0.577349 0.577349
1.927774 0.864273 2.064824 0.577349 -0.577349 -0.577349
1.927774 0.864273 3.573624 0.577349 -0.577349 0.577349
1.850734 1.048273 3.573624 -0.577349 0.577349 0.577349
1.850734 0.864273 2.064824 -0.577349 -0.577349 -0.577349
1.927774 1.048273 2.064824 0.577349 0.577349 -0.577349
1.927774 1.048273 3.573624 0.577349 0.577349 0.577349
1.850734 1.048273 2.064824 -0.577349 0.577349 -0.577349
3 0 1 2
3 3 4 0
3 2 5 6
3 2 3 0
3 6 7 3
3 1 7 5
3 0 4 1
3 3 7 4
3 2 1 5
3 2 6 3
3 6 5 7
3 1 4 7
