ply
format ascii 1.0
comment Created by Blender 2.77 (sub 0) - www.blender.org, source file: 'Tradesman0-Colliders.blend'
element vertex 18
property float x
property float y
property float z
property float nx
property float ny
property float nz
element face 32
property list uchar uint vertex_indices
end_header
7.079774 6.421837 1.731948 0.477371 0.116367 0.870937
7.466174 5.354637 1.126423 0.797174 -0.603717 0.000000
7.466174 6.421837 1.126423 0.992737 0.120182 0.000000
7.079774 5.354637 0.520898 0.379650 -0.613239 -0.692648
6.306974 5.354637 1.731948 -0.379650 -0.613239 0.692648
6.306974 5.354637 0.520898 -0.379650 -0.613239 -0.692648
7.079774 5.354637 1.731948 0.379650 -0.613239 0.692648
6.306974 6.421837 1.731948 -0.477371 0.116367 0.870937
6.269809 7.783437 1.126423 -0.717643 0.696371 0.000000
5.920575 6.421837 1.126423 -0.992737 0.120182 0.000000
7.079774 6.421837 0.520898 0.477371 0.116367 -0.870937
6.468344 7.783437 0.815297 -0.342174 0.702292 -0.624226
6.918405 7.783437 0.815297 0.342174 0.702292 -0.624226
6.306974 6.421837 0.520898 -0.477371 0.116367 -0.870937
7.116940 7.783437 1.126423 0.717643 0.696371 0.000000
5.920575 5.354637 1.126423 -0.797174 -0.603717 0.000000
6.468344 7.783437 1.437548 -0.342174 0.702292 0.624226
6.918405 7.783437 1.437548 0.342174 0.702292 0.624226
3 0 1 2
3 3 4 5
3 6 7 4
3 7 8 9
3 10 11 12
3 8 13 9
3 14 10 12
3 4 9 15
3 0 16 7
3 13 15 9
3 17 11 16
3 0 14 17
3 1 10 2
3 3 13 10
3 0 6 1
3 15 5 4
3 3 1 6
3 6 4 3
3 6 0 7
3 7 16 8
3 10 13 11
3 8 11 13
3 14 2 10
3 4 7 9
3 0 17 16
3 13 5 15
3 8 16 11
3 17 14 12
3 12 11 17
3 0 2 14
3 1 3 10
3 3 5 13
