ply
format ascii 1.0
comment Created by Blender 2.77 (sub 0) - www.blender.org, source file: 'Tradesman0-Colliders.blend'
element vertex 6
property float x
property float y
property float z
property float nx
property float ny
property float nz
element face 8
property list uchar uint vertex_indices
end_header
9.655775 2.817029 -1.486377 -0.356426 -0.854457 -0.377880
11.771774 2.817029 -1.486377 0.750206 -0.642262 -0.156987
6.895774 5.393029 0.997623 -0.789361 -0.282815 0.544847
11.771774 3.185029 -1.486377 0.877712 0.422590 -0.225867
9.655775 3.185029 -1.486377 -0.277810 0.294961 -0.914212
6.895774 5.761029 0.997623 -0.524033 0.774957 0.353221
3 0 1 2
3 3 0 4
3 5 3 4
3 2 4 0
3 3 2 1
3 3 1 0
3 2 5 4
3 3 5 2
