ply
format ascii 1.0
comment Created by Blender 2.77 (sub 0) - www.blender.org, source file: 'Tradesman0-Colliders.blend'
element vertex 8
property float x
property float y
property float z
property float nx
property float ny
property float nz
element face 12
property list uchar uint vertex_indices
end_header
-2.221426 3.310507 4.944423 -0.507248 0.810907 0.291665
-2.074225 3.236907 5.091624 0.361370 0.473922 0.802972
-2.074225 3.071306 3.168824 0.585101 0.534501 -0.609821
-2.221426 3.071306 3.168824 -0.584704 0.533952 -0.610706
-2.074225 0.090506 3.168824 0.577349 -0.577349 -0.577349
-2.221426 0.090506 3.168824 -0.577349 -0.577349 -0.577349
-2.221426 0.090507 4.944424 -0.717277 -0.630238 0.297098
-2.074225 0.090507 5.091624 0.320353 -0.546892 0.773431
3 0 1 2
3 3 0 2
3 3 4 5
3 6 4 7
3 2 7 4
3 3 6 0
3 1 6 7
3 3 2 4
3 6 5 4
3 2 1 7
3 3 5 6
3 1 0 6
