ply
format ascii 1.0
comment Created by Blender 2.77 (sub 0) - www.blender.org, source file: 'Tradesman0-Collisions.blend'
element vertex 10
property float x
property float y
property float z
property float nx
property float ny
property float nz
element face 16
property list uchar uint vertex_indices
end_header
9.158974 -0.055726 8.431225 -0.577349 -0.577349 0.577349
10.686174 -0.055726 7.161624 0.577349 -0.577349 -0.577349
10.686174 -0.055726 8.431225 0.577349 -0.577349 0.577349
9.158974 0.770274 8.431224 -0.728263 0.098361 0.678152
9.158974 -0.055726 7.161624 -0.577349 -0.577349 -0.577349
9.379774 1.572575 8.431224 -0.379528 0.725761 0.573748
10.686174 1.112574 7.161624 0.654561 0.463454 -0.597247
9.379774 1.572574 7.161624 -0.379528 0.725761 -0.573748
9.158974 0.770274 7.161624 -0.728263 0.098361 -0.678152
10.686174 1.112575 8.431224 0.654561 0.463454 0.597247
3 0 1 2
3 3 4 0
3 5 6 7
3 8 5 7
3 2 6 9
3 9 5 3
3 1 8 6
3 0 4 1
3 3 8 4
3 5 9 6
3 8 3 5
3 2 1 6
3 3 0 2
3 2 9 3
3 7 6 8
3 1 4 8
