ply
format ascii 1.0
comment Created by Blender 2.77 (sub 0) - www.blender.org, source file: 'Tradesman0-Collisions.blend'
element vertex 9
property float x
property float y
property float z
property float nx
property float ny
property float nz
element face 14
property list uchar uint vertex_indices
end_header
-5.491699 5.130795 5.597623 0.212043 0.784814 -0.582293
-5.248705 4.650811 5.597623 0.673940 -0.423383 -0.605365
-9.209155 3.214853 5.597624 -0.747673 0.310923 -0.586749
-9.209155 3.214853 5.781624 -0.747673 0.310923 0.586749
-5.248705 4.650811 5.781623 0.727805 -0.307077 0.613147
-5.491699 5.130795 5.781623 0.220679 0.779992 0.585528
-9.073101 2.785252 5.597624 -0.323832 -0.755120 -0.569994
-5.248225 4.748547 5.597623 0.762871 0.246956 -0.597491
-9.073101 2.785252 5.781624 -0.323832 -0.755120 0.569994
3 0 1 2
3 3 4 5
3 4 6 1
3 0 3 5
3 4 1 7
3 2 8 3
3 7 5 4
3 6 2 1
3 0 7 1
3 3 8 4
3 4 8 6
3 0 2 3
3 2 6 8
3 7 0 5
