ply
format ascii 1.0
comment Created by Blender 2.77 (sub 0) - www.blender.org, source file: 'Tradesman0-Colliders.blend'
element vertex 8
property float x
property float y
property float z
property float nx
property float ny
property float nz
element face 12
property list uchar uint vertex_indices
end_header
8.956574 2.645841 7.597728 0.574358 0.220771 0.788232
8.956574 2.763781 6.793624 0.607501 -0.408155 -0.681387
8.956574 3.068279 6.793624 0.555895 0.711509 -0.429762
8.588574 2.764231 6.793624 -0.607959 -0.407453 -0.681387
8.588574 2.645841 7.597728 -0.574358 0.220771 0.788232
8.588574 3.068067 6.793624 -0.556230 0.711142 -0.429884
8.588574 2.409262 7.455577 -0.580004 -0.785302 0.216437
8.956574 2.409262 7.455577 0.579974 -0.785302 0.216498
3 0 1 2
3 3 4 5
3 1 6 3
3 5 0 2
3 4 7 0
3 2 3 5
3 0 7 1
3 3 6 4
3 1 7 6
3 5 4 0
3 4 6 7
3 2 1 3
