ply
format ascii 1.0
comment Created by Blender 2.77 (sub 0) - www.blender.org, source file: 'Tradesman0-Colliders.blend'
element vertex 10
property float x
property float y
property float z
property float nx
property float ny
property float nz
element face 16
property list uchar uint vertex_indices
end_header
-8.560225 3.255306 -0.566377 -0.869167 0.344249 -0.354991
-8.413024 0.090506 -0.419175 -0.297098 -0.630238 0.717277
-8.413024 3.328906 -0.419176 -0.470626 0.537980 0.699301
-2.074225 0.090506 -0.566376 0.773431 -0.546892 -0.320353
-2.221426 0.090506 -0.419175 0.297098 -0.630238 0.717277
-2.074225 3.236906 -0.566377 0.871822 0.337474 -0.354961
-5.229826 4.837706 -0.419176 0.010620 0.784448 0.620075
-8.560225 0.090506 -0.566376 -0.773431 -0.546892 -0.320353
-5.229826 4.837706 -0.566377 0.010620 0.784448 -0.620075
-2.221426 3.310506 -0.419176 0.475204 0.521073 0.708945
3 0 1 2
3 1 3 4
3 5 4 3
3 6 1 4
3 7 0 8
3 8 2 6
3 8 9 5
3 0 7 1
3 1 7 3
3 5 9 4
3 4 9 6
3 6 2 1
3 8 5 3
3 3 7 8
3 8 0 2
3 8 6 9
