ply
format ascii 1.0
comment Created by Blender 2.77 (sub 0) - www.blender.org, source file: 'Tradesman0-Collisions.blend'
element vertex 6
property float x
property float y
property float z
property float nx
property float ny
property float nz
element face 8
property list uchar uint vertex_indices
end_header
11.771774 3.185030 7.437624 0.790338 0.461165 0.403302
6.895774 5.761029 1.365623 -0.237342 0.717490 -0.654866
6.895774 3.185030 7.437624 -0.601428 0.440992 0.666158
6.895774 5.393029 1.365623 -0.306436 -0.360485 -0.880978
6.895774 2.817030 7.437624 -0.559130 -0.691305 0.457656
11.771774 2.817030 7.437624 0.713462 -0.628895 0.308908
3 0 1 2
3 2 3 4
3 0 4 5
3 4 3 5
3 3 0 5
3 2 1 3
3 0 2 4
3 3 1 0
