ply
format ascii 1.0
comment Created by Blender 2.77 (sub 0) - www.blender.org, source file: 'Tradesman0-Collisions.blend'
element vertex 8
property float x
property float y
property float z
property float nx
property float ny
property float nz
element face 12
property list uchar uint vertex_indices
end_header
-8.633826 -0.018928 -0.327177 -0.577349 -0.577349 0.577349
-8.633826 3.297786 -0.658377 -0.577349 0.577349 -0.577349
-8.633826 -0.018928 -0.658376 -0.577349 -0.577349 -0.577349
-8.633826 3.297786 -0.327177 -0.577349 0.577349 0.577349
-8.302626 -0.018928 -0.327177 0.577349 -0.577349 0.577349
-8.302626 3.297786 -0.327177 0.577349 0.577349 0.577349
-8.302626 3.297786 -0.658377 0.577349 0.577349 -0.577349
-8.302626 -0.018928 -0.658376 0.577349 -0.577349 -0.577349
3 0 1 2
3 3 4 5
3 6 2 1
3 3 6 1
3 2 4 0
3 4 6 5
3 0 3 1
3 3 0 4
3 6 7 2
3 3 5 6
3 2 7 4
3 4 7 6
