ply
format ascii 1.0
comment Created by Blender 2.77 (sub 0) - www.blender.org, source file: 'Tradesman0-Collisions.blend'
element vertex 8
property float x
property float y
property float z
property float nx
property float ny
property float nz
element face 12
property list uchar uint vertex_indices
end_header
11.403774 0.091473 3.573624 0.320353 -0.546892 0.773431
11.247643 0.937873 3.417492 -0.717277 0.630238 0.297098
11.247643 0.091473 3.417492 -0.717277 -0.630238 0.297098
11.247643 0.091473 -0.778244 -0.722526 -0.611805 -0.321879
11.403774 0.091473 -0.934376 0.314066 -0.491745 -0.812098
11.247643 0.937872 -0.676776 -0.597125 0.639943 -0.483596
11.403774 0.937872 -0.676776 0.594470 0.646046 -0.478683
11.403774 0.937873 3.573624 0.320353 0.546892 0.773431
3 0 1 2
3 0 3 4
3 2 5 3
3 0 6 7
3 3 5 4
3 5 6 4
3 6 1 7
3 0 7 1
3 0 2 3
3 2 1 5
3 0 4 6
3 6 5 1
