ply
format ascii 1.0
comment Created by Blender 2.77 (sub 0) - www.blender.org, source file: 'Tradesman0-Colliders.blend'
element vertex 6
property float x
property float y
property float z
property float nx
property float ny
property float nz
element face 8
property list uchar uint vertex_indices
end_header
2.111774 1.048274 6.885624 -0.295022 0.629749 -0.718558
2.053994 1.048274 6.943405 -0.773431 0.546892 0.320353
11.443155 1.048274 6.943405 0.843013 0.537828 0.002960
2.053994 0.864274 6.943405 -0.773431 -0.546892 0.320353
11.443155 0.864274 6.943405 0.843013 -0.537828 0.001984
2.111774 0.864274 6.885624 -0.295022 -0.629749 -0.718558
3 0 1 2
3 2 3 4
3 0 4 5
3 5 1 0
3 4 3 5
3 2 1 3
3 0 2 4
3 5 3 1
