ply
format ascii 1.0
comment Created by Blender 2.77 (sub 0) - www.blender.org, source file: 'Tradesman0-Colliders.blend'
element vertex 20
property float x
property float y
property float z
property float nx
property float ny
property float nz
element face 36
property list uchar uint vertex_indices
end_header
4.487674 0.082173 -0.759576 0.627918 -0.656789 -0.417493
4.586574 0.946973 -0.483576 0.769616 0.638447 0.000000
4.586574 0.082173 -0.483576 0.769616 -0.638447 0.000000
4.487674 0.082173 -0.207576 0.543138 -0.619037 0.567248
4.190974 0.946973 -0.115576 0.177679 0.695853 0.695822
4.190974 0.082173 -0.115576 0.177679 -0.695853 0.695822
3.537775 0.946973 -1.449576 0.000000 0.646107 -0.763207
3.834474 0.082173 -1.357576 0.373455 -0.661061 -0.650777
3.537775 0.082173 -1.449576 0.000000 -0.646107 -0.763207
3.241075 0.082173 -1.357576 -0.549333 -0.617573 -0.562853
2.983474 0.082173 -0.023576 -0.543138 -0.619037 0.567248
2.884574 0.946973 -0.299576 -0.768212 0.640126 0.007324
2.884574 0.082173 -0.299576 -0.768212 -0.640126 0.007324
3.280174 0.946973 0.068424 -0.038240 0.655416 0.754265
3.280174 0.082173 0.068424 -0.038240 -0.655416 0.754265
4.487674 0.946973 -0.759576 0.627918 0.656789 -0.417493
3.834474 0.946973 -1.357576 0.373455 0.661061 -0.650777
3.241075 0.946973 -1.357576 -0.549333 0.617573 -0.562853
4.487674 0.946973 -0.207576 0.543138 0.619037 0.567248
2.983474 0.946973 -0.023576 -0.543138 0.619037 0.567248
3 0 1 2
3 1 3 2
3 3 4 5
3 6 7 8
3 9 6 8
3 10 11 12
3 13 10 14
3 15 7 16
3 14 4 13
3 13 4 16
3 5 14 7
3 12 17 9
3 0 15 1
3 1 18 3
3 3 18 4
3 6 16 7
3 9 17 6
3 10 19 11
3 13 19 10
3 15 0 7
3 14 5 4
3 18 1 4
3 15 16 4
3 6 17 16
3 11 19 13
3 13 16 11
3 1 15 4
3 17 11 16
3 12 9 7
3 8 7 9
3 0 2 5
3 3 5 2
3 14 10 12
3 12 7 14
3 0 5 7
3 12 11 17
