ply
format ascii 1.0
comment Created by Blender 2.77 (sub 0) - www.blender.org, source file: 'Tradesman0-Collisions.blend'
element vertex 8
property float x
property float y
property float z
property float nx
property float ny
property float nz
element face 12
property list uchar uint vertex_indices
end_header
3.003906 0.091473 -0.778244 0.320353 -0.546892 0.773431
2.847775 3.072272 -0.934376 -0.724998 0.616627 0.306803
2.847775 0.091473 -0.934376 -0.717277 -0.630238 0.297098
3.003906 3.219471 -6.482244 0.709433 0.643635 -0.287027
2.847775 3.219471 -6.638376 -0.320414 0.553514 -0.768700
2.847775 0.091472 -6.638376 -0.320353 -0.546892 -0.773431
3.003906 0.091472 -6.482244 0.717277 -0.630238 -0.297098
3.003906 3.072272 -0.778245 0.320353 0.540239 0.778130
3 0 1 2
3 1 3 4
3 5 1 4
3 2 6 0
3 6 4 3
3 7 6 3
3 0 7 1
3 1 7 3
3 5 2 1
3 2 5 6
3 6 5 4
3 7 0 6
