ply
format ascii 1.0
comment Created by Blender 2.77 (sub 0) - www.blender.org, source file: 'Tradesman0-Collisions.blend'
element vertex 8
property float x
property float y
property float z
property float nx
property float ny
property float nz
element face 12
property list uchar uint vertex_indices
end_header
-2.074225 2.833073 5.091624 0.577349 -0.577349 -0.577349
-8.560225 3.071307 5.091624 -0.577349 0.577349 -0.577349
-2.074225 3.071307 5.091624 0.577349 0.577349 -0.577349
-2.074225 3.071307 5.422824 0.577349 0.577349 0.577349
-8.560225 2.833073 5.422824 -0.577349 -0.577349 0.577349
-8.560225 3.071307 5.422824 -0.577349 0.577349 0.577349
-8.560225 2.833073 5.091624 -0.577349 -0.577349 -0.577349
-2.074225 2.833073 5.422824 0.577349 -0.577349 0.577349
3 0 1 2
3 3 0 2
3 1 4 5
3 5 2 1
3 6 7 4
3 5 7 3
3 0 6 1
3 3 7 0
3 1 6 4
3 5 3 2
3 6 0 7
3 5 4 7
