ply
format ascii 1.0
comment Created by Blender 2.77 (sub 0) - www.blender.org, source file: 'Tradesman0-Collisions.blend'
element vertex 8
property float x
property float y
property float z
property float nx
property float ny
property float nz
element face 12
property list uchar uint vertex_indices
end_header
8.947140 3.385071 -6.482244 -0.699698 0.658528 -0.276986
9.085413 3.072272 -0.934376 0.732658 0.601123 0.319071
9.103775 3.385071 -6.638376 0.322336 0.560839 -0.762566
8.947140 0.091472 -6.482244 -0.716453 -0.630390 -0.298776
9.103775 0.091472 -6.638376 0.322245 -0.546861 -0.772698
9.085413 0.091473 -0.934376 0.716453 -0.630390 0.298776
8.928778 0.091473 -0.778244 -0.322245 -0.546861 0.772698
8.928778 3.072272 -0.778245 -0.322245 0.532609 0.782586
3 0 1 2
3 3 2 4
3 5 3 4
3 6 1 7
3 3 7 0
3 1 4 2
3 0 7 1
3 3 0 2
3 5 6 3
3 6 5 1
3 3 6 7
3 1 5 4
