ply
format ascii 1.0
comment Created by Blender 2.77 (sub 0) - www.blender.org, source file: 'Tradesman0-Collisions.blend'
element vertex 11
property float x
property float y
property float z
property float nx
property float ny
property float nz
element face 18
property list uchar uint vertex_indices
end_header
-5.001841 5.128681 5.597623 0.727165 -0.089602 -0.680563
-5.491699 5.130795 5.597623 -0.726676 -0.086062 -0.681539
-5.001841 5.312681 5.597623 0.578478 0.575976 -0.577563
-5.001841 5.128681 5.781623 0.724784 -0.150578 0.672292
-5.001841 5.312681 5.781623 0.578478 0.575976 0.577563
-5.491699 5.314795 5.781623 -0.576189 0.578692 0.577105
-5.491699 5.314795 5.597623 -0.576189 0.578692 -0.577105
-5.248705 4.650811 5.781623 -0.003937 -0.975860 0.218268
-5.023751 5.041142 5.597623 0.641102 -0.376751 -0.668569
-5.470623 5.043071 5.597623 -0.644581 -0.371227 -0.668294
-5.491699 5.130795 5.781623 -0.724662 -0.147313 0.673116
3 0 1 2
3 3 2 4
3 5 2 6
3 7 8 3
3 8 0 3
3 1 9 10
3 4 5 10
3 10 9 7
3 9 8 7
3 5 1 10
3 6 2 1
3 0 8 1
3 9 1 8
3 3 0 2
3 5 4 2
3 10 7 3
3 3 4 10
3 5 6 1
