ply
format ascii 1.0
comment Created by Blender 2.77 (sub 0) - www.blender.org, source file: 'Tradesman0-Collisions.blend'
element vertex 14
property float x
property float y
property float z
property float nx
property float ny
property float nz
element face 24
property list uchar uint vertex_indices
end_header
3.491775 1.839473 6.388824 0.081179 0.732444 -0.675954
2.479774 1.839474 6.701624 -0.546220 0.634999 0.546220
3.491775 1.839474 6.701624 0.078372 0.762993 0.641591
4.466974 1.618674 6.701624 0.456221 0.750084 0.478713
4.466974 1.618674 6.388824 0.447066 0.701254 -0.555254
2.442975 0.753873 6.738423 -0.577349 -0.577349 0.577349
4.540575 0.753873 6.370423 0.575701 -0.575640 -0.580645
4.540575 0.753873 6.738423 0.577349 -0.577349 0.577349
2.442975 1.508273 6.370423 -0.707877 0.053804 -0.704245
2.442975 1.508273 6.738423 -0.705100 0.075259 0.705100
4.540575 1.508273 6.738423 0.704825 0.263375 0.658620
4.540575 1.508273 6.370423 0.713370 0.239509 -0.658559
2.442975 0.753873 6.370423 -0.575701 -0.575640 -0.580645
2.479774 1.839473 6.388824 -0.543870 0.620472 -0.564959
3 0 1 2
3 0 3 4
3 5 6 7
3 1 8 9
3 9 7 10
3 10 3 2
3 11 7 6
3 2 9 10
3 11 3 10
3 5 8 12
3 0 6 12
3 4 11 0
3 0 13 1
3 0 2 3
3 5 12 6
3 1 13 8
3 9 5 7
3 11 10 7
3 2 1 9
3 11 4 3
3 5 9 8
3 12 8 0
3 13 0 8
3 11 6 0
