ply
format ascii 1.0
comment Created by Blender 2.77 (sub 0) - www.blender.org, source file: 'Tradesman0-Collisions.blend'
element vertex 6
property float x
property float y
property float z
property float nx
property float ny
property float nz
element face 8
property list uchar uint vertex_indices
end_header
6.895774 5.761029 1.365623 -0.593005 0.745293 -0.304666
11.771774 3.185030 7.437624 0.310465 0.458632 0.832606
11.771774 3.185030 1.365623 0.680441 0.410077 -0.607288
11.771774 2.817029 1.365624 0.429029 -0.711875 -0.555986
6.895774 5.393029 1.365623 -0.852443 -0.337168 -0.399518
11.771774 2.817030 7.437624 0.238807 -0.621082 0.746422
3 0 1 2
3 1 3 2
3 4 2 3
3 3 5 4
3 1 4 5
3 1 5 3
3 4 0 2
3 1 0 4
