ply
format ascii 1.0
comment Created by Blender 2.77 (sub 0) - www.blender.org, source file: 'Tradesman0-Colliders.blend'
element vertex 8
property float x
property float y
property float z
property float nx
property float ny
property float nz
element face 12
property list uchar uint vertex_indices
end_header
-2.016445 0.864273 -0.624157 0.316477 -0.547166 -0.774865
-2.074225 1.048273 -0.566376 -0.717277 0.630238 -0.297098
-2.016445 1.048273 -0.624157 0.316477 0.547166 -0.774865
-1.997185 1.048273 1.328824 0.580432 0.576830 0.574725
-2.074225 1.048273 1.328824 -0.577349 0.577349 0.577349
-1.997185 0.864273 1.328825 0.580432 -0.576830 0.574725
-2.074225 0.864273 1.328825 -0.577349 -0.577349 0.577349
-2.074225 0.864273 -0.566376 -0.717277 -0.630238 -0.297098
3 0 1 2
3 3 1 4
3 4 5 3
3 5 2 3
3 6 1 7
3 5 7 0
3 0 7 1
3 3 2 1
3 4 6 5
3 5 0 2
3 6 4 1
3 5 6 7
