ply
format ascii 1.0
comment Created by Blender 2.77 (sub 0) - www.blender.org, source file: 'Tradesman0-Colliders.blend'
element vertex 8
property float x
property float y
property float z
property float nx
property float ny
property float nz
element face 12
property list uchar uint vertex_indices
end_header
11.771774 3.369030 1.365623 0.680441 0.410077 0.607288
6.895774 5.945029 0.997623 -0.429029 0.711875 -0.555986
6.895774 5.945029 1.365623 -0.429029 0.711875 0.555986
11.771774 3.369029 0.997624 0.680441 0.410077 -0.607288
11.771774 2.817029 1.365624 0.429029 -0.711875 0.555986
11.771774 2.817029 0.997624 0.429029 -0.711875 -0.555986
6.895774 5.393029 0.997623 -0.680441 -0.410077 -0.607288
6.895774 5.393029 1.365623 -0.680441 -0.410077 0.607288
3 0 1 2
3 3 4 5
3 6 4 7
3 7 1 6
3 0 7 4
3 6 3 5
3 0 3 1
3 3 0 4
3 6 5 4
3 7 2 1
3 0 2 7
3 6 1 3
