ply
format ascii 1.0
comment Created by Blender 2.77 (sub 0) - www.blender.org, source file: 'Tradesman0-Colliders.blend'
element vertex 8
property float x
property float y
property float z
property float nx
property float ny
property float nz
element face 12
property list uchar uint vertex_indices
end_header
2.682174 3.260985 -6.472776 -0.577349 0.577349 0.577349
3.013374 -0.018929 -6.472775 0.577349 -0.577349 0.577349
3.013374 3.260985 -6.472776 0.577349 0.577349 0.577349
2.682174 3.260984 -6.803977 -0.577349 0.577349 -0.577349
3.013374 3.260984 -6.803977 0.577349 0.577349 -0.577349
3.013374 -0.018929 -6.803976 0.577349 -0.577349 -0.577349
2.682174 -0.018929 -6.803976 -0.577349 -0.577349 -0.577349
2.682174 -0.018929 -6.472775 -0.577349 -0.577349 0.577349
3 0 1 2
3 3 2 4
3 4 1 5
3 3 5 6
3 6 1 7
3 7 3 6
3 0 7 1
3 3 0 2
3 4 2 1
3 3 4 5
3 6 5 1
3 7 0 3
