ply
format ascii 1.0
comment Created by Blender 2.77 (sub 0) - www.blender.org, source file: 'Tradesman0-Colliders.blend'
element vertex 16
property float x
property float y
property float z
property float nx
property float ny
property float nz
element face 28
property list uchar uint vertex_indices
end_header
2.810974 -0.018928 -0.934376 -0.706809 -0.621784 0.337260
2.810974 0.091472 -6.638376 -0.730277 0.672750 -0.118503
2.810974 -0.018929 -6.638376 -0.732170 -0.677664 -0.068117
2.847775 0.091472 -6.748775 -0.567400 0.815821 -0.111576
2.847775 -0.018929 -7.507522 -0.526963 -0.060793 -0.847682
9.103775 -0.018929 -7.507522 0.505905 -0.060701 -0.860408
9.103775 0.091472 -6.748775 0.350230 0.924467 -0.150517
3.003906 -0.018928 -0.778244 -0.256600 -0.639149 0.724998
2.810974 0.091473 -0.934376 -0.706809 0.621784 0.337260
8.928778 -0.018928 -0.778244 0.197699 -0.652791 0.731254
3.003906 0.091473 -0.778244 -0.256600 0.639149 0.724998
9.195812 -0.018928 -0.934020 0.686117 -0.610553 0.395550
9.214174 0.091472 -6.638021 0.718070 0.630116 -0.295389
9.195812 0.091473 -0.934020 0.686117 0.610523 0.395550
9.214174 -0.018929 -6.638021 0.749840 -0.632282 -0.194647
8.928778 0.091473 -0.778244 0.197699 0.652791 0.731254
3 0 1 2
3 2 3 4
3 5 3 6
3 7 8 0
3 9 10 7
3 11 12 13
3 2 5 14
3 15 12 6
3 14 6 12
3 9 13 15
3 0 8 1
3 2 1 3
3 5 4 3
3 7 10 8
3 9 15 10
3 11 14 12
3 14 11 9
3 9 7 2
3 0 2 7
3 4 5 2
3 14 9 2
3 6 3 1
3 1 8 10
3 10 15 1
3 13 12 15
3 6 1 15
3 14 5 6
3 9 11 13
