ply
format ascii 1.0
comment Created by Blender 2.77 (sub 0) - www.blender.org, source file: 'Tradesman0-Collisions.blend'
element vertex 8
property float x
property float y
property float z
property float nx
property float ny
property float nz
element face 12
property list uchar uint vertex_indices
end_header
11.480816 0.864273 3.573624 0.578661 -0.577105 0.576220
11.461555 1.048272 -0.992157 0.562822 0.574999 -0.593768
11.480816 1.048273 3.573624 0.578661 0.577105 0.576220
10.290574 1.048273 3.573624 -0.577349 0.577349 0.577349
10.290574 0.864272 -0.934376 -0.590045 -0.579974 -0.561632
10.290574 0.864273 3.573624 -0.577349 -0.577349 0.577349
10.290574 1.048272 -0.934376 -0.590045 0.579974 -0.561632
11.461555 0.864272 -0.992157 0.562822 -0.574999 -0.593768
3 0 1 2
3 3 0 2
3 3 4 5
3 6 7 4
3 0 4 7
3 6 2 1
3 0 7 1
3 3 5 0
3 3 6 4
3 6 1 7
3 0 5 4
3 6 3 2
