ply
format ascii 1.0
comment Created by Blender 2.77 (sub 0) - www.blender.org, source file: 'Tradesman0-Collisions.blend'
element vertex 8
property float x
property float y
property float z
property float nx
property float ny
property float nz
element face 12
property list uchar uint vertex_indices
end_header
6.895774 5.025028 -7.190377 -0.706168 -0.339396 -0.621357
9.655775 2.817029 -1.486377 0.361797 -0.752770 0.549913
6.895774 5.025029 -1.486377 -0.706168 -0.339396 0.621357
6.895774 5.393029 -1.486377 -0.361797 0.752770 0.549913
9.655775 3.185028 -7.190376 0.706168 0.339396 -0.621357
6.895774 5.393028 -7.190377 -0.361797 0.752770 -0.549913
9.655775 3.185029 -1.486377 0.706168 0.339396 0.621357
9.655775 2.817028 -7.190376 0.361797 -0.752770 -0.549913
3 0 1 2
3 3 4 5
3 1 4 6
3 6 2 1
3 4 0 5
3 5 2 3
3 0 7 1
3 3 6 4
3 1 7 4
3 6 3 2
3 4 7 0
3 5 0 2
