ply
format ascii 1.0
comment Created by Blender 2.77 (sub 0) - www.blender.org, source file: 'Tradesman0-Collisions.blend'
element vertex 8
property float x
property float y
property float z
property float nx
property float ny
property float nz
element face 12
property list uchar uint vertex_indices
end_header
2.847775 3.072272 -0.934376 0.414228 0.375500 -0.829066
1.927774 0.091473 -0.934376 -0.773431 -0.546892 -0.320353
1.927774 3.532272 -0.934377 -0.680135 0.656972 -0.325236
2.083906 3.532272 -0.778245 -0.083987 0.814661 0.573779
2.847775 0.091473 -0.934376 0.297098 -0.630238 -0.717277
2.083906 0.091473 -0.778244 -0.297098 -0.630238 0.717277
3.003906 3.072272 -0.778245 0.849055 0.417158 0.324046
3.003906 0.091473 -0.778244 0.773431 -0.546892 0.320353
3 0 1 2
3 3 0 2
3 4 5 1
3 6 5 7
3 5 2 1
3 7 0 6
3 0 4 1
3 3 6 0
3 4 7 5
3 6 3 5
3 5 3 2
3 7 4 0
