ply
format ascii 1.0
comment Created by Blender 2.77 (sub 0) - www.blender.org, source file: 'Tradesman0-Collisions.blend'
element vertex 9
property float x
property float y
property float z
property float nx
property float ny
property float nz
element face 14
property list uchar uint vertex_indices
end_header
-5.001841 5.128681 5.781623 -0.213569 0.782067 0.585406
-1.377424 3.213063 5.597624 0.750145 0.304483 -0.586963
-5.001841 5.128681 5.597623 -0.204871 0.786798 -0.582141
-5.248705 4.650811 5.781623 -0.730644 -0.300333 0.613117
-1.377424 3.213063 5.781624 0.750145 0.304483 0.586963
-1.516275 2.784596 5.597624 0.317637 -0.757866 -0.569842
-1.516275 2.784596 5.781624 0.317637 -0.757866 0.569842
-5.248705 4.650811 5.597623 -0.678060 -0.416761 -0.605365
-5.248225 4.748547 5.597623 -0.760430 0.253548 -0.597827
3 0 1 2
3 3 4 0
3 3 5 6
3 2 1 7
3 0 8 3
3 4 5 1
3 7 3 8
3 0 4 1
3 3 6 4
3 3 7 5
3 5 7 1
3 8 2 7
3 0 2 8
3 4 6 5
