ply
format ascii 1.0
comment Created by Blender 2.77 (sub 0) - www.blender.org, source file: 'Tradesman0-Collisions.blend'
element vertex 8
property float x
property float y
property float z
property float nx
property float ny
property float nz
element face 12
property list uchar uint vertex_indices
end_header
-2.074225 2.833072 -0.897577 0.577349 -0.577349 -0.577349
-8.560225 3.071306 -0.897577 -0.577349 0.577349 -0.577349
-2.074225 3.071306 -0.897577 0.577349 0.577349 -0.577349
-2.074225 3.071306 -0.566376 0.577349 0.577349 0.577349
-8.560225 2.833072 -0.897577 -0.577349 -0.577349 -0.577349
-2.074225 2.833072 -0.566376 0.577349 -0.577349 0.577349
-8.560225 2.833072 -0.566376 -0.577349 -0.577349 0.577349
-8.560225 3.071306 -0.566376 -0.577349 0.577349 0.577349
3 0 1 2
3 3 0 2
3 4 5 6
3 7 2 1
3 5 7 6
3 1 6 7
3 0 4 1
3 3 5 0
3 4 0 5
3 7 3 2
3 5 3 7
3 1 4 6
