ply
format ascii 1.0
comment Created by Blender 2.77 (sub 0) - www.blender.org, source file: 'Tradesman0-Colliders.blend'
element vertex 8
property float x
property float y
property float z
property float nx
property float ny
property float nz
element face 12
property list uchar uint vertex_indices
end_header
-2.267426 0.504161 0.169624 0.577349 0.577349 0.577349
-2.267426 0.099361 -0.345576 0.577349 -0.577349 -0.577349
-2.267426 0.504161 -0.345576 0.577349 0.577349 -0.577349
-2.948225 0.504161 -0.345576 -0.577349 0.577349 -0.577349
-2.948225 0.099361 -0.345576 -0.577349 -0.577349 -0.577349
-2.948225 0.099361 0.169624 -0.577349 -0.577349 0.577349
-2.267426 0.099361 0.169624 0.577349 -0.577349 0.577349
-2.948225 0.504161 0.169624 -0.577349 0.577349 0.577349
3 0 1 2
3 3 1 4
3 5 1 6
3 7 2 3
3 6 7 5
3 5 3 4
3 0 6 1
3 3 2 1
3 5 4 1
3 7 0 2
3 6 0 7
3 5 7 3
