ply
format ascii 1.0
comment Created by Blender 2.77 (sub 0) - www.blender.org, source file: 'Tradesman0-Collisions.blend'
element vertex 8
property float x
property float y
property float z
property float nx
property float ny
property float nz
element face 12
property list uchar uint vertex_indices
end_header
-4.070625 4.401785 -0.658377 0.577349 0.577349 -0.577349
-4.401826 -0.018928 -0.658376 -0.577349 -0.577349 -0.577349
-4.401826 4.401785 -0.658377 -0.577349 0.577349 -0.577349
-4.401826 -0.018928 -0.327175 -0.577349 -0.577349 0.577349
-4.070625 -0.018928 -0.327175 0.577349 -0.577349 0.577349
-4.401826 4.401785 -0.327176 -0.577349 0.577349 0.577349
-4.070625 4.401785 -0.327176 0.577349 0.577349 0.577349
-4.070625 -0.018928 -0.658376 0.577349 -0.577349 -0.577349
3 0 1 2
3 3 2 1
3 1 4 3
3 5 0 2
3 5 4 6
3 4 0 6
3 0 7 1
3 3 5 2
3 1 7 4
3 5 6 0
3 5 3 4
3 4 7 0
