ply
format ascii 1.0
comment Created by Blender 2.77 (sub 0) - www.blender.org, source file: 'Blacksmith0-Colliders.blend'
element vertex 8
property float x
property float y
property float z
property float nx
property float ny
property float nz
element face 12
property list uchar uint vertex_indices
end_header
-13.056386 0.419709 -2.827688 -0.577349 -0.577349 0.577319
-12.248987 0.419709 -3.635086 0.577380 -0.577319 -0.577319
-12.249066 0.419709 -2.827609 0.577288 -0.577349 0.577380
-13.056386 1.328031 -3.635086 -0.577349 0.577349 -0.577349
-13.056386 0.419709 -3.635086 -0.577349 -0.577349 -0.577349
-12.248987 1.328031 -3.635086 0.577380 0.577319 -0.577319
-13.056386 1.328031 -2.827688 -0.577349 0.577349 0.577319
-12.249066 1.328031 -2.827609 0.577288 0.577349 0.577380
3 0 1 2
3 0 3 4
3 4 5 1
3 6 2 7
3 2 5 7
3 5 6 7
3 0 4 1
3 0 6 3
3 4 3 5
3 6 0 2
3 2 1 5
3 5 3 6
