ply
format ascii 1.0
comment Created by Blender 2.77 (sub 0) - www.blender.org, source file: 'Blacksmith0-Colliders.blend'
element vertex 8
property float x
property float y
property float z
property float nx
property float ny
property float nz
element face 12
property list uchar uint vertex_indices
end_header
10.842330 -0.074237 -11.140507 0.549974 -0.289590 -0.783349
-1.625703 -0.074237 -6.949008 -0.810389 -0.223304 0.541642
-1.625703 -0.074237 -11.314692 -0.723808 -0.165868 -0.669729
10.842330 0.448732 -10.522078 0.639180 0.722953 -0.262154
10.842330 -0.074237 -6.949008 0.577349 -0.577349 0.577349
-0.748820 0.448732 -10.696263 -0.191900 0.939360 -0.284188
-0.748820 0.448732 -6.949008 -0.201422 0.731040 0.651906
10.842330 0.448732 -6.949008 0.577349 0.577349 0.577349
3 0 1 2
3 3 4 0
3 1 5 2
3 3 6 7
3 0 5 3
3 4 6 1
3 0 4 1
3 3 7 4
3 1 6 5
3 3 5 6
3 0 2 5
3 4 7 6
