ply
format ascii 1.0
comment Created by Blender 2.77 (sub 0) - www.blender.org, source file: 'Blacksmith0-Colliders.blend'
element vertex 8
property float x
property float y
property float z
property float nx
property float ny
property float nz
element face 12
property list uchar uint vertex_indices
end_header
-11.499039 16.154776 9.561147 -0.577319 0.577349 0.577349
-11.499269 5.834669 5.336137 -0.577349 -0.577319 -0.577319
-11.499039 5.834669 9.561147 -0.577319 -0.577349 0.577349
-9.144575 16.154776 5.336137 0.577349 0.577349 -0.577349
-11.499269 16.154776 5.336137 -0.577349 0.577319 -0.577319
-9.144575 5.834669 5.336137 0.577349 -0.577349 -0.577349
-9.144575 5.834669 9.561147 0.577349 -0.577349 0.577349
-9.144575 16.154776 9.561147 0.577349 0.577349 0.577349
3 0 1 2
3 3 1 4
3 2 5 6
3 2 7 0
3 6 3 7
3 0 3 4
3 0 4 1
3 3 5 1
3 2 1 5
3 2 6 7
3 6 5 3
3 0 7 3
