ply
format ascii 1.0
comment Created by Blender 2.77 (sub 0) - www.blender.org, source file: 'Blacksmith0-Colliders.blend'
element vertex 20
property float x
property float y
property float z
property float nx
property float ny
property float nz
element face 36
property list uchar uint vertex_indices
end_header
-15.728175 14.464949 2.759725 0.577349 0.577349 0.577349
-16.359600 13.201929 2.759725 -0.626301 -0.316202 0.712546
-15.728175 13.201260 2.759725 0.625965 -0.316660 0.712638
-15.728175 7.676889 -3.352387 0.691275 -0.569262 0.444990
-15.728175 8.150521 -4.119187 0.694357 -0.539598 -0.476058
-15.728175 8.218088 -4.142158 0.626331 0.315531 -0.712821
-16.359600 8.150521 -4.119187 -0.694388 -0.539506 -0.476119
-15.728175 7.654813 -3.487506 0.686575 -0.611621 -0.393017
-16.359600 7.654144 -3.487506 -0.684317 -0.616688 -0.389080
-16.359600 7.632068 -3.419946 -0.647725 -0.729331 0.220191
-15.728175 7.631399 -3.442241 0.657247 -0.732292 -0.178014
-15.728175 7.631399 -3.419946 0.646535 -0.729637 0.222694
-16.359600 8.173266 -4.142158 -0.629841 -0.298990 -0.716819
-15.728175 8.173266 -4.142158 0.629841 -0.298990 -0.716849
-16.359600 14.464949 2.736755 -0.634266 0.721152 -0.278573
-15.728175 14.464949 2.736755 0.634266 0.721152 -0.278573
-16.359600 7.676889 -3.352387 -0.690695 -0.571093 0.443556
-16.359600 7.632068 -3.442916 -0.659261 -0.731986 -0.171758
-16.359600 8.218088 -4.142158 -0.626331 0.315561 -0.712821
-16.359600 14.464949 2.759725 -0.577349 0.577349 0.577349
3 0 1 2
3 3 4 5
3 6 7 8
3 9 10 11
3 12 5 13
3 3 9 11
3 14 0 15
3 2 16 3
3 17 7 10
3 16 18 6
3 6 13 4
3 18 15 5
3 0 19 1
3 5 15 2
3 0 2 15
3 3 11 7
3 10 7 11
3 4 13 5
3 5 2 3
3 3 7 4
3 6 4 7
3 9 17 10
3 12 18 5
3 3 16 9
3 14 19 0
3 2 1 16
3 17 8 7
3 6 8 16
3 17 9 8
3 16 1 18
3 19 14 1
3 18 12 6
3 8 9 16
3 1 14 18
3 6 12 13
3 18 14 15
