ply
format ascii 1.0
comment Created by Blender 2.77 (sub 0) - www.blender.org, source file: 'Blacksmith0-Colliders.blend'
element vertex 8
property float x
property float y
property float z
property float nx
property float ny
property float nz
element face 12
property list uchar uint vertex_indices
end_header
1.115516 2.277774 7.676567 -0.577319 0.577349 0.577349
1.115459 1.473519 5.561673 -0.577349 -0.577319 -0.577319
1.115516 1.473519 7.676567 -0.577319 -0.577349 0.577349
1.115459 2.277774 5.561673 -0.577349 0.577319 -0.577319
1.696310 1.473519 5.561673 0.577349 -0.577349 -0.577349
1.696310 2.277774 5.561673 0.577349 0.577349 -0.577349
1.696310 2.277774 7.676567 0.577349 0.577349 0.577349
1.696310 1.473519 7.676567 0.577349 -0.577349 0.577349
3 0 1 2
3 3 4 1
3 5 0 6
3 4 2 1
3 5 7 4
3 6 2 7
3 0 3 1
3 3 5 4
3 5 3 0
3 4 7 2
3 5 6 7
3 6 0 2
