ply
format ascii 1.0
comment Created by Blender 2.77 (sub 0) - www.blender.org, source file: 'Blacksmith0-Colliders.blend'
element vertex 8
property float x
property float y
property float z
property float nx
property float ny
property float nz
element face 12
property list uchar uint vertex_indices
end_header
4.426756 3.657720 -4.635459 0.577349 0.577349 -0.577349
3.070823 3.245003 -4.635459 -0.577349 -0.577349 -0.577349
3.070823 3.657720 -4.635459 -0.577349 0.577349 -0.577349
4.426756 3.657720 -2.926134 0.577349 0.577349 0.577349
3.070823 3.657720 -2.926134 -0.577349 0.577349 0.577349
4.426756 3.245003 -2.926134 0.577349 -0.577349 0.577349
3.070823 3.245003 -2.926134 -0.577349 -0.577349 0.577349
4.426756 3.245003 -4.635459 0.577349 -0.577349 -0.577349
3 0 1 2
3 3 2 4
3 1 5 6
3 6 3 4
3 5 0 3
3 2 6 4
3 0 7 1
3 3 0 2
3 1 7 5
3 6 5 3
3 5 7 0
3 2 1 6
