ply
format ascii 1.0
comment Created by Blender 2.77 (sub 0) - www.blender.org, source file: 'Blacksmith0-Colliders.blend'
element vertex 12
property float x
property float y
property float z
property float nx
property float ny
property float nz
element face 20
property list uchar uint vertex_indices
end_header
2.802380 7.545576 -6.965674 -0.729453 0.221320 -0.647206
2.914817 7.713814 -6.628560 -0.562670 0.461654 0.685720
2.914817 7.713814 -6.965674 -0.562670 0.461654 -0.685720
7.072065 8.557093 -6.628560 0.577349 0.577349 0.577349
7.072065 3.219463 -6.965674 0.577349 -0.577349 -0.577349
7.072065 8.557093 -6.965674 0.577349 0.577349 -0.577349
3.757469 8.557093 -6.628560 -0.297250 0.717246 0.630207
3.757469 8.557093 -6.965674 -0.297250 0.717246 -0.630207
7.072065 3.219463 -6.628560 0.577349 -0.577349 0.577349
2.802380 3.219463 -6.965674 -0.577349 -0.577349 -0.577349
2.802380 7.545576 -6.628560 -0.729453 0.221290 0.647206
2.802380 3.219463 -6.628560 -0.577349 -0.577349 0.577349
3 0 1 2
3 3 4 5
3 2 6 7
3 0 5 4
3 8 9 4
3 3 10 8
3 11 0 9
3 6 5 7
3 0 10 1
3 3 8 4
3 2 1 6
3 5 0 2
3 9 0 4
3 2 7 5
3 8 11 9
3 11 8 10
3 3 6 1
3 1 10 3
3 11 10 0
3 6 3 5
