ply
format ascii 1.0
comment Created by Blender 2.77 (sub 0) - www.blender.org, source file: 'Blacksmith0-Colliders.blend'
element vertex 16
property float x
property float y
property float z
property float nx
property float ny
property float nz
element face 28
property list uchar uint vertex_indices
end_header
16.960796 5.966969 9.302641 0.728172 -0.233406 0.644398
16.570724 5.421044 -7.775341 0.552995 -0.468337 -0.689047
16.960796 5.966969 -7.775341 0.728141 -0.233406 -0.644398
16.180649 5.109476 9.302641 -0.322367 -0.711020 0.624897
16.258511 5.108568 -7.775341 0.297250 -0.717246 -0.630207
16.258511 5.109476 9.302641 0.296701 -0.717338 0.630329
9.007502 13.296534 9.302641 -0.722434 -0.271706 0.635762
9.007502 14.388384 -7.775341 -0.577349 0.577349 -0.577319
9.007502 13.296534 -7.775341 -0.722434 -0.271706 -0.635762
9.085360 14.388384 9.302641 0.306375 0.715110 0.628254
16.960796 6.122298 -7.775341 0.719291 0.287790 -0.632252
9.085360 14.388384 -7.775341 0.306375 0.715110 -0.628254
16.180649 5.108568 -7.775341 -0.322367 -0.711020 -0.624866
16.960796 6.122298 9.302641 0.719291 0.287790 0.632252
16.570724 5.421044 9.302641 0.552782 -0.468825 0.688894
9.007502 14.388384 9.302641 -0.577349 0.577349 0.577349
3 0 1 2
3 3 4 5
3 6 7 8
3 9 10 11
3 10 1 12
3 3 8 12
3 6 3 13
3 7 9 11
3 1 5 4
3 10 0 2
3 0 14 1
3 3 12 4
3 6 15 7
3 9 13 10
3 12 8 10
3 7 11 8
3 10 2 1
3 1 4 12
3 8 11 10
3 3 6 8
3 14 0 13
3 13 9 6
3 15 6 9
3 3 5 14
3 14 13 3
3 7 15 9
3 1 14 5
3 10 13 0
