ply
format ascii 1.0
comment Created by Blender 2.77 (sub 0) - www.blender.org, source file: 'Blacksmith0-Colliders.blend'
element vertex 23
property float x
property float y
property float z
property float nx
property float ny
property float nz
element face 42
property list uchar uint vertex_indices
end_header
-14.326927 7.376552 7.600534 -0.089541 -0.727134 -0.680593
-14.572686 8.297380 7.600534 -0.576739 0.577471 -0.577776
-13.711673 7.376552 7.600534 0.001831 -0.705832 -0.708335
2.984431 8.297380 7.661971 0.578295 0.577532 -0.576189
2.984431 7.438025 8.582655 0.628651 -0.480911 0.611133
2.984431 7.438025 7.661971 0.621998 -0.479507 -0.618976
-14.326927 7.438025 8.644091 -0.266488 -0.556261 0.787072
-14.448948 8.297380 8.582547 -0.586413 0.630757 0.508164
-14.448948 7.438025 8.582547 -0.644551 -0.518693 0.561632
-6.899180 7.438025 8.705528 0.004517 -0.591449 0.806299
0.896344 7.438025 8.643984 0.008362 -0.551622 0.834040
2.984431 8.297380 8.582655 0.583056 0.579638 0.569231
2.860693 7.376552 7.784844 0.175848 -0.969054 -0.173070
-14.510817 8.297380 8.398561 -0.702322 0.689749 0.175878
-14.510817 7.438025 8.398561 -0.806024 -0.558275 0.196478
-14.019300 7.438025 8.705528 -0.070406 -0.592364 0.802576
-14.326927 8.297380 8.644091 -0.239631 0.677999 0.694845
-14.326927 7.376552 8.459890 -0.150121 -0.978912 0.138493
2.860693 7.376552 8.459890 0.178472 -0.969268 0.169225
-14.572686 8.297380 8.030266 -0.722373 0.688864 0.060244
-14.572686 7.438025 8.030266 -0.801202 -0.595538 0.058077
-14.572686 7.438025 7.600534 -0.635639 -0.496231 -0.591327
-14.019300 8.297380 8.705528 -0.071413 0.685598 0.724418
3 0 1 2
3 3 4 5
3 6 7 8
3 9 10 11
3 4 12 5
3 8 13 14
3 15 16 6
3 15 6 17
3 6 8 17
3 18 17 2
3 9 18 10
3 18 4 10
3 2 5 12
3 14 19 20
3 9 17 18
3 14 17 8
3 21 19 1
3 3 1 22
3 0 20 21
3 5 2 3
3 0 21 1
3 1 3 2
3 3 11 4
3 6 16 7
3 11 22 9
3 15 9 22
3 10 4 11
3 4 18 12
3 8 7 13
3 15 22 16
3 0 2 17
3 12 18 2
3 14 13 19
3 9 15 17
3 14 20 17
3 21 20 19
3 13 7 16
3 16 22 13
3 11 3 22
3 1 19 22
3 13 22 19
3 0 17 20
