ply
format ascii 1.0
comment Created by Blender 2.77 (sub 0) - www.blender.org, source file: 'Blacksmith0-Colliders.blend'
element vertex 8
property float x
property float y
property float z
property float nx
property float ny
property float nz
element face 12
property list uchar uint vertex_indices
end_header
-12.021285 1.798497 -0.929893 0.576861 -0.579943 0.575182
-13.029838 2.530734 -0.930056 -0.577380 0.577349 0.577288
-13.029838 1.798497 -0.930056 -0.576952 -0.579974 0.575091
-12.021285 2.530734 -2.587626 0.577349 0.577349 -0.577349
-13.029838 1.812330 -2.587626 -0.577776 -0.574694 -0.579516
-13.029838 2.530734 -2.587626 -0.577349 0.577349 -0.577349
-12.021285 1.812330 -2.587626 0.577776 -0.574694 -0.579516
-12.021285 2.530734 -0.929893 0.577288 0.577319 0.577380
3 0 1 2
3 3 4 5
3 6 7 0
3 3 1 7
3 1 4 2
3 2 6 0
3 0 7 1
3 3 6 4
3 6 3 7
3 3 5 1
3 1 5 4
3 2 4 6
