ply
format ascii 1.0
comment Created by Blender 2.77 (sub 0) - www.blender.org, source file: 'Blacksmith0-Colliders.blend'
element vertex 8
property float x
property float y
property float z
property float nx
property float ny
property float nz
element face 12
property list uchar uint vertex_indices
end_header
-5.420161 0.389376 3.482323 0.577319 -0.577349 0.577349
-5.419974 1.797997 1.861089 0.577380 0.577319 -0.577319
-5.420161 1.797997 3.482323 0.577319 0.577349 0.577349
-7.336352 0.389376 3.482482 -0.577319 -0.577319 0.577349
-7.336352 1.797997 1.861089 -0.577349 0.577349 -0.577349
-7.336352 0.389376 1.861089 -0.577349 -0.577349 -0.577349
-5.419974 0.389376 1.861089 0.577380 -0.577319 -0.577319
-7.336352 1.797997 3.482482 -0.577319 0.577319 0.577349
3 0 1 2
3 2 3 0
3 4 2 1
3 5 1 6
3 3 4 5
3 0 5 6
3 0 6 1
3 2 7 3
3 4 7 2
3 5 4 1
3 3 7 4
3 0 3 5
