ply
format ascii 1.0
comment Created by Blender 2.77 (sub 0) - www.blender.org, source file: 'Blacksmith0-Colliders.blend'
element vertex 8
property float x
property float y
property float z
property float nx
property float ny
property float nz
element face 12
property list uchar uint vertex_indices
end_header
8.865858 5.888965 0.513132 -0.577349 -0.577349 -0.577349
12.027486 6.236230 0.513132 0.577349 0.577349 -0.577349
12.027486 5.888965 0.513132 0.577349 -0.577349 -0.577349
12.027486 5.888965 2.130032 0.577349 -0.577349 0.577349
8.865858 6.236230 0.513132 -0.577349 0.577349 -0.577349
12.027486 6.236230 2.130032 0.577349 0.577349 0.577349
8.865858 5.888965 2.130032 -0.577349 -0.577349 0.577349
8.865858 6.236230 2.130032 -0.577349 0.577349 0.577349
3 0 1 2
3 3 0 2
3 4 5 1
3 1 3 2
3 5 6 3
3 6 4 0
3 0 4 1
3 3 6 0
3 4 7 5
3 1 5 3
3 5 7 6
3 6 7 4
