ply
format ascii 1.0
comment Created by Blender 2.77 (sub 0) - www.blender.org, source file: 'Blacksmith0-Colliders.blend'
element vertex 12
property float x
property float y
property float z
property float nx
property float ny
property float nz
element face 20
property list uchar uint vertex_indices
end_header
9.914103 5.711634 3.828142 -0.721885 -0.057680 0.689596
11.577978 4.463664 3.828142 0.525346 -0.616718 0.586200
11.778980 5.711634 3.828142 0.721885 -0.057741 0.689566
9.914103 5.754607 3.512578 -0.577349 0.577349 -0.577349
11.778980 5.711634 3.512578 0.721885 -0.057741 -0.689566
9.914103 5.711634 3.512578 -0.721885 -0.057680 -0.689596
9.914103 5.754607 3.828142 -0.577349 0.577349 0.577349
10.114922 4.463664 3.828142 -0.525376 -0.616688 0.586200
11.778980 5.754607 3.828142 0.577349 0.577349 0.577349
10.114922 4.463664 3.512578 -0.525376 -0.616688 -0.586200
11.778980 5.754607 3.512578 0.577349 0.577349 -0.577349
11.577978 4.463664 3.512578 0.525346 -0.616718 -0.586200
3 0 1 2
3 3 4 5
3 3 0 6
3 1 4 2
3 5 7 0
3 8 3 6
3 9 1 7
3 2 10 8
3 2 8 6
3 6 0 2
3 7 1 0
3 9 5 11
3 3 10 4
3 4 11 5
3 3 5 0
3 1 11 4
3 5 9 7
3 8 10 3
3 9 11 1
3 2 4 10
