ply
format ascii 1.0
comment Created by Blender 2.77 (sub 0) - www.blender.org, source file: 'Blacksmith0-Colliders.blend'
element vertex 16
property float x
property float y
property float z
property float nx
property float ny
property float nz
element face 28
property list uchar uint vertex_indices
end_header
8.971823 12.899311 8.934919 0.718925 -0.289499 -0.631886
1.591193 5.221664 9.557405 0.304666 -0.715506 0.628620
1.591193 5.221664 8.934919 0.304666 -0.715506 -0.628620
1.561337 5.221664 8.934919 -0.222053 -0.729392 -0.647023
0.257016 6.378719 9.557405 -0.718680 0.290658 0.631642
8.941964 15.359295 8.934919 -0.303507 0.715781 -0.628864
0.257016 6.378719 8.934919 -0.718680 0.290658 -0.631642
1.472619 5.281204 8.934919 -0.434858 -0.573382 -0.694327
8.971823 15.359295 9.557405 0.577349 0.577349 0.577349
8.971823 15.359295 8.934919 0.577349 0.577349 -0.577349
0.257016 6.319179 9.557405 -0.709677 -0.327219 0.623890
0.257016 6.319179 8.934919 -0.709677 -0.327219 -0.623890
1.472619 5.281204 9.557405 -0.434889 -0.573382 0.694296
1.561337 5.221664 9.557405 -0.222053 -0.729392 0.647023
8.971823 12.899311 9.557405 0.718925 -0.289499 0.631886
8.941964 15.359295 9.557405 -0.303507 0.715781 0.628864
3 0 1 2
3 1 3 2
3 4 5 6
3 2 7 6
3 5 8 9
3 10 6 11
3 1 4 12
3 13 7 3
3 9 14 0
3 10 7 12
3 0 14 1
3 1 13 3
3 4 15 5
3 11 6 7
3 5 9 0
3 0 2 6
3 3 7 2
3 6 5 0
3 5 15 8
3 10 4 6
3 15 4 14
3 10 12 4
3 13 1 12
3 14 8 15
3 4 1 14
3 13 12 7
3 9 8 14
3 10 11 7
