ply
format ascii 1.0
comment Created by Blender 2.77 (sub 0) - www.blender.org, source file: 'Blacksmith0-Colliders.blend'
element vertex 8
property float x
property float y
property float z
property float nx
property float ny
property float nz
element face 12
property list uchar uint vertex_indices
end_header
2.159342 2.969147 -3.743380 0.577349 0.577349 -0.577349
2.159342 0.419895 -1.293620 0.577349 -0.577349 0.577349
2.159342 0.419895 -3.743380 0.577349 -0.577349 -0.577349
-0.315658 0.419895 -3.743380 -0.577349 -0.577349 -0.577349
-0.315658 0.419895 -1.293620 -0.577349 -0.577349 0.577349
-0.315658 2.969147 -3.743380 -0.577349 0.577349 -0.577349
2.159342 2.969147 -1.293620 0.577349 0.577349 0.577349
-0.315658 2.969147 -1.293620 -0.577349 0.577349 0.577349
3 0 1 2
3 3 0 2
3 4 5 3
3 5 6 0
3 6 4 1
3 1 3 2
3 0 6 1
3 3 5 0
3 4 7 5
3 5 7 6
3 6 7 4
3 1 4 3
