ply
format ascii 1.0
comment Created by Blender 2.77 (sub 0) - www.blender.org, source file: 'Blacksmith0-Colliders.blend'
element vertex 24
property float x
property float y
property float z
property float nx
property float ny
property float nz
element face 44
property list uchar uint vertex_indices
end_header
3.662955 7.765113 8.421917 0.658925 -0.750664 -0.047853
8.444722 12.384186 3.722072 0.705741 -0.573595 -0.415784
7.877353 11.817174 4.451683 0.796136 -0.543321 0.266305
-16.110817 13.599871 2.992462 -0.639699 0.716117 0.279153
8.444722 14.087198 2.911603 0.572100 0.583544 -0.576281
-16.110817 13.599871 2.910976 -0.582507 0.571062 -0.578387
4.797693 9.142801 7.692933 0.785852 -0.222114 0.577105
4.797693 9.467466 7.692933 0.648671 0.125401 0.750633
3.987509 8.737792 8.503403 0.400769 0.421125 0.813623
8.444722 13.194862 3.884417 0.716697 0.410627 0.563616
6.499800 11.250162 5.910277 0.374676 0.458663 0.805719
-16.110817 7.360104 8.989810 -0.630329 -0.717368 0.296701
3.177325 7.684111 9.314499 0.403058 -0.365612 0.838954
-16.110817 7.684111 9.314499 -0.630146 -0.297494 0.717185
-16.110817 12.708851 2.910976 -0.625782 -0.314219 -0.713858
8.444722 13.194862 2.911603 0.632252 -0.295297 -0.716239
3.177325 7.360104 8.745979 0.264718 -0.916318 -0.300363
3.177325 7.360104 8.989810 0.394177 -0.839320 0.374279
4.069248 8.170122 8.098482 0.790796 -0.538926 0.290109
-16.110817 7.927116 9.314499 -0.625843 0.317820 0.712210
3.177325 7.927775 9.314499 0.295877 0.308237 0.904111
8.444722 12.384186 3.884417 0.908017 -0.301584 0.290689
-16.110817 7.360104 8.745979 -0.633869 -0.720786 -0.280374
8.444722 14.087198 2.992462 0.625294 0.723685 0.291971
3 0 1 2
3 3 4 5
3 6 7 8
3 9 10 7
3 11 12 13
3 14 15 16
3 17 0 18
3 19 12 20
3 8 7 10
3 21 6 2
3 2 18 0
3 22 11 19
3 10 3 8
3 23 9 15
3 18 6 12
3 15 5 4
3 22 17 11
3 21 2 1
3 0 17 16
3 16 1 0
3 3 23 4
3 8 20 12
3 6 21 7
3 8 12 6
3 21 9 7
3 11 17 12
3 1 16 15
3 22 14 16
3 19 13 12
3 3 5 14
3 14 22 19
3 11 13 19
3 19 3 14
3 20 8 3
3 10 9 23
3 23 3 10
3 19 20 3
3 1 15 9
3 4 23 15
3 9 21 1
3 12 17 18
3 18 2 6
3 15 14 5
3 22 16 17
