ply
format ascii 1.0
comment Created by Blender 2.77 (sub 0) - www.blender.org, source file: 'Blacksmith0-Colliders.blend'
element vertex 10
property float x
property float y
property float z
property float nx
property float ny
property float nz
element face 16
property list uchar uint vertex_indices
end_header
2.255820 6.949554 -7.139824 -0.718162 0.292917 -0.631184
3.180917 7.875546 -7.139914 0.577319 0.577319 -0.577349
3.180917 0.438496 -7.139914 0.577105 -0.577563 -0.577319
3.180917 0.438496 -6.214944 0.577258 -0.577502 0.577258
2.255820 0.439225 -7.139824 -0.577532 -0.576983 -0.577471
3.180917 7.875546 -6.214944 0.577349 0.577349 0.577349
2.255820 6.950282 -6.214944 -0.718162 0.293313 0.631001
3.162715 7.875546 -7.139914 -0.301004 0.716330 -0.629475
3.162715 7.875546 -6.214944 -0.300943 0.716392 0.629414
2.255820 0.438496 -6.214944 -0.577288 -0.577593 0.577136
3 0 1 2
3 3 4 2
3 5 2 1
3 6 7 0
3 4 6 0
3 1 8 5
3 5 6 3
3 2 4 0
3 0 7 1
3 3 9 4
3 5 3 2
3 6 8 7
3 4 9 6
3 1 7 8
3 9 3 6
3 5 8 6
