ply
format ascii 1.0
comment Created by Blender 2.77 (sub 0) - www.blender.org, source file: 'Blacksmith0-Colliders.blend'
element vertex 10
property float x
property float y
property float z
property float nx
property float ny
property float nz
element face 16
property list uchar uint vertex_indices
end_header
15.499900 7.320525 8.485357 0.716788 0.296915 0.630879
15.275158 7.545356 1.462162 0.300790 0.711447 -0.635090
15.106646 7.714309 8.484670 0.293313 0.723777 0.624531
15.218972 7.545356 1.462162 -0.570940 0.570910 -0.589923
15.499900 7.320966 1.462162 0.717215 0.297403 -0.630177
15.218972 3.219463 1.462162 -0.569323 -0.579089 -0.583514
15.499900 3.219463 8.485357 0.576922 -0.577258 0.577807
15.499900 3.219903 1.462162 0.577746 -0.576830 -0.577441
15.050416 7.714309 8.484670 -0.583697 0.583697 0.564409
15.050416 3.219463 8.484670 -0.585253 -0.576159 0.570482
3 0 1 2
3 3 4 5
3 6 5 7
3 3 2 1
3 7 0 6
3 8 9 0
3 9 3 5
3 0 4 1
3 7 5 4
3 3 1 4
3 6 9 5
3 3 8 2
3 7 4 0
3 6 0 9
3 2 8 0
3 9 8 3
