ply
format ascii 1.0
comment Created by Blender 2.77 (sub 0) - www.blender.org, source file: 'House0-Colliders.blend'
element vertex 30
property float x
property float y
property float z
property float nx
property float ny
property float nz
element face 56
property list uchar uint vertex_indices
end_header
-9.143194 8.284145 3.895434 0.716056 0.482864 0.504013
-9.124550 5.397341 6.633285 0.711295 0.485183 0.508530
-9.161839 11.227522 1.101564 0.634510 0.538835 0.554094
-9.124550 3.944252 7.974203 0.630085 -0.297861 0.717093
-9.552975 3.888454 7.918186 -0.693289 -0.541398 0.475600
-9.124550 3.888454 7.918186 0.693289 -0.541307 0.475692
-9.124550 3.571487 7.508558 0.640919 -0.726310 0.248268
-9.571619 4.783557 6.297881 -0.980468 -0.142094 -0.135929
-9.590263 7.985777 3.206419 -0.959593 -0.197180 -0.200690
-9.571619 5.025352 6.054905 -0.879665 -0.333842 -0.338664
-9.590263 8.992477 3.224625 -0.706839 0.486801 0.513169
-9.161839 10.798958 1.511191 0.307749 0.657216 0.687979
-9.552975 3.981451 7.974203 -0.630573 0.284371 0.722129
-9.571619 5.211346 6.800638 -0.986053 0.108036 0.126560
-9.552975 3.571487 7.452540 -0.627552 -0.720176 -0.295785
-9.161839 11.488689 0.840384 0.629933 0.717795 0.296457
-9.571619 5.062551 6.018494 -0.570818 -0.571093 -0.589862
-9.590263 8.005152 3.187513 -0.707572 -0.489914 -0.509171
-9.590263 11.488689 0.840384 -0.630299 0.715384 0.301523
-9.161839 11.488689 0.822177 0.577776 0.577410 -0.576830
-9.590263 11.488689 0.821477 -0.576891 0.577258 -0.577837
-9.552975 3.609461 7.414729 -0.521592 -0.598041 -0.608478
-9.552975 3.571487 7.507858 -0.641316 -0.726188 0.247566
-9.124550 3.571487 7.452540 0.629139 -0.715262 -0.304239
-9.590263 8.284145 3.895434 -0.768944 0.438459 0.465224
-9.571619 5.398116 6.633285 -0.646504 0.522477 0.555864
-9.124550 3.981451 7.974203 0.632496 0.286630 0.719535
-9.590263 10.463390 0.821477 -0.631519 -0.289438 -0.719260
-9.161839 10.462616 0.822177 0.629810 -0.289743 -0.720634
-9.552975 3.944252 7.974203 -0.630085 -0.297861 0.717093
3 0 1 2
3 3 4 5
3 4 6 5
3 7 8 9
3 10 1 11
3 12 13 14
3 15 2 1
3 16 8 17
3 18 19 20
3 21 9 16
3 22 23 6
3 2 11 0
3 1 0 11
3 10 24 25
3 25 13 12
3 26 5 23
3 24 13 25
3 12 3 26
3 7 21 14
3 21 16 17
3 17 27 28
3 19 27 20
3 3 29 4
3 4 22 6
3 11 2 18
3 15 18 2
3 10 25 1
3 12 26 1
3 11 18 10
3 12 1 25
3 7 14 13
3 22 4 14
3 29 12 4
3 13 24 7
3 10 18 27
3 20 27 18
3 8 7 24
3 27 17 10
3 24 17 8
3 4 12 14
3 17 24 10
3 16 9 8
3 18 15 19
3 22 14 23
3 28 19 15
3 15 1 28
3 26 3 5
3 5 6 23
3 23 28 1
3 1 26 23
3 12 29 3
3 7 9 21
3 28 23 17
3 21 17 23
3 23 14 21
3 19 28 27
