ply
format ascii 1.0
comment Created by Blender 2.77 (sub 0) - www.blender.org, source file: 'House0-Colliders.blend'
element vertex 8
property float x
property float y
property float z
property float nx
property float ny
property float nz
element face 12
property list uchar uint vertex_indices
end_header
-8.489719 2.166718 -0.283545 -0.577349 0.577349 -0.577349
-8.489719 1.924916 0.076655 -0.577349 -0.577349 0.577349
-8.489719 2.166718 0.076655 -0.577349 0.577349 0.577349
-8.169025 2.166718 -0.283545 0.577349 0.577349 -0.577349
-8.489719 1.924916 -0.283545 -0.577349 -0.577349 -0.577349
-8.169025 2.166718 0.076655 0.577349 0.577349 0.577349
-8.169025 1.924916 0.076655 0.577349 -0.577349 0.577349
-8.169025 1.924916 -0.283545 0.577349 -0.577349 -0.577349
3 0 1 2
3 3 4 0
3 5 0 2
3 6 3 5
3 1 5 2
3 4 6 1
3 0 4 1
3 3 7 4
3 5 3 0
3 6 7 3
3 1 6 5
3 4 7 6
