ply
format ascii 1.0
comment Created by Blender 2.77 (sub 0) - www.blender.org, source file: 'House0-Colliders.blend'
element vertex 26
property float x
property float y
property float z
property float nx
property float ny
property float nz
element face 48
property list uchar uint vertex_indices
end_header
-9.143194 8.097609 -2.719044 0.626637 0.544115 -0.557848
-9.161839 11.600462 0.690347 0.629261 0.718314 -0.296640
-9.124550 5.118180 -5.604649 0.749046 0.462722 -0.474105
-9.552975 3.571487 -6.182212 -0.628620 -0.720634 0.292398
-9.161839 10.463233 0.821476 0.626850 -0.300150 0.718955
-9.590263 10.464019 0.820741 -0.630512 -0.299875 0.715873
-9.590263 11.506937 0.820741 -0.630757 0.297189 0.716788
-9.161839 11.600462 0.727918 0.629505 0.717399 0.298349
-9.590263 11.599676 0.727918 -0.630909 0.716788 0.296854
-9.552975 3.981738 -6.703787 -0.629871 0.288156 -0.721213
-9.571619 5.230567 -5.492672 -0.831080 0.383343 -0.402844
-9.571619 5.714695 -5.027087 -0.311869 0.659810 -0.683645
-9.590263 8.657186 -2.178316 -0.711966 0.486648 -0.506180
-9.161839 11.022023 0.113520 0.341380 0.656209 -0.672903
-9.161839 11.078610 0.168771 0.592700 0.564989 -0.573962
-9.552975 3.944799 -6.703787 -0.630787 -0.293222 -0.718375
-9.124550 3.888999 -6.647799 0.693686 -0.540635 -0.475875
-9.552975 3.888213 -6.648535 -0.690786 -0.540056 -0.480728
-9.124550 3.981738 -6.703787 0.631733 0.290170 -0.718802
-9.161839 11.506151 0.821476 0.630238 0.295236 0.718040
-9.124550 3.571487 -6.182212 0.631031 -0.717734 0.294320
-9.552975 3.571487 -6.238201 -0.640950 -0.726310 -0.248177
-9.124550 4.522452 -6.182212 0.706198 0.492172 -0.508927
-9.124550 3.571487 -6.238201 0.640950 -0.726188 -0.248512
-9.590263 11.599676 0.690347 -0.631001 0.715995 -0.298563
-9.124550 3.944799 -6.703787 0.630116 -0.297739 -0.717124
3 0 1 2
3 3 4 5
3 6 7 8
3 9 10 11
3 10 12 11
3 0 13 14
3 12 10 3
3 15 16 17
3 18 15 9
3 5 19 6
3 4 20 2
3 1 8 7
3 21 20 3
3 12 22 11
3 21 16 23
3 0 22 13
3 0 14 1
3 3 20 4
3 6 19 7
3 3 5 12
3 6 8 24
3 24 5 6
3 10 9 3
3 15 17 9
3 21 3 17
3 24 12 5
3 9 17 3
3 15 25 16
3 18 25 15
3 5 4 19
3 22 2 20
3 1 7 19
3 19 4 1
3 20 23 16
3 16 25 18
3 18 22 16
3 1 4 2
3 20 16 22
3 1 24 8
3 21 23 20
3 9 22 18
3 12 24 13
3 1 14 24
3 13 22 12
3 9 11 22
3 24 14 13
3 21 17 16
3 0 2 22
