ply
format ascii 1.0
comment Created by Blender 2.77 (sub 0) - www.blender.org, source file: 'House0-Colliders.blend'
element vertex 8
property float x
property float y
property float z
property float nx
property float ny
property float nz
element face 12
property list uchar uint vertex_indices
end_header
-1.256178 5.499063 -3.826063 0.575182 0.576922 -0.579882
-8.684345 0.185641 -3.765660 -0.579455 -0.577776 -0.574755
-8.684345 5.499063 -3.765660 -0.579455 0.577776 -0.574755
-8.684345 0.185641 -3.524117 -0.579455 -0.577776 0.574755
-8.684345 5.499063 -3.524117 -0.579455 0.577776 0.574755
-1.256178 0.185641 -3.463713 0.575182 -0.576922 0.579882
-1.256178 5.499063 -3.463713 0.575182 0.576922 0.579882
-1.256178 0.185641 -3.826063 0.575182 -0.576922 -0.579882
3 0 1 2
3 2 3 4
3 1 5 3
3 5 0 6
3 6 2 4
3 3 6 4
3 0 7 1
3 2 1 3
3 1 7 5
3 5 7 0
3 6 0 2
3 3 5 6
