ply
format ascii 1.0
comment Created by Blender 2.77 (sub 0) - www.blender.org, source file: 'House0-Colliders.blend'
element vertex 8
property float x
property float y
property float z
property float nx
property float ny
property float nz
element face 12
property list uchar uint vertex_indices
end_header
8.870163 1.382689 5.273597 0.577349 0.577349 0.577319
7.661514 0.209588 5.273714 -0.577349 -0.577319 0.577349
8.870163 0.209588 5.273597 0.577349 -0.577349 0.577319
7.661633 0.209588 4.088764 -0.577319 -0.577349 -0.577349
7.661514 1.382689 5.273714 -0.577349 0.577319 0.577349
7.661633 1.382689 4.088764 -0.577319 0.577349 -0.577349
8.870163 1.382689 4.088764 0.577349 0.577349 -0.577349
8.870163 0.209588 4.088764 0.577349 -0.577349 -0.577349
3 0 1 2
3 3 4 5
3 6 2 7
3 5 0 6
3 3 2 1
3 3 6 7
3 0 4 1
3 3 1 4
3 6 0 2
3 5 4 0
3 3 7 2
3 3 5 6
