ply
format ascii 1.0
comment Created by Blender 2.77 (sub 0) - www.blender.org, source file: 'House0-Colliders.blend'
element vertex 22
property float x
property float y
property float z
property float nx
property float ny
property float nz
element face 40
property list uchar uint vertex_indices
end_header
-1.200996 2.444676 -1.865923 -0.791406 0.380322 -0.478500
-1.070137 2.874670 -1.716269 -0.254677 0.554369 -0.792322
-1.200996 2.425925 -1.875287 -0.315989 0.245918 -0.916318
-1.079451 2.865295 -1.463926 -0.619404 0.447035 0.645314
-0.873848 2.884047 -1.473238 0.424940 0.798761 0.425886
-1.070137 2.884047 -1.473238 -0.425764 0.798334 0.425794
-1.210358 2.407221 -1.875287 -0.718558 0.101199 -0.688040
-1.219718 2.397846 -1.361036 -0.583056 -0.576373 0.572527
-1.219718 2.416597 -1.361036 -0.708823 0.167608 0.685141
-0.873848 2.874670 -1.716269 0.253609 0.554460 -0.792596
-0.742940 2.444676 -1.865923 0.791375 0.380352 -0.478561
-0.742940 2.425925 -1.875287 0.316019 0.245918 -0.916288
-1.070137 2.884047 -1.706906 -0.451949 0.837886 -0.306009
-0.864487 2.865295 -1.463926 0.619373 0.447462 0.645070
-1.079451 2.865295 -1.716269 -0.777367 0.445692 -0.443861
-0.724218 2.416597 -1.361036 0.708823 0.167608 0.685141
-0.733580 2.397846 -1.875287 0.571581 -0.578295 -0.582080
-0.724218 2.397846 -1.361036 0.583056 -0.576373 0.572527
-0.873848 2.884047 -1.706906 0.451094 0.838313 -0.306101
-1.210358 2.397846 -1.875287 -0.571581 -0.578295 -0.582080
-0.733580 2.407221 -1.875287 0.718528 0.101199 -0.688040
-0.864487 2.865295 -1.716269 0.776513 0.446364 -0.444655
3 0 1 2
3 3 4 5
3 6 7 8
3 9 10 11
3 4 12 5
3 8 13 3
3 8 14 0
3 7 15 8
3 7 16 17
3 2 9 11
3 18 1 12
3 11 19 2
3 20 11 10
3 6 0 2
3 17 20 15
3 10 21 15
3 21 9 18
3 1 14 12
3 12 3 5
3 13 18 4
3 0 14 1
3 3 13 4
3 6 19 7
3 9 21 10
3 4 18 12
3 8 15 13
3 0 6 8
3 8 3 14
3 7 17 15
3 7 19 16
3 2 1 9
3 18 9 1
3 6 2 19
3 11 20 16
3 16 19 11
3 17 16 20
3 13 15 21
3 20 10 15
3 12 14 3
3 13 21 18
