ply
format ascii 1.0
comment Created by Blender 2.77 (sub 0) - www.blender.org, source file: 'House0-Colliders.blend'
element vertex 30
property float x
property float y
property float z
property float nx
property float ny
property float nz
element face 56
property list uchar uint vertex_indices
end_header
10.752794 5.312041 5.256325 0.756462 0.456648 -0.468154
8.791965 6.024772 4.543563 0.116642 -0.307474 -0.944365
8.791965 6.084271 4.543563 0.220862 0.691519 -0.687735
10.752794 4.480471 5.909504 0.625202 -0.712210 -0.319132
-1.718870 4.480471 5.909504 -0.517899 -0.799921 -0.303049
10.752794 5.074517 5.375071 0.698569 -0.453566 -0.553392
10.752794 5.252700 5.256325 0.715598 -0.258797 -0.648762
10.752794 4.599468 5.969087 0.648152 0.219733 0.729087
10.752794 4.777651 5.850200 0.693808 0.439497 0.570452
7.189462 4.718309 5.909504 0.000336 0.556658 0.830714
-1.955265 5.905931 4.603146 -0.683737 -0.394208 -0.614063
-1.955265 5.609065 4.840780 -0.696310 -0.472518 -0.540208
-1.955265 5.905931 4.840780 -0.704703 0.497269 0.506027
-1.718870 4.599468 5.969087 -0.521531 0.215003 0.825678
-1.718870 4.777651 5.850200 -0.265450 0.568072 0.778954
-1.895544 5.371383 5.315629 -0.397229 0.552568 0.732688
7.129741 4.718309 5.909504 -0.001221 0.557573 0.830103
-1.955265 6.084271 4.543563 -0.577349 0.577349 -0.577349
7.901133 6.084271 4.722034 0.002838 0.909482 0.415693
-1.895544 5.787090 4.959109 -0.090762 0.669607 0.737114
-1.955265 5.549723 5.137438 -0.823450 0.359325 0.439039
8.791965 6.084271 4.662450 0.143498 0.939817 0.310038
10.752794 5.312041 5.375071 0.683493 0.625141 0.376782
-1.955265 6.084271 4.662450 -0.628834 0.717521 0.299478
-1.718870 4.480471 5.969087 -0.517350 -0.606739 0.603473
-1.955265 5.312041 5.256187 -0.987091 -0.101169 0.123997
-1.955265 5.371383 5.256187 -0.904813 0.212317 0.369030
-1.955265 6.024772 4.543563 -0.658742 -0.173223 -0.732109
-1.955265 5.312041 5.137438 -0.768517 -0.475600 -0.427931
10.752794 4.480471 5.969087 0.577319 -0.577349 0.577319
3 0 1 2
3 3 4 1
3 5 1 6
3 7 8 9
3 10 11 12
3 13 14 15
3 13 16 14
3 2 17 18
3 14 19 15
3 15 19 12
3 15 12 20
3 21 18 22
3 18 23 16
3 24 7 13
3 25 4 24
3 15 26 13
3 10 27 1
3 0 21 22
3 28 11 4
3 2 27 17
3 3 5 8
3 4 29 24
3 16 7 9
3 25 13 26
3 0 6 1
3 10 1 11
3 5 3 1
3 4 11 1
3 25 26 28
3 20 12 11
3 23 17 27
3 27 10 23
3 11 28 20
3 26 20 28
3 23 10 12
3 23 18 17
3 21 2 18
3 14 16 19
3 9 8 18
3 22 18 8
3 23 12 19
3 19 16 23
3 9 18 16
3 24 29 7
3 25 28 4
3 15 20 26
3 0 2 21
3 2 1 27
3 6 0 22
3 22 8 5
3 7 29 3
3 3 8 7
3 6 22 5
3 4 3 29
3 16 13 7
3 25 24 13
