ply
format ascii 1.0
comment Created by Blender 2.77 (sub 0) - www.blender.org, source file: 'House0-Colliders.blend'
element vertex 15
property float x
property float y
property float z
property float nx
property float ny
property float nz
element face 26
property list uchar uint vertex_indices
end_header
10.521338 5.499063 -5.940011 0.629200 0.297159 -0.718162
10.219351 0.185642 -5.938922 -0.577929 -0.578967 -0.575121
10.219351 5.499063 -5.938922 -0.424818 0.398755 -0.812708
10.521338 0.185642 -5.940011 0.576373 -0.577136 -0.578478
10.279772 0.185642 5.173131 -0.574145 -0.596210 0.561113
10.514684 5.466567 5.462324 0.628315 0.273171 0.728385
10.521338 0.185642 5.173131 0.580554 -0.591235 0.559771
10.185057 5.419525 5.462324 -0.651021 0.231941 0.722709
10.279242 10.503569 0.612244 -0.473830 0.616260 0.629017
10.279242 11.210363 -0.094966 -0.624226 0.722800 0.296365
10.467576 5.466567 5.462324 -0.032868 0.389264 0.920530
10.514684 11.210363 -0.094966 0.630421 0.716819 0.297830
10.279242 11.210363 -0.235517 -0.624165 0.722739 -0.296670
10.514684 11.210363 -0.235517 0.630024 0.717429 -0.297159
10.185057 5.419525 -5.933356 -0.766625 0.067782 -0.638478
3 0 1 2
3 3 4 1
3 5 6 0
3 7 8 9
3 8 7 10
3 11 8 5
3 12 0 2
3 12 11 13
3 5 7 6
3 2 14 12
3 7 12 14
3 14 2 1
3 0 3 1
3 3 6 4
3 0 13 5
3 11 5 13
3 6 3 0
3 10 5 8
3 11 9 8
3 12 13 0
3 12 9 11
3 4 6 7
3 5 10 7
3 14 1 4
3 4 7 14
3 9 12 7
