ply
format ascii 1.0
comment Created by Blender 2.77 (sub 0) - www.blender.org, source file: 'House0-Colliders.blend'
element vertex 8
property float x
property float y
property float z
property float nx
property float ny
property float nz
element face 12
property list uchar uint vertex_indices
end_header
10.073680 -0.092624 5.656094 -0.577349 -0.577349 0.577349
10.762175 5.433415 5.656094 0.577319 0.577349 0.577349
10.073680 5.433415 5.656094 -0.577349 0.577349 0.577349
10.762241 5.433415 4.967464 0.577380 0.577319 -0.577319
10.073680 -0.092624 4.967464 -0.577349 -0.577349 -0.577349
10.073680 5.433415 4.967464 -0.577349 0.577349 -0.577349
10.762175 -0.092624 5.656094 0.577319 -0.577349 0.577349
10.762241 -0.092624 4.967464 0.577380 -0.577319 -0.577319
3 0 1 2
3 3 4 5
3 6 3 1
3 1 5 2
3 4 6 0
3 5 0 2
3 0 6 1
3 3 7 4
3 6 7 3
3 1 3 5
3 4 7 6
3 5 4 0
