ply
format ascii 1.0
comment Created by Blender 2.77 (sub 0) - www.blender.org, source file: 'House0-Colliders.blend'
element vertex 45
property float x
property float y
property float z
property float nx
property float ny
property float nz
element face 86
property list uchar uint vertex_indices
end_header
10.091555 0.704841 4.339606 -0.070589 0.091128 0.993316
10.182888 0.750418 4.339606 -0.034120 0.123600 0.991729
10.137220 1.560303 4.157011 -0.056337 0.777673 0.626087
10.205722 1.537448 4.168494 -0.027985 0.319254 0.947233
10.217059 1.560303 4.157105 0.561174 0.693014 0.452498
10.262726 1.560303 3.712384 0.608356 0.635731 -0.475082
9.441516 0.704841 3.438680 0.104831 0.105136 -0.988891
8.734314 1.560303 3.552660 0.035432 0.770531 -0.636402
10.205722 0.853132 4.316829 0.338145 0.192724 0.921140
10.205722 0.796260 4.328217 0.739128 0.112094 0.664113
10.217059 1.377730 4.202659 0.732261 0.134495 0.667562
8.677310 0.202832 4.191366 -0.154759 -0.683370 0.713462
10.091555 0.202832 4.339606 -0.037477 -0.695517 0.717490
10.274221 0.202832 3.598309 0.716575 -0.696677 0.033692
10.262726 1.560303 3.735160 0.714621 0.698416 0.038514
8.745811 0.727696 3.370064 0.036042 0.122868 -0.991760
8.711480 0.887148 3.404326 -0.310068 0.196204 -0.930235
8.711480 0.830410 3.392936 -0.740226 0.117313 -0.662008
8.700143 1.411880 3.518494 -0.654927 0.153539 -0.739891
10.217059 1.537448 4.168494 0.641346 0.252358 0.724540
8.768485 0.716268 3.370064 0.057741 0.104862 -0.992798
8.779982 0.704841 3.370064 0.064425 0.038789 -0.997162
8.722977 0.727696 3.370064 -0.497391 0.067476 -0.864895
8.722977 0.202832 3.370064 -0.417524 -0.605853 -0.677175
8.779982 0.202832 3.370064 0.037568 -0.695608 -0.717399
8.642981 0.202832 4.111456 -0.716636 -0.696585 -0.034059
10.274221 0.716268 3.529788 0.733940 0.079012 -0.674551
8.654476 1.560303 3.985993 -0.713553 0.699454 -0.039644
10.194225 0.750418 4.339606 0.350017 0.068209 0.934233
10.205722 0.750418 4.328217 0.903989 -0.000366 0.427503
10.194225 0.202832 4.339606 0.414075 -0.607990 0.677389
8.642981 0.202832 4.179882 -0.651509 -0.596240 0.469039
8.677310 0.704841 4.191366 -0.186041 0.080203 0.979247
8.642981 0.738990 4.179882 -0.743828 0.105899 0.659871
8.642981 0.989862 4.122844 -0.974059 0.064394 0.216803
8.642981 0.898443 4.145716 -0.742088 0.142582 0.654927
8.654476 1.480311 4.020253 -0.546953 0.188177 0.815729
8.711480 0.202832 3.392936 -0.715171 -0.667867 -0.205969
10.205722 0.202832 4.316829 0.713828 -0.669820 0.204382
8.654476 1.525888 4.008770 -0.724723 0.186377 0.663320
8.654476 1.560303 3.997381 -0.632466 0.664632 0.397748
8.665813 1.537448 4.008770 -0.199774 0.281777 0.938444
8.711480 1.560303 4.008770 -0.074648 0.777520 0.624378
8.700143 1.560303 3.552660 -0.552721 0.641285 -0.532151
10.274221 0.202832 3.529788 0.604480 -0.583361 -0.542405
3 0 1 2
3 3 4 2
3 5 6 7
3 8 9 10
3 0 11 12
3 13 14 9
3 15 16 7
3 17 18 16
3 19 8 10
3 20 6 21
3 22 21 23
3 24 11 25
3 13 26 14
3 17 27 18
3 28 29 9
3 2 14 7
3 0 30 28
3 8 19 3
3 31 32 33
3 34 25 35
3 36 34 35
3 37 22 23
3 29 30 38
3 9 8 28
3 6 24 21
3 34 39 40
3 40 39 41
3 40 41 42
3 39 36 41
3 16 22 17
3 2 42 35
3 41 36 42
3 35 33 32
3 32 0 35
3 1 3 2
3 42 36 35
3 35 0 2
3 3 19 4
3 15 7 20
3 5 26 6
3 6 20 7
3 0 32 11
3 4 19 14
3 10 9 14
3 29 38 13
3 13 9 29
3 19 10 14
3 43 7 18
3 15 22 16
3 16 18 7
3 24 23 21
3 22 15 20
3 20 21 22
3 37 23 24
3 24 44 13
3 13 38 12
3 30 12 38
3 11 31 25
3 25 37 24
3 24 13 12
3 12 11 24
3 5 14 26
3 13 44 26
3 43 18 27
3 17 37 25
3 25 27 17
3 28 30 29
3 43 27 7
3 40 42 27
3 2 4 14
3 14 5 7
3 7 27 42
3 42 2 7
3 28 1 0
3 0 12 30
3 3 1 8
3 28 8 1
3 31 11 32
3 33 35 25
3 34 40 27
3 27 25 34
3 31 33 25
3 36 39 34
3 37 17 22
3 6 26 44
3 44 24 6
