ply
format ascii 1.0
comment Created by Blender 2.77 (sub 0) - www.blender.org, source file: 'House0-Colliders.blend'
element vertex 10
property float x
property float y
property float z
property float nx
property float ny
property float nz
element face 16
property list uchar uint vertex_indices
end_header
10.521338 0.185641 5.475091 0.577349 -0.577349 0.577319
3.334033 5.499063 5.475120 0.000000 0.707083 0.707083
3.334033 0.185641 5.475120 0.000000 -0.707572 0.706626
10.521338 5.499063 5.173133 0.576495 0.577166 -0.578326
10.521338 5.499063 5.475091 0.577349 0.577349 0.577319
-8.685074 0.185641 5.233530 -0.578173 -0.577502 -0.576342
-8.685074 5.499063 5.475120 -0.577349 0.577349 0.577349
-8.685074 5.499063 5.233530 -0.578173 0.577502 -0.576342
10.521338 0.185641 5.173133 0.576495 -0.577166 -0.578326
-8.685074 0.185641 5.475120 -0.577349 -0.577349 0.577349
3 0 1 2
3 0 3 4
3 5 6 7
3 8 7 3
3 5 0 9
3 0 2 9
3 2 6 9
3 7 6 1
3 7 1 4
3 7 4 3
3 0 4 1
3 0 8 3
3 5 9 6
3 8 5 7
3 5 8 0
3 2 1 6
