ply
format ascii 1.0
comment Created by Blender 2.77 (sub 0) - www.blender.org, source file: 'House0-Colliders.blend'
element vertex 8
property float x
property float y
property float z
property float nx
property float ny
property float nz
element face 12
property list uchar uint vertex_indices
end_header
-1.126956 5.277655 5.462324 0.538743 -0.601856 0.589496
-0.859937 5.277655 -3.788376 0.585223 -0.575762 -0.570910
-1.113917 5.418924 5.462324 0.596515 0.554247 0.580462
-8.697855 5.277655 -3.767107 -0.578051 -0.577471 -0.576495
-8.697855 5.418924 5.462324 -0.577349 0.577349 0.577349
-8.697855 5.418924 -3.767107 -0.578051 0.577471 -0.576495
-8.697855 5.277655 5.462324 -0.577349 -0.577349 0.577349
-0.859937 5.418924 -3.788376 0.585223 0.575762 -0.570910
3 0 1 2
3 3 4 5
3 0 4 6
3 1 5 7
3 2 1 7
3 0 3 1
3 2 5 4
3 3 6 4
3 0 2 4
3 1 3 5
3 0 6 3
3 2 7 5
