ply
format ascii 1.0
comment Created by Blender 2.77 (sub 0) - www.blender.org, source file: 'House0-Colliders.blend'
element vertex 16
property float x
property float y
property float z
property float nx
property float ny
property float nz
element face 28
property list uchar uint vertex_indices
end_header
9.403376 0.321550 -2.917777 0.297098 -0.630238 -0.717277
10.008345 0.321550 -2.291932 0.717277 -0.630238 0.297098
9.382499 0.321550 -2.917777 -0.297128 -0.630238 -0.717246
10.008345 1.364487 -2.291932 0.717277 0.630238 0.297098
9.382499 1.364487 -2.917777 -0.297128 0.630238 -0.717277
8.517090 1.364487 -2.052222 -0.717277 0.630268 -0.297067
9.121913 0.321550 -1.426377 -0.297128 -0.630238 0.717246
8.517090 1.364487 -2.031346 -0.717277 0.630268 0.297037
8.517090 0.321550 -2.031346 -0.717277 -0.630268 0.297037
8.517090 0.321550 -2.052222 -0.717277 -0.630268 -0.297067
9.142789 0.321550 -1.426377 0.297098 -0.630238 0.717277
9.403376 1.364487 -2.917777 0.297098 0.630238 -0.717277
10.008345 0.321550 -2.312808 0.717277 -0.630238 -0.297098
10.008345 1.364487 -2.312808 0.717277 0.630238 -0.297098
9.142789 1.364487 -1.426377 0.297098 0.630238 0.717277
9.121913 1.364487 -1.426377 -0.297128 0.630238 0.717246
3 0 1 2
3 3 4 5
3 6 7 8
3 9 4 2
3 3 10 1
3 4 0 2
3 11 12 0
3 13 1 12
3 8 5 9
3 14 6 10
3 6 8 9
3 9 2 1
3 0 12 1
3 1 10 9
3 6 9 10
3 5 7 15
3 15 14 5
3 3 13 11
3 11 4 3
3 5 14 3
3 6 15 7
3 9 5 4
3 3 14 10
3 4 11 0
3 11 13 12
3 13 3 1
3 8 7 5
3 14 15 6
