ply
format ascii 1.0
comment Created by Blender 2.77 (sub 0) - www.blender.org, source file: 'House0-Colliders.blend'
element vertex 8
property float x
property float y
property float z
property float nx
property float ny
property float nz
element face 12
property list uchar uint vertex_indices
end_header
10.236036 1.045635 3.297455 0.577349 0.577349 0.577349
8.505871 1.045635 1.526094 -0.577349 0.577349 -0.577349
8.505871 1.045635 3.297455 -0.577349 0.577349 0.577349
8.505871 0.207934 3.297455 -0.577349 -0.577349 0.577349
8.505871 0.207934 1.526094 -0.577349 -0.577349 -0.577349
10.236036 0.207934 3.297455 0.577349 -0.577349 0.577349
10.236036 1.045635 1.526094 0.577349 0.577349 -0.577349
10.236036 0.207934 1.526094 0.577349 -0.577349 -0.577349
3 0 1 2
3 3 0 2
3 4 5 3
3 1 3 2
3 5 6 0
3 6 4 1
3 0 6 1
3 3 5 0
3 4 7 5
3 1 4 3
3 5 7 6
3 6 7 4
