ply
format ascii 1.0
comment Created by Blender 2.77 (sub 0) - www.blender.org, source file: 'House0-Colliders.blend'
element vertex 8
property float x
property float y
property float z
property float nx
property float ny
property float nz
element face 12
property list uchar uint vertex_indices
end_header
-6.418927 1.192809 4.070723 -0.577319 0.577319 -0.577380
-5.323796 0.213606 4.070830 0.577349 -0.577349 -0.577319
-6.418927 0.213606 4.070723 -0.577319 -0.577319 -0.577380
-5.323796 1.192809 4.070830 0.577349 0.577349 -0.577319
-5.323796 0.213606 5.165854 0.577349 -0.577349 0.577349
-5.323796 1.192809 5.165854 0.577349 0.577349 0.577349
-6.418927 0.213606 5.165854 -0.577349 -0.577349 0.577349
-6.418927 1.192809 5.165854 -0.577349 0.577349 0.577349
3 0 1 2
3 3 4 1
3 5 6 4
3 6 0 2
3 3 7 5
3 1 6 2
3 0 3 1
3 3 5 4
3 5 7 6
3 6 7 0
3 3 0 7
3 1 4 6
