ply
format ascii 1.0
comment Created by Blender 2.77 (sub 0) - www.blender.org, source file: 'House0-Colliders.blend'
element vertex 8
property float x
property float y
property float z
property float nx
property float ny
property float nz
element face 12
property list uchar uint vertex_indices
end_header
10.125698 2.087436 3.210259 -0.577349 0.577349 0.577349
10.125698 2.082166 2.625380 -0.579974 -0.574145 -0.577868
10.125698 2.082166 3.210259 -0.579974 -0.574145 0.577868
10.647472 2.076895 3.210259 0.574664 -0.580523 0.576800
10.647472 2.087436 2.625380 0.577349 0.577319 -0.577349
10.647472 2.087436 3.210259 0.577349 0.577319 0.577349
10.125698 2.087436 2.625380 -0.577349 0.577349 -0.577349
10.647472 2.076895 2.625380 0.574664 -0.580523 -0.576800
3 0 1 2
3 1 3 2
3 3 4 5
3 4 1 6
3 2 5 0
3 5 6 0
3 0 6 1
3 1 7 3
3 3 7 4
3 4 7 1
3 2 3 5
3 5 4 6
