ply
format ascii 1.0
comment Created by Blender 2.77 (sub 0) - www.blender.org, source file: 'House0-Colliders.blend'
element vertex 80
property float x
property float y
property float z
property float nx
property float ny
property float nz
element face 152
property list uchar uint vertex_indices
end_header
-2.254422 10.122258 0.444121 -0.672872 -0.437971 0.596149
-2.254515 3.114991 -5.554116 -0.615833 -0.724906 0.308573
-2.195074 9.588309 0.028415 -0.013123 -0.647725 0.761711
-2.254515 3.114991 -5.613771 -0.602680 -0.745048 -0.285775
-2.195074 3.114991 -5.554116 0.523331 -0.786126 0.328715
-1.779408 10.598415 0.623089 0.666463 -0.178533 0.723808
-1.779408 10.717253 0.623089 0.665700 0.118931 0.736625
-2.254515 10.657835 0.623089 -0.435286 0.028718 0.899808
-2.195074 10.419349 0.623089 0.061281 -0.260170 0.963591
-2.195074 10.299699 0.562177 0.122166 -0.509934 0.851466
-2.195074 10.122258 0.444121 0.164098 -0.584246 0.794794
-2.195074 3.352664 -5.316748 0.361492 -0.624958 0.691885
-2.254422 10.419349 0.623089 -0.599628 -0.202338 0.774255
-2.254422 10.299699 0.562177 -0.647908 -0.387066 0.656026
-1.779500 11.430270 0.028415 0.458296 0.887265 -0.051515
-1.838848 11.430270 0.147098 -0.162694 0.974090 0.157018
-1.779500 11.430270 0.147098 0.628651 0.724754 0.281930
-1.836039 6.023217 -6.110832 -0.899258 0.304270 -0.314188
-1.778056 5.152531 -7.097558 -0.460524 0.363964 -0.809564
-1.836039 5.036587 -7.039825 -0.888180 0.175604 -0.424604
-2.300210 3.876408 -6.226300 -0.979003 0.048921 -0.197760
-2.300210 11.129185 0.503089 -0.972198 0.221961 -0.074496
-1.778056 11.245867 -1.063978 -0.391644 0.791467 -0.469161
-1.661966 5.152531 -7.097558 0.659413 0.281411 -0.697104
-2.300210 3.701385 -6.226300 -0.719565 -0.470168 -0.511002
-2.242228 3.760464 -6.284033 -0.086856 -0.607868 -0.789239
-2.184183 3.760464 -6.284033 0.153630 -0.652913 -0.741661
-1.779362 4.183461 -6.207993 0.971740 -0.222144 0.079714
-1.661966 11.245867 -1.063978 0.669576 0.662374 -0.336009
-1.661966 5.037325 -7.097558 0.743767 -0.142949 -0.652943
-2.242228 11.245867 0.562323 -0.477676 0.629139 0.613178
-2.242228 11.245867 0.387621 -0.775170 0.615467 -0.142247
-1.838848 11.430270 0.028415 -0.255501 0.961425 -0.101749
-1.836039 11.245867 -0.948510 -0.703604 0.657613 -0.269082
-2.254515 3.827129 -6.326921 -0.557726 -0.332377 -0.760552
-2.254515 3.946123 -6.326921 -0.909635 0.066439 -0.410047
-2.195074 3.114991 -5.613771 0.487686 -0.823542 -0.289621
-1.779362 4.420961 -6.564411 0.701712 -0.538438 -0.466506
-1.779362 4.183461 -6.267335 0.902280 -0.377880 -0.207434
-2.184183 11.245867 0.562323 0.142857 0.579913 0.802026
-1.661966 11.245867 -0.947760 0.981292 0.192267 0.008881
-2.010173 4.456128 -6.748905 -0.517045 -0.327189 -0.790918
-1.720011 4.978984 -7.097558 0.267983 -0.396191 -0.878170
-2.135680 3.827129 -6.326921 0.328715 -0.610096 -0.720878
-2.300210 10.954161 0.562323 -0.964782 -0.020631 0.262154
-2.300210 11.129185 0.562323 -0.796442 0.211463 0.566515
-1.838894 4.895962 -7.039512 -0.544725 -0.279763 -0.790551
-1.778056 4.978984 -7.097558 -0.302622 -0.215155 -0.928495
-1.838894 5.014956 -7.039512 -0.828791 0.055971 -0.556719
-1.778019 12.174212 0.039899 -0.308237 0.875332 0.372478
-1.836099 12.116160 0.039899 -0.766961 0.627674 0.133183
-1.894247 12.000169 0.156126 -0.591235 0.665487 0.455519
-1.778019 12.000169 -0.308270 -0.502670 0.648732 -0.571337
-1.778019 11.304105 -1.004609 -0.467757 0.323435 -0.822535
-1.836099 11.304105 -0.888210 -0.899350 0.197668 -0.389904
-2.358341 11.187886 0.736238 -0.692038 0.279458 0.665548
-1.661926 11.246053 -0.888210 0.923826 -0.382763 0.000977
-1.662064 11.362043 0.562240 0.957671 -0.153905 0.243171
-1.778087 11.129948 0.736238 0.524308 -0.571215 0.631489
-2.126089 11.071895 0.736238 0.072848 -0.585162 0.807611
-2.242113 11.013728 0.620183 0.086673 -0.976196 0.198675
-1.778019 11.246053 -1.004609 -0.420667 -0.552507 -0.719535
-2.358341 11.013728 0.562240 -0.713645 -0.681326 -0.162725
-1.836099 11.246053 -0.888210 -0.866329 -0.306742 -0.394147
-2.358341 11.071895 0.736238 -0.605792 -0.417951 0.676992
-2.358341 11.129948 0.562240 -0.973510 0.109714 -0.200568
-2.358341 11.013728 0.620183 -0.658773 -0.732109 0.173193
-1.894247 11.942002 0.214069 -0.168096 0.643574 0.746666
-2.184170 11.246053 0.736238 -0.078951 0.365123 0.927580
-1.662064 11.478263 0.562240 0.708243 0.377758 0.596332
-1.661926 11.246053 -1.004609 0.588702 -0.535142 -0.605792
-2.358341 11.187886 0.620183 -0.961669 0.259896 -0.087313
-1.836099 12.116160 -0.018213 -0.836512 0.525193 -0.156163
-1.778019 12.174212 -0.076326 -0.410230 0.858821 -0.306742
-1.661926 12.174212 0.039899 0.618976 0.702475 0.351207
-1.661926 12.174212 -0.076326 0.642323 0.727042 -0.242439
-2.242113 11.013728 0.562240 0.112491 -0.991974 -0.057192
-1.661926 12.000169 -0.308270 0.691580 0.545640 -0.473251
-1.661926 11.304105 -1.004609 0.630238 0.297159 -0.717246
-1.778087 11.246053 0.736238 0.397961 0.232368 0.887448
3 0 1 2
3 3 4 1
3 5 6 7
3 5 8 9
3 5 9 10
3 2 11 5
3 10 2 5
3 5 11 4
3 9 12 13
3 10 13 0
3 14 15 16
3 17 18 19
3 20 21 17
3 22 23 18
3 24 25 26
3 5 27 28
3 18 23 29
3 17 22 18
3 21 30 31
3 31 32 33
3 32 22 33
3 34 20 35
3 36 37 38
3 36 27 4
3 19 35 20
3 15 39 16
3 16 6 40
3 16 39 6
3 41 42 43
3 44 7 45
3 7 30 45
3 7 39 30
3 20 1 0
3 12 44 13
3 46 47 41
3 48 41 35
3 38 29 27
3 31 15 32
3 38 37 29
3 22 14 28
3 26 43 36
3 24 34 25
3 47 48 18
3 27 5 4
3 19 18 48
3 43 42 37
3 40 14 16
3 49 50 51
3 52 53 54
3 50 55 51
3 56 57 58
3 58 59 60
3 61 62 63
3 64 65 66
3 67 55 68
3 67 51 55
3 67 68 69
3 70 56 58
3 71 50 72
3 73 74 75
3 58 76 70
3 61 76 62
3 53 77 78
3 60 62 76
3 61 78 70
3 57 79 58
3 65 72 54
3 72 49 73
3 54 61 63
3 63 65 54
3 57 56 77
3 52 75 77
3 68 59 79
3 60 64 66
3 11 2 1
3 10 0 2
3 1 4 11
3 3 36 4
3 7 12 8
3 8 5 7
3 9 8 12
3 10 9 13
3 14 32 15
3 33 17 21
3 19 20 17
3 21 31 33
3 22 28 23
3 26 36 24
3 3 24 36
3 28 40 5
3 6 5 40
3 27 29 23
3 23 28 27
3 29 42 18
3 47 18 42
3 17 33 22
3 21 45 30
3 34 24 20
3 36 38 27
3 19 48 35
3 15 30 39
3 26 25 34
3 34 41 43
3 47 42 41
3 43 26 34
3 44 12 7
3 7 6 39
3 0 13 44
3 44 45 21
3 21 20 0
3 24 3 1
3 1 20 24
3 44 21 0
3 34 35 41
3 48 46 41
3 31 30 15
3 22 32 14
3 47 46 48
3 29 37 42
3 36 43 37
3 40 28 14
3 54 72 52
3 73 52 72
3 62 66 65
3 64 55 71
3 71 65 64
3 67 49 51
3 69 74 67
3 49 67 74
3 68 79 69
3 71 55 50
3 73 49 74
3 58 60 76
3 61 70 76
3 53 52 77
3 60 66 62
3 61 53 78
3 57 69 79
3 65 71 72
3 72 50 49
3 54 53 61
3 63 62 65
3 78 77 56
3 75 74 77
3 69 57 77
3 56 70 78
3 77 74 69
3 52 73 75
3 58 79 59
3 68 55 59
3 64 59 55
3 60 59 64
