ply
format ascii 1.0
comment Created by Blender 2.77 (sub 0) - www.blender.org, source file: 'House0-Colliders.blend'
element vertex 8
property float x
property float y
property float z
property float nx
property float ny
property float nz
element face 12
property list uchar uint vertex_indices
end_header
-4.250608 0.202468 1.935872 -0.577349 -0.577349 0.577349
-4.250608 1.001530 0.890841 -0.577349 0.577349 -0.577349
-4.250608 0.202468 0.890841 -0.577349 -0.577349 -0.577349
-2.013027 1.001530 1.935872 0.577349 0.577349 0.577349
-2.013027 0.202468 1.935872 0.577349 -0.577349 0.577349
-2.013027 1.001530 0.890841 0.577349 0.577349 -0.577349
-2.013027 0.202468 0.890841 0.577349 -0.577349 -0.577349
-4.250608 1.001530 1.935872 -0.577349 0.577349 0.577349
3 0 1 2
3 3 0 4
3 1 3 5
3 5 4 6
3 4 2 6
3 2 5 6
3 0 7 1
3 3 7 0
3 1 7 3
3 5 3 4
3 4 0 2
3 2 1 5
