ply
format ascii 1.0
comment Created by Blender 2.77 (sub 0) - www.blender.org, source file: 'House0-Colliders.blend'
element vertex 8
property float x
property float y
property float z
property float nx
property float ny
property float nz
element face 12
property list uchar uint vertex_indices
end_header
-1.751041 5.476426 4.966664 -0.577319 0.577319 -0.577380
-1.058604 -0.091324 4.966733 0.577349 -0.577349 -0.577319
-1.751041 -0.091324 4.966664 -0.577319 -0.577319 -0.577380
-1.751041 -0.091324 5.659102 -0.577319 -0.577319 0.577380
-1.058604 5.476426 5.659034 0.577349 0.577349 0.577319
-1.058604 -0.091324 5.659034 0.577349 -0.577349 0.577319
-1.058604 5.476426 4.966733 0.577349 0.577349 -0.577319
-1.751041 5.476426 5.659102 -0.577319 0.577319 0.577380
3 0 1 2
3 1 3 2
3 4 3 5
3 3 0 2
3 6 5 1
3 7 6 0
3 0 6 1
3 1 5 3
3 4 7 3
3 3 7 0
3 6 4 5
3 7 4 6
