ply
format ascii 1.0
comment Created by Blender 2.77 (sub 0) - www.blender.org, source file: 'House0.blend'
element vertex 645
property float x
property float y
property float z
property float nx
property float ny
property float nz
property uchar red
property uchar green
property uchar blue
element face 336
property list uchar uint vertex_indices
end_header
-0.807380 2.380838 4.814480 -0.000000 1.000000 0.000000 83 77 70
-1.510930 2.380838 4.709695 -0.000000 1.000000 0.000000 83 77 70
-1.510930 2.380838 4.814480 -0.000000 1.000000 0.000000 83 77 70
-1.066635 3.548990 2.308446 0.000000 0.000000 1.000000 83 77 70
-1.024067 3.304626 2.308446 0.000000 0.000000 1.000000 83 77 70
-1.024067 3.548990 2.308446 0.000000 0.000000 1.000000 83 77 70
-1.226792 0.311352 4.438531 0.000000 -1.000000 -0.000000 164 119 50
-1.095813 0.311352 4.983624 0.000000 -1.000000 -0.000000 164 119 50
-1.226792 0.311352 4.983624 0.000000 -1.000000 -0.000000 164 119 50
-0.890859 1.901825 4.686093 -1.000000 0.000000 0.000000 164 119 50
-0.890859 2.305993 4.838082 -1.000000 0.000000 0.000000 164 119 50
-0.890859 2.305993 4.686093 -1.000000 0.000000 0.000000 164 119 50
-0.783777 1.901825 4.686093 -0.000000 -0.000000 -1.000000 164 119 50
-0.890859 2.305993 4.686093 -0.000000 -0.000000 -1.000000 164 119 50
-0.783777 2.305993 4.686093 -0.000000 -0.000000 -1.000000 164 119 50
-1.066635 1.079080 2.064639 -0.000000 -0.000000 -1.000000 83 77 70
-1.261234 1.134656 2.064639 -0.000000 -0.000000 -1.000000 83 77 70
-1.066635 1.134656 2.064639 -0.000000 -0.000000 -1.000000 83 77 70
-0.890859 1.901825 4.838082 -0.000000 0.000000 1.000000 164 119 50
-0.783777 2.305993 4.838082 -0.000000 0.000000 1.000000 164 119 50
-0.890859 2.305993 4.838082 -0.000000 0.000000 1.000000 164 119 50
-1.205929 4.238604 4.406032 -1.000000 0.000000 0.000000 164 119 50
-1.205929 0.519330 4.417667 -1.000000 0.000000 0.000000 164 119 50
-1.205929 4.238604 4.438530 -1.000000 0.000000 0.000000 164 119 50
-1.116676 0.519330 3.251421 0.000000 -1.000000 0.000000 164 119 50
-1.205929 0.519330 3.272923 0.000000 -1.000000 0.000000 164 119 50
-1.205929 0.519330 3.251421 0.000000 -1.000000 0.000000 164 119 50
-1.095812 4.259467 3.876613 1.000000 -0.000000 0.000000 164 119 50
-1.095813 0.311352 3.272923 1.000000 -0.000000 0.000000 164 119 50
-1.095812 4.259467 3.272923 1.000000 -0.000000 0.000000 164 119 50
-1.205929 4.238604 2.679655 -1.000000 0.000000 0.000000 164 119 50
-1.205930 0.519330 2.626293 -1.000000 0.000000 0.000000 164 119 50
-1.205930 0.519330 2.700519 -1.000000 0.000000 0.000000 164 119 50
-1.095812 4.259467 3.876613 -0.000000 1.000000 0.000000 164 119 50
-1.226792 4.259467 3.272923 -0.000000 1.000000 0.000000 164 119 50
-1.226792 4.259467 3.876613 -0.000000 1.000000 0.000000 164 119 50
-0.867256 2.305993 4.814480 0.000000 1.000000 0.000000 164 119 50
-0.890859 2.305993 4.838082 0.000000 1.000000 0.000000 164 119 50
-0.807380 2.305993 4.814480 0.000000 1.000000 0.000000 164 119 50
-1.534533 1.901825 4.838082 -0.000000 0.000000 1.000000 164 119 50
-1.427451 2.305993 4.838082 -0.000000 0.000000 1.000000 164 119 50
-1.534533 2.305993 4.838082 -0.000000 0.000000 1.000000 164 119 50
-0.867257 1.901825 4.709695 -1.000000 -0.000000 -0.000000 83 77 70
-0.867257 1.864402 4.814480 -1.000000 -0.000000 -0.000000 83 77 70
-0.867257 1.901825 4.814480 -1.000000 -0.000000 -0.000000 83 77 70
-1.095813 0.311352 2.647156 1.000000 -0.000000 -0.000000 164 119 50
-1.095812 4.259467 2.064639 1.000000 -0.000000 -0.000000 164 119 50
-1.095812 4.259467 2.647156 1.000000 -0.000000 -0.000000 164 119 50
-1.066635 0.834715 2.064639 0.000000 -0.000000 -1.000000 83 77 70
-1.261234 0.779139 2.064639 0.000000 -0.000000 -1.000000 83 77 70
-1.261234 0.834715 2.064639 0.000000 -0.000000 -1.000000 83 77 70
-1.205929 0.519330 3.251421 -1.000000 0.000000 0.000000 164 119 50
-1.205929 4.238604 3.272923 -1.000000 0.000000 0.000000 164 119 50
-1.205929 4.238604 3.251420 -1.000000 0.000000 0.000000 164 119 50
-1.062688 2.556726 5.021048 1.000000 -0.000000 -0.000000 83 77 70
-1.062688 1.639865 4.515839 1.000000 -0.000000 -0.000000 83 77 70
-1.062688 2.556726 4.515839 1.000000 -0.000000 -0.000000 83 77 70
-1.205929 0.519330 4.417667 -0.000000 -1.000000 -0.000000 164 119 50
-1.116676 0.519330 4.385168 -0.000000 -1.000000 -0.000000 164 119 50
-1.116676 0.519330 4.417667 -0.000000 -1.000000 -0.000000 164 119 50
-1.226792 0.311352 4.406032 -0.000000 -1.000000 0.000000 164 119 50
-1.095813 0.311352 3.920109 -0.000000 -1.000000 0.000000 164 119 50
-1.095813 0.311352 4.406032 -0.000000 -1.000000 0.000000 164 119 50
-1.066635 3.548990 2.064639 -0.000000 -0.000000 -1.000000 83 77 70
-1.261234 3.604567 2.064639 -0.000000 -0.000000 -1.000000 83 77 70
-1.066635 3.604567 2.064639 -0.000000 -0.000000 -1.000000 83 77 70
-1.116676 0.519330 3.899246 0.000000 -0.099814 -0.995006 164 119 50
-1.226793 0.311352 3.920109 0.000000 -0.099814 -0.995006 164 119 50
-1.205929 0.519330 3.899246 0.000000 -0.099814 -0.995006 164 119 50
-1.116676 0.519330 4.385168 0.000000 0.099817 0.995006 164 119 50
-1.226792 0.311352 4.406032 0.000000 0.099817 0.995006 164 119 50
-1.095813 0.311352 4.406032 0.000000 0.099817 0.995006 164 119 50
-1.205930 0.519330 2.626293 0.707103 -0.000000 0.707110 164 119 50
-1.226792 4.259467 2.647156 0.707103 -0.000000 0.707110 164 119 50
-1.226793 0.311352 2.647156 0.707103 -0.000000 0.707110 164 119 50
-1.226792 4.259467 3.920109 0.000000 0.000000 -1.000000 164 119 50
-1.116676 4.238604 3.920109 0.000000 0.000000 -1.000000 164 119 50
-1.205929 4.238604 3.920109 0.000000 0.000000 -1.000000 164 119 50
-1.226792 4.259467 2.679655 0.707120 -0.000000 -0.707094 164 119 50
-1.205930 0.519330 2.700519 0.707120 -0.000000 -0.707094 164 119 50
-1.226793 0.311352 2.679655 0.707120 -0.000000 -0.707094 164 119 50
-1.095812 4.259467 2.647156 -0.707098 0.000000 0.707115 164 119 50
-1.116676 0.519330 2.626293 -0.707098 0.000000 0.707115 164 119 50
-1.095813 0.311352 2.647156 -0.707098 0.000000 0.707115 164 119 50
-1.116676 0.519330 2.700519 -0.707114 0.000000 -0.707099 164 119 50
-1.095812 4.259467 2.679655 -0.707114 0.000000 -0.707099 164 119 50
-1.095813 0.311352 2.679655 -0.707114 0.000000 -0.707099 164 119 50
-1.095812 4.259467 2.647156 0.000000 -0.000000 1.000000 164 119 50
-1.226792 4.259467 2.647156 0.000000 -0.000000 1.000000 164 119 50
-1.116676 4.238604 2.647156 0.000000 -0.000000 1.000000 164 119 50
-1.116676 0.519330 2.700519 0.000000 0.099817 -0.995006 164 119 50
-1.226793 0.311352 2.679655 0.000000 0.099817 -0.995006 164 119 50
-1.205930 0.519330 2.700519 0.000000 0.099817 -0.995006 164 119 50
-1.066635 3.604567 2.064639 0.000000 1.000000 0.000000 83 77 70
-1.261233 3.604567 4.983624 0.000000 1.000000 0.000000 83 77 70
-1.066634 3.604567 4.983624 0.000000 1.000000 0.000000 83 77 70
-1.510930 2.305993 4.814480 0.000000 1.000000 0.000000 164 119 50
-1.510930 2.305993 4.709695 0.000000 1.000000 0.000000 164 119 50
-1.534533 2.305993 4.686093 0.000000 1.000000 0.000000 164 119 50
-1.116676 0.519330 2.626293 0.000000 0.099813 0.995006 164 119 50
-1.226793 0.311352 2.647156 0.000000 0.099813 0.995006 164 119 50
-1.095813 0.311352 2.647156 0.000000 0.099813 0.995006 164 119 50
-1.205929 0.519330 4.385168 0.707121 -0.000000 0.707092 164 119 50
-1.226792 4.259467 4.406032 0.707121 -0.000000 0.707092 164 119 50
-1.226792 0.311352 4.406032 0.707121 -0.000000 0.707092 164 119 50
-1.226792 4.259467 2.679655 0.000000 0.000000 -1.000000 164 119 50
-1.116676 4.238604 2.679655 0.000000 0.000000 -1.000000 164 119 50
-1.205929 4.238604 2.679655 0.000000 0.000000 -1.000000 164 119 50
-1.095812 4.259467 4.406032 0.000000 -0.000000 1.000000 164 119 50
-1.226792 4.259467 4.406032 0.000000 -0.000000 1.000000 164 119 50
-1.116675 4.238604 4.406032 0.000000 -0.000000 1.000000 164 119 50
-1.226792 4.259467 4.438530 -0.707113 0.000000 -0.707101 164 119 50
-1.205929 0.519330 4.417667 -0.707113 0.000000 -0.707101 164 119 50
-1.226792 0.311352 4.438531 -0.707113 0.000000 -0.707101 164 119 50
-1.095812 4.259467 4.406032 -0.707114 0.000000 0.707099 164 119 50
-1.116676 0.519330 4.385168 -0.707114 0.000000 0.707099 164 119 50
-1.095813 0.311352 4.406032 -0.707114 0.000000 0.707099 164 119 50
-1.116676 0.519330 4.417667 0.707106 -0.000000 -0.707108 164 119 50
-1.095812 4.259467 4.438530 0.707106 -0.000000 -0.707108 164 119 50
-1.095813 0.311352 4.438531 0.707106 -0.000000 -0.707108 164 119 50
-1.226793 0.311352 3.251421 -0.000000 0.000000 1.000000 164 119 50
-1.116676 0.519330 3.251421 -0.000000 0.000000 1.000000 164 119 50
-1.205929 0.519330 3.251421 -0.000000 0.000000 1.000000 164 119 50
-1.066635 3.249050 2.064639 0.000000 -1.000000 0.000000 83 77 70
-1.261233 3.249050 4.983624 0.000000 -1.000000 0.000000 83 77 70
-1.261234 3.249050 2.064639 0.000000 -1.000000 0.000000 83 77 70
-1.116675 4.238604 4.406032 1.000000 -0.000000 0.000000 164 119 50
-1.116676 0.519330 4.417667 1.000000 -0.000000 0.000000 164 119 50
-1.116676 0.519330 4.385168 1.000000 -0.000000 0.000000 164 119 50
-1.226792 4.259467 3.251420 0.000000 0.000000 1.000000 164 119 50
-1.205929 4.238604 3.251420 0.000000 0.000000 1.000000 164 119 50
-1.116676 4.238604 3.251420 0.000000 0.000000 1.000000 164 119 50
-1.095812 4.259467 3.272923 0.000000 -0.000000 -1.000000 164 119 50
-1.116676 0.519330 3.272923 0.000000 -0.000000 -1.000000 164 119 50
-1.116676 4.238604 3.272923 0.000000 -0.000000 -1.000000 164 119 50
-1.226792 4.259467 2.647156 -1.000000 0.000000 0.000000 164 119 50
-1.226793 0.311352 2.064639 -1.000000 0.000000 0.000000 164 119 50
-1.226793 0.311352 2.647156 -1.000000 0.000000 0.000000 164 119 50
-1.205929 0.519330 3.272923 0.000001 -0.000000 -1.000000 164 119 50
-1.226793 0.311352 3.272923 0.000001 -0.000000 -1.000000 164 119 50
-1.226792 4.259467 3.272923 0.000001 -0.000000 -1.000000 164 119 50
-1.534533 1.901825 4.686093 -1.000000 0.000000 0.000000 164 119 50
-1.534533 2.305993 4.838082 -1.000000 0.000000 0.000000 164 119 50
-1.534533 2.305993 4.686093 -1.000000 0.000000 0.000000 164 119 50
-1.116676 0.519330 2.700519 1.000000 -0.000000 0.000000 164 119 50
-1.116676 4.238604 2.647156 1.000000 -0.000000 0.000000 164 119 50
-1.116676 4.238604 2.679655 1.000000 -0.000000 0.000000 164 119 50
-1.257287 1.639865 5.021048 -0.000000 -1.000000 0.000000 83 77 70
-1.062688 1.639865 4.515839 -0.000000 -1.000000 0.000000 83 77 70
-1.062688 1.639865 5.021048 -0.000000 -1.000000 0.000000 83 77 70
-1.116676 0.519330 3.855750 0.000000 0.099813 0.995006 164 119 50
-1.226793 0.311352 3.876613 0.000000 0.099813 0.995006 164 119 50
-1.095813 0.311352 3.876613 0.000000 0.099813 0.995006 164 119 50
-1.095812 4.259467 3.876613 0.000000 -0.000000 1.000000 164 119 50
-1.226792 4.259467 3.876613 0.000000 -0.000000 1.000000 164 119 50
-1.116676 4.238604 3.876613 0.000000 -0.000000 1.000000 164 119 50
-1.226792 4.259467 3.920109 -0.707107 0.000000 -0.707106 164 119 50
-1.205929 0.519330 3.899246 -0.707107 0.000000 -0.707106 164 119 50
-1.226793 0.311352 3.920109 -0.707107 0.000000 -0.707106 164 119 50
-1.205929 0.519330 3.855750 0.707103 -0.000000 0.707110 164 119 50
-1.226792 4.259467 3.876613 0.707103 -0.000000 0.707110 164 119 50
-1.226793 0.311352 3.876613 0.707103 -0.000000 0.707110 164 119 50
-1.226792 4.259467 4.438530 0.000000 0.000000 -1.000000 164 119 50
-1.116675 4.238604 4.438530 0.000000 0.000000 -1.000000 164 119 50
-1.205929 4.238604 4.438530 0.000000 0.000000 -1.000000 164 119 50
-1.116676 0.519330 3.899246 0.707098 -0.000000 -0.707115 164 119 50
-1.095812 4.259467 3.920109 0.707098 -0.000000 -0.707115 164 119 50
-1.095813 0.311352 3.920109 0.707098 -0.000000 -0.707115 164 119 50
-1.095812 4.259467 3.876613 -0.707098 0.000000 0.707115 164 119 50
-1.116676 0.519330 3.855750 -0.707098 0.000000 0.707115 164 119 50
-1.095813 0.311352 3.876613 -0.707098 0.000000 0.707115 164 119 50
-1.116676 0.519330 3.899246 1.000000 -0.000000 0.000000 164 119 50
-1.116676 4.238604 3.876613 1.000000 -0.000000 0.000000 164 119 50
-1.116676 4.238604 3.920109 1.000000 -0.000000 0.000000 164 119 50
-0.807380 2.305993 4.709695 1.000000 0.000000 -0.000001 83 77 70
-0.807380 2.380838 4.814480 1.000000 0.000000 -0.000001 83 77 70
-0.807380 2.305993 4.814480 1.000000 0.000000 -0.000001 83 77 70
-1.510930 2.305993 4.709695 -1.000000 -0.000000 0.000000 83 77 70
-1.510930 2.380838 4.814480 -1.000000 -0.000000 0.000000 83 77 70
-1.510930 2.380838 4.709695 -1.000000 -0.000000 0.000000 83 77 70
-1.116675 4.238604 4.438530 -0.000000 1.000000 0.000000 164 119 50
-1.205929 4.238604 4.406032 -0.000000 1.000000 0.000000 164 119 50
-1.205929 4.238604 4.438530 -0.000000 1.000000 0.000000 164 119 50
-1.261234 1.134656 4.983624 0.000000 0.000000 1.000000 83 77 70
-1.066635 0.779139 4.983624 0.000000 0.000000 1.000000 83 77 70
-1.066635 1.134656 4.983624 0.000000 0.000000 1.000000 83 77 70
-1.510930 1.901825 4.709695 -0.000000 -1.000000 -0.000000 164 119 50
-1.427451 1.901825 4.686093 -0.000000 -1.000000 -0.000000 164 119 50
-1.451053 1.901825 4.709695 -0.000000 -1.000000 -0.000000 164 119 50
-1.451053 2.305993 4.814480 0.000000 1.000000 -0.000000 164 119 50
-1.427451 2.305993 4.838082 0.000000 1.000000 -0.000000 164 119 50
-1.427451 2.305993 4.686093 0.000000 1.000000 -0.000000 164 119 50
-1.095812 4.259467 4.406032 1.000000 -0.000000 -0.000000 164 119 50
-1.095813 0.311352 3.920109 1.000000 -0.000000 -0.000000 164 119 50
-1.095812 4.259467 3.920109 1.000000 -0.000000 -0.000000 164 119 50
-1.116676 4.238604 2.679655 -0.000000 1.000000 0.000000 164 119 50
-1.205929 4.238604 2.647156 -0.000000 1.000000 0.000000 164 119 50
-1.205929 4.238604 2.679655 -0.000000 1.000000 0.000000 164 119 50
-1.451053 1.901825 4.814480 -0.000000 -1.000000 -0.000000 164 119 50
-1.427451 1.901825 4.838082 -0.000000 -1.000000 -0.000000 164 119 50
-1.510930 1.901825 4.709695 -1.000000 -0.000000 -0.000000 83 77 70
-1.510930 1.804526 4.814480 -1.000000 -0.000000 -0.000000 83 77 70
-1.510930 1.901825 4.814480 -1.000000 -0.000000 -0.000000 83 77 70
-0.867257 1.901825 4.814480 -0.000000 -1.000000 0.000000 164 119 50
-0.890859 1.901825 4.686093 -0.000000 -1.000000 0.000000 164 119 50
-0.867257 1.901825 4.709695 -0.000000 -1.000000 0.000000 164 119 50
-1.116676 0.519330 3.855750 0.000000 -1.000000 0.000000 164 119 50
-1.205929 0.519330 3.899246 0.000000 -1.000000 0.000000 164 119 50
-1.205929 0.519330 3.855750 0.000000 -1.000000 0.000000 164 119 50
-0.807380 2.305993 4.709695 0.000000 1.000000 -0.000000 164 119 50
-0.783777 2.305993 4.686093 0.000000 1.000000 -0.000000 164 119 50
-0.890859 2.305993 4.686093 0.000000 1.000000 -0.000000 164 119 50
-1.062688 2.556726 4.515839 0.000000 -0.000000 -1.000000 83 77 70
-1.257287 1.639865 4.515839 0.000000 -0.000000 -1.000000 83 77 70
-1.257287 2.556726 4.515839 0.000000 -0.000000 -1.000000 83 77 70
-1.034709 3.548990 2.032713 0.000000 0.000000 -1.000000 83 77 70
-1.293160 3.304626 2.032713 0.000000 0.000000 -1.000000 83 77 70
-1.293160 3.548990 2.032713 0.000000 0.000000 -1.000000 83 77 70
-0.807380 1.901825 4.814480 0.000000 -1.000000 0.000000 164 119 50
-0.807380 1.901825 4.709695 0.000000 -1.000000 0.000000 164 119 50
-0.783777 1.901825 4.686093 0.000000 -1.000000 0.000000 164 119 50
-1.116676 0.519330 4.417667 0.000000 -0.099815 -0.995006 164 119 50
-1.226792 0.311352 4.438531 0.000000 -0.099815 -0.995006 164 119 50
-1.205929 0.519330 4.417667 0.000000 -0.099815 -0.995006 164 119 50
-1.226792 4.259467 4.983624 0.000000 0.000000 1.000000 164 119 50
-1.095813 0.311352 4.983624 0.000000 0.000000 1.000000 164 119 50
-1.095812 4.259467 4.983624 0.000000 0.000000 1.000000 164 119 50
-1.066635 3.304626 2.064639 0.000000 0.000000 -1.000000 83 77 70
-1.261234 3.249050 2.064639 0.000000 0.000000 -1.000000 83 77 70
-1.261234 3.304626 2.064639 0.000000 0.000000 -1.000000 83 77 70
-1.095813 0.311352 4.438531 1.000000 -0.000000 0.000000 164 119 50
-1.095812 4.259467 4.983624 1.000000 -0.000000 0.000000 164 119 50
-1.095813 0.311352 4.983624 1.000000 -0.000000 0.000000 164 119 50
-1.226792 4.259467 4.406032 -1.000000 0.000000 0.000000 164 119 50
-1.226793 0.311352 3.920109 -1.000000 0.000000 0.000000 164 119 50
-1.226792 0.311352 4.406032 -1.000000 0.000000 0.000000 164 119 50
-1.095812 4.259467 2.647156 -0.000000 1.000000 0.000000 164 119 50
-1.226792 4.259467 2.064639 -0.000000 1.000000 0.000000 164 119 50
-1.226792 4.259467 2.647156 -0.000000 1.000000 0.000000 164 119 50
-1.261233 3.604567 4.983624 0.000000 0.000000 1.000000 83 77 70
-1.066634 3.249050 4.983624 0.000000 0.000000 1.000000 83 77 70
-1.066634 3.604567 4.983624 0.000000 0.000000 1.000000 83 77 70
-1.451053 2.320962 4.709695 -0.000000 -0.000000 -1.000000 83 77 70
-1.510930 2.380838 4.709695 -0.000000 -0.000000 -1.000000 83 77 70
-0.867257 2.320962 4.709695 -0.000000 -0.000000 -1.000000 83 77 70
-1.303802 1.079080 2.308446 -0.999256 0.000000 -0.038566 83 77 70
-1.293160 0.834715 2.032713 -0.999256 0.000000 -0.038566 83 77 70
-1.303802 0.834715 2.308446 -0.999256 0.000000 -0.038566 83 77 70
-1.257287 2.556726 5.021048 0.000000 0.000000 1.000000 83 77 70
-1.062688 1.639865 5.021048 0.000000 0.000000 1.000000 83 77 70
-1.062688 2.556726 5.021048 0.000000 0.000000 1.000000 83 77 70
-1.303802 1.079080 2.308446 0.000000 0.000000 1.000000 83 77 70
-1.261234 0.834715 2.308446 0.000000 0.000000 1.000000 83 77 70
-1.261234 1.079080 2.308446 0.000000 0.000000 1.000000 83 77 70
-1.226792 4.259467 4.438530 -1.000000 0.000000 0.000000 164 119 50
-1.226792 0.311352 4.983624 -1.000000 0.000000 0.000000 164 119 50
-1.226792 4.259467 4.983624 -1.000000 0.000000 0.000000 164 119 50
-1.510930 1.804526 4.814480 -0.000000 -1.000000 0.000000 83 77 70
-0.807380 1.804526 4.709695 -0.000000 -1.000000 0.000000 83 77 70
-0.807380 1.804526 4.814480 -0.000000 -1.000000 0.000000 83 77 70
-1.205929 4.238604 3.920109 0.000000 1.000000 -0.000000 164 119 50
-1.116676 4.238604 3.876613 0.000000 1.000000 -0.000000 164 119 50
-1.205929 4.238604 3.876613 0.000000 1.000000 -0.000000 164 119 50
-1.024067 0.834715 2.308446 0.999256 0.000000 -0.038568 83 77 70
-1.034710 1.079080 2.032713 0.999256 0.000000 -0.038568 83 77 70
-1.024067 1.079080 2.308446 0.999256 0.000000 -0.038568 83 77 70
-1.451053 2.320962 4.814480 -0.000000 -1.000000 0.000000 83 77 70
-0.867257 2.320962 4.709695 -0.000000 -1.000000 0.000000 83 77 70
-0.867256 2.320962 4.814480 -0.000000 -1.000000 0.000000 83 77 70
-1.303802 3.548990 2.308446 0.000000 0.000000 1.000000 83 77 70
-1.261234 3.304626 2.308446 0.000000 0.000000 1.000000 83 77 70
-1.261234 3.548990 2.308446 0.000000 0.000000 1.000000 83 77 70
-1.226793 0.311352 3.251421 -0.000000 -1.000000 0.000000 164 119 50
-1.095813 0.311352 2.679655 -0.000000 -1.000000 0.000000 164 119 50
-1.095813 0.311352 3.251421 -0.000000 -1.000000 0.000000 164 119 50
-1.261234 0.779139 4.983624 -1.000000 0.000000 0.000000 83 77 70
-1.261234 1.079080 2.308446 -1.000000 0.000000 0.000000 83 77 70
-1.261234 0.834715 2.308446 -1.000000 0.000000 0.000000 83 77 70
-1.451053 1.901825 4.814480 1.000000 0.000000 -0.000000 83 77 70
-1.451053 1.864402 4.709695 1.000000 0.000000 -0.000000 83 77 70
-1.451053 1.901825 4.709695 1.000000 0.000000 -0.000000 83 77 70
-1.451053 2.305993 4.709695 1.000000 -0.000000 0.000000 83 77 70
-1.451053 2.320962 4.814480 1.000000 -0.000000 0.000000 83 77 70
-1.451053 2.305993 4.814480 1.000000 -0.000000 0.000000 83 77 70
-1.226792 4.259467 3.876613 -1.000000 0.000000 0.000000 164 119 50
-1.226793 0.311352 3.272923 -1.000000 0.000000 0.000000 164 119 50
-1.226793 0.311352 3.876613 -1.000000 0.000000 0.000000 164 119 50
-1.226792 4.259467 3.251420 -1.000000 0.000000 0.000000 164 119 50
-1.226793 0.311352 2.679655 -1.000000 0.000000 0.000000 164 119 50
-1.226793 0.311352 3.251421 -1.000000 0.000000 0.000000 164 119 50
-1.205929 4.238604 3.272923 0.000000 1.000000 -0.000000 164 119 50
-1.116676 4.238604 3.251420 0.000000 1.000000 -0.000000 164 119 50
-1.205929 4.238604 3.251420 0.000000 1.000000 -0.000000 164 119 50
-1.034710 1.079080 2.032713 0.000000 1.000000 0.000000 83 77 70
-1.261234 1.079080 2.064639 0.000000 1.000000 0.000000 83 77 70
-1.066635 1.079080 2.064639 0.000000 1.000000 0.000000 83 77 70
-1.095812 4.259467 3.251420 -0.000000 1.000000 0.000000 164 119 50
-1.226792 4.259467 2.679655 -0.000000 1.000000 0.000000 164 119 50
-1.226792 4.259467 3.251420 -0.000000 1.000000 0.000000 164 119 50
-1.034709 3.548990 2.032713 0.000000 1.000000 0.000000 83 77 70
-1.261234 3.548990 2.064639 0.000000 1.000000 0.000000 83 77 70
-1.066635 3.548990 2.064639 0.000000 1.000000 0.000000 83 77 70
-1.261234 3.304626 2.064639 0.000000 -1.000000 0.000000 83 77 70
-1.293160 3.304626 2.032713 0.000000 -1.000000 0.000000 83 77 70
-1.034709 3.304626 2.032713 0.000000 -1.000000 0.000000 83 77 70
-1.205930 0.519330 2.700519 -0.000000 -1.000000 -0.000000 164 119 50
-1.116676 0.519330 2.626293 -0.000000 -1.000000 -0.000000 164 119 50
-1.116676 0.519330 2.700519 -0.000000 -1.000000 -0.000000 164 119 50
-0.783777 1.901825 4.838082 1.000000 -0.000000 -0.000000 164 119 50
-0.783777 2.305993 4.686093 1.000000 -0.000000 -0.000000 164 119 50
-0.783777 2.305993 4.838082 1.000000 -0.000000 -0.000000 164 119 50
-1.066635 0.779139 2.064639 0.000000 -1.000000 0.000000 83 77 70
-1.261234 0.779139 4.983624 0.000000 -1.000000 0.000000 83 77 70
-1.261234 0.779139 2.064639 0.000000 -1.000000 0.000000 83 77 70
-0.867257 1.864402 4.814480 0.000000 1.000000 0.000000 83 77 70
-1.451053 1.864402 4.709695 0.000000 1.000000 0.000000 83 77 70
-1.451053 1.864402 4.814480 0.000000 1.000000 0.000000 83 77 70
-1.062688 2.556726 5.021048 -0.000000 1.000000 0.000000 83 77 70
-1.257287 2.556726 4.515839 -0.000000 1.000000 0.000000 83 77 70
-1.257287 2.556726 5.021048 -0.000000 1.000000 0.000000 83 77 70
-1.066635 1.079080 2.308446 0.000000 0.000000 1.000000 83 77 70
-1.024067 0.834715 2.308446 0.000000 0.000000 1.000000 83 77 70
-1.024067 1.079080 2.308446 0.000000 0.000000 1.000000 83 77 70
-1.024067 3.304626 2.308446 0.999256 0.000000 -0.038567 83 77 70
-1.034709 3.548990 2.032713 0.999256 0.000000 -0.038567 83 77 70
-1.024067 3.548990 2.308446 0.999256 0.000000 -0.038567 83 77 70
-1.034710 1.079080 2.032713 0.000000 0.000000 -1.000000 83 77 70
-1.293160 0.834715 2.032713 0.000000 0.000000 -1.000000 83 77 70
-1.293160 1.079080 2.032713 0.000000 0.000000 -1.000000 83 77 70
-1.303802 3.548990 2.308446 -0.999256 0.000000 -0.038566 83 77 70
-1.293160 3.304626 2.032713 -0.999256 0.000000 -0.038566 83 77 70
-1.303802 3.304626 2.308446 -0.999256 0.000000 -0.038566 83 77 70
-1.257287 2.556726 4.515839 -1.000000 0.000000 0.000000 83 77 70
-1.257287 1.639865 5.021048 -1.000000 0.000000 0.000000 83 77 70
-1.257287 2.556726 5.021048 -1.000000 0.000000 0.000000 83 77 70
-1.226793 0.311352 2.647156 -0.000000 -1.000000 0.000000 164 119 50
-1.095813 0.311352 2.064639 -0.000000 -1.000000 0.000000 164 119 50
-1.095813 0.311352 2.647156 -0.000000 -1.000000 0.000000 164 119 50
-1.261234 3.548990 2.308446 -1.000000 0.000000 0.000000 83 77 70
-1.261234 3.304626 2.308446 -1.000000 0.000000 0.000000 83 77 70
-1.261233 3.604567 4.983624 -1.000000 0.000000 0.000000 83 77 70
-1.066635 3.304626 2.308446 1.000000 0.000000 -0.000000 83 77 70
-1.066635 3.548990 2.308446 1.000000 0.000000 -0.000000 83 77 70
-1.066634 3.604567 4.983624 1.000000 0.000000 -0.000000 83 77 70
-1.095812 4.259467 4.406032 -0.000000 1.000000 0.000000 164 119 50
-1.226792 4.259467 3.920109 -0.000000 1.000000 0.000000 164 119 50
-1.226792 4.259467 4.406032 -0.000000 1.000000 0.000000 164 119 50
-1.095812 4.259467 4.438530 0.000000 1.000000 0.000000 164 119 50
-1.226792 4.259467 4.983624 0.000000 1.000000 0.000000 164 119 50
-1.095812 4.259467 4.983624 0.000000 1.000000 0.000000 164 119 50
-1.116676 4.238604 3.272923 1.000000 -0.000000 0.000000 164 119 50
-1.116676 0.519330 3.251421 1.000000 -0.000000 0.000000 164 119 50
-1.116676 4.238604 3.251420 1.000000 -0.000000 0.000000 164 119 50
-1.226793 0.311352 3.876613 -0.000000 -1.000000 0.000000 164 119 50
-1.095813 0.311352 3.272923 -0.000000 -1.000000 0.000000 164 119 50
-1.095813 0.311352 3.876613 -0.000000 -1.000000 0.000000 164 119 50
-1.427451 1.901825 4.686093 -0.000000 -0.000000 -1.000000 164 119 50
-1.534533 2.305993 4.686093 -0.000000 -0.000000 -1.000000 164 119 50
-1.427451 2.305993 4.686093 -0.000000 -0.000000 -1.000000 164 119 50
-0.867256 2.320962 4.814480 -0.000000 0.000000 1.000000 83 77 70
-0.807380 2.380838 4.814480 -0.000000 0.000000 1.000000 83 77 70
-1.510930 2.380838 4.814480 -0.000000 0.000000 1.000000 83 77 70
-1.066635 0.834715 2.308446 1.000000 0.000000 -0.000000 83 77 70
-1.066635 1.079080 2.308446 1.000000 0.000000 -0.000000 83 77 70
-1.066635 1.134656 4.983624 1.000000 0.000000 -0.000000 83 77 70
-1.095812 4.259467 3.251420 1.000000 -0.000000 -0.000000 164 119 50
-1.095813 0.311352 2.679655 1.000000 -0.000000 -0.000000 164 119 50
-1.095812 4.259467 2.679655 1.000000 -0.000000 -0.000000 164 119 50
-1.427451 1.901825 4.838082 1.000000 -0.000000 -0.000001 164 119 50
-1.427451 2.305993 4.686093 1.000000 -0.000000 -0.000001 164 119 50
-1.427451 2.305993 4.838082 1.000000 -0.000000 -0.000001 164 119 50
-1.095812 4.259467 2.064639 0.000000 -0.000000 -1.000000 164 119 50
-1.226793 0.311352 2.064639 0.000000 -0.000000 -1.000000 164 119 50
-1.226792 4.259467 2.064639 0.000000 -0.000000 -1.000000 164 119 50
-1.066635 1.134656 2.064639 0.000000 1.000000 0.000000 83 77 70
-1.261234 1.134656 4.983624 0.000000 1.000000 0.000000 83 77 70
-1.066635 1.134656 4.983624 0.000000 1.000000 0.000000 83 77 70
-1.293160 0.834715 2.032713 -0.000000 -1.000000 -0.000000 83 77 70
-1.034710 0.834715 2.032713 -0.000000 -1.000000 -0.000000 83 77 70
-1.261234 0.834715 2.064639 -0.000000 -1.000000 -0.000000 83 77 70
-0.867257 2.305993 4.709695 -1.000000 0.000000 0.000001 83 77 70
-0.867256 2.320962 4.814480 -1.000000 0.000000 0.000001 83 77 70
-0.867257 2.320962 4.709695 -1.000000 0.000000 0.000001 83 77 70
-1.205929 4.238604 3.876613 -1.000000 0.000000 0.000000 164 119 50
-1.205929 0.519330 3.899246 -1.000000 0.000000 0.000000 164 119 50
-1.205929 4.238604 3.920109 -1.000000 0.000000 0.000000 164 119 50
-1.510930 1.804526 4.814480 0.000000 0.000000 1.000000 83 77 70
-0.807380 1.804526 4.814480 0.000000 0.000000 1.000000 83 77 70
-1.451053 1.864402 4.814480 0.000000 0.000000 1.000000 83 77 70
-0.867257 1.864402 4.709695 0.000000 0.000000 -1.000000 83 77 70
-0.807380 1.804526 4.709695 0.000000 0.000000 -1.000000 83 77 70
-1.510930 1.804526 4.709695 0.000000 0.000000 -1.000000 83 77 70
-0.807380 1.901825 4.814480 1.000000 -0.000001 0.000000 83 77 70
-0.807380 1.804526 4.709695 1.000000 -0.000001 0.000000 83 77 70
-0.807380 1.901825 4.709695 1.000000 -0.000001 0.000000 83 77 70
-0.807380 2.380838 4.709695 0.000000 1.000000 0.000000 83 77 70
-1.066635 3.304626 2.308446 0.000000 -0.000000 1.000000 83 77 70
-1.095813 0.311352 4.438531 -0.000000 -1.000000 -0.000000 164 119 50
-0.890859 1.901825 4.838082 -1.000000 0.000000 0.000000 164 119 50
-0.890859 1.901825 4.686093 0.000000 0.000000 -1.000000 164 119 50
-1.261234 1.079080 2.064639 0.000000 0.000000 -1.000000 83 77 70
-0.783777 1.901825 4.838082 0.000000 0.000000 1.000000 164 119 50
-1.205929 0.519330 4.385168 -1.000000 0.000000 0.000000 164 119 50
-1.116676 0.519330 3.272923 0.000000 -1.000000 0.000000 164 119 50
-1.095813 0.311352 3.876613 1.000000 -0.000000 -0.000000 164 119 50
-1.205929 4.238604 2.647156 -1.000000 0.000000 0.000000 164 119 50
-1.095812 4.259467 3.272923 0.000000 1.000000 0.000000 164 119 50
-0.783777 2.305993 4.838082 -0.000000 1.000000 0.000000 164 119 50
-1.427451 1.901825 4.838082 0.000000 0.000000 1.000000 164 119 50
-0.867257 1.864402 4.709695 -1.000000 0.000000 0.000000 83 77 70
-1.095813 0.311352 2.064639 1.000000 -0.000000 -0.000000 164 119 50
-1.066635 0.779139 2.064639 0.000000 0.000000 -1.000000 83 77 70
-1.205929 0.519330 3.272923 -1.000000 0.000000 0.000000 164 119 50
-1.062688 1.639865 5.021048 1.000000 -0.000000 -0.000000 83 77 70
-1.205929 0.519330 4.385168 0.000000 -1.000000 0.000000 164 119 50
-1.226793 0.311352 3.920109 0.000000 -1.000000 0.000000 164 119 50
-1.261234 3.548990 2.064639 0.000000 0.000000 -1.000000 83 77 70
-1.116676 0.519330 3.899246 -0.000002 -0.099813 -0.995006 164 119 50
-1.095813 0.311352 3.920109 -0.000002 -0.099813 -0.995006 164 119 50
-1.226793 0.311352 3.920109 -0.000002 -0.099813 -0.995006 164 119 50
-1.205929 0.519330 4.385168 -0.000000 0.099817 0.995006 164 119 50
-1.095812 4.259467 3.920109 -0.005609 0.005609 -0.999969 164 119 50
-1.116676 0.519330 3.899246 -0.005609 0.005609 -0.999969 164 119 50
-1.116676 4.238604 3.920109 -0.005609 0.005609 -0.999969 164 119 50
-1.205929 4.238604 3.920109 0.005609 0.005609 -0.999968 164 119 50
-1.205929 0.519330 3.899246 0.005609 0.005609 -0.999968 164 119 50
-1.226792 4.259467 3.920109 0.005609 0.005609 -0.999968 164 119 50
-1.095812 4.259467 3.920109 0.000000 0.000000 -1.000000 164 119 50
-1.226792 4.259467 2.647156 -0.005609 -0.005609 0.999969 164 119 50
-1.205930 0.519330 2.626293 -0.005609 -0.005609 0.999969 164 119 50
-1.205929 4.238604 2.647156 -0.005609 -0.005609 0.999969 164 119 50
-1.116676 4.238604 2.647156 0.005609 -0.005609 0.999969 164 119 50
-1.116676 0.519330 2.626293 0.005609 -0.005609 0.999969 164 119 50
-1.095812 4.259467 2.647156 0.005609 -0.005609 0.999969 164 119 50
-1.205929 4.238604 2.647156 0.000000 0.000000 1.000000 164 119 50
-1.095813 0.311352 2.679655 0.000000 0.099817 -0.995006 164 119 50
-1.261234 3.604567 2.064639 -0.000000 1.000000 0.000000 83 77 70
-1.534533 2.305993 4.838082 0.000000 1.000000 -0.000000 164 119 50
-1.451053 2.305993 4.709695 0.000000 1.000000 0.000000 164 119 50
-1.205930 0.519330 2.626293 -0.000000 0.099813 0.995006 164 119 50
-1.095812 4.259467 2.679655 0.005609 -0.005610 -0.999969 164 119 50
-1.116676 0.519330 2.700519 0.005609 -0.005610 -0.999969 164 119 50
-1.116676 4.238604 2.679655 0.005609 -0.005610 -0.999969 164 119 50
-1.205929 4.238604 2.679655 -0.005610 -0.005610 -0.999969 164 119 50
-1.205930 0.519330 2.700519 -0.005610 -0.005610 -0.999969 164 119 50
-1.226792 4.259467 2.679655 -0.005610 -0.005610 -0.999969 164 119 50
-1.095812 4.259467 2.679655 0.000000 0.000000 -1.000000 164 119 50
-1.226792 4.259467 4.406032 -0.005610 -0.005610 0.999969 164 119 50
-1.205929 0.519330 4.385168 -0.005610 -0.005610 0.999969 164 119 50
-1.205929 4.238604 4.406032 -0.005610 -0.005610 0.999969 164 119 50
-1.116675 4.238604 4.406032 0.005609 -0.005610 0.999969 164 119 50
-1.116676 0.519330 4.385168 0.005609 -0.005610 0.999969 164 119 50
-1.095812 4.259467 4.406032 0.005609 -0.005610 0.999969 164 119 50
-1.205929 4.238604 4.406032 0.000000 0.000000 1.000000 164 119 50
-1.095813 0.311352 3.251421 0.000000 0.000000 1.000000 164 119 50
-1.205929 0.519330 3.251421 -0.000001 0.000000 1.000000 164 119 50
-1.226792 4.259467 3.251420 -0.000001 0.000000 1.000000 164 119 50
-1.226793 0.311352 3.251421 -0.000001 0.000000 1.000000 164 119 50
-1.066634 3.249050 4.983624 0.000000 -1.000000 -0.000000 83 77 70
-1.116675 4.238604 4.438530 1.000000 -0.000000 0.000000 164 119 50
-1.095812 4.259467 3.251420 -0.000000 0.000000 1.000000 164 119 50
-1.116676 0.519330 3.251421 0.000001 0.000000 1.000000 164 119 50
-1.095813 0.311352 3.251421 0.000001 0.000000 1.000000 164 119 50
-1.095812 4.259467 3.251420 0.000001 0.000000 1.000000 164 119 50
-1.095813 0.311352 3.272923 0.000000 -0.000000 -1.000000 164 119 50
-1.226793 0.311352 3.272923 0.000000 -0.000000 -1.000000 164 119 50
-1.205929 0.519330 3.272923 -0.000000 0.000000 -1.000000 164 119 50
-1.226792 4.259467 3.272923 -0.000000 -0.000000 -1.000000 164 119 50
-1.095813 0.311352 3.272923 -0.000001 -0.000000 -1.000000 164 119 50
-1.116676 0.519330 3.272923 -0.000001 -0.000000 -1.000000 164 119 50
-1.095812 4.259467 3.272923 -0.000001 -0.000000 -1.000000 164 119 50
-1.226792 4.259467 2.064639 -1.000000 0.000000 0.000000 164 119 50
-1.205929 4.238604 3.272923 -0.000000 -0.000000 -1.000000 164 119 50
-1.534533 1.901825 4.838082 -1.000000 0.000000 0.000000 164 119 50
-1.116676 0.519330 2.626293 1.000000 -0.000000 0.000000 164 119 50
-1.257287 1.639865 4.515839 0.000000 -1.000000 0.000000 83 77 70
-1.205929 0.519330 3.855750 -0.000000 0.099813 0.995006 164 119 50
-1.226792 4.259467 3.876613 -0.005609 -0.005609 0.999968 164 119 50
-1.205929 0.519330 3.855750 -0.005609 -0.005609 0.999968 164 119 50
-1.205929 4.238604 3.876613 -0.005609 -0.005609 0.999968 164 119 50
-1.116676 4.238604 3.876613 0.005609 -0.005609 0.999969 164 119 50
-1.116676 0.519330 3.855750 0.005609 -0.005609 0.999969 164 119 50
-1.095812 4.259467 3.876613 0.005609 -0.005609 0.999969 164 119 50
-1.205929 4.238604 3.876613 0.000000 0.000000 1.000000 164 119 50
-1.095812 4.259467 4.438530 -0.005609 0.005609 -0.999969 164 119 50
-1.116676 0.519330 4.417667 -0.005609 0.005609 -0.999969 164 119 50
-1.116675 4.238604 4.438530 -0.005609 0.005609 -0.999969 164 119 50
-1.205929 4.238604 4.438530 0.005609 0.005609 -0.999969 164 119 50
-1.205929 0.519330 4.417667 0.005609 0.005609 -0.999969 164 119 50
-1.226792 4.259467 4.438530 0.005609 0.005609 -0.999969 164 119 50
-1.095812 4.259467 4.438530 0.000000 0.000000 -1.000000 164 119 50
-1.116676 0.519330 3.855750 1.000000 -0.000000 0.000000 164 119 50
-0.807380 2.380838 4.709695 1.000000 0.000000 -0.000001 83 77 70
-1.510930 2.305993 4.814480 -1.000000 -0.000000 -0.000000 83 77 70
-1.116675 4.238604 4.406032 0.000000 1.000000 0.000000 164 119 50
-1.261234 0.779139 4.983624 0.000000 -0.000000 1.000000 83 77 70
-1.510930 1.901825 4.814480 0.000000 -1.000000 0.000000 164 119 50
-1.534533 1.901825 4.686093 0.000000 -1.000000 0.000000 164 119 50
-1.534533 1.901825 4.838082 0.000000 -1.000000 0.000000 164 119 50
-1.095813 0.311352 4.406032 1.000000 -0.000000 -0.000000 164 119 50
-1.116676 4.238604 2.647156 0.000000 1.000000 0.000000 164 119 50
-1.510930 1.804526 4.709695 -1.000000 0.000000 0.000000 83 77 70
-0.890859 1.901825 4.838082 -0.000000 -1.000000 -0.000000 164 119 50
-1.116676 0.519330 3.899246 0.000000 -1.000000 0.000000 164 119 50
-0.867257 2.305993 4.709695 0.000000 1.000000 -0.000000 164 119 50
-1.062688 1.639865 4.515839 0.000000 0.000000 -1.000000 83 77 70
-1.034709 3.304626 2.032713 0.000000 0.000000 -1.000000 83 77 70
-0.783777 1.901825 4.838082 0.000000 -1.000000 0.000000 164 119 50
-1.095813 0.311352 4.438531 0.000000 -0.099815 -0.995006 164 119 50
-1.226792 0.311352 4.983624 0.000000 -0.000000 1.000000 164 119 50
-1.066635 3.249050 2.064639 0.000000 0.000000 -1.000000 83 77 70
-1.095812 4.259467 4.438530 1.000000 -0.000000 -0.000000 164 119 50
-1.226792 4.259467 3.920109 -1.000000 0.000000 0.000000 164 119 50
-1.095812 4.259467 2.064639 0.000000 1.000000 0.000000 164 119 50
-1.261233 3.249050 4.983624 0.000000 -0.000000 1.000000 83 77 70
-0.807380 2.305993 4.709695 0.000000 0.000000 -1.000000 83 77 70
-0.867257 2.305993 4.709695 0.000000 0.000000 -1.000000 83 77 70
-1.451053 2.305993 4.709695 0.000000 0.000000 -1.000000 83 77 70
-1.510930 2.305993 4.709695 0.000000 0.000000 -1.000000 83 77 70
-0.807380 2.380838 4.709695 0.000000 0.000000 -1.000000 83 77 70
-1.293160 1.079080 2.032713 -0.999256 0.000000 -0.038566 83 77 70
-1.257287 1.639865 5.021048 0.000000 -0.000000 1.000000 83 77 70
-1.303802 0.834715 2.308446 0.000000 -0.000000 1.000000 83 77 70
-1.226792 0.311352 4.438531 -1.000000 0.000000 0.000000 164 119 50
-1.510930 1.804526 4.709695 -0.000000 -1.000000 0.000000 83 77 70
-1.116676 4.238604 3.920109 0.000000 1.000000 -0.000000 164 119 50
-1.034710 0.834715 2.032713 0.999256 0.000000 -0.038568 83 77 70
-1.451053 2.320962 4.709695 0.000000 -1.000000 0.000000 83 77 70
-1.303802 3.304626 2.308446 0.000000 -0.000000 1.000000 83 77 70
-1.226793 0.311352 2.679655 0.000000 -1.000000 0.000000 164 119 50
-1.261234 0.834715 2.064639 -1.000000 0.000002 0.000000 83 77 70
-1.261234 0.779139 2.064639 -1.000000 0.000002 0.000000 83 77 70
-1.261234 0.834715 2.308446 -1.000000 0.000002 0.000000 83 77 70
-1.261234 1.134656 4.983624 -1.000000 0.000000 0.000000 83 77 70
-1.261234 1.134656 2.064639 -1.000000 0.000000 0.000000 83 77 70
-1.261234 1.079080 2.064639 -1.000000 0.000000 0.000000 83 77 70
-1.261234 0.834715 2.308446 -1.000000 0.000001 0.000000 83 77 70
-1.261234 0.779139 2.064639 -1.000000 0.000001 0.000000 83 77 70
-1.261234 0.779139 4.983624 -1.000000 0.000001 0.000000 83 77 70
-1.261234 1.134656 4.983624 -1.000000 0.000001 0.000000 83 77 70
-1.261234 1.134656 2.064639 -1.000000 0.000001 0.000000 83 77 70
-1.261234 1.079080 2.308446 -1.000000 0.000001 0.000000 83 77 70
-1.451053 1.864402 4.814480 1.000000 0.000000 0.000000 83 77 70
-1.451053 2.320962 4.709695 1.000000 0.000000 0.000000 83 77 70
-1.226792 4.259467 3.272923 -1.000000 0.000000 0.000000 164 119 50
-1.226792 4.259467 2.679655 -1.000000 0.000000 0.000000 164 119 50
-1.116676 4.238604 3.272923 0.000000 1.000000 -0.000000 164 119 50
-1.066635 1.079080 2.308446 0.000000 1.000000 -0.000000 83 77 70
-1.024067 1.079080 2.308446 0.000000 1.000000 -0.000000 83 77 70
-1.293160 1.079080 2.032713 0.000000 1.000000 0.000000 83 77 70
-1.303802 1.079080 2.308446 0.000000 1.000000 0.000000 83 77 70
-1.261234 1.079080 2.308446 0.000000 1.000000 -0.000000 83 77 70
-1.095812 4.259467 2.679655 0.000000 1.000000 0.000000 164 119 50
-1.066635 3.548990 2.308446 0.000000 1.000000 -0.000000 83 77 70
-1.024067 3.548990 2.308446 0.000000 1.000000 -0.000000 83 77 70
-1.293160 3.548990 2.032713 0.000000 1.000000 0.000000 83 77 70
-1.303802 3.548990 2.308446 0.000000 1.000000 0.000000 83 77 70
-1.261234 3.548990 2.308446 0.000000 1.000000 -0.000000 83 77 70
-1.261234 3.304626 2.308446 0.000000 -1.000000 0.000000 83 77 70
-1.303802 3.304626 2.308446 0.000000 -1.000000 0.000000 83 77 70
-1.024067 3.304626 2.308446 0.000000 -1.000000 -0.000000 83 77 70
-1.066635 3.304626 2.064639 0.000000 -1.000000 -0.000000 83 77 70
-1.066635 3.304626 2.308446 0.000000 -1.000000 0.000000 83 77 70
-1.205930 0.519330 2.626293 0.000000 -1.000000 0.000000 164 119 50
-0.783777 1.901825 4.686093 1.000000 0.000000 -0.000000 164 119 50
-1.066635 0.779139 4.983624 0.000000 -1.000000 -0.000000 83 77 70
-0.867257 1.864402 4.709695 0.000000 1.000000 -0.000000 83 77 70
-1.062688 2.556726 4.515839 0.000000 1.000000 0.000000 83 77 70
-1.066635 0.834715 2.308446 0.000000 -0.000000 1.000000 83 77 70
-1.024067 3.304626 2.308446 0.999256 -0.000000 -0.038568 83 77 70
-1.034709 3.304626 2.032713 0.999256 -0.000000 -0.038568 83 77 70
-1.034709 3.548990 2.032713 0.999256 -0.000000 -0.038568 83 77 70
-1.034710 0.834715 2.032713 0.000000 0.000000 -1.000000 83 77 70
-1.293160 3.548990 2.032713 -0.999256 0.000000 -0.038566 83 77 70
-1.257287 1.639865 4.515839 -1.000000 0.000000 0.000000 83 77 70
-1.226793 0.311352 2.064639 0.000000 -1.000000 0.000000 164 119 50
-1.261234 3.304626 2.064639 -1.000000 0.000000 0.000000 83 77 70
-1.261234 3.249050 2.064639 -1.000000 0.000000 0.000000 83 77 70
-1.261234 3.249050 2.064639 -1.000000 -0.000001 0.000000 83 77 70
-1.261233 3.249050 4.983624 -1.000000 -0.000001 0.000000 83 77 70
-1.261234 3.304626 2.308446 -1.000000 -0.000001 0.000000 83 77 70
-1.261233 3.604567 4.983624 -1.000000 -0.000001 0.000000 83 77 70
-1.261234 3.604567 2.064639 -1.000000 -0.000001 0.000000 83 77 70
-1.261234 3.548990 2.308446 -1.000000 -0.000001 0.000000 83 77 70
-1.261234 3.604567 2.064639 -1.000000 0.000000 0.000000 83 77 70
-1.261234 3.548990 2.064639 -1.000000 0.000000 0.000000 83 77 70
-1.261233 3.249050 4.983624 -1.000000 0.000000 0.000000 83 77 70
-1.066634 3.249050 4.983624 1.000000 -0.000000 -0.000000 83 77 70
-1.066635 3.249050 2.064639 1.000000 0.000000 -0.000000 83 77 70
-1.066635 3.304626 2.064639 1.000000 0.000000 -0.000000 83 77 70
-1.066635 3.548990 2.064639 1.000000 0.000000 -0.000000 83 77 70
-1.066635 3.604567 2.064639 1.000000 0.000000 -0.000000 83 77 70
-1.066634 3.249050 4.983624 1.000000 -0.000001 -0.000000 83 77 70
-1.066635 3.249050 2.064639 1.000000 -0.000001 -0.000000 83 77 70
-1.066635 3.304626 2.308446 1.000000 -0.000001 -0.000000 83 77 70
-1.066635 3.548990 2.308446 1.000000 -0.000001 -0.000000 83 77 70
-1.066635 3.604567 2.064639 1.000000 -0.000001 -0.000000 83 77 70
-1.066634 3.604567 4.983624 1.000000 -0.000001 -0.000000 83 77 70
-1.095812 4.259467 3.920109 0.000000 1.000000 0.000000 164 119 50
-1.226792 4.259467 4.438530 -0.000000 1.000000 0.000000 164 119 50
-1.116676 0.519330 3.272923 1.000000 -0.000000 0.000000 164 119 50
-1.226793 0.311352 3.272923 0.000000 -1.000000 0.000000 164 119 50
-1.534533 1.901825 4.686093 0.000000 -0.000000 -1.000000 164 119 50
-1.510930 2.305993 4.814480 0.000000 -0.000000 1.000000 83 77 70
-1.451053 2.320962 4.814480 0.000000 -0.000000 1.000000 83 77 70
-1.451053 2.305993 4.814480 0.000000 0.000000 1.000000 83 77 70
-0.867256 2.305993 4.814480 0.000000 0.000000 1.000000 83 77 70
-0.807380 2.305993 4.814480 0.000000 0.000000 1.000000 83 77 70
-1.066635 0.779139 4.983624 1.000000 0.000000 -0.000000 83 77 70
-1.066635 0.779139 2.064639 1.000000 0.000000 0.000000 83 77 70
-1.066635 0.834715 2.064639 1.000000 0.000000 0.000000 83 77 70
-1.066635 1.079080 2.064639 1.000000 0.000000 -0.000000 83 77 70
-1.066635 1.134656 2.064639 1.000000 0.000000 -0.000000 83 77 70
-1.066635 0.779139 4.983624 1.000000 0.000001 -0.000000 83 77 70
-1.066635 0.779139 2.064639 1.000000 0.000001 -0.000000 83 77 70
-1.066635 0.834715 2.308446 1.000000 0.000001 -0.000000 83 77 70
-1.066635 1.079080 2.308446 1.000000 -0.000001 -0.000000 83 77 70
-1.066635 1.134656 2.064639 1.000000 -0.000001 -0.000000 83 77 70
-1.066635 1.134656 4.983624 1.000000 -0.000001 -0.000000 83 77 70
-1.095813 0.311352 3.251421 1.000000 -0.000000 -0.000000 164 119 50
-1.427451 1.901825 4.838082 1.000000 0.000000 -0.000000 164 119 50
-1.427451 1.901825 4.686093 1.000000 0.000000 -0.000000 164 119 50
-1.427451 2.305993 4.686093 1.000000 0.000000 -0.000000 164 119 50
-1.095813 0.311352 2.064639 0.000000 -0.000000 -1.000000 164 119 50
-1.261234 1.134656 2.064639 -0.000000 1.000000 0.000000 83 77 70
-1.261234 0.834715 2.308446 0.000000 -1.000000 0.000000 83 77 70
-1.303802 0.834715 2.308446 0.000000 -1.000000 0.000000 83 77 70
-1.024067 0.834715 2.308446 0.000000 -1.000000 -0.000000 83 77 70
-1.066635 0.834715 2.064639 0.000000 -1.000000 -0.000000 83 77 70
-1.066635 0.834715 2.308446 0.000000 -1.000000 0.000000 83 77 70
-0.867256 2.305993 4.814480 -1.000000 0.000000 0.000001 83 77 70
-1.205929 0.519330 3.855750 -1.000000 0.000000 0.000000 164 119 50
-1.451053 1.901825 4.814480 0.000000 -0.000000 1.000000 83 77 70
-1.510930 1.901825 4.814480 0.000000 -0.000000 1.000000 83 77 70
-0.807380 1.901825 4.814480 -0.000000 0.000000 1.000000 83 77 70
-0.867257 1.864402 4.814480 -0.000000 0.000000 1.000000 83 77 70
-0.867257 1.901825 4.814480 0.000000 0.000000 1.000000 83 77 70
-1.510930 1.901825 4.709695 -0.000000 -0.000000 -1.000000 83 77 70
-1.451053 1.864402 4.709695 -0.000000 -0.000000 -1.000000 83 77 70
-1.451053 1.901825 4.709695 0.000000 0.000000 -1.000000 83 77 70
-0.867257 1.901825 4.709695 0.000000 0.000000 -1.000000 83 77 70
-0.807380 1.901825 4.709695 0.000000 0.000000 -1.000000 83 77 70
-0.807380 1.901825 4.814480 1.000000 0.000000 -0.000001 83 77 70
-0.807380 1.804526 4.814480 1.000000 0.000000 -0.000001 83 77 70
-0.807380 1.804526 4.709695 1.000000 0.000000 -0.000001 83 77 70
3 0 1 2
3 3 4 5
3 6 7 8
3 9 10 11
3 12 13 14
3 15 16 17
3 18 19 20
3 21 22 23
3 24 25 26
3 27 28 29
3 30 31 32
3 33 34 35
3 36 37 38
3 39 40 41
3 42 43 44
3 45 46 47
3 48 49 50
3 51 52 53
3 54 55 56
3 57 58 59
3 60 61 62
3 63 64 65
3 66 67 68
3 69 70 71
3 72 73 74
3 75 76 77
3 78 79 80
3 81 82 83
3 84 85 86
3 87 88 89
3 90 91 92
3 93 94 95
3 96 97 98
3 99 100 101
3 102 103 104
3 105 106 107
3 108 109 110
3 111 112 113
3 114 115 116
3 117 118 119
3 120 121 122
3 123 124 125
3 126 127 128
3 129 130 131
3 132 133 134
3 135 136 137
3 138 139 140
3 141 142 143
3 144 145 146
3 147 148 149
3 150 151 152
3 153 154 155
3 156 157 158
3 159 160 161
3 162 163 164
3 165 166 167
3 168 169 170
3 171 172 173
3 174 175 176
3 177 178 179
3 180 181 182
3 183 184 185
3 186 187 188
3 189 190 191
3 192 193 194
3 195 196 197
3 198 187 199
3 200 201 202
3 203 204 205
3 206 207 208
3 209 210 211
3 212 213 214
3 215 216 217
3 218 219 220
3 221 222 223
3 224 225 226
3 227 228 229
3 230 231 232
3 233 234 235
3 236 237 238
3 239 240 241
3 242 243 244
3 245 246 247
3 248 249 250
3 251 252 253
3 254 255 256
3 257 258 259
3 260 261 262
3 263 264 265
3 266 267 268
3 269 270 271
3 272 273 274
3 275 276 277
3 278 279 280
3 281 282 283
3 284 285 286
3 287 288 289
3 290 291 292
3 293 294 295
3 296 297 298
3 299 300 301
3 302 303 304
3 305 306 307
3 308 309 310
3 311 312 313
3 314 315 316
3 317 318 319
3 320 321 322
3 323 324 325
3 326 327 328
3 329 330 331
3 332 333 334
3 335 336 337
3 338 339 340
3 341 342 343
3 344 345 346
3 347 348 349
3 350 351 352
3 353 354 355
3 356 357 358
3 359 360 361
3 362 363 364
3 365 366 367
3 368 369 370
3 371 372 373
3 374 375 376
3 377 378 379
3 380 381 382
3 383 384 385
3 386 387 388
3 389 390 391
3 392 393 394
3 0 395 1
3 3 396 4
3 6 397 7
3 9 398 10
3 12 399 13
3 15 400 16
3 18 401 19
3 21 402 22
3 24 403 25
3 27 404 28
3 30 405 31
3 33 406 34
3 407 38 37
3 36 211 37
3 39 408 40
3 42 409 43
3 45 410 46
3 48 411 49
3 51 412 52
3 54 413 55
3 57 414 58
3 60 415 61
3 63 416 64
3 417 418 419
3 69 420 70
3 421 422 423
3 424 425 426
3 427 76 75
3 428 429 430
3 431 432 433
3 88 434 89
3 90 435 91
3 93 436 94
3 437 190 96
3 97 438 191
3 437 96 98
3 97 191 98
3 99 439 100
3 440 441 442
3 443 444 445
3 446 106 105
3 447 448 449
3 450 451 452
3 109 453 110
3 122 130 129
3 120 454 121
3 455 456 457
3 123 458 124
3 126 459 127
3 131 121 460
3 460 129 131
3 461 462 463
3 464 465 133
3 465 466 133
3 134 467 132
3 468 469 470
3 135 471 136
3 472 466 467
3 467 134 472
3 141 473 142
3 144 474 145
3 147 475 148
3 150 476 151
3 477 478 479
3 480 481 482
3 154 483 155
3 484 485 486
3 487 488 489
3 490 163 162
3 171 491 172
3 174 492 175
3 177 493 178
3 180 494 181
3 183 495 184
3 186 496 497
3 497 187 186
3 496 498 497
3 191 438 189
3 189 96 190
3 192 499 193
3 195 500 196
3 498 496 199
3 198 188 187
3 199 496 198
3 200 501 201
3 203 218 502
3 502 204 203
3 206 503 207
3 209 38 210
3 211 36 504
3 38 407 210
3 211 504 209
3 212 505 213
3 215 506 216
3 507 502 218
3 219 205 204
3 507 218 220
3 219 204 220
3 221 508 222
3 224 509 225
3 227 510 228
3 230 511 231
3 233 512 234
3 236 513 237
3 239 514 240
3 515 516 244
3 242 517 518
3 519 515 244
3 242 518 243
3 519 244 243
3 245 520 246
3 248 521 249
3 251 522 252
3 254 523 255
3 257 524 258
3 260 525 261
3 263 526 264
3 266 527 267
3 269 528 270
3 272 529 273
3 530 531 532
3 275 533 276
3 534 535 276
3 536 537 538
3 539 540 541
3 278 542 279
3 281 543 282
3 284 544 285
3 287 545 288
3 290 546 291
3 547 548 295
3 549 550 294
3 550 551 294
3 295 548 293
3 549 294 293
3 296 552 297
3 553 554 301
3 555 556 300
3 556 557 300
3 301 554 299
3 555 300 299
3 302 558 559
3 304 560 561
3 560 562 561
3 302 559 303
3 304 561 302
3 305 563 306
3 308 564 309
3 311 565 312
3 314 566 315
3 317 567 318
3 320 568 321
3 569 570 571
3 326 572 327
3 329 573 330
3 332 574 333
3 335 575 336
3 339 576 577
3 578 579 580
3 581 582 583
3 584 585 338
3 339 586 340
3 343 587 341
3 588 589 341
3 342 590 591
3 592 593 594
3 595 596 597
3 344 598 345
3 347 599 348
3 350 600 351
3 353 601 354
3 356 602 357
3 361 603 604
3 603 605 604
3 606 607 359
3 361 604 359
3 359 607 360
3 364 608 362
3 609 610 362
3 363 611 612
3 613 614 615
3 616 617 618
3 365 619 366
3 620 621 622
3 371 623 372
3 374 624 375
3 625 626 379
3 378 627 628
3 627 629 628
3 379 626 377
3 378 628 379
3 380 630 381
3 383 631 384
3 632 633 388
3 387 634 635
3 634 636 635
3 388 633 386
3 387 635 388
3 391 637 638
3 637 639 638
3 640 641 389
3 391 638 389
3 389 641 390
3 642 643 644
