ply
format ascii 1.0
comment Created by Blender 2.77 (sub 0) - www.blender.org, source file: 'House0-Colliders.blend'
element vertex 8
property float x
property float y
property float z
property float nx
property float ny
property float nz
element face 12
property list uchar uint vertex_indices
end_header
-2.435458 4.569024 -3.442544 -0.577349 0.577349 -0.577319
-2.190067 4.569024 -3.197177 0.577349 0.577349 0.577349
-2.190067 4.569024 -3.442568 0.577319 0.577319 -0.577380
-2.190067 4.365283 -3.197177 0.577349 -0.577349 0.577349
-2.190067 4.365283 -3.442568 0.577319 -0.577319 -0.577380
-2.435458 4.365283 -3.197177 -0.577349 -0.577349 0.577349
-2.435458 4.365283 -3.442544 -0.577349 -0.577349 -0.577319
-2.435458 4.569024 -3.197177 -0.577349 0.577349 0.577349
3 0 1 2
3 2 3 4
3 5 0 6
3 1 5 3
3 6 3 5
3 6 2 4
3 0 7 1
3 2 1 3
3 5 7 0
3 1 7 5
3 6 4 3
3 6 0 2
