ply
format ascii 1.0
comment Created by Blender 2.77 (sub 0) - www.blender.org, source file: 'House0-Colliders.blend'
element vertex 8
property float x
property float y
property float z
property float nx
property float ny
property float nz
element face 12
property list uchar uint vertex_indices
end_header
-7.093477 1.121067 -1.651869 -0.580432 0.573626 -0.577899
-6.108668 0.194357 -1.652005 0.577319 -0.577288 -0.577380
-7.093477 0.194266 -1.651869 -0.577349 -0.577380 -0.577288
-7.093477 0.194266 -0.273272 -0.577288 -0.577349 0.577380
-7.093477 1.121067 -0.273272 -0.580370 0.573626 0.577990
-6.108668 0.194357 -0.273407 0.577410 -0.577319 0.577288
-6.108668 1.132641 -0.273407 0.574267 0.581042 0.576678
-6.108668 1.132641 -1.652005 0.574206 0.581011 -0.576769
3 0 1 2
3 0 3 4
3 2 5 3
3 5 4 3
3 0 6 7
3 5 7 6
3 0 7 1
3 0 2 3
3 2 1 5
3 5 6 4
3 0 4 6
3 5 1 7
