ply
format ascii 1.0
comment Created by Blender 2.77 (sub 0) - www.blender.org, source file: 'House0-Colliders.blend'
element vertex 25
property float x
property float y
property float z
property float nx
property float ny
property float nz
element face 46
property list uchar uint vertex_indices
end_header
6.923230 0.192642 7.099733 0.577349 -0.577349 0.577349
2.245017 0.192643 3.006296 -0.577349 -0.577349 -0.577349
6.923230 0.192642 3.006296 0.577349 -0.577349 -0.577349
5.978063 3.250929 4.086152 0.400403 0.827296 -0.393963
6.248240 2.980873 6.874145 0.710746 0.662465 0.236488
6.248240 2.980873 3.816489 0.456191 0.787133 -0.415052
5.978063 3.250929 6.874145 0.582781 0.686483 0.434797
5.573709 3.565492 4.401495 0.330821 0.865841 -0.375256
5.573709 3.565492 6.874145 0.430036 0.707358 0.560930
6.923230 2.126199 7.099733 0.710837 0.273354 0.648030
3.189727 3.250930 6.874145 -0.561815 0.687826 0.459609
3.684749 3.611003 4.446372 -0.231452 0.922178 -0.309854
3.189727 3.250930 4.086152 -0.398144 0.830500 -0.389477
3.055095 3.116069 3.951120 -0.272500 0.802240 -0.531144
3.144850 3.206088 4.041275 -0.462142 0.813776 -0.352306
2.920006 2.980874 6.874145 -0.711386 0.662404 0.234748
2.245017 2.126535 7.099733 -0.710776 0.273476 0.648030
6.923230 2.126199 3.006296 0.652791 0.368633 -0.661733
2.245017 2.126200 3.006296 -0.652791 0.368633 -0.661733
2.920006 2.980874 3.816489 -0.456465 0.786706 -0.415540
2.245017 0.192643 7.099733 -0.577349 -0.577349 0.577349
5.483498 3.611002 4.446372 0.162877 0.930876 -0.326945
3.684749 3.611003 6.874145 -0.233650 0.775597 0.586352
5.483498 3.611002 6.874145 0.172552 0.779839 0.601672
2.964883 3.026050 3.861767 -0.586779 0.784509 -0.200446
3 0 1 2
3 3 4 5
3 6 7 8
3 6 9 4
3 10 11 12
3 13 14 12
3 3 5 13
3 6 8 9
3 10 15 16
3 17 1 18
3 16 19 18
3 9 20 0
3 21 8 7
3 16 22 10
3 18 20 16
3 11 23 21
3 23 9 8
3 14 13 24
3 24 13 19
3 23 16 9
3 5 9 17
3 9 2 17
3 14 24 15
3 0 20 1
3 3 6 4
3 6 3 7
3 10 22 11
3 18 19 5
3 13 12 3
3 11 21 7
3 7 3 11
3 5 17 18
3 19 13 5
3 11 3 12
3 17 2 1
3 16 15 19
3 9 16 20
3 21 23 8
3 18 1 20
3 11 22 23
3 23 22 16
3 5 4 9
3 9 0 2
3 15 10 12
3 12 14 15
3 24 19 15
