ply
format ascii 1.0
comment Created by Blender 2.77 (sub 0) - www.blender.org, source file: ''
element vertex 24
property float x
property float y
property float z
property float nx
property float ny
property float nz
element face 44
property list uchar uint vertex_indices
end_header
0.053829 1.334397 -0.051348 0.782006 0.029481 0.622547
0.038328 1.005258 -0.034229 0.539537 0.012055 0.841853
0.034020 -0.041669 -0.023724 0.642964 -0.583422 0.496139
0.055747 1.763130 -0.120295 0.725639 0.606922 -0.324137
0.060473 1.331861 -0.095538 0.981842 -0.008454 -0.189428
0.041570 -0.040895 -0.073370 0.760460 -0.584887 -0.282113
-0.025115 0.414829 -0.104307 -0.340861 -0.018220 -0.939909
0.023151 1.760694 -0.146164 0.111911 0.575396 -0.810175
0.002500 -0.044089 -0.104766 0.148045 -0.612293 -0.776635
-0.051671 -0.048831 -0.036868 -0.692160 -0.662069 0.287271
-0.071575 0.413796 -0.086181 -0.786767 -0.023286 -0.616749
-0.044121 -0.048057 -0.086514 -0.572558 -0.652089 -0.496902
-0.040196 0.414829 -0.005690 -0.274728 -0.001160 0.961516
-0.012601 -0.045637 -0.005473 -0.077334 -0.621052 0.779931
-0.079116 0.413796 -0.036873 -0.932524 -0.018830 0.360546
-0.066365 0.758361 -0.088126 -0.898709 0.018952 -0.438093
-0.035667 0.757605 -0.009271 -0.254463 0.029725 0.966613
-0.005408 1.009631 -0.017168 0.041231 0.044343 0.998138
0.012185 1.336281 -0.035050 0.085940 0.058382 0.994568
0.049559 1.765628 -0.079147 0.609058 0.650960 0.453047
-0.015633 1.760756 -0.130886 -0.613544 0.591052 -0.523606
-0.021821 1.763254 -0.089738 -0.730644 0.634358 0.252419
0.010775 1.765690 -0.063869 -0.121403 0.662374 0.739219
-0.073724 0.759619 -0.039843 -0.929380 0.042207 0.366619
3 0 1 2
3 3 4 5
3 6 7 8
3 0 5 4
3 9 10 11
3 12 9 13
3 14 15 10
3 16 14 12
3 0 17 1
3 18 0 19
3 19 0 4
3 20 21 22
3 3 7 20
3 3 22 19
3 18 22 17
3 13 17 16
3 10 15 20
3 5 2 13
3 17 2 1
3 13 16 12
3 17 22 16
3 0 2 5
3 9 14 10
3 12 14 9
3 14 23 15
3 16 23 14
3 0 18 17
3 19 22 18
3 4 3 19
3 3 20 22
3 5 9 8
3 17 13 2
3 11 8 9
3 5 13 9
3 15 21 20
3 20 6 10
3 7 5 8
3 6 11 10
3 16 21 23
3 15 23 21
3 20 7 6
3 7 3 5
3 6 8 11
3 16 22 21
