ply
format ascii 1.0
comment Created by Blender 2.77 (sub 0) - www.blender.org, source file: 'NewTrees.blend'
element vertex 54
property float x
property float y
property float z
property float nx
property float ny
property float nz
element face 104
property list uchar uint vertex_indices
end_header
0.805226 1.735477 -0.728265 0.908719 0.138615 -0.393689
0.656393 1.931640 -0.790998 0.620075 0.614673 -0.487442
0.830967 1.841997 -0.424836 0.919736 0.368389 -0.135502
0.487348 1.833043 -1.004736 0.198584 0.546739 -0.813379
0.571299 1.689812 -1.051139 0.440657 0.118381 -0.889828
0.570341 1.383561 -0.985927 0.412641 -0.519089 -0.748466
0.086979 1.780877 -1.005537 -0.183996 0.308664 -0.933195
0.134918 1.501530 -1.033527 -0.179754 -0.356822 -0.916684
0.634478 2.325123 0.246296 0.776086 0.615040 0.139256
0.791927 1.959954 0.306336 0.928800 0.257790 0.266152
0.767234 2.039375 -0.035302 0.907559 0.416974 -0.049074
0.320453 2.544192 -0.187482 0.420545 0.870235 -0.256539
0.091030 2.492896 -0.388836 0.083254 0.811762 -0.577990
-0.211502 2.570332 -0.247546 -0.249367 0.892727 -0.375256
0.066682 2.605303 0.102784 0.082644 0.994018 0.071017
-0.539369 2.454730 0.429960 -0.572802 0.786126 0.232063
-0.235895 2.511899 0.566147 -0.052705 0.904416 0.423322
-0.394941 2.556941 0.039687 -0.436354 0.894681 -0.095401
0.109770 1.863176 0.957300 0.337840 0.184881 0.922849
0.682225 1.960029 0.511391 0.750359 0.189825 0.633168
0.494662 2.275108 0.533371 0.546587 0.548509 0.632740
-0.217686 2.279286 0.872289 0.111148 0.588488 0.800806
-0.437824 2.222116 0.898702 -0.391522 0.416974 0.820215
-0.667137 2.073149 0.733534 -0.714835 0.300333 0.631489
0.410795 2.489967 0.310479 0.422071 0.855007 0.301340
-1.087520 1.761018 0.097396 -0.966979 0.254280 -0.016541
-0.918995 1.700300 -0.560252 -0.802667 0.221259 -0.553789
-1.033711 1.329753 -0.266676 -0.903012 -0.335795 -0.267922
-1.053541 1.452382 0.233104 -0.932707 -0.279611 0.227699
-0.720230 1.476205 -0.745546 -0.484542 -0.323466 -0.812738
-0.921571 1.168548 -0.250396 -0.611286 -0.737968 -0.285745
-1.057215 1.738177 0.310571 -0.913144 0.185705 0.362835
-0.916767 2.041265 0.001050 -0.790857 0.597369 -0.132878
-0.572156 2.048731 -0.647547 -0.557421 0.606128 -0.567339
-0.431055 1.986023 -0.794539 -0.328562 0.449355 -0.830714
-0.554118 0.917153 0.687712 -0.478042 -0.875057 0.075472
-0.281762 0.863806 0.764975 -0.178747 -0.972320 0.150365
-0.465406 0.917056 0.875049 -0.441481 -0.731193 0.520005
-0.720224 1.038981 0.653747 -0.764702 -0.576647 0.287484
-0.325100 0.907245 0.939263 -0.129185 -0.658040 0.741813
-0.577604 1.160965 0.917590 -0.546953 -0.122288 0.828150
-0.703354 1.353453 0.776978 -0.781060 -0.032136 0.623615
-0.067873 1.257459 1.024675 0.050172 -0.047731 0.997589
0.099095 1.102785 0.957688 0.441939 -0.349254 0.826228
0.008593 0.812194 0.729383 0.224281 -0.887539 0.402417
0.867496 1.256118 0.253005 0.876736 -0.175054 0.447951
0.883425 0.999567 -0.072310 0.755028 -0.651814 -0.070803
0.924316 1.267882 -0.096546 0.994873 -0.056337 -0.083743
0.725964 1.062578 0.278654 0.630909 -0.599017 0.493027
-0.857200 2.054388 0.295732 -0.805322 0.548631 0.224586
-0.039762 0.723360 -0.046224 -0.052644 -0.975707 -0.212500
0.727691 1.051808 -0.318439 0.357280 -0.819025 -0.448897
0.282724 1.223043 0.813319 0.663686 -0.107639 0.740196
-0.064120 0.745939 -0.072508 -0.217261 -0.814417 -0.538041
3 0 1 2
3 3 1 4
3 0 5 4
3 1 0 4
3 4 6 3
3 6 4 7
3 7 4 5
3 8 9 10
3 11 12 13
3 11 13 14
3 15 16 17
3 16 14 17
3 18 19 20
3 20 21 18
3 21 16 22
3 15 23 22
3 16 15 22
3 24 11 14
3 22 18 21
3 24 8 11
3 13 17 14
3 16 24 14
3 8 24 20
3 25 26 27
3 28 25 27
3 27 29 30
3 27 26 29
3 31 25 28
3 26 25 32
3 32 33 26
3 34 26 33
3 26 34 29
3 35 36 37
3 38 35 37
3 39 37 36
3 38 40 41
3 42 40 39
3 40 38 37
3 42 39 43
3 39 40 37
3 43 39 44
3 39 36 44
3 45 46 47
3 45 48 46
3 25 49 32
3 34 7 29
3 36 50 44
3 31 23 49
3 46 48 44
3 51 5 46
3 38 50 35
3 0 2 47
3 42 23 40
3 41 40 23
3 15 49 23
3 47 5 0
3 35 50 36
3 45 19 52
3 30 53 50
3 53 5 50
3 5 51 50
3 53 7 5
3 6 34 3
3 34 12 3
3 11 2 1
3 28 41 31
3 47 9 45
3 8 19 9
3 28 27 38
3 27 30 38
3 32 15 17
3 29 53 30
3 18 43 19
3 43 52 19
3 50 46 44
3 16 20 24
3 34 13 12
3 22 42 18
3 42 43 18
3 44 48 43
3 48 45 43
3 45 52 43
3 12 1 3
3 2 10 9
3 10 2 8
3 33 17 13
3 25 31 49
3 34 6 7
3 31 41 23
3 38 30 50
3 42 22 23
3 47 46 5
3 45 9 19
3 11 8 2
3 28 38 41
3 47 2 9
3 8 20 19
3 32 49 15
3 29 7 53
3 50 51 46
3 16 21 20
3 34 33 13
3 12 11 1
3 33 32 17
