ply
format ascii 1.0
comment Created by Blender 2.77 (sub 0) - www.blender.org, source file: 'NewTrees.blend'
element vertex 24
property float x
property float y
property float z
property float nx
property float ny
property float nz
element face 44
property list uchar uint vertex_indices
end_header
0.000000 -0.024174 0.024174 0.013123 -0.607257 0.794366
-0.021899 0.105056 0.015211 -0.621662 0.071352 0.779992
-0.020935 -0.024174 0.012087 -0.666250 -0.629719 0.399365
-0.030715 0.105056 -0.007298 -0.999695 -0.009430 -0.021546
-0.020935 -0.024174 -0.012087 -0.663839 -0.648274 -0.372845
0.002002 0.105056 0.018831 0.283853 0.087710 0.954833
-0.016411 0.222513 -0.002028 -0.422926 0.149785 0.893674
-0.026140 0.339285 -0.045223 -0.739586 0.654530 -0.156682
0.013432 0.334518 -0.060291 0.481277 0.561480 -0.673086
-0.011847 0.336241 -0.063793 -0.276925 0.542711 -0.792932
0.000000 -0.024174 -0.024174 0.001129 -0.656514 -0.754265
-0.017488 0.338876 -0.024068 -0.455702 0.713767 0.531846
0.005615 0.334531 -0.019766 0.326731 0.728294 0.602344
0.019933 0.334437 -0.037533 0.637287 0.752312 0.166845
0.005593 0.323799 -0.013657 0.212226 0.329356 0.920011
0.023809 0.222513 -0.013668 0.902615 0.046846 0.427839
0.020935 -0.024174 0.012087 0.683889 -0.605152 0.407453
0.026124 0.312932 -0.034733 0.972839 0.084719 0.215308
0.020935 -0.024174 -0.012087 0.680227 -0.635029 -0.366008
0.019880 0.308526 -0.022785 0.808344 0.158025 0.567064
0.007059 0.222513 0.003762 0.279672 0.132694 0.950865
0.025842 0.323665 -0.038783 0.969695 0.243538 0.018799
0.014802 0.309427 -0.056887 0.651570 -0.077609 -0.754570
0.013348 0.313027 -0.015827 0.654653 0.220496 0.723045
3 0 1 2
3 2 3 4
3 5 6 1
3 7 8 9
3 4 9 10
3 1 6 11
3 12 13 11
3 14 12 11
3 15 16 17
3 18 4 10
3 15 19 20
3 16 15 20
3 16 20 5
3 14 6 20
3 18 16 0
3 8 21 22
3 13 7 11
3 16 5 0
3 22 10 8
3 20 23 14
3 18 22 21
3 23 12 14
3 12 21 13
3 4 3 7
3 17 16 18
3 11 3 1
3 8 10 9
3 23 19 21
3 4 0 2
3 19 17 21
3 17 18 21
3 0 5 1
3 2 1 3
3 5 20 6
3 4 7 9
3 23 20 19
3 15 17 19
3 14 11 6
3 8 13 21
3 13 8 7
3 18 10 22
3 12 23 21
3 11 7 3
3 4 18 0
