ply
format ascii 1.0
comment Created by Blender 2.77 (sub 0) - www.blender.org, source file: ''
element vertex 8
property float x
property float y
property float z
property float nx
property float ny
property float nz
element face 12
property list uchar uint vertex_indices
end_header
1.566032 -0.524917 2.413521 0.577349 -0.577349 0.577349
1.566032 1.705902 2.413521 0.577349 0.577349 0.577349
-1.566032 1.705902 2.413521 -0.577349 0.577349 0.577349
-1.566032 1.705902 -2.454119 -0.577349 0.577349 -0.577349
-1.566032 -0.524917 2.413521 -0.577349 -0.577349 0.577349
1.566032 1.705902 -2.454119 0.577349 0.577349 -0.577349
-1.566032 -0.524917 -2.454119 -0.577349 -0.577349 -0.577349
1.566032 -0.524917 -2.454119 0.577349 -0.577349 -0.577349
3 0 1 2
3 3 4 2
3 2 5 3
3 4 0 2
3 3 6 4
3 2 1 5
3 5 6 3
3 0 6 7
3 7 1 0
3 5 7 6
3 0 4 6
3 7 5 1
