ply
format ascii 1.0
comment Created by Blender 2.77 (sub 0) - www.blender.org, source file: 'Blacksmith.blend'
element vertex 12
property float x
property float y
property float z
property float nx
property float ny
property float nz
element face 20
property list uchar uint vertex_indices
end_header
-0.316499 0.693039 -5.155740 -0.706565 -0.014435 -0.707480
0.231150 0.449259 -5.155740 0.577349 -0.577349 -0.577349
-0.316499 0.449259 -5.155740 -0.577349 -0.577349 -0.577349
0.307488 4.121027 -4.639914 0.583270 0.566546 0.582018
-0.392992 4.121026 -5.218392 -0.583331 0.566668 -0.581866
-0.392992 4.121027 -4.639914 -0.583300 0.566546 0.582018
0.231150 0.693039 -5.155740 0.706565 -0.014405 -0.707480
0.231150 0.449261 -4.704503 0.577349 -0.577319 0.577349
-0.316499 0.693039 -4.704503 -0.706626 -0.014618 0.707419
-0.316499 0.449259 -4.704503 -0.577349 -0.577349 0.577349
0.307488 4.121026 -5.218393 0.583300 0.566698 -0.581866
0.231150 0.693039 -4.704503 0.706626 -0.014618 0.707419
3 0 1 2
3 3 4 5
3 6 7 1
3 8 2 9
3 7 8 9
3 7 2 1
3 8 3 5
3 10 0 4
3 11 10 3
3 8 4 0
3 0 6 1
3 3 10 4
3 6 11 7
3 8 0 2
3 7 11 8
3 7 9 2
3 8 11 3
3 10 6 0
3 11 6 10
3 8 5 4
