ply
format ascii 1.0
comment Created by Blender 2.77 (sub 0) - www.blender.org, source file: 'Blacksmith.blend'
element vertex 25
property float x
property float y
property float z
property float nx
property float ny
property float nz
element face 46
property list uchar uint vertex_indices
end_header
-6.100673 1.041295 0.280860 0.280007 0.488479 0.826380
-6.299364 0.845654 0.280860 -0.323954 -0.480239 0.815088
-6.100673 0.845654 0.280860 0.262520 -0.445448 0.855922
-5.286538 1.182624 -2.551523 -0.012909 0.018891 -0.999725
-5.056440 0.385040 -2.551523 0.577715 -0.576586 -0.577715
-5.286538 0.385040 -2.551523 -0.014985 -0.701346 -0.712638
-6.493032 2.105218 -2.507451 -0.304361 0.692740 -0.653798
-5.925325 2.105218 -2.349716 0.215766 0.967437 0.132176
-5.925325 2.105218 -2.507451 0.240730 0.730430 -0.639119
-7.207507 0.385046 -0.729324 -0.650807 -0.672964 0.351451
-7.207507 0.795290 -2.462540 -0.743919 0.111179 -0.658925
-7.207532 0.385042 -2.462540 -0.590350 -0.580187 -0.561113
-5.056440 0.385051 -0.632516 0.677023 -0.638874 0.365246
-5.056440 1.182624 -2.551523 0.715842 0.238197 -0.656331
-5.056440 1.182635 -0.632517 0.777093 0.463057 0.426221
-6.206561 0.380442 -1.341626 -0.004852 -0.996338 0.085055
-6.493032 1.943597 -2.507451 -0.049501 -0.001312 -0.998749
-6.160867 2.054851 -2.133542 0.056215 0.943937 0.325205
-5.445476 1.852736 -1.936132 0.568072 0.816706 0.101321
-5.286538 0.385051 -0.632516 -0.045015 -0.970611 0.236366
-6.299364 1.041297 0.280860 -0.347087 0.487533 0.801111
-6.954483 1.852739 -1.936132 -0.699088 0.712546 0.058992
-7.207507 0.795293 -0.729324 -0.893918 0.256996 0.367138
-6.493032 2.105218 -2.349716 -0.222968 0.965850 0.131809
-6.252256 2.054854 -2.133542 -0.055116 0.943999 0.325236
3 0 1 2
3 3 4 5
3 6 7 8
3 9 10 11
3 12 13 14
3 2 14 0
3 4 15 5
3 3 16 6
3 17 0 7
3 0 18 7
3 18 14 13
3 0 14 18
3 1 15 19
3 12 19 15
3 5 16 3
3 20 21 22
3 20 23 21
3 10 6 11
3 20 24 23
3 6 16 11
3 24 17 7
3 24 7 23
3 5 15 11
3 7 18 8
3 18 13 8
3 15 9 11
3 17 20 0
3 22 21 10
3 22 1 20
3 21 6 10
3 21 23 6
3 2 1 19
3 2 19 12
3 8 13 3
3 8 3 6
3 0 20 1
3 3 13 4
3 6 23 7
3 9 22 10
3 12 4 13
3 2 12 14
3 4 12 15
3 1 9 15
3 5 11 16
3 17 24 20
3 22 9 1
