ply
format ascii 1.0
comment Created by Blender 2.77 (sub 0) - www.blender.org, source file: ''
element vertex 8
property float x
property float y
property float z
property float nx
property float ny
property float nz
element face 12
property list uchar uint vertex_indices
end_header
-4.198371 4.253903 -4.641010 -0.582476 0.567888 0.581530
-3.500557 4.253903 -5.217288 0.582781 0.567797 -0.581317
-4.198371 4.253903 -5.217288 -0.582507 0.568041 -0.581378
-3.500557 4.253903 -4.641010 0.582751 0.567675 0.581469
-4.124969 0.449259 -5.155736 -0.572039 -0.586627 -0.573199
-3.577320 0.449261 -4.704498 0.571795 -0.586993 0.573077
-4.124969 0.449261 -4.704498 -0.572069 -0.586779 0.573046
-3.577320 0.449261 -5.155736 0.571764 -0.586871 -0.573260
3 0 1 2
3 0 3 1
3 4 5 6
3 0 5 3
3 2 7 4
3 6 2 4
3 1 5 7
3 4 7 5
3 0 6 5
3 2 1 7
3 6 0 2
3 1 3 5
