ply
format ascii 1.0
comment Created by Blender 2.77 (sub 0) - www.blender.org, source file: 'Anvil.blend'
element vertex 8
property float x
property float y
property float z
property float nx
property float ny
property float nz
element face 12
property list uchar uint vertex_indices
end_header
1.945381 3.347140 3.034533 0.710532 0.402203 0.577349
1.852899 3.013354 -3.872325 0.402203 -0.710532 -0.577349
1.945381 3.347140 -3.872325 0.710532 0.402203 -0.577349
-2.229851 4.503973 3.034533 -0.402203 0.710532 0.577349
1.852899 3.013354 3.034533 0.402203 -0.710532 0.577349
-2.229851 4.503973 -3.872325 -0.402203 0.710532 -0.577349
-2.322333 4.170187 3.034533 -0.710532 -0.402203 0.577349
-2.322333 4.170187 -3.872325 -0.710532 -0.402203 -0.577349
3 0 1 2
3 3 4 0
3 5 6 3
3 2 7 5
3 4 7 1
3 3 2 5
3 0 4 1
3 3 6 4
3 5 7 6
3 2 1 7
3 4 6 7
3 3 0 2
