ply
format ascii 1.0
comment Created by Blender 2.77 (sub 0) - www.blender.org, source file: 'Blacksmith.blend'
element vertex 12
property float x
property float y
property float z
property float nx
property float ny
property float nz
element face 20
property list uchar uint vertex_indices
end_header
-7.984688 12.924065 1.513497 -0.577349 0.577319 -0.577349
-6.142442 12.924092 3.631430 0.577319 0.577349 0.577319
-6.142442 12.924091 1.513497 0.577319 0.577349 -0.577349
-6.142442 11.987788 1.513497 0.707389 -0.023377 -0.706412
-7.657494 3.188941 1.788296 -0.567064 -0.595264 -0.569262
-7.984688 11.987788 1.513497 -0.707541 -0.023896 -0.706259
-6.456418 3.188941 3.306908 0.567827 -0.596332 0.567370
-6.456418 3.188941 1.788296 0.567522 -0.594867 -0.569201
-6.142442 11.987789 3.631430 0.706748 -0.025330 0.706992
-7.657494 3.188941 3.306908 -0.567339 -0.596728 0.567431
-7.984688 11.987789 3.631430 -0.706900 -0.025849 0.706809
-7.984688 12.924092 3.631430 -0.577349 0.577349 0.577319
3 0 1 2
3 3 4 5
3 3 6 7
3 8 9 6
3 7 9 4
3 10 1 11
3 0 10 11
3 5 9 10
3 8 2 1
3 3 0 2
3 0 11 1
3 3 7 4
3 3 8 6
3 8 10 9
3 7 6 9
3 10 8 1
3 0 5 10
3 5 4 9
3 8 3 2
3 3 5 0
