ply
format ascii 1.0
comment Created by Blender 2.77 (sub 0) - www.blender.org, source file: ''
element vertex 8
property float x
property float y
property float z
property float nx
property float ny
property float nz
element face 12
property list uchar uint vertex_indices
end_header
-4.177169 4.251971 5.406753 -0.580981 0.570574 0.580401
-3.521759 4.251971 4.865500 0.581286 0.570452 -0.580187
-4.177169 4.251971 4.865500 -0.581011 0.570696 -0.580248
-3.521759 4.251971 5.406753 0.581256 0.570330 0.580340
-3.577320 0.449280 5.360787 0.573321 -0.584338 0.574267
-4.124969 0.449278 4.909552 -0.573595 -0.583972 -0.574389
-3.577320 0.449280 4.909552 0.573321 -0.584216 -0.574419
-4.124969 0.449280 5.360787 -0.573626 -0.584094 0.574236
3 0 1 2
3 0 3 1
3 4 5 6
3 1 4 6
3 0 4 3
3 2 6 5
3 2 7 0
3 4 7 5
3 1 3 4
3 0 7 4
3 2 1 6
3 2 5 7
