ply
format ascii 1.0
comment Created by Blender 2.77 (sub 0) - www.blender.org, source file: 'Blacksmith.blend'
element vertex 40
property float x
property float y
property float z
property float nx
property float ny
property float nz
element face 76
property list uchar uint vertex_indices
end_header
0.366216 3.963706 5.511238 0.750389 -0.660939 0.000000
0.366216 4.231922 5.718233 0.811640 0.236274 0.534227
0.366216 3.963706 5.718233 0.670034 -0.562120 0.484817
-2.038291 7.493740 5.718213 -0.396588 0.788751 0.469649
-1.787663 7.493740 5.511238 0.473769 0.880612 0.000000
-2.038291 7.493740 5.511238 -0.474899 0.880032 0.000000
-2.079327 6.921156 -5.730457 -0.227088 0.238960 -0.944090
-1.740764 6.640238 -5.730457 0.023530 -0.013764 -0.999603
-2.079327 6.640238 -5.730457 -0.023041 -0.013733 -0.999634
-1.740764 6.921177 5.968432 0.245643 0.259651 0.933927
-2.079327 6.640260 5.968432 -0.033906 -0.020234 0.999207
-1.740764 6.640260 5.968432 0.034577 -0.020264 0.999176
-2.038311 3.689606 -5.505646 -0.039003 -0.857784 -0.512497
-1.787682 3.689606 -5.298668 0.063234 -0.997986 0.000000
-2.038311 3.689606 -5.298668 -0.055269 -0.998444 0.000000
-2.038291 7.493719 -5.505654 -0.394421 0.781304 -0.483688
-1.787663 7.493719 -5.505654 0.393139 0.782067 -0.483474
0.366196 4.231900 -5.505651 0.825892 0.244972 -0.507797
-1.740764 6.921156 -5.730457 0.229347 0.240638 -0.943114
-4.180446 4.231900 -5.505648 -0.831324 0.251137 -0.495743
-4.180446 4.231922 5.718233 -0.816919 0.241310 0.523820
0.107750 4.114949 -5.622980 0.237831 -0.060396 -0.969420
-3.737926 3.928571 5.810153 -0.077761 -0.417341 0.905393
-0.112747 3.960558 -5.622980 0.092196 -0.532517 -0.841365
-3.737946 3.928530 -5.622979 -0.110019 -0.641102 -0.759514
-1.787682 3.689606 -5.505646 0.041688 -0.850917 -0.523576
-3.814799 3.886930 5.757296 -0.181371 -0.888119 0.422254
-3.814799 3.886930 5.462386 -0.158116 -0.987396 -0.000061
-4.180446 3.963706 5.718233 -0.700613 -0.536454 0.470443
-3.958424 4.082963 5.810153 -0.221198 -0.075869 0.972259
-2.079327 6.921177 5.968432 -0.243355 0.257973 0.934965
0.366216 4.231922 5.511238 0.957701 0.287667 0.000000
0.366196 3.963685 -5.505651 0.683370 -0.568407 -0.458113
-3.958443 4.082942 -5.622979 -0.266243 -0.082125 -0.960387
-4.180446 3.963685 -5.505648 -0.697256 -0.569689 -0.435011
-1.787663 7.493740 5.718213 0.395276 0.789544 0.469405
-2.038291 3.689627 5.718233 -0.034944 -0.833155 0.551897
-1.787663 3.689627 5.718233 0.042177 -0.827845 0.559313
-0.112747 3.960560 5.810153 0.084017 -0.494949 0.864834
0.107770 4.114970 5.810153 0.196631 -0.058473 0.978698
3 0 1 2
3 3 4 5
3 6 7 8
3 9 10 11
3 12 13 14
3 15 4 16
3 17 18 16
3 5 19 20
3 21 7 18
3 17 21 18
3 10 22 11
3 7 23 24
3 23 25 24
3 25 12 24
3 14 26 27
3 14 27 12
3 26 22 28
3 22 29 28
3 10 30 29
3 6 16 18
3 31 16 4
3 32 21 17
3 19 28 20
3 15 6 19
3 6 33 19
3 23 7 21
3 33 34 19
3 32 23 21
3 31 35 1
3 32 25 23
3 32 0 25
3 20 3 5
3 0 2 13
3 30 35 3
3 0 13 25
3 17 0 32
3 24 8 7
3 36 26 14
3 36 13 37
3 36 22 26
3 38 11 22
3 36 37 22
3 8 33 6
3 37 38 22
3 11 39 9
3 24 34 33
3 39 1 9
3 24 12 34
3 1 35 9
3 12 27 34
3 39 2 1
3 27 26 28
3 2 37 13
3 27 28 34
3 39 11 38
3 28 29 20
3 37 2 38
3 29 30 20
3 2 39 38
3 30 3 20
3 0 31 1
3 3 35 4
3 6 18 7
3 9 30 10
3 12 25 13
3 15 5 4
3 5 15 19
3 10 29 22
3 6 15 16
3 31 17 16
3 19 34 28
3 31 4 35
3 30 9 35
3 17 31 0
3 24 33 8
3 36 14 13
