ply
format ascii 1.0
comment Created by Blender 2.77 (sub 0) - www.blender.org, source file: ''
element vertex 8
property float x
property float y
property float z
property float nx
property float ny
property float nz
element face 12
property list uchar uint vertex_indices
end_header
-2.940449 0.919819 -4.328595 -0.739830 0.577380 -0.345286
-0.409102 0.919822 -2.128820 0.739860 0.577380 0.345286
-1.410389 0.919815 -4.885482 0.345317 0.577288 -0.739891
-0.409102 0.476726 -2.128820 0.739860 -0.577380 0.345286
-1.410389 0.476719 -4.885480 0.345317 -0.577319 -0.739891
-2.940449 0.476723 -4.328593 -0.739860 -0.577380 -0.345286
-1.939162 0.919820 -1.571929 -0.345317 0.577288 0.739891
-1.939162 0.476726 -1.571929 -0.345317 -0.577288 0.739891
3 0 1 2
3 2 3 4
3 5 2 4
3 3 6 7
3 6 5 7
3 0 6 1
3 2 1 3
3 5 0 2
3 3 1 6
3 6 0 5
3 3 5 4
3 3 7 5
