ply
format ascii 1.0
comment Created by Blender 2.77 (sub 0) - www.blender.org, source file: ''
element vertex 22
property float x
property float y
property float z
property float nx
property float ny
property float nz
element face 40
property list uchar uint vertex_indices
end_header
0.195137 1.572018 -0.648374 0.018006 -0.003174 -0.999817
0.195137 1.798210 -0.648374 0.503494 0.630848 -0.590289
0.499953 0.465005 -0.636357 0.648671 -0.514847 -0.560472
0.169870 0.465004 -0.636357 0.000000 -0.710929 -0.703238
-1.504771 0.465005 -0.636357 -0.638874 -0.522813 -0.564318
-1.346491 0.465004 -0.636357 0.000000 -0.710929 -0.703238
-1.346491 0.465004 -0.555731 0.000000 -1.000000 0.000000
-1.504771 0.465010 0.796468 -0.656758 -0.515580 0.550249
-1.106296 1.798212 -0.440734 0.000000 0.964080 0.265603
0.341829 1.060518 0.796468 0.568316 0.487777 0.662587
0.195137 1.798210 -0.440734 0.565752 0.801019 0.195593
-0.680152 0.765366 0.864431 -0.043367 -0.167760 0.984863
0.499953 0.465010 0.796468 0.667318 -0.508347 0.544298
-0.344208 0.765366 0.864431 0.042207 -0.168432 0.984802
0.169870 0.465004 -0.555731 0.000000 -1.000000 0.000000
-1.231201 1.572018 -0.648374 -0.020234 -0.003113 -0.999786
-1.231201 1.798212 -0.648374 -0.511124 0.625996 -0.588916
-1.231201 1.798212 -0.440734 -0.573534 0.795648 0.194800
-1.346491 1.060519 0.796468 -0.550005 0.488601 0.677297
-1.106296 1.798212 -0.648374 0.000000 0.707083 0.707083
-0.344208 0.942400 0.894328 0.050813 0.234657 0.970733
-0.680152 0.942400 0.894328 -0.052431 0.233955 0.970824
3 0 1 2
3 3 0 2
3 4 5 6
3 4 6 7
3 8 9 10
3 11 7 12
3 11 12 13
3 14 3 2
3 14 2 12
3 2 1 10
3 15 5 4
3 16 15 4
3 14 7 6
3 8 17 18
3 8 18 9
3 19 10 1
3 14 12 7
3 18 17 7
3 11 20 21
3 16 19 1
3 15 3 5
3 9 13 12
3 9 2 10
3 18 11 21
3 5 14 6
3 16 8 19
3 20 9 18
3 7 17 16
3 20 18 21
3 7 16 4
3 15 1 0
3 19 8 10
3 11 13 20
3 15 0 3
3 9 20 13
3 9 12 2
3 18 7 11
3 5 3 14
3 16 17 8
3 15 16 1
