ply
format ascii 1.0
comment Created by Blender 2.77 (sub 0) - www.blender.org, source file: 'Blacksmith.blend'
element vertex 22
property float x
property float y
property float z
property float nx
property float ny
property float nz
element face 40
property list uchar uint vertex_indices
end_header
3.978080 0.960811 2.747576 0.724113 -0.250923 -0.642384
3.847224 1.144009 2.747576 -0.002441 0.228248 -0.973571
3.978080 1.144009 2.747576 0.603778 0.542467 -0.584063
3.533170 0.385036 2.760663 0.342906 -0.710288 -0.614704
2.564828 0.385038 3.284087 -0.398572 -0.680532 0.614795
2.564828 0.385038 2.760663 -0.398572 -0.680532 -0.614795
3.978080 0.960811 3.297173 0.724113 -0.250923 0.642384
3.978080 1.144012 3.297173 0.603778 0.542467 0.584063
3.847224 0.960811 3.297173 -0.003845 -0.010437 0.999908
3.847224 1.144012 3.297173 -0.002441 0.228278 0.973571
2.093738 1.222525 2.891519 -0.639943 0.610889 -0.466109
2.093738 1.170183 3.153231 -0.834559 -0.194037 0.515549
2.093738 1.222528 3.153231 -0.639943 0.610889 0.466109
2.460141 1.170186 2.760663 -0.118229 0.519944 -0.845943
3.742539 1.170183 2.760663 0.042787 0.855892 -0.515336
2.460141 0.908471 2.760663 -0.202673 -0.030641 -0.978759
2.093738 1.170183 2.891519 -0.834559 -0.194037 -0.515549
3.847224 0.960811 2.747576 -0.003845 -0.010437 -0.999908
3.533170 0.385036 3.284087 0.342906 -0.710288 0.614704
2.460141 1.170186 3.284087 -0.118229 0.519944 0.845943
3.742539 1.170183 3.284087 0.042787 0.855892 0.515336
2.460141 0.908473 3.284087 -0.202673 -0.030641 0.978759
3 0 1 2
3 3 4 5
3 6 2 7
3 8 7 9
3 10 11 12
3 6 3 0
3 2 1 13
3 2 13 14
3 15 5 16
3 14 7 2
3 3 15 17
3 18 6 8
3 19 20 12
3 11 5 4
3 14 13 10
3 16 13 15
3 19 11 21
3 17 0 3
3 18 21 4
3 19 8 9
3 4 21 11
3 13 17 15
3 9 7 20
3 9 20 19
3 10 20 14
3 0 17 1
3 3 18 4
3 6 0 2
3 8 6 7
3 10 16 11
3 6 18 3
3 14 20 7
3 3 5 15
3 11 16 5
3 16 10 13
3 19 12 11
3 18 8 21
3 19 21 8
3 13 1 17
3 10 12 20
