ply
format ascii 1.0
comment Created by Blender 2.77 (sub 0) - www.blender.org, source file: 'Blacksmith.blend'
element vertex 44
property float x
property float y
property float z
property float nx
property float ny
property float nz
element face 84
property list uchar uint vertex_indices
end_header
-2.847923 1.075446 -2.088996 0.107028 0.006500 -0.994232
-2.820410 0.647352 -2.086592 0.087130 -0.000061 -0.996185
-2.894157 1.067263 -2.093041 0.087130 0.000061 -0.996185
-3.069554 1.296171 -1.106820 -0.257576 0.964995 -0.048769
-3.031411 1.296171 -1.051363 0.182623 0.933775 0.307688
-3.027834 1.296171 -1.103986 0.226081 0.973968 -0.016114
-2.778026 0.655537 -2.038307 0.996185 0.011200 0.086489
-2.885207 0.564116 -0.815467 0.524125 -0.577899 0.625507
-2.778222 0.564114 -2.038327 0.703818 -0.707755 0.060732
-3.073130 1.296171 -1.054177 -0.237953 0.931700 0.274331
-3.192895 1.104038 -0.842434 -0.631550 0.388318 0.671041
-3.148655 1.104038 -0.838564 -0.078890 0.415448 0.906156
-3.190473 1.075450 -0.842179 -0.089236 0.000610 0.996002
-3.119012 1.247315 -1.528431 -0.445418 0.891385 -0.083407
-3.130717 1.247315 -1.355905 -0.643178 0.764489 -0.043214
-3.159559 1.240867 -1.015173 -0.703848 0.664876 0.249947
-2.774274 0.599066 -2.082547 0.762719 -0.015290 -0.646504
-3.264141 0.564118 -0.848628 -0.625172 -0.577593 0.524888
-3.157136 0.564114 -2.071468 -0.703940 -0.707480 -0.062685
-3.153130 0.564114 -2.114477 -0.523667 -0.588397 -0.616047
-2.818944 0.564114 -2.085244 0.060610 -0.719169 -0.692160
-2.774704 0.564114 -2.081355 0.621845 -0.589221 -0.515824
-2.845598 1.104038 -2.088468 0.516556 0.462447 -0.720603
-2.774157 0.655537 -2.082547 0.768914 0.019501 -0.638997
-2.805168 1.176187 -1.882118 0.827204 0.545488 -0.134648
-2.873775 1.210776 -1.886788 0.235694 0.938505 -0.252205
-2.907288 1.247315 -1.514068 0.411603 0.911100 -0.021638
-3.157233 0.655537 -2.071468 -0.992950 0.050111 -0.107364
-2.946272 1.240867 -1.000714 0.675436 0.641102 0.364360
-2.956179 1.104038 -0.821681 0.496078 0.383526 0.778954
-2.885011 0.655541 -0.815448 0.650502 0.039125 0.758476
-3.153365 0.655537 -2.115727 -0.659230 0.056459 -0.749809
-3.079618 1.075446 -2.109260 0.066927 0.006623 -0.997711
-3.165851 1.176188 -1.779294 -0.919919 0.387860 -0.057161
-3.157253 1.176187 -1.906016 -0.796716 0.544267 -0.262551
-3.085519 1.210776 -1.901150 -0.187689 0.939787 -0.285562
-3.217986 0.647356 -0.844583 -0.087130 0.000000 0.996185
-3.264239 0.655541 -0.848628 -0.772790 0.041627 0.633259
-3.082080 1.104038 -2.109142 -0.399640 0.459151 -0.793359
-2.889838 1.104038 -2.092337 0.072878 0.523331 -0.848994
-2.813766 1.176188 -1.755396 0.909482 0.408521 0.076907
-3.153247 0.599066 -2.115708 -0.638295 -0.014344 -0.769616
-2.918993 1.247315 -1.341543 0.610309 0.790368 0.052767
-3.106291 0.599066 -2.111604 0.087130 -0.017487 -0.996033
3 0 1 2
3 3 4 5
3 6 7 8
3 9 10 11
3 10 12 11
3 3 13 9
3 13 14 9
3 14 15 9
3 16 6 8
3 15 10 9
3 17 18 19
3 17 19 20
3 17 20 21
3 0 22 23
3 17 21 8
3 22 24 23
3 17 8 7
3 25 26 24
3 17 27 18
3 24 6 23
3 28 29 30
3 25 5 26
3 2 31 32
3 15 33 10
3 13 34 33
3 15 14 33
3 14 13 33
3 13 35 34
3 36 37 17
3 35 38 34
3 35 39 38
3 40 30 6
3 21 16 8
3 38 32 31
3 41 27 31
3 11 4 9
3 42 4 28
3 43 41 31
3 4 29 28
3 43 19 41
3 40 42 28
3 11 30 29
3 36 7 30
3 35 13 3
3 11 37 36
3 2 32 0
3 32 39 0
3 27 38 31
3 39 22 0
3 24 26 40
3 35 5 25
3 26 42 40
3 11 12 37
3 39 32 38
3 12 10 37
3 10 33 37
3 33 34 37
3 34 27 37
3 25 22 39
3 41 19 18
3 20 16 21
3 1 23 16
3 20 19 16
3 19 43 16
3 43 31 16
3 31 1 16
3 26 4 42
3 26 5 4
3 0 23 1
3 3 9 4
3 6 30 7
3 16 23 6
3 17 37 27
3 24 40 6
3 2 1 31
3 35 25 39
3 40 28 30
3 41 18 27
3 11 29 4
3 11 36 30
3 36 17 7
3 27 34 38
3 35 3 5
3 25 24 22
