ply
format ascii 1.0
comment Created by Blender 2.77 (sub 0) - www.blender.org, source file: ''
element vertex 17
property float x
property float y
property float z
property float nx
property float ny
property float nz
element face 30
property list uchar uint vertex_indices
end_header
1.754976 0.287276 -6.708575 -0.669942 0.667165 -0.325632
1.628176 0.431094 -5.994066 -0.699545 0.703848 -0.123142
4.799476 0.431094 -5.994066 0.575304 0.786676 -0.223853
4.799476 0.431094 -5.484916 0.581439 0.611133 0.537004
1.628176 0.431094 -5.484914 -0.580218 0.577990 0.573779
1.998258 0.145802 -7.375782 -0.338847 0.512864 -0.788720
4.861522 -0.097390 -6.333633 0.675802 -0.593249 -0.437361
1.998258 -0.097390 -7.375782 -0.344829 -0.577380 -0.740074
1.752670 0.145802 -6.701046 -0.972442 0.001312 -0.233039
4.692905 0.287276 -5.449716 0.123875 0.083285 0.988769
1.754976 -0.097390 -6.708575 -0.675924 -0.701254 -0.226539
4.861522 0.145802 -6.333633 0.735740 0.361156 -0.572893
4.799476 -0.097390 -5.484916 0.630329 -0.600787 0.491592
1.628176 -0.097390 -5.994066 -0.722922 -0.688009 -0.063143
1.628176 -0.097390 -5.484914 -0.580340 -0.577929 0.573717
4.692905 -0.097390 -5.449716 0.113437 -0.671865 0.731895
1.752670 -0.097389 -6.701046 -0.700827 -0.693136 -0.168310
3 0 1 2
3 3 1 4
3 5 6 7
3 0 8 1
3 3 4 9
3 10 5 7
3 11 2 3
3 12 11 3
3 3 2 1
3 5 11 6
3 10 0 5
3 13 4 1
3 12 6 11
3 0 11 5
3 14 9 4
3 3 9 15
3 3 15 12
3 13 15 14
3 6 12 15
3 13 8 16
3 6 13 10
3 6 10 7
3 13 16 10
3 16 8 0
3 16 0 10
3 13 14 4
3 0 2 11
3 14 15 9
3 13 6 15
3 13 1 8
