ply
format ascii 1.0
comment Created by Blender 2.77 (sub 0) - www.blender.org, source file: ''
element vertex 22
property float x
property float y
property float z
property float nx
property float ny
property float nz
element face 40
property list uchar uint vertex_indices
end_header
3.978080 0.960811 2.747576 0.724113 -0.250923 -0.642384
3.847224 1.144009 2.747576 -0.002441 0.228248 -0.973571
3.978080 1.144009 2.747576 0.603809 0.542467 -0.584063
3.978080 0.960811 3.297173 0.724113 -0.250923 0.642384
3.978080 1.144012 3.297173 0.603778 0.542467 0.584063
3.847224 0.960811 3.297173 -0.003845 -0.010437 0.999908
3.847224 1.144012 3.297173 -0.002441 0.228278 0.973571
2.093738 1.222525 2.891519 -0.639943 0.610889 -0.466109
2.093738 1.170183 3.153231 -0.834559 -0.194037 0.515549
2.093738 1.222528 3.153231 -0.639943 0.610889 0.466109
3.533170 0.385036 2.760663 0.342906 -0.710288 -0.614704
2.460141 1.170186 2.760663 -0.118229 0.519974 -0.845943
3.742539 1.170183 2.760663 0.042787 0.855892 -0.515336
2.460141 0.908471 2.760663 -0.202673 -0.030641 -0.978759
2.564828 0.385038 2.760663 -0.398572 -0.680532 -0.614795
2.093738 1.170183 2.891519 -0.834559 -0.194037 -0.515549
3.533170 0.385036 3.284087 0.342906 -0.710288 0.614704
2.460141 1.170186 3.284087 -0.118229 0.519944 0.845943
3.742539 1.170183 3.284087 0.042787 0.855892 0.515336
2.460141 0.908473 3.284087 -0.202673 -0.030641 0.978759
3.847224 0.960811 2.747576 -0.003845 -0.010437 -0.999908
2.564828 0.385038 3.284087 -0.398572 -0.680532 0.614795
3 0 1 2
3 3 2 4
3 5 4 6
3 7 8 9
3 10 0 3
3 2 1 11
3 2 11 12
3 13 14 15
3 12 4 2
3 16 3 5
3 17 18 9
3 12 11 7
3 15 11 13
3 17 8 19
3 20 0 10
3 21 19 8
3 6 4 18
3 6 18 17
3 0 20 1
3 3 0 2
3 5 3 4
3 7 15 8
3 3 16 10
3 12 18 4
3 15 7 11
3 17 9 8
3 21 10 16
3 8 14 21
3 16 19 21
3 11 20 13
3 7 18 12
3 10 13 20
3 17 5 6
3 21 14 10
3 8 15 14
3 16 5 19
3 11 1 20
3 7 9 18
3 10 14 13
3 17 19 5
