ply
format ascii 1.0
comment Created by Blender 2.77 (sub 0) - www.blender.org, source file: 'Blacksmith.blend'
element vertex 8
property float x
property float y
property float z
property float nx
property float ny
property float nz
element face 12
property list uchar uint vertex_indices
end_header
-2.079327 7.226460 -6.316679 -0.577349 -0.577349 -0.577349
-1.740764 7.226481 6.554655 0.577349 -0.577349 0.577349
-2.079327 7.226481 6.554655 -0.577349 -0.577349 0.577349
-1.740764 7.585521 -6.316679 0.577349 0.577349 -0.577349
-1.740764 7.226460 -6.316679 0.577349 -0.577349 -0.577349
-2.079327 7.585521 -6.316679 -0.577349 0.577349 -0.577349
-1.740764 7.585544 6.554655 0.577349 0.577349 0.577349
-2.079327 7.585544 6.554655 -0.577349 0.577349 0.577349
3 0 1 2
3 3 1 4
3 2 5 0
3 6 2 1
3 7 3 5
3 5 4 0
3 0 4 1
3 3 6 1
3 2 7 5
3 6 7 2
3 7 6 3
3 5 3 4
