ply
format ascii 1.0
comment Created by Blender 2.77 (sub 0) - www.blender.org, source file: ''
element vertex 18
property float x
property float y
property float z
property float nx
property float ny
property float nz
element face 32
property list uchar uint vertex_indices
end_header
-4.628300 0.595249 -5.628253 -0.577349 0.577349 -0.577349
-4.441568 0.396805 -5.628253 0.000000 -0.089816 -0.995941
-4.628300 0.396805 -5.628253 -0.701895 -0.118198 -0.702384
-4.628300 0.396807 5.971267 -0.702261 -0.117374 0.702170
4.887765 0.595249 -5.627522 0.577349 0.577349 -0.577319
4.887767 0.396805 5.972088 0.701895 -0.118198 0.702384
4.887765 0.396803 -5.627522 0.702109 -0.117740 -0.702261
-4.441568 0.595249 -5.628253 0.000000 0.707083 -0.707114
-4.628300 0.595251 5.971267 -0.577349 0.577349 0.577319
4.701036 0.396805 5.972088 0.000153 -0.089450 0.995972
-4.450538 -0.097369 5.882845 -0.001862 -0.766442 0.642293
4.718419 -0.097370 5.882845 0.002594 -0.766503 0.642201
-4.539780 -0.097375 -5.538364 -0.525712 -0.669546 -0.524644
4.887767 0.595251 5.972088 0.577349 0.577319 0.577349
-4.539780 -0.097373 5.882181 -0.527604 -0.669576 0.522752
4.799243 -0.097374 -5.538417 0.525681 -0.669179 -0.525163
4.701036 0.595251 5.972088 -0.000031 0.707297 0.706900
4.799248 -0.097373 5.882200 0.527573 -0.669485 0.522904
3 0 1 2
3 3 0 2
3 4 5 6
3 7 6 1
3 7 0 8
3 9 10 11
3 1 12 2
3 13 7 8
3 14 10 3
3 12 10 14
3 15 1 6
3 3 12 14
3 8 16 13
3 0 7 1
3 8 0 3
3 4 13 5
3 7 4 6
3 9 3 10
3 13 4 7
3 15 12 1
3 3 2 12
3 10 12 11
3 13 9 5
3 8 9 16
3 17 9 11
3 6 17 15
3 15 11 12
3 13 16 9
3 8 3 9
3 17 5 9
3 6 5 17
3 15 17 11
