ply
format ascii 1.0
comment Created by Blender 2.77 (sub 0) - www.blender.org, source file: ''
element vertex 22
property float x
property float y
property float z
property float nx
property float ny
property float nz
element face 40
property list uchar uint vertex_indices
end_header
0.196049 5.016163 -6.198576 -0.009247 0.724387 0.689291
0.559753 5.016163 -6.562281 0.564470 0.602252 -0.564470
0.196049 5.016163 -6.562281 -0.010559 0.723991 -0.689688
0.681044 0.026246 -6.077340 0.577349 -0.577319 0.577349
0.074844 2.470183 -6.077338 -0.006989 0.023103 0.999695
0.074872 0.026239 -6.077340 -0.020997 -0.709891 0.703970
-7.053803 0.336369 -6.198575 -0.593585 -0.564745 0.573290
-7.053829 2.421609 -6.538030 -0.715842 0.011383 -0.698141
-7.053803 0.336369 -6.538032 -0.594134 -0.564562 -0.572924
0.681015 2.470188 -6.683511 0.706717 0.033113 -0.706717
0.681044 0.026245 -6.683513 0.577349 -0.577319 -0.577349
0.074872 0.026238 -6.683513 -0.022340 -0.709433 -0.704398
-5.914203 1.306269 -6.562283 -0.020661 -0.000336 -0.999756
-5.914203 3.100559 -6.562278 -0.020569 0.017975 -0.999603
0.681015 2.470191 -6.077338 0.706717 0.033113 0.706717
-5.914203 1.306272 -6.174331 -0.018372 -0.001679 0.999817
-7.053829 2.421612 -6.198573 -0.715842 0.011383 0.698141
-5.914203 3.100559 -6.174328 -0.018372 0.018555 0.999634
-7.005308 4.894859 -6.489532 -0.580645 0.584887 -0.566332
-7.005308 4.894859 -6.247064 -0.579943 0.585009 0.566912
0.559753 5.016163 -6.198576 0.564470 0.602252 0.564470
0.074844 2.470183 -6.683511 -0.009033 0.023164 -0.999664
3 0 1 2
3 3 4 5
3 6 7 8
3 9 3 10
3 3 11 10
3 12 7 13
3 1 14 9
3 12 8 7
3 15 6 5
3 16 15 17
3 16 6 15
3 13 7 18
3 16 17 19
3 8 12 11
3 18 16 19
3 0 20 1
3 3 14 4
3 6 16 7
3 9 14 3
3 3 5 11
3 1 20 14
3 11 9 10
3 18 7 16
3 0 18 19
3 13 2 21
3 0 17 4
3 4 15 5
3 20 4 14
3 1 21 2
3 12 21 11
3 8 5 6
3 11 21 9
3 0 2 18
3 13 18 2
3 0 19 17
3 4 17 15
3 20 0 4
3 1 9 21
3 12 13 21
3 8 11 5
