ply
format ascii 1.0
comment Created by Blender 2.77 (sub 0) - www.blender.org, source file: ''
element vertex 16
property float x
property float y
property float z
property float nx
property float ny
property float nz
element face 28
property list uchar uint vertex_indices
end_header
2.483668 0.819797 2.200022 -0.572954 -0.046022 0.818262
3.054576 0.877766 2.099341 0.668844 0.577349 0.468307
2.483668 0.877766 2.200022 -0.468307 0.577319 0.668813
2.393072 0.877766 1.686202 -0.668813 0.577349 -0.468307
3.054576 0.819795 2.099341 0.818293 -0.045991 0.572924
2.963971 0.877766 1.585548 0.468307 0.577349 -0.668813
2.940469 0.385006 1.619125 0.453627 -0.612171 -0.647603
2.883363 0.385006 1.629175 -0.118534 -0.730186 -0.672842
2.963971 0.819794 1.585548 0.572954 -0.045991 -0.818262
2.497113 0.385009 2.109339 -0.672781 -0.730247 0.118595
2.393072 0.819794 1.686202 -0.818262 -0.045991 -0.572954
2.436712 0.385009 1.766810 -0.672811 -0.730216 0.118625
2.507178 0.385009 2.166445 -0.453505 -0.612140 0.647725
2.564269 0.385009 2.156368 0.118686 -0.730247 0.672750
2.426647 0.385009 1.709730 -0.647725 -0.612171 -0.453475
3.020998 0.385009 2.075839 0.647694 -0.612171 0.453536
3 0 1 2
3 3 0 2
3 4 5 1
3 6 7 8
3 9 10 11
3 12 0 9
3 13 0 12
3 10 7 14
3 14 11 10
3 11 14 7
3 4 13 15
3 13 6 15
3 0 4 1
3 10 0 3
3 4 8 5
3 9 0 10
3 10 8 7
3 4 0 13
3 3 8 10
3 5 2 1
3 13 12 6
3 12 7 6
3 12 9 7
3 9 11 7
3 6 4 15
3 3 5 8
3 5 3 2
3 6 8 4
