ply
format ascii 1.0
comment Created by Blender 2.77 (sub 0) - www.blender.org, source file: 'Blacksmith.blend'
element vertex 12
property float x
property float y
property float z
property float nx
property float ny
property float nz
element face 20
property list uchar uint vertex_indices
end_header
-3.956176 3.189539 -4.903533 -0.583239 0.604541 -0.542528
-3.749201 3.189540 0.094506 0.584918 0.611560 0.532731
-3.749201 3.189539 -4.903533 0.583239 0.604541 -0.542528
-3.749201 1.931761 0.054350 0.637074 -0.725089 0.261391
-3.956176 2.092874 0.246357 -0.612690 -0.283975 0.737510
-3.956176 1.931761 0.054350 -0.637074 -0.725089 0.261391
-3.956176 2.122790 -5.019215 -0.614887 -0.294198 -0.731651
-3.749201 1.961696 -4.827221 0.638142 -0.722648 -0.265511
-3.956176 1.961696 -4.827221 -0.638142 -0.722648 -0.265511
-3.749201 2.092874 0.246357 0.612690 -0.283975 0.737510
-3.956176 3.189540 0.094506 -0.584918 0.611560 0.532731
-3.749201 2.122790 -5.019215 0.614887 -0.294198 -0.731651
3 0 1 2
3 3 4 5
3 6 7 8
3 9 10 4
3 2 6 0
3 1 7 2
3 7 11 2
3 6 10 0
3 7 9 3
3 3 8 7
3 4 6 8
3 4 8 5
3 0 10 1
3 3 9 4
3 6 11 7
3 9 1 10
3 2 11 6
3 1 9 7
3 6 4 10
3 3 5 8
