ply
format ascii 1.0
comment Created by Blender 2.77 (sub 0) - www.blender.org, source file: ''
element vertex 47
property float x
property float y
property float z
property float nx
property float ny
property float nz
element face 90
property list uchar uint vertex_indices
end_header
-0.080407 2.499264 4.555383 0.604480 0.484512 0.632282
-0.977171 2.768652 4.287304 -0.678854 0.581439 0.448347
-0.977171 2.499264 4.555383 -0.679189 0.446272 0.582659
0.023159 1.988449 4.301256 0.993347 0.044527 0.106082
-0.080407 1.805659 4.843375 0.603504 0.104556 0.790460
0.023159 1.730222 4.369883 0.993378 0.014618 0.113926
0.023159 0.812824 4.370411 0.990387 -0.115268 0.076205
-0.080407 0.464998 1.581478 0.528367 -0.597674 -0.602954
-0.977171 1.805651 1.580931 -0.678732 0.095950 -0.728050
-0.080407 1.805651 1.580931 0.603992 0.104373 -0.790094
-0.080407 0.465005 4.843297 0.528184 -0.597705 0.603107
-0.977171 1.805659 4.843375 -0.678793 0.096072 0.727989
-0.977171 0.465005 4.843297 -0.577349 -0.577349 0.577319
-0.080407 2.499264 1.868922 0.604694 0.485153 -0.631611
-0.977171 2.769746 2.139405 -0.678915 0.582324 -0.447127
-0.080407 2.769746 2.139405 0.604938 0.631611 -0.484878
-0.080407 0.464998 2.211198 0.597736 -0.801660 0.000000
-0.977171 0.464998 2.211198 -0.707083 -0.707083 0.000000
0.023159 0.812819 2.057276 0.990417 -0.115421 -0.075625
0.023159 1.730218 2.057784 0.993469 0.014527 -0.113163
-0.080407 2.170979 4.745202 0.603839 0.305612 0.736137
-0.977171 2.170979 4.745202 -0.678854 0.281442 0.678152
-0.080407 3.058930 2.835993 0.612781 0.777917 -0.138829
-0.977171 3.093321 3.216432 -0.687155 0.726463 0.000732
-0.080407 3.093321 3.216432 0.612079 0.790765 0.000885
-0.080407 2.768652 4.287304 0.604602 0.630848 0.486251
-0.977171 2.959917 3.957788 -0.678610 0.678213 0.281838
-0.080407 3.058930 3.588312 0.613147 0.777612 0.139012
0.023159 2.506689 3.776978 0.993561 0.104373 0.043397
0.023159 2.579732 3.502801 0.993896 0.108585 0.019135
0.023159 1.988449 2.126430 0.993439 0.044252 -0.105411
-0.080407 2.170979 1.679104 0.604327 0.305460 -0.735801
-0.977171 2.170979 1.679104 -0.678854 0.281442 -0.678152
0.023159 2.507666 2.652604 0.993591 0.104251 -0.043184
-0.080407 2.959898 2.468256 0.605090 0.735252 -0.305307
-0.080407 2.959917 3.957788 0.604755 0.735466 0.305490
-0.977171 3.058930 3.588312 -0.688528 0.713858 0.127689
0.023159 2.580397 2.925803 0.993896 0.108585 -0.018983
-0.977171 2.499264 1.868922 -0.678915 0.447127 -0.582324
-0.977171 0.464998 1.581478 -0.577349 -0.577441 -0.577197
-0.977171 3.058930 2.835993 -0.688162 0.714255 -0.127476
0.023159 2.605253 3.216393 0.993896 0.110141 0.000275
0.023159 2.379928 3.996342 0.993500 0.089908 0.069369
-0.977171 2.959898 2.468276 -0.678915 0.678030 -0.281594
0.023159 2.197183 2.249419 0.993530 0.069124 -0.089846
0.023159 2.381999 2.434236 0.993561 0.089816 -0.068880
0.023159 2.197183 4.178267 0.993469 0.069308 0.090365
3 0 1 2
3 3 4 5
3 4 6 5
3 7 8 9
3 10 11 12
3 13 14 15
3 16 12 17
3 18 9 19
3 6 10 16
3 20 2 21
3 22 23 24
3 4 21 11
3 25 26 1
3 27 28 29
3 30 9 31
3 9 32 31
3 22 33 34
3 35 36 26
3 24 37 22
3 31 38 13
3 0 25 1
3 3 20 4
3 4 10 6
3 7 39 8
3 10 4 11
3 13 38 14
3 16 10 12
3 18 7 9
3 20 0 2
3 22 40 23
3 4 20 21
3 25 35 26
3 27 35 28
3 30 19 9
3 9 8 32
3 22 37 33
3 35 27 36
3 24 41 37
3 39 16 17
3 31 32 38
3 17 8 39
3 18 6 16
3 28 25 42
3 18 16 7
3 43 22 34
3 33 15 34
3 19 30 44
3 19 44 45
3 19 45 33
3 19 33 37
3 45 13 15
3 19 37 41
3 19 41 29
3 19 29 28
3 19 28 42
3 19 42 46
3 19 46 3
3 19 3 5
3 41 27 29
3 46 20 3
3 42 0 46
3 23 27 24
3 18 5 6
3 17 12 11
3 17 11 21
3 17 21 2
3 17 2 1
3 17 1 26
3 17 26 36
3 44 31 13
3 17 36 23
3 17 23 40
3 14 34 15
3 17 40 43
3 17 43 14
3 17 14 38
3 17 38 32
3 17 32 8
3 39 7 16
3 28 35 25
3 43 40 22
3 33 45 15
3 45 44 13
3 41 24 27
3 46 0 20
3 42 25 0
3 23 36 27
3 18 19 5
3 44 30 31
3 14 43 34
