ply
format ascii 1.0
comment Created by Blender 2.77 (sub 0) - www.blender.org, source file: ''
element vertex 18
property float x
property float y
property float z
property float nx
property float ny
property float nz
element face 32
property list uchar uint vertex_indices
end_header
6.002850 -0.097371 2.837635 0.226600 -0.701254 -0.675924
6.670078 -0.097371 3.080917 0.740074 -0.577349 -0.344829
5.288347 -0.097373 2.710835 0.063143 -0.688009 -0.722922
5.995327 -0.097371 2.835330 0.168310 -0.693503 -0.700491
4.779193 0.431115 5.882142 -0.537004 0.611133 0.581439
5.288347 0.431115 2.710835 0.123142 0.703848 -0.699545
4.779193 0.431115 2.710835 -0.573779 0.577990 -0.580218
4.743989 0.287295 5.775567 -0.988769 0.083316 0.123905
4.779193 -0.097373 2.710835 -0.573717 -0.577929 -0.580340
4.743989 -0.097370 5.775567 -0.731925 -0.671834 0.113437
6.002850 0.287295 2.837635 0.325632 0.667165 -0.669942
5.288349 0.431115 5.882142 0.223853 0.786676 0.575304
5.995327 0.145822 2.835329 0.233131 0.001312 -0.972411
5.288349 -0.097373 5.882142 0.000000 -1.000000 0.000000
5.627935 0.145822 5.944184 0.572893 0.361187 0.735740
5.627935 -0.097371 5.944184 0.437361 -0.593249 0.675802
4.779193 -0.097373 5.882142 -0.491592 -0.600787 0.630329
6.670078 0.145822 3.080917 0.788720 0.512864 -0.338878
3 0 1 2
3 3 0 2
3 4 5 6
3 7 8 9
3 10 5 11
3 10 12 5
3 4 6 7
3 10 0 12
3 12 0 3
3 1 13 2
3 14 11 4
3 15 16 13
3 2 12 3
3 4 11 5
3 7 6 8
3 1 15 13
3 2 5 12
3 7 9 16
3 7 16 4
3 9 8 16
3 5 8 6
3 10 14 17
3 17 15 1
3 17 0 10
3 2 16 8
3 14 16 15
3 5 2 8
3 10 11 14
3 17 14 15
3 17 1 0
3 2 13 16
3 14 4 16
