ply
format ascii 1.0
comment Created by Blender 2.77 (sub 0) - www.blender.org, source file: ''
element vertex 15
property float x
property float y
property float z
property float nx
property float ny
property float nz
element face 26
property list uchar uint vertex_indices
end_header
-3.531212 0.089641 1.387396 -0.854610 0.519242 0.001770
-3.532650 -0.065950 -0.771682 -0.706656 -0.707419 -0.011811
-3.531212 -0.071504 1.393334 -0.703391 -0.710776 -0.000427
-3.531154 0.089418 1.480186 -0.626911 0.469192 0.621937
-3.531154 -0.071727 1.480267 -0.576952 -0.578051 0.576983
-2.045682 -0.071727 1.480267 0.574267 -0.578509 0.579211
-3.421295 0.145549 1.387476 -0.173284 0.961516 0.213080
-3.424962 0.151102 -0.923419 -0.204138 0.870479 -0.447829
-2.047177 -0.065950 -0.771682 0.071474 -0.997406 -0.005982
-3.523628 -0.061659 -1.051422 -0.544572 -0.395367 -0.739647
-2.023252 -0.061659 -1.051422 0.555376 -0.471755 -0.684805
-2.158426 0.145549 1.387476 0.144566 0.961180 0.234993
-2.045682 0.089418 1.480186 0.621662 0.463393 0.631489
-2.023252 0.234535 -0.950364 0.575304 0.677541 -0.458144
-3.532650 0.095194 -0.923500 -0.778405 0.540727 -0.318827
3 0 1 2
3 3 2 4
3 5 3 4
3 3 6 7
3 8 9 10
3 11 12 13
3 11 6 3
3 11 3 12
3 2 1 4
3 14 9 1
3 14 7 9
3 14 0 7
3 0 3 7
3 8 10 5
3 0 14 1
3 3 0 2
3 5 12 3
3 8 1 9
3 8 4 1
3 5 13 12
3 11 7 6
3 7 10 9
3 8 5 4
3 5 10 13
3 11 13 7
3 7 13 10
