ply
format ascii 1.0
comment Created by Blender 2.77 (sub 0) - www.blender.org, source file: ''
element vertex 8
property float x
property float y
property float z
property float nx
property float ny
property float nz
element face 12
property list uchar uint vertex_indices
end_header
6.050820 2.403720 0.057509 0.577349 0.161321 0.800378
6.050820 0.433417 -1.405248 0.577349 -0.161321 -0.800378
6.050820 2.474496 -0.049005 0.577349 0.800378 -0.161321
6.050820 0.362641 -1.298734 0.577349 -0.800378 0.161321
2.623516 2.403720 0.057509 -0.577349 0.161321 0.800378
2.623516 0.433417 -1.405248 -0.577349 -0.161321 -0.800378
2.623516 0.362641 -1.298734 -0.577349 -0.800378 0.161321
2.623516 2.474496 -0.049005 -0.577349 0.800378 -0.161321
3 0 1 2
3 3 0 4
3 4 5 6
3 3 5 1
3 0 3 1
3 4 6 3
3 4 7 5
3 3 6 5
3 2 4 0
3 2 5 7
3 2 7 4
3 2 1 5
