ply
format ascii 1.0
comment Created by Blender 2.77 (sub 0) - www.blender.org, source file: 'Campfire.blend'
element vertex 8
property float x
property float y
property float z
property float nx
property float ny
property float nz
element face 12
property list uchar uint vertex_indices
end_header
6.050820 2.403720 0.004972 0.577349 0.161321 -0.800378
6.050820 0.433416 1.467729 0.577349 -0.161321 0.800378
6.050820 0.362640 1.361216 0.577349 -0.800378 -0.161321
6.050820 2.474495 0.111486 0.577349 0.800378 0.161321
2.623516 0.433416 1.467729 -0.577349 -0.161321 0.800378
2.623516 2.403720 0.004972 -0.577349 0.161321 -0.800378
2.623516 2.474496 0.111486 -0.577349 0.800378 0.161321
2.623516 0.362641 1.361216 -0.577349 -0.800378 -0.161321
3 0 1 2
3 3 4 1
3 5 4 6
3 0 7 5
3 1 7 2
3 5 3 0
3 0 3 1
3 3 6 4
3 5 7 4
3 0 2 7
3 1 4 7
3 5 6 3
