ply
format ascii 1.0
comment Created by Blender 2.77 (sub 0) - www.blender.org, source file: ''
element vertex 8
property float x
property float y
property float z
property float nx
property float ny
property float nz
element face 12
property list uchar uint vertex_indices
end_header
6.071458 0.439313 -1.482808 0.577349 0.776818 0.251381
2.606510 0.306362 -1.414867 -0.577349 -0.251381 0.776818
6.071458 0.306362 -1.414867 0.577349 -0.251381 0.776818
6.071458 0.161761 -2.025940 0.577349 0.251381 -0.776818
2.606510 0.028810 -1.957999 -0.577349 -0.776818 -0.251381
2.606510 0.161761 -2.025940 -0.577349 0.251381 -0.776818
2.606510 0.439313 -1.482808 -0.577349 0.776818 0.251381
6.071458 0.028810 -1.957999 0.577349 -0.776818 -0.251381
3 0 1 2
3 3 4 5
3 0 6 1
3 3 7 4
3 5 0 3
3 7 0 2
3 4 2 1
3 6 4 1
3 5 6 0
3 7 3 0
3 4 7 2
3 6 5 4
