ply
format ascii 1.0
comment Created by Blender 2.77 (sub 0) - www.blender.org, source file: ''
element vertex 14
property float x
property float y
property float z
property float nx
property float ny
property float nz
element face 24
property list uchar uint vertex_indices
end_header
-0.476221 0.913285 -1.065052 -0.732170 0.162755 -0.661336
-0.476221 -0.055344 0.990653 -0.577349 -0.577349 0.577349
-0.476221 0.913285 0.990653 -0.732170 0.162755 0.661336
-0.307869 1.273187 -1.065052 -0.499466 0.602527 -0.622425
-0.307869 1.273187 0.990653 -0.499466 0.602527 0.622425
0.128360 1.385062 -1.065052 0.000000 0.755425 -0.655232
0.732942 -0.055344 -1.065052 0.577349 -0.577349 -0.577349
-0.476221 -0.055344 -1.065052 -0.577349 -0.577349 -0.577349
0.732942 0.913285 0.990653 0.732170 0.162755 0.661336
0.564590 1.273187 0.990653 0.499466 0.602527 0.622425
0.732942 -0.055344 0.990653 0.577349 -0.577349 0.577349
0.128360 1.385062 0.990653 0.000000 0.755425 0.655232
0.732942 0.913285 -1.065052 0.732170 0.162755 -0.661336
0.564590 1.273187 -1.065052 0.499466 0.602527 -0.622425
3 0 1 2
3 2 3 0
3 4 5 3
3 6 1 7
3 8 9 10
3 0 7 1
3 2 4 3
3 4 11 5
3 6 10 1
3 9 12 13
3 7 12 6
3 0 3 5
3 0 5 13
3 0 13 12
3 13 11 9
3 6 8 10
3 10 9 11
3 10 11 4
3 10 4 2
3 10 2 1
3 9 8 12
3 7 0 12
3 13 5 11
3 6 12 8
