ply
format ascii 1.0
comment Created by Blender 2.77 (sub 0) - www.blender.org, source file: ''
element vertex 18
property float x
property float y
property float z
property float nx
property float ny
property float nz
element face 32
property list uchar uint vertex_indices
end_header
0.011275 -0.034860 -0.032987 0.249489 -0.647328 -0.720176
0.035504 0.117995 -0.024634 0.942778 -0.015931 -0.332957
0.034205 -0.034860 -0.006729 0.768578 -0.626331 -0.130131
-0.027179 0.332945 -0.057791 -0.411634 0.000488 -0.911344
0.004042 0.592077 -0.041306 0.259590 0.636677 -0.726066
0.007494 0.332436 -0.054218 0.492141 0.018677 -0.870296
-0.047605 0.333532 -0.029549 -0.982482 -0.007904 -0.186163
-0.030162 0.592077 -0.034577 -0.510727 0.640004 -0.574023
-0.034205 -0.034860 0.006729 -0.763817 -0.623341 0.167302
-0.041437 0.592077 -0.001591 -0.765954 0.621235 0.165410
-0.022930 -0.034860 -0.026258 -0.508774 -0.643880 -0.571398
0.009176 0.117995 -0.047484 0.244209 -0.069308 -0.967223
0.026972 0.592077 -0.015048 0.768517 0.623005 -0.145512
0.028880 0.117995 0.009591 0.943175 0.014710 0.331858
0.015697 0.592077 0.017938 0.516221 0.617725 0.593219
0.022930 -0.034860 0.026258 0.519669 -0.606677 0.601520
-0.011275 -0.034860 0.032987 -0.253487 -0.606647 0.753471
-0.018508 0.592077 0.024667 -0.259102 0.613269 0.746147
3 0 1 2
3 3 4 5
3 6 7 3
3 8 9 6
3 0 10 11
3 2 1 12
3 13 2 12
3 14 13 12
3 11 5 1
3 8 15 16
3 11 10 3
3 10 6 3
3 12 1 5
3 15 2 13
3 15 13 14
3 4 12 5
3 0 8 10
3 17 8 16
3 0 11 1
3 3 7 4
3 6 9 7
3 11 3 5
3 14 16 15
3 10 8 6
3 17 9 8
3 15 0 2
3 14 12 4
3 14 9 17
3 9 4 7
3 14 17 16
3 15 8 0
3 9 14 4
