ply
format ascii 1.0
comment Created by Blender 2.77 (sub 0) - www.blender.org, source file: 'Plants.blend'
element vertex 24
property float x
property float y
property float z
property float nx
property float ny
property float nz
element face 44
property list uchar uint vertex_indices
end_header
-0.037452 1.255266 0.503734 -0.095676 -0.331095 0.938719
-0.232352 1.883307 0.525520 -0.314737 -0.020234 0.948943
-0.492734 1.250513 0.160629 -0.857082 -0.367016 0.361492
-0.115779 1.281056 -0.580754 -0.188208 -0.343364 -0.920133
0.525586 2.228275 -0.391531 0.825434 0.082644 -0.558367
0.225087 1.091955 -0.430146 0.428571 -0.526933 -0.733909
-0.417306 3.178648 -0.261697 -0.804773 0.361858 -0.470473
-0.514565 2.698589 0.258571 -0.808130 0.199561 0.554155
-0.102559 3.749249 0.049325 -0.026582 0.886776 0.461409
0.059551 2.707949 -0.561766 0.149998 0.237648 -0.959685
-0.114530 3.762877 -0.181242 -0.044649 0.903989 -0.425184
-0.071878 3.128554 0.291816 -0.026093 0.348796 0.936827
0.505276 2.252733 0.312207 0.815149 0.119999 0.566607
0.157523 2.495416 0.489634 0.281686 0.212867 0.935575
0.529516 1.190056 -0.006860 0.904233 -0.426466 0.020997
0.397991 2.843986 -0.041293 0.922361 0.375439 0.090793
-0.465814 1.184782 -0.235124 -0.788965 -0.496536 -0.361858
-0.114200 0.902688 0.214574 -0.249886 -0.858577 0.447615
-0.536743 2.343754 -0.386017 -0.822321 0.059786 -0.565844
0.308789 1.227009 0.386299 0.553545 -0.393353 0.734062
0.110559 0.811051 -0.094906 0.153661 -0.980407 -0.123081
0.103238 3.277808 0.154843 0.624836 0.373943 0.685354
0.132163 3.377956 0.028825 0.867031 0.462813 0.184454
0.160636 3.228832 -0.204639 0.784204 0.417859 -0.458663
3 0 1 2
3 3 4 5
3 6 7 8
3 9 6 10
3 8 7 11
3 12 1 0
3 12 13 1
3 12 14 4
3 4 15 12
3 16 17 2
3 5 4 14
3 18 9 3
3 17 0 2
3 0 17 19
3 20 5 14
3 1 11 7
3 3 20 16
3 12 19 14
3 8 21 22
3 9 23 4
3 15 4 23
3 20 19 17
3 12 0 19
3 23 9 10
3 6 8 10
3 1 7 2
3 16 18 3
3 2 18 16
3 4 3 9
3 7 6 18
3 2 7 18
3 20 3 5
3 6 9 18
3 13 15 21
3 21 11 13
3 15 13 12
3 22 21 15
3 8 11 21
3 16 20 17
3 1 13 11
3 15 23 22
3 10 8 22
3 22 23 10
3 20 14 19
