ply
format ascii 1.0
comment Created by Blender 2.77 (sub 0) - www.blender.org, source file: ''
element vertex 17
property float x
property float y
property float z
property float nx
property float ny
property float nz
element face 30
property list uchar uint vertex_indices
end_header
0.204853 1.480737 0.079190 0.677084 0.355907 -0.644093
-0.010888 1.587211 0.767155 0.684164 0.356151 0.636402
0.243599 1.359597 0.153710 0.903928 -0.177190 -0.389203
-0.097862 1.186784 0.180257 -0.452864 -0.817438 -0.355937
-0.120343 1.470498 0.827476 -0.028443 -0.459212 0.887845
-0.219193 1.495927 0.815802 -0.631001 -0.228309 0.741386
-0.036770 1.658994 0.732595 0.436262 0.781304 0.446303
0.063641 1.171657 0.221060 0.131626 -0.964782 -0.227607
-0.215701 1.656197 0.727516 -0.599628 0.744652 0.293100
-0.036770 1.498725 0.820881 0.472182 -0.144780 0.869503
-0.133073 1.342946 0.089944 -0.647664 -0.331004 -0.686239
-0.100883 1.460857 0.031464 -0.470779 0.240699 -0.848750
0.204853 1.209676 0.228506 0.694449 -0.708396 -0.125919
-0.116852 1.680753 0.711655 -0.027955 0.973174 0.228278
0.040617 1.505563 0.035284 0.100742 0.474685 -0.874355
0.063641 1.358481 0.118146 0.169347 -0.471786 -0.865261
-0.241254 1.583625 0.760644 -0.870174 0.256417 0.420698
3 0 1 2
3 3 4 5
3 0 6 1
3 3 7 4
3 8 9 6
3 10 8 11
3 3 12 7
3 1 6 9
3 13 8 6
3 12 1 9
3 6 14 13
3 10 11 3
3 11 15 3
3 15 0 3
3 0 12 3
3 0 2 12
3 9 5 4
3 16 3 5
3 8 16 5
3 9 7 12
3 14 0 11
3 0 15 11
3 11 13 14
3 8 5 9
3 10 16 8
3 12 2 1
3 6 0 14
3 16 10 3
3 9 4 7
3 11 8 13
