ply
format ascii 1.0
comment Created by Blender 2.77 (sub 0) - www.blender.org, source file: ''
element vertex 17
property float x
property float y
property float z
property float nx
property float ny
property float nz
element face 30
property list uchar uint vertex_indices
end_header
-0.195191 1.655279 0.190773 -0.528062 -0.714530 0.458876
-0.155051 2.509193 0.406356 -0.807703 0.589373 0.015259
-0.235611 1.650966 -0.016270 -0.742119 -0.666036 -0.074923
0.152314 1.716473 0.194480 0.630757 -0.637165 0.442854
0.001874 2.514325 0.576807 0.008332 0.405652 0.913968
-0.009792 1.687927 0.228584 0.121708 -0.789117 0.602008
-0.036222 1.686078 -0.210056 0.049959 -0.429640 -0.901578
-0.121888 2.516979 0.303112 -0.519211 0.748222 -0.412946
0.006405 2.514325 0.265265 -0.004608 0.776116 -0.630512
0.152314 1.716473 -0.160775 0.613086 -0.374248 -0.695700
0.110338 2.524504 0.303112 0.504959 0.761071 -0.407086
0.143929 2.518840 0.406356 0.798730 0.600635 0.034761
0.110338 2.524504 0.540590 0.570360 0.524308 0.632252
-0.126419 2.516979 0.540590 -0.577441 0.497421 0.647359
-0.198658 1.657474 -0.167220 -0.543748 -0.497879 -0.675588
0.196792 1.724306 0.002306 0.839930 -0.538011 -0.070956
-0.009792 1.687927 -0.016270 0.169347 -0.985534 -0.004242
3 0 1 2
3 3 4 5
3 6 7 8
3 9 8 10
3 3 11 12
3 0 13 1
3 3 12 4
3 6 14 7
3 9 6 8
3 9 15 16
3 3 15 11
3 12 7 13
3 11 10 12
3 5 13 0
3 7 1 13
3 2 14 0
3 14 16 0
3 15 3 5
3 5 16 15
3 8 7 10
3 15 10 11
3 6 9 14
3 12 13 4
3 9 16 14
3 2 7 14
3 12 10 7
3 5 4 13
3 5 0 16
3 15 9 10
3 2 1 7
