ply
format ascii 1.0
comment Created by Blender 2.77 (sub 0) - www.blender.org, source file: ''
element vertex 16
property float x
property float y
property float z
property float nx
property float ny
property float nz
element face 28
property list uchar uint vertex_indices
end_header
-0.057436 2.685110 0.448746 -0.500961 -0.720145 -0.479995
-0.063311 2.994330 0.942671 -0.884548 0.310190 0.348308
-0.055060 2.815461 0.385446 -0.589190 -0.162938 -0.791375
0.169046 2.699978 0.560355 0.623920 -0.760002 -0.181768
0.052801 2.858369 1.048248 -0.163854 -0.551317 0.818018
0.055726 2.670272 0.517897 0.141697 -0.958068 -0.248970
0.095360 2.948484 0.396964 0.315073 0.476180 -0.820948
-0.007524 3.102977 0.922387 -0.559648 0.783410 0.270180
0.119873 3.132624 0.941994 0.000946 0.979400 0.201788
0.199508 2.925724 0.465119 0.763878 0.264473 -0.588641
0.204581 3.105672 0.991958 0.515336 0.725761 0.455702
-0.010300 2.913213 0.356742 -0.303995 0.317606 -0.898160
-0.051944 2.888598 1.003381 -0.732871 -0.251320 0.632221
0.164102 2.913687 1.072951 0.381298 -0.259651 0.887204
0.213450 2.824299 0.522996 0.877102 -0.273232 -0.395001
0.223002 3.020178 1.031857 0.734642 0.161626 0.658895
3 0 1 2
3 3 4 5
3 6 7 8
3 9 8 10
3 11 1 7
3 0 12 1
3 3 13 4
3 6 11 7
3 9 6 8
3 11 3 0
3 11 2 1
3 9 14 3
3 13 12 4
3 6 9 11
3 10 14 9
3 7 1 12
3 12 5 4
3 10 13 15
3 0 3 5
3 10 8 7
3 2 11 0
3 13 14 15
3 7 13 10
3 11 9 3
3 10 15 14
3 12 0 5
3 13 3 14
3 7 12 13
