ply
format ascii 1.0
comment Created by Blender 2.77 (sub 0) - www.blender.org, source file: 'Plants.blend'
element vertex 18
property float x
property float y
property float z
property float nx
property float ny
property float nz
element face 32
property list uchar uint vertex_indices
end_header
-0.135101 0.724069 0.190773 -0.514634 -0.659688 0.547624
-0.218927 1.710940 -0.002136 -0.793756 0.607654 -0.025513
-0.159592 0.719756 -0.016270 -0.658528 -0.750938 -0.048982
0.252168 0.785263 0.194480 0.618671 -0.532487 0.577624
0.004388 1.718038 0.233621 -0.015107 0.636677 0.770959
0.050298 0.756717 0.228584 0.078829 -0.658376 0.748527
0.252168 0.785263 -0.160775 0.620991 -0.537278 -0.570666
0.200869 1.724283 -0.002136 0.724631 0.688742 -0.022340
0.296646 0.793095 0.002306 0.832026 -0.554521 -0.014039
0.039797 0.754867 -0.210056 0.076052 -0.642262 -0.762658
-0.173058 1.721709 -0.144937 -0.562029 0.624073 -0.542772
0.004388 1.718038 -0.197285 -0.010743 0.640309 -0.768029
0.004388 1.718038 -0.002136 -0.032624 0.999451 0.001343
0.154409 1.732118 0.183528 0.522019 0.675893 0.520218
0.050298 0.756717 -0.016270 0.157994 -0.987426 0.000397
-0.173058 1.721709 0.183528 -0.576220 0.611866 0.541826
0.154409 1.732118 -0.144937 0.504929 0.685263 -0.524796
-0.122639 0.726263 -0.167220 -0.486496 -0.664998 -0.566607
3 0 1 2
3 3 4 5
3 6 7 8
3 9 10 11
3 12 13 7
3 14 0 2
3 3 14 8
3 15 12 1
3 6 11 16
3 5 15 0
3 10 12 11
3 6 14 9
3 14 17 9
3 12 16 11
3 3 7 13
3 17 1 10
3 0 15 1
3 3 13 4
3 6 16 7
3 9 17 10
3 12 4 13
3 14 5 0
3 3 5 14
3 15 4 12
3 6 9 11
3 5 4 15
3 10 1 12
3 6 8 14
3 14 2 17
3 12 7 16
3 3 8 7
3 17 2 1
