ply
format ascii 1.0
comment Created by Blender 2.77 (sub 0) - www.blender.org, source file: 'Plants.blend'
element vertex 18
property float x
property float y
property float z
property float nx
property float ny
property float nz
element face 32
property list uchar uint vertex_indices
end_header
-0.450143 2.039277 -0.454654 -0.800104 -0.575274 -0.169805
-0.166368 2.436489 -0.797501 -0.321940 0.834437 -0.447249
-0.161718 2.364915 -0.853559 -0.237068 0.148076 -0.960112
-0.397152 2.126728 -0.325537 -0.477889 0.191443 0.857265
-0.025722 2.432454 -0.716809 0.583789 0.807733 0.082064
-0.103159 2.448966 -0.738084 0.072085 0.996673 -0.037477
-0.203741 2.026690 -0.303214 0.387921 -0.443373 0.808008
0.019070 2.308910 -0.750187 0.936430 -0.254097 -0.241890
0.016431 2.358968 -0.750126 0.912107 0.325785 -0.248756
-0.325171 1.981878 -0.448327 -0.311197 -0.937712 -0.154363
-0.044397 2.286892 -0.797738 0.434278 -0.442793 -0.784387
-0.252563 1.962407 -0.418789 -0.000549 -0.999329 -0.036287
-0.071009 2.360292 -0.798556 0.458815 0.367595 -0.808893
-0.363851 2.034879 -0.402329 -0.393292 -0.704489 0.590747
-0.468232 2.116429 -0.381429 -0.913022 0.104404 0.394269
-0.244043 2.092937 -0.268673 0.102878 0.084262 0.991089
-0.200209 1.972035 -0.351123 0.287118 -0.849788 0.442000
-0.121576 2.312945 -0.830879 0.116031 -0.411756 -0.903867
3 0 1 2
3 3 4 5
3 6 7 8
3 9 10 11
3 12 4 8
3 13 14 0
3 15 13 6
3 1 12 2
3 11 7 16
3 14 5 1
3 17 12 10
3 6 11 16
3 13 9 11
3 10 8 7
3 6 4 15
3 0 17 9
3 0 14 1
3 3 15 4
3 6 16 7
3 9 17 10
3 12 5 4
3 13 3 14
3 15 3 13
3 1 5 12
3 11 10 7
3 14 3 5
3 17 2 12
3 6 13 11
3 13 0 9
3 10 12 8
3 6 8 4
3 0 2 17
