ply
format ascii 1.0
comment Created by Blender 2.77 (sub 0) - www.blender.org, source file: 'Plants.blend'
element vertex 18
property float x
property float y
property float z
property float nx
property float ny
property float nz
element face 32
property list uchar uint vertex_indices
end_header
-0.133073 1.342946 0.089944 -0.642170 -0.333842 -0.689993
-0.219193 1.495927 0.815802 -0.622974 -0.208045 0.754051
-0.241254 1.583625 0.760644 -0.822596 0.288217 0.490097
0.063641 1.171657 0.221060 0.131626 -0.964782 -0.227607
-0.036770 1.498725 0.820881 0.452071 -0.123966 0.883297
-0.120343 1.470498 0.827476 -0.031648 -0.388867 0.920743
0.204853 1.480737 0.079190 0.676412 0.355937 -0.644765
-0.010888 1.587211 0.767155 0.619892 0.380291 0.686331
0.243599 1.359597 0.153710 0.903928 -0.177190 -0.389203
-0.100883 1.460857 0.031464 -0.470199 0.239662 -0.849391
-0.116852 1.680753 0.711655 -0.030915 0.953581 0.299478
0.040617 1.505563 0.035284 0.101901 0.469161 -0.877194
-0.104578 1.585533 0.764108 -0.036378 0.480636 0.876125
0.063641 1.358481 0.118146 0.168401 -0.470809 -0.865993
-0.097862 1.186784 0.180257 -0.454054 -0.816645 -0.356212
0.204853 1.209676 0.228506 0.694449 -0.708396 -0.125919
-0.036770 1.658994 0.732595 0.415235 0.776025 0.474654
-0.215701 1.656197 0.727516 -0.590320 0.739860 0.322642
3 0 1 2
3 3 4 5
3 6 7 8
3 9 10 11
3 12 4 7
3 13 14 0
3 15 13 8
3 1 12 2
3 11 16 6
3 14 5 1
3 17 12 10
3 6 13 11
3 13 9 11
3 12 16 10
3 15 7 4
3 0 17 9
3 0 14 1
3 3 15 4
3 6 16 7
3 9 17 10
3 12 5 4
3 13 3 14
3 15 3 13
3 1 5 12
3 11 10 16
3 14 3 5
3 17 2 12
3 6 8 13
3 13 0 9
3 12 7 16
3 15 8 7
3 0 2 17
