ply
format ascii 1.0
comment Created by Blender 2.77 (sub 0) - www.blender.org, source file: 'Anvil.blend'
element vertex 50
property float x
property float y
property float z
property float nx
property float ny
property float nz
element face 96
property list uchar uint vertex_indices
end_header
1.849804 0.830306 3.588456 -0.930235 -0.003204 0.366894
1.985088 0.899584 3.756309 -0.391186 0.290902 0.873104
1.898028 1.059564 3.588456 -0.675649 0.574969 0.461379
2.312820 1.059564 3.588457 0.675649 0.574969 0.461379
2.105424 0.938286 3.756309 0.000000 0.401379 0.915891
2.225760 0.899584 3.756310 0.391186 0.290902 0.873104
2.361044 0.830306 3.588457 0.930235 -0.003204 0.366894
2.225760 0.700667 3.756310 0.430464 -0.341136 0.835627
2.312820 0.628711 3.588457 0.748222 -0.548997 0.372417
1.985088 0.700667 3.756309 -0.430494 -0.341136 0.835627
1.957107 0.800126 3.756309 -0.541215 -0.016236 0.840693
2.105424 0.800126 3.756309 0.000000 0.000000 1.000000
2.253741 0.800126 3.756310 0.541215 -0.016236 0.840693
2.105424 0.661965 3.756309 0.000000 -0.417371 0.908719
1.763867 0.830306 3.128697 -0.995758 -0.017304 0.090365
1.828303 1.136637 3.128697 -0.766747 0.633015 0.106510
1.898028 0.628711 3.588456 -0.748222 -0.548997 0.372417
2.382545 1.136637 3.128697 0.766747 0.633015 0.106510
2.105424 1.148773 3.588456 0.000000 0.866298 0.499466
2.446981 0.830306 3.128697 0.995758 -0.017304 0.090365
2.382545 0.571083 3.128697 0.744255 -0.664479 0.067141
2.105424 0.562009 3.666137 0.000000 -0.811731 0.584002
1.909160 1.047257 -3.807622 -0.669118 0.571947 -0.474441
2.105424 0.943728 -3.950306 0.000000 0.388928 -0.921262
1.980348 0.903502 -3.950306 -0.394848 0.283334 -0.873928
2.347323 0.830306 -3.807621 0.929838 -0.000519 -0.367901
2.230500 0.903502 -3.950305 0.394848 0.283334 -0.873928
2.301688 1.047257 -3.807621 0.669118 0.571947 -0.474441
2.105424 1.131678 -3.807622 0.000000 0.856685 -0.515824
2.230500 0.696749 -3.950305 0.440687 -0.342112 -0.829890
2.259582 0.800125 -3.950305 0.549730 -0.019471 -0.835078
2.105424 0.800125 -3.950306 0.000000 0.000000 -1.000000
1.980348 0.696749 -3.950306 -0.440687 -0.342143 -0.829890
1.951266 0.800125 -3.950306 -0.549730 -0.019471 -0.835078
2.105424 0.656523 -3.950306 0.000000 -0.389752 -0.920896
1.763867 0.830306 -3.313801 -0.995086 -0.017212 -0.097232
1.909160 0.637912 -3.807622 -0.749504 -0.544969 -0.375774
1.828303 0.571083 -3.313801 -0.745109 -0.663015 -0.072176
2.382545 1.136637 -3.313802 0.765893 0.632679 -0.114383
2.105424 1.255839 -3.313801 0.000000 0.992859 -0.119236
2.446981 0.830306 -3.313802 0.995086 -0.017212 -0.097232
2.301688 0.637912 -3.807621 0.749504 -0.544969 -0.375774
2.105424 0.481956 -3.708991 0.000000 -0.964995 -0.262185
2.382545 0.571083 -3.313802 0.745109 -0.663015 -0.072176
1.863525 0.830306 -3.807622 -0.929838 -0.000519 -0.367901
2.105424 0.574791 -3.884125 0.000000 -0.807855 -0.589343
2.105424 0.481956 3.523375 0.000000 -0.962188 0.272347
1.828303 0.571083 3.128697 -0.744255 -0.664479 0.067141
1.828303 1.136637 -3.313801 -0.765893 0.632679 -0.114383
2.105424 1.255839 3.128697 0.000000 0.993805 0.110996
3 0 1 2
3 3 4 5
3 6 7 8
3 0 9 10
3 11 7 12
3 5 11 12
3 1 11 4
3 11 9 13
3 14 2 15
3 14 16 0
3 17 18 3
3 19 8 20
3 21 7 13
3 2 4 18
3 21 9 16
3 6 5 12
3 22 23 24
3 25 26 27
3 27 23 28
3 25 29 30
3 31 32 33
3 24 31 33
3 26 31 23
3 31 29 34
3 35 36 37
3 38 28 39
3 40 41 25
3 42 41 43
3 44 24 33
3 45 32 34
3 44 32 36
3 45 29 41
3 46 16 47
3 35 22 44
3 43 46 42
3 15 39 48
3 48 28 22
3 46 8 21
3 17 40 38
3 15 18 49
3 48 14 15
3 40 27 38
3 49 38 39
3 46 37 42
3 42 36 45
3 35 47 14
3 19 3 6
3 19 43 40
3 0 10 1
3 3 18 4
3 6 12 7
3 0 16 9
3 11 13 7
3 5 4 11
3 1 10 11
3 11 10 9
3 14 0 2
3 14 47 16
3 17 49 18
3 19 6 8
3 21 8 7
3 2 1 4
3 21 13 9
3 6 3 5
3 22 28 23
3 25 30 26
3 27 26 23
3 25 41 29
3 31 34 32
3 24 23 31
3 26 30 31
3 31 30 29
3 35 44 36
3 38 27 28
3 40 43 41
3 42 45 41
3 44 22 24
3 45 36 32
3 44 33 32
3 45 34 29
3 46 21 16
3 35 48 22
3 43 20 46
3 15 49 39
3 48 39 28
3 46 20 8
3 17 19 40
3 15 2 18
3 48 35 14
3 40 25 27
3 49 17 38
3 46 47 37
3 42 37 36
3 35 37 47
3 19 17 3
3 19 20 43
