ply
format ascii 1.0
comment Created by Blender 2.77 (sub 0) - www.blender.org, source file: 'Anvil.blend'
element vertex 8
property float x
property float y
property float z
property float nx
property float ny
property float nz
element face 12
property list uchar uint vertex_indices
end_header
-3.736077 0.576360 3.613642 0.540971 0.775842 0.324625
-3.736076 -0.004735 -3.801242 0.716483 -0.629505 -0.300516
-3.736076 0.576360 -3.801242 0.539506 0.774132 -0.331065
-4.341160 0.283831 4.230330 -0.354167 0.457686 0.815485
-3.736077 -0.004735 3.613642 0.718070 -0.631031 0.293435
-4.341159 0.283831 -4.395618 -0.362621 0.456282 -0.812586
-4.341160 -0.004735 4.230330 -0.316752 -0.546678 0.775109
-4.341159 -0.004735 -4.395618 -0.323740 -0.547136 -0.771874
3 0 1 2
3 3 4 0
3 5 6 3
3 5 1 7
3 4 7 1
3 5 0 2
3 0 4 1
3 3 6 4
3 5 7 6
3 5 2 1
3 4 6 7
3 5 3 0
