ply
format ascii 1.0
comment Created by Blender 2.77 (sub 0) - www.blender.org, source file: 'Anvil.blend'
element vertex 8
property float x
property float y
property float z
property float nx
property float ny
property float nz
element face 12
property list uchar uint vertex_indices
end_header
1.189798 1.633391 4.279123 -0.577349 0.577349 -0.577349
1.189798 0.009102 4.569395 -0.577349 -0.577349 0.577349
1.189798 1.633391 4.569395 -0.577349 0.577349 0.577349
3.817293 1.633391 4.279122 0.577349 0.577349 -0.577349
1.189798 0.009102 4.279123 -0.577349 -0.577349 -0.577349
3.817293 1.633391 4.569394 0.577349 0.577349 0.577349
3.817293 0.009102 4.279122 0.577349 -0.577349 -0.577349
3.817293 0.009102 4.569394 0.577349 -0.577349 0.577349
3 0 1 2
3 3 4 0
3 5 6 3
3 2 7 5
3 4 7 1
3 5 0 2
3 0 4 1
3 3 6 4
3 5 7 6
3 2 1 7
3 4 6 7
3 5 3 0
