ply
format ascii 1.0
comment Created by Blender 2.77 (sub 0) - www.blender.org, source file: ''
element vertex 16
property float x
property float y
property float z
property float nx
property float ny
property float nz
element face 28
property list uchar uint vertex_indices
end_header
-45.749847 16.982880 -38.891758 -0.489364 -0.702902 -0.516129
-42.686077 16.997263 -40.282345 0.452406 -0.745994 -0.488632
-41.969009 16.997263 -39.566330 0.455214 -0.764946 -0.455641
-43.409000 17.081705 -41.008465 0.013001 -0.541246 -0.840724
-40.587975 17.363213 -38.187439 0.840907 0.538682 0.051637
-41.929707 17.081705 -39.548283 0.704520 -0.082949 -0.704794
-41.931297 17.447552 -39.546692 0.499527 0.707846 -0.499374
-43.043030 16.982880 -36.184937 0.035005 -0.998566 0.040223
-40.589050 16.997263 -38.186371 0.818720 -0.572619 0.042177
-45.748787 17.411194 -38.892830 -0.568163 0.567888 -0.595538
-45.916634 17.412773 -38.724976 -0.818049 0.575091 0.000397
-43.411133 17.447552 -41.006325 0.013947 0.585864 -0.810266
-43.210873 16.984457 -36.017090 -0.039979 -0.579424 0.814020
-43.209808 17.412773 -36.018154 -0.037538 0.580859 0.813105
-41.237587 17.447552 -38.808357 0.372662 0.872402 -0.316233
-45.917694 16.984455 -38.723911 -0.818598 -0.574328 0.001892
3 0 1 2
3 0 3 1
3 4 5 6
3 7 2 8
3 9 10 11
3 3 6 5
3 12 4 13
3 10 14 11
3 8 2 5
3 2 1 5
3 1 3 5
3 9 15 10
3 14 4 6
3 11 14 6
3 14 13 4
3 9 3 0
3 12 7 8
3 13 15 12
3 4 8 5
3 7 0 2
3 3 11 6
3 12 8 4
3 10 13 14
3 0 15 9
3 9 11 3
3 15 7 12
3 13 10 15
3 15 0 7
