ply
format ascii 1.0
comment Created by Blender 2.77 (sub 0) - www.blender.org, source file: ''
element vertex 16
property float x
property float y
property float z
property float nx
property float ny
property float nz
element face 28
property list uchar uint vertex_indices
end_header
47.045715 17.258381 -26.366573 0.578234 0.574541 -0.579241
43.217693 16.768572 -26.368076 -0.547410 -0.579241 -0.603961
43.217690 17.258381 -26.366571 -0.548570 0.580340 -0.601856
47.045715 16.766768 -26.130707 0.710807 -0.703116 0.019074
45.862598 16.783216 -22.980999 0.028809 -0.741935 0.669820
44.849258 16.783216 -22.980257 0.000275 -0.757683 0.652577
46.887226 16.879782 -22.978741 0.588366 -0.536210 0.605182
42.897694 17.201704 -22.978741 -0.634297 0.533982 0.558977
44.808704 16.879782 -22.965225 0.000183 -0.072481 0.997345
44.808704 17.298153 -22.967474 -0.000122 0.707572 0.706595
47.045723 17.256575 -26.129196 0.835444 0.549181 0.019501
46.887222 17.298153 -22.981758 0.562975 0.586047 0.582720
43.796097 17.298153 -22.999029 -0.044618 0.859401 0.509323
42.897701 16.783216 -22.980255 -0.608722 -0.572314 0.549425
47.045715 16.768572 -26.368074 0.577563 -0.574145 -0.580279
43.217693 16.766769 -26.130709 -0.060671 -0.998138 -0.004151
3 0 1 2
3 3 4 5
3 3 6 4
3 7 8 9
3 10 0 11
3 6 9 8
3 1 7 2
3 0 12 11
3 13 5 8
3 5 4 8
3 4 6 8
3 10 14 0
3 12 7 9
3 11 12 9
3 12 2 7
3 10 6 3
3 1 15 13
3 0 14 1
3 7 13 8
3 15 14 3
3 6 11 9
3 1 13 7
3 0 2 12
3 3 14 10
3 10 11 6
3 15 5 13
3 15 1 14
3 15 3 5
