ply
format ascii 1.0
comment Created by Blender 2.77 (sub 0) - www.blender.org, source file: ''
element vertex 8
property float x
property float y
property float z
property float nx
property float ny
property float nz
element face 12
property list uchar uint vertex_indices
end_header
49.370098 28.565552 17.932575 0.576342 0.577319 0.578326
48.758820 28.565552 17.293425 -0.575823 0.577410 -0.578753
48.756657 28.565546 17.931511 -0.578875 0.577258 0.575884
49.371151 -2.259520 17.294495 0.578326 -0.577349 -0.576342
49.371151 28.565552 17.294489 0.578295 0.577349 -0.576342
49.370102 -2.259520 17.932573 0.576373 -0.577319 0.578326
48.758820 -2.259520 17.293430 -0.575823 -0.577410 -0.578784
48.756660 -2.259520 17.931509 -0.578845 -0.577258 0.575915
3 0 1 2
3 3 1 4
3 2 5 0
3 0 3 4
3 0 4 1
3 2 6 7
3 3 6 1
3 7 5 2
3 0 5 3
3 5 6 3
3 2 1 6
3 5 7 6
