ply
format ascii 1.0
comment Created by Blender 2.77 (sub 0) - www.blender.org, source file: 'WoodFort.blend'
element vertex 20
property float x
property float y
property float z
property float nx
property float ny
property float nz
element face 36
property list uchar uint vertex_indices
end_header
6.225038 4.141841 41.982578 -0.903928 0.181829 0.387005
4.579314 -0.725778 35.016541 -0.797388 -0.029084 -0.602741
4.495682 -1.140273 35.369476 -0.869228 -0.393597 -0.299173
6.799721 4.812506 41.746170 -0.169195 0.958770 0.228248
4.960326 -0.469608 34.712284 -0.470809 0.195654 -0.860225
7.332585 4.812506 41.606819 0.282205 0.950743 0.128025
5.493199 -0.469609 34.572937 -0.010559 0.195685 -0.980590
5.974383 -0.725779 34.651722 0.400250 -0.029084 -0.915922
7.949431 4.141842 41.531643 0.977691 0.181829 -0.105014
6.220077 -1.140272 34.918537 0.611499 -0.393597 -0.686392
7.865801 3.727348 41.884579 0.828516 -0.108737 0.549242
6.136450 -1.554764 35.271477 0.539689 -0.749504 -0.383312
5.755432 -1.810934 35.575733 0.212500 -0.969481 -0.122044
6.951916 3.471179 42.328178 0.007202 -0.297403 0.954711
5.222564 -1.810935 35.715080 -0.245064 -0.969481 -0.002380
6.470739 3.727348 42.249397 -0.502914 -0.167638 0.847896
4.741381 -1.554764 35.636292 -0.658223 -0.749504 -0.070040
6.418709 4.556335 42.050423 -0.444044 0.699301 0.560137
7.813769 4.556336 41.685604 0.626301 0.694296 0.354503
7.484787 3.471179 42.188835 0.475631 -0.279611 0.834010
3 0 1 2
3 1 3 4
3 4 5 6
3 5 7 6
3 7 8 9
3 9 10 11
3 10 12 11
3 12 13 14
3 13 5 3
3 14 15 16
3 16 0 2
3 9 12 16
3 0 17 1
3 1 17 3
3 4 3 5
3 5 18 7
3 7 18 8
3 9 8 10
3 10 19 12
3 12 19 13
3 3 17 13
3 0 15 17
3 13 19 5
3 10 8 18
3 18 5 10
3 17 15 13
3 19 10 5
3 14 13 15
3 16 15 0
3 16 2 1
3 1 4 6
3 6 7 9
3 9 11 12
3 12 14 16
3 16 1 9
3 6 9 1
