ply
format ascii 1.0
comment Created by Blender 2.77 (sub 0) - www.blender.org, source file: 'WoodFort.blend'
element vertex 20
property float x
property float y
property float z
property float nx
property float ny
property float nz
element face 36
property list uchar uint vertex_indices
end_header
63.426182 -0.473044 3.631705 -0.950041 0.195257 -0.243385
64.459442 -1.814369 4.188564 -0.065706 -0.969481 0.236091
63.618282 -0.729213 4.629230 -0.788476 -0.029359 0.614307
64.258873 -1.558199 4.632988 -0.237922 -0.749504 0.617695
71.008270 4.320263 4.842801 0.139714 0.181982 0.973296
63.937576 -1.143706 4.801311 -0.513840 -0.393597 0.762230
71.329559 3.905770 4.674480 0.688925 -0.167638 0.705130
71.530136 3.649600 4.230054 0.924070 -0.297403 0.239967
70.931793 4.990926 3.675745 0.178869 0.958831 -0.220466
70.928558 4.990927 4.226524 0.176275 0.958831 0.222541
64.462669 -1.814369 3.637786 -0.062929 -0.969481 -0.236824
71.338020 3.905770 3.232527 0.697165 -0.167638 -0.697012
64.267334 -1.558200 3.191040 -0.230659 -0.749504 -0.620472
63.948040 -1.143706 3.018960 -0.504837 -0.393597 -0.768212
63.626740 -0.729213 3.187281 -0.781213 -0.029359 -0.623524
71.018730 4.320263 3.060451 0.151128 0.181982 -0.971618
63.422947 -0.473042 4.182482 -0.952849 0.195257 0.232215
71.123901 4.734757 4.673273 0.425947 0.699423 0.573901
71.533363 3.649600 3.679276 0.926847 -0.297403 -0.229102
71.132362 4.734756 3.231322 0.432630 0.699423 -0.568865
3 0 1 2
3 3 4 5
3 1 6 3
3 7 8 9
3 10 7 1
3 11 10 12
3 13 11 12
3 14 15 13
3 8 14 0
3 16 8 0
3 2 9 16
3 4 2 5
3 3 5 2
3 2 16 0
3 0 14 13
3 13 12 0
3 10 1 12
3 3 2 1
3 0 12 1
3 3 6 4
3 1 7 6
3 9 17 7
3 4 6 17
3 7 18 8
3 11 15 19
3 19 8 18
3 17 6 7
3 18 11 19
3 10 18 7
3 11 18 10
3 13 15 11
3 14 19 15
3 8 19 14
3 16 9 8
3 2 17 9
3 4 17 2
