ply
format ascii 1.0
comment Created by Blender 2.77 (sub 0) - www.blender.org, source file: ''
element vertex 20
property float x
property float y
property float z
property float nx
property float ny
property float nz
element face 36
property list uchar uint vertex_indices
end_header
-44.799591 17.339367 -29.918781 0.014191 0.542924 0.839625
-38.559994 17.081711 -36.160515 0.839625 -0.542955 0.014222
-38.561588 17.447557 -36.158920 0.815760 0.578295 0.008057
-39.208008 16.997267 -36.806404 0.482620 -0.762658 -0.430555
-44.797997 16.973522 -29.920374 0.009369 -0.575701 0.817591
-45.852345 16.947214 -31.066093 -0.111240 -0.987762 0.109226
-40.986870 17.108116 -38.496037 -0.095096 -0.491775 -0.865505
-44.898914 17.424698 -34.357735 -0.568438 0.660360 -0.490646
-40.984230 17.473866 -38.489151 -0.058748 0.595019 -0.801538
-46.628387 17.342325 -31.707214 -0.715140 0.154332 0.681692
-45.445484 17.423811 -30.566795 -0.432569 0.760521 0.484207
-43.226807 16.996384 -36.060646 -0.287484 -0.914457 -0.284707
-44.897850 16.996384 -34.356663 -0.547288 -0.687521 -0.477218
-40.589046 16.997267 -38.186371 0.396039 -0.713553 -0.577868
-40.208191 17.078754 -37.848022 0.689138 -0.160680 -0.706565
-40.587971 17.363216 -38.187439 0.638356 0.097201 -0.763573
-46.825989 17.423811 -31.946241 -0.807459 0.589740 0.013489
-46.826523 17.057865 -31.945713 -0.872982 -0.487075 -0.024598
-46.631577 16.976477 -31.713591 -0.573168 -0.708792 0.411176
-40.206070 17.444601 -37.841652 0.559557 0.594775 -0.577136
3 0 1 2
3 3 4 5
3 6 7 8
3 9 0 10
3 6 11 12
3 6 13 11
3 13 5 11
3 13 3 5
3 13 14 3
3 10 0 2
3 14 1 3
3 6 15 13
3 16 9 10
3 15 14 13
3 17 9 16
3 17 12 18
3 12 11 18
3 11 5 18
3 5 4 18
3 8 10 2
3 17 7 12
3 19 8 2
3 8 7 16
3 19 15 8
3 0 4 1
3 3 1 4
3 6 12 7
3 4 9 18
3 6 8 15
3 15 19 14
3 17 18 9
3 8 16 10
3 17 16 7
3 19 1 14
3 4 0 9
3 19 2 1
