ply
format ascii 1.0
comment Created by Blender 2.77 (sub 0) - www.blender.org, source file: ''
element vertex 17
property float x
property float y
property float z
property float nx
property float ny
property float nz
element face 30
property list uchar uint vertex_indices
end_header
-79.047440 9.150982 13.702505 0.187994 0.954314 -0.232215
-78.531830 6.455286 14.440216 0.989380 0.005127 0.145177
-78.912621 6.323825 13.591805 0.655263 -0.148717 -0.740593
-80.558281 6.794645 14.194266 -0.931059 0.292489 -0.218055
-80.177483 6.926103 15.042677 -0.598346 0.440779 0.669057
-79.753052 6.426403 13.332973 -0.245979 -0.025819 -0.968902
-79.337059 6.823528 15.301519 0.303598 0.321909 0.896756
-81.639603 -1.457726 16.645891 -0.732505 -0.419660 0.535966
-81.742340 -1.523124 16.294010 -0.859523 -0.501083 0.100345
-81.350182 -1.457725 16.880173 -0.371685 -0.419630 0.828059
-81.619133 -1.628943 15.958924 -0.705954 -0.632496 -0.318644
-81.317062 -1.734761 15.768639 -0.332224 -0.763482 -0.553758
-80.682541 -1.628941 16.717081 0.458724 -0.629749 0.626850
-80.559341 -1.734759 16.382004 0.612049 -0.762993 0.207739
-80.951500 -1.800160 15.795828 0.123081 -0.845485 -0.519608
-80.984619 -1.523123 16.907370 0.084262 -0.499405 0.862239
-80.662071 -1.800158 16.030113 0.484542 -0.844447 -0.228156
3 0 1 2
3 0 3 4
3 0 5 3
3 0 4 6
3 0 6 1
3 0 2 5
3 7 3 8
3 7 9 4
3 10 5 11
3 12 13 1
3 14 5 2
3 9 6 4
3 12 6 15
3 10 8 3
3 16 1 13
3 16 14 2
3 8 10 7
3 12 15 9
3 9 7 10
3 10 12 9
3 7 4 3
3 10 3 5
3 14 11 5
3 9 15 6
3 12 1 6
3 16 2 1
3 14 13 12
3 10 11 14
3 16 13 14
3 10 14 12
