ply
format ascii 1.0
comment Created by Blender 2.77 (sub 0) - www.blender.org, source file: 'WoodFort.blend'
element vertex 20
property float x
property float y
property float z
property float nx
property float ny
property float nz
element face 36
property list uchar uint vertex_indices
end_header
49.345921 17.174433 26.842327 0.607013 0.538285 0.584582
49.344410 16.879786 18.016695 0.607013 -0.538285 -0.584552
49.344410 17.298155 18.018950 0.582781 0.577929 -0.571276
49.345921 16.756063 26.840076 0.585284 -0.574969 0.571673
46.788151 17.177814 26.870871 -0.024171 0.134587 0.990600
46.781391 16.759443 26.868614 -0.126591 -0.708884 0.693838
48.429482 16.783218 18.018198 0.041322 -0.757469 -0.651540
47.790237 16.725979 26.775465 -0.001648 -0.984344 0.176092
45.976883 16.909983 18.081291 -0.685415 -0.480728 -0.546861
46.136875 17.272015 23.773746 -0.753349 0.655232 0.055666
45.983624 17.328239 18.084293 -0.608325 0.594775 -0.525498
48.430992 17.271000 26.840828 0.041047 0.755547 0.653768
46.115093 16.782207 21.387249 -0.436110 -0.899869 0.001923
46.138386 16.782207 23.773750 -0.726188 -0.685659 0.049532
46.991714 17.294773 17.991901 -0.012329 0.578784 -0.815363
46.985710 16.876404 17.988899 -0.012513 -0.140843 -0.989929
46.477158 16.783218 18.018955 -0.137547 -0.714377 -0.686087
46.477161 17.201704 18.017441 -0.088717 0.084078 -0.992492
46.479408 17.271000 26.841576 -0.560717 0.589618 0.581286
46.479404 16.852516 26.842327 -0.642506 -0.472762 0.603015
3 0 1 2
3 3 4 5
3 6 3 7
3 8 9 10
3 11 4 0
3 8 12 13
3 14 1 15
3 8 16 12
3 16 7 12
3 16 6 7
3 16 15 6
3 2 11 0
3 15 1 6
3 8 17 16
3 18 4 11
3 17 15 16
3 19 4 18
3 19 13 5
3 13 12 5
3 12 7 5
3 7 3 5
3 10 11 2
3 19 9 13
3 14 10 2
3 10 9 18
3 14 17 10
3 0 3 1
3 3 0 4
3 6 1 3
3 8 13 9
3 14 2 1
3 8 10 17
3 17 14 15
3 19 5 4
3 10 18 11
3 19 18 9
