ply
format ascii 1.0
comment Created by Blender 2.77 (sub 0) - www.blender.org, source file: 'WoodFort.blend'
element vertex 24
property float x
property float y
property float z
property float nx
property float ny
property float nz
element face 44
property list uchar uint vertex_indices
end_header
-41.451344 30.009350 -32.983181 0.722861 0.004089 0.690939
-45.417030 27.587940 -28.868786 -0.094119 0.340342 0.935545
-45.359123 27.296091 -28.925617 0.064699 -0.355602 0.932371
-49.157486 30.185917 -40.273968 -0.442152 0.783471 -0.436628
-45.338943 27.040203 -44.240189 -0.060579 -0.366314 -0.928495
-49.217518 29.896135 -40.211826 -0.721702 -0.000305 -0.692190
-53.009499 27.438862 -36.238171 -0.937254 0.324900 0.126286
-52.950546 27.146910 -36.295013 -0.931211 -0.363598 0.024567
-37.662014 27.305159 -36.958435 0.940794 0.312235 -0.131809
-37.722023 27.015377 -36.896282 0.930418 -0.366283 0.010041
-41.509769 30.301201 -32.925827 0.451888 0.791406 0.411603
-52.545792 27.443001 -36.733746 -0.727683 0.004212 -0.685873
-45.431896 26.485374 -43.827473 -0.061129 -0.802911 -0.592914
-38.209106 26.380831 -36.705585 0.479263 -0.858425 -0.182653
-38.532063 26.380831 -36.908512 0.009766 -0.999725 -0.020661
-40.323147 26.380436 -34.570305 0.000366 -0.999969 0.000214
-44.785995 26.379749 -30.062843 0.333262 -0.847255 0.413556
-38.217075 26.380831 -36.591404 0.536454 -0.771233 0.342540
-52.405560 26.687263 -36.872910 -0.725028 -0.140324 -0.674215
-45.369228 26.485374 -29.572048 -0.079958 -0.797601 0.597827
-52.530926 26.512863 -36.662571 -0.500626 -0.852321 0.151311
-52.530396 26.512863 -36.674797 -0.583117 -0.742607 -0.329356
-45.530693 26.527346 -43.756294 -0.648427 -0.400769 -0.647206
-45.278919 27.329985 -44.302319 0.093387 0.319285 -0.943022
3 0 1 2
3 3 4 5
3 2 6 7
3 4 8 9
3 10 6 1
3 11 6 3
3 12 9 13
3 14 15 16
3 16 12 14
3 15 17 16
3 15 13 17
3 11 18 6
3 18 7 6
3 13 9 17
3 19 7 20
3 21 20 7
3 12 22 4
3 18 21 7
3 13 14 12
3 13 15 14
3 19 16 2
3 16 17 2
3 17 9 2
3 9 0 2
3 9 8 0
3 8 10 0
3 4 11 5
3 4 18 11
3 8 3 10
3 4 21 18
3 16 20 21
3 4 22 21
3 22 12 21
3 16 19 20
3 5 11 3
3 0 10 1
3 3 23 4
3 2 1 6
3 4 23 8
3 10 3 6
3 12 4 9
3 16 21 12
3 19 2 7
3 8 23 3
