ply
format ascii 1.0
comment Created by Blender 2.77 (sub 0) - www.blender.org, source file: ''
element vertex 8
property float x
property float y
property float z
property float nx
property float ny
property float nz
element face 12
property list uchar uint vertex_indices
end_header
39.005894 -2.259523 17.919716 -0.577319 -0.577349 0.577349
39.643978 -2.259523 17.306295 0.577349 -0.577349 -0.577319
39.643978 -2.259523 17.919710 0.577349 -0.577349 0.577319
39.643974 28.565550 17.306295 0.577349 0.577349 -0.577319
39.643974 28.565550 17.919710 0.577349 0.577349 0.577319
39.005886 28.565550 17.919716 -0.577319 0.577349 0.577349
39.005882 28.565550 17.306290 -0.577349 0.577349 -0.577349
39.005886 -2.259523 17.306290 -0.577349 -0.577349 -0.577349
3 0 1 2
3 2 3 4
3 5 3 6
3 0 7 1
3 1 3 2
3 1 6 3
3 4 3 5
3 0 4 5
3 7 5 6
3 1 7 6
3 0 2 4
3 7 0 5
