ply
format ascii 1.0
comment Created by Blender 2.77 (sub 0) - www.blender.org, source file: ''
element vertex 20
property float x
property float y
property float z
property float nx
property float ny
property float nz
element face 36
property list uchar uint vertex_indices
end_header
-77.003174 4.136425 -15.448735 0.492019 0.181829 -0.851375
-71.512756 -0.731196 -10.856412 0.999542 -0.029084 0.005005
-71.657196 -1.145690 -11.189122 0.875240 -0.393597 -0.281075
-77.321747 4.807089 -14.915197 0.085360 0.968841 -0.232459
-71.635605 -0.475025 -10.384553 0.892300 0.195654 0.406812
-77.664978 4.807088 -14.484432 -0.207495 0.968841 0.135136
-72.411346 -0.731196 -9.728649 0.228126 -0.029084 0.973174
-71.978851 -0.475026 -9.953786 0.595813 0.195654 0.778893
-78.113892 4.136425 -14.054749 -0.719993 0.181829 0.669729
-72.767914 -1.145689 -9.795135 -0.078494 -0.393597 0.915922
-78.258331 3.721931 -14.387459 -0.978942 -0.167638 0.116398
-72.789490 -1.816351 -10.599705 -0.097018 -0.969481 0.225043
-72.912354 -1.560181 -10.127844 -0.202521 -0.749504 0.630207
-72.446274 -1.816352 -11.030471 0.197668 -0.969481 -0.144841
-77.359741 3.721931 -15.515220 -0.105136 -0.167638 -0.980193
-72.013763 -1.560182 -11.255606 0.569048 -0.749504 -0.338145
-77.198898 4.550919 -15.387054 0.073122 0.674032 -0.735038
-78.097473 4.550919 -14.259297 -0.700125 0.674032 0.235450
-78.135468 3.465762 -14.859318 -0.868526 -0.317209 -0.380749
-77.792236 3.465762 -15.290083 -0.565111 -0.317209 -0.761559
3 0 1 2
3 1 3 4
3 5 6 7
3 6 8 9
3 10 11 12
3 13 14 15
3 0 16 1
3 1 16 3
3 5 17 6
3 6 17 8
3 10 18 11
3 0 14 16
3 10 8 17
3 16 14 19
3 13 19 14
3 1 4 7
3 14 2 15
3 13 6 12
3 16 17 3
3 17 5 3
3 7 3 5
3 13 18 19
3 9 12 6
3 18 16 19
3 13 15 2
3 12 11 13
3 18 10 17
3 6 1 7
3 13 2 1
3 10 9 8
3 14 0 2
3 13 1 6
3 7 4 3
3 13 11 18
3 18 17 16
3 10 12 9
