ply
format ascii 1.0
comment Created by Blender 2.77 (sub 0) - www.blender.org, source file: 'WoodFort.blend'
element vertex 8
property float x
property float y
property float z
property float nx
property float ny
property float nz
element face 12
property list uchar uint vertex_indices
end_header
43.111122 -2.353431 22.028755 -0.578417 -0.592944 -0.560167
45.444279 17.108067 21.275320 0.581988 0.536180 -0.611377
45.444286 -2.353429 22.028753 0.578417 -0.592944 -0.560167
43.111122 17.140968 21.432316 -0.574145 0.623890 0.530168
43.111126 17.127110 21.274570 -0.577837 0.541093 -0.610950
45.444286 17.121813 21.433067 0.578661 0.618610 0.531449
43.111126 -2.339684 22.786333 -0.574694 -0.552782 0.603442
45.444286 -2.339684 22.786333 0.574694 -0.552782 0.603442
3 0 1 2
3 0 3 4
3 5 2 1
3 4 5 1
3 6 5 3
3 6 2 7
3 0 4 1
3 0 6 3
3 5 7 2
3 4 3 5
3 6 7 5
3 6 0 2
