ply
format ascii 1.0
comment Created by Blender 2.77 (sub 0) - www.blender.org, source file: 'WoodFort.blend'
element vertex 20
property float x
property float y
property float z
property float nx
property float ny
property float nz
element face 36
property list uchar uint vertex_indices
end_header
40.028934 17.174431 -31.803625 -0.607013 0.538285 -0.584582
40.030445 16.879784 -22.977993 -0.607013 -0.538285 0.584552
40.030445 17.298155 -22.980247 -0.582781 0.577929 0.571276
40.028934 16.756063 -31.801374 -0.585284 -0.574969 -0.571673
42.586700 17.177813 -31.832170 0.024171 0.134587 -0.990600
42.593464 16.759441 -31.829916 0.126621 -0.708884 -0.693838
40.945374 16.783216 -22.979498 -0.041322 -0.757469 0.651540
41.584614 16.725977 -31.736765 0.001648 -0.984375 -0.176061
43.397972 16.909981 -23.042593 0.685415 -0.480697 0.546861
43.237980 17.272015 -28.735046 0.753349 0.655232 -0.055666
43.391232 17.328239 -23.045593 0.608325 0.594775 0.525498
40.943863 17.270998 -31.802128 -0.041047 0.755547 -0.653768
43.259758 16.782207 -26.348549 0.436140 -0.899838 -0.001923
43.236465 16.782207 -28.735050 0.726188 -0.685659 -0.049532
42.383141 17.294773 -22.953201 0.012329 0.578784 0.815363
42.389145 16.876402 -22.950199 0.012513 -0.140843 0.989929
42.897701 16.783216 -22.980255 0.137547 -0.714377 0.686087
42.897694 17.201704 -22.978741 0.088717 0.084078 0.992492
42.895443 17.270998 -31.802876 0.560717 0.589618 -0.581286
42.895447 16.852514 -31.803627 0.642506 -0.472762 -0.603015
3 0 1 2
3 3 4 5
3 6 3 7
3 8 9 10
3 11 4 0
3 8 12 13
3 14 1 15
3 8 16 12
3 16 7 12
3 16 6 7
3 16 15 6
3 2 11 0
3 15 1 6
3 8 17 16
3 18 4 11
3 17 15 16
3 19 4 18
3 19 13 5
3 13 12 5
3 12 7 5
3 7 3 5
3 10 11 2
3 19 9 13
3 14 10 2
3 10 9 18
3 14 17 10
3 0 3 1
3 3 0 4
3 6 1 3
3 8 13 9
3 14 2 1
3 8 10 17
3 17 14 15
3 19 5 4
3 10 18 11
3 19 18 9
