ply
format ascii 1.0
comment Created by Blender 2.77 (sub 0) - www.blender.org, source file: ''
element vertex 17
property float x
property float y
property float z
property float nx
property float ny
property float nz
element face 30
property list uchar uint vertex_indices
end_header
-66.456741 -1.946744 26.926771 0.485153 -0.843745 -0.229530
-64.265869 6.566381 25.318111 0.989227 0.004913 0.146153
-66.354012 -1.881345 27.278652 0.612079 -0.763176 0.207068
-67.413803 -1.775527 26.855581 -0.706717 -0.630696 -0.320505
-67.537010 -1.669708 27.190659 -0.860256 -0.500046 0.099277
-66.292320 6.905741 25.072172 -0.930631 0.294107 -0.217627
-66.477211 -1.775526 27.613737 0.458174 -0.630848 0.626148
-65.071098 6.934623 26.179411 0.303354 0.320139 0.897458
-66.779289 -1.669708 27.804024 0.083682 -0.500870 0.861446
-67.144852 -1.604310 27.776829 -0.371990 -0.420759 0.827357
-65.911522 7.037198 25.920578 -0.598102 0.440077 0.669729
-65.487091 6.537498 24.210878 -0.245338 -0.022889 -0.969146
-67.111732 -1.881345 26.665297 -0.332286 -0.761589 -0.556322
-66.746162 -1.946744 26.692490 0.123692 -0.843989 -0.521867
-64.646660 6.434920 24.469711 0.655873 -0.146733 -0.740440
-67.434273 -1.604310 27.542547 -0.732871 -0.419752 0.535386
-64.781479 9.262077 24.580410 0.187994 0.954314 -0.232215
3 0 1 2
3 3 4 5
3 6 7 8
3 9 7 10
3 6 2 1
3 3 11 12
3 13 11 14
3 15 9 10
3 0 13 14
3 16 1 14
3 16 5 10
3 16 11 5
3 16 10 7
3 16 7 1
3 16 14 11
3 15 5 4
3 0 14 1
3 6 1 7
3 9 8 7
3 3 5 11
3 13 12 11
3 6 8 2
3 13 8 4
3 15 10 5
3 15 4 8
3 0 2 8
3 9 15 8
3 3 12 4
3 12 13 4
3 13 0 8
