ply
format ascii 1.0
comment Created by Blender 2.77 (sub 0) - www.blender.org, source file: ''
element vertex 24
property float x
property float y
property float z
property float nx
property float ny
property float nz
element face 44
property list uchar uint vertex_indices
end_header
39.722309 28.560608 -32.901546 -0.708029 -0.322581 -0.628163
50.302696 28.723875 -33.140423 0.579455 0.313517 -0.752251
50.301201 28.390011 -33.058540 0.644490 -0.328471 -0.690451
50.537071 28.267982 -22.058239 0.702536 -0.332957 0.628895
39.959690 28.570978 -21.778805 -0.577654 0.302194 0.758232
39.958172 28.239592 -21.865189 -0.667837 -0.332499 0.665853
50.325226 28.728609 -32.462105 0.999542 0.003510 -0.029389
50.432652 31.865314 -27.562895 0.614246 0.789087 -0.001679
50.310966 27.633499 -22.415798 0.478561 -0.782098 0.399060
40.167751 27.513948 -22.344450 -0.222175 -0.839259 0.496231
40.539604 27.513948 -22.429325 0.008789 -0.999634 0.024628
40.152733 27.513494 -25.349174 -0.000488 -0.999969 0.000122
40.121185 27.512711 -31.692142 -0.545579 -0.835505 -0.065004
40.092648 27.513948 -22.430824 -0.632954 -0.759697 0.148930
50.324474 27.864372 -32.264542 0.991607 -0.123600 -0.037812
40.186546 27.633501 -32.451591 -0.388256 -0.770287 -0.505844
50.264389 27.664934 -32.501923 0.257607 -0.832972 -0.489639
50.272659 27.664934 -32.492905 0.653096 -0.733177 -0.189398
50.330498 27.681498 -22.535990 0.933988 -0.357250 -0.000519
39.828220 31.663399 -27.269196 -0.999725 0.003784 0.022523
39.828979 31.997150 -27.351067 -0.602588 0.797418 0.030946
50.431156 31.533928 -27.649286 0.999756 -0.000214 -0.020844
39.723064 28.894356 -32.982674 -0.600971 0.329569 -0.728141
50.538563 28.599369 -21.971863 0.606311 0.309671 0.732414
3 0 1 2
3 3 4 5
3 6 1 7
3 8 5 9
3 10 11 12
3 12 8 10
3 11 13 12
3 11 9 13
3 6 14 1
3 14 2 1
3 9 5 13
3 15 2 16
3 17 16 2
3 8 18 3
3 14 17 2
3 9 10 8
3 9 11 10
3 15 12 0
3 12 13 0
3 13 5 0
3 5 19 0
3 4 19 5
3 20 19 4
3 3 6 21
3 3 14 6
3 3 17 14
3 12 16 17
3 3 18 17
3 18 8 17
3 12 15 16
3 21 6 7
3 0 22 1
3 3 23 4
3 8 3 5
3 12 17 8
3 15 0 2
3 22 7 1
3 19 22 0
3 7 4 23
3 21 23 3
3 22 20 7
3 19 20 22
3 7 20 4
3 21 7 23
