ply
format ascii 1.0
comment Created by Blender 2.77 (sub 0) - www.blender.org, source file: ''
element vertex 17
property float x
property float y
property float z
property float nx
property float ny
property float nz
element face 30
property list uchar uint vertex_indices
end_header
-47.529171 16.812506 32.781937 -0.510178 -0.715873 -0.476669
-45.916557 16.839798 35.508945 -0.059511 -0.996948 0.049928
-48.351944 16.896847 33.621712 -0.836695 -0.544267 0.060854
-45.529873 16.812405 30.800705 -0.010834 -0.583697 -0.811853
-43.286762 16.839798 32.879150 0.578631 -0.552385 -0.600024
-43.118912 16.838221 33.047009 0.817530 -0.575854 0.000122
-47.531292 17.178350 32.779819 -0.705710 0.085635 -0.703269
-48.351418 17.262794 33.622246 -0.818354 0.572192 0.053529
-46.254910 17.262793 31.525736 -0.457625 0.740104 -0.492721
-45.531467 17.178350 30.799110 -0.008087 0.541887 -0.840388
-43.285172 17.268114 32.880745 0.492416 0.703940 -0.511795
-45.748711 16.838223 35.676800 0.046113 -0.583117 0.811060
-45.747646 17.266539 35.677856 0.049257 0.580676 0.812616
-46.245884 16.812405 31.517775 -0.002380 -0.999969 -0.002625
-46.790855 16.812405 32.088238 0.002106 -0.999969 0.002197
-45.914963 17.268114 35.510540 -0.019318 0.999481 0.025513
-43.117851 17.266537 33.048061 0.818598 0.574297 0.001862
3 0 1 2
3 3 4 5
3 6 7 8
3 9 8 10
3 8 9 6
3 6 2 7
3 1 0 11
3 2 1 11
3 2 12 7
3 13 0 3
3 0 13 14
3 11 0 14
3 13 3 14
3 9 4 3
3 15 7 12
3 14 5 11
3 4 16 5
3 16 15 12
3 5 12 11
3 6 0 2
3 2 11 12
3 9 10 4
3 14 3 5
3 4 10 16
3 16 10 15
3 15 8 7
3 0 9 3
3 5 16 12
3 15 10 8
3 0 6 9
