ply
format ascii 1.0
comment Created by Blender 2.77 (sub 0) - www.blender.org, source file: 'WoodFort.blend'
element vertex 12
property float x
property float y
property float z
property float nx
property float ny
property float nz
element face 21
property list uchar uint vertex_indices
end_header
40.801765 16.615812 -21.838902 0.575671 -0.577319 0.578997
40.833309 17.034294 -33.001457 0.701590 -0.271523 -0.658773
40.801765 17.034296 -21.838902 0.732322 -0.284829 0.618488
39.789158 20.071665 -21.841904 -0.578967 0.577349 0.575671
40.833309 20.071663 -33.001457 0.578997 0.577349 -0.575671
39.819962 20.071663 -33.004456 -0.575701 0.577319 -0.578997
39.819962 16.615810 -33.004456 -0.229316 -0.719596 -0.655385
39.789154 16.615812 -21.841904 -0.275338 -0.853328 0.442671
39.789154 17.034296 -21.841904 -0.709098 0.000000 0.705069
40.833309 16.615810 -33.001457 0.578997 -0.577349 -0.575671
39.819962 17.034294 -33.004456 0.002930 0.000000 -0.999969
40.801765 20.071665 -21.838902 0.575671 0.577319 0.578997
3 0 1 2
3 3 4 5
3 6 7 8
3 9 10 1
3 7 9 0
3 11 1 4
3 1 5 4
3 1 7 6
3 2 3 8
3 2 8 7
3 0 9 1
3 3 11 4
3 7 0 2
3 8 3 5
3 5 6 8
3 9 6 10
3 7 6 9
3 11 2 1
3 1 6 5
3 1 2 7
3 2 11 3
