ply
format ascii 1.0
comment Created by Blender 2.77 (sub 0) - www.blender.org, source file: 'WoodFort.blend'
element vertex 110
property float x
property float y
property float z
property float nx
property float ny
property float nz
element face 216
property list uchar uint vertex_indices
end_header
-66.350586 6.062622 26.488178 0.343730 0.226386 0.911344
-66.513756 5.898129 26.558575 0.168889 0.194494 0.966216
-66.388931 5.867939 26.535561 0.328349 0.155034 0.931730
-65.866425 6.542372 25.712715 0.928129 0.364788 -0.073763
-65.941574 5.788007 25.690861 0.937254 -0.186712 -0.294351
-65.969147 6.476974 25.360817 0.797845 0.247261 -0.549760
-72.325348 6.861260 24.757668 -0.599384 0.357921 0.715964
-71.318436 7.239825 25.371498 -0.523637 0.294382 0.799432
-71.280083 7.434509 25.324116 -0.533097 0.364666 0.763390
-66.291695 6.754009 26.238068 0.457533 0.468520 0.755730
-66.475403 6.092813 26.511192 0.193548 0.250710 0.948485
-67.288437 7.360809 25.069971 0.323252 0.716575 -0.618030
-66.258575 6.476973 25.126535 0.506088 0.152837 -0.848811
-72.567375 6.828502 22.876755 0.219794 0.257179 -0.941008
-70.578316 7.597858 24.170050 0.216865 0.753929 -0.620075
-70.943886 7.663257 24.142857 0.131413 0.851283 -0.507950
-66.017853 5.764908 25.534201 0.818049 -0.235878 -0.524522
-66.160416 5.754755 25.377085 0.610401 -0.257027 -0.749199
-68.964920 6.599223 26.466806 -0.128788 0.252541 0.958953
-69.408691 -1.035618 28.281069 -0.158818 -0.506699 0.847346
-67.695656 6.793822 26.498005 -0.017365 0.233955 0.972076
-72.932938 6.893901 22.849556 -0.141087 0.396283 -0.907193
-70.075325 7.316534 25.896727 -0.290323 0.414716 0.862362
-69.095673 6.817004 26.377447 -0.220588 0.314768 0.923154
-68.922935 7.548066 26.140995 -0.146672 0.571825 0.807123
-69.043121 -1.101018 28.308262 -0.094821 -0.499466 0.861110
-67.855499 -1.629198 27.099306 0.212561 -0.861049 -0.461898
-67.463348 -1.563798 27.685486 0.623646 -0.754082 0.205908
-71.369156 7.874893 24.668219 -0.097873 0.973876 -0.204749
-73.358215 7.105537 23.374928 -0.705161 0.677175 -0.210089
-73.255478 7.170936 23.726812 -0.655568 0.703299 0.274819
-71.266426 7.940293 25.020094 -0.324076 0.902158 0.284677
-73.418503 6.556748 23.917131 -0.798944 0.324015 0.506607
-73.275940 6.566902 24.074266 -0.659413 0.342723 0.669088
-66.999016 7.360809 25.304262 0.431928 0.797601 -0.420972
-72.363701 6.666578 24.805050 -0.596026 0.293497 0.747368
-72.664116 -0.623667 27.338575 -0.491775 -0.442671 0.749779
-66.896278 7.426208 25.656143 0.475845 0.859066 -0.188482
-65.989624 6.648190 26.047792 0.783715 0.473403 0.402051
-71.096718 7.424355 25.430834 -0.418775 0.345378 0.839839
-70.977005 7.940293 25.254385 -0.227851 0.860042 0.456465
-65.981956 5.695471 26.156328 0.921445 -0.097446 0.376049
-65.947479 5.648250 25.990198 0.977172 -0.167791 0.130192
-66.081596 5.758103 26.333042 0.775872 -0.006775 0.630818
-66.233635 5.820717 26.467245 0.556993 0.083865 0.826228
-67.586548 -1.457980 28.020563 0.467849 -0.620960 0.628864
-69.134026 6.622322 26.424829 -0.220618 0.267861 0.937834
-70.573563 -0.830707 28.180096 -0.236579 -0.465957 0.852565
-66.195282 6.015401 26.419853 0.571032 0.162725 0.804621
-72.663475 6.181010 22.984406 0.261116 -0.236885 -0.935759
-66.382149 5.570225 25.317747 0.390210 -0.292550 -0.872982
-72.701828 5.986327 23.031792 0.253304 -0.279031 -0.926237
-72.832588 6.204108 22.942413 0.091433 -0.205206 -0.974425
-73.235016 6.999719 23.039850 -0.526872 0.550035 -0.647938
-73.240623 6.306256 23.031855 -0.549852 -0.054140 -0.833491
-73.393135 6.368870 23.165676 -0.770623 0.031404 -0.636494
-73.085793 6.259035 22.963150 -0.324656 -0.126835 -0.937254
-72.960976 6.228844 22.940136 -0.112247 -0.170965 -0.978851
-66.198769 5.560072 25.424467 0.599933 -0.302530 -0.740623
-65.950966 5.618059 25.863335 0.972900 -0.217627 -0.078005
-73.533150 6.338967 23.807854 -0.925932 0.247536 0.285226
-74.893463 -0.687539 25.271498 -0.869686 -0.484420 0.094607
-74.790726 -0.622140 25.623379 -0.742637 -0.404584 0.533647
-66.056213 5.570225 25.581583 0.807062 -0.289376 -0.514664
-65.979935 5.593323 25.738243 0.924070 -0.257363 -0.282540
-67.566078 -1.629197 27.333588 0.494644 -0.835627 -0.238777
-73.492294 6.431502 23.342764 -0.915250 0.127567 -0.382122
-70.242821 6.710393 26.109203 -0.326395 0.324473 0.887753
-73.527252 6.478724 23.508512 -0.970977 0.194617 -0.138829
-73.523758 6.508914 23.635374 -0.964599 0.252998 0.074099
-73.494789 6.533650 23.760471 -0.916135 0.295969 0.270272
-67.567245 6.769068 26.500246 0.072542 0.217231 0.973388
-67.528893 6.963750 26.452864 0.108982 0.288278 0.951292
-71.135071 7.229672 25.478216 -0.451613 0.291513 0.843226
-71.245956 7.769075 24.333141 0.013123 0.931730 -0.362835
-67.888618 -1.352161 28.210838 0.135868 -0.517258 0.844935
-70.208000 -0.896106 28.207300 -0.187994 -0.954222 0.232551
-71.654343 -0.698766 27.847366 -0.371014 -0.454482 0.809778
-72.298546 -0.689065 27.365759 -0.187994 -0.954283 0.232246
-67.657310 6.988504 26.450632 -0.011322 0.310160 0.950591
-67.687119 7.703244 26.154320 0.084323 0.882595 0.462447
-68.079277 7.637844 25.568150 0.155095 0.960082 -0.232643
-73.124146 6.064352 23.010532 -0.331523 -0.164190 -0.929044
-72.999321 6.034161 22.987514 -0.125584 -0.214972 -0.968505
-74.468185 -0.899176 24.746132 -0.332133 -0.751946 -0.569414
-73.456856 6.362065 23.964514 -0.808466 0.281137 0.517014
-73.314293 6.372219 24.121639 -0.668203 0.292459 0.684042
-67.321556 7.637845 26.181515 0.244270 0.836634 0.490219
-73.859848 -0.615768 26.403105 -0.561418 -0.466323 0.683584
-73.570427 -0.615768 26.637386 -0.550371 -0.465499 0.693075
-69.677643 -1.206835 27.359821 -0.187994 -0.954314 0.232246
-67.019485 7.532026 25.991228 0.460463 0.880215 0.114658
-66.343796 5.764908 25.270365 0.396863 -0.257942 -0.880856
-72.870949 6.009426 22.989796 0.084567 -0.255379 -0.963103
-74.102615 -0.964575 24.773335 -0.001923 -0.842586 -0.538499
-73.530655 6.236819 23.390144 -0.923399 0.087619 -0.373669
-73.565598 6.284040 23.555876 -0.978912 0.157964 -0.129276
-73.431488 6.174187 23.213051 -0.777795 -0.002869 -0.628498
-73.278969 6.111573 23.079227 -0.558946 -0.093753 -0.823847
-74.770256 -0.793357 24.936420 -0.713981 -0.618030 -0.328959
-73.562119 6.314231 23.682762 -0.974853 0.207648 0.080630
-65.943604 5.890154 26.108955 0.934324 -0.018372 0.355907
-65.909126 5.842933 25.942835 0.988830 -0.095218 0.114536
-66.043236 5.952786 26.285660 0.788812 0.069613 0.610614
-68.926567 6.793907 26.419424 -0.125614 0.296487 0.946715
-65.912613 5.812742 25.815952 0.984497 -0.145756 -0.097476
-67.653999 7.426208 25.042778 0.184515 0.918149 -0.350597
-67.956078 7.532026 25.233072 0.161626 0.952361 -0.258492
-70.281166 6.515710 26.156586 -0.340953 0.280770 0.897153
-67.976540 7.703244 25.920031 0.143468 0.971831 -0.186895
3 0 1 2
3 3 4 5
3 6 7 8
3 0 9 10
3 11 12 13
3 14 11 13
3 15 14 13
3 5 4 16
3 5 16 17
3 18 19 20
3 15 13 21
3 22 23 24
3 25 26 27
3 28 29 30
3 31 28 30
3 30 32 33
3 30 33 6
3 31 30 6
3 8 31 6
3 34 12 11
3 35 36 7
3 37 38 3
3 39 22 40
3 41 27 42
3 43 44 45
3 41 43 45
3 18 46 47
3 9 48 38
3 49 50 51
3 13 49 52
3 53 54 55
3 56 21 57
3 58 26 50
3 59 42 27
3 60 61 62
3 63 64 65
3 63 65 58
3 21 56 54
3 53 66 29
3 67 46 23
3 29 66 68
3 29 68 69
3 21 52 57
3 32 30 70
3 40 8 39
3 71 10 72
3 73 7 36
3 74 29 28
3 1 75 2
3 76 47 77
3 76 77 78
3 64 27 65
3 1 71 25
3 24 79 80
3 45 75 25
3 27 45 25
3 76 78 25
3 47 76 25
3 19 47 25
3 20 25 71
3 21 74 15
3 65 27 26
3 81 74 28
3 82 83 84
3 85 60 62
3 86 85 62
3 72 9 87
3 87 79 72
3 35 88 89
3 40 22 24
3 35 33 86
3 40 24 80
3 77 36 89
3 78 77 89
3 25 78 89
3 90 25 89
3 26 90 89
3 91 87 9
3 92 13 12
3 38 91 9
3 93 51 94
3 95 61 96
3 26 89 94
3 44 75 45
3 97 98 99
3 95 97 99
3 84 94 99
3 98 84 99
3 100 96 61
3 93 84 83
3 88 62 61
3 89 88 61
3 94 89 61
3 99 94 61
3 3 101 102
3 38 48 103
3 24 23 104
3 38 103 101
3 29 70 30
3 3 102 105
3 12 17 92
3 86 88 35
3 106 14 15
3 106 11 14
3 107 15 74
3 107 106 15
3 108 47 46
3 67 73 108
3 80 109 31
3 40 80 31
3 108 36 77
3 81 31 109
3 104 20 79
3 37 5 34
3 0 44 48
3 100 70 69
3 109 34 107
3 105 42 59
3 20 72 79
3 93 57 52
3 97 54 98
3 18 23 46
3 64 105 59
3 83 56 57
3 63 4 64
3 7 39 8
3 58 16 63
3 100 68 96
3 102 41 42
3 56 98 54
3 51 52 49
3 48 43 103
3 85 33 32
3 95 55 97
3 85 70 60
3 96 66 95
3 58 92 17
3 101 43 41
3 51 26 94
3 0 10 1
3 3 105 4
3 6 35 7
3 18 47 19
3 22 67 23
3 25 90 26
3 34 5 12
3 35 89 36
3 37 91 38
3 39 67 22
3 41 45 27
3 9 0 48
3 49 92 50
3 53 21 54
3 58 65 26
3 60 100 61
3 53 55 66
3 67 108 46
3 21 13 52
3 40 31 8
3 71 1 10
3 74 53 29
3 1 25 75
3 64 59 27
3 24 104 79
3 20 19 25
3 21 53 74
3 81 107 74
3 72 10 9
3 87 80 79
3 35 6 33
3 92 49 13
3 95 99 61
3 44 2 75
3 98 82 84
3 93 94 84
3 3 38 101
3 29 69 70
3 12 5 17
3 86 62 88
3 108 77 47
3 67 39 73
3 108 73 36
3 81 28 31
3 104 18 20
3 37 3 5
3 0 2 44
3 100 60 70
3 11 106 107
3 107 81 109
3 109 80 87
3 87 91 109
3 37 34 91
3 11 107 34
3 109 91 34
3 105 102 42
3 20 71 72
3 93 83 57
3 97 55 54
3 18 104 23
3 64 4 105
3 83 82 56
3 63 16 4
3 7 73 39
3 58 17 16
3 100 69 68
3 102 101 41
3 56 82 98
3 51 93 52
3 48 44 43
3 85 86 33
3 95 66 55
3 85 32 70
3 96 68 66
3 58 50 92
3 101 103 43
3 51 50 26
