ply
format ascii 1.0
comment Created by Blender 2.77 (sub 0) - www.blender.org, source file: 'WoodFort.blend'
element vertex 17
property float x
property float y
property float z
property float nx
property float ny
property float nz
element face 30
property list uchar uint vertex_indices
end_header
10.892039 -1.941327 39.210041 0.102725 -0.843745 -0.526780
10.895231 6.571797 36.492008 0.704123 0.004913 -0.710044
11.236326 -1.875928 39.335896 0.529588 -0.763176 -0.370190
10.267365 -1.770110 39.938614 -0.677053 -0.630696 0.379162
10.464187 -1.664292 40.236469 -0.429975 -0.500046 0.751671
9.495898 6.911157 37.978226 -0.726951 0.294107 0.620502
11.433157 -1.770110 39.633755 0.775872 -0.630848 0.002167
11.111547 6.940040 37.651077 0.902615 0.320139 0.287698
11.407334 -1.664292 39.989834 0.743370 -0.500870 0.443251
11.168732 -1.598893 40.268120 0.445784 -0.420759 0.790063
10.404899 7.042614 38.174480 0.184790 0.440077 0.878719
9.279584 6.542914 36.819164 -0.925962 -0.022889 -0.376873
10.293185 -1.875929 39.582539 -0.645009 -0.761620 -0.062136
10.531791 -1.941327 39.304249 -0.346965 -0.843989 -0.408979
9.986238 6.440337 36.295753 -0.207526 -0.146764 -0.967132
10.808483 -1.598893 40.362328 -0.003235 -0.419782 0.907590
9.995472 9.267494 36.469952 -0.075564 0.954314 -0.289071
3 0 1 2
3 3 4 5
3 6 7 8
3 9 7 10
3 6 2 1
3 3 11 12
3 13 11 14
3 15 9 10
3 0 13 14
3 16 1 14
3 16 5 10
3 16 11 5
3 16 10 7
3 16 7 1
3 16 14 11
3 2 9 13
3 15 5 4
3 0 14 1
3 6 1 7
3 9 8 7
3 3 5 11
3 13 12 11
3 4 3 15
3 12 13 3
3 0 2 13
3 6 8 2
3 9 15 3
3 3 13 9
3 2 8 9
3 15 10 5
