ply
format ascii 1.0
comment Created by Blender 2.77 (sub 0) - www.blender.org, source file: ''
element vertex 8
property float x
property float y
property float z
property float nx
property float ny
property float nz
element face 12
property list uchar uint vertex_indices
end_header
-53.094490 19.579844 -36.557938 -0.816462 0.577349 0.000061
-52.378483 16.850872 -35.841930 0.000061 -0.577319 0.816492
-52.378483 19.579844 -35.841930 0.000061 0.577319 0.816492
-44.486958 19.579845 -43.736633 0.816462 0.577349 -0.000061
-45.202961 19.579845 -44.452644 -0.000061 0.577319 -0.816492
-44.486954 16.850874 -43.736633 0.816462 -0.577349 -0.000061
-53.094490 16.850872 -36.557941 -0.816462 -0.577349 0.000061
-45.202961 16.850874 -44.452641 -0.000061 -0.577319 -0.816492
3 0 1 2
3 0 3 4
3 5 2 1
3 0 6 1
3 0 2 3
3 5 3 2
3 7 0 4
3 3 7 4
3 5 6 7
3 7 6 0
3 3 5 7
3 5 1 6
