ply
format ascii 1.0
comment Created by Blender 2.77 (sub 0) - www.blender.org, source file: 'WoodFort.blend'
element vertex 8
property float x
property float y
property float z
property float nx
property float ny
property float nz
element face 12
property list uchar uint vertex_indices
end_header
38.785946 20.043659 28.013109 -0.577258 0.577349 0.577380
39.798534 16.615810 28.013111 0.577410 -0.577319 0.577288
39.798534 20.043659 28.013113 0.577410 0.577319 0.577288
38.783703 16.615810 16.850559 -0.577410 -0.577319 -0.577288
39.796288 20.043661 16.850561 0.577258 0.577349 -0.577380
39.796288 16.615812 16.850559 0.577258 -0.577349 -0.577380
38.785946 16.615808 28.013109 -0.577258 -0.577349 0.577380
38.783699 20.043661 16.850557 -0.577410 0.577319 -0.577288
3 0 1 2
3 3 4 5
3 6 5 1
3 0 4 7
3 5 2 1
3 3 0 7
3 0 6 1
3 3 7 4
3 6 3 5
3 0 2 4
3 5 4 2
3 3 6 0
