ply
format ascii 1.0
comment Created by Blender 2.77 (sub 0) - www.blender.org, source file: 'WoodFort.blend'
element vertex 8
property float x
property float y
property float z
property float nx
property float ny
property float nz
element face 12
property list uchar uint vertex_indices
end_header
46.263729 -2.353431 -26.990055 0.579028 -0.589435 0.563250
43.930573 17.108067 -26.236622 -0.581988 0.536180 0.611377
43.930561 -2.353428 -26.990053 -0.579028 -0.589435 0.563250
46.263729 17.140970 -26.393616 0.577532 0.638905 -0.508133
46.263725 17.127110 -26.235870 0.577837 0.541093 0.610981
43.930561 17.121815 -26.394367 -0.582202 0.633747 -0.509262
46.263725 -2.339684 -29.033278 0.570910 -0.538041 -0.620106
43.930561 -2.339684 -29.033276 -0.570910 -0.538041 -0.620106
3 0 1 2
3 0 3 4
3 5 2 1
3 4 5 1
3 6 5 3
3 6 2 7
3 0 4 1
3 0 6 3
3 5 7 2
3 4 3 5
3 6 7 5
3 6 0 2
