ply
format ascii 1.0
comment Created by Blender 2.77 (sub 0) - www.blender.org, source file: 'WoodFort.blend'
element vertex 8
property float x
property float y
property float z
property float nx
property float ny
property float nz
element face 12
property list uchar uint vertex_indices
end_header
-50.072006 0.184182 35.123829 0.816492 -0.577319 0.001404
-50.522427 27.139400 34.671860 0.001404 0.577349 -0.816492
-50.072002 27.139400 35.123817 0.816492 0.577319 0.001373
-50.956955 27.139400 35.104870 -0.816492 0.577319 -0.001373
-50.506508 0.184182 35.556805 -0.001373 -0.577349 0.816492
-50.506500 27.139400 35.556812 -0.001373 0.577349 0.816462
-50.522430 0.184182 34.671864 0.001404 -0.577349 -0.816492
-50.956959 0.184182 35.104874 -0.816492 -0.577319 -0.001373
3 0 1 2
3 3 4 5
3 4 2 5
3 4 6 0
3 5 1 3
3 6 3 1
3 0 6 1
3 3 7 4
3 4 0 2
3 4 7 6
3 5 2 1
3 6 7 3
