ply
format ascii 1.0
comment Created by Blender 2.77 (sub 0) - www.blender.org, source file: ''
element vertex 8
property float x
property float y
property float z
property float nx
property float ny
property float nz
element face 12
property list uchar uint vertex_indices
end_header
50.739128 20.065327 -23.094118 0.577349 0.577349 -0.577349
39.576576 16.615812 -23.094114 -0.577349 -0.577349 -0.577349
39.576576 20.065329 -23.094114 -0.577349 0.577349 -0.577349
50.739128 20.065327 -22.080776 0.577349 0.577349 0.577349
39.576576 16.615812 -22.080772 -0.577349 -0.577349 0.577349
50.739128 16.615810 -22.080774 0.577349 -0.577349 0.577349
50.739128 16.615810 -23.094116 0.577349 -0.577349 -0.577349
39.576576 20.065329 -22.080772 -0.577349 0.577349 0.577349
3 0 1 2
3 2 3 0
3 3 4 5
3 0 6 1
3 7 1 4
3 2 7 3
3 3 7 4
3 5 1 6
3 3 6 0
3 7 2 1
3 5 4 1
3 3 5 6
