ply
format ascii 1.0
comment Created by Blender 2.77 (sub 0) - www.blender.org, source file: ''
element vertex 8
property float x
property float y
property float z
property float nx
property float ny
property float nz
element face 12
property list uchar uint vertex_indices
end_header
50.367908 -2.259521 -32.585178 0.574908 -0.577258 -0.579821
49.729832 28.565548 -32.581963 -0.579730 0.577410 -0.574847
50.367908 28.565548 -32.585175 0.574908 0.577258 -0.579821
50.370037 28.565548 -31.971762 0.579302 0.577319 0.575365
49.731953 28.565548 -31.969612 -0.575365 0.577349 0.579302
49.729820 -2.259521 -32.581966 -0.579760 -0.577410 -0.574816
50.370033 -2.259521 -31.971758 0.579302 -0.577319 0.575365
49.731953 -2.259521 -31.969620 -0.575365 -0.577349 0.579302
3 0 1 2
3 3 1 4
3 5 4 1
3 0 5 1
3 3 2 1
3 6 2 3
3 5 7 4
3 3 7 6
3 5 6 7
3 6 0 2
3 3 4 7
3 5 0 6
