ply
format ascii 1.0
comment Created by Blender 2.77 (sub 0) - www.blender.org, source file: 'WoodFort.blend'
element vertex 110
property float x
property float y
property float z
property float nx
property float ny
property float nz
element face 216
property list uchar uint vertex_indices
end_header
68.939430 6.070588 -8.865319 0.496994 0.226386 -0.837672
69.096321 5.906096 -8.781860 0.649068 0.194494 -0.735405
69.000389 5.875905 -8.864965 0.522538 0.155034 -0.838374
68.031433 6.550338 -8.759058 -0.637349 0.364788 -0.678732
68.061310 5.795973 -8.686716 -0.815302 -0.186712 -0.548051
67.820786 6.484940 -8.459035 -0.927671 0.247261 -0.279702
71.319893 6.869226 -3.118505 0.933500 0.357891 0.020875
71.170334 7.247791 -4.288243 0.951384 0.294412 -0.090396
71.109375 7.442475 -4.288600 0.929136 0.364696 -0.060488
68.707329 6.761975 -8.755087 0.304392 0.468520 -0.829341
69.035362 6.100779 -8.782217 0.619800 0.250710 -0.743584
68.417686 7.368775 -7.247088 -0.684561 0.716575 0.133580
67.818604 6.484939 -8.086678 -0.978973 0.152837 0.134922
70.002190 6.836468 -1.754662 -0.872158 0.257179 0.416089
69.769791 7.605824 -4.115797 -0.619709 0.753929 0.217933
69.976891 7.671223 -3.813326 -0.478774 0.851283 0.214637
67.986610 5.772874 -8.529298 -0.920560 -0.235908 -0.311228
67.952957 5.762721 -8.319829 -0.966369 -0.256996 -0.008698
70.555679 6.607189 -6.810331 0.829341 0.252541 -0.498367
72.249687 -1.027652 -7.596981 0.761254 -0.506272 -0.405103
69.787247 6.801788 -7.821037 0.769982 0.233955 -0.593585
70.209282 6.901867 -1.452193 -0.620319 0.396283 0.676840
70.804047 7.324500 -5.587101 0.854793 0.414716 -0.311899
70.567558 6.824970 -6.652409 0.858730 0.314768 -0.404309
70.275017 7.556032 -6.639614 0.721946 0.571825 -0.389569
72.042587 -1.093052 -7.899452 0.731712 -0.499466 -0.463790
70.356667 -1.621232 -8.071786 -0.493484 -0.861049 0.122501
70.569496 -1.555832 -8.744166 -0.228706 -0.754082 -0.615650
70.652794 7.882859 -3.809360 -0.098758 0.973876 0.204321
70.885193 7.113503 -1.448228 0.276376 0.677175 0.681906
71.095825 7.178902 -1.748249 0.624104 0.703330 0.340281
70.863426 7.948259 -4.109370 0.424726 0.902158 0.075259
71.346275 6.564714 -1.739815 0.894650 0.324076 0.307474
71.379951 6.574868 -1.949290 0.934385 0.342723 0.097018
68.419876 7.368775 -7.619451 -0.598529 0.797601 -0.074343
71.380852 6.674544 -3.118150 0.955931 0.293466 -0.001343
73.547020 -0.615701 -4.466002 0.892697 -0.442671 -0.084262
68.630508 7.434174 -7.919468 -0.444411 0.859066 -0.253883
68.370056 6.656157 -8.872139 -0.175542 0.473403 -0.863155
71.078186 7.432321 -4.498455 0.917417 0.345378 -0.197516
70.865616 7.948259 -4.481732 0.498795 0.860042 -0.107150
68.450027 5.703437 -8.945917 -0.281838 -0.097446 -0.954466
68.298752 5.656216 -8.869078 -0.508652 -0.167760 -0.844447
68.650269 5.766069 -8.978484 0.008026 -0.006775 -0.999939
68.850037 5.828683 -8.943571 0.297311 0.083865 -0.951079
70.908119 -1.450014 -8.857246 0.198859 -0.620960 -0.758171
70.628517 6.630288 -6.652051 0.870174 0.267891 -0.413465
72.898422 -0.822741 -6.624216 0.813562 -0.465987 -0.347728
68.789070 6.023367 -8.943924 0.271676 0.162725 -0.948515
70.146278 6.188976 -1.746857 -0.893887 -0.236885 0.380535
68.045113 5.578191 -8.109605 -0.925474 -0.292581 0.240547
70.207245 5.994293 -1.746501 -0.881558 -0.279031 0.380688
70.219116 6.212074 -1.588558 -0.818079 -0.205206 0.537217
70.546570 7.007685 -1.335147 -0.176885 0.550035 0.816157
70.543831 6.314222 -1.325775 -0.307443 -0.054140 0.950011
70.743599 6.376836 -1.290257 -0.015717 0.031373 0.999359
70.393463 6.267001 -1.403774 -0.529160 -0.126835 0.838954
70.297531 6.236810 -1.486876 -0.694296 -0.170965 0.699057
68.013908 5.568038 -8.319475 -0.953093 -0.302530 -0.005890
68.201859 5.626025 -8.787115 -0.668599 -0.217597 -0.711020
71.332550 6.346933 -1.582026 0.801080 0.247505 0.544939
73.325226 -0.679573 -1.433907 0.617115 -0.484420 0.620045
73.535858 -0.614174 -1.733925 0.880581 -0.404584 0.246620
68.047569 5.578191 -8.528939 -0.906003 -0.289376 -0.308786
68.122269 5.601289 -8.686358 -0.797845 -0.257332 -0.545152
70.358849 -1.621231 -8.444142 -0.495437 -0.835627 -0.237159
70.943825 6.439468 -1.323429 0.273232 0.127567 0.953429
71.074593 6.718359 -5.589014 0.897153 0.324473 -0.299600
71.095100 6.486690 -1.399661 0.498032 0.194617 0.844997
71.191994 6.516881 -1.481624 0.660390 0.252968 0.707022
71.271591 6.541616 -1.582384 0.783319 0.295969 0.546587
69.708794 6.777034 -7.922719 0.714866 0.217231 -0.664632
69.647835 6.971716 -7.923077 0.674856 0.288278 -0.679281
71.139145 7.237638 -4.498097 0.940580 0.291543 -0.173986
70.314171 7.777041 -3.696279 -0.291543 0.931730 0.216376
71.245392 -1.344195 -8.740194 0.574969 -0.517258 -0.633869
72.691330 -0.888140 -6.926692 0.298959 -0.954253 0.001679
73.313644 -0.690800 -5.572368 0.864132 -0.454482 -0.216041
73.339912 -0.681099 -4.768468 0.298776 -0.954314 0.001740
69.726295 6.996470 -7.821396 0.749443 0.310190 -0.584887
69.513519 7.711210 -7.613037 0.308451 0.882595 -0.354717
69.300697 7.645810 -6.940658 -0.278573 0.960082 0.024171
70.454430 6.072318 -1.403415 -0.518448 -0.164159 0.839167
70.358482 6.042127 -1.486519 -0.677877 -0.215003 0.702994
72.649315 -0.891210 -1.437875 -0.237220 -0.751946 0.615040
71.407242 6.370031 -1.739456 0.908719 0.281167 0.308420
71.440895 6.380185 -1.948931 0.951567 0.292459 0.094546
69.306419 7.645811 -7.915504 0.230262 0.836634 -0.496963
73.563339 -0.607802 -2.947908 0.884518 -0.466353 0.011444
73.565521 -0.607802 -3.320265 0.885006 -0.465499 -0.003082
71.698235 -1.198869 -6.811524 0.298776 -0.954314 0.001740
68.969147 7.539992 -8.032551 -0.198035 0.880215 -0.431196
67.984154 5.772874 -8.109963 -0.935789 -0.257912 0.240242
70.280083 6.017392 -1.588199 -0.804956 -0.255409 0.535478
72.442223 -0.956609 -1.740352 -0.419324 -0.842586 0.337870
71.004784 6.244785 -1.323071 0.284921 0.087619 0.954527
71.156036 6.292006 -1.399296 0.510483 0.157994 0.845241
70.804550 6.182153 -1.289897 -0.004975 -0.002838 0.999969
70.604774 6.119539 -1.325416 -0.294229 -0.093722 0.951109
72.986603 -0.785391 -1.320831 0.189032 -0.618030 0.763054
71.252953 6.322197 -1.481270 0.671865 0.207648 0.710929
68.389076 5.898120 -8.946276 -0.305612 -0.018342 -0.951964
68.237808 5.850899 -8.869444 -0.528184 -0.095218 -0.843745
68.589302 5.960752 -8.978842 -0.015839 0.069613 -0.997436
70.494720 6.801873 -6.810688 0.817805 0.296457 -0.493210
68.140907 5.820708 -8.787469 -0.691092 -0.145726 -0.707907
68.624786 7.434175 -6.944622 -0.389019 0.918149 0.074862
68.962074 7.539992 -6.827577 -0.302835 0.952361 0.035218
71.135551 6.523676 -5.588660 0.913572 0.280770 -0.294076
69.511330 7.711210 -7.240675 -0.235572 0.971831 0.004669
3 0 1 2
3 3 4 5
3 6 7 8
3 0 9 10
3 11 12 13
3 14 11 13
3 15 14 13
3 5 4 16
3 5 16 17
3 18 19 20
3 15 13 21
3 22 23 24
3 25 26 27
3 28 29 30
3 31 28 30
3 30 32 33
3 30 33 6
3 31 30 6
3 8 31 6
3 34 12 11
3 35 36 7
3 37 38 3
3 39 22 40
3 41 27 42
3 43 44 45
3 41 43 45
3 18 46 47
3 9 48 38
3 49 50 51
3 13 49 52
3 53 54 55
3 56 21 57
3 58 26 50
3 59 42 27
3 60 61 62
3 63 64 65
3 63 65 58
3 21 56 54
3 53 66 29
3 67 46 23
3 29 66 68
3 29 68 69
3 21 52 57
3 32 30 70
3 40 8 39
3 71 10 72
3 73 7 36
3 74 29 28
3 1 75 2
3 76 47 77
3 76 77 78
3 64 27 65
3 1 71 25
3 24 79 80
3 45 75 25
3 27 45 25
3 76 78 25
3 47 76 25
3 19 47 25
3 20 25 71
3 21 74 15
3 65 27 26
3 81 74 28
3 82 83 84
3 85 60 62
3 86 85 62
3 72 9 87
3 87 79 72
3 35 88 89
3 40 22 24
3 35 33 86
3 40 24 80
3 77 36 89
3 78 77 89
3 25 78 89
3 90 25 89
3 26 90 89
3 91 87 9
3 92 13 12
3 38 91 9
3 93 51 94
3 95 61 96
3 26 89 94
3 44 75 45
3 97 98 99
3 95 97 99
3 84 94 99
3 98 84 99
3 100 96 61
3 93 84 83
3 88 62 61
3 89 88 61
3 94 89 61
3 99 94 61
3 3 101 102
3 38 48 103
3 24 23 104
3 38 103 101
3 29 70 30
3 3 102 105
3 12 17 92
3 86 88 35
3 106 14 15
3 106 11 14
3 107 15 74
3 107 106 15
3 108 47 46
3 67 73 108
3 80 109 31
3 40 80 31
3 108 36 77
3 81 31 109
3 104 20 79
3 37 5 34
3 0 44 48
3 100 70 69
3 109 34 107
3 105 42 59
3 20 72 79
3 93 57 52
3 97 54 98
3 18 23 46
3 64 105 59
3 83 56 57
3 63 4 64
3 7 39 8
3 58 16 63
3 100 68 96
3 102 41 42
3 56 98 54
3 51 52 49
3 48 43 103
3 85 33 32
3 95 55 97
3 85 70 60
3 96 66 95
3 58 92 17
3 101 43 41
3 51 26 94
3 0 10 1
3 3 105 4
3 6 35 7
3 18 47 19
3 22 67 23
3 25 90 26
3 34 5 12
3 35 89 36
3 37 91 38
3 39 67 22
3 41 45 27
3 9 0 48
3 49 92 50
3 53 21 54
3 58 65 26
3 60 100 61
3 53 55 66
3 67 108 46
3 21 13 52
3 40 31 8
3 71 1 10
3 74 53 29
3 1 25 75
3 64 59 27
3 24 104 79
3 20 19 25
3 21 53 74
3 81 107 74
3 72 10 9
3 87 80 79
3 35 6 33
3 92 49 13
3 95 99 61
3 44 2 75
3 98 82 84
3 93 94 84
3 3 38 101
3 29 69 70
3 12 5 17
3 86 62 88
3 108 77 47
3 67 39 73
3 108 73 36
3 81 28 31
3 104 18 20
3 37 3 5
3 0 2 44
3 100 60 70
3 11 106 107
3 107 81 109
3 109 80 87
3 87 91 109
3 37 34 91
3 11 107 34
3 109 91 34
3 105 102 42
3 20 71 72
3 93 83 57
3 97 55 54
3 18 104 23
3 64 4 105
3 83 82 56
3 63 16 4
3 7 73 39
3 58 17 16
3 100 69 68
3 102 101 41
3 56 82 98
3 51 93 52
3 48 44 43
3 85 86 33
3 95 66 55
3 85 32 70
3 96 68 66
3 58 50 92
3 101 103 43
3 51 50 26
