ply
format ascii 1.0
comment Created by Blender 2.77 (sub 0) - www.blender.org, source file: 'WoodFort.blend'
element vertex 8
property float x
property float y
property float z
property float nx
property float ny
property float nz
element face 12
property list uchar uint vertex_indices
end_header
-52.328018 19.645279 -37.544315 0.004028 0.577349 -0.816462
-45.192860 19.645281 -28.901711 -0.004059 0.577349 0.816462
-44.472603 19.645283 -29.614536 0.816492 0.577319 0.004028
-52.328018 16.850872 -37.544315 0.004028 -0.577349 -0.816462
-45.192860 16.850874 -28.901711 -0.004059 -0.577349 0.816462
-53.047737 16.850872 -36.832012 -0.816492 -0.577319 -0.004059
-44.472603 16.850874 -29.614538 0.816492 -0.577319 0.004028
-53.047733 19.645279 -36.832016 -0.816492 0.577319 -0.004059
3 0 1 2
3 3 4 5
3 4 2 1
3 0 6 3
3 4 7 5
3 7 3 5
3 0 7 1
3 3 6 4
3 4 6 2
3 0 2 6
3 4 1 7
3 7 0 3
