ply
format ascii 1.0
comment Created by Blender 2.77 (sub 0) - www.blender.org, source file: ''
element vertex 8
property float x
property float y
property float z
property float nx
property float ny
property float nz
element face 12
property list uchar uint vertex_indices
end_header
-45.776371 0.345195 -29.775230 -0.816492 -0.577349 -0.001404
-45.324406 0.345195 -30.225655 0.001404 -0.577319 -0.816492
-44.891430 0.345195 -29.791153 0.816462 -0.577349 0.001373
-45.343361 0.345195 -29.340702 -0.001373 -0.577319 0.816492
-45.343365 27.300415 -29.340708 -0.001373 0.577319 0.816492
-45.776375 27.300415 -29.775234 -0.816492 0.577349 -0.001404
-44.891422 27.300415 -29.791161 0.816492 0.577349 0.001373
-45.324417 27.300415 -30.225658 0.001373 0.577319 -0.816492
3 0 1 2
3 2 3 0
3 0 4 5
3 6 5 4
3 7 2 1
3 1 5 7
3 4 2 6
3 0 3 4
3 6 7 5
3 7 6 2
3 1 0 5
3 4 3 2
