ply
format ascii 1.0
comment Created by Blender 2.77 (sub 0) - www.blender.org, source file: ''
element vertex 17
property float x
property float y
property float z
property float nx
property float ny
property float nz
element face 30
property list uchar uint vertex_indices
end_header
-47.666298 16.973518 -32.768494 -0.476669 -0.715873 0.510178
-44.939289 17.000811 -34.381104 0.049898 -0.996948 0.059481
-46.826523 17.057859 -31.945717 0.060854 -0.544267 0.836695
-49.647530 16.973417 -34.767788 -0.811853 -0.583697 0.010834
-47.569084 17.000811 -37.010899 -0.600146 -0.552202 -0.578661
-47.401226 16.999233 -37.178749 0.000122 -0.575823 -0.817530
-47.668415 17.339363 -32.766369 -0.703299 0.085574 0.705710
-46.825989 17.423807 -31.946243 0.053529 0.572161 0.818354
-48.922501 17.423805 -34.042751 -0.492721 0.740104 0.457595
-49.649124 17.339363 -34.766193 -0.840388 0.541887 0.008087
-47.567490 17.429127 -37.012489 -0.511795 0.703940 -0.492416
-44.771435 16.999235 -34.548950 0.811060 -0.583117 -0.046113
-44.770378 17.427551 -34.550014 0.812616 0.580676 -0.049257
-48.930462 16.973417 -34.051777 -0.002380 -0.999969 0.002777
-48.359997 16.973417 -33.506805 0.002197 -0.999969 -0.002106
-44.937695 17.429127 -34.382698 0.025544 0.999481 0.019349
-47.400173 17.427549 -37.179810 0.001862 0.574297 -0.818628
3 0 1 2
3 3 4 5
3 6 7 8
3 9 8 10
3 8 9 6
3 6 2 7
3 1 0 11
3 2 1 11
3 2 12 7
3 13 0 3
3 0 13 14
3 11 0 14
3 13 3 14
3 9 4 3
3 15 7 12
3 14 5 11
3 4 16 5
3 16 15 12
3 5 12 11
3 6 0 2
3 2 11 12
3 9 10 4
3 14 3 5
3 4 10 16
3 16 10 15
3 8 15 10
3 0 9 3
3 5 16 12
3 8 7 15
3 0 6 9
