ply
format ascii 1.0
comment Created by Blender 2.77 (sub 0) - www.blender.org, source file: ''
element vertex 17
property float x
property float y
property float z
property float nx
property float ny
property float nz
element face 30
property list uchar uint vertex_indices
end_header
1.178781 9.961508 -46.128769 -0.150945 0.954314 0.257851
1.062133 7.134351 -45.999065 -0.536729 -0.151494 0.830012
1.931922 7.236928 -45.869495 0.387799 -0.026215 0.921354
1.224778 7.634053 -47.753147 -0.435896 0.321421 -0.840602
0.558148 7.265811 -46.780609 -0.999969 0.002014 0.004791
2.094555 7.736629 -47.623573 0.489975 0.443007 -0.750755
2.598546 7.605171 -46.842037 0.952422 0.294900 0.076754
2.464226 -0.902976 -48.672478 -0.442610 -0.846187 0.296640
2.309773 -0.837576 -49.004929 -0.633869 -0.764916 -0.114444
2.381209 -0.731757 -49.354713 -0.545915 -0.631031 -0.551103
2.651255 -0.625939 -49.588249 -0.211951 -0.499405 -0.840022
3.421118 -0.731758 -48.745945 0.747002 -0.631031 0.209174
3.492560 -0.625940 -49.095745 0.836177 -0.498672 -0.228278
3.016754 -0.560541 -49.616299 0.243812 -0.418104 -0.875027
3.338103 -0.560541 -49.428181 0.644887 -0.417158 -0.640370
2.785576 -0.902976 -48.484348 -0.042329 -0.846461 0.530717
3.151079 -0.837576 -48.512421 0.412519 -0.763359 0.497055
3 0 1 2
3 0 3 4
3 0 5 3
3 0 2 6
3 0 6 5
3 7 4 8
3 0 4 1
3 9 3 10
3 11 12 6
3 13 3 5
3 14 6 12
3 7 15 1
3 14 13 5
3 15 2 1
3 9 8 4
3 11 2 16
3 12 11 14
3 9 10 13
3 14 7 13
3 7 1 4
3 9 4 3
3 13 10 3
3 14 5 6
3 15 16 2
3 11 6 2
3 14 11 15
3 8 9 7
3 9 13 7
3 11 16 15
3 14 15 7
