ply
format ascii 1.0
comment Created by Blender 2.77 (sub 0) - www.blender.org, source file: 'GiantTree0.blend'
element vertex 21
property float x
property float y
property float z
property float nx
property float ny
property float nz
element face 38
property list uchar uint vertex_indices
end_header
2.404022 -0.321475 -1.910556 0.587054 0.172460 0.790948
2.425721 -0.278129 -1.953972 0.796381 0.486068 0.359844
1.861543 0.025711 -1.867209 0.364269 0.726615 0.582476
2.360721 -0.430050 -2.040769 0.258065 -0.834346 -0.487045
2.360721 -0.430050 -1.997388 0.282174 -0.953154 0.108798
1.449161 -0.039306 -1.867141 -0.789972 -0.495163 -0.361522
1.449161 -0.039306 -1.758688 -0.730979 -0.605335 0.314920
2.317323 -0.408324 -1.932281 -0.095492 -0.844508 0.526933
2.447615 -0.299749 -2.040769 0.846187 0.159734 -0.508347
2.035038 -0.017687 -1.932248 0.478713 0.819941 0.313852
2.404022 -0.364873 -1.910556 0.616749 -0.433821 0.656789
2.317323 -0.386599 -2.062527 -0.113376 -0.371990 -0.921262
1.536055 0.069163 -1.975594 -0.471236 0.251839 -0.845271
2.013339 -0.017687 -2.019044 0.337687 0.742271 -0.578753
1.470958 0.069163 -1.715205 -0.304758 0.551653 0.776391
1.666152 0.112614 -1.910489 0.182531 0.959044 0.216559
1.449063 0.112614 -1.845485 -0.679586 0.727928 -0.090762
1.449161 0.004039 -1.715239 -0.628010 -0.177252 0.757714
1.926738 -0.039359 -2.040769 -0.022095 0.260659 -0.965148
1.687949 0.112614 -1.975594 0.081912 0.842586 -0.532243
2.056835 -0.147882 -2.062527 -0.048158 0.037202 -0.998138
3 0 1 2
3 3 4 5
3 5 4 6
3 4 7 6
3 4 3 8
3 9 1 8
3 7 4 10
3 4 8 10
3 8 1 10
3 3 5 11
3 5 12 11
3 8 3 11
3 9 8 13
3 14 15 16
3 12 5 16
3 5 6 16
3 16 6 17
3 6 7 17
3 10 14 17
3 7 10 17
3 14 16 17
3 18 12 19
3 15 9 19
3 13 18 19
3 9 13 19
3 16 15 19
3 12 16 19
3 12 18 20
3 11 12 20
3 8 11 20
3 18 13 20
3 13 8 20
3 14 10 0
3 10 1 0
3 15 14 2
3 9 15 2
3 1 9 2
3 14 0 2
