ply
format ascii 1.0
comment Created by Blender 2.77 (sub 0) - www.blender.org, source file: 'GiantTree0.blend'
element vertex 24
property float x
property float y
property float z
property float nx
property float ny
property float nz
element face 44
property list uchar uint vertex_indices
end_header
-1.112290 -0.169586 -0.000256 -0.474349 -0.817103 0.327494
-1.242607 0.025732 -0.043676 -0.989135 -0.051241 -0.137638
-1.134089 -0.147827 -0.065422 -0.499435 -0.581835 -0.641865
-1.199200 0.134288 -0.065422 -0.654561 0.617786 -0.435713
-0.960462 -0.104378 -0.065422 0.028169 -0.010346 -0.999542
-1.003869 -0.169586 -0.065422 0.066439 -0.761040 -0.645283
-0.504880 -0.082721 0.151604 0.354534 -0.907498 0.225196
-0.417875 0.047491 -0.043712 0.427503 -0.222999 -0.876034
-0.895351 -0.060996 0.216733 -0.392407 -0.398877 0.828761
-0.417971 0.156012 0.238407 0.307749 0.632984 0.710318
-0.265855 0.156012 0.064909 0.888577 0.388592 -0.243751
-0.417875 0.177737 0.043127 0.091922 0.968810 -0.229987
-1.090683 0.156012 0.043163 -0.379620 0.823481 0.421552
-0.439579 -0.039306 0.021453 0.512742 -0.778497 -0.361888
-1.025572 0.156012 -0.065422 -0.028718 0.700400 -0.713157
-0.765035 0.025766 0.281862 -0.362621 -0.012787 0.931822
-0.700020 0.047457 0.303608 -0.156316 0.070589 0.985168
-0.700020 0.112563 0.281862 -0.157750 0.641957 0.750328
-0.786738 -0.082721 0.216733 -0.021058 -0.818323 0.574358
-0.417875 0.134254 -0.021930 0.228034 0.532487 -0.815119
-0.287654 0.112563 0.151604 0.894864 -0.082278 0.438673
-0.439674 0.004110 0.238407 0.500046 -0.502579 0.705191
-0.634814 0.004110 0.303572 0.113773 -0.358440 0.926572
-1.112290 0.090872 0.064873 -0.607654 0.219764 0.763176
3 0 1 2
3 3 4 5
3 6 0 5
3 4 7 5
3 0 8 1
3 9 10 11
3 12 9 11
3 7 10 13
3 6 5 13
3 5 7 13
3 4 3 14
3 7 4 14
3 3 12 14
3 12 11 14
3 15 16 17
3 16 9 17
3 9 12 17
3 0 6 18
3 8 0 18
3 10 7 19
3 11 10 19
3 7 14 19
3 14 11 19
3 10 9 20
3 21 6 20
3 9 21 20
3 13 10 20
3 6 13 20
3 16 15 22
3 9 16 22
3 15 8 22
3 6 21 22
3 21 9 22
3 18 6 22
3 8 18 22
3 12 3 23
3 8 15 23
3 1 8 23
3 3 1 23
3 15 17 23
3 17 12 23
3 3 5 2
3 5 0 2
3 1 3 2
