ply
format ascii 1.0
comment Created by Blender 2.77 (sub 0) - www.blender.org, source file: ''
element vertex 12
property float x
property float y
property float z
property float nx
property float ny
property float nz
element face 20
property list uchar uint vertex_indices
end_header
1.406524 0.029437 -0.075505 -0.395672 0.817255 -0.418897
1.397548 -0.021952 -0.106606 -0.544145 0.151830 -0.825129
1.384162 -0.073340 -0.077133 -0.737724 -0.511307 -0.440779
2.426451 -0.281198 0.023536 0.776421 0.462905 0.427595
2.409241 -0.330292 0.052146 0.553758 -0.195379 0.809381
2.428115 -0.280465 -0.035807 0.803186 0.470840 -0.364879
2.412569 -0.328826 -0.066540 0.607593 -0.178991 -0.773797
1.388726 -0.021952 0.014541 -0.635090 0.146336 0.758415
2.393696 -0.378652 0.021413 0.358684 -0.843959 0.398785
1.402113 0.029437 -0.014931 -0.441725 0.815088 0.374767
1.379751 -0.073340 -0.016559 -0.782861 -0.515793 0.347911
2.395360 -0.377920 -0.037930 0.385784 -0.835292 -0.391675
3 0 1 2
3 3 4 5
3 1 5 6
3 0 3 5
3 3 7 4
3 8 5 4
3 1 0 5
3 0 9 3
3 3 9 7
3 4 10 8
3 10 7 2
3 2 6 11
3 8 2 11
3 8 11 6
3 0 7 9
3 8 6 5
3 4 7 10
3 2 1 6
3 8 10 2
3 0 2 7
