ply
format ascii 1.0
comment Created by Blender 2.77 (sub 0) - www.blender.org, source file: 'GiantTree0.blend'
element vertex 28
property float x
property float y
property float z
property float nx
property float ny
property float nz
element face 52
property list uchar uint vertex_indices
end_header
-0.417741 -0.039459 2.387559 -0.191595 0.514512 0.835749
-0.092328 -0.212916 2.539373 -0.122349 0.400800 0.907926
0.037862 -0.234607 2.561174 0.173956 0.447279 0.877285
0.124817 -0.451717 2.452632 0.621540 -0.681356 -0.386547
0.103018 -0.364887 2.409228 0.580126 -0.149998 -0.800562
0.124817 -0.299747 2.430963 0.853328 0.195868 -0.483139
0.124817 -0.256365 2.539373 0.723930 0.407544 0.556597
-0.808432 0.112580 1.888319 0.320963 -0.033326 -0.946471
-1.112410 0.134271 1.910120 -0.979308 -0.066561 -0.191046
-0.981978 0.047508 1.888319 -0.192694 -0.573290 -0.796350
-1.068811 0.069199 1.910120 -0.700339 -0.649586 -0.295877
-1.068811 0.242724 1.888319 -0.575060 0.719169 -0.389996
-0.851788 0.199343 2.083602 -0.133518 0.821345 0.554552
-0.830110 0.221101 1.931854 0.327464 0.891995 -0.311533
-0.634765 0.003991 2.279017 -0.409528 0.310953 0.857631
-0.938500 0.134271 2.083602 -0.560564 0.302499 0.770867
-0.482776 -0.126153 2.387559 -0.529740 -0.162175 0.832484
0.059540 -0.451717 2.474366 -0.217505 -0.975372 -0.036287
-0.092328 -0.386577 2.517770 -0.351878 -0.716727 0.602008
-0.873587 0.047508 1.888319 0.075106 -0.406446 -0.910550
-0.786754 0.199343 2.040265 0.287545 0.945524 0.152562
-0.396063 -0.017768 2.365890 0.169774 0.861965 0.477645
-0.157483 -0.277988 2.539373 -0.352245 -0.138066 0.925657
0.124817 -0.451717 2.517770 0.546648 -0.640187 0.539689
0.124817 -0.256365 2.474300 0.829218 0.532060 -0.171148
-0.569488 -0.147708 2.279017 -0.594134 -0.677358 0.433729
-0.830231 0.177584 1.888319 0.311686 0.369793 -0.875240
-0.938500 0.090889 2.083602 -0.659383 -0.255287 0.707083
3 0 1 2
3 3 4 5
3 6 3 5
3 4 7 5
3 8 9 10
3 9 8 11
3 12 13 11
3 7 9 11
3 14 12 15
3 16 14 15
3 11 8 15
3 12 11 15
3 9 3 17
3 10 9 17
3 18 10 17
3 4 3 19
3 3 9 19
3 7 4 19
3 9 7 19
3 6 13 20
3 13 12 20
3 21 6 20
3 12 21 20
3 16 18 22
3 3 6 23
3 17 3 23
3 18 17 23
3 22 18 23
3 13 6 24
3 5 13 24
3 6 5 24
3 18 16 25
3 10 18 25
3 13 5 26
3 5 7 26
3 11 13 26
3 7 11 26
3 8 10 27
3 15 8 27
3 16 15 27
3 25 16 27
3 10 25 27
3 12 14 0
3 14 16 0
3 21 12 0
3 22 1 0
3 16 22 0
3 6 21 2
3 1 22 2
3 23 6 2
3 22 23 2
3 21 0 2
