ply
format ascii 1.0
comment Created by Blender 2.77 (sub 0) - www.blender.org, source file: ''
element vertex 24
property float x
property float y
property float z
property float nx
property float ny
property float nz
element face 44
property list uchar uint vertex_indices
end_header
-0.304227 -0.121712 0.341457 0.785852 -0.609973 0.101657
-0.328665 0.069481 0.373453 0.384442 0.037690 0.922361
-0.328665 -0.121712 0.373453 0.304849 -0.609973 0.731407
-0.384084 0.069481 0.331124 -0.990966 0.038667 -0.128208
-0.359645 -0.121712 0.299128 -0.304849 -0.609973 -0.731407
-0.384084 -0.121712 0.331124 -0.785852 -0.609973 -0.101657
-0.359645 0.069481 0.299128 -0.386029 0.034944 -0.921812
-0.319717 -0.121712 0.304295 0.480972 -0.609973 -0.629719
-0.368594 -0.121712 0.368286 -0.480972 -0.609973 0.629719
-0.304227 0.069481 0.341457 0.990936 0.034547 0.129643
-0.325339 0.211194 0.311655 0.602374 0.122959 -0.788659
-0.313413 0.211194 0.340268 0.977172 0.133366 0.165227
-0.316735 0.228998 0.339838 0.622669 0.741966 0.248451
-0.360938 0.210040 0.358263 -0.527635 0.527482 0.665822
-0.333518 0.208365 0.361811 0.253334 0.405774 0.878140
-0.354793 0.228998 0.310769 -0.413404 0.739738 -0.530869
-0.356081 0.211194 0.307677 -0.422071 0.134434 -0.896512
-0.374898 0.187424 0.332312 -0.988464 0.109165 -0.104892
-0.371575 0.205228 0.332742 -0.933531 0.357433 -0.026856
-0.332229 0.190561 0.364903 0.359600 0.112156 0.926328
-0.327372 0.228998 0.314318 0.445662 0.678915 -0.583453
-0.319717 0.069481 0.304295 0.606677 0.032289 -0.794275
-0.368594 0.069481 0.368286 -0.606739 0.038026 0.793939
-0.362971 0.192236 0.360925 -0.606433 0.132206 0.784020
3 0 1 2
3 3 4 5
3 6 7 4
3 4 8 5
3 7 0 4
3 9 10 11
3 12 13 14
3 15 16 17
3 18 15 17
3 12 14 19
3 11 12 19
3 20 11 10
3 12 20 15
3 15 18 13
3 0 9 1
3 3 6 4
3 6 21 7
3 9 21 10
3 12 15 13
3 20 12 11
3 7 9 0
3 6 17 16
3 19 9 11
3 17 22 23
3 21 16 10
3 18 23 13
3 23 14 13
3 16 20 10
3 8 0 2
3 19 22 1
3 8 1 22
3 5 22 3
3 7 21 9
3 6 3 17
3 19 1 9
3 17 3 22
3 21 6 16
3 18 17 23
3 23 19 14
3 16 15 20
3 8 4 0
3 19 23 22
3 8 2 1
3 5 8 22
