ply
format ascii 1.0
comment Created by Blender 2.77 (sub 0) - www.blender.org, source file: 'Plants.blend'
element vertex 13
property float x
property float y
property float z
property float nx
property float ny
property float nz
element face 22
property list uchar uint vertex_indices
end_header
-0.184658 0.032397 0.702888 -0.308359 0.322214 -0.895016
-0.398652 0.066313 0.820864 -0.610279 0.556871 -0.563372
0.051812 0.096715 0.676576 0.391247 0.600726 -0.697134
-0.323518 0.093606 1.061180 -0.189642 0.617145 0.763604
0.126946 0.124009 0.916892 0.672628 0.648488 0.356395
-0.450574 0.081649 0.955895 -0.801111 0.566393 0.193304
-0.305075 -0.193456 1.058270 -0.158574 -0.538560 0.827509
0.069373 -0.207498 0.667292 0.527512 -0.524735 -0.668081
-0.091081 -0.227372 0.940294 0.184698 -0.903775 0.386029
-0.167097 -0.271817 0.693605 -0.152959 -0.755364 -0.637165
-0.381091 -0.237901 0.811581 -0.577960 -0.682241 -0.447707
0.145388 -0.163053 0.913981 0.808557 -0.428358 0.403363
-0.439355 -0.216925 0.928005 -0.777032 -0.605243 0.172857
3 0 1 2
3 2 3 4
3 5 6 3
3 7 8 9
3 2 9 0
3 0 10 1
3 2 11 7
3 1 12 5
3 6 12 10
3 2 1 5
3 8 11 6
3 4 6 11
3 2 5 3
3 5 12 6
3 7 11 8
3 2 7 9
3 0 9 10
3 2 4 11
3 1 10 12
3 10 9 8
3 8 6 10
3 4 3 6
