ply
format ascii 1.0
comment Created by Blender 2.77 (sub 0) - www.blender.org, source file: ''
element vertex 56
property float x
property float y
property float z
property float nx
property float ny
property float nz
element face 108
property list uchar uint vertex_indices
end_header
-0.441997 1.787427 0.062407 -0.924497 -0.200201 0.324351
-0.418228 1.687441 -0.101668 -0.816034 -0.571886 -0.083560
-0.416913 1.737023 0.072970 -0.809259 -0.442000 0.386914
-0.314808 1.689498 -0.313716 -0.722373 -0.347056 -0.598041
-0.443207 1.734957 -0.121661 -0.934263 -0.264657 -0.238868
-0.427579 2.043013 -0.056309 -0.522355 0.845515 -0.110599
-0.375128 2.041539 0.072860 -0.313456 0.869778 0.381024
-0.335843 2.063279 0.019535 -0.203864 0.969939 0.132786
0.219189 2.096178 0.067895 0.013031 0.999176 -0.038301
-0.362069 2.064015 -0.045050 -0.213874 0.976806 0.008209
0.237899 2.102465 0.279094 -0.038850 0.999054 0.018921
0.116793 2.094365 0.284437 -0.213538 0.875210 0.434004
-0.216148 1.919666 0.276029 -0.380139 0.291940 0.877621
0.179540 2.087571 0.315047 -0.171606 0.666555 0.725394
-0.440639 2.020537 0.061601 -0.692770 0.555223 0.460128
0.300416 2.057840 0.353087 -0.104923 0.422193 0.900388
-0.195094 1.866761 0.282293 -0.287149 -0.074587 0.954955
-0.332257 1.796600 0.208414 -0.585772 -0.257729 0.768364
0.134303 1.323391 0.291157 -0.183905 -0.227088 0.956328
0.096064 1.590616 -0.465371 0.047365 -0.616260 -0.786065
0.230437 1.374913 -0.235770 0.269204 -0.756462 -0.596026
-0.035907 1.336770 -0.224998 -0.267708 -0.853999 -0.446028
-0.466865 2.021274 -0.002984 -0.867061 0.495865 0.048006
-0.308952 2.039494 -0.366217 -0.633961 0.575610 -0.516434
-0.120056 1.402819 0.154607 -0.641377 -0.514634 0.568987
-0.355478 1.848429 0.200934 -0.673635 0.015351 0.738853
0.281128 2.049005 -0.509201 0.527360 0.822535 -0.212806
0.277576 1.983738 -0.638416 0.655416 0.272683 -0.704276
0.228590 2.064975 -0.556393 0.343608 0.911679 -0.225227
0.396273 1.488017 -0.223662 0.660756 -0.494247 -0.564867
0.330114 1.967769 -0.591224 0.814325 0.148717 -0.561022
0.475788 1.444113 -0.067315 0.886807 -0.412824 -0.207587
0.418841 2.087247 0.324146 0.679891 0.598621 0.423505
0.455423 1.395396 0.087500 0.818232 -0.544420 0.184576
0.224399 1.293528 0.145099 0.350352 -0.933927 -0.070589
0.167194 1.270552 0.182532 0.215094 -0.976562 -0.004120
0.260225 1.349224 -0.174982 0.336711 -0.871639 -0.356090
0.104166 1.259876 0.149138 0.006287 -0.999695 0.023255
0.098345 1.272175 0.078312 0.049348 -0.981048 -0.187323
0.266639 1.534935 -0.357633 0.417585 -0.555589 -0.718955
0.159082 1.955581 -0.719554 0.166753 -0.232856 -0.958068
-0.133318 1.375155 0.091333 -0.662954 -0.732536 0.154332
0.331890 2.000403 -0.526617 0.822962 0.520218 -0.228156
0.287025 2.089680 0.043436 0.105075 0.993164 -0.050691
0.276647 2.103082 0.301797 0.017396 0.946471 0.322245
-0.092417 1.368505 -0.198955 -0.616657 -0.736198 -0.278756
0.338860 1.340906 0.216379 0.579760 -0.628101 0.518937
-0.105316 1.644789 -0.461633 -0.433180 -0.460799 -0.774560
0.058168 1.273621 0.087498 -0.243263 -0.964080 -0.106326
0.034795 1.276726 0.201846 -0.442915 -0.803400 0.397900
0.152796 1.270266 0.280333 0.037263 -0.749626 0.660787
0.122515 2.017941 -0.723612 -0.118198 0.320933 -0.939665
0.128645 2.067010 -0.670727 0.040223 0.876186 -0.480239
0.226814 2.032341 -0.621000 0.518601 0.735984 -0.435102
0.371513 2.049923 0.364261 0.284951 0.232368 0.929929
-0.295858 1.644623 -0.283573 -0.675497 -0.601733 -0.426099
3 0 1 2
3 3 1 4
3 5 6 7
3 8 9 10
3 9 11 10
3 12 13 11
3 9 7 11
3 7 6 11
3 6 14 11
3 14 12 11
3 12 15 13
3 12 16 15
3 17 18 16
3 19 20 21
3 22 5 23
3 5 9 23
3 2 24 17
3 5 7 9
3 14 25 12
3 26 27 28
3 29 30 31
3 22 14 6
3 30 32 31
3 32 33 31
3 0 25 14
3 23 4 22
3 34 35 36
3 35 37 36
3 37 38 36
3 20 39 29
3 39 40 29
3 40 30 29
3 40 27 30
3 2 41 24
3 26 42 30
3 42 32 30
3 43 44 32
3 0 22 4
3 1 45 41
3 42 26 32
3 26 28 32
3 28 43 32
3 46 34 33
3 45 3 21
3 3 47 21
3 47 19 21
3 29 36 20
3 38 48 21
3 48 49 21
3 49 41 21
3 41 45 21
3 46 35 34
3 46 50 35
3 21 36 38
3 49 48 37
3 48 38 37
3 19 40 39
3 51 27 40
3 19 47 40
3 47 51 40
3 51 52 27
3 52 53 27
3 53 28 27
3 28 44 43
3 10 11 44
3 11 13 44
3 13 15 44
3 28 8 44
3 8 10 44
3 15 16 54
3 16 18 54
3 18 50 54
3 50 46 54
3 53 52 28
3 52 8 28
3 33 36 31
3 55 3 45
3 23 51 3
3 51 47 3
3 50 17 49
3 17 24 49
3 24 41 49
3 18 17 50
3 23 52 51
3 23 9 52
3 9 8 52
3 0 4 1
3 3 55 1
3 5 22 6
3 19 39 20
3 26 30 27
3 23 3 4
3 2 1 41
3 0 14 22
3 1 55 45
3 29 31 36
3 21 20 36
3 33 34 36
3 25 16 12
3 49 35 50
3 2 25 0
3 33 54 46
3 32 15 54
3 25 17 16
3 49 37 35
3 2 17 25
3 33 32 54
3 32 44 15
