ply
format ascii 1.0
comment Created by Blender 2.77 (sub 0) - www.blender.org, source file: 'GiantTree0.blend'
element vertex 23
property float x
property float y
property float z
property float nx
property float ny
property float nz
element face 42
property list uchar uint vertex_indices
end_header
-1.546480 -0.126026 1.649460 -0.633381 -0.636311 0.440352
-1.546550 0.004198 1.410743 -0.649525 -0.246712 -0.719169
-1.546480 -0.126026 1.497623 -0.614551 -0.695608 -0.372021
-1.134179 0.134377 1.888228 -0.267617 -0.093997 0.958922
-1.134179 0.221059 1.888228 -0.315928 0.327769 0.890347
-1.546480 -0.060936 1.649460 -0.857967 0.109775 0.501785
-0.830333 0.112606 1.888228 0.822474 -0.244118 0.513718
-0.895603 0.047561 1.888228 0.440687 -0.692373 0.571276
-1.090782 0.069288 1.410794 0.517289 -0.587970 -0.621815
-1.437954 -0.126026 1.497623 0.142857 -0.873623 -0.465133
-1.546550 0.199333 1.410743 -0.738762 0.483810 -0.469161
-1.090782 0.155970 1.367354 0.468215 0.126530 -0.874477
-1.242705 0.307875 1.540961 0.003601 0.927152 -0.374645
-1.286171 0.329646 1.692849 -0.366497 0.872158 0.324015
-1.199168 0.329691 1.606122 0.167119 0.969146 -0.181097
-0.917266 0.242830 1.844737 0.561449 0.806726 0.184210
-1.025723 0.264467 1.888228 0.096011 0.672903 0.733421
-1.416221 0.242786 1.410743 -0.161931 0.723594 -0.670949
-1.090782 0.199378 1.410794 0.478286 0.697073 -0.534104
-1.351161 0.242741 1.692849 -0.684866 0.432112 0.586657
-0.830333 0.156014 1.866457 0.917020 0.352245 0.187017
-1.069049 0.069288 1.888228 -0.102969 -0.358470 0.927824
-1.416221 -0.126026 1.584351 0.188879 -0.979675 0.067415
3 0 1 2
3 3 4 5
3 4 3 6
3 6 3 7
3 8 6 7
3 9 8 7
3 5 10 1
3 8 9 1
3 11 8 1
3 10 11 1
3 3 5 0
3 5 1 0
3 12 13 14
3 15 14 16
3 4 6 16
3 13 4 16
3 14 13 16
3 11 10 17
3 13 12 17
3 10 13 17
3 12 14 18
3 14 15 18
3 17 12 18
3 11 17 18
3 5 4 19
3 10 5 19
3 4 13 19
3 13 10 19
3 6 8 20
3 8 11 20
3 15 16 20
3 16 6 20
3 11 18 20
3 18 15 20
3 7 3 21
3 3 0 21
3 0 7 21
3 9 7 22
3 7 0 22
3 0 9 22
3 1 9 2
3 9 0 2
