ply
format ascii 1.0
comment Created by Blender 2.77 (sub 0) - www.blender.org, source file: ''
element vertex 20
property float x
property float y
property float z
property float nx
property float ny
property float nz
element face 36
property list uchar uint vertex_indices
end_header
0.872560 3.148565 0.259355 0.427015 0.745598 -0.511551
0.817153 3.160084 0.276778 -0.281869 0.920286 -0.271279
0.800870 3.149377 0.332693 -0.520554 0.732414 0.438795
0.895402 3.115634 0.353760 0.696799 0.176183 0.695242
0.911685 3.126340 0.297845 0.929014 0.368450 -0.033540
0.839995 3.127152 0.371184 -0.028199 0.354656 0.934568
0.458631 2.290945 -0.216493 0.301614 0.259896 -0.917295
0.304321 1.905726 -0.308394 0.374828 -0.826624 -0.419691
0.257067 1.938707 -0.352230 -0.124119 -0.426801 -0.895749
0.197480 1.969319 -0.324760 -0.790246 -0.118931 -0.601093
0.395020 2.314071 -0.191243 -0.488479 0.569811 -0.660787
0.665878 2.692350 0.000171 0.338237 0.325632 -0.882900
0.683093 2.630555 0.099635 0.696860 -0.558153 0.450362
0.705494 2.652305 0.038852 0.912198 -0.257668 -0.318552
0.291990 1.903358 -0.237088 0.191778 -0.924375 0.329753
0.479275 2.230350 -0.108983 0.802210 -0.545183 0.243294
0.232403 1.933970 -0.209617 -0.472701 -0.643117 0.602405
0.185148 1.966951 -0.253453 -0.961882 -0.229835 0.147984
0.603861 2.710647 0.022273 -0.262429 0.563860 -0.783044
0.500759 2.249083 -0.175362 0.879665 -0.310343 -0.360332
3 0 1 2
3 3 4 5
3 6 7 8
3 9 6 8
3 10 11 6
3 4 12 13
3 0 5 4
3 12 3 14
3 15 12 14
3 1 10 9
3 14 8 7
3 14 16 17
3 9 8 17
3 18 10 1
3 6 19 7
3 9 10 6
3 10 18 11
3 4 3 12
3 0 2 5
3 14 17 8
3 19 11 13
3 16 3 5
3 2 16 5
3 13 15 19
3 0 13 11
3 11 1 0
3 1 17 2
3 19 14 7
3 19 6 11
3 16 14 3
3 2 17 16
3 13 12 15
3 0 4 13
3 11 18 1
3 1 9 17
3 19 15 14
