ply
format ascii 1.0
comment Created by Blender 2.77 (sub 0) - www.blender.org, source file: ''
element vertex 12
property float x
property float y
property float z
property float nx
property float ny
property float nz
element face 20
property list uchar uint vertex_indices
end_header
0.721005 -0.019939 0.234229 0.983673 -0.059267 -0.169744
0.697396 0.036296 0.255052 0.756432 0.633625 0.162114
0.648620 0.037153 0.297165 0.224738 0.623859 0.748497
0.695837 -0.075317 0.255518 0.661336 -0.745262 0.084811
0.647061 -0.074460 0.297632 0.109043 -0.738853 0.664968
0.472123 0.089200 0.094343 -0.164861 0.837245 -0.521348
0.471735 0.039723 0.056356 -0.105380 0.185308 -0.976989
0.443853 -0.013126 0.074260 -0.452559 -0.490341 -0.744774
0.416360 -0.016500 0.130151 -0.855983 -0.513688 -0.057894
0.416748 0.032977 0.168137 -0.912778 0.142338 0.382794
0.623452 -0.018224 0.318455 -0.095767 -0.043184 0.994446
0.444629 0.085826 0.150233 -0.572924 0.805261 0.152593
3 0 1 2
3 3 0 4
3 5 6 7
3 8 9 7
3 6 1 0
3 7 0 3
3 4 7 3
3 6 5 1
3 7 6 0
3 4 8 7
3 2 9 10
3 2 5 11
3 10 8 4
3 5 9 11
3 4 2 10
3 2 11 9
3 2 1 5
3 10 9 8
3 5 7 9
3 4 0 2
