ply
format ascii 1.0
comment Created by Blender 2.77 (sub 0) - www.blender.org, source file: 'GiantTree0.blend'
element vertex 20
property float x
property float y
property float z
property float nx
property float ny
property float nz
element face 36
property list uchar uint vertex_indices
end_header
0.203609 2.078865 0.136450 -0.873623 -0.478286 0.089328
0.330341 2.492035 0.212168 -0.888272 0.373150 -0.267739
0.219189 2.096178 0.067895 -0.718986 -0.317728 -0.618091
0.432441 2.435635 0.297981 0.568194 -0.375408 0.732231
0.255867 2.055053 0.180546 -0.306711 -0.769433 0.560228
0.323703 2.048555 0.156087 0.402783 -0.868068 0.290139
0.316210 2.479982 0.282149 -0.892483 0.215217 0.396405
0.489481 2.875153 0.258605 -0.872921 0.421247 -0.245979
0.367260 2.451782 0.325056 -0.206977 -0.161138 0.964965
0.483112 2.881590 0.330441 -0.803735 0.416883 0.424451
0.595069 2.827064 0.345252 0.624775 -0.270302 0.732475
0.703953 3.261399 0.246746 -0.205329 0.953978 0.218451
0.749649 3.226991 0.290932 0.348399 0.632252 0.691946
0.535906 2.857545 0.373764 -0.098819 0.095492 0.990509
0.797729 3.180258 0.263936 0.898709 0.201422 0.389508
0.287025 2.089680 0.043436 -0.015595 -0.465255 -0.885006
0.706337 3.249073 0.175564 -0.173833 0.840388 -0.513321
0.800112 3.167932 0.192755 0.940825 0.123356 -0.315561
0.339283 2.065869 0.087532 0.541581 -0.732597 -0.412244
0.754416 3.202339 0.148569 0.420240 0.436048 -0.795740
3 0 1 2
3 3 4 5
3 6 7 1
3 8 9 6
3 10 8 3
3 11 7 9
3 12 9 13
3 14 13 10
3 6 4 8
3 2 15 0
3 11 12 16
3 14 10 5
3 15 17 18
3 10 3 5
3 1 7 16
3 5 4 0
3 16 17 19
3 19 2 16
3 12 14 17
3 5 17 14
3 5 15 18
3 1 16 2
3 0 6 1
3 3 8 4
3 6 9 7
3 8 13 9
3 10 13 8
3 11 16 7
3 12 11 9
3 14 12 13
3 6 0 4
3 15 19 17
3 16 12 17
3 19 15 2
3 5 18 17
3 5 0 15
