ply
format ascii 1.0
comment Created by Blender 2.77 (sub 0) - www.blender.org, source file: 'GiantTree0.blend'
element vertex 21
property float x
property float y
property float z
property float nx
property float ny
property float nz
element face 38
property list uchar uint vertex_indices
end_header
2.013479 -0.039340 0.499134 -0.326365 0.565203 -0.757622
1.883257 -0.061086 1.497390 -0.436628 0.824458 0.359966
2.078573 -0.039340 0.542584 0.522782 0.644887 -0.557482
2.208795 -0.169564 0.672933 0.876919 -0.265114 -0.400830
2.208795 -0.126199 0.672933 0.895260 0.315165 -0.314859
2.187085 -0.256372 1.323809 0.799036 -0.513932 0.312021
1.991806 -0.234651 1.540840 0.007355 -0.818171 0.574877
2.143666 -0.299764 1.237127 0.377239 -0.925565 0.031129
2.187085 -0.147945 1.323809 0.885800 0.391095 0.249763
2.165339 -0.061086 0.824843 0.573412 0.818934 0.022553
2.013479 -0.061086 1.562619 0.246712 0.721213 0.647237
2.013479 -0.061112 0.499134 -0.359294 -0.254738 -0.897763
2.165376 -0.234677 0.672716 0.460250 -0.765831 -0.449019
2.056899 -0.256398 0.759615 -0.195959 -0.971862 -0.130558
1.839801 -0.104503 1.497390 -0.861965 0.273324 0.426923
1.883257 -0.234651 1.475720 -0.599689 -0.736351 0.313273
2.013516 -0.169641 1.606068 0.197394 -0.169439 0.965545
2.035153 -0.299764 1.302247 -0.149632 -0.985198 0.083377
1.839801 -0.169564 1.475720 -0.913022 -0.302744 0.273354
2.013479 -0.147894 0.586034 -0.609272 -0.579516 -0.541215
2.035189 -0.234677 0.672716 -0.460189 -0.787988 -0.408948
3 0 1 2
3 3 4 5
3 5 6 7
3 5 4 8
3 4 9 8
3 9 10 8
3 11 3 12
3 3 5 12
3 7 13 12
3 5 7 12
3 14 10 1
3 0 14 1
3 15 6 16
3 6 5 16
3 10 14 16
3 5 8 16
3 8 10 16
3 6 15 17
3 15 13 17
3 7 6 17
3 13 7 17
3 0 11 18
3 14 0 18
3 11 19 18
3 15 16 18
3 16 14 18
3 13 15 20
3 11 12 20
3 12 13 20
3 19 11 20
3 15 18 20
3 18 19 20
3 4 3 2
3 3 11 2
3 9 4 2
3 10 9 2
3 11 0 2
3 1 10 2
