ply
format ascii 1.0
comment Created by Blender 2.77 (sub 0) - www.blender.org, source file: ''
element vertex 12
property float x
property float y
property float z
property float nx
property float ny
property float nz
element face 20
property list uchar uint vertex_indices
end_header
0.648620 0.037153 0.297165 -0.702841 0.628864 -0.332438
0.697396 0.036296 0.255052 -0.049471 0.638173 -0.768273
0.721005 -0.019939 0.234229 0.305277 -0.052736 -0.950774
0.753155 0.037367 0.576124 -0.422376 0.075655 0.903226
0.780716 0.094194 0.556890 -0.106693 0.759117 0.642109
0.869312 0.036484 0.513337 0.985229 0.062929 0.159185
0.838795 0.093753 0.525496 0.598468 0.754143 0.270211
0.647061 -0.074460 0.297632 -0.649800 -0.728538 -0.216712
0.841751 -0.020343 0.532570 0.669393 -0.611438 0.421888
0.783673 -0.019902 0.563965 -0.030793 -0.607318 0.793817
0.623452 -0.018224 0.318455 -0.997620 -0.036287 -0.058504
0.695837 -0.075317 0.255518 0.002167 -0.736381 -0.676534
3 0 1 2
3 0 3 4
3 5 1 6
3 7 8 9
3 8 5 6
3 0 10 3
3 5 2 1
3 7 11 8
3 0 11 10
3 0 6 1
3 3 9 4
3 2 8 11
3 10 9 3
3 7 10 11
3 4 8 6
3 0 2 11
3 0 4 6
3 2 5 8
3 10 7 9
3 4 9 8
