ply
format ascii 1.0
comment Created by Blender 2.77 (sub 0) - www.blender.org, source file: 'GiantTree0.blend'
element vertex 28
property float x
property float y
property float z
property float nx
property float ny
property float nz
element face 44
property list uchar uint vertex_indices
end_header
-1.509819 -0.024577 0.322988 0.698477 0.385693 -0.602741
-1.201066 -0.082500 0.719499 0.951720 -0.130314 -0.277810
-1.484858 -0.096363 0.312308 0.501846 -0.191473 -0.843471
-1.528027 -0.155733 0.334713 0.014649 -0.802454 -0.596515
-1.510653 0.003342 0.696764 -0.871731 0.052370 0.487136
-1.291605 -0.031411 0.998349 0.141301 0.543840 0.827174
-1.482445 0.056370 0.691654 -0.417005 0.826533 0.378033
-1.249862 -0.024010 0.947387 0.680868 0.581042 0.445845
-1.429440 0.059690 0.663137 0.176061 0.982330 0.062990
-1.674163 0.036549 0.345509 -0.970885 0.037935 -0.236396
-1.652392 0.086409 0.332160 -0.652089 0.668569 -0.357402
-1.602102 0.089359 0.307655 0.005127 0.709037 -0.705130
-1.595356 -0.007410 0.309848 -0.325968 -0.201758 -0.923582
-1.293740 -0.144755 0.980139 0.090457 -0.757683 0.646290
-1.232021 -0.141297 0.757905 0.593799 -0.802332 -0.059969
-1.251997 -0.137354 0.929177 0.701865 -0.636036 0.320627
-1.313544 -0.091784 1.014725 -0.174413 -0.165410 0.970672
-1.621115 -0.071531 0.378479 -0.877194 -0.342174 0.336772
-1.596156 -0.143317 0.367798 -0.669912 -0.713736 -0.204382
-1.645645 -0.010361 0.334353 -0.633503 -0.293680 -0.715812
-1.270759 0.002799 0.793914 0.299600 0.948332 0.104129
-1.220436 -0.010452 0.737504 0.758141 0.640645 -0.121372
-1.573585 0.042450 0.296498 0.207465 0.249794 -0.945799
-1.230058 -0.076981 0.912802 0.945677 -0.049928 0.321177
-1.249862 -0.024010 0.947387 0.776614 -0.114170 0.619545
-1.251997 -0.137354 0.929177 0.776614 -0.114170 0.619545
-1.230058 -0.076981 0.912802 0.776614 -0.114170 0.619545
-1.313544 -0.091784 1.014725 0.776614 -0.114170 0.619545
3 0 1 2
3 1 3 2
3 4 5 6
3 6 7 8
3 9 6 10
3 10 8 11
3 9 11 12
3 13 14 15
3 16 13 15
3 17 4 9
3 12 18 19
3 18 17 9
3 19 18 9
3 8 20 21
3 11 8 21
3 12 22 2
3 19 9 12
3 22 11 21
3 0 22 21
3 23 21 7
3 13 3 14
3 18 3 13
3 20 7 21
3 17 18 4
3 18 13 16
3 4 18 16
3 3 12 2
3 14 23 15
3 24 25 26
3 12 11 22
3 5 16 7
3 8 7 20
3 22 0 2
3 0 21 1
3 1 14 3
3 4 16 5
3 6 5 7
3 9 4 6
3 10 6 8
3 9 10 11
3 12 3 18
3 23 1 21
3 14 1 23
3 24 27 25
