ply
format ascii 1.0
comment Created by Blender 2.77 (sub 0) - www.blender.org, source file: 'GiantTree0.blend'
element vertex 30
property float x
property float y
property float z
property float nx
property float ny
property float nz
element face 44
property list uchar uint vertex_indices
end_header
-0.304227 -0.121712 0.341457 0.785852 -0.609973 0.101657
-0.328665 0.069481 0.373453 0.384442 0.037690 0.922361
-0.328665 -0.121712 0.373453 0.304849 -0.609973 0.731407
-0.368594 -0.121712 0.368286 -0.480972 -0.609973 0.629719
-0.368594 0.069481 0.368286 -0.606769 0.038026 0.793939
-0.384084 -0.121712 0.331124 -0.785852 -0.609973 -0.101688
-0.384084 0.069481 0.331124 -0.990966 0.038667 -0.128208
-0.359645 -0.121712 0.299128 -0.304849 -0.609973 -0.731407
-0.359645 0.069481 0.299128 -0.386029 0.034944 -0.921812
-0.319717 -0.121712 0.304295 0.480972 -0.609973 -0.629719
-0.304227 0.069481 0.341457 0.990936 0.034547 0.129643
-0.319717 0.069481 0.304295 0.606677 0.032289 -0.794275
-0.356081 0.211194 0.307677 -0.422101 0.134465 -0.896481
-0.325339 0.211194 0.311655 0.602374 0.122959 -0.788659
-0.332229 0.190561 0.364903 0.359600 0.112156 0.926328
-0.313413 0.211194 0.340268 0.977172 0.133366 0.165227
-0.316735 0.228998 0.339838 -0.040895 0.743770 0.667184
-0.360938 0.210040 0.358263 -0.040895 0.743770 0.667184
-0.333518 0.208365 0.361811 -0.040895 0.743770 0.667184
-0.354793 0.228998 0.310769 -0.413404 0.739769 -0.530869
-0.374898 0.187424 0.332312 -0.988464 0.109134 -0.104892
-0.371575 0.205228 0.332742 -0.933531 0.357433 -0.026887
-0.362971 0.192236 0.360925 -0.606433 0.132206 0.784020
-0.360938 0.210040 0.358263 -0.527635 0.527482 0.665822
-0.316735 0.228998 0.339838 0.622669 0.741966 0.248451
-0.333518 0.208365 0.361811 0.253334 0.405774 0.878140
-0.327372 0.228998 0.314318 0.445662 0.678915 -0.583453
-0.316735 0.228998 0.339838 -0.252351 0.909486 0.330385
-0.354793 0.228998 0.310769 -0.252351 0.909486 0.330385
-0.360938 0.210040 0.358263 -0.252351 0.909486 0.330385
3 0 1 2
3 1 3 2
3 4 5 3
3 6 7 5
3 8 9 7
3 9 10 0
3 11 12 13
3 7 3 5
3 14 10 15
3 7 9 0
3 10 13 15
3 16 17 18
3 19 12 20
3 21 19 20
3 21 22 23
3 3 0 2
3 14 4 1
3 24 25 14
3 15 24 14
3 12 26 13
3 8 20 12
3 26 15 13
3 22 25 23
3 24 26 19
3 19 21 23
3 20 4 22
3 0 10 1
3 1 4 3
3 4 6 5
3 6 8 7
3 8 11 9
3 9 11 10
3 11 8 12
3 14 1 10
3 10 11 13
3 27 28 29
3 21 20 22
3 3 7 0
3 14 22 4
3 12 19 26
3 8 6 20
3 26 24 15
3 22 14 25
3 20 6 4
