ply
format ascii 1.0
comment Created by Blender 2.77 (sub 0) - www.blender.org, source file: 'GiantTree0.blend'
element vertex 42
property float x
property float y
property float z
property float nx
property float ny
property float nz
element face 44
property list uchar uint vertex_indices
end_header
-0.875606 -0.123752 0.946271 -0.624073 -0.763298 -0.166997
-0.494003 -0.104685 0.941309 0.569445 -0.699118 0.432356
-0.886589 -0.109028 1.020789 -0.596545 -0.619251 0.510483
-0.408598 0.351972 0.148389 -0.769646 0.567339 -0.292795
-0.192036 0.484498 -0.040301 -0.057344 0.502304 -0.862758
-0.412593 0.296176 0.104281 -0.712333 -0.068941 -0.698416
-0.452560 0.179483 0.774603 0.426405 0.710593 0.559648
-0.121025 0.464996 0.065782 0.873714 0.450880 0.182501
-0.169507 0.507630 0.066773 0.361492 0.914212 0.182958
-0.143555 0.441863 -0.041291 0.507126 -0.049715 -0.860408
-0.307621 0.251505 0.151283 0.464766 -0.824152 -0.323588
-0.362105 0.245942 0.105729 -0.069796 -0.736625 -0.672658
-0.886699 0.021379 0.995004 -0.779382 0.571612 0.256478
-0.205012 0.517381 0.013731 -0.124912 0.949858 -0.286599
-0.629712 0.086965 1.024002 0.126347 0.580096 0.804651
-0.892135 -0.036462 1.045155 -0.672353 0.055788 0.738090
-0.875716 0.006654 0.920487 -0.926389 0.252480 -0.279275
-0.528241 -0.120026 0.874356 0.246315 -0.955748 -0.160802
-0.108049 0.432112 0.011751 0.941313 -0.104831 -0.320750
-0.468974 0.117328 0.380460 -0.077334 -0.891385 -0.446547
-0.870170 -0.065911 0.896121 -0.880795 -0.181463 -0.437269
-0.482755 -0.031891 0.962866 0.724601 -0.026734 0.688620
-0.401233 0.129834 0.777732 0.798181 0.288827 0.528611
-0.192036 0.484498 -0.040301 0.629001 0.721960 -0.288325
-0.108049 0.432112 0.011751 0.629001 0.721960 -0.288325
-0.143555 0.441863 -0.041291 0.629001 0.721960 -0.288325
-0.892135 -0.036462 1.045155 -0.989708 -0.028556 -0.140226
-0.875606 -0.123752 0.946271 -0.989708 -0.028556 -0.140226
-0.886589 -0.109028 1.020789 -0.989708 -0.028556 -0.140226
-0.596295 -0.028359 1.009968 0.249977 -0.249092 0.935636
-0.629712 0.086965 1.024002 0.383150 -0.001380 0.923685
-0.596295 -0.028359 1.009968 0.383150 -0.001380 0.923685
-0.482755 -0.031891 0.962866 0.383150 -0.001380 0.923685
-0.401233 0.129834 0.777732 0.941410 -0.109298 0.319064
-0.482755 -0.031891 0.962866 0.941410 -0.109298 0.319064
-0.121025 0.464996 0.065782 0.941410 -0.109298 0.319064
-0.192036 0.484498 -0.040301 0.629002 0.721959 -0.288326
-0.169507 0.507630 0.066773 0.629002 0.721959 -0.288326
-0.108049 0.432112 0.011751 0.629002 0.721959 -0.288326
-0.892135 -0.036462 1.045155 -0.989708 -0.028557 -0.140225
-0.875716 0.006654 0.920487 -0.989708 -0.028557 -0.140225
-0.875606 -0.123752 0.946271 -0.989708 -0.028557 -0.140225
3 0 1 2
3 3 4 5
3 6 7 8
3 9 10 11
3 4 11 5
3 12 13 3
3 14 6 8
3 13 8 4
3 15 12 16
3 16 12 3
3 17 11 10
3 17 10 18
3 17 19 11
3 16 20 0
3 1 17 18
3 0 5 11
3 6 21 22
3 23 24 25
3 14 13 12
3 8 7 18
3 26 27 28
3 0 20 5
3 19 0 11
3 15 29 14
3 0 19 17
3 29 2 1
3 1 7 21
3 29 1 21
3 12 15 14
3 30 31 32
3 33 34 35
3 3 20 16
3 0 17 1
3 3 13 4
3 6 22 7
3 9 18 10
3 4 9 11
3 6 14 21
3 36 37 38
3 14 8 13
3 39 40 41
3 15 2 29
3 1 18 7
3 3 5 20
