ply
format ascii 1.0
comment Created by Blender 2.77 (sub 0) - www.blender.org, source file: 'GiantTree0.blend'
element vertex 45
property float x
property float y
property float z
property float nx
property float ny
property float nz
element face 28
property list uchar uint vertex_indices
end_header
0.648247 0.105808 -0.112225 0.873470 0.253945 0.415357
0.617909 -0.006981 -0.183855 0.261940 -0.877834 -0.400891
0.654556 0.105823 -0.180440 0.887783 0.300546 -0.348491
0.172609 0.512733 -0.030902 -0.288980 0.420484 0.860012
0.626769 0.049398 -0.079824 0.510727 -0.308969 0.802271
0.212734 0.551119 -0.123532 0.182836 0.937895 -0.294748
0.162482 0.530220 -0.153961 -0.384198 0.616016 -0.687643
0.117293 0.500577 -0.122860 -0.930509 0.202704 -0.304971
0.217797 0.542376 -0.062003 0.224891 0.851527 0.473586
0.611601 -0.006997 -0.115639 0.216346 -0.891751 0.397412
0.343941 0.192203 -0.174429 -0.634327 -0.576250 -0.515275
0.639387 0.049429 -0.216256 0.579730 -0.256203 -0.773461
0.383520 0.235837 -0.205929 -0.136967 -0.015839 -0.990417
0.388137 0.225479 -0.072805 -0.166516 -0.263544 0.950167
0.626769 0.049398 -0.079824 -0.166516 -0.263544 0.950167
0.172609 0.512733 -0.030902 -0.166516 -0.263544 0.950167
0.162482 0.530220 -0.153961 0.334250 0.439568 -0.833701
0.654556 0.105823 -0.180440 0.334250 0.439568 -0.833701
0.639387 0.049429 -0.216256 0.334250 0.439568 -0.833701
0.388137 0.225479 -0.072805 -0.353873 -0.389738 0.850223
0.122357 0.491833 -0.061331 -0.353873 -0.389738 0.850223
0.346249 0.187025 -0.107867 -0.353873 -0.389738 0.850223
0.639387 0.049429 -0.216256 0.182295 0.302057 -0.935698
0.383520 0.235837 -0.205929 0.182295 0.302057 -0.935698
0.162482 0.530220 -0.153961 0.182295 0.302057 -0.935698
0.626769 0.049398 -0.079824 -0.305006 -0.450745 0.838928
0.346249 0.187025 -0.107867 -0.305006 -0.450745 0.838928
0.611601 -0.006997 -0.115639 -0.305006 -0.450745 0.838928
0.172609 0.512733 -0.030902 -0.460928 0.872540 0.161925
0.117293 0.500577 -0.122860 -0.460928 0.872540 0.161925
0.122357 0.491833 -0.061331 -0.460928 0.872540 0.161925
0.346249 0.187025 -0.107867 -0.610187 -0.658284 0.440748
0.162482 0.530220 -0.153961 0.328264 0.432990 -0.839501
0.212734 0.551119 -0.123532 0.328264 0.432990 -0.839501
0.654556 0.105823 -0.180440 0.328264 0.432990 -0.839501
0.388137 0.225479 -0.072805 -0.353284 -0.389172 0.850727
0.172609 0.512733 -0.030902 -0.353284 -0.389172 0.850727
0.122357 0.491833 -0.061331 -0.353284 -0.389172 0.850727
0.626769 0.049398 -0.079824 -0.301339 -0.442064 0.844852
0.388137 0.225479 -0.072805 -0.301339 -0.442064 0.844852
0.346249 0.187025 -0.107867 -0.301339 -0.442064 0.844852
0.172609 0.512733 -0.030902 -0.460927 0.872541 0.161925
0.212734 0.551119 -0.123532 -0.460927 0.872541 0.161925
0.117293 0.500577 -0.122860 -0.460927 0.872541 0.161925
0.122357 0.491833 -0.061331 -0.871639 0.101596 0.479476
3 0 1 2
3 0 3 4
3 5 6 7
3 0 5 8
3 9 10 1
3 11 10 12
3 8 5 3
3 13 14 15
3 16 17 18
3 19 20 21
3 22 23 24
3 25 26 27
3 10 6 12
3 28 29 30
3 9 0 4
3 31 7 10
3 1 11 2
3 0 9 1
3 0 8 3
3 0 2 5
3 9 31 10
3 11 1 10
3 32 33 34
3 35 36 37
3 38 39 40
3 10 7 6
3 41 42 43
3 31 44 7
