ply
format ascii 1.0
comment Created by Blender 2.77 (sub 0) - www.blender.org, source file: 'GiantTree0.blend'
element vertex 13
property float x
property float y
property float z
property float nx
property float ny
property float nz
element face 22
property list uchar uint vertex_indices
end_header
-1.568373 -0.017632 1.519297 -0.038759 0.850398 -0.524674
-1.459773 -0.169603 1.606059 0.970031 -0.001556 0.242927
-1.481493 -0.147929 1.497530 0.682180 0.077303 -0.727042
-1.850449 -0.430044 1.757984 -0.660695 0.149113 0.735649
-1.872210 -0.451717 1.714534 -0.986267 -0.083132 0.142674
-1.741971 -0.516891 1.779723 0.094333 -0.595996 0.797388
-1.524892 -0.126204 1.671166 0.430921 0.352336 0.830744
-1.850409 -0.516891 1.627826 -0.706320 -0.543840 -0.453139
-1.741971 -0.538616 1.627798 0.187078 -0.862667 -0.469832
-1.590052 -0.169603 1.497558 -0.269723 -0.030152 -0.962462
-1.568373 -0.017632 1.606115 -0.001282 0.933897 0.357494
-1.676892 -0.495115 1.714561 0.740898 -0.627674 0.238838
-1.481493 -0.191327 1.540981 0.801813 -0.489425 -0.342784
3 0 1 2
3 3 4 5
3 6 3 5
3 4 0 7
3 8 5 7
3 5 4 7
3 7 0 9
3 8 7 9
3 4 3 10
3 0 4 10
3 3 6 10
3 10 6 1
3 6 5 1
3 0 10 1
3 1 5 11
3 8 12 11
3 5 8 11
3 12 1 11
3 12 8 2
3 9 0 2
3 8 9 2
3 1 12 2
