ply
format ascii 1.0
comment Created by Blender 2.77 (sub 0) - www.blender.org, source file: ''
element vertex 12
property float x
property float y
property float z
property float nx
property float ny
property float nz
element face 20
property list uchar uint vertex_indices
end_header
0.427313 -0.038503 -1.260407 -0.606494 0.766106 0.212622
0.513783 -0.097817 -1.202999 0.347972 0.091494 0.933012
0.487383 -0.038503 -1.226418 0.066256 0.768731 0.636097
0.952698 -0.312174 -1.995386 -0.016205 -0.793847 -0.607868
0.932177 -0.255804 -2.025969 -0.270119 -0.126957 -0.954405
0.964378 -0.197750 -2.014701 0.110813 0.556719 -0.823267
0.420044 -0.157132 -1.247559 -0.703848 -0.596423 0.385784
1.017101 -0.196068 -1.972849 0.744255 0.571062 -0.346294
0.480114 -0.157132 -1.213570 -0.034059 -0.587176 0.808710
1.037622 -0.252438 -1.942266 0.995392 -0.095553 -0.002777
0.393644 -0.097817 -1.270977 -0.992798 0.081729 0.087344
1.005420 -0.310491 -1.953535 0.616504 -0.776025 -0.132908
3 0 1 2
3 3 4 5
3 6 4 3
3 4 0 5
3 5 2 7
3 6 8 1
3 5 7 9
3 6 10 4
3 4 10 0
3 5 0 2
3 11 1 8
3 6 0 10
3 3 8 6
3 1 7 2
3 3 9 11
3 11 9 1
3 6 1 0
3 3 11 8
3 1 9 7
3 3 5 9
