ply
format ascii 1.0
comment Created by Blender 2.77 (sub 0) - www.blender.org, source file: ''
element vertex 12
property float x
property float y
property float z
property float nx
property float ny
property float nz
element face 20
property list uchar uint vertex_indices
end_header
-1.243849 -0.108329 -1.469370 0.018281 -0.612598 -0.790155
-1.261571 -0.036423 -1.489513 -0.190741 0.130406 -0.972930
-1.188717 -0.121182 -1.417549 0.609394 -0.742363 -0.278390
-1.662209 -0.005363 -0.913890 -0.556566 0.727256 0.401593
-1.224160 0.022629 -1.457835 0.193609 0.743248 -0.640339
-1.611869 -0.149251 -0.895908 -0.061098 -0.765374 0.640645
-1.593260 -0.018287 -0.882757 0.110721 0.580432 0.806726
-1.151306 -0.062129 -1.385871 0.989227 -0.136326 0.052889
-1.169027 0.009776 -1.406014 0.784020 0.607959 -0.125126
-1.680818 -0.136327 -0.927042 -0.736625 -0.633351 0.237037
-1.568090 -0.090230 -0.873765 0.346995 -0.156285 0.924741
-1.705987 -0.064383 -0.936033 -0.985839 0.115116 0.121677
3 0 1 2
3 3 4 1
3 5 0 2
3 6 7 8
3 9 5 10
3 4 8 7
3 3 10 6
3 11 9 3
3 1 11 3
3 5 9 0
3 4 2 1
3 6 10 7
3 3 9 10
3 2 10 5
3 6 4 3
3 11 0 9
3 4 7 2
3 2 7 10
3 6 8 4
3 11 1 0
