ply
format ascii 1.0
comment Created by Blender 2.77 (sub 0) - www.blender.org, source file: ''
element vertex 12
property float x
property float y
property float z
property float nx
property float ny
property float nz
element face 20
property list uchar uint vertex_indices
end_header
0.174824 0.014364 -0.689941 -0.555254 0.729240 0.399823
0.279305 -0.051730 -0.655674 0.537858 0.020936 0.842738
0.245699 0.013026 -0.668465 0.193152 0.714103 0.672842
0.480114 -0.157132 -1.213570 0.594714 -0.743553 -0.305582
0.420044 -0.157132 -1.247559 -0.110843 -0.743370 -0.659597
0.513783 -0.097817 -1.202999 0.979492 -0.068758 -0.189337
0.171159 -0.113810 -0.685835 -0.601093 -0.649098 0.466170
0.242035 -0.115148 -0.664359 0.144993 -0.656850 0.739921
0.393644 -0.097817 -1.270977 -0.431043 -0.059511 -0.900327
0.427313 -0.038503 -1.260407 -0.042207 0.621448 -0.782311
0.487383 -0.038503 -1.226418 0.664754 0.614643 -0.424604
0.137554 -0.049053 -0.698625 -0.953764 0.045900 0.296945
3 0 1 2
3 3 4 5
3 6 7 1
3 1 3 5
3 7 4 3
3 6 8 4
3 8 0 9
3 9 2 10
3 0 11 6
3 0 6 1
3 1 7 3
3 7 6 4
3 6 11 8
3 8 11 0
3 9 0 2
3 4 10 5
3 1 10 2
3 8 9 10
3 4 8 10
3 1 5 10
