ply
format ascii 1.0
comment Created by Blender 2.77 (sub 0) - www.blender.org, source file: 'GiantTree0.blend'
element vertex 26
property float x
property float y
property float z
property float nx
property float ny
property float nz
element face 48
property list uchar uint vertex_indices
end_header
1.904750 -0.343122 1.649513 0.687582 -0.617786 0.381481
1.818000 -0.082603 1.931603 0.639149 -0.321299 0.698721
1.644564 -0.147795 1.996738 -0.026215 -0.760277 0.649037
1.340525 -0.017659 1.519297 -0.843562 -0.186163 -0.503708
1.449137 0.242860 1.649513 -0.364055 0.911435 -0.191565
1.384059 0.004031 1.497530 -0.308420 0.214637 -0.926695
1.861407 -0.386624 1.519297 0.254524 -0.880062 -0.400861
1.861407 -0.386624 1.627801 0.344218 -0.898312 0.272927
1.818064 -0.386624 1.627801 -0.261727 -0.943052 0.205206
1.579358 0.199358 1.779730 -0.065310 0.874050 0.481399
1.557686 0.242860 1.649513 0.172613 0.931455 -0.320261
1.991691 -0.061099 1.497530 0.666097 0.329478 -0.669118
1.796265 0.090788 1.931603 0.538804 0.734642 0.412244
1.839671 0.025658 1.931603 0.777764 0.206854 0.593493
1.622765 -0.082727 2.061874 -0.146702 -0.342784 0.927854
1.991691 -0.147918 1.649513 0.942351 -0.100162 0.319224
1.405794 0.199358 1.671281 -0.800256 0.562944 0.206519
1.991691 -0.234614 1.497530 0.747612 -0.280923 -0.601733
1.340525 -0.017659 1.606090 -0.946898 -0.279427 0.158910
1.492544 -0.082665 1.909891 -0.825648 -0.276101 0.491958
1.622765 -0.039286 2.061874 -0.195898 0.244697 0.949583
1.991691 -0.039471 1.562721 0.857570 0.513718 -0.024415
1.557814 -0.147733 1.909891 -0.565691 -0.753410 0.335154
1.839735 -0.364873 1.497530 -0.054109 -0.502640 -0.862758
1.731186 0.069099 1.996738 0.214515 0.545701 0.810022
1.752922 -0.343184 1.519297 -0.494980 -0.734977 -0.463424
3 0 1 2
3 3 4 5
3 6 7 8
3 4 9 10
3 11 5 10
3 5 4 10
3 10 9 12
3 13 14 1
3 15 13 1
3 9 4 16
3 4 3 16
3 11 15 17
3 5 11 17
3 16 3 18
3 19 16 18
3 14 13 20
3 19 14 20
3 9 16 20
3 16 19 20
3 15 11 21
3 13 15 21
3 11 10 21
3 12 13 21
3 10 12 21
3 14 19 22
3 18 8 22
3 19 18 22
3 7 6 0
3 15 1 0
3 6 17 0
3 17 15 0
3 3 5 23
3 17 6 23
3 5 17 23
3 12 9 24
3 13 12 24
3 20 13 24
3 9 20 24
3 6 8 25
3 18 3 25
3 8 18 25
3 23 6 25
3 3 23 25
3 8 7 2
3 1 14 2
3 14 22 2
3 22 8 2
3 7 0 2
