ply
format ascii 1.0
comment Created by Blender 2.77 (sub 0) - www.blender.org, source file: 'GiantTree0.blend'
element vertex 16
property float x
property float y
property float z
property float nx
property float ny
property float nz
element face 28
property list uchar uint vertex_indices
end_header
0.525156 2.209034 -0.822152 -0.268197 0.323801 -0.907285
0.159082 1.955581 -0.719554 -0.509049 -0.766656 -0.391247
0.122515 2.017941 -0.723612 -0.892880 -0.069216 -0.444899
0.128645 2.067010 -0.670727 -0.896481 0.416791 0.150212
0.560538 2.146061 -0.817693 0.204291 -0.513718 -0.833247
0.201779 1.942292 -0.662609 -0.126377 -0.952086 0.278359
0.927516 2.467502 -0.800488 0.327433 0.692984 -0.642293
0.895239 2.491690 -0.742706 0.047456 0.998840 -0.004944
0.510270 2.246509 -0.762058 -0.454970 0.735618 -0.501816
0.207909 1.991362 -0.609724 -0.164434 -0.478835 0.862331
0.972498 2.413471 -0.795712 0.801447 0.056154 -0.595416
0.581032 2.120563 -0.753139 0.485580 -0.873897 -0.021332
0.907944 2.461846 -0.680147 0.229408 0.692373 0.684072
0.171342 2.053721 -0.613783 -0.544389 0.185278 0.818110
0.952926 2.407814 -0.675372 0.667379 0.045320 0.743309
0.985203 2.383626 -0.733154 0.956481 -0.269936 0.110721
3 0 1 2
3 3 0 2
3 4 5 1
3 6 4 0
3 7 0 8
3 3 5 9
3 10 11 4
3 10 6 7
3 9 12 13
3 12 14 15
3 7 13 12
3 12 10 7
3 2 1 5
3 11 15 5
3 13 3 9
3 9 15 14
3 7 8 3
3 0 4 1
3 3 8 0
3 4 11 5
3 6 10 4
3 7 6 0
3 3 2 5
3 10 15 11
3 9 14 12
3 7 3 13
3 12 15 10
3 9 5 15
