ply
format ascii 1.0
comment Created by Blender 2.77 (sub 0) - www.blender.org, source file: ''
element vertex 12
property float x
property float y
property float z
property float nx
property float ny
property float nz
element face 20
property list uchar uint vertex_indices
end_header
-0.702302 0.310617 -1.923267 0.502182 0.475539 -0.722251
-0.827407 0.020170 -1.902408 -0.512894 -0.607654 -0.606342
-0.773007 0.339800 -1.916985 -0.258980 0.704184 -0.661092
-0.859139 0.027165 -1.832878 -0.841456 -0.528214 0.113498
-0.803814 0.351147 -1.847614 -0.582965 0.810297 0.059633
-0.763917 0.333310 -1.784524 -0.146458 0.683432 0.715140
-0.738151 0.028962 -1.777840 0.406781 -0.603168 0.686056
-0.751045 0.017571 -1.909653 0.277657 -0.683981 -0.674551
-0.706418 0.021967 -1.847369 0.730644 -0.682211 -0.026337
-0.814512 0.031561 -1.770594 -0.378857 -0.524644 0.762352
-0.662405 0.292780 -1.860178 0.928220 0.365734 -0.067812
-0.693212 0.304126 -1.790806 0.611408 0.464949 0.640248
3 0 1 2
3 2 3 4
3 3 5 4
3 1 6 3
3 7 8 1
3 6 9 3
3 0 7 1
3 2 1 3
3 3 9 5
3 1 8 6
3 6 10 11
3 2 4 5
3 10 0 2
3 9 11 5
3 10 7 0
3 10 5 11
3 6 8 10
3 9 6 11
3 10 8 7
3 10 2 5
