ply
format ascii 1.0
comment Created by Blender 2.77 (sub 0) - www.blender.org, source file: ''
element vertex 12
property float x
property float y
property float z
property float nx
property float ny
property float nz
element face 20
property list uchar uint vertex_indices
end_header
0.651705 0.363282 -1.469492 -0.144078 0.556658 -0.818110
0.964926 -0.205798 -1.402944 0.916318 -0.289438 -0.276620
0.909228 -0.227001 -1.451301 0.347301 -0.528062 -0.774895
0.702109 0.395878 -1.421667 0.397809 0.858669 -0.323130
0.953647 -0.210124 -1.327153 0.797296 -0.326853 0.507370
0.625127 0.363282 -1.318314 -0.403912 0.529374 0.746025
0.886670 -0.235654 -1.299719 0.108860 -0.602771 0.790429
0.588012 0.330686 -1.441727 -0.810724 0.245552 -0.531419
0.688820 0.395878 -1.346079 0.267434 0.846004 0.461196
0.574722 0.330686 -1.366138 -0.941496 0.230110 0.246193
0.830973 -0.256858 -1.348077 -0.457656 -0.840571 0.289743
0.842252 -0.252532 -1.423868 -0.337779 -0.803095 -0.490829
3 0 1 2
3 3 4 1
3 5 6 4
3 7 8 3
3 5 8 9
3 6 10 11
3 3 0 7
3 0 3 1
3 3 8 4
3 4 8 5
3 7 9 8
3 2 6 11
3 6 9 10
3 10 7 11
3 2 1 4
3 2 7 0
3 2 4 6
3 6 5 9
3 10 9 7
3 2 11 7
