ply
format ascii 1.0
comment Created by Blender 2.77 (sub 0) - www.blender.org, source file: ''
element vertex 12
property float x
property float y
property float z
property float nx
property float ny
property float nz
element face 20
property list uchar uint vertex_indices
end_header
-0.414965 2.498733 -0.216444 0.078219 -0.944212 0.319834
-0.668051 2.643009 -0.270221 -0.846492 -0.279855 -0.452864
-0.421004 2.505666 -0.288262 0.040010 -0.884762 -0.464278
-0.379538 2.553320 -0.323645 0.420301 -0.317209 -0.850093
-0.597687 2.746816 -0.270161 -0.121952 0.883755 -0.451735
-0.332033 2.594040 -0.287212 0.875607 0.197333 -0.440840
-0.626656 2.690721 -0.305609 -0.465926 0.289010 -0.836268
-0.325993 2.587106 -0.215394 0.926176 0.133610 0.352580
-0.367460 2.539453 -0.180010 0.514664 -0.436628 0.737846
-0.680478 2.651392 -0.199386 -0.907193 -0.242653 0.343669
-0.651510 2.707486 -0.163939 -0.570238 0.364330 0.736259
-0.610114 2.755198 -0.199326 -0.164342 0.927702 0.335154
3 0 1 2
3 3 4 5
3 4 6 1
3 7 8 0
3 2 3 0
3 0 9 1
3 3 6 4
3 9 4 1
3 3 7 0
3 4 7 5
3 10 0 8
3 8 11 10
3 2 6 3
3 9 10 11
3 9 11 4
3 3 5 7
3 4 11 7
3 10 9 0
3 8 7 11
3 2 1 6
