ply
format ascii 1.0
comment Created by Blender 2.77 (sub 0) - www.blender.org, source file: 'GiantTree0.blend'
element vertex 15
property float x
property float y
property float z
property float nx
property float ny
property float nz
element face 26
property list uchar uint vertex_indices
end_header
0.667556 -0.321494 -1.823739 0.447645 -0.472884 -0.758904
0.754371 0.220978 -1.650097 0.708457 0.299356 -0.639088
0.732661 -0.212885 -1.693507 0.983093 -0.096622 -0.155431
0.559125 -0.321494 -1.823739 -0.496902 -0.523545 -0.692038
0.537345 -0.364899 -1.650097 -0.579608 -0.734092 0.353648
0.754371 0.286246 -1.606718 0.482620 0.875515 -0.022645
0.580811 0.199307 -1.584981 -0.813776 0.580767 0.021699
0.602474 0.177700 -1.498128 -0.493545 0.421613 0.760643
0.754394 0.112560 -1.498128 0.680990 0.031739 0.731590
0.624207 -0.343101 -1.628423 0.190832 -0.656301 0.729942
0.710975 -0.343165 -1.693507 0.707694 -0.697623 0.111637
0.624207 0.199307 -1.671770 -0.425733 0.567400 -0.704825
0.515682 -0.191214 -1.715212 -0.989898 0.091494 -0.108097
0.602474 0.090826 -1.498128 -0.504959 -0.105258 0.856685
0.559125 -0.256354 -1.823739 -0.486862 0.164983 -0.857723
3 0 1 2
3 3 0 4
3 5 6 7
3 8 5 7
3 8 9 10
3 4 0 10
3 9 4 10
3 6 5 11
3 3 4 12
3 4 7 12
3 7 6 12
3 6 11 12
3 5 8 1
3 11 5 1
3 9 8 13
3 4 9 13
3 7 4 13
3 8 7 13
3 0 3 14
3 3 12 14
3 12 11 14
3 1 0 14
3 11 1 14
3 10 0 2
3 8 10 2
3 1 8 2
