ply
format ascii 1.0
comment Created by Blender 2.77 (sub 0) - www.blender.org, source file: 'GiantTree0.blend'
element vertex 22
property float x
property float y
property float z
property float nx
property float ny
property float nz
element face 40
property list uchar uint vertex_indices
end_header
-0.027186 -0.039348 0.303608 0.377300 0.623066 -0.685110
-0.634711 0.134286 0.889664 0.151250 0.986755 -0.058107
-0.656436 0.134286 0.976431 0.228187 0.851222 0.472549
-0.743411 0.047451 1.041669 -0.469558 -0.226966 0.853206
-0.743411 0.090832 1.041669 -0.479263 0.391247 0.785607
-0.743411 0.134322 0.889664 -0.693228 0.702414 -0.161260
-0.613063 0.090832 0.976431 0.600421 0.235969 0.764061
-0.396123 -0.126146 0.781224 0.358623 -0.649129 0.670797
-0.113931 -0.234689 0.303608 0.032044 -0.731010 -0.681570
-0.157304 -0.234689 0.455541 0.019257 -0.994659 0.101352
-0.395970 -0.191200 0.607618 -0.295541 -0.954344 0.043153
-0.352673 -0.126146 0.303681 -0.408155 -0.502029 -0.762444
-0.396046 -0.039420 0.303681 -0.508896 0.326914 -0.796289
-0.721610 -0.039348 0.867991 -0.659108 -0.744804 -0.103885
-0.222478 -0.017675 0.303681 0.027772 0.648091 -0.761010
0.016264 -0.212945 0.347100 0.802911 -0.559191 -0.206397
0.016264 -0.061092 0.325354 0.866848 0.405805 -0.289590
-0.027186 -0.126146 0.433867 0.792657 0.090213 0.602924
-0.743411 -0.017675 0.998177 -0.566088 -0.623646 0.539018
-0.743411 0.004034 0.846245 -0.927549 -0.191076 -0.321085
-0.439572 0.004034 0.846245 0.660970 0.160222 0.733085
-0.157304 -0.212945 0.542452 0.434889 -0.691549 0.576678
3 0 1 2
3 3 4 5
3 4 3 6
3 3 7 6
3 8 9 10
3 8 10 11
3 12 8 11
3 10 13 11
3 12 5 14
3 14 5 1
3 9 8 15
3 16 17 15
3 3 5 18
3 7 3 18
3 13 10 18
3 10 7 18
3 5 12 19
3 12 11 19
3 11 13 19
3 13 18 19
3 18 5 19
3 8 12 0
3 12 14 0
3 14 1 0
3 15 8 0
3 16 15 0
3 16 6 20
3 6 7 20
3 17 16 20
3 17 20 21
3 10 9 21
3 7 10 21
3 9 15 21
3 15 17 21
3 20 7 21
3 5 4 2
3 4 6 2
3 6 16 2
3 1 5 2
3 16 0 2
