ply
format ascii 1.0
comment Created by Blender 2.77 (sub 0) - www.blender.org, source file: 'GiantTree0.blend'
element vertex 24
property float x
property float y
property float z
property float nx
property float ny
property float nz
element face 44
property list uchar uint vertex_indices
end_header
-1.980801 -0.408327 -0.955571 -0.436201 -0.829798 0.348003
-2.197764 -0.299786 -1.367855 -0.606403 -0.781426 -0.146947
-2.154371 -0.321456 -1.346183 -0.181188 -0.945036 -0.272073
-2.327995 0.242792 -2.018917 0.157964 0.966582 0.201849
-2.371387 0.242792 -2.018917 -0.386883 0.897977 0.209601
-1.893962 -0.256446 -0.825283 -0.339122 0.565325 0.751885
-2.284655 0.242792 -2.105862 0.421186 0.673025 -0.607929
-2.045969 -0.343190 -1.281039 0.216681 -0.893460 -0.393384
-2.284655 0.090847 -2.105862 0.307627 -0.474929 -0.824458
-1.872292 -0.408327 -1.020716 0.668386 -0.736381 -0.104617
-2.219487 -0.256382 -1.281039 -0.903500 -0.299081 0.306864
-2.306325 0.069177 -1.650106 -0.562456 0.682211 0.467086
-2.241263 0.134251 -2.062390 0.886196 -0.002228 -0.463271
-1.872292 -0.299786 -1.064061 0.972411 0.046876 -0.228370
-1.872292 -0.256446 -0.825283 0.654073 0.472488 0.590686
-2.110979 -0.278116 -1.085860 -0.841060 -0.000763 0.540910
-2.393110 0.090847 -2.083934 -0.629078 -0.533189 -0.565600
-2.414833 0.221058 -2.105862 -0.682699 0.431715 -0.589496
-1.893962 -0.343190 -0.803483 0.151830 -0.400861 0.903439
-2.327995 -0.017630 -1.606761 -0.919126 0.154027 0.362590
-2.371441 0.025774 -1.780267 -0.968993 -0.219306 0.113651
-1.872292 -0.256446 -0.998917 0.940611 0.337504 -0.036531
-2.197764 -0.191309 -1.259494 -0.793481 0.334605 0.508286
-2.414833 0.177655 -1.997245 -0.956999 0.215308 0.194281
3 0 1 2
3 3 4 5
3 4 3 6
3 7 8 9
3 0 10 1
3 5 4 11
3 8 6 12
3 6 13 12
3 9 8 12
3 13 9 12
3 3 5 14
3 6 3 14
3 9 13 14
3 10 0 15
3 8 16 17
3 6 8 17
3 4 6 17
3 0 9 18
3 14 5 18
3 9 14 18
3 15 0 18
3 5 15 18
3 10 19 20
3 1 10 20
3 16 1 20
3 13 6 21
3 6 14 21
3 14 13 21
3 19 10 22
3 5 11 22
3 11 19 22
3 10 15 22
3 15 5 22
3 11 4 23
3 19 11 23
3 17 16 23
3 4 17 23
3 20 19 23
3 16 20 23
3 8 7 2
3 16 8 2
3 7 9 2
3 9 0 2
3 1 16 2
