ply
format ascii 1.0
comment Created by Blender 2.77 (sub 0) - www.blender.org, source file: ''
element vertex 16
property float x
property float y
property float z
property float nx
property float ny
property float nz
element face 28
property list uchar uint vertex_indices
end_header
-0.017195 -0.053546 0.288573 -0.574725 -0.590258 -0.566759
-0.235635 -0.070158 0.536237 -0.978973 -0.190710 -0.072024
0.075946 -0.005456 0.148605 -0.377300 0.092746 -0.921415
0.098521 -0.021258 0.384116 0.784692 0.079470 0.614734
-0.128706 -0.039127 0.641898 0.144902 0.137822 0.979766
-0.145050 -0.111968 0.624084 -0.016968 -0.612476 0.790277
-0.198515 -0.127483 0.571254 -0.581439 -0.772210 0.256142
0.087505 -0.093336 0.360166 0.610920 -0.734092 0.296396
0.200482 0.035368 0.227168 0.873043 0.486190 -0.036958
0.141420 -0.043626 0.138949 0.225166 -0.377331 -0.898251
0.029647 -0.109480 0.312395 -0.111332 -0.947478 -0.299753
0.203688 -0.023214 0.178230 0.866726 -0.175634 -0.466781
0.072739 0.053126 0.197542 -0.292062 0.773034 -0.563097
0.135007 0.073538 0.236824 0.277688 0.953459 -0.117252
-0.165825 0.018198 0.606881 -0.257393 0.715781 0.649129
-0.219290 0.002683 0.554051 -0.824061 0.552202 0.126347
3 0 1 2
3 3 4 5
3 0 6 1
3 7 8 3
3 9 7 10
3 2 10 0
3 4 3 8
3 9 2 11
3 12 13 8
3 5 7 3
3 0 10 6
3 7 11 8
3 9 11 7
3 2 9 10
3 8 2 12
3 4 13 14
3 12 14 13
3 6 5 1
3 12 1 15
3 14 1 5
3 5 4 14
3 6 7 5
3 8 11 2
3 4 8 13
3 12 15 14
3 12 2 1
3 14 15 1
3 6 10 7
