ply
format ascii 1.0
comment Created by Blender 2.77 (sub 0) - www.blender.org, source file: 'GiantTree0.blend'
element vertex 18
property float x
property float y
property float z
property float nx
property float ny
property float nz
element face 32
property list uchar uint vertex_indices
end_header
-1.447791 0.512101 -0.001818 -0.249336 0.712638 0.655690
-1.421558 0.512101 -0.012392 0.617725 0.620197 0.483413
-1.417599 0.512101 -0.040397 0.557848 0.707541 -0.433729
-1.466105 0.485725 -0.047254 -0.705771 0.382702 -0.596118
-1.439873 0.485816 -0.057828 0.054567 0.292795 -0.954588
-1.438196 0.072944 -0.069688 0.139714 0.014008 -0.990081
-1.475538 0.072944 -0.054636 -0.787408 0.014435 -0.616230
-1.438196 -0.128038 -0.069688 0.110904 -0.609973 -0.784600
-1.406490 0.072944 -0.044875 0.927396 0.013550 -0.373821
-1.406490 -0.128038 -0.044875 0.734916 -0.609973 -0.296243
-1.412125 0.072944 -0.005010 0.787439 0.013550 0.616230
-1.412125 -0.128038 -0.005010 0.624012 -0.609973 0.488357
-1.449467 -0.128038 0.010042 -0.110904 -0.609973 0.784600
-1.449467 0.072944 0.010042 -0.140080 0.013764 0.990020
-1.481174 -0.128038 -0.014771 -0.734916 -0.609973 0.296243
-1.481174 0.072944 -0.014771 -0.927427 0.014191 0.373699
-1.475538 -0.128038 -0.054636 -0.624012 -0.609973 -0.488357
-1.470064 0.498001 -0.019249 -0.817927 0.558123 0.139348
3 0 1 2
3 3 2 4
3 3 5 6
3 7 8 9
3 9 10 11
3 10 12 11
3 13 14 12
3 15 16 14
3 6 7 16
3 0 10 1
3 13 17 15
3 2 8 5
3 4 2 5
3 3 15 17
3 9 16 7
3 0 3 17
3 9 11 12
3 10 2 1
3 16 12 14
3 3 4 5
3 7 5 8
3 9 8 10
3 10 13 12
3 13 15 14
3 15 6 16
3 6 5 7
3 0 13 10
3 13 0 17
3 3 6 15
3 0 2 3
3 10 8 2
3 16 9 12
