ply
format ascii 1.0
comment Created by Blender 2.77 (sub 0) - www.blender.org, source file: 'GiantTree0.blend'
element vertex 23
property float x
property float y
property float z
property float nx
property float ny
property float nz
element face 42
property list uchar uint vertex_indices
end_header
-1.546685 0.025777 -1.563148 0.722526 0.687582 -0.071841
-2.110915 0.177674 -0.282677 0.510788 0.487869 0.707816
-1.524887 -0.039327 -1.519649 0.957274 0.134404 0.255928
-2.089270 0.069191 -0.282677 0.604816 -0.115055 0.787988
-2.154282 0.199398 -0.282677 0.091830 0.737388 0.669149
-2.262814 0.004155 -0.282677 -0.534349 -0.608448 0.586657
-1.524887 -0.039327 -1.541465 0.974029 0.119724 -0.192145
-1.524887 -0.082740 -1.541465 0.855586 -0.411420 -0.314127
-1.568407 0.025777 -1.628195 0.509720 0.407147 -0.757866
-1.720306 -0.147844 -1.563014 -0.288919 -0.794549 -0.534013
-1.611774 -0.147844 -1.454601 0.296274 -0.943083 0.150822
-2.241092 0.069191 -0.521452 -0.935972 -0.227821 -0.268380
-2.089270 0.025845 -0.998600 -0.896390 -0.278237 -0.344981
-1.742028 -0.039327 -1.606379 -0.638142 -0.029328 -0.769341
-2.262814 0.199398 -0.304627 -0.543443 0.726768 0.420026
-2.132636 0.004155 -0.282677 0.260170 -0.645833 0.717734
-2.002383 0.134294 -1.085598 -0.435652 0.827570 -0.354015
-1.959092 0.155950 -0.868505 0.190435 0.981445 -0.022126
-2.002459 -0.060982 -1.085598 -0.645894 -0.727592 -0.231086
-1.655218 0.025777 -1.650011 -0.079897 0.412763 -0.907315
-2.089270 0.069157 -0.998600 -0.876614 0.285745 -0.387127
-1.546685 -0.126120 -1.519649 0.683432 -0.708640 -0.175176
-2.306257 0.112537 -0.304493 -0.906674 0.088168 0.412427
3 0 1 2
3 3 4 5
3 6 7 8
3 7 9 8
3 5 9 10
3 5 11 12
3 9 12 13
3 5 4 14
3 3 5 15
3 5 10 15
3 4 3 1
3 8 16 17
3 16 14 17
3 14 4 17
3 17 4 0
3 6 8 0
3 4 1 0
3 8 17 0
3 9 5 18
3 12 9 18
3 5 12 18
3 16 8 19
3 8 9 19
3 13 16 19
3 9 13 19
3 12 11 20
3 16 13 20
3 13 12 20
3 14 16 20
3 7 3 21
3 9 7 21
3 10 9 21
3 3 15 21
3 15 10 21
3 11 5 22
3 5 14 22
3 20 11 22
3 14 20 22
3 7 6 2
3 3 7 2
3 1 3 2
3 6 0 2
