ply
format ascii 1.0
comment Created by Blender 2.77 (sub 0) - www.blender.org, source file: ''
element vertex 12
property float x
property float y
property float z
property float nx
property float ny
property float nz
element face 20
property list uchar uint vertex_indices
end_header
-0.708872 -0.228609 -1.743860 0.392285 -0.501907 0.770806
-0.706418 0.021967 -1.847369 0.767327 0.623920 -0.147862
-0.738151 0.028962 -1.777840 0.439100 0.693655 0.570940
-0.725289 -0.259577 -1.872087 0.231269 -0.777490 -0.584796
-0.751045 0.017571 -1.909653 0.314188 0.535691 -0.783776
-0.797442 -0.233589 -1.869126 -0.557146 -0.654592 -0.510941
-0.827407 0.020170 -1.902408 -0.489914 0.512833 -0.704917
-0.814512 0.031561 -1.770594 -0.356182 0.662862 0.658559
-0.859139 0.027165 -1.832878 -0.819971 0.572100 0.017609
-0.681004 -0.257087 -1.809454 0.697378 -0.714072 0.060976
-0.781025 -0.202620 -1.740898 -0.396466 -0.408673 0.822047
-0.825311 -0.205111 -1.803532 -0.841121 -0.502914 0.198859
3 0 1 2
3 1 3 4
3 4 5 6
3 7 6 8
3 3 9 0
3 10 11 5
3 2 1 7
3 0 9 1
3 1 9 3
3 4 3 5
3 5 0 10
3 6 1 4
3 11 6 5
3 2 10 0
3 7 11 10
3 5 3 0
3 6 7 1
3 11 8 6
3 2 7 10
3 7 8 11
