ply
format ascii 1.0
comment Created by Blender 2.77 (sub 0) - www.blender.org, source file: ''
element vertex 12
property float x
property float y
property float z
property float nx
property float ny
property float nz
element face 20
property list uchar uint vertex_indices
end_header
0.030024 0.330904 0.143615 -0.943266 0.320811 0.085299
0.071535 0.358022 0.180475 -0.437941 0.732505 0.521165
0.042910 0.322042 0.083843 -0.742515 0.113346 -0.660146
0.117944 0.137878 0.260334 -0.556719 -0.560411 0.613147
0.153342 0.181097 0.288371 -0.089724 -0.058901 0.994201
0.125932 0.376276 0.157564 0.266335 0.930876 0.249916
0.213358 0.187644 0.272181 0.647053 0.073550 0.758873
0.142563 0.101206 0.216107 -0.280190 -0.959655 -0.022523
0.202579 0.107754 0.199917 0.472762 -0.842280 -0.258858
0.237976 0.150972 0.227954 0.939055 -0.319315 0.127293
0.097307 0.340296 0.060932 -0.027985 0.322275 -0.946226
0.138818 0.367413 0.097793 0.485153 0.725700 -0.487777
3 0 1 2
3 1 3 4
3 5 4 6
3 0 7 3
3 7 8 9
3 6 4 9
3 1 0 3
3 5 1 4
3 2 7 0
3 2 5 10
3 11 10 5
3 10 7 2
3 5 9 11
3 11 8 10
3 7 4 3
3 2 1 5
3 10 8 7
3 5 6 9
3 11 9 8
3 7 9 4
