ply
format ascii 1.0
comment Created by Blender 2.77 (sub 0) - www.blender.org, source file: 'GiantTree0.blend'
element vertex 22
property float x
property float y
property float z
property float nx
property float ny
property float nz
element face 28
property list uchar uint vertex_indices
end_header
-0.325993 2.587106 -0.215394 0.212836 0.850002 0.481826
-0.245635 2.323142 -0.227489 0.404584 -0.042848 0.913480
-0.189439 2.345519 -0.267283 0.897397 0.183203 0.401318
-0.379538 2.553320 -0.323645 -0.440962 0.591693 -0.674856
-0.197246 2.355486 -0.338571 0.792871 0.310190 -0.524461
-0.261249 2.343075 -0.370065 0.145512 0.203711 -0.968139
-0.332033 2.594040 -0.287212 0.133671 0.942045 -0.307596
-0.179991 2.056376 -0.303844 0.752495 -0.568560 0.332286
-0.239559 2.053464 -0.263289 0.133091 -0.648823 0.749168
-0.304040 2.045022 -0.294475 -0.965454 -0.246292 0.085084
-0.421004 2.505666 -0.288262 -0.965454 -0.246292 0.085084
-0.308952 2.039494 -0.366217 -0.965454 -0.246292 0.085084
-0.184903 2.050848 -0.375586 0.700095 -0.550432 -0.454817
-0.249384 2.042407 -0.406772 0.004395 -0.610096 -0.792291
-0.304040 2.045022 -0.294475 -0.538713 -0.727226 0.425336
-0.308952 2.039494 -0.366217 -0.617450 -0.699362 -0.359966
-0.421004 2.505666 -0.288262 -0.938475 0.221992 -0.264443
-0.367460 2.539453 -0.180010 -0.276528 0.411878 0.868252
-0.414965 2.498733 -0.216444 -0.866756 0.126988 0.482284
-0.304040 2.045022 -0.294475 -0.967450 -0.246427 0.057562
-0.414965 2.498733 -0.216444 -0.967450 -0.246427 0.057562
-0.421004 2.505666 -0.288262 -0.967450 -0.246427 0.057562
3 0 1 2
3 3 4 5
3 6 2 4
3 7 1 8
3 9 10 11
3 5 12 13
3 4 7 12
3 13 14 15
3 13 16 3
3 8 1 17
3 18 8 17
3 7 8 14
3 18 3 16
3 0 3 18
3 17 0 18
3 7 13 12
3 5 13 3
3 0 17 1
3 3 6 4
3 6 0 2
3 7 2 1
3 19 20 21
3 5 4 12
3 4 2 7
3 13 15 16
3 18 14 8
3 0 6 3
3 7 14 13
