ply
format ascii 1.0
comment Created by Blender 2.77 (sub 0) - www.blender.org, source file: 'GiantTree0.blend'
element vertex 16
property float x
property float y
property float z
property float nx
property float ny
property float nz
element face 28
property list uchar uint vertex_indices
end_header
1.145041 -0.169471 -0.087219 0.563219 -0.551164 0.615619
1.188545 0.112540 -0.108886 0.593768 0.497635 0.632252
1.014885 -0.039357 -0.087219 -0.124668 0.139927 0.982269
0.732710 -0.104450 -0.130622 -0.736167 0.206946 0.644337
0.732710 -0.212963 -0.152289 -0.625874 -0.612415 0.482894
0.971470 -0.234672 -0.326044 0.081912 -0.992096 0.094943
1.188545 0.134322 -0.239096 0.649342 0.721946 -0.238899
0.819629 -0.126196 -0.803412 0.201972 0.076846 -0.976348
0.754484 -0.082740 -0.781676 -0.571581 0.511155 -0.641835
1.079985 0.134322 -0.152289 -0.257546 0.889431 0.377514
0.971470 -0.234672 -0.651465 0.519181 -0.731132 -0.442549
0.754529 -0.234709 -0.738272 -0.542467 -0.696890 -0.469100
1.188545 0.025737 -0.239096 0.975280 -0.128361 -0.179815
0.754484 -0.061030 -0.174026 -0.688498 0.703543 0.175939
0.993200 -0.147869 -0.651465 0.784356 0.093417 -0.613208
1.036570 -0.234672 -0.499517 0.612445 -0.765374 -0.197668
3 0 1 2
3 0 3 4
3 5 0 4
3 6 7 8
3 4 3 8
3 6 8 9
3 7 10 11
3 5 4 11
3 8 7 11
3 4 8 11
3 12 6 1
3 0 12 1
3 6 9 1
3 9 3 1
3 8 3 13
3 3 9 13
3 9 8 13
3 6 12 14
3 7 6 14
3 10 7 14
3 10 14 15
3 12 0 15
3 0 5 15
3 5 11 15
3 11 10 15
3 14 12 15
3 3 0 2
3 1 3 2
