ply
format ascii 1.0
comment Created by Blender 2.77 (sub 0) - www.blender.org, source file: 'GiantTree0.blend'
element vertex 22
property float x
property float y
property float z
property float nx
property float ny
property float nz
element face 40
property list uchar uint vertex_indices
end_header
-2.197738 -0.495167 1.866560 -0.552995 -0.523423 0.648183
-2.284598 -0.408272 1.584295 -0.965728 -0.217383 0.141728
-2.241168 -0.473443 1.497524 -0.501358 -0.825495 -0.259133
-2.176134 0.003944 1.020025 0.530290 0.841548 -0.102634
-2.219468 0.003944 1.020025 -0.091952 0.991516 0.091769
-2.306297 -0.017726 1.106970 -0.529710 0.809137 0.254280
-2.045939 -0.343208 1.844693 0.397504 0.703269 0.589373
-2.111069 -0.473443 1.497524 0.494095 -0.783837 -0.376049
-2.154467 -0.147908 0.976639 0.583483 -0.229621 -0.778954
-2.002541 -0.495167 1.844693 0.960234 -0.267098 0.080874
-2.132768 -0.082844 0.998419 0.845668 0.203589 -0.493301
-2.002541 -0.408325 1.866560 0.728385 0.227821 0.646138
-2.197738 -0.386655 1.866560 -0.566607 0.253243 0.784082
-2.328028 -0.213026 1.280336 -0.991852 0.058077 0.113163
-2.306265 -0.191409 0.976639 -0.573016 -0.400861 -0.714774
-2.306329 -0.321484 1.367281 -0.935057 -0.346751 -0.073489
-2.024240 -0.538614 1.866560 0.413160 -0.739921 0.530808
-2.219468 -0.495167 1.562602 -0.396435 -0.912412 -0.101444
-2.176070 -0.343314 1.844693 -0.315744 0.709037 0.630482
-2.328028 -0.039450 1.041717 -0.847041 0.439528 -0.298776
-2.197897 -0.191409 0.976639 0.232215 -0.538896 -0.809687
-2.219468 0.003944 0.976639 -0.036622 0.702811 -0.710410
3 0 1 2
3 3 4 5
3 6 3 5
3 7 8 9
3 9 8 10
3 9 10 11
3 3 6 11
3 6 12 11
3 12 0 11
3 10 3 11
3 12 5 13
3 14 15 13
3 7 9 16
3 17 7 16
3 0 17 16
3 9 11 16
3 11 0 16
3 0 12 1
3 12 13 1
3 13 15 1
3 12 6 18
3 6 5 18
3 5 12 18
3 13 5 19
3 14 13 19
3 8 7 20
3 7 14 20
3 14 8 20
3 4 3 21
3 5 4 21
3 8 14 21
3 3 10 21
3 10 8 21
3 19 5 21
3 14 19 21
3 15 14 2
3 14 7 2
3 7 17 2
3 17 0 2
3 1 15 2
