ply
format ascii 1.0
comment Created by Blender 2.77 (sub 0) - www.blender.org, source file: 'GiantTree0.blend'
element vertex 18
property float x
property float y
property float z
property float nx
property float ny
property float nz
element face 20
property list uchar uint vertex_indices
end_header
-0.342751 0.763183 -1.691221 -0.855220 -0.099887 0.508499
-0.063785 0.773597 -1.602667 0.459700 -0.491470 0.739647
-0.081565 0.844956 -1.580712 0.216956 0.233375 0.947844
-0.304584 0.698053 -1.705058 -0.507981 -0.790735 0.341502
-0.032283 0.761376 -1.671576 0.788263 -0.614124 0.038118
-0.273611 0.685670 -1.774178 -0.181890 -0.914640 -0.361003
-0.018560 0.820514 -1.718531 0.880642 -0.017396 -0.473403
-0.318973 0.803548 -1.815623 -0.551744 0.347118 -0.758324
-0.036341 0.891872 -1.696576 0.644398 0.714866 -0.271432
-0.349946 0.815931 -1.746503 -0.880276 0.472427 -0.043306
-0.067843 0.904094 -1.627667 0.312326 0.840968 0.441816
-0.273611 0.685670 -1.774178 -0.848933 -0.433150 -0.302811
-0.342751 0.763183 -1.691221 -0.848933 -0.433150 -0.302811
-0.318973 0.803548 -1.815623 -0.848933 -0.433150 -0.302811
-0.280805 0.738417 -1.829461 -0.198065 -0.348888 -0.915983
-0.273611 0.685670 -1.774178 -0.848933 -0.433151 -0.302810
-0.304584 0.698053 -1.705058 -0.848933 -0.433151 -0.302810
-0.342751 0.763183 -1.691221 -0.848933 -0.433151 -0.302810
3 0 1 2
3 3 4 1
3 5 6 4
3 6 7 8
3 8 9 10
3 10 0 2
3 10 1 6
3 11 12 13
3 7 0 9
3 8 10 6
3 4 6 1
3 7 14 5
3 0 3 1
3 3 5 4
3 5 14 6
3 6 14 7
3 8 7 9
3 10 9 0
3 10 2 1
3 15 16 17
