ply
format ascii 1.0
comment Created by Blender 2.77 (sub 0) - www.blender.org, source file: ''
element vertex 12
property float x
property float y
property float z
property float nx
property float ny
property float nz
element face 20
property list uchar uint vertex_indices
end_header
0.939851 -0.073980 -1.025705 0.283181 -0.772668 -0.568102
0.981826 -0.019423 -0.938421 0.871364 -0.109684 0.478195
0.961157 -0.073980 -0.965166 0.610096 -0.776940 0.155248
0.489757 -0.011491 -0.770997 -0.795770 -0.604694 0.032411
0.527787 -0.014421 -0.722507 -0.354289 -0.630970 0.690146
0.552312 0.037246 -0.699374 -0.065004 0.031312 0.997375
0.959882 0.035134 -1.032755 0.490188 0.590930 -0.640675
0.981188 0.035134 -0.972216 0.811823 0.576952 0.089419
0.500778 0.094772 -0.773219 -0.646504 0.762902 -0.002655
0.538808 0.091842 -0.724730 -0.205023 0.726279 0.656056
0.476253 0.043106 -0.796353 -0.944517 0.095523 -0.314219
0.939213 -0.019423 -1.059499 0.226051 -0.085910 -0.970306
3 0 1 2
3 3 4 5
3 6 7 1
3 5 2 1
3 8 7 6
3 9 1 7
3 8 5 9
3 10 3 8
3 5 4 2
3 8 11 10
3 8 9 7
3 9 5 1
3 8 3 5
3 0 6 1
3 3 2 4
3 10 0 3
3 8 6 11
3 0 11 6
3 3 0 2
3 10 11 0
