ply
format ascii 1.0
comment Created by Blender 2.77 (sub 0) - www.blender.org, source file: 'Plants.blend'
element vertex 10
property float x
property float y
property float z
property float nx
property float ny
property float nz
element face 16
property list uchar uint vertex_indices
end_header
-0.785400 0.198036 -0.831641 0.135685 0.773064 -0.619617
-1.005226 0.080276 -0.607099 -0.874355 0.380963 0.300516
-0.845355 0.185687 -0.492546 -0.517655 0.697989 0.494766
-1.006790 -0.255947 -0.613447 -0.626972 -0.715262 0.308664
-0.945272 0.092625 -0.946194 -0.382763 0.426283 -0.819575
-0.946836 -0.243598 -0.952542 -0.265786 -0.611194 -0.745476
-0.625529 0.200872 -0.717088 0.726279 0.625202 -0.285684
-0.685483 0.188523 -0.377993 0.311747 0.544633 0.778558
-0.687047 -0.147701 -0.384341 0.355235 -0.496750 0.791833
-0.627093 -0.135352 -0.723436 0.824793 -0.477554 -0.302622
3 0 1 2
3 3 4 5
3 6 2 7
3 6 8 9
3 5 4 0
3 2 1 7
3 3 9 8
3 9 0 6
3 8 1 3
3 5 0 9
3 0 4 1
3 3 1 4
3 6 0 2
3 6 7 8
3 3 5 9
3 8 7 1
