ply
format ascii 1.0
comment Created by Blender 2.77 (sub 0) - www.blender.org, source file: 'GiantTree0.blend'
element vertex 12
property float x
property float y
property float z
property float nx
property float ny
property float nz
element face 20
property list uchar uint vertex_indices
end_header
-0.105196 0.137051 1.040427 0.375530 0.863094 -0.337626
-0.173516 0.027772 1.013087 -0.454054 -0.406537 -0.792779
-0.205011 0.082412 1.032107 -0.834712 0.223243 -0.503372
-0.170851 0.137051 1.045778 -0.419141 0.864589 -0.277078
-0.107860 0.027772 1.007736 0.327586 -0.409253 -0.851558
-0.073701 0.082412 1.021406 0.750603 0.220161 -0.622944
-0.062199 -0.343803 1.702057 0.398938 -0.905026 0.147404
-0.027337 -0.296776 1.730682 0.823450 -0.319315 0.468947
-0.057503 -0.249225 1.763471 0.455855 0.275216 0.846400
-0.157393 -0.295725 1.739009 -0.758385 -0.308969 0.573901
-0.122531 -0.248699 1.767634 -0.336619 0.280435 0.898892
-0.127228 -0.343277 1.706220 -0.388165 -0.899625 0.199866
3 0 1 2
3 0 2 3
3 4 1 5
3 6 7 8
3 8 9 6
3 10 2 9
3 8 3 10
3 5 8 7
3 4 7 6
3 1 6 11
3 9 1 11
3 6 9 11
3 0 5 1
3 8 10 9
3 10 3 2
3 8 0 3
3 5 0 8
3 4 5 7
3 1 4 6
3 9 2 1
