ply
format ascii 1.0
comment Created by Blender 2.77 (sub 0) - www.blender.org, source file: ''
element vertex 12
property float x
property float y
property float z
property float nx
property float ny
property float nz
element face 20
property list uchar uint vertex_indices
end_header
0.141656 0.000151 -0.008254 0.585253 0.188849 0.788537
0.174564 -0.118540 -0.271263 0.490585 -0.775933 -0.396466
0.215497 -0.052258 -0.268696 0.915128 -0.096988 -0.391278
0.029510 -0.058700 -0.019636 -0.617450 -0.458296 0.639271
0.098494 -0.116738 -0.288163 -0.285684 -0.758721 -0.585376
0.002767 -0.000729 -0.055886 -0.924833 0.199255 0.323923
0.063357 -0.048654 -0.302495 -0.635609 -0.062197 -0.769463
0.114913 0.058122 -0.044504 0.263314 0.837733 0.478347
0.045469 0.057682 -0.068321 -0.481399 0.838435 0.255379
0.104291 0.017629 -0.299927 -0.211432 0.610645 -0.763115
0.180361 0.015827 -0.283028 0.560411 0.595874 -0.575152
0.098954 -0.058260 0.004181 0.139836 -0.461623 0.875973
3 0 1 2
3 1 3 4
3 4 5 6
3 7 8 5
3 9 10 2
3 11 0 3
3 9 4 6
3 1 4 2
3 0 11 1
3 1 11 3
3 4 3 5
3 3 7 5
3 9 2 4
3 8 10 9
3 8 6 5
3 2 7 0
3 3 0 7
3 8 7 10
3 8 9 6
3 2 10 7
