ply
format ascii 1.0
comment Created by Blender 2.77 (sub 0) - www.blender.org, source file: 'Plants.blend'
element vertex 8
property float x
property float y
property float z
property float nx
property float ny
property float nz
element face 12
property list uchar uint vertex_indices
end_header
-0.342287 0.088210 -0.901217 0.534013 0.434858 -0.725028
-0.663702 -0.134852 -0.726167 -0.725852 -0.512345 -0.458876
-0.662138 0.201371 -0.719819 -0.531938 0.714743 -0.454024
-0.402323 0.141095 -0.562168 0.709189 0.557604 0.431379
-0.723656 -0.147201 -0.387072 -0.506058 -0.528581 0.681539
-0.403887 -0.195128 -0.568516 0.560533 -0.674306 0.480667
-0.343851 -0.248013 -0.907565 0.417280 -0.659108 -0.625629
-0.722092 0.189022 -0.380724 -0.457686 0.568468 0.683615
3 0 1 2
3 3 4 5
3 5 1 6
3 3 2 7
3 5 0 3
3 4 2 1
3 0 6 1
3 3 7 4
3 5 4 1
3 3 0 2
3 5 6 0
3 4 7 2
