ply
format ascii 1.0
comment Created by Blender 2.77 (sub 0) - www.blender.org, source file: 'GiantTree0.blend'
element vertex 12
property float x
property float y
property float z
property float nx
property float ny
property float nz
element face 20
property list uchar uint vertex_indices
end_header
0.625127 0.363282 -1.318314 0.168920 -0.503891 0.847072
0.362642 0.641371 -1.419064 -0.983978 0.016175 0.177435
0.574722 0.330686 -1.366138 -0.330088 -0.875332 0.353252
0.381380 0.634344 -1.493156 -0.810663 -0.028748 -0.584765
0.588012 0.330686 -1.441727 -0.184027 -0.887845 -0.421705
0.651705 0.363282 -1.469492 0.457961 -0.531327 -0.712699
0.434827 0.680155 -1.523734 -0.221473 0.391461 -0.893124
0.702109 0.395878 -1.421667 0.961882 -0.157537 -0.223487
0.469536 0.732994 -1.480219 0.199011 0.881954 -0.427229
0.688820 0.395878 -1.346079 0.817225 -0.144292 0.557909
0.397351 0.694210 -1.375548 -0.569720 0.497269 0.654286
0.450798 0.740021 -1.406126 0.020875 0.937223 0.348064
3 0 1 2
3 2 3 4
3 3 5 4
3 6 7 5
3 8 9 7
3 9 10 0
3 4 9 0
3 8 6 3
3 5 7 9
3 10 11 1
3 0 2 4
3 3 11 8
3 0 10 1
3 2 1 3
3 3 6 5
3 6 8 7
3 8 11 9
3 9 11 10
3 4 5 9
3 3 1 11
