ply
format ascii 1.0
comment Created by Blender 2.77 (sub 0) - www.blender.org, source file: 'GiantTree0.blend'
element vertex 24
property float x
property float y
property float z
property float nx
property float ny
property float nz
element face 20
property list uchar uint vertex_indices
end_header
0.939851 -0.073980 -1.025705 0.925915 -0.191030 -0.325868
0.981826 -0.019423 -0.938421 0.925915 -0.191030 -0.325868
0.961157 -0.073980 -0.965166 0.925915 -0.191030 -0.325868
0.489757 -0.011491 -0.770997 -0.795770 -0.604724 0.032411
0.527787 -0.014421 -0.722507 -0.354289 -0.630970 0.690146
0.552312 0.037246 -0.699374 -0.065004 0.031312 0.997375
0.959882 0.035134 -1.032755 0.490188 0.590930 -0.640675
0.981188 0.035134 -0.972216 0.811823 0.576952 0.089450
0.981826 -0.019423 -0.938421 0.871364 -0.109684 0.478195
0.961157 -0.073980 -0.965166 0.610096 -0.776940 0.155248
0.939851 -0.073980 -1.025705 0.283181 -0.772668 -0.568102
0.476253 0.043106 -0.796353 -0.944517 0.095523 -0.314219
0.939213 -0.019423 -1.059499 0.226081 -0.085910 -0.970306
0.500778 0.094772 -0.773219 -0.646504 0.762902 -0.002655
0.538808 0.091842 -0.724730 -0.205054 0.726279 0.656056
0.500778 0.094772 -0.773219 -0.780624 0.093884 0.617909
0.552312 0.037246 -0.699374 -0.780624 0.093884 0.617909
0.538808 0.091842 -0.724730 -0.780624 0.093884 0.617909
0.939851 -0.073980 -1.025705 0.925915 -0.191031 -0.325867
0.959882 0.035134 -1.032755 0.925915 -0.191031 -0.325867
0.981826 -0.019423 -0.938421 0.925915 -0.191031 -0.325867
0.500778 0.094772 -0.773219 -0.780624 0.093885 0.617909
0.489757 -0.011491 -0.770997 -0.780624 0.093885 0.617909
0.552312 0.037246 -0.699374 -0.780624 0.093885 0.617909
3 0 1 2
3 3 4 5
3 6 7 8
3 5 9 8
3 9 3 10
3 10 11 12
3 12 13 6
3 13 7 6
3 14 8 7
3 15 16 17
3 11 3 13
3 10 12 6
3 18 19 20
3 5 4 9
3 9 4 3
3 10 3 11
3 12 11 13
3 13 14 7
3 14 5 8
3 21 22 23
