ply
format ascii 1.0
comment Created by Blender 2.77 (sub 0) - www.blender.org, source file: 'GiantTree0.blend'
element vertex 22
property float x
property float y
property float z
property float nx
property float ny
property float nz
element face 40
property list uchar uint vertex_indices
end_header
1.492460 -0.061058 2.213820 0.649678 0.138066 0.747520
1.253475 -0.126259 2.409244 0.598285 -0.157201 0.785699
1.622614 -0.082768 2.083612 0.877987 -0.090304 0.470077
0.493985 -0.321539 2.669661 -0.546342 -0.585559 0.598834
0.537628 -0.321539 2.496099 -0.523209 -0.620899 -0.583667
0.884669 -0.321539 2.561166 0.288400 -0.847468 0.445601
1.622614 -0.147861 2.018544 0.769829 -0.618336 0.158055
1.622614 -0.147861 1.910050 0.604877 -0.524552 -0.599109
1.579192 0.047491 2.061972 0.520920 0.803644 0.287637
1.188288 -0.017674 2.409244 0.204840 0.776574 0.595752
0.493985 -0.299793 2.669661 -0.625660 0.386395 0.677664
0.493985 -0.278083 2.539527 -0.913694 0.290811 -0.283792
1.470694 -0.061058 1.910050 -0.356945 0.040162 -0.933226
1.492460 0.025709 1.931764 -0.276131 0.646748 -0.710929
1.079900 -0.017783 2.300675 -0.352824 0.924039 -0.147038
0.819702 -0.126223 2.561092 -0.175054 0.853725 0.490371
0.862903 -0.321503 2.452672 0.043519 -0.985198 -0.165685
0.862903 -0.234700 2.626159 0.266243 0.004700 0.963866
1.036699 -0.191244 2.539453 0.503098 -0.103397 0.857997
1.535881 -0.147861 1.910050 -0.104495 -0.577593 -0.809564
1.622614 0.025709 1.910050 0.594501 0.549028 -0.587451
1.449038 0.047491 1.996905 -0.274575 0.919553 -0.281045
3 0 1 2
3 3 4 5
3 6 5 7
3 8 9 0
3 3 10 11
3 12 4 11
3 4 3 11
3 13 12 11
3 9 14 15
3 11 10 15
3 14 11 15
3 5 4 16
3 7 5 16
3 10 3 17
3 3 5 17
3 5 18 17
3 18 9 17
3 15 10 17
3 9 15 17
3 4 12 19
3 12 7 19
3 16 4 19
3 7 16 19
3 7 12 20
3 6 7 20
3 12 13 20
3 5 6 1
3 18 5 1
3 9 18 1
3 0 9 1
3 9 8 21
3 14 9 21
3 11 14 21
3 13 11 21
3 8 20 21
3 20 13 21
3 8 0 2
3 20 8 2
3 6 20 2
3 1 6 2
