ply
format ascii 1.0
comment Created by Blender 2.77 (sub 0) - www.blender.org, source file: 'GiantTree0.blend'
element vertex 16
property float x
property float y
property float z
property float nx
property float ny
property float nz
element face 28
property list uchar uint vertex_indices
end_header
-0.287529 -0.082721 -2.366316 0.623402 -0.714682 -0.317087
-0.113889 -0.147826 -1.671854 0.939177 -0.337626 0.062716
-0.157351 -0.191275 -1.736966 0.523118 -0.830256 -0.192328
-0.113889 -0.126171 -1.671854 0.973052 0.229957 -0.016358
-0.135635 -0.082777 -1.584971 0.501785 0.483291 0.717368
-0.179067 -0.212986 -1.606742 0.233222 -0.833766 0.500381
-0.352648 -0.039355 -1.736966 -0.661580 0.638630 0.392926
-0.417796 -0.017644 -2.366416 -0.983490 -0.180853 0.001007
-0.352648 -0.147826 -1.758736 -0.807764 -0.556475 0.194342
-0.330932 -0.147854 -2.062726 -0.310739 -0.941984 -0.126652
-0.417796 0.069199 -2.431528 -0.705008 0.701682 -0.102725
-0.352648 0.069199 -2.496640 0.189886 0.890927 -0.412488
-0.352648 -0.017644 -2.605193 0.022584 -0.141484 -0.989654
-0.287529 0.025722 -2.409757 0.883480 0.429731 -0.186407
-0.244126 -0.169537 -1.584971 -0.483047 -0.284982 0.827906
-0.396050 -0.061038 -2.453199 -0.642323 -0.712027 -0.283547
3 0 1 2
3 1 3 4
3 5 1 4
3 6 7 8
3 9 5 8
3 7 6 10
3 11 12 10
3 6 4 10
3 4 11 10
3 3 1 13
3 12 11 13
3 4 3 13
3 11 4 13
3 13 1 0
3 12 13 0
3 4 6 14
3 5 4 14
3 6 8 14
3 8 5 14
3 8 7 15
3 9 8 15
3 7 10 15
3 10 12 15
3 0 9 15
3 12 0 15
3 5 9 2
3 1 5 2
3 9 0 2
