ply
format ascii 1.0
comment Created by Blender 2.77 (sub 0) - www.blender.org, source file: 'Plants.blend'
element vertex 17
property float x
property float y
property float z
property float nx
property float ny
property float nz
element face 30
property list uchar uint vertex_indices
end_header
0.102449 -0.242888 -1.028029 0.642781 -0.761193 -0.085788
0.140984 0.189418 -1.265445 0.585223 0.529008 -0.614490
0.099592 0.093054 -1.022081 0.985046 0.008301 0.171911
-0.349794 -0.134219 -1.126868 -0.637043 -0.431867 -0.638417
0.143841 -0.146524 -1.271393 0.568468 -0.445967 -0.691336
-0.475902 0.087869 -0.389159 -0.580645 0.399548 0.709342
-0.451220 -0.177697 -0.544455 -0.985290 0.006592 -0.170751
-0.477466 -0.248354 -0.395507 -0.559252 -0.563982 0.607532
0.013311 0.075283 -0.534085 0.664907 0.351421 0.659047
0.042414 -0.190002 -0.688980 0.984619 0.003662 0.174535
0.039557 0.145940 -0.683032 0.749443 0.609790 0.257820
-0.174293 0.198102 -0.619681 0.116947 0.939268 0.322581
-0.348230 0.202004 -1.120519 -0.643788 0.575030 -0.504776
-0.449656 0.158526 -0.538107 -0.692801 0.712577 0.110446
-0.122127 0.242847 -1.187501 -0.132267 0.783746 -0.606800
-0.391185 -0.230583 -0.883504 -0.672018 -0.703970 -0.229682
0.016168 -0.260660 -0.540033 0.582385 -0.631123 0.512314
3 0 1 2
3 0 3 4
3 5 6 7
3 8 9 10
3 9 2 10
3 8 11 5
3 7 8 5
3 3 1 4
3 12 6 13
3 14 1 3
3 15 7 3
3 7 6 3
3 10 14 11
3 12 14 3
3 11 12 13
3 10 2 1
3 9 16 0
3 16 15 0
3 0 4 1
3 0 15 3
3 5 13 6
3 8 16 9
3 9 0 2
3 13 5 11
3 8 10 11
3 7 16 8
3 12 3 6
3 10 1 14
3 11 14 12
3 16 7 15
