ply
format ascii 1.0
comment Created by Blender 2.77 (sub 0) - www.blender.org, source file: 'GiantTree0.blend'
element vertex 17
property float x
property float y
property float z
property float nx
property float ny
property float nz
element face 30
property list uchar uint vertex_indices
end_header
1.557601 0.242750 -1.411153 0.944975 0.319285 0.070986
1.535860 0.307930 -1.649918 0.317667 0.717887 -0.619434
1.535877 0.264476 -1.367857 0.522629 0.801202 0.291391
1.383940 -0.061054 -1.085698 -0.780236 -0.576434 -0.242714
1.492461 0.177729 -1.649918 0.102542 -0.623798 -0.774804
1.449097 -0.234709 -0.695055 -0.447401 -0.865108 0.226600
1.557601 -0.191255 -0.651563 0.688833 -0.247078 0.681478
1.557567 0.221129 -1.649918 0.725516 -0.187445 -0.662130
1.427389 0.199402 -1.649918 -0.682455 -0.145054 -0.716361
1.405648 0.242750 -1.411153 -0.913846 0.401288 0.061769
1.449080 0.307983 -1.519736 -0.532853 0.844905 -0.046602
1.449097 -0.082727 -0.651563 -0.201544 0.584552 0.785882
1.405648 -0.126075 -0.651563 -0.737877 0.006653 0.674886
1.535860 -0.234709 -0.673358 0.390820 -0.852382 0.347331
1.535860 -0.082727 -0.673358 0.599414 0.544145 0.586993
1.492444 0.307983 -1.519736 0.176366 0.975433 0.131748
1.449080 0.264476 -1.346160 -0.339793 0.872341 0.351421
3 0 1 2
3 3 4 5
3 0 6 7
3 4 3 8
3 7 4 8
3 9 10 8
3 3 9 8
3 6 11 12
3 3 5 12
3 9 3 12
3 5 4 13
3 4 7 13
3 7 6 13
3 6 12 13
3 12 5 13
3 11 6 14
3 6 0 14
3 15 10 16
3 10 9 16
3 12 11 16
3 9 12 16
3 10 15 1
3 0 7 1
3 8 10 1
3 7 8 1
3 11 14 2
3 14 0 2
3 15 16 2
3 16 11 2
3 1 15 2
