ply
format ascii 1.0
comment Created by Blender 2.77 (sub 0) - www.blender.org, source file: 'GiantTree0.blend'
element vertex 20
property float x
property float y
property float z
property float nx
property float ny
property float nz
element face 36
property list uchar uint vertex_indices
end_header
1.405467 0.459891 -1.107501 0.553270 0.744682 -0.373241
1.427239 0.459891 -1.042356 0.455916 0.827448 0.327708
1.492376 0.373089 -0.998883 0.841670 0.225929 0.490371
0.580807 0.177778 -1.584873 -0.832362 -0.374981 -0.408063
0.776220 0.112650 -1.606545 0.156041 -0.813532 -0.560167
0.624262 0.134360 -1.476446 -0.654225 -0.627888 0.421491
1.253598 0.394763 -0.998883 -0.309397 0.231758 0.922239
1.210233 0.459891 -1.064029 -0.315592 0.789239 0.526749
0.841358 0.438145 -1.367828 -0.596423 0.717643 0.359508
0.928089 0.481600 -1.454709 -0.092105 0.918149 -0.385296
1.318557 0.373089 -1.237665 0.675741 0.073916 -0.733390
0.776220 0.199451 -1.650082 0.253243 -0.079043 -0.964141
1.036592 0.416400 -1.476382 0.496323 0.387524 -0.776818
1.470604 0.264579 -0.998883 0.659169 -0.599200 0.454329
1.318736 0.264579 -0.998883 -0.146062 -0.567797 0.810083
0.645945 0.242870 -1.650082 -0.446913 0.294076 -0.844813
0.754448 0.112614 -1.476446 -0.043428 -0.981323 0.187384
1.427150 0.329743 -1.129174 0.779870 -0.201666 -0.592517
0.711082 0.264579 -1.411300 -0.675008 0.204382 0.708884
0.580807 0.221197 -1.541527 -0.922941 0.356090 0.146031
3 0 1 2
3 3 4 5
3 6 7 8
3 7 9 8
3 7 6 1
3 9 7 1
3 10 11 12
3 13 6 14
3 6 5 14
3 4 3 15
3 11 4 15
3 9 12 15
3 12 11 15
3 4 13 16
3 5 4 16
3 13 14 16
3 14 5 16
3 13 4 17
3 11 10 17
3 4 11 17
3 5 6 18
3 6 8 18
3 18 8 19
3 3 5 19
3 8 9 19
3 15 3 19
3 9 15 19
3 5 18 19
3 9 1 0
3 10 12 0
3 12 9 0
3 17 10 0
3 17 0 2
3 6 13 2
3 1 6 2
3 13 17 2
