ply
format ascii 1.0
comment Created by Blender 2.77 (sub 0) - www.blender.org, source file: ''
element vertex 20
property float x
property float y
property float z
property float nx
property float ny
property float nz
element face 36
property list uchar uint vertex_indices
end_header
-26.203533 -0.379051 102.392410 0.948149 0.280465 -0.149297
-26.627666 -0.145613 102.703819 0.647664 0.373913 0.663839
-26.209995 -0.418584 102.430138 0.896420 -0.286264 0.338298
-26.628819 -0.101357 102.671135 0.540086 0.815455 0.208045
-26.233374 -0.379988 102.346184 0.513749 0.269906 -0.814356
-26.690371 -0.145613 102.613373 -0.501267 0.177526 -0.846858
-26.269676 -0.420459 102.337685 0.021119 -0.319712 -0.947264
-26.660172 -0.101357 102.625916 -0.013520 0.809992 -0.586261
-26.957409 0.006476 102.910988 0.385235 0.869808 0.308176
-27.194195 -0.006823 103.140144 -0.135228 0.619098 0.773553
-26.944424 -0.041510 102.934586 0.613330 0.446425 0.651509
-27.015125 -0.038989 102.850281 -0.630970 0.139561 -0.763115
-27.237150 -0.005655 103.105766 -0.726402 0.643025 0.242561
-26.992760 0.007737 102.868843 -0.234016 0.873714 -0.426405
-26.276136 -0.459993 102.375412 -0.010651 -0.886105 -0.463332
-26.246298 -0.459055 102.421638 0.436628 -0.882687 0.173650
-27.231207 -0.100181 103.095131 -0.742302 -0.648213 0.169500
-27.255655 -0.052334 103.083260 -0.997284 -0.021302 -0.070101
-27.169746 -0.054670 103.152008 0.112918 -0.011322 0.993530
-27.188251 -0.101350 103.129501 -0.214331 -0.640034 0.737815
3 0 1 2
3 3 0 4
3 5 4 6
3 7 8 3
3 9 10 8
3 11 12 13
3 14 2 15
3 16 6 14
3 12 17 9
3 6 4 14
3 5 6 11
3 1 10 18
3 2 1 18
3 11 6 17
3 0 3 1
3 4 7 3
3 5 7 4
3 7 13 8
3 9 18 10
3 11 17 12
3 16 17 6
3 9 16 18
3 3 10 1
3 19 14 15
3 19 2 18
3 19 18 16
3 5 13 7
3 9 13 12
3 2 4 0
3 9 17 16
3 3 8 10
3 19 16 14
3 19 15 2
3 5 11 13
3 9 8 13
3 2 14 4
