ply
format ascii 1.0
comment Created by Blender 2.77 (sub 0) - www.blender.org, source file: ''
element vertex 41
property float x
property float y
property float z
property float nx
property float ny
property float nz
element face 78
property list uchar uint vertex_indices
end_header
-0.212768 0.370487 -0.244221 -0.803125 0.009278 -0.595691
-0.287232 0.383172 -0.116536 -0.867153 -0.007324 -0.497971
-0.275265 0.435110 -0.137528 -0.869015 0.050569 -0.492172
-0.354793 0.228998 0.310769 -0.789178 0.116398 0.602985
-0.316484 0.212130 0.339871 -0.392743 -0.432447 0.811609
-0.316735 0.228998 0.339838 -0.421888 0.094302 0.901700
0.213358 0.187644 0.272181 0.547655 -0.574114 0.608631
0.236013 0.627609 0.170213 0.797266 0.152104 0.584094
0.097035 0.563359 0.327280 0.456069 0.167486 0.874020
0.038141 0.208461 -0.532877 -0.227210 -0.495041 -0.838618
-0.150110 0.948513 -0.244348 -0.390210 0.742302 -0.544694
-0.024711 0.892437 -0.312786 -0.031281 0.626453 -0.778802
0.008255 0.965873 -0.137450 0.106815 0.954070 -0.279794
-0.175218 0.897134 -0.240991 -0.760491 0.220557 -0.610706
-0.225441 0.940103 -0.093926 -0.724998 0.682852 -0.089908
-0.072293 0.518720 0.376935 -0.045198 0.117222 0.992065
-0.313413 0.211194 0.340268 -0.105808 -0.678213 0.727165
-0.155931 0.901743 0.227093 -0.604144 0.589007 0.536668
-0.223403 0.317518 -0.225179 -0.813196 -0.244240 -0.528214
0.388137 0.225479 -0.072805 0.731071 -0.660237 0.171972
0.346249 0.187025 -0.107867 0.389447 -0.921018 0.000519
0.427716 0.269112 -0.104306 0.961394 -0.233894 0.144780
-0.356081 0.211194 0.307677 -0.684194 -0.686941 0.244850
-0.362914 0.217444 0.254545 -0.610706 -0.791040 -0.035585
-0.362105 0.245942 0.105729 -0.560717 -0.794702 -0.232337
-0.412593 0.296176 0.104281 -0.940031 -0.275979 -0.200323
0.383520 0.235837 -0.205929 0.725639 -0.550218 -0.413099
0.425408 0.274291 -0.170868 0.932340 -0.175817 -0.315867
0.234528 0.996133 0.058117 0.620869 0.763298 0.178472
-0.354890 0.212130 0.310536 -0.682943 -0.430250 0.590258
0.133096 0.833802 -0.330978 0.407636 0.528520 -0.744591
0.109241 0.201063 -0.513044 0.371227 -0.578814 -0.726005
0.343941 0.192203 -0.174429 0.427412 -0.889035 -0.164006
0.153342 0.181097 0.288371 0.148930 -0.740654 0.655171
-0.408598 0.351972 0.148389 -0.965941 0.184667 0.181097
0.247075 0.766365 -0.233849 0.810846 0.347972 -0.470534
-0.094386 0.912775 0.252821 -0.108097 0.623646 0.774163
-0.074994 0.969177 0.112821 -0.255776 0.957488 0.133244
0.180121 0.992333 0.098077 0.254677 0.821070 0.510819
0.061866 0.192189 -0.098967 -0.047975 -0.998535 -0.024628
-0.023545 0.971262 0.156639 -0.084719 0.939085 0.332987
3 0 1 2
3 3 4 5
3 6 7 8
3 9 10 11
3 10 12 11
3 9 13 10
3 13 14 10
3 5 4 15
3 4 16 15
3 17 5 15
3 18 0 9
3 0 13 9
3 19 20 21
3 22 23 9
3 23 24 9
3 24 25 9
3 26 27 21
3 25 18 9
3 27 28 21
3 16 29 22
3 28 7 21
3 29 3 22
3 25 14 13
3 30 9 11
3 6 19 21
3 6 20 19
3 25 23 22
3 31 32 20
3 4 29 16
3 6 33 20
3 34 3 17
3 33 31 20
3 3 5 17
3 31 26 32
3 31 27 26
3 14 34 17
3 31 35 27
3 15 36 17
3 35 28 27
3 37 38 28
3 0 2 13
3 38 8 28
3 2 25 13
3 8 7 28
3 35 30 28
3 30 11 28
3 11 12 28
3 25 1 18
3 12 10 28
3 10 37 28
3 25 24 23
3 2 1 25
3 34 22 3
3 30 35 31
3 33 39 31
3 39 22 31
3 22 9 31
3 15 16 33
3 16 22 33
3 22 39 33
3 40 38 37
3 10 14 37
3 14 17 37
3 40 36 38
3 36 8 38
3 0 18 1
3 3 29 4
3 6 21 7
3 25 34 14
3 30 31 9
3 15 8 36
3 37 36 40
3 34 25 22
3 33 8 15
3 26 20 32
3 37 17 36
3 33 6 8
3 26 21 20
