ply
format ascii 1.0
comment Created by Blender 2.77 (sub 0) - www.blender.org, source file: 'GiantTree0.blend'
element vertex 22
property float x
property float y
property float z
property float nx
property float ny
property float nz
element face 40
property list uchar uint vertex_indices
end_header
0.320264 -0.299844 0.368733 0.943388 -0.096683 -0.317270
0.211720 -0.082808 0.151731 0.769311 -0.092776 -0.632069
0.233370 -0.039493 0.238532 0.923704 0.377270 -0.066347
0.081427 -0.082751 0.064824 0.246895 -0.305368 -0.919645
0.016378 -0.082751 0.064824 -0.028596 -0.331095 -0.943144
-0.179012 0.112485 0.064824 -0.662343 0.358135 -0.658040
0.276817 -0.386647 0.368733 0.462966 -0.760430 -0.455367
0.320264 -0.408276 0.607516 0.621937 -0.563066 0.544145
0.190021 -0.430077 0.607516 -0.272927 -0.752403 0.599445
0.211720 -0.278100 0.607516 -0.069735 0.403211 0.912442
-0.135565 0.156029 0.216805 -0.172796 0.833583 0.524613
0.103175 0.156029 0.195079 0.346416 0.873074 0.343089
0.320264 -0.299844 0.607516 0.668935 0.293680 0.682821
0.146622 0.134171 0.108331 0.794000 0.543016 -0.273202
-0.157264 -0.191183 0.303659 -0.890408 -0.399548 0.217841
-0.070418 -0.234613 0.260206 -0.428297 -0.816675 -0.386700
-0.113866 -0.061064 0.064824 -0.466170 -0.374798 -0.801355
0.103175 0.156029 0.064824 0.322703 0.654195 -0.683981
0.168272 -0.321531 0.607516 -0.409406 0.071078 0.909543
-0.179012 0.156029 0.195079 -0.699332 0.678823 0.223792
0.016378 -0.169496 0.130004 -0.103610 -0.713736 -0.692679
0.211720 -0.386647 0.368733 -0.149205 -0.902676 -0.403577
3 0 1 2
3 3 4 5
3 6 7 8
3 7 9 8
3 10 9 11
3 9 7 12
3 11 9 12
3 13 11 12
3 7 6 0
3 12 7 0
3 8 14 15
3 5 4 16
3 14 5 16
3 15 14 16
3 3 5 17
3 10 11 17
3 11 13 17
3 6 3 1
3 0 6 1
3 3 17 1
3 17 13 1
3 9 10 18
3 8 9 18
3 14 8 18
3 5 14 19
3 17 5 19
3 10 17 19
3 18 10 19
3 14 18 19
3 4 3 20
3 3 6 20
3 16 4 20
3 15 16 20
3 6 8 21
3 8 15 21
3 20 6 21
3 15 20 21
3 13 12 2
3 12 0 2
3 1 13 2
