ply
format ascii 1.0
comment Created by Blender 2.77 (sub 0) - www.blender.org, source file: 'GiantTree0.blend'
element vertex 16
property float x
property float y
property float z
property float nx
property float ny
property float nz
element face 28
property list uchar uint vertex_indices
end_header
1.405587 0.004047 -0.195759 0.685202 -0.026002 0.727836
1.514167 -0.191256 -0.390975 0.841456 -0.404462 0.358257
1.405587 0.047427 -0.239105 0.785638 0.598743 0.155675
1.188571 0.047427 -0.108854 -0.557726 -0.053682 0.828242
1.427332 -0.212928 -0.325903 0.217750 -0.802271 0.555773
1.557584 -0.147875 -0.651529 0.782800 0.174535 -0.597278
1.557584 -0.191256 -0.651529 0.781182 -0.180151 -0.597705
1.405659 -0.191256 -0.651529 -0.557695 -0.267373 -0.785760
1.188571 0.134260 -0.239105 -0.638081 0.744041 -0.198035
1.297187 0.134260 -0.152307 0.296304 0.787225 0.540757
1.188571 0.004047 -0.217432 -0.915403 -0.401593 -0.026887
1.535839 -0.104459 -0.651529 0.524430 0.556444 -0.644429
1.405659 -0.234709 -0.586351 -0.482864 -0.853145 -0.197333
1.449040 -0.104459 -0.651529 -0.243110 0.482040 -0.841731
1.383950 -0.212928 -0.347629 -0.420881 -0.878658 0.225288
1.535839 -0.234709 -0.651529 0.424665 -0.707724 -0.564562
3 0 1 2
3 0 3 4
3 5 6 7
3 8 3 9
3 3 0 9
3 8 7 10
3 3 8 10
3 5 7 11
3 8 9 11
3 10 7 12
3 6 5 1
3 0 4 1
3 7 8 13
3 11 7 13
3 8 11 13
3 4 3 14
3 3 10 14
3 12 4 14
3 10 12 14
3 7 6 15
3 4 12 15
3 12 7 15
3 6 1 15
3 1 4 15
3 9 0 2
3 5 11 2
3 11 9 2
3 1 5 2
