ply
format ascii 1.0
comment Created by Blender 2.77 (sub 0) - www.blender.org, source file: 'GiantTree0.blend'
element vertex 43
property float x
property float y
property float z
property float nx
property float ny
property float nz
element face 82
property list uchar uint vertex_indices
end_header
0.072197 1.668857 0.033668 0.263833 0.942106 0.206793
0.244413 1.628185 -0.158518 0.248543 0.967528 -0.045656
0.098189 1.633795 -0.427788 0.198767 0.845820 -0.495041
0.134303 1.323391 0.291157 0.112156 0.151250 0.982086
0.322949 1.395052 0.226198 0.444624 0.335612 0.830439
-0.050658 1.667612 0.141569 -0.158147 0.813318 0.559893
0.016169 1.673906 0.035638 0.012787 0.999573 -0.025758
0.338860 1.340906 0.216379 0.623310 -0.213721 0.752159
0.152796 1.270266 0.280333 0.301767 -0.216407 0.928465
-0.094386 0.912775 0.252821 -0.009827 -0.567614 0.823206
-0.039528 0.903554 0.214389 0.324625 -0.721641 0.611377
-0.097577 1.234067 0.286872 -0.304086 0.092807 0.948088
0.089561 1.020547 0.196314 0.512375 -0.447157 0.733116
0.145917 0.860113 0.053498 0.416791 -0.851527 0.318003
0.234528 0.996133 0.058117 0.783410 -0.489547 0.382824
0.190341 0.877654 -0.047583 0.634999 -0.765740 -0.101871
0.127466 0.887621 -0.200931 0.493515 -0.743339 -0.451460
-0.024711 0.892437 -0.312786 0.019349 -0.685568 -0.727714
-0.009053 0.887423 -0.257913 -0.014954 -0.995575 -0.092685
0.455423 1.395396 0.087500 0.925474 -0.139195 0.352275
0.337340 1.151765 -0.003720 0.881497 -0.471511 0.024628
0.475788 1.444113 -0.067315 0.979339 -0.033479 -0.199377
0.096064 1.590616 -0.465371 0.196326 0.227638 -0.953734
-0.101940 1.603847 -0.421711 -0.477645 0.429060 -0.766625
-0.248499 1.136787 0.191677 -0.808771 -0.023957 0.587603
-0.182247 1.634168 -0.293497 -0.694052 0.655568 -0.297464
-0.162618 0.881490 0.162933 -0.499527 -0.831324 0.243538
-0.155931 0.901743 0.227093 -0.504746 -0.603626 0.617084
0.381400 1.536913 -0.197790 0.728599 0.601398 -0.327769
0.256985 1.581844 -0.326204 0.582049 0.678915 -0.447493
0.313766 1.607435 -0.157143 0.491531 0.870205 -0.033357
0.457743 1.495279 -0.048936 0.788385 0.610431 0.076022
-0.164100 1.592303 0.112063 -0.582781 0.780297 0.226783
-0.175218 0.897134 -0.240991 -0.550707 -0.652455 -0.520554
-0.234494 1.520475 0.038202 -0.977660 0.209998 0.004669
-0.222373 1.551090 0.102279 -0.775628 0.459822 0.432325
0.438297 1.448894 0.098733 0.705252 0.499191 0.503372
-0.107760 0.872269 0.124501 -0.058565 -0.992096 0.110782
-0.143612 0.884703 -0.194861 -0.169317 -0.981597 -0.087985
0.266639 1.534935 -0.357633 0.649251 0.117100 -0.751488
-0.268435 0.961158 -0.125384 -0.887753 -0.398328 -0.230628
0.396273 1.488017 -0.223662 0.823176 0.053316 -0.565203
-0.296438 1.040812 0.023865 -0.980377 -0.175970 0.088748
3 0 1 2
3 3 4 5
3 0 6 5
3 7 8 9
3 10 7 9
3 3 11 9
3 8 3 9
3 12 10 13
3 7 12 13
3 14 7 13
3 15 14 13
3 16 15 13
3 17 16 13
3 18 17 13
3 10 9 13
3 5 11 3
3 19 20 21
3 2 22 23
3 24 9 11
3 17 23 22
3 2 23 25
3 24 26 27
3 28 29 30
3 5 6 25
3 31 28 30
3 32 5 25
3 31 30 0
3 18 33 17
3 30 1 0
3 25 34 35
3 32 25 35
3 31 0 36
3 5 32 35
3 11 35 24
3 0 25 6
3 13 9 27
3 13 27 26
3 19 7 14
3 37 13 26
3 20 19 14
3 38 37 26
3 21 20 15
3 33 38 26
3 20 14 15
3 39 17 22
3 23 40 25
3 33 26 40
3 39 41 16
3 12 7 10
3 4 0 5
3 13 38 18
3 40 34 25
3 34 24 35
3 30 29 2
3 40 26 42
3 1 30 2
3 4 8 7
3 36 7 19
3 31 19 21
3 31 41 28
3 29 41 39
3 2 39 22
3 15 41 21
3 5 35 11
3 24 27 9
3 17 33 23
3 24 42 26
3 18 38 33
3 0 2 25
3 39 16 17
3 23 33 40
3 4 36 0
3 13 37 38
3 40 42 34
3 34 42 24
3 4 3 8
3 36 4 7
3 31 36 19
3 31 21 41
3 29 28 41
3 2 29 39
3 15 16 41
