ply
format ascii 1.0
comment Created by Blender 2.77 (sub 0) - www.blender.org, source file: ''
element vertex 16
property float x
property float y
property float z
property float nx
property float ny
property float nz
element face 28
property list uchar uint vertex_indices
end_header
-0.332033 2.594040 -0.287212 0.133671 0.942045 -0.307596
-0.189439 2.345519 -0.267283 0.897397 0.183203 0.401318
-0.197246 2.355486 -0.338571 0.792871 0.310190 -0.524491
-0.179991 2.056376 -0.303844 0.752495 -0.568590 0.332286
-0.245635 2.323142 -0.227489 0.404584 -0.042848 0.913480
-0.239559 2.053464 -0.263289 0.133091 -0.648823 0.749168
-0.367460 2.539453 -0.180010 -0.276528 0.411878 0.868252
-0.304040 2.045022 -0.294475 -0.538713 -0.727226 0.425336
-0.414965 2.498733 -0.216444 -0.866756 0.126988 0.482253
-0.379538 2.553320 -0.323645 -0.440962 0.591693 -0.674856
-0.421004 2.505666 -0.288262 -0.938475 0.221992 -0.264443
-0.249384 2.042407 -0.406772 0.004395 -0.610096 -0.792291
-0.184903 2.050848 -0.375586 0.700064 -0.550401 -0.454848
-0.261249 2.343075 -0.370065 0.145512 0.203711 -0.968139
-0.325993 2.587106 -0.215394 0.212867 0.850002 0.481826
-0.308952 2.039494 -0.366217 -0.617450 -0.699362 -0.359966
3 0 1 2
3 3 4 5
3 5 4 6
3 3 5 7
3 8 9 10
3 3 11 12
3 13 11 9
3 0 14 1
3 3 1 4
3 9 6 0
3 7 10 15
3 12 13 2
3 6 14 0
3 3 2 1
3 11 10 9
3 7 11 3
3 5 8 7
3 2 9 0
3 14 4 1
3 9 8 6
3 7 8 10
3 12 11 13
3 3 12 2
3 11 15 10
3 7 15 11
3 5 6 8
3 2 13 9
3 14 6 4
