ply
format ascii 1.0
comment Created by Blender 2.77 (sub 0) - www.blender.org, source file: 'GiantTree0.blend'
element vertex 26
property float x
property float y
property float z
property float nx
property float ny
property float nz
element face 48
property list uchar uint vertex_indices
end_header
1.535694 -0.169519 -1.237590 -0.120212 -0.739311 -0.662526
0.711098 -0.212966 -0.803406 -0.176397 -0.931822 -0.317087
0.385514 -0.126110 -0.803406 -0.426130 -0.657521 -0.621296
1.666091 -0.017683 -1.150677 0.756218 0.652913 0.041902
1.644167 -0.169519 -1.237590 0.569597 -0.607013 -0.554125
1.622571 -0.017683 -1.237590 0.375896 0.633534 -0.676229
0.732695 -0.234689 -0.694979 0.042848 -0.964049 0.262123
1.666091 -0.147795 -1.129068 0.770898 -0.505600 0.387310
-0.005351 0.156029 -0.282499 -0.555345 0.580279 0.595691
0.125047 0.004079 -0.282499 0.057619 -0.480514 0.875057
0.125047 0.134229 -0.282499 0.235145 0.582904 0.777734
0.559104 0.112582 -0.673274 -0.022034 0.975249 -0.219916
0.363918 0.047450 -0.760092 -0.324870 0.777490 -0.538438
-0.005351 0.156029 -0.304299 -0.686789 0.694143 -0.215461
-0.005351 0.025764 -0.304299 -0.794580 -0.477126 0.375408
0.754455 -0.191242 -0.651570 0.362285 -0.516709 0.775689
1.535694 -0.104424 -1.259295 -0.153508 0.056215 -0.986541
0.363918 -0.039330 -0.825110 -0.595813 -0.155553 -0.787896
0.190327 0.025764 -0.304299 0.425031 -0.100589 0.899533
1.666091 -0.039330 -1.129068 0.807001 0.242195 0.538530
0.580865 0.112582 -0.586457 0.205329 0.957732 0.201331
0.081690 -0.017606 -0.326003 -0.296548 -0.910733 0.287393
0.363754 -0.126110 -0.781701 -0.590197 -0.706717 -0.390057
0.363918 -0.017645 -0.825110 -0.521805 0.322275 -0.789819
0.472391 -0.169519 -0.716779 -0.275613 -0.960234 -0.044343
0.016573 0.047526 -0.369412 -0.852443 -0.137883 -0.504257
3 0 1 2
3 3 4 5
3 6 4 7
3 4 3 7
3 8 9 10
3 4 6 0
3 3 5 11
3 12 13 11
3 5 12 11
3 8 13 14
3 9 8 14
3 9 6 15
3 6 7 15
3 0 6 1
3 5 4 16
3 4 0 16
3 0 17 16
3 10 9 18
3 9 15 18
3 15 7 18
3 7 3 19
3 3 10 19
3 10 18 19
3 18 7 19
3 13 8 20
3 8 10 20
3 10 3 20
3 11 13 20
3 3 11 20
3 6 9 21
3 9 14 21
3 14 22 21
3 13 12 23
3 12 5 23
3 5 16 23
3 16 17 23
3 1 6 24
3 22 1 24
3 6 21 24
3 21 22 24
3 17 22 25
3 14 13 25
3 22 14 25
3 13 23 25
3 23 17 25
3 22 17 2
3 17 0 2
3 1 22 2
