ply
format ascii 1.0
comment Created by Blender 2.77 (sub 0) - www.blender.org, source file: ''
element vertex 22
property float x
property float y
property float z
property float nx
property float ny
property float nz
element face 40
property list uchar uint vertex_indices
end_header
-1.721654 -0.162364 -0.291208 0.305979 -0.837519 -0.452651
-1.596156 -0.143317 0.367798 -0.177831 -0.613056 0.769738
-1.797284 -0.150150 -0.286602 -0.247719 -0.968810 -0.002167
-1.847580 -0.037875 -0.011878 -0.944334 -0.064272 0.322611
-1.903963 -0.025700 -0.357203 -0.518754 0.635701 -0.571612
-1.927600 -0.075345 -0.359343 -0.853481 -0.075716 -0.515549
-1.528027 -0.155733 0.334713 0.496933 -0.730888 0.467757
-1.577947 -0.012161 0.356073 0.340800 0.272896 0.899625
-1.621115 -0.071531 0.378479 -0.300577 -0.129673 0.944884
-1.817903 -0.066542 -0.360261 0.282937 0.069948 -0.956572
-1.849114 -0.021298 -0.357663 0.075320 0.677145 -0.731956
-1.700491 -0.031129 -0.291717 0.554033 0.635884 -0.537278
-1.673258 -0.102854 -0.293765 0.782067 -0.144444 -0.606189
-1.896388 -0.120589 -0.361941 -0.491897 -0.639515 -0.590777
-1.841539 -0.116187 -0.362400 0.146123 -0.391797 -0.908353
-1.652392 0.086409 0.332160 -0.254463 0.785028 0.564776
-1.602102 0.089359 0.307655 0.437056 0.869106 0.231452
-1.509819 -0.024577 0.322988 0.825220 0.393475 0.405164
-1.816589 -0.083182 -0.015720 -0.703085 -0.652943 0.281594
-1.484858 -0.096363 0.312308 0.953795 -0.116306 0.276955
-1.826999 0.010893 -0.026911 -0.681112 0.721061 0.126865
-1.674163 0.036549 0.345509 -0.635334 0.186438 0.749352
3 0 1 2
3 3 4 5
3 6 7 8
3 9 10 11
3 9 11 12
3 13 14 0
3 2 13 0
3 8 1 6
3 15 8 7
3 10 9 14
3 16 17 11
3 5 14 13
3 13 2 1
3 18 13 1
3 17 7 19
3 4 20 15
3 7 17 16
3 21 3 8
3 15 21 8
3 10 16 11
3 0 6 1
3 3 20 4
3 6 19 7
3 16 15 7
3 5 18 3
3 9 0 14
3 18 8 3
3 5 10 14
3 12 6 0
3 15 10 4
3 21 20 3
3 17 12 11
3 5 13 18
3 9 12 0
3 18 1 8
3 5 4 10
3 12 19 6
3 15 16 10
3 21 15 20
3 17 19 12
