ply
format ascii 1.0
comment Created by Blender 2.77 (sub 0) - www.blender.org, source file: 'GiantTree0.blend'
element vertex 41
property float x
property float y
property float z
property float nx
property float ny
property float nz
element face 42
property list uchar uint vertex_indices
end_header
1.337179 3.224732 -0.714286 0.776086 0.397809 0.489242
1.348621 3.212514 -0.768966 0.935301 0.230506 -0.268380
1.285883 3.245397 -0.699736 0.132023 0.732780 0.667501
0.731772 2.444255 -0.767250 0.142064 -0.276864 -0.950346
1.257470 3.241627 -0.794545 -0.213538 0.753075 -0.622272
1.308767 3.220962 -0.809096 0.417585 0.400372 -0.815638
0.281128 2.049005 -0.509201 -0.409711 -0.177343 0.894772
0.228590 2.064975 -0.556393 -0.927396 0.069155 0.367565
0.226814 2.032341 -0.621000 -0.915830 -0.232307 -0.327494
1.246028 3.253844 -0.739865 -0.532124 0.549474 0.644145
0.281128 2.049005 -0.509201 -0.532124 0.549474 0.644145
1.285883 3.245397 -0.699736 -0.532124 0.549474 0.644145
0.687029 2.496471 -0.751938 -0.283212 0.152074 -0.946898
0.428955 2.257235 -0.709534 -0.597186 0.342509 -0.725242
0.330114 1.967769 -0.591224 0.145207 -0.989349 0.007477
0.476885 2.205438 -0.725626 0.058382 -0.327616 -0.942991
0.519671 2.178383 -0.673890 0.503250 -0.654744 -0.563891
1.246028 3.253844 -0.739865 -0.352886 0.930387 0.099094
0.423811 2.281977 -0.641707 -0.761193 0.612842 -0.212043
1.005795 2.724545 -0.637145 0.196661 -0.004822 0.980438
0.277576 1.983738 -0.638416 -0.365673 -0.776147 -0.513657
1.031627 2.696021 -0.762119 0.395825 -0.356700 -0.846187
0.765656 2.410583 -0.715471 0.536393 -0.644002 -0.545427
1.054724 2.683778 -0.651932 0.615040 -0.368358 0.697134
1.067641 2.669515 -0.714419 0.773675 -0.595996 -0.214911
1.308767 3.220962 -0.809096 0.336230 0.931643 -0.137809
1.285883 3.245397 -0.699736 0.336230 0.931643 -0.137809
1.348621 3.212514 -0.768966 0.336230 0.931643 -0.137809
0.331890 2.000403 -0.526617 0.106815 -0.689688 0.716147
0.330114 1.967769 -0.591224 -0.566475 -0.729201 0.383891
0.226814 2.032341 -0.621000 -0.566475 -0.729201 0.383891
0.277576 1.983738 -0.638416 -0.566475 -0.729201 0.383891
1.246028 3.253844 -0.739865 -0.478559 0.518868 0.708348
0.228590 2.064975 -0.556393 -0.478559 0.518868 0.708348
0.281128 2.049005 -0.509201 -0.478559 0.518868 0.708348
1.308767 3.220962 -0.809096 0.336223 0.931645 -0.137811
1.246028 3.253844 -0.739865 0.336223 0.931645 -0.137811
1.285883 3.245397 -0.699736 0.336223 0.931645 -0.137811
0.330114 1.967769 -0.591224 -0.566475 -0.729200 0.383893
0.281128 2.049005 -0.509201 -0.566475 -0.729200 0.383893
0.226814 2.032341 -0.621000 -0.566475 -0.729200 0.383893
3 0 1 2
3 3 4 5
3 6 7 8
3 9 10 11
3 4 12 13
3 14 15 16
3 17 18 7
3 19 2 6
3 12 15 13
3 3 16 15
3 7 13 8
3 13 20 8
3 21 22 3
3 0 19 23
3 1 23 24
3 21 1 24
3 25 26 27
3 5 21 3
3 28 24 23
3 28 6 14
3 22 24 14
3 29 30 31
3 4 18 17
3 16 22 14
3 19 28 23
3 5 4 17
3 3 12 4
3 32 33 34
3 14 20 15
3 12 3 15
3 3 22 16
3 7 18 13
3 13 15 20
3 21 24 22
3 0 2 19
3 1 0 23
3 21 5 1
3 35 36 37
3 28 14 24
3 38 39 40
3 4 13 18
3 19 6 28
