ply
format ascii 1.0
comment Created by Blender 2.77 (sub 0) - www.blender.org, source file: 'GiantTree0.blend'
element vertex 22
property float x
property float y
property float z
property float nx
property float ny
property float nz
element face 40
property list uchar uint vertex_indices
end_header
0.371513 2.049923 0.364261 0.297342 -0.938047 0.177770
0.257488 2.341277 0.591696 -0.336924 -0.618763 0.709616
0.300416 2.057840 0.353087 -0.447462 -0.894040 0.021210
0.373418 2.386252 0.575433 0.953398 0.042238 0.298715
0.418841 2.087247 0.324146 0.816736 -0.518418 -0.253243
0.351032 2.422869 0.517120 0.837336 0.445662 -0.316538
0.395072 2.132489 0.272857 0.568499 -0.074221 -0.819300
0.197072 2.661615 0.814371 0.268197 -0.392041 0.879971
0.326646 2.345456 0.612721 0.332347 -0.496536 0.801843
0.243818 2.702308 0.777081 0.865627 0.065767 0.496323
0.049446 3.019182 0.995781 0.230384 -0.340190 0.911679
0.130791 2.649411 0.788113 -0.508682 -0.566057 0.648671
-0.084629 3.435094 1.173026 0.078799 0.320780 0.943846
-0.014623 3.007773 0.970645 -0.671407 -0.487106 0.558458
-0.039047 3.453957 1.132993 0.616108 0.627247 0.476363
-0.054111 3.472225 1.074040 0.422590 0.880581 -0.214393
-0.160336 3.452767 1.095153 -0.858547 0.512467 -0.015534
-0.032049 3.031602 0.907435 -0.952727 -0.303781 0.000610
-0.145273 3.434499 1.154106 -0.671163 0.265542 0.692068
0.276647 2.103082 0.301797 -0.676534 -0.477493 -0.560594
0.323976 2.140406 0.261683 -0.174108 -0.067965 -0.982360
-0.114755 3.471630 1.055120 -0.302286 0.828608 -0.471145
3 0 1 2
3 3 0 4
3 5 4 6
3 7 1 8
3 9 8 3
3 10 11 7
3 12 13 10
3 14 5 15
3 13 16 17
3 12 16 18
3 19 13 17
3 2 19 20
3 14 9 3
3 6 4 20
3 14 7 9
3 12 14 15
3 15 21 16
3 2 4 0
3 17 16 19
3 15 20 21
3 11 13 2
3 1 11 2
3 21 19 16
3 10 7 12
3 15 5 6
3 0 8 1
3 3 8 0
3 5 3 4
3 7 11 1
3 9 7 8
3 10 13 11
3 12 18 13
3 14 3 5
3 13 18 16
3 12 15 16
3 19 2 13
3 14 12 7
3 2 20 4
3 15 6 20
3 21 20 19
