ply
format ascii 1.0
comment Created by Blender 2.77 (sub 0) - www.blender.org, source file: ''
element vertex 14
property float x
property float y
property float z
property float nx
property float ny
property float nz
element face 24
property list uchar uint vertex_indices
end_header
-0.137274 0.987725 0.528799 -0.678457 0.098972 0.727928
0.138225 1.305552 0.441509 0.613727 0.547288 0.568987
-0.137274 1.305552 0.441509 -0.613727 0.547288 0.568987
0.138225 1.445458 0.000000 0.645009 0.764153 0.000000
-0.137274 1.445458 0.000000 -0.645009 0.764153 0.000000
0.138225 0.987725 0.528799 0.678457 0.098972 0.727928
0.138225 -0.022892 0.531109 0.577227 -0.576739 0.578051
-0.137274 -0.022892 0.531109 -0.577227 -0.576739 0.578051
0.138225 -0.022892 -0.531109 0.577227 -0.576739 -0.578051
0.138225 0.987725 -0.528799 0.678457 0.098972 -0.727928
0.138225 1.305552 -0.441509 0.613727 0.547288 -0.568987
-0.137274 0.987725 -0.528799 -0.678457 0.098972 -0.727928
-0.137274 -0.022892 -0.531109 -0.577227 -0.576739 -0.578051
-0.137274 1.305552 -0.441509 -0.613727 0.547288 -0.568987
3 0 1 2
3 2 3 4
3 0 5 1
3 2 1 3
3 6 0 7
3 8 9 10
3 8 10 3
3 7 11 12
3 8 3 1
3 8 1 5
3 8 5 6
3 10 4 3
3 6 12 8
3 0 2 4
3 0 4 13
3 0 13 11
3 9 13 10
3 8 11 9
3 6 5 0
3 7 0 11
3 10 13 4
3 6 7 12
3 9 11 13
3 8 12 11
