ply
format ascii 1.0
comment Created by Blender 2.77 (sub 0) - www.blender.org, source file: 'Houses.blend'
element vertex 16
property float x
property float y
property float z
property float nx
property float ny
property float nz
element face 28
property list uchar uint vertex_indices
end_header
2.273561 4.841189 -2.900202 0.803552 -0.143651 -0.577593
2.027374 4.668807 -0.169544 0.229713 -0.728568 0.645253
2.027373 4.668807 -2.900202 0.229713 -0.728568 -0.645253
-1.821188 4.668806 -2.900208 -0.229713 -0.728568 -0.645253
-2.067378 4.841188 -0.169544 -0.803552 -0.143651 0.577593
-2.067378 4.841188 -2.900208 -0.803552 -0.143651 -0.577593
0.296658 7.693442 -0.169544 0.571673 0.430738 0.698294
2.273561 4.841189 -0.169544 0.803552 -0.143651 0.577593
-0.090464 7.693442 -2.900202 -0.571764 0.430799 -0.698172
0.050471 7.865824 -0.169544 -0.335368 0.707358 0.622181
0.050471 7.865824 -2.900206 -0.335337 0.707358 -0.622211
0.155725 7.865824 -2.900202 0.335368 0.707358 -0.622181
0.296658 7.693442 -2.900206 0.571673 0.430738 -0.698294
0.155725 7.865824 -0.169544 0.335368 0.707358 0.622181
-0.090464 7.693442 -0.169544 -0.571673 0.430738 0.698294
-1.821187 4.668806 -0.169544 -0.229713 -0.728568 0.645253
3 0 1 2
3 3 4 5
3 0 6 7
3 8 9 10
3 8 10 5
3 10 11 5
3 12 5 11
3 6 11 13
3 8 4 14
3 3 0 2
3 3 12 0
3 2 15 3
3 7 6 13
3 7 13 9
3 7 9 14
3 7 14 4
3 7 4 15
3 7 15 1
3 11 9 13
3 0 7 1
3 3 15 4
3 0 12 6
3 8 14 9
3 12 3 5
3 6 12 11
3 8 5 4
3 2 1 15
3 11 10 9
