ply
format ascii 1.0
comment Created by Blender 2.77 (sub 0) - www.blender.org, source file: ''
element vertex 22
property float x
property float y
property float z
property float nx
property float ny
property float nz
element face 40
property list uchar uint vertex_indices
end_header
2.883486 2.040912 -3.837055 0.760338 0.158544 -0.629841
-0.081155 5.574049 3.451933 0.330485 0.708762 0.623188
2.883485 2.040915 3.451935 0.762505 0.165349 0.625477
-0.240707 -0.129453 -2.932714 -0.006806 -0.999969 0.001740
0.030595 -0.129454 -3.656187 0.004578 -0.851894 -0.523637
0.030595 -0.129454 -2.932714 0.006867 -0.999969 0.001740
-0.147027 5.574046 -3.837056 -0.291787 0.711600 -0.639088
-0.081155 5.574046 -3.837056 0.330485 0.708762 -0.623188
-0.147027 5.574049 3.451933 -0.293649 0.710074 0.639943
-0.584355 -0.093274 3.415761 -0.011078 -0.707602 0.706504
-2.592011 -0.093275 -3.674273 -0.489700 -0.653829 -0.576739
2.363815 -0.093280 -3.674273 0.504501 -0.652211 -0.565722
2.363815 -0.093279 3.271067 0.520951 -0.663289 0.537248
-0.240707 -0.129453 -3.656187 -0.004547 -0.851924 -0.523637
-2.592012 -0.093272 3.271066 -0.507370 -0.664907 0.548082
-2.736706 -0.070663 0.160133 -0.700247 -0.713858 0.005036
-2.736706 -0.070663 -0.744209 -0.700339 -0.713767 -0.005615
-3.111681 2.040913 3.451934 -0.744011 0.126133 0.656117
-2.736687 3.415583 -0.744210 -0.837916 0.544450 -0.038118
-3.111681 2.040911 -3.837056 -0.741325 0.117313 -0.660756
-2.736688 3.415583 0.160132 -0.838343 0.543992 0.034333
0.356165 -0.093275 3.415761 0.011383 -0.709830 0.704245
3 0 1 2
3 3 4 5
3 6 1 7
3 8 9 2
3 4 10 11
3 12 5 4
3 12 4 11
3 4 13 10
3 13 3 14
3 13 14 10
3 14 15 16
3 14 16 10
3 14 9 17
3 18 6 19
3 9 3 5
3 6 7 19
3 8 20 17
3 7 0 19
3 15 14 17
3 2 1 8
3 10 16 19
3 9 21 2
3 21 12 2
3 16 15 17
3 16 17 19
3 17 20 18
3 17 18 19
3 21 5 12
3 10 0 11
3 20 8 6
3 20 6 18
3 5 21 9
3 12 0 2
3 0 7 1
3 3 13 4
3 6 8 1
3 8 17 9
3 9 14 3
3 19 0 10
3 11 0 12
