ply
format ascii 1.0
comment Created by Blender 2.77 (sub 0) - www.blender.org, source file: 'Houses.blend'
element vertex 22
property float x
property float y
property float z
property float nx
property float ny
property float nz
element face 40
property list uchar uint vertex_indices
end_header
-3.837055 2.040912 -2.923928 -0.629841 0.158544 -0.760338
3.451933 5.574049 0.040712 0.623188 0.708762 -0.330485
3.451935 2.040915 -2.923928 0.625477 0.165349 -0.762505
-2.932714 -0.129453 0.200265 0.001740 -0.999969 0.006806
-3.656187 -0.129454 -0.071037 -0.523637 -0.851894 -0.004578
-2.932714 -0.129454 -0.071037 0.001740 -0.999969 -0.006867
-3.837056 5.574046 0.106585 -0.639088 0.711600 0.291787
-3.837056 5.574046 0.040713 -0.623188 0.708762 -0.330485
3.451933 5.574049 0.106584 0.639943 0.710074 0.293649
3.415761 -0.093274 0.543913 0.706504 -0.707602 0.011078
-3.674273 -0.093275 2.551569 -0.576739 -0.653829 0.489700
-3.674273 -0.093280 -2.404257 -0.565722 -0.652211 -0.504501
3.271067 -0.093279 -2.404258 0.537248 -0.663289 -0.520951
-3.656187 -0.129453 0.200265 -0.523545 -0.851955 0.004547
3.271066 -0.093272 2.551569 0.548082 -0.664907 0.507370
0.160133 -0.070663 2.696263 0.005036 -0.713858 0.700247
-0.744209 -0.070663 2.696263 -0.005615 -0.713767 0.700339
3.451934 2.040913 3.071238 0.656117 0.126133 0.744011
-0.744210 3.415583 2.696245 -0.038118 0.544450 0.837916
-3.837056 2.040911 3.071239 -0.660756 0.117313 0.741325
0.160132 3.415583 2.696245 0.034333 0.544023 0.838343
3.415761 -0.093275 -0.396607 0.704245 -0.709830 -0.011383
3 0 1 2
3 3 4 5
3 6 1 7
3 8 9 2
3 4 10 11
3 12 5 4
3 12 4 11
3 4 13 10
3 13 3 14
3 13 14 10
3 14 15 16
3 14 16 10
3 14 9 17
3 18 6 19
3 9 3 5
3 6 7 19
3 8 20 17
3 7 0 19
3 15 14 17
3 2 1 8
3 10 16 19
3 9 21 2
3 21 12 2
3 16 15 17
3 16 17 19
3 17 20 18
3 17 18 19
3 21 5 12
3 10 0 11
3 20 8 6
3 20 6 18
3 5 21 9
3 12 0 2
3 0 7 1
3 3 13 4
3 6 8 1
3 8 17 9
3 9 14 3
3 10 19 0
3 12 11 0
