ply
format ascii 1.0
comment Created by Blender 2.77 (sub 0) - www.blender.org, source file: ''
element vertex 16
property float x
property float y
property float z
property float nx
property float ny
property float nz
element face 28
property list uchar uint vertex_indices
end_header
0.274191 4.893796 -2.111944 -0.577593 -0.143651 -0.803552
3.004849 4.721414 -1.865757 0.645253 -0.728568 -0.229713
0.274191 4.721414 -1.865756 -0.645253 -0.728568 -0.229713
0.274185 4.721413 1.982805 -0.645253 -0.728568 0.229713
3.004849 4.893795 2.228995 0.577593 -0.143651 0.803552
0.274185 4.893795 2.228995 -0.577593 -0.143651 0.803552
3.004849 7.746049 -0.135041 0.698294 0.430738 -0.571673
3.004849 4.893796 -2.111944 0.577593 -0.143651 -0.803552
0.274191 7.746049 0.252081 -0.698202 0.430799 0.571764
3.004849 7.918431 0.111146 0.622181 0.707358 0.335368
0.274187 7.918431 0.111146 -0.622211 0.707358 0.335337
0.274191 7.918431 0.005892 -0.622181 0.707358 -0.335368
0.274187 7.746049 -0.135041 -0.698294 0.430738 -0.571673
3.004849 7.918431 0.005892 0.622181 0.707358 -0.335368
3.004849 7.746049 0.252081 0.698294 0.430738 0.571673
3.004849 4.721413 1.982804 0.645253 -0.728568 0.229713
3 0 1 2
3 3 4 5
3 0 6 7
3 8 9 10
3 8 10 5
3 10 11 5
3 12 5 11
3 6 11 13
3 8 4 14
3 3 0 2
3 12 0 3
3 2 15 3
3 7 6 13
3 7 13 9
3 7 9 14
3 7 14 4
3 7 4 15
3 7 15 1
3 11 9 13
3 0 7 1
3 3 15 4
3 0 12 6
3 8 14 9
3 12 3 5
3 6 12 11
3 8 5 4
3 2 1 15
3 11 10 9
