ply
format ascii 1.0
comment Created by Blender 2.77 (sub 0) - www.blender.org, source file: ''
element vertex 22
property float x
property float y
property float z
property float nx
property float ny
property float nz
element face 40
property list uchar uint vertex_indices
end_header
-0.076070 0.017909 -4.048525 -0.003174 -0.851588 -0.524186
0.245939 0.017909 -3.189833 0.004730 -0.999969 0.001831
-0.076070 0.017909 -3.189833 -0.004486 -0.999969 0.001862
4.377783 3.040983 -4.263206 0.739036 0.206214 -0.641285
0.117327 8.221173 4.388110 0.334239 0.707694 0.622425
4.377781 3.040985 4.388112 0.740806 0.211859 0.637379
0.632365 0.060824 4.345176 0.007538 -0.709372 0.704764
0.031094 8.221171 -4.263207 -0.304483 0.711600 -0.633168
0.031092 8.221173 4.388110 -0.305673 0.710318 0.633992
-3.940227 0.060839 -4.070002 -0.536027 -0.618519 -0.574511
4.088655 0.060839 -4.069998 0.551897 -0.616108 -0.561937
0.245939 0.017909 -4.048525 0.003296 -0.851619 -0.524125
4.088652 0.060842 4.173460 0.562822 -0.622822 0.543382
-4.111967 0.060843 -0.592294 -0.697653 -0.716361 -0.007477
-4.111967 0.060843 0.481063 -0.697378 -0.716636 0.006897
-3.940228 0.060842 4.173439 -0.548082 -0.625294 0.555498
-0.483950 0.060824 4.345177 -0.007324 -0.707419 0.706748
-4.229371 3.040985 4.388111 -0.722983 0.173589 0.668661
-4.111967 4.225528 0.481062 -0.895962 0.442763 0.034394
-4.111967 4.225528 -0.592294 -0.895413 0.443556 -0.037873
-4.229371 3.040983 -4.263207 -0.720511 0.165654 -0.673330
0.117329 8.221171 -4.263208 0.334239 0.707694 -0.622425
3 0 1 2
3 3 4 5
3 6 2 1
3 4 7 8
3 9 3 10
3 11 0 9
3 11 9 10
3 12 1 11
3 12 11 10
3 0 13 9
3 0 2 14
3 0 14 13
3 15 16 17
3 16 6 5
3 7 18 8
3 19 7 20
3 5 4 8
3 8 16 5
3 8 18 17
3 14 15 17
3 9 13 20
3 6 12 5
3 13 14 17
3 13 17 20
3 6 1 12
3 17 18 19
3 17 19 20
3 2 15 14
3 2 16 15
3 3 7 21
3 3 12 10
3 0 11 1
3 3 21 4
3 6 16 2
3 4 21 7
3 9 20 3
3 7 19 18
3 8 17 16
3 3 20 7
3 3 5 12
