ply
format ascii 1.0
comment Created by Blender 2.77 (sub 0) - www.blender.org, source file: ''
element vertex 12
property float x
property float y
property float z
property float nx
property float ny
property float nz
element face 20
property list uchar uint vertex_indices
end_header
-2.274688 8.141816 -0.569233 0.707083 -0.007111 -0.707083
-2.328379 2.839328 0.343118 0.574664 -0.582659 0.574664
-2.328379 2.839328 -0.515566 0.574664 -0.582659 -0.574664
-3.348076 8.141816 0.396787 -0.707083 -0.007111 0.707083
-2.274689 8.141816 0.396787 0.707083 -0.007111 0.707083
-3.348076 8.141816 -0.569233 -0.707083 -0.007111 -0.707083
-3.294408 2.839328 -0.515566 -0.574664 -0.582659 -0.574664
-2.274688 8.506760 -0.569233 0.577349 0.577349 -0.577349
-3.348076 8.506760 0.396787 -0.577349 0.577349 0.577349
-2.274689 8.506760 0.396787 0.577349 0.577349 0.577349
-3.348076 8.506760 -0.569233 -0.577349 0.577349 -0.577349
-3.294408 2.839328 0.343118 -0.574664 -0.582659 0.574664
3 0 1 2
3 3 1 4
3 5 2 6
3 1 6 2
3 7 8 9
3 3 9 8
3 4 7 9
3 0 10 7
3 5 8 10
3 5 11 3
3 0 4 1
3 3 11 1
3 5 0 2
3 1 11 6
3 7 10 8
3 3 4 9
3 4 0 7
3 0 5 10
3 5 3 8
3 5 6 11
