ply
format ascii 1.0
comment Created by Blender 2.77 (sub 0) - www.blender.org, source file: 'Anvil.blend'
element vertex 8
property float x
property float y
property float z
property float nx
property float ny
property float nz
element face 12
property list uchar uint vertex_indices
end_header
-0.207043 2.682446 3.048262 -0.577349 0.345042 0.739982
2.428271 3.605925 0.511025 0.577349 0.739982 -0.345042
-0.207043 3.605925 0.511025 -0.577349 0.739982 -0.345042
2.428271 2.473782 2.972315 0.577349 -0.739982 0.345042
-0.207043 3.397260 0.435077 -0.577349 -0.345042 -0.739982
2.428271 3.397260 0.435077 0.577349 -0.345042 -0.739982
-0.207043 2.473782 2.972315 -0.577349 -0.739982 0.345042
2.428271 2.682446 3.048262 0.577349 0.345042 0.739982
3 0 1 2
3 3 4 5
3 1 4 2
3 0 4 6
3 0 3 7
3 7 5 1
3 0 7 1
3 3 6 4
3 1 5 4
3 0 2 4
3 0 6 3
3 7 3 5
