ply
format ascii 1.0
comment Created by Blender 2.77 (sub 0) - www.blender.org, source file: 'Houses.blend'
element vertex 12
property float x
property float y
property float z
property float nx
property float ny
property float nz
element face 20
property list uchar uint vertex_indices
end_header
-0.696864 7.124387 2.019886 -0.577349 0.577349 0.577349
0.124591 6.448970 2.019888 0.707083 -0.007477 0.707083
0.124591 7.124387 2.019886 0.577349 0.577349 0.577319
0.124592 6.448951 1.107155 0.707083 -0.007477 -0.707083
-0.696864 7.124387 1.107155 -0.577349 0.577349 -0.577349
0.124592 7.124387 1.107155 0.577349 0.577349 -0.577349
-0.696864 6.448969 2.019888 -0.707083 -0.007477 0.707083
0.078956 2.159115 1.974257 0.574511 -0.582904 0.574511
-0.651227 2.159115 1.152797 -0.574511 -0.582904 -0.574511
0.078956 2.159115 1.152797 0.574511 -0.582904 -0.574511
-0.696864 6.448951 1.107155 -0.707083 -0.007477 -0.707083
-0.651227 2.159115 1.974258 -0.574511 -0.582904 0.574511
3 0 1 2
3 3 4 5
3 2 4 0
3 1 5 2
3 4 6 0
3 7 8 9
3 10 11 6
3 1 11 7
3 7 3 1
3 3 8 10
3 0 6 1
3 3 10 4
3 2 5 4
3 1 3 5
3 4 10 6
3 7 11 8
3 10 8 11
3 1 6 11
3 7 9 3
3 3 9 8
