ply
format ascii 1.0
comment Created by Blender 2.77 (sub 0) - www.blender.org, source file: 'LogHouse.blend'
element vertex 12
property float x
property float y
property float z
property float nx
property float ny
property float nz
element face 20
property list uchar uint vertex_indices
end_header
-3.649126 7.616758 0.181451 -0.638752 0.719138 0.273446
-2.394311 7.620860 -0.013171 0.636280 0.728355 -0.254158
-3.649126 7.620861 -0.013171 -0.636280 0.728355 -0.254158
-2.394311 4.657551 3.654349 0.627216 0.325022 0.707724
-2.394311 7.616758 0.181451 0.638752 0.719138 0.273446
-2.394311 4.614239 -3.637173 0.625263 0.326060 -0.709006
-2.458432 0.156418 3.681945 0.572832 -0.577563 0.581591
-2.458432 0.113106 -3.609577 0.572832 -0.584521 -0.574572
-3.649127 4.614239 -3.637173 -0.622272 0.330607 -0.709525
-3.649127 4.657551 3.654349 -0.624287 0.329630 0.708213
-3.649127 0.113106 -3.609577 -0.577349 -0.580798 -0.573840
-3.649127 0.156418 3.681945 -0.577319 -0.573840 0.580828
3 0 1 2
3 0 3 4
3 5 6 7
3 2 5 8
3 1 3 5
3 9 2 8
3 10 6 11
3 8 11 9
3 9 6 3
3 8 7 10
3 0 4 1
3 0 9 3
3 5 3 6
3 2 1 5
3 1 4 3
3 9 0 2
3 10 7 6
3 8 10 11
3 9 11 6
3 8 5 7
