ply
format ascii 1.0
comment Created by Blender 2.77 (sub 0) - www.blender.org, source file: 'LogHouse.blend'
element vertex 8
property float x
property float y
property float z
property float nx
property float ny
property float nz
element face 12
property list uchar uint vertex_indices
end_header
3.757129 4.686069 4.309640 0.577349 0.113346 0.808588
3.757129 7.587939 -0.105157 0.577349 -0.113346 -0.808588
3.757129 7.860358 0.100274 0.577349 0.808588 -0.113346
-3.682382 4.686069 4.309640 -0.577349 0.113346 0.808588
3.757129 4.413651 4.104209 0.577349 -0.808588 0.113346
-3.682382 7.860358 0.100274 -0.577349 0.808588 -0.113346
-3.682382 4.413651 4.104209 -0.577349 -0.808588 0.113346
-3.682382 7.587939 -0.105157 -0.577349 -0.113346 -0.808588
3 0 1 2
3 3 4 0
3 5 6 3
3 2 7 5
3 4 7 1
3 3 2 5
3 0 4 1
3 3 6 4
3 5 7 6
3 2 1 7
3 4 6 7
3 3 0 2
