ply
format ascii 1.0
comment Created by Blender 2.77 (sub 0) - www.blender.org, source file: ''
element vertex 8
property float x
property float y
property float z
property float nx
property float ny
property float nz
element face 12
property list uchar uint vertex_indices
end_header
0.963957 0.761823 1.316929 0.577349 -0.577349 0.577349
0.963957 1.210766 1.316929 0.577349 0.577349 0.577349
0.000876 1.210766 1.316929 -0.577349 0.577349 0.577349
0.000876 1.210766 -1.376953 -0.577349 0.577349 -0.577349
0.000876 0.761823 1.316929 -0.577349 -0.577349 0.577349
0.963957 1.210766 -1.376953 0.577349 0.577349 -0.577349
0.000876 0.761823 -1.376953 -0.577349 -0.577349 -0.577349
0.963957 0.761823 -1.376953 0.577349 -0.577349 -0.577349
3 0 1 2
3 3 4 2
3 2 5 3
3 2 4 0
3 3 6 4
3 0 6 7
3 2 1 5
3 1 7 5
3 6 5 7
3 0 4 6
3 1 0 7
3 6 3 5
