ply
format ascii 1.0
comment Created by Blender 2.77 (sub 0) - www.blender.org, source file: ''
element vertex 8
property float x
property float y
property float z
property float nx
property float ny
property float nz
element face 12
property list uchar uint vertex_indices
end_header
-0.299996 -0.044570 2.153384 0.577349 -0.577349 0.577349
-0.299996 2.900993 2.153384 0.577349 0.577349 0.577349
-0.588744 2.900993 2.153384 -0.577349 0.577349 0.577349
-0.588744 2.900993 -2.133652 -0.577349 0.577349 -0.577349
-0.588744 -0.044570 2.153384 -0.577349 -0.577349 0.577349
-0.299996 2.900993 -2.133652 0.577349 0.577349 -0.577349
-0.588744 -0.044570 -2.133652 -0.577349 -0.577349 -0.577349
-0.299996 -0.044570 -2.133652 0.577349 -0.577349 -0.577349
3 0 1 2
3 3 4 2
3 2 5 3
3 2 4 0
3 3 6 4
3 7 1 0
3 2 1 5
3 6 0 4
3 6 5 7
3 7 5 1
3 6 7 0
3 6 3 5
