ply
format ascii 1.0
comment Created by Blender 2.77 (sub 0) - www.blender.org, source file: ''
element vertex 8
property float x
property float y
property float z
property float nx
property float ny
property float nz
element face 12
property list uchar uint vertex_indices
end_header
-1.036919 1.812697 -2.580260 -0.552538 0.662404 0.505844
-1.057042 1.411095 -3.568976 -0.600024 -0.621754 -0.503311
-1.057042 1.540248 -2.549129 -0.601520 -0.483627 0.635792
-0.344690 1.409016 -3.568713 0.576159 -0.643300 -0.504135
-0.344894 1.681466 -3.599844 0.578539 0.503098 -0.641957
-1.036919 1.683545 -3.600108 -0.553606 0.523026 -0.648000
-0.344690 1.538169 -2.548866 0.577441 -0.504624 0.641774
-0.344894 1.810618 -2.579997 0.577258 0.641865 0.504715
3 0 1 2
3 3 2 1
3 0 4 5
3 0 5 1
3 4 6 3
3 3 6 2
3 0 7 4
3 5 3 1
3 0 6 7
3 4 7 6
3 5 4 3
3 0 2 6
