ply
format ascii 1.0
comment Created by Blender 2.77 (sub 0) - www.blender.org, source file: 'Merchant.blend'
element vertex 8
property float x
property float y
property float z
property float nx
property float ny
property float nz
element face 6
property list uchar uint vertex_indices
end_header
0.561992 0.558228 -4.114816 0.577349 -0.486251 0.655873
0.561992 0.478961 -4.648607 0.577349 -0.655873 -0.486251
0.561992 0.690138 -4.679968 0.577349 0.486251 -0.655873
0.561992 0.769405 -4.146176 0.577349 0.655873 0.486251
-1.131773 0.769405 -4.146176 -0.577349 0.655873 0.486251
-1.131773 0.558228 -4.114816 -0.577349 -0.486251 0.655873
-1.131773 0.690138 -4.679968 -0.577349 0.486251 -0.655873
-1.131773 0.478961 -4.648607 -0.577349 -0.655873 -0.486251
4 0 1 2 3
4 3 4 5 0
4 4 6 7 5
4 1 7 6 2
4 1 0 5 7
4 6 4 3 2
