ply
format ascii 1.0
comment Created by Blender 2.77 (sub 0) - www.blender.org, source file: 'Merchant.blend'
element vertex 18
property float x
property float y
property float z
property float nx
property float ny
property float nz
element face 32
property list uchar uint vertex_indices
end_header
-2.383767 0.535063 -2.629006 0.000000 0.000000 1.000000
-2.816673 1.066703 -2.986069 -0.632069 0.683584 0.364910
-2.909446 0.535063 -2.932507 -0.866024 0.000000 0.499985
-2.816673 1.066703 -3.485946 -0.632069 0.683584 -0.364910
-2.909446 0.535063 -3.539509 -0.866024 0.000000 -0.499985
-2.383767 0.535063 -3.843009 0.000000 0.000000 -1.000000
-2.383767 1.066703 -3.735885 0.000000 0.683584 -0.729850
-1.858088 0.535063 -3.539509 0.866024 0.000000 -0.499985
-2.383767 1.066703 -2.736131 0.000000 0.683584 0.729850
-1.950861 1.066703 -3.485946 0.632069 0.683584 -0.364910
-1.858088 0.535063 -2.932507 0.866024 0.000000 0.499985
-1.950861 1.066703 -2.986069 0.632069 0.683584 0.364910
-2.816673 0.003424 -2.986069 -0.632069 -0.683584 0.364910
-1.950861 0.003424 -3.485946 0.632069 -0.683584 -0.364910
-1.950861 0.003424 -2.986069 0.632069 -0.683584 0.364910
-2.383767 0.003424 -2.736131 0.000000 -0.683584 0.729850
-2.383767 0.003424 -3.735885 0.000000 -0.683584 -0.729850
-2.816673 0.003424 -3.485946 -0.632069 -0.683584 -0.364910
3 0 1 2
3 2 3 4
3 3 5 4
3 6 7 5
3 8 9 3
3 9 10 7
3 11 0 10
3 12 13 14
3 10 15 14
3 7 14 13
3 16 7 13
3 17 5 16
3 2 17 12
3 0 12 15
3 0 8 1
3 2 1 3
3 3 6 5
3 6 9 7
3 3 1 8
3 8 11 9
3 9 6 3
3 9 11 10
3 11 8 0
3 14 15 12
3 12 17 16
3 16 13 12
3 10 0 15
3 7 10 14
3 16 5 7
3 17 4 5
3 2 4 17
3 0 2 12
