ply
format ascii 1.0
comment Created by Blender 2.77 (sub 0) - www.blender.org, source file: 'Merchant.blend'
element vertex 8
property float x
property float y
property float z
property float nx
property float ny
property float nz
element face 6
property list uchar uint vertex_indices
end_header
-0.700666 0.462212 -4.175200 0.577349 -0.486251 0.655873
-0.700666 0.247555 -5.620681 0.577349 -0.655873 -0.486251
-0.700666 0.429405 -5.647686 0.577349 0.486251 -0.655873
-0.700666 0.644063 -4.202205 0.577349 0.655873 0.486251
-0.934122 0.644063 -4.202205 -0.577349 0.655873 0.486251
-0.934122 0.462212 -4.175200 -0.577349 -0.486251 0.655873
-0.934122 0.429405 -5.647686 -0.577349 0.486251 -0.655873
-0.934122 0.247555 -5.620681 -0.577349 -0.655873 -0.486251
4 0 1 2 3
4 3 4 5 0
4 4 6 7 5
4 1 7 6 2
4 1 0 5 7
4 6 4 3 2
