ply
format ascii 1.0
comment Created by Blender 2.77 (sub 0) - www.blender.org, source file: ''
element vertex 18
property float x
property float y
property float z
property float nx
property float ny
property float nz
element face 32
property list uchar uint vertex_indices
end_header
-2.376090 0.535063 -1.423631 0.000000 0.000000 1.000000
-2.808996 1.066703 -1.780694 -0.632069 0.683584 0.364910
-2.901769 0.535063 -1.727132 -0.866024 0.000000 0.499985
-2.808996 1.066703 -2.280571 -0.632069 0.683584 -0.364910
-2.376090 0.535063 -2.637635 0.000000 0.000000 -1.000000
-2.901769 0.535063 -2.334134 -0.866024 0.000000 -0.499985
-1.943183 1.066703 -2.280571 0.632069 0.683584 -0.364910
-1.850410 0.535063 -1.727132 0.866024 0.000000 0.499985
-1.850410 0.535063 -2.334134 0.866024 0.000000 -0.499985
-1.943183 1.066703 -1.780694 0.632069 0.683584 0.364910
-2.376090 0.003424 -1.530756 0.000000 -0.683584 0.729850
-1.943183 0.003424 -1.780694 0.632069 -0.683584 0.364910
-1.943183 0.003424 -2.280571 0.632069 -0.683584 -0.364910
-2.376090 0.003424 -2.530510 0.000000 -0.683584 -0.729850
-2.808996 0.003424 -2.280571 -0.632069 -0.683584 -0.364910
-2.808996 0.003424 -1.780694 -0.632069 -0.683584 0.364910
-2.376090 1.066703 -1.530756 0.000000 0.683584 0.729850
-2.376090 1.066703 -2.530510 0.000000 0.683584 -0.729850
3 0 1 2
3 3 4 5
3 6 7 8
3 9 0 7
3 7 10 11
3 8 11 12
3 4 12 13
3 14 4 13
3 0 15 10
3 0 16 1
3 3 17 4
3 6 9 7
3 16 0 9
3 7 0 10
3 8 7 11
3 4 8 12
3 14 5 4
3 3 2 1
3 0 2 15
3 17 9 6
3 8 17 6
3 14 2 5
3 1 16 9
3 14 10 15
3 1 17 3
3 12 11 10
3 12 14 13
3 3 5 2
3 17 1 9
3 8 4 17
3 14 15 2
3 14 12 10
