ply
format ascii 1.0
comment Created by Blender 2.77 (sub 0) - www.blender.org, source file: 'Merchant.blend'
element vertex 8
property float x
property float y
property float z
property float nx
property float ny
property float nz
element face 12
property list uchar uint vertex_indices
end_header
0.714386 1.716788 -1.531780 0.577349 0.655873 0.486251
0.714386 0.443905 -4.104832 0.577349 -0.655873 -0.486251
0.714386 1.315465 -4.234261 0.577349 0.486251 -0.655873
-1.286564 1.716788 -1.531780 -0.577349 0.655873 0.486251
0.714386 0.845227 -1.402352 0.577349 -0.486251 0.655873
-1.286564 1.315465 -4.234261 -0.577349 0.486251 -0.655873
-1.286564 0.845227 -1.402352 -0.577349 -0.486251 0.655873
-1.286564 0.443905 -4.104832 -0.577349 -0.655873 -0.486251
3 0 1 2
3 3 4 0
3 5 6 3
3 2 7 5
3 4 7 1
3 3 2 5
3 0 4 1
3 3 6 4
3 5 7 6
3 2 1 7
3 4 6 7
3 3 0 2
