ply
format ascii 1.0
comment Created by Blender 2.77 (sub 0) - www.blender.org, source file: ''
element vertex 12
property float x
property float y
property float z
property float nx
property float ny
property float nz
element face 20
property list uchar uint vertex_indices
end_header
-3.168119 0.248056 -0.246256 -0.686239 0.609973 -0.396191
-2.704081 0.080525 -0.514169 0.000000 -0.609973 -0.792383
-3.168119 0.080525 -0.246256 -0.686239 -0.609973 -0.396191
-2.704081 0.248056 -0.514169 0.000000 0.609973 -0.792383
-2.240042 0.080525 -0.246256 0.686239 -0.609973 -0.396191
-2.240042 0.248056 -0.246256 0.686239 0.609973 -0.396191
-2.240042 0.080525 0.289569 0.686239 -0.609973 0.396191
-2.704081 0.248056 0.557482 0.000000 0.609973 0.792383
-2.240042 0.248056 0.289569 0.686239 0.609973 0.396191
-2.704081 0.080525 0.557482 0.000000 -0.609973 0.792383
-3.168119 0.248056 0.289569 -0.686239 0.609973 0.396191
-3.168119 0.080525 0.289569 -0.686239 -0.609973 0.396191
3 0 1 2
3 3 4 1
3 5 6 4
3 0 3 1
3 3 5 4
3 7 8 5
3 5 3 0
3 5 8 6
3 8 9 6
3 4 2 1
3 10 2 11
3 9 11 2
3 7 0 10
3 9 4 6
3 7 11 9
3 8 7 9
3 4 9 2
3 10 0 2
3 7 5 0
3 7 10 11
