ply
format ascii 1.0
comment Created by Blender 2.77 (sub 0) - www.blender.org, source file: 'Plants.blend'
element vertex 12
property float x
property float y
property float z
property float nx
property float ny
property float nz
element face 20
property list uchar uint vertex_indices
end_header
-0.236088 0.738781 -0.085492 -0.000427 -0.999969 0.000000
-0.705819 1.097626 -0.491256 -0.735588 -0.454604 -0.502182
-0.056670 1.097626 -0.742037 0.286569 -0.463698 -0.838343
-0.705819 1.097626 0.320272 -0.735588 -0.454604 0.502182
0.344537 1.097626 -0.085492 0.894620 -0.446822 0.000000
-0.056670 1.097626 0.571054 0.286569 -0.463698 0.838343
-0.816712 1.678254 -0.085492 -0.894620 0.446822 0.000000
-0.415506 1.678254 -0.742037 -0.286569 0.463698 -0.838343
0.233644 1.678254 -0.491256 0.735588 0.454604 -0.502182
0.233644 1.678254 0.320272 0.735588 0.454604 0.502182
-0.415506 1.678254 0.571054 -0.286569 0.463698 0.838343
-0.236088 2.037099 -0.085492 0.000427 0.999969 0.000000
3 0 1 2
3 1 0 3
3 0 2 4
3 0 4 5
3 0 5 3
3 1 3 6
3 2 1 7
3 4 2 8
3 5 4 9
3 3 5 10
3 1 6 7
3 2 7 8
3 4 8 9
3 5 9 10
3 3 10 6
3 7 6 11
3 8 7 11
3 9 8 11
3 10 9 11
3 6 10 11
