ply
format ascii 1.0
comment Created by Blender 2.77 (sub 0) - www.blender.org, source file: ''
element vertex 21
property float x
property float y
property float z
property float nx
property float ny
property float nz
element face 38
property list uchar uint vertex_indices
end_header
0.357575 1.277340 0.199807 0.035859 -0.890500 0.453505
0.339556 1.311748 0.139673 -0.419721 -0.362346 -0.832148
0.365194 1.302427 0.138527 0.141911 -0.480667 -0.865322
0.381639 1.288994 0.155693 0.563158 -0.670278 -0.483230
0.395706 1.752521 0.235038 -0.153539 0.702231 0.695181
0.421567 1.748675 0.232793 0.426466 0.571612 0.700949
0.439781 1.749740 0.210644 0.786767 0.584979 0.196905
0.374413 1.753985 0.218009 -0.611042 0.712821 0.344188
0.406398 1.514185 0.265350 0.711570 -0.141545 0.688162
0.415734 1.517921 0.239965 0.981170 -0.126835 0.145451
0.388375 1.753273 0.169533 -0.318339 0.683798 -0.656514
0.371376 1.754296 0.190876 -0.678671 0.705283 -0.204810
0.436744 1.750051 0.183511 0.731223 0.578295 -0.361736
0.415451 1.751515 0.166482 0.265328 0.633808 -0.726524
0.379256 1.279319 0.181114 0.558123 -0.825861 0.079989
0.317360 1.301823 0.183879 -0.877743 -0.474746 0.064241
0.358914 1.530265 0.271019 -0.609149 0.072939 0.789666
0.348583 1.540661 0.247983 -0.948820 0.128178 0.288552
0.380880 1.517713 0.277993 0.047792 -0.086154 0.995117
0.333805 1.288390 0.201044 -0.542711 -0.680502 0.492264
0.319743 1.311498 0.158458 -0.820460 -0.347697 -0.453780
3 0 1 2
3 3 0 2
3 4 5 6
3 7 4 6
3 6 8 9
3 10 11 12
3 10 12 13
3 12 2 13
3 14 9 8
3 15 16 17
3 0 8 18
3 19 18 16
3 8 5 18
3 1 0 20
3 20 0 15
3 15 0 19
3 6 9 3
3 17 7 11
3 13 1 10
3 12 6 3
3 14 0 3
3 11 20 15
3 17 11 15
3 12 3 2
3 14 3 9
3 15 19 16
3 0 14 8
3 19 0 18
3 8 6 5
3 12 7 6
3 13 2 1
3 16 5 4
3 17 4 7
3 11 1 20
3 12 11 7
3 16 18 5
3 17 16 4
3 11 10 1
