ply
format ascii 1.0
comment Created by Blender 2.77 (sub 0) - www.blender.org, source file: ''
element vertex 70
property float x
property float y
property float z
property float nx
property float ny
property float nz
element face 136
property list uchar uint vertex_indices
end_header
0.191537 1.547464 -0.217097 0.143345 -0.945311 -0.292947
0.503079 1.720658 -0.410125 0.469649 -0.753746 -0.459639
0.558332 1.591238 0.178018 0.460799 -0.885281 -0.062380
0.572272 1.743961 -0.316037 0.710624 -0.649678 -0.269936
0.747586 1.740743 0.242527 0.819239 -0.572985 -0.022370
-0.406572 2.077506 0.173325 -0.848628 0.189673 0.493759
-0.199924 2.042749 0.393696 -0.672964 0.089511 0.734214
-0.015462 2.211220 0.488376 -0.418744 0.574602 0.703177
-0.258269 2.201014 0.220780 -0.594440 0.591937 0.544237
-0.315006 1.740836 -0.477047 -0.583026 -0.515152 -0.628193
-0.216902 1.595797 -0.272668 -0.437147 -0.897916 -0.051424
-0.385446 1.726782 -0.328990 -0.814905 -0.561052 -0.145177
0.374255 2.070355 -0.580178 0.139409 0.354778 -0.924467
-0.126364 1.960066 -0.583580 -0.190954 0.200476 -0.960875
0.005284 2.369786 -0.351552 -0.120701 0.658498 -0.742790
0.286628 2.215321 -0.471823 0.100406 0.652028 -0.751488
-0.467186 2.051258 -0.042260 -0.996643 0.054445 0.060732
-0.422373 1.895611 -0.349515 -0.951079 -0.015595 -0.308512
0.141071 1.884377 0.545705 -0.095340 -0.341563 0.934996
-0.015992 1.841347 0.491270 -0.394604 -0.517594 0.759178
0.509161 1.729696 0.486204 0.122959 -0.564959 0.815882
0.363048 1.698946 0.439589 -0.135044 -0.671621 0.728446
-0.380485 1.891615 0.166283 -0.827540 -0.382061 0.411298
-0.328657 1.737857 -0.100475 -0.669332 -0.706839 0.228736
-0.229543 1.752464 0.207058 -0.556749 -0.715018 0.422773
-0.330465 1.893628 -0.518839 -0.636769 0.018159 -0.770806
-0.314258 2.043642 -0.465165 -0.603870 0.435102 -0.667806
-0.115447 1.749282 -0.556053 -0.093478 -0.480819 -0.871792
-0.132775 1.611368 -0.414307 -0.099124 -0.856960 -0.505722
-0.064856 2.519614 -0.057110 -0.335551 0.941740 0.022401
-0.198270 2.403849 0.079902 -0.523698 0.727042 0.443953
0.062715 2.496721 0.137090 -0.245155 0.869106 0.429548
0.138175 2.532457 -0.157857 0.019379 0.935148 -0.353710
-0.075292 2.467894 -0.224458 -0.298135 0.824000 -0.481765
-0.031707 1.573897 0.067394 -0.342448 -0.890683 0.298929
0.177767 1.584671 0.199542 -0.284616 -0.806940 0.517502
0.091514 1.524608 -0.086086 -0.065432 -0.997833 -0.002777
-0.213974 1.883297 0.360308 -0.645558 -0.342448 0.682607
-0.238734 2.344727 -0.261154 -0.554826 0.640278 -0.531205
-0.418523 2.143548 -0.177210 -0.882626 0.387616 -0.265847
-0.374052 2.265462 0.009962 -0.806269 0.556078 0.201697
-0.284211 2.376934 -0.116256 -0.681967 0.720298 -0.126682
0.039121 2.062675 0.584096 -0.174535 0.073366 0.981903
0.460162 1.561523 0.318618 0.120609 -0.918790 0.375805
0.704913 1.728422 0.401880 0.632099 -0.605457 0.483535
0.347655 2.463388 0.253755 0.112491 0.848445 0.517136
0.287116 2.535312 0.087264 0.092166 0.979247 0.180395
0.457804 2.474523 0.133106 0.425275 0.878445 0.217811
0.648738 2.049840 -0.376604 0.895474 0.201575 -0.396771
0.548905 2.070612 -0.523924 0.552293 0.344676 -0.759026
0.609614 2.192567 -0.291670 0.761223 0.495621 -0.418165
0.149898 2.208347 0.526084 -0.059969 0.531510 0.844905
0.822668 2.008643 0.103034 0.968200 -0.002014 -0.250130
0.859664 2.042107 0.279146 0.992126 0.121921 0.028535
0.821731 2.042438 0.432951 0.872768 0.110965 0.475326
0.705968 2.215377 0.397001 0.616169 0.689108 0.381298
0.613686 2.191436 0.515580 0.313211 0.627461 0.712821
0.664221 2.038602 0.586686 0.416456 0.057466 0.907315
0.560432 1.874424 -0.523852 0.600269 -0.299112 -0.741722
0.653111 1.882401 -0.363008 0.893613 -0.285989 -0.345897
0.365019 2.435240 -0.234338 0.286294 0.778954 -0.557848
0.360502 2.516802 -0.064383 0.306070 0.931364 -0.197119
0.548850 2.433383 0.012528 0.613056 0.787469 -0.063204
0.565117 2.363964 -0.159258 0.632954 0.678213 -0.373302
0.711482 2.209489 -0.046115 0.866482 0.431837 -0.250343
0.452119 2.041556 0.603552 0.004028 0.063051 0.997986
0.370663 1.880177 -0.587434 0.165380 -0.265328 -0.949858
0.367866 1.719150 -0.469299 0.176672 -0.740898 -0.647938
0.501228 2.219534 -0.390079 0.434767 0.677694 -0.593036
0.752954 2.208078 0.240064 0.790216 0.611774 0.035524
3 0 1 2
3 3 4 2
3 1 3 2
3 5 6 7
3 8 5 7
3 9 10 11
3 12 13 14
3 15 12 14
3 11 16 17
3 18 19 20
3 19 21 20
3 22 23 24
3 25 17 26
3 11 10 23
3 9 27 28
3 29 30 31
3 32 14 33
3 19 34 35
3 10 28 36
3 34 10 36
3 9 17 25
3 37 22 24
3 14 38 33
3 39 40 41
3 42 19 18
3 19 24 34
3 20 43 44
3 2 4 44
3 43 2 44
3 31 45 46
3 46 45 47
3 48 49 50
3 7 42 51
3 52 53 4
3 54 55 56
3 57 54 56
3 20 21 43
3 58 59 3
3 14 32 60
3 61 60 32
3 39 16 40
3 27 25 13
3 29 32 33
3 29 46 32
3 61 32 46
3 28 0 36
3 30 41 40
3 40 16 5
3 39 41 38
3 25 26 13
3 33 41 29
3 14 60 15
3 24 19 37
3 61 47 62
3 7 6 42
3 29 31 46
3 63 61 62
3 63 64 50
3 56 65 57
3 57 20 44
3 20 57 65
3 54 57 44
3 49 66 12
3 58 67 66
3 48 58 49
3 1 58 3
3 64 63 62
3 34 36 43
3 35 34 43
3 19 35 43
3 13 66 27
3 12 15 49
3 19 43 21
3 49 15 60
3 68 49 60
3 39 17 16
3 51 56 45
3 1 0 67
3 26 14 13
3 26 39 38
3 64 62 69
3 16 22 5
3 11 23 22
3 45 55 47
3 27 66 67
3 48 50 64
3 50 49 63
3 49 68 63
3 68 60 63
3 18 20 65
3 9 28 10
3 11 22 16
3 9 11 17
3 27 9 25
3 30 29 41
3 33 38 41
3 61 46 47
3 63 60 61
3 49 58 66
3 58 1 67
3 48 59 58
3 13 12 66
3 51 65 56
3 26 38 14
3 26 17 39
3 45 56 55
3 53 55 54
3 6 22 37
3 27 0 28
3 54 4 53
3 34 23 10
3 51 31 7
3 8 31 30
3 52 69 53
3 59 64 52
3 36 2 43
3 8 40 5
3 6 19 42
3 69 47 55
3 51 18 65
3 3 52 4
3 53 69 55
3 6 5 22
3 27 67 0
3 54 44 4
3 34 24 23
3 51 45 31
3 8 7 31
3 52 64 69
3 59 48 64
3 36 0 2
3 8 30 40
3 6 37 19
3 69 62 47
3 51 42 18
3 3 59 52
