ply
format ascii 1.0
comment Created by Blender 2.77 (sub 0) - www.blender.org, source file: 'NewTrees.blend'
element vertex 21
property float x
property float y
property float z
property float nx
property float ny
property float nz
element face 38
property list uchar uint vertex_indices
end_header
-0.071404 1.117177 -0.121927 0.515702 -0.820460 -0.246681
-0.216689 1.156173 -0.043440 -0.426801 -0.843959 -0.324809
-0.081063 1.128266 -0.146913 0.277200 -0.592212 -0.756584
-0.193586 1.178021 0.007238 0.522874 -0.061586 0.850154
-0.334057 1.242498 0.079274 -0.106601 0.726432 0.678915
-0.339740 1.221824 0.091699 -0.173589 0.213019 0.961486
-0.210356 1.146559 -0.021495 -0.196661 -0.977508 0.075930
-0.371165 1.202224 0.044713 -0.951964 -0.258370 -0.164190
-0.062392 1.128266 -0.096701 0.787255 -0.566698 0.242897
-0.059305 1.155039 -0.086012 0.916501 -0.013276 0.399792
-0.200787 1.155609 -0.000503 0.232551 -0.722556 0.650990
-0.192971 1.200668 -0.002805 0.553484 0.451491 0.699820
-0.352963 1.201464 0.086724 -0.464980 -0.305094 0.831050
-0.365980 1.193346 0.067261 -0.789087 -0.502029 0.353923
-0.073610 1.192901 -0.121107 0.625019 0.729545 -0.277596
-0.352259 1.243258 0.037264 -0.609485 0.754112 -0.244453
-0.339242 1.251376 0.056726 -0.299326 0.936674 0.181585
-0.365481 1.222898 0.032288 -0.873836 0.273019 -0.402264
-0.063952 1.181811 -0.096121 0.847682 0.497482 0.184027
-0.082622 1.181811 -0.146333 0.353893 0.531968 -0.769219
-0.085709 1.155039 -0.157022 0.206610 -0.026704 -0.978057
3 0 1 2
3 3 4 5
3 6 7 1
3 8 6 0
3 9 10 8
3 9 11 3
3 10 5 12
3 10 13 6
3 14 15 16
3 17 7 13
3 2 8 0
3 11 18 4
3 16 13 4
3 2 1 7
3 13 12 5
3 19 17 15
3 4 13 5
3 14 2 20
3 8 14 18
3 9 8 18
3 16 18 14
3 2 17 20
3 15 17 13
3 16 15 13
3 20 19 14
3 0 6 1
3 3 11 4
3 6 13 7
3 8 10 6
3 9 3 10
3 9 18 11
3 10 3 5
3 10 12 13
3 14 19 15
3 19 20 17
3 14 8 2
3 16 4 18
3 2 7 17
