ply
format ascii 1.0
comment Created by Blender 2.77 (sub 0) - www.blender.org, source file: 'Plants.blend'
element vertex 22
property float x
property float y
property float z
property float nx
property float ny
property float nz
element face 40
property list uchar uint vertex_indices
end_header
0.040515 0.728065 -0.236883 0.077364 -0.968444 -0.236854
0.629569 0.883186 0.205847 0.541215 -0.795343 0.272866
0.190351 0.928157 0.629864 0.177648 -0.718772 0.672140
-0.477464 0.753032 -0.000000 -0.318979 -0.947722 0.003784
0.550261 1.405812 0.703819 0.560411 -0.071230 0.825129
-0.915011 1.048771 -0.242874 -0.756798 -0.560411 -0.336406
-1.115502 1.442341 0.000000 -0.997803 0.041108 0.051637
-0.379124 1.442341 -0.863703 -0.366436 0.041688 -0.929502
-0.046110 1.048769 -0.776265 0.014985 -0.582873 -0.812403
0.550261 1.405812 -0.703819 0.542589 -0.000122 -0.839961
-0.379124 1.442341 0.863703 -0.259255 0.059725 0.963927
-0.588230 1.048770 0.626159 -0.522996 -0.547380 0.653310
-0.053497 1.762854 -0.776265 0.042756 0.598437 -0.800012
-0.917295 1.762853 -0.236883 -0.751762 0.574419 -0.323771
-0.395785 2.058593 -0.214209 -0.275826 0.933195 -0.230262
0.815403 1.762852 -0.242874 0.741997 0.602313 -0.294290
0.377855 2.058592 0.000000 0.342265 0.939116 -0.029572
0.488623 1.762853 0.626159 0.451796 0.589007 0.669973
-0.582245 1.762854 0.629864 -0.511307 0.564470 0.648000
-0.140122 2.083559 0.236883 -0.092868 0.950377 0.296854
1.015894 1.369283 0.000000 0.997650 -0.010285 0.067507
0.817687 1.048771 -0.236884 0.713767 -0.597522 -0.365276
3 0 1 2
3 0 2 3
3 2 1 4
3 5 6 7
3 8 7 9
3 2 4 10
3 11 10 6
3 12 13 14
3 15 12 16
3 17 15 16
3 18 17 19
3 13 18 14
3 14 18 19
3 19 17 16
3 16 14 19
3 16 12 14
3 6 18 13
3 6 10 18
3 10 17 18
3 10 4 17
3 20 15 17
3 9 12 15
3 9 7 12
3 7 13 12
3 7 6 13
3 11 2 10
3 4 20 17
3 4 1 20
3 1 21 20
3 20 9 15
3 20 21 9
3 21 8 9
3 8 5 7
3 5 11 6
3 3 2 11
3 1 0 21
3 0 8 21
3 5 3 11
3 0 3 8
3 3 5 8
