ply
format ascii 1.0
comment Created by Blender 2.77 (sub 0) - www.blender.org, source file: 'NewTrees.blend'
element vertex 60
property float x
property float y
property float z
property float nx
property float ny
property float nz
element face 116
property list uchar uint vertex_indices
end_header
-0.236438 3.870520 -0.489087 -0.180639 0.923032 0.339610
-0.349170 3.865968 -0.989587 -0.288552 0.923887 -0.251228
-0.627654 3.733172 -0.877980 -0.619190 0.781579 -0.075350
-0.962961 2.895305 -0.452024 -0.977844 -0.012604 0.208808
-0.760126 3.035594 -0.174893 -0.743370 0.280007 0.607410
-0.852728 3.361290 -0.605761 -0.926695 0.351726 0.132267
-0.866222 2.611328 -0.397677 -0.786493 -0.579516 0.213385
-0.617274 2.747023 0.073367 -0.598224 -0.227546 0.768303
-0.429207 2.989482 0.153400 -0.402905 0.285989 0.869381
-0.467549 3.588368 -0.205530 -0.413923 0.584033 0.698233
-0.681045 3.596006 -0.415656 -0.695761 0.605853 0.385723
0.078398 3.918560 -0.742452 0.143315 0.988617 0.045595
0.386998 3.807177 -0.589416 0.461440 0.864895 0.197394
0.424049 3.738338 -1.004290 0.508744 0.799097 -0.320292
0.582474 3.437714 -0.261066 0.496628 0.684683 0.533403
-0.064955 3.595765 -0.107874 0.001099 0.665365 0.746483
0.538141 3.125880 0.099431 0.464553 0.340465 0.817469
0.048061 2.711196 0.245497 0.042268 -0.380596 0.923765
0.149650 2.488815 -0.006415 0.185064 -0.850154 0.492874
0.592834 2.806512 0.077493 0.551378 -0.337809 0.762749
-0.015985 2.368607 -0.352124 0.068361 -0.985839 0.153050
0.527993 2.488931 -0.504887 0.446303 -0.892392 0.066378
-0.450613 2.398186 -0.379637 -0.262703 -0.950163 0.167669
-0.229406 2.373849 -0.941294 -0.035951 -0.998871 -0.030915
-0.458658 3.662834 -1.235294 -0.452986 0.573656 -0.682394
-0.152126 3.680611 -1.330769 -0.088321 0.630024 -0.771508
0.268551 3.134216 -1.597366 0.365612 0.394818 -0.842860
-0.097987 3.180360 -1.594467 -0.120090 0.602893 -0.788690
0.278436 3.531497 -1.339793 0.281686 0.609058 -0.741386
0.153924 2.852123 -1.775666 0.460921 0.034272 -0.886746
-0.088350 2.996863 -1.776718 -0.015107 0.515519 -0.856716
0.228423 2.619214 -1.621339 0.528306 -0.625599 -0.574023
-0.131569 2.712580 -1.865576 0.060549 -0.272378 -0.960265
0.134940 2.458890 -1.367841 0.361827 -0.900357 -0.241646
-0.281230 2.408859 -1.517806 -0.019990 -0.928007 -0.371960
0.648133 2.893305 -1.324650 0.670705 -0.367168 -0.644429
0.637188 3.291728 -1.363799 0.571520 0.352428 -0.740989
0.083509 3.850903 -1.104647 0.180944 0.876461 -0.446120
1.010357 3.253009 -0.654117 0.937407 0.345592 0.042573
0.958861 2.904016 -0.335389 0.902524 -0.294778 0.313822
0.903482 2.819288 -0.866868 0.819453 -0.533860 -0.208441
0.889255 3.048985 -1.140409 0.849483 -0.124088 -0.512803
0.762734 2.739614 -0.181772 0.658284 -0.643910 0.389843
-0.515381 2.870504 -1.741468 -0.534165 0.345622 -0.771477
-0.747988 3.578155 -0.990956 -0.809198 0.485031 -0.331492
-0.902120 2.944395 -1.059592 -0.954863 0.002899 -0.296976
-0.209756 3.278390 0.044725 -0.277169 0.471572 0.837123
0.292904 3.701098 -0.302827 0.319712 0.730094 0.603931
-0.472610 2.551700 -0.004294 -0.313364 -0.754021 0.577258
-0.507800 3.312688 -1.347836 -0.541124 0.373363 -0.753471
-0.583373 3.101190 -1.423960 -0.634327 0.496048 -0.592883
-0.545648 2.616292 -1.729315 -0.534959 -0.419538 -0.733329
-0.685108 2.460472 -1.305876 -0.637898 -0.746574 -0.188879
-0.795832 2.786408 -1.327829 -0.925047 -0.031129 -0.378521
-0.756958 2.533786 -0.726656 -0.653981 -0.753563 -0.066408
0.243841 2.462895 -1.006167 0.323740 -0.938658 -0.118503
0.663330 2.608974 -0.809205 0.548357 -0.795526 -0.257668
0.871387 3.234535 -0.270711 0.736167 0.461287 0.495193
0.885269 3.335456 -1.010845 0.798639 0.501511 -0.332530
0.155107 3.064894 0.232376 0.094668 0.272835 0.957366
3 0 1 2
3 3 4 5
3 3 6 7
3 7 8 4
3 9 10 4
3 11 12 13
3 14 15 16
3 17 18 19
3 18 20 21
3 20 22 23
3 24 1 25
3 26 27 28
3 29 30 26
3 29 31 32
3 33 34 31
3 29 26 35
3 36 26 28
3 13 28 37
3 37 28 25
3 14 38 12
3 38 39 40
3 40 35 41
3 33 35 40
3 19 42 39
3 28 13 36
3 26 36 35
3 34 32 31
3 29 32 30
3 30 32 43
3 26 30 27
3 25 1 37
3 2 24 44
3 5 45 3
3 5 44 45
3 15 9 46
3 15 47 0
3 0 47 12
3 48 18 17
3 48 17 7
3 22 20 18
3 48 22 18
3 45 49 50
3 51 52 53
3 54 53 52
3 24 49 44
3 49 25 27
3 49 27 50
3 34 51 32
3 21 55 56
3 19 18 42
3 15 14 47
3 14 12 47
3 0 11 1
3 4 46 9
3 8 46 4
3 6 48 7
3 7 4 3
3 44 10 2
3 10 9 0
3 9 15 0
3 8 7 17
3 0 12 11
3 57 14 16
3 48 6 22
3 44 49 45
3 55 23 33
3 56 40 21
3 39 21 40
3 58 36 13
3 56 55 40
3 6 45 54
3 24 25 49
3 19 59 17
3 10 44 5
3 15 59 16
3 19 57 16
3 20 23 55
3 23 52 34
3 52 51 34
3 24 2 1
3 27 25 28
3 33 23 34
3 29 35 31
3 1 11 37
3 14 57 38
3 38 57 39
3 55 33 40
3 36 58 41
3 36 41 35
3 58 38 41
3 41 38 40
3 27 43 50
3 18 21 42
3 42 21 39
3 31 35 33
3 51 43 32
3 54 45 53
3 6 3 45
3 6 54 22
3 46 8 59
3 59 8 17
3 50 43 53
3 53 43 51
3 58 12 38
3 54 52 23
3 22 54 23
3 21 20 55
3 15 46 59
3 37 11 13
3 10 5 4
3 10 0 2
3 45 50 53
3 19 16 59
3 19 39 57
3 27 30 43
3 58 13 12
