ply
format ascii 1.0
comment Created by Blender 2.77 (sub 0) - www.blender.org, source file: 'NewTrees.blend'
element vertex 36
property float x
property float y
property float z
property float nx
property float ny
property float nz
element face 68
property list uchar uint vertex_indices
end_header
-0.434336 2.878062 1.277135 -0.520951 0.128910 0.843776
-0.856411 2.850297 0.892411 -0.779992 0.114536 0.615192
-0.811303 2.655349 0.885398 -0.619312 -0.668966 0.410962
-0.332448 2.693933 1.252806 -0.156346 -0.757775 0.633473
-0.513159 2.585814 0.887331 0.006897 -0.995605 0.093295
-0.264156 3.205013 1.117144 -0.294137 0.749992 0.592425
0.201634 3.335382 0.956390 0.356029 0.844691 0.399640
-0.134916 3.492755 0.459591 0.083224 0.987304 0.135105
-0.662006 3.396925 0.457186 -0.499527 0.838679 0.216956
-0.585718 3.465417 0.228972 -0.420515 0.899167 -0.120853
-0.543485 3.409075 0.062775 -0.326853 0.634754 -0.700156
-0.879272 3.144662 0.181184 -0.814722 0.183508 -0.549974
-0.580848 3.080678 -0.009093 -0.603809 0.040040 -0.796106
0.128928 3.064292 -0.128293 0.466872 0.387371 -0.794946
0.421730 3.111116 0.135168 0.790765 0.281625 -0.543443
0.020524 2.806845 -0.220277 0.431837 -0.470840 -0.769250
-0.289941 3.232734 -0.037589 -0.081606 0.549333 -0.831599
-0.202988 3.490605 0.141051 0.142582 0.888333 -0.436476
-0.226075 2.958784 -0.297451 -0.051912 0.228126 -0.972228
-0.276155 2.651380 -0.056619 -0.116245 -0.948454 -0.294809
-0.419362 2.802056 -0.240462 -0.522263 -0.385144 -0.760826
0.226953 2.704097 0.282062 0.445814 -0.891476 -0.080355
0.569402 3.030662 0.621254 0.969176 -0.126774 0.211188
0.399684 3.293850 0.518775 0.651418 0.757653 -0.039827
0.289296 3.106462 1.144229 0.758293 0.090335 0.645589
0.049701 2.767853 1.241545 0.588092 -0.670400 0.452376
-0.102248 2.848886 1.389662 0.146123 -0.175268 0.973601
-0.241870 2.678885 0.565160 0.113681 -0.993255 -0.021546
-0.750818 2.625957 0.636692 -0.259133 -0.944029 -0.203955
-1.005501 2.796259 0.518301 -0.846461 -0.493820 -0.199011
-1.016745 2.993308 0.566097 -0.947233 0.281533 0.153203
-0.750608 3.181007 0.740248 -0.579943 0.639454 0.504654
-0.586408 2.765519 0.262279 -0.422224 -0.819453 -0.387555
0.506037 2.919650 0.389417 0.852229 -0.501907 -0.147526
0.085853 2.806753 0.880532 0.507340 -0.850673 0.137516
-0.004884 3.090268 1.300841 0.165288 0.456710 0.874111
3 0 1 2
3 3 0 2
3 4 3 2
3 5 6 7
3 8 5 7
3 9 8 7
3 9 10 11
3 10 12 11
3 13 14 15
3 16 17 13
3 12 16 18
3 19 20 15
3 15 21 19
3 20 18 15
3 6 22 23
3 6 24 22
3 3 25 26
3 3 4 25
3 4 27 25
3 28 2 29
3 1 30 29
3 31 30 1
3 30 31 8
3 8 11 30
3 11 8 9
3 29 32 28
3 14 22 33
3 33 15 14
3 27 21 34
3 29 12 32
3 11 12 29
3 12 10 16
3 5 0 35
3 35 0 26
3 18 20 12
3 14 13 17
3 5 1 0
3 3 26 0
3 6 35 24
3 23 22 14
3 27 32 19
3 18 16 13
3 15 33 21
3 1 5 31
3 6 5 35
3 27 28 32
3 10 17 16
3 19 32 20
3 23 7 6
3 35 25 24
3 34 24 25
3 2 1 29
3 29 30 11
3 2 28 4
3 34 25 27
3 21 22 34
3 10 9 17
3 31 5 8
3 9 7 17
3 4 28 27
3 20 32 12
3 27 19 21
3 18 13 15
3 17 23 14
3 35 26 25
3 34 22 24
3 21 33 22
3 17 7 23
