ply
format ascii 1.0
comment Created by Blender 2.77 (sub 0) - www.blender.org, source file: 'NewTrees.blend'
element vertex 26
property float x
property float y
property float z
property float nx
property float ny
property float nz
element face 48
property list uchar uint vertex_indices
end_header
0.000000 -0.085878 0.085878 -0.006317 -0.604419 0.796625
-0.066123 0.242230 0.038161 -0.842952 0.056459 0.534959
-0.074373 -0.085878 0.042939 -0.692190 -0.599994 0.401013
0.074373 -0.085878 0.042939 0.677755 -0.616596 0.400494
0.008250 0.242230 0.081100 -0.002960 0.060762 0.998138
0.010388 0.721141 -0.155563 -0.420118 -0.070070 -0.904721
-0.025327 1.314513 -0.175067 -0.534898 -0.038911 -0.843989
0.046847 1.314146 -0.216733 -0.436964 -0.050172 -0.898038
0.046792 1.397480 -0.217563 -0.499954 -0.008942 -0.865963
0.023919 1.969148 -0.210275 -0.693869 0.546617 -0.468734
0.080426 1.969148 -0.242900 -0.107578 0.479263 -0.871029
0.092340 1.986275 -0.108746 0.054018 0.643208 0.763756
-0.057912 0.721141 -0.037264 -0.952910 0.066683 0.295785
0.025611 1.986061 -0.147232 -0.643696 0.708884 0.288278
0.139802 1.986351 -0.143408 0.695120 0.649434 0.308237
-0.025383 1.397847 -0.175897 -0.499954 -0.008942 -0.865963
-0.016647 1.417969 -0.108209 -0.931120 0.093448 0.352489
-0.057912 0.721141 -0.116130 -0.865841 -0.022675 -0.499771
-0.040303 1.356256 -0.166853 -0.928465 0.046144 -0.368511
0.000000 -0.085878 -0.085878 -0.009369 -0.647084 -0.762322
-0.074373 -0.085878 -0.042939 -0.690848 -0.619312 -0.372997
-0.025646 1.296993 -0.099899 -0.932401 0.091037 0.349712
0.139765 1.986135 -0.220334 0.610279 0.636402 -0.471694
0.061767 1.355737 -0.225777 0.134098 -0.060640 -0.989105
0.082623 0.242230 0.038161 0.838038 0.007721 0.545518
0.074373 -0.085878 -0.042939 0.675527 -0.638630 -0.368450
3 0 1 2
3 3 4 0
3 5 6 7
3 8 9 10
3 11 1 4
3 12 1 13
3 11 14 13
3 6 15 7
3 16 12 13
3 6 17 18
3 17 12 18
3 17 19 20
3 12 21 18
3 21 16 18
3 9 22 10
3 14 9 13
3 22 23 10
3 24 3 14
3 12 20 2
3 23 8 10
3 3 0 2
3 19 2 20
3 3 19 25
3 15 18 9
3 18 13 9
3 25 14 3
3 25 23 22
3 21 12 16
3 24 11 4
3 2 1 12
3 25 19 23
3 19 5 23
3 5 7 23
3 18 16 13
3 0 4 1
3 3 24 4
3 5 17 6
3 8 15 9
3 11 13 1
3 23 7 15
3 6 18 15
3 15 8 23
3 17 5 19
3 14 22 9
3 12 17 20
3 19 3 2
3 25 22 14
3 24 14 11
