ply
format ascii 1.0
comment Created by Blender 2.77 (sub 0) - www.blender.org, source file: 'NewTrees.blend'
element vertex 23
property float x
property float y
property float z
property float nx
property float ny
property float nz
element face 42
property list uchar uint vertex_indices
end_header
-0.678509 1.804760 -0.608797 -0.689962 0.723167 -0.030519
-0.563750 1.765054 -0.362935 -0.535234 0.624744 0.568468
-0.169417 1.847558 -0.136000 -0.247810 0.615101 0.748466
-0.379711 1.174119 -0.633212 -0.080996 -0.994995 0.057955
-0.125044 1.269201 -0.241645 0.064577 -0.818995 0.570086
-0.433587 1.350944 -0.323765 -0.402692 -0.670644 0.622913
0.112445 1.607787 -0.105042 0.609272 -0.125278 0.782952
0.069324 1.309860 -0.341885 0.603961 -0.755028 0.255196
0.309652 1.577683 -0.684814 0.954009 -0.272408 -0.124912
-0.205046 1.579002 -1.180594 -0.154759 0.030671 -0.987457
0.052969 1.631705 -1.121743 0.555742 0.046205 -0.830042
-0.111061 1.313839 -1.048004 0.256905 -0.745659 -0.614765
-0.576859 1.699457 -0.878605 -0.605548 0.491806 -0.625599
-0.741872 1.437425 -0.858360 -0.751640 -0.114597 -0.649495
-0.773854 1.533746 -0.414080 -0.795556 0.010651 0.605731
-0.860662 1.387627 -0.614179 -0.928495 -0.366375 0.060274
-0.556811 1.251158 -0.842413 -0.363201 -0.806879 -0.465865
-0.180054 1.972198 -0.933697 -0.210944 0.850673 -0.481491
-0.141413 1.961820 -0.473981 -0.036805 0.990204 0.134465
0.013858 1.975609 -0.930649 0.359172 0.821711 -0.442427
-0.186153 1.552020 -0.063843 -0.178137 -0.159703 0.970946
0.281475 1.792392 -0.669948 0.868954 0.490463 -0.065859
0.093594 1.904458 -0.163248 0.461684 0.674612 0.575945
3 0 1 2
3 3 4 5
3 6 7 8
3 9 10 11
3 3 11 7
3 12 9 13
3 12 13 0
3 1 0 14
3 5 14 15
3 16 15 13
3 15 14 0
3 13 15 0
3 12 17 9
3 10 8 11
3 4 7 6
3 17 18 19
3 12 0 17
3 0 18 17
3 20 5 4
3 4 3 7
3 14 5 20
3 18 0 2
3 18 21 19
3 10 17 19
3 2 22 18
3 10 21 8
3 9 16 13
3 5 15 3
3 3 15 16
3 11 8 7
3 6 2 20
3 3 16 11
3 19 21 10
3 20 4 6
3 21 6 8
3 2 1 14
3 2 14 20
3 18 22 21
3 10 9 17
3 9 11 16
3 6 22 2
3 21 22 6
