ply
format ascii 1.0
comment Created by Blender 2.77 (sub 0) - www.blender.org, source file: ''
element vertex 55
property float x
property float y
property float z
property float nx
property float ny
property float nz
element face 106
property list uchar uint vertex_indices
end_header
-0.236438 3.870520 -0.489087 -0.180639 0.923032 0.339610
-0.349170 3.865968 -0.989587 -0.288552 0.923887 -0.251228
-0.627654 3.733172 -0.877980 -0.619190 0.781579 -0.075350
-0.962961 2.895305 -0.452024 -0.977844 -0.012604 0.208838
-0.866222 2.611328 -0.397677 -0.784967 -0.577380 0.224525
-0.617274 2.747023 0.073367 -0.598224 -0.227577 0.768303
-0.429207 2.989482 0.153400 -0.402905 0.285989 0.869381
-0.760126 3.035594 -0.174893 -0.743370 0.280007 0.607410
-0.467549 3.588368 -0.205530 -0.413923 0.584033 0.698233
-0.681045 3.596006 -0.415656 -0.695761 0.605853 0.385723
0.078398 3.918560 -0.742452 0.143315 0.988617 0.045595
0.386998 3.807177 -0.589416 0.454329 0.869991 0.191473
0.424049 3.738338 -1.004290 0.508744 0.799097 -0.320292
0.048061 2.711196 0.245497 0.042268 -0.380596 0.923765
0.149650 2.488815 -0.006415 0.185064 -0.850154 0.492874
0.592834 2.806512 0.077493 0.551378 -0.337809 0.762749
-0.015985 2.368607 -0.352124 0.070040 -0.986206 0.149754
0.527993 2.488931 -0.504887 0.444594 -0.892972 0.069887
-0.450613 2.398186 -0.379637 -0.262703 -0.950163 0.167669
-0.229406 2.373849 -0.941294 -0.033998 -0.998962 -0.029298
-0.458658 3.662834 -1.235294 -0.466475 0.620411 -0.630421
-0.152126 3.680611 -1.330769 -0.061983 0.673940 -0.736137
0.153924 2.852123 -1.775666 0.444136 0.022858 -0.895657
-0.088350 2.996863 -1.776718 0.012604 0.440840 -0.897488
0.268551 3.134216 -1.597366 0.286721 0.466597 -0.836695
0.228423 2.619214 -1.621339 0.506760 -0.618244 -0.600757
-0.131569 2.712580 -1.865576 0.060549 -0.272378 -0.960265
0.134940 2.458890 -1.367841 0.325724 -0.912900 -0.245918
-0.281230 2.408859 -1.517806 -0.019990 -0.928007 -0.371960
0.637188 3.291728 -1.363799 0.579272 0.385754 -0.718040
0.278436 3.531497 -1.339793 0.296365 0.616413 -0.729484
0.083509 3.850903 -1.104647 0.180944 0.876461 -0.446120
1.010357 3.253009 -0.654117 0.941252 0.336192 0.030946
0.958861 2.904016 -0.335389 0.902524 -0.294778 0.313822
0.903482 2.819288 -0.866868 0.829890 -0.521470 -0.198248
0.648133 2.893305 -1.324650 0.697348 -0.376568 -0.609790
0.889255 3.048985 -1.140409 0.853542 -0.123692 -0.506058
0.762734 2.739614 -0.181772 0.658284 -0.643910 0.389843
-0.515381 2.870504 -1.741468 -0.544450 0.272073 -0.793420
-0.747988 3.578155 -0.990956 -0.806726 0.496414 -0.320475
-0.852728 3.361290 -0.605761 -0.926695 0.351726 0.132267
-0.902120 2.944395 -1.059592 -0.965880 0.002930 -0.258889
-0.064955 3.595765 -0.107874 -0.017609 0.666097 0.745628
-0.209756 3.278390 0.044725 -0.277169 0.471572 0.837123
0.292904 3.701098 -0.302827 0.305002 0.771935 0.557695
-0.472610 2.551700 -0.004294 -0.313364 -0.754021 0.577258
-0.545648 2.616292 -1.729315 -0.534959 -0.419538 -0.733329
-0.685108 2.460472 -1.305876 -0.624073 -0.754204 -0.204138
-0.795832 2.786408 -1.327829 -0.912900 -0.037568 -0.406415
0.663330 2.608974 -0.809205 0.568621 -0.807154 -0.158513
0.885269 3.335456 -1.010845 0.798639 0.501511 -0.332530
0.155107 3.064894 0.232376 0.094668 0.272835 0.957366
0.538141 3.125880 0.099431 0.466994 0.325632 0.822077
0.871387 3.234535 -0.270711 0.744774 0.424421 0.514908
-0.756958 2.533786 -0.726656 -0.403546 -0.914274 0.034852
3 0 1 2
3 3 4 5
3 5 6 7
3 8 9 7
3 10 11 12
3 13 14 15
3 14 16 17
3 16 18 19
3 20 1 21
3 22 23 24
3 22 25 26
3 27 28 25
3 29 24 30
3 12 30 31
3 31 30 21
3 32 33 34
3 34 35 36
3 15 37 33
3 30 12 29
3 28 26 25
3 22 26 23
3 23 26 38
3 21 1 31
3 2 20 39
3 40 41 3
3 40 39 41
3 42 8 43
3 44 0 42
3 0 44 11
3 45 14 13
3 45 13 5
3 18 16 14
3 45 18 14
3 46 47 48
3 28 46 26
3 15 14 37
3 0 10 1
3 4 45 5
3 5 7 3
3 39 9 2
3 8 0 9
3 42 0 8
3 6 5 13
3 0 11 10
3 45 4 18
3 49 34 17
3 33 17 34
3 50 29 12
3 15 51 13
3 9 39 40
3 42 51 52
3 15 53 52
3 19 47 28
3 47 46 28
3 20 2 1
3 27 19 28
3 22 35 25
3 1 10 31
3 32 53 33
3 29 50 36
3 50 32 36
3 36 32 34
3 14 17 37
3 37 17 33
3 46 38 26
3 4 3 41
3 4 54 18
3 43 6 51
3 51 6 13
3 48 38 46
3 50 11 32
3 42 43 51
3 31 10 12
3 9 0 2
3 15 52 51
3 15 33 53
3 20 23 38
3 50 12 11
3 7 40 3
3 53 11 44
3 17 19 27
3 48 41 39
3 54 4 47
3 48 20 38
3 4 41 47
3 41 48 47
3 19 54 47
3 25 35 34
3 43 7 6
3 35 22 36
3 22 29 36
3 27 49 17
3 24 29 22
3 49 25 34
3 21 24 23
3 52 44 42
3 20 21 23
3 7 9 40
3 53 32 11
3 17 16 19
3 48 39 20
3 19 18 54
3 43 8 7
3 49 27 25
3 21 30 24
3 52 53 44
