ply
format ascii 1.0
comment Created by Blender 2.77 (sub 0) - www.blender.org, source file: 'Wolf.blend'
element vertex 23
property float x
property float y
property float z
property float nx
property float ny
property float nz
element face 42
property list uchar uint vertex_indices
end_header
-1.957269 3.771208 -0.847582 0.171789 -0.758873 -0.628132
-0.014648 4.622459 -0.633899 0.742698 -0.531480 -0.407270
-2.742028 3.448747 -0.520482 -0.510636 -0.788354 -0.343059
-0.014648 4.640654 -0.351177 0.791498 -0.577593 0.199652
-1.957269 4.090645 0.136228 -0.086398 -0.312571 0.945921
-1.957269 3.805486 -0.314947 0.369518 -0.870022 0.326273
-1.049018 4.855268 -0.469380 -0.269997 0.917661 -0.291513
-0.014648 4.741752 -0.672632 0.644215 0.329325 -0.690268
-1.049018 4.570108 -0.920554 -0.056917 0.380810 -0.922880
-0.014648 4.893113 -0.433149 0.646413 0.727287 -0.230537
-1.957269 4.281110 -0.469380 -0.577776 0.774194 -0.258339
-2.742028 3.602074 -0.263844 -0.860744 0.397809 0.317515
-1.957269 4.315387 0.063255 -0.540422 0.648549 0.535997
-1.049018 4.889544 0.063255 -0.177648 0.816279 0.549608
-2.742029 3.458405 -0.370407 -0.506729 -0.826563 0.244911
-2.742028 3.538752 -0.243284 -0.575610 -0.479263 0.662526
-1.049018 4.345366 -0.847582 0.257271 -0.378460 -0.889126
-2.742028 3.512070 -0.541042 -0.778863 0.100101 -0.619098
-1.957269 3.995950 -0.920554 -0.310770 0.234596 -0.921049
-2.742029 3.592416 -0.413919 -0.881863 0.444105 -0.158269
-1.049018 4.664804 0.136228 0.097079 -0.005371 0.995239
-0.014648 4.911307 -0.150428 0.622608 0.678243 0.390271
-0.014648 4.792016 -0.111694 0.710227 -0.194861 0.676443
3 0 1 2
3 3 4 5
3 6 7 8
3 9 1 7
3 10 11 12
3 6 12 13
3 11 14 15
3 0 16 1
3 0 17 18
3 4 11 15
3 14 3 5
3 5 15 14
3 19 2 14
3 8 10 6
3 20 12 4
3 10 17 19
3 21 3 9
3 13 22 21
3 22 20 4
3 16 18 8
3 8 1 16
3 2 3 14
3 6 21 9
3 3 22 4
3 6 9 7
3 9 3 1
3 10 19 11
3 6 10 12
3 11 19 14
3 0 2 17
3 4 12 11
3 5 4 15
3 19 17 2
3 8 18 10
3 20 13 12
3 10 18 17
3 21 22 3
3 13 20 22
3 16 0 18
3 8 7 1
3 2 1 3
3 6 13 21
