ply
format ascii 1.0
comment Created by Blender 2.77 (sub 0) - www.blender.org, source file: 'Wolf.blend'
element vertex 12
property float x
property float y
property float z
property float nx
property float ny
property float nz
element face 20
property list uchar uint vertex_indices
end_header
-0.036433 2.220538 0.510306 0.000000 0.659139 0.752007
-0.396648 0.777828 0.324886 -0.662862 -0.599689 0.448256
-0.036433 0.800040 0.532460 0.000000 -0.558641 0.829371
-0.508037 2.191458 0.238543 -0.708304 0.615986 0.344646
-0.396648 0.733405 -0.090264 -0.662862 -0.680960 -0.311228
-0.508037 2.133298 -0.304982 -0.708304 0.529130 -0.467177
-0.036433 0.711194 -0.297839 0.000000 -0.721488 -0.692404
-0.036433 2.104218 -0.576744 0.000000 0.485092 -0.874447
0.323783 0.733405 -0.090264 0.662862 -0.680960 -0.311228
0.435171 2.133298 -0.304982 0.708304 0.529130 -0.467177
0.323783 0.777828 0.324886 0.662862 -0.599689 0.448256
0.435171 2.191458 0.238543 0.708304 0.615986 0.344646
3 0 1 2
3 3 4 1
3 5 6 4
3 7 8 6
3 0 9 5
3 9 10 8
3 11 2 10
3 1 8 10
3 0 3 1
3 3 5 4
3 5 7 6
3 7 9 8
3 5 3 0
3 0 11 9
3 9 7 5
3 9 11 10
3 11 0 2
3 10 2 1
3 1 4 6
3 6 8 1
