ply
format ascii 1.0
comment Created by Blender 2.77 (sub 0) - www.blender.org, source file: ''
element vertex 34
property float x
property float y
property float z
property float nx
property float ny
property float nz
element face 64
property list uchar uint vertex_indices
end_header
0.351719 3.492210 0.121218 0.848659 -0.191198 0.493149
0.118775 3.856029 0.144425 0.403912 0.334361 0.851466
0.187540 3.389026 0.272634 0.315012 -0.592761 0.741172
0.151466 3.457947 -0.491757 0.352275 -0.165258 -0.921171
0.033567 3.943926 -0.420445 0.195624 0.360179 -0.912107
0.118150 3.935057 -0.382872 0.487838 0.373608 -0.788903
0.390754 3.451774 -0.304480 0.803369 -0.454634 -0.384533
0.236731 4.007170 -0.059479 0.848292 0.484268 0.214148
0.226607 3.947878 0.025313 0.698050 0.396496 0.596179
0.380074 3.562067 0.005395 0.938963 0.204413 0.276620
0.282597 3.420439 -0.352533 0.243477 -0.952818 -0.181158
-0.167171 3.895523 0.142868 -0.501572 0.262581 0.824274
-0.061360 3.487281 0.271782 -0.138371 -0.051271 0.989044
-0.071135 3.919035 0.166445 -0.029420 0.338023 0.940642
0.230325 4.013067 -0.163320 0.829493 0.556627 -0.045412
0.249758 3.976810 -0.227673 0.848933 0.456618 -0.266030
-0.316908 3.913115 -0.210536 -0.949889 0.196844 -0.242805
-0.369804 3.467800 -0.020250 -0.933287 -0.335978 0.126682
-0.322285 3.905655 -0.031180 -0.933073 0.205451 0.295206
-0.330961 3.438249 0.064962 -0.678854 -0.609699 0.409101
-0.187128 3.460366 0.230361 -0.494766 -0.421949 0.759667
-0.163124 3.898505 -0.407850 -0.493027 0.246742 -0.834254
-0.286843 3.416601 -0.356707 -0.687826 -0.566637 -0.453597
-0.282787 3.887478 -0.291077 -0.799982 0.188940 -0.569445
0.257916 3.444067 -0.430502 0.549364 -0.407270 -0.729576
-0.002683 3.406649 -0.517949 0.034944 -0.597034 -0.801416
-0.081657 3.900171 -0.431958 -0.138890 0.271798 -0.952269
-0.113442 3.412179 -0.496450 -0.350261 -0.478347 -0.805261
-0.339951 3.460427 -0.257001 -0.923338 -0.295938 -0.244575
-0.150998 4.539562 -0.116872 -0.175420 0.984161 0.024506
0.226358 3.940296 -0.297608 0.689993 0.387555 -0.611286
0.415791 3.505147 -0.212330 0.993683 -0.091250 -0.064882
-0.285918 3.880961 0.028188 -0.757775 0.198614 0.621509
-0.176357 3.388890 -0.400018 -0.172246 -0.970824 -0.166692
3 0 1 2
3 3 4 5
3 6 0 2
3 7 8 9
3 10 6 2
3 11 12 13
3 14 7 15
3 16 17 18
3 19 2 20
3 21 22 23
3 3 24 25
3 26 27 21
3 20 2 12
3 5 24 3
3 17 28 22
3 16 18 29
3 21 23 29
3 4 26 29
3 30 5 29
3 8 29 1
3 31 9 0
3 31 0 6
3 24 30 6
3 13 29 11
3 32 29 18
3 16 29 23
3 21 29 26
3 30 29 15
3 15 29 14
3 14 29 7
3 7 29 8
3 4 29 5
3 32 20 11
3 24 6 10
3 17 22 19
3 25 24 10
3 23 28 16
3 27 25 33
3 22 33 19
3 29 32 11
3 22 27 33
3 25 10 33
3 1 29 13
3 11 20 12
3 16 28 17
3 21 27 22
3 26 25 27
3 5 30 24
3 32 19 20
3 23 22 28
3 9 15 7
3 31 30 15
3 17 32 18
3 12 1 13
3 1 9 8
3 19 10 2
3 3 26 4
3 9 31 15
3 31 6 30
3 17 19 32
3 12 2 1
3 1 0 9
3 19 33 10
3 3 25 26
