ply
format ascii 1.0
comment Created by Blender 2.77 (sub 0) - www.blender.org, source file: ''
element vertex 24
property float x
property float y
property float z
property float nx
property float ny
property float nz
element face 44
property list uchar uint vertex_indices
end_header
0.001870 0.377197 0.067843 0.132450 -0.024201 0.990875
-0.036068 -0.028034 0.041202 -0.505905 -0.631184 0.587878
0.018165 -0.028034 0.051538 0.264321 -0.623585 0.735679
-0.054232 -0.028034 -0.010933 -0.767083 -0.621662 -0.158300
-0.034460 0.377197 -0.036427 -0.721793 0.000488 -0.692099
-0.018165 -0.028034 -0.052732 -0.257393 -0.608325 -0.750755
-0.052363 0.377197 0.057506 -0.653890 -0.031922 0.755882
0.001004 0.778731 0.071181 -0.092624 -0.006714 0.995666
-0.053228 0.778731 0.060845 -0.654866 0.000122 0.755730
-0.071393 0.778731 0.008710 -0.990661 0.004639 -0.136204
-0.047655 1.241117 0.055385 -0.840266 0.022919 0.541673
-0.065819 1.241117 0.003250 -0.981017 0.031770 -0.191260
-0.070527 0.377197 0.005372 -0.983306 -0.016877 -0.181127
0.047114 1.618608 -0.021081 0.415448 0.013001 -0.909513
-0.000508 1.823491 -0.024588 -0.249763 0.627216 -0.737663
0.053725 1.823491 -0.014251 0.521104 0.614734 -0.592029
-0.007119 1.618608 -0.031417 -0.143040 0.033357 -0.989135
-0.029751 1.241117 -0.038549 -0.372478 0.022889 -0.927732
-0.036576 1.823491 0.017211 -0.763451 0.630085 -0.141850
0.035822 1.823491 0.079682 0.265419 0.605823 0.749992
0.071889 1.823491 0.037883 0.781213 0.605365 0.152257
-0.018411 1.823491 0.069346 -0.505692 0.617908 0.602008
0.036068 -0.028034 -0.042395 0.515549 -0.608325 -0.603412
0.054232 -0.028034 0.009740 0.775536 -0.614551 0.144414
3 0 1 2
3 3 4 5
3 6 7 8
3 9 10 11
3 6 9 12
3 13 14 15
3 16 5 17
3 5 4 17
3 18 17 11
3 0 19 7
3 11 12 9
3 19 20 15
3 19 18 21
3 2 19 0
3 13 15 22
3 21 10 8
3 21 7 19
3 4 11 17
3 23 15 20
3 14 16 17
3 0 6 1
3 3 12 4
3 6 0 7
3 9 8 10
3 6 8 9
3 13 16 14
3 18 14 17
3 21 8 7
3 4 12 11
3 20 2 23
3 23 22 15
3 18 10 21
3 12 1 6
3 16 22 5
3 18 15 14
3 5 22 23
3 5 1 3
3 1 23 2
3 20 19 2
3 18 11 10
3 12 3 1
3 16 13 22
3 18 19 15
3 1 5 23
