ply
format ascii 1.0
comment Created by Blender 2.77 (sub 0) - www.blender.org, source file: ''
element vertex 16
property float x
property float y
property float z
property float nx
property float ny
property float nz
element face 28
property list uchar uint vertex_indices
end_header
0.027363 0.317102 -0.080382 0.014191 -0.005097 -0.999878
0.054682 -0.063142 -0.031571 0.664632 -0.641652 -0.382763
0.000000 -0.063142 -0.063142 -0.018159 -0.626270 -0.779382
0.082045 0.317102 0.014330 0.918424 -0.022401 0.394879
0.054682 -0.063142 0.031571 0.666585 -0.627522 0.402264
0.070108 0.931556 -0.026417 0.680105 0.623035 -0.386273
0.070108 0.931556 0.036725 0.681295 0.611347 0.402570
-0.027320 0.317102 -0.048812 -0.583270 0.011597 -0.812159
0.015426 0.931556 -0.057988 -0.004883 0.623585 -0.781701
-0.039257 0.931556 -0.026417 -0.681631 0.618000 -0.391675
-0.054682 -0.063142 0.031571 -0.690481 -0.605884 0.395093
-0.039257 0.931556 0.036725 -0.681967 0.614032 0.397290
-0.054682 -0.063142 -0.031571 -0.690481 -0.607105 -0.393200
0.015426 0.931556 0.068296 0.003906 0.607990 0.793908
0.082045 0.317102 -0.048812 0.863765 -0.024323 -0.503250
0.000000 -0.063142 0.063142 -0.003906 -0.611896 0.790918
3 0 1 2
3 1 3 4
3 3 5 6
3 7 8 0
3 9 10 11
3 6 4 3
3 12 9 7
3 13 4 6
3 0 14 1
3 1 14 3
3 3 14 5
3 7 9 8
3 9 12 10
3 8 14 0
3 13 15 4
3 11 8 9
3 6 5 8
3 15 1 4
3 6 11 13
3 2 7 0
3 12 2 1
3 12 15 10
3 15 11 10
3 8 5 14
3 11 6 8
3 15 12 1
3 2 12 7
3 15 13 11
