ply
format ascii 1.0
comment Created by Blender 2.77 (sub 0) - www.blender.org, source file: 'Plants.blend'
element vertex 9
property float x
property float y
property float z
property float nx
property float ny
property float nz
element face 14
property list uchar uint vertex_indices
end_header
-0.018507 0.995098 0.982112 0.000000 -0.410901 0.911649
-0.018508 2.561394 -0.004230 0.000000 1.000000 0.000000
-0.715956 0.995098 0.693219 -0.644642 -0.410901 0.644642
-1.004849 0.995098 -0.004230 -0.911649 -0.410901 0.000000
-0.715956 0.995098 -0.701678 -0.644642 -0.410901 -0.644642
-0.018508 0.995098 -0.990571 0.000000 -0.410901 -0.911649
0.678941 0.995098 -0.701678 0.644642 -0.410901 -0.644642
0.967834 0.995098 -0.004230 0.911649 -0.410901 0.000000
0.678941 0.995098 0.693219 0.644642 -0.410901 0.644642
3 0 1 2
3 2 1 3
3 3 1 4
3 4 1 5
3 5 1 6
3 6 1 7
3 7 1 8
3 8 1 0
3 4 7 2
3 8 0 2
3 2 3 4
3 4 5 6
3 6 7 4
3 8 2 7
