ply
format ascii 1.0
comment Created by Blender 2.77 (sub 0) - www.blender.org, source file: 'Plants.blend'
element vertex 9
property float x
property float y
property float z
property float nx
property float ny
property float nz
element face 14
property list uchar uint vertex_indices
end_header
0.027517 2.048763 0.660258 -0.008026 -0.416852 0.908933
0.033413 3.143793 -0.006780 0.000000 1.000000 0.000000
-0.442423 2.048763 0.460718 -0.648396 -0.416852 0.637013
-0.633625 2.048763 -0.012675 -0.908933 -0.416852 -0.008026
-0.434085 2.048763 -0.482615 -0.637013 -0.416852 -0.648396
0.039309 2.048763 -0.673817 0.008026 -0.416852 -0.908933
0.509249 2.048763 -0.474278 0.648396 -0.416852 -0.637013
0.700451 2.048763 -0.000884 0.908933 -0.416852 0.008026
0.500911 2.048763 0.469056 0.637013 -0.416852 0.648396
3 0 1 2
3 2 1 3
3 3 1 4
3 4 1 5
3 5 1 6
3 6 1 7
3 7 1 8
3 8 1 0
3 4 6 8
3 8 0 2
3 2 3 4
3 4 5 6
3 6 7 8
3 8 2 4
