ply
format ascii 1.0
comment Created by Blender 2.77 (sub 0) - www.blender.org, source file: ''
element vertex 38
property float x
property float y
property float z
property float nx
property float ny
property float nz
element face 72
property list uchar uint vertex_indices
end_header
-0.344365 3.002378 0.277715 -0.633656 0.409040 0.656606
0.020658 3.962702 -0.174116 -0.004028 0.991424 -0.130375
-0.435927 2.972810 0.142322 -0.899441 0.352916 0.257759
-0.450350 2.943402 -0.126504 -0.947203 0.312387 -0.071932
-0.421017 2.976921 -0.238700 -0.843349 0.316263 -0.434370
-0.212815 2.954043 -0.444264 -0.482681 0.258919 -0.836604
-0.088830 2.892610 -0.499405 -0.161901 0.212958 -0.963530
0.184197 2.872021 -0.502079 0.254097 0.227119 -0.940123
0.306908 2.859125 -0.438378 0.573962 0.214240 -0.790338
0.526926 2.908094 0.066637 0.961364 0.272073 0.041353
0.484648 2.977335 0.173883 0.854152 0.354442 0.380444
0.288619 3.060282 0.355952 0.529099 0.433332 0.729545
0.168519 2.981930 0.447041 0.175115 0.379192 0.908567
0.439053 2.916541 -0.296389 0.806879 0.268715 -0.525986
0.494152 2.897955 -0.156021 0.931883 0.273629 -0.238075
0.615795 2.392562 0.046010 0.985534 0.151189 0.076571
0.709239 1.557273 0.138608 0.768212 -0.618519 0.165044
0.530012 1.586132 0.508130 0.567003 -0.623432 0.538285
0.396502 1.646688 0.643010 0.357494 -0.460128 0.812677
-0.353141 1.688996 0.578810 -0.095431 -0.914060 0.394147
0.501325 2.426311 0.341173 0.861995 0.146001 0.485397
0.703143 1.617207 -0.098262 0.936155 -0.264657 -0.231391
0.419173 2.492010 0.436435 0.644246 0.195349 0.739433
-0.603250 1.664163 -0.445855 -0.692007 -0.562334 -0.452620
-0.002716 1.754999 0.746935 0.043367 -0.265481 0.963134
-0.727305 1.756702 -0.128746 -0.954039 -0.243110 -0.175115
0.584167 2.390180 -0.146670 0.941801 0.137944 -0.306528
-0.111801 2.870652 0.469462 -0.271035 0.345683 0.898343
-0.363210 2.420554 0.446289 -0.526505 0.252144 0.811884
-0.739360 1.750955 0.092969 -0.931700 -0.357555 0.063509
-0.682948 1.721975 0.365069 -0.834162 -0.447920 0.321726
-0.449450 1.667951 -0.577171 -0.437208 -0.482406 -0.759026
0.162593 1.593646 -0.692641 0.147160 -0.604572 -0.782800
0.530172 1.553631 -0.465221 0.554643 -0.640400 -0.531205
-0.048175 1.736877 -0.682296 -0.140904 0.001831 -0.989990
0.562869 1.558388 0.298226 0.018433 -0.995544 0.092227
-0.569014 1.694650 0.538273 -0.586169 -0.529344 0.613330
-0.205145 1.749207 0.727428 -0.254463 -0.362651 0.896481
3 0 1 2
3 3 1 4
3 5 1 6
3 7 1 8
3 9 1 10
3 11 1 12
3 13 1 14
3 15 14 9
3 15 10 16
3 17 18 19
3 10 20 16
3 21 15 16
3 15 9 10
3 22 12 18
3 5 23 4
3 12 24 18
3 4 25 3
3 26 13 14
3 12 1 27
3 10 22 20
3 1 0 27
3 0 28 27
3 29 23 30
3 2 29 30
3 31 32 23
3 32 33 23
3 3 29 2
3 29 25 23
3 7 34 6
3 35 23 33
3 33 16 35
3 16 17 35
3 16 20 17
3 11 12 22
3 11 10 1
3 9 14 1
3 13 8 1
3 7 6 1
3 5 4 1
3 3 2 1
3 8 32 7
3 34 32 31
3 36 19 37
3 27 24 12
3 19 18 37
3 18 24 37
3 0 30 36
3 27 36 37
3 30 23 36
3 26 21 33
3 21 16 33
3 35 17 36
3 8 13 33
3 17 19 36
3 13 26 33
3 27 28 36
3 28 0 36
3 15 26 14
3 18 20 22
3 21 26 15
3 5 31 23
3 4 23 25
3 10 11 22
3 3 25 29
3 7 32 34
3 35 36 23
3 8 33 32
3 27 37 24
3 0 2 30
3 34 5 6
3 18 17 20
3 34 31 5
