ply
format ascii 1.0
comment Created by Blender 2.77 (sub 0) - www.blender.org, source file: ''
element vertex 22
property float x
property float y
property float z
property float nx
property float ny
property float nz
element face 40
property list uchar uint vertex_indices
end_header
-0.057264 0.282935 -0.019527 0.319651 -0.014252 -0.947417
-0.013297 -0.007473 0.013057 0.680319 -0.619007 -0.392407
-0.063125 -0.007473 -0.015710 -0.001343 -0.618091 -0.786096
-0.007436 0.282935 0.066776 0.869106 0.002991 0.494583
-0.013297 -0.007473 0.070593 0.680807 -0.614002 0.399304
-0.057264 0.282935 0.095544 0.471694 0.003204 0.881741
-0.063125 -0.007473 0.099361 0.006104 -0.614551 0.788812
-0.015947 0.623383 0.002886 0.848323 0.022675 -0.528947
-0.007436 0.282935 0.009241 0.868038 -0.006073 -0.496384
-0.152157 1.406094 0.027822 -0.693716 0.604694 -0.391217
-0.112952 -0.007473 0.070593 -0.678213 -0.620930 0.392956
-0.152157 1.406095 0.085358 -0.694052 0.598987 0.399304
-0.024078 0.986870 0.070950 0.880642 0.030885 0.472701
-0.052502 1.406094 0.085358 0.667806 0.625355 0.403638
-0.102329 1.406095 -0.000946 -0.014985 0.624165 -0.781121
-0.073905 0.986870 -0.015353 0.205145 0.040315 -0.977874
-0.065775 0.623383 -0.025881 0.003052 0.006104 -0.999969
-0.102329 1.406095 0.114126 -0.007202 0.606159 0.795282
-0.115602 0.623383 0.002886 -0.629902 -0.009827 -0.776574
-0.112952 -0.007473 0.013057 -0.678396 -0.619373 -0.395062
-0.024078 0.986870 0.013414 0.866054 0.054750 -0.496902
-0.052502 1.406094 0.027822 0.666128 0.638295 -0.385784
3 0 1 2
3 1 3 4
3 4 5 6
3 0 7 8
3 9 10 11
3 12 13 3
3 14 9 11
3 14 15 16
3 5 17 6
3 5 13 17
3 9 18 19
3 16 0 2
3 7 20 8
3 0 8 1
3 1 8 3
3 4 3 5
3 0 16 7
3 9 19 10
3 5 3 13
3 11 21 14
3 18 2 19
3 18 14 16
3 20 3 8
3 16 20 7
3 2 1 4
3 2 10 19
3 15 21 20
3 10 4 6
3 17 10 6
3 21 12 20
3 17 13 21
3 11 17 21
3 18 16 2
3 18 9 14
3 20 12 3
3 16 15 20
3 15 14 21
3 10 2 4
3 17 11 10
3 21 13 12
