ply
format ascii 1.0
comment Created by Blender 2.77 (sub 0) - www.blender.org, source file: 'Plants.blend'
element vertex 9
property float x
property float y
property float z
property float nx
property float ny
property float nz
element face 14
property list uchar uint vertex_indices
end_header
0.026886 1.460648 0.731644 -0.008026 -0.416852 0.908933
0.033413 2.672868 -0.006780 0.000000 0.999969 0.000000
-0.493347 1.460648 0.510750 -0.648396 -0.416852 0.637013
-0.705011 1.460648 -0.013306 -0.908933 -0.416852 -0.008026
-0.484117 1.460648 -0.533539 -0.637013 -0.416852 -0.648396
0.039940 1.460648 -0.745204 0.008026 -0.416852 -0.908933
0.560173 1.460648 -0.524309 0.648396 -0.416852 -0.637013
0.771837 1.460648 -0.000253 0.908933 -0.416852 0.008026
0.550943 1.460648 0.519980 0.637013 -0.416852 0.648366
3 0 1 2
3 2 1 3
3 3 1 4
3 4 1 5
3 5 1 6
3 6 1 7
3 7 1 8
3 8 1 0
3 4 6 8
3 8 0 2
3 2 3 4
3 4 5 6
3 6 7 8
3 8 2 4
