ply
format ascii 1.0
comment Created by Blender 2.77 (sub 0) - www.blender.org, source file: 'NewTrees.blend'
element vertex 276
property float x
property float y
property float z
property float nx
property float ny
property float nz
element face 92
property list uchar uint vertex_indices
end_header
-0.535789 0.757304 -0.116237 -0.457273 -0.741045 -0.491684
-0.385526 0.839810 -0.380333 -0.457273 -0.741045 -0.491684
-0.272007 0.834930 -0.478552 -0.457273 -0.741045 -0.491684
-0.462182 1.058788 -0.276949 -0.645625 0.129322 -0.752625
-0.272007 0.834930 -0.478552 -0.645625 0.129322 -0.752625
-0.385526 0.839810 -0.380333 -0.645625 0.129322 -0.752625
-0.427956 0.678010 0.306131 -0.248012 -0.968653 -0.014191
-0.533109 0.709087 0.022670 -0.248012 -0.968653 -0.014191
-0.438439 0.683031 0.146677 -0.248012 -0.968653 -0.014191
-0.535789 0.757304 -0.116237 -0.286520 -0.872607 -0.395554
-0.272007 0.834930 -0.478552 -0.286520 -0.872607 -0.395554
-0.118440 0.786479 -0.482903 -0.286520 -0.872607 -0.395554
-0.462182 1.058788 -0.276949 -0.874144 0.355686 -0.330696
-0.350118 1.560919 -0.033096 -0.874144 0.355686 -0.330696
-0.261301 1.604932 -0.220532 -0.874144 0.355686 -0.330696
-0.014614 0.659130 0.518204 -0.030528 -0.999100 -0.029449
-0.427956 0.678010 0.306131 -0.030528 -0.999100 -0.029449
-0.438439 0.683031 0.146677 -0.030528 -0.999100 -0.029449
-0.535789 0.757304 -0.116237 -0.213618 -0.924166 -0.316678
-0.118440 0.786479 -0.482903 -0.213618 -0.924166 -0.316678
-0.533109 0.709087 0.022670 -0.213618 -0.924166 -0.316678
-0.052475 1.163302 -0.526488 0.163559 0.161293 -0.973259
0.164404 0.804961 -0.549427 0.163559 0.161293 -0.973259
0.013377 0.789475 -0.577374 0.163559 0.161293 -0.973259
0.523334 1.125565 -0.000986 0.996063 0.068892 0.055794
0.546894 0.740057 0.054416 0.996063 0.068892 0.055794
0.555201 0.740701 -0.094670 0.996063 0.068892 0.055794
-0.052475 1.163302 -0.526488 -0.327059 0.081213 -0.941508
-0.272007 0.834930 -0.478552 -0.327059 0.081213 -0.941508
-0.218069 1.179329 -0.467581 -0.327059 0.081213 -0.941508
0.214563 1.580037 -0.331088 0.523608 0.561266 -0.640948
0.038419 2.156906 0.030170 0.523608 0.561266 -0.640948
0.317169 1.568515 -0.257354 0.523608 0.561266 -0.640948
0.400059 1.561191 -0.067834 0.817817 0.532408 -0.218445
0.038419 2.156906 0.030170 0.817817 0.532408 -0.218445
0.407682 1.584678 0.017951 0.817817 0.532408 -0.218445
0.314206 1.576681 0.221724 0.517341 0.479834 0.708603
0.038419 2.156906 0.030170 0.517341 0.479834 0.708603
0.242398 1.541386 0.298050 0.517341 0.479834 0.708603
0.048494 1.526693 0.374479 -0.147682 0.472373 0.868938
0.038419 2.156906 0.030170 -0.147682 0.472373 0.868938
-0.055783 1.515582 0.362796 -0.147682 0.472373 0.868938
-0.349317 1.523747 0.058916 -0.828252 0.517019 0.216077
0.038419 2.156906 0.030170 -0.828252 0.517019 0.216077
-0.350118 1.560919 -0.033096 -0.828252 0.517019 0.216077
-0.261301 1.604932 -0.220532 -0.504551 0.568930 -0.649420
0.038419 2.156906 0.030170 -0.504551 0.568930 -0.649420
-0.196722 1.556781 -0.312888 -0.504551 0.568930 -0.649420
-0.190202 1.542817 0.293550 -0.693635 0.486192 0.531496
0.038419 2.156906 0.030170 -0.693635 0.486192 0.531496
-0.266280 1.526237 0.209431 -0.693635 0.486192 0.531496
-0.438439 0.683031 0.146677 0.033021 -0.994274 -0.101632
0.555201 0.740701 -0.094670 0.033021 -0.994274 -0.101632
-0.014614 0.659130 0.518204 0.033021 -0.994274 -0.101632
0.038419 2.156906 0.030170 0.784605 0.529397 -0.322698
0.400059 1.561191 -0.067834 0.784605 0.529397 -0.322698
0.317169 1.568515 -0.257354 0.784605 0.529397 -0.322698
-0.523093 1.146980 0.017096 -0.999357 0.023207 0.027339
-0.535789 0.757304 -0.116237 -0.999357 0.023207 0.027339
-0.533109 0.709087 0.022670 -0.999357 0.023207 0.027339
-0.218865 1.101029 0.486128 -0.101941 0.025066 0.994475
-0.014614 0.659130 0.518204 -0.101941 0.025066 0.994475
0.019017 1.104493 0.510426 -0.101941 0.025066 0.994475
0.048494 1.526693 0.374479 0.079298 0.300513 0.950475
0.019017 1.104493 0.510426 0.079298 0.300513 0.950475
0.175469 1.127556 0.490081 0.079298 0.300513 0.950475
0.338885 0.819053 -0.440346 0.494498 -0.728227 -0.474508
0.451120 0.817381 -0.320817 0.494498 -0.728227 -0.474508
0.555201 0.740701 -0.094670 0.494498 -0.728227 -0.474508
0.038419 2.156906 0.030170 0.041972 0.539460 -0.840965
0.214563 1.580037 -0.331088 0.041972 0.539460 -0.840965
0.001970 1.493381 -0.397286 0.041972 0.539460 -0.840965
0.175469 1.127556 0.490081 0.251887 -0.044173 0.966748
-0.014614 0.659130 0.518204 0.251887 -0.044173 0.966748
0.294927 0.682421 0.438617 0.251887 -0.044173 0.966748
-0.324706 1.152736 0.414149 -0.359279 0.386497 0.849434
-0.055783 1.515582 0.362796 -0.359279 0.386497 0.849434
-0.190202 1.542817 0.293550 -0.359279 0.386497 0.849434
-0.350118 1.560919 -0.033096 -0.898508 0.404229 0.171122
-0.468654 1.213960 0.164104 -0.898508 0.404229 0.171122
-0.349317 1.523747 0.058916 -0.898508 0.404229 0.171122
0.294927 0.682421 0.438617 0.053649 -0.995140 -0.082569
-0.014614 0.659130 0.518204 0.053649 -0.995140 -0.082569
0.555201 0.740701 -0.094670 0.053649 -0.995140 -0.082569
-0.468654 1.213960 0.164104 -0.941228 0.025816 0.336783
-0.523093 1.146980 0.017096 -0.941228 0.025816 0.336783
-0.533109 0.709087 0.022670 -0.941228 0.025816 0.336783
0.038419 2.156906 0.030170 -0.177271 0.539854 -0.822881
0.001970 1.493381 -0.397286 -0.177271 0.539854 -0.822881
-0.196722 1.556781 -0.312888 -0.177271 0.539854 -0.822881
0.546894 0.740057 0.054416 0.235917 -0.971732 0.008946
0.294927 0.682421 0.438617 0.235917 -0.971732 0.008946
0.555201 0.740701 -0.094670 0.235917 -0.971732 0.008946
-0.218069 1.179329 -0.467581 -0.698553 0.304829 -0.647382
-0.261301 1.604932 -0.220532 -0.698553 0.304829 -0.647382
-0.196722 1.556781 -0.312888 -0.698553 0.304829 -0.647382
0.523334 1.125565 -0.000986 0.920662 0.309103 0.238406
0.314206 1.576681 0.221724 0.920662 0.309103 0.238406
0.457106 1.105126 0.281272 0.920662 0.309103 0.238406
0.457106 1.105126 0.281272 0.967848 0.092750 0.233811
0.546894 0.740057 0.054416 0.967848 0.092750 0.233811
0.523334 1.125565 -0.000986 0.967848 0.092750 0.233811
0.242398 1.541386 0.298050 0.630122 0.282298 0.723363
0.457106 1.105126 0.281272 0.630122 0.282298 0.723363
0.314206 1.576681 0.221724 0.630122 0.282298 0.723363
0.317169 1.568515 -0.257354 0.840692 0.234133 -0.488282
0.492952 1.174661 -0.143558 0.840692 0.234133 -0.488282
0.334013 1.185786 -0.411874 0.840692 0.234133 -0.488282
0.038419 2.156906 0.030170 0.781557 0.496273 0.377997
0.314206 1.576681 0.221724 0.781557 0.496273 0.377997
0.407682 1.584678 0.017951 0.781557 0.496273 0.377997
0.338885 0.819053 -0.440346 0.475434 0.074374 -0.876602
0.229889 1.153114 -0.471119 0.475434 0.074374 -0.876602
0.334013 1.185786 -0.411874 0.475434 0.074374 -0.876602
-0.266280 1.526237 0.209431 -0.712839 0.419544 0.562000
-0.324706 1.152736 0.414149 -0.712839 0.419544 0.562000
-0.190202 1.542817 0.293550 -0.712839 0.419544 0.562000
0.038419 2.156906 0.030170 -0.767290 0.488729 0.415223
-0.349317 1.523747 0.058916 -0.767290 0.488729 0.415223
-0.266280 1.526237 0.209431 -0.767290 0.488729 0.415223
-0.324706 1.152736 0.414149 -0.567527 -0.015741 0.823204
-0.297319 0.715901 0.424677 -0.567527 -0.015741 0.823204
-0.218865 1.101029 0.486128 -0.567527 -0.015741 0.823204
0.451120 0.817381 -0.320817 0.853598 0.147877 -0.499503
0.334013 1.185786 -0.411874 0.853598 0.147877 -0.499503
0.492952 1.174661 -0.143558 0.853598 0.147877 -0.499503
0.038419 2.156906 0.030170 -0.798755 0.547264 -0.249987
-0.261301 1.604932 -0.220532 -0.798755 0.547264 -0.249987
-0.350118 1.560919 -0.033096 -0.798755 0.547264 -0.249987
0.242398 1.541386 0.298050 0.495219 0.298503 0.815876
0.175469 1.127556 0.490081 0.495219 0.298503 0.815876
0.361136 1.089671 0.391246 0.495219 0.298503 0.815876
-0.468654 1.213960 0.164104 -0.856978 0.070219 0.510547
-0.427956 0.678010 0.306131 -0.856978 0.070219 0.510547
-0.324706 1.152736 0.414149 -0.856978 0.070219 0.510547
-0.190202 1.542817 0.293550 -0.326047 0.472553 0.818772
-0.055783 1.515582 0.362796 -0.326047 0.472553 0.818772
0.038419 2.156906 0.030170 -0.326047 0.472553 0.818772
0.399694 0.788273 0.323436 0.822963 -0.271578 0.498977
0.294927 0.682421 0.438617 0.822963 -0.271578 0.498977
0.546894 0.740057 0.054416 0.822963 -0.271578 0.498977
0.407682 1.584678 0.017951 0.953082 0.259565 -0.155761
0.492952 1.174661 -0.143558 0.953082 0.259565 -0.155761
0.400059 1.561191 -0.067834 0.953082 0.259565 -0.155761
0.048494 1.526693 0.374479 0.294757 0.461773 0.836591
0.242398 1.541386 0.298050 0.294757 0.461773 0.836591
0.038419 2.156906 0.030170 0.294757 0.461773 0.836591
0.399694 0.788273 0.323436 0.762174 -0.052235 0.645261
0.457106 1.105126 0.281272 0.762174 -0.052235 0.645261
0.294927 0.682421 0.438617 0.762174 -0.052235 0.645261
0.457106 1.105126 0.281272 0.755880 -0.046930 0.653026
0.361136 1.089671 0.391246 0.755880 -0.046930 0.653026
0.294927 0.682421 0.438617 0.755880 -0.046930 0.653026
0.361136 1.089671 0.391246 0.473771 0.025369 0.880283
0.175469 1.127556 0.490081 0.473771 0.025369 0.880283
0.294927 0.682421 0.438617 0.473771 0.025369 0.880283
0.492952 1.174661 -0.143558 0.915850 0.087219 -0.391934
0.555201 0.740701 -0.094670 0.915850 0.087219 -0.391934
0.451120 0.817381 -0.320817 0.915850 0.087219 -0.391934
-0.297319 0.715901 0.424677 -0.344827 -0.714757 0.608455
-0.427956 0.678010 0.306131 -0.344827 -0.714757 0.608455
-0.014614 0.659130 0.518204 -0.344827 -0.714757 0.608455
-0.055783 1.515582 0.362796 -0.138568 0.312295 0.939825
0.019017 1.104493 0.510426 -0.138568 0.312295 0.939825
0.048494 1.526693 0.374479 -0.138568 0.312295 0.939825
0.229889 1.153114 -0.471119 0.163845 0.312758 -0.935595
0.001970 1.493381 -0.397286 0.163845 0.312758 -0.935595
0.214563 1.580037 -0.331088 0.163845 0.312758 -0.935595
0.164404 0.804961 -0.549427 0.146047 -0.954399 -0.260370
0.555201 0.740701 -0.094670 0.146047 -0.954399 -0.260370
0.013377 0.789475 -0.577374 0.146047 -0.954399 -0.260370
-0.438439 0.683031 0.146677 -0.044753 -0.983978 -0.172583
-0.533109 0.709087 0.022670 -0.044753 -0.983978 -0.172583
0.013377 0.789475 -0.577374 -0.044753 -0.983978 -0.172583
-0.266280 1.526237 0.209431 -0.786106 0.447569 0.426285
-0.349317 1.523747 0.058916 -0.786106 0.447569 0.426285
-0.468654 1.213960 0.164104 -0.786106 0.447569 0.426285
-0.533109 0.709087 0.022670 -0.196697 -0.932139 -0.304020
-0.118440 0.786479 -0.482903 -0.196697 -0.932139 -0.304020
0.013377 0.789475 -0.577374 -0.196697 -0.932139 -0.304020
-0.118440 0.786479 -0.482903 -0.283529 -0.860672 -0.422913
-0.272007 0.834930 -0.478552 -0.283529 -0.860672 -0.422913
0.013377 0.789475 -0.577374 -0.283529 -0.860672 -0.422913
-0.462182 1.058788 -0.276949 -0.965959 0.111368 -0.233497
-0.535789 0.757304 -0.116237 -0.965959 0.111368 -0.233497
-0.523093 1.146980 0.017096 -0.965959 0.111368 -0.233497
0.001970 1.493381 -0.397286 -0.256756 0.378908 -0.889104
-0.218069 1.179329 -0.467581 -0.256756 0.378908 -0.889104
-0.196722 1.556781 -0.312888 -0.256756 0.378908 -0.889104
0.338885 0.819053 -0.440346 0.315581 -0.863586 -0.393228
0.555201 0.740701 -0.094670 0.315581 -0.863586 -0.393228
0.164404 0.804961 -0.549427 0.315581 -0.863586 -0.393228
-0.462182 1.058788 -0.276949 -0.859236 -0.060981 -0.507931
-0.385526 0.839810 -0.380333 -0.859236 -0.060981 -0.507931
-0.535789 0.757304 -0.116237 -0.859236 -0.060981 -0.507931
0.214563 1.580037 -0.331088 0.399458 0.298634 -0.866747
0.334013 1.185786 -0.411874 0.399458 0.298634 -0.866747
0.229889 1.153114 -0.471119 0.399458 0.298634 -0.866747
-0.462182 1.058788 -0.276949 -0.648363 0.125462 -0.750922
-0.218069 1.179329 -0.467581 -0.648363 0.125462 -0.750922
-0.272007 0.834930 -0.478552 -0.648363 0.125462 -0.750922
-0.462182 1.058788 -0.276949 -0.895668 0.339434 -0.287339
-0.523093 1.146980 0.017096 -0.895668 0.339434 -0.287339
-0.350118 1.560919 -0.033096 -0.895668 0.339434 -0.287339
-0.052475 1.163302 -0.526488 0.195533 0.180054 -0.964027
0.229889 1.153114 -0.471119 0.195533 0.180054 -0.964027
0.164404 0.804961 -0.549427 0.195533 0.180054 -0.964027
-0.052475 1.163302 -0.526488 -0.315919 0.073115 -0.945965
0.013377 0.789475 -0.577374 -0.315919 0.073115 -0.945965
-0.272007 0.834930 -0.478552 -0.315919 0.073115 -0.945965
-0.438439 0.683031 0.146677 0.026090 -0.991243 -0.129444
0.013377 0.789475 -0.577374 0.026090 -0.991243 -0.129444
0.555201 0.740701 -0.094670 0.026090 -0.991243 -0.129444
-0.218865 1.101029 0.486128 -0.328036 -0.083320 0.940984
-0.297319 0.715901 0.424677 -0.328036 -0.083320 0.940984
-0.014614 0.659130 0.518204 -0.328036 -0.083320 0.940984
0.175469 1.127556 0.490081 0.127837 0.007668 0.991765
0.019017 1.104493 0.510426 0.127837 0.007668 0.991765
-0.014614 0.659130 0.518204 0.127837 0.007668 0.991765
-0.324706 1.152736 0.414149 -0.375629 0.396922 0.837470
-0.218865 1.101029 0.486128 -0.375629 0.396922 0.837470
-0.055783 1.515582 0.362796 -0.375629 0.396922 0.837470
-0.350118 1.560919 -0.033096 -0.904841 0.396816 0.154273
-0.523093 1.146980 0.017096 -0.904841 0.396816 0.154273
-0.468654 1.213960 0.164104 -0.904841 0.396816 0.154273
-0.218069 1.179329 -0.467581 -0.676039 0.317356 -0.665024
-0.462182 1.058788 -0.276949 -0.676039 0.317356 -0.665024
-0.261301 1.604932 -0.220532 -0.676039 0.317356 -0.665024
0.523334 1.125565 -0.000986 0.886312 0.206162 0.414665
0.407682 1.584678 0.017951 0.886312 0.206162 0.414665
0.314206 1.576681 0.221724 0.886312 0.206162 0.414665
0.457106 1.105126 0.281272 0.866549 -0.091729 0.490591
0.399694 0.788273 0.323436 0.866549 -0.091729 0.490591
0.546894 0.740057 0.054416 0.866549 -0.091729 0.490591
0.242398 1.541386 0.298050 0.692450 0.315846 0.648656
0.361136 1.089671 0.391246 0.692450 0.315846 0.648656
0.457106 1.105126 0.281272 0.692450 0.315846 0.648656
0.317169 1.568515 -0.257354 0.882095 0.285410 -0.374766
0.400059 1.561191 -0.067834 0.882095 0.285410 -0.374766
0.492952 1.174661 -0.143558 0.882095 0.285410 -0.374766
0.338885 0.819053 -0.440346 0.522460 0.092384 -0.847644
0.164404 0.804961 -0.549427 0.522460 0.092384 -0.847644
0.229889 1.153114 -0.471119 0.522460 0.092384 -0.847644
-0.266280 1.526237 0.209431 -0.745340 0.406304 0.528569
-0.468654 1.213960 0.164104 -0.745340 0.406304 0.528569
-0.324706 1.152736 0.414149 -0.745340 0.406304 0.528569
-0.324706 1.152736 0.414149 -0.667994 -0.023953 0.743781
-0.427956 0.678010 0.306131 -0.667994 -0.023953 0.743781
-0.297319 0.715901 0.424677 -0.667994 -0.023953 0.743781
0.451120 0.817381 -0.320817 0.728006 0.062674 -0.682700
0.338885 0.819053 -0.440346 0.728006 0.062674 -0.682700
0.334013 1.185786 -0.411874 0.728006 0.062674 -0.682700
0.242398 1.541386 0.298050 0.319218 0.355934 0.878300
0.048494 1.526693 0.374479 0.319218 0.355934 0.878300
0.175469 1.127556 0.490081 0.319218 0.355934 0.878300
-0.468654 1.213960 0.164104 -0.936576 0.021576 0.349799
-0.533109 0.709087 0.022670 -0.936576 0.021576 0.349799
-0.427956 0.678010 0.306131 -0.936576 0.021576 0.349799
0.407682 1.584678 0.017951 0.961542 0.247157 -0.119794
0.523334 1.125565 -0.000986 0.961542 0.247157 -0.119794
0.492952 1.174661 -0.143558 0.961542 0.247157 -0.119794
0.492952 1.174661 -0.143558 0.978491 0.121584 -0.166648
0.523334 1.125565 -0.000986 0.978491 0.121584 -0.166648
0.555201 0.740701 -0.094670 0.978491 0.121584 -0.166648
-0.055783 1.515582 0.362796 -0.100880 0.319951 0.942048
-0.218865 1.101029 0.486128 -0.100880 0.319951 0.942048
0.019017 1.104493 0.510426 -0.100880 0.319951 0.942048
0.229889 1.153114 -0.471119 0.193104 0.329855 -0.924071
-0.052475 1.163302 -0.526488 0.193104 0.329855 -0.924071
0.001970 1.493381 -0.397286 0.193104 0.329855 -0.924071
0.001970 1.493381 -0.397286 -0.275005 0.389441 -0.879038
-0.052475 1.163302 -0.526488 -0.275005 0.389441 -0.879038
-0.218069 1.179329 -0.467581 -0.275005 0.389441 -0.879038
0.214563 1.580037 -0.331088 0.575302 0.327857 -0.749358
0.317169 1.568515 -0.257354 0.575302 0.327857 -0.749358
0.334013 1.185786 -0.411874 0.575302 0.327857 -0.749358
3 0 1 2
3 3 4 5
3 6 7 8
3 9 10 11
3 12 13 14
3 15 16 17
3 18 19 20
3 21 22 23
3 24 25 26
3 27 28 29
3 30 31 32
3 33 34 35
3 36 37 38
3 39 40 41
3 42 43 44
3 45 46 47
3 48 49 50
3 51 52 53
3 54 55 56
3 57 58 59
3 60 61 62
3 63 64 65
3 66 67 68
3 69 70 71
3 72 73 74
3 75 76 77
3 78 79 80
3 81 82 83
3 84 85 86
3 87 88 89
3 90 91 92
3 93 94 95
3 96 97 98
3 99 100 101
3 102 103 104
3 105 106 107
3 108 109 110
3 111 112 113
3 114 115 116
3 117 118 119
3 120 121 122
3 123 124 125
3 126 127 128
3 129 130 131
3 132 133 134
3 135 136 137
3 138 139 140
3 141 142 143
3 144 145 146
3 147 148 149
3 150 151 152
3 153 154 155
3 156 157 158
3 159 160 161
3 162 163 164
3 165 166 167
3 168 169 170
3 171 172 173
3 174 175 176
3 177 178 179
3 180 181 182
3 183 184 185
3 186 187 188
3 189 190 191
3 192 193 194
3 195 196 197
3 198 199 200
3 201 202 203
3 204 205 206
3 207 208 209
3 210 211 212
3 213 214 215
3 216 217 218
3 219 220 221
3 222 223 224
3 225 226 227
3 228 229 230
3 231 232 233
3 234 235 236
3 237 238 239
3 240 241 242
3 243 244 245
3 246 247 248
3 249 250 251
3 252 253 254
3 255 256 257
3 258 259 260
3 261 262 263
3 264 265 266
3 267 268 269
3 270 271 272
3 273 274 275
