ply
format ascii 1.0
comment Created by Blender 2.77 (sub 0) - www.blender.org, source file: 'NewTrees.blend'
element vertex 104
property float x
property float y
property float z
property float nx
property float ny
property float nz
element face 40
property list uchar uint vertex_indices
end_header
-0.057264 0.282935 -0.019527 0.499885 -0.021468 -0.865826
-0.013297 -0.007473 0.013057 0.499885 -0.021468 -0.865826
-0.063125 -0.007473 -0.015710 0.499885 -0.021468 -0.865826
-0.013297 -0.007473 0.013057 0.999796 -0.020179 -0.000000
-0.007436 0.282935 0.066776 0.999796 -0.020179 -0.000000
-0.013297 -0.007473 0.070593 0.999796 -0.020179 -0.000000
-0.013297 -0.007473 0.070593 0.500000 0.001290 0.866025
-0.057264 0.282935 0.095544 0.500000 0.001290 0.866025
-0.063125 -0.007473 0.099361 0.500000 0.001290 0.866025
-0.057264 0.282935 -0.019527 0.499996 -0.003665 -0.866020
-0.015947 0.623383 0.002886 0.499996 -0.003665 -0.866020
-0.007436 0.282935 0.009241 0.499996 -0.003665 -0.866020
-0.065775 0.623383 -0.025881 0.499671 0.036244 -0.865457
-0.024078 0.986870 0.013414 0.499671 0.036244 -0.865457
-0.015947 0.623383 0.002886 0.499671 0.036244 -0.865457
-0.024078 0.986870 0.070950 0.997709 0.067646 0.000000
-0.052502 1.406094 0.027822 0.997709 0.067646 0.000000
-0.052502 1.406094 0.085358 0.997709 0.067646 0.000000
-0.065775 0.623383 -0.025881 -0.499935 -0.016061 -0.865914
-0.112952 -0.007473 0.013057 -0.499935 -0.016061 -0.865914
-0.115602 0.623383 0.002886 -0.499935 -0.016061 -0.865914
-0.073905 0.986870 -0.015353 0.498990 0.063535 -0.864276
-0.052502 1.406094 0.027822 0.498990 0.063535 -0.864276
-0.024078 0.986870 0.013414 0.498990 0.063535 -0.864276
-0.152157 1.406094 0.027822 -0.999616 -0.027724 0.000001
-0.112952 -0.007473 0.070593 -0.999616 -0.027724 0.000001
-0.152157 1.406095 0.085358 -0.999616 -0.027724 0.000001
-0.024078 0.986870 0.070950 0.541411 0.007815 0.840722
-0.052502 1.406094 0.085358 0.541411 0.007815 0.840722
-0.007436 0.282935 0.066776 0.541411 0.007815 0.840722
-0.115602 0.623383 0.002886 -0.499995 0.004239 -0.866018
-0.102329 1.406095 -0.000946 -0.499995 0.004239 -0.866018
-0.065775 0.623383 -0.025881 -0.499995 0.004239 -0.866018
-0.052502 1.406094 0.085358 0.000001 1.000000 -0.000002
-0.152157 1.406095 0.085358 0.000001 1.000000 -0.000002
-0.102329 1.406095 0.114126 0.000001 1.000000 -0.000002
-0.013297 -0.007473 0.070593 0.000004 -1.000000 0.000003
-0.063125 -0.007473 0.099361 0.000004 -1.000000 0.000003
-0.013297 -0.007473 0.013057 0.000004 -1.000000 0.000003
-0.102329 1.406095 -0.000946 0.000002 1.000000 0.000000
-0.052502 1.406094 0.085358 0.000002 1.000000 0.000000
-0.052502 1.406094 0.027822 0.000002 1.000000 0.000000
-0.112952 -0.007473 0.013057 -0.000001 -1.000000 0.000003
-0.063125 -0.007473 -0.015710 -0.000001 -1.000000 0.000003
-0.013297 -0.007473 0.013057 -0.000001 -1.000000 0.000003
-0.102329 1.406095 -0.000946 -0.000004 1.000000 -0.000002
-0.152157 1.406094 0.027822 -0.000004 1.000000 -0.000002
-0.152157 1.406095 0.085358 -0.000004 1.000000 -0.000002
-0.112952 -0.007473 0.013057 0.000001 -1.000000 -0.000001
-0.063125 -0.007473 0.099361 0.000001 -1.000000 -0.000001
-0.112952 -0.007473 0.070593 0.000001 -1.000000 -0.000001
-0.102329 1.406095 -0.000946 -0.118060 0.026111 -0.992663
-0.073905 0.986870 -0.015353 -0.118060 0.026111 -0.992663
-0.065775 0.623383 -0.025881 -0.118060 0.026111 -0.992663
-0.057264 0.282935 0.095544 0.441638 0.002877 0.897189
-0.102329 1.406095 0.114126 0.441638 0.002877 0.897189
-0.063125 -0.007473 0.099361 0.441638 0.002877 0.897189
-0.057264 0.282935 0.095544 0.499992 0.005735 0.866011
-0.052502 1.406094 0.085358 0.499992 0.005735 0.866011
-0.102329 1.406095 0.114126 0.499992 0.005735 0.866011
-0.102329 1.406095 0.114126 -0.499869 -0.022907 0.865798
-0.112952 -0.007473 0.070593 -0.499869 -0.022907 0.865798
-0.063125 -0.007473 0.099361 -0.499869 -0.022907 0.865798
-0.152157 1.406094 0.027822 -0.748477 -0.013833 -0.663017
-0.115602 0.623383 0.002886 -0.748477 -0.013833 -0.663017
-0.112952 -0.007473 0.013057 -0.748477 -0.013833 -0.663017
-0.007436 0.282935 0.066776 0.999721 0.023635 0.000000
-0.024078 0.986870 0.013414 0.999721 0.023635 0.000000
-0.024078 0.986870 0.070950 0.999721 0.023635 0.000000
-0.065775 0.623383 -0.025881 0.121322 -0.015492 -0.992492
-0.057264 0.282935 -0.019527 0.121322 -0.015492 -0.992492
-0.063125 -0.007473 -0.015710 0.121322 -0.015492 -0.992492
-0.015947 0.623383 0.002886 0.998192 0.023925 -0.055134
-0.024078 0.986870 0.013414 0.998192 0.023925 -0.055134
-0.007436 0.282935 0.009241 0.998192 0.023925 -0.055134
-0.057264 0.282935 -0.019527 0.499884 -0.021468 -0.865826
-0.007436 0.282935 0.009241 0.499884 -0.021468 -0.865826
-0.013297 -0.007473 0.013057 0.499884 -0.021468 -0.865826
-0.007436 0.282935 0.009241 0.999796 -0.020179 -0.000000
-0.007436 0.282935 0.066776 0.500000 0.001290 0.866025
-0.065775 0.623383 -0.025881 0.499996 -0.003665 -0.866020
-0.065775 0.623383 -0.025881 0.499672 0.036244 -0.865456
-0.073905 0.986870 -0.015353 0.499672 0.036244 -0.865456
-0.024078 0.986870 0.013414 0.499672 0.036244 -0.865456
-0.024078 0.986870 0.013414 0.997709 0.067646 0.000000
-0.063125 -0.007473 -0.015710 -0.499935 -0.016061 -0.865914
-0.073905 0.986870 -0.015353 0.498990 0.063535 -0.864275
-0.102329 1.406095 -0.000946 0.498990 0.063535 -0.864275
-0.052502 1.406094 0.027822 0.498990 0.063535 -0.864275
-0.152157 1.406094 0.027822 -0.999616 -0.027724 -0.000000
-0.112952 -0.007473 0.013057 -0.999616 -0.027724 -0.000000
-0.112952 -0.007473 0.070593 -0.999616 -0.027724 -0.000000
-0.152157 1.406094 0.027822 -0.499995 0.004239 -0.866018
-0.102329 1.406095 -0.000946 0.000001 1.000000 0.000001
-0.152157 1.406095 0.085358 0.000001 1.000000 0.000001
-0.052502 1.406094 0.085358 0.000001 1.000000 0.000001
-0.112952 -0.007473 0.013057 -0.000001 -1.000000 0.000000
-0.013297 -0.007473 0.013057 -0.000001 -1.000000 0.000000
-0.063125 -0.007473 0.099361 -0.000001 -1.000000 0.000000
-0.007436 0.282935 0.066776 0.499992 0.005735 0.866011
-0.152157 1.406095 0.085358 -0.499869 -0.022907 0.865798
-0.007436 0.282935 0.066776 0.999721 0.023634 -0.000000
-0.007436 0.282935 0.009241 0.999721 0.023634 -0.000000
-0.024078 0.986870 0.013414 0.999721 0.023634 -0.000000
3 0 1 2
3 3 4 5
3 6 7 8
3 9 10 11
3 12 13 14
3 15 16 17
3 18 19 20
3 21 22 23
3 24 25 26
3 27 28 29
3 30 31 32
3 33 34 35
3 36 37 38
3 39 40 41
3 42 43 44
3 45 46 47
3 48 49 50
3 51 52 53
3 54 55 56
3 57 58 59
3 60 61 62
3 63 64 65
3 66 67 68
3 69 70 71
3 72 73 74
3 75 76 77
3 3 78 4
3 6 79 7
3 9 80 10
3 81 82 83
3 15 84 16
3 18 85 19
3 86 87 88
3 89 90 91
3 30 92 31
3 93 94 95
3 96 97 98
3 57 99 58
3 60 100 61
3 101 102 103
