ply
format ascii 1.0
comment Created by Blender 2.77 (sub 0) - www.blender.org, source file: 'Plants.blend'
element vertex 8
property float x
property float y
property float z
property float nx
property float ny
property float nz
element face 12
property list uchar uint vertex_indices
end_header
0.135935 1.160123 0.121438 0.577197 0.587786 0.566820
0.142952 -0.048011 -0.156499 0.577685 -0.568072 -0.586108
0.135935 1.160123 -0.121438 0.576922 0.586505 -0.568407
-0.121438 1.160039 0.121438 -0.560778 0.601062 0.569384
0.142952 -0.048011 0.162509 0.577441 -0.566729 0.587634
-0.190553 -0.048095 -0.156499 -0.593341 -0.554735 -0.583239
-0.190553 -0.048095 0.162509 -0.593036 -0.553453 0.584765
-0.121438 1.160039 -0.121438 -0.560533 0.599719 -0.571032
3 0 1 2
3 3 4 0
3 3 5 6
3 7 1 5
3 4 5 1
3 3 2 7
3 0 4 1
3 3 6 4
3 3 7 5
3 7 2 1
3 4 6 5
3 3 0 2
