ply
format ascii 1.0
comment Created by Blender 2.77 (sub 0) - www.blender.org, source file: 'IncaPiramid.blend'
element vertex 24
property float x
property float y
property float z
property float nx
property float ny
property float nz
element face 12
property list uchar uint vertex_indices
end_header
1.076042 1.189440 5.088778 1.000000 0.000000 -0.000000
1.076042 -0.100720 -2.214297 1.000000 0.000000 -0.000000
1.076042 1.189405 -2.214302 1.000000 0.000000 -0.000000
-1.029213 1.189440 5.088778 0.000000 0.000005 1.000000
1.076042 -0.100686 5.088785 0.000000 0.000005 1.000000
1.076042 1.189440 5.088778 0.000000 0.000005 1.000000
-1.029213 1.189440 5.088778 -1.000000 0.000000 -0.000000
-1.029213 -0.100720 -2.214297 -1.000000 0.000000 -0.000000
-1.029213 -0.100686 5.088785 -1.000000 0.000000 -0.000000
1.076042 1.189405 -2.214302 0.000000 -0.000004 -1.000000
-1.029213 -0.100720 -2.214297 0.000000 -0.000004 -1.000000
-1.029213 1.189405 -2.214302 0.000000 -0.000004 -1.000000
1.076042 -0.100686 5.088785 0.000000 -1.000000 0.000005
-1.029213 -0.100720 -2.214297 0.000000 -1.000000 0.000005
1.076042 -0.100720 -2.214297 0.000000 -1.000000 0.000005
-1.029213 1.189440 5.088778 0.000000 1.000000 -0.000005
1.076042 1.189405 -2.214302 0.000000 1.000000 -0.000005
-1.029213 1.189405 -2.214302 0.000000 1.000000 -0.000005
1.076042 -0.100686 5.088785 1.000000 -0.000000 0.000000
-1.029213 -0.100686 5.088785 0.000000 0.000005 1.000000
-1.029213 1.189405 -2.214302 -1.000000 0.000000 0.000000
1.076042 -0.100720 -2.214297 0.000000 -0.000004 -1.000000
-1.029213 -0.100686 5.088785 0.000000 -1.000000 0.000005
1.076042 1.189440 5.088778 0.000000 1.000000 -0.000005
3 0 1 2
3 3 4 5
3 6 7 8
3 9 10 11
3 12 13 14
3 15 16 17
3 0 18 1
3 3 19 4
3 6 20 7
3 9 21 10
3 12 22 13
3 15 23 16
