ply
format ascii 1.0
comment Created by Blender 2.77 (sub 0) - www.blender.org, source file: 'IncaPiramid.blend'
element vertex 24
property float x
property float y
property float z
property float nx
property float ny
property float nz
element face 12
property list uchar uint vertex_indices
end_header
4.171897 2.362866 4.185288 1.000000 0.000000 -0.000000
4.171897 0.908744 -4.122470 1.000000 0.000000 -0.000000
4.171897 2.362867 -4.122470 1.000000 0.000000 -0.000000
0.922816 2.362866 4.185288 0.000000 0.000000 1.000000
4.171897 0.908743 4.185288 0.000000 0.000000 1.000000
4.171897 2.362866 4.185288 0.000000 0.000000 1.000000
0.922816 2.362866 4.185288 -1.000000 0.000000 0.000000
0.922816 0.908744 -4.122470 -1.000000 0.000000 0.000000
0.922816 0.908743 4.185288 -1.000000 0.000000 0.000000
4.171897 2.362867 -4.122470 0.000000 0.000000 -1.000000
0.922816 0.908744 -4.122470 0.000000 0.000000 -1.000000
0.922816 2.362867 -4.122470 0.000000 0.000000 -1.000000
4.171897 0.908743 4.185288 -0.000000 -1.000000 -0.000000
0.922816 0.908744 -4.122470 -0.000000 -1.000000 -0.000000
4.171897 0.908744 -4.122470 -0.000000 -1.000000 -0.000000
0.922816 2.362866 4.185288 -0.000000 1.000000 0.000000
4.171897 2.362867 -4.122470 -0.000000 1.000000 0.000000
0.922816 2.362867 -4.122470 -0.000000 1.000000 0.000000
4.171897 0.908743 4.185288 1.000000 0.000000 -0.000000
0.922816 0.908743 4.185288 0.000000 -0.000000 1.000000
0.922816 2.362867 -4.122470 -1.000000 0.000000 0.000000
4.171897 0.908744 -4.122470 0.000000 0.000000 -1.000000
0.922816 0.908743 4.185288 0.000000 -1.000000 -0.000000
4.171897 2.362866 4.185288 0.000000 1.000000 0.000000
3 0 1 2
3 3 4 5
3 6 7 8
3 9 10 11
3 12 13 14
3 15 16 17
3 0 18 1
3 3 19 4
3 6 20 7
3 9 21 10
3 12 22 13
3 15 23 16
