ply
format ascii 1.0
comment Created by Blender 2.77 (sub 0) - www.blender.org, source file: 'Campfire.blend'
element vertex 8
property float x
property float y
property float z
property float nx
property float ny
property float nz
element face 12
property list uchar uint vertex_indices
end_header
0.433941 1.926258 1.849346 0.805536 0.133213 0.577349
-0.942460 0.004329 1.628908 0.133213 -0.805536 -0.577349
0.433941 1.926258 1.628908 0.805536 0.133213 -0.577349
0.254721 2.054608 1.849346 -0.133213 0.805536 0.577349
-0.942460 0.004329 1.849346 0.133213 -0.805536 0.577349
0.254721 2.054608 1.628908 -0.133213 0.805536 -0.577349
-1.121680 0.132678 1.849346 -0.805536 -0.133213 0.577349
-1.121680 0.132678 1.628908 -0.805536 -0.133213 -0.577349
3 0 1 2
3 3 4 0
3 5 6 3
3 2 7 5
3 4 7 1
3 3 2 5
3 0 4 1
3 3 6 4
3 5 7 6
3 2 1 7
3 4 6 7
3 3 0 2
