ply
format ascii 1.0
comment Created by Blender 2.77 (sub 0) - www.blender.org, source file: 'NewRuins.blend'
element vertex 8
property float x
property float y
property float z
property float nx
property float ny
property float nz
element face 12
property list uchar uint vertex_indices
end_header
0.593859 2.860813 5.462599 0.489761 0.577837 0.652821
0.739721 1.880980 4.474077 0.653401 -0.576830 -0.490188
0.739721 2.860813 4.474077 0.653401 0.576830 -0.490188
-3.237731 2.860813 4.934252 -0.653401 0.576830 0.490188
0.593859 1.880980 5.462599 0.489761 -0.577837 0.652821
-3.091870 2.860813 3.945730 -0.489761 0.577837 -0.652821
-3.237731 1.880980 4.934252 -0.653401 -0.576830 0.490188
-3.091870 1.880980 3.945730 -0.489761 -0.577837 -0.652821
3 0 1 2
3 3 4 0
3 5 6 3
3 2 7 5
3 1 6 7
3 3 2 5
3 0 4 1
3 3 6 4
3 5 7 6
3 2 1 7
3 1 4 6
3 3 0 2
