ply
format ascii 1.0
comment Created by Blender 2.77 (sub 0) - www.blender.org, source file: 'NewRuins.blend'
element vertex 8
property float x
property float y
property float z
property float nx
property float ny
property float nz
element face 12
property list uchar uint vertex_indices
end_header
0.094205 0.291700 -6.309257 -0.614978 -0.126194 -0.778344
2.650194 2.896630 -5.552176 0.934385 0.135990 -0.329203
0.545487 -0.038861 -6.184474 0.285440 -0.797418 -0.531632
1.910463 3.250226 -4.871460 -0.296731 0.790948 0.535051
2.147706 3.264699 -5.691117 0.027528 0.812830 -0.581835
-0.118862 0.278702 -5.573128 -0.935209 -0.147191 0.321970
2.412951 2.882157 -4.732518 0.610553 0.114780 0.783593
0.332420 -0.051859 -5.448344 -0.035188 -0.819056 0.572619
3 0 1 2
3 3 1 4
3 5 6 3
3 5 2 7
3 1 7 2
3 5 4 0
3 0 4 1
3 3 6 1
3 5 7 6
3 5 0 2
3 1 6 7
3 5 3 4
