ply
format ascii 1.0
comment Created by Blender 2.77 (sub 0) - www.blender.org, source file: 'NewRuins.blend'
element vertex 8
property float x
property float y
property float z
property float nx
property float ny
property float nz
element face 12
property list uchar uint vertex_indices
end_header
0.368519 0.130000 0.450000 0.577349 0.577349 0.577349
0.368519 -0.130000 -0.450000 0.577349 -0.577349 -0.577349
0.368519 0.130000 -0.450000 0.577349 0.577349 -0.577349
-0.531481 0.130000 0.450000 -0.577349 0.577349 0.577349
0.368519 -0.130000 0.450000 0.577349 -0.577349 0.577349
-0.531481 0.130000 -0.450000 -0.577349 0.577349 -0.577349
-0.531481 -0.130000 0.450000 -0.577349 -0.577349 0.577349
-0.531481 -0.130000 -0.450000 -0.577349 -0.577349 -0.577349
3 0 1 2
3 3 4 0
3 5 6 3
3 2 7 5
3 4 7 1
3 3 2 5
3 0 4 1
3 3 6 4
3 5 7 6
3 2 1 7
3 4 6 7
3 3 0 2
