ply
format ascii 1.0
comment Created by Blender 2.77 (sub 0) - www.blender.org, source file: 'Stable.blend'
element vertex 16
property float x
property float y
property float z
property float nx
property float ny
property float nz
element face 28
property list uchar uint vertex_indices
end_header
-0.140154 2.240362 3.135986 0.572436 0.588397 -0.571001
-0.353262 2.240362 3.392742 -0.572436 0.588397 0.571001
-0.140154 2.240362 3.392742 0.572436 0.588397 0.571001
-0.353262 -0.042897 3.135986 -0.136479 -0.984832 -0.107028
-0.140154 -0.042897 3.392742 0.136479 -0.984832 0.107028
-0.353262 -0.042897 3.392742 -0.136479 -0.984832 0.107028
-0.394295 -0.027903 3.442180 -0.605090 -0.512436 0.609302
-0.140154 -0.042897 3.135986 0.136479 -0.984832 -0.107028
-0.099120 -0.027903 3.442180 0.605090 -0.512436 0.609302
-0.099120 -0.027903 3.086548 0.605090 -0.512436 -0.609302
-0.394295 -0.027903 3.086548 -0.605090 -0.512436 -0.609302
-0.099120 0.097198 3.086548 0.706595 0.014801 -0.707450
-0.394295 0.097198 3.086548 -0.706595 0.014801 -0.707450
-0.099120 0.097198 3.442180 0.706595 0.014801 0.707450
-0.394295 0.097198 3.442180 -0.706595 0.014801 0.707450
-0.353262 2.240362 3.135986 -0.572436 0.588397 -0.571001
3 0 1 2
3 3 4 5
3 4 6 5
3 7 8 4
3 3 9 7
3 5 10 3
3 11 10 12
3 13 9 11
3 12 6 14
3 14 8 13
3 11 2 13
3 11 15 0
3 13 1 14
3 12 1 15
3 0 15 1
3 3 7 4
3 4 8 6
3 7 9 8
3 3 10 9
3 5 6 10
3 11 9 10
3 13 8 9
3 12 10 6
3 14 6 8
3 11 0 2
3 11 12 15
3 13 2 1
3 12 14 1
