ply
format ascii 1.0
comment Created by Blender 2.77 (sub 0) - www.blender.org, source file: 'Stable.blend'
element vertex 16
property float x
property float y
property float z
property float nx
property float ny
property float nz
element face 28
property list uchar uint vertex_indices
end_header
-0.540760 0.178479 -3.296624 0.888852 -0.201666 0.411389
-0.540760 0.805924 -3.384424 0.635334 0.460311 -0.619983
-0.540760 0.805924 -3.296624 0.819483 0.429365 0.379559
-0.664583 -0.015059 -3.304661 0.379070 -0.803064 -0.459731
-0.540760 0.178479 -3.384424 0.689657 -0.280190 -0.667684
-1.881332 -0.015059 -3.216861 -0.419355 -0.658956 0.624409
-0.664583 0.867855 -3.216861 0.294534 0.669210 0.682150
-1.881332 0.867855 -3.216861 -0.303446 0.667226 0.680197
-0.664583 0.867855 -3.304661 0.165166 0.949736 -0.265847
-1.881332 -0.015059 -3.304661 -0.388073 -0.799402 -0.458602
-1.999259 0.178479 -3.296624 -0.894467 -0.192907 0.403333
-1.999259 0.178479 -3.384425 -0.689627 -0.274545 -0.670064
-0.664583 -0.015059 -3.216861 0.412244 -0.661641 0.626270
-1.999259 0.805924 -3.384425 -0.636006 0.456710 -0.621998
-1.881332 0.867855 -3.304661 -0.173620 0.948729 -0.264077
-1.999259 0.805924 -3.296624 -0.827265 0.422071 0.370708
3 0 1 2
3 0 3 4
3 5 6 7
3 8 2 1
3 9 10 11
3 0 2 6
3 0 6 12
3 3 11 4
3 8 13 14
3 15 14 13
3 12 9 3
3 10 13 11
3 8 1 13
3 7 15 10
3 7 10 5
3 6 14 7
3 4 13 1
3 0 4 1
3 0 12 3
3 5 12 6
3 8 6 2
3 9 5 10
3 3 9 11
3 15 7 14
3 12 5 9
3 10 15 13
3 6 8 14
3 4 11 13
