ply
format ascii 1.0
comment Created by Blender 2.77 (sub 0) - www.blender.org, source file: ''
element vertex 16
property float x
property float y
property float z
property float nx
property float ny
property float nz
element face 28
property list uchar uint vertex_indices
end_header
-0.540760 0.178479 -3.296624 0.888852 -0.201666 0.411389
-0.540760 0.805924 -3.384424 0.635334 0.460311 -0.619983
-0.540760 0.805924 -3.296624 0.819483 0.429365 0.379559
-0.664583 -0.015059 -3.304661 0.379070 -0.803064 -0.459731
-0.540760 0.178479 -3.384424 0.689657 -0.280190 -0.667684
-0.664583 0.867855 -3.304661 0.165166 0.949736 -0.265847
-1.881332 -0.015059 -3.304661 -0.388073 -0.799402 -0.458602
-1.999259 0.178479 -3.296624 -0.894467 -0.192907 0.403333
-1.999259 0.178479 -3.384425 -0.689627 -0.274545 -0.670064
-1.999259 0.805924 -3.384425 -0.636006 0.456710 -0.621998
-1.881332 0.867855 -3.304661 -0.173620 0.948729 -0.264077
-1.999259 0.805924 -3.296624 -0.827265 0.422071 0.370708
-0.664583 -0.015059 -3.216861 0.412244 -0.661641 0.626270
-0.664583 0.867855 -3.216861 0.294534 0.669210 0.682150
-1.881332 -0.015059 -3.216861 -0.419355 -0.658956 0.624409
-1.881332 0.867855 -3.216861 -0.303446 0.667226 0.680197
3 0 1 2
3 0 3 4
3 5 2 1
3 6 7 8
3 3 8 4
3 5 9 10
3 11 10 9
3 5 1 9
3 4 9 1
3 0 4 1
3 0 12 3
3 5 13 2
3 6 14 7
3 3 6 8
3 11 15 10
3 9 7 11
3 4 8 9
3 13 10 15
3 13 14 12
3 12 6 3
3 12 0 2
3 12 2 13
3 11 7 14
3 11 14 15
3 9 8 7
3 13 5 10
3 13 15 14
3 12 14 6
