ply
format ascii 1.0
comment Created by Blender 2.77 (sub 0) - www.blender.org, source file: 'Stable.blend'
element vertex 16
property float x
property float y
property float z
property float nx
property float ny
property float nz
element face 28
property list uchar uint vertex_indices
end_header
2.378107 0.000280 0.807878 0.604663 -0.513016 -0.609210
2.082932 0.125381 0.807878 -0.706290 0.020539 -0.707572
2.378107 0.125381 0.807878 0.706290 0.020539 -0.707572
2.082932 0.000280 1.169242 -0.604663 -0.513016 0.609210
2.378107 0.125381 1.169242 0.706290 0.020539 0.707572
2.082932 0.125381 1.169242 -0.706290 0.020539 0.707572
2.082932 0.000280 0.807878 -0.604663 -0.513016 -0.609210
2.378107 0.000280 1.169242 0.604663 -0.513016 0.609210
2.123966 -0.014713 1.119007 -0.136876 -0.984985 0.105075
2.337073 -0.014713 1.119007 0.136876 -0.984985 0.105075
2.337073 -0.014713 0.858113 0.136876 -0.984985 -0.105075
2.337073 1.679856 1.119007 0.570574 0.592730 0.568377
2.123966 1.679856 0.858113 -0.570574 0.592730 -0.568377
2.123966 1.679856 1.119007 -0.570574 0.592730 0.568377
2.123966 -0.014713 0.858113 -0.136876 -0.984985 -0.105075
2.337073 1.679856 0.858113 0.570574 0.592730 -0.568377
3 0 1 2
3 3 4 5
3 6 5 1
3 7 2 4
3 7 8 9
3 8 10 9
3 11 12 13
3 10 7 9
3 14 0 10
3 12 2 1
3 3 14 8
3 12 5 13
3 15 4 2
3 13 4 11
3 0 6 1
3 3 7 4
3 6 3 5
3 7 0 2
3 7 3 8
3 8 14 10
3 11 15 12
3 10 0 7
3 14 6 0
3 12 15 2
3 3 6 14
3 12 1 5
3 15 11 4
3 13 5 4
