ply
format ascii 1.0
comment Created by Blender 2.77 (sub 0) - www.blender.org, source file: ''
element vertex 16
property float x
property float y
property float z
property float nx
property float ny
property float nz
element face 28
property list uchar uint vertex_indices
end_header
1.999260 0.805924 -1.216806 0.636006 0.456710 -0.621967
1.999259 0.178479 -0.961582 0.686056 -0.281137 0.671010
1.999260 0.178479 -1.216806 0.689627 -0.274545 -0.670064
1.881333 -0.015059 -1.049243 0.388928 -0.807031 0.444288
1.881333 -0.015059 -1.137042 0.388073 -0.799402 -0.458602
0.540761 0.805924 -1.216805 -0.635334 0.460311 -0.619983
0.540761 0.178479 -0.961582 -0.686117 -0.286569 0.668630
0.540761 0.805924 -0.961582 -0.632252 0.464064 0.620350
0.664583 -0.015059 -1.049243 -0.379833 -0.810755 0.445387
1.881333 0.867855 -1.049243 0.175542 0.953948 0.243171
1.999259 0.805924 -0.961582 0.632771 0.460738 0.622303
0.540761 0.178479 -1.216805 -0.689657 -0.280190 -0.667684
1.881333 0.867855 -1.137042 0.173620 0.948729 -0.264077
0.664583 0.867855 -1.049243 -0.166967 0.955046 0.244850
0.664583 -0.015059 -1.137043 -0.379070 -0.803064 -0.459731
0.664583 0.867855 -1.137043 -0.165166 0.949736 -0.265847
3 0 1 2
3 2 3 4
3 5 6 7
3 8 4 3
3 0 9 10
3 11 8 6
3 12 13 9
3 0 10 1
3 2 1 3
3 5 11 6
3 8 14 4
3 0 12 9
3 11 14 8
3 0 11 5
3 12 15 13
3 13 7 10
3 13 10 9
3 1 8 3
3 10 6 1
3 5 15 12
3 5 12 0
3 2 14 11
3 13 5 7
3 0 2 11
3 1 6 8
3 10 7 6
3 2 4 14
3 13 15 5
