ply
format ascii 1.0
comment Created by Blender 2.77 (sub 0) - www.blender.org, source file: 'Stable.blend'
element vertex 18
property float x
property float y
property float z
property float nx
property float ny
property float nz
element face 32
property list uchar uint vertex_indices
end_header
-0.309899 0.805924 3.082728 0.412152 0.419538 0.808740
-0.380798 0.178479 3.082728 -0.667257 -0.262764 0.696890
-0.309899 0.178479 3.082728 0.447188 -0.194525 0.873012
-0.245488 -0.015059 -2.810364 0.624958 -0.667776 -0.404309
-0.309897 0.178479 -2.935516 0.454024 -0.203406 -0.867428
-0.309897 0.805924 -2.935516 0.419813 0.426923 -0.800897
-0.380798 0.805924 3.082728 -0.620441 0.449416 0.642659
-0.316388 0.867855 -1.148064 -0.373608 0.927549 0.000000
-0.380796 0.805924 -2.935516 -0.618427 0.453627 -0.641682
-0.245488 0.867855 -2.810364 0.681600 0.679586 -0.271187
-0.380796 0.178479 -2.935516 -0.664876 -0.268990 -0.696799
-0.316389 0.867855 2.963534 -0.313456 0.934538 0.168401
-0.316388 -0.015059 -1.148064 -0.584887 -0.811090 0.000000
-0.316389 -0.015059 2.963534 -0.487533 -0.783685 0.384838
-0.316387 0.867855 -2.810364 -0.315317 0.935331 -0.160283
-0.316387 -0.015059 -2.810364 -0.488784 -0.787225 -0.375896
-0.245490 0.867855 2.963534 0.679800 0.677786 0.280038
-0.245490 -0.015059 2.963534 0.623127 -0.664968 0.411664
3 0 1 2
3 3 4 5
3 6 7 8
3 3 5 9
3 5 10 8
3 0 11 6
3 12 13 1
3 12 1 10
3 14 7 11
3 4 15 10
3 9 11 16
3 13 2 1
3 17 13 12
3 17 12 15
3 17 15 3
3 8 1 6
3 8 7 14
3 0 2 17
3 0 17 16
3 12 10 15
3 14 5 8
3 9 17 3
3 6 11 7
3 0 6 1
3 5 4 10
3 0 16 11
3 4 3 15
3 9 14 11
3 13 17 2
3 8 10 1
3 14 9 5
3 9 16 17
