ply
format ascii 1.0
comment Created by Blender 2.77 (sub 0) - www.blender.org, source file: 'Anvil.blend'
element vertex 8
property float x
property float y
property float z
property float nx
property float ny
property float nz
element face 12
property list uchar uint vertex_indices
end_header
4.728431 2.467346 -1.786072 0.384899 -0.720054 0.577349
0.357163 3.793281 -2.362768 -0.720054 -0.384899 -0.577349
4.728431 2.467346 -2.362766 0.384899 -0.720054 -0.577349
4.889539 2.998478 -2.362766 0.720054 0.384899 -0.577349
0.518271 4.324413 -2.362768 -0.384899 0.720054 -0.577349
4.889539 2.998478 -1.786072 0.720054 0.384899 0.577349
0.357163 3.793281 -1.786072 -0.720054 -0.384899 0.577349
0.518271 4.324413 -1.786072 -0.384899 0.720054 0.577349
3 0 1 2
3 3 1 4
3 5 2 3
3 5 6 0
3 6 4 1
3 3 7 5
3 0 6 1
3 3 2 1
3 5 0 2
3 5 7 6
3 6 7 4
3 3 4 7
