ply
format ascii 1.0
comment Created by Blender 2.77 (sub 0) - www.blender.org, source file: 'Stable.blend'
element vertex 16
property float x
property float y
property float z
property float nx
property float ny
property float nz
element face 28
property list uchar uint vertex_indices
end_header
-2.503673 1.680134 -3.359900 -0.720054 0.384899 -0.577349
-2.418490 1.399307 -3.106600 -0.596057 -0.802911 0.000855
-2.503673 1.680134 -3.106600 -0.882046 0.471114 0.001251
-0.192434 2.381202 -3.359900 0.382275 0.719718 -0.579485
-0.107250 2.100374 -3.359900 0.718009 -0.380871 -0.582568
-2.418490 1.399307 -3.359900 -0.387982 -0.716178 -0.580096
-2.399419 1.399307 3.453277 -0.384014 -0.719932 0.578082
-0.173362 2.381202 3.453278 0.385022 0.719810 0.577563
-2.484602 1.680134 3.453277 -0.719230 0.385022 0.578295
-0.088178 2.100374 -1.140439 0.882382 -0.470473 -0.003510
-0.173361 2.381202 -1.140439 0.596728 0.802423 -0.002564
-0.192434 2.381202 -3.106599 -0.146855 0.989135 0.000183
-0.162623 2.081623 -3.266317 0.300943 -0.953581 -0.008301
-2.350641 1.417932 -3.266318 0.281381 -0.959532 -0.008393
-2.399418 1.399307 -1.140440 0.146977 -0.989135 -0.000427
-0.088179 2.100374 3.453278 0.720054 -0.384899 0.577349
3 0 1 2
3 2 3 0
3 0 4 5
3 6 7 8
3 7 9 10
3 11 8 7
3 4 12 5
3 12 13 5
3 13 14 5
3 9 12 4
3 4 10 9
3 12 14 13
3 7 10 3
3 7 3 11
3 5 14 6
3 5 6 1
3 8 1 6
3 6 9 15
3 0 5 1
3 2 11 3
3 0 3 4
3 6 15 7
3 7 15 9
3 11 2 8
3 4 3 10
3 12 9 14
3 8 2 1
3 6 14 9
