ply
format ascii 1.0
comment Created by Blender 2.77 (sub 0) - www.blender.org, source file: 'Stable.blend'
element vertex 16
property float x
property float y
property float z
property float nx
property float ny
property float nz
element face 28
property list uchar uint vertex_indices
end_header
-2.082931 0.125381 3.113231 0.706290 0.020539 -0.707572
-2.378106 0.000280 3.113231 -0.604663 -0.513016 -0.609210
-2.378106 0.125381 3.113231 -0.706290 0.020539 -0.707572
-2.378106 0.125381 3.474596 -0.706290 0.020539 0.707572
-2.082931 0.000280 3.474596 0.604663 -0.513016 0.609210
-2.082931 0.125381 3.474596 0.706290 0.020539 0.707572
-2.082931 0.000280 3.113231 0.604663 -0.513016 -0.609210
-2.378106 0.000280 3.474596 -0.604663 -0.513016 0.609210
-2.123965 -0.014713 3.424361 0.136876 -0.984985 0.105075
-2.337073 -0.014713 3.424361 -0.136876 -0.984985 0.105075
-2.337073 -0.014713 3.163467 -0.136876 -0.984985 -0.105075
-2.123965 1.679856 3.163467 0.570574 0.592730 -0.568377
-2.337073 1.679856 3.424361 -0.570574 0.592730 0.568377
-2.123965 1.679856 3.424361 0.570574 0.592730 0.568377
-2.123965 -0.014713 3.163467 0.136876 -0.984985 -0.105075
-2.337073 1.679856 3.163467 -0.570574 0.592730 -0.568377
3 0 1 2
3 3 4 5
3 5 6 0
3 2 7 3
3 8 7 9
3 10 8 9
3 11 12 13
3 10 7 1
3 14 1 6
3 2 11 0
3 14 4 8
3 5 11 13
3 3 15 2
3 3 13 12
3 0 6 1
3 3 7 4
3 5 4 6
3 2 1 7
3 8 4 7
3 10 14 8
3 11 15 12
3 10 9 7
3 14 10 1
3 2 15 11
3 14 6 4
3 5 0 11
3 3 12 15
3 3 5 13
