ply
format ascii 1.0
comment Created by Blender 2.77 (sub 0) - www.blender.org, source file: ''
element vertex 16
property float x
property float y
property float z
property float nx
property float ny
property float nz
element face 28
property list uchar uint vertex_indices
end_header
0.540761 0.805924 -3.384424 -0.635334 0.460311 -0.619983
0.540761 0.178479 -3.296624 -0.888852 -0.201666 0.411389
0.540761 0.805924 -3.296624 -0.819483 0.429365 0.379559
0.664584 -0.015059 -3.304661 -0.379070 -0.803064 -0.459731
0.664584 -0.015059 -3.216861 -0.412244 -0.661641 0.626270
0.664584 0.867855 -3.216861 -0.294534 0.669210 0.682150
1.881333 -0.015059 -3.216861 0.419355 -0.658956 0.624409
1.881333 0.867855 -3.216861 0.303446 0.667226 0.680197
0.664584 0.867855 -3.304661 -0.165166 0.949736 -0.265847
1.881333 -0.015059 -3.304661 0.388073 -0.799402 -0.458602
1.999260 0.178479 -3.296624 0.894467 -0.192907 0.403333
1.999260 0.178479 -3.384425 0.689627 -0.274545 -0.670064
0.540761 0.178479 -3.384424 -0.689657 -0.280190 -0.667684
1.881333 0.867855 -3.304661 0.173620 0.948729 -0.264077
1.999260 0.805924 -3.384425 0.636006 0.456710 -0.621998
1.999260 0.805924 -3.296624 0.827265 0.422071 0.370708
3 0 1 2
3 1 3 4
3 5 6 7
3 8 2 5
3 9 10 6
3 11 3 12
3 8 13 14
3 15 13 7
3 4 9 6
3 14 10 11
3 14 0 8
3 5 13 8
3 0 12 1
3 1 12 3
3 5 4 6
3 8 0 2
3 9 11 10
3 11 9 3
3 15 14 13
3 4 3 9
3 14 15 10
3 5 7 13
3 14 12 0
3 6 10 15
3 6 15 7
3 2 1 4
3 2 4 5
3 14 11 12
