ply
format ascii 1.0
comment Created by Blender 2.77 (sub 0) - www.blender.org, source file: ''
element vertex 16
property float x
property float y
property float z
property float nx
property float ny
property float nz
element face 28
property list uchar uint vertex_indices
end_header
0.140155 -0.042897 -3.040338 -0.136479 -0.984832 0.107028
0.353263 -0.042897 -3.297094 0.136479 -0.984832 -0.107028
0.353262 -0.042897 -3.040338 0.136479 -0.984832 0.107028
0.099121 -0.027903 -3.346532 -0.605090 -0.512406 -0.609302
0.140155 -0.042897 -3.297094 -0.136479 -0.984832 -0.107028
0.394296 -0.027903 -3.346532 0.605090 -0.512406 -0.609302
0.099121 0.097198 -3.346532 -0.706595 0.014801 -0.707450
0.394296 0.097198 -3.346532 0.706595 0.014801 -0.707450
0.394296 -0.027903 -2.990900 0.605090 -0.512406 0.609302
0.394296 0.097198 -2.990900 0.706595 0.014801 0.707450
0.140155 2.240362 -3.040338 -0.572436 0.588397 0.571001
0.099121 0.097198 -2.990900 -0.706595 0.014801 0.707450
0.353263 2.240362 -3.297094 0.572436 0.588397 -0.571001
0.140155 2.240362 -3.297094 -0.572436 0.588397 -0.571001
0.353262 2.240362 -3.040338 0.572436 0.588397 0.571001
0.099121 -0.027903 -2.990900 -0.605090 -0.512406 0.609302
3 0 1 2
3 3 1 4
3 5 2 1
3 5 6 7
3 8 7 9
3 10 6 11
3 12 6 13
3 14 11 9
3 14 7 12
3 0 4 1
3 3 5 1
3 5 8 2
3 5 3 6
3 8 5 7
3 9 15 8
3 10 13 6
3 12 7 6
3 14 10 11
3 14 9 7
3 14 13 10
3 8 0 2
3 3 4 0
3 3 0 15
3 11 3 15
3 9 11 15
3 14 12 13
3 8 15 0
3 11 6 3
