ply
format ascii 1.0
comment Created by Blender 2.77 (sub 0) - www.blender.org, source file: ''
element vertex 16
property float x
property float y
property float z
property float nx
property float ny
property float nz
element face 28
property list uchar uint vertex_indices
end_header
-2.378106 0.125381 -0.851510 -0.706290 0.020539 0.707572
-2.082931 0.000280 -0.851510 0.604663 -0.513016 0.609210
-2.082931 0.125381 -0.851510 0.706290 0.020539 0.707572
-2.378106 0.125381 -1.212875 -0.706290 0.020539 -0.707572
-2.378106 0.000280 -0.851510 -0.604663 -0.513016 0.609210
-2.123965 -0.014713 -0.901745 0.136876 -0.984985 0.105075
-2.337073 -0.014713 -0.901745 -0.136876 -0.984985 0.105075
-2.123965 1.679856 -1.162639 0.570574 0.592730 -0.568377
-2.337073 1.679856 -0.901745 -0.570574 0.592730 0.568377
-2.123965 1.679856 -0.901745 0.570574 0.592730 0.568377
-2.123965 -0.014713 -1.162639 0.136876 -0.984985 -0.105075
-2.378106 0.000280 -1.212875 -0.604663 -0.513016 -0.609210
-2.082931 0.000280 -1.212875 0.604663 -0.513016 -0.609210
-2.082931 0.125381 -1.212875 0.706290 0.020539 -0.707572
-2.337073 1.679856 -1.162639 -0.570574 0.592730 -0.568377
-2.337073 -0.014713 -1.162639 -0.136876 -0.984985 -0.105075
3 0 1 2
3 3 4 0
3 5 4 6
3 7 8 9
3 10 11 12
3 7 13 3
3 0 9 8
3 0 4 1
3 3 11 4
3 5 1 4
3 7 14 8
3 10 15 11
3 3 14 7
3 5 15 10
3 0 2 9
3 5 10 12
3 5 12 1
3 0 14 3
3 11 15 6
3 11 6 4
3 2 12 13
3 13 11 3
3 2 7 9
3 5 6 15
3 0 8 14
3 2 1 12
3 13 12 11
3 2 13 7
