ply
format ascii 1.0
comment Created by Blender 2.77 (sub 0) - www.blender.org, source file: 'NewTrees.blend'
element vertex 15
property float x
property float y
property float z
property float nx
property float ny
property float nz
element face 26
property list uchar uint vertex_indices
end_header
0.051414 -0.037567 0.029684 0.690451 -0.603717 0.398419
0.000000 -0.037567 0.059367 0.002472 -0.606006 0.795434
-0.051414 -0.037567 0.029684 -0.684957 -0.610157 0.398144
0.000000 -0.037567 -0.059367 0.002838 -0.610614 -0.791894
0.020793 2.405235 -0.035655 0.735832 0.597217 -0.319071
0.051414 -0.037567 -0.029684 0.690298 -0.605853 -0.395428
0.015314 2.405182 0.010993 0.688833 0.568499 0.449721
-0.051414 -0.037567 -0.029684 -0.684713 -0.612629 -0.394726
-0.027075 1.740049 -0.058443 -0.354137 -0.002655 -0.935179
-0.062272 2.408760 0.004087 -0.738792 0.621418 0.260720
-0.055109 2.339933 -0.040000 -0.963439 0.004578 -0.267830
-0.060452 1.740208 -0.030507 -0.941099 -0.004303 -0.337992
-0.026272 2.410608 0.032335 -0.066347 0.642048 0.763756
-0.010997 2.405402 -0.060131 0.106296 0.599597 -0.793176
-0.054211 2.404943 -0.041845 -0.629933 0.576678 -0.520188
3 0 1 2
3 3 4 5
3 1 0 6
3 5 6 0
3 0 3 5
3 7 8 3
3 9 10 11
3 7 2 11
3 2 9 11
3 2 1 12
3 2 12 9
3 6 4 12
3 3 2 7
3 3 8 13
3 8 14 13
3 11 10 14
3 10 9 14
3 4 9 12
3 14 9 13
3 8 7 14
3 7 11 14
3 12 1 6
3 3 13 4
3 5 4 6
3 3 0 2
3 4 13 9
