ply
format ascii 1.0
comment Created by Blender 2.77 (sub 0) - www.blender.org, source file: 'NewTrees.blend'
element vertex 14
property float x
property float y
property float z
property float nx
property float ny
property float nz
element face 24
property list uchar uint vertex_indices
end_header
-0.057312 3.465826 0.024869 -0.544298 0.616535 0.568834
0.000000 -0.037475 0.068449 0.002747 -0.606464 0.795068
-0.001414 3.467236 0.036957 0.276528 0.632466 0.723533
-0.035867 3.516966 -0.068071 -0.387616 0.812952 -0.434523
-0.034869 2.328953 -0.064635 -0.497818 -0.002930 -0.867244
-0.059279 -0.037475 -0.034225 -0.685080 -0.612079 -0.394910
-0.068336 2.334313 -0.023901 -0.958312 -0.001434 -0.285684
-0.059279 -0.037475 0.034225 -0.685263 -0.610218 0.397504
0.059279 -0.037475 -0.034225 0.688650 -0.607929 -0.395154
0.000000 -0.037475 -0.068449 0.001617 -0.611164 -0.791498
0.028154 3.465084 -0.002792 0.820673 0.496628 0.282479
0.011665 3.517428 -0.059620 0.503830 0.818720 -0.275338
0.059279 -0.037475 0.034225 0.688864 -0.605090 0.399091
-0.070715 3.464740 -0.021349 -0.872280 0.488235 -0.025910
3 0 1 2
3 3 4 5
3 6 3 5
3 7 6 5
3 8 5 9
3 5 1 7
3 10 8 11
3 8 12 1
3 13 6 7
3 5 4 9
3 4 3 9
3 13 11 3
3 6 13 3
3 10 0 2
3 1 10 2
3 0 13 7
3 11 9 3
3 0 7 1
3 5 8 1
3 10 12 8
3 13 10 11
3 10 13 0
3 1 12 10
3 11 8 9
