ply
format ascii 1.0
comment Created by Blender 2.77 (sub 0) - www.blender.org, source file: ''
element vertex 14
property float x
property float y
property float z
property float nx
property float ny
property float nz
element face 24
property list uchar uint vertex_indices
end_header
-0.057312 3.465826 0.024869 -0.597858 0.439833 0.670125
0.000000 -0.037475 0.068449 0.002747 -0.606464 0.795068
-0.001414 3.467236 0.036957 0.288614 0.453749 0.843074
-0.035867 3.516966 -0.068071 -0.373852 0.752434 -0.542253
-0.034869 2.328953 -0.064635 -0.497818 -0.002930 -0.867244
-0.059279 -0.037475 -0.034225 -0.685080 -0.612079 -0.394910
-0.068336 2.334313 -0.023901 -0.958312 -0.001434 -0.285684
-0.059279 -0.037475 0.034225 -0.685263 -0.610218 0.397504
0.028154 3.465084 -0.002792 0.934294 0.266274 0.236915
0.059279 -0.037475 -0.034225 0.688650 -0.607929 -0.395154
0.011665 3.517428 -0.059620 0.528550 0.757866 -0.382397
-0.070715 3.464740 -0.021349 -0.958617 0.263833 -0.106937
0.000000 -0.037475 -0.068449 0.001617 -0.611133 -0.791498
0.059279 -0.037475 0.034225 0.688864 -0.605090 0.399091
3 0 1 2
3 3 4 5
3 6 3 5
3 7 6 5
3 8 9 10
3 11 6 7
3 5 4 12
3 4 3 12
3 6 11 3
3 0 11 7
3 10 12 3
3 0 7 1
3 8 13 9
3 0 10 3
3 10 9 12
3 13 12 9
3 8 10 2
3 1 8 2
3 3 11 0
3 7 5 12
3 7 13 1
3 0 2 10
3 13 7 12
3 1 13 8
