ply
format ascii 1.0
comment Created by Blender 2.77 (sub 0) - www.blender.org, source file: 'Plants.blend'
element vertex 22
property float x
property float y
property float z
property float nx
property float ny
property float nz
element face 40
property list uchar uint vertex_indices
end_header
-0.798594 3.156333 -0.215548 -0.970183 0.014801 -0.241890
-0.525586 3.757428 0.297985 -0.657460 0.713065 0.243416
-0.297822 3.670291 -0.620470 -0.435652 0.637745 -0.635182
-0.252064 2.865264 -0.852127 -0.413190 -0.311686 -0.855617
-0.451555 2.454868 -0.076847 -0.589038 -0.804804 -0.072573
-0.620596 3.006257 0.633959 -0.773461 -0.190222 0.604602
-0.100978 3.510259 0.803770 -0.207373 0.476760 0.854183
0.131220 3.918918 -0.102765 0.049532 0.988983 -0.139470
0.309690 3.255316 -0.858084 0.241279 0.199896 -0.949614
0.187793 2.436538 -0.418362 0.085055 -0.910886 -0.403729
-0.066014 2.594101 0.608720 -0.168340 -0.751244 0.638142
-0.003109 3.849518 0.431673 -0.085910 0.909696 0.406232
0.250698 3.691955 -0.595409 0.169042 0.749352 -0.640187
0.285663 2.775796 -0.790459 0.207495 -0.475021 -0.855129
0.053464 2.367137 0.116077 -0.049532 -0.988983 0.139470
-0.125006 3.030739 0.871395 -0.241218 -0.197974 0.950041
0.419703 3.080592 0.913416 0.392438 -0.102481 0.914029
0.567270 2.454746 0.284272 0.508255 -0.807276 0.299905
0.983278 3.129723 0.228860 0.970214 -0.014161 0.241798
0.779702 2.769313 -0.548656 0.742668 -0.424482 -0.517899
0.763430 3.589569 -0.434294 0.720756 0.550218 -0.421583
0.540939 3.781952 0.469318 0.504807 0.742302 0.440535
3 0 1 2
3 0 2 3
3 0 3 4
3 0 4 5
3 1 5 6
3 2 1 7
3 3 2 8
3 4 3 9
3 5 4 10
3 1 6 11
3 2 7 12
3 3 8 13
3 4 9 14
3 5 10 15
3 16 17 18
3 17 19 18
3 19 20 18
3 20 21 18
3 21 16 18
3 15 10 16
3 10 17 16
3 14 9 17
3 9 19 17
3 13 8 19
3 8 20 19
3 12 7 20
3 7 21 20
3 11 6 21
3 6 16 21
3 10 14 17
3 10 4 14
3 9 13 19
3 9 3 13
3 8 12 20
3 8 2 12
3 7 11 21
3 7 1 11
3 6 15 16
3 6 5 15
3 1 0 5
