ply
format ascii 1.0
comment Created by Blender 2.77 (sub 0) - www.blender.org, source file: ''
element vertex 8
property float x
property float y
property float z
property float nx
property float ny
property float nz
element face 12
property list uchar uint vertex_indices
end_header
0.899700 2.810657 -0.052325 0.577349 0.814356 0.058779
0.899700 2.062543 -0.717079 0.577349 -0.814356 -0.058779
0.899700 2.161412 -0.802632 0.577349 0.058779 -0.814356
-0.929166 2.062543 -0.717079 -0.577349 -0.814356 -0.058779
-0.929166 2.161412 -0.802632 -0.577349 0.058779 -0.814356
-0.929166 2.810657 -0.052325 -0.577349 0.814356 0.058779
0.899700 2.711787 0.033228 0.577349 -0.058779 0.814356
-0.929166 2.711787 0.033228 -0.577349 -0.058779 0.814356
3 0 1 2
3 2 3 4
3 5 2 4
3 0 6 1
3 2 1 3
3 6 3 1
3 5 0 2
3 5 6 0
3 5 3 7
3 6 7 3
3 5 7 6
3 5 4 3
