ply
format ascii 1.0
comment Created by Blender 2.77 (sub 0) - www.blender.org, source file: ''
element vertex 16
property float x
property float y
property float z
property float nx
property float ny
property float nz
element face 28
property list uchar uint vertex_indices
end_header
0.364331 0.165144 -0.929704 0.288919 0.630238 -0.720603
0.904913 -0.021419 -0.401265 0.713858 -0.630238 -0.305216
0.364331 -0.021419 -0.929704 0.288919 -0.630238 -0.720603
0.904913 0.165144 -0.401265 0.713858 0.630238 -0.305216
0.913500 -0.021419 0.354646 0.720603 -0.630238 0.288919
0.913500 0.165144 0.354646 0.720603 0.630238 0.288919
0.385061 -0.021419 0.895228 0.305216 -0.630238 0.713858
0.385061 0.165144 0.895228 0.305216 0.630238 0.713858
-0.370850 -0.021419 0.903814 -0.288919 -0.630238 0.720603
-0.370850 0.165144 0.903814 -0.288919 0.630238 0.720603
-0.391580 -0.021419 -0.921117 -0.305216 -0.630238 -0.713858
-0.911432 -0.021419 0.375376 -0.713858 -0.630238 0.305216
-0.911432 0.165144 0.375376 -0.713858 0.630238 0.305216
-0.391580 0.165144 -0.921117 -0.305216 0.630238 -0.713858
-0.920018 -0.021419 -0.380535 -0.720603 -0.630238 -0.288919
-0.920018 0.165144 -0.380535 -0.720603 0.630238 -0.288919
3 0 1 2
3 3 4 1
3 5 6 4
3 7 8 6
3 0 3 1
3 3 5 4
3 5 7 6
3 7 9 8
3 10 2 1
3 11 9 12
3 2 13 0
3 1 4 6
3 1 6 8
3 1 8 11
3 1 11 14
3 1 14 10
3 10 15 13
3 13 15 12
3 13 12 9
3 13 9 7
3 13 7 5
3 13 5 3
3 13 3 0
3 12 14 11
3 11 8 9
3 2 10 13
3 10 14 15
3 12 15 14
