ply
format ascii 1.0
comment Created by Blender 2.77 (sub 0) - www.blender.org, source file: ''
element vertex 48
property float x
property float y
property float z
property float nx
property float ny
property float nz
element face 92
property list uchar uint vertex_indices
end_header
-1.496996 4.387845 0.584288 -0.919218 0.100223 0.380749
-0.593798 5.391488 1.223677 -0.351054 0.397992 0.847530
-1.310456 5.391488 0.507020 -0.847530 0.397992 0.351054
0.496976 4.387845 -1.409685 0.380749 0.100223 -0.919218
1.136365 5.391488 -0.506487 0.847530 0.397992 -0.351054
1.322906 4.387845 -0.583755 0.919218 0.100223 -0.380749
0.496976 4.387845 1.410218 0.380749 0.100223 0.919218
1.136366 5.391488 0.507020 0.847530 0.397992 0.351054
0.419708 5.391488 1.223677 0.351054 0.397992 0.847530
-0.671066 4.387845 -1.409685 -0.380749 0.100223 -0.919218
0.419708 5.391488 -1.223144 0.351054 0.397992 -0.847530
0.230604 6.091938 -0.131308 0.005005 0.999969 -0.002075
-0.404694 6.091938 -0.131308 -0.005005 0.999969 -0.002075
-0.404694 6.091938 0.131841 -0.005005 0.999969 0.002075
0.786820 5.874951 0.362233 0.594867 0.765099 0.246406
0.274922 5.874951 0.874131 0.246406 0.765099 0.594867
-0.593798 5.391488 -1.223144 -0.351054 0.397992 -0.847530
-0.960910 5.874951 -0.361700 -0.594867 0.765099 -0.246406
-0.449012 5.874951 -0.873598 -0.246406 0.765099 -0.594867
-0.449012 5.874951 0.874132 -0.246406 0.765099 0.594867
0.078697 6.091161 0.400402 0.094852 0.968780 0.229011
-0.252787 6.091161 0.400402 -0.094852 0.968780 0.229011
-0.487181 6.091161 0.166008 -0.229011 0.968780 0.094852
-0.487181 6.091161 -0.165475 -0.229011 0.968780 -0.094852
0.078697 6.091161 -0.399869 0.094852 0.968780 -0.229011
0.274922 5.874951 -0.873598 0.246406 0.765099 -0.594867
0.786820 5.874951 -0.361700 0.594867 0.765099 -0.246406
0.313091 6.091161 0.166008 0.229011 0.968780 0.094852
-0.960910 5.874951 0.362233 -0.594867 0.765099 0.246406
0.313091 6.091161 -0.165475 0.229011 0.968780 -0.094852
0.044530 6.091938 -0.317383 0.002075 0.999969 -0.005005
-0.252787 6.091161 -0.399869 -0.094852 0.968780 -0.229011
-0.218620 6.091938 -0.317383 -0.002075 0.999969 -0.005005
-0.218620 6.091938 0.317915 -0.002075 0.999969 0.005005
0.230604 6.091938 0.131841 0.005005 0.999969 0.002075
0.044529 6.091938 0.317915 0.002075 0.999969 0.005005
0.508254 0.126920 1.437445 0.297891 -0.627644 0.719199
1.322906 4.387845 0.584287 0.919218 0.100223 0.380749
0.508254 0.126920 -1.436911 0.297891 -0.627644 -0.719199
1.350133 0.126920 -0.595032 0.719199 -0.627644 -0.297891
-0.682344 0.126920 1.437445 -0.297891 -0.627644 0.719199
-0.671066 4.387845 1.410218 -0.380749 0.100223 0.919218
1.350133 0.126920 0.595565 0.719199 -0.627644 0.297891
-1.310456 5.391488 -0.506487 -0.847530 0.397992 -0.351054
-1.496997 4.387845 -0.583755 -0.919218 0.100223 -0.380749
-1.524223 0.126920 -0.595032 -0.719199 -0.627644 -0.297891
-1.524223 0.126920 0.595565 -0.719199 -0.627644 0.297891
-0.682344 0.126920 -1.436911 -0.297891 -0.627644 -0.719199
3 0 1 2
3 3 4 5
3 6 7 8
3 9 10 3
3 11 12 13
3 8 14 15
3 4 14 7
3 16 17 18
3 19 20 21
3 17 22 23
3 18 24 25
3 26 27 14
3 28 21 22
3 25 29 26
3 15 27 20
3 30 31 32
3 33 22 21
3 34 20 27
3 35 21 20
3 36 37 6
3 38 5 39
3 40 6 41
3 42 36 40
3 0 41 1
3 3 10 4
3 6 37 7
3 9 16 10
3 35 34 11
3 11 30 32
3 32 12 11
3 8 7 14
3 4 26 14
3 16 43 17
3 19 15 20
3 17 28 22
3 18 31 24
3 26 29 27
3 28 19 21
3 25 24 29
3 15 14 27
3 30 24 31
3 33 13 22
3 34 35 20
3 35 33 21
3 36 42 37
3 38 3 5
3 37 39 5
3 40 36 6
3 11 24 30
3 0 43 44
3 37 4 7
3 9 43 16
3 22 12 23
3 27 11 34
3 25 16 18
3 31 12 32
3 11 13 33
3 11 33 35
3 2 17 43
3 45 0 44
3 18 23 31
3 2 19 28
3 6 1 41
3 0 40 41
3 8 19 1
3 40 46 45
3 40 45 47
3 40 47 38
3 40 38 39
3 40 39 42
3 4 25 26
3 47 44 9
3 38 9 3
3 37 42 39
3 11 29 24
3 0 2 43
3 37 5 4
3 9 44 43
3 22 13 12
3 27 29 11
3 25 10 16
3 31 23 12
3 2 28 17
3 45 46 0
3 18 17 23
3 2 1 19
3 6 8 1
3 0 46 40
3 8 15 19
3 4 10 25
3 47 45 44
3 38 47 9
