ply
format ascii 1.0
comment Created by Blender 2.77 (sub 0) - www.blender.org, source file: 'Windmill.blend'
element vertex 48
property float x
property float y
property float z
property float nx
property float ny
property float nz
element face 92
property list uchar uint vertex_indices
end_header
-1.524223 0.126920 -0.595032 -0.719199 -0.627644 -0.297891
0.508254 0.126920 -1.436911 0.297891 -0.627644 -0.719199
1.350133 0.126920 0.595565 0.719199 -0.627644 0.297891
-1.496996 4.387845 0.584288 -0.919218 0.100223 0.380749
-0.593798 5.391488 1.223677 -0.351054 0.397992 0.847530
-1.310456 5.391488 0.507020 -0.847530 0.397992 0.351054
-1.496997 4.387845 -0.583755 -0.919218 0.100223 -0.380749
-0.593798 5.391488 -1.223144 -0.351054 0.397992 -0.847530
-0.671066 4.387845 -1.409685 -0.380749 0.100223 -0.919218
0.496976 4.387845 -1.409685 0.380749 0.100223 -0.919218
1.136365 5.391488 -0.506487 0.847530 0.397992 -0.351054
1.322906 4.387845 -0.583755 0.919218 0.100223 -0.380749
0.496976 4.387845 1.410218 0.380749 0.100223 0.919218
1.136366 5.391488 0.507020 0.847530 0.397992 0.351054
0.419708 5.391488 1.223677 0.351054 0.397992 0.847530
-0.671066 4.387845 1.410218 -0.380749 0.100223 0.919218
-1.310456 5.391488 -0.506487 -0.847530 0.397992 -0.351054
0.419708 5.391488 -1.223144 0.351054 0.397992 -0.847530
1.322906 4.387845 0.584287 0.919218 0.100223 0.380749
0.230604 6.091938 -0.131308 0.005005 0.999969 -0.002075
-0.404694 6.091938 -0.131308 -0.005005 0.999969 -0.002075
-0.404694 6.091938 0.131841 -0.005005 0.999969 0.002075
0.274922 5.874951 -0.873598 0.246406 0.765099 -0.594867
0.786820 5.874951 -0.361700 0.594867 0.765099 -0.246406
0.786820 5.874951 0.362233 0.594867 0.765099 0.246406
0.274922 5.874951 0.874131 0.246406 0.765099 0.594867
-0.449012 5.874951 0.874132 -0.246406 0.765099 0.594867
-0.960910 5.874951 -0.361700 -0.594867 0.765099 -0.246406
-0.449012 5.874951 -0.873598 -0.246406 0.765099 -0.594867
-0.960910 5.874951 0.362233 -0.594867 0.765099 0.246406
0.078697 6.091161 0.400402 0.094852 0.968780 0.229011
-0.252787 6.091161 0.400402 -0.094852 0.968780 0.229011
-0.487181 6.091161 0.166008 -0.229011 0.968780 0.094852
-0.487181 6.091161 -0.165475 -0.229011 0.968780 -0.094852
0.078697 6.091161 -0.399869 0.094852 0.968780 -0.229011
0.313091 6.091161 0.166008 0.229011 0.968780 0.094852
-0.252787 6.091161 -0.399869 -0.094852 0.968780 -0.229011
0.313091 6.091161 -0.165475 0.229011 0.968780 -0.094852
0.044530 6.091938 -0.317383 0.002075 0.999969 -0.005005
-0.218620 6.091938 -0.317383 -0.002075 0.999969 -0.005005
-0.218620 6.091938 0.317915 -0.002075 0.999969 0.005005
0.230604 6.091938 0.131841 0.005005 0.999969 0.002075
0.044529 6.091938 0.317915 0.002075 0.999969 0.005005
0.508254 0.126920 1.437445 0.297891 -0.627644 0.719199
-1.524223 0.126920 0.595565 -0.719199 -0.627644 0.297891
1.350133 0.126920 -0.595032 0.719199 -0.627644 -0.297891
-0.682344 0.126920 -1.436911 -0.297891 -0.627644 -0.719199
-0.682344 0.126920 1.437445 -0.297891 -0.627644 0.719199
3 0 1 2
3 3 4 5
3 6 7 8
3 9 10 11
3 12 13 14
3 12 4 15
3 3 16 6
3 8 17 9
3 18 10 13
3 19 20 21
3 10 22 23
3 14 24 25
3 14 26 4
3 5 27 16
3 17 28 22
3 10 24 13
3 4 29 5
3 7 27 28
3 26 30 31
3 27 32 33
3 28 34 22
3 23 35 24
3 29 31 32
3 27 36 28
3 22 37 23
3 25 35 30
3 38 36 39
3 39 33 20
3 20 32 21
3 40 32 31
3 38 37 34
3 19 35 37
3 41 30 35
3 42 31 30
3 43 18 12
3 44 15 3
3 1 11 45
3 44 6 0
3 2 11 18
3 1 8 9
3 0 8 46
3 47 12 15
3 2 43 47
3 47 44 2
3 0 46 1
3 1 45 2
3 2 44 0
3 3 15 4
3 6 16 7
3 9 17 10
3 12 18 13
3 12 14 4
3 3 5 16
3 8 7 17
3 18 11 10
3 21 40 42
3 42 41 19
3 19 38 39
3 39 20 19
3 21 42 19
3 10 17 22
3 14 13 24
3 14 25 26
3 5 29 27
3 17 7 28
3 10 23 24
3 4 26 29
3 7 16 27
3 26 25 30
3 27 29 32
3 28 36 34
3 23 37 35
3 29 26 31
3 27 33 36
3 22 34 37
3 25 24 35
3 38 34 36
3 39 36 33
3 20 33 32
3 40 21 32
3 38 19 37
3 19 41 35
3 41 42 30
3 42 40 31
3 43 2 18
3 44 47 15
3 1 9 11
3 44 3 6
3 2 45 11
3 1 46 8
3 0 6 8
3 47 43 12
