ply
format ascii 1.0
comment Created by Blender 2.77 (sub 0) - www.blender.org, source file: 'Windmill.blend'
element vertex 15
property float x
property float y
property float z
property float nx
property float ny
property float nz
element face 26
property list uchar uint vertex_indices
end_header
1.837336 4.618809 0.062245 0.638142 -0.720817 0.270394
1.744363 4.618809 -0.082228 -0.577349 -0.577349 -0.577349
1.837336 4.618809 -0.082228 0.577349 -0.577349 -0.577349
1.744364 7.366721 0.062245 -0.705374 0.708426 0.023530
1.837336 7.366721 -0.082228 0.577349 0.577349 -0.577349
1.744364 7.366721 -0.082228 -0.577349 0.577349 -0.577349
1.759531 6.819407 0.633385 -0.697653 0.000000 0.716422
1.822169 7.343449 0.633385 0.570971 0.565661 0.594958
1.759532 7.343449 0.633385 -0.570971 0.565661 0.594958
1.837336 7.366721 0.062245 0.705374 0.708426 0.023530
1.744363 4.618809 0.062245 -0.638142 -0.720817 0.270394
1.822168 5.107647 0.633385 0.614124 -0.325877 0.718741
1.822168 6.819406 0.633385 0.697653 0.000000 0.716422
1.837336 6.510841 0.062245 0.999908 0.000000 0.013245
1.759531 5.107647 0.633385 -0.614124 -0.325877 0.718741
3 0 1 2
3 3 4 5
3 1 4 2
3 6 7 8
3 8 9 3
3 10 5 1
3 6 11 12
3 8 3 10
3 8 10 6
3 13 9 7
3 2 13 0
3 10 14 6
3 10 11 14
3 11 0 12
3 0 13 7
3 0 7 12
3 13 4 9
3 2 4 13
3 0 10 1
3 3 9 4
3 1 5 4
3 6 12 7
3 8 7 9
3 10 3 5
3 6 14 11
3 10 0 11
