ply
format ascii 1.0
comment Created by Blender 2.77 (sub 0) - www.blender.org, source file: ''
element vertex 18
property float x
property float y
property float z
property float nx
property float ny
property float nz
element face 32
property list uchar uint vertex_indices
end_header
1.761099 4.550146 -0.249411 0.575152 -0.409009 -0.708426
1.770699 4.785278 -0.177953 0.997009 0.038514 -0.066713
1.770699 4.591402 -0.177953 0.997009 -0.038514 -0.066713
1.761099 4.550146 0.229309 0.575152 -0.409009 0.708426
1.770699 4.785278 0.157851 0.997009 0.038514 0.066713
1.761099 4.826534 0.229309 0.575152 0.409009 0.708426
1.761099 4.411951 -0.010051 0.575152 -0.818018 0.000000
1.770699 4.494464 -0.010051 0.997009 -0.077029 0.000000
1.761099 4.826534 -0.249411 0.575152 0.409009 -0.708426
1.770699 4.882216 -0.010051 0.997009 0.077029 0.000000
1.770699 4.591402 0.157851 0.997009 -0.038514 0.066713
1.761099 4.964729 -0.010051 0.575152 0.818018 0.000000
1.208322 4.964729 -0.010051 -0.609973 0.792383 0.000000
1.208322 4.550146 0.229309 -0.609973 -0.396191 0.686239
1.208322 4.826534 -0.249411 -0.609973 0.396191 -0.686239
1.208322 4.411951 -0.010051 -0.609973 -0.792383 0.000000
1.208322 4.550146 -0.249411 -0.609973 -0.396191 -0.686239
1.208322 4.826534 0.229309 -0.609973 0.396191 0.686239
3 0 1 2
3 3 4 5
3 6 2 7
3 8 9 1
3 6 10 3
3 5 9 11
3 8 12 11
3 13 6 3
3 0 8 1
3 3 10 4
3 6 0 2
3 8 11 9
3 6 7 10
3 1 9 4
3 4 10 7
3 5 4 9
3 8 14 12
3 13 15 6
3 8 16 14
3 1 7 2
3 0 15 16
3 14 16 15
3 14 17 12
3 11 17 5
3 17 15 13
3 5 13 3
3 8 0 16
3 1 4 7
3 0 6 15
3 11 12 17
3 17 14 15
3 5 17 13
