ply
format ascii 1.0
comment Created by Blender 2.77 (sub 0) - www.blender.org, source file: ''
element vertex 258
property float x
property float y
property float z
property float nx
property float ny
property float nz
property uchar red
property uchar green
property uchar blue
element face 86
property list uchar uint vertex_indices
end_header
0.417717 0.780463 0.388395 0.159248 0.332782 0.929460 51 51 51
-0.036784 2.016651 0.023664 0.159248 0.332782 0.929460 51 51 51
0.227415 0.832771 0.402272 0.159248 0.332782 0.929460 51 51 51
0.227415 0.832771 0.402272 0.811496 0.334361 0.479246 51 51 51
-0.036784 2.016651 0.023664 0.811496 0.334361 0.479246 51 51 51
0.147560 0.820537 0.546024 0.811496 0.334361 0.479246 51 51 51
0.147560 0.820537 0.546024 -0.196244 0.366875 0.909336 51 51 51
-0.036784 2.016651 0.023664 -0.196244 0.366875 0.909336 51 51 51
-0.107237 0.754870 0.517530 -0.196244 0.366875 0.909336 51 51 51
-0.107237 0.754870 0.517530 -0.252727 0.364852 0.896109 51 51 51
-0.036784 2.016651 0.023664 -0.252727 0.364852 0.896109 51 51 51
-0.420094 0.791775 0.414269 -0.252727 0.364852 0.896109 51 51 51
-0.420094 0.791775 0.414269 -0.914174 0.350818 0.203008 51 51 51
-0.036784 2.016651 0.023664 -0.914174 0.350818 0.203008 51 51 51
-0.437302 0.880443 0.183554 -0.914174 0.350818 0.203008 51 51 51
-0.437302 0.880443 0.183554 -0.767738 0.346481 0.539007 51 51 51
-0.036784 2.016651 0.023664 -0.767738 0.346481 0.539007 51 51 51
-0.576564 0.882301 -0.015999 -0.767738 0.346481 0.539007 51 51 51
-0.576564 0.882301 -0.015999 -0.728203 0.366760 -0.578971 51 51 51
-0.036784 2.016651 0.023664 -0.728203 0.366760 -0.578971 51 51 51
-0.448130 0.825951 -0.213234 -0.728203 0.366760 -0.578971 51 51 51
-0.448130 0.825951 -0.213234 -0.907112 0.357553 -0.222045 51 51 51
-0.036784 2.016651 0.023664 -0.907112 0.357553 -0.222045 51 51 51
-0.383979 0.836666 -0.458053 -0.907112 0.357553 -0.222045 51 51 51
-0.383979 0.836666 -0.458053 -0.203941 0.420853 -0.883907 51 51 51
-0.036784 2.016651 0.023664 -0.203941 0.420853 -0.883907 51 51 51
-0.127160 0.877746 -0.497748 -0.203941 0.420853 -0.883907 51 51 51
0.088059 0.890002 -0.518796 0.302492 0.440495 -0.845259 51 51 51
-0.036784 2.016651 0.023664 0.302492 0.440495 -0.845259 51 51 51
0.402682 0.833578 -0.435606 0.302492 0.440495 -0.845259 51 51 51
0.402682 0.833578 -0.435606 0.833977 0.439377 -0.333813 51 51 51
-0.036784 2.016651 0.023664 0.833977 0.439377 -0.333813 51 51 51
0.481552 0.932672 -0.108132 0.833977 0.439377 -0.333813 51 51 51
0.481552 0.932672 -0.108132 0.902762 0.420899 0.088686 51 51 51
-0.036784 2.016651 0.023664 0.902762 0.420899 0.088686 51 51 51
0.518555 0.803113 0.130080 0.902762 0.420899 0.088686 51 51 51
0.518555 0.803113 0.130080 0.835107 0.413931 0.362294 51 51 51
-0.036784 2.016651 0.023664 0.835107 0.413931 0.362294 51 51 51
0.417717 0.780463 0.388395 0.835107 0.413931 0.362294 51 51 51
-0.011642 0.937695 0.013663 0.001588 -0.940128 -0.340819 51 51 51
-0.107237 0.754870 0.517530 0.001588 -0.940128 -0.340819 51 51 51
-0.420094 0.791775 0.414269 0.001588 -0.940128 -0.340819 51 51 51
-0.127160 0.877746 -0.497748 -0.112001 0.420983 -0.900127 51 51 51
-0.036784 2.016651 0.023664 -0.112001 0.420983 -0.900127 51 51 51
0.088059 0.890002 -0.518796 -0.112001 0.420983 -0.900127 51 51 51
0.147560 0.820537 0.546024 0.268922 -0.920639 -0.283028 51 51 51
-0.107237 0.754870 0.517530 0.268922 -0.920639 -0.283028 51 51 51
-0.011642 0.937695 0.013663 0.268922 -0.920639 -0.283028 51 51 51
-0.011642 0.937695 0.013663 0.101436 -0.991619 -0.080021 51 51 51
-0.437302 0.880443 0.183554 0.101436 -0.991619 -0.080021 51 51 51
-0.576564 0.882301 -0.015999 0.101436 -0.991619 -0.080021 51 51 51
-0.437302 0.880443 0.183554 -0.017126 -0.933730 -0.357569 51 51 51
-0.011642 0.937695 0.013663 -0.017126 -0.933730 -0.357569 51 51 51
-0.420094 0.791775 0.414269 -0.017126 -0.933730 -0.357569 51 51 51
0.227415 0.832771 0.402272 -0.153780 -0.973668 -0.168290 51 51 51
0.147560 0.820537 0.546024 -0.153780 -0.973668 -0.168290 51 51 51
-0.011642 0.937695 0.013663 -0.153780 -0.973668 -0.168290 51 51 51
0.417717 0.780463 0.388395 -0.270170 -0.958353 -0.092556 51 51 51
0.227415 0.832771 0.402272 -0.270170 -0.958353 -0.092556 51 51 51
-0.011642 0.937695 0.013663 -0.270170 -0.958353 -0.092556 51 51 51
0.518555 0.803113 0.130080 -0.208264 -0.963914 -0.165820 51 51 51
0.417717 0.780463 0.388395 -0.208264 -0.963914 -0.165820 51 51 51
-0.011642 0.937695 0.013663 -0.208264 -0.963914 -0.165820 51 51 51
0.481552 0.932672 -0.108132 -0.122422 -0.879727 -0.459449 51 51 51
0.518555 0.803113 0.130080 -0.122422 -0.879727 -0.459449 51 51 51
-0.011642 0.937695 0.013663 -0.122422 -0.879727 -0.459449 51 51 51
0.402682 0.833578 -0.435606 0.058442 -0.959317 0.276217 51 51 51
0.481552 0.932672 -0.108132 0.058442 -0.959317 0.276217 51 51 51
-0.011642 0.937695 0.013663 0.058442 -0.959317 0.276217 51 51 51
0.088059 0.890002 -0.518796 0.066435 -0.992630 0.101352 51 51 51
-0.011642 0.937695 0.013663 0.066435 -0.992630 0.101352 51 51 51
-0.127160 0.877746 -0.497748 0.066435 -0.992630 0.101352 51 51 51
-0.383979 0.836666 -0.458053 0.238226 -0.971005 0.019927 51 51 51
-0.011642 0.937695 0.013663 0.238226 -0.971005 0.019927 51 51 51
-0.448130 0.825951 -0.213234 0.238226 -0.971005 0.019927 51 51 51
-0.448130 0.825951 -0.213234 0.075862 -0.944620 0.319276 51 51 51
-0.011642 0.937695 0.013663 0.075862 -0.944620 0.319276 51 51 51
-0.576564 0.882301 -0.015999 0.075862 -0.944620 0.319276 51 51 51
0.211991 1.244977 0.357954 0.361770 0.301320 0.882229 51 51 51
-0.037068 2.297196 0.100705 0.361770 0.301320 0.882229 51 51 51
-0.114354 1.345747 0.457359 0.361770 0.301320 0.882229 51 51 51
-0.114354 1.345747 0.457359 -0.466587 0.343435 0.815076 51 51 51
-0.037068 2.297196 0.100705 -0.466587 0.343435 0.815076 51 51 51
-0.337830 1.348468 0.328285 -0.466587 0.343435 0.815076 51 51 51
-0.337830 1.348468 0.328285 -0.410980 0.333786 0.848341 51 51 51
-0.037068 2.297196 0.100705 -0.410980 0.333786 0.848341 51 51 51
-0.481040 1.389732 0.242671 -0.410980 0.333786 0.848341 51 51 51
-0.481040 1.389732 0.242671 -0.899657 0.423629 -0.105623 51 51 51
-0.037068 2.297196 0.100705 -0.899657 0.423629 -0.105623 51 51 51
-0.436877 1.431049 0.032215 -0.899657 0.423629 -0.105623 51 51 51
-0.436877 1.431049 0.032215 -0.896478 0.398491 0.193732 51 51 51
-0.037068 2.297196 0.100705 -0.896478 0.398491 0.193732 51 51 51
-0.481057 1.414471 -0.138122 -0.896478 0.398491 0.193732 51 51 51
-0.481057 1.414471 -0.138122 -0.441052 0.434329 -0.785386 51 51 51
-0.037068 2.297196 0.100705 -0.441052 0.434329 -0.785386 51 51 51
-0.316100 1.385716 -0.246659 -0.441052 0.434329 -0.785386 51 51 51
-0.316100 1.385716 -0.246659 -0.771882 0.418642 -0.478473 51 51 51
-0.037068 2.297196 0.100705 -0.771882 0.418642 -0.478473 51 51 51
-0.218386 1.393263 -0.397690 -0.771882 0.418642 -0.478473 51 51 51
-0.218386 1.393263 -0.397690 0.139810 0.456439 -0.878702 51 51 51
-0.037068 2.297196 0.100705 0.139810 0.456439 -0.878702 51 51 51
0.022357 1.368592 -0.372201 0.139810 0.456439 -0.878702 51 51 51
0.193495 1.327296 -0.269895 0.482236 0.410374 -0.773977 51 51 51
-0.037068 2.297196 0.100705 0.482236 0.410374 -0.773977 51 51 51
0.363038 1.350326 -0.152049 0.482236 0.410374 -0.773977 51 51 51
0.363038 1.350326 -0.152049 0.922970 0.384272 0.021485 51 51 51
-0.037068 2.297196 0.100705 0.922970 0.384272 0.021485 51 51 51
0.324970 1.427011 0.111724 0.922970 0.384272 0.021485 51 51 51
0.324970 1.427011 0.111724 0.749555 0.319194 0.579899 51 51 51
-0.037068 2.297196 0.100705 0.749555 0.319194 0.579899 51 51 51
0.211991 1.244977 0.357954 0.749555 0.319194 0.579899 51 51 51
-0.018442 1.419888 0.090164 -0.056352 -0.933006 -0.355421 51 51 51
-0.337830 1.348468 0.328285 -0.056352 -0.933006 -0.355421 51 51 51
-0.481040 1.389732 0.242671 -0.056352 -0.933006 -0.355421 51 51 51
0.022357 1.368592 -0.372201 0.538886 0.409406 -0.736199 51 51 51
-0.037068 2.297196 0.100705 0.538886 0.409406 -0.736199 51 51 51
0.193495 1.327296 -0.269895 0.538886 0.409406 -0.736199 51 51 51
-0.114354 1.345747 0.457359 0.088988 -0.980584 -0.174748 51 51 51
-0.337830 1.348468 0.328285 0.088988 -0.980584 -0.174748 51 51 51
-0.018442 1.419888 0.090164 0.088988 -0.980584 -0.174748 51 51 51
-0.018442 1.419888 0.090164 -0.041371 -0.993354 0.107411 51 51 51
-0.436877 1.431049 0.032215 -0.041371 -0.993354 0.107411 51 51 51
-0.481057 1.414471 -0.138122 -0.041371 -0.993354 0.107411 51 51 51
-0.436877 1.431049 0.032215 0.000491 -0.981288 -0.192544 51 51 51
-0.018442 1.419888 0.090164 0.000491 -0.981288 -0.192544 51 51 51
-0.481040 1.389732 0.242671 0.000491 -0.981288 -0.192544 51 51 51
0.211991 1.244977 0.357954 -0.358948 -0.892259 -0.273916 51 51 51
-0.114354 1.345747 0.457359 -0.358948 -0.892259 -0.273916 51 51 51
-0.018442 1.419888 0.090164 -0.358948 -0.892259 -0.273916 51 51 51
0.324970 1.427011 0.111724 0.053166 -0.814487 -0.577741 51 51 51
0.211991 1.244977 0.357954 0.053166 -0.814487 -0.577741 51 51 51
-0.018442 1.419888 0.090164 0.053166 -0.814487 -0.577741 51 51 51
0.363038 1.350326 -0.152049 0.002369 -0.960149 0.279480 51 51 51
0.324970 1.427011 0.111724 0.002369 -0.960149 0.279480 51 51 51
-0.018442 1.419888 0.090164 0.002369 -0.960149 0.279480 51 51 51
0.193495 1.327296 -0.269895 -0.279545 -0.956670 0.081469 51 51 51
-0.018442 1.419888 0.090164 -0.279545 -0.956670 0.081469 51 51 51
0.022357 1.368592 -0.372201 -0.279545 -0.956670 0.081469 51 51 51
-0.218386 1.393263 -0.397690 0.098435 -0.995046 0.013962 51 51 51
-0.018442 1.419888 0.090164 0.098435 -0.995046 0.013962 51 51 51
-0.316100 1.385716 -0.246659 0.098435 -0.995046 0.013962 51 51 51
-0.316100 1.385716 -0.246659 -0.066993 -0.984982 0.159133 51 51 51
-0.018442 1.419888 0.090164 -0.066993 -0.984982 0.159133 51 51 51
-0.481057 1.414471 -0.138122 -0.066993 -0.984982 0.159133 51 51 51
-0.349639 1.815850 -0.071662 -0.681965 0.490206 -0.542790 51 51 51
0.000707 2.499989 0.106023 -0.681965 0.490206 -0.542790 51 51 51
-0.210321 1.902212 -0.168706 -0.681965 0.490206 -0.542790 51 51 51
-0.210321 1.902212 -0.168706 -0.235024 0.473174 -0.849041 51 51 51
0.000707 2.499989 0.106023 -0.235024 0.473174 -0.849041 51 51 51
-0.072449 1.873091 -0.223100 -0.235024 0.473174 -0.849041 51 51 51
-0.072449 1.873091 -0.223100 0.120607 0.450373 -0.884657 51 51 51
0.000707 2.499989 0.106023 0.120607 0.450373 -0.884657 51 51 51
0.114730 1.911513 -0.178021 0.120607 0.450373 -0.884657 51 51 51
0.114730 1.911513 -0.178021 0.724564 0.408371 -0.555194 51 51 51
0.000707 2.499989 0.106023 0.724564 0.408371 -0.555194 51 51 51
0.250547 1.914746 0.001607 0.724564 0.408371 -0.555194 51 51 51
0.250547 1.914746 0.001607 0.882219 0.314027 0.350822 51 51 51
0.000707 2.499989 0.106023 0.882219 0.314027 0.350822 51 51 51
0.207344 1.879644 0.141671 0.882219 0.314027 0.350822 51 51 51
0.207344 1.879644 0.141671 0.947611 0.311615 -0.070204 51 51 51
0.000707 2.499989 0.106023 0.947611 0.311615 -0.070204 51 51 51
0.206804 1.908547 0.262676 0.947611 0.311615 -0.070204 51 51 51
0.206804 1.908547 0.262676 0.433341 0.368807 0.822312 51 51 51
0.000707 2.499989 0.106023 0.433341 0.368807 0.822312 51 51 51
0.056339 1.930759 0.332006 0.433341 0.368807 0.822312 51 51 51
-0.084532 1.901570 0.359601 0.075120 0.379970 0.921943 51 51 51
0.000707 2.499989 0.106023 0.075120 0.379970 0.921943 51 51 51
-0.226113 1.935662 0.357086 0.075120 0.379970 0.921943 51 51 51
-0.226113 1.935662 0.357086 -0.719610 0.502455 0.479271 51 51 51
0.000707 2.499989 0.106023 -0.719610 0.502455 0.479271 51 51 51
-0.304035 1.986014 0.187301 -0.719610 0.502455 0.479271 51 51 51
-0.304035 1.986014 0.187301 -0.857214 0.513775 0.034920 51 51 51
0.000707 2.499989 0.106023 -0.857214 0.513775 0.034920 51 51 51
-0.356192 1.907419 0.063308 -0.857214 0.513775 0.034920 51 51 51
-0.356192 1.907419 0.063308 -0.781645 0.497861 -0.375720 51 51 51
0.000707 2.499989 0.106023 -0.781645 0.497861 -0.375720 51 51 51
-0.349639 1.815850 -0.071662 -0.781645 0.497861 -0.375720 51 51 51
-0.101754 1.945024 0.057344 0.133878 -0.956467 0.259320 51 51 51
-0.072449 1.873091 -0.223100 0.133878 -0.956467 0.259320 51 51 51
0.114730 1.911513 -0.178021 0.133878 -0.956467 0.259320 51 51 51
0.056339 1.930759 0.332006 0.102581 0.375682 0.921054 51 51 51
0.000707 2.499989 0.106023 0.102581 0.375682 0.921054 51 51 51
-0.084532 1.901570 0.359601 0.102581 0.375682 0.921054 51 51 51
-0.210321 1.902212 -0.168706 -0.110781 -0.965406 0.236047 51 51 51
-0.072449 1.873091 -0.223100 -0.110781 -0.965406 0.236047 51 51 51
-0.101754 1.945024 0.057344 -0.110781 -0.965406 0.236047 51 51 51
-0.101754 1.945024 0.057344 -0.073814 -0.994544 0.073711 51 51 51
0.114730 1.911513 -0.178021 -0.073814 -0.994544 0.073711 51 51 51
0.250547 1.914746 0.001607 -0.073814 -0.994544 0.073711 51 51 51
-0.349639 1.815850 -0.071662 0.489600 -0.869089 -0.070546 51 51 51
-0.210321 1.902212 -0.168706 0.489600 -0.869089 -0.070546 51 51 51
-0.101754 1.945024 0.057344 0.489600 -0.869089 -0.070546 51 51 51
-0.356192 1.907419 0.063308 0.133900 -0.817041 0.560816 51 51 51
-0.349639 1.815850 -0.071662 0.133900 -0.817041 0.560816 51 51 51
-0.101754 1.945024 0.057344 0.133900 -0.817041 0.560816 51 51 51
-0.304035 1.986014 0.187301 0.138806 -0.861806 0.487877 51 51 51
-0.356192 1.907419 0.063308 0.138806 -0.861806 0.487877 51 51 51
-0.101754 1.945024 0.057344 0.138806 -0.861806 0.487877 51 51 51
-0.226113 1.935662 0.357086 -0.287306 -0.946218 -0.148752 51 51 51
-0.304035 1.986014 0.187301 -0.287306 -0.946218 -0.148752 51 51 51
-0.101754 1.945024 0.057344 -0.287306 -0.946218 -0.148752 51 51 51
-0.084532 1.901570 0.359601 0.172384 -0.973575 -0.149787 51 51 51
-0.101754 1.945024 0.057344 0.172384 -0.973575 -0.149787 51 51 51
0.056339 1.930759 0.332006 0.172384 -0.973575 -0.149787 51 51 51
0.206804 1.908547 0.262676 -0.259640 -0.939544 0.223260 51 51 51
-0.101754 1.945024 0.057344 -0.259640 -0.939544 0.223260 51 51 51
0.207344 1.879644 0.141671 -0.259640 -0.939544 0.223260 51 51 51
0.207344 1.879644 0.141671 -0.125760 -0.952462 -0.277489 51 51 51
-0.101754 1.945024 0.057344 -0.125760 -0.952462 -0.277489 51 51 51
0.250547 1.914746 0.001607 -0.125760 -0.952462 -0.277489 51 51 51
-0.036799 -0.056744 -0.049761 -0.308811 0.010217 -0.951069 0 0 0
-0.044962 0.979693 -0.035976 -0.308811 0.010217 -0.951069 0 0 0
0.041267 0.346524 -0.070777 -0.308811 0.010217 -0.951069 0 0 0
0.054578 -0.056488 0.020064 0.993010 0.006231 -0.117863 0 0 0
0.041267 0.346524 -0.070777 0.993010 0.006231 -0.117863 0 0 0
0.048026 0.979679 0.019639 0.993010 0.006231 -0.117863 0 0 0
0.005136 -0.056859 0.045547 -0.424666 -0.029319 0.904875 0 0 0
-0.037346 0.980109 0.059209 -0.424666 -0.029319 0.904875 0 0 0
-0.042831 -0.056676 0.023041 -0.424666 -0.029319 0.904875 0 0 0
0.005136 -0.056859 0.045547 0.420541 0.005275 0.907258 0 0 0
0.048026 0.979679 0.019639 0.420541 0.005275 0.907258 0 0 0
-0.037346 0.980109 0.059209 0.420541 0.005275 0.907258 0 0 0
-0.037346 0.980109 0.059209 -0.996772 -0.008912 0.079794 0 0 0
-0.044962 0.979693 -0.035976 -0.996772 -0.008912 0.079794 0 0 0
-0.036799 -0.056744 -0.049761 -0.996772 -0.008912 0.079794 0 0 0
0.402682 0.833578 -0.435606 -0.189664 -0.980455 0.052308 51 51 51
-0.011642 0.937695 0.013663 -0.189664 -0.980455 0.052308 51 51 51
0.088059 0.890002 -0.518796 -0.189664 -0.980455 0.052308 51 51 51
-0.127160 0.877746 -0.497748 0.169076 -0.982591 0.076990 51 51 51
-0.011642 0.937695 0.013663 0.169076 -0.982591 0.076990 51 51 51
-0.383979 0.836666 -0.458053 0.169076 -0.982591 0.076990 51 51 51
0.363038 1.350326 -0.152049 -0.029604 -0.972130 0.232564 51 51 51
-0.018442 1.419888 0.090164 -0.029604 -0.972130 0.232564 51 51 51
0.193495 1.327296 -0.269895 -0.029604 -0.972130 0.232564 51 51 51
0.022357 1.368592 -0.372201 -0.111889 -0.988695 0.099816 51 51 51
-0.018442 1.419888 0.090164 -0.111889 -0.988695 0.099816 51 51 51
-0.218386 1.393263 -0.397690 -0.111889 -0.988695 0.099816 51 51 51
-0.226113 1.935662 0.357086 -0.230138 -0.965016 -0.125622 51 51 51
-0.101754 1.945024 0.057344 -0.230138 -0.965016 -0.125622 51 51 51
-0.084532 1.901570 0.359601 -0.230138 -0.965016 -0.125622 51 51 51
0.056339 1.930759 0.332006 -0.134315 -0.990601 0.025861 51 51 51
-0.101754 1.945024 0.057344 -0.134315 -0.990601 0.025861 51 51 51
0.206804 1.908547 0.262676 -0.134315 -0.990601 0.025861 51 51 51
-0.036799 -0.056744 -0.049761 -0.020221 -0.048128 -0.998636 0 0 0
0.041267 0.346524 -0.070777 -0.020221 -0.048128 -0.998636 0 0 0
0.029377 -0.056333 -0.051121 -0.020221 -0.048128 -0.998636 0 0 0
-0.042831 -0.056676 0.023041 -0.996551 0.008153 -0.082577 0 0 0
-0.037346 0.980109 0.059209 -0.996551 0.008153 -0.082577 0 0 0
-0.036799 -0.056744 -0.049761 -0.996551 0.008153 -0.082577 0 0 0
0.029377 -0.056333 -0.051121 0.941724 -0.044066 -0.333489 0 0 0
0.041267 0.346524 -0.070777 0.941724 -0.044066 -0.333489 0 0 0
0.054578 -0.056488 0.020064 0.941724 -0.044066 -0.333489 0 0 0
0.005136 -0.056859 0.045547 0.458104 0.003262 0.888893 0 0 0
0.054578 -0.056488 0.020064 0.458104 0.003262 0.888893 0 0 0
0.048026 0.979679 0.019639 0.458104 0.003262 0.888893 0 0 0
0.041267 0.346524 -0.070777 0.509820 0.116280 -0.852386 0 0 0
-0.044962 0.979693 -0.035976 0.509820 0.116280 -0.852386 0 0 0
0.048026 0.979679 0.019639 0.509820 0.116280 -0.852386 0 0 0
3 0 1 2
3 3 4 5
3 6 7 8
3 9 10 11
3 12 13 14
3 15 16 17
3 18 19 20
3 21 22 23
3 24 25 26
3 27 28 29
3 30 31 32
3 33 34 35
3 36 37 38
3 39 40 41
3 42 43 44
3 45 46 47
3 48 49 50
3 51 52 53
3 54 55 56
3 57 58 59
3 60 61 62
3 63 64 65
3 66 67 68
3 69 70 71
3 72 73 74
3 75 76 77
3 78 79 80
3 81 82 83
3 84 85 86
3 87 88 89
3 90 91 92
3 93 94 95
3 96 97 98
3 99 100 101
3 102 103 104
3 105 106 107
3 108 109 110
3 111 112 113
3 114 115 116
3 117 118 119
3 120 121 122
3 123 124 125
3 126 127 128
3 129 130 131
3 132 133 134
3 135 136 137
3 138 139 140
3 141 142 143
3 144 145 146
3 147 148 149
3 150 151 152
3 153 154 155
3 156 157 158
3 159 160 161
3 162 163 164
3 165 166 167
3 168 169 170
3 171 172 173
3 174 175 176
3 177 178 179
3 180 181 182
3 183 184 185
3 186 187 188
3 189 190 191
3 192 193 194
3 195 196 197
3 198 199 200
3 201 202 203
3 204 205 206
3 207 208 209
3 210 211 212
3 213 214 215
3 216 217 218
3 219 220 221
3 222 223 224
3 225 226 227
3 228 229 230
3 231 232 233
3 234 235 236
3 237 238 239
3 240 241 242
3 243 244 245
3 246 247 248
3 249 250 251
3 252 253 254
3 255 256 257
