ply
format ascii 1.0
comment Created by Blender 2.77 (sub 0) - www.blender.org, source file: ''
element vertex 519
property float x
property float y
property float z
property float nx
property float ny
property float nz
property uchar red
property uchar green
property uchar blue
element face 173
property list uchar uint vertex_indices
end_header
-0.114785 1.055145 0.734561 -0.586984 0.296361 0.753405 51 51 51
-0.083447 2.601802 0.150580 -0.586984 0.296361 0.753405 51 51 51
-0.275365 1.137242 0.577158 -0.586984 0.296361 0.753405 51 51 51
-0.275365 1.137242 0.577158 0.179436 0.253360 0.950585 51 51 51
-0.083447 2.601802 0.150580 0.179436 0.253360 0.950585 51 51 51
-0.470597 1.126597 0.616848 0.179436 0.253360 0.950585 51 51 51
-0.470597 1.126597 0.616848 -0.679979 0.377189 0.628774 51 51 51
-0.083447 2.601802 0.150580 -0.679979 0.377189 0.628774 51 51 51
-0.635016 1.078908 0.467647 -0.679979 0.377189 0.628774 51 51 51
-0.635016 1.078908 0.467647 -0.932836 0.352942 0.072446 51 51 51
-0.083447 2.601802 0.150580 -0.932836 0.352942 0.072446 51 51 51
-0.648211 1.085227 0.266958 -0.932836 0.352942 0.072446 51 51 51
-0.648211 1.085227 0.266958 -0.787950 0.333164 0.517819 51 51 51
-0.083447 2.601802 0.150580 -0.787950 0.333164 0.517819 51 51 51
-0.799456 1.153650 -0.007210 -0.787950 0.333164 0.517819 51 51 51
-0.799456 1.153650 -0.007210 -0.737009 0.421930 -0.528008 51 51 51
-0.083447 2.601802 0.150580 -0.737009 0.421930 -0.528008 51 51 51
-0.597752 1.268792 -0.196744 -0.737009 0.421930 -0.528008 51 51 51
-0.597752 1.268792 -0.196744 -0.927434 0.370706 -0.049437 51 51 51
-0.083447 2.601802 0.150580 -0.927434 0.370706 -0.049437 51 51 51
-0.581614 1.282549 -0.396335 -0.927434 0.370706 -0.049437 51 51 51
-0.581614 1.282549 -0.396335 -0.558717 0.488754 -0.670041 51 51 51
-0.083447 2.601802 0.150580 -0.558717 0.488754 -0.670041 51 51 51
-0.438739 1.276406 -0.519953 -0.558717 0.488754 -0.670041 51 51 51
-0.438739 1.276406 -0.519953 0.108760 0.425384 -0.898454 51 51 51
-0.083447 2.601802 0.150580 0.108760 0.425384 -0.898454 51 51 51
-0.245461 1.215426 -0.525428 0.108760 0.425384 -0.898454 51 51 51
-0.245461 1.215426 -0.525428 -0.534952 0.419983 -0.733104 51 51 51
-0.083447 2.601802 0.150580 -0.534952 0.419983 -0.733104 51 51 51
-0.079557 1.219197 -0.644329 -0.534952 0.419983 -0.733104 51 51 51
-0.079557 1.219197 -0.644329 0.108619 0.495710 -0.861669 51 51 51
-0.083447 2.601802 0.150580 0.108619 0.495710 -0.861669 51 51 51
0.110525 1.238688 -0.609155 0.108619 0.495710 -0.861669 51 51 51
0.110525 1.238688 -0.609155 0.761253 0.394968 -0.514290 51 51 51
-0.083447 2.601802 0.150580 0.761253 0.394968 -0.514290 51 51 51
0.224537 1.247639 -0.433520 0.761253 0.394968 -0.514290 51 51 51
0.224537 1.247639 -0.433520 -0.347456 0.303646 -0.887172 51 51 51
-0.083447 2.601802 0.150580 -0.347456 0.303646 -0.887172 51 51 51
0.330127 1.256424 -0.471867 -0.347456 0.303646 -0.887172 51 51 51
-0.083447 2.601802 0.150580 0.931670 0.351675 0.091192 51 51 51
0.467991 1.227103 -0.181797 0.931670 0.351675 0.091192 51 51 51
0.471385 1.254319 -0.321428 0.931670 0.351675 0.091192 51 51 51
0.467991 1.227103 -0.181797 0.756273 0.423867 -0.498386 51 51 51
-0.083447 2.601802 0.150580 0.756273 0.423867 -0.498386 51 51 51
0.602381 1.157810 -0.036800 0.756273 0.423867 -0.498386 51 51 51
0.602381 1.157810 -0.036800 0.904671 0.422898 0.052235 51 51 51
-0.083447 2.601802 0.150580 0.904671 0.422898 0.052235 51 51 51
0.591926 1.156999 0.150839 0.904671 0.422898 0.052235 51 51 51
0.591926 1.156999 0.150839 0.698640 0.326693 0.636532 51 51 51
-0.083447 2.601802 0.150580 0.698640 0.326693 0.636532 51 51 51
0.432372 1.232693 0.287112 0.698640 0.326693 0.636532 51 51 51
0.432372 1.232693 0.287112 0.921231 0.361427 0.143885 51 51 51
-0.083447 2.601802 0.150580 0.921231 0.361427 0.143885 51 51 51
0.406661 1.217685 0.489426 0.921231 0.361427 0.143885 51 51 51
0.406661 1.217685 0.489426 0.494279 0.367844 0.787642 51 51 51
-0.083447 2.601802 0.150580 0.494279 0.367844 0.787642 51 51 51
0.274801 1.084459 0.634393 0.494279 0.367844 0.787642 51 51 51
0.274801 1.084459 0.634393 -0.052530 0.292088 0.954948 51 51 51
-0.083447 2.601802 0.150580 -0.052530 0.292088 0.954948 51 51 51
0.076835 1.081756 0.624330 -0.052530 0.292088 0.954948 51 51 51
0.076835 1.081756 0.624330 0.441610 0.309080 0.842288 51 51 51
-0.083447 2.601802 0.150580 0.441610 0.309080 0.842288 51 51 51
-0.114785 1.055145 0.734561 0.441610 0.309080 0.842288 51 51 51
-0.103510 1.299101 0.062270 0.225008 -0.908951 -0.350969 51 51 51
-0.648211 1.085227 0.266958 0.225008 -0.908951 -0.350969 51 51 51
-0.799456 1.153650 -0.007210 0.225008 -0.908951 -0.350969 51 51 51
0.330127 1.256424 -0.471867 0.644738 0.475206 -0.598742 51 51 51
-0.083447 2.601802 0.150580 0.644738 0.475206 -0.598742 51 51 51
0.471385 1.254319 -0.321428 0.644738 0.475206 -0.598742 51 51 51
-0.470597 1.126597 0.616848 0.343876 -0.936846 -0.063791 51 51 51
-0.648211 1.085227 0.266958 0.343876 -0.936846 -0.063791 51 51 51
-0.103510 1.299101 0.062270 0.343876 -0.936846 -0.063791 51 51 51
0.591926 1.156999 0.150839 -0.434004 -0.900473 -0.028074 51 51 51
0.467991 1.227103 -0.181797 -0.434004 -0.900473 -0.028074 51 51 51
0.602381 1.157810 -0.036800 -0.434004 -0.900473 -0.028074 51 51 51
-0.103510 1.299101 0.062270 0.092905 -0.993805 -0.060987 51 51 51
-0.597752 1.268792 -0.196744 0.092905 -0.993805 -0.060987 51 51 51
-0.581614 1.282549 -0.396335 0.092905 -0.993805 -0.060987 51 51 51
-0.597752 1.268792 -0.196744 0.224334 -0.920346 -0.320372 51 51 51
-0.103510 1.299101 0.062270 0.224334 -0.920346 -0.320372 51 51 51
-0.799456 1.153650 -0.007210 0.224334 -0.920346 -0.320372 51 51 51
-0.275365 1.137242 0.577158 -0.009593 -0.953010 -0.302788 51 51 51
-0.470597 1.126597 0.616848 -0.009593 -0.953010 -0.302788 51 51 51
-0.103510 1.299101 0.062270 -0.009593 -0.953010 -0.302788 51 51 51
-0.114785 1.055145 0.734561 -0.142283 -0.929692 -0.339746 51 51 51
-0.275365 1.137242 0.577158 -0.142283 -0.929692 -0.339746 51 51 51
-0.103510 1.299101 0.062270 -0.142283 -0.929692 -0.339746 51 51 51
0.076835 1.081756 0.624330 -0.066151 -0.937609 -0.341342 51 51 51
-0.114785 1.055145 0.734561 -0.066151 -0.937609 -0.341342 51 51 51
-0.103510 1.299101 0.062270 -0.066151 -0.937609 -0.341342 51 51 51
0.274801 1.084459 0.634393 0.031451 -0.928797 -0.369252 51 51 51
0.076835 1.081756 0.624330 0.031451 -0.928797 -0.369252 51 51 51
-0.103510 1.299101 0.062270 0.031451 -0.928797 -0.369252 51 51 51
0.406661 1.217685 0.489426 0.284126 -0.820666 -0.495763 51 51 51
0.274801 1.084459 0.634393 0.284126 -0.820666 -0.495763 51 51 51
-0.103510 1.299101 0.062270 0.284126 -0.820666 -0.495763 51 51 51
0.432372 1.232693 0.287112 -0.087445 -0.992558 -0.084742 51 51 51
0.406661 1.217685 0.489426 -0.087445 -0.992558 -0.084742 51 51 51
-0.103510 1.299101 0.062270 -0.087445 -0.992558 -0.084742 51 51 51
0.591926 1.156999 0.150839 -0.224890 -0.939463 0.258522 51 51 51
0.432372 1.232693 0.287112 -0.224890 -0.939463 0.258522 51 51 51
-0.103510 1.299101 0.062270 -0.224890 -0.939463 0.258522 51 51 51
0.467991 1.227103 -0.181797 -0.202992 -0.960156 -0.192081 51 51 51
-0.103510 1.299101 0.062270 -0.202992 -0.960156 -0.192081 51 51 51
0.471385 1.254319 -0.321428 -0.202992 -0.960156 -0.192081 51 51 51
0.471385 1.254319 -0.321428 -0.053515 -0.997908 0.036286 51 51 51
-0.103510 1.299101 0.062270 -0.053515 -0.997908 0.036286 51 51 51
0.330127 1.256424 -0.471867 -0.053515 -0.997908 0.036286 51 51 51
0.330127 1.256424 -0.471867 0.153911 -0.967169 0.202228 51 51 51
-0.103510 1.299101 0.062270 0.153911 -0.967169 0.202228 51 51 51
0.224537 1.247639 -0.433520 0.153911 -0.967169 0.202228 51 51 51
0.224537 1.247639 -0.433520 0.105217 -0.994293 -0.017628 51 51 51
-0.079557 1.219197 -0.644329 0.105217 -0.994293 -0.017628 51 51 51
0.110525 1.238688 -0.609155 0.105217 -0.994293 -0.017628 51 51 51
-0.079557 1.219197 -0.644329 0.105058 -0.987764 0.115260 51 51 51
-0.103510 1.299101 0.062270 0.105058 -0.987764 0.115260 51 51 51
-0.245461 1.215426 -0.525428 0.105058 -0.987764 0.115260 51 51 51
-0.245461 1.215426 -0.525428 -0.289378 -0.935425 0.203079 51 51 51
-0.103510 1.299101 0.062270 -0.289378 -0.935425 0.203079 51 51 51
-0.438739 1.276406 -0.519953 -0.289378 -0.935425 0.203079 51 51 51
-0.438739 1.276406 -0.519953 -0.006181 -0.999077 0.042503 51 51 51
-0.103510 1.299101 0.062270 -0.006181 -0.999077 0.042503 51 51 51
-0.581614 1.282549 -0.396335 -0.006181 -0.999077 0.042503 51 51 51
-0.107728 -0.007519 0.013711 -0.999867 -0.013612 -0.009014 0 0 0
-0.120355 0.885622 0.065575 -0.999867 -0.013612 -0.009014 0 0 0
-0.119198 0.838941 0.007684 -0.999867 -0.013612 -0.009014 0 0 0
-0.109680 -0.007525 0.070090 -0.741593 -0.005473 0.670828 0 0 0
-0.088127 1.406536 0.105453 -0.741593 -0.005473 0.670828 0 0 0
-0.120355 0.885622 0.065575 -0.741593 -0.005473 0.670828 0 0 0
-0.107728 -0.007519 0.013711 -0.351728 -0.029614 -0.935634 0 0 0
-0.065390 0.719127 -0.025204 -0.351728 -0.029614 -0.935634 0 0 0
-0.039126 -0.007434 -0.012081 -0.351728 -0.029614 -0.935634 0 0 0
-0.058663 -0.007483 0.100454 0.533699 0.008131 0.845635 0 0 0
-0.005533 -0.007541 0.066924 0.533699 0.008131 0.845635 0 0 0
-0.088127 1.406536 0.105453 0.533699 0.008131 0.845635 0 0 0
-0.120355 0.885622 0.065575 -0.996662 -0.072134 0.038239 0 0 0
-0.158229 1.406210 0.060455 -0.996662 -0.072134 0.038239 0 0 0
-0.119198 0.838941 0.007684 -0.996662 -0.072134 0.038239 0 0 0
-0.005533 -0.007541 0.066924 0.984812 0.027229 0.171473 0 0 0
-0.012618 0.650897 0.003055 0.984812 0.027229 0.171473 0 0 0
-0.047990 1.406249 0.086259 0.984812 0.027229 0.171473 0 0 0
-0.119198 0.838941 0.007684 -0.462096 0.035709 -0.886110 0 0 0
-0.069576 1.406194 0.004666 -0.462096 0.035709 -0.886110 0 0 0
-0.065390 0.719127 -0.025204 -0.462096 0.035709 -0.886110 0 0 0
-0.120355 0.885622 0.065575 -0.539821 -0.031000 0.841209 0 0 0
-0.088127 1.406536 0.105453 -0.539821 -0.031000 0.841209 0 0 0
-0.158229 1.406210 0.060455 -0.539821 -0.031000 0.841209 0 0 0
-0.065390 0.719127 -0.025204 0.511797 0.040426 -0.858155 0 0 0
-0.069576 1.406194 0.004666 0.511797 0.040426 -0.858155 0 0 0
-0.012618 0.650897 0.003055 0.511797 0.040426 -0.858155 0 0 0
-0.041351 1.535108 0.720846 -0.438247 0.349003 0.828334 51 51 51
-0.026289 2.976844 0.121366 -0.438247 0.349003 0.828334 51 51 51
-0.194862 1.712514 0.564881 -0.438247 0.349003 0.828334 51 51 51
-0.194862 1.712514 0.564881 0.233953 0.293906 0.926761 51 51 51
-0.026289 2.976844 0.121366 0.233953 0.293906 0.926761 51 51 51
-0.370310 1.735288 0.601949 0.233953 0.293906 0.926761 51 51 51
-0.370310 1.735288 0.601949 -0.594954 0.428158 0.680228 51 51 51
-0.026289 2.976844 0.121366 -0.594954 0.428158 0.680228 51 51 51
-0.525926 1.726973 0.471075 -0.594954 0.428158 0.680228 51 51 51
-0.525926 1.726973 0.471075 -0.926288 0.376219 0.021212 51 51 51
-0.026289 2.976844 0.121366 -0.926288 0.376219 0.021212 51 51 51
-0.531633 1.722737 0.296992 -0.926288 0.376219 0.021212 51 51 51
-0.531633 1.722737 0.296992 -0.772470 0.382282 0.507100 51 51 51
-0.026289 2.976844 0.121366 -0.772470 0.382282 0.507100 51 51 51
-0.658717 1.784312 0.056985 -0.772470 0.382282 0.507100 51 51 51
-0.658717 1.784312 0.056985 -0.690236 0.398650 -0.603864 51 51 51
-0.026289 2.976844 0.121366 -0.690236 0.398650 -0.603864 51 51 51
-0.479259 1.826519 -0.120278 -0.690236 0.398650 -0.603864 51 51 51
-0.479259 1.826519 -0.120278 -0.915847 0.384759 -0.114824 51 51 51
-0.026289 2.976844 0.121366 -0.915847 0.384759 -0.114824 51 51 51
-0.463980 1.811954 -0.290950 -0.915847 0.384759 -0.114824 51 51 51
-0.463980 1.811954 -0.290950 -0.482370 0.447734 -0.752897 51 51 51
-0.026289 2.976844 0.121366 -0.482370 0.447734 -0.752897 51 51 51
-0.341344 1.745855 -0.408829 -0.482370 0.447734 -0.752897 51 51 51
-0.341344 1.745855 -0.408829 0.101968 0.371385 -0.922863 51 51 51
-0.026289 2.976844 0.121366 0.101968 0.371385 -0.922863 51 51 51
-0.168172 1.685275 -0.414074 0.101968 0.371385 -0.922863 51 51 51
-0.168172 1.685275 -0.414074 -0.566209 0.367970 -0.737567 51 51 51
-0.026289 2.976844 0.121366 -0.566209 0.367970 -0.737567 51 51 51
-0.022861 1.716472 -0.510061 -0.566209 0.367970 -0.737567 51 51 51
-0.022861 1.716472 -0.510061 0.233496 0.436044 -0.869106 51 51 51
-0.026289 2.976844 0.121366 0.233496 0.436044 -0.869106 51 51 51
0.142030 1.686491 -0.480803 0.233496 0.436044 -0.869106 51 51 51
0.142030 1.686491 -0.480803 0.755210 0.355508 -0.550701 51 51 51
-0.026289 2.976844 0.121366 0.755210 0.355508 -0.550701 51 51 51
0.249950 1.706122 -0.320133 0.755210 0.355508 -0.550701 51 51 51
0.249950 1.706122 -0.320133 -0.335160 0.243375 -0.910185 51 51 51
-0.026289 2.976844 0.121366 -0.335160 0.243375 -0.910185 51 51 51
0.349555 1.726511 -0.351359 -0.335160 0.243375 -0.910185 51 51 51
-0.026289 2.976844 0.121366 0.929818 0.290351 0.226132 51 51 51
0.447156 1.627514 -0.092835 0.929818 0.290351 0.226132 51 51 51
0.460583 1.676270 -0.210647 0.929818 0.290351 0.226132 51 51 51
0.447156 1.627514 -0.092835 0.734805 0.350051 -0.580969 51 51 51
-0.026289 2.976844 0.121366 0.734805 0.350051 -0.580969 51 51 51
0.597616 1.679391 0.128723 0.734805 0.350051 -0.580969 51 51 51
0.597616 1.679391 0.128723 0.766990 0.371787 0.522974 51 51 51
-0.026289 2.976844 0.121366 0.766990 0.371787 0.522974 51 51 51
0.426785 1.782493 0.305966 0.766990 0.371787 0.522974 51 51 51
0.426785 1.782493 0.305966 0.921231 0.368661 0.124187 51 51 51
-0.026289 2.976844 0.121366 0.921231 0.368661 0.124187 51 51 51
0.404201 1.778913 0.484123 0.921231 0.368661 0.124187 51 51 51
0.404201 1.778913 0.484123 0.494279 0.409784 0.766658 51 51 51
-0.026289 2.976844 0.121366 0.494279 0.409784 0.766658 51 51 51
0.288381 1.668930 0.617581 0.494279 0.409784 0.766658 51 51 51
0.288381 1.668930 0.617581 -0.052529 0.343160 0.937807 51 51 51
-0.026289 2.976844 0.121366 -0.052529 0.343160 0.937807 51 51 51
0.114496 1.666083 0.608883 -0.052529 0.343160 0.937807 51 51 51
0.114496 1.666083 0.608883 0.325446 0.360135 0.874293 51 51 51
-0.026289 2.976844 0.121366 0.325446 0.360135 0.874293 51 51 51
-0.041351 1.535108 0.720846 0.325446 0.360135 0.874293 51 51 51
-0.012464 1.785135 0.185958 0.056299 -0.959513 -0.275979 51 51 51
-0.531633 1.722737 0.296992 0.056299 -0.959513 -0.275979 51 51 51
-0.658717 1.784312 0.056985 0.056299 -0.959513 -0.275979 51 51 51
0.349555 1.726511 -0.351359 0.781056 0.412150 -0.469130 51 51 51
-0.026289 2.976844 0.121366 0.781056 0.412150 -0.469130 51 51 51
0.460583 1.676270 -0.210647 0.781056 0.412150 -0.469130 51 51 51
-0.370310 1.735288 0.601949 0.115087 -0.993154 -0.020006 51 51 51
-0.531633 1.722737 0.296992 0.115087 -0.993154 -0.020006 51 51 51
-0.012464 1.785135 0.185958 0.115087 -0.993154 -0.020006 51 51 51
-0.012464 1.785135 0.185958 -0.135007 -0.988207 0.072247 51 51 51
-0.479259 1.826519 -0.120278 -0.135007 -0.988207 0.072247 51 51 51
-0.463980 1.811954 -0.290950 -0.135007 -0.988207 0.072247 51 51 51
-0.479259 1.826519 -0.120278 0.039794 -0.980364 -0.193142 51 51 51
-0.012464 1.785135 0.185958 0.039794 -0.980364 -0.193142 51 51 51
-0.658717 1.784312 0.056985 0.039794 -0.980364 -0.193142 51 51 51
-0.194862 1.712514 0.564881 -0.179455 -0.946614 -0.267802 51 51 51
-0.370310 1.735288 0.601949 -0.179455 -0.946614 -0.267802 51 51 51
-0.012464 1.785135 0.185958 -0.179455 -0.946614 -0.267802 51 51 51
-0.041351 1.535108 0.720846 -0.499563 -0.774112 -0.388829 51 51 51
-0.194862 1.712514 0.564881 -0.499563 -0.774112 -0.388829 51 51 51
-0.012464 1.785135 0.185958 -0.499563 -0.774112 -0.388829 51 51 51
0.114496 1.666083 0.608883 0.433219 -0.825241 -0.362353 51 51 51
-0.041351 1.535108 0.720846 0.433219 -0.825241 -0.362353 51 51 51
-0.012464 1.785135 0.185958 0.433219 -0.825241 -0.362353 51 51 51
0.288381 1.668930 0.617581 0.029676 -0.959806 -0.279091 51 51 51
0.114496 1.666083 0.608883 0.029676 -0.959806 -0.279091 51 51 51
-0.012464 1.785135 0.185958 0.029676 -0.959806 -0.279091 51 51 51
0.404201 1.778913 0.484123 0.300499 -0.847464 -0.437612 51 51 51
0.288381 1.668930 0.617581 0.300499 -0.847464 -0.437612 51 51 51
-0.012464 1.785135 0.185958 0.300499 -0.847464 -0.437612 51 51 51
0.426785 1.782493 0.305966 -0.000507 -0.999797 -0.020155 51 51 51
0.404201 1.778913 0.484123 -0.000507 -0.999797 -0.020155 51 51 51
-0.012464 1.785135 0.185958 -0.000507 -0.999797 -0.020155 51 51 51
0.597616 1.679391 0.128723 -0.117970 -0.903561 0.411898 51 51 51
0.426785 1.782493 0.305966 -0.117970 -0.903561 0.411898 51 51 51
-0.012464 1.785135 0.185958 -0.117970 -0.903561 0.411898 51 51 51
0.447156 1.627514 -0.092835 -0.497664 -0.779945 -0.379495 51 51 51
-0.012464 1.785135 0.185958 -0.497664 -0.779945 -0.379495 51 51 51
0.460583 1.676270 -0.210647 -0.497664 -0.779945 -0.379495 51 51 51
0.460583 1.676270 -0.210647 -0.302103 -0.948004 -0.100111 51 51 51
-0.012464 1.785135 0.185958 -0.302103 -0.948004 -0.100111 51 51 51
0.349555 1.726511 -0.351359 -0.302103 -0.948004 -0.100111 51 51 51
0.349555 1.726511 -0.351359 0.277669 -0.916772 0.287105 51 51 51
-0.012464 1.785135 0.185958 0.277669 -0.916772 0.287105 51 51 51
0.249950 1.706122 -0.320133 0.277669 -0.916772 0.287105 51 51 51
0.249950 1.706122 -0.320133 -0.217313 -0.940591 0.260890 51 51 51
-0.022861 1.716472 -0.510061 -0.217313 -0.940591 0.260890 51 51 51
0.142030 1.686491 -0.480803 -0.217313 -0.940591 0.260890 51 51 51
-0.022861 1.716472 -0.510061 0.265957 -0.959708 0.090703 51 51 51
-0.012464 1.785135 0.185958 0.265957 -0.959708 0.090703 51 51 51
-0.168172 1.685275 -0.414074 0.265957 -0.959708 0.090703 51 51 51
-0.168172 1.685275 -0.414074 -0.314638 -0.919735 0.234715 51 51 51
-0.012464 1.785135 0.185958 -0.314638 -0.919735 0.234715 51 51 51
-0.341344 1.745855 -0.408829 -0.314638 -0.919735 0.234715 51 51 51
-0.341344 1.745855 -0.408829 -0.289164 -0.931326 0.221395 51 51 51
-0.012464 1.785135 0.185958 -0.289164 -0.931326 0.221395 51 51 51
-0.463980 1.811954 -0.290950 -0.289164 -0.931326 0.221395 51 51 51
-0.210201 1.981912 -0.358883 0.283689 0.194535 -0.938976 51 51 51
0.100262 3.249837 -0.002398 0.283689 0.194535 -0.938976 51 51 51
-0.026289 2.118791 -0.274960 0.283689 0.194535 -0.938976 51 51 51
-0.026289 2.118791 -0.274960 -0.392756 0.256750 -0.883075 51 51 51
0.100262 3.249837 -0.002398 -0.392756 0.256750 -0.883075 51 51 51
0.115221 2.107482 -0.341186 -0.392756 0.256750 -0.883075 51 51 51
0.115221 2.107482 -0.341186 0.481270 0.255022 -0.838655 51 51 51
0.100262 3.249837 -0.002398 0.481270 0.255022 -0.838655 51 51 51
0.269801 2.084626 -0.259429 0.481270 0.255022 -0.838655 51 51 51
0.269801 2.084626 -0.259429 0.944138 0.195839 -0.265049 51 51 51
0.100262 3.249837 -0.002398 0.944138 0.195839 -0.265049 51 51 51
0.309097 2.092217 -0.113843 0.944138 0.195839 -0.265049 51 51 51
0.309097 2.092217 -0.113843 0.684413 0.191202 -0.703577 51 51 51
0.100262 3.249837 -0.002398 0.684413 0.191202 -0.703577 51 51 51
0.471791 2.140838 0.057632 0.684413 0.191202 -0.703577 51 51 51
0.471791 2.140838 0.057632 0.867025 0.311514 0.388878 51 51 51
0.100262 3.249837 -0.002398 0.867025 0.311514 0.388878 51 51 51
0.364354 2.217694 0.235602 0.867025 0.311514 0.388878 51 51 51
0.364354 2.217694 0.235602 0.969486 0.244718 -0.014492 51 51 51
0.100262 3.249837 -0.002398 0.969486 0.244718 -0.014492 51 51 51
0.368655 2.213095 0.445692 0.969486 0.244718 -0.014492 51 51 51
0.368655 2.213095 0.445692 0.320003 0.444468 0.836688 51 51 51
0.100262 3.249837 -0.002398 0.320003 0.444468 0.836688 51 51 51
0.145360 2.167977 0.555062 0.320003 0.444468 0.836688 51 51 51
0.145360 2.167977 0.555062 0.774280 0.315078 0.548831 51 51 51
0.100262 3.249837 -0.002398 0.774280 0.315078 0.548831 51 51 51
0.048351 2.224375 0.659543 0.774280 0.315078 0.548831 51 51 51
0.048351 2.224375 0.659543 0.049047 0.539924 0.840283 51 51 51
0.100262 3.249837 -0.002398 0.049047 0.539924 0.840283 51 51 51
-0.098787 2.223269 0.668842 0.049047 0.539924 0.840283 51 51 51
-0.098787 2.223269 0.668842 -0.538457 0.531802 0.653644 51 51 51
0.100262 3.249837 -0.002398 -0.538457 0.531802 0.653644 51 51 51
-0.218160 2.246030 0.551987 -0.538457 0.531802 0.653644 51 51 51
-0.218160 2.246030 0.551987 0.572795 0.249522 0.780797 51 51 51
0.100262 3.249837 -0.002398 0.572795 0.249522 0.780797 51 51 51
-0.291775 2.281440 0.594675 0.572795 0.249522 0.780797 51 51 51
0.100262 3.249837 -0.002398 -0.897407 0.437906 -0.053844 51 51 51
-0.438947 2.195050 0.406036 -0.897407 0.437906 -0.053844 51 51 51
-0.419491 2.246773 0.502423 -0.897407 0.437906 -0.053844 51 51 51
-0.438947 2.195050 0.406036 -0.512718 0.525118 0.679243 51 51 51
0.100262 3.249837 -0.002398 -0.512718 0.525118 0.679243 51 51 51
-0.601450 2.247755 0.242627 -0.512718 0.525118 0.679243 51 51 51
-0.601450 2.247755 0.242627 -0.797254 0.463813 -0.386346 51 51 51
0.100262 3.249837 -0.002398 -0.797254 0.463813 -0.386346 51 51 51
-0.480825 2.295631 0.051183 -0.797254 0.463813 -0.386346 51 51 51
-0.480825 2.295631 0.051183 -0.852765 0.521205 0.033725 51 51 51
0.100262 3.249837 -0.002398 -0.852765 0.521205 0.033725 51 51 51
-0.498528 2.276597 -0.102289 -0.852765 0.521205 0.033725 51 51 51
-0.498528 2.276597 -0.102289 -0.586367 0.431151 -0.685771 51 51 51
0.100262 3.249837 -0.002398 -0.586367 0.431151 -0.685771 51 51 51
-0.444627 2.155433 -0.224554 -0.586367 0.431151 -0.685771 51 51 51
-0.444627 2.155433 -0.224554 -0.112640 0.251229 -0.961351 51 51 51
0.100262 3.249837 -0.002398 -0.112640 0.251229 -0.961351 51 51 51
-0.298765 2.125805 -0.249387 -0.112640 0.251229 -0.961351 51 51 51
-0.298765 2.125805 -0.249387 -0.457564 0.342720 -0.820475 51 51 51
0.100262 3.249837 -0.002398 -0.457564 0.342720 -0.820475 51 51 51
-0.210201 1.981912 -0.358883 -0.457564 0.342720 -0.820475 51 51 51
-0.091194 2.235950 0.069769 -0.144783 -0.907355 0.394644 51 51 51
0.309097 2.092217 -0.113843 -0.144783 -0.907355 0.394644 51 51 51
0.471791 2.140838 0.057632 -0.144783 -0.907355 0.394644 51 51 51
-0.291775 2.281440 0.594675 -0.573084 0.585515 0.573364 51 51 51
0.100262 3.249837 -0.002398 -0.573084 0.585515 0.573364 51 51 51
-0.419491 2.246773 0.502423 -0.573084 0.585515 0.573364 51 51 51
0.115221 2.107482 -0.341186 -0.266230 -0.949985 0.163251 51 51 51
0.309097 2.092217 -0.113843 -0.266230 -0.949985 0.163251 51 51 51
-0.091194 2.235950 0.069769 -0.266230 -0.949985 0.163251 51 51 51
-0.091194 2.235950 0.069769 -0.032322 -0.999252 -0.021214 51 51 51
0.364354 2.217694 0.235602 -0.032322 -0.999252 -0.021214 51 51 51
0.368655 2.213095 0.445692 -0.032322 -0.999252 -0.021214 51 51 51
0.364354 2.217694 0.235602 -0.151624 -0.937467 0.313313 51 51 51
-0.091194 2.235950 0.069769 -0.151624 -0.937467 0.313313 51 51 51
0.471791 2.140838 0.057632 -0.151624 -0.937467 0.313313 51 51 51
-0.026289 2.118791 -0.274960 0.081478 -0.938892 0.334430 51 51 51
0.115221 2.107482 -0.341186 0.081478 -0.938892 0.334430 51 51 51
-0.091194 2.235950 0.069769 0.081478 -0.938892 0.334430 51 51 51
-0.210201 1.981912 -0.358883 0.444524 -0.819301 0.362140 51 51 51
-0.026289 2.118791 -0.274960 0.444524 -0.819301 0.362140 51 51 51
-0.091194 2.235950 0.069769 0.444524 -0.819301 0.362140 51 51 51
-0.298765 2.125805 -0.249387 -0.464406 -0.699327 0.543386 51 51 51
-0.210201 1.981912 -0.358883 -0.464406 -0.699327 0.543386 51 51 51
-0.091194 2.235950 0.069769 -0.464406 -0.699327 0.543386 51 51 51
-0.444627 2.155433 -0.224554 -0.118578 -0.912305 0.391969 51 51 51
-0.298765 2.125805 -0.249387 -0.118578 -0.912305 0.391969 51 51 51
-0.091194 2.235950 0.069769 -0.118578 -0.912305 0.391969 51 51 51
-0.498528 2.276597 -0.102289 -0.323193 -0.739561 0.590420 51 51 51
-0.444627 2.155433 -0.224554 -0.323193 -0.739561 0.590420 51 51 51
-0.091194 2.235950 0.069769 -0.323193 -0.739561 0.590420 51 51 51
-0.480825 2.295631 0.051183 -0.156420 -0.977816 0.139314 51 51 51
-0.498528 2.276597 -0.102289 -0.156420 -0.977816 0.139314 51 51 51
-0.091194 2.235950 0.069769 -0.156420 -0.977816 0.139314 51 51 51
-0.601450 2.247755 0.242627 -0.128879 -0.939882 -0.316247 51 51 51
-0.480825 2.295631 0.051183 -0.128879 -0.939882 -0.316247 51 51 51
-0.091194 2.235950 0.069769 -0.128879 -0.939882 -0.316247 51 51 51
-0.438947 2.195050 0.406036 0.439581 -0.825415 0.354202 51 51 51
-0.091194 2.235950 0.069769 0.439581 -0.825415 0.354202 51 51 51
-0.419491 2.246773 0.502423 0.439581 -0.825415 0.354202 51 51 51
-0.419491 2.246773 0.502423 0.159793 -0.976343 0.145674 51 51 51
-0.091194 2.235950 0.069769 0.159793 -0.976343 0.145674 51 51 51
-0.291775 2.281440 0.594675 0.159793 -0.976343 0.145674 51 51 51
-0.291775 2.281440 0.594675 -0.481330 -0.869792 -0.108550 51 51 51
-0.091194 2.235950 0.069769 -0.481330 -0.869792 -0.108550 51 51 51
-0.218160 2.246030 0.551987 -0.481330 -0.869792 -0.108550 51 51 51
-0.218160 2.246030 0.551987 -0.004423 -0.982382 -0.186831 51 51 51
0.048351 2.224375 0.659543 -0.004423 -0.982382 -0.186831 51 51 51
-0.098787 2.223269 0.668842 -0.004423 -0.982382 -0.186831 51 51 51
0.048351 2.224375 0.659543 -0.431295 -0.898253 0.084418 51 51 51
-0.091194 2.235950 0.069769 -0.431295 -0.898253 0.084418 51 51 51
0.145360 2.167977 0.555062 -0.431295 -0.898253 0.084418 51 51 51
0.145360 2.167977 0.555062 0.105198 -0.976509 -0.188054 51 51 51
-0.091194 2.235950 0.069769 0.105198 -0.976509 -0.188054 51 51 51
0.368655 2.213095 0.445692 0.105198 -0.976509 -0.188054 51 51 51
-0.397823 2.522815 -0.113847 -0.478304 0.237260 -0.845537 51 51 51
0.084595 3.526386 -0.105137 -0.478304 0.237260 -0.845537 51 51 51
-0.234834 2.620846 -0.178539 -0.478304 0.237260 -0.845537 51 51 51
-0.234834 2.620846 -0.178539 -0.888261 0.338502 -0.310496 51 51 51
0.084595 3.526386 -0.105137 -0.888261 0.338502 -0.310496 51 51 51
-0.196991 2.607757 -0.301069 -0.888261 0.338502 -0.310496 51 51 51
-0.196991 2.607757 -0.301069 -0.070507 0.228702 -0.970940 51 51 51
0.084595 3.526386 -0.105137 -0.070507 0.228702 -0.970940 51 51 51
-0.018927 2.572084 -0.322402 -0.070507 0.228702 -0.970940 51 51 51
-0.018927 2.572084 -0.322402 0.085433 0.212357 -0.973450 51 51 51
0.084595 3.526386 -0.105137 0.085433 0.212357 -0.973450 51 51 51
0.243857 2.594949 -0.294352 0.085433 0.212357 -0.973450 51 51 51
0.243857 2.594949 -0.294352 0.898351 0.229672 -0.374454 51 51 51
0.084595 3.526386 -0.105137 0.898351 0.229672 -0.374454 51 51 51
0.297189 2.653942 -0.130219 0.898351 0.229672 -0.374454 51 51 51
0.297189 2.653942 -0.130219 0.666058 0.183091 -0.723080 51 51 51
0.084595 3.526386 -0.105137 0.666058 0.183091 -0.723080 51 51 51
0.425820 2.638615 -0.015612 0.666058 0.183091 -0.723080 51 51 51
0.425820 2.638615 -0.015612 0.869166 0.367449 0.330955 51 51 51
0.084595 3.526386 -0.105137 0.869166 0.367449 0.330955 51 51 51
0.364313 2.607411 0.180565 0.869166 0.367449 0.330955 51 51 51
0.364313 2.607411 0.180565 0.960196 0.263067 -0.093917 51 51 51
0.084595 3.526386 -0.105137 0.960196 0.263067 -0.093917 51 51 51
0.365552 2.659349 0.338710 0.960196 0.263067 -0.093917 51 51 51
0.365552 2.659349 0.338710 0.441069 0.518076 0.732841 51 51 51
0.084595 3.526386 -0.105137 0.441069 0.518076 0.732841 51 51 51
0.156524 2.704936 0.432289 0.441069 0.518076 0.732841 51 51 51
-0.038340 2.674398 0.470372 0.099392 0.547092 0.831151 51 51 51
0.084595 3.526386 -0.105137 0.099392 0.547092 0.831151 51 51 51
-0.232736 2.728662 0.457901 0.099392 0.547092 0.831151 51 51 51
-0.232736 2.728662 0.457901 -0.778669 0.537824 0.323141 51 51 51
0.084595 3.526386 -0.105137 -0.778669 0.537824 0.323141 51 51 51
-0.277498 2.771917 0.278044 -0.778669 0.537824 0.323141 51 51 51
-0.277498 2.771917 0.278044 -0.503330 0.570966 0.648581 51 51 51
0.084595 3.526386 -0.105137 -0.503330 0.570966 0.648581 51 51 51
-0.381231 2.765522 0.203172 -0.503330 0.570966 0.648581 51 51 51
-0.381231 2.765522 0.203172 -0.869726 0.455172 -0.190772 51 51 51
0.084595 3.526386 -0.105137 -0.869726 0.455172 -0.190772 51 51 51
-0.403544 2.662906 0.060058 -0.869726 0.455172 -0.190772 51 51 51
-0.403544 2.662906 0.060058 -0.841073 0.407393 -0.355847 51 51 51
0.084595 3.526386 -0.105137 -0.841073 0.407393 -0.355847 51 51 51
-0.397823 2.522815 -0.113847 -0.841073 0.407393 -0.355847 51 51 51
-0.054375 2.701650 0.052817 0.046812 -0.942824 0.329986 51 51 51
-0.018927 2.572084 -0.322402 0.046812 -0.942824 0.329986 51 51 51
0.243857 2.594949 -0.294352 0.046812 -0.942824 0.329986 51 51 51
0.156524 2.704936 0.432289 0.076187 0.550552 0.831317 51 51 51
0.084595 3.526386 -0.105137 0.076187 0.550552 0.831317 51 51 51
-0.038340 2.674398 0.470372 0.076187 0.550552 0.831317 51 51 51
-0.196991 2.607757 -0.301069 -0.150934 -0.938717 0.309886 51 51 51
-0.018927 2.572084 -0.322402 -0.150934 -0.938717 0.309886 51 51 51
-0.054375 2.701650 0.052817 -0.150934 -0.938717 0.309886 51 51 51
-0.054375 2.701650 0.052817 -0.128516 -0.991639 0.011622 51 51 51
0.297189 2.653942 -0.130219 -0.128516 -0.991639 0.011622 51 51 51
0.425820 2.638615 -0.015612 -0.128516 -0.991639 0.011622 51 51 51
0.297189 2.653942 -0.130219 0.041542 -0.944469 0.325964 51 51 51
-0.054375 2.701650 0.052817 0.041542 -0.944469 0.325964 51 51 51
0.243857 2.594949 -0.294352 0.041542 -0.944469 0.325964 51 51 51
-0.234834 2.620846 -0.178539 0.214211 -0.962069 0.168929 51 51 51
-0.196991 2.607757 -0.301069 0.214211 -0.962069 0.168929 51 51 51
-0.054375 2.701650 0.052817 0.214211 -0.962069 0.168929 51 51 51
-0.397823 2.522815 -0.113847 0.490442 -0.867846 -0.079442 51 51 51
-0.234834 2.620846 -0.178539 0.490442 -0.867846 -0.079442 51 51 51
-0.054375 2.701650 0.052817 0.490442 -0.867846 -0.079442 51 51 51
-0.403544 2.662906 0.060058 0.098798 -0.773352 0.626232 51 51 51
-0.397823 2.522815 -0.113847 0.098798 -0.773352 0.626232 51 51 51
-0.054375 2.701650 0.052817 0.098798 -0.773352 0.626232 51 51 51
-0.381231 2.765522 0.203172 0.102334 -0.815900 0.569065 51 51 51
-0.403544 2.662906 0.060058 0.102334 -0.815900 0.569065 51 51 51
-0.054375 2.701650 0.052817 0.102334 -0.815900 0.569065 51 51 51
-0.277498 2.771917 0.278044 -0.092772 -0.972936 0.211635 51 51 51
-0.381231 2.765522 0.203172 -0.092772 -0.972936 0.211635 51 51 51
-0.054375 2.701650 0.052817 -0.092772 -0.972936 0.211635 51 51 51
-0.232736 2.728662 0.457901 -0.404289 -0.907049 -0.117527 51 51 51
-0.277498 2.771917 0.278044 -0.404289 -0.907049 -0.117527 51 51 51
-0.054375 2.701650 0.052817 -0.404289 -0.907049 -0.117527 51 51 51
-0.038340 2.674398 0.470372 0.141103 -0.987526 -0.069869 51 51 51
-0.054375 2.701650 0.052817 0.141103 -0.987526 -0.069869 51 51 51
0.156524 2.704936 0.432289 0.141103 -0.987526 -0.069869 51 51 51
0.365552 2.659349 0.338710 -0.295709 -0.906896 0.300160 51 51 51
-0.054375 2.701650 0.052817 -0.295709 -0.906896 0.300160 51 51 51
0.364313 2.607411 0.180565 -0.295709 -0.906896 0.300160 51 51 51
0.364313 2.607411 0.180565 -0.155784 -0.966787 -0.202619 51 51 51
-0.054375 2.701650 0.052817 -0.155784 -0.966787 -0.202619 51 51 51
0.425820 2.638615 -0.015612 -0.155784 -0.966787 -0.202619 51 51 51
-0.470597 1.126597 0.616848 0.320498 -0.945883 -0.050855 51 51 51
-0.635016 1.078908 0.467647 0.320498 -0.945883 -0.050855 51 51 51
-0.648211 1.085227 0.266958 0.320498 -0.945883 -0.050855 51 51 51
0.591926 1.156999 0.150839 -0.181440 -0.973726 -0.137614 51 51 51
-0.103510 1.299101 0.062270 -0.181440 -0.973726 -0.137614 51 51 51
0.467991 1.227103 -0.181797 -0.181440 -0.973726 -0.137614 51 51 51
0.224537 1.247639 -0.433520 0.014693 -0.993504 0.112846 51 51 51
-0.103510 1.299101 0.062270 0.014693 -0.993504 0.112846 51 51 51
-0.079557 1.219197 -0.644329 0.014693 -0.993504 0.112846 51 51 51
-0.107728 -0.007519 0.013711 -0.999328 -0.012119 -0.034585 0 0 0
-0.109680 -0.007525 0.070090 -0.999328 -0.012119 -0.034585 0 0 0
-0.120355 0.885622 0.065575 -0.999328 -0.012119 -0.034585 0 0 0
-0.039126 -0.007434 -0.012081 0.919890 -0.028046 -0.391173 0 0 0
-0.012618 0.650897 0.003055 0.919890 -0.028046 -0.391173 0 0 0
-0.005533 -0.007541 0.066924 0.919890 -0.028046 -0.391173 0 0 0
-0.109680 -0.007525 0.070090 -0.511402 -0.013694 0.859232 0 0 0
-0.058663 -0.007483 0.100454 -0.511402 -0.013694 0.859232 0 0 0
-0.088127 1.406536 0.105453 -0.511402 -0.013694 0.859232 0 0 0
-0.107728 -0.007519 0.013711 -0.542922 -0.013335 -0.839677 0 0 0
-0.119198 0.838941 0.007684 -0.542922 -0.013335 -0.839677 0 0 0
-0.065390 0.719127 -0.025204 -0.542922 -0.013335 -0.839677 0 0 0
-0.039126 -0.007434 -0.012081 0.473266 0.001197 -0.880919 0 0 0
-0.065390 0.719127 -0.025204 0.473266 0.001197 -0.880919 0 0 0
-0.012618 0.650897 0.003055 0.473266 0.001197 -0.880919 0 0 0
-0.088127 1.406536 0.105453 0.431422 0.000617 0.902150 0 0 0
-0.005533 -0.007541 0.066924 0.431422 0.000617 0.902150 0 0 0
-0.047990 1.406249 0.086259 0.431422 0.000617 0.902150 0 0 0
-0.047990 1.406249 0.086259 0.964132 0.073251 -0.255114 0 0 0
-0.012618 0.650897 0.003055 0.964132 0.073251 -0.255114 0 0 0
-0.069576 1.406194 0.004666 0.964132 0.073251 -0.255114 0 0 0
-0.119198 0.838941 0.007684 -0.532135 0.042051 -0.845614 0 0 0
-0.158229 1.406210 0.060455 -0.532135 0.042051 -0.845614 0 0 0
-0.069576 1.406194 0.004666 -0.532135 0.042051 -0.845614 0 0 0
-0.370310 1.735288 0.601949 0.033874 -0.999157 0.023203 51 51 51
-0.525926 1.726973 0.471075 0.033874 -0.999157 0.023203 51 51 51
-0.531633 1.722737 0.296992 0.033874 -0.999157 0.023203 51 51 51
0.597616 1.679391 0.128723 -0.133881 -0.940861 0.311218 51 51 51
-0.012464 1.785135 0.185958 -0.133881 -0.940861 0.311218 51 51 51
0.447156 1.627514 -0.092835 -0.133881 -0.940861 0.311218 51 51 51
0.249950 1.706122 -0.320133 -0.106590 -0.989343 0.099192 51 51 51
-0.012464 1.785135 0.185958 -0.106590 -0.989343 0.099192 51 51 51
-0.022861 1.716472 -0.510061 -0.106590 -0.989343 0.099192 51 51 51
0.115221 2.107482 -0.341186 -0.199396 -0.974318 0.104622 51 51 51
0.269801 2.084626 -0.259429 -0.199396 -0.974318 0.104622 51 51 51
0.309097 2.092217 -0.113843 -0.199396 -0.974318 0.104622 51 51 51
-0.601450 2.247755 0.242627 -0.096192 -0.971283 -0.217615 51 51 51
-0.091194 2.235950 0.069769 -0.096192 -0.971283 -0.217615 51 51 51
-0.438947 2.195050 0.406036 -0.096192 -0.971283 -0.217615 51 51 51
-0.218160 2.246030 0.551987 -0.080810 -0.996729 -0.000442 51 51 51
-0.091194 2.235950 0.069769 -0.080810 -0.996729 -0.000442 51 51 51
0.048351 2.224375 0.659543 -0.080810 -0.996729 -0.000442 51 51 51
-0.232736 2.728662 0.457901 -0.265352 -0.962714 -0.052641 51 51 51
-0.054375 2.701650 0.052817 -0.265352 -0.962714 -0.052641 51 51 51
-0.038340 2.674398 0.470372 -0.265352 -0.962714 -0.052641 51 51 51
0.156524 2.704936 0.432289 -0.168183 -0.980468 0.101962 51 51 51
-0.054375 2.701650 0.052817 -0.168183 -0.980468 0.101962 51 51 51
0.365552 2.659349 0.338710 -0.168183 -0.980468 0.101962 51 51 51
3 0 1 2
3 3 4 5
3 6 7 8
3 9 10 11
3 12 13 14
3 15 16 17
3 18 19 20
3 21 22 23
3 24 25 26
3 27 28 29
3 30 31 32
3 33 34 35
3 36 37 38
3 39 40 41
3 42 43 44
3 45 46 47
3 48 49 50
3 51 52 53
3 54 55 56
3 57 58 59
3 60 61 62
3 63 64 65
3 66 67 68
3 69 70 71
3 72 73 74
3 75 76 77
3 78 79 80
3 81 82 83
3 84 85 86
3 87 88 89
3 90 91 92
3 93 94 95
3 96 97 98
3 99 100 101
3 102 103 104
3 105 106 107
3 108 109 110
3 111 112 113
3 114 115 116
3 117 118 119
3 120 121 122
3 123 124 125
3 126 127 128
3 129 130 131
3 132 133 134
3 135 136 137
3 138 139 140
3 141 142 143
3 144 145 146
3 147 148 149
3 150 151 152
3 153 154 155
3 156 157 158
3 159 160 161
3 162 163 164
3 165 166 167
3 168 169 170
3 171 172 173
3 174 175 176
3 177 178 179
3 180 181 182
3 183 184 185
3 186 187 188
3 189 190 191
3 192 193 194
3 195 196 197
3 198 199 200
3 201 202 203
3 204 205 206
3 207 208 209
3 210 211 212
3 213 214 215
3 216 217 218
3 219 220 221
3 222 223 224
3 225 226 227
3 228 229 230
3 231 232 233
3 234 235 236
3 237 238 239
3 240 241 242
3 243 244 245
3 246 247 248
3 249 250 251
3 252 253 254
3 255 256 257
3 258 259 260
3 261 262 263
3 264 265 266
3 267 268 269
3 270 271 272
3 273 274 275
3 276 277 278
3 279 280 281
3 282 283 284
3 285 286 287
3 288 289 290
3 291 292 293
3 294 295 296
3 297 298 299
3 300 301 302
3 303 304 305
3 306 307 308
3 309 310 311
3 312 313 314
3 315 316 317
3 318 319 320
3 321 322 323
3 324 325 326
3 327 328 329
3 330 331 332
3 333 334 335
3 336 337 338
3 339 340 341
3 342 343 344
3 345 346 347
3 348 349 350
3 351 352 353
3 354 355 356
3 357 358 359
3 360 361 362
3 363 364 365
3 366 367 368
3 369 370 371
3 372 373 374
3 375 376 377
3 378 379 380
3 381 382 383
3 384 385 386
3 387 388 389
3 390 391 392
3 393 394 395
3 396 397 398
3 399 400 401
3 402 403 404
3 405 406 407
3 408 409 410
3 411 412 413
3 414 415 416
3 417 418 419
3 420 421 422
3 423 424 425
3 426 427 428
3 429 430 431
3 432 433 434
3 435 436 437
3 438 439 440
3 441 442 443
3 444 445 446
3 447 448 449
3 450 451 452
3 453 454 455
3 456 457 458
3 459 460 461
3 462 463 464
3 465 466 467
3 468 469 470
3 471 472 473
3 474 475 476
3 477 478 479
3 480 481 482
3 483 484 485
3 486 487 488
3 489 490 491
3 492 493 494
3 495 496 497
3 498 499 500
3 501 502 503
3 504 505 506
3 507 508 509
3 510 511 512
3 513 514 515
3 516 517 518
