ply
format ascii 1.0
comment Created by Blender 2.77 (sub 0) - www.blender.org, source file: ''
element vertex 387
property float x
property float y
property float z
property float nx
property float ny
property float nz
property uchar red
property uchar green
property uchar blue
element face 129
property list uchar uint vertex_indices
end_header
0.417717 0.780463 0.388395 0.159248 0.332782 0.929460 51 51 51
-0.036784 2.016651 0.023664 0.159248 0.332782 0.929460 51 51 51
0.227415 0.832771 0.402272 0.159248 0.332782 0.929460 51 51 51
0.227415 0.832771 0.402272 0.811496 0.334361 0.479246 51 51 51
-0.036784 2.016651 0.023664 0.811496 0.334361 0.479246 51 51 51
0.147560 0.820537 0.546024 0.811496 0.334361 0.479246 51 51 51
0.147560 0.820537 0.546024 -0.002117 0.399940 0.916539 51 51 51
-0.036784 2.016651 0.023664 -0.002117 0.399940 0.916539 51 51 51
-0.030650 0.766406 0.569233 -0.002117 0.399940 0.916539 51 51 51
-0.030650 0.766406 0.569233 -0.583995 0.322253 0.745052 51 51 51
-0.036784 2.016651 0.023664 -0.583995 0.322253 0.745052 51 51 51
-0.163110 0.758071 0.469012 -0.583995 0.322253 0.745052 51 51 51
-0.163110 0.758071 0.469012 -0.032730 0.336321 0.941179 51 51 51
-0.036784 2.016651 0.023664 -0.032730 0.336321 0.941179 51 51 51
-0.326800 0.771161 0.458642 -0.032730 0.336321 0.941179 51 51 51
-0.326800 0.771161 0.458642 -0.500560 0.387004 0.774382 51 51 51
-0.036784 2.016651 0.023664 -0.500560 0.387004 0.774382 51 51 51
-0.441662 0.809586 0.365192 -0.500560 0.387004 0.774382 51 51 51
-0.441662 0.809586 0.365192 -0.932146 0.344340 0.111952 51 51 51
-0.036784 2.016651 0.023664 -0.932146 0.344340 0.111952 51 51 51
-0.437302 0.880443 0.183554 -0.932146 0.344340 0.111952 51 51 51
-0.437302 0.880443 0.183554 -0.673747 0.330507 0.660931 51 51 51
-0.036784 2.016651 0.023664 -0.673747 0.330507 0.660931 51 51 51
-0.553777 0.879216 0.065434 -0.673747 0.330507 0.660931 51 51 51
-0.553777 0.879216 0.065434 -0.910422 0.412845 -0.026266 51 51 51
-0.036784 2.016651 0.023664 -0.910422 0.412845 -0.026266 51 51 51
-0.553224 0.870511 -0.090558 -0.910422 0.412845 -0.026266 51 51 51
-0.553224 0.870511 -0.090558 -0.641496 0.356734 -0.679134 51 51 51
-0.036784 2.016651 0.023664 -0.641496 0.356734 -0.679134 51 51 51
-0.448130 0.825951 -0.213234 -0.641496 0.356734 -0.679134 51 51 51
-0.448130 0.825951 -0.213234 -0.936593 0.340242 -0.083843 51 51 51
-0.036784 2.016651 0.023664 -0.936593 0.340242 -0.083843 51 51 51
-0.432912 0.826433 -0.381275 -0.936593 0.340242 -0.083843 51 51 51
-0.432912 0.826433 -0.381275 -0.619822 0.429695 -0.656646 51 51 51
-0.036784 2.016651 0.023664 -0.619822 0.429695 -0.656646 51 51 51
-0.309859 0.850687 -0.481556 -0.619822 0.429695 -0.656646 51 51 51
-0.309859 0.850687 -0.481556 0.076152 0.381363 -0.921283 51 51 51
-0.036784 2.016651 0.023664 0.076152 0.381363 -0.921283 51 51 51
-0.139681 0.873087 -0.458217 0.076152 0.381363 -0.921283 51 51 51
-0.139681 0.873087 -0.458217 -0.920431 0.219205 -0.323660 51 51 51
-0.036784 2.016651 0.023664 -0.920431 0.219205 -0.323660 51 51 51
-0.107210 0.881092 -0.545137 -0.920431 0.219205 -0.323660 51 51 51
-0.036784 2.016651 0.023664 0.646944 0.392563 -0.653726 51 51 51
0.149726 0.880208 -0.474195 0.646944 0.392563 -0.653726 51 51 51
0.062754 0.893588 -0.552230 0.646944 0.392563 -0.653726 51 51 51
0.149726 0.880208 -0.474195 0.082442 0.411224 -0.907799 51 51 51
-0.036784 2.016651 0.023664 0.082442 0.411224 -0.907799 51 51 51
0.317287 0.836816 -0.478634 0.082442 0.411224 -0.907799 51 51 51
0.317287 0.836816 -0.478634 0.593976 0.459411 -0.660405 51 51 51
-0.036784 2.016651 0.023664 0.593976 0.459411 -0.660405 51 51 51
0.428486 0.848098 -0.370772 0.593976 0.459411 -0.660405 51 51 51
0.428486 0.848098 -0.370772 0.907637 0.402074 -0.120549 51 51 51
-0.036784 2.016651 0.023664 0.907637 0.402074 -0.120549 51 51 51
0.421959 0.914375 -0.198857 0.907637 0.402074 -0.120549 51 51 51
0.421959 0.914375 -0.198857 0.678995 0.406054 -0.611625 51 51 51
-0.036784 2.016651 0.023664 0.678995 0.406054 -0.611625 51 51 51
0.535053 0.914453 -0.073254 0.678995 0.406054 -0.611625 51 51 51
0.535053 0.914453 -0.073254 0.884588 0.447343 0.131861 51 51 51
-0.036784 2.016651 0.023664 0.884588 0.447343 0.131861 51 51 51
0.563455 0.810150 0.090063 0.884588 0.447343 0.131861 51 51 51
0.563455 0.810150 0.090063 0.660136 0.364564 0.656745 51 51 51
-0.036784 2.016651 0.023664 0.660136 0.364564 0.656745 51 51 51
0.450607 0.801115 0.208509 0.660136 0.364564 0.656745 51 51 51
0.450607 0.801115 0.208509 0.896330 0.391150 0.208790 51 51 51
-0.036784 2.016651 0.023664 0.896330 0.391150 0.208790 51 51 51
0.417717 0.780463 0.388395 0.896330 0.391150 0.208790 51 51 51
-0.011642 0.937695 0.013663 -0.049715 -0.923333 -0.380769 51 51 51
-0.163110 0.758071 0.469012 -0.049715 -0.923333 -0.380769 51 51 51
-0.326800 0.771161 0.458642 -0.049715 -0.923333 -0.380769 51 51 51
-0.107210 0.881092 -0.545137 -0.070250 0.450230 -0.890145 51 51 51
-0.036784 2.016651 0.023664 -0.070250 0.450230 -0.890145 51 51 51
0.062754 0.893588 -0.552230 -0.070250 0.450230 -0.890145 51 51 51
0.147560 0.820537 0.546024 0.255483 -0.925365 -0.280050 51 51 51
-0.163110 0.758071 0.469012 0.255483 -0.925365 -0.280050 51 51 51
-0.011642 0.937695 0.013663 0.255483 -0.925365 -0.280050 51 51 51
0.428486 0.848098 -0.370772 -0.228318 -0.915541 0.331144 51 51 51
0.149726 0.880208 -0.474195 -0.228318 -0.915541 0.331144 51 51 51
0.317287 0.836816 -0.478634 -0.228318 -0.915541 0.331144 51 51 51
-0.011642 0.937695 0.013663 0.098628 -0.991318 -0.086957 51 51 51
-0.437302 0.880443 0.183554 0.098628 -0.991318 -0.086957 51 51 51
-0.553777 0.879216 0.065434 0.098628 -0.991318 -0.086957 51 51 51
-0.437302 0.880443 0.183554 -0.019931 -0.931276 -0.363769 51 51 51
-0.011642 0.937695 0.013663 -0.019931 -0.931276 -0.363769 51 51 51
-0.441662 0.809586 0.365192 -0.019931 -0.931276 -0.363769 51 51 51
-0.441662 0.809586 0.365192 -0.017770 -0.932215 -0.361468 51 51 51
-0.011642 0.937695 0.013663 -0.017770 -0.932215 -0.361468 51 51 51
-0.326800 0.771161 0.458642 -0.017770 -0.932215 -0.361468 51 51 51
0.227415 0.832771 0.402272 -0.153780 -0.973668 -0.168290 51 51 51
0.147560 0.820537 0.546024 -0.153780 -0.973668 -0.168290 51 51 51
-0.011642 0.937695 0.013663 -0.153780 -0.973668 -0.168290 51 51 51
0.417717 0.780463 0.388395 -0.270170 -0.958353 -0.092556 51 51 51
0.227415 0.832771 0.402272 -0.270170 -0.958353 -0.092556 51 51 51
-0.011642 0.937695 0.013663 -0.270170 -0.958353 -0.092556 51 51 51
0.450607 0.801115 0.208509 -0.221024 -0.963503 -0.151028 51 51 51
0.417717 0.780463 0.388395 -0.221024 -0.963503 -0.151028 51 51 51
-0.011642 0.937695 0.013663 -0.221024 -0.963503 -0.151028 51 51 51
0.563455 0.810150 0.090063 -0.179088 -0.953265 -0.243339 51 51 51
0.450607 0.801115 0.208509 -0.179088 -0.953265 -0.243339 51 51 51
-0.011642 0.937695 0.013663 -0.179088 -0.953265 -0.243339 51 51 51
0.535053 0.914453 -0.073254 -0.118597 -0.846066 -0.519718 51 51 51
0.563455 0.810150 0.090063 -0.118597 -0.846066 -0.519718 51 51 51
-0.011642 0.937695 0.013663 -0.118597 -0.846066 -0.519718 51 51 51
0.421959 0.914375 -0.198857 -0.037056 -0.998735 0.033986 51 51 51
0.535053 0.914453 -0.073254 -0.037056 -0.998735 0.033986 51 51 51
-0.011642 0.937695 0.013663 -0.037056 -0.998735 0.033986 51 51 51
0.428486 0.848098 -0.370772 0.127247 -0.923846 0.360994 51 51 51
0.421959 0.914375 -0.198857 0.127247 -0.923846 0.360994 51 51 51
-0.011642 0.937695 0.013663 0.127247 -0.923846 0.360994 51 51 51
0.149726 0.880208 -0.474195 -0.196020 -0.979296 0.050558 51 51 51
-0.011642 0.937695 0.013663 -0.196020 -0.979296 0.050558 51 51 51
0.062754 0.893588 -0.552230 -0.196020 -0.979296 0.050558 51 51 51
0.062754 0.893588 -0.552230 0.076674 -0.993210 0.087493 51 51 51
-0.011642 0.937695 0.013663 0.076674 -0.993210 0.087493 51 51 51
-0.107210 0.881092 -0.545137 0.076674 -0.993210 0.087493 51 51 51
-0.107210 0.881092 -0.545137 0.334390 -0.941660 0.038196 51 51 51
-0.011642 0.937695 0.013663 0.334390 -0.941660 0.038196 51 51 51
-0.139681 0.873087 -0.458217 0.334390 -0.941660 0.038196 51 51 51
-0.139681 0.873087 -0.458217 0.139353 -0.987909 -0.067939 51 51 51
-0.432912 0.826433 -0.381275 0.139353 -0.987909 -0.067939 51 51 51
-0.309859 0.850687 -0.481556 0.139353 -0.987909 -0.067939 51 51 51
-0.432912 0.826433 -0.381275 0.238764 -0.970895 0.018838 51 51 51
-0.011642 0.937695 0.013663 0.238764 -0.970895 0.018838 51 51 51
-0.448130 0.825951 -0.213234 0.238764 -0.970895 0.018838 51 51 51
-0.448130 0.825951 -0.213234 0.043077 -0.926634 0.373488 51 51 51
-0.011642 0.937695 0.013663 0.043077 -0.926634 0.373488 51 51 51
-0.553224 0.870511 -0.090558 0.043077 -0.926634 0.373488 51 51 51
-0.553224 0.870511 -0.090558 0.112341 -0.992104 0.055762 51 51 51
-0.011642 0.937695 0.013663 0.112341 -0.992104 0.055762 51 51 51
-0.553777 0.879216 0.065434 0.112341 -0.992104 0.055762 51 51 51
0.137490 1.277342 0.405571 0.082115 0.298317 0.950928 51 51 51
-0.037068 2.297196 0.100705 0.082115 0.298317 0.950928 51 51 51
-0.015286 1.304630 0.410203 0.082115 0.298317 0.950928 51 51 51
-0.015286 1.304630 0.410203 0.625042 0.244835 0.741201 51 51 51
-0.037068 2.297196 0.100705 0.625042 0.244835 0.741201 51 51 51
-0.121421 1.347854 0.485427 0.625042 0.244835 0.741201 51 51 51
-0.121421 1.347854 0.485427 -0.418298 0.372824 0.828268 51 51 51
-0.037068 2.297196 0.100705 -0.418298 0.372824 0.828268 51 51 51
-0.262535 1.326028 0.423985 -0.418298 0.372824 0.828268 51 51 51
-0.262535 1.326028 0.423985 -0.732949 0.361909 0.576028 51 51 51
-0.037068 2.297196 0.100705 -0.732949 0.361909 0.576028 51 51 51
-0.342757 1.356995 0.302453 -0.732949 0.361909 0.576028 51 51 51
-0.342757 1.356995 0.302453 -0.318869 0.296822 0.900122 51 51 51
-0.037068 2.297196 0.100705 -0.318869 0.296822 0.900122 51 51 51
-0.481040 1.389732 0.242671 -0.318869 0.296822 0.900122 51 51 51
-0.481040 1.389732 0.242671 -0.899657 0.423629 -0.105623 51 51 51
-0.037068 2.297196 0.100705 -0.899657 0.423629 -0.105623 51 51 51
-0.436877 1.431049 0.032215 -0.899657 0.423629 -0.105623 51 51 51
-0.436877 1.431049 0.032215 -0.864656 0.372464 0.337106 51 51 51
-0.037068 2.297196 0.100705 -0.864656 0.372464 0.337106 51 51 51
-0.481215 1.423971 -0.073689 -0.864656 0.372464 0.337106 51 51 51
-0.481215 1.423971 -0.073689 -0.792859 0.478610 -0.377236 51 51 51
-0.037068 2.297196 0.100705 -0.792859 0.478610 -0.377236 51 51 51
-0.438192 1.400122 -0.194371 -0.792859 0.478610 -0.377236 51 51 51
-0.438192 1.400122 -0.194371 -0.314771 0.420629 -0.850876 51 51 51
-0.037068 2.297196 0.100705 -0.314771 0.420629 -0.850876 51 51 51
-0.316100 1.385716 -0.246659 -0.314771 0.420629 -0.850876 51 51 51
-0.316100 1.385716 -0.246659 -0.829918 0.401628 -0.387209 51 51 51
-0.037068 2.297196 0.100705 -0.829918 0.401628 -0.387209 51 51 51
-0.254501 1.397730 -0.366225 -0.829918 0.401628 -0.387209 51 51 51
-0.254501 1.397730 -0.366225 -0.173429 0.486456 -0.856320 51 51 51
-0.037068 2.297196 0.100705 -0.173429 0.486456 -0.856320 51 51 51
-0.136722 1.376079 -0.402378 -0.173429 0.486456 -0.856320 51 51 51
-0.136722 1.376079 -0.402378 0.423647 0.398462 -0.813481 51 51 51
-0.037068 2.297196 0.100705 0.423647 0.398462 -0.813481 51 51 51
-0.018748 1.361484 -0.348088 0.423647 0.398462 -0.813481 51 51 51
-0.018748 1.361484 -0.348088 -0.565803 0.347547 -0.747715 51 51 51
-0.037068 2.297196 0.100705 -0.565803 0.347547 -0.747715 51 51 51
0.057347 1.380984 -0.396606 -0.565803 0.347547 -0.747715 51 51 51
-0.037068 2.297196 0.100705 0.936709 0.289236 -0.197278 51 51 51
0.190806 1.319853 -0.250226 0.936709 0.289236 -0.197278 51 51 51
0.161431 1.360567 -0.330011 0.936709 0.289236 -0.197278 51 51 51
0.190806 1.319853 -0.250226 0.402596 0.391048 -0.827646 51 51 51
-0.037068 2.297196 0.100705 0.402596 0.391048 -0.827646 51 51 51
0.363038 1.350326 -0.152049 0.402596 0.391048 -0.827646 51 51 51
0.363038 1.350326 -0.152049 0.924689 0.352020 0.145027 51 51 51
-0.037068 2.297196 0.100705 0.924689 0.352020 0.145027 51 51 51
0.309876 1.417188 0.024616 0.924689 0.352020 0.145027 51 51 51
0.309876 1.417188 0.024616 0.884542 0.372955 -0.280160 51 51 51
-0.037068 2.297196 0.100705 0.884542 0.372955 -0.280160 51 51 51
0.353486 1.407093 0.148866 0.884542 0.372955 -0.280160 51 51 51
0.353486 1.407093 0.148866 0.647102 0.321340 0.691375 51 51 51
-0.037068 2.297196 0.100705 0.647102 0.321340 0.691375 51 51 51
0.238644 1.243675 0.332308 0.647102 0.321340 0.691375 51 51 51
0.238644 1.243675 0.332308 0.623287 0.319978 0.713531 51 51 51
-0.037068 2.297196 0.100705 0.623287 0.319978 0.713531 51 51 51
0.137490 1.277342 0.405571 0.623287 0.319978 0.713531 51 51 51
-0.018442 1.419888 0.090164 -0.060726 -0.927963 -0.367692 51 51 51
-0.342757 1.356995 0.302453 -0.060726 -0.927963 -0.367692 51 51 51
-0.481040 1.389732 0.242671 -0.060726 -0.927963 -0.367692 51 51 51
0.057347 1.380984 -0.396606 0.543211 0.443077 -0.713166 51 51 51
-0.037068 2.297196 0.100705 0.543211 0.443077 -0.713166 51 51 51
0.161431 1.360567 -0.330011 0.543211 0.443077 -0.713166 51 51 51
-0.121421 1.347854 0.485427 0.088516 -0.983748 -0.156220 51 51 51
-0.342757 1.356995 0.302453 0.088516 -0.983748 -0.156220 51 51 51
-0.018442 1.419888 0.090164 0.088516 -0.983748 -0.156220 51 51 51
-0.018442 1.419888 0.090164 -0.037983 -0.995870 0.082459 51 51 51
-0.436877 1.431049 0.032215 -0.037983 -0.995870 0.082459 51 51 51
-0.481215 1.423971 -0.073689 -0.037983 -0.995870 0.082459 51 51 51
-0.436877 1.431049 0.032215 0.000491 -0.981288 -0.192544 51 51 51
-0.018442 1.419888 0.090164 0.000491 -0.981288 -0.192544 51 51 51
-0.481040 1.389732 0.242671 0.000491 -0.981288 -0.192544 51 51 51
-0.015286 1.304630 0.410203 -0.527100 -0.801178 -0.283336 51 51 51
-0.121421 1.347854 0.485427 -0.527100 -0.801178 -0.283336 51 51 51
-0.018442 1.419888 0.090164 -0.527100 -0.801178 -0.283336 51 51 51
0.137490 1.277342 0.405571 -0.175603 -0.926777 -0.332035 51 51 51
-0.015286 1.304630 0.410203 -0.175603 -0.926777 -0.332035 51 51 51
-0.018442 1.419888 0.090164 -0.175603 -0.926777 -0.332035 51 51 51
0.238644 1.243675 0.332308 -0.429478 -0.883511 -0.186970 51 51 51
0.137490 1.277342 0.405571 -0.429478 -0.883511 -0.186970 51 51 51
-0.018442 1.419888 0.090164 -0.429478 -0.883511 -0.186970 51 51 51
0.353486 1.407093 0.148866 0.074155 -0.767236 -0.637064 51 51 51
0.238644 1.243675 0.332308 0.074155 -0.767236 -0.637064 51 51 51
-0.018442 1.419888 0.090164 0.074155 -0.767236 -0.637064 51 51 51
0.309876 1.417188 0.024616 -0.022777 -0.997071 -0.073015 51 51 51
0.353486 1.407093 0.148866 -0.022777 -0.997071 -0.073015 51 51 51
-0.018442 1.419888 0.090164 -0.022777 -0.997071 -0.073015 51 51 51
0.363038 1.350326 -0.152049 0.066370 -0.926421 0.370594 51 51 51
0.309876 1.417188 0.024616 0.066370 -0.926421 0.370594 51 51 51
-0.018442 1.419888 0.090164 0.066370 -0.926421 0.370594 51 51 51
0.190806 1.319853 -0.250226 -0.625100 -0.764026 -0.159733 51 51 51
-0.018442 1.419888 0.090164 -0.625100 -0.764026 -0.159733 51 51 51
0.161431 1.360567 -0.330011 -0.625100 -0.764026 -0.159733 51 51 51
0.161431 1.360567 -0.330011 -0.219201 -0.974697 0.043772 51 51 51
-0.018442 1.419888 0.090164 -0.219201 -0.974697 0.043772 51 51 51
0.057347 1.380984 -0.396606 -0.219201 -0.974697 0.043772 51 51 51
0.057347 1.380984 -0.396606 0.320286 -0.939048 0.124919 51 51 51
-0.018442 1.419888 0.090164 0.320286 -0.939048 0.124919 51 51 51
-0.018748 1.361484 -0.348088 0.320286 -0.939048 0.124919 51 51 51
-0.018748 1.361484 -0.348088 -0.157303 -0.984532 0.077150 51 51 51
-0.254501 1.397730 -0.366225 -0.157303 -0.984532 0.077150 51 51 51
-0.136722 1.376079 -0.402378 -0.157303 -0.984532 0.077150 51 51 51
-0.254501 1.397730 -0.366225 0.142823 -0.989411 -0.025836 51 51 51
-0.018442 1.419888 0.090164 0.142823 -0.989411 -0.025836 51 51 51
-0.316100 1.385716 -0.246659 0.142823 -0.989411 -0.025836 51 51 51
-0.316100 1.385716 -0.246659 -0.053409 -0.987634 0.147398 51 51 51
-0.018442 1.419888 0.090164 -0.053409 -0.987634 0.147398 51 51 51
-0.438192 1.400122 -0.194371 -0.053409 -0.987634 0.147398 51 51 51
-0.438192 1.400122 -0.194371 -0.068779 -0.983083 0.169756 51 51 51
-0.018442 1.419888 0.090164 -0.068779 -0.983083 0.169756 51 51 51
-0.481215 1.423971 -0.073689 -0.068779 -0.983083 0.169756 51 51 51
-0.349639 1.815850 -0.071662 -0.681965 0.490206 -0.542790 51 51 51
0.000707 2.499989 0.106023 -0.681965 0.490206 -0.542790 51 51 51
-0.210321 1.902212 -0.168706 -0.681965 0.490206 -0.542790 51 51 51
-0.210321 1.902212 -0.168706 -0.235024 0.473174 -0.849041 51 51 51
0.000707 2.499989 0.106023 -0.235024 0.473174 -0.849041 51 51 51
-0.072449 1.873091 -0.223100 -0.235024 0.473174 -0.849041 51 51 51
-0.072449 1.873091 -0.223100 0.042204 0.460556 -0.886627 51 51 51
0.000707 2.499989 0.106023 0.042204 0.460556 -0.886627 51 51 51
0.118796 1.895958 -0.202118 0.042204 0.460556 -0.886627 51 51 51
0.118796 1.895958 -0.202118 0.868247 0.349421 -0.352210 51 51 51
0.000707 2.499989 0.106023 0.868247 0.349421 -0.352210 51 51 51
0.154217 1.929668 -0.081359 0.868247 0.349421 -0.352210 51 51 51
0.154217 1.929668 -0.081359 0.634853 0.390016 -0.666970 51 51 51
0.000707 2.499989 0.106023 0.634853 0.390016 -0.666970 51 51 51
0.250547 1.914746 0.001607 0.634853 0.390016 -0.666970 51 51 51
0.250547 1.914746 0.001607 0.882219 0.314027 0.350822 51 51 51
0.000707 2.499989 0.106023 0.882219 0.314027 0.350822 51 51 51
0.207344 1.879644 0.141671 0.882219 0.314027 0.350822 51 51 51
0.207344 1.879644 0.141671 0.947611 0.311615 -0.070204 51 51 51
0.000707 2.499989 0.106023 0.947611 0.311615 -0.070204 51 51 51
0.206804 1.908547 0.262676 0.947611 0.311615 -0.070204 51 51 51
0.206804 1.908547 0.262676 0.433341 0.368807 0.822312 51 51 51
0.000707 2.499989 0.106023 0.433341 0.368807 0.822312 51 51 51
0.056339 1.930759 0.332006 0.433341 0.368807 0.822312 51 51 51
-0.084532 1.901570 0.359601 0.075120 0.379970 0.921943 51 51 51
0.000707 2.499989 0.106023 0.075120 0.379970 0.921943 51 51 51
-0.226113 1.935662 0.357086 0.075120 0.379970 0.921943 51 51 51
-0.226113 1.935662 0.357086 -0.719610 0.502455 0.479271 51 51 51
0.000707 2.499989 0.106023 -0.719610 0.502455 0.479271 51 51 51
-0.304035 1.986014 0.187301 -0.719610 0.502455 0.479271 51 51 51
-0.304035 1.986014 0.187301 -0.857214 0.513775 0.034920 51 51 51
0.000707 2.499989 0.106023 -0.857214 0.513775 0.034920 51 51 51
-0.356192 1.907419 0.063308 -0.857214 0.513775 0.034920 51 51 51
-0.356192 1.907419 0.063308 -0.781645 0.497861 -0.375720 51 51 51
0.000707 2.499989 0.106023 -0.781645 0.497861 -0.375720 51 51 51
-0.349639 1.815850 -0.071662 -0.781645 0.497861 -0.375720 51 51 51
-0.101754 1.945024 0.057344 0.087026 -0.962742 0.256034 51 51 51
-0.072449 1.873091 -0.223100 0.087026 -0.962742 0.256034 51 51 51
0.118796 1.895958 -0.202118 0.087026 -0.962742 0.256034 51 51 51
0.056339 1.930759 0.332006 0.102581 0.375682 0.921054 51 51 51
0.000707 2.499989 0.106023 0.102581 0.375682 0.921054 51 51 51
-0.084532 1.901570 0.359601 0.102581 0.375682 0.921054 51 51 51
-0.210321 1.902212 -0.168706 -0.110781 -0.965406 0.236047 51 51 51
-0.072449 1.873091 -0.223100 -0.110781 -0.965406 0.236047 51 51 51
-0.101754 1.945024 0.057344 -0.110781 -0.965406 0.236047 51 51 51
-0.101754 1.945024 0.057344 -0.095981 -0.993114 -0.067180 51 51 51
0.154217 1.929668 -0.081359 -0.095981 -0.993114 -0.067180 51 51 51
0.250547 1.914746 0.001607 -0.095981 -0.993114 -0.067180 51 51 51
0.154217 1.929668 -0.081359 0.076071 -0.965941 0.247327 51 51 51
-0.101754 1.945024 0.057344 0.076071 -0.965941 0.247327 51 51 51
0.118796 1.895958 -0.202118 0.076071 -0.965941 0.247327 51 51 51
-0.349639 1.815850 -0.071662 0.489600 -0.869089 -0.070546 51 51 51
-0.210321 1.902212 -0.168706 0.489600 -0.869089 -0.070546 51 51 51
-0.101754 1.945024 0.057344 0.489600 -0.869089 -0.070546 51 51 51
-0.356192 1.907419 0.063308 0.133900 -0.817041 0.560816 51 51 51
-0.349639 1.815850 -0.071662 0.133900 -0.817041 0.560816 51 51 51
-0.101754 1.945024 0.057344 0.133900 -0.817041 0.560816 51 51 51
-0.304035 1.986014 0.187301 0.138806 -0.861806 0.487877 51 51 51
-0.356192 1.907419 0.063308 0.138806 -0.861806 0.487877 51 51 51
-0.101754 1.945024 0.057344 0.138806 -0.861806 0.487877 51 51 51
-0.226113 1.935662 0.357086 -0.287306 -0.946218 -0.148752 51 51 51
-0.304035 1.986014 0.187301 -0.287306 -0.946218 -0.148752 51 51 51
-0.101754 1.945024 0.057344 -0.287306 -0.946218 -0.148752 51 51 51
-0.084532 1.901570 0.359601 0.172384 -0.973575 -0.149787 51 51 51
-0.101754 1.945024 0.057344 0.172384 -0.973575 -0.149787 51 51 51
0.056339 1.930759 0.332006 0.172384 -0.973575 -0.149787 51 51 51
0.206804 1.908547 0.262676 -0.259640 -0.939544 0.223260 51 51 51
-0.101754 1.945024 0.057344 -0.259640 -0.939544 0.223260 51 51 51
0.207344 1.879644 0.141671 -0.259640 -0.939544 0.223260 51 51 51
0.207344 1.879644 0.141671 -0.125760 -0.952462 -0.277489 51 51 51
-0.101754 1.945024 0.057344 -0.125760 -0.952462 -0.277489 51 51 51
0.250547 1.914746 0.001607 -0.125760 -0.952462 -0.277489 51 51 51
-0.036475 0.331272 -0.049677 -0.499751 -0.032211 -0.865570 0 0 0
0.000000 -0.056313 -0.056313 -0.499751 -0.032211 -0.865570 0 0 0
-0.048768 -0.056313 -0.028156 -0.499751 -0.032211 -0.865570 0 0 0
0.000000 -0.056313 -0.056313 0.498970 -0.064466 -0.864218 0 0 0
0.061114 0.326731 -0.049601 0.498970 -0.064466 -0.864218 0 0 0
0.048768 -0.056313 -0.028156 0.498970 -0.064466 -0.864218 0 0 0
-0.036475 0.331272 -0.049677 -0.488198 0.012050 -0.872650 0 0 0
-0.044962 0.979693 -0.035976 -0.488198 0.012050 -0.872650 0 0 0
0.013589 0.354842 -0.077360 -0.488198 0.012050 -0.872650 0 0 0
0.054578 -0.056488 0.020064 0.987754 0.011441 0.155598 0 0 0
0.061114 0.326731 -0.049601 0.987754 0.011441 0.155598 0 0 0
0.039695 0.979870 0.038347 0.987754 0.011441 0.155598 0 0 0
0.005136 -0.056859 0.045547 -0.424745 -0.018032 0.905134 0 0 0
-0.057582 0.980098 0.036774 -0.424745 -0.018032 0.905134 0 0 0
-0.042831 -0.056676 0.023041 -0.424745 -0.018032 0.905134 0 0 0
0.005136 -0.056859 0.045547 0.509377 -0.011004 0.860473 0 0 0
0.039695 0.979870 0.038347 0.509377 -0.011004 0.860473 0 0 0
-0.009399 0.979942 0.067410 0.509377 -0.011004 0.860473 0 0 0
0.013589 0.354842 -0.077360 0.531937 0.065654 -0.844235 0 0 0
0.036818 0.979770 -0.014124 0.531937 0.065654 -0.844235 0 0 0
0.061114 0.326731 -0.049601 0.531937 0.065654 -0.844235 0 0 0
-0.057582 0.980098 0.036774 -0.985250 -0.009285 -0.170867 0 0 0
-0.044962 0.979693 -0.035976 -0.985250 -0.009285 -0.170867 0 0 0
-0.036475 0.331272 -0.049677 -0.985250 -0.009285 -0.170867 0 0 0
0.147560 0.820537 0.546024 0.250730 -0.934225 -0.253689 51 51 51
-0.030650 0.766406 0.569233 0.250730 -0.934225 -0.253689 51 51 51
-0.163110 0.758071 0.469012 0.250730 -0.934225 -0.253689 51 51 51
0.428486 0.848098 -0.370772 -0.139796 -0.987693 0.070145 51 51 51
-0.011642 0.937695 0.013663 -0.139796 -0.987693 0.070145 51 51 51
0.149726 0.880208 -0.474195 -0.139796 -0.987693 0.070145 51 51 51
-0.139681 0.873087 -0.458217 0.178462 -0.980200 0.085782 51 51 51
-0.011642 0.937695 0.013663 0.178462 -0.980200 0.085782 51 51 51
-0.432912 0.826433 -0.381275 0.178462 -0.980200 0.085782 51 51 51
-0.121421 1.347854 0.485427 0.316180 -0.848254 -0.424847 51 51 51
-0.262535 1.326028 0.423985 0.316180 -0.848254 -0.424847 51 51 51
-0.342757 1.356995 0.302453 0.316180 -0.848254 -0.424847 51 51 51
0.363038 1.350326 -0.152049 0.006676 -0.958287 0.285729 51 51 51
-0.018442 1.419888 0.090164 0.006676 -0.958287 0.285729 51 51 51
0.190806 1.319853 -0.250226 0.006676 -0.958287 0.285729 51 51 51
-0.018748 1.361484 -0.348088 -0.160460 -0.978378 0.130496 51 51 51
-0.018442 1.419888 0.090164 -0.160460 -0.978378 0.130496 51 51 51
-0.254501 1.397730 -0.366225 -0.160460 -0.978378 0.130496 51 51 51
-0.226113 1.935662 0.357086 -0.230138 -0.965016 -0.125622 51 51 51
-0.101754 1.945024 0.057344 -0.230138 -0.965016 -0.125622 51 51 51
-0.084532 1.901570 0.359601 -0.230138 -0.965016 -0.125622 51 51 51
0.056339 1.930759 0.332006 -0.134315 -0.990601 0.025861 51 51 51
-0.101754 1.945024 0.057344 -0.134315 -0.990601 0.025861 51 51 51
0.206804 1.908547 0.262676 -0.134315 -0.990601 0.025861 51 51 51
-0.042831 -0.056676 0.023041 -0.992599 0.037889 0.115374 0 0 0
-0.036475 0.331272 -0.049677 -0.992599 0.037889 0.115374 0 0 0
-0.048768 -0.056313 -0.028156 -0.992599 0.037889 0.115374 0 0 0
-0.036475 0.331272 -0.049677 -0.473034 -0.029441 -0.880552 0 0 0
0.013589 0.354842 -0.077360 -0.473034 -0.029441 -0.880552 0 0 0
0.000000 -0.056313 -0.056313 -0.473034 -0.029441 -0.880552 0 0 0
0.000000 -0.056313 -0.056313 0.476436 -0.060645 -0.877115 0 0 0
0.013589 0.354842 -0.077360 0.476436 -0.060645 -0.877115 0 0 0
0.061114 0.326731 -0.049601 0.476436 -0.060645 -0.877115 0 0 0
-0.042831 -0.056676 0.023041 -0.988494 -0.012067 -0.150777 0 0 0
-0.057582 0.980098 0.036774 -0.988494 -0.012067 -0.150777 0 0 0
-0.036475 0.331272 -0.049677 -0.988494 -0.012067 -0.150777 0 0 0
0.048768 -0.056313 -0.028156 0.992059 -0.038675 -0.119678 0 0 0
0.061114 0.326731 -0.049601 0.992059 -0.038675 -0.119678 0 0 0
0.054578 -0.056488 0.020064 0.992059 -0.038675 -0.119678 0 0 0
0.005136 -0.056859 0.045547 -0.536438 -0.025308 0.843560 0 0 0
-0.009399 0.979942 0.067410 -0.536438 -0.025308 0.843560 0 0 0
-0.057582 0.980098 0.036774 -0.536438 -0.025308 0.843560 0 0 0
0.005136 -0.056859 0.045547 0.458161 -0.009100 0.888823 0 0 0
0.054578 -0.056488 0.020064 0.458161 -0.009100 0.888823 0 0 0
0.039695 0.979870 0.038347 0.458161 -0.009100 0.888823 0 0 0
0.013589 0.354842 -0.077360 0.257074 0.087827 -0.962393 0 0 0
-0.044962 0.979693 -0.035976 0.257074 0.087827 -0.962393 0 0 0
0.036818 0.979770 -0.014124 0.257074 0.087827 -0.962393 0 0 0
0.039695 0.979870 0.038347 0.997694 0.040094 -0.054774 0 0 0
0.061114 0.326731 -0.049601 0.997694 0.040094 -0.054774 0 0 0
0.036818 0.979770 -0.014124 0.997694 0.040094 -0.054774 0 0 0
3 0 1 2
3 3 4 5
3 6 7 8
3 9 10 11
3 12 13 14
3 15 16 17
3 18 19 20
3 21 22 23
3 24 25 26
3 27 28 29
3 30 31 32
3 33 34 35
3 36 37 38
3 39 40 41
3 42 43 44
3 45 46 47
3 48 49 50
3 51 52 53
3 54 55 56
3 57 58 59
3 60 61 62
3 63 64 65
3 66 67 68
3 69 70 71
3 72 73 74
3 75 76 77
3 78 79 80
3 81 82 83
3 84 85 86
3 87 88 89
3 90 91 92
3 93 94 95
3 96 97 98
3 99 100 101
3 102 103 104
3 105 106 107
3 108 109 110
3 111 112 113
3 114 115 116
3 117 118 119
3 120 121 122
3 123 124 125
3 126 127 128
3 129 130 131
3 132 133 134
3 135 136 137
3 138 139 140
3 141 142 143
3 144 145 146
3 147 148 149
3 150 151 152
3 153 154 155
3 156 157 158
3 159 160 161
3 162 163 164
3 165 166 167
3 168 169 170
3 171 172 173
3 174 175 176
3 177 178 179
3 180 181 182
3 183 184 185
3 186 187 188
3 189 190 191
3 192 193 194
3 195 196 197
3 198 199 200
3 201 202 203
3 204 205 206
3 207 208 209
3 210 211 212
3 213 214 215
3 216 217 218
3 219 220 221
3 222 223 224
3 225 226 227
3 228 229 230
3 231 232 233
3 234 235 236
3 237 238 239
3 240 241 242
3 243 244 245
3 246 247 248
3 249 250 251
3 252 253 254
3 255 256 257
3 258 259 260
3 261 262 263
3 264 265 266
3 267 268 269
3 270 271 272
3 273 274 275
3 276 277 278
3 279 280 281
3 282 283 284
3 285 286 287
3 288 289 290
3 291 292 293
3 294 295 296
3 297 298 299
3 300 301 302
3 303 304 305
3 306 307 308
3 309 310 311
3 312 313 314
3 315 316 317
3 318 319 320
3 321 322 323
3 324 325 326
3 327 328 329
3 330 331 332
3 333 334 335
3 336 337 338
3 339 340 341
3 342 343 344
3 345 346 347
3 348 349 350
3 351 352 353
3 354 355 356
3 357 358 359
3 360 361 362
3 363 364 365
3 366 367 368
3 369 370 371
3 372 373 374
3 375 376 377
3 378 379 380
3 381 382 383
3 384 385 386
