ply
format ascii 1.0
comment Created by Blender 2.77 (sub 0) - www.blender.org, source file: 'NewTrees.blend'
element vertex 662
property float x
property float y
property float z
property float nx
property float ny
property float nz
property uchar red
property uchar green
property uchar blue
element face 232
property list uchar uint vertex_indices
end_header
-0.114785 1.055145 0.734561 -0.586982 0.296362 0.753407 51 51 51
-0.083447 2.601802 0.150580 -0.586982 0.296362 0.753407 51 51 51
-0.275365 1.137242 0.577158 -0.586982 0.296362 0.753407 51 51 51
-0.275365 1.137242 0.577158 0.179436 0.253360 0.950585 51 51 51
-0.083447 2.601802 0.150580 0.179436 0.253360 0.950585 51 51 51
-0.470597 1.126597 0.616848 0.179436 0.253360 0.950585 51 51 51
-0.470597 1.126597 0.616848 -0.679980 0.377189 0.628773 51 51 51
-0.083447 2.601802 0.150580 -0.679980 0.377189 0.628773 51 51 51
-0.635016 1.078908 0.467647 -0.679980 0.377189 0.628773 51 51 51
-0.635016 1.078908 0.467647 -0.932837 0.352942 0.072443 51 51 51
-0.083447 2.601802 0.150580 -0.932837 0.352942 0.072443 51 51 51
-0.648211 1.085227 0.266958 -0.932837 0.352942 0.072443 51 51 51
-0.648211 1.085227 0.266958 -0.720995 0.315824 0.616783 51 51 51
-0.083447 2.601802 0.150580 -0.720995 0.315824 0.616783 51 51 51
-0.767362 1.118021 0.110883 -0.720995 0.315824 0.616783 51 51 51
-0.767362 1.118021 0.110883 -0.898153 0.409714 0.159551 51 51 51
-0.083447 2.601802 0.150580 -0.898153 0.409714 0.159551 51 51 51
-0.770735 1.178707 -0.063944 -0.898153 0.409714 0.159551 51 51 51
-0.770735 1.178707 -0.063944 -0.680070 0.419120 -0.601534 51 51 51
-0.083447 2.601802 0.150580 -0.680070 0.419120 -0.601534 51 51 51
-0.597752 1.268792 -0.196744 -0.680070 0.419120 -0.601534 51 51 51
-0.597752 1.268792 -0.196744 -0.927434 0.370706 -0.049438 51 51 51
-0.083447 2.601802 0.150580 -0.927434 0.370706 -0.049438 51 51 51
-0.581614 1.282549 -0.396335 -0.927434 0.370706 -0.049438 51 51 51
-0.581614 1.282549 -0.396335 -0.558717 0.488754 -0.670041 51 51 51
-0.083447 2.601802 0.150580 -0.558717 0.488754 -0.670041 51 51 51
-0.438739 1.276406 -0.519953 -0.558717 0.488754 -0.670041 51 51 51
-0.438739 1.276406 -0.519953 0.108757 0.425384 -0.898454 51 51 51
-0.083447 2.601802 0.150580 0.108757 0.425384 -0.898454 51 51 51
-0.245461 1.215426 -0.525428 0.108757 0.425384 -0.898454 51 51 51
-0.245461 1.215426 -0.525428 -0.534949 0.419983 -0.733106 51 51 51
-0.083447 2.601802 0.150580 -0.534949 0.419983 -0.733106 51 51 51
-0.079557 1.219197 -0.644329 -0.534949 0.419983 -0.733106 51 51 51
-0.079557 1.219197 -0.644329 0.108618 0.495710 -0.861669 51 51 51
-0.083447 2.601802 0.150580 0.108618 0.495710 -0.861669 51 51 51
0.110525 1.238688 -0.609155 0.108618 0.495710 -0.861669 51 51 51
0.110525 1.238688 -0.609155 0.761253 0.394968 -0.514290 51 51 51
-0.083447 2.601802 0.150580 0.761253 0.394968 -0.514290 51 51 51
0.224537 1.247639 -0.433520 0.761253 0.394968 -0.514290 51 51 51
0.224537 1.247639 -0.433520 -0.347457 0.303645 -0.887171 51 51 51
-0.083447 2.601802 0.150580 -0.347457 0.303645 -0.887171 51 51 51
0.330127 1.256424 -0.471867 -0.347457 0.303645 -0.887171 51 51 51
-0.083447 2.601802 0.150580 0.931670 0.351677 0.091189 51 51 51
0.467991 1.227103 -0.181797 0.931670 0.351677 0.091189 51 51 51
0.471385 1.254319 -0.321428 0.931670 0.351677 0.091189 51 51 51
0.467991 1.227103 -0.181797 0.756275 0.423867 -0.498383 51 51 51
-0.083447 2.601802 0.150580 0.756275 0.423867 -0.498383 51 51 51
0.602381 1.157810 -0.036800 0.756275 0.423867 -0.498383 51 51 51
0.602381 1.157810 -0.036800 0.904671 0.422898 0.052231 51 51 51
-0.083447 2.601802 0.150580 0.904671 0.422898 0.052231 51 51 51
0.591926 1.156999 0.150839 0.904671 0.422898 0.052231 51 51 51
0.591926 1.156999 0.150839 0.698639 0.326693 0.636533 51 51 51
-0.083447 2.601802 0.150580 0.698639 0.326693 0.636533 51 51 51
0.432372 1.232693 0.287112 0.698639 0.326693 0.636533 51 51 51
0.432372 1.232693 0.287112 0.921231 0.361428 0.143886 51 51 51
-0.083447 2.601802 0.150580 0.921231 0.361428 0.143886 51 51 51
0.406661 1.217685 0.489426 0.921231 0.361428 0.143886 51 51 51
0.406661 1.217685 0.489426 0.494279 0.367844 0.787641 51 51 51
-0.083447 2.601802 0.150580 0.494279 0.367844 0.787641 51 51 51
0.274801 1.084459 0.634393 0.494279 0.367844 0.787641 51 51 51
0.274801 1.084459 0.634393 -0.052532 0.292087 0.954948 51 51 51
-0.083447 2.601802 0.150580 -0.052532 0.292087 0.954948 51 51 51
0.076835 1.081756 0.624330 -0.052532 0.292087 0.954948 51 51 51
0.076835 1.081756 0.624330 0.441609 0.309080 0.842289 51 51 51
-0.083447 2.601802 0.150580 0.441609 0.309080 0.842289 51 51 51
-0.114785 1.055145 0.734561 0.441609 0.309080 0.842289 51 51 51
-0.103510 1.299101 0.062270 0.221015 -0.906697 -0.359239 51 51 51
-0.648211 1.085227 0.266958 0.221015 -0.906697 -0.359239 51 51 51
-0.767362 1.118021 0.110883 0.221015 -0.906697 -0.359239 51 51 51
0.330127 1.256424 -0.471867 0.644738 0.475206 -0.598742 51 51 51
-0.083447 2.601802 0.150580 0.644738 0.475206 -0.598742 51 51 51
0.471385 1.254319 -0.321428 0.644738 0.475206 -0.598742 51 51 51
-0.470597 1.126597 0.616848 0.343877 -0.936846 -0.063789 51 51 51
-0.648211 1.085227 0.266958 0.343877 -0.936846 -0.063789 51 51 51
-0.103510 1.299101 0.062270 0.343877 -0.936846 -0.063789 51 51 51
0.591926 1.156999 0.150839 -0.434012 -0.900470 -0.028071 51 51 51
0.467991 1.227103 -0.181797 -0.434012 -0.900470 -0.028071 51 51 51
0.602381 1.157810 -0.036800 -0.434012 -0.900470 -0.028071 51 51 51
-0.103510 1.299101 0.062270 0.092906 -0.993805 -0.060988 51 51 51
-0.597752 1.268792 -0.196744 0.092906 -0.993805 -0.060988 51 51 51
-0.581614 1.282549 -0.396335 0.092906 -0.993805 -0.060988 51 51 51
-0.597752 1.268792 -0.196744 0.227287 -0.917521 -0.326338 51 51 51
-0.103510 1.299101 0.062270 0.227287 -0.917521 -0.326338 51 51 51
-0.770735 1.178707 -0.063944 0.227287 -0.917521 -0.326338 51 51 51
-0.770735 1.178707 -0.063944 0.226920 -0.918694 -0.323278 51 51 51
-0.103510 1.299101 0.062270 0.226920 -0.918694 -0.323278 51 51 51
-0.767362 1.118021 0.110883 0.226920 -0.918694 -0.323278 51 51 51
-0.275365 1.137242 0.577158 -0.009592 -0.953010 -0.302787 51 51 51
-0.470597 1.126597 0.616848 -0.009592 -0.953010 -0.302787 51 51 51
-0.103510 1.299101 0.062270 -0.009592 -0.953010 -0.302787 51 51 51
-0.114785 1.055145 0.734561 -0.142286 -0.929692 -0.339746 51 51 51
-0.275365 1.137242 0.577158 -0.142286 -0.929692 -0.339746 51 51 51
-0.103510 1.299101 0.062270 -0.142286 -0.929692 -0.339746 51 51 51
0.076835 1.081756 0.624330 -0.066151 -0.937609 -0.341341 51 51 51
-0.114785 1.055145 0.734561 -0.066151 -0.937609 -0.341341 51 51 51
-0.103510 1.299101 0.062270 -0.066151 -0.937609 -0.341341 51 51 51
0.274801 1.084459 0.634393 0.031454 -0.928797 -0.369252 51 51 51
0.076835 1.081756 0.624330 0.031454 -0.928797 -0.369252 51 51 51
-0.103510 1.299101 0.062270 0.031454 -0.928797 -0.369252 51 51 51
0.406661 1.217685 0.489426 0.284124 -0.820667 -0.495761 51 51 51
0.274801 1.084459 0.634393 0.284124 -0.820667 -0.495761 51 51 51
-0.103510 1.299101 0.062270 0.284124 -0.820667 -0.495761 51 51 51
0.432372 1.232693 0.287112 -0.087443 -0.992558 -0.084744 51 51 51
0.406661 1.217685 0.489426 -0.087443 -0.992558 -0.084744 51 51 51
-0.103510 1.299101 0.062270 -0.087443 -0.992558 -0.084744 51 51 51
0.591926 1.156999 0.150839 -0.224890 -0.939463 0.258524 51 51 51
0.432372 1.232693 0.287112 -0.224890 -0.939463 0.258524 51 51 51
-0.103510 1.299101 0.062270 -0.224890 -0.939463 0.258524 51 51 51
0.467991 1.227103 -0.181797 -0.202991 -0.960156 -0.192082 51 51 51
-0.103510 1.299101 0.062270 -0.202991 -0.960156 -0.192082 51 51 51
0.471385 1.254319 -0.321428 -0.202991 -0.960156 -0.192082 51 51 51
0.471385 1.254319 -0.321428 -0.053514 -0.997908 0.036286 51 51 51
-0.103510 1.299101 0.062270 -0.053514 -0.997908 0.036286 51 51 51
0.330127 1.256424 -0.471867 -0.053514 -0.997908 0.036286 51 51 51
0.330127 1.256424 -0.471867 0.153909 -0.967170 0.202225 51 51 51
-0.103510 1.299101 0.062270 0.153909 -0.967170 0.202225 51 51 51
0.224537 1.247639 -0.433520 0.153909 -0.967170 0.202225 51 51 51
0.224537 1.247639 -0.433520 0.105218 -0.994293 -0.017627 51 51 51
-0.079557 1.219197 -0.644329 0.105218 -0.994293 -0.017627 51 51 51
0.110525 1.238688 -0.609155 0.105218 -0.994293 -0.017627 51 51 51
-0.079557 1.219197 -0.644329 0.105058 -0.987764 0.115260 51 51 51
-0.103510 1.299101 0.062270 0.105058 -0.987764 0.115260 51 51 51
-0.245461 1.215426 -0.525428 0.105058 -0.987764 0.115260 51 51 51
-0.245461 1.215426 -0.525428 -0.289379 -0.935424 0.203079 51 51 51
-0.103510 1.299101 0.062270 -0.289379 -0.935424 0.203079 51 51 51
-0.438739 1.276406 -0.519953 -0.289379 -0.935424 0.203079 51 51 51
-0.438739 1.276406 -0.519953 -0.006182 -0.999077 0.042503 51 51 51
-0.103510 1.299101 0.062270 -0.006182 -0.999077 0.042503 51 51 51
-0.581614 1.282549 -0.396335 -0.006182 -0.999077 0.042503 51 51 51
-0.063125 -0.007473 0.099361 -0.499885 0.021468 0.865826 0 0 0
-0.107091 0.282935 0.066776 -0.499885 0.021468 0.865826 0 0 0
-0.112952 -0.007473 0.070593 -0.499885 0.021468 0.865826 0 0 0
-0.107091 0.282935 0.066776 -0.999796 0.020179 -0.000000 0 0 0
-0.112952 -0.007473 0.013057 -0.999796 0.020179 -0.000000 0 0 0
-0.112952 -0.007473 0.070593 -0.999796 0.020179 -0.000000 0 0 0
-0.107091 0.282935 0.009241 -0.500000 -0.001290 -0.866025 0 0 0
-0.063125 -0.007473 -0.015710 -0.500000 -0.001290 -0.866025 0 0 0
-0.112952 -0.007473 0.013057 -0.500000 -0.001290 -0.866025 0 0 0
-0.057264 0.282935 -0.019527 0.499885 -0.021468 -0.865826 0 0 0
-0.013297 -0.007473 0.013057 0.499885 -0.021468 -0.865826 0 0 0
-0.063125 -0.007473 -0.015710 0.499885 -0.021468 -0.865826 0 0 0
-0.107091 0.282935 0.009241 -0.999688 -0.024992 -0.000000 0 0 0
-0.115602 0.623383 0.060422 -0.999688 -0.024992 -0.000000 0 0 0
-0.115602 0.623383 0.002886 -0.999688 -0.024992 -0.000000 0 0 0
-0.013297 -0.007473 0.013057 0.999796 -0.020179 -0.000000 0 0 0
-0.007436 0.282935 0.066776 0.999796 -0.020179 -0.000000 0 0 0
-0.013297 -0.007473 0.070593 0.999796 -0.020179 -0.000000 0 0 0
-0.013297 -0.007473 0.070593 0.500000 0.001290 0.866025 0 0 0
-0.057264 0.282935 0.095544 0.500000 0.001290 0.866025 0 0 0
-0.063125 -0.007473 0.099361 0.500000 0.001290 0.866025 0 0 0
-0.115602 0.623383 0.002886 -0.499951 0.013898 -0.865942 0 0 0
-0.073905 0.986870 -0.015353 -0.499951 0.013898 -0.865942 0 0 0
-0.065775 0.623383 -0.025881 -0.499951 0.013898 -0.865942 0 0 0
-0.007436 0.282935 0.009241 0.999688 0.024992 -0.000000 0 0 0
-0.015947 0.623383 0.060422 0.999688 0.024992 -0.000000 0 0 0
-0.007436 0.282935 0.066776 0.999688 0.024992 -0.000000 0 0 0
-0.107091 0.282935 0.066776 -0.499997 0.003665 0.866020 0 0 0
-0.065775 0.623383 0.089190 -0.499997 0.003665 0.866020 0 0 0
-0.115602 0.623383 0.060422 -0.499997 0.003665 0.866020 0 0 0
-0.107091 0.282935 0.009241 -0.499794 -0.028652 -0.865670 0 0 0
-0.065775 0.623383 -0.025881 -0.499794 -0.028652 -0.865670 0 0 0
-0.057264 0.282935 -0.019527 -0.499794 -0.028652 -0.865670 0 0 0
-0.057264 0.282935 0.095544 0.499795 0.028652 0.865670 0 0 0
-0.015947 0.623383 0.060422 0.499795 0.028652 0.865670 0 0 0
-0.065775 0.623383 0.089190 0.499795 0.028652 0.865670 0 0 0
-0.057264 0.282935 -0.019527 0.499996 -0.003665 -0.866020 0 0 0
-0.015947 0.623383 0.002886 0.499996 -0.003665 -0.866020 0 0 0
-0.007436 0.282935 0.009241 0.499996 -0.003665 -0.866020 0 0 0
-0.123733 0.986870 0.070950 -0.997709 -0.067646 0.000001 0 0 0
-0.152157 1.406094 0.027822 -0.997709 -0.067646 0.000001 0 0 0
-0.123733 0.986870 0.013414 -0.997709 -0.067646 0.000001 0 0 0
-0.115602 0.623383 0.060422 -0.499672 -0.036244 0.865456 0 0 0
-0.073905 0.986870 0.099718 -0.499672 -0.036244 0.865456 0 0 0
-0.123733 0.986870 0.070950 -0.499672 -0.036244 0.865456 0 0 0
-0.065775 0.623383 0.089190 0.499952 -0.013898 0.865942 0 0 0
-0.024078 0.986870 0.070950 0.499952 -0.013898 0.865942 0 0 0
-0.073905 0.986870 0.099718 0.499952 -0.013898 0.865942 0 0 0
-0.065775 0.623383 -0.025881 0.499671 0.036244 -0.865457 0 0 0
-0.024078 0.986870 0.013414 0.499671 0.036244 -0.865457 0 0 0
-0.015947 0.623383 0.002886 0.499671 0.036244 -0.865457 0 0 0
-0.115602 0.623383 0.060422 -0.999750 -0.022363 -0.000000 0 0 0
-0.123733 0.986870 0.013414 -0.999750 -0.022363 -0.000000 0 0 0
-0.115602 0.623383 0.002886 -0.999750 -0.022363 -0.000000 0 0 0
-0.015947 0.623383 0.060422 0.999750 0.022363 0.000000 0 0 0
-0.024078 0.986870 0.013414 0.999750 0.022363 0.000000 0 0 0
-0.024078 0.986870 0.070950 0.999750 0.022363 0.000000 0 0 0
-0.024078 0.986870 0.070950 0.997709 0.067646 0.000000 0 0 0
-0.052502 1.406094 0.027822 0.997709 0.067646 0.000000 0 0 0
-0.052502 1.406094 0.085358 0.997709 0.067646 0.000000 0 0 0
-0.123733 0.986870 0.013414 -0.499996 -0.004138 -0.866018 0 0 0
-0.102329 1.406095 -0.000946 -0.499996 -0.004138 -0.866018 0 0 0
-0.073905 0.986870 -0.015353 -0.499996 -0.004138 -0.866018 0 0 0
-0.123733 0.986870 0.070950 -0.498990 -0.063535 0.864276 0 0 0
-0.102329 1.406095 0.114126 -0.498990 -0.063535 0.864276 0 0 0
-0.152157 1.406095 0.085358 -0.498990 -0.063535 0.864276 0 0 0
-0.073905 0.986870 0.099718 0.499996 0.004138 0.866018 0 0 0
-0.052502 1.406094 0.085358 0.499996 0.004138 0.866018 0 0 0
-0.102329 1.406095 0.114126 0.499996 0.004138 0.866018 0 0 0
-0.073905 0.986870 -0.015353 0.498990 0.063535 -0.864276 0 0 0
-0.052502 1.406094 0.027822 0.498990 0.063535 -0.864276 0 0 0
-0.024078 0.986870 0.013414 0.498990 0.063535 -0.864276 0 0 0
-0.041351 1.535108 0.720846 -0.438246 0.349003 0.828334 51 51 51
-0.026289 2.976844 0.121366 -0.438246 0.349003 0.828334 51 51 51
-0.194862 1.712514 0.564881 -0.438246 0.349003 0.828334 51 51 51
-0.194862 1.712514 0.564881 0.233955 0.293906 0.926760 51 51 51
-0.026289 2.976844 0.121366 0.233955 0.293906 0.926760 51 51 51
-0.370310 1.735288 0.601949 0.233955 0.293906 0.926760 51 51 51
-0.370310 1.735288 0.601949 -0.594954 0.428159 0.680228 51 51 51
-0.026289 2.976844 0.121366 -0.594954 0.428159 0.680228 51 51 51
-0.525926 1.726973 0.471075 -0.594954 0.428159 0.680228 51 51 51
-0.525926 1.726973 0.471075 -0.926288 0.376219 0.021210 51 51 51
-0.026289 2.976844 0.121366 -0.926288 0.376219 0.021210 51 51 51
-0.531633 1.722737 0.296992 -0.926288 0.376219 0.021210 51 51 51
-0.531633 1.722737 0.296992 -0.714540 0.370987 0.593129 51 51 51
-0.026289 2.976844 0.121366 -0.714540 0.370987 0.593129 51 51 51
-0.636127 1.742866 0.158518 -0.714540 0.370987 0.593129 51 51 51
-0.636127 1.742866 0.158518 -0.874421 0.438400 0.207828 51 51 51
-0.026289 2.976844 0.121366 -0.874421 0.438400 0.207828 51 51 51
-0.637318 1.804270 0.023976 -0.874421 0.438400 0.207828 51 51 51
-0.637318 1.804270 0.023976 -0.649537 0.392557 -0.651154 51 51 51
-0.026289 2.976844 0.121366 -0.649537 0.392557 -0.651154 51 51 51
-0.479259 1.826519 -0.120278 -0.649537 0.392557 -0.651154 51 51 51
-0.479259 1.826519 -0.120278 -0.915847 0.384759 -0.114825 51 51 51
-0.026289 2.976844 0.121366 -0.915847 0.384759 -0.114825 51 51 51
-0.463980 1.811954 -0.290950 -0.915847 0.384759 -0.114825 51 51 51
-0.463980 1.811954 -0.290950 -0.482371 0.447733 -0.752896 51 51 51
-0.026289 2.976844 0.121366 -0.482371 0.447733 -0.752896 51 51 51
-0.341344 1.745855 -0.408829 -0.482371 0.447733 -0.752896 51 51 51
-0.341344 1.745855 -0.408829 0.101969 0.371385 -0.922863 51 51 51
-0.026289 2.976844 0.121366 0.101969 0.371385 -0.922863 51 51 51
-0.168172 1.685275 -0.414074 0.101969 0.371385 -0.922863 51 51 51
-0.168172 1.685275 -0.414074 -0.566208 0.367970 -0.737568 51 51 51
-0.026289 2.976844 0.121366 -0.566208 0.367970 -0.737568 51 51 51
-0.022861 1.716472 -0.510061 -0.566208 0.367970 -0.737568 51 51 51
-0.022861 1.716472 -0.510061 0.233494 0.436044 -0.869107 51 51 51
-0.026289 2.976844 0.121366 0.233494 0.436044 -0.869107 51 51 51
0.142030 1.686491 -0.480803 0.233494 0.436044 -0.869107 51 51 51
0.142030 1.686491 -0.480803 0.755211 0.355508 -0.550700 51 51 51
-0.026289 2.976844 0.121366 0.755211 0.355508 -0.550700 51 51 51
0.249950 1.706122 -0.320133 0.755211 0.355508 -0.550700 51 51 51
0.249950 1.706122 -0.320133 -0.335165 0.243373 -0.910184 51 51 51
-0.026289 2.976844 0.121366 -0.335165 0.243373 -0.910184 51 51 51
0.349555 1.726511 -0.351359 -0.335165 0.243373 -0.910184 51 51 51
-0.026289 2.976844 0.121366 0.929817 0.290352 0.226131 51 51 51
0.447156 1.627514 -0.092835 0.929817 0.290352 0.226131 51 51 51
0.460583 1.676270 -0.210647 0.929817 0.290352 0.226131 51 51 51
0.447156 1.627514 -0.092835 0.650521 0.336349 -0.680949 51 51 51
-0.026289 2.976844 0.121366 0.650521 0.336349 -0.680949 51 51 51
0.575323 1.645520 0.038499 0.650521 0.336349 -0.680949 51 51 51
0.575323 1.645520 0.038499 0.901084 0.415017 -0.125729 51 51 51
-0.026289 2.976844 0.121366 0.901084 0.415017 -0.125729 51 51 51
0.566930 1.709649 0.190029 0.901084 0.415017 -0.125729 51 51 51
0.566930 1.709649 0.190029 0.698639 0.360544 0.617990 51 51 51
-0.026289 2.976844 0.121366 0.698639 0.360544 0.617990 51 51 51
0.426785 1.782493 0.305966 0.698639 0.360544 0.617990 51 51 51
0.426785 1.782493 0.305966 0.921231 0.368661 0.124185 51 51 51
-0.026289 2.976844 0.121366 0.921231 0.368661 0.124185 51 51 51
0.404201 1.778913 0.484123 0.921231 0.368661 0.124185 51 51 51
0.404201 1.778913 0.484123 0.494279 0.409784 0.766658 51 51 51
-0.026289 2.976844 0.121366 0.494279 0.409784 0.766658 51 51 51
0.288381 1.668930 0.617581 0.494279 0.409784 0.766658 51 51 51
0.288381 1.668930 0.617581 -0.052532 0.343160 0.937807 51 51 51
-0.026289 2.976844 0.121366 -0.052532 0.343160 0.937807 51 51 51
0.114496 1.666083 0.608883 -0.052532 0.343160 0.937807 51 51 51
0.114496 1.666083 0.608883 0.325446 0.360134 0.874293 51 51 51
-0.026289 2.976844 0.121366 0.325446 0.360134 0.874293 51 51 51
-0.041351 1.535108 0.720846 0.325446 0.360134 0.874293 51 51 51
-0.012464 1.785135 0.185958 0.074969 -0.977205 -0.198622 51 51 51
-0.531633 1.722737 0.296992 0.074969 -0.977205 -0.198622 51 51 51
-0.636127 1.742866 0.158518 0.074969 -0.977205 -0.198622 51 51 51
0.349555 1.726511 -0.351359 0.781056 0.412150 -0.469131 51 51 51
-0.026289 2.976844 0.121366 0.781056 0.412150 -0.469131 51 51 51
0.460583 1.676270 -0.210647 0.781056 0.412150 -0.469131 51 51 51
-0.370310 1.735288 0.601949 0.115087 -0.993154 -0.020005 51 51 51
-0.531633 1.722737 0.296992 0.115087 -0.993154 -0.020005 51 51 51
-0.012464 1.785135 0.185958 0.115087 -0.993154 -0.020005 51 51 51
0.566930 1.709649 0.190029 -0.248812 -0.896832 0.365766 51 51 51
0.447156 1.627514 -0.092835 -0.248812 -0.896832 0.365766 51 51 51
0.575323 1.645520 0.038499 -0.248812 -0.896832 0.365766 51 51 51
-0.012464 1.785135 0.185958 -0.135008 -0.988207 0.072248 51 51 51
-0.479259 1.826519 -0.120278 -0.135008 -0.988207 0.072248 51 51 51
-0.463980 1.811954 -0.290950 -0.135008 -0.988207 0.072248 51 51 51
-0.479259 1.826519 -0.120278 0.007211 -0.989449 -0.144703 51 51 51
-0.012464 1.785135 0.185958 0.007211 -0.989449 -0.144703 51 51 51
-0.637318 1.804270 0.023976 0.007211 -0.989449 -0.144703 51 51 51
-0.637318 1.804270 0.023976 0.079679 -0.906573 -0.414460 51 51 51
-0.012464 1.785135 0.185958 0.079679 -0.906573 -0.414460 51 51 51
-0.636127 1.742866 0.158518 0.079679 -0.906573 -0.414460 51 51 51
-0.194862 1.712514 0.564881 -0.179457 -0.946613 -0.267802 51 51 51
-0.370310 1.735288 0.601949 -0.179457 -0.946613 -0.267802 51 51 51
-0.012464 1.785135 0.185958 -0.179457 -0.946613 -0.267802 51 51 51
-0.041351 1.535108 0.720846 -0.499564 -0.774111 -0.388829 51 51 51
-0.194862 1.712514 0.564881 -0.499564 -0.774111 -0.388829 51 51 51
-0.012464 1.785135 0.185958 -0.499564 -0.774111 -0.388829 51 51 51
0.114496 1.666083 0.608883 0.433216 -0.825242 -0.362354 51 51 51
-0.041351 1.535108 0.720846 0.433216 -0.825242 -0.362354 51 51 51
-0.012464 1.785135 0.185958 0.433216 -0.825242 -0.362354 51 51 51
0.288381 1.668930 0.617581 0.029679 -0.959805 -0.279093 51 51 51
0.114496 1.666083 0.608883 0.029679 -0.959805 -0.279093 51 51 51
-0.012464 1.785135 0.185958 0.029679 -0.959805 -0.279093 51 51 51
0.404201 1.778913 0.484123 0.300498 -0.847466 -0.437611 51 51 51
0.288381 1.668930 0.617581 0.300498 -0.847466 -0.437611 51 51 51
-0.012464 1.785135 0.185958 0.300498 -0.847466 -0.437611 51 51 51
0.426785 1.782493 0.305966 -0.000506 -0.999797 -0.020157 51 51 51
0.404201 1.778913 0.484123 -0.000506 -0.999797 -0.020157 51 51 51
-0.012464 1.785135 0.185958 -0.000506 -0.999797 -0.020157 51 51 51
0.566930 1.709649 0.190029 -0.120148 -0.899553 0.419964 51 51 51
0.426785 1.782493 0.305966 -0.120148 -0.899553 0.419964 51 51 51
-0.012464 1.785135 0.185958 -0.120148 -0.899553 0.419964 51 51 51
0.447156 1.627514 -0.092835 -0.497663 -0.779947 -0.379494 51 51 51
-0.012464 1.785135 0.185958 -0.497663 -0.779947 -0.379494 51 51 51
0.460583 1.676270 -0.210647 -0.497663 -0.779947 -0.379494 51 51 51
0.460583 1.676270 -0.210647 -0.302101 -0.948005 -0.100108 51 51 51
-0.012464 1.785135 0.185958 -0.302101 -0.948005 -0.100108 51 51 51
0.349555 1.726511 -0.351359 -0.302101 -0.948005 -0.100108 51 51 51
0.349555 1.726511 -0.351359 0.277664 -0.916774 0.287102 51 51 51
-0.012464 1.785135 0.185958 0.277664 -0.916774 0.287102 51 51 51
0.249950 1.706122 -0.320133 0.277664 -0.916774 0.287102 51 51 51
0.249950 1.706122 -0.320133 -0.217311 -0.940592 0.260889 51 51 51
-0.022861 1.716472 -0.510061 -0.217311 -0.940592 0.260889 51 51 51
0.142030 1.686491 -0.480803 -0.217311 -0.940592 0.260889 51 51 51
-0.022861 1.716472 -0.510061 0.265957 -0.959708 0.090704 51 51 51
-0.012464 1.785135 0.185958 0.265957 -0.959708 0.090704 51 51 51
-0.168172 1.685275 -0.414074 0.265957 -0.959708 0.090704 51 51 51
-0.168172 1.685275 -0.414074 -0.314641 -0.919733 0.234715 51 51 51
-0.012464 1.785135 0.185958 -0.314641 -0.919733 0.234715 51 51 51
-0.341344 1.745855 -0.408829 -0.314641 -0.919733 0.234715 51 51 51
-0.341344 1.745855 -0.408829 -0.289162 -0.931328 0.221393 51 51 51
-0.012464 1.785135 0.185958 -0.289162 -0.931328 0.221393 51 51 51
-0.463980 1.811954 -0.290950 -0.289162 -0.931328 0.221393 51 51 51
-0.210201 1.981912 -0.358883 0.283691 0.194535 -0.938976 51 51 51
0.100262 3.249837 -0.002398 0.283691 0.194535 -0.938976 51 51 51
-0.026289 2.118791 -0.274960 0.283691 0.194535 -0.938976 51 51 51
-0.026289 2.118791 -0.274960 -0.392756 0.256750 -0.883075 51 51 51
0.100262 3.249837 -0.002398 -0.392756 0.256750 -0.883075 51 51 51
0.115221 2.107482 -0.341186 -0.392756 0.256750 -0.883075 51 51 51
0.115221 2.107482 -0.341186 0.481267 0.255023 -0.838657 51 51 51
0.100262 3.249837 -0.002398 0.481267 0.255023 -0.838657 51 51 51
0.269801 2.084626 -0.259429 0.481267 0.255023 -0.838657 51 51 51
0.269801 2.084626 -0.259429 0.944139 0.195839 -0.265046 51 51 51
0.100262 3.249837 -0.002398 0.944139 0.195839 -0.265046 51 51 51
0.309097 2.092217 -0.113843 0.944139 0.195839 -0.265046 51 51 51
0.309097 2.092217 -0.113843 0.606995 0.183932 -0.773127 51 51 51
0.100262 3.249837 -0.002398 0.606995 0.183932 -0.773127 51 51 51
0.426712 2.102213 -0.019124 0.606995 0.183932 -0.773127 51 51 51
0.426712 2.102213 -0.019124 0.860975 0.251355 -0.442202 51 51 51
0.100262 3.249837 -0.002398 0.860975 0.251355 -0.442202 51 51 51
0.463467 2.163497 0.087274 0.860975 0.251355 -0.442202 51 51 51
0.463467 2.163497 0.087274 0.838029 0.316851 0.444199 51 51 51
0.100262 3.249837 -0.002398 0.838029 0.316851 0.444199 51 51 51
0.364354 2.217694 0.235602 0.838029 0.316851 0.444199 51 51 51
0.364354 2.217694 0.235602 0.967199 0.217042 -0.131981 51 51 51
0.100262 3.249837 -0.002398 0.967199 0.217042 -0.131981 51 51 51
0.384074 2.219636 0.383311 0.967199 0.217042 -0.131981 51 51 51
0.384074 2.219636 0.383311 0.710345 0.409915 0.572170 51 51 51
0.100262 3.249837 -0.002398 0.710345 0.409915 0.572170 51 51 51
0.296699 2.191337 0.512060 0.710345 0.409915 0.572170 51 51 51
0.296699 2.191337 0.512060 0.177246 0.456622 0.871826 51 51 51
0.100262 3.249837 -0.002398 0.177246 0.456622 0.871826 51 51 51
0.145360 2.167977 0.555062 0.177246 0.456622 0.871826 51 51 51
0.145360 2.167977 0.555062 0.774278 0.315080 0.548834 51 51 51
0.100262 3.249837 -0.002398 0.774278 0.315080 0.548834 51 51 51
0.048351 2.224375 0.659543 0.774278 0.315080 0.548834 51 51 51
0.048351 2.224375 0.659543 0.049047 0.539924 0.840283 51 51 51
0.100262 3.249837 -0.002398 0.049047 0.539924 0.840283 51 51 51
-0.098787 2.223269 0.668842 0.049047 0.539924 0.840283 51 51 51
-0.098787 2.223269 0.668842 -0.538456 0.531802 0.653645 51 51 51
0.100262 3.249837 -0.002398 -0.538456 0.531802 0.653645 51 51 51
-0.218160 2.246030 0.551987 -0.538456 0.531802 0.653645 51 51 51
-0.218160 2.246030 0.551987 0.572792 0.249524 0.780799 51 51 51
0.100262 3.249837 -0.002398 0.572792 0.249524 0.780799 51 51 51
-0.291775 2.281440 0.594675 0.572792 0.249524 0.780799 51 51 51
0.100262 3.249837 -0.002398 -0.897407 0.437907 -0.053842 51 51 51
-0.438947 2.195050 0.406036 -0.897407 0.437907 -0.053842 51 51 51
-0.419491 2.246773 0.502423 -0.897407 0.437907 -0.053842 51 51 51
-0.438947 2.195050 0.406036 -0.410816 0.504158 0.759642 51 51 51
0.100262 3.249837 -0.002398 -0.410816 0.504158 0.759642 51 51 51
-0.569452 2.221709 0.317766 -0.410816 0.504158 0.759642 51 51 51
-0.569452 2.221709 0.317766 -0.767729 0.582937 0.266038 51 51 51
0.100262 3.249837 -0.002398 -0.767729 0.582937 0.266038 51 51 51
-0.584088 2.264271 0.182268 -0.767729 0.582937 0.266038 51 51 51
-0.584088 2.264271 0.182268 -0.755663 0.432563 -0.491795 51 51 51
0.100262 3.249837 -0.002398 -0.755663 0.432563 -0.491795 51 51 51
-0.480825 2.295631 0.051183 -0.755663 0.432563 -0.491795 51 51 51
-0.480825 2.295631 0.051183 -0.852765 0.521205 0.033724 51 51 51
0.100262 3.249837 -0.002398 -0.852765 0.521205 0.033724 51 51 51
-0.498528 2.276597 -0.102289 -0.852765 0.521205 0.033724 51 51 51
-0.498528 2.276597 -0.102289 -0.586366 0.431150 -0.685773 51 51 51
0.100262 3.249837 -0.002398 -0.586366 0.431150 -0.685773 51 51 51
-0.444627 2.155433 -0.224554 -0.586366 0.431150 -0.685773 51 51 51
-0.444627 2.155433 -0.224554 -0.112641 0.251229 -0.961351 51 51 51
0.100262 3.249837 -0.002398 -0.112641 0.251229 -0.961351 51 51 51
-0.298765 2.125805 -0.249387 -0.112641 0.251229 -0.961351 51 51 51
-0.298765 2.125805 -0.249387 -0.457564 0.342720 -0.820474 51 51 51
0.100262 3.249837 -0.002398 -0.457564 0.342720 -0.820474 51 51 51
-0.210201 1.981912 -0.358883 -0.457564 0.342720 -0.820474 51 51 51
-0.091194 2.235950 0.069769 -0.183568 -0.927441 0.325814 51 51 51
0.309097 2.092217 -0.113843 -0.183568 -0.927441 0.325814 51 51 51
0.426712 2.102213 -0.019124 -0.183568 -0.927441 0.325814 51 51 51
-0.291775 2.281440 0.594675 -0.573086 0.585514 0.573363 51 51 51
0.100262 3.249837 -0.002398 -0.573086 0.585514 0.573363 51 51 51
-0.419491 2.246773 0.502423 -0.573086 0.585514 0.573363 51 51 51
0.115221 2.107482 -0.341186 -0.266230 -0.949985 0.163251 51 51 51
0.309097 2.092217 -0.113843 -0.266230 -0.949985 0.163251 51 51 51
-0.091194 2.235950 0.069769 -0.266230 -0.949985 0.163251 51 51 51
-0.584088 2.264271 0.182268 0.008428 -0.953744 -0.300502 51 51 51
-0.438947 2.195050 0.406036 0.008428 -0.953744 -0.300502 51 51 51
-0.569452 2.221709 0.317766 0.008428 -0.953744 -0.300502 51 51 51
-0.091194 2.235950 0.069769 -0.047093 -0.998702 0.019419 51 51 51
0.364354 2.217694 0.235602 -0.047093 -0.998702 0.019419 51 51 51
0.384074 2.219636 0.383311 -0.047093 -0.998702 0.019419 51 51 51
0.364354 2.217694 0.235602 -0.133132 -0.956266 0.260443 51 51 51
-0.091194 2.235950 0.069769 -0.133132 -0.956266 0.260443 51 51 51
0.463467 2.163497 0.087274 -0.133132 -0.956266 0.260443 51 51 51
0.463467 2.163497 0.087274 -0.126384 -0.840076 0.527541 51 51 51
-0.091194 2.235950 0.069769 -0.126384 -0.840076 0.527541 51 51 51
0.426712 2.102213 -0.019124 -0.126384 -0.840076 0.527541 51 51 51
-0.026289 2.118791 -0.274960 0.081476 -0.938892 0.334430 51 51 51
0.115221 2.107482 -0.341186 0.081476 -0.938892 0.334430 51 51 51
-0.091194 2.235950 0.069769 0.081476 -0.938892 0.334430 51 51 51
-0.210201 1.981912 -0.358883 0.444524 -0.819300 0.362140 51 51 51
-0.026289 2.118791 -0.274960 0.444524 -0.819300 0.362140 51 51 51
-0.091194 2.235950 0.069769 0.444524 -0.819300 0.362140 51 51 51
-0.298765 2.125805 -0.249387 -0.464405 -0.699329 0.543385 51 51 51
-0.210201 1.981912 -0.358883 -0.464405 -0.699329 0.543385 51 51 51
-0.091194 2.235950 0.069769 -0.464405 -0.699329 0.543385 51 51 51
-0.444627 2.155433 -0.224554 -0.118577 -0.912305 0.391968 51 51 51
-0.298765 2.125805 -0.249387 -0.118577 -0.912305 0.391968 51 51 51
-0.091194 2.235950 0.069769 -0.118577 -0.912305 0.391968 51 51 51
-0.498528 2.276597 -0.102289 -0.323193 -0.739560 0.590421 51 51 51
-0.444627 2.155433 -0.224554 -0.323193 -0.739560 0.590421 51 51 51
-0.091194 2.235950 0.069769 -0.323193 -0.739560 0.590421 51 51 51
-0.480825 2.295631 0.051183 -0.156420 -0.977816 0.139313 51 51 51
-0.498528 2.276597 -0.102289 -0.156420 -0.977816 0.139313 51 51 51
-0.091194 2.235950 0.069769 -0.156420 -0.977816 0.139313 51 51 51
-0.584088 2.264271 0.182268 -0.128021 -0.937006 -0.325009 51 51 51
-0.480825 2.295631 0.051183 -0.128021 -0.937006 -0.325009 51 51 51
-0.091194 2.235950 0.069769 -0.128021 -0.937006 -0.325009 51 51 51
-0.438947 2.195050 0.406036 0.439582 -0.825414 0.354202 51 51 51
-0.091194 2.235950 0.069769 0.439582 -0.825414 0.354202 51 51 51
-0.419491 2.246773 0.502423 0.439582 -0.825414 0.354202 51 51 51
-0.419491 2.246773 0.502423 0.159792 -0.976343 0.145674 51 51 51
-0.091194 2.235950 0.069769 0.159792 -0.976343 0.145674 51 51 51
-0.291775 2.281440 0.594675 0.159792 -0.976343 0.145674 51 51 51
-0.291775 2.281440 0.594675 -0.481331 -0.869791 -0.108551 51 51 51
-0.091194 2.235950 0.069769 -0.481331 -0.869791 -0.108551 51 51 51
-0.218160 2.246030 0.551987 -0.481331 -0.869791 -0.108551 51 51 51
-0.218160 2.246030 0.551987 -0.004420 -0.982382 -0.186832 51 51 51
0.048351 2.224375 0.659543 -0.004420 -0.982382 -0.186832 51 51 51
-0.098787 2.223269 0.668842 -0.004420 -0.982382 -0.186832 51 51 51
0.048351 2.224375 0.659543 -0.431293 -0.898254 0.084418 51 51 51
-0.091194 2.235950 0.069769 -0.431293 -0.898254 0.084418 51 51 51
0.145360 2.167977 0.555062 -0.431293 -0.898254 0.084418 51 51 51
0.145360 2.167977 0.555062 0.098386 -0.977817 -0.184916 51 51 51
-0.091194 2.235950 0.069769 0.098386 -0.977817 -0.184916 51 51 51
0.296699 2.191337 0.512060 0.098386 -0.977817 -0.184916 51 51 51
0.296699 2.191337 0.512060 0.075182 -0.983402 -0.165129 51 51 51
-0.091194 2.235950 0.069769 0.075182 -0.983402 -0.165129 51 51 51
0.384074 2.219636 0.383311 0.075182 -0.983402 -0.165129 51 51 51
-0.397823 2.522815 -0.113847 -0.478307 0.237262 -0.845535 51 51 51
0.084595 3.526386 -0.105137 -0.478307 0.237262 -0.845535 51 51 51
-0.234834 2.620846 -0.178539 -0.478307 0.237262 -0.845535 51 51 51
-0.234834 2.620846 -0.178539 -0.888260 0.338503 -0.310499 51 51 51
0.084595 3.526386 -0.105137 -0.888260 0.338503 -0.310499 51 51 51
-0.196991 2.607757 -0.301069 -0.888260 0.338503 -0.310499 51 51 51
-0.196991 2.607757 -0.301069 -0.265981 0.278376 -0.922909 51 51 51
0.084595 3.526386 -0.105137 -0.265981 0.278376 -0.922909 51 51 51
-0.063591 2.576541 -0.348930 -0.265981 0.278376 -0.922909 51 51 51
-0.063591 2.576541 -0.348930 0.461033 0.152450 -0.874190 51 51 51
0.084595 3.526386 -0.105137 0.461033 0.152450 -0.874190 51 51 51
0.046525 2.572855 -0.291500 0.461033 0.152450 -0.874190 51 51 51
0.046525 2.572855 -0.291500 -0.139627 0.195304 -0.970753 51 51 51
0.084595 3.526386 -0.105137 -0.139627 0.195304 -0.970753 51 51 51
0.169672 2.569792 -0.309829 -0.139627 0.195304 -0.970753 51 51 51
0.169672 2.569792 -0.309829 0.280252 0.224627 -0.933275 51 51 51
0.084595 3.526386 -0.105137 0.280252 0.224627 -0.933275 51 51 51
0.258795 2.612353 -0.272822 0.280252 0.224627 -0.933275 51 51 51
0.258795 2.612353 -0.272822 0.919773 0.233202 -0.315648 51 51 51
0.084595 3.526386 -0.105137 0.919773 0.233202 -0.315648 51 51 51
0.297189 2.653942 -0.130219 0.919773 0.233202 -0.315648 51 51 51
0.297189 2.653942 -0.130219 0.575964 0.163377 -0.800983 51 51 51
0.084595 3.526386 -0.105137 0.575964 0.163377 -0.800983 51 51 51
0.397288 2.646535 -0.059752 0.575964 0.163377 -0.800983 51 51 51
0.397288 2.646535 -0.059752 0.935787 0.325596 -0.135239 51 51 51
0.084595 3.526386 -0.105137 0.935787 0.325596 -0.135239 51 51 51
0.424211 2.620966 0.064981 0.935787 0.325596 -0.135239 51 51 51
0.424211 2.620966 0.064981 0.799650 0.386314 0.459698 51 51 51
0.084595 3.526386 -0.105137 0.799650 0.386314 0.459698 51 51 51
0.364313 2.607411 0.180565 0.799650 0.386314 0.459698 51 51 51
0.364313 2.607411 0.180565 0.953198 0.228627 -0.197845 51 51 51
0.084595 3.526386 -0.105137 0.953198 0.228627 -0.197845 51 51 51
0.377621 2.653060 0.297431 0.953198 0.228627 -0.197845 51 51 51
0.377621 2.653060 0.297431 0.697627 0.479476 0.532372 51 51 51
0.084595 3.526386 -0.105137 0.697627 0.479476 0.532372 51 51 51
0.301420 2.659339 0.391631 0.697627 0.479476 0.532372 51 51 51
0.301420 2.659339 0.391631 0.163699 0.520924 0.837759 51 51 51
0.084595 3.526386 -0.105137 0.163699 0.520924 0.837759 51 51 51
0.166418 2.690531 0.398615 0.163699 0.520924 0.837759 51 51 51
0.166418 2.690531 0.398615 0.981075 0.160931 0.107674 51 51 51
0.084595 3.526386 -0.105137 0.981075 0.160931 0.107674 51 51 51
0.153911 2.721093 0.466896 0.981075 0.160931 0.107674 51 51 51
0.084595 3.526386 -0.105137 -0.605166 0.496589 0.622233 51 51 51
-0.047977 2.668164 0.450853 -0.605166 0.496589 0.622233 51 51 51
0.024789 2.704334 0.492757 -0.605166 0.496589 0.622233 51 51 51
-0.047977 2.668164 0.450853 0.324937 0.478343 0.815846 51 51 51
0.084595 3.526386 -0.105137 0.324937 0.478343 0.815846 51 51 51
-0.171645 2.701590 0.480510 0.324937 0.478343 0.815846 51 51 51
-0.171645 2.701590 0.480510 -0.270192 0.611811 0.743427 51 51 51
0.084595 3.526386 -0.105137 -0.270192 0.611811 0.743427 51 51 51
-0.258221 2.744543 0.413696 -0.270192 0.611811 0.743427 51 51 51
-0.258221 2.744543 0.413696 -0.830661 0.510976 0.221149 51 51 51
0.084595 3.526386 -0.105137 -0.830661 0.510976 0.221149 51 51 51
-0.277498 2.771917 0.278044 -0.830661 0.510976 0.221149 51 51 51
-0.277498 2.771917 0.278044 -0.503323 0.570965 0.648587 51 51 51
0.084595 3.526386 -0.105137 -0.503323 0.570965 0.648587 51 51 51
-0.381231 2.765522 0.203172 -0.503323 0.570965 0.648587 51 51 51
-0.381231 2.765522 0.203172 -0.858557 0.511535 -0.034803 51 51 51
0.084595 3.526386 -0.105137 -0.858557 0.511535 -0.034803 51 51 51
-0.434060 2.670011 0.102583 -0.858557 0.511535 -0.034803 51 51 51
-0.434060 2.670011 0.102583 -0.757017 0.320350 -0.569474 51 51 51
0.084595 3.526386 -0.105137 -0.757017 0.320350 -0.569474 51 51 51
-0.370234 2.639451 0.000546 -0.757017 0.320350 -0.569474 51 51 51
-0.370234 2.639451 0.000546 -0.878322 0.424125 -0.220610 51 51 51
0.084595 3.526386 -0.105137 -0.878322 0.424125 -0.220610 51 51 51
-0.397823 2.522815 -0.113847 -0.878322 0.424125 -0.220610 51 51 51
-0.054375 2.701650 0.052817 0.030056 -0.933273 0.357907 51 51 51
0.046525 2.572855 -0.291500 0.030056 -0.933273 0.357907 51 51 51
0.169672 2.569792 -0.309829 0.030056 -0.933273 0.357907 51 51 51
0.153911 2.721093 0.466896 0.086441 0.581874 0.808672 51 51 51
0.084595 3.526386 -0.105137 0.086441 0.581874 0.808672 51 51 51
0.024789 2.704334 0.492757 0.086441 0.581874 0.808672 51 51 51
-0.196991 2.607757 -0.301069 -0.146825 -0.939818 0.308521 51 51 51
0.046525 2.572855 -0.291500 -0.146825 -0.939818 0.308521 51 51 51
-0.054375 2.701650 0.052817 -0.146825 -0.939818 0.308521 51 51 51
-0.258221 2.744543 0.413696 -0.301352 -0.930601 -0.207772 51 51 51
-0.047977 2.668164 0.450853 -0.301352 -0.930601 -0.207772 51 51 51
-0.171645 2.701590 0.480510 -0.301352 -0.930601 -0.207772 51 51 51
-0.054375 2.701650 0.052817 -0.108680 -0.992817 0.050027 51 51 51
0.297189 2.653942 -0.130219 -0.108680 -0.992817 0.050027 51 51 51
0.397288 2.646535 -0.059752 -0.108680 -0.992817 0.050027 51 51 51
0.297189 2.653942 -0.130219 0.013601 -0.960895 0.276578 51 51 51
-0.054375 2.701650 0.052817 0.013601 -0.960895 0.276578 51 51 51
0.258795 2.612353 -0.272822 0.013601 -0.960895 0.276578 51 51 51
0.258795 2.612353 -0.272822 0.224329 -0.863126 0.452426 51 51 51
-0.054375 2.701650 0.052817 0.224329 -0.863126 0.452426 51 51 51
0.169672 2.569792 -0.309829 0.224329 -0.863126 0.452426 51 51 51
-0.234834 2.620846 -0.178539 0.214208 -0.962070 0.168929 51 51 51
-0.196991 2.607757 -0.301069 0.214208 -0.962070 0.168929 51 51 51
-0.054375 2.701650 0.052817 0.214208 -0.962070 0.168929 51 51 51
-0.397823 2.522815 -0.113847 0.490444 -0.867844 -0.079445 51 51 51
-0.234834 2.620846 -0.178539 0.490444 -0.867844 -0.079445 51 51 51
-0.054375 2.701650 0.052817 0.490444 -0.867844 -0.079445 51 51 51
-0.370234 2.639451 0.000546 0.020627 -0.702543 0.711342 51 51 51
-0.397823 2.522815 -0.113847 0.020627 -0.702543 0.711342 51 51 51
-0.054375 2.701650 0.052817 0.020627 -0.702543 0.711342 51 51 51
-0.434060 2.670011 0.102583 0.123740 -0.926663 0.354944 51 51 51
-0.370234 2.639451 0.000546 0.123740 -0.926663 0.354944 51 51 51
-0.054375 2.701650 0.052817 0.123740 -0.926663 0.354944 51 51 51
-0.381231 2.765522 0.203172 0.146706 -0.754658 0.639507 51 51 51
-0.434060 2.670011 0.102583 0.146706 -0.754658 0.639507 51 51 51
-0.054375 2.701650 0.052817 0.146706 -0.754658 0.639507 51 51 51
-0.277498 2.771917 0.278044 -0.092773 -0.972936 0.211634 51 51 51
-0.381231 2.765522 0.203172 -0.092773 -0.972936 0.211634 51 51 51
-0.054375 2.701650 0.052817 -0.092773 -0.972936 0.211634 51 51 51
-0.258221 2.744543 0.413696 -0.409869 -0.903661 -0.124112 51 51 51
-0.277498 2.771917 0.278044 -0.409869 -0.903661 -0.124112 51 51 51
-0.054375 2.701650 0.052817 -0.409869 -0.903661 -0.124112 51 51 51
-0.047977 2.668164 0.450853 0.480735 -0.873100 -0.081179 51 51 51
-0.054375 2.701650 0.052817 0.480735 -0.873100 -0.081179 51 51 51
0.024789 2.704334 0.492757 0.480735 -0.873100 -0.081179 51 51 51
0.024789 2.704334 0.492757 0.125443 -0.991963 -0.016521 51 51 51
-0.054375 2.701650 0.052817 0.125443 -0.991963 -0.016521 51 51 51
0.153911 2.721093 0.466896 0.125443 -0.991963 -0.016521 51 51 51
0.153911 2.721093 0.466896 -0.483710 -0.828481 0.282213 51 51 51
-0.054375 2.701650 0.052817 -0.483710 -0.828481 0.282213 51 51 51
0.166418 2.690531 0.398615 -0.483710 -0.828481 0.282213 51 51 51
0.166418 2.690531 0.398615 -0.229407 -0.965756 -0.121197 51 51 51
0.377621 2.653060 0.297431 -0.229407 -0.965756 -0.121197 51 51 51
0.301420 2.659339 0.391631 -0.229407 -0.965756 -0.121197 51 51 51
0.377621 2.653060 0.297431 -0.311234 -0.872656 0.376305 51 51 51
-0.054375 2.701650 0.052817 -0.311234 -0.872656 0.376305 51 51 51
0.364313 2.607411 0.180565 -0.311234 -0.872656 0.376305 51 51 51
0.364313 2.607411 0.180565 -0.158202 -0.967863 -0.195485 51 51 51
-0.054375 2.701650 0.052817 -0.158202 -0.967863 -0.195485 51 51 51
0.424211 2.620966 0.064981 -0.158202 -0.967863 -0.195485 51 51 51
0.424211 2.620966 0.064981 -0.159884 -0.973248 -0.165001 51 51 51
-0.054375 2.701650 0.052817 -0.159884 -0.973248 -0.165001 51 51 51
0.397288 2.646535 -0.059752 -0.159884 -0.973248 -0.165001 51 51 51
-0.470597 1.126597 0.616848 0.320495 -0.945884 -0.050851 51 51 51
-0.635016 1.078908 0.467647 0.320495 -0.945884 -0.050851 51 51 51
-0.648211 1.085227 0.266958 0.320495 -0.945884 -0.050851 51 51 51
0.591926 1.156999 0.150839 -0.181440 -0.973726 -0.137614 51 51 51
-0.103510 1.299101 0.062270 -0.181440 -0.973726 -0.137614 51 51 51
0.467991 1.227103 -0.181797 -0.181440 -0.973726 -0.137614 51 51 51
0.224537 1.247639 -0.433520 0.014696 -0.993504 0.112846 51 51 51
-0.103510 1.299101 0.062270 0.014696 -0.993504 0.112846 51 51 51
-0.079557 1.219197 -0.644329 0.014696 -0.993504 0.112846 51 51 51
-0.057264 0.282935 0.095544 -0.499885 0.021468 0.865826 0 0 0
-0.107091 0.282935 0.009241 -0.999796 0.020179 0.000000 0 0 0
-0.107091 0.282935 0.009241 -0.499999 -0.001290 -0.866025 0 0 0
-0.057264 0.282935 -0.019527 -0.499999 -0.001290 -0.866025 0 0 0
-0.063125 -0.007473 -0.015710 -0.499999 -0.001290 -0.866025 0 0 0
-0.057264 0.282935 -0.019527 0.499884 -0.021468 -0.865826 0 0 0
-0.007436 0.282935 0.009241 0.499884 -0.021468 -0.865826 0 0 0
-0.013297 -0.007473 0.013057 0.499884 -0.021468 -0.865826 0 0 0
-0.107091 0.282935 0.066776 -0.999688 -0.024992 0.000000 0 0 0
-0.007436 0.282935 0.009241 0.999796 -0.020179 -0.000000 0 0 0
-0.007436 0.282935 0.066776 0.500000 0.001290 0.866025 0 0 0
-0.115602 0.623383 0.002886 -0.499952 0.013898 -0.865942 0 0 0
-0.123733 0.986870 0.013414 -0.499952 0.013898 -0.865942 0 0 0
-0.073905 0.986870 -0.015353 -0.499952 0.013898 -0.865942 0 0 0
-0.015947 0.623383 0.002886 0.999688 0.024992 -0.000000 0 0 0
-0.057264 0.282935 0.095544 -0.499997 0.003665 0.866020 0 0 0
-0.115602 0.623383 0.002886 -0.499794 -0.028652 -0.865670 0 0 0
-0.007436 0.282935 0.066776 0.499795 0.028652 0.865670 0 0 0
-0.065775 0.623383 -0.025881 0.499996 -0.003665 -0.866020 0 0 0
-0.152157 1.406095 0.085358 -0.997709 -0.067646 0.000001 0 0 0
-0.115602 0.623383 0.060422 -0.499671 -0.036244 0.865456 0 0 0
-0.065775 0.623383 0.089190 -0.499671 -0.036244 0.865456 0 0 0
-0.073905 0.986870 0.099718 -0.499671 -0.036244 0.865456 0 0 0
-0.015947 0.623383 0.060422 0.499952 -0.013898 0.865942 0 0 0
-0.065775 0.623383 -0.025881 0.499672 0.036244 -0.865456 0 0 0
-0.073905 0.986870 -0.015353 0.499672 0.036244 -0.865456 0 0 0
-0.024078 0.986870 0.013414 0.499672 0.036244 -0.865456 0 0 0
-0.115602 0.623383 0.060422 -0.999750 -0.022363 0.000001 0 0 0
-0.123733 0.986870 0.070950 -0.999750 -0.022363 0.000001 0 0 0
-0.123733 0.986870 0.013414 -0.999750 -0.022363 0.000001 0 0 0
-0.015947 0.623383 0.002886 0.999750 0.022363 -0.000000 0 0 0
-0.024078 0.986870 0.013414 0.997709 0.067646 0.000000 0 0 0
-0.152157 1.406094 0.027822 -0.499996 -0.004138 -0.866018 0 0 0
-0.073905 0.986870 0.099718 -0.498990 -0.063535 0.864276 0 0 0
-0.024078 0.986870 0.070950 0.499996 0.004138 0.866018 0 0 0
-0.073905 0.986870 -0.015353 0.498990 0.063535 -0.864275 0 0 0
-0.102329 1.406095 -0.000946 0.498990 0.063535 -0.864275 0 0 0
-0.052502 1.406094 0.027822 0.498990 0.063535 -0.864275 0 0 0
-0.370310 1.735288 0.601949 0.033877 -0.999157 0.023202 51 51 51
-0.525926 1.726973 0.471075 0.033877 -0.999157 0.023202 51 51 51
-0.531633 1.722737 0.296992 0.033877 -0.999157 0.023202 51 51 51
0.566930 1.709649 0.190029 -0.124427 -0.937523 0.324912 51 51 51
-0.012464 1.785135 0.185958 -0.124427 -0.937523 0.324912 51 51 51
0.447156 1.627514 -0.092835 -0.124427 -0.937523 0.324912 51 51 51
0.249950 1.706122 -0.320133 -0.106589 -0.989343 0.099192 51 51 51
-0.012464 1.785135 0.185958 -0.106589 -0.989343 0.099192 51 51 51
-0.022861 1.716472 -0.510061 -0.106589 -0.989343 0.099192 51 51 51
0.115221 2.107482 -0.341186 -0.199388 -0.974320 0.104615 51 51 51
0.269801 2.084626 -0.259429 -0.199388 -0.974320 0.104615 51 51 51
0.309097 2.092217 -0.113843 -0.199388 -0.974320 0.104615 51 51 51
-0.584088 2.264271 0.182268 -0.107910 -0.967366 -0.229256 51 51 51
-0.091194 2.235950 0.069769 -0.107910 -0.967366 -0.229256 51 51 51
-0.438947 2.195050 0.406036 -0.107910 -0.967366 -0.229256 51 51 51
-0.218160 2.246030 0.551987 -0.080807 -0.996730 -0.000442 51 51 51
-0.091194 2.235950 0.069769 -0.080807 -0.996730 -0.000442 51 51 51
0.048351 2.224375 0.659543 -0.080807 -0.996730 -0.000442 51 51 51
-0.196991 2.607757 -0.301069 -0.146865 -0.964451 0.219692 51 51 51
-0.063591 2.576541 -0.348930 -0.146865 -0.964451 0.219692 51 51 51
0.046525 2.572855 -0.291500 -0.146865 -0.964451 0.219692 51 51 51
-0.258221 2.744543 0.413696 -0.328951 -0.941450 -0.073913 51 51 51
-0.054375 2.701650 0.052817 -0.328951 -0.941450 -0.073913 51 51 51
-0.047977 2.668164 0.450853 -0.328951 -0.941450 -0.073913 51 51 51
0.166418 2.690531 0.398615 -0.145797 -0.987411 0.061344 51 51 51
-0.054375 2.701650 0.052817 -0.145797 -0.987411 0.061344 51 51 51
0.377621 2.653060 0.297431 -0.145797 -0.987411 0.061344 51 51 51
3 0 1 2
3 3 4 5
3 6 7 8
3 9 10 11
3 12 13 14
3 15 16 17
3 18 19 20
3 21 22 23
3 24 25 26
3 27 28 29
3 30 31 32
3 33 34 35
3 36 37 38
3 39 40 41
3 42 43 44
3 45 46 47
3 48 49 50
3 51 52 53
3 54 55 56
3 57 58 59
3 60 61 62
3 63 64 65
3 66 67 68
3 69 70 71
3 72 73 74
3 75 76 77
3 78 79 80
3 81 82 83
3 84 85 86
3 87 88 89
3 90 91 92
3 93 94 95
3 96 97 98
3 99 100 101
3 102 103 104
3 105 106 107
3 108 109 110
3 111 112 113
3 114 115 116
3 117 118 119
3 120 121 122
3 123 124 125
3 126 127 128
3 129 130 131
3 132 133 134
3 135 136 137
3 138 139 140
3 141 142 143
3 144 145 146
3 147 148 149
3 150 151 152
3 153 154 155
3 156 157 158
3 159 160 161
3 162 163 164
3 165 166 167
3 168 169 170
3 171 172 173
3 174 175 176
3 177 178 179
3 180 181 182
3 183 184 185
3 186 187 188
3 189 190 191
3 192 193 194
3 195 196 197
3 198 199 200
3 201 202 203
3 204 205 206
3 207 208 209
3 210 211 212
3 213 214 215
3 216 217 218
3 219 220 221
3 222 223 224
3 225 226 227
3 228 229 230
3 231 232 233
3 234 235 236
3 237 238 239
3 240 241 242
3 243 244 245
3 246 247 248
3 249 250 251
3 252 253 254
3 255 256 257
3 258 259 260
3 261 262 263
3 264 265 266
3 267 268 269
3 270 271 272
3 273 274 275
3 276 277 278
3 279 280 281
3 282 283 284
3 285 286 287
3 288 289 290
3 291 292 293
3 294 295 296
3 297 298 299
3 300 301 302
3 303 304 305
3 306 307 308
3 309 310 311
3 312 313 314
3 315 316 317
3 318 319 320
3 321 322 323
3 324 325 326
3 327 328 329
3 330 331 332
3 333 334 335
3 336 337 338
3 339 340 341
3 342 343 344
3 345 346 347
3 348 349 350
3 351 352 353
3 354 355 356
3 357 358 359
3 360 361 362
3 363 364 365
3 366 367 368
3 369 370 371
3 372 373 374
3 375 376 377
3 378 379 380
3 381 382 383
3 384 385 386
3 387 388 389
3 390 391 392
3 393 394 395
3 396 397 398
3 399 400 401
3 402 403 404
3 405 406 407
3 408 409 410
3 411 412 413
3 414 415 416
3 417 418 419
3 420 421 422
3 423 424 425
3 426 427 428
3 429 430 431
3 432 433 434
3 435 436 437
3 438 439 440
3 441 442 443
3 444 445 446
3 447 448 449
3 450 451 452
3 453 454 455
3 456 457 458
3 459 460 461
3 462 463 464
3 465 466 467
3 468 469 470
3 471 472 473
3 474 475 476
3 477 478 479
3 480 481 482
3 483 484 485
3 486 487 488
3 489 490 491
3 492 493 494
3 495 496 497
3 498 499 500
3 501 502 503
3 504 505 506
3 507 508 509
3 510 511 512
3 513 514 515
3 516 517 518
3 519 520 521
3 522 523 524
3 525 526 527
3 528 529 530
3 531 532 533
3 534 535 536
3 537 538 539
3 540 541 542
3 543 544 545
3 546 547 548
3 549 550 551
3 552 553 554
3 555 556 557
3 558 559 560
3 561 562 563
3 564 565 566
3 567 568 569
3 570 571 572
3 573 574 575
3 576 577 578
3 579 580 581
3 582 583 584
3 585 586 587
3 588 589 590
3 591 592 593
3 594 595 596
3 129 597 130
3 132 598 133
3 599 600 601
3 602 603 604
3 141 605 142
3 144 606 145
3 147 607 148
3 608 609 610
3 153 611 154
3 156 612 157
3 159 613 160
3 162 614 163
3 165 615 166
3 168 616 169
3 617 618 619
3 174 620 175
3 621 622 623
3 624 625 626
3 183 627 184
3 186 628 187
3 189 629 190
3 192 630 193
3 195 631 196
3 632 633 634
3 635 636 637
3 638 639 640
3 641 642 643
3 644 645 646
3 647 648 649
3 650 651 652
3 653 654 655
3 656 657 658
3 659 660 661
