ply
format ascii 1.0
comment Created by Blender 2.77 (sub 0) - www.blender.org, source file: ''
element vertex 345
property float x
property float y
property float z
property float nx
property float ny
property float nz
property uchar red
property uchar green
property uchar blue
element face 115
property list uchar uint vertex_indices
end_header
-0.114785 1.055145 0.734561 -0.586984 0.296361 0.753405 51 51 51
-0.083447 2.601802 0.150580 -0.586984 0.296361 0.753405 51 51 51
-0.275365 1.137242 0.577158 -0.586984 0.296361 0.753405 51 51 51
-0.275365 1.137242 0.577158 0.179436 0.253360 0.950585 51 51 51
-0.083447 2.601802 0.150580 0.179436 0.253360 0.950585 51 51 51
-0.470597 1.126597 0.616848 0.179436 0.253360 0.950585 51 51 51
-0.470597 1.126597 0.616848 -0.802453 0.360813 0.475271 51 51 51
-0.083447 2.601802 0.150580 -0.802453 0.360813 0.475271 51 51 51
-0.648668 1.074289 0.355902 -0.802453 0.360813 0.475271 51 51 51
-0.648668 1.074289 0.355902 -0.829378 0.363877 0.423940 51 51 51
-0.083447 2.601802 0.150580 -0.829378 0.363877 0.423940 51 51 51
-0.799456 1.153650 -0.007210 -0.829378 0.363877 0.423940 51 51 51
-0.799456 1.153650 -0.007210 -0.737009 0.421930 -0.528008 51 51 51
-0.083447 2.601802 0.150580 -0.737009 0.421930 -0.528008 51 51 51
-0.597752 1.268792 -0.196744 -0.737009 0.421930 -0.528008 51 51 51
-0.597752 1.268792 -0.196744 -0.895897 0.397402 -0.198595 51 51 51
-0.083447 2.601802 0.150580 -0.895897 0.397402 -0.198595 51 51 51
-0.524900 1.290895 -0.481162 -0.895897 0.397402 -0.198595 51 51 51
-0.524900 1.290895 -0.481162 -0.023250 0.440356 -0.897522 51 51 51
-0.083447 2.601802 0.150580 -0.023250 0.440356 -0.897522 51 51 51
-0.245461 1.215426 -0.525428 -0.023250 0.440356 -0.897522 51 51 51
-0.245461 1.215426 -0.525428 -0.410472 0.437963 -0.799813 51 51 51
-0.083447 2.601802 0.150580 -0.410472 0.437963 -0.799813 51 51 51
0.029845 1.228698 -0.659451 -0.410472 0.437963 -0.799813 51 51 51
0.029845 1.228698 -0.659451 0.551671 0.457086 -0.697661 51 51 51
-0.083447 2.601802 0.150580 0.551671 0.457086 -0.697661 51 51 51
0.270832 1.253092 -0.452910 0.551671 0.457086 -0.697661 51 51 51
0.460587 1.246467 -0.272292 0.853644 0.432984 -0.289513 51 51 51
-0.083447 2.601802 0.150580 0.853644 0.432984 -0.289513 51 51 51
0.630259 1.143965 0.074696 0.853644 0.432984 -0.289513 51 51 51
0.630259 1.143965 0.074696 0.813373 0.375051 0.444704 51 51 51
-0.083447 2.601802 0.150580 0.813373 0.375051 0.444704 51 51 51
0.397184 1.246095 0.414861 0.813373 0.375051 0.444704 51 51 51
0.397184 1.246095 0.414861 0.537820 0.340974 0.771030 51 51 51
-0.083447 2.601802 0.150580 0.537820 0.340974 0.771030 51 51 51
0.202389 1.079436 0.624439 0.537820 0.340974 0.771030 51 51 51
0.202389 1.079436 0.624439 0.286344 0.333361 0.898264 51 51 51
-0.083447 2.601802 0.150580 0.286344 0.333361 0.898264 51 51 51
-0.114785 1.055145 0.734561 0.286344 0.333361 0.898264 51 51 51
-0.103510 1.299101 0.062270 0.223630 -0.928692 -0.295838 51 51 51
-0.648668 1.074289 0.355902 0.223630 -0.928692 -0.295838 51 51 51
-0.799456 1.153650 -0.007210 0.223630 -0.928692 -0.295838 51 51 51
0.270832 1.253092 -0.452910 0.623950 0.449830 -0.639014 51 51 51
-0.083447 2.601802 0.150580 0.623950 0.449830 -0.639014 51 51 51
0.460587 1.246467 -0.272292 0.623950 0.449830 -0.639014 51 51 51
-0.470597 1.126597 0.616848 0.355079 -0.933203 -0.055243 51 51 51
-0.648668 1.074289 0.355902 0.355079 -0.933203 -0.055243 51 51 51
-0.103510 1.299101 0.062270 0.355079 -0.933203 -0.055243 51 51 51
-0.103510 1.299101 0.062270 0.089478 -0.994504 -0.054365 51 51 51
-0.597752 1.268792 -0.196744 0.089478 -0.994504 -0.054365 51 51 51
-0.524900 1.290895 -0.481162 0.089478 -0.994504 -0.054365 51 51 51
-0.597752 1.268792 -0.196744 0.224334 -0.920346 -0.320372 51 51 51
-0.103510 1.299101 0.062270 0.224334 -0.920346 -0.320372 51 51 51
-0.799456 1.153650 -0.007210 0.224334 -0.920346 -0.320372 51 51 51
-0.275365 1.137242 0.577158 -0.009593 -0.953010 -0.302788 51 51 51
-0.470597 1.126597 0.616848 -0.009593 -0.953010 -0.302788 51 51 51
-0.103510 1.299101 0.062270 -0.009593 -0.953010 -0.302788 51 51 51
-0.114785 1.055145 0.734561 -0.142283 -0.929692 -0.339746 51 51 51
-0.275365 1.137242 0.577158 -0.142283 -0.929692 -0.339746 51 51 51
-0.103510 1.299101 0.062270 -0.142283 -0.929692 -0.339746 51 51 51
0.202389 1.079436 0.624439 -0.046647 -0.938749 -0.341429 51 51 51
-0.114785 1.055145 0.734561 -0.046647 -0.938749 -0.341429 51 51 51
-0.103510 1.299101 0.062270 -0.046647 -0.938749 -0.341429 51 51 51
0.397184 1.246095 0.414861 0.234752 -0.855282 -0.461935 51 51 51
0.202389 1.079436 0.624439 0.234752 -0.855282 -0.461935 51 51 51
-0.103510 1.299101 0.062270 0.234752 -0.855282 -0.461935 51 51 51
0.630259 1.143965 0.074696 -0.206964 -0.967009 0.148524 51 51 51
0.397184 1.246095 0.414861 -0.206964 -0.967009 0.148524 51 51 51
-0.103510 1.299101 0.062270 -0.206964 -0.967009 0.148524 51 51 51
0.460587 1.246467 -0.272292 -0.070663 -0.996789 0.037675 51 51 51
-0.103510 1.299101 0.062270 -0.070663 -0.996789 0.037675 51 51 51
0.270832 1.253092 -0.452910 -0.070663 -0.996789 0.037675 51 51 51
0.029845 1.228698 -0.659451 0.103878 -0.987854 0.115558 51 51 51
-0.103510 1.299101 0.062270 0.103878 -0.987854 0.115558 51 51 51
-0.245461 1.215426 -0.525428 0.103878 -0.987854 0.115558 51 51 51
-0.245461 1.215426 -0.525428 -0.227631 -0.954845 0.190930 51 51 51
-0.103510 1.299101 0.062270 -0.227631 -0.954845 0.190930 51 51 51
-0.524900 1.290895 -0.481162 -0.227631 -0.954845 0.190930 51 51 51
-0.086836 -0.007516 0.095401 -0.404672 -0.000644 0.914461 0 0 0
-0.068490 1.406234 0.104516 -0.404672 -0.000644 0.914461 0 0 0
-0.146812 1.406562 0.069856 -0.404672 -0.000644 0.914461 0 0 0
-0.099961 -0.007580 0.001902 -0.224011 -0.002997 -0.974582 0 0 0
-0.081789 1.406079 -0.006622 -0.224011 -0.002997 -0.974582 0 0 0
-0.039126 -0.007434 -0.012081 -0.224011 -0.002997 -0.974582 0 0 0
-0.086836 -0.007516 0.095401 0.330556 -0.010374 0.943730 0 0 0
-0.005533 -0.007541 0.066924 0.330556 -0.010374 0.943730 0 0 0
-0.068490 1.406234 0.104516 0.330556 -0.010374 0.943730 0 0 0
-0.005533 -0.007541 0.066924 0.964013 0.035924 0.263416 0 0 0
-0.012618 0.650897 0.003055 0.964013 0.035924 0.263416 0 0 0
-0.068490 1.406234 0.104516 0.964013 0.035924 0.263416 0 0 0
-0.041351 1.535108 0.720846 -0.209717 0.377266 0.902047 51 51 51
-0.026289 2.976844 0.121366 -0.209717 0.377266 0.902047 51 51 51
-0.293698 1.741329 0.575929 -0.209717 0.377266 0.902047 51 51 51
-0.293698 1.741329 0.575929 -0.582682 0.388700 0.713718 51 51 51
-0.026289 2.976844 0.121366 -0.582682 0.388700 0.713718 51 51 51
-0.525342 1.720295 0.398270 -0.582682 0.388700 0.713718 51 51 51
-0.525342 1.720295 0.398270 -0.819310 0.413031 0.397663 51 51 51
-0.026289 2.976844 0.121366 -0.819310 0.413031 0.397663 51 51 51
-0.658717 1.784312 0.056985 -0.819310 0.413031 0.397663 51 51 51
-0.658717 1.784312 0.056985 -0.690236 0.398650 -0.603864 51 51 51
-0.026289 2.976844 0.121366 -0.690236 0.398650 -0.603864 51 51 51
-0.479259 1.826519 -0.120278 -0.690236 0.398650 -0.603864 51 51 51
-0.479259 1.826519 -0.120278 -0.887644 0.398150 -0.231441 51 51 51
-0.026289 2.976844 0.121366 -0.887644 0.398150 -0.231441 51 51 51
-0.432819 1.793053 -0.355963 -0.887644 0.398150 -0.231441 51 51 51
-0.432819 1.793053 -0.355963 -0.044741 0.386768 -0.921091 51 51 51
-0.026289 2.976844 0.121366 -0.044741 0.386768 -0.921091 51 51 51
-0.168172 1.685275 -0.414074 -0.044741 0.386768 -0.921091 51 51 51
-0.168172 1.685275 -0.414074 -0.473187 0.381230 -0.794203 51 51 51
-0.026289 2.976844 0.121366 -0.473187 0.381230 -0.794203 51 51 51
0.036403 1.711471 -0.523386 -0.473187 0.381230 -0.794203 51 51 51
0.036403 1.711471 -0.523386 0.534186 0.404656 -0.742226 51 51 51
-0.026289 2.976844 0.121366 0.534186 0.404656 -0.742226 51 51 51
0.301327 1.714689 -0.330963 0.534186 0.404656 -0.742226 51 51 51
0.466061 1.631978 -0.117952 0.786029 0.375191 -0.491314 51 51 51
-0.026289 2.976844 0.121366 0.786029 0.375191 -0.491314 51 51 51
0.597616 1.679391 0.128723 0.786029 0.375191 -0.491314 51 51 51
0.597616 1.679391 0.128723 0.821628 0.397413 0.408645 51 51 51
-0.026289 2.976844 0.121366 0.821628 0.397413 0.408645 51 51 51
0.398603 1.801819 0.409798 0.821628 0.397413 0.408645 51 51 51
0.398603 1.801819 0.409798 0.547982 0.380954 0.744707 51 51 51
-0.026289 2.976844 0.121366 0.547982 0.380954 0.744707 51 51 51
0.215137 1.676035 0.609143 0.547982 0.380954 0.744707 51 51 51
0.215137 1.676035 0.609143 0.188962 0.375336 0.907423 51 51 51
-0.026289 2.976844 0.121366 0.188962 0.375336 0.907423 51 51 51
-0.041351 1.535108 0.720846 0.188962 0.375336 0.907423 51 51 51
-0.012464 1.785135 0.185958 0.041100 -0.978995 -0.199697 51 51 51
-0.525342 1.720295 0.398270 0.041100 -0.978995 -0.199697 51 51 51
-0.658717 1.784312 0.056985 0.041100 -0.978995 -0.199697 51 51 51
0.301327 1.714689 -0.330963 0.797941 0.375957 -0.471112 51 51 51
-0.026289 2.976844 0.121366 0.797941 0.375957 -0.471112 51 51 51
0.466061 1.631978 -0.117952 0.797941 0.375957 -0.471112 51 51 51
-0.293698 1.741329 0.575929 0.113153 -0.993126 -0.029957 51 51 51
-0.525342 1.720295 0.398270 0.113153 -0.993126 -0.029957 51 51 51
-0.012464 1.785135 0.185958 0.113153 -0.993126 -0.029957 51 51 51
-0.012464 1.785135 0.185958 -0.158018 -0.981487 0.108231 51 51 51
-0.479259 1.826519 -0.120278 -0.158018 -0.981487 0.108231 51 51 51
-0.432819 1.793053 -0.355963 -0.158018 -0.981487 0.108231 51 51 51
-0.479259 1.826519 -0.120278 0.039794 -0.980364 -0.193142 51 51 51
-0.012464 1.785135 0.185958 0.039794 -0.980364 -0.193142 51 51 51
-0.658717 1.784312 0.056985 0.039794 -0.980364 -0.193142 51 51 51
-0.041351 1.535108 0.720846 -0.430381 -0.808583 -0.401206 51 51 51
-0.293698 1.741329 0.575929 -0.430381 -0.808583 -0.401206 51 51 51
-0.012464 1.785135 0.185958 -0.430381 -0.808583 -0.401206 51 51 51
0.215137 1.676035 0.609143 0.307546 -0.868272 -0.389254 51 51 51
-0.041351 1.535108 0.720846 0.307546 -0.868272 -0.389254 51 51 51
-0.012464 1.785135 0.185958 0.307546 -0.868272 -0.389254 51 51 51
0.398603 1.801819 0.409798 0.231523 -0.904662 -0.357749 51 51 51
0.215137 1.676035 0.609143 0.231523 -0.904662 -0.357749 51 51 51
-0.012464 1.785135 0.185958 0.231523 -0.904662 -0.357749 51 51 51
0.597616 1.679391 0.128723 -0.133336 -0.939712 0.314903 51 51 51
0.398603 1.801819 0.409798 -0.133336 -0.939712 0.314903 51 51 51
-0.012464 1.785135 0.185958 -0.133336 -0.939712 0.314903 51 51 51
0.466061 1.631978 -0.117952 -0.353858 -0.931159 -0.087907 51 51 51
-0.012464 1.785135 0.185958 -0.353858 -0.931159 -0.087907 51 51 51
0.301327 1.714689 -0.330963 -0.353858 -0.931159 -0.087907 51 51 51
0.036403 1.711471 -0.523386 0.185963 -0.975903 0.114157 51 51 51
-0.012464 1.785135 0.185958 0.185963 -0.975903 0.114157 51 51 51
-0.168172 1.685275 -0.414074 0.185963 -0.975903 0.114157 51 51 51
-0.168172 1.685275 -0.414074 -0.321605 -0.916976 0.236064 51 51 51
-0.012464 1.785135 0.185958 -0.321605 -0.916976 0.236064 51 51 51
-0.432819 1.793053 -0.355963 -0.321605 -0.916976 0.236064 51 51 51
-0.210201 1.981912 -0.358883 0.051933 0.258492 -0.964617 51 51 51
0.100262 3.249837 -0.002398 0.051933 0.258492 -0.964617 51 51 51
0.057654 2.126674 -0.305670 0.051933 0.258492 -0.964617 51 51 51
0.057654 2.126674 -0.305670 0.455325 0.215950 -0.863739 51 51 51
0.100262 3.249837 -0.002398 0.455325 0.215950 -0.863739 51 51 51
0.283080 2.084112 -0.197477 0.455325 0.215950 -0.863739 51 51 51
0.283080 2.084112 -0.197477 0.759797 0.221453 -0.611283 51 51 51
0.100262 3.249837 -0.002398 0.759797 0.221453 -0.611283 51 51 51
0.471791 2.140838 0.057632 0.759797 0.221453 -0.611283 51 51 51
0.471791 2.140838 0.057632 0.867025 0.311514 0.388878 51 51 51
0.100262 3.249837 -0.002398 0.867025 0.311514 0.388878 51 51 51
0.364354 2.217694 0.235602 0.867025 0.311514 0.388878 51 51 51
0.364354 2.217694 0.235602 0.969486 0.244718 -0.014492 51 51 51
0.100262 3.249837 -0.002398 0.969486 0.244718 -0.014492 51 51 51
0.368655 2.213095 0.445692 0.969486 0.244718 -0.014492 51 51 51
0.368655 2.213095 0.445692 0.320003 0.444468 0.836688 51 51 51
0.100262 3.249837 -0.002398 0.320003 0.444468 0.836688 51 51 51
0.145360 2.167977 0.555062 0.320003 0.444468 0.836688 51 51 51
0.145360 2.167977 0.555062 0.700411 0.349781 0.622155 51 51 51
0.100262 3.249837 -0.002398 0.700411 0.349781 0.622155 51 51 51
0.001089 2.230537 0.682308 0.700411 0.349781 0.622155 51 51 51
0.001089 2.230537 0.682308 -0.273937 0.554507 0.785799 51 51 51
0.100262 3.249837 -0.002398 -0.273937 0.554507 0.785799 51 51 51
-0.257469 2.262273 0.569777 -0.273937 0.554507 0.785799 51 51 51
-0.448961 2.203609 0.430195 -0.578664 0.552010 0.600361 51 51 51
0.100262 3.249837 -0.002398 -0.578664 0.552010 0.600361 51 51 51
-0.601450 2.247755 0.242627 -0.578664 0.552010 0.600361 51 51 51
-0.601450 2.247755 0.242627 -0.818873 0.508170 -0.266852 51 51 51
0.100262 3.249837 -0.002398 -0.818873 0.508170 -0.266852 51 51 51
-0.475662 2.300312 -0.043288 -0.818873 0.508170 -0.266852 51 51 51
-0.475662 2.300312 -0.043288 -0.637412 0.414584 -0.649481 51 51 51
0.100262 3.249837 -0.002398 -0.637412 0.414584 -0.649481 51 51 51
-0.381060 2.150334 -0.231867 -0.637412 0.414584 -0.649481 51 51 51
-0.381060 2.150334 -0.231867 -0.331942 0.329760 -0.883783 51 51 51
0.100262 3.249837 -0.002398 -0.331942 0.329760 -0.883783 51 51 51
-0.210201 1.981912 -0.358883 -0.331942 0.329760 -0.883783 51 51 51
-0.091194 2.235950 0.069769 -0.151129 -0.935361 0.319780 51 51 51
0.283080 2.084112 -0.197477 -0.151129 -0.935361 0.319780 51 51 51
0.471791 2.140838 0.057632 -0.151129 -0.935361 0.319780 51 51 51
-0.257469 2.262273 0.569777 -0.594665 0.553338 0.583259 51 51 51
0.100262 3.249837 -0.002398 -0.594665 0.553338 0.583259 51 51 51
-0.448961 2.203609 0.430195 -0.594665 0.553338 0.583259 51 51 51
0.057654 2.126674 -0.305670 -0.262055 -0.949516 0.172472 51 51 51
0.283080 2.084112 -0.197477 -0.262055 -0.949516 0.172472 51 51 51
-0.091194 2.235950 0.069769 -0.262055 -0.949516 0.172472 51 51 51
-0.091194 2.235950 0.069769 -0.032322 -0.999252 -0.021214 51 51 51
0.364354 2.217694 0.235602 -0.032322 -0.999252 -0.021214 51 51 51
0.368655 2.213095 0.445692 -0.032322 -0.999252 -0.021214 51 51 51
0.364354 2.217694 0.235602 -0.151624 -0.937467 0.313313 51 51 51
-0.091194 2.235950 0.069769 -0.151624 -0.937467 0.313313 51 51 51
0.471791 2.140838 0.057632 -0.151624 -0.937467 0.313313 51 51 51
-0.210201 1.981912 -0.358883 0.375494 -0.839303 0.393159 51 51 51
0.057654 2.126674 -0.305670 0.375494 -0.839303 0.393159 51 51 51
-0.091194 2.235950 0.069769 0.375494 -0.839303 0.393159 51 51 51
-0.381060 2.150334 -0.231867 -0.344583 -0.762517 0.547568 51 51 51
-0.210201 1.981912 -0.358883 -0.344583 -0.762517 0.547568 51 51 51
-0.091194 2.235950 0.069769 -0.344583 -0.762517 0.547568 51 51 51
-0.475662 2.300312 -0.043288 -0.284899 -0.814724 0.505031 51 51 51
-0.381060 2.150334 -0.231867 -0.284899 -0.814724 0.505031 51 51 51
-0.091194 2.235950 0.069769 -0.284899 -0.814724 0.505031 51 51 51
-0.601450 2.247755 0.242627 -0.097390 -0.970350 -0.221215 51 51 51
-0.475662 2.300312 -0.043288 -0.097390 -0.970350 -0.221215 51 51 51
-0.091194 2.235950 0.069769 -0.097390 -0.970350 -0.221215 51 51 51
-0.448961 2.203609 0.430195 0.209304 -0.970374 0.120689 51 51 51
-0.091194 2.235950 0.069769 0.209304 -0.970374 0.120689 51 51 51
-0.257469 2.262273 0.569777 0.209304 -0.970374 0.120689 51 51 51
0.001089 2.230537 0.682308 -0.362668 -0.930762 0.046413 51 51 51
-0.091194 2.235950 0.069769 -0.362668 -0.930762 0.046413 51 51 51
0.145360 2.167977 0.555062 -0.362668 -0.930762 0.046413 51 51 51
0.145360 2.167977 0.555062 0.105198 -0.976509 -0.188054 51 51 51
-0.091194 2.235950 0.069769 0.105198 -0.976509 -0.188054 51 51 51
0.368655 2.213095 0.445692 0.105198 -0.976509 -0.188054 51 51 51
-0.397823 2.522815 -0.113847 -0.647667 0.317346 -0.692690 51 51 51
0.084595 3.526386 -0.105137 -0.647667 0.317346 -0.692690 51 51 51
-0.206123 2.624576 -0.246466 -0.647667 0.317346 -0.692690 51 51 51
-0.206123 2.624576 -0.246466 -0.305428 0.242759 -0.920751 51 51 51
0.084595 3.526386 -0.105137 -0.305428 0.242759 -0.920751 51 51 51
-0.018927 2.572084 -0.322402 -0.305428 0.242759 -0.920751 51 51 51
-0.018927 2.572084 -0.322402 0.085433 0.212357 -0.973450 51 51 51
0.084595 3.526386 -0.105137 0.085433 0.212357 -0.973450 51 51 51
0.243857 2.594949 -0.294352 0.085433 0.212357 -0.973450 51 51 51
0.243857 2.594949 -0.294352 0.898351 0.229672 -0.374454 51 51 51
0.084595 3.526386 -0.105137 0.898351 0.229672 -0.374454 51 51 51
0.297189 2.653942 -0.130219 0.898351 0.229672 -0.374454 51 51 51
0.297189 2.653942 -0.130219 0.666058 0.183091 -0.723080 51 51 51
0.084595 3.526386 -0.105137 0.666058 0.183091 -0.723080 51 51 51
0.425820 2.638615 -0.015612 0.666058 0.183091 -0.723080 51 51 51
0.425820 2.638615 -0.015612 0.869166 0.367449 0.330955 51 51 51
0.084595 3.526386 -0.105137 0.869166 0.367449 0.330955 51 51 51
0.364313 2.607411 0.180565 0.869166 0.367449 0.330955 51 51 51
0.364313 2.607411 0.180565 0.960196 0.263067 -0.093917 51 51 51
0.084595 3.526386 -0.105137 0.960196 0.263067 -0.093917 51 51 51
0.365552 2.659349 0.338710 0.960196 0.263067 -0.093917 51 51 51
0.365552 2.659349 0.338710 0.441069 0.518076 0.732841 51 51 51
0.084595 3.526386 -0.105137 0.441069 0.518076 0.732841 51 51 51
0.156524 2.704936 0.432289 0.441069 0.518076 0.732841 51 51 51
-0.038340 2.674398 0.470372 0.099392 0.547092 0.831151 51 51 51
0.084595 3.526386 -0.105137 0.099392 0.547092 0.831151 51 51 51
-0.232736 2.728662 0.457901 0.099392 0.547092 0.831151 51 51 51
-0.232736 2.728662 0.457901 -0.701721 0.575535 0.419937 51 51 51
0.084595 3.526386 -0.105137 -0.701721 0.575535 0.419937 51 51 51
-0.331201 2.780579 0.222210 -0.701721 0.575535 0.419937 51 51 51
-0.331201 2.780579 0.222210 -0.867949 0.495899 0.027356 51 51 51
0.084595 3.526386 -0.105137 -0.867949 0.495899 0.027356 51 51 51
-0.403544 2.662906 0.060058 -0.867949 0.495899 0.027356 51 51 51
-0.403544 2.662906 0.060058 -0.841073 0.407393 -0.355847 51 51 51
0.084595 3.526386 -0.105137 -0.841073 0.407393 -0.355847 51 51 51
-0.397823 2.522815 -0.113847 -0.841073 0.407393 -0.355847 51 51 51
-0.054375 2.701650 0.052817 0.046812 -0.942824 0.329986 51 51 51
-0.018927 2.572084 -0.322402 0.046812 -0.942824 0.329986 51 51 51
0.243857 2.594949 -0.294352 0.046812 -0.942824 0.329986 51 51 51
0.156524 2.704936 0.432289 0.076187 0.550552 0.831317 51 51 51
0.084595 3.526386 -0.105137 0.076187 0.550552 0.831317 51 51 51
-0.038340 2.674398 0.470372 0.076187 0.550552 0.831317 51 51 51
-0.206123 2.624576 -0.246466 -0.137205 -0.940221 0.311702 51 51 51
-0.018927 2.572084 -0.322402 -0.137205 -0.940221 0.311702 51 51 51
-0.054375 2.701650 0.052817 -0.137205 -0.940221 0.311702 51 51 51
-0.054375 2.701650 0.052817 -0.128516 -0.991639 0.011622 51 51 51
0.297189 2.653942 -0.130219 -0.128516 -0.991639 0.011622 51 51 51
0.425820 2.638615 -0.015612 -0.128516 -0.991639 0.011622 51 51 51
0.297189 2.653942 -0.130219 0.041542 -0.944469 0.325964 51 51 51
-0.054375 2.701650 0.052817 0.041542 -0.944469 0.325964 51 51 51
0.243857 2.594949 -0.294352 0.041542 -0.944469 0.325964 51 51 51
-0.397823 2.522815 -0.113847 0.464738 -0.885416 -0.007620 51 51 51
-0.206123 2.624576 -0.246466 0.464738 -0.885416 -0.007620 51 51 51
-0.054375 2.701650 0.052817 0.464738 -0.885416 -0.007620 51 51 51
-0.403544 2.662906 0.060058 0.098798 -0.773352 0.626232 51 51 51
-0.397823 2.522815 -0.113847 0.098798 -0.773352 0.626232 51 51 51
-0.054375 2.701650 0.052817 0.098798 -0.773352 0.626232 51 51 51
-0.331201 2.780579 0.222210 0.103172 -0.826339 0.553641 51 51 51
-0.403544 2.662906 0.060058 0.103172 -0.826339 0.553641 51 51 51
-0.054375 2.701650 0.052817 0.103172 -0.826339 0.553641 51 51 51
-0.232736 2.728662 0.457901 -0.316234 -0.945617 -0.076184 51 51 51
-0.331201 2.780579 0.222210 -0.316234 -0.945617 -0.076184 51 51 51
-0.054375 2.701650 0.052817 -0.316234 -0.945617 -0.076184 51 51 51
-0.038340 2.674398 0.470372 0.141103 -0.987526 -0.069869 51 51 51
-0.054375 2.701650 0.052817 0.141103 -0.987526 -0.069869 51 51 51
0.156524 2.704936 0.432289 0.141103 -0.987526 -0.069869 51 51 51
0.365552 2.659349 0.338710 -0.295709 -0.906896 0.300160 51 51 51
-0.054375 2.701650 0.052817 -0.295709 -0.906896 0.300160 51 51 51
0.364313 2.607411 0.180565 -0.295709 -0.906896 0.300160 51 51 51
0.364313 2.607411 0.180565 -0.155784 -0.966787 -0.202619 51 51 51
-0.054375 2.701650 0.052817 -0.155784 -0.966787 -0.202619 51 51 51
0.425820 2.638615 -0.015612 -0.155784 -0.966787 -0.202619 51 51 51
0.630259 1.143965 0.074696 -0.200212 -0.961888 -0.186245 51 51 51
-0.103510 1.299101 0.062270 -0.200212 -0.961888 -0.186245 51 51 51
0.460587 1.246467 -0.272292 -0.200212 -0.961888 -0.186245 51 51 51
0.270832 1.253092 -0.452910 0.015133 -0.994888 0.099846 51 51 51
-0.103510 1.299101 0.062270 0.015133 -0.994888 0.099846 51 51 51
0.029845 1.228698 -0.659451 0.015133 -0.994888 0.099846 51 51 51
-0.099961 -0.007580 0.001902 -0.989515 -0.039459 0.138937 0 0 0
-0.086836 -0.007516 0.095401 -0.989515 -0.039459 0.138937 0 0 0
-0.146812 1.406562 0.069856 -0.989515 -0.039459 0.138937 0 0 0
-0.039126 -0.007434 -0.012081 0.919890 -0.028046 -0.391173 0 0 0
-0.012618 0.650897 0.003055 0.919890 -0.028046 -0.391173 0 0 0
-0.005533 -0.007541 0.066924 0.919890 -0.028046 -0.391173 0 0 0
-0.039126 -0.007434 -0.012081 0.262034 0.011635 -0.964989 0 0 0
-0.081789 1.406079 -0.006622 0.262034 0.011635 -0.964989 0 0 0
-0.012618 0.650897 0.003055 0.262034 0.011635 -0.964989 0 0 0
-0.068490 1.406234 0.104516 0.988956 0.089065 -0.118466 0 0 0
-0.012618 0.650897 0.003055 0.988956 0.089065 -0.118466 0 0 0
-0.081789 1.406079 -0.006622 0.988956 0.089065 -0.118466 0 0 0
-0.099961 -0.007580 0.001902 -0.761828 0.005887 -0.647752 0 0 0
-0.146812 1.406562 0.069856 -0.761828 0.005887 -0.647752 0 0 0
-0.081789 1.406079 -0.006622 -0.761828 0.005887 -0.647752 0 0 0
0.597616 1.679391 0.128723 -0.141312 -0.955480 0.259016 51 51 51
-0.012464 1.785135 0.185958 -0.141312 -0.955480 0.259016 51 51 51
0.466061 1.631978 -0.117952 -0.141312 -0.955480 0.259016 51 51 51
0.301327 1.714689 -0.330963 -0.059861 -0.993283 0.099027 51 51 51
-0.012464 1.785135 0.185958 -0.059861 -0.993283 0.099027 51 51 51
0.036403 1.711471 -0.523386 -0.059861 -0.993283 0.099027 51 51 51
-0.601450 2.247755 0.242627 -0.079267 -0.982788 -0.166868 51 51 51
-0.091194 2.235950 0.069769 -0.079267 -0.982788 -0.166868 51 51 51
-0.448961 2.203609 0.430195 -0.079267 -0.982788 -0.166868 51 51 51
-0.257469 2.262273 0.569777 -0.126215 -0.991950 0.010249 51 51 51
-0.091194 2.235950 0.069769 -0.126215 -0.991950 0.010249 51 51 51
0.001089 2.230537 0.682308 -0.126215 -0.991950 0.010249 51 51 51
-0.232736 2.728662 0.457901 -0.265352 -0.962714 -0.052641 51 51 51
-0.054375 2.701650 0.052817 -0.265352 -0.962714 -0.052641 51 51 51
-0.038340 2.674398 0.470372 -0.265352 -0.962714 -0.052641 51 51 51
0.156524 2.704936 0.432289 -0.168183 -0.980468 0.101962 51 51 51
-0.054375 2.701650 0.052817 -0.168183 -0.980468 0.101962 51 51 51
0.365552 2.659349 0.338710 -0.168183 -0.980468 0.101962 51 51 51
3 0 1 2
3 3 4 5
3 6 7 8
3 9 10 11
3 12 13 14
3 15 16 17
3 18 19 20
3 21 22 23
3 24 25 26
3 27 28 29
3 30 31 32
3 33 34 35
3 36 37 38
3 39 40 41
3 42 43 44
3 45 46 47
3 48 49 50
3 51 52 53
3 54 55 56
3 57 58 59
3 60 61 62
3 63 64 65
3 66 67 68
3 69 70 71
3 72 73 74
3 75 76 77
3 78 79 80
3 81 82 83
3 84 85 86
3 87 88 89
3 90 91 92
3 93 94 95
3 96 97 98
3 99 100 101
3 102 103 104
3 105 106 107
3 108 109 110
3 111 112 113
3 114 115 116
3 117 118 119
3 120 121 122
3 123 124 125
3 126 127 128
3 129 130 131
3 132 133 134
3 135 136 137
3 138 139 140
3 141 142 143
3 144 145 146
3 147 148 149
3 150 151 152
3 153 154 155
3 156 157 158
3 159 160 161
3 162 163 164
3 165 166 167
3 168 169 170
3 171 172 173
3 174 175 176
3 177 178 179
3 180 181 182
3 183 184 185
3 186 187 188
3 189 190 191
3 192 193 194
3 195 196 197
3 198 199 200
3 201 202 203
3 204 205 206
3 207 208 209
3 210 211 212
3 213 214 215
3 216 217 218
3 219 220 221
3 222 223 224
3 225 226 227
3 228 229 230
3 231 232 233
3 234 235 236
3 237 238 239
3 240 241 242
3 243 244 245
3 246 247 248
3 249 250 251
3 252 253 254
3 255 256 257
3 258 259 260
3 261 262 263
3 264 265 266
3 267 268 269
3 270 271 272
3 273 274 275
3 276 277 278
3 279 280 281
3 282 283 284
3 285 286 287
3 288 289 290
3 291 292 293
3 294 295 296
3 297 298 299
3 300 301 302
3 303 304 305
3 306 307 308
3 309 310 311
3 312 313 314
3 315 316 317
3 318 319 320
3 321 322 323
3 324 325 326
3 327 328 329
3 330 331 332
3 333 334 335
3 336 337 338
3 339 340 341
3 342 343 344
