ply
format ascii 1.0
comment Created by Blender 2.77 (sub 0) - www.blender.org, source file: 'House1-Colliders.blend'
element vertex 12
property float x
property float y
property float z
property float nx
property float ny
property float nz
element face 20
property list uchar uint vertex_indices
end_header
-3.587908 0.092941 1.734524 -0.582385 -0.601001 -0.547319
-2.511703 2.212366 1.535801 0.696738 -0.033509 -0.716514
-2.511703 0.092941 1.734689 0.582476 -0.601032 -0.547197
-2.511807 2.195631 3.224780 0.696616 -0.033784 0.716636
-3.587908 0.092941 3.025892 -0.582476 -0.601215 0.547014
-2.511807 0.092941 3.026057 0.582385 -0.601184 0.547136
-2.511807 2.990699 3.224780 0.577319 0.577349 0.577349
-3.587908 2.990699 1.535801 -0.577349 0.577349 -0.577349
-3.587908 2.990699 3.224780 -0.577349 0.577349 0.577349
-3.587908 2.195915 3.224780 -0.696646 -0.033784 0.716605
-3.587908 2.212366 1.535801 -0.696738 -0.033509 -0.716514
-2.511703 2.990699 1.535801 0.577349 0.577319 -0.577319
3 0 1 2
3 3 4 5
3 6 7 8
3 4 2 5
3 6 9 3
3 9 10 0
3 3 1 6
3 11 10 7
3 0 10 1
3 3 9 4
3 6 11 7
3 4 0 2
3 6 8 9
3 0 4 9
3 9 8 10
3 7 10 8
3 11 6 1
3 3 5 2
3 2 1 3
3 11 1 10
