ply
format ascii 1.0
comment Created by Blender 2.77 (sub 0) - www.blender.org, source file: 'House1-Colliders.blend'
element vertex 8
property float x
property float y
property float z
property float nx
property float ny
property float nz
element face 12
property list uchar uint vertex_indices
end_header
2.107273 3.807764 8.160586 0.577349 -0.577349 0.577319
0.813051 3.807764 6.317350 -0.577319 -0.577319 -0.577349
2.107400 3.807764 6.317531 0.577380 -0.577349 -0.577288
0.813179 16.515915 8.160767 -0.577288 0.577319 0.577410
2.107401 16.515915 6.317531 0.577380 0.577349 -0.577258
0.813052 16.515915 6.317350 -0.577319 0.577319 -0.577349
2.107274 16.515915 8.160586 0.577349 0.577349 0.577319
0.813178 3.807764 8.160767 -0.577288 -0.577319 0.577410
3 0 1 2
3 3 4 5
3 0 4 6
3 7 6 3
3 7 5 1
3 2 5 4
3 0 7 1
3 3 6 4
3 0 2 4
3 7 0 6
3 7 3 5
3 2 1 5
