ply
format ascii 1.0
comment Created by Blender 2.77 (sub 0) - www.blender.org, source file: 'House1-Colliders.blend'
element vertex 8
property float x
property float y
property float z
property float nx
property float ny
property float nz
element face 12
property list uchar uint vertex_indices
end_header
1.025079 8.228060 -3.620612 0.577319 0.577349 0.577319
0.832197 8.228060 -3.813491 -0.577319 0.577349 -0.577349
0.832178 8.228060 -3.620593 -0.577349 0.577319 0.577349
1.025098 8.067915 -3.813491 0.577380 -0.577319 -0.577319
1.025098 8.228060 -3.813491 0.577380 0.577319 -0.577319
1.025079 8.067915 -3.620612 0.577319 -0.577349 0.577319
0.832197 8.067915 -3.813491 -0.577319 -0.577349 -0.577349
0.832178 8.067915 -3.620593 -0.577349 -0.577319 0.577349
3 0 1 2
3 0 3 4
3 5 6 3
3 1 7 2
3 2 5 0
3 6 4 3
3 0 4 1
3 0 5 3
3 5 7 6
3 1 6 7
3 2 7 5
3 6 1 4
