ply
format ascii 1.0
comment Created by Blender 2.77 (sub 0) - www.blender.org, source file: 'House1-Colliders.blend'
element vertex 16
property float x
property float y
property float z
property float nx
property float ny
property float nz
element face 28
property list uchar uint vertex_indices
end_header
1.375819 15.751614 -8.579612 0.310160 0.714164 -0.627461
7.949152 8.714824 -8.579612 0.720084 0.284005 -0.633076
1.355164 14.239628 -8.579612 -0.720847 -0.280160 -0.633931
1.355164 14.239628 -8.156169 -0.720847 -0.280160 0.633931
1.355164 15.751614 -8.579612 -0.577349 0.577349 -0.577349
1.375819 15.751614 -8.156169 0.310160 0.714164 0.627461
7.081657 8.029138 -8.579612 0.237953 -0.727622 -0.643361
7.908487 8.634689 -8.156210 0.468398 -0.550432 0.691061
7.081657 8.029138 -8.156210 0.237953 -0.727622 0.643361
7.041638 8.029138 -8.579612 -0.313974 -0.713218 -0.626637
7.949152 8.674757 -8.156210 0.716605 -0.299936 0.629658
7.908487 8.634689 -8.579612 0.468429 -0.550432 -0.691061
7.949152 8.674757 -8.579612 0.716636 -0.299936 -0.629627
7.041638 8.029138 -8.156210 -0.313974 -0.713218 0.626637
7.949152 8.714824 -8.156210 0.720084 0.284005 0.633076
1.355164 15.751614 -8.156169 -0.577349 0.577349 0.577349
3 0 1 2
3 3 4 2
3 4 5 0
3 6 7 8
3 8 9 6
3 10 11 12
3 1 10 12
3 2 13 3
3 0 14 1
3 14 3 13
3 11 6 9
3 9 1 11
3 4 0 2
3 1 12 11
3 9 2 1
3 3 15 4
3 4 15 5
3 6 11 7
3 8 13 9
3 10 7 11
3 1 14 10
3 2 9 13
3 0 5 14
3 13 8 7
3 7 10 14
3 14 5 3
3 15 3 5
3 13 7 14
