ply
format ascii 1.0
comment Created by Blender 2.77 (sub 0) - www.blender.org, source file: 'House1-Colliders.blend'
element vertex 16
property float x
property float y
property float z
property float nx
property float ny
property float nz
element face 28
property list uchar uint vertex_indices
end_header
0.590734 1.001682 3.346300 0.290414 0.631672 -0.718741
0.574390 0.185157 3.346300 -0.303903 -0.628803 -0.715690
0.574390 1.001682 3.346300 -0.303903 0.628773 -0.715690
-0.095146 1.001682 4.040026 -0.718772 0.631703 -0.290262
-0.095146 0.185157 4.056368 -0.715720 -0.628803 0.303781
-0.095146 1.001682 4.056368 -0.715720 0.628803 0.303781
1.072485 0.185157 3.811585 0.715720 -0.628803 -0.303781
0.590734 0.185157 3.346300 0.290414 -0.631703 -0.718741
1.072485 0.185157 3.827811 0.718772 -0.631733 0.290201
1.072485 1.001682 3.811585 0.715720 0.628803 -0.303781
1.072485 1.001682 3.827811 0.718772 0.631733 0.290201
-0.095146 0.185157 4.040026 -0.718772 -0.631733 -0.290262
0.386719 0.185157 4.521768 -0.290414 -0.631703 0.718741
0.402949 1.001682 4.521768 0.303964 0.628773 0.715690
0.386719 1.001682 4.521768 -0.290414 0.631703 0.718741
0.402949 0.185157 4.521768 0.303964 -0.628773 0.715690
3 0 1 2
3 3 4 5
3 0 6 7
3 8 9 10
3 2 11 3
3 12 13 14
3 0 2 10
3 12 5 4
3 8 11 1
3 8 13 15
3 0 7 1
3 3 11 4
3 0 9 6
3 8 6 9
3 2 1 11
3 12 15 13
3 5 14 3
3 13 10 3
3 9 0 10
3 2 3 10
3 14 13 3
3 12 14 5
3 4 11 12
3 1 7 8
3 6 8 7
3 15 12 11
3 11 8 15
3 8 10 13
