ply
format ascii 1.0
comment Created by Blender 2.77 (sub 0) - www.blender.org, source file: 'House1-Colliders.blend'
element vertex 8
property float x
property float y
property float z
property float nx
property float ny
property float nz
element face 12
property list uchar uint vertex_indices
end_header
-2.194199 8.228481 -4.298594 0.577349 0.577349 -0.577319
-2.194199 8.067898 -4.105180 0.577349 -0.577349 0.577349
-2.194199 8.067898 -4.298594 0.577349 -0.577349 -0.577319
-2.387630 8.067898 -4.105180 -0.577349 -0.577349 0.577349
-2.387630 8.228481 -4.298612 -0.577319 0.577319 -0.577380
-2.387630 8.067898 -4.298612 -0.577319 -0.577319 -0.577380
-2.387630 8.228481 -4.105180 -0.577349 0.577349 0.577349
-2.194199 8.228481 -4.105180 0.577349 0.577349 0.577349
3 0 1 2
3 3 4 5
3 0 6 7
3 2 3 5
3 4 2 5
3 1 6 3
3 0 7 1
3 3 6 4
3 0 4 6
3 2 1 3
3 4 0 2
3 1 7 6
