ply
format ascii 1.0
comment Created by Blender 2.77 (sub 0) - www.blender.org, source file: 'House1-Colliders.blend'
element vertex 8
property float x
property float y
property float z
property float nx
property float ny
property float nz
element face 12
property list uchar uint vertex_indices
end_header
5.078548 9.309814 -3.707175 -0.577380 0.577319 0.577288
6.118482 4.739578 -3.707229 0.577349 -0.577349 0.577319
6.118482 9.309814 -3.707229 0.577349 0.577349 0.577319
6.118482 4.739578 -4.254508 0.577349 -0.577349 -0.577319
5.078650 9.309814 -4.254561 -0.577258 0.577349 -0.577410
6.118482 9.309814 -4.254508 0.577349 0.577349 -0.577319
5.078650 4.739578 -4.254561 -0.577258 -0.577349 -0.577410
5.078548 4.739578 -3.707175 -0.577380 -0.577319 0.577288
3 0 1 2
3 3 4 5
3 6 0 4
3 1 6 3
3 5 1 3
3 2 4 0
3 0 7 1
3 3 6 4
3 6 7 0
3 1 7 6
3 5 2 1
3 2 5 4
