ply
format ascii 1.0
comment Created by Blender 2.77 (sub 0) - www.blender.org, source file: 'House1-Colliders.blend'
element vertex 8
property float x
property float y
property float z
property float nx
property float ny
property float nz
element face 12
property list uchar uint vertex_indices
end_header
2.402877 0.185243 -0.784072 0.577349 -0.577349 0.577349
1.718164 0.185243 -1.762424 -0.577319 -0.577349 -0.577349
2.402877 0.185243 -1.762424 0.577349 -0.577349 -0.577349
2.402877 1.000378 -0.784072 0.577349 0.577349 0.577349
1.718097 0.185243 -0.784072 -0.577349 -0.577319 0.577319
2.402877 1.000378 -1.762424 0.577349 0.577349 -0.577349
1.718164 1.000378 -1.762424 -0.577319 0.577349 -0.577349
1.718097 1.000378 -0.784072 -0.577349 0.577319 0.577319
3 0 1 2
3 3 4 0
3 5 0 2
3 4 6 1
3 6 3 5
3 6 2 1
3 0 4 1
3 3 7 4
3 5 3 0
3 4 7 6
3 6 7 3
3 6 5 2
