ply
format ascii 1.0
comment Created by Blender 2.77 (sub 0) - www.blender.org, source file: 'House1-Colliders.blend'
element vertex 29
property float x
property float y
property float z
property float nx
property float ny
property float nz
element face 54
property list uchar uint vertex_indices
end_header
4.980568 2.039726 -6.086973 -0.672109 0.414289 -0.613697
4.952966 1.853371 -6.176879 -0.660329 0.167791 -0.731956
4.952966 1.867091 -6.169950 -0.753533 0.304941 -0.582354
5.312085 1.929275 -5.631254 0.933592 0.282144 0.220771
5.325923 1.853273 -5.596666 0.668813 0.159490 0.726096
5.325923 1.860182 -5.603595 0.976226 0.171392 0.132572
4.952966 1.266276 -6.176879 -0.577349 -0.577349 -0.577319
5.325923 1.266276 -5.596666 0.577288 -0.577380 0.577349
4.952966 1.266375 -5.596666 -0.577410 -0.577197 0.577380
5.236106 2.267733 -5.769378 0.256569 0.600665 0.757195
5.022008 2.274642 -5.776307 -0.538865 0.787378 0.299387
5.022008 2.267733 -5.769378 -0.412854 0.551469 0.724815
5.022008 2.274642 -5.969636 -0.538285 0.730430 -0.420301
5.008207 2.205549 -5.741833 -0.674367 0.385235 0.629902
5.243007 2.253915 -5.976565 0.922758 0.331980 -0.195532
5.291348 2.025907 -6.093902 0.673421 0.434645 -0.597949
5.249944 2.219368 -5.997238 0.607685 0.455580 -0.650472
5.325923 1.853273 -6.176879 0.662069 0.178564 -0.727836
5.325923 1.860182 -6.169950 0.976043 0.171972 -0.133061
4.952966 1.853273 -5.596666 -0.672811 0.118290 0.730277
5.318986 1.894728 -6.156092 0.825037 0.371654 -0.425611
4.952966 1.874001 -6.163021 -0.979492 0.157018 -0.126011
5.236106 2.274642 -5.969636 0.483932 0.766594 -0.422010
5.236106 2.274642 -5.776307 0.506211 0.809748 0.296701
5.243007 2.253915 -5.762449 0.653645 0.449934 0.608509
5.015107 2.247005 -5.762449 -0.881954 0.329936 0.336497
5.270645 2.122637 -5.707245 0.612598 0.410291 0.675527
5.325923 1.266276 -6.176879 0.577349 -0.577349 -0.577349
4.952966 1.874099 -5.603595 -0.706320 0.286019 0.647511
3 0 1 2
3 3 4 5
3 6 7 8
3 4 8 7
3 9 10 11
3 12 0 13
3 14 15 16
3 17 6 1
3 4 17 18
3 1 8 19
3 17 20 18
3 17 15 20
3 2 21 0
3 22 14 16
3 23 9 24
3 25 13 11
3 25 11 10
3 14 23 24
3 12 16 0
3 23 12 10
3 5 20 3
3 9 13 24
3 24 26 3
3 3 26 4
3 6 27 7
3 4 19 8
3 9 23 10
3 28 13 0
3 25 10 12
3 12 13 25
3 21 28 0
3 14 20 15
3 17 27 6
3 18 5 4
3 4 7 27
3 27 17 4
3 28 21 19
3 2 1 21
3 6 8 1
3 19 21 1
3 14 22 23
3 1 15 17
3 12 22 16
3 16 15 0
3 1 0 15
3 23 22 12
3 24 3 14
3 5 18 20
3 20 14 3
3 19 4 28
3 26 24 13
3 9 11 13
3 13 28 26
3 4 26 28
