ply
format ascii 1.0
comment Created by Blender 2.77 (sub 0) - www.blender.org, source file: 'House1-Colliders.blend'
element vertex 8
property float x
property float y
property float z
property float nx
property float ny
property float nz
element face 12
property list uchar uint vertex_indices
end_header
-0.789455 9.138933 0.517799 -0.577349 0.577349 -0.577349
2.942844 9.138933 0.751067 0.577349 0.577349 0.577349
2.942844 9.138933 0.517799 0.577349 0.577349 -0.577349
-0.789455 5.017853 0.751067 -0.577349 -0.577349 0.577349
-0.789455 5.017853 0.517799 -0.577349 -0.577349 -0.577349
2.942844 5.017853 0.517799 0.577349 -0.577349 -0.577349
2.942844 5.017853 0.751067 0.577349 -0.577349 0.577349
-0.789455 9.138933 0.751067 -0.577349 0.577349 0.577349
3 0 1 2
3 3 0 4
3 5 0 2
3 6 7 3
3 2 6 5
3 6 4 5
3 0 7 1
3 3 7 0
3 5 4 0
3 6 1 7
3 2 1 6
3 6 3 4
