ply
format ascii 1.0
comment Created by Blender 2.77 (sub 0) - www.blender.org, source file: 'House1-Colliders.blend'
element vertex 8
property float x
property float y
property float z
property float nx
property float ny
property float nz
element face 12
property list uchar uint vertex_indices
end_header
6.146659 9.308937 2.038406 0.577349 0.577349 -0.577319
5.605999 9.308937 2.578961 -0.577349 0.577349 0.577319
6.146659 9.308937 2.579014 0.577319 0.577319 0.577380
5.605998 4.740904 2.038353 -0.577319 -0.577319 -0.577380
6.146659 4.740904 2.038406 0.577349 -0.577349 -0.577319
6.146659 4.740904 2.579014 0.577319 -0.577319 0.577380
5.605998 4.740904 2.578961 -0.577349 -0.577349 0.577319
5.605999 9.308937 2.038353 -0.577319 0.577319 -0.577380
3 0 1 2
3 3 0 4
3 1 5 2
3 4 6 3
3 6 7 3
3 0 5 4
3 0 7 1
3 3 7 0
3 1 6 5
3 4 5 6
3 6 1 7
3 0 2 5
