ply
format ascii 1.0
comment Created by Blender 2.77 (sub 0) - www.blender.org, source file: 'House1-Colliders.blend'
element vertex 43
property float x
property float y
property float z
property float nx
property float ny
property float nz
element face 82
property list uchar uint vertex_indices
end_header
-2.327529 1.158911 5.731210 -0.624470 0.777429 -0.074770
-1.968881 1.158911 5.749158 0.636616 0.770318 0.035585
-2.309623 1.158911 5.686404 0.039583 0.699454 -0.713523
-2.462050 0.091816 5.677367 -0.469924 -0.596088 -0.651021
-2.471004 0.486546 5.704352 -0.979461 0.080233 -0.184851
-2.462050 0.513390 5.677367 -0.661031 0.106357 -0.742729
-1.942023 1.042132 5.722299 0.739860 0.153539 -0.654988
-1.852341 0.629751 5.731085 0.927366 0.195471 -0.318979
-1.843389 0.585045 5.731085 0.659597 0.116672 -0.742485
-1.825408 0.504407 5.740121 0.864864 0.067507 -0.497421
-2.569638 0.603011 6.905710 -0.919736 0.192236 0.342143
-2.578590 0.558200 6.905710 -0.662648 0.111545 0.740532
-2.479956 1.015392 6.914621 -0.670309 0.135075 0.729667
-2.587544 0.522268 6.896673 -0.934202 0.068239 0.350078
-2.587544 0.522268 6.887762 -0.991729 0.123569 -0.034089
-2.587544 0.486441 6.815973 -0.993316 0.091067 -0.070589
-2.578590 0.513286 6.905710 -0.427351 -0.000366 0.904050
-2.587544 0.091816 6.896673 -0.677358 -0.608020 0.414045
-2.569638 0.091816 6.905710 -0.204230 -0.669851 0.713828
-2.453097 1.140945 6.914621 -0.724418 0.253578 0.641011
-2.453097 1.140945 6.905584 -0.946837 0.320505 -0.027711
-1.843389 0.091816 5.731085 0.205847 -0.667867 -0.715232
-1.825408 0.091816 5.740121 0.677175 -0.605853 -0.417554
-2.435117 0.638734 5.677367 -0.654927 0.142582 -0.742088
-2.318577 1.158911 5.686404 -0.397656 0.664724 -0.632435
-2.327529 1.140945 5.695315 -0.938871 0.281320 -0.198279
-2.417211 0.710389 5.677367 -0.219123 0.064882 -0.973510
-2.327529 1.131962 5.686404 -0.664693 0.185858 -0.723594
-2.336483 1.096030 5.686404 -0.823389 0.189306 -0.534928
-2.004770 0.091816 6.959428 -0.034394 -0.696951 0.716269
-1.950975 0.495424 6.959553 0.674947 0.078646 0.733634
-2.112355 1.158911 6.950516 -0.038514 0.698416 0.714621
-2.587544 0.091816 6.815973 -0.717490 -0.695517 -0.037507
-2.471004 0.091816 5.704352 -0.713401 -0.683615 -0.153844
-1.825408 0.091816 5.784928 0.717673 -0.695303 0.038240
-2.408257 0.091816 5.677367 0.033967 -0.696585 -0.716636
-1.825408 0.486441 5.784928 0.993408 0.086673 0.074618
-1.950975 0.091816 6.959553 0.542375 -0.583026 0.604877
-2.444069 1.158911 6.914621 -0.451155 0.693625 0.561510
-2.444069 1.158911 6.851742 -0.626148 0.777642 -0.056276
-1.825408 0.504407 5.758069 0.990631 0.126957 0.050264
-2.094450 1.158911 6.950516 0.475295 0.635639 0.608295
-1.968881 1.158911 5.722299 0.532182 0.641255 -0.552721
3 0 1 2
3 3 4 5
3 6 7 8
3 7 9 8
3 10 11 12
3 10 13 11
3 13 14 15
3 16 17 18
3 10 19 20
3 21 9 22
3 23 4 15
3 0 24 25
3 24 26 27
3 24 27 25
3 25 27 28
3 29 30 31
3 31 11 29
3 8 2 6
3 32 33 34
3 19 10 12
3 23 26 35
3 28 26 23
3 36 37 34
3 16 13 17
3 20 38 39
3 40 7 1
3 41 30 36
3 15 33 32
3 9 36 22
3 2 24 0
3 0 39 1
3 38 31 39
3 41 1 31
3 42 2 1
3 39 31 1
3 3 33 4
3 15 32 17
3 17 13 15
3 20 14 10
3 13 10 14
3 21 8 9
3 15 14 39
3 20 39 14
3 0 25 28
3 28 23 0
3 5 4 23
3 15 39 23
3 0 23 39
3 41 31 30
3 29 37 30
3 18 29 16
3 31 38 19
3 12 11 31
3 31 19 12
3 16 29 11
3 42 6 2
3 8 21 35
3 35 2 8
3 34 37 29
3 29 18 32
3 17 32 18
3 33 3 35
3 35 21 34
3 22 34 21
3 29 32 34
3 33 35 34
3 2 35 26
3 3 5 35
3 26 24 2
3 5 23 35
3 28 27 26
3 36 30 37
3 16 11 13
3 20 19 38
3 42 1 6
3 40 9 7
3 7 6 1
3 36 40 1
3 1 41 36
3 15 4 33
3 34 22 36
3 9 40 36
