ply
format ascii 1.0
comment Created by Blender 2.77 (sub 0) - www.blender.org, source file: 'House1-Colliders.blend'
element vertex 8
property float x
property float y
property float z
property float nx
property float ny
property float nz
element face 12
property list uchar uint vertex_indices
end_header
-0.789455 5.017853 0.750923 0.582659 -0.576434 0.572863
-1.178236 9.138933 0.750923 -0.577349 0.577349 0.577319
-1.178236 5.017853 0.750923 -0.577349 -0.577349 0.577319
-1.178198 5.017853 -3.836550 -0.577319 -0.577349 -0.577349
-0.867280 9.138933 -3.836550 0.571978 0.578234 -0.581744
-0.867280 5.017853 -3.836550 0.571978 -0.578234 -0.581744
-1.178198 9.138933 -3.836550 -0.577319 0.577349 -0.577349
-0.789455 9.138933 0.750923 0.582659 0.576434 0.572863
3 0 1 2
3 3 4 5
3 5 2 3
3 4 0 5
3 1 4 6
3 2 6 3
3 0 7 1
3 3 6 4
3 5 0 2
3 4 7 0
3 1 7 4
3 2 1 6
