ply
format ascii 1.0
comment Created by Blender 2.77 (sub 0) - www.blender.org, source file: 'House1-Colliders.blend'
element vertex 8
property float x
property float y
property float z
property float nx
property float ny
property float nz
element face 12
property list uchar uint vertex_indices
end_header
-2.641896 0.093198 4.867763 0.577288 -0.577349 0.577380
-2.641829 0.626662 4.216378 0.577380 0.577319 -0.577319
-2.641896 0.626662 4.867763 0.577288 0.577349 0.577380
-3.324167 0.093198 4.216378 -0.577288 -0.577349 -0.577349
-2.641829 0.093198 4.216378 0.577380 -0.577319 -0.577319
-3.324233 0.626662 4.867699 -0.577380 0.577349 0.577288
-3.324167 0.626662 4.216378 -0.577288 0.577349 -0.577349
-3.324233 0.093198 4.867699 -0.577380 -0.577349 0.577288
3 0 1 2
3 0 3 4
3 3 5 6
3 0 5 7
3 6 2 1
3 3 1 4
3 0 4 1
3 0 7 3
3 3 7 5
3 0 2 5
3 6 5 2
3 3 6 1
