ply
format ascii 1.0
comment Created by Blender 2.77 (sub 0) - www.blender.org, source file: 'House1-Colliders.blend'
element vertex 8
property float x
property float y
property float z
property float nx
property float ny
property float nz
element face 12
property list uchar uint vertex_indices
end_header
-3.326267 8.072184 -4.692724 -0.577349 0.577349 -0.577349
-0.995903 8.072184 -4.076155 0.577349 0.577349 0.577319
-0.995903 8.072184 -4.692724 0.577349 0.577349 -0.577349
-3.326267 8.072184 -4.076094 -0.577319 0.577319 0.577349
-0.995903 7.711851 -4.076155 0.577349 -0.577349 0.577319
-3.326267 7.711851 -4.692724 -0.577349 -0.577349 -0.577349
-0.995903 7.711851 -4.692724 0.577349 -0.577349 -0.577349
-3.326267 7.711851 -4.076094 -0.577319 -0.577319 0.577349
3 0 1 2
3 3 4 1
3 5 2 6
3 4 5 6
3 2 4 6
3 7 0 5
3 0 3 1
3 3 7 4
3 5 0 2
3 4 7 5
3 2 1 4
3 7 3 0
