ply
format ascii 1.0
comment Created by Blender 2.77 (sub 0) - www.blender.org, source file: 'House1-Colliders.blend'
element vertex 12
property float x
property float y
property float z
property float nx
property float ny
property float nz
element face 20
property list uchar uint vertex_indices
end_header
5.799172 -0.139876 -7.475074 0.577532 -0.577105 0.577380
5.799173 3.238524 -8.017225 0.732139 0.158055 -0.662526
5.799173 3.238524 -7.475074 0.732139 0.158055 0.662526
5.257075 4.020004 -8.017225 -0.577349 0.577349 -0.577349
5.559567 3.767520 -8.017225 0.604480 0.439558 -0.664327
5.559567 3.767520 -7.475074 0.604480 0.439558 0.664327
5.257075 -0.140284 -7.475074 -0.577136 -0.577563 0.577288
5.257075 4.020004 -7.475074 -0.577349 0.577349 0.577349
5.282283 4.020004 -8.017225 0.279092 0.721061 -0.634144
5.282283 4.020004 -7.475074 0.279092 0.721061 0.634144
5.799172 -0.139876 -8.017225 0.577532 -0.577105 -0.577380
5.257075 -0.140284 -8.017225 -0.577136 -0.577563 -0.577288
3 0 1 2
3 1 3 4
3 2 4 5
3 3 6 7
3 8 7 9
3 8 5 4
3 10 6 11
3 7 6 2
3 0 10 1
3 8 4 3
3 1 10 11
3 11 3 1
3 2 1 4
3 3 11 6
3 8 3 7
3 8 9 5
3 10 0 6
3 2 5 7
3 9 7 5
3 6 0 2
