ply
format ascii 1.0
comment Created by Blender 2.77 (sub 0) - www.blender.org, source file: 'House1-Colliders.blend'
element vertex 8
property float x
property float y
property float z
property float nx
property float ny
property float nz
element face 12
property list uchar uint vertex_indices
end_header
-1.140103 4.990746 -3.749783 -0.570910 0.583728 -0.577288
-1.140103 4.293516 0.451931 -0.577349 -0.577349 0.577349
-1.140103 5.010985 0.451931 -0.570360 0.586779 0.574725
6.245283 4.293516 0.451931 0.577349 -0.577349 0.577349
6.245283 4.803895 -3.749783 0.584155 0.567797 -0.579913
6.245283 4.824134 0.451931 0.583667 0.570849 0.577441
-1.140103 4.293516 -3.749783 -0.577349 -0.577349 -0.577349
6.245283 4.293516 -3.749783 0.577349 -0.577349 -0.577349
3 0 1 2
3 3 4 5
3 6 3 1
3 0 5 4
3 6 4 7
3 5 1 3
3 0 6 1
3 3 7 4
3 6 7 3
3 0 2 5
3 6 0 4
3 5 2 1
