ply
format ascii 1.0
comment Created by Blender 2.77 (sub 0) - www.blender.org, source file: 'House1-Colliders.blend'
element vertex 10
property float x
property float y
property float z
property float nx
property float ny
property float nz
element face 16
property list uchar uint vertex_indices
end_header
5.047359 3.890631 -7.882884 -0.114566 -0.729942 -0.673788
4.146977 4.180424 -7.778038 -0.649251 -0.473067 0.595508
4.146977 4.180424 -7.882884 -0.649251 -0.473067 -0.595508
5.053483 4.575079 -7.882884 0.577319 0.577349 -0.577319
5.053483 3.890631 -7.778038 0.577349 -0.577349 0.577349
5.047359 3.890631 -7.778038 -0.114566 -0.729942 0.673788
5.053483 4.575079 -7.778038 0.577319 0.577349 0.577319
4.146978 4.575011 -7.778038 -0.577380 0.577136 0.577502
4.146978 4.575079 -7.882884 -0.577288 0.577532 -0.577166
5.053483 3.890631 -7.882884 0.577349 -0.577349 -0.577349
3 0 1 2
3 3 0 2
3 0 4 5
3 5 4 6
3 4 3 6
3 3 7 6
3 7 2 1
3 0 5 1
3 2 8 3
3 3 9 0
3 0 9 4
3 6 7 1
3 1 5 6
3 4 9 3
3 3 8 7
3 7 8 2
