ply
format ascii 1.0
comment Created by Blender 2.77 (sub 0) - www.blender.org, source file: 'House1-Colliders.blend'
element vertex 8
property float x
property float y
property float z
property float nx
property float ny
property float nz
element face 12
property list uchar uint vertex_indices
end_header
-3.744109 0.196967 -7.957630 -0.577349 -0.577349 -0.577349
2.942843 0.196967 -7.724392 0.580370 -0.577960 0.573656
-3.744109 0.196967 -7.646606 -0.574267 -0.576739 0.580981
2.942843 0.196967 -7.957600 0.577349 -0.577349 -0.577319
-3.744108 4.318047 -7.957630 -0.577319 0.577349 -0.577349
2.942844 4.318047 -7.957600 0.577349 0.577349 -0.577319
2.942844 4.318047 -7.724392 0.580370 0.577960 0.573656
-3.744108 4.318047 -7.646606 -0.574267 0.576739 0.580981
3 0 1 2
3 3 4 5
3 1 5 6
3 6 4 7
3 4 2 7
3 7 1 6
3 0 3 1
3 3 0 4
3 1 3 5
3 6 5 4
3 4 0 2
3 7 2 1
