ply
format ascii 1.0
comment Created by Blender 2.77 (sub 0) - www.blender.org, source file: 'House1-Colliders.blend'
element vertex 8
property float x
property float y
property float z
property float nx
property float ny
property float nz
element face 12
property list uchar uint vertex_indices
end_header
5.795892 0.734364 4.495811 0.577380 0.577349 -0.577288
5.795832 0.093339 5.058220 0.577288 -0.577349 0.577349
5.795891 0.093339 4.495811 0.577380 -0.577349 -0.577288
5.185104 0.734364 5.058220 -0.577349 0.577349 0.577349
5.185104 0.093339 5.058220 -0.577349 -0.577349 0.577349
5.185104 0.734364 4.495756 -0.577319 0.577319 -0.577349
5.185104 0.093339 4.495756 -0.577319 -0.577319 -0.577349
5.795833 0.734364 5.058220 0.577288 0.577349 0.577349
3 0 1 2
3 1 3 4
3 2 5 0
3 1 6 2
3 4 5 6
3 5 7 0
3 0 7 1
3 1 7 3
3 2 6 5
3 1 4 6
3 4 3 5
3 5 3 7
