ply
format ascii 1.0
comment Created by Blender 2.77 (sub 0) - www.blender.org, source file: 'House1-Colliders.blend'
element vertex 8
property float x
property float y
property float z
property float nx
property float ny
property float nz
element face 12
property list uchar uint vertex_indices
end_header
1.330840 8.228060 -3.594130 0.577319 0.577349 0.577349
1.137939 8.067915 -3.594130 -0.577349 -0.577349 0.577349
1.330840 8.067915 -3.594130 0.577319 -0.577349 0.577349
1.330859 8.228060 -3.787033 0.577349 0.577319 -0.577349
1.137939 8.228060 -3.787014 -0.577349 0.577349 -0.577319
1.137939 8.067915 -3.787014 -0.577349 -0.577349 -0.577319
1.330859 8.067915 -3.787033 0.577349 -0.577319 -0.577349
1.137939 8.228060 -3.594130 -0.577349 0.577349 0.577349
3 0 1 2
3 2 3 0
3 4 0 3
3 5 2 1
3 4 6 5
3 1 4 5
3 0 7 1
3 2 6 3
3 4 7 0
3 5 6 2
3 4 3 6
3 1 7 4
