ply
format ascii 1.0
comment Created by Blender 2.77 (sub 0) - www.blender.org, source file: 'House1-Colliders.blend'
element vertex 15
property float x
property float y
property float z
property float nx
property float ny
property float nz
element face 26
property list uchar uint vertex_indices
end_header
1.309324 14.504114 -7.646666 -0.274483 0.727012 0.629322
1.386654 14.504114 -7.957592 0.309244 0.714408 -0.627644
1.309324 14.504114 -7.957592 -0.278939 0.719840 -0.635578
-3.744191 9.449913 -7.568887 -0.708579 0.244057 0.662038
6.130850 9.449913 -7.568887 0.718589 0.286569 0.633625
-3.744191 4.902557 -7.957592 -0.577349 -0.577349 -0.577349
6.130850 4.902557 -7.568887 0.577349 -0.577349 0.577349
-3.744191 4.902557 -7.568887 -0.577349 -0.577349 0.577349
0.610454 13.881044 -7.646666 -0.573016 0.589190 0.569628
-1.799342 11.471407 -7.646666 -0.678518 0.683584 0.268838
-3.744191 9.527913 -7.957592 -0.717124 0.297403 -0.630268
6.130850 9.449913 -7.957592 0.719901 0.284921 -0.632862
1.386654 14.504114 -7.646666 0.308664 0.719626 0.621937
-3.744191 9.527913 -7.879813 -0.913816 0.402997 0.049867
6.130850 4.902557 -7.957592 0.577349 -0.577349 -0.577349
3 0 1 2
3 0 3 4
3 5 6 7
3 3 0 8
3 3 8 9
3 5 7 3
3 10 9 2
3 5 10 11
3 6 11 4
3 12 11 1
3 13 3 9
3 0 12 1
3 6 4 3
3 12 0 4
3 3 7 6
3 5 14 6
3 3 13 10
3 10 5 3
3 0 2 8
3 10 13 9
3 9 8 2
3 1 11 2
3 14 5 11
3 10 2 11
3 6 14 11
3 12 4 11
