ply
format ascii 1.0
comment Created by Blender 2.77 (sub 0) - www.blender.org, source file: 'House1-Colliders.blend'
element vertex 8
property float x
property float y
property float z
property float nx
property float ny
property float nz
element face 12
property list uchar uint vertex_indices
end_header
1.662476 4.796952 1.728137 0.577349 -0.577349 0.577349
-0.179313 7.664067 1.728137 -0.577349 0.577349 0.577349
-0.179313 4.796952 1.728137 -0.577349 -0.577349 0.577349
-0.179313 4.796952 0.740979 -0.577349 -0.577349 -0.577349
1.662476 4.796952 0.740979 0.577349 -0.577349 -0.577349
-0.179313 7.664067 0.740979 -0.577349 0.577349 -0.577349
1.662476 7.664067 0.740979 0.577349 0.577349 -0.577349
1.662476 7.664067 1.728137 0.577349 0.577349 0.577349
3 0 1 2
3 0 3 4
3 2 5 3
3 4 5 6
3 5 7 6
3 6 0 4
3 0 7 1
3 0 2 3
3 2 1 5
3 4 3 5
3 5 1 7
3 6 7 0
