ply
format ascii 1.0
comment Created by Blender 2.77 (sub 0) - www.blender.org, source file: 'House1-Colliders.blend'
element vertex 16
property float x
property float y
property float z
property float nx
property float ny
property float nz
element face 28
property list uchar uint vertex_indices
end_header
1.355164 14.239626 7.778665 -0.720847 -0.280160 0.633931
1.355164 15.751614 7.355239 -0.577349 0.577349 -0.577349
1.355164 14.239626 7.355239 -0.720847 -0.280160 -0.633931
7.081657 8.029137 7.355239 0.237953 -0.727622 -0.643361
7.908487 8.634688 7.778624 0.468398 -0.550432 0.691061
7.081657 8.029137 7.778624 0.237953 -0.727622 0.643361
7.949152 8.714823 7.778624 0.720084 0.284005 0.633076
7.041638 8.029137 7.778624 -0.313974 -0.713218 0.626637
7.949152 8.714823 7.355239 0.720084 0.284005 -0.633076
7.949152 8.674756 7.778624 0.716605 -0.299936 0.629658
7.949152 8.674756 7.355239 0.716605 -0.299936 -0.629658
7.908487 8.634688 7.355239 0.468429 -0.550432 -0.691061
7.041638 8.029137 7.355239 -0.313974 -0.713218 -0.626637
1.375819 15.751614 7.778665 0.310160 0.714164 0.627461
1.375819 15.751614 7.355239 0.310160 0.714164 -0.627461
1.355164 15.751614 7.778665 -0.577349 0.577349 0.577349
3 0 1 2
3 3 4 5
3 6 0 7
3 8 9 10
3 9 11 10
3 5 12 3
3 1 13 14
3 14 6 8
3 8 12 2
3 2 7 0
3 0 15 1
3 3 11 4
3 7 5 4
3 4 9 6
3 6 13 0
3 15 0 13
3 7 4 6
3 8 6 9
3 9 4 11
3 5 7 12
3 1 15 13
3 14 13 6
3 3 12 11
3 2 1 14
3 14 8 2
3 10 11 8
3 12 8 11
3 2 12 7
