ply
format ascii 1.0
comment Created by Blender 2.77 (sub 0) - www.blender.org, source file: 'House1-Colliders.blend'
element vertex 8
property float x
property float y
property float z
property float nx
property float ny
property float nz
element face 12
property list uchar uint vertex_indices
end_header
2.982704 -0.080740 0.936828 0.577288 -0.577349 0.577349
-3.919226 -0.080740 0.391973 -0.577349 -0.577349 -0.577349
2.982758 -0.080740 0.391973 0.577380 -0.577319 -0.577319
-3.919226 4.634381 0.936774 -0.577349 0.577349 0.577319
2.982704 4.634381 0.936828 0.577288 0.577349 0.577349
2.982758 4.634381 0.391973 0.577380 0.577319 -0.577319
-3.919226 4.634381 0.391973 -0.577349 0.577349 -0.577349
-3.919226 -0.080740 0.936774 -0.577349 -0.577349 0.577319
3 0 1 2
3 3 0 4
3 0 5 4
3 4 6 3
3 1 5 2
3 7 6 1
3 0 7 1
3 3 7 0
3 0 2 5
3 4 5 6
3 1 6 5
3 7 3 6
