ply
format ascii 1.0
comment Created by Blender 2.77 (sub 0) - www.blender.org, source file: 'House1-Colliders.blend'
element vertex 8
property float x
property float y
property float z
property float nx
property float ny
property float nz
element face 12
property list uchar uint vertex_indices
end_header
-3.374424 4.634381 -7.530372 0.577319 0.577349 0.577349
-3.374371 -0.080740 -8.075259 0.577349 -0.577319 -0.577349
-3.374371 4.634381 -8.075259 0.577349 0.577319 -0.577349
-3.374424 -0.080740 -7.530372 0.577319 -0.577349 0.577349
-3.919226 -0.080740 -8.075207 -0.577349 -0.577349 -0.577319
-3.919226 4.634381 -8.075207 -0.577349 0.577349 -0.577319
-3.919226 -0.080740 -7.530372 -0.577349 -0.577349 0.577349
-3.919226 4.634381 -7.530372 -0.577349 0.577349 0.577349
3 0 1 2
3 3 4 1
3 5 0 2
3 6 5 4
3 0 6 3
3 4 2 1
3 0 3 1
3 3 6 4
3 5 7 0
3 6 7 5
3 0 7 6
3 4 5 2
