ply
format ascii 1.0
comment Created by Blender 2.77 (sub 0) - www.blender.org, source file: 'House1-Colliders.blend'
element vertex 6
property float x
property float y
property float z
property float nx
property float ny
property float nz
element face 8
property list uchar uint vertex_indices
end_header
-3.432504 4.973688 0.433336 -0.547716 0.778314 0.306894
-1.178236 0.197393 -4.340950 0.546922 -0.320444 -0.773400
-3.432946 0.197393 -4.340950 -0.546922 -0.320444 -0.773400
-1.178236 0.197393 0.595555 0.575579 -0.568316 0.587939
-1.178457 4.973688 0.433336 0.547746 0.778283 0.306894
-3.433168 0.197393 0.595555 -0.575640 -0.568285 0.587939
3 0 1 2
3 3 2 1
3 3 1 4
3 0 3 4
3 2 5 0
3 0 4 1
3 3 5 2
3 0 5 3
