ply
format ascii 1.0
comment Created by Blender 2.77 (sub 0) - www.blender.org, source file: 'House1-Colliders.blend'
element vertex 8
property float x
property float y
property float z
property float nx
property float ny
property float nz
element face 12
property list uchar uint vertex_indices
end_header
1.168144 1.000378 -2.923721 0.577349 0.577349 -0.577349
0.189791 1.000378 -2.238941 -0.577349 0.577349 0.577319
1.168144 1.000378 -2.238873 0.577319 0.577319 0.577349
1.168144 0.185243 -2.238873 0.577319 -0.577319 0.577349
0.189791 1.000378 -2.923721 -0.577349 0.577349 -0.577349
0.189790 0.185243 -2.238941 -0.577349 -0.577349 0.577319
1.168144 0.185243 -2.923721 0.577349 -0.577349 -0.577349
0.189790 0.185243 -2.923721 -0.577349 -0.577349 -0.577349
3 0 1 2
3 1 3 2
3 4 5 1
3 4 6 7
3 5 6 3
3 3 0 2
3 0 4 1
3 1 5 3
3 4 7 5
3 4 0 6
3 5 7 6
3 3 6 0
