ply
format ascii 1.0
comment Created by Blender 2.77 (sub 0) - www.blender.org, source file: 'House1-Colliders.blend'
element vertex 8
property float x
property float y
property float z
property float nx
property float ny
property float nz
element face 12
property list uchar uint vertex_indices
end_header
-2.294158 8.228481 -4.513214 0.577349 0.577349 -0.577319
-2.294158 8.067898 -4.319801 0.577349 -0.577349 0.577349
-2.294158 8.067898 -4.513214 0.577349 -0.577349 -0.577319
-2.487590 8.067898 -4.319801 -0.577349 -0.577349 0.577349
-2.487590 8.228481 -4.513232 -0.577319 0.577319 -0.577349
-2.487590 8.067898 -4.513232 -0.577319 -0.577319 -0.577349
-2.294158 8.228481 -4.319801 0.577349 0.577349 0.577349
-2.487590 8.228481 -4.319801 -0.577349 0.577349 0.577349
3 0 1 2
3 3 4 5
3 6 3 1
3 5 0 2
3 2 3 5
3 0 7 6
3 0 6 1
3 3 7 4
3 6 7 3
3 5 4 0
3 2 1 3
3 0 4 7
