ply
format ascii 1.0
comment Created by Blender 2.77 (sub 0) - www.blender.org, source file: 'House1-Colliders.blend'
element vertex 8
property float x
property float y
property float z
property float nx
property float ny
property float nz
element face 12
property list uchar uint vertex_indices
end_header
2.917133 9.308937 0.333237 0.577349 0.577349 -0.577349
2.376578 9.308937 0.873771 -0.577319 0.577349 0.577319
2.917133 9.308937 0.873824 0.577319 0.577319 0.577380
2.917133 4.740904 0.873824 0.577319 -0.577319 0.577380
2.376578 4.740904 0.873771 -0.577319 -0.577349 0.577319
2.917133 4.740904 0.333237 0.577349 -0.577349 -0.577349
2.376525 4.740904 0.333237 -0.577380 -0.577319 -0.577319
2.376525 9.308937 0.333237 -0.577380 0.577319 -0.577319
3 0 1 2
3 1 3 2
3 4 5 3
3 5 2 3
3 6 0 5
3 4 7 6
3 0 7 1
3 1 4 3
3 4 6 5
3 5 0 2
3 6 7 0
3 4 1 7
