ply
format ascii 1.0
comment Created by Blender 2.77 (sub 0) - www.blender.org, source file: 'House1-Colliders.blend'
element vertex 10
property float x
property float y
property float z
property float nx
property float ny
property float nz
element face 16
property list uchar uint vertex_indices
end_header
-2.978185 6.471194 -7.461822 0.711692 0.307749 -0.631458
-2.940155 4.799006 -5.143283 0.584460 -0.571306 0.576159
-2.940155 4.799006 -7.461822 0.584460 -0.571306 -0.576159
-2.997201 6.489903 -7.461822 0.294137 0.717856 -0.630970
-3.301198 6.490069 -5.143283 -0.584246 0.571581 0.576128
-2.997201 6.489903 -5.143283 0.294137 0.717856 0.630970
-3.263203 4.799006 -7.461822 -0.570238 -0.583178 -0.578539
-3.301198 6.490069 -7.461822 -0.584246 0.571581 -0.576128
-3.263203 4.799006 -5.143283 -0.570238 -0.583178 0.578539
-2.978185 6.471194 -5.143283 0.711692 0.307749 0.631458
3 0 1 2
3 3 4 5
3 1 6 2
3 7 0 6
3 4 8 9
3 4 6 8
3 3 9 0
3 0 9 1
3 3 7 4
3 1 8 6
3 2 6 0
3 7 3 0
3 1 9 8
3 5 4 9
3 4 7 6
3 3 5 9
