ply
format ascii 1.0
comment Created by Blender 2.77 (sub 0) - www.blender.org, source file: 'House1-Colliders.blend'
element vertex 8
property float x
property float y
property float z
property float nx
property float ny
property float nz
element face 12
property list uchar uint vertex_indices
end_header
0.796614 8.266761 -3.365244 0.577349 0.577349 0.577349
0.308025 8.067835 -3.365244 -0.577349 -0.577349 0.577349
0.796614 8.067835 -3.365244 0.577349 -0.577349 0.577349
0.308025 8.067835 -3.808422 -0.577349 -0.577349 -0.577349
0.796614 8.067835 -3.808422 0.577349 -0.577349 -0.577349
0.796614 8.266761 -3.808422 0.577349 0.577349 -0.577349
0.308025 8.266761 -3.808422 -0.577349 0.577349 -0.577349
0.308025 8.266761 -3.365244 -0.577349 0.577349 0.577349
3 0 1 2
3 2 3 4
3 3 5 4
3 5 2 4
3 6 0 5
3 1 6 3
3 0 7 1
3 2 1 3
3 3 6 5
3 5 0 2
3 6 7 0
3 1 7 6
