ply
format ascii 1.0
comment Created by Blender 2.77 (sub 0) - www.blender.org, source file: 'House1-Colliders.blend'
element vertex 8
property float x
property float y
property float z
property float nx
property float ny
property float nz
element face 12
property list uchar uint vertex_indices
end_header
0.157545 4.798841 -7.461595 0.577563 -0.577380 -0.577044
-0.070478 6.376208 -7.461822 -0.573260 0.580432 -0.578295
0.157545 6.376208 -7.461595 0.577593 0.577380 -0.577013
0.157545 4.798841 -5.143283 0.577349 -0.577349 0.577349
-0.070478 6.376208 -5.143283 -0.573534 0.580493 0.577960
-0.089486 4.798841 -5.143283 -0.581133 -0.574145 0.576708
-0.089486 4.798841 -7.461822 -0.580889 -0.574114 -0.576983
0.157545 6.376208 -5.143283 0.577349 0.577349 0.577349
3 0 1 2
3 2 3 0
3 3 4 5
3 0 5 6
3 4 6 5
3 2 4 7
3 0 6 1
3 2 7 3
3 3 7 4
3 0 3 5
3 4 1 6
3 2 1 4
