ply
format ascii 1.0
comment Created by Blender 2.77 (sub 0) - www.blender.org, source file: 'House1-Colliders.blend'
element vertex 8
property float x
property float y
property float z
property float nx
property float ny
property float nz
element face 12
property list uchar uint vertex_indices
end_header
5.646908 9.818076 6.856684 -0.578417 0.576434 -0.577166
6.213320 9.818076 7.405288 0.577349 0.577349 0.577349
6.213320 9.818076 6.856684 0.577349 0.577349 -0.577349
6.213320 4.737569 7.405288 0.577349 -0.577349 0.577349
5.664596 4.737569 6.856684 -0.576250 -0.578234 -0.577532
6.213320 4.737569 6.856684 0.577349 -0.577349 -0.577349
5.664596 4.737569 7.405288 -0.576250 -0.578234 0.577532
5.646908 9.818076 7.405288 -0.578417 0.576434 0.577166
3 0 1 2
3 3 4 5
3 6 0 4
3 1 6 3
3 4 2 5
3 2 3 5
3 0 7 1
3 3 6 4
3 6 7 0
3 1 7 6
3 4 0 2
3 2 1 3
