ply
format ascii 1.0
comment Created by Blender 2.77 (sub 0) - www.blender.org, source file: 'Dungeon1-Scene.blend'
element vertex 396
property float x
property float y
property float z
property float nx
property float ny
property float nz
property uchar red
property uchar green
property uchar blue
element face 720
property list uchar uint vertex_indices
end_header
7.977788 22.100473 -129.089584 0.000000 0.000000 -1.000000 0 255 255
-7.840565 3.523758 -129.089584 0.000000 0.000000 -1.000000 0 255 255
-7.840565 22.100473 -129.089584 0.000000 0.000000 -1.000000 0 255 255
14.865990 22.100473 4.145721 0.000000 0.000000 -1.000000 0 255 0
-14.729164 3.523758 4.145721 0.000000 0.000000 -1.000000 0 255 0
-14.729164 22.100473 4.145721 0.000000 0.000000 -1.000000 0 255 0
-101.875053 10.714298 35.627716 -0.221778 0.623402 0.749748 0 0 255
-101.286446 10.485674 35.540344 0.457076 -0.618397 0.639241 0 0 255
-101.286446 10.714298 35.540344 0.457076 0.618397 0.639241 0 0 255
-102.559647 10.485674 34.417862 -0.703482 -0.626698 -0.335154 0 0 255
-101.667526 10.485674 34.229034 0.015870 -0.999695 -0.018006 0 0 255
-101.210907 10.485674 34.631607 0.015870 -0.999695 -0.018006 0 0 255
-101.088432 10.485674 34.739578 0.069369 -0.997559 0.007141 0 0 255
-101.875053 10.485674 35.627716 -0.221778 -0.623402 0.749748 0 0 255
-102.572563 10.485674 35.012802 -0.716056 -0.623402 0.314005 0 0 255
-102.572563 10.714298 35.012802 -0.716056 0.623402 0.314005 0 0 255
-101.790001 10.714298 34.121063 -0.007813 0.998718 -0.049928 0 0 255
-100.455605 10.617308 32.607483 0.012055 0.569079 -0.822169 0 0 255
-102.559647 10.714298 34.417862 -0.703482 0.626698 -0.335154 0 0 255
-99.974907 10.582666 33.031281 0.803247 -0.574633 -0.156621 0 0 255
-100.455605 10.582666 32.607483 0.012055 -0.569079 -0.822169 0 0 255
-101.790001 10.485674 34.121063 -0.007813 -0.998718 -0.049928 0 0 255
-99.974907 10.617308 33.031281 0.803247 0.574664 -0.156621 0 0 255
-101.088432 10.714298 34.739578 0.069369 0.997559 0.007141 0 0 255
-101.667526 10.714298 34.229034 0.015870 0.999695 -0.018006 0 0 255
-101.210907 10.714298 34.631607 0.015870 0.999695 -0.018006 0 0 255
-15.649332 34.859989 -159.279907 0.669362 0.322245 -0.669362 255 0 255
-17.665323 35.499989 -158.383911 -0.313944 0.896023 -0.313944 255 0 255
-16.545328 35.499989 -158.383911 0.313944 0.896023 -0.313944 255 0 255
117.238022 25.058556 39.330276 0.640797 0.422712 0.640797 255 0 255
116.720024 25.643528 38.541260 0.323923 0.888882 -0.323923 255 0 255
116.720024 25.643528 38.812286 0.323923 0.888882 0.323923 255 0 255
116.294037 23.225655 85.824234 -0.597339 -0.535112 -0.597339 255 0 255
117.737038 25.058559 85.972229 0.640797 0.422712 -0.640797 255 0 255
117.885048 23.225655 85.824234 0.597339 -0.535112 -0.597339 255 0 255
115.795029 23.225651 37.875244 -0.597339 -0.535112 -0.597339 255 0 255
115.943031 25.058556 39.330276 -0.640797 0.422712 0.640797 255 0 255
115.943031 25.058556 38.023254 -0.640797 0.422712 -0.640797 255 0 255
61.764248 23.225651 87.427277 -0.597339 -0.535112 0.597339 255 0 255
63.207245 25.058559 87.279266 0.640797 0.422712 0.640797 255 0 255
61.912254 25.058559 87.279266 -0.640797 0.422712 0.640797 255 0 255
115.795029 23.225651 39.478287 -0.597339 -0.535112 0.597339 255 0 255
117.885048 23.225655 87.427277 0.597339 -0.535112 0.597339 255 0 255
116.294037 23.225655 87.427277 -0.597339 -0.535112 0.597339 255 0 255
117.386032 23.225651 37.875244 0.597339 -0.535112 -0.597339 255 0 255
117.386032 23.225651 39.478287 0.597339 -0.535112 0.597339 255 0 255
117.737038 25.058559 87.279266 0.640797 0.422712 0.640797 255 0 255
116.442047 25.058559 87.279266 -0.640797 0.422712 0.640797 255 0 255
62.139118 25.643528 38.541260 -0.323923 0.888882 -0.323923 255 0 255
62.398113 25.643528 38.812286 0.323923 0.888882 0.323923 255 0 255
62.398113 25.643528 38.541260 0.323923 0.888882 -0.323923 255 0 255
17.766413 34.859993 -159.279907 0.669362 0.322245 -0.669362 255 0 255
17.222424 32.187992 -156.943909 0.517991 -0.680654 0.517991 255 0 255
17.222410 32.187992 -158.735931 0.517991 -0.680654 -0.518021 255 0 255
61.764248 23.225651 85.824234 -0.597339 -0.535112 -0.597339 255 0 255
61.912254 25.058559 85.972229 -0.640797 0.422712 -0.640797 255 0 255
62.689247 25.643532 86.490219 0.323923 0.888882 -0.323923 255 0 255
63.207245 25.058559 85.972229 0.640797 0.422712 -0.640797 255 0 255
116.442047 25.058559 85.972229 -0.640797 0.422712 -0.640797 255 0 255
117.219040 25.643532 86.490219 0.323893 0.888882 -0.323923 255 0 255
62.430252 25.643532 86.761261 -0.323923 0.888882 0.323923 255 0 255
62.430252 25.643532 86.490219 -0.323923 0.888882 -0.323923 255 0 255
117.219040 25.643532 86.761261 0.323923 0.888882 0.323923 255 0 255
116.960045 25.643532 86.761261 -0.323923 0.888882 0.323923 255 0 255
15.750422 35.499992 -158.383911 -0.313944 0.896023 -0.313944 255 0 255
16.870417 35.499992 -158.383911 0.313944 0.896023 -0.313913 255 0 255
116.461029 25.643528 38.541260 -0.323923 0.888882 -0.323923 255 0 255
16.870417 35.499992 -157.295914 0.313913 0.896023 0.313913 255 0 255
63.355251 23.225651 85.824234 0.597339 -0.535112 -0.597339 255 0 255
-18.017328 32.187988 -156.943909 -0.517991 -0.680654 0.517991 255 0 255
-18.561335 34.859989 -159.279907 -0.669362 0.322245 -0.669362 255 0 255
-18.017328 32.187988 -158.735916 -0.517991 -0.680654 -0.517991 255 0 255
62.689247 25.643532 86.761261 0.323923 0.888882 0.323923 255 0 255
15.398416 32.187992 -158.735916 -0.517991 -0.680654 -0.517991 255 0 255
14.854411 34.859993 -159.279907 -0.669362 0.322245 -0.669362 255 0 255
63.355251 23.225651 87.427277 0.597339 -0.535112 0.597339 255 0 255
-15.649332 34.859989 -156.399902 0.669362 0.322245 0.669362 255 0 255
-17.665323 35.499989 -157.295914 -0.313913 0.896023 0.313913 255 0 255
-18.561335 34.859989 -156.399902 -0.669362 0.322245 0.669362 255 0 255
116.960045 25.643532 86.490219 -0.323923 0.888882 -0.323923 255 0 255
15.398416 32.187992 -156.943909 -0.517991 -0.680654 0.517991 255 0 255
17.766413 34.859993 -156.399902 0.669362 0.322275 0.669362 255 0 255
-16.833323 35.691990 -157.583923 0.223243 0.948851 0.223212 255 0 255
-16.833338 35.691990 -158.095917 0.223212 0.948851 -0.223243 255 0 255
15.750422 35.499992 -157.295914 -0.313913 0.896023 0.313913 255 0 255
14.854411 34.859993 -156.399902 -0.669362 0.322245 0.669362 255 0 255
-16.193323 32.187988 -156.943909 0.517991 -0.680654 0.517991 255 0 255
16.582409 35.691990 -158.095917 0.223212 0.948851 -0.223243 255 0 255
16.038416 35.691990 -158.095917 -0.223212 0.948851 -0.223212 255 0 255
-17.377329 35.691990 -157.583923 -0.223243 0.948851 0.223212 255 0 255
-17.377329 35.691990 -158.095917 -0.223243 0.948851 -0.223212 255 0 255
16.582424 35.691990 -157.583923 0.223243 0.948851 0.223212 255 0 255
16.038416 35.691990 -157.583923 -0.223243 0.948851 0.223212 255 0 255
117.238022 25.058556 38.023254 0.640797 0.422712 -0.640797 255 0 255
-22.969389 25.822155 60.034103 -0.513443 -0.680654 0.522507 255 0 255
-21.050049 28.013195 60.463440 0.675192 0.322245 0.663503 255 0 255
-23.411562 28.013195 60.484070 -0.663503 0.322245 0.675192 255 0 255
62.916111 25.058556 39.330276 0.640797 0.422712 0.640797 255 0 255
-22.449177 28.695435 59.504761 -0.221259 0.948851 0.225166 255 0 255
-21.791147 28.537994 59.735184 0.316660 0.896023 0.311197 255 0 255
-22.029350 28.695435 59.501083 0.225196 0.948851 0.221229 255 0 255
61.473114 23.225651 39.478287 -0.597339 -0.535112 0.597339 255 0 255
61.621120 25.058556 39.330276 -0.640797 0.422712 0.640797 255 0 255
-22.453060 28.695435 59.058685 -0.225166 0.948851 -0.221259 255 0 255
-22.033247 28.695435 59.055023 0.221290 0.948851 -0.225166 255 0 255
116.461029 25.643528 38.812286 -0.323923 0.888882 0.323923 255 0 255
-22.982439 25.822155 58.538483 -0.522507 -0.680654 -0.513443 255 0 255
-21.070887 28.013195 58.075699 0.663503 0.322275 -0.675192 255 0 255
-21.513052 25.822155 58.525650 0.513443 -0.680654 -0.522507 255 0 255
-22.683275 28.537994 59.742950 -0.311167 0.896023 0.316660 255 0 255
-22.982439 25.822151 29.424423 -0.522507 -0.680654 -0.513443 255 0 255
-21.499992 25.822151 30.907211 0.522507 -0.680654 0.513443 255 0 255
-22.969389 25.822151 30.920044 -0.513443 -0.680654 0.522507 255 0 255
61.621120 25.058556 38.023254 -0.640797 0.422712 -0.640797 255 0 255
62.916111 25.058556 38.023254 0.640797 0.422712 -0.640797 255 0 255
61.473114 23.225651 37.875244 -0.597339 -0.535112 -0.597339 255 0 255
63.064121 23.225651 39.478287 0.597339 -0.535112 0.597339 255 0 255
-21.499992 25.822155 60.021271 0.522507 -0.680654 0.513443 255 0 255
-23.432402 28.013195 58.096313 -0.675192 0.322245 -0.663503 255 0 255
21.617897 28.695435 59.088135 -0.223243 0.948851 -0.223212 255 0 255
22.037731 28.695435 59.534195 0.223212 0.948851 0.223243 255 0 255
22.037737 28.695435 59.088120 0.223212 0.948851 -0.223243 255 0 255
-21.050049 28.013195 31.349380 0.675192 0.322245 0.663503 255 0 255
-23.411562 28.013195 31.370010 -0.663503 0.322245 0.675192 255 0 255
-21.799164 28.537994 58.816803 0.311167 0.896023 -0.316660 255 0 255
-22.691288 28.537994 58.824600 -0.316660 0.896023 -0.311167 255 0 255
21.381744 28.537994 59.770355 -0.313913 0.896023 0.313913 255 0 255
21.617897 28.695435 59.534195 -0.223243 0.948851 0.223243 255 0 255
-22.453060 28.695435 29.944626 -0.225135 0.948851 -0.221290 255 0 255
-22.029350 28.695435 30.387024 0.225166 0.948851 0.221259 255 0 255
-22.033247 28.695435 29.940964 0.221259 0.948851 -0.225166 255 0 255
-21.799164 28.537994 29.702744 0.311167 0.896023 -0.316660 255 0 255
-21.791147 28.537994 30.621124 0.316660 0.896023 0.311197 255 0 255
-23.432402 28.013195 28.982254 -0.675192 0.322275 -0.663503 255 0 255
23.008631 28.013195 58.117233 0.669362 0.322245 -0.669362 255 0 255
22.562546 25.822155 60.058990 0.517991 -0.680654 0.517991 255 0 255
22.562551 25.822155 58.563309 0.517991 -0.680654 -0.517991 255 0 255
-22.683275 28.537994 30.628891 -0.311167 0.896023 0.316660 255 0 255
22.273909 28.537994 59.770355 0.313913 0.896023 0.313913 255 0 255
23.008635 28.013195 60.505081 0.669362 0.322245 0.669362 255 0 255
-22.691288 28.537994 29.710541 -0.316660 0.896023 -0.311167 255 0 255
21.093098 25.822151 29.358704 -0.517991 -0.680654 -0.517991 255 0 255
22.562546 25.822151 30.854370 0.517991 -0.680654 0.517991 255 0 255
21.093103 25.822151 30.854370 -0.517991 -0.680654 0.517991 255 0 255
63.064121 23.225651 37.875244 0.597339 -0.535112 -0.597339 255 0 255
-21.070887 28.013195 28.961624 0.663503 0.322245 -0.675192 255 0 255
-21.513052 25.822151 29.411591 0.513443 -0.680654 -0.522507 255 0 255
62.139118 25.643528 38.812286 -0.323923 0.888882 0.323923 255 0 255
-22.449177 28.695435 30.390686 -0.221259 0.948851 0.225166 255 0 255
21.093098 25.822155 58.563324 -0.517991 -0.680654 -0.517991 255 0 255
21.093103 25.822155 60.058990 -0.517991 -0.680654 0.517991 255 0 255
-16.193338 32.187988 -158.735931 0.517991 -0.680654 -0.517991 255 0 255
-16.545328 35.499989 -157.295914 0.313913 0.896023 0.313913 255 0 255
23.008631 28.013191 28.912613 0.669362 0.322245 -0.669362 255 0 255
23.008635 28.013191 31.300461 0.669362 0.322245 0.669362 255 0 255
20.647028 28.013195 58.117233 -0.669362 0.322245 -0.669362 255 0 255
21.381744 28.537994 58.851959 -0.313913 0.896023 -0.313913 255 0 255
21.381744 28.537994 29.647339 -0.313944 0.896023 -0.313913 255 0 255
21.617897 28.695435 30.329559 -0.223243 0.948851 0.223212 255 0 255
21.617897 28.695435 29.883499 -0.223243 0.948851 -0.223212 255 0 255
22.273909 28.537994 58.851959 0.313913 0.896023 -0.313913 255 0 255
20.647028 28.013191 28.912613 -0.669362 0.322245 -0.669362 255 0 255
21.381744 28.537994 30.565735 -0.313913 0.896023 0.313913 255 0 255
22.562551 25.822151 29.358688 0.517991 -0.680654 -0.517991 255 0 255
22.037731 28.695435 30.329559 0.223212 0.948851 0.223212 255 0 255
22.037737 28.695435 29.883484 0.223212 0.948851 -0.223243 255 0 255
22.273909 28.537994 29.647339 0.313913 0.896023 -0.313913 255 0 255
20.647028 28.013191 31.300461 -0.669362 0.322245 0.669362 255 0 255
20.647028 28.013195 60.505081 -0.669362 0.322245 0.669362 255 0 255
22.273909 28.537994 30.565735 0.313913 0.896023 0.313913 255 0 255
-14.510011 21.802372 1.059692 -0.971862 0.190405 -0.138615 255 0 0
-14.278027 21.829952 0.313644 -0.721854 0.182775 -0.667440 255 0 0
-14.317418 21.687191 0.349625 -0.780755 -0.043580 -0.623280 255 0 0
-14.471807 21.947956 1.052795 -0.930418 0.335978 -0.146367 255 0 0
-14.278027 21.829952 2.076782 -0.721854 0.182806 0.667440 255 0 0
-14.471807 21.947956 1.337646 -0.930418 0.335948 0.146367 255 0 0
-14.510011 21.802372 1.330734 -0.971862 0.190374 0.138615 255 0 0
-14.317418 21.687191 2.040817 -0.780725 -0.043550 0.623310 255 0 0
-12.871943 21.018147 0.313644 0.519242 -0.533738 -0.667440 255 0 0
-12.672856 20.909332 1.052795 0.756157 -0.637776 -0.146367 255 0 0
-12.779835 20.803455 1.059692 0.650807 -0.746452 -0.138615 255 0 0
-12.975883 20.912655 0.349625 0.352611 -0.697958 -0.623280 255 0 0
-12.871943 21.018147 2.076782 0.519242 -0.533738 0.667440 255 0 0
-12.975883 20.912655 2.040817 0.352611 -0.697928 0.623310 255 0 0
-12.779835 20.803455 1.330734 0.650807 -0.746452 0.138615 255 0 0
-12.672856 20.909332 1.337646 0.756157 -0.637776 0.146367 255 0 0
-13.237623 20.449482 1.053650 0.202887 -0.962462 -0.180181 255 0 0
-13.237623 20.449482 1.336792 0.202887 -0.962462 0.180181 255 0 0
-14.587666 21.228931 1.053650 -0.934965 -0.305521 -0.180181 255 0 0
-14.587666 21.228931 1.336792 -0.934965 -0.305521 0.180181 255 0 0
-13.823032 23.222286 1.054108 -0.041780 0.977172 -0.208167 255 0 0
-13.885511 23.195042 1.054108 -0.653737 0.710257 -0.260994 255 0 0
-13.885511 23.195042 1.336319 -0.653737 0.710257 0.260964 255 0 0
-13.823030 23.222286 1.336319 -0.041780 0.977172 0.208136 255 0 0
-11.893644 22.108353 1.054108 0.867153 0.452406 -0.208167 255 0 0
-11.893644 22.108353 1.336319 0.867153 0.452406 0.208167 255 0 0
-11.885997 22.040623 1.054108 0.941984 -0.211005 -0.260994 255 0 0
-11.885997 22.040623 1.336319 0.941984 -0.211005 0.260994 255 0 0
13.728869 21.687191 0.299835 0.780755 -0.043580 -0.623280 255 0 0
13.921462 21.802372 1.009918 0.971862 0.190374 -0.138615 255 0 0
13.999119 21.228931 1.003860 0.934965 -0.305521 -0.180181 255 0 0
12.191291 20.803452 -88.675812 -0.650807 -0.746452 0.138615 255 0 0
12.084309 20.909328 -88.953751 -0.756157 -0.637776 -0.146367 255 0 0
12.191291 20.803452 -88.946838 -0.650807 -0.746452 -0.138615 255 0 0
13.435774 20.903557 1.995865 0.549303 -0.543260 0.634877 255 0 0
13.999119 21.228931 1.287003 0.934965 -0.305521 0.180181 255 0 0
13.728869 21.687191 1.991028 0.780755 -0.043611 0.623280 255 0 0
-13.893783 20.614510 -88.604126 -0.375927 -0.920377 0.107364 255 0 0
-14.024319 20.888107 -87.891968 -0.549303 -0.554247 0.625294 255 0 0
-14.114017 20.741642 -88.601913 -0.607379 -0.786798 0.109684 255 0 0
13.160485 21.364407 0.053619 0.312143 -0.214850 -0.925382 255 0 0
13.212531 20.774670 0.294983 0.195807 -0.747368 -0.634877 255 0 0
12.951067 21.243500 0.053619 0.029969 -0.377758 -0.925382 255 0 0
13.160485 21.364407 2.237244 0.312174 -0.214850 0.925382 255 0 0
-13.459961 21.343891 -87.600586 0.043947 -0.289346 0.956206 255 0 0
-12.961192 22.718269 -87.362144 -0.100955 0.445051 0.889767 255 0 0
-13.684194 21.473331 -87.598328 -0.258034 -0.114994 0.959227 255 0 0
13.921462 21.802372 1.280945 0.971862 0.190405 0.138615 255 0 0
-12.871943 21.032909 -89.621727 0.519211 -0.522019 -0.676656 255 0 0
-13.459961 21.383465 -89.867897 0.043947 -0.255806 -0.965697 255 0 0
-12.739909 22.637592 -90.060455 0.449324 0.158147 -0.879238 255 0 0
12.151364 22.614925 -0.202820 -0.449293 0.142766 -0.881863 255 0 0
11.977365 21.549076 0.264145 -0.693503 -0.322520 -0.644185 255 0 0
11.297448 22.040623 1.004333 -0.941984 -0.210974 -0.260964 255 0 0
12.151364 22.614922 -90.159569 -0.449293 0.142766 -0.881863 255 0 0
11.977365 21.549072 -89.692604 -0.693503 -0.322520 -0.644185 255 0 0
11.297448 22.040619 -88.952423 -0.941984 -0.210974 -0.260964 255 0 0
11.297448 22.040623 1.286530 -0.941984 -0.210974 0.260964 255 0 0
12.127116 22.656921 2.438766 -0.668325 0.627613 0.399243 255 0 0
11.305099 22.108353 1.286530 -0.867153 0.452437 0.208136 255 0 0
12.127116 22.656921 -0.147903 -0.668325 0.627613 -0.399274 255 0 0
13.305237 20.617569 1.288605 0.375927 -0.918363 0.123417 255 0 0
12.649075 20.449482 1.003860 -0.202887 -0.962462 -0.180181 255 0 0
13.305237 20.617569 1.002258 0.375927 -0.918363 -0.123386 255 0 0
11.305099 22.108353 1.004333 -0.867153 0.452437 -0.208136 255 0 0
-13.237623 20.446476 -88.608650 0.202887 -0.965453 0.163366 255 0 0
-12.779835 20.800499 -88.608536 0.650807 -0.748772 0.125553 255 0 0
-12.975883 20.897289 -87.896652 0.352611 -0.708701 0.611042 255 0 0
13.883259 21.947956 1.287842 0.930418 0.335978 0.146367 255 0 0
13.296965 23.195042 1.004333 0.653737 0.710257 -0.260994 255 0 0
13.296965 23.195042 1.286530 0.653737 0.710257 0.260994 255 0 0
13.234485 23.222286 1.004333 0.041780 0.977172 -0.208167 255 0 0
12.348401 22.784683 2.438766 -0.209326 0.892575 0.399274 255 0 0
13.234485 23.222286 1.286530 0.041780 0.977172 0.208167 255 0 0
12.348401 22.784683 -0.147903 -0.209326 0.892605 -0.399274 255 0 0
13.382697 22.360447 0.264145 0.626057 0.439314 -0.644185 255 0 0
12.372643 22.742683 -0.202820 0.100986 0.460494 -0.881863 255 0 0
13.728869 21.687187 -89.656921 0.780725 -0.043580 -0.623310 255 0 0
13.921462 21.802368 -88.946838 0.971862 0.190405 -0.138615 255 0 0
13.999119 21.228928 -88.952896 0.934965 -0.305521 -0.180181 255 0 0
-12.936946 22.761215 -87.416321 0.209387 0.885495 0.414716 255 0 0
-12.715664 22.678619 -90.004822 0.668325 0.634480 -0.388226 255 0 0
-12.936947 22.806362 -90.002594 0.209357 0.899411 -0.383648 255 0 0
-13.539614 21.223785 -87.644714 -0.029969 -0.393841 0.918668 255 0 0
-13.749033 21.344673 -87.642609 -0.312174 -0.230964 0.921506 255 0 0
13.525471 20.744724 1.002258 0.607379 -0.784753 -0.123386 255 0 0
12.283396 21.018147 0.263855 -0.519211 -0.533769 -0.667440 255 0 0
12.084309 20.909332 1.002991 -0.756157 -0.637776 -0.146397 255 0 0
12.871413 21.364353 0.011597 -0.043916 -0.272591 -0.961089 255 0 0
-13.237623 20.451418 -88.891754 0.202887 -0.959166 -0.196936 255 0 0
-12.975883 20.926804 -89.587585 0.352580 -0.686972 -0.635365 255 0 0
-12.779835 20.805229 -88.879517 0.650807 -0.743919 -0.151616 255 0 0
12.151364 22.614925 2.493683 -0.449293 0.142766 0.881863 255 0 0
13.095647 21.493816 2.279266 0.258065 -0.098239 0.961089 255 0 0
12.372643 22.742683 2.493683 0.100986 0.460494 0.881863 255 0 0
11.977365 21.549076 2.026703 -0.693533 -0.322520 0.644185 255 0 0
-12.565910 21.563751 -89.612152 0.693533 -0.311228 -0.649709 255 0 0
-13.971245 22.344238 -87.835709 -0.626087 0.428022 0.651753 255 0 0
-14.278027 21.813816 -87.844673 -0.721854 0.171087 0.670522 255 0 0
13.095647 21.493816 0.011597 0.258065 -0.098239 -0.961089 255 0 0
12.191291 20.803455 1.009918 -0.650807 -0.746452 -0.138615 255 0 0
12.387336 20.912655 0.299835 -0.352580 -0.697958 -0.623280 255 0 0
-13.885511 23.191628 -88.561203 -0.653706 0.705618 0.273324 255 0 0
-13.823030 23.218864 -88.560730 -0.041749 0.973418 0.225166 255 0 0
13.382697 22.360447 2.026703 0.626057 0.439344 0.644185 255 0 0
13.883259 21.947956 1.002991 0.930418 0.335948 -0.146397 255 0 0
13.689480 21.829952 0.263855 0.721854 0.182775 -0.667440 255 0 0
-14.114017 20.744724 1.052048 -0.607379 -0.784753 -0.123386 255 0 0
-14.024319 20.903557 0.344772 -0.549303 -0.543260 -0.634877 255 0 0
-13.893783 20.617569 1.052048 -0.375927 -0.918363 -0.123417 255 0 0
-13.801076 20.774670 0.344772 -0.195807 -0.747368 -0.634877 255 0 0
-14.024319 20.903557 2.045654 -0.549303 -0.543260 0.634877 255 0 0
-14.114017 20.744724 1.338394 -0.607379 -0.784753 0.123417 255 0 0
-13.893783 20.617569 1.338394 -0.375927 -0.918363 0.123417 255 0 0
-13.801076 20.774670 2.045654 -0.195807 -0.747368 0.634877 255 0 0
12.348401 22.784679 -87.517990 -0.209357 0.892575 0.399304 255 0 0
13.296965 23.195038 -88.670227 0.653737 0.710257 0.260994 255 0 0
13.234485 23.222282 -88.670227 0.041780 0.977172 0.208167 255 0 0
12.951067 21.243500 2.237244 0.029969 -0.377758 0.925382 255 0 0
12.871413 21.364353 2.279266 -0.043916 -0.272591 0.961089 255 0 0
-14.471807 21.949677 -88.866455 -0.930418 0.338481 -0.140477 255 0 0
-13.885511 23.196552 -88.843376 -0.653706 0.714713 -0.248543 255 0 0
13.305237 20.617565 -88.668159 0.375927 -0.918363 0.123386 255 0 0
12.649075 20.449478 -88.952896 -0.202887 -0.962462 -0.180181 255 0 0
13.305237 20.617565 -88.954491 0.375927 -0.918363 -0.123386 255 0 0
12.084309 20.909332 1.287842 -0.756157 -0.637776 0.146367 255 0 0
12.283396 21.018147 2.027008 -0.519211 -0.533769 0.667440 255 0 0
13.689480 21.829952 2.027008 0.721854 0.182775 0.667440 255 0 0
12.191291 20.803455 1.280945 -0.650807 -0.746452 0.138615 255 0 0
12.387336 20.912655 1.991028 -0.352580 -0.697958 0.623280 255 0 0
12.649075 20.449482 1.287003 -0.202887 -0.962462 0.180181 255 0 0
12.127116 22.656918 -90.104660 -0.668325 0.627583 -0.399274 255 0 0
11.305099 22.108349 -88.670227 -0.867122 0.452437 0.208136 255 0 0
12.127116 22.656918 -87.517990 -0.668325 0.627583 0.399274 255 0 0
-13.539614 21.261894 -89.827988 -0.029969 -0.361553 -0.931852 255 0 0
-12.871943 21.002136 -87.858841 0.519242 -0.545305 0.658010 255 0 0
-12.565910 21.532990 -87.849869 0.693533 -0.333720 0.638447 255 0 0
-12.739909 22.590530 -87.364372 0.449293 0.127354 0.884243 255 0 0
13.728869 21.687187 -87.965729 0.780755 -0.043580 0.623280 255 0 0
13.160485 21.364403 -87.719528 0.312143 -0.214850 0.925382 255 0 0
13.435774 20.903553 -87.960876 0.549303 -0.543260 0.634877 255 0 0
12.871413 21.364349 -87.677498 -0.043886 -0.272622 0.961089 255 0 0
12.387336 20.912651 -87.965729 -0.352580 -0.697958 0.623310 255 0 0
12.951067 21.243496 -87.719528 0.030000 -0.377758 0.925382 255 0 0
13.234485 23.222282 -88.952423 0.041780 0.977172 -0.208167 255 0 0
12.348401 22.784679 -90.104660 -0.209326 0.892575 -0.399304 255 0 0
-12.715663 22.633476 -87.418541 0.668325 0.620533 0.410169 255 0 0
-11.893644 22.105099 -88.580170 0.867153 0.448683 0.216041 255 0 0
-11.893644 22.110023 -88.862335 0.867153 0.455977 -0.200201 255 0 0
-11.885997 22.042305 -88.863525 0.941984 -0.206397 -0.264626 255 0 0
-12.672856 20.911213 -88.884583 0.756157 -0.635121 -0.157476 255 0 0
13.296965 23.195038 -88.952423 0.653737 0.710257 -0.260994 255 0 0
13.382697 22.360443 -89.692604 0.626087 0.439344 -0.644185 255 0 0
12.372643 22.742680 -90.159569 0.100986 0.460463 -0.881893 255 0 0
-13.684194 21.512909 -89.865646 -0.258065 -0.081484 -0.962676 255 0 0
-12.672856 20.906239 -88.599777 0.756157 -0.640217 0.135228 255 0 0
-11.885997 22.037380 -88.581360 0.941984 -0.215552 0.257241 255 0 0
13.212531 20.774666 -89.661766 0.195807 -0.747368 -0.634877 255 0 0
-14.587666 21.230747 -88.878151 -0.934965 -0.302316 -0.185492 255 0 0
-14.510011 21.803993 -88.862091 -0.971862 0.192785 -0.135258 255 0 0
-14.317418 21.701221 -89.574066 -0.780755 -0.032716 -0.623951 255 0 0
-13.801076 20.788925 -89.594849 -0.195807 -0.736167 -0.647816 255 0 0
-13.893783 20.619507 -88.890411 -0.375927 -0.916074 -0.139409 255 0 0
-14.587666 21.225807 -88.595047 -0.934965 -0.308603 0.174810 255 0 0
-14.317418 21.671707 -87.883141 -0.780755 -0.054476 0.622456 255 0 0
-14.510011 21.799267 -88.591095 -0.971862 0.187933 0.141911 255 0 0
13.921462 21.802368 -88.675812 0.971862 0.190405 0.138615 255 0 0
13.999119 21.228928 -88.669754 0.934965 -0.305521 0.180181 255 0 0
-13.801076 20.759243 -87.894211 -0.195807 -0.758324 0.621754 255 0 0
-14.024319 20.917793 -89.592590 -0.549333 -0.532090 -0.644246 255 0 0
-13.749033 21.382782 -89.825867 -0.312204 -0.198706 -0.928983 255 0 0
-14.278027 21.844589 -89.607559 -0.721854 0.194403 -0.664144 255 0 0
11.297448 22.040619 -88.670227 -0.941984 -0.210974 0.260994 255 0 0
-13.971245 22.375000 -89.597992 -0.626087 0.450514 -0.636402 255 0 0
11.305099 22.108349 -88.952423 -0.867153 0.452437 -0.208136 255 0 0
12.084309 20.909328 -88.668900 -0.756157 -0.637776 0.146367 255 0 0
-13.823032 23.223789 -88.842896 -0.041719 0.980682 -0.191046 255 0 0
-14.471807 21.944706 -88.581650 -0.930418 0.333354 0.152226 255 0 0
13.525471 20.744724 1.288605 0.607379 -0.784753 0.123417 255 0 0
13.212531 20.774670 1.995865 0.195807 -0.747368 0.634877 255 0 0
13.435774 20.903557 0.294983 0.549303 -0.543260 -0.634877 255 0 0
-12.961192 22.765331 -90.058228 -0.100986 0.475814 -0.873714 255 0 0
13.689480 21.829948 -87.929749 0.721854 0.182775 0.667440 255 0 0
13.883259 21.947952 -88.668900 0.930418 0.335948 0.146367 255 0 0
13.689480 21.829948 -89.692902 0.721854 0.182775 -0.667440 255 0 0
13.883259 21.947952 -88.953751 0.930418 0.335948 -0.146367 255 0 0
12.283396 21.018143 -87.929749 -0.519211 -0.533738 0.667440 255 0 0
12.283396 21.018143 -89.692902 -0.519211 -0.533769 -0.667440 255 0 0
12.387336 20.912651 -89.656921 -0.352580 -0.697958 -0.623280 255 0 0
12.649075 20.449478 -88.669754 -0.202887 -0.962462 0.180181 255 0 0
12.372643 22.742680 -87.463081 0.100955 0.460463 0.881893 255 0 0
12.151364 22.614922 -87.463081 -0.449293 0.142766 0.881893 255 0 0
13.525471 20.744720 -88.668159 0.607379 -0.784753 0.123386 255 0 0
13.212531 20.774666 -87.960876 0.195807 -0.747368 0.634877 255 0 0
13.525471 20.744720 -88.954491 0.607379 -0.784753 -0.123386 255 0 0
13.435774 20.903553 -89.661766 0.549303 -0.543260 -0.634877 255 0 0
-14.114017 20.746639 -88.888199 -0.607379 -0.782464 -0.137089 255 0 0
12.871413 21.364349 -89.945152 -0.043916 -0.272591 -0.961119 255 0 0
11.977365 21.549072 -87.930046 -0.693533 -0.322520 0.644185 255 0 0
13.095647 21.493813 -87.677498 0.258065 -0.098270 0.961089 255 0 0
13.382697 22.360443 -87.930046 0.626057 0.439344 0.644185 255 0 0
13.095647 21.493813 -89.945152 0.258034 -0.098209 -0.961119 255 0 0
12.951067 21.243496 -89.903137 0.029969 -0.377758 -0.925413 255 0 0
13.160485 21.364403 -89.903137 0.312143 -0.214820 -0.925413 255 0 0
-12.565910 21.549076 0.313934 0.693503 -0.322520 -0.644185 255 0 0
-12.739909 22.614925 -0.153030 0.449324 0.142796 -0.881863 255 0 0
-13.459961 21.364353 0.061371 0.043916 -0.272622 -0.961089 255 0 0
-12.961192 22.742683 2.543472 -0.100955 0.460555 0.881863 255 0 0
-12.715663 22.656921 2.488541 0.668325 0.627644 0.399182 255 0 0
-12.936946 22.784683 2.488541 0.209387 0.892605 0.399213 255 0 0
-13.971245 22.360447 2.076492 -0.626087 0.439314 0.644185 255 0 0
-13.684194 21.493816 2.329056 -0.258065 -0.098270 0.961089 255 0 0
-13.684194 21.493816 0.061371 -0.258065 -0.098270 -0.961089 255 0 0
-13.749033 21.364407 0.103409 -0.312174 -0.214881 -0.925382 255 0 0
-13.539614 21.243500 2.287018 -0.030000 -0.377789 0.925382 255 0 0
-13.971245 22.360447 0.313934 -0.626057 0.439314 -0.644185 255 0 0
-12.961192 22.742683 -0.153030 -0.100986 0.460524 -0.881863 255 0 0
-12.715664 22.656921 -0.098114 0.668325 0.627613 -0.399243 255 0 0
-13.749033 21.364407 2.287018 -0.312174 -0.214881 0.925382 255 0 0
-13.539614 21.243500 0.103409 -0.030000 -0.377789 -0.925382 255 0 0
-12.936947 22.784683 -0.098114 0.209357 0.892605 -0.399243 255 0 0
-13.459961 21.364353 2.329056 0.043916 -0.272622 0.961089 255 0 0
-12.739909 22.614925 2.543472 0.449324 0.142827 0.881863 255 0 0
-12.565910 21.549076 2.076492 0.693503 -0.322520 0.644185 255 0 0
7.977788 3.523758 -129.089584 0.000000 0.000000 -1.000000 0 255 255
14.865990 3.523758 4.145721 0.000000 0.000000 -1.000000 0 255 0
3 0 1 2
3 3 4 5
3 6 7 8
3 9 10 11
3 9 11 12
3 9 12 7
3 9 7 13
3 9 13 14
3 15 13 6
3 16 17 18
3 10 19 11
3 20 21 9
3 18 20 9
3 22 23 8
3 24 17 16
3 15 9 14
3 17 19 20
3 12 19 7
3 6 8 23
3 6 23 25
3 24 22 17
3 10 21 20
3 6 25 24
3 6 24 16
3 22 25 23
3 6 16 18
3 6 18 15
3 11 19 12
3 8 19 22
3 9 21 10
3 26 27 28
3 29 30 31
3 32 33 34
3 35 36 37
3 38 39 40
3 41 29 36
3 32 42 43
3 44 29 45
3 43 46 47
3 48 49 50
3 51 52 53
3 54 40 55
3 55 56 57
3 58 59 33
3 55 60 61
3 34 46 42
3 47 62 63
3 51 64 65
3 66 31 30
3 67 51 65
3 54 57 68
3 69 70 71
3 40 72 60
3 51 73 74
3 54 75 38
3 68 39 75
3 76 77 78
3 79 62 59
3 80 74 73
3 81 80 52
3 82 28 83
3 81 84 85
3 76 69 86
3 87 64 88
3 27 89 90
3 74 84 64
3 84 91 92
3 83 27 90
3 61 72 56
3 33 62 46
3 35 93 44
3 94 95 96
3 97 50 49
3 98 99 100
3 91 65 87
3 101 97 102
3 103 100 104
3 36 31 105
3 66 36 105
3 106 107 108
3 32 47 58
3 103 109 98
3 110 111 112
3 57 72 39
3 113 50 114
3 35 45 41
3 115 116 101
3 37 30 93
3 106 117 94
3 109 118 96
3 119 120 121
3 115 102 113
3 112 122 123
3 103 124 125
3 119 126 127
3 128 129 130
3 122 131 132
3 112 133 110
3 134 135 136
3 137 133 123
3 134 138 139
3 131 133 140
3 141 142 143
3 115 114 144
3 110 145 146
3 48 102 147
3 140 148 128
3 94 118 106
3 102 49 147
3 107 125 124
3 95 124 99
3 129 131 130
3 100 124 104
3 146 122 111
3 144 97 116
3 64 92 88
3 149 135 150
3 88 92 87
3 92 91 87
3 70 77 27
3 77 82 89
3 70 151 71
3 26 86 151
3 152 26 28
3 53 80 73
3 90 89 83
3 89 82 83
3 151 69 71
3 142 153 154
3 155 126 156
3 155 136 149
3 157 158 159
3 156 121 160
3 161 162 157
3 161 163 141
3 159 164 165
3 155 160 134
3 122 137 123
3 58 63 79
3 157 165 166
3 128 131 140
3 162 164 158
3 142 167 143
3 117 107 95
3 126 120 127
3 164 166 165
3 168 135 139
3 167 169 162
3 132 148 137
3 167 141 143
3 168 138 126
3 161 166 153
3 95 109 96
3 169 153 166
3 121 138 160
3 168 149 150
3 170 171 172
3 173 171 170
3 174 175 176
3 174 176 177
3 178 179 180
3 181 178 180
3 182 183 184
3 185 182 184
3 186 180 187
3 180 184 187
3 170 188 189
3 176 170 189
3 173 170 176
3 175 173 176
3 190 191 192
3 193 190 192
3 194 195 196
3 196 195 197
3 198 199 200
3 201 202 203
3 204 205 206
3 207 208 209
3 210 211 212
3 206 213 204
3 214 215 216
3 217 206 205
3 218 219 220
3 221 222 223
3 224 225 226
3 227 228 229
3 230 229 228
3 231 232 233
3 230 223 234
3 230 234 229
3 235 236 237
3 238 239 240
3 241 242 243
3 241 244 242
3 239 245 246
3 247 248 249
3 250 251 252
3 253 216 254
3 205 255 200
3 223 222 256
3 257 223 256
3 221 258 256
3 222 221 256
3 259 260 261
3 242 230 228
3 262 263 264
3 227 265 262
3 266 218 220
3 242 240 243
3 267 268 215
3 269 212 258
3 270 271 232
3 272 250 273
3 264 274 240
3 239 244 241
3 239 275 276
3 277 278 279
3 278 280 279
3 245 239 276
3 246 245 276
3 281 282 283
3 284 281 283
3 269 246 276
3 285 286 287
3 272 267 215
3 288 263 289
3 290 272 291
3 232 211 233
3 271 212 211
3 292 293 294
3 227 295 296
3 282 279 283
3 217 297 206
3 238 297 217
3 276 275 199
3 276 199 198
3 296 295 298
3 299 296 298
3 256 271 270
3 257 256 270
3 300 298 232
3 298 270 232
3 217 205 200
3 199 217 200
3 238 217 199
3 275 238 199
3 243 240 239
3 241 243 239
3 244 246 221
3 230 244 221
3 301 302 303
3 219 260 304
3 305 306 307
3 214 305 307
3 308 309 310
3 311 312 313
3 314 315 285
3 251 316 317
3 318 251 317
3 266 220 319
3 218 266 319
3 320 218 319
3 321 322 323
3 324 220 219
3 305 325 326
3 293 327 294
3 328 329 330
3 306 305 326
3 307 306 326
3 331 259 332
3 319 251 318
3 333 334 335
3 336 308 337
3 254 338 253
3 339 330 340
3 264 242 262
3 242 228 262
3 341 290 291
3 342 303 302
3 341 291 343
3 301 344 302
3 345 226 202
3 252 291 346
3 333 329 328
3 334 208 254
3 321 315 314
3 214 237 305
3 268 267 272
3 347 268 272
3 320 326 325
3 346 273 250
3 348 204 231
3 204 349 231
3 255 348 231
3 255 231 233
3 350 255 233
3 211 350 233
3 346 250 252
3 331 304 260
3 235 338 207
3 216 334 254
3 341 343 351
3 324 341 351
3 314 285 287
3 316 326 317
3 343 291 351
3 227 234 223
3 336 352 308
3 353 352 336
3 354 355 248
3 354 248 247
3 356 345 201
3 312 356 201
3 357 358 203
3 202 357 203
3 359 201 293
3 201 203 293
3 336 337 249
3 248 336 249
3 353 336 248
3 355 353 248
3 287 286 321
3 314 287 321
3 315 323 224
3 301 315 224
3 360 285 361
3 285 303 361
3 362 310 292
3 310 363 292
3 364 362 292
3 364 292 294
3 365 364 294
3 327 365 294
3 342 344 226
3 329 341 330
3 290 341 329
3 268 347 335
3 268 335 334
3 218 320 261
3 260 218 261
3 305 237 236
3 325 305 236
3 320 325 261
3 261 325 236
3 259 261 235
3 261 236 235
3 332 259 235
3 207 332 235
3 328 366 209
3 333 328 209
3 290 329 335
3 347 290 335
3 346 291 272
3 273 346 272
3 318 317 319
3 319 317 326
3 337 364 249
3 226 225 357
3 202 226 357
3 224 367 357
3 225 224 357
3 285 301 303
3 353 321 286
3 342 368 361
3 301 226 344
3 313 369 311
3 203 358 293
3 360 370 286
3 321 355 354
3 322 321 354
3 323 322 354
3 371 323 354
3 369 308 352
3 359 363 312
3 358 372 327
3 342 345 356
3 368 342 356
3 361 368 356
3 361 356 311
3 371 224 323
3 365 249 364
3 312 201 359
3 360 369 352
3 370 360 352
3 286 370 352
3 286 352 353
3 361 369 360
3 367 358 357
3 373 247 365
3 340 324 304
3 324 219 304
3 339 340 331
3 340 304 331
3 366 339 332
3 339 331 332
3 209 366 332
3 209 332 207
3 363 309 313
3 371 247 373
3 371 372 367
3 373 327 372
3 313 312 363
3 310 337 308
3 215 316 250
3 192 173 175
3 289 299 288
3 374 178 375
3 178 376 375
3 187 279 186
3 188 278 277
3 258 271 256
3 377 378 379
3 262 265 296
3 378 197 195
3 349 213 288
3 192 380 377
3 380 174 377
3 174 381 377
3 382 375 376
3 172 382 383
3 210 198 350
3 179 184 180
3 284 183 384
3 333 208 334
3 192 379 193
3 187 184 183
3 385 191 386
3 196 387 194
3 288 299 349
3 264 263 297
3 382 171 386
3 171 385 386
3 384 381 388
3 263 206 297
3 186 181 180
3 187 284 283
3 280 389 181
3 388 284 384
3 240 297 238
3 390 190 193
3 390 193 379
3 197 179 196
3 269 221 246
3 175 174 192
3 174 380 192
3 183 391 384
3 270 295 257
3 177 281 388
3 280 186 279
3 269 198 210
3 330 324 340
3 282 188 277
3 274 264 297
3 171 191 385
3 171 173 191
3 381 177 388
3 268 216 215
3 278 172 383
3 220 252 251
3 189 281 177
3 189 177 176
3 379 387 390
3 265 227 296
3 383 280 278
3 390 191 190
3 392 393 197
3 240 274 297
3 188 170 172
3 393 182 197
3 182 185 197
3 392 381 391
3 300 349 299
3 350 200 255
3 179 178 196
3 178 374 196
3 374 375 196
3 194 387 378
3 194 378 195
3 328 339 366
3 386 387 375
3 262 296 289
3 299 298 300
3 391 182 392
3 182 393 392
3 376 181 389
3 382 389 383
3 295 223 257
3 338 237 253
3 0 394 1
3 3 395 4
3 6 13 7
3 15 14 13
3 10 20 19
3 18 17 20
3 15 18 9
3 17 22 19
3 24 25 22
3 8 7 19
3 26 70 27
3 29 93 30
3 32 58 33
3 35 41 36
3 38 75 39
3 41 45 29
3 32 34 42
3 44 93 29
3 43 42 46
3 48 147 49
3 51 81 52
3 54 38 40
3 55 61 56
3 58 79 59
3 55 40 60
3 34 33 46
3 47 46 62
3 51 74 64
3 66 105 31
3 67 81 51
3 54 55 57
3 69 78 70
3 40 39 72
3 51 53 73
3 54 68 75
3 68 57 39
3 76 152 77
3 79 63 62
3 80 85 74
3 81 85 80
3 82 152 28
3 81 67 84
3 76 78 69
3 87 65 64
3 27 77 89
3 74 85 84
3 84 67 91
3 83 28 27
3 61 60 72
3 33 59 62
3 35 37 93
3 94 117 95
3 97 114 50
3 98 109 99
3 91 67 65
3 101 116 97
3 103 98 100
3 36 29 31
3 66 37 36
3 106 118 107
3 32 43 47
3 103 125 109
3 110 146 111
3 57 56 72
3 113 48 50
3 35 44 45
3 115 144 116
3 37 66 30
3 106 108 117
3 109 125 118
3 119 127 120
3 115 101 102
3 112 111 122
3 103 104 124
3 119 156 126
3 128 148 129
3 122 145 131
3 112 123 133
3 134 139 135
3 137 140 133
3 134 160 138
3 131 145 133
3 141 163 142
3 115 113 114
3 110 133 145
3 48 113 102
3 140 137 148
3 94 96 118
3 102 97 49
3 107 118 125
3 95 107 124
3 129 132 131
3 100 99 124
3 146 145 122
3 144 114 97
3 64 84 92
3 149 136 135
3 70 78 77
3 77 152 82
3 70 26 151
3 26 76 86
3 152 76 26
3 53 52 80
3 151 86 69
3 142 163 153
3 155 168 126
3 155 134 136
3 157 162 158
3 156 119 121
3 161 167 162
3 161 153 163
3 159 158 164
3 155 156 160
3 122 132 137
3 58 47 63
3 157 159 165
3 128 130 131
3 162 169 164
3 142 154 167
3 117 108 107
3 126 138 120
3 164 169 166
3 168 150 135
3 167 154 169
3 132 129 148
3 167 161 141
3 168 139 138
3 161 157 166
3 95 99 109
3 169 154 153
3 121 120 138
3 168 155 149
3 201 345 202
3 204 348 205
3 207 338 208
3 210 350 211
3 214 307 215
3 227 262 228
3 231 300 232
3 230 221 223
3 238 275 239
3 250 316 251
3 253 214 216
3 205 348 255
3 242 244 230
3 262 289 263
3 242 264 240
3 269 210 212
3 272 215 250
3 239 246 244
3 285 360 286
3 288 213 263
3 290 347 272
3 232 271 211
3 292 359 293
3 282 277 279
3 219 218 260
3 311 356 312
3 324 351 220
3 293 358 327
3 331 260 259
3 319 220 251
3 254 208 338
3 342 361 303
3 345 342 226
3 252 351 291
3 333 335 329
3 321 323 315
3 214 253 237
3 320 319 326
3 235 237 338
3 216 268 334
3 316 307 326
3 227 229 234
3 342 302 344
3 337 362 364
3 285 315 301
3 353 355 321
3 301 224 226
3 313 309 369
3 369 309 308
3 359 292 363
3 371 367 224
3 365 247 249
3 361 311 369
3 367 372 358
3 363 310 309
3 371 354 247
3 371 373 372
3 373 365 327
3 310 362 337
3 215 307 316
3 192 191 173
3 289 296 299
3 187 283 279
3 188 172 278
3 258 212 271
3 377 392 378
3 378 392 197
3 349 204 213
3 382 386 375
3 172 171 382
3 179 185 184
3 333 209 208
3 192 377 379
3 196 375 387
3 384 391 381
3 263 213 206
3 187 183 284
3 388 281 284
3 197 185 179
3 269 258 221
3 183 182 391
3 270 298 295
3 280 181 186
3 269 276 198
3 330 341 324
3 282 189 188
3 381 174 177
3 220 351 252
3 189 282 281
3 379 378 387
3 383 389 280
3 390 386 191
3 392 377 381
3 300 231 349
3 350 198 200
3 328 330 339
3 386 390 387
3 376 178 181
3 382 376 389
3 295 227 223
