ply
format ascii 1.0
comment Created by Blender 2.77 (sub 0) - www.blender.org, source file: 'Well0-Colliders.blend'
element vertex 16
property float x
property float y
property float z
property float nx
property float ny
property float nz
element face 28
property list uchar uint vertex_indices
end_header
0.630000 -0.000000 -0.639534 0.555376 -0.618915 -0.555376
-0.630000 0.000000 0.620466 -0.555376 -0.618915 0.555376
-0.840000 0.000000 -0.009534 -0.766381 -0.642354 0.000000
0.000000 0.000000 0.830466 0.000000 -0.642354 0.766381
0.630000 0.000000 0.620466 0.555376 -0.618915 0.555376
0.840000 -0.000000 -0.009534 0.766381 -0.642354 0.000000
-0.630000 1.230000 -0.639534 -0.555376 0.618915 -0.555376
0.630000 1.230000 0.620466 0.555376 0.618915 0.555376
0.840000 1.230000 -0.009534 0.766381 0.642354 0.000000
0.000000 1.230000 0.830466 0.000000 0.642354 0.766381
-0.630000 1.230000 0.620466 -0.555376 0.618915 0.555376
0.630000 1.230000 -0.639534 0.555376 0.618915 -0.555376
-0.000000 1.230000 -0.849534 0.000000 0.642354 -0.766381
-0.840000 1.230000 -0.009534 -0.766381 0.642354 0.000000
-0.000000 -0.000000 -0.849534 0.000000 -0.642354 -0.766381
-0.630000 -0.000000 -0.639534 -0.555376 -0.618915 -0.555376
3 0 1 2
3 0 3 1
3 0 4 3
3 0 5 4
3 6 7 8
3 6 9 7
3 6 10 9
3 6 11 12
3 6 8 11
3 6 13 10
3 8 4 5
3 6 2 13
3 10 2 1
3 10 13 2
3 9 1 3
3 9 10 1
3 5 0 8
3 11 8 0
3 14 11 0
3 12 11 14
3 7 3 4
3 12 15 6
3 0 15 14
3 0 2 15
3 8 7 4
3 6 15 2
3 7 9 3
3 12 14 15
