ply
format ascii 1.0
comment Created by Blender 2.77 (sub 0) - www.blender.org, source file: 'Cloud.blend'
element vertex 576
property float x
property float y
property float z
property float nx
property float ny
property float nz
property uchar red
property uchar green
property uchar blue
element face 192
property list uchar uint vertex_indices
end_header
-2.010277 -1.974472 -0.569648 0.193346 -0.948488 0.250973 255 255 255
-0.804408 -1.460302 0.444546 0.193346 -0.948488 0.250973 255 255 255
-1.723200 -1.400319 1.379059 0.193346 -0.948488 0.250973 255 255 255
-2.010277 -1.974472 -0.569648 0.076403 -0.959423 0.271422 255 255 255
-1.723200 -1.400319 1.379059 0.076403 -0.959423 0.271422 255 255 255
-3.002683 -1.902832 -0.037064 0.076403 -0.959423 0.271422 255 255 255
-1.723200 -1.400319 1.379059 0.652333 -0.364135 0.664732 255 255 255
-0.804408 -1.460302 0.444546 0.652333 -0.364135 0.664732 255 255 255
-1.552368 -0.134535 1.904801 0.652333 -0.364135 0.664732 255 255 255
-3.840991 -1.054223 -0.583117 -0.871207 -0.060788 -0.487138 255 255 255
-4.225117 0.075103 -0.037064 -0.871207 -0.060788 -0.487138 255 255 255
-3.333000 -0.029716 -1.619461 -0.871207 -0.060788 -0.487138 255 255 255
-2.190396 0.994798 -1.782341 -0.427159 0.691166 -0.582946 255 255 255
-3.845369 0.994796 -0.569648 -0.427159 0.691166 -0.582946 255 255 255
-2.356364 1.915040 -0.569648 -0.427159 0.691166 -0.582946 255 255 255
-0.525648 0.994792 -0.583117 0.393273 0.739792 -0.545934 255 255 255
-2.190396 0.994798 -1.782341 0.393273 0.739792 -0.545934 255 255 255
-1.363958 1.843400 -0.037064 0.393273 0.739792 -0.545934 255 255 255
-1.151735 0.994794 1.370729 0.763895 0.597116 0.244780 255 255 255
-0.525648 0.994792 -0.583117 0.763895 0.597116 0.244780 255 255 255
-1.363958 1.843400 -0.037064 0.763895 0.597116 0.244780 255 255 255
-3.562232 1.400873 0.444546 -0.193344 0.948489 0.250972 255 255 255
-2.643440 1.340889 1.379060 -0.193344 0.948489 0.250972 255 255 255
-2.356364 1.915040 -0.569648 -0.193344 0.948489 0.250972 255 255 255
-2.643440 1.340889 1.379060 -0.076402 0.959424 0.271421 255 255 255
-1.363958 1.843400 -0.037064 -0.076402 0.959424 0.271421 255 255 255
-2.356364 1.915040 -0.569648 -0.076402 0.959424 0.271421 255 255 255
-2.643440 1.340889 1.379060 0.200405 0.852127 0.483444 255 255 255
-1.151735 0.994794 1.370729 0.200405 0.852127 0.483444 255 255 255
-1.363958 1.843400 -0.037064 0.200405 0.852127 0.483444 255 255 255
-1.363958 1.843400 -0.037064 0.343936 0.770078 -0.537297 255 255 255
-2.190396 0.994798 -1.782341 0.343936 0.770078 -0.537297 255 255 255
-2.356364 1.915040 -0.569648 0.343936 0.770078 -0.537297 255 255 255
-2.356364 1.915040 -0.569648 -0.516121 0.835111 -0.190286 255 255 255
-3.845369 0.994796 -0.569648 -0.516121 0.835111 -0.190286 255 255 255
-3.562232 1.400873 0.444546 -0.516121 0.835111 -0.190286 255 255 255
-4.225117 0.075103 -0.037064 -0.903104 0.421232 0.083465 255 255 255
-3.562232 1.400873 0.444546 -0.903104 0.421232 0.083465 255 255 255
-3.845369 0.994796 -0.569648 -0.903104 0.421232 0.083465 255 255 255
-4.225117 0.075103 -0.037064 -0.801868 0.195876 0.564482 255 255 255
-3.325823 -0.735822 1.521808 -0.801868 0.195876 0.564482 255 255 255
-3.562232 1.400873 0.444546 -0.801868 0.195876 0.564482 255 255 255
-3.325823 -0.735822 1.521808 -0.677930 0.269765 0.683840 255 255 255
-2.643440 1.340889 1.379060 -0.677930 0.269765 0.683840 255 255 255
-3.562232 1.400873 0.444546 -0.677930 0.269765 0.683840 255 255 255
-1.552368 -0.134535 1.904801 0.097228 0.397093 0.912614 255 255 255
-1.151735 0.994794 1.370729 0.097228 0.397093 0.912614 255 255 255
-2.643440 1.340889 1.379060 0.097228 0.397093 0.912614 255 255 255
-0.141523 -0.134534 -0.037063 0.861372 0.426443 0.276016 255 255 255
-0.525648 0.994792 -0.583117 0.861372 0.426443 0.276016 255 255 255
-1.151735 0.994794 1.370729 0.861372 0.426443 0.276016 255 255 255
-1.552368 -0.134535 -1.978928 0.528689 0.426444 -0.733917 255 255 255
-2.190396 0.994798 -1.782341 0.528689 0.426444 -0.733917 255 255 255
-0.525648 0.994792 -0.583117 0.528689 0.426444 -0.733917 255 255 255
-3.333000 -0.029716 -1.619461 -0.522041 0.468949 -0.712433 255 255 255
-3.845369 0.994796 -0.569648 -0.522041 0.468949 -0.712433 255 255 255
-2.190396 0.994798 -1.782341 -0.522041 0.468949 -0.712433 255 255 255
-3.333000 -0.029716 -1.619461 -0.866778 0.072149 -0.493447 255 255 255
-4.225117 0.075103 -0.037064 -0.866778 0.072149 -0.493447 255 255 255
-3.845369 0.994796 -0.569648 -0.866778 0.072149 -0.493447 255 255 255
-3.325823 -0.735822 1.521808 -0.257056 0.150087 0.954671 255 255 255
-1.552368 -0.134535 1.904801 -0.257056 0.150087 0.954671 255 255 255
-2.643440 1.340889 1.379060 -0.257056 0.150087 0.954671 255 255 255
-3.325823 -0.735822 1.521808 -0.072794 -0.374165 0.924501 255 255 255
-1.723200 -1.400319 1.379059 -0.072794 -0.374165 0.924501 255 255 255
-1.552368 -0.134535 1.904801 -0.072794 -0.374165 0.924501 255 255 255
-1.552368 -0.134535 1.904801 0.808984 -0.009032 0.587761 255 255 255
-0.141523 -0.134534 -0.037063 0.808984 -0.009032 0.587761 255 255 255
-1.151735 0.994794 1.370729 0.808984 -0.009032 0.587761 255 255 255
-1.552368 -0.134535 1.904801 0.794655 -0.187595 0.577349 255 255 255
-0.804408 -1.460302 0.444546 0.794655 -0.187595 0.577349 255 255 255
-0.141523 -0.134534 -0.037063 0.794655 -0.187595 0.577349 255 255 255
-0.804408 -1.460302 0.444546 0.903104 -0.421233 0.083463 255 255 255
-0.521272 -1.054225 -0.569649 0.903104 -0.421233 0.083463 255 255 255
-0.141523 -0.134534 -0.037063 0.903104 -0.421233 0.083463 255 255 255
-0.141523 -0.134534 -0.037063 0.808984 -0.009030 -0.587761 255 255 255
-1.552368 -0.134535 -1.978928 0.808984 -0.009030 -0.587761 255 255 255
-0.525648 0.994792 -0.583117 0.808984 -0.009030 -0.587761 255 255 255
-0.141523 -0.134534 -0.037063 0.809001 0.006330 -0.587773 255 255 255
-0.521272 -1.054225 -0.569649 0.809001 0.006330 -0.587773 255 255 255
-1.552368 -0.134535 -1.978928 0.809001 0.006330 -0.587773 255 255 255
-0.521272 -1.054225 -0.569649 0.512757 -0.497405 -0.699763 255 255 255
-2.176244 -1.054230 -1.782340 0.512757 -0.497405 -0.699763 255 255 255
-1.552368 -0.134535 -1.978928 0.512757 -0.497405 -0.699763 255 255 255
-1.552368 -0.134535 -1.978928 -0.194078 0.060789 -0.979101 255 255 255
-3.333000 -0.029716 -1.619461 -0.194078 0.060789 -0.979101 255 255 255
-2.190396 0.994798 -1.782341 -0.194078 0.060789 -0.979101 255 255 255
-1.552368 -0.134535 -1.978928 -0.201447 -0.072150 -0.976838 255 255 255
-2.176244 -1.054230 -1.782340 -0.201447 -0.072150 -0.976838 255 255 255
-3.333000 -0.029716 -1.619461 -0.201447 -0.072150 -0.976838 255 255 255
-2.176244 -1.054230 -1.782340 -0.516246 -0.468949 -0.716643 255 255 255
-3.840991 -1.054223 -0.583117 -0.516246 -0.468949 -0.716643 255 255 255
-3.333000 -0.029716 -1.619461 -0.516246 -0.468949 -0.716643 255 255 255
-3.840991 -1.054223 -0.583117 -0.861683 -0.426235 0.275366 255 255 255
-3.325823 -0.735822 1.521808 -0.861683 -0.426235 0.275366 255 255 255
-4.225117 0.075103 -0.037064 -0.861683 -0.426235 0.275366 255 255 255
-3.002683 -1.902832 -0.037064 -0.281889 -0.795184 0.536862 255 255 255
-1.723200 -1.400319 1.379059 -0.281889 -0.795184 0.536862 255 255 255
-3.325823 -0.735822 1.521808 -0.281889 -0.795184 0.536862 255 255 255
-0.804408 -1.460302 0.444546 0.516122 -0.835111 -0.190285 255 255 255
-2.010277 -1.974472 -0.569648 0.516122 -0.835111 -0.190285 255 255 255
-0.521272 -1.054225 -0.569649 0.516122 -0.835111 -0.190285 255 255 255
-2.010277 -1.974472 -0.569648 0.427159 -0.691165 -0.582946 255 255 255
-2.176244 -1.054230 -1.782340 0.427159 -0.691165 -0.582946 255 255 255
-0.521272 -1.054225 -0.569649 0.427159 -0.691165 -0.582946 255 255 255
-3.840991 -1.054223 -0.583117 -0.766591 -0.580096 0.275367 255 255 255
-3.002683 -1.902832 -0.037064 -0.766591 -0.580096 0.275367 255 255 255
-3.325823 -0.735822 1.521808 -0.766591 -0.580096 0.275367 255 255 255
-2.010277 -1.974472 -0.569648 -0.343936 -0.770078 -0.537297 255 255 255
-3.002683 -1.902832 -0.037064 -0.343936 -0.770078 -0.537297 255 255 255
-2.176244 -1.054230 -1.782340 -0.343936 -0.770078 -0.537297 255 255 255
-3.002683 -1.902832 -0.037064 -0.393274 -0.739792 -0.545934 255 255 255
-3.840991 -1.054223 -0.583117 -0.393274 -0.739792 -0.545934 255 255 255
-2.176244 -1.054230 -1.782340 -0.393274 -0.739792 -0.545934 255 255 255
1.341272 1.058801 -2.970093 0.172886 0.755910 -0.631436 255 255 255
-0.719015 0.845303 -3.789780 0.172886 0.755910 -0.631436 255 255 255
-0.997296 1.814475 -2.705750 0.172886 0.755910 -0.631436 255 255 255
-0.243068 -0.312842 -4.022637 -0.526562 -0.127345 -0.840545 255 255 255
-1.297272 -1.599533 -3.167292 -0.526562 -0.127345 -0.840545 255 255 255
-2.344661 -0.104862 -2.737597 -0.526562 -0.127345 -0.840545 255 255 255
-0.243068 -0.312842 -4.022637 -0.524352 -0.044517 -0.850337 255 255 255
-2.344661 -0.104862 -2.737597 -0.524352 -0.044517 -0.850337 255 255 255
-0.719015 0.845303 -3.789780 -0.524352 -0.044517 -0.850337 255 255 255
1.341272 1.058801 -2.970093 0.219393 0.847826 -0.482761 255 255 255
-0.997296 1.814475 -2.705750 0.219393 0.847826 -0.482761 255 255 255
-0.044311 2.178765 -1.632896 0.219393 0.847826 -0.482761 255 255 255
-2.344661 -0.104862 -2.737597 -0.828263 -0.550789 -0.103015 255 255 255
-1.297272 -1.599533 -3.167292 -0.828263 -0.550789 -0.103015 255 255 255
-1.830060 -1.292664 -0.524301 -0.828263 -0.550789 -0.103015 255 255 255
-0.997296 1.814475 -2.705750 -0.802080 0.566208 -0.189935 255 255 255
-2.344661 -0.104862 -2.737597 -0.802080 0.566208 -0.189935 255 255 255
-2.200459 0.738141 -0.833511 -0.802080 0.566208 -0.189935 255 255 255
-2.344661 -0.104862 -2.737597 -0.977244 -0.156427 0.143265 255 255 255
-1.830060 -1.292664 -0.524301 -0.977244 -0.156427 0.143265 255 255 255
-2.200459 0.738141 -0.833511 -0.977244 -0.156427 0.143265 255 255 255
-0.997296 1.814475 -2.705750 -0.506044 0.847188 0.161840 255 255 255
-2.200459 0.738141 -0.833511 -0.506044 0.847188 0.161840 255 255 255
-0.044311 2.178765 -1.632896 -0.506044 0.847188 0.161840 255 255 255
0.508506 -2.048338 -0.788646 0.656576 -0.470693 0.589369 255 255 255
1.855873 -0.129000 -0.756799 0.656576 -0.470693 0.589369 255 255 255
0.230226 -1.079165 0.295386 0.656576 -0.470693 0.589369 255 255 255
-1.830060 -1.292664 -0.524301 -0.172885 -0.755909 0.631436 255 255 255
0.508506 -2.048338 -0.788646 -0.172885 -0.755909 0.631436 255 255 255
0.230226 -1.079165 0.295386 -0.172885 -0.755909 0.631436 255 255 255
-2.200459 0.738141 -0.833511 -0.566439 0.022119 0.823807 255 255 255
-1.830060 -1.292664 -0.524301 -0.566439 0.022119 0.823807 255 255 255
-0.245720 0.078981 0.528242 -0.566439 0.022119 0.823807 255 255 255
0.808483 1.365668 -0.327105 0.069057 0.512427 0.855949 255 255 255
-0.388593 1.774472 -0.475262 0.069057 0.512427 0.855949 255 255 255
-0.245720 0.078981 0.528242 0.069057 0.512427 0.855949 255 255 255
-0.388593 1.774472 -0.475262 -0.409229 0.438954 0.799907 255 255 255
-2.200459 0.738141 -0.833511 -0.409229 0.438954 0.799907 255 255 255
-0.245720 0.078981 0.528242 -0.409229 0.438954 0.799907 255 255 255
-0.245720 0.078981 0.528242 -0.323048 -0.312374 0.893344 255 255 255
-1.830060 -1.292664 -0.524301 -0.323048 -0.312374 0.893344 255 255 255
0.230226 -1.079165 0.295386 -0.323048 -0.312374 0.893344 255 255 255
0.230226 -1.079165 0.295386 0.524353 0.044517 0.850337 255 255 255
1.855873 -0.129000 -0.756799 0.524353 0.044517 0.850337 255 255 255
-0.245720 0.078981 0.528242 0.524353 0.044517 0.850337 255 255 255
1.855873 -0.129000 -0.756799 0.526562 0.127345 0.840545 255 255 255
0.808483 1.365668 -0.327105 0.526562 0.127345 0.840545 255 255 255
-0.245720 0.078981 0.528242 0.526562 0.127345 0.840545 255 255 255
-0.044311 2.178765 -1.632896 -0.512561 0.846619 0.143237 255 255 255
-2.200459 0.738141 -0.833511 -0.512561 0.846619 0.143237 255 255 255
-0.388593 1.774472 -0.475262 -0.512561 0.846619 0.143237 255 255 255
-0.444478 -2.412627 -1.861500 -0.219393 -0.847826 0.482760 255 255 255
0.508506 -2.048338 -0.788646 -0.219393 -0.847826 0.482760 255 255 255
-1.830060 -1.292664 -0.524301 -0.219393 -0.847826 0.482760 255 255 255
1.711671 -0.972002 -2.660883 0.802080 -0.566208 0.189936 255 255 255
1.855873 -0.129000 -0.756799 0.802080 -0.566208 0.189936 255 255 255
0.508506 -2.048338 -0.788646 0.802080 -0.566208 0.189936 255 255 255
1.341272 1.058801 -2.970093 0.828262 0.550790 0.103016 255 255 255
0.808483 1.365668 -0.327105 0.828262 0.550790 0.103016 255 255 255
1.855873 -0.129000 -0.756799 0.828262 0.550790 0.103016 255 255 255
1.341272 1.058801 -2.970093 0.653325 0.755801 0.043948 255 255 255
-0.044311 2.178765 -1.632896 0.653325 0.755801 0.043948 255 255 255
0.808483 1.365668 -0.327105 0.653325 0.755801 0.043948 255 255 255
-0.044311 2.178765 -1.632896 0.255100 0.886723 0.385547 255 255 255
-0.388593 1.774472 -0.475262 0.255100 0.886723 0.385547 255 255 255
0.808483 1.365668 -0.327105 0.255100 0.886723 0.385547 255 255 255
-1.830060 -1.292664 -0.524301 -0.653325 -0.755801 -0.043947 255 255 255
-1.297272 -1.599533 -3.167292 -0.653325 -0.755801 -0.043947 255 255 255
-0.444478 -2.412627 -1.861500 -0.653325 -0.755801 -0.043947 255 255 255
-1.297272 -1.599533 -3.167292 -0.255097 -0.886724 -0.385547 255 255 255
-0.100196 -2.008334 -3.019130 -0.255097 -0.886724 -0.385547 255 255 255
-0.444478 -2.412627 -1.861500 -0.255097 -0.886724 -0.385547 255 255 255
-0.444478 -2.412627 -1.861500 0.506044 -0.847188 -0.161840 255 255 255
1.711671 -0.972002 -2.660883 0.506044 -0.847188 -0.161840 255 255 255
0.508506 -2.048338 -0.788646 0.506044 -0.847188 -0.161840 255 255 255
-0.444478 -2.412627 -1.861500 0.512561 -0.846619 -0.143237 255 255 255
-0.100196 -2.008334 -3.019130 0.512561 -0.846619 -0.143237 255 255 255
1.711671 -0.972002 -2.660883 0.512561 -0.846619 -0.143237 255 255 255
1.711671 -0.972002 -2.660883 0.977244 0.156426 -0.143265 255 255 255
1.341272 1.058801 -2.970093 0.977244 0.156426 -0.143265 255 255 255
1.855873 -0.129000 -0.756799 0.977244 0.156426 -0.143265 255 255 255
-0.719015 0.845303 -3.789780 -0.656576 0.470693 -0.589370 255 255 255
-2.344661 -0.104862 -2.737597 -0.656576 0.470693 -0.589370 255 255 255
-0.997296 1.814475 -2.705750 -0.656576 0.470693 -0.589370 255 255 255
-1.297272 -1.599533 -3.167292 -0.069054 -0.512428 -0.855949 255 255 255
-0.243068 -0.312842 -4.022637 -0.069054 -0.512428 -0.855949 255 255 255
-0.100196 -2.008334 -3.019130 -0.069054 -0.512428 -0.855949 255 255 255
-0.243068 -0.312842 -4.022637 0.409228 -0.438955 -0.799907 255 255 255
1.711671 -0.972002 -2.660883 0.409228 -0.438955 -0.799907 255 255 255
-0.100196 -2.008334 -3.019130 0.409228 -0.438955 -0.799907 255 255 255
-0.243068 -0.312842 -4.022637 0.566439 -0.022120 -0.823807 255 255 255
1.341272 1.058801 -2.970093 0.566439 -0.022120 -0.823807 255 255 255
1.711671 -0.972002 -2.660883 0.566439 -0.022120 -0.823807 255 255 255
-0.243068 -0.312842 -4.022637 0.323047 0.312374 -0.893344 255 255 255
-0.719015 0.845303 -3.789780 0.323047 0.312374 -0.893344 255 255 255
1.341272 1.058801 -2.970093 0.323047 0.312374 -0.893344 255 255 255
2.714667 0.302481 -3.063614 0.775088 0.296296 0.558075 255 255 255
1.849117 1.018252 -2.241508 0.775088 0.296296 0.558075 255 255 255
2.123515 -0.122640 -2.016880 0.775088 0.296296 0.558075 255 255 255
2.123515 -0.122640 -2.016880 0.092395 0.213700 0.972520 255 255 255
1.849117 1.018252 -2.241508 0.092395 0.213700 0.972520 255 255 255
0.604823 0.325390 -1.971044 0.092395 0.213700 0.972520 255 255 255
2.002122 0.930014 -3.788771 -0.032804 0.795453 -0.605126 255 255 255
1.304958 0.508151 -4.305528 -0.032804 0.795453 -0.605126 255 255 255
0.718639 1.118812 -3.471014 -0.032804 0.795453 -0.605126 255 255 255
2.123515 -0.122640 -2.016880 -0.087739 -0.391134 0.916142 255 255 255
0.604823 0.325390 -1.971044 -0.087739 -0.391134 0.916142 255 255 255
1.873113 -1.045181 -2.434727 -0.087739 -0.391134 0.916142 255 255 255
1.304958 0.508151 -4.305528 -0.596885 -0.061884 -0.799936 255 255 255
0.905718 -0.928395 -3.896495 -0.596885 -0.061884 -0.799936 255 255 255
0.040167 -0.001829 -3.322331 -0.596885 -0.061884 -0.799936 255 255 255
0.905718 -0.928395 -3.896495 -0.766678 -0.624901 -0.147320 255 255 255
0.592160 -0.867739 -2.521978 -0.766678 -0.624901 -0.147320 255 255 255
0.040167 -0.001829 -3.322331 -0.766678 -0.624901 -0.147320 255 255 255
0.592160 -0.867739 -2.521978 -0.890597 -0.182833 0.416424 255 255 255
0.604823 0.325390 -1.971044 -0.890597 -0.182833 0.416424 255 255 255
0.040167 -0.001829 -3.322331 -0.890597 -0.182833 0.416424 255 255 255
0.604823 0.325390 -1.971044 -0.822257 0.526492 0.216101 255 255 255
0.718639 1.118812 -3.471014 -0.822257 0.526492 0.216101 255 255 255
0.040167 -0.001829 -3.322331 -0.822257 0.526492 0.216101 255 255 255
0.718639 1.118812 -3.471014 -0.658178 0.307295 -0.687293 255 255 255
1.304958 0.508151 -4.305528 -0.658178 0.307295 -0.687293 255 255 255
0.040167 -0.001829 -3.322331 -0.658178 0.307295 -0.687293 255 255 255
2.105032 -0.715406 -3.922712 0.167736 -0.967678 -0.188319 255 255 255
1.873113 -1.045181 -2.434727 0.167736 -0.967678 -0.188319 255 255 255
0.905718 -0.928395 -3.896495 0.167736 -0.967678 -0.188319 255 255 255
1.873113 -1.045181 -2.434727 -0.138019 -0.990354 0.012218 255 255 255
0.592160 -0.867739 -2.521978 -0.138019 -0.990354 0.012218 255 255 255
0.905718 -0.928395 -3.896495 -0.138019 -0.990354 0.012218 255 255 255
1.873113 -1.045181 -2.434727 -0.118949 -0.415203 0.901919 255 255 255
0.604823 0.325390 -1.971044 -0.118949 -0.415203 0.901919 255 255 255
0.592160 -0.867739 -2.521978 -0.118949 -0.415203 0.901919 255 255 255
1.035345 1.011485 -2.247261 -0.771264 0.584977 0.250906 255 255 255
0.718639 1.118812 -3.471014 -0.771264 0.584977 0.250906 255 255 255
0.604823 0.325390 -1.971044 -0.771264 0.584977 0.250906 255 255 255
1.304958 0.508151 -4.305528 0.028966 -0.281173 -0.959220 255 255 255
2.105032 -0.715406 -3.922712 0.028966 -0.281173 -0.959220 255 255 255
0.905718 -0.928395 -3.896495 0.028966 -0.281173 -0.959220 255 255 255
0.604823 0.325390 -1.971044 -0.009691 0.378672 0.925480 255 255 255
1.849117 1.018252 -2.241508 -0.009691 0.378672 0.925480 255 255 255
1.035345 1.011485 -2.247261 -0.009691 0.378672 0.925480 255 255 255
1.035345 1.011485 -2.247261 -0.008916 0.995933 0.089654 255 255 255
1.849117 1.018252 -2.241508 -0.008916 0.995933 0.089654 255 255 255
0.718639 1.118812 -3.471014 -0.008916 0.995933 0.089654 255 255 255
1.849117 1.018252 -2.241508 0.134942 0.989915 -0.043109 255 255 255
2.002122 0.930014 -3.788771 0.134942 0.989915 -0.043109 255 255 255
0.718639 1.118812 -3.471014 0.134942 0.989915 -0.043109 255 255 255
2.002122 0.930014 -3.788771 0.551854 0.101891 -0.827693 255 255 255
2.105032 -0.715406 -3.922712 0.551854 0.101891 -0.827693 255 255 255
1.304958 0.508151 -4.305528 0.551854 0.101891 -0.827693 255 255 255
2.714667 0.302481 -3.063614 0.862044 -0.383874 0.330940 255 255 255
2.123515 -0.122640 -2.016880 0.862044 -0.383874 0.330940 255 255 255
1.873113 -1.045181 -2.434727 0.862044 -0.383874 0.330940 255 255 255
2.714667 0.302481 -3.063614 0.648787 0.760686 0.020776 255 255 255
2.002122 0.930014 -3.788771 0.648787 0.760686 0.020776 255 255 255
1.849117 1.018252 -2.241508 0.648787 0.760686 0.020776 255 255 255
2.105032 -0.715406 -3.922712 0.851549 -0.524012 0.016589 255 255 255
2.714667 0.302481 -3.063614 0.851549 -0.524012 0.016589 255 255 255
1.873113 -1.045181 -2.434727 0.851549 -0.524012 0.016589 255 255 255
2.714667 0.302481 -3.063614 0.751629 0.100080 -0.651950 255 255 255
2.105032 -0.715406 -3.922712 0.751629 0.100080 -0.651950 255 255 255
2.002122 0.930014 -3.788771 0.751629 0.100080 -0.651950 255 255 255
1.025985 -0.507992 -1.257748 -0.738617 -0.652544 -0.169206 255 255 255
1.647748 -1.579704 0.161196 -0.738617 -0.652544 -0.169206 255 255 255
0.557772 -0.501436 0.760806 -0.738617 -0.652544 -0.169206 255 255 255
1.647748 -1.579704 0.161196 0.318503 -0.918773 -0.233265 255 255 255
2.280930 -1.028332 -1.145968 0.318503 -0.918773 -0.233265 255 255 255
3.222899 -0.983325 -0.037063 0.318503 -0.918773 -0.233265 255 255 255
1.025985 -0.507992 -1.257748 -0.817037 -0.545162 -0.187745 255 255 255
0.557772 -0.501436 0.760806 -0.817037 -0.545162 -0.187745 255 255 255
0.321788 0.127008 -0.037063 -0.817037 -0.545162 -0.187745 255 255 255
2.280930 -1.028332 -1.145968 -0.072794 -0.374165 -0.924501 255 255 255
1.025985 -0.507992 -1.257748 -0.072794 -0.374165 -0.924501 255 255 255
2.414703 -0.037150 -1.557653 -0.072794 -0.374165 -0.924501 255 255 255
0.618363 1.073184 -0.037063 -0.363093 0.800463 0.476888 255 255 255
1.915090 0.847181 1.329588 -0.363093 0.800463 0.476888 255 255 255
2.193513 1.669562 0.161196 -0.363093 0.800463 0.476888 255 255 255
1.915090 0.847181 1.329588 0.422728 0.690608 0.586823 255 255 255
3.218681 0.847178 0.390527 0.422728 0.690608 0.586823 255 255 255
2.193513 1.669562 0.161196 0.422728 0.690608 0.586823 255 255 255
3.218681 0.847178 0.390527 0.639942 0.740556 -0.205062 255 255 255
2.728419 0.847177 -1.139446 0.639942 0.740556 -0.205062 255 255 255
2.193513 1.669562 0.161196 0.639942 0.740556 -0.205062 255 255 255
2.193513 1.669562 0.161196 0.202851 0.863180 -0.462356 255 255 255
2.728419 0.847177 -1.139446 0.202851 0.863180 -0.462356 255 255 255
1.560331 1.118189 -1.145968 0.202851 0.863180 -0.462356 255 255 255
1.560331 1.118189 -1.145968 -0.318502 0.918773 -0.233266 255 255 255
0.618363 1.073184 -0.037063 -0.318502 0.918773 -0.233266 255 255 255
2.193513 1.669562 0.161196 -0.318502 0.918773 -0.233266 255 255 255
0.321788 0.127008 -0.037063 -0.847359 0.265602 0.459824 255 255 255
0.557772 -0.501436 0.760806 -0.847359 0.265602 0.459824 255 255 255
0.618363 1.073184 -0.037063 -0.847359 0.265602 0.459824 255 255 255
0.557772 -0.501436 0.760806 -0.644406 0.365217 0.671831 255 255 255
1.915090 0.847181 1.329588 -0.644406 0.365217 0.671831 255 255 255
0.618363 1.073184 -0.037063 -0.644406 0.365217 0.671831 255 255 255
2.218823 -0.437560 1.522263 0.565710 0.251517 0.785310 255 255 255
3.218681 0.847178 0.390527 0.565710 0.251517 0.785310 255 255 255
1.915090 0.847181 1.329588 0.565710 0.251517 0.785310 255 255 255
3.519474 -0.037149 -0.037063 0.861371 0.426445 -0.276017 255 255 255
2.728419 0.847177 -1.139446 0.861371 0.426445 -0.276017 255 255 255
3.218681 0.847178 0.390527 0.861371 0.426445 -0.276017 255 255 255
2.414703 -0.037150 -1.557653 0.097226 0.397093 -0.912614 255 255 255
1.560331 1.118189 -1.145968 0.097226 0.397093 -0.912614 255 255 255
2.728419 0.847177 -1.139446 0.097226 0.397093 -0.912614 255 255 255
1.025985 -0.507992 -1.257748 -0.736383 0.284172 -0.613993 255 255 255
0.618363 1.073184 -0.037063 -0.736383 0.284172 -0.613993 255 255 255
1.560331 1.118189 -1.145968 -0.736383 0.284172 -0.613993 255 255 255
1.025985 -0.507992 -1.257748 -0.779500 0.244332 -0.576785 255 255 255
0.321788 0.127008 -0.037063 -0.779500 0.244332 -0.576785 255 255 255
0.618363 1.073184 -0.037063 -0.779500 0.244332 -0.576785 255 255 255
0.557772 -0.501436 0.760806 -0.417616 0.037421 0.907853 255 255 255
2.218823 -0.437560 1.522263 -0.417616 0.037421 0.907853 255 255 255
1.915090 0.847181 1.329588 -0.417616 0.037421 0.907853 255 255 255
2.218823 -0.437560 1.522263 0.772659 -0.043419 0.633334 255 255 255
3.519474 -0.037149 -0.037063 0.772659 -0.043419 0.633334 255 255 255
3.218681 0.847178 0.390527 0.772659 -0.043419 0.633334 255 255 255
2.218823 -0.437560 1.522263 0.774706 -0.242829 0.583836 255 255 255
3.222899 -0.983325 -0.037063 0.774706 -0.242829 0.583836 255 255 255
3.519474 -0.037149 -0.037063 0.774706 -0.242829 0.583836 255 255 255
3.519474 -0.037149 -0.037063 0.808984 -0.009030 -0.587761 255 255 255
2.414703 -0.037150 -1.557653 0.808984 -0.009030 -0.587761 255 255 255
2.728419 0.847177 -1.139446 0.808984 -0.009030 -0.587761 255 255 255
3.519474 -0.037149 -0.037063 0.784196 -0.245804 -0.569751 255 255 255
3.222899 -0.983325 -0.037063 0.784196 -0.245804 -0.569751 255 255 255
2.414703 -0.037150 -1.557653 0.784196 -0.245804 -0.569751 255 255 255
3.222899 -0.983325 -0.037063 0.721877 -0.346283 -0.599151 255 255 255
2.280930 -1.028332 -1.145968 0.721877 -0.346283 -0.599151 255 255 255
2.414703 -0.037150 -1.557653 0.721877 -0.346283 -0.599151 255 255 255
2.414703 -0.037150 -1.557653 -0.257056 0.150088 -0.954671 255 255 255
1.025985 -0.507992 -1.257748 -0.257056 0.150088 -0.954671 255 255 255
1.560331 1.118189 -1.145968 -0.257056 0.150088 -0.954671 255 255 255
1.647748 -1.579704 0.161196 -0.287573 -0.670828 0.683587 255 255 255
2.218823 -0.437560 1.522263 -0.287573 -0.670828 0.683587 255 255 255
0.557772 -0.501436 0.760806 -0.287573 -0.670828 0.683587 255 255 255
1.647748 -1.579704 0.161196 0.360361 -0.783480 0.506260 255 255 255
3.222899 -0.983325 -0.037063 0.360361 -0.783480 0.506260 255 255 255
2.218823 -0.437560 1.522263 0.360361 -0.783480 0.506260 255 255 255
2.280930 -1.028332 -1.145968 -0.296427 -0.820073 -0.489501 255 255 255
1.647748 -1.579704 0.161196 -0.296427 -0.820073 -0.489501 255 255 255
1.025985 -0.507992 -1.257748 -0.296427 -0.820073 -0.489501 255 255 255
-0.085546 -1.740289 3.378016 0.375890 -0.902436 0.210511 255 255 255
1.021399 -1.268299 3.424809 0.375890 -0.902436 0.210511 255 255 255
0.177979 -1.213239 5.166862 0.375890 -0.902436 0.210511 255 255 255
-0.085546 -1.740289 3.378016 0.076402 -0.959424 0.271421 255 255 255
0.177979 -1.213239 5.166862 0.076402 -0.959424 0.271421 255 255 255
-0.996541 -1.674526 3.866911 0.076402 -0.959424 0.271421 255 255 255
1.281306 -0.895535 4.355807 0.903104 -0.421233 -0.083462 255 255 255
1.021399 -1.268299 3.424809 0.903104 -0.421233 -0.083462 255 255 255
1.629904 -0.051290 3.866910 0.903104 -0.421233 -0.083462 255 255 255
0.177979 -1.213239 5.166862 0.619294 -0.254548 0.742752 255 255 255
1.281306 -0.895535 4.355807 0.619294 -0.254548 0.742752 255 255 255
0.804382 0.693109 5.297902 0.619294 -0.254548 0.742752 254 254 254
-1.766079 -0.895534 3.365654 -0.871207 -0.060788 -0.487138 255 255 255
-2.118693 0.141149 3.866910 -0.871207 -0.060788 -0.487138 255 255 255
-1.299761 0.044929 2.414324 -0.871207 -0.060788 -0.487138 255 255 255
0.177979 -1.213239 5.166862 0.257056 -0.150088 0.954671 255 255 255
0.804382 0.693109 5.297902 0.257056 -0.150088 0.954671 254 254 254
-0.823587 0.141149 5.649475 0.257056 -0.150088 0.954671 255 255 255
-1.191354 -0.895539 5.159214 -0.808985 0.009032 0.587760 255 255 255
-0.823587 0.141149 5.649475 -0.808985 0.009032 0.587760 255 255 255
-2.118693 0.141149 3.866910 -0.808985 0.009032 0.587760 255 255 255
-0.250890 0.985397 2.264806 -0.335582 0.727730 -0.598159 255 255 255
-1.510187 1.358157 3.424809 -0.335582 0.727730 -0.598159 255 255 255
-0.403242 1.830147 3.378017 -0.335582 0.727730 -0.598159 255 255 255
1.277290 0.985392 3.365652 0.393272 0.739793 -0.545933 255 255 255
-0.250890 0.985397 2.264806 0.393272 0.739793 -0.545933 255 255 255
0.507751 1.764383 3.866910 0.393272 0.739793 -0.545933 255 255 255
0.804382 0.693109 5.297902 0.766590 0.580097 0.275368 254 254 254
1.277290 0.985392 3.365652 0.766590 0.580097 0.275368 255 255 255
0.507751 1.764383 3.866910 0.766590 0.580097 0.275368 255 255 255
-1.510187 1.358157 3.424809 -0.375891 0.902436 0.210511 255 255 255
-0.666769 1.303096 5.166862 -0.375891 0.902436 0.210511 255 255 255
-0.403242 1.830147 3.378017 -0.375891 0.902436 0.210511 255 255 255
-1.510187 1.358157 3.424809 -0.423100 0.875739 0.232524 255 255 255
-1.770096 0.985391 4.355805 -0.423100 0.875739 0.232524 255 255 255
-0.666769 1.303096 5.166862 -0.423100 0.875739 0.232524 255 255 255
-0.666769 1.303096 5.166862 -0.076401 0.959423 0.271422 255 255 255
0.507751 1.764383 3.866910 -0.076401 0.959423 0.271422 255 255 255
-0.403242 1.830147 3.378017 -0.076401 0.959423 0.271422 255 255 255
-0.666769 1.303096 5.166862 0.281890 0.795185 0.536861 255 255 255
0.804382 0.693109 5.297902 0.281890 0.795185 0.536861 254 254 254
0.507751 1.764383 3.866910 0.281890 0.795185 0.536861 255 255 255
0.507751 1.764383 3.866910 0.343937 0.770078 -0.537297 255 255 255
-0.250890 0.985397 2.264806 0.343937 0.770078 -0.537297 255 255 255
-0.403242 1.830147 3.378017 0.343937 0.770078 -0.537297 255 255 255
-2.118693 0.141149 3.866910 -0.809001 -0.006330 0.587773 255 255 255
-0.823587 0.141149 5.649475 -0.809001 -0.006330 0.587773 255 255 255
-1.770096 0.985391 4.355805 -0.809001 -0.006330 0.587773 255 255 255
-0.823587 0.141149 5.649475 -0.616977 0.371440 0.693810 255 255 255
-0.666769 1.303096 5.166862 -0.616977 0.371440 0.693810 255 255 255
-1.770096 0.985391 4.355805 -0.616977 0.371440 0.693810 255 255 255
-0.823587 0.141149 5.649475 0.072793 0.374165 0.924501 255 255 255
0.804382 0.693109 5.297902 0.072793 0.374165 0.924501 254 254 254
-0.666769 1.303096 5.166862 0.072793 0.374165 0.924501 255 255 255
1.629904 -0.051290 3.866910 0.861682 0.426235 0.275367 255 255 255
1.277290 0.985392 3.365652 0.861682 0.426235 0.275367 255 255 255
0.804382 0.693109 5.297902 0.861682 0.426235 0.275367 254 254 254
0.334798 -0.051290 2.084347 0.528688 0.426444 -0.733917 255 255 255
-0.250890 0.985397 2.264806 0.528688 0.426444 -0.733917 255 255 255
1.277290 0.985392 3.365652 0.528688 0.426444 -0.733917 255 255 255
-1.299761 0.044929 2.414324 -0.520461 0.466778 -0.715009 255 255 255
-1.510187 1.358157 3.424809 -0.520461 0.466778 -0.715009 255 255 255
-0.250890 0.985397 2.264806 -0.520461 0.466778 -0.715009 255 255 255
-1.299761 0.044929 2.414324 -0.838346 0.241664 -0.488646 255 255 255
-2.118693 0.141149 3.866910 -0.838346 0.241664 -0.488646 255 255 255
-1.510187 1.358157 3.424809 -0.838346 0.241664 -0.488646 255 255 255
-2.118693 0.141149 3.866910 -0.903104 0.421233 -0.083462 255 255 255
-1.770096 0.985391 4.355805 -0.903104 0.421233 -0.083462 255 255 255
-1.510187 1.358157 3.424809 -0.903104 0.421233 -0.083462 255 255 255
-1.191354 -0.895539 5.159214 -0.097227 -0.397093 0.912614 255 255 255
0.177979 -1.213239 5.166862 -0.097227 -0.397093 0.912614 255 255 255
-0.823587 0.141149 5.649475 -0.097227 -0.397093 0.912614 255 255 255
0.804382 0.693109 5.297902 0.853167 -0.051691 0.519071 254 254 254
1.281306 -0.895535 4.355807 0.853167 -0.051691 0.519071 255 255 255
1.629904 -0.051290 3.866910 0.853167 -0.051691 0.519071 255 255 255
1.629904 -0.051290 3.866910 0.808985 -0.009029 -0.587761 255 255 255
0.334798 -0.051290 2.084347 0.808985 -0.009029 -0.587761 255 255 255
1.277290 0.985392 3.365652 0.808985 -0.009029 -0.587761 255 255 255
1.629904 -0.051290 3.866910 0.794654 -0.187595 -0.577349 255 255 255
1.021399 -1.268299 3.424809 0.794654 -0.187595 -0.577349 255 255 255
0.334798 -0.051290 2.084347 0.794654 -0.187595 -0.577349 255 255 255
1.021399 -1.268299 3.424809 0.505409 -0.494061 -0.707436 255 255 255
-0.237899 -0.895538 2.264806 0.505409 -0.494061 -0.707436 255 255 255
0.334798 -0.051290 2.084347 0.505409 -0.494061 -0.707436 255 255 255
0.334798 -0.051290 2.084347 -0.194078 0.060789 -0.979101 255 255 255
-1.299761 0.044929 2.414324 -0.194078 0.060789 -0.979101 255 255 255
-0.250890 0.985397 2.264806 -0.194078 0.060789 -0.979101 255 255 255
0.334798 -0.051290 2.084347 -0.201447 -0.072149 -0.976839 255 255 255
-0.237899 -0.895538 2.264806 -0.201447 -0.072149 -0.976839 255 255 255
-1.299761 0.044929 2.414324 -0.201447 -0.072149 -0.976839 255 255 255
-0.237899 -0.895538 2.264806 -0.516246 -0.468948 -0.716643 255 255 255
-1.766079 -0.895534 3.365654 -0.516246 -0.468948 -0.716643 255 255 255
-1.299761 0.044929 2.414324 -0.516246 -0.468948 -0.716643 255 255 255
-1.766079 -0.895534 3.365654 -0.861372 -0.426443 0.276015 255 255 255
-1.191354 -0.895539 5.159214 -0.861372 -0.426443 0.276015 255 255 255
-2.118693 0.141149 3.866910 -0.861372 -0.426443 0.276015 255 255 255
-0.996541 -1.674526 3.866911 -0.200403 -0.852127 0.483443 255 255 255
0.177979 -1.213239 5.166862 -0.200403 -0.852127 0.483443 255 255 255
-1.191354 -0.895539 5.159214 -0.200403 -0.852127 0.483443 255 255 255
0.177979 -1.213239 5.166862 0.423098 -0.875740 0.232523 255 255 255
1.021399 -1.268299 3.424809 0.423098 -0.875740 0.232523 255 255 255
1.281306 -0.895535 4.355807 0.423098 -0.875740 0.232523 255 255 255
-0.085546 -1.740289 3.378016 0.335582 -0.727729 -0.598160 255 255 255
-0.237899 -0.895538 2.264806 0.335582 -0.727729 -0.598160 255 255 255
1.021399 -1.268299 3.424809 0.335582 -0.727729 -0.598160 255 255 255
-1.766079 -0.895534 3.365654 -0.763895 -0.597117 0.244779 255 255 255
-0.996541 -1.674526 3.866911 -0.763895 -0.597117 0.244779 255 255 255
-1.191354 -0.895539 5.159214 -0.763895 -0.597117 0.244779 255 255 255
-0.085546 -1.740289 3.378016 -0.343937 -0.770077 -0.537297 255 255 255
-0.996541 -1.674526 3.866911 -0.343937 -0.770077 -0.537297 255 255 255
-0.237899 -0.895538 2.264806 -0.343937 -0.770077 -0.537297 255 255 255
-0.996541 -1.674526 3.866911 -0.393274 -0.739792 -0.545934 255 255 255
-1.766079 -0.895534 3.365654 -0.393274 -0.739792 -0.545934 255 255 255
-0.237899 -0.895538 2.264806 -0.393274 -0.739792 -0.545934 255 255 255
-0.413515 -1.234497 -1.115115 0.083018 0.027688 -0.996163 255 255 255
-1.631758 -0.580112 -1.198452 0.083018 0.027688 -0.996163 255 255 255
-0.470759 1.453062 -1.045186 0.083018 0.027688 -0.996163 255 255 255
-0.413515 -1.234497 -1.115115 0.367948 0.032017 -0.929295 255 255 255
-0.470759 1.453062 -1.045186 0.367948 0.032017 -0.929295 255 255 255
1.066767 -1.011537 -0.521325 0.367948 0.032017 -0.929295 255 255 255
-2.660836 0.335798 -0.364419 -0.871207 0.455068 -0.184151 255 255 255
-3.132374 0.044984 1.147746 -0.871207 0.455068 -0.184151 255 255 255
-2.037244 1.888875 0.523319 -0.871207 0.455068 -0.184151 255 255 255
-0.634624 2.405864 1.687106 -0.427160 0.741235 0.517789 255 255 255
-2.666208 0.967382 2.070355 -0.427160 0.741235 0.517789 255 255 255
-0.838359 1.258212 3.161938 -0.427160 0.741235 0.517789 255 255 255
1.408961 0.983360 2.066097 0.393273 0.717990 0.574306 255 255 255
-0.634624 2.405864 1.687106 0.393273 0.717990 0.574306 255 255 255
0.379883 0.603828 3.245275 0.393273 0.717990 0.574306 255 255 255
0.640400 -1.334264 2.683581 0.763895 -0.082803 0.640007 255 255 255
1.408961 0.983360 2.066097 0.763895 -0.082803 0.640007 255 255 255
0.379883 0.603828 3.245275 0.763895 -0.082803 0.640007 255 255 255
-2.318641 -0.107307 2.872558 -0.193346 0.001674 0.981129 255 255 255
-1.190764 -1.234770 3.096745 -0.193346 0.001674 0.981129 255 255 255
-0.838359 1.258212 3.161938 -0.193346 0.001674 0.981129 255 255 255
-1.190764 -1.234770 3.096745 -0.076402 -0.015271 0.996960 255 255 255
0.379883 0.603828 3.245275 -0.076402 -0.015271 0.996960 255 255 255
-0.838359 1.258212 3.161938 -0.076402 -0.015271 0.996960 255 255 255
-1.190764 -1.234770 3.096745 0.200404 -0.247770 0.947865 255 255 255
0.640400 -1.334264 2.683581 0.200404 -0.247770 0.947865 255 255 255
0.379883 0.603828 3.245275 0.200404 -0.247770 0.947865 255 255 255
0.379883 0.603828 3.245275 0.343936 0.717441 0.605794 255 255 255
-0.634624 2.405864 1.687106 0.343936 0.717441 0.605794 255 255 255
-0.838359 1.258212 3.161938 0.343936 0.717441 0.605794 255 255 255
-0.838359 1.258212 3.161938 -0.516122 0.398869 0.757972 255 255 255
-2.666208 0.967382 2.070355 -0.516122 0.398869 0.757972 255 255 255
-2.318641 -0.107307 2.872558 -0.516122 0.398869 0.757972 255 255 255
-3.132374 0.044984 1.147746 -0.903104 0.027796 0.428522 255 255 255
-2.318641 -0.107307 2.872558 -0.903104 0.027796 0.428522 255 255 255
-2.666208 0.967382 2.070355 -0.903104 0.027796 0.428522 255 255 255
-3.132374 0.044984 1.147746 -0.801868 -0.495027 0.334598 255 255 255
-2.028433 -2.060409 0.678496 -0.801868 -0.495027 0.334598 255 255 255
-2.318641 -0.107307 2.872558 -0.801868 -0.495027 0.334598 255 255 255
-2.028433 -2.060409 0.678496 -0.677930 -0.591339 0.436726 255 255 255
-1.190764 -1.234770 3.096745 -0.677930 -0.591339 0.436726 255 255 255
-2.318641 -0.107307 2.872558 -0.677930 -0.591339 0.436726 255 255 255
0.144941 -2.382749 1.251130 0.084056 -0.817714 0.569454 255 255 255
0.640400 -1.334264 2.683581 0.084056 -0.817714 0.569454 255 255 255
-1.190764 -1.234770 3.096745 0.084056 -0.817714 0.569454 255 255 255
1.880500 -0.021269 0.899077 0.861372 -0.156925 0.483129 255 255 255
1.408961 0.983360 2.066097 0.861372 -0.156925 0.483129 255 255 255
0.640400 -1.334264 2.683581 0.861372 -0.156925 0.483129 255 255 255
0.148598 2.282143 0.285379 0.528688 0.818966 0.223123 255 255 255
-0.634624 2.405864 1.687106 0.528688 0.818966 0.223123 255 255 255
1.408961 0.983360 2.066097 0.528688 0.818966 0.223123 255 255 255
-2.037244 1.888875 0.523319 -0.522041 0.809148 0.269728 255 255 255
-2.666208 0.967382 2.070355 -0.522041 0.809148 0.269728 255 255 255
-0.634624 2.405864 1.687106 -0.522041 0.809148 0.269728 255 255 255
-2.037244 1.888875 0.523319 -0.866778 0.495389 -0.057319 255 255 255
-3.132374 0.044984 1.147746 -0.866778 0.495389 -0.057319 255 255 255
-2.666208 0.967382 2.070355 -0.866778 0.495389 -0.057319 255 255 255
-2.028433 -2.060409 0.678496 -0.233997 -0.892436 0.385751 255 255 255
0.144941 -2.382749 1.251130 -0.233997 -0.892436 0.385751 255 255 255
-1.190764 -1.234770 3.096745 -0.233997 -0.892436 0.385751 255 255 255
0.144941 -2.382749 1.251130 0.807700 -0.572764 0.139867 255 255 255
1.880500 -0.021269 0.899077 0.807700 -0.572764 0.139867 255 255 255
0.640400 -1.334264 2.683581 0.807700 -0.572764 0.139867 255 255 255
0.144941 -2.382749 1.251130 0.801869 -0.595882 -0.043949 255 255 255
1.066767 -1.011537 -0.521325 0.801869 -0.595882 -0.043949 255 255 255
1.880500 -0.021269 0.899077 0.801869 -0.595882 -0.043949 255 255 255
1.066767 -1.011537 -0.521325 0.903104 -0.189095 -0.385547 255 255 255
1.414334 0.319823 -0.360162 0.903104 -0.189095 -0.385547 255 255 255
1.880500 -0.021269 0.899077 0.903104 -0.189095 -0.385547 255 255 255
1.880500 -0.021269 0.899077 0.808985 0.565624 -0.160043 255 255 255
0.148598 2.282143 0.285379 0.808985 0.565624 -0.160043 255 255 255
1.408961 0.983360 2.066097 0.808985 0.565624 -0.160043 255 255 255
1.880500 -0.021269 0.899077 0.809001 0.569590 -0.145204 255 255 255
1.414334 0.319823 -0.360162 0.809001 0.569590 -0.145204 255 255 255
0.148598 2.282143 0.285379 0.809001 0.569590 -0.145204 255 255 255
1.414334 0.319823 -0.360162 0.559168 0.561371 -0.610077 255 255 255
-0.470759 1.453062 -1.045186 0.559168 0.561371 -0.610077 255 255 255
0.148598 2.282143 0.285379 0.559168 0.561371 -0.610077 255 255 255
0.148598 2.282143 0.285379 -0.194078 0.961747 -0.193329 255 255 255
-2.037244 1.888875 0.523319 -0.194078 0.961747 -0.193329 255 255 255
-0.634624 2.405864 1.687106 -0.194078 0.961747 -0.193329 255 255 255
0.148598 2.282143 0.285379 -0.205302 0.870677 -0.446958 255 255 255
-0.470759 1.453062 -1.045186 -0.205302 0.870677 -0.446958 255 255 255
-2.037244 1.888875 0.523319 -0.205302 0.870677 -0.446958 255 255 255
-0.470759 1.453062 -1.045186 -0.495169 0.572404 -0.653576 255 255 255
-2.660836 0.335798 -0.364419 -0.495169 0.572404 -0.653576 255 255 255
-2.037244 1.888875 0.523319 -0.495169 0.572404 -0.653576 255 255 255
-2.660836 0.335798 -0.364419 -0.861683 -0.375818 -0.340975 255 255 255
-2.028433 -2.060409 0.678496 -0.861683 -0.375818 -0.340975 255 255 255
-3.132374 0.044984 1.147746 -0.861683 -0.375818 -0.340975 255 255 255
-1.631758 -0.580112 -1.198452 -0.335319 -0.703981 -0.626077 255 255 255
-0.413515 -1.234497 -1.115115 -0.335319 -0.703981 -0.626077 255 255 255
-2.028433 -2.060409 0.678496 -0.335319 -0.703981 -0.626077 255 255 255
-0.413515 -1.234497 -1.115115 -0.019661 -0.901308 -0.432732 255 255 255
0.144941 -2.382749 1.251130 -0.019661 -0.901308 -0.432732 255 255 255
-2.028433 -2.060409 0.678496 -0.019661 -0.901308 -0.432732 255 255 255
-0.413515 -1.234497 -1.115115 0.313876 -0.822999 -0.473449 255 255 255
1.066767 -1.011537 -0.521325 0.313876 -0.822999 -0.473449 255 255 255
0.144941 -2.382749 1.251130 0.313876 -0.822999 -0.473449 255 255 255
1.066767 -1.011537 -0.521325 0.352681 0.021173 -0.935504 255 255 255
-0.470759 1.453062 -1.045186 0.352681 0.021173 -0.935504 255 255 255
1.414334 0.319823 -0.360162 0.352681 0.021173 -0.935504 255 255 255
-2.660836 0.335798 -0.364419 -0.766590 -0.415430 -0.489650 255 255 255
-1.631758 -0.580112 -1.198452 -0.766590 -0.415430 -0.489650 255 255 255
-2.028433 -2.060409 0.678496 -0.766590 -0.415430 -0.489650 255 255 255
-1.631758 -0.580112 -1.198452 -0.421054 0.304832 -0.854278 255 255 255
-2.660836 0.335798 -0.364419 -0.421054 0.304832 -0.854278 255 255 255
-0.470759 1.453062 -1.045186 -0.421054 0.304832 -0.854278 255 255 255
3 0 1 2
3 3 4 5
3 6 7 8
3 9 10 11
3 12 13 14
3 15 16 17
3 18 19 20
3 21 22 23
3 24 25 26
3 27 28 29
3 30 31 32
3 33 34 35
3 36 37 38
3 39 40 41
3 42 43 44
3 45 46 47
3 48 49 50
3 51 52 53
3 54 55 56
3 57 58 59
3 60 61 62
3 63 64 65
3 66 67 68
3 69 70 71
3 72 73 74
3 75 76 77
3 78 79 80
3 81 82 83
3 84 85 86
3 87 88 89
3 90 91 92
3 93 94 95
3 96 97 98
3 99 100 101
3 102 103 104
3 105 106 107
3 108 109 110
3 111 112 113
3 114 115 116
3 117 118 119
3 120 121 122
3 123 124 125
3 126 127 128
3 129 130 131
3 132 133 134
3 135 136 137
3 138 139 140
3 141 142 143
3 144 145 146
3 147 148 149
3 150 151 152
3 153 154 155
3 156 157 158
3 159 160 161
3 162 163 164
3 165 166 167
3 168 169 170
3 171 172 173
3 174 175 176
3 177 178 179
3 180 181 182
3 183 184 185
3 186 187 188
3 189 190 191
3 192 193 194
3 195 196 197
3 198 199 200
3 201 202 203
3 204 205 206
3 207 208 209
3 210 211 212
3 213 214 215
3 216 217 218
3 219 220 221
3 222 223 224
3 225 226 227
3 228 229 230
3 231 232 233
3 234 235 236
3 237 238 239
3 240 241 242
3 243 244 245
3 246 247 248
3 249 250 251
3 252 253 254
3 255 256 257
3 258 259 260
3 261 262 263
3 264 265 266
3 267 268 269
3 270 271 272
3 273 274 275
3 276 277 278
3 279 280 281
3 282 283 284
3 285 286 287
3 288 289 290
3 291 292 293
3 294 295 296
3 297 298 299
3 300 301 302
3 303 304 305
3 306 307 308
3 309 310 311
3 312 313 314
3 315 316 317
3 318 319 320
3 321 322 323
3 324 325 326
3 327 328 329
3 330 331 332
3 333 334 335
3 336 337 338
3 339 340 341
3 342 343 344
3 345 346 347
3 348 349 350
3 351 352 353
3 354 355 356
3 357 358 359
3 360 361 362
3 363 364 365
3 366 367 368
3 369 370 371
3 372 373 374
3 375 376 377
3 378 379 380
3 381 382 383
3 384 385 386
3 387 388 389
3 390 391 392
3 393 394 395
3 396 397 398
3 399 400 401
3 402 403 404
3 405 406 407
3 408 409 410
3 411 412 413
3 414 415 416
3 417 418 419
3 420 421 422
3 423 424 425
3 426 427 428
3 429 430 431
3 432 433 434
3 435 436 437
3 438 439 440
3 441 442 443
3 444 445 446
3 447 448 449
3 450 451 452
3 453 454 455
3 456 457 458
3 459 460 461
3 462 463 464
3 465 466 467
3 468 469 470
3 471 472 473
3 474 475 476
3 477 478 479
3 480 481 482
3 483 484 485
3 486 487 488
3 489 490 491
3 492 493 494
3 495 496 497
3 498 499 500
3 501 502 503
3 504 505 506
3 507 508 509
3 510 511 512
3 513 514 515
3 516 517 518
3 519 520 521
3 522 523 524
3 525 526 527
3 528 529 530
3 531 532 533
3 534 535 536
3 537 538 539
3 540 541 542
3 543 544 545
3 546 547 548
3 549 550 551
3 552 553 554
3 555 556 557
3 558 559 560
3 561 562 563
3 564 565 566
3 567 568 569
3 570 571 572
3 573 574 575
