ply
format ascii 1.0
comment Created by Blender 2.77 (sub 0) - www.blender.org, source file: 'Brewery0-Colliders.blend'
element vertex 8
property float x
property float y
property float z
property float nx
property float ny
property float nz
element face 12
property list uchar uint vertex_indices
end_header
0.828002 0.351032 0.859149 -0.738701 -0.594592 0.317392
1.109401 1.664232 -0.336802 -0.338328 0.564714 -0.752708
1.109401 0.351032 -0.336802 -0.338328 -0.564714 -0.752708
1.672204 0.351032 1.351597 0.098117 -0.592883 0.799249
1.672204 1.664232 1.351597 0.098117 0.592883 0.799249
2.586752 1.664232 0.460496 0.818476 0.563036 -0.114292
2.586752 0.351032 0.460497 0.818476 -0.563036 -0.114292
0.828002 1.664232 0.859149 -0.738701 0.594592 0.317392
3 0 1 2
3 2 3 0
3 1 4 5
3 6 1 5
3 3 5 4
3 7 3 4
3 0 7 1
3 2 6 3
3 1 7 4
3 6 2 1
3 3 6 5
3 7 0 3
