ply
format ascii 1.0
comment Created by Blender 2.77 (sub 0) - www.blender.org, source file: 'Brewery0-Colliders.blend'
element vertex 12
property float x
property float y
property float z
property float nx
property float ny
property float nz
element face 20
property list uchar uint vertex_indices
end_header
17.196100 5.655594 -8.010090 0.814661 -0.097171 -0.571703
16.774004 5.374197 9.155312 -0.088931 -0.804590 0.587085
16.774004 5.374194 -8.010090 -0.088931 -0.804590 -0.587085
9.739003 12.737494 -8.010092 -0.808954 0.007172 -0.587786
10.091290 13.073199 9.155310 0.018769 0.798730 0.601367
10.091290 13.448398 3.344844 -0.029725 0.998169 0.052553
9.739003 12.737497 9.155310 -0.808740 0.006745 0.588092
10.091290 13.542198 1.468844 -0.158025 0.987365 0.009827
10.091290 13.542198 0.061844 -0.158238 0.987335 -0.008698
17.196100 5.655597 9.155312 0.814661 -0.097324 0.571673
10.091290 13.073196 -8.010092 0.018769 0.799310 -0.600574
10.091290 13.448397 -2.001753 -0.039003 0.998047 -0.048463
3 0 1 2
3 1 3 2
3 4 5 6
3 5 7 6
3 8 9 0
3 6 8 3
3 2 10 0
3 1 4 6
3 8 11 3
3 11 10 3
3 0 9 1
3 1 6 3
3 4 9 5
3 0 10 11
3 11 8 0
3 7 5 9
3 9 8 7
3 6 7 8
3 2 3 10
3 1 9 4
