ply
format ascii 1.0
comment Created by Blender 2.77 (sub 0) - www.blender.org, source file: 'Brewery0-Colliders.blend'
element vertex 8
property float x
property float y
property float z
property float nx
property float ny
property float nz
element face 12
property list uchar uint vertex_indices
end_header
0.921800 0.333769 1.328149 0.577349 -0.577349 -0.577349
-10.990797 0.333770 7.612748 -0.577349 -0.577349 0.577349
-10.990797 0.333769 1.328146 -0.577349 -0.577349 -0.577319
-10.990797 0.474471 7.612748 -0.577349 0.577349 0.577319
0.921800 0.474470 1.328149 0.577349 0.577349 -0.577319
-10.990797 0.474470 1.328146 -0.577349 0.577349 -0.577349
0.921800 0.333770 7.612748 0.577349 -0.577349 0.577319
0.921800 0.474471 7.612748 0.577349 0.577349 0.577349
3 0 1 2
3 3 4 5
3 6 4 7
3 6 3 1
3 1 5 2
3 4 2 5
3 0 6 1
3 3 7 4
3 6 0 4
3 6 7 3
3 1 3 5
3 4 0 2
