ply
format ascii 1.0
comment Created by Blender 2.77 (sub 0) - www.blender.org, source file: 'Brewery0-Colliders.blend'
element vertex 8
property float x
property float y
property float z
property float nx
property float ny
property float nz
element face 12
property list uchar uint vertex_indices
end_header
17.852697 5.936993 -7.851699 0.818812 -0.063417 0.570513
9.700121 14.479354 -8.282364 0.011261 0.816126 -0.577715
9.700121 14.479354 -7.796231 0.011261 0.816126 0.577715
17.243004 5.467993 -8.226897 -0.058504 -0.811060 -0.581988
17.852697 5.936993 -8.226897 0.818812 -0.063417 -0.570513
9.098170 13.880507 -8.282364 -0.814875 0.006928 -0.579547
17.243004 5.467993 -7.851699 -0.058504 -0.811060 0.581988
9.098170 13.880507 -7.796231 -0.814875 0.006928 0.579547
3 0 1 2
3 0 3 4
3 1 3 5
3 6 5 3
3 6 2 7
3 5 2 1
3 0 4 1
3 0 6 3
3 1 4 3
3 6 7 5
3 6 0 2
3 5 7 2
