ply
format ascii 1.0
comment Created by Blender 2.77 (sub 0) - www.blender.org, source file: 'Brewery0-Colliders.blend'
element vertex 8
property float x
property float y
property float z
property float nx
property float ny
property float nz
element face 12
property list uchar uint vertex_indices
end_header
-14.695900 12.121964 2.005465 0.571184 -0.017518 -0.820612
-15.352497 11.862432 2.311647 -0.584002 -0.811548 0.017335
-15.352497 12.121964 2.005465 -0.571184 -0.017518 -0.820612
-15.352497 12.540563 2.458535 -0.584002 0.811548 -0.017335
-14.695900 12.281031 2.764717 0.571184 0.017518 0.820612
-14.695900 12.540563 2.458535 0.584002 0.811548 -0.017335
-14.695900 11.862432 2.311647 0.584002 -0.811548 0.017335
-15.352497 12.281031 2.764717 -0.571184 0.017518 0.820612
3 0 1 2
3 3 4 5
3 6 7 1
3 0 3 5
3 1 3 2
3 5 6 0
3 0 6 1
3 3 7 4
3 6 4 7
3 0 2 3
3 1 7 3
3 5 4 6
