ply
format ascii 1.0
comment Created by Blender 2.77 (sub 0) - www.blender.org, source file: 'Brewery0-Colliders.blend'
element vertex 8
property float x
property float y
property float z
property float nx
property float ny
property float nz
element face 12
property list uchar uint vertex_indices
end_header
10.274574 13.862907 -7.851702 0.817225 0.033937 0.575274
2.235006 5.467995 -8.226897 0.061373 -0.809961 -0.583239
10.274574 13.862907 -8.226900 0.817225 0.033937 -0.575274
9.721660 14.351745 -8.226900 -0.032868 0.814234 -0.579577
1.625305 5.936995 -8.226897 -0.818140 -0.061037 -0.571764
2.235006 5.467995 -7.851699 0.061373 -0.809961 0.583239
1.625305 5.936995 -7.851699 -0.818140 -0.061037 0.571764
9.721660 14.351745 -7.851702 -0.032868 0.814234 0.579577
3 0 1 2
3 3 1 4
3 5 4 1
3 3 6 7
3 7 5 0
3 0 3 7
3 0 5 1
3 3 2 1
3 5 6 4
3 3 4 6
3 7 6 5
3 0 2 3
