ply
format ascii 1.0
comment Created by Blender 2.77 (sub 0) - www.blender.org, source file: 'Brewery0-Colliders.blend'
element vertex 8
property float x
property float y
property float z
property float nx
property float ny
property float nz
element face 12
property list uchar uint vertex_indices
end_header
-1.693523 11.467086 3.158662 0.641072 -0.296274 0.707968
-2.454997 12.035533 3.157248 -0.563555 0.753777 0.337901
-2.443926 11.442482 3.158662 -0.612598 -0.324473 0.720695
-1.704601 6.614711 -2.748179 0.563616 -0.014801 -0.825861
-2.454997 6.614711 -2.748179 -0.577960 -0.020905 -0.815760
-1.693523 6.314035 -2.390675 0.592059 -0.805719 0.014985
-2.443926 6.314035 -2.390675 -0.576312 -0.816889 0.022858
-1.704601 12.060137 3.157248 0.532182 0.778863 0.331797
3 0 1 2
3 1 3 4
3 4 2 1
3 2 5 0
3 3 0 5
3 3 6 4
3 0 7 1
3 1 7 3
3 4 6 2
3 2 6 5
3 3 7 0
3 3 5 6
