ply
format ascii 1.0
comment Created by Blender 2.77 (sub 0) - www.blender.org, source file: 'Brewery0-Colliders.blend'
element vertex 12
property float x
property float y
property float z
property float nx
property float ny
property float nz
element face 20
property list uchar uint vertex_indices
end_header
-3.261271 15.778133 6.454945 0.512558 0.737327 -0.439985
-6.522709 15.808468 9.336658 -0.633747 0.716605 0.291238
-3.264939 15.808792 9.406758 0.633290 0.716910 0.291421
-2.152273 11.424209 4.543205 0.621601 -0.396283 -0.675680
-6.525980 15.780980 6.442245 -0.510330 0.737724 -0.441877
-2.161118 11.353455 9.432393 0.876919 -0.384594 0.288217
-2.292377 11.301057 9.573603 0.385449 -0.608448 0.693655
-6.311832 15.789900 9.547889 -0.244697 0.629597 0.737358
-3.405797 15.796391 9.547850 0.242988 0.631733 0.736076
-7.430051 11.274763 9.573699 -0.382336 -0.611591 0.692648
-7.626565 11.353210 9.362289 -0.876797 -0.385022 0.288003
-7.634502 11.426348 4.530431 -0.619770 -0.394787 -0.678213
3 0 1 2
3 3 4 0
3 5 6 3
3 2 7 8
3 1 9 7
3 10 11 9
3 2 6 5
3 6 7 9
3 3 9 11
3 4 10 1
3 5 0 2
3 0 4 1
3 3 11 4
3 2 1 7
3 1 10 9
3 2 8 6
3 6 8 7
3 3 6 9
3 4 11 10
3 5 3 0
