ply
format ascii 1.0
comment Created by Blender 2.77 (sub 0) - www.blender.org, source file: 'Brewery0-Colliders.blend'
element vertex 6
property float x
property float y
property float z
property float nx
property float ny
property float nz
element face 8
property list uchar uint vertex_indices
end_header
-10.074819 4.899025 5.455348 -0.635273 -0.772210 -0.008240
-9.043019 5.725946 7.706545 0.538987 0.147465 0.829279
-10.074819 5.725946 7.706545 -0.538987 0.147465 0.829279
-10.074819 5.725946 3.344847 -0.539232 0.156316 -0.827479
-9.043019 5.725946 3.344847 0.539232 0.156316 -0.827479
-9.043019 4.899025 5.455348 0.635273 -0.772210 -0.008240
3 0 1 2
3 3 1 4
3 1 5 4
3 3 5 0
3 0 2 3
3 0 5 1
3 3 2 1
3 3 4 5
