ply
format ascii 1.0
comment Created by Blender 2.77 (sub 0) - www.blender.org, source file: 'Brewery0-Colliders.blend'
element vertex 8
property float x
property float y
property float z
property float nx
property float ny
property float nz
element face 12
property list uchar uint vertex_indices
end_header
-14.109649 0.351033 3.297947 -0.824274 -0.562304 -0.065767
-12.679197 1.664233 2.430298 0.296030 0.565142 -0.770012
-12.679197 0.351032 2.430298 0.296030 -0.565142 -0.770012
-13.171649 0.351033 4.095246 -0.070650 -0.597247 0.798914
-12.327448 1.664233 3.602798 0.750542 0.590808 0.295969
-13.171649 1.664233 4.095245 -0.070650 0.597247 0.798914
-12.327448 0.351033 3.602798 0.750542 -0.590808 0.295969
-14.109649 1.664233 3.297947 -0.824274 0.562304 -0.065767
3 0 1 2
3 3 4 5
3 6 1 4
3 7 3 5
3 5 1 7
3 3 2 6
3 0 7 1
3 3 6 4
3 6 2 1
3 7 0 3
3 5 4 1
3 3 0 2
