ply
format ascii 1.0
comment Created by Blender 2.77 (sub 0) - www.blender.org, source file: 'Brewery0-Colliders.blend'
element vertex 8
property float x
property float y
property float z
property float nx
property float ny
property float nz
element face 12
property list uchar uint vertex_indices
end_header
3.548207 3.029197 8.433500 -0.577349 0.577349 0.577349
15.742199 -0.066204 8.433501 0.577349 -0.577349 0.577349
15.742199 3.029197 8.433500 0.577349 0.577349 0.577349
3.548207 -0.066205 8.433501 -0.577349 -0.577349 0.577349
15.742199 -0.066206 -7.278003 0.577349 -0.577349 -0.577349
15.742199 3.029193 -7.278003 0.577349 0.577349 -0.577349
3.548206 3.029193 -7.278003 -0.577349 0.577349 -0.577349
3.548206 -0.066207 -7.278003 -0.577349 -0.577349 -0.577349
3 0 1 2
3 3 4 1
3 5 0 2
3 5 1 4
3 6 4 7
3 3 6 7
3 0 3 1
3 3 7 4
3 5 6 0
3 5 2 1
3 6 5 4
3 3 0 6
