ply
format ascii 1.0
comment Created by Blender 2.77 (sub 0) - www.blender.org, source file: 'Brewery0-Colliders.blend'
element vertex 8
property float x
property float y
property float z
property float nx
property float ny
property float nz
element face 12
property list uchar uint vertex_indices
end_header
6.080803 12.915764 2.458535 -0.584002 0.811548 -0.017335
6.737400 12.656231 2.764717 0.571184 0.017518 0.820612
6.737400 12.915764 2.458535 0.584002 0.811548 -0.017335
6.737400 12.497165 2.005465 0.571184 -0.017518 -0.820612
6.080803 12.237633 2.311647 -0.584002 -0.811548 0.017335
6.080803 12.497165 2.005465 -0.571184 -0.017518 -0.820612
6.080803 12.656231 2.764717 -0.571184 0.017518 0.820612
6.737400 12.237633 2.311647 0.584002 -0.811548 0.017335
3 0 1 2
3 3 4 5
3 6 7 1
3 7 2 1
3 3 0 2
3 4 0 5
3 0 6 1
3 3 7 4
3 6 4 7
3 7 3 2
3 3 5 0
3 4 6 0
