ply
format ascii 1.0
comment Created by Blender 2.77 (sub 0) - www.blender.org, source file: 'Brewery0-Colliders.blend'
element vertex 8
property float x
property float y
property float z
property float nx
property float ny
property float nz
element face 12
property list uchar uint vertex_indices
end_header
-2.454995 -0.066205 8.433501 0.563707 -0.727195 0.391644
-13.617198 -0.066205 8.433501 -0.255715 -0.639332 0.725120
-14.461400 -0.066205 7.753453 -0.794061 -0.539140 -0.280587
-13.617198 7.062596 7.753452 -0.539262 0.606891 -0.583789
-2.454995 0.402795 7.753453 0.622578 -0.356639 -0.696554
-2.454995 7.062596 8.433499 0.577349 0.577349 0.577349
-13.617198 7.062596 8.433499 -0.540788 0.604419 0.584979
-2.454995 7.062596 7.753452 0.577349 0.577349 -0.577349
3 0 1 2
3 3 4 2
3 5 3 6
3 4 5 0
3 5 1 0
3 4 0 2
3 1 6 2
3 2 6 3
3 3 7 4
3 5 7 3
3 4 7 5
3 5 6 1
