ply
format ascii 1.0
comment Created by Blender 2.77 (sub 0) - www.blender.org, source file: 'Brewery0-Colliders.blend'
element vertex 8
property float x
property float y
property float z
property float nx
property float ny
property float nz
element face 12
property list uchar uint vertex_indices
end_header
8.990685 13.034930 -1.345154 0.017579 -0.816279 0.577349
8.719725 13.294462 -2.001751 -0.816279 -0.017579 -0.577349
8.990685 13.034930 -2.001751 0.017579 -0.816279 -0.577349
9.391629 13.453529 -1.345154 0.816279 0.017579 0.577349
8.719725 13.294462 -1.345154 -0.816279 -0.017579 0.577349
9.120674 13.713060 -1.345154 -0.017579 0.816279 0.577349
9.120674 13.713060 -2.001751 -0.017579 0.816279 -0.577349
9.391629 13.453529 -2.001751 0.816279 0.017579 -0.577349
3 0 1 2
3 3 4 0
3 1 5 6
3 2 3 0
3 7 1 6
3 3 6 5
3 0 4 1
3 3 5 4
3 1 4 5
3 2 7 3
3 7 2 1
3 3 7 6
