ply
format ascii 1.0
comment Created by Blender 2.77 (sub 0) - www.blender.org, source file: 'Brewery0-Colliders.blend'
element vertex 8
property float x
property float y
property float z
property float nx
property float ny
property float nz
element face 12
property list uchar uint vertex_indices
end_header
3.642004 3.029196 8.410052 -0.320353 -0.546892 0.773431
3.642002 6.684086 -7.254551 -0.384472 0.364971 -0.847896
3.642002 3.029193 -7.254551 -0.320353 -0.546892 -0.773431
3.876504 6.926105 8.175552 0.375622 0.848720 0.372234
3.876503 3.029194 -7.020051 0.717277 -0.630238 -0.297098
3.876503 6.926102 -7.020051 0.375622 0.848720 -0.372234
3.642004 6.684089 8.410051 -0.384472 0.364971 0.847896
3.876504 3.029196 8.175552 0.717277 -0.630238 0.297098
3 0 1 2
3 3 4 5
3 6 5 1
3 4 0 2
3 4 1 5
3 6 7 3
3 0 6 1
3 3 7 4
3 6 3 5
3 4 7 0
3 4 2 1
3 6 0 7
