ply
format ascii 1.0
comment Created by Blender 2.77 (sub 0) - www.blender.org, source file: 'Brewery0-Colliders.blend'
element vertex 10
property float x
property float y
property float z
property float nx
property float ny
property float nz
element face 16
property list uchar uint vertex_indices
end_header
-2.454995 -0.066205 8.433501 -0.645894 -0.728874 -0.226966
-1.516995 -0.066205 8.621102 0.577349 -0.577349 0.577349
-2.454995 -0.066205 8.621102 -0.577349 -0.577349 0.577349
-2.454995 7.343996 8.621100 -0.577349 0.577349 0.577349
-2.454995 0.402795 7.753453 -0.615894 -0.366253 -0.697470
-1.516995 7.343996 7.753452 0.577349 0.577349 -0.577349
-2.454995 7.343996 7.753452 -0.577349 0.577349 -0.577349
-1.516995 0.402795 7.753453 0.615894 -0.366253 -0.697470
-1.516995 -0.066205 8.433501 0.645894 -0.728874 -0.226966
-1.516995 7.343996 8.621100 0.577349 0.577349 0.577349
3 0 1 2
3 2 3 4
3 3 5 6
3 7 6 5
3 1 3 2
3 1 8 7
3 0 7 8
3 0 8 1
3 6 4 3
3 0 2 4
3 3 9 5
3 7 4 6
3 1 9 3
3 7 5 9
3 9 1 7
3 0 4 7
