ply
format ascii 1.0
comment Created by Blender 2.77 (sub 0) - www.blender.org, source file: 'Brewery0-Colliders.blend'
element vertex 8
property float x
property float y
property float z
property float nx
property float ny
property float nz
element face 12
property list uchar uint vertex_indices
end_header
9.391629 13.453529 3.344844 0.816279 0.017579 0.577349
8.990685 13.034930 2.688244 0.017579 -0.816279 -0.577349
9.391629 13.453529 2.688244 0.816279 0.017579 -0.577349
8.719725 13.294462 3.344844 -0.816279 -0.017579 0.577349
8.990685 13.034930 3.344844 0.017579 -0.816279 0.577349
9.120674 13.713060 2.688244 -0.017579 0.816279 -0.577349
9.120674 13.713060 3.344844 -0.017548 0.816279 0.577349
8.719725 13.294462 2.688244 -0.816279 -0.017579 -0.577349
3 0 1 2
3 0 3 4
3 0 5 6
3 7 6 5
3 7 4 3
3 2 7 5
3 0 4 1
3 0 6 3
3 0 2 5
3 7 3 6
3 7 1 4
3 2 1 7
