ply
format ascii 1.0
comment Created by Blender 2.77 (sub 0) - www.blender.org, source file: 'Brewery0-Colliders.blend'
element vertex 16
property float x
property float y
property float z
property float nx
property float ny
property float nz
element face 28
property list uchar uint vertex_indices
end_header
13.180287 2.071002 -8.597070 0.555376 0.618915 0.555376
13.397197 -0.039499 -9.247805 0.766381 -0.642354 0.000000
13.397197 2.071002 -9.247806 0.766381 0.642354 0.000000
11.878808 2.071002 -8.597070 -0.555376 0.618915 0.555376
11.661899 -0.039499 -9.247804 -0.766381 -0.642354 0.000000
11.878808 -0.039499 -8.597069 -0.555376 -0.618915 0.555376
12.529544 -0.039498 -8.380156 0.000000 -0.642354 0.766381
11.878808 2.071002 -9.898541 -0.555376 0.618915 -0.555376
11.661899 2.071002 -9.247805 -0.766381 0.642354 0.000000
13.180287 -0.039499 -9.898540 0.555376 -0.618915 -0.555376
13.180281 2.071002 -9.898541 0.555376 0.618915 -0.555376
12.529544 2.071002 -8.380157 0.000000 0.642354 0.766381
12.529544 2.071001 -10.115455 0.000000 0.642354 -0.766381
12.529544 -0.039499 -10.115454 0.000000 -0.642354 -0.766381
13.180281 -0.039499 -8.597069 0.555376 -0.618946 0.555376
11.878808 -0.039499 -9.898540 -0.555376 -0.618915 -0.555376
3 0 1 2
3 3 4 5
3 1 6 4
3 7 4 8
3 2 9 10
3 3 6 11
3 12 8 2
3 10 13 12
3 14 11 6
3 13 7 12
3 0 14 1
3 3 8 4
3 5 4 6
3 15 13 4
3 9 1 13
3 14 6 1
3 4 13 1
3 7 15 4
3 2 1 9
3 3 5 6
3 3 11 8
3 0 2 11
3 10 12 2
3 7 8 12
3 11 2 8
3 10 9 13
3 14 0 11
3 13 15 7
