ply
format ascii 1.0
comment Created by Blender 2.77 (sub 0) - www.blender.org, source file: 'Brewery0-Colliders.blend'
element vertex 12
property float x
property float y
property float z
property float nx
property float ny
property float nz
element face 20
property list uchar uint vertex_indices
end_header
4.157901 2.996588 -6.269655 -0.577349 -0.577349 -0.577349
5.658703 2.996588 -4.651602 0.577349 -0.577349 0.577349
4.157901 2.996588 -4.651602 -0.577349 -0.577349 0.577349
4.673800 4.192537 -5.097151 -0.350749 0.854366 0.383404
5.658703 3.512487 -4.651602 0.669179 0.303964 0.678030
5.283505 4.192537 -5.097151 0.412641 0.828944 0.377544
4.673800 4.192537 -5.824106 -0.350749 0.854366 -0.383404
4.157901 3.512487 -4.651602 -0.670583 0.332560 0.663076
5.658703 3.512487 -6.269655 0.669179 0.303964 -0.678030
4.157901 3.512487 -6.269655 -0.670583 0.332560 -0.663076
5.658703 2.996588 -6.269655 0.577349 -0.577349 -0.577349
5.283505 4.192537 -5.824106 0.412641 0.828944 -0.377544
3 0 1 2
3 3 4 5
3 6 7 3
3 6 8 9
3 8 1 10
3 7 1 4
3 6 5 11
3 10 9 8
3 5 8 11
3 9 2 7
3 0 10 1
3 3 7 4
3 6 9 7
3 6 11 8
3 8 4 1
3 7 2 1
3 6 3 5
3 10 0 9
3 5 4 8
3 9 0 2
