ply
format ascii 1.0
comment Created by Blender 2.77 (sub 0) - www.blender.org, source file: 'Brewery0-Colliders.blend'
element vertex 8
property float x
property float y
property float z
property float nx
property float ny
property float nz
element face 12
property list uchar uint vertex_indices
end_header
11.568106 -0.066203 8.597647 -0.577349 -0.577349 0.577349
11.568106 8.094397 7.753444 -0.577349 0.577349 -0.577349
11.568106 -0.066203 7.753446 -0.577349 -0.577349 -0.577349
12.412307 -0.066203 8.597647 0.577349 -0.577349 0.577349
12.412307 -0.066203 7.753446 0.577349 -0.577349 -0.577349
12.412307 8.094397 7.753444 0.577349 0.577349 -0.577349
12.412307 8.094397 8.597645 0.577349 0.577349 0.577349
11.568106 8.094397 8.597645 -0.577349 0.577349 0.577349
3 0 1 2
3 3 2 4
3 4 1 5
3 3 5 6
3 6 1 7
3 7 3 6
3 0 7 1
3 3 0 2
3 4 2 1
3 3 4 5
3 6 5 1
3 7 0 3
