ply
format ascii 1.0
comment Created by Blender 2.77 (sub 0) - www.blender.org, source file: 'Brewery0-Colliders.blend'
element vertex 8
property float x
property float y
property float z
property float nx
property float ny
property float nz
element face 12
property list uchar uint vertex_indices
end_header
4.298602 0.402795 -7.442150 0.577349 -0.577349 -0.577349
3.454400 6.490474 -7.442151 -0.718589 0.291025 -0.631550
4.298602 7.361731 -7.442151 0.314341 0.776177 -0.546495
3.454400 0.402795 -6.597952 -0.577349 -0.577349 0.577349
3.454400 0.402795 -7.442150 -0.577349 -0.577349 -0.577349
4.298602 7.361732 -6.597953 0.314341 0.776177 0.546495
4.298602 0.402795 -6.597952 0.577349 -0.577349 0.577349
3.454400 6.490474 -6.597953 -0.718589 0.291025 0.631550
3 0 1 2
3 3 1 4
3 5 0 2
3 6 4 0
3 5 1 7
3 6 7 3
3 0 4 1
3 3 7 1
3 5 6 0
3 6 3 4
3 5 2 1
3 6 5 7
