ply
format ascii 1.0
comment Created by Blender 2.77 (sub 0) - www.blender.org, source file: 'Brewery0-Colliders.blend'
element vertex 10
property float x
property float y
property float z
property float nx
property float ny
property float nz
element face 16
property list uchar uint vertex_indices
end_header
-15.352497 6.509176 8.488750 -0.591906 -0.803888 -0.058107
-15.352497 6.790577 8.912724 -0.571429 -0.115238 0.812494
-15.352497 7.015697 8.721933 -0.691336 0.505387 0.516312
-14.695900 6.509176 8.488750 0.591906 -0.803888 -0.058107
-14.695900 11.283596 3.157249 0.625751 -0.318217 -0.712119
-14.695900 7.015697 8.721933 0.691336 0.505387 0.516312
-15.352497 11.940196 3.157249 -0.548509 0.762352 -0.343364
-14.695900 11.940196 3.157249 0.548509 0.762352 -0.343364
-14.695900 6.790577 8.912724 0.571429 -0.115238 0.812494
-15.352497 11.283596 3.157249 -0.625751 -0.318217 -0.712119
3 0 1 2
3 3 4 5
3 4 6 7
3 5 6 2
3 1 3 8
3 2 8 5
3 3 9 4
3 2 6 9
3 9 0 2
3 7 5 4
3 8 3 5
3 4 9 6
3 5 7 6
3 1 0 3
3 2 1 8
3 3 0 9
