ply
format ascii 1.0
comment Created by Blender 2.77 (sub 0) - www.blender.org, source file: 'Brewery0-Colliders.blend'
element vertex 10
property float x
property float y
property float z
property float nx
property float ny
property float nz
element face 16
property list uchar uint vertex_indices
end_header
7.816100 3.029193 -7.278000 -0.227393 0.728843 0.645802
4.017197 0.402793 -10.748599 -0.701743 0.365490 -0.611469
4.017197 0.402794 -7.278000 -0.697623 0.365795 0.615986
11.474302 3.029193 -7.278000 0.577349 0.577349 0.577349
11.474302 -0.066207 -10.607897 0.583331 -0.591998 -0.556047
11.474302 3.029192 -10.795502 0.574206 0.561113 -0.596149
7.816100 3.029192 -10.795502 -0.223182 0.716178 -0.661214
4.017197 -0.066206 -7.278000 -0.577349 -0.577349 0.577349
11.474302 -0.066206 -7.278000 0.577349 -0.577349 0.577349
4.017197 -0.066207 -10.748598 -0.575976 -0.579363 -0.576647
3 0 1 2
3 3 4 5
3 3 6 0
3 7 4 8
3 8 3 0
3 7 1 9
3 6 4 9
3 0 6 1
3 3 8 4
3 3 5 6
3 7 9 4
3 0 2 7
3 7 8 0
3 7 2 1
3 9 1 6
3 6 5 4
