ply
format ascii 1.0
comment Created by Blender 2.77 (sub 0) - www.blender.org, source file: 'Brewery0-Colliders.blend'
element vertex 8
property float x
property float y
property float z
property float nx
property float ny
property float nz
element face 12
property list uchar uint vertex_indices
end_header
17.852697 5.936996 9.313699 0.818812 -0.063417 0.570513
9.700123 14.479357 8.883035 0.011261 0.816126 -0.577715
9.700123 14.479357 9.369167 0.011261 0.816126 0.577715
17.243004 5.467996 8.938500 -0.058504 -0.811060 -0.581988
17.852697 5.936996 8.938500 0.818812 -0.063417 -0.570513
17.243004 5.467996 9.313699 -0.058504 -0.811060 0.581988
9.098172 13.880508 9.369167 -0.814875 0.006928 0.579547
9.098172 13.880508 8.883035 -0.814875 0.006928 -0.579547
3 0 1 2
3 0 3 4
3 5 2 6
3 2 7 6
3 1 3 7
3 5 7 3
3 0 4 1
3 0 5 3
3 5 0 2
3 2 1 7
3 1 4 3
3 5 6 7
