ply
format ascii 1.0
comment Created by Blender 2.77 (sub 0) - www.blender.org, source file: 'WizardTower0-Scene.blend'
element vertex 374
property float x
property float y
property float z
property float nx
property float ny
property float nz
property uchar red
property uchar green
property uchar blue
element face 632
property list uchar uint vertex_indices
end_header
29.041166 110.178543 20.744041 -0.000000 1.000000 0.000000 255 0 0
26.049685 110.178543 19.841133 -0.000000 1.000000 0.000000 255 0 0
26.689781 110.178543 21.742142 -0.000000 1.000000 0.000000 255 0 0
28.220695 110.178543 18.919594 -0.000000 1.000000 0.000000 255 0 0
56.899483 6.424669 48.301956 0.577349 0.577349 0.577349 0 0 0
56.899483 4.424669 46.301956 0.577349 -0.577349 -0.577349 0 0 0
56.899483 6.424669 46.301956 0.577349 0.577349 -0.577349 0 0 0
54.899483 6.424669 48.301956 -0.577349 0.577349 0.577349 0 0 0
56.899483 4.424669 48.301956 0.577349 -0.577349 0.577349 0 0 0
54.899483 6.424669 46.301956 -0.577349 0.577349 -0.577349 0 0 0
54.899483 4.424669 48.301956 -0.577349 -0.577349 0.577349 0 0 0
54.899483 4.424669 46.301956 -0.577349 -0.577349 -0.577349 0 0 0
53.300144 6.952471 20.371468 0.577349 0.577349 0.577349 0 0 0
53.300144 4.952471 18.371468 0.577349 -0.577349 -0.577349 0 0 0
53.300144 6.952471 18.371468 0.577349 0.577349 -0.577349 0 0 0
51.300144 6.952471 20.371468 -0.577349 0.577349 0.577349 0 0 0
53.300144 4.952471 20.371468 0.577349 -0.577349 0.577349 0 0 0
51.300144 6.952471 18.371468 -0.577349 0.577349 -0.577349 0 0 0
51.300144 4.952471 20.371468 -0.577349 -0.577349 0.577349 0 0 0
51.300144 4.952471 18.371468 -0.577349 -0.577349 -0.577349 0 0 0
61.516685 6.665274 70.861008 0.577349 0.577349 0.577349 0 0 0
61.516685 4.665274 68.861008 0.577349 -0.577349 -0.577349 0 0 0
61.516685 6.665274 68.861008 0.577349 0.577349 -0.577349 0 0 0
59.516685 6.665274 70.861008 -0.577349 0.577349 0.577349 0 0 0
61.516685 4.665274 70.861008 0.577349 -0.577349 0.577349 0 0 0
59.516685 6.665274 68.861008 -0.577349 0.577349 -0.577349 0 0 0
59.516685 4.665274 70.861008 -0.577349 -0.577349 0.577349 0 0 0
59.516685 4.665274 68.861008 -0.577349 -0.577349 -0.577349 0 0 0
7.818460 33.981094 40.076550 0.577349 0.577349 0.577349 255 255 0
7.818460 31.981094 38.076550 0.577349 -0.577349 -0.577349 255 255 0
7.818460 33.981094 38.076550 0.577349 0.577349 -0.577349 255 255 0
5.818460 33.981094 40.076550 -0.577349 0.577349 0.577349 255 255 0
7.818460 31.981094 40.076550 0.577349 -0.577349 0.577349 255 255 0
5.818460 33.981094 38.076550 -0.577349 0.577349 -0.577349 255 255 0
5.818460 31.981094 40.076550 -0.577349 -0.577349 0.577349 255 255 0
5.818460 31.981094 38.076550 -0.577349 -0.577349 -0.577349 255 255 0
20.344810 33.818680 19.203690 0.577349 0.577349 0.577349 255 255 0
20.344810 31.818680 17.203690 0.577349 -0.577349 -0.577349 255 255 0
20.344810 33.818680 17.203690 0.577349 0.577349 -0.577349 255 255 0
18.344810 33.818680 19.203690 -0.577349 0.577349 0.577349 255 255 0
20.344810 31.818680 19.203690 0.577349 -0.577349 0.577349 255 255 0
18.344810 33.818680 17.203690 -0.577349 0.577349 -0.577349 255 255 0
18.344810 31.818680 19.203690 -0.577349 -0.577349 0.577349 255 255 0
18.344810 31.818680 17.203690 -0.577349 -0.577349 -0.577349 255 255 0
38.736225 33.148499 80.274193 0.577349 0.577349 0.577349 255 255 0
38.736225 31.148499 78.274193 0.577349 -0.577349 -0.577349 255 255 0
38.736225 33.148499 78.274193 0.577349 0.577349 -0.577349 255 255 0
36.736225 33.148499 80.274193 -0.577349 0.577349 0.577349 255 255 0
38.736225 31.148499 80.274193 0.577349 -0.577349 0.577349 255 255 0
36.736225 33.148499 78.274193 -0.577349 0.577349 -0.577349 255 255 0
36.736225 31.148499 80.274193 -0.577349 -0.577349 0.577349 255 255 0
36.736225 31.148499 78.274193 -0.577349 -0.577349 -0.577349 255 255 0
17.000328 31.636602 70.456093 0.577349 0.577349 0.577349 255 255 0
17.000328 29.636602 68.456093 0.577349 -0.577349 -0.577349 255 255 0
17.000328 31.636602 68.456093 0.577349 0.577349 -0.577349 255 255 0
15.000328 31.636602 70.456093 -0.577349 0.577349 0.577349 255 255 0
17.000328 29.636602 70.456093 0.577349 -0.577349 0.577349 255 255 0
15.000328 31.636602 68.456093 -0.577349 0.577349 -0.577349 255 255 0
15.000328 29.636602 70.456093 -0.577349 -0.577349 0.577349 255 255 0
15.000328 29.636602 68.456093 -0.577349 -0.577349 -0.577349 255 255 0
39.976490 112.849365 27.337711 0.577349 0.577349 0.577349 255 255 0
39.976490 110.849365 25.337711 0.577349 -0.577349 -0.577349 255 255 0
39.976490 112.849365 25.337711 0.577349 0.577349 -0.577349 255 255 0
37.976490 112.849365 27.337711 -0.577349 0.577349 0.577349 255 255 0
39.976490 110.849365 27.337711 0.577349 -0.577349 0.577349 255 255 0
37.976490 112.849365 25.337711 -0.577349 0.577349 -0.577349 255 255 0
37.976490 110.849365 27.337711 -0.577349 -0.577349 0.577349 255 255 0
37.976490 110.849365 25.337711 -0.577349 -0.577349 -0.577349 255 255 0
21.499138 113.709030 59.602989 0.577349 0.577349 0.577349 255 255 0
21.499138 111.709030 57.602989 0.577349 -0.577349 -0.577349 255 255 0
21.499138 113.709030 57.602989 0.577349 0.577349 -0.577349 255 255 0
19.499138 113.709030 59.602989 -0.577349 0.577349 0.577349 255 255 0
21.499138 111.709030 59.602989 0.577349 -0.577349 0.577349 255 255 0
19.499138 113.709030 57.602989 -0.577349 0.577349 -0.577349 255 255 0
19.499138 111.709030 59.602989 -0.577349 -0.577349 0.577349 255 255 0
19.499138 111.709030 57.602989 -0.577349 -0.577349 -0.577349 255 255 0
40.292019 36.584782 48.204678 0.577349 0.577349 0.577349 255 255 0
40.292019 34.584782 46.204678 0.577349 -0.577349 -0.577349 255 255 0
40.292019 36.584782 46.204678 0.577349 0.577349 -0.577349 255 255 0
38.292019 36.584782 48.204678 -0.577349 0.577349 0.577349 255 255 0
40.292019 34.584782 48.204678 0.577349 -0.577349 0.577349 255 255 0
38.292019 36.584782 46.204678 -0.577349 0.577349 -0.577349 255 255 0
38.292019 34.584782 48.204678 -0.577349 -0.577349 0.577349 255 255 0
38.292019 34.584782 46.204678 -0.577349 -0.577349 -0.577349 255 255 0
18.503851 116.472824 65.995171 0.658406 0.527665 -0.536668 0 255 255
18.943012 116.407455 66.599632 0.929136 0.348186 0.124180 0 255 255
19.037319 115.500183 66.432999 0.999298 0.028047 -0.024354 0 255 255
18.598156 115.565552 65.828545 0.796686 0.082308 -0.598712 0 255 255
15.978355 117.882172 67.982468 0.142033 0.970733 -0.193487 0 255 255
15.360901 117.990570 68.442780 -0.044191 0.997162 -0.060854 0 255 255
16.417517 117.816803 68.586914 0.568987 0.661428 0.488540 0 255 255
15.800064 117.925201 69.047241 0.425672 0.689566 0.585894 0 255 255
12.501019 116.407455 71.280014 -0.168676 0.347758 0.922269 0 255 255
11.874237 115.565552 70.713760 -0.815058 0.080416 0.573748 0 255 255
12.313398 115.500183 71.318207 -0.322398 0.020539 0.946348 0 255 255
12.061855 116.472824 70.675552 -0.713858 0.527665 0.460341 0 255 255
13.005167 116.913773 70.968483 0.107974 0.602252 0.790948 0 255 255
12.566008 116.979141 70.364029 -0.432051 0.871181 0.233131 0 255 255
12.407543 110.009460 70.160873 -0.142674 -0.984313 0.103519 0 255 255
18.348379 110.009460 66.771660 0.747093 -0.638691 0.184027 0 255 255
12.848381 110.009460 70.767639 -0.036225 -0.638295 0.768914 0 255 255
7.999548 115.116379 60.182178 -0.555620 0.622669 -0.550920 0 255 255
8.889465 115.266373 59.535610 -0.448012 0.647267 -0.616657 0 255 255
6.543318 114.666367 61.240189 -0.693045 0.600055 -0.399487 0 255 255
11.235615 114.666367 57.831036 -0.165777 0.600055 -0.782556 0 255 255
18.051779 116.979141 66.378380 0.355235 0.871181 -0.338847 0 255 255
9.779385 115.116364 58.889053 -0.352214 0.622669 -0.698691 0 255 255
12.044632 113.766373 57.243252 0.190008 0.239265 -0.952178 0 255 255
8.108028 114.420105 60.103363 -0.587756 0.000000 -0.809015 0 255 255
18.933411 113.266373 66.470215 0.986877 -0.098727 0.127537 0 255 255
14.732307 117.882172 68.887764 -0.227912 0.970733 0.075289 0 255 255
17.904079 110.010574 67.094467 0.584582 -0.023438 0.810968 0 255 255
8.889465 110.816376 59.535610 -0.587786 0.000000 -0.809015 0 255 255
6.583769 110.766373 61.210804 -0.587756 0.000000 -0.809015 0 255 255
6.138809 110.016373 61.534081 -0.684988 -0.646107 -0.336558 0 255 255
6.146389 110.166367 62.264164 -0.777795 -0.540025 0.321482 0 255 255
6.059769 110.749115 61.591511 -0.684683 -0.202643 0.700064 0 255 255
11.235615 110.016373 57.831036 -0.415754 -0.706870 -0.572222 0 255 255
9.246799 110.166367 66.531525 -0.649068 -0.596576 0.471969 0 255 255
15.171467 117.816803 69.492218 0.288797 0.661428 0.692129 0 255 255
18.490938 116.913773 66.982826 0.718772 0.602344 0.347118 0 255 255
18.316236 113.266373 65.620750 0.803003 -0.083834 -0.590014 0 255 255
12.192171 110.166367 57.871647 0.630360 -0.491226 -0.601093 0 255 255
11.640125 110.016373 57.537144 -0.034394 -0.632496 -0.773766 0 255 255
11.721272 110.768646 57.478188 0.453963 0.000000 -0.890988 0 255 255
11.195166 110.766373 57.860428 -0.587756 0.000000 -0.809015 0 255 255
17.907541 110.009460 66.164894 0.223029 -0.961211 -0.162206 0 255 255
10.208736 110.190079 67.855515 -0.677084 -0.532121 0.508255 0 255 255
12.420824 113.266373 71.201889 -0.169317 -0.092074 0.981231 0 255 255
5.734299 113.766373 61.827976 -0.959532 0.253700 -0.122044 0 255 255
10.913189 110.444824 68.825111 -0.748650 -0.231971 0.621021 0 255 255
13.292683 110.010574 70.444839 0.589953 -0.022889 0.807092 0 255 255
15.316853 110.166367 62.172401 0.681326 -0.539567 -0.494552 0 255 255
11.934017 110.016373 57.941650 0.674947 -0.544908 -0.497452 0 255 255
16.278257 110.198669 63.495659 0.738212 -0.429518 -0.520066 0 255 255
16.958973 110.444824 64.432602 0.817927 -0.207953 -0.536393 0 255 255
76.008514 40.749184 -13.094940 0.562731 0.824061 0.064791 0 0 255
69.591476 40.658600 -12.756866 -0.557054 0.593524 0.580828 0 0 255
76.008514 40.658600 -12.756866 0.534410 0.606464 0.588672 0 0 255
48.940514 16.299622 81.927071 -0.278756 0.948851 -0.148198 255 0 255
49.516647 16.299622 82.211365 0.278726 0.948851 0.148228 255 0 255
49.387917 16.299622 81.790276 0.148198 0.948851 -0.278756 255 0 255
49.069252 16.299622 82.348145 -0.148198 0.948851 0.278726 255 0 255
71.535004 35.043320 -10.742233 -0.251503 0.150456 0.956084 0 0 255
69.941483 30.590521 -11.092186 -0.603320 -0.493759 0.626209 0 0 255
71.535004 34.843323 -10.742233 -0.131016 -0.010498 0.991302 0 0 255
11.665047 16.134502 75.367180 -0.443709 0.896023 0.015473 255 0 255
12.357254 16.299622 75.674019 0.010987 0.948851 0.315500 255 0 255
12.015099 16.299622 75.354958 -0.315500 0.948851 0.011017 255 0 255
75.658508 30.590521 -11.092186 0.596759 -0.495651 0.631001 0 0 255
76.341476 39.874992 -13.475014 0.977691 0.144230 0.152654 0 0 255
69.341476 39.524994 -13.475014 -0.992859 -0.009766 0.118748 0 0 255
69.591476 30.499931 -15.869766 -0.698233 -0.714866 -0.037172 0 0 255
12.407513 15.584103 77.113152 0.033021 0.322245 0.946043 255 0 255
10.575970 15.584103 75.405212 -0.946043 0.322245 0.033021 255 0 255
76.008514 30.499931 -15.869766 0.688131 -0.723624 -0.052980 0 0 255
76.341476 39.524994 -13.825012 0.997894 -0.010743 -0.063631 0 0 255
76.341476 39.524994 -13.475014 0.990966 -0.012482 0.133457 0 0 255
11.237198 13.286182 75.382126 -0.732109 -0.680654 0.025544 255 0 255
75.195419 36.258202 -11.287758 0.495834 0.167882 0.852016 0 0 255
14.096687 15.584103 75.301743 0.946043 0.322245 -0.033021 255 0 255
12.384422 13.286182 76.451927 0.025544 -0.680654 0.732109 255 0 255
13.435467 13.286182 75.324829 0.732109 -0.680654 -0.025544 255 0 255
72.799988 30.499994 -10.800011 0.006348 -0.694143 0.719779 0 0 255
75.658508 30.499933 -11.430260 0.573809 -0.810785 0.115513 0 0 255
13.007614 16.134502 75.339775 0.443709 0.896023 -0.015473 255 0 255
12.265141 15.584103 73.593803 -0.033021 0.322275 -0.946043 255 0 255
12.303169 16.134502 74.682869 -0.015473 0.896023 -0.443709 255 0 255
48.253246 13.286182 81.561638 -0.646809 -0.680654 -0.343913 255 0 255
50.203918 13.286184 82.576790 0.646809 -0.680654 0.343913 255 0 255
48.703831 13.286184 83.035408 -0.343913 -0.680654 0.646809 255 0 255
12.657558 16.299622 75.351997 0.315500 0.948851 -0.011017 255 0 255
12.315393 16.299622 75.032928 -0.011017 0.948851 -0.315500 255 0 255
72.465332 35.043320 -10.690559 0.008698 0.154515 0.987945 0 0 255
76.008514 30.590519 -16.207848 0.684561 -0.460829 -0.564776 0 0 255
76.341476 39.874992 -13.825012 0.936277 0.218726 -0.274789 0 0 255
69.341476 39.874992 -13.475014 -0.986724 0.107852 0.121250 0 0 255
74.451721 35.485832 -10.900490 0.200690 0.137852 0.969878 0 0 255
72.465332 34.843323 -10.690559 0.024445 -0.012482 0.999603 0 0 255
69.591476 40.749184 -13.094940 -0.593463 0.802545 0.060427 0 0 255
69.341476 39.874992 -13.825012 -0.948668 0.187384 -0.254646 0 0 255
69.941483 40.658600 -14.543159 -0.445601 0.633381 -0.632649 0 0 255
69.941483 40.749184 -14.205086 -0.300394 0.939421 -0.164892 0 0 255
75.658508 40.658600 -14.543159 0.428785 0.637104 -0.640461 0 0 255
75.658508 40.749184 -14.205086 0.300394 0.939421 -0.164892 0 0 255
72.913147 30.857916 -17.472450 0.225013 -0.166478 -0.960021 0 0 255
72.913147 35.598309 -16.378044 0.104068 0.259316 -0.960143 0 0 255
71.863144 30.471895 -17.356316 -0.029115 -0.988983 -0.144963 0 0 255
71.863144 30.516886 -17.551186 -0.166112 -0.509568 -0.844234 0 0 255
71.863144 35.933460 -16.300674 -0.126011 0.275185 -0.953093 0 0 255
70.920670 35.043320 -16.172829 -0.444990 0.176733 -0.877895 0 0 255
69.591476 30.590519 -16.207848 -0.733055 -0.446547 -0.513016 0 0 255
74.522049 36.337990 -11.162933 0.100925 0.306131 0.946593 0 0 255
69.941483 30.499933 -11.430260 -0.573809 -0.810785 0.115513 0 0 255
69.341476 39.524994 -13.825012 -0.998810 -0.008057 -0.047914 0 0 255
12.288239 13.286182 74.255020 -0.025544 -0.680654 -0.732109 255 0 255
-0.118896 16.299616 46.321346 -0.223212 0.948851 0.223212 255 0 255
0.321423 16.299616 46.321350 0.223243 0.948851 0.223212 255 0 255
0.321423 16.299616 45.853508 0.223212 0.948851 -0.223212 255 0 255
-0.118900 16.299616 45.853512 -0.223243 0.948851 -0.223212 255 0 255
78.420914 16.299618 57.850441 -0.267708 0.948851 0.167302 255 0 255
78.955185 16.299618 57.493641 0.267739 0.948851 -0.167272 255 0 255
78.526154 16.299618 57.394585 -0.167272 0.948851 -0.267708 255 0 255
78.947968 16.299612 33.309349 0.162603 0.948851 -0.270608 255 0 255
79.361389 16.134493 33.943687 0.380566 0.896023 0.228645 255 0 255
79.128372 16.134493 33.009102 0.228645 0.896023 -0.380535 255 0 255
23.360840 15.584091 14.176643 0.308176 0.322245 -0.895047 255 0 255
22.140339 16.134491 15.629250 -0.419782 0.896023 -0.144536 255 0 255
23.006058 16.134491 15.207008 0.144536 0.896023 -0.419782 255 0 255
59.640728 16.134491 14.889839 0.435804 0.896023 -0.084689 255 0 255
59.325436 15.584091 16.735264 0.180609 0.322245 0.929228 255 0 255
60.710442 15.584091 14.681908 0.929228 0.322245 -0.180609 255 0 255
21.735554 13.286171 15.489868 -0.692648 -0.680654 -0.238502 255 0 255
23.145435 13.286171 14.802231 0.238502 -0.680654 -0.692648 255 0 255
60.060970 13.286171 14.808151 0.719108 -0.680654 -0.139775 255 0 255
59.199188 13.286171 16.085796 0.139775 -0.680654 0.719108 255 0 255
24.446594 15.584091 16.402779 0.895047 0.322245 0.308176 255 0 255
23.821018 13.286171 16.187378 0.692648 -0.680654 0.238502 255 0 255
79.689636 15.584093 32.075020 0.487533 0.322245 -0.811426 255 0 255
77.853516 13.286175 33.014969 -0.627918 -0.680654 -0.377300 255 0 255
77.286407 15.584095 32.674206 -0.811426 0.322275 -0.487533 255 0 255
58.842201 16.134489 14.351219 -0.084689 0.896023 -0.435804 255 0 255
57.249260 15.584091 15.334862 -0.929228 0.322245 0.180609 255 0 255
58.318974 16.134491 15.126938 -0.435804 0.896023 0.084689 255 0 255
59.050671 16.299610 15.321716 0.060213 0.948851 0.309885 255 0 255
59.296894 16.299610 14.956673 0.309885 0.948851 -0.060244 255 0 255
22.664551 16.299610 16.139046 -0.102756 0.948851 0.298502 255 0 255
23.416233 16.134491 16.047997 0.419782 0.896023 0.144536 255 0 255
23.085045 16.299610 15.933952 0.298502 0.948851 0.102756 255 0 255
0.871826 13.286177 45.303112 0.517991 -0.680654 -0.517991 255 0 255
-0.669296 13.286177 46.871746 -0.517991 -0.680654 0.517991 255 0 255
-0.669292 13.286177 45.303112 -0.517991 -0.680654 -0.517991 255 0 255
22.471531 16.299610 15.743282 -0.298502 0.948851 -0.102786 255 0 255
22.892017 16.299610 15.538197 0.102756 0.948851 -0.298502 255 0 255
79.035553 16.134499 58.246529 0.235267 0.896023 0.376507 255 0 255
77.199722 15.584099 58.613525 -0.802789 0.322245 0.501633 255 0 255
79.613037 15.584099 59.170685 0.501633 0.322245 0.802789 255 0 255
78.849945 16.299618 57.949490 0.167302 0.948851 0.267739 255 0 255
58.760513 13.286171 13.930977 -0.139775 -0.680654 -0.719108 255 0 255
58.634266 15.584091 13.281509 -0.180609 0.322245 -0.929228 255 0 255
48.904812 16.134502 82.657410 -0.208411 0.896023 0.392010 255 0 255
77.892273 15.584095 35.104134 -0.487533 0.322275 0.811426 255 0 255
80.295486 15.584095 34.504948 0.811426 0.322245 0.487533 255 0 255
78.453506 16.134493 34.170052 -0.228645 0.896023 0.380535 255 0 255
78.520737 16.299612 33.415867 -0.270608 0.948851 -0.162572 255 0 255
78.220490 16.134493 33.235458 -0.380535 0.896023 -0.228645 255 0 255
80.176376 15.584099 56.730553 0.802789 0.322275 -0.501633 255 0 255
78.340530 16.134499 57.097534 -0.235267 0.896023 -0.376507 255 0 255
79.252228 16.134499 57.308022 0.376507 0.896023 -0.235267 255 0 255
57.898727 13.286171 15.208626 -0.719108 -0.680654 0.139775 255 0 255
79.728348 13.286175 34.164181 0.627918 -0.680654 0.377300 255 0 255
58.662811 16.299610 15.060104 -0.309885 0.948851 0.060213 255 0 255
59.117504 16.134491 15.665550 0.084689 0.896023 0.435804 255 0 255
22.411133 13.286171 16.875023 -0.238502 -0.680654 0.692648 255 0 255
58.909039 16.299608 14.695061 -0.060213 0.948851 -0.309885 255 0 255
79.262421 13.286179 58.609585 0.388195 -0.680654 0.621235 255 0 255
78.633911 16.299612 33.869816 -0.162572 0.948851 0.270608 255 0 255
79.061157 16.299612 33.763290 0.270608 0.948851 0.162572 255 0 255
77.760803 13.286179 58.262917 -0.621235 -0.680654 0.388195 255 0 255
78.123856 16.134499 58.036049 -0.376507 0.896023 0.235267 255 0 255
48.631245 16.134502 81.762619 -0.392010 0.896023 -0.208411 255 0 255
50.063961 15.584103 80.518829 0.444411 0.322245 -0.835810 255 0 255
49.753342 13.286182 81.103004 0.343913 -0.680654 -0.646809 255 0 255
47.669071 15.584103 81.251030 -0.835810 0.322245 -0.444411 255 0 255
50.788101 15.584103 82.887405 0.835810 0.322245 0.444411 255 0 255
49.825920 16.134502 82.375801 0.391980 0.896023 0.208441 255 0 255
12.369480 16.134502 76.024078 0.015473 0.896023 0.443709 255 0 255
49.552364 16.134502 81.481010 0.208411 0.896023 -0.392010 255 0 255
78.113663 13.286179 56.734478 -0.388195 -0.680654 -0.621235 255 0 255
79.615295 13.286179 57.081158 0.621235 -0.680654 -0.388195 255 0 255
77.763062 15.584099 56.173389 -0.501633 0.322245 -0.802789 255 0 255
79.348877 13.286175 32.642139 0.377300 -0.680654 -0.627918 255 0 255
51.793526 30.584450 87.301003 0.000000 0.999969 0.000000 255 0 0
54.121078 30.584450 85.675346 0.000000 1.000000 0.000000 255 0 0
51.086166 30.584448 81.394890 0.000000 1.000000 0.000000 255 0 0
48.728367 30.584448 82.829346 0.000000 0.999969 0.000000 255 0 0
14.324997 122.575012 47.216255 -0.637074 0.433851 0.637074 255 0 255
14.124996 120.225006 45.249973 -0.598346 -0.532853 -0.598346 255 0 255
14.124996 120.225006 47.416256 -0.598346 -0.532853 0.598346 255 0 255
23.842018 123.325012 64.485283 0.443525 0.896207 -0.007691 255 0 255
23.561260 122.575012 63.241043 -0.015717 0.433851 -0.900815 255 0 255
23.578537 123.325012 64.230843 -0.007721 0.896207 -0.443525 255 0 255
38.124996 120.225006 24.216255 -0.598346 -0.532853 0.598346 255 0 255
40.074997 122.575012 24.016258 0.637074 0.433851 0.637074 255 0 255
38.324997 122.575012 24.016258 -0.637074 0.433851 0.637074 255 0 255
23.801105 123.325012 28.537048 -0.007721 0.896207 0.443556 255 0 255
25.054386 122.575012 28.299889 0.900815 0.433851 0.015717 255 0 255
24.064587 123.325012 28.282616 0.443525 0.896207 0.007752 255 0 255
38.324997 122.575012 22.249977 -0.637074 0.433851 -0.637074 255 0 255
39.024998 123.325012 23.316250 -0.313669 0.896207 0.313669 255 0 255
39.024998 123.325012 22.949970 -0.313669 0.896207 -0.313669 255 0 255
22.568172 122.575012 28.268013 -0.900815 0.433851 -0.015717 255 0 255
23.783829 122.575012 29.526855 -0.015717 0.433851 0.900815 255 0 255
16.274998 120.225006 45.249973 0.598346 -0.532853 -0.598346 255 0 255
16.074999 122.575012 47.216255 0.637074 0.433851 0.637074 255 0 255
16.274998 120.225006 47.416256 0.598346 -0.532853 0.598346 255 0 255
39.374996 123.325012 22.949970 0.313669 0.896207 -0.313669 255 0 255
40.074997 122.575012 22.249977 0.637074 0.433851 -0.637074 255 0 255
56.043671 120.225006 26.958244 0.014740 -0.532853 -0.846065 255 0 255
55.978893 120.225006 30.009647 -0.014740 -0.532853 0.846065 255 0 255
54.485378 120.225006 28.463070 -0.846065 -0.532853 -0.014771 255 0 255
57.443672 120.225021 60.758244 0.014740 -0.532853 -0.846065 255 0 255
57.378895 120.225021 63.809647 -0.014740 -0.532853 0.846065 255 0 255
55.885380 120.225021 62.263069 -0.846065 -0.532853 -0.014740 255 0 255
58.654388 122.575012 62.299889 0.900815 0.433851 0.015717 255 0 255
57.438736 122.575012 61.041042 0.015717 0.433851 -0.900815 255 0 255
57.383831 122.575012 63.526855 -0.015717 0.433851 0.900815 255 0 255
56.168175 122.575012 62.268013 -0.900815 0.433851 -0.015717 255 0 255
57.421459 123.325012 62.030846 0.007721 0.896207 -0.443525 255 0 255
39.025002 123.325012 69.349968 -0.313669 0.896207 -0.313700 255 0 255
39.375000 123.325012 69.716248 0.313669 0.896207 0.313669 255 0 255
39.375000 123.325012 69.349968 0.313669 0.896207 -0.313669 255 0 255
38.325001 122.575012 70.416252 -0.637074 0.433851 0.637074 255 0 255
39.025002 123.325012 69.716248 -0.313669 0.896207 0.313669 255 0 255
57.401108 123.325012 62.537048 -0.007721 0.896207 0.443525 255 0 255
57.664589 123.325012 62.282616 0.443525 0.896207 0.007752 255 0 255
40.275002 120.225021 70.616249 0.598346 -0.532853 0.598346 255 0 255
40.075001 122.575012 68.649971 0.637074 0.433851 -0.637074 255 0 255
40.075001 122.575012 70.416252 0.637074 0.433851 0.637074 255 0 255
38.125000 120.225021 68.449966 -0.598346 -0.532853 -0.598346 255 0 255
38.125000 120.225021 70.616249 -0.598346 -0.532853 0.598346 255 0 255
23.556322 120.225021 62.958244 -0.014740 -0.532853 -0.846065 255 0 255
23.621101 120.225021 66.009644 0.014740 -0.532853 0.846065 255 0 255
22.062807 120.225021 64.504822 -0.846065 -0.532853 0.014740 255 0 255
38.325001 122.575012 68.649971 -0.637074 0.433851 -0.637074 255 0 255
25.114616 120.225021 64.463066 0.846065 -0.532853 -0.014771 255 0 255
22.345608 122.575012 64.499886 -0.900815 0.433851 0.015717 255 0 255
15.024998 123.325012 46.149975 -0.313669 0.896207 -0.313669 255 0 255
15.374996 123.325012 46.516254 0.313669 0.896207 0.313669 255 0 255
15.374996 123.325012 46.149975 0.313669 0.896207 -0.313669 255 0 255
14.324997 122.575012 45.449974 -0.637074 0.433851 -0.637074 255 0 255
16.074999 122.575012 45.449974 0.637074 0.433851 -0.637074 255 0 255
40.275002 120.225021 68.449966 0.598346 -0.532853 -0.598346 255 0 255
23.598886 123.325012 64.737045 0.007721 0.896207 0.443556 255 0 255
23.335407 123.325012 64.482613 -0.443525 0.896207 0.007752 255 0 255
23.778893 120.225006 29.809647 -0.014740 -0.532853 0.846065 255 0 255
24.831820 122.575012 64.468010 0.900815 0.433851 -0.015717 255 0 255
23.838734 122.575012 27.041042 0.015717 0.433851 -0.900815 255 0 255
22.285378 120.225006 28.263069 -0.846065 -0.532853 -0.014740 255 0 255
23.821457 123.325012 28.030846 0.007721 0.896207 -0.443556 255 0 255
39.374996 123.325012 23.316250 0.313669 0.896207 0.313669 255 0 255
57.157978 123.325012 62.285286 -0.443525 0.896207 -0.007691 255 0 255
15.024998 123.325012 46.516254 -0.313669 0.896207 0.313669 255 0 255
23.843670 120.225006 26.758244 0.014740 -0.532853 -0.846065 255 0 255
56.021458 123.325012 28.230843 0.007721 0.896207 -0.443525 255 0 255
57.254387 122.575012 28.499889 0.900815 0.433851 0.015717 255 0 255
56.038734 122.575012 27.241043 0.015717 0.433851 -0.900815 255 0 255
54.768173 122.575012 28.468014 -0.900815 0.433851 -0.015717 255 0 255
23.557976 123.325012 28.285286 -0.443525 0.896207 -0.007691 255 0 255
40.274998 120.225006 24.216255 0.598346 -0.532853 0.598346 255 0 255
55.983829 122.575012 29.726856 -0.015717 0.433851 0.900815 255 0 255
57.537186 120.225006 28.504826 0.846065 -0.532853 0.014771 255 0 255
55.757977 123.325012 28.485283 -0.443525 0.896207 -0.007691 255 0 255
38.124996 120.225006 22.049973 -0.598346 -0.532853 -0.598346 255 0 255
56.001106 123.325012 28.737045 -0.007721 0.896207 0.443525 255 0 255
56.264587 123.325012 28.482613 0.443525 0.896207 0.007752 255 0 255
25.337185 120.225006 28.304825 0.846065 -0.532853 0.014771 255 0 255
40.274998 120.225006 22.049973 0.598346 -0.532853 -0.598346 255 0 255
0.569099 16.134497 46.569031 0.313913 0.896023 0.313913 255 0 255
1.339661 15.584095 44.835274 0.669362 0.322245 -0.669362 255 0 255
0.569103 16.134497 45.605827 0.313913 0.896023 -0.313913 255 0 255
-1.137135 15.584095 44.835270 -0.669362 0.322245 -0.669362 255 0 255
-1.137135 15.584097 47.339592 -0.669362 0.322245 0.669362 255 0 255
-0.366573 16.134497 45.605831 -0.313913 0.896023 -0.313944 255 0 255
-0.366577 16.134497 46.569027 -0.313944 0.896023 0.313913 255 0 255
0.871822 13.286177 46.871754 0.517991 -0.680654 0.517991 255 0 255
22.195724 15.584091 17.500595 -0.308176 0.322245 0.895047 255 0 255
21.109970 15.584091 15.274467 -0.895047 0.322245 -0.308176 255 0 255
22.550510 16.134491 16.470230 -0.144536 0.896023 0.419782 255 0 255
1.339661 15.584097 47.339596 0.669362 0.322245 0.669362 255 0 255
78.233017 13.286175 34.537014 -0.377300 -0.680654 0.627918 255 0 255
48.393211 15.584103 83.619598 -0.444411 0.322245 0.835810 255 0 255
58.937187 120.225021 62.304825 0.846065 -0.532853 0.014740 255 0 255
23.616165 122.575012 65.726852 0.015717 0.433851 0.900815 255 0 255
3 0 1 2
3 0 3 1
3 4 5 6
3 7 8 4
3 9 10 7
3 6 11 9
3 8 11 5
3 7 6 9
3 12 13 14
3 15 16 12
3 17 18 15
3 14 19 17
3 16 19 13
3 15 14 17
3 20 21 22
3 23 24 20
3 25 26 23
3 22 27 25
3 24 27 21
3 23 22 25
3 28 29 30
3 31 32 28
3 33 34 31
3 30 35 33
3 32 35 29
3 31 30 33
3 36 37 38
3 39 40 36
3 41 42 39
3 38 43 41
3 40 43 37
3 39 38 41
3 44 45 46
3 47 48 44
3 49 50 47
3 46 51 49
3 48 51 45
3 47 46 49
3 52 53 54
3 55 56 52
3 57 58 55
3 54 59 57
3 56 59 53
3 55 54 57
3 60 61 62
3 63 64 60
3 65 66 63
3 62 67 65
3 64 67 61
3 63 62 65
3 68 69 70
3 71 72 68
3 73 74 71
3 70 75 73
3 72 75 69
3 71 70 73
3 76 77 78
3 79 80 76
3 81 82 79
3 78 83 81
3 80 83 77
3 79 78 81
3 84 85 86
3 87 84 86
3 88 89 90
3 89 91 90
3 92 93 94
3 92 95 93
3 96 97 92
3 97 95 92
3 98 99 100
3 101 102 103
3 84 104 105
3 105 106 88
3 106 104 102
3 104 107 102
3 107 108 102
3 109 87 86
3 110 102 101
3 90 111 99
3 112 113 108
3 113 114 108
3 115 116 114
3 113 112 114
3 112 117 114
3 88 102 89
3 98 115 114
3 118 94 115
3 94 93 115
3 98 100 115
3 100 118 115
3 91 110 119
3 84 120 85
3 103 95 97
3 121 107 87
3 122 123 107
3 123 124 107
3 124 125 107
3 84 87 107
3 112 107 125
3 125 117 112
3 101 97 110
3 123 126 117
3 90 105 88
3 100 127 118
3 127 94 118
3 128 92 94
3 127 128 94
3 93 129 115
3 119 96 100
3 96 128 100
3 128 130 100
3 130 127 100
3 99 111 100
3 111 131 100
3 128 96 92
3 131 111 91
3 119 131 91
3 119 97 96
3 98 117 126
3 132 126 122
3 126 133 122
3 133 123 122
3 121 132 122
3 133 126 123
3 123 125 124
3 109 132 121
3 99 120 90
3 132 99 126
3 130 128 127
3 132 134 99
3 134 135 99
3 135 109 99
3 109 120 99
3 109 85 120
3 109 86 85
3 109 134 132
3 135 134 109
3 103 102 129
3 102 108 129
3 108 114 129
3 114 116 129
3 116 115 129
3 136 137 138
3 139 140 141
3 142 140 139
3 143 144 145
3 146 147 148
3 138 149 150
3 151 152 144
3 153 146 154
3 155 156 157
3 158 153 154
3 138 159 149
3 160 161 162
3 163 164 149
3 165 166 167
3 168 169 170
3 147 171 172
3 148 147 172
3 143 173 137
3 174 175 156
3 144 143 137
3 176 144 137
3 163 177 178
3 176 137 179
3 149 155 157
3 180 176 179
3 150 149 157
3 181 180 179
3 182 181 179
3 183 182 184
3 183 174 185
3 185 186 183
3 178 143 145
3 174 187 188
3 181 189 188
3 190 181 188
3 191 190 188
3 173 177 192
3 181 186 189
3 144 193 163
3 163 155 164
3 194 152 151
3 159 192 177
3 136 175 183
3 192 159 138
3 137 192 138
3 183 184 136
3 180 151 176
3 185 189 186
3 188 185 174
3 191 187 152
3 157 175 150
3 152 163 193
3 181 190 191
3 136 182 179
3 180 181 191
3 159 177 149
3 194 180 191
3 161 195 162
3 196 197 198
3 199 196 198
3 200 201 202
3 203 204 205
3 206 207 208
3 209 210 211
3 212 206 213
3 214 210 215
3 213 216 217
3 218 219 220
3 208 216 206
3 221 222 223
3 224 209 225
3 226 227 228
3 229 230 231
3 226 228 232
3 232 228 233
3 234 235 236
3 200 234 237
3 211 238 239
3 139 240 142
3 204 241 242
3 221 211 239
3 243 244 245
3 246 247 248
3 249 210 222
3 241 250 242
3 251 252 224
3 204 218 205
3 253 213 217
3 251 224 254
3 224 225 254
3 255 246 236
3 256 204 257
3 201 234 248
3 176 151 144
3 205 244 203
3 255 235 258
3 234 246 248
3 247 235 259
3 141 260 139
3 245 241 243
3 261 169 262
3 219 241 220
3 249 214 215
3 152 193 144
3 263 240 260
3 166 158 154
3 240 264 265
3 136 138 150
3 264 170 169
3 266 171 147
3 166 162 195
3 263 267 261
3 172 146 148
3 140 240 265
3 268 255 258
3 244 256 203
3 256 257 203
3 262 263 261
3 146 166 154
3 235 268 258
3 145 163 178
3 267 264 261
3 173 192 137
3 202 259 200
3 141 265 267
3 269 270 246
3 172 165 167
3 248 202 201
3 170 263 168
3 164 155 149
3 250 219 271
3 272 273 274
3 275 272 274
3 276 277 278
3 279 280 281
3 282 283 284
3 285 286 287
3 288 289 290
3 285 291 292
3 288 282 284
3 293 294 295
3 288 296 297
3 298 299 300
3 301 302 303
3 304 301 305
3 302 304 306
3 305 303 307
3 308 304 305
3 309 310 311
3 312 310 313
3 308 314 315
3 316 317 318
3 307 302 306
3 319 316 320
3 314 307 306
3 318 320 316
3 321 322 323
3 324 311 317
3 324 320 312
3 280 325 321
3 324 313 309
3 326 321 323
3 322 326 323
3 317 310 318
3 327 328 329
3 293 330 331
3 319 317 332
3 326 333 334
3 335 286 292
3 330 329 331
3 336 322 325
3 337 338 291
3 339 286 337
3 291 335 292
3 340 290 289
3 341 305 307
3 331 328 294
3 281 333 279
3 276 295 294
3 333 336 279
3 330 342 327
3 276 328 342
3 343 335 338
3 344 345 346
3 346 300 347
3 348 337 291
3 349 297 283
3 299 345 350
3 339 285 287
3 351 346 345
3 277 295 278
3 347 299 350
3 352 346 347
3 314 304 315
3 353 349 282
3 284 340 289
3 354 345 355
3 337 356 343
3 344 354 355
3 281 326 334
3 354 347 350
3 353 297 357
3 297 340 283
3 358 359 360
3 361 230 362
3 208 232 233
3 245 218 220
3 196 358 197
3 207 226 232
3 363 196 199
3 228 208 233
3 361 364 363
3 254 223 251
3 365 362 230
3 210 223 222
3 231 359 229
3 218 250 271
3 212 366 367
3 216 253 217
3 358 198 197
3 238 222 239
3 359 363 360
3 254 209 221
3 363 198 360
3 207 366 368
3 365 359 369
3 368 216 227
3 358 362 369
3 165 153 160
3 4 8 5
3 7 10 8
3 9 11 10
3 6 5 11
3 8 10 11
3 7 4 6
3 12 16 13
3 15 18 16
3 17 19 18
3 14 13 19
3 16 18 19
3 15 12 14
3 20 24 21
3 23 26 24
3 25 27 26
3 22 21 27
3 24 26 27
3 23 20 22
3 28 32 29
3 31 34 32
3 33 35 34
3 30 29 35
3 32 34 35
3 31 28 30
3 36 40 37
3 39 42 40
3 41 43 42
3 38 37 43
3 40 42 43
3 39 36 38
3 44 48 45
3 47 50 48
3 49 51 50
3 46 45 51
3 48 50 51
3 47 44 46
3 52 56 53
3 55 58 56
3 57 59 58
3 54 53 59
3 56 58 59
3 55 52 54
3 60 64 61
3 63 66 64
3 65 67 66
3 62 61 67
3 64 66 67
3 63 60 62
3 68 72 69
3 71 74 72
3 73 75 74
3 70 69 75
3 72 74 75
3 71 68 70
3 76 80 77
3 79 82 80
3 81 83 82
3 78 77 83
3 80 82 83
3 79 76 78
3 98 126 99
3 84 107 104
3 105 104 106
3 109 121 87
3 110 89 102
3 90 91 111
3 88 106 102
3 91 89 110
3 84 105 120
3 103 129 95
3 121 122 107
3 112 108 107
3 101 103 97
3 90 120 105
3 93 95 129
3 119 100 131
3 119 110 97
3 98 114 117
3 123 117 125
3 136 179 137
3 146 266 147
3 153 266 146
3 155 174 156
3 158 161 153
3 160 153 161
3 165 160 166
3 168 262 169
3 163 149 177
3 183 181 182
3 183 175 174
3 178 173 143
3 174 155 187
3 173 178 177
3 181 183 186
3 163 187 155
3 194 191 152
3 136 150 175
3 180 194 151
3 185 188 189
3 191 188 187
3 157 156 175
3 152 187 163
3 136 184 182
3 161 158 195
3 200 237 201
3 203 257 204
3 206 367 207
3 209 252 210
3 212 367 206
3 214 211 210
3 213 206 216
3 218 271 219
3 208 227 216
3 221 239 222
3 224 252 209
3 226 368 227
3 229 365 230
3 234 259 235
3 200 259 234
3 211 214 238
3 139 260 240
3 204 243 241
3 221 209 211
3 243 256 244
3 246 270 247
3 249 215 210
3 241 370 250
3 251 223 252
3 204 242 218
3 253 212 213
3 255 269 246
3 256 243 204
3 201 237 234
3 205 245 244
3 255 236 235
3 234 236 246
3 247 270 235
3 141 267 260
3 245 220 241
3 261 264 169
3 219 370 241
3 249 238 214
3 263 371 240
3 166 195 158
3 240 371 264
3 264 371 170
3 266 165 171
3 166 160 162
3 263 260 267
3 172 167 146
3 140 142 240
3 268 269 255
3 262 168 263
3 146 167 166
3 235 270 268
3 145 144 163
3 267 265 264
3 202 247 259
3 141 140 265
3 269 268 270
3 172 171 165
3 248 247 202
3 170 371 263
3 250 370 219
3 276 330 277
3 279 336 280
3 282 349 283
3 285 292 286
3 288 284 289
3 285 348 291
3 288 353 282
3 293 331 294
3 288 290 296
3 298 351 299
3 301 372 302
3 304 372 301
3 302 372 304
3 305 301 303
3 308 315 304
3 309 313 310
3 312 318 310
3 308 341 314
3 316 332 317
3 307 303 302
3 319 332 316
3 314 341 307
3 318 312 320
3 321 325 322
3 324 309 311
3 324 319 320
3 280 336 325
3 324 312 313
3 326 280 321
3 322 373 326
3 317 311 310
3 327 342 328
3 293 277 330
3 319 324 317
3 326 373 333
3 335 356 286
3 330 327 329
3 336 373 322
3 337 343 338
3 339 287 286
3 291 338 335
3 340 296 290
3 341 308 305
3 331 329 328
3 281 334 333
3 276 278 295
3 333 373 336
3 330 276 342
3 276 294 328
3 343 356 335
3 344 355 345
3 346 298 300
3 348 339 337
3 349 357 297
3 299 351 345
3 339 348 285
3 351 298 346
3 277 293 295
3 347 300 299
3 352 344 346
3 314 306 304
3 353 357 349
3 284 283 340
3 354 350 345
3 337 286 356
3 344 352 354
3 281 280 326
3 354 352 347
3 353 288 297
3 297 296 340
3 358 369 359
3 361 231 230
3 208 207 232
3 245 205 218
3 196 364 358
3 207 368 226
3 363 364 196
3 228 227 208
3 361 362 364
3 254 221 223
3 365 369 362
3 210 252 223
3 231 361 359
3 218 242 250
3 212 253 366
3 216 366 253
3 358 360 198
3 238 249 222
3 359 361 363
3 254 225 209
3 363 199 198
3 207 367 366
3 365 229 359
3 368 366 216
3 358 364 362
3 165 266 153
