ply
format ascii 1.0
comment Created by Blender 2.77 (sub 0) - www.blender.org, source file: 'WizardTower0-Scene.blend'
element vertex 382
property float x
property float y
property float z
property float nx
property float ny
property float nz
property uchar red
property uchar green
property uchar blue
element face 644
property list uchar uint vertex_indices
end_header
-14.323095 110.178543 -17.531380 -0.000000 1.000000 0.000000 255 0 0
-17.314577 110.178543 -18.434288 -0.000000 1.000000 0.000000 255 0 0
-16.674480 110.178543 -16.533279 -0.000000 1.000000 0.000000 255 0 0
-15.143566 110.178543 -19.355827 -0.000000 1.000000 0.000000 255 0 0
13.535221 6.424669 10.026535 0.577349 0.577349 0.577349 0 0 0
13.535221 4.424669 8.026535 0.577349 -0.577349 -0.577349 0 0 0
13.535221 6.424669 8.026535 0.577349 0.577349 -0.577349 0 0 0
11.535221 6.424669 10.026535 -0.577349 0.577349 0.577349 0 0 0
13.535221 4.424669 10.026535 0.577349 -0.577349 0.577349 0 0 0
11.535221 6.424669 8.026535 -0.577349 0.577349 -0.577349 0 0 0
11.535221 4.424669 10.026535 -0.577349 -0.577349 0.577349 0 0 0
11.535221 4.424669 8.026535 -0.577349 -0.577349 -0.577349 0 0 0
9.935883 6.952471 -17.903954 0.577349 0.577349 0.577349 0 0 0
9.935883 4.952471 -19.903954 0.577349 -0.577349 -0.577349 0 0 0
9.935883 6.952471 -19.903954 0.577349 0.577349 -0.577349 0 0 0
7.935883 6.952471 -17.903954 -0.577349 0.577349 0.577349 0 0 0
9.935883 4.952471 -17.903954 0.577349 -0.577349 0.577349 0 0 0
7.935883 6.952471 -19.903954 -0.577349 0.577349 -0.577349 0 0 0
7.935883 4.952471 -17.903954 -0.577349 -0.577349 0.577349 0 0 0
7.935883 4.952471 -19.903954 -0.577349 -0.577349 -0.577349 0 0 0
18.152424 6.665274 32.585587 0.577349 0.577349 0.577349 0 0 0
18.152424 4.665274 30.585587 0.577349 -0.577349 -0.577349 0 0 0
18.152424 6.665274 30.585587 0.577349 0.577349 -0.577349 0 0 0
16.152424 6.665274 32.585587 -0.577349 0.577349 0.577349 0 0 0
18.152424 4.665274 32.585587 0.577349 -0.577349 0.577349 0 0 0
16.152424 6.665274 30.585587 -0.577349 0.577349 -0.577349 0 0 0
16.152424 4.665274 32.585587 -0.577349 -0.577349 0.577349 0 0 0
16.152424 4.665274 30.585587 -0.577349 -0.577349 -0.577349 0 0 0
-35.545799 33.981094 1.801128 0.577349 0.577349 0.577349 255 255 0
-35.545799 31.981094 -0.198872 0.577349 -0.577349 -0.577349 255 255 0
-35.545799 33.981094 -0.198872 0.577349 0.577349 -0.577349 255 255 0
-37.545799 33.981094 1.801128 -0.577349 0.577349 0.577349 255 255 0
-35.545799 31.981094 1.801128 0.577349 -0.577349 0.577349 255 255 0
-37.545799 33.981094 -0.198872 -0.577349 0.577349 -0.577349 255 255 0
-37.545799 31.981094 1.801128 -0.577349 -0.577349 0.577349 255 255 0
-37.545799 31.981094 -0.198872 -0.577349 -0.577349 -0.577349 255 255 0
-23.019451 33.818680 -19.071732 0.577349 0.577349 0.577349 255 255 0
-23.019451 31.818680 -21.071732 0.577349 -0.577349 -0.577349 255 255 0
-23.019451 33.818680 -21.071732 0.577349 0.577349 -0.577349 255 255 0
-25.019451 33.818680 -19.071732 -0.577349 0.577349 0.577349 255 255 0
-23.019451 31.818680 -19.071732 0.577349 -0.577349 0.577349 255 255 0
-25.019451 33.818680 -21.071732 -0.577349 0.577349 -0.577349 255 255 0
-25.019451 31.818680 -19.071732 -0.577349 -0.577349 0.577349 255 255 0
-25.019451 31.818680 -21.071732 -0.577349 -0.577349 -0.577349 255 255 0
-4.628036 33.148499 41.998772 0.577349 0.577349 0.577349 255 255 0
-4.628036 31.148499 39.998772 0.577349 -0.577349 -0.577349 255 255 0
-4.628036 33.148499 39.998772 0.577349 0.577349 -0.577349 255 255 0
-6.628036 33.148499 41.998772 -0.577349 0.577349 0.577349 255 255 0
-4.628036 31.148499 41.998772 0.577349 -0.577349 0.577349 255 255 0
-6.628036 33.148499 39.998772 -0.577349 0.577349 -0.577349 255 255 0
-6.628036 31.148499 41.998772 -0.577349 -0.577349 0.577349 255 255 0
-6.628036 31.148499 39.998772 -0.577349 -0.577349 -0.577349 255 255 0
-26.363934 31.636602 32.180672 0.577349 0.577349 0.577349 255 255 0
-26.363934 29.636602 30.180672 0.577349 -0.577349 -0.577349 255 255 0
-26.363934 31.636602 30.180672 0.577349 0.577349 -0.577349 255 255 0
-28.363934 31.636602 32.180672 -0.577349 0.577349 0.577349 255 255 0
-26.363934 29.636602 32.180672 0.577349 -0.577349 0.577349 255 255 0
-28.363934 31.636602 30.180672 -0.577349 0.577349 -0.577349 255 255 0
-28.363934 29.636602 32.180672 -0.577349 -0.577349 0.577349 255 255 0
-28.363934 29.636602 30.180672 -0.577349 -0.577349 -0.577349 255 255 0
-3.387772 112.849365 -10.937710 0.577349 0.577349 0.577349 255 255 0
-3.387772 110.849365 -12.937710 0.577349 -0.577349 -0.577349 255 255 0
-3.387772 112.849365 -12.937710 0.577349 0.577349 -0.577349 255 255 0
-5.387772 112.849365 -10.937710 -0.577349 0.577349 0.577349 255 255 0
-3.387772 110.849365 -10.937710 0.577349 -0.577349 0.577349 255 255 0
-5.387772 112.849365 -12.937710 -0.577349 0.577349 -0.577349 255 255 0
-5.387772 110.849365 -10.937710 -0.577349 -0.577349 0.577349 255 255 0
-5.387772 110.849365 -12.937710 -0.577349 -0.577349 -0.577349 255 255 0
-21.865124 113.709030 21.327568 0.577349 0.577349 0.577349 255 255 0
-21.865124 111.709030 19.327568 0.577349 -0.577349 -0.577349 255 255 0
-21.865124 113.709030 19.327568 0.577349 0.577349 -0.577349 255 255 0
-23.865124 113.709030 21.327568 -0.577349 0.577349 0.577349 255 255 0
-21.865124 111.709030 21.327568 0.577349 -0.577349 0.577349 255 255 0
-23.865124 113.709030 19.327568 -0.577349 0.577349 -0.577349 255 255 0
-23.865124 111.709030 21.327568 -0.577349 -0.577349 0.577349 255 255 0
-23.865124 111.709030 19.327568 -0.577349 -0.577349 -0.577349 255 255 0
-3.072243 36.584782 9.929256 0.577349 0.577349 0.577349 255 255 0
-3.072243 34.584782 7.929256 0.577349 -0.577349 -0.577349 255 255 0
-3.072243 36.584782 7.929256 0.577349 0.577349 -0.577349 255 255 0
-5.072243 36.584782 9.929256 -0.577349 0.577349 0.577349 255 255 0
-3.072243 34.584782 9.929256 0.577349 -0.577349 0.577349 255 255 0
-5.072243 36.584782 7.929256 -0.577349 0.577349 -0.577349 255 255 0
-5.072243 34.584782 9.929256 -0.577349 -0.577349 0.577349 255 255 0
-5.072243 34.584782 7.929256 -0.577349 -0.577349 -0.577349 255 255 0
-24.860411 116.472824 27.719749 0.658406 0.527665 -0.536668 0 255 255
-24.421249 116.407455 28.324211 0.929136 0.348186 0.124180 0 255 255
-24.326942 115.500183 28.157578 0.999298 0.028047 -0.024323 0 255 255
-24.766106 115.565552 27.553123 0.796686 0.082308 -0.598712 0 255 255
-27.385906 117.882172 29.707047 0.142033 0.970733 -0.193487 0 255 255
-28.003361 117.990570 30.167358 -0.044191 0.997162 -0.060854 0 255 255
-26.946745 117.816803 30.311493 0.568987 0.661428 0.488540 0 255 255
-27.564198 117.925201 30.771820 0.425672 0.689566 0.585894 0 255 255
-30.863243 116.407455 33.004593 -0.168676 0.347758 0.922269 0 255 255
-31.490025 115.565552 32.438339 -0.815058 0.080416 0.573748 0 255 255
-31.050863 115.500183 33.042786 -0.322428 0.020539 0.946348 0 255 255
-31.302406 116.472824 32.400131 -0.713858 0.527665 0.460341 0 255 255
-30.359095 116.913773 32.693062 0.107974 0.602252 0.790948 0 255 255
-30.798254 116.979141 32.088608 -0.432051 0.871181 0.233131 0 255 255
-30.956718 110.009460 31.885452 -0.142705 -0.984313 0.103519 0 255 255
-25.015882 110.009460 28.496239 0.747093 -0.638691 0.184027 0 255 255
-30.515881 110.009460 32.492218 -0.036225 -0.638295 0.768914 0 255 255
-35.364716 115.116379 21.906757 -0.555620 0.622669 -0.550920 0 255 255
-34.474796 115.266373 21.260189 -0.448012 0.647267 -0.616657 0 255 255
-36.820946 114.666367 22.964767 -0.693045 0.600055 -0.399487 0 255 255
-32.128647 114.666367 19.555614 -0.165777 0.600055 -0.782556 0 255 255
-25.312483 116.979141 28.102959 0.355235 0.871181 -0.338847 0 255 255
-33.584877 115.116364 20.613632 -0.352214 0.622669 -0.698691 0 255 255
-31.319630 113.766373 18.967831 0.190008 0.239265 -0.952178 0 255 255
-35.256233 114.420105 21.827942 -0.587756 0.000000 -0.809015 0 255 255
-24.430851 113.266373 28.194794 0.986877 -0.098727 0.127537 0 255 255
-28.631954 117.882172 30.612343 -0.227912 0.970733 0.075289 0 255 255
-25.460182 110.010574 28.819046 0.584582 -0.022462 0.810999 0 255 255
-34.474796 110.816376 21.260189 -0.587786 0.000000 -0.808985 0 255 255
-36.780495 110.766373 22.935383 -0.587756 0.000000 -0.809015 0 255 255
-37.225452 110.016373 23.258659 -0.684988 -0.646107 -0.336558 0 255 255
-37.217873 110.166367 23.988743 -0.777795 -0.540025 0.321482 0 255 255
-37.304493 110.749115 23.316090 -0.963103 -0.112980 0.244209 0 255 255
-32.128647 110.016373 19.555614 -0.415754 -0.706870 -0.572222 0 255 255
-34.117462 110.166367 28.256104 -0.649068 -0.596576 0.471969 0 255 255
-28.192795 117.816803 31.216797 0.288797 0.661428 0.692129 0 255 255
-24.873323 116.913773 28.707405 0.718772 0.602344 0.347118 0 255 255
-25.048025 113.266373 27.345329 0.803003 -0.083834 -0.590014 0 255 255
-31.172091 110.166367 19.596226 0.630360 -0.491226 -0.601093 0 255 255
-31.724136 110.016373 19.261723 -0.034364 -0.632496 -0.773766 0 255 255
-31.642990 110.768646 19.202766 -0.887936 0.069674 -0.454634 0 255 255
-32.169098 110.766373 19.585007 -0.587756 0.000000 -0.809015 0 255 255
-25.456720 110.009460 27.889473 0.223029 -0.961211 -0.162236 0 255 255
-33.155525 110.190079 29.580093 -0.677084 -0.532121 0.508255 0 255 255
-30.943438 113.266373 32.926468 -0.169317 -0.092074 0.981231 0 255 255
-37.629963 113.766373 23.552555 -0.959532 0.253670 -0.122074 0 255 255
-32.451073 110.444824 30.549690 -0.748650 -0.231971 0.621021 0 255 255
-30.071579 110.010574 32.169418 0.589953 -0.022980 0.807092 0 255 255
-28.047409 110.166367 23.896980 0.681326 -0.539567 -0.494552 0 255 255
-31.430244 110.016373 19.666229 0.674947 -0.544908 -0.497452 0 255 255
-27.086004 110.198669 25.220238 0.738212 -0.429518 -0.520066 0 255 255
-26.405289 110.444824 26.157181 0.817927 -0.207953 -0.536363 0 255 255
32.644249 40.749184 -51.370361 0.562731 0.824061 0.064791 0 0 255
26.227211 40.658600 -51.032288 -0.557054 0.593524 0.580828 0 0 255
32.644249 40.658600 -51.032288 0.534410 0.606464 0.588672 0 0 255
5.576252 16.299622 43.651649 -0.278756 0.948851 -0.148198 255 0 255
6.152386 16.299622 43.935944 0.278726 0.948851 0.148198 255 0 255
6.023655 16.299622 43.514854 0.148198 0.948851 -0.278756 255 0 255
5.704990 16.299622 44.072723 -0.148198 0.948851 0.278756 255 0 255
28.170746 35.043320 -49.017654 -0.251503 0.150456 0.956084 0 0 255
26.577217 30.590521 -49.367607 -0.603320 -0.493759 0.626209 0 0 255
28.170746 34.843323 -49.017654 -0.131016 -0.010498 0.991302 0 0 255
-31.699215 16.134502 37.091759 -0.443709 0.896023 0.015473 255 0 255
-31.007008 16.299622 37.398598 0.010987 0.948851 0.315500 255 0 255
-31.349163 16.299622 37.079536 -0.315500 0.948851 0.011017 255 0 255
32.294243 30.590521 -49.367607 0.596759 -0.495651 0.631001 0 0 255
32.977211 39.874992 -51.750435 0.977691 0.144230 0.152654 0 0 255
25.977211 39.524994 -51.750435 -0.992859 -0.009766 0.118748 0 0 255
26.227211 30.499931 -54.145187 -0.698233 -0.714866 -0.037202 0 0 255
-30.956749 15.584103 38.837730 0.033021 0.322245 0.946043 255 0 255
-32.788292 15.584103 37.129791 -0.946043 0.322245 0.033021 255 0 255
32.644249 30.499931 -54.145187 0.688131 -0.723624 -0.052980 0 0 255
32.977211 39.524994 -52.100433 0.997894 -0.010743 -0.063631 0 0 255
32.977211 39.524994 -51.750435 0.990966 -0.012482 0.133457 0 0 255
-32.127064 13.286182 37.106705 -0.732109 -0.680654 0.025544 255 0 255
31.831161 36.258202 -49.563179 0.495834 0.167882 0.852016 0 0 255
-29.267574 15.584103 37.026321 0.946043 0.322245 -0.033021 255 0 255
-30.979839 13.286182 38.176506 0.025544 -0.680654 0.732109 255 0 255
-29.928795 13.286182 37.049408 0.732109 -0.680654 -0.025544 255 0 255
29.435730 30.499994 -49.075432 0.006348 -0.694143 0.719779 0 0 255
32.294243 30.499933 -49.705681 0.573809 -0.810785 0.115513 0 0 255
-30.356647 16.134502 37.064354 0.443709 0.896023 -0.015473 255 0 255
-31.099121 15.584103 35.318382 -0.033021 0.322245 -0.946043 255 0 255
-31.061092 16.134502 36.407448 -0.015473 0.896023 -0.443709 255 0 255
4.888985 13.286182 43.286217 -0.646809 -0.680654 -0.343913 255 0 255
6.839657 13.286184 44.301369 0.646809 -0.680654 0.343913 255 0 255
5.339569 13.286184 44.759987 -0.343913 -0.680654 0.646809 255 0 255
-30.706703 16.299622 37.076576 0.315500 0.948851 -0.011017 255 0 255
-31.048868 16.299622 36.757507 -0.011017 0.948851 -0.315500 255 0 255
29.101074 35.043320 -48.965981 0.008698 0.154515 0.987945 0 0 255
32.644249 30.590519 -54.483269 0.684561 -0.460829 -0.564776 0 0 255
32.977211 39.874992 -52.100433 0.936277 0.218726 -0.274789 0 0 255
25.977211 39.874992 -51.750435 -0.986724 0.107852 0.121250 0 0 255
31.087456 35.485832 -49.175911 0.200690 0.137852 0.969878 0 0 255
29.101074 34.843323 -48.965981 0.024445 -0.012482 0.999603 0 0 255
26.227211 40.749184 -51.370361 -0.593463 0.802545 0.060427 0 0 255
25.977211 39.874992 -52.100433 -0.948668 0.187384 -0.254646 0 0 255
26.577217 40.658600 -52.818581 -0.445601 0.633381 -0.632618 0 0 255
26.577217 40.749184 -52.480507 -0.300394 0.939421 -0.164892 0 0 255
32.294243 40.658600 -52.818581 0.428785 0.637104 -0.640461 0 0 255
32.294243 40.749184 -52.480507 0.300394 0.939421 -0.164892 0 0 255
29.548882 30.857916 -55.747871 0.225013 -0.166478 -0.960021 0 0 255
29.548882 35.598309 -54.653465 0.104068 0.259316 -0.960143 0 0 255
28.498886 30.471895 -55.631737 -0.029115 -0.988983 -0.144963 0 0 255
28.498886 30.516886 -55.826607 -0.166112 -0.509568 -0.844234 0 0 255
28.498886 35.933460 -54.576096 -0.126011 0.275185 -0.953093 0 0 255
27.556412 35.043320 -54.448250 -0.445021 0.176733 -0.877895 0 0 255
26.227211 30.590519 -54.483269 -0.733055 -0.446547 -0.513016 0 0 255
31.157784 36.337990 -49.438354 0.100925 0.306131 0.946593 0 0 255
26.577217 30.499933 -49.705681 -0.573809 -0.810755 0.115513 0 0 255
25.977211 39.524994 -52.100433 -0.998810 -0.008057 -0.047914 0 0 255
-31.076023 13.286182 35.979599 -0.025544 -0.680654 -0.732109 255 0 255
-43.483158 16.299616 8.045925 -0.223243 0.948851 0.223212 255 0 255
-43.042839 16.299616 8.045929 0.223212 0.948851 0.223212 255 0 255
-43.042839 16.299616 7.578087 0.223212 0.948851 -0.223212 255 0 255
-43.483162 16.299616 7.578091 -0.223243 0.948851 -0.223212 255 0 255
35.056648 16.299618 19.575020 -0.267708 0.948851 0.167302 255 0 255
35.590919 16.299618 19.218220 0.267708 0.948851 -0.167272 255 0 255
35.161888 16.299618 19.119164 -0.167272 0.948851 -0.267708 255 0 255
35.583710 16.299612 -4.966072 0.162603 0.948851 -0.270608 255 0 255
35.997131 16.134493 -4.331734 0.380566 0.896023 0.228645 255 0 255
35.764114 16.134493 -5.266319 0.228645 0.896023 -0.380535 255 0 255
-20.003422 15.584091 -24.098778 0.308176 0.322245 -0.895047 255 0 255
-21.223923 16.134491 -22.646172 -0.419782 0.896023 -0.144536 255 0 255
-20.358204 16.134491 -23.068413 0.144536 0.896023 -0.419782 255 0 255
16.276466 16.134491 -23.385582 0.435804 0.896023 -0.084689 255 0 255
15.961174 15.584091 -21.540157 0.180609 0.322245 0.929228 255 0 255
17.346180 15.584091 -23.593513 0.929228 0.322245 -0.180609 255 0 255
-21.628708 13.286171 -22.785553 -0.692648 -0.680654 -0.238502 255 0 255
-20.218826 13.286171 -23.473190 0.238502 -0.680654 -0.692648 255 0 255
16.696709 13.286171 -23.467270 0.719108 -0.680654 -0.139775 255 0 255
15.834927 13.286171 -22.189625 0.139775 -0.680654 0.719108 255 0 255
-18.917667 15.584091 -21.872643 0.895047 0.322245 0.308176 255 0 255
-19.543243 13.286171 -22.088043 0.692648 -0.680654 0.238502 255 0 255
36.325371 15.584093 -6.200401 0.487533 0.322245 -0.811426 255 0 255
34.489258 13.286175 -5.260452 -0.627918 -0.680654 -0.377300 255 0 255
33.922142 15.584095 -5.601215 -0.811426 0.322275 -0.487533 255 0 255
15.477940 16.134489 -23.924202 -0.084689 0.896023 -0.435804 255 0 255
13.884998 15.584091 -22.940559 -0.929228 0.322245 0.180609 255 0 255
14.954712 16.134491 -23.148483 -0.435804 0.896023 0.084689 255 0 255
15.686409 16.299610 -22.953705 0.060213 0.948851 0.309885 255 0 255
15.932632 16.299610 -23.318748 0.309885 0.948851 -0.060244 255 0 255
-20.699711 16.299610 -22.136375 -0.102756 0.948851 0.298502 255 0 255
-19.948029 16.134491 -22.227425 0.419782 0.896023 0.144536 255 0 255
-20.279217 16.299610 -22.341469 0.298502 0.948851 0.102756 255 0 255
-42.492435 13.286177 7.027691 0.517991 -0.680654 -0.517991 255 0 255
-44.033558 13.286177 8.596325 -0.517991 -0.680654 0.517991 255 0 255
-44.033554 13.286177 7.027691 -0.517991 -0.680654 -0.517991 255 0 255
-20.892731 16.299610 -22.532139 -0.298502 0.948851 -0.102786 255 0 255
-20.472244 16.299610 -22.737225 0.102756 0.948851 -0.298502 255 0 255
35.671295 16.134499 19.971107 0.235267 0.896023 0.376507 255 0 255
33.835464 15.584099 20.338104 -0.802789 0.322245 0.501633 255 0 255
36.248772 15.584099 20.895264 0.501633 0.322245 0.802789 255 0 255
35.485680 16.299618 19.674068 0.167272 0.948851 0.267739 255 0 255
15.396252 13.286171 -24.344444 -0.139775 -0.680654 -0.719108 255 0 255
15.270004 15.584091 -24.993912 -0.180609 0.322245 -0.929228 255 0 255
5.540550 16.134502 44.381989 -0.208411 0.896023 0.392010 255 0 255
34.528008 15.584095 -3.171288 -0.487533 0.322245 0.811426 255 0 255
36.931221 15.584095 -3.770473 0.811426 0.322245 0.487533 255 0 255
35.089241 16.134493 -4.105370 -0.228645 0.896023 0.380535 255 0 255
35.156471 16.299612 -4.859554 -0.270608 0.948851 -0.162572 255 0 255
34.856224 16.134493 -5.039963 -0.380535 0.896023 -0.228645 255 0 255
36.812119 15.584099 18.455132 0.802789 0.322245 -0.501633 255 0 255
34.976273 16.134499 18.822113 -0.235267 0.896023 -0.376507 255 0 255
35.887970 16.134499 19.032600 0.376507 0.896023 -0.235267 255 0 255
14.534466 13.286171 -23.066795 -0.719108 -0.680654 0.139775 255 0 255
36.364082 13.286175 -4.111240 0.627918 -0.680654 0.377300 255 0 255
15.298550 16.299610 -23.215317 -0.309885 0.948851 0.060213 255 0 255
15.753242 16.134491 -22.609871 0.084689 0.896023 0.435804 255 0 255
-20.953129 13.286171 -21.400398 -0.238502 -0.680654 0.692648 255 0 255
15.544777 16.299608 -23.580360 -0.060213 0.948851 -0.309885 255 0 255
35.898155 13.286179 20.334164 0.388195 -0.680654 0.621235 255 0 255
35.269653 16.299612 -4.405605 -0.162572 0.948851 0.270608 255 0 255
35.696892 16.299612 -4.512131 0.270608 0.948851 0.162603 255 0 255
34.396545 13.286179 19.987495 -0.621235 -0.680654 0.388195 255 0 255
34.759598 16.134499 19.760628 -0.376507 0.896023 0.235267 255 0 255
5.266983 16.134502 43.487198 -0.392010 0.896023 -0.208411 255 0 255
6.699699 15.584103 42.243408 0.444411 0.322245 -0.835810 255 0 255
6.389080 13.286182 42.827583 0.343913 -0.680654 -0.646809 255 0 255
4.304810 15.584103 42.975609 -0.835810 0.322245 -0.444411 255 0 255
7.423840 15.584103 44.611984 0.835810 0.322245 0.444411 255 0 255
6.461658 16.134502 44.100380 0.391980 0.896023 0.208411 255 0 255
-30.994781 16.134502 37.748657 0.015473 0.896023 0.443709 255 0 255
6.188103 16.134502 43.205589 0.208411 0.896023 -0.392010 255 0 255
34.749405 13.286179 18.459057 -0.388195 -0.680654 -0.621235 255 0 255
36.251030 13.286179 18.805737 0.621265 -0.680654 -0.388195 255 0 255
34.398804 15.584099 17.897968 -0.501633 0.322245 -0.802789 255 0 255
35.984612 13.286175 -5.633282 0.377300 -0.680654 -0.627918 255 0 255
8.429264 30.584450 49.025581 0.000000 0.999969 0.000000 255 0 0
10.756817 30.584450 47.399925 0.000000 1.000000 0.000000 255 0 0
7.721905 30.584448 43.119469 0.000000 1.000000 0.000000 255 0 0
5.364105 30.584448 44.553925 0.000000 0.999969 0.000000 255 0 0
-29.039265 122.575012 8.940834 -0.637074 0.433851 0.637074 255 0 255
-29.239265 120.225006 6.974552 -0.598346 -0.532853 -0.598346 255 0 255
-29.239265 120.225006 9.140835 -0.598346 -0.532853 0.598346 255 0 255
-19.522243 123.325012 26.209862 0.443525 0.896207 -0.007691 255 0 255
-19.803001 122.575012 24.965622 -0.015717 0.433851 -0.900815 255 0 255
-19.785725 123.325012 25.955421 -0.007721 0.896207 -0.443525 255 0 255
-5.239265 120.225006 -14.059166 -0.598346 -0.532853 0.598346 255 0 255
-3.289265 122.575012 -14.259163 0.637074 0.433851 0.637074 255 0 255
-5.039265 122.575012 -14.259163 -0.637074 0.433851 0.637074 255 0 255
-19.563156 123.325012 -9.738373 -0.007721 0.896207 0.443556 255 0 255
-18.309875 122.575012 -9.975533 0.900815 0.433851 0.015717 255 0 255
-19.299675 123.325012 -9.992805 0.443525 0.896207 0.007752 255 0 255
-5.039265 122.575012 -16.025444 -0.637074 0.433851 -0.637074 255 0 255
-4.339264 123.325012 -14.959171 -0.313669 0.896207 0.313669 255 0 255
-4.339264 123.325012 -15.325451 -0.313669 0.896207 -0.313669 255 0 255
-20.796089 122.575012 -10.007408 -0.900815 0.433851 -0.015717 255 0 255
-19.580433 122.575012 -8.748566 -0.015717 0.433851 0.900815 255 0 255
-27.089264 120.225006 6.974552 0.598346 -0.532853 -0.598346 255 0 255
-27.289263 122.575012 8.940834 0.637074 0.433851 0.637074 255 0 255
-27.089264 120.225006 9.140835 0.598346 -0.532853 0.598346 255 0 255
-3.989265 123.325012 -15.325451 0.313669 0.896207 -0.313669 255 0 255
-3.289265 122.575012 -16.025444 0.637074 0.433851 -0.637074 255 0 255
12.679409 120.225006 -11.317177 0.014740 -0.532853 -0.846065 255 0 255
12.614632 120.225006 -8.265774 -0.014740 -0.532853 0.846065 255 0 255
11.121117 120.225006 -9.812351 -0.846065 -0.532853 -0.014771 255 0 255
14.079411 120.225021 22.482822 0.014740 -0.532853 -0.846065 255 0 255
14.014633 120.225021 25.534225 -0.014740 -0.532853 0.846065 255 0 255
12.521118 120.225021 23.987648 -0.846065 -0.532853 -0.014740 255 0 255
15.290127 122.575012 24.024467 0.900815 0.433851 0.015717 255 0 255
14.074474 122.575012 22.765621 0.015717 0.433851 -0.900815 255 0 255
14.019569 122.575012 25.251434 -0.015717 0.433851 0.900815 255 0 255
12.803913 122.575012 23.992592 -0.900815 0.433851 -0.015717 255 0 255
14.057198 123.325012 23.755424 0.007721 0.896207 -0.443556 255 0 255
-4.339260 123.325012 31.074547 -0.313669 0.896207 -0.313669 255 0 255
-3.989262 123.325012 31.440826 0.313669 0.896207 0.313669 255 0 255
-3.989262 123.325012 31.074547 0.313669 0.896207 -0.313669 255 0 255
-5.039261 122.575012 32.140831 -0.637074 0.433851 0.637074 255 0 255
-4.339260 123.325012 31.440826 -0.313669 0.896207 0.313669 255 0 255
14.036846 123.325012 24.261627 -0.007721 0.896207 0.443556 255 0 255
14.300327 123.325012 24.007195 0.443525 0.896207 0.007752 255 0 255
-3.089260 120.225021 32.340828 0.598346 -0.532853 0.598346 255 0 255
-3.289261 122.575012 30.374550 0.637074 0.433851 -0.637074 255 0 255
-3.289261 122.575012 32.140831 0.637074 0.433851 0.637074 255 0 255
-5.239262 120.225021 30.174545 -0.598346 -0.532853 -0.598346 255 0 255
-5.239262 120.225021 32.340828 -0.598346 -0.532853 0.598346 255 0 255
-19.807940 120.225021 24.682823 -0.014740 -0.532853 -0.846065 255 0 255
-19.743160 120.225021 27.734222 0.014740 -0.532853 0.846065 255 0 255
-21.301455 120.225021 26.229401 -0.846065 -0.532853 0.014740 255 0 255
-5.039261 122.575012 30.374550 -0.637074 0.433851 -0.637074 255 0 255
-18.249645 120.225021 26.187645 0.846065 -0.532853 -0.014771 255 0 255
-21.018654 122.575012 26.224464 -0.900815 0.433851 0.015717 255 0 255
-28.339264 123.325012 7.874554 -0.313669 0.896207 -0.313669 255 0 255
-27.989265 123.325012 8.240833 0.313669 0.896207 0.313669 255 0 255
-27.989265 123.325012 7.874554 0.313669 0.896207 -0.313669 255 0 255
-29.039265 122.575012 7.174553 -0.637074 0.433851 -0.637074 255 0 255
-27.289263 122.575012 7.174553 0.637074 0.433851 -0.637074 255 0 255
-3.089260 120.225021 30.174545 0.598346 -0.532853 -0.598346 255 0 255
-19.765375 123.325012 26.461624 0.007721 0.896207 0.443556 255 0 255
-20.028854 123.325012 26.207191 -0.443525 0.896207 0.007752 255 0 255
-19.585369 120.225006 -8.465775 -0.014740 -0.532853 0.846065 255 0 255
-18.532442 122.575012 26.192589 0.900815 0.433851 -0.015717 255 0 255
-19.525528 122.575012 -11.234379 0.015717 0.433851 -0.900815 255 0 255
-21.078884 120.225006 -10.012352 -0.846065 -0.532853 -0.014771 255 0 255
-19.542805 123.325012 -10.244576 0.007721 0.896207 -0.443525 255 0 255
-3.989265 123.325012 -14.959171 0.313669 0.896207 0.313669 255 0 255
13.793716 123.325012 24.009865 -0.443525 0.896207 -0.007691 255 0 255
-28.339264 123.325012 8.240833 -0.313669 0.896207 0.313669 255 0 255
-19.520592 120.225006 -11.517178 0.014740 -0.532853 -0.846065 255 0 255
12.657196 123.325012 -10.044579 0.007721 0.896207 -0.443556 255 0 255
13.890125 122.575012 -9.775532 0.900815 0.433851 0.015717 255 0 255
12.674473 122.575012 -11.034378 0.015717 0.433851 -0.900815 255 0 255
11.403912 122.575012 -9.807407 -0.900815 0.433851 -0.015717 255 0 255
-19.806286 123.325012 -9.990135 -0.443525 0.896207 -0.007691 255 0 255
-3.089264 120.225006 -14.059166 0.598346 -0.532853 0.598346 255 0 255
12.619568 122.575012 -8.548565 -0.015717 0.433851 0.900815 255 0 255
14.172924 120.225006 -9.770596 0.846065 -0.532853 0.014771 255 0 255
12.393715 123.325012 -9.790138 -0.443525 0.896207 -0.007721 255 0 255
-5.239265 120.225006 -16.225449 -0.598346 -0.532853 -0.598346 255 0 255
12.636845 123.325012 -9.538376 -0.007721 0.896207 0.443525 255 0 255
12.900326 123.325012 -9.792809 0.443525 0.896207 0.007752 255 0 255
-18.027077 120.225006 -9.970596 0.846065 -0.532853 0.014771 255 0 255
-3.089264 120.225006 -16.225449 0.598346 -0.532853 -0.598346 255 0 255
-42.795162 16.134497 8.293610 0.313913 0.896023 0.313913 255 0 255
-42.024601 15.584095 6.559853 0.669362 0.322245 -0.669362 255 0 255
-42.795158 16.134497 7.330406 0.313913 0.896023 -0.313913 255 0 255
-44.501396 15.584095 6.559849 -0.669362 0.322245 -0.669362 255 0 255
-44.501396 15.584097 9.064171 -0.669362 0.322245 0.669362 255 0 255
-43.730835 16.134497 7.330410 -0.313913 0.896023 -0.313944 255 0 255
-43.730839 16.134497 8.293606 -0.313913 0.896023 0.313913 255 0 255
-42.492439 13.286177 8.596333 0.517991 -0.680654 0.517991 255 0 255
-21.168537 15.584091 -20.774826 -0.308176 0.322245 0.895047 255 0 255
-22.254292 15.584091 -23.000954 -0.895047 0.322245 -0.308176 255 0 255
-20.813751 16.134491 -21.805191 -0.144536 0.896023 0.419782 255 0 255
-42.024601 15.584097 9.064175 0.669362 0.322245 0.669362 255 0 255
-14.073209 35.004559 -48.564705 0.577349 0.577349 0.577349 255 255 255
-14.073209 33.004559 -50.564705 0.577349 -0.577349 -0.577349 255 255 255
-14.073209 35.004559 -50.564705 0.577349 0.577349 -0.577349 255 255 255
-16.073208 35.004559 -48.564705 -0.577349 0.577349 0.577349 255 255 255
-14.073209 33.004559 -48.564705 0.577349 -0.577349 0.577349 255 255 255
-16.073208 35.004559 -50.564705 -0.577349 0.577349 -0.577349 255 255 255
-16.073208 33.004559 -48.564705 -0.577349 -0.577349 0.577349 255 255 255
-16.073208 33.004559 -50.564705 -0.577349 -0.577349 -0.577349 255 255 255
34.868759 13.286175 -3.738407 -0.377300 -0.680654 0.627918 255 0 255
5.028950 15.584103 45.344177 -0.444411 0.322245 0.835810 255 0 255
15.572926 120.225021 24.029404 0.846065 -0.532853 0.014740 255 0 255
-19.748096 122.575012 27.451431 0.015717 0.433851 0.900815 255 0 255
3 0 1 2
3 0 3 1
3 4 5 6
3 7 8 4
3 9 10 7
3 6 11 9
3 8 11 5
3 7 6 9
3 12 13 14
3 15 16 12
3 17 18 15
3 14 19 17
3 16 19 13
3 15 14 17
3 20 21 22
3 23 24 20
3 25 26 23
3 22 27 25
3 24 27 21
3 23 22 25
3 28 29 30
3 31 32 28
3 33 34 31
3 30 35 33
3 32 35 29
3 31 30 33
3 36 37 38
3 39 40 36
3 41 42 39
3 38 43 41
3 40 43 37
3 39 38 41
3 44 45 46
3 47 48 44
3 49 50 47
3 46 51 49
3 48 51 45
3 47 46 49
3 52 53 54
3 55 56 52
3 57 58 55
3 54 59 57
3 56 59 53
3 55 54 57
3 60 61 62
3 63 64 60
3 65 66 63
3 62 67 65
3 64 67 61
3 63 62 65
3 68 69 70
3 71 72 68
3 73 74 71
3 70 75 73
3 72 75 69
3 71 70 73
3 76 77 78
3 79 80 76
3 81 82 79
3 78 83 81
3 80 83 77
3 79 78 81
3 84 85 86
3 87 84 86
3 88 89 90
3 89 91 90
3 92 93 94
3 92 95 93
3 96 97 92
3 97 95 92
3 98 99 100
3 101 102 103
3 84 104 105
3 105 106 88
3 106 104 102
3 104 107 102
3 107 108 102
3 109 87 86
3 110 102 101
3 90 111 99
3 112 113 108
3 113 114 108
3 115 116 114
3 113 112 114
3 112 117 114
3 88 102 89
3 98 115 114
3 118 94 115
3 94 93 115
3 98 100 115
3 100 118 115
3 91 110 119
3 84 120 85
3 103 95 97
3 121 107 87
3 122 123 107
3 123 124 107
3 124 125 107
3 84 87 107
3 112 107 125
3 125 117 112
3 101 97 110
3 123 126 117
3 90 105 88
3 100 127 118
3 127 94 118
3 128 92 94
3 127 128 94
3 93 129 115
3 119 96 100
3 96 128 100
3 128 130 100
3 130 127 100
3 99 111 100
3 111 131 100
3 128 96 92
3 131 111 91
3 119 131 91
3 119 97 96
3 98 117 126
3 132 126 122
3 126 133 122
3 133 123 122
3 121 132 122
3 133 126 123
3 123 125 124
3 109 132 121
3 99 120 90
3 132 99 126
3 130 128 127
3 132 134 99
3 134 135 99
3 135 109 99
3 109 120 99
3 109 85 120
3 109 86 85
3 109 134 132
3 135 134 109
3 103 102 129
3 102 108 129
3 108 114 129
3 114 116 129
3 116 115 129
3 136 137 138
3 139 140 141
3 142 140 139
3 143 144 145
3 146 147 148
3 138 149 150
3 151 152 144
3 153 146 154
3 155 156 157
3 158 153 154
3 138 159 149
3 160 161 162
3 163 164 149
3 165 166 167
3 168 169 170
3 147 171 172
3 148 147 172
3 143 173 137
3 174 175 156
3 144 143 137
3 176 144 137
3 163 177 178
3 176 137 179
3 149 155 157
3 180 176 179
3 150 149 157
3 181 180 179
3 182 181 179
3 183 182 184
3 183 174 185
3 185 186 183
3 178 143 145
3 174 187 188
3 181 189 188
3 190 181 188
3 191 190 188
3 173 177 192
3 181 186 189
3 144 193 163
3 163 155 164
3 194 152 151
3 159 192 177
3 136 175 183
3 192 159 138
3 137 192 138
3 183 184 136
3 180 151 176
3 185 189 186
3 188 185 174
3 191 187 152
3 157 175 150
3 152 163 193
3 181 190 191
3 136 182 179
3 180 181 191
3 159 177 149
3 194 180 191
3 161 195 162
3 196 197 198
3 199 196 198
3 200 201 202
3 203 204 205
3 206 207 208
3 209 210 211
3 212 206 213
3 214 210 215
3 213 216 217
3 218 219 220
3 208 216 206
3 221 222 223
3 224 209 225
3 226 227 228
3 229 230 231
3 226 228 232
3 232 228 233
3 234 235 236
3 200 234 237
3 211 238 239
3 139 240 142
3 204 241 242
3 221 211 239
3 243 244 245
3 246 247 248
3 249 210 222
3 241 250 242
3 251 252 224
3 204 218 205
3 253 213 217
3 251 224 254
3 224 225 254
3 255 246 236
3 256 204 257
3 201 234 248
3 176 151 144
3 205 244 203
3 255 235 258
3 234 246 248
3 247 235 259
3 141 260 139
3 245 241 243
3 261 169 262
3 219 241 220
3 249 214 215
3 152 193 144
3 263 240 260
3 166 158 154
3 240 264 265
3 136 138 150
3 264 170 169
3 266 171 147
3 166 162 195
3 263 267 261
3 172 146 148
3 140 240 265
3 268 255 258
3 244 256 203
3 256 257 203
3 262 263 261
3 146 166 154
3 235 268 258
3 145 163 178
3 267 264 261
3 173 192 137
3 202 259 200
3 141 265 267
3 269 270 246
3 172 165 167
3 248 202 201
3 170 263 168
3 164 155 149
3 250 219 271
3 272 273 274
3 275 272 274
3 276 277 278
3 279 280 281
3 282 283 284
3 285 286 287
3 288 289 290
3 285 291 292
3 288 282 284
3 293 294 295
3 288 296 297
3 298 299 300
3 301 302 303
3 304 301 305
3 302 304 306
3 305 303 307
3 308 304 305
3 309 310 311
3 312 310 313
3 308 314 315
3 316 317 318
3 307 302 306
3 319 316 320
3 314 307 306
3 318 320 316
3 321 322 323
3 324 311 317
3 324 320 312
3 280 325 321
3 324 313 309
3 326 321 323
3 322 326 323
3 317 310 318
3 327 328 329
3 293 330 331
3 319 317 332
3 326 333 334
3 335 286 292
3 330 329 331
3 336 322 325
3 337 338 291
3 339 286 337
3 291 335 292
3 340 290 289
3 341 305 307
3 331 328 294
3 281 333 279
3 276 295 294
3 333 336 279
3 330 342 327
3 276 328 342
3 343 335 338
3 344 345 346
3 346 300 347
3 348 337 291
3 349 297 283
3 299 345 350
3 339 285 287
3 351 346 345
3 277 295 278
3 347 299 350
3 352 346 347
3 314 304 315
3 353 349 282
3 284 340 289
3 354 345 355
3 337 356 343
3 344 354 355
3 281 326 334
3 354 347 350
3 353 297 357
3 297 340 283
3 358 359 360
3 361 230 362
3 208 232 233
3 245 218 220
3 196 358 197
3 207 226 232
3 363 196 199
3 228 208 233
3 361 364 363
3 254 223 251
3 365 362 230
3 210 223 222
3 231 359 229
3 218 250 271
3 212 366 367
3 216 253 217
3 358 198 197
3 238 222 239
3 359 363 360
3 254 209 221
3 363 198 360
3 207 366 368
3 365 359 369
3 368 216 227
3 358 362 369
3 165 153 160
3 370 371 372
3 373 374 370
3 375 376 373
3 372 377 375
3 374 377 371
3 373 372 375
3 4 8 5
3 7 10 8
3 9 11 10
3 6 5 11
3 8 10 11
3 7 4 6
3 12 16 13
3 15 18 16
3 17 19 18
3 14 13 19
3 16 18 19
3 15 12 14
3 20 24 21
3 23 26 24
3 25 27 26
3 22 21 27
3 24 26 27
3 23 20 22
3 28 32 29
3 31 34 32
3 33 35 34
3 30 29 35
3 32 34 35
3 31 28 30
3 36 40 37
3 39 42 40
3 41 43 42
3 38 37 43
3 40 42 43
3 39 36 38
3 44 48 45
3 47 50 48
3 49 51 50
3 46 45 51
3 48 50 51
3 47 44 46
3 52 56 53
3 55 58 56
3 57 59 58
3 54 53 59
3 56 58 59
3 55 52 54
3 60 64 61
3 63 66 64
3 65 67 66
3 62 61 67
3 64 66 67
3 63 60 62
3 68 72 69
3 71 74 72
3 73 75 74
3 70 69 75
3 72 74 75
3 71 68 70
3 76 80 77
3 79 82 80
3 81 83 82
3 78 77 83
3 80 82 83
3 79 76 78
3 98 126 99
3 84 107 104
3 105 104 106
3 109 121 87
3 110 89 102
3 90 91 111
3 88 106 102
3 91 89 110
3 84 105 120
3 103 129 95
3 121 122 107
3 112 108 107
3 101 103 97
3 90 120 105
3 93 95 129
3 119 100 131
3 119 110 97
3 98 114 117
3 123 117 125
3 136 179 137
3 146 266 147
3 153 266 146
3 155 174 156
3 158 161 153
3 160 153 161
3 165 160 166
3 168 262 169
3 163 149 177
3 183 181 182
3 183 175 174
3 178 173 143
3 174 155 187
3 173 178 177
3 181 183 186
3 163 187 155
3 194 191 152
3 136 150 175
3 180 194 151
3 185 188 189
3 191 188 187
3 157 156 175
3 152 187 163
3 136 184 182
3 161 158 195
3 200 237 201
3 203 257 204
3 206 367 207
3 209 252 210
3 212 367 206
3 214 211 210
3 213 206 216
3 218 271 219
3 208 227 216
3 221 239 222
3 224 252 209
3 226 368 227
3 229 365 230
3 234 259 235
3 200 259 234
3 211 214 238
3 139 260 240
3 204 243 241
3 221 209 211
3 243 256 244
3 246 270 247
3 249 215 210
3 241 378 250
3 251 223 252
3 204 242 218
3 253 212 213
3 255 269 246
3 256 243 204
3 201 237 234
3 205 245 244
3 255 236 235
3 234 236 246
3 247 270 235
3 141 267 260
3 245 220 241
3 261 264 169
3 219 378 241
3 249 238 214
3 263 379 240
3 166 195 158
3 240 379 264
3 264 379 170
3 266 165 171
3 166 160 162
3 263 260 267
3 172 167 146
3 140 142 240
3 268 269 255
3 262 168 263
3 146 167 166
3 235 270 268
3 145 144 163
3 267 265 264
3 202 247 259
3 141 140 265
3 269 268 270
3 172 171 165
3 248 247 202
3 170 379 263
3 250 378 219
3 276 330 277
3 279 336 280
3 282 349 283
3 285 292 286
3 288 284 289
3 285 348 291
3 288 353 282
3 293 331 294
3 288 290 296
3 298 351 299
3 301 380 302
3 304 380 301
3 302 380 304
3 305 301 303
3 308 315 304
3 309 313 310
3 312 318 310
3 308 341 314
3 316 332 317
3 307 303 302
3 319 332 316
3 314 341 307
3 318 312 320
3 321 325 322
3 324 309 311
3 324 319 320
3 280 336 325
3 324 312 313
3 326 280 321
3 322 381 326
3 317 311 310
3 327 342 328
3 293 277 330
3 319 324 317
3 326 381 333
3 335 356 286
3 330 327 329
3 336 381 322
3 337 343 338
3 339 287 286
3 291 338 335
3 340 296 290
3 341 308 305
3 331 329 328
3 281 334 333
3 276 278 295
3 333 381 336
3 330 276 342
3 276 294 328
3 343 356 335
3 344 355 345
3 346 298 300
3 348 339 337
3 349 357 297
3 299 351 345
3 339 348 285
3 351 298 346
3 277 293 295
3 347 300 299
3 352 344 346
3 314 306 304
3 353 357 349
3 284 283 340
3 354 350 345
3 337 286 356
3 344 352 354
3 281 280 326
3 354 352 347
3 353 288 297
3 297 296 340
3 358 369 359
3 361 231 230
3 208 207 232
3 245 205 218
3 196 364 358
3 207 368 226
3 363 364 196
3 228 227 208
3 361 362 364
3 254 221 223
3 365 369 362
3 210 252 223
3 231 361 359
3 218 242 250
3 212 253 366
3 216 366 253
3 358 360 198
3 238 249 222
3 359 361 363
3 254 225 209
3 363 199 198
3 207 367 366
3 365 229 359
3 368 366 216
3 358 364 362
3 165 266 153
3 370 374 371
3 373 376 374
3 375 377 376
3 372 371 377
3 374 376 377
3 373 370 372
