ply
format ascii 1.0
comment Created by Blender 2.77 (sub 0) - www.blender.org, source file: 'Algae.blend'
element vertex 724
property float x
property float y
property float z
property float nx
property float ny
property float nz
property uchar red
property uchar green
property uchar blue
element face 308
property list uchar uint vertex_indices
end_header
-0.824569 0.348844 -0.280806 -0.905806 -0.149739 -0.396350 0 0 0
-0.768951 -0.085470 -0.243834 -0.905806 -0.149739 -0.396350 0 0 0
-0.843586 -0.085470 -0.073265 -0.905806 -0.149739 -0.396350 0 0 0
-0.749934 0.348844 -0.451375 0.082264 -0.432630 -0.897811 0 0 0
-0.591582 -0.085470 -0.227582 0.082264 -0.432630 -0.897811 0 0 0
-0.768951 -0.085470 -0.243834 0.082264 -0.432630 -0.897811 0 0 0
-0.604805 0.348844 -0.083262 0.905806 0.149739 0.396350 0 0 0
-0.549186 -0.085470 -0.046290 0.905806 0.149739 0.396350 0 0 0
-0.530170 0.348844 -0.253831 0.905806 0.149739 0.396350 0 0 0
-0.782174 0.348844 -0.099514 -0.082264 0.432630 0.897811 0 0 0
-0.623822 -0.085470 0.124279 -0.082264 0.432630 0.897811 0 0 0
-0.604805 0.348844 -0.083262 -0.082264 0.432630 0.897811 0 0 0
-0.768951 -0.085470 -0.243834 0.000000 -1.000000 -0.000001 0 0 0
-0.549186 -0.085470 -0.046290 0.000000 -1.000000 -0.000001 0 0 0
-0.843586 -0.085470 -0.073265 0.000000 -1.000000 -0.000001 0 0 0
-0.572565 0.348844 -0.435123 0.973363 -0.027449 -0.227621 0 0 0
-0.527210 0.721644 -0.286131 0.973363 -0.027449 -0.227621 0 0 0
-0.530170 0.348844 -0.253831 0.973363 -0.027449 -0.227621 0 0 0
-0.746974 0.721644 -0.483675 0.087870 0.269455 -0.958996 0 0 0
-0.578958 1.087969 -0.365352 0.087870 0.269455 -0.958996 0 0 0
-0.569606 0.721644 -0.467423 0.087870 0.269455 -0.958996 0 0 0
-0.824569 0.348844 -0.280806 -0.973363 0.027449 0.227621 0 0 0
-0.779215 0.721644 -0.131814 -0.973363 0.027449 0.227621 0 0 0
-0.821610 0.721644 -0.313106 -0.973363 0.027449 0.227621 0 0 0
-0.604805 0.348844 -0.083262 -0.090902 0.086678 0.992081 0 0 0
-0.779215 0.721644 -0.131814 -0.090902 0.086678 0.992081 0 0 0
-0.782174 0.348844 -0.099514 -0.090902 0.086678 0.992081 0 0 0
-0.572565 0.348844 -0.435123 0.090901 -0.086678 -0.992081 0 0 0
-0.746974 0.721644 -0.483675 0.090901 -0.086678 -0.992081 0 0 0
-0.569606 0.721644 -0.467423 0.090901 -0.086678 -0.992081 0 0 0
-0.536563 1.246587 -0.184059 0.060958 0.744096 -0.665286 0 0 0
-0.756327 1.087969 -0.381603 0.060958 0.744096 -0.665286 0 0 0
-0.830962 1.246587 -0.211034 0.060958 0.744096 -0.665286 0 0 0
-0.527210 0.721644 -0.286131 0.955131 0.072839 -0.287086 0 0 0
-0.578958 1.087969 -0.365352 0.955131 0.072839 -0.287086 0 0 0
-0.536563 1.246587 -0.184059 0.955131 0.072839 -0.287086 0 0 0
-0.779215 0.721644 -0.131814 -0.971886 -0.061508 0.227275 0 0 0
-0.830962 1.246587 -0.211034 -0.971886 -0.061508 0.227275 0 0 0
-0.821610 0.721644 -0.313106 -0.971886 -0.061508 0.227275 0 0 0
-0.779215 0.721644 -0.131814 -0.087870 -0.269455 0.958996 0 0 0
-0.611198 1.087969 -0.013490 -0.087870 -0.269455 0.958996 0 0 0
-0.788567 1.087969 -0.029742 -0.087870 -0.269455 0.958996 0 0 0
-0.821610 0.721644 -0.313106 -0.912584 0.087965 -0.399316 0 0 0
-0.756327 1.087969 -0.381603 -0.912584 0.087965 -0.399316 0 0 0
-0.746974 0.721644 -0.483675 -0.912584 0.087965 -0.399316 0 0 0
-0.601846 0.721644 -0.115562 0.936548 -0.071697 0.343128 0 0 0
-0.536563 1.246587 -0.184059 0.936548 -0.071697 0.343128 0 0 0
-0.611198 1.087969 -0.013490 0.936548 -0.071697 0.343128 0 0 0
-0.611198 1.087969 -0.013490 -0.060958 0.744096 0.665286 0 0 0
-0.830962 1.246587 -0.211034 -0.060958 0.744096 0.665286 0 0 0
-0.788567 1.087969 -0.029742 -0.060958 0.744096 0.665286 0 0 0
-0.749934 0.348844 -0.451375 -0.915790 -0.027449 -0.400719 0 0 0
-0.821610 0.721644 -0.313106 -0.915790 -0.027449 -0.400719 0 0 0
-0.746974 0.721644 -0.483675 -0.915790 -0.027449 -0.400719 0 0 0
-0.530170 0.348844 -0.253831 0.915790 0.027449 0.400719 0 0 0
-0.601846 0.721644 -0.115562 0.915790 0.027449 0.400719 0 0 0
-0.604805 0.348844 -0.083262 0.915790 0.027449 0.400719 0 0 0
-0.843586 -0.085470 -0.073265 -0.000000 -1.000000 0.000001 0 0 0
-0.623822 -0.085470 0.124279 -0.000000 -1.000000 0.000001 0 0 0
-0.801191 -0.085470 0.108028 -0.000000 -1.000000 0.000001 0 0 0
-0.530170 0.348844 -0.253831 0.962751 -0.149739 -0.225139 0 0 0
-0.591582 -0.085470 -0.227582 0.962751 -0.149739 -0.225139 0 0 0
-0.572565 0.348844 -0.435123 0.962751 -0.149739 -0.225139 0 0 0
-0.782174 0.348844 -0.099514 -0.962752 0.149739 0.225139 0 0 0
-0.843586 -0.085470 -0.073265 -0.962752 0.149739 0.225139 0 0 0
-0.801191 -0.085470 0.108028 -0.962752 0.149739 0.225139 0 0 0
0.163884 0.357232 -0.666773 0.173099 -0.121551 -0.977375 0 0 0
0.141014 -0.179891 -0.604024 0.173099 -0.121551 -0.977375 0 0 0
-0.042316 -0.179892 -0.636493 0.173099 -0.121551 -0.977375 0 0 0
0.347214 0.357232 -0.634304 0.922388 -0.361736 -0.135450 0 0 0
0.166892 -0.179891 -0.427802 0.922388 -0.361736 -0.135450 0 0 0
0.141014 -0.179891 -0.604024 0.922388 -0.361736 -0.135450 0 0 0
0.023506 0.357232 -0.406746 -0.173099 0.121550 0.977375 0 0 0
0.000636 -0.179892 -0.343997 -0.173099 0.121550 0.977375 0 0 0
0.206836 0.357232 -0.374277 -0.173099 0.121550 0.977375 0 0 0
-0.002372 0.357232 -0.582968 -0.922388 0.361736 0.135451 0 0 0
-0.182694 -0.179891 -0.376466 -0.922388 0.361736 0.135451 0 0 0
0.023506 0.357232 -0.406746 -0.922388 0.361736 0.135451 0 0 0
0.141014 -0.179891 -0.604024 0.000001 -1.000000 -0.000000 0 0 0
0.000636 -0.179892 -0.343997 0.000001 -1.000000 -0.000000 0 0 0
-0.042316 -0.179892 -0.636493 0.000001 -1.000000 -0.000000 0 0 0
0.373091 0.357232 -0.458082 0.450009 -0.022198 0.892748 0 0 0
0.238927 0.818281 -0.378990 0.450009 -0.022198 0.892748 0 0 0
0.206836 0.357232 -0.374277 0.450009 -0.022198 0.892748 0 0 0
0.379305 0.818281 -0.639016 0.964999 0.220670 -0.141708 0 0 0
0.303771 1.271323 -0.447902 0.964999 0.220670 -0.141708 0 0 0
0.405183 0.818281 -0.462794 0.964999 0.220670 -0.141708 0 0 0
0.163884 0.357232 -0.666773 -0.450009 0.022198 -0.892748 0 0 0
0.029719 0.818281 -0.587680 -0.450009 0.022198 -0.892748 0 0 0
0.195975 0.818281 -0.671485 -0.450009 0.022198 -0.892748 0 0 0
0.023506 0.357232 -0.406746 -0.986950 0.070178 0.144931 0 0 0
0.029719 0.818281 -0.587680 -0.986950 0.070178 0.144931 0 0 0
-0.002372 0.357232 -0.582968 -0.986950 0.070178 0.144931 0 0 0
0.373091 0.357232 -0.458082 0.986950 -0.070178 -0.144931 0 0 0
0.379305 0.818281 -0.639016 0.986950 -0.070178 -0.144931 0 0 0
0.405183 0.818281 -0.462794 0.986950 -0.070178 -0.144931 0 0 0
0.137515 1.467489 -0.364097 0.735186 0.669213 -0.107960 0 0 0
0.277893 1.271323 -0.624124 0.735186 0.669213 -0.107960 0 0 0
0.094563 1.467489 -0.656593 0.735186 0.669213 -0.107960 0 0 0
0.238927 0.818281 -0.378990 0.503930 0.058951 0.861730 0 0 0
0.303771 1.271323 -0.447902 0.503930 0.058951 0.861730 0 0 0
0.137515 1.467489 -0.364097 0.503930 0.058951 0.861730 0 0 0
0.029719 0.818281 -0.587680 -0.449562 -0.049767 -0.891862 0 0 0
0.094563 1.467489 -0.656593 -0.449562 -0.049767 -0.891862 0 0 0
0.195975 0.818281 -0.671485 -0.449562 -0.049767 -0.891862 0 0 0
0.029719 0.818281 -0.587680 -0.964999 -0.220670 0.141708 0 0 0
-0.045815 1.271323 -0.396566 -0.964999 -0.220670 0.141708 0 0 0
-0.071693 1.271323 -0.572788 -0.964999 -0.220670 0.141708 0 0 0
0.195975 0.818281 -0.671485 0.173949 0.071223 -0.982176 0 0 0
0.277893 1.271323 -0.624124 0.173949 0.071223 -0.982176 0 0 0
0.379305 0.818281 -0.639016 0.173949 0.071223 -0.982176 0 0 0
0.055597 0.818281 -0.411458 -0.113571 -0.058026 0.991834 0 0 0
0.137515 1.467489 -0.364097 -0.113571 -0.058026 0.991834 0 0 0
-0.045815 1.271323 -0.396566 -0.113571 -0.058026 0.991834 0 0 0
-0.045815 1.271323 -0.396566 -0.735186 0.669213 0.107960 0 0 0
0.094563 1.467489 -0.656593 -0.735186 0.669213 0.107960 0 0 0
-0.071693 1.271323 -0.572788 -0.735186 0.669213 0.107960 0 0 0
0.347214 0.357232 -0.634304 0.174349 -0.022198 -0.984434 0 0 0
0.195975 0.818281 -0.671485 0.174349 -0.022198 -0.984434 0 0 0
0.379305 0.818281 -0.639016 0.174349 -0.022198 -0.984434 0 0 0
0.206836 0.357232 -0.374277 -0.174349 0.022198 0.984434 0 0 0
0.055597 0.818281 -0.411458 -0.174349 0.022198 0.984434 0 0 0
0.023506 0.357232 -0.406746 -0.174349 0.022198 0.984434 0 0 0
-0.042316 -0.179892 -0.636493 -0.000001 -1.000000 0.000000 0 0 0
-0.182694 -0.179891 -0.376466 -0.000001 -1.000000 0.000000 0 0 0
-0.208572 -0.179891 -0.552688 -0.000001 -1.000000 0.000000 0 0 0
0.206836 0.357232 -0.374277 0.446782 -0.121551 0.886347 0 0 0
0.166892 -0.179891 -0.427802 0.446782 -0.121551 0.886347 0 0 0
0.373091 0.357232 -0.458082 0.446782 -0.121551 0.886347 0 0 0
-0.002372 0.357232 -0.582968 -0.446782 0.121550 -0.886347 0 0 0
-0.042316 -0.179892 -0.636493 -0.446782 0.121550 -0.886347 0 0 0
-0.208572 -0.179891 -0.552688 -0.446782 0.121550 -0.886347 0 0 0
0.507866 0.467769 -0.136705 0.542014 -0.109919 0.833149 0 0 0
0.481701 -0.127005 -0.198152 0.542014 -0.109919 0.833149 0 0 0
0.637765 -0.127005 -0.299681 0.542014 -0.109919 0.833149 0 0 0
0.351802 0.467769 -0.035176 -0.588216 -0.330690 0.738001 0 0 0
0.342418 -0.127005 -0.309166 -0.588216 -0.330690 0.738001 0 0 0
0.481701 -0.127005 -0.198152 -0.588216 -0.330690 0.738001 0 0 0
0.432747 0.467769 -0.422497 -0.542014 0.109919 -0.833149 0 0 0
0.406582 -0.127005 -0.483944 -0.542014 0.109919 -0.833149 0 0 0
0.276683 0.467769 -0.320967 -0.542014 0.109919 -0.833149 0 0 0
0.572030 0.467769 -0.311483 0.588216 0.330690 -0.738001 0 0 0
0.562646 -0.127005 -0.585473 0.588216 0.330690 -0.738001 0 0 0
0.432747 0.467769 -0.422497 0.588216 0.330690 -0.738001 0 0 0
0.481701 -0.127005 -0.198152 -0.000000 -1.000000 0.000001 0 0 0
0.406582 -0.127005 -0.483944 -0.000000 -1.000000 0.000001 0 0 0
0.637765 -0.127005 -0.299681 -0.000000 -1.000000 0.000001 0 0 0
0.212519 0.467769 -0.146190 -0.938552 -0.020047 -0.344556 0 0 0
0.256466 0.978302 -0.295603 -0.938552 -0.020047 -0.344556 0 0 0
0.276683 0.467769 -0.320967 -0.938552 -0.020047 -0.344556 0 0 0
0.331586 0.978302 -0.009811 -0.610666 0.200182 0.766168 0 0 0
0.256189 1.479969 -0.200980 -0.610666 0.200182 0.766168 0 0 0
0.192303 0.978302 -0.120825 -0.610666 0.200182 0.766168 0 0 0
0.507866 0.467769 -0.136705 0.938552 0.020047 0.344556 0 0 0
0.551813 0.978302 -0.286118 0.938552 0.020047 0.344556 0 0 0
0.487650 0.978302 -0.111340 0.938552 0.020047 0.344556 0 0 0
0.432747 0.467769 -0.422497 0.622028 0.063405 -0.780423 0 0 0
0.551813 0.978302 -0.286118 0.622028 0.063405 -0.780423 0 0 0
0.572030 0.467769 -0.311483 0.622028 0.063405 -0.780423 0 0 0
0.212519 0.467769 -0.146190 -0.622028 -0.063405 0.780423 0 0 0
0.331586 0.978302 -0.009811 -0.622028 -0.063405 0.780423 0 0 0
0.192303 0.978302 -0.120825 -0.622028 -0.063405 0.780423 0 0 0
0.320352 1.697188 -0.375757 -0.483546 0.630973 0.606677 0 0 0
0.395472 1.479969 -0.089965 -0.483546 0.630973 0.606677 0 0 0
0.551536 1.697188 -0.191495 -0.483546 0.630973 0.606677 0 0 0
0.256466 0.978302 -0.295603 -0.957004 0.053254 -0.285144 0 0 0
0.256189 1.479969 -0.200980 -0.957004 0.053254 -0.285144 0 0 0
0.320352 1.697188 -0.375757 -0.957004 0.053254 -0.285144 0 0 0
0.551813 0.978302 -0.286118 0.937791 -0.044954 0.344277 0 0 0
0.551536 1.697188 -0.191495 0.937791 -0.044954 0.344277 0 0 0
0.487650 0.978302 -0.111340 0.937791 -0.044954 0.344277 0 0 0
0.551813 0.978302 -0.286118 0.610667 -0.200182 -0.766168 0 0 0
0.476417 1.479969 -0.477286 0.610667 -0.200182 -0.766168 0 0 0
0.615699 1.479969 -0.366272 0.610667 -0.200182 -0.766168 0 0 0
0.487650 0.978302 -0.111340 0.544188 0.064350 0.836491 0 0 0
0.395472 1.479969 -0.089965 0.544188 0.064350 0.836491 0 0 0
0.331586 0.978302 -0.009811 0.544188 0.064350 0.836491 0 0 0
0.412530 0.978302 -0.397132 -0.594809 -0.052418 -0.802156 0 0 0
0.320352 1.697188 -0.375757 -0.594809 -0.052418 -0.802156 0 0 0
0.476417 1.479969 -0.477286 -0.594809 -0.052418 -0.802156 0 0 0
0.476417 1.479969 -0.477286 0.483546 0.630972 -0.606677 0 0 0
0.551536 1.697188 -0.191495 0.483546 0.630972 -0.606677 0 0 0
0.615699 1.479969 -0.366272 0.483546 0.630972 -0.606677 0 0 0
0.351802 0.467769 -0.035176 0.545209 -0.020047 0.838060 0 0 0
0.487650 0.978302 -0.111340 0.545209 -0.020047 0.838060 0 0 0
0.331586 0.978302 -0.009811 0.545209 -0.020047 0.838060 0 0 0
0.276683 0.467769 -0.320967 -0.545209 0.020047 -0.838060 0 0 0
0.412530 0.978302 -0.397132 -0.545209 0.020047 -0.838060 0 0 0
0.432747 0.467769 -0.422497 -0.545209 0.020047 -0.838060 0 0 0
0.637765 -0.127005 -0.299681 0.000000 -1.000000 -0.000001 0 0 0
0.562646 -0.127005 -0.585473 0.000000 -1.000000 -0.000001 0 0 0
0.701929 -0.127005 -0.474459 0.000000 -1.000000 -0.000001 0 0 0
0.276683 0.467769 -0.320967 -0.933052 -0.109919 -0.342537 0 0 0
0.342418 -0.127005 -0.309166 -0.933052 -0.109919 -0.342537 0 0 0
0.212519 0.467769 -0.146190 -0.933052 -0.109919 -0.342537 0 0 0
0.572030 0.467769 -0.311483 0.933052 0.109919 0.342537 0 0 0
0.637765 -0.127005 -0.299681 0.933052 0.109919 0.342537 0 0 0
0.701929 -0.127005 -0.474459 0.933052 0.109919 0.342537 0 0 0
-0.358376 0.357232 0.256635 -0.215298 -0.121551 -0.968954 0 0 0
-0.355409 -0.179891 0.323355 -0.215298 -0.121551 -0.968954 0 0 0
-0.537160 -0.179892 0.363740 -0.215298 -0.121551 -0.968954 0 0 0
-0.176626 0.357232 0.216251 0.799751 -0.361736 -0.479109 0 0 0
-0.263876 -0.179891 0.476147 0.799751 -0.361736 -0.479109 0 0 0
-0.355409 -0.179891 0.323355 0.799751 -0.361736 -0.479109 0 0 0
-0.388198 0.357232 0.550626 0.215298 0.121550 0.968954 0 0 0
-0.385231 -0.179892 0.617346 0.215298 0.121550 0.968954 0 0 0
-0.206447 0.357232 0.510241 0.215298 0.121550 0.968954 0 0 0
-0.479732 0.357232 0.397833 -0.799751 0.361736 0.479109 0 0 0
-0.566982 -0.179891 0.657730 -0.799751 0.361736 0.479109 0 0 0
-0.388198 0.357232 0.550626 -0.799751 0.361736 0.479109 0 0 0
-0.355409 -0.179891 0.323355 0.000001 -1.000000 -0.000001 0 0 0
-0.385231 -0.179892 0.617346 0.000001 -1.000000 -0.000001 0 0 0
-0.537160 -0.179892 0.363740 0.000001 -1.000000 -0.000001 0 0 0
-0.085092 0.357232 0.369043 0.758198 -0.022198 0.651646 0 0 0
-0.178623 0.818281 0.493572 0.758198 -0.022198 0.651646 0 0 0
-0.206447 0.357232 0.510241 0.758198 -0.022198 0.651646 0 0 0
-0.148801 0.818281 0.199582 0.836697 0.220670 -0.501242 0 0 0
-0.145196 1.271323 0.405050 0.836697 0.220670 -0.501242 0 0 0
-0.057267 0.818281 0.352374 0.836697 0.220670 -0.501242 0 0 0
-0.358376 0.357232 0.256635 -0.758198 0.022198 -0.651646 0 0 0
-0.451907 0.818281 0.381164 -0.758198 0.022198 -0.651646 0 0 0
-0.330552 0.818281 0.239966 -0.758198 0.022198 -0.651646 0 0 0
-0.388198 0.357232 0.550626 -0.855729 0.070178 0.512644 0 0 0
-0.451907 0.818281 0.381164 -0.855729 0.070178 0.512644 0 0 0
-0.479732 0.357232 0.397833 -0.855729 0.070178 0.512644 0 0 0
-0.085092 0.357232 0.369043 0.855729 -0.070178 -0.512644 0 0 0
-0.148801 0.818281 0.199582 0.855729 -0.070178 -0.512644 0 0 0
-0.057267 0.818281 0.352374 0.855729 -0.070178 -0.512644 0 0 0
-0.266551 1.467489 0.546248 0.637438 0.669213 -0.381872 0 0 0
-0.236730 1.271323 0.252257 0.637438 0.669213 -0.381872 0 0 0
-0.418480 1.467489 0.292642 0.637438 0.669213 -0.381872 0 0 0
-0.178623 0.818281 0.493572 0.796084 0.058951 0.602308 0 0 0
-0.145196 1.271323 0.405050 0.796084 0.058951 0.602308 0 0 0
-0.266551 1.467489 0.546248 0.796084 0.058951 0.602308 0 0 0
-0.451907 0.818281 0.381164 -0.757445 -0.049767 -0.650999 0 0 0
-0.418480 1.467489 0.292642 -0.757445 -0.049767 -0.650999 0 0 0
-0.330552 0.818281 0.239966 -0.757445 -0.049767 -0.650999 0 0 0
-0.451907 0.818281 0.381164 -0.836696 -0.220670 0.501243 0 0 0
-0.448302 1.271323 0.586632 -0.836696 -0.220670 0.501243 0 0 0
-0.539836 1.271323 0.433840 -0.836696 -0.220670 0.501243 0 0 0
-0.330552 0.818281 0.239966 -0.216355 0.071223 -0.973713 0 0 0
-0.236730 1.271323 0.252257 -0.216355 0.071223 -0.973713 0 0 0
-0.148801 0.818281 0.199582 -0.216355 0.071223 -0.973713 0 0 0
-0.360373 0.818281 0.533957 0.275815 -0.058026 0.959458 0 0 0
-0.266551 1.467489 0.546248 0.275815 -0.058026 0.959458 0 0 0
-0.448302 1.271323 0.586632 0.275815 -0.058026 0.959458 0 0 0
-0.448302 1.271323 0.586632 -0.637438 0.669213 0.381872 0 0 0
-0.418480 1.467489 0.292642 -0.637438 0.669213 0.381872 0 0 0
-0.539836 1.271323 0.433840 -0.637438 0.669213 0.381872 0 0 0
-0.176626 0.357232 0.216251 -0.216852 -0.022198 -0.975952 0 0 0
-0.330552 0.818281 0.239966 -0.216852 -0.022198 -0.975952 0 0 0
-0.148801 0.818281 0.199582 -0.216852 -0.022198 -0.975952 0 0 0
-0.206447 0.357232 0.510241 0.216853 0.022198 0.975952 0 0 0
-0.360373 0.818281 0.533957 0.216853 0.022198 0.975952 0 0 0
-0.388198 0.357232 0.550626 0.216853 0.022198 0.975952 0 0 0
-0.537160 -0.179892 0.363740 -0.000001 -1.000000 0.000001 0 0 0
-0.566982 -0.179891 0.657730 -0.000001 -1.000000 0.000001 0 0 0
-0.658516 -0.179891 0.504938 -0.000001 -1.000000 0.000001 0 0 0
-0.206447 0.357232 0.510241 0.752762 -0.121550 0.646974 0 0 0
-0.263876 -0.179891 0.476147 0.752762 -0.121550 0.646974 0 0 0
-0.085092 0.357232 0.369043 0.752762 -0.121550 0.646974 0 0 0
-0.479732 0.357232 0.397833 -0.752761 0.121551 -0.646974 0 0 0
-0.537160 -0.179892 0.363740 -0.752761 0.121551 -0.646974 0 0 0
-0.658516 -0.179891 0.504938 -0.752761 0.121551 -0.646974 0 0 0
-0.311982 0.590052 0.075567 -0.193233 -0.092642 0.976769 0 0 0
-0.287861 -0.116892 0.013288 -0.193233 -0.092642 0.976769 0 0 0
-0.105218 -0.116892 0.049421 -0.193233 -0.092642 0.976769 0 0 0
-0.494625 0.590052 0.039435 -0.951608 -0.282773 0.120335 0 0 0
-0.310206 -0.116892 -0.163416 -0.951608 -0.282773 0.120335 0 0 0
-0.287861 -0.116892 0.013288 -0.951608 -0.282773 0.120335 0 0 0
-0.166427 0.590052 -0.181598 0.193233 0.092642 -0.976769 0 0 0
-0.142306 -0.116892 -0.243876 0.193233 0.092642 -0.976769 0 0 0
-0.349071 0.590052 -0.217730 0.193233 0.092642 -0.976769 0 0 0
-0.144082 0.590052 -0.004893 0.951609 0.282773 -0.120335 0 0 0
0.040337 -0.116892 -0.207744 0.951609 0.282773 -0.120335 0 0 0
-0.166427 0.590052 -0.181598 0.951609 0.282773 -0.120335 0 0 0
-0.287861 -0.116892 0.013288 -0.000001 -1.000000 0.000000 0 0 0
-0.142306 -0.116892 -0.243876 -0.000001 -1.000000 0.000000 0 0 0
-0.105218 -0.116892 0.049421 -0.000001 -1.000000 0.000000 0 0 0
-0.516971 0.590052 -0.137270 -0.432093 -0.016867 -0.901671 0 0 0
-0.381250 1.196868 -0.213661 -0.432093 -0.016867 -0.901671 0 0 0
-0.349071 0.590052 -0.217730 -0.432093 -0.016867 -0.901671 0 0 0
-0.526805 1.196868 0.043504 -0.977758 0.169414 0.123642 0 0 0
-0.447460 1.793146 -0.146060 -0.977758 0.169414 0.123642 0 0 0
-0.549150 1.196868 -0.133201 -0.977758 0.169414 0.123642 0 0 0
-0.311982 0.590052 0.075567 0.432093 0.016867 0.901671 0 0 0
-0.176261 1.196868 -0.000824 0.432093 0.016867 0.901671 0 0 0
-0.344161 1.196868 0.079636 0.432093 0.016867 0.901671 0 0 0
-0.166427 0.590052 -0.181598 0.990685 0.053376 -0.125277 0 0 0
-0.176261 1.196868 -0.000824 0.990685 0.053376 -0.125277 0 0 0
-0.144082 0.590052 -0.004893 0.990685 0.053376 -0.125277 0 0 0
-0.516971 0.590052 -0.137270 -0.990685 -0.053376 0.125277 0 0 0
-0.526805 1.196868 0.043504 -0.990685 -0.053376 0.125277 0 0 0
-0.549150 1.196868 -0.133201 -0.990685 -0.053376 0.125277 0 0 0
-0.279560 2.051332 -0.226520 -0.818766 0.564714 0.103537 0 0 0
-0.425115 1.793146 0.030645 -0.818766 0.564714 0.103537 0 0 0
-0.242472 2.051332 0.066777 -0.818766 0.564714 0.103537 0 0 0
-0.381250 1.196868 -0.213661 -0.486937 0.044823 -0.872286 0 0 0
-0.447460 1.793146 -0.146060 -0.486937 0.044823 -0.872286 0 0 0
-0.279560 2.051332 -0.226520 -0.486937 0.044823 -0.872286 0 0 0
-0.176261 1.196868 -0.000824 0.431845 -0.037832 0.901154 0 0 0
-0.242472 2.051332 0.066777 0.431845 -0.037832 0.901154 0 0 0
-0.344161 1.196868 0.079636 0.431845 -0.037832 0.901154 0 0 0
-0.176261 1.196868 -0.000824 0.977759 -0.169414 -0.123642 0 0 0
-0.096917 1.793146 -0.190388 0.977759 -0.169414 -0.123642 0 0 0
-0.074572 1.793146 -0.013683 0.977759 -0.169414 -0.123642 0 0 0
-0.344161 1.196868 0.079636 -0.193783 0.054172 0.979548 0 0 0
-0.425115 1.793146 0.030645 -0.193783 0.054172 0.979548 0 0 0
-0.526805 1.196868 0.043504 -0.193783 0.054172 0.979548 0 0 0
-0.198606 1.196868 -0.177529 0.133498 -0.044118 -0.990067 0 0 0
-0.279560 2.051332 -0.226520 0.133498 -0.044118 -0.990067 0 0 0
-0.096917 1.793146 -0.190388 0.133498 -0.044118 -0.990067 0 0 0
-0.096917 1.793146 -0.190388 0.818766 0.564714 -0.103537 0 0 0
-0.242472 2.051332 0.066777 0.818766 0.564714 -0.103537 0 0 0
-0.074572 1.793146 -0.013683 0.818766 0.564714 -0.103537 0 0 0
-0.494625 0.590052 0.039435 -0.194040 -0.016867 0.980849 0 0 0
-0.344161 1.196868 0.079636 -0.194040 -0.016867 0.980849 0 0 0
-0.526805 1.196868 0.043504 -0.194040 -0.016867 0.980849 0 0 0
-0.349071 0.590052 -0.217730 0.194040 0.016867 -0.980849 0 0 0
-0.198606 1.196868 -0.177529 0.194040 0.016867 -0.980849 0 0 0
-0.166427 0.590052 -0.181598 0.194040 0.016867 -0.980849 0 0 0
-0.105218 -0.116892 0.049421 0.000001 -1.000000 -0.000000 0 0 0
0.040337 -0.116892 -0.207744 0.000001 -1.000000 -0.000000 0 0 0
0.062682 -0.116892 -0.031039 0.000001 -1.000000 -0.000000 0 0 0
-0.349071 0.590052 -0.217730 -0.430296 -0.092642 -0.897921 0 0 0
-0.310206 -0.116892 -0.163416 -0.430296 -0.092642 -0.897921 0 0 0
-0.516971 0.590052 -0.137270 -0.430296 -0.092642 -0.897921 0 0 0
-0.144082 0.590052 -0.004893 0.430296 0.092642 0.897921 0 0 0
-0.105218 -0.116892 0.049421 0.430296 0.092642 0.897921 0 0 0
0.062682 -0.116892 -0.031039 0.430296 0.092642 0.897921 0 0 0
0.646702 0.349036 0.040426 0.647251 -0.148950 -0.747583 0 0 0
0.594897 -0.087633 0.082577 0.647251 -0.148950 -0.747583 0 0 0
0.454140 -0.087633 -0.039290 0.647251 -0.148950 -0.747583 0 0 0
0.719333 0.349036 0.326861 0.833853 -0.430730 0.345196 0 0 0
0.594897 -0.087633 0.082577 0.833853 -0.430730 0.345196 0 0 0
0.787460 0.349036 0.162293 0.833853 -0.430730 0.345196 0 0 0
0.392866 0.349036 0.191711 -0.647251 0.148950 0.747583 0 0 0
0.341061 -0.087633 0.233862 -0.647251 0.148950 0.747583 0 0 0
0.533624 0.349036 0.313578 -0.647251 0.148950 0.747583 0 0 0
0.392866 0.349036 0.191711 -0.833853 0.430731 -0.345196 0 0 0
0.268431 -0.087633 -0.052573 -0.833853 0.430731 -0.345196 0 0 0
0.200304 -0.087633 0.111995 -0.833853 0.430731 -0.345196 0 0 0
0.454140 -0.087633 -0.039290 0.000001 -1.000000 0.000000 0 0 0
0.526770 -0.087633 0.247144 0.000001 -1.000000 0.000000 0 0 0
0.341061 -0.087633 0.233862 0.000001 -1.000000 0.000000 0 0 0
0.719333 0.349036 0.326861 -0.071316 -0.027301 0.997080 0 0 0
0.563593 0.723857 0.325984 -0.071316 -0.027301 0.997080 0 0 0
0.533624 0.349036 0.313578 -0.071316 -0.027301 0.997080 0 0 0
0.749302 0.723857 0.339267 0.890130 0.268106 0.368493 0 0 0
0.722724 1.092170 0.135494 0.890130 0.268106 0.368493 0 0 0
0.654597 1.092170 0.300061 0.890130 0.268106 0.368493 0 0 0
0.646702 0.349036 0.040426 0.071316 0.027301 -0.997080 0 0 0
0.490963 0.723857 0.039550 0.071316 0.027301 -0.997080 0 0 0
0.676671 0.723857 0.052833 0.071316 0.027301 -0.997080 0 0 0
0.460993 0.349036 0.027144 -0.920516 0.086214 -0.381073 0 0 0
0.422835 0.723857 0.204118 -0.920516 0.086214 -0.381073 0 0 0
0.490963 0.723857 0.039550 -0.920516 0.086214 -0.381073 0 0 0
0.787460 0.349036 0.162293 0.920517 -0.086214 0.381072 0 0 0
0.749302 0.723857 0.339267 0.920517 -0.086214 0.381072 0 0 0
0.719333 0.349036 0.326861 0.920517 -0.086214 0.381072 0 0 0
0.654597 1.092170 0.300061 0.619117 0.742297 0.256300 0 0 0
0.581966 1.251647 0.013627 0.619117 0.742297 0.256300 0 0 0
0.468888 1.251647 0.286779 0.619117 0.742297 0.256300 0 0 0
0.563593 0.723857 0.325984 -0.009119 0.072448 0.997330 0 0 0
0.654597 1.092170 0.300061 -0.009119 0.072448 0.997330 0 0 0
0.468888 1.251647 0.286779 -0.009119 0.072448 0.997330 0 0 0
0.490963 0.723857 0.039550 0.071209 -0.061177 -0.995583 0 0 0
0.581966 1.251647 0.013627 0.071209 -0.061177 -0.995583 0 0 0
0.676671 0.723857 0.052833 0.071209 -0.061177 -0.995583 0 0 0
0.422835 0.723857 0.204118 -0.890130 -0.268107 -0.368494 0 0 0
0.396257 1.092170 0.000344 -0.890130 -0.268107 -0.368494 0 0 0
0.490963 0.723857 0.039550 -0.890130 -0.268107 -0.368494 0 0 0
0.676671 0.723857 0.052833 0.652042 0.087494 -0.753117 0 0 0
0.722724 1.092170 0.135494 0.652042 0.087494 -0.753117 0 0 0
0.817429 0.723857 0.174699 0.652042 0.087494 -0.753117 0 0 0
0.422835 0.723857 0.204118 -0.605480 -0.071313 0.792659 0 0 0
0.468888 1.251647 0.286779 -0.605480 -0.071313 0.792659 0 0 0
0.328130 1.092170 0.164912 -0.605480 -0.071313 0.792659 0 0 0
0.468888 1.251647 0.286779 -0.619117 0.742297 -0.256300 0 0 0
0.396257 1.092170 0.000344 -0.619117 0.742297 -0.256300 0 0 0
0.328130 1.092170 0.164912 -0.619117 0.742297 -0.256300 0 0 0
0.787460 0.349036 0.162293 0.654309 -0.027301 -0.755735 0 0 0
0.676671 0.723857 0.052833 0.654309 -0.027301 -0.755735 0 0 0
0.817429 0.723857 0.174699 0.654309 -0.027301 -0.755735 0 0 0
0.533624 0.349036 0.313578 -0.654309 0.027301 0.755735 0 0 0
0.422835 0.723857 0.204118 -0.654309 0.027301 0.755735 0 0 0
0.392866 0.349036 0.191711 -0.654309 0.027301 0.755735 0 0 0
0.268431 -0.087633 -0.052573 -0.000001 -1.000000 -0.000000 0 0 0
0.341061 -0.087633 0.233862 -0.000001 -1.000000 -0.000000 0 0 0
0.200304 -0.087633 0.111995 -0.000001 -1.000000 -0.000000 0 0 0
0.533624 0.349036 0.313578 -0.070547 -0.148950 0.986325 0 0 0
0.526770 -0.087633 0.247144 -0.070547 -0.148950 0.986325 0 0 0
0.719333 0.349036 0.326861 -0.070547 -0.148950 0.986325 0 0 0
0.460993 0.349036 0.027144 0.070547 0.148950 -0.986325 0 0 0
0.454140 -0.087633 -0.039290 0.070547 0.148950 -0.986325 0 0 0
0.268431 -0.087633 -0.052573 0.070547 0.148950 -0.986325 0 0 0
0.347032 0.266468 0.566374 0.937774 -0.152627 0.311907 0 0 0
0.288272 -0.159439 0.534630 0.937774 -0.152627 0.311907 0 0 0
0.347032 -0.159439 0.357963 0.937774 -0.152627 0.311907 0 0 0
0.110160 0.266468 0.743041 0.000000 -0.439533 0.898227 0 0 0
0.288272 -0.159439 0.534630 0.000000 -0.439533 0.898227 0 0 0
0.288272 0.266468 0.743041 0.000000 -0.439533 0.898227 0 0 0
0.110160 0.266468 0.389706 -0.937773 0.152627 -0.311907 0 0 0
0.051400 -0.159439 0.357963 -0.937773 0.152627 -0.311907 0 0 0
0.051400 0.266468 0.566374 -0.937773 0.152627 -0.311907 0 0 0
0.288272 0.266468 0.389706 0.000000 0.439533 -0.898226 0 0 0
0.110160 -0.159439 0.181295 0.000000 0.439533 -0.898226 0 0 0
0.110160 0.266468 0.389706 0.000000 0.439533 -0.898226 0 0 0
0.288272 -0.159439 0.534630 0.000000 -1.000000 0.000000 0 0 0
0.051400 -0.159439 0.357963 0.000000 -1.000000 0.000000 0 0 0
0.347032 -0.159439 0.357963 0.000000 -1.000000 0.000000 0 0 0
0.110160 0.266468 0.743041 -0.948519 -0.027990 0.315481 0 0 0
0.051400 0.632052 0.598809 -0.948519 -0.027990 0.315481 0 0 0
0.051400 0.266468 0.566374 -0.948519 -0.027990 0.315481 0 0 0
0.288272 0.632052 0.775477 0.000000 0.274377 0.961622 0 0 0
0.110160 0.991287 0.672977 0.000000 0.274377 0.961622 0 0 0
0.110160 0.632052 0.775477 0.000000 0.274377 0.961622 0 0 0
0.347032 0.266468 0.566374 0.948519 0.027990 -0.315481 0 0 0
0.288272 0.632052 0.422142 0.948519 0.027990 -0.315481 0 0 0
0.347032 0.632052 0.598809 0.948519 0.027990 -0.315481 0 0 0
0.110160 0.266468 0.389706 0.000000 0.088376 -0.996087 0 0 0
0.288272 0.632052 0.422142 0.000000 0.088376 -0.996087 0 0 0
0.288272 0.266468 0.389706 0.000000 0.088376 -0.996087 0 0 0
0.288272 0.266468 0.743041 0.000000 -0.088375 0.996087 0 0 0
0.110160 0.632052 0.775477 0.000000 -0.088375 0.996087 0 0 0
0.110160 0.266468 0.743041 0.000000 -0.088375 0.996087 0 0 0
0.110160 0.991287 0.672977 -0.000000 0.750545 0.660819 0 0 0
0.347032 1.146834 0.496310 -0.000000 0.750545 0.660819 0 0 0
0.051400 1.146834 0.496310 -0.000000 0.750545 0.660819 0 0 0
0.051400 0.632052 0.598809 -0.924854 0.074269 0.373000 0 0 0
0.110160 0.991287 0.672977 -0.924854 0.074269 0.373000 0 0 0
0.051400 1.146834 0.496310 -0.924854 0.074269 0.373000 0 0 0
0.288272 0.632052 0.422142 0.947023 -0.062717 -0.314983 0 0 0
0.347032 1.146834 0.496310 0.947023 -0.062717 -0.314983 0 0 0
0.347032 0.632052 0.598809 0.947023 -0.062717 -0.314983 0 0 0
0.110160 0.632052 0.422142 0.000000 -0.274377 -0.961622 0 0 0
0.288272 0.991287 0.319642 0.000000 -0.274377 -0.961622 0 0 0
0.288272 0.632052 0.422142 0.000000 -0.274377 -0.961622 0 0 0
0.347032 0.632052 0.598809 0.945067 0.089688 0.314333 0 0 0
0.288272 0.991287 0.672977 0.945067 0.089688 0.314333 0 0 0
0.288272 0.632052 0.775477 0.945067 0.089688 0.314333 0 0 0
0.110160 0.632052 0.422142 -0.963851 -0.073105 -0.256215 0 0 0
0.051400 1.146834 0.496310 -0.963851 -0.073105 -0.256215 0 0 0
0.110160 0.991287 0.319642 -0.963851 -0.073105 -0.256215 0 0 0
0.051400 1.146834 0.496310 0.000000 0.750545 -0.660819 0 0 0
0.288272 0.991287 0.319642 0.000000 0.750545 -0.660819 0 0 0
0.110160 0.991287 0.319642 0.000000 0.750545 -0.660819 0 0 0
0.288272 0.266468 0.743041 0.948519 -0.027990 0.315481 0 0 0
0.347032 0.632052 0.598809 0.948519 -0.027990 0.315481 0 0 0
0.288272 0.632052 0.775477 0.948519 -0.027990 0.315481 0 0 0
0.051400 0.266468 0.566374 -0.948519 0.027990 -0.315481 0 0 0
0.110160 0.632052 0.422142 -0.948519 0.027990 -0.315481 0 0 0
0.110160 0.266468 0.389706 -0.948519 0.027990 -0.315481 0 0 0
0.110160 -0.159439 0.181295 -0.000000 -1.000000 -0.000000 0 0 0
0.288272 -0.159439 0.181295 -0.000000 -1.000000 -0.000000 0 0 0
0.051400 0.266468 0.566374 -0.937773 -0.152627 0.311907 0 0 0
0.110160 -0.159439 0.534630 -0.937773 -0.152627 0.311907 0 0 0
0.110160 0.266468 0.743041 -0.937773 -0.152627 0.311907 0 0 0
0.288272 0.266468 0.389706 0.937773 0.152627 -0.311907 0 0 0
0.347032 -0.159439 0.357963 0.937773 0.152627 -0.311907 0 0 0
0.288272 -0.159439 0.181295 0.937773 0.152627 -0.311907 0 0 0
-0.749934 0.348844 -0.451375 -0.905806 -0.149739 -0.396350 0 0 0
-0.572565 0.348844 -0.435123 0.082264 -0.432630 -0.897811 0 0 0
-0.623822 -0.085470 0.124279 0.905806 0.149739 0.396350 0 0 0
-0.801191 -0.085470 0.108028 -0.082264 0.432630 0.897811 0 0 0
-0.591582 -0.085470 -0.227582 0.000000 -1.000000 -0.000001 0 0 0
-0.569606 0.721644 -0.467423 0.973363 -0.027449 -0.227621 0 0 0
-0.756327 1.087969 -0.381603 0.087870 0.269455 -0.958996 0 0 0
-0.782174 0.348844 -0.099514 -0.973363 0.027449 0.227621 0 0 0
-0.604805 0.348844 -0.083262 -0.090902 0.086678 0.992080 0 0 0
-0.601846 0.721644 -0.115562 -0.090902 0.086678 0.992080 0 0 0
-0.779215 0.721644 -0.131814 -0.090902 0.086678 0.992080 0 0 0
-0.749934 0.348844 -0.451375 0.090901 -0.086678 -0.992081 0 0 0
-0.578958 1.087969 -0.365352 0.060958 0.744096 -0.665286 0 0 0
-0.527210 0.721644 -0.286131 0.969955 0.087965 -0.226824 0 0 0
-0.569606 0.721644 -0.467423 0.969955 0.087965 -0.226824 0 0 0
-0.578958 1.087969 -0.365352 0.969955 0.087965 -0.226824 0 0 0
-0.779215 0.721644 -0.131814 -0.983310 -0.071697 0.167217 0 0 0
-0.788567 1.087969 -0.029742 -0.983310 -0.071697 0.167217 0 0 0
-0.830962 1.246587 -0.211034 -0.983310 -0.071697 0.167217 0 0 0
-0.601846 0.721644 -0.115562 -0.087870 -0.269455 0.958996 0 0 0
-0.821610 0.721644 -0.313106 -0.887055 0.072839 -0.455881 0 0 0
-0.830962 1.246587 -0.211034 -0.887055 0.072839 -0.455881 0 0 0
-0.756327 1.087969 -0.381603 -0.887055 0.072839 -0.455881 0 0 0
-0.601846 0.721644 -0.115562 0.914401 -0.061508 0.400111 0 0 0
-0.527210 0.721644 -0.286131 0.914401 -0.061508 0.400111 0 0 0
-0.536563 1.246587 -0.184059 0.914401 -0.061508 0.400111 0 0 0
-0.536563 1.246587 -0.184059 -0.060958 0.744096 0.665286 0 0 0
-0.824569 0.348844 -0.280806 -0.915790 -0.027449 -0.400719 0 0 0
-0.527210 0.721644 -0.286131 0.915790 0.027449 0.400719 0 0 0
-0.549186 -0.085470 -0.046290 -0.000000 -1.000000 0.000001 0 0 0
-0.530170 0.348844 -0.253831 0.962752 -0.149739 -0.225139 0 0 0
-0.549186 -0.085470 -0.046290 0.962752 -0.149739 -0.225139 0 0 0
-0.591582 -0.085470 -0.227582 0.962752 -0.149739 -0.225139 0 0 0
-0.824569 0.348844 -0.280806 -0.962752 0.149739 0.225139 0 0 0
0.347214 0.357232 -0.634304 0.173099 -0.121551 -0.977375 0 0 0
0.373091 0.357232 -0.458082 0.922388 -0.361736 -0.135450 0 0 0
-0.182694 -0.179891 -0.376466 -0.173099 0.121550 0.977375 0 0 0
-0.002372 0.357232 -0.582968 -0.922388 0.361736 0.135450 0 0 0
-0.208572 -0.179891 -0.552688 -0.922388 0.361736 0.135450 0 0 0
-0.182694 -0.179891 -0.376466 -0.922388 0.361736 0.135450 0 0 0
0.166892 -0.179891 -0.427802 0.000001 -1.000000 -0.000000 0 0 0
0.405183 0.818281 -0.462794 0.450009 -0.022198 0.892748 0 0 0
0.277893 1.271323 -0.624124 0.964999 0.220670 -0.141708 0 0 0
-0.002372 0.357232 -0.582968 -0.450009 0.022198 -0.892748 0 0 0
0.055597 0.818281 -0.411458 -0.986950 0.070178 0.144931 0 0 0
0.347214 0.357232 -0.634304 0.986950 -0.070178 -0.144931 0 0 0
0.303771 1.271323 -0.447902 0.735186 0.669213 -0.107960 0 0 0
0.238927 0.818281 -0.378990 0.448976 0.071223 0.890701 0 0 0
0.405183 0.818281 -0.462794 0.448976 0.071223 0.890701 0 0 0
0.303771 1.271323 -0.447902 0.448976 0.071223 0.890701 0 0 0
0.029719 0.818281 -0.587680 -0.393925 -0.058026 -0.917309 0 0 0
-0.071693 1.271323 -0.572788 -0.393925 -0.058026 -0.917309 0 0 0
0.094563 1.467489 -0.656593 -0.393925 -0.058026 -0.917309 0 0 0
0.055597 0.818281 -0.411458 -0.964999 -0.220670 0.141708 0 0 0
0.195975 0.818281 -0.671485 0.234911 0.058951 -0.970227 0 0 0
0.094563 1.467489 -0.656593 0.234911 0.058951 -0.970227 0 0 0
0.277893 1.271323 -0.624124 0.234911 0.058951 -0.970227 0 0 0
0.055597 0.818281 -0.411458 -0.174176 -0.049767 0.983456 0 0 0
0.238927 0.818281 -0.378990 -0.174176 -0.049767 0.983456 0 0 0
0.137515 1.467489 -0.364097 -0.174176 -0.049767 0.983456 0 0 0
0.137515 1.467489 -0.364097 -0.735186 0.669213 0.107960 0 0 0
0.163884 0.357232 -0.666773 0.174349 -0.022198 -0.984434 0 0 0
0.238927 0.818281 -0.378990 -0.174349 0.022198 0.984434 0 0 0
0.000636 -0.179892 -0.343997 -0.000001 -1.000000 0.000000 0 0 0
0.000636 -0.179892 -0.343997 0.446782 -0.121551 0.886347 0 0 0
0.163884 0.357232 -0.666773 -0.446782 0.121550 -0.886347 0 0 0
0.507866 0.467769 -0.136705 0.542014 -0.109919 0.833150 0 0 0
0.351802 0.467769 -0.035176 0.542014 -0.109919 0.833150 0 0 0
0.481701 -0.127005 -0.198152 0.542014 -0.109919 0.833150 0 0 0
0.212519 0.467769 -0.146190 -0.588216 -0.330690 0.738001 0 0 0
0.432747 0.467769 -0.422497 -0.542014 0.109919 -0.833150 0 0 0
0.562646 -0.127005 -0.585473 -0.542014 0.109919 -0.833150 0 0 0
0.406582 -0.127005 -0.483944 -0.542014 0.109919 -0.833150 0 0 0
0.572030 0.467769 -0.311483 0.588216 0.330690 -0.738002 0 0 0
0.701929 -0.127005 -0.474459 0.588216 0.330690 -0.738002 0 0 0
0.562646 -0.127005 -0.585473 0.588216 0.330690 -0.738002 0 0 0
0.342418 -0.127005 -0.309166 -0.000000 -1.000000 0.000001 0 0 0
0.192303 0.978302 -0.120825 -0.938552 -0.020047 -0.344556 0 0 0
0.331586 0.978302 -0.009811 -0.610667 0.200182 0.766168 0 0 0
0.395472 1.479969 -0.089965 -0.610667 0.200182 0.766168 0 0 0
0.256189 1.479969 -0.200980 -0.610667 0.200182 0.766168 0 0 0
0.572030 0.467769 -0.311483 0.938552 0.020047 0.344556 0 0 0
0.412530 0.978302 -0.397132 0.622028 0.063405 -0.780423 0 0 0
0.351802 0.467769 -0.035176 -0.622028 -0.063405 0.780423 0 0 0
0.320352 1.697188 -0.375757 -0.483546 0.630972 0.606677 0 0 0
0.256189 1.479969 -0.200980 -0.483546 0.630972 0.606677 0 0 0
0.395472 1.479969 -0.089965 -0.483546 0.630972 0.606677 0 0 0
0.256466 0.978302 -0.295603 -0.936795 0.064350 -0.343911 0 0 0
0.192303 0.978302 -0.120825 -0.936795 0.064350 -0.343911 0 0 0
0.256189 1.479969 -0.200980 -0.936795 0.064350 -0.343911 0 0 0
0.551813 0.978302 -0.286118 0.914615 -0.052418 0.400914 0 0 0
0.615699 1.479969 -0.366272 0.914615 -0.052418 0.400914 0 0 0
0.551536 1.697188 -0.191495 0.914615 -0.052418 0.400914 0 0 0
0.551813 0.978302 -0.286118 0.610666 -0.200182 -0.766168 0 0 0
0.412530 0.978302 -0.397132 0.610666 -0.200182 -0.766168 0 0 0
0.476417 1.479969 -0.477286 0.610666 -0.200182 -0.766168 0 0 0
0.487650 0.978302 -0.111340 0.491409 0.053254 0.869299 0 0 0
0.551536 1.697188 -0.191495 0.491409 0.053254 0.869299 0 0 0
0.395472 1.479969 -0.089965 0.491409 0.053254 0.869299 0 0 0
0.412530 0.978302 -0.397132 -0.544767 -0.044954 -0.837381 0 0 0
0.256466 0.978302 -0.295603 -0.544767 -0.044954 -0.837381 0 0 0
0.320352 1.697188 -0.375757 -0.544767 -0.044954 -0.837381 0 0 0
0.476417 1.479969 -0.477286 0.483546 0.630973 -0.606677 0 0 0
0.320352 1.697188 -0.375757 0.483546 0.630973 -0.606677 0 0 0
0.551536 1.697188 -0.191495 0.483546 0.630973 -0.606677 0 0 0
0.507866 0.467769 -0.136705 0.545209 -0.020047 0.838060 0 0 0
0.256466 0.978302 -0.295603 -0.545209 0.020047 -0.838060 0 0 0
0.406582 -0.127005 -0.483944 0.000000 -1.000000 -0.000001 0 0 0
0.406582 -0.127005 -0.483944 -0.933052 -0.109919 -0.342537 0 0 0
0.507866 0.467769 -0.136705 0.933052 0.109919 0.342537 0 0 0
-0.176626 0.357232 0.216251 -0.215298 -0.121551 -0.968954 0 0 0
-0.085092 0.357232 0.369043 0.799751 -0.361736 -0.479109 0 0 0
-0.566982 -0.179891 0.657730 0.215298 0.121550 0.968954 0 0 0
-0.479732 0.357232 0.397833 -0.799751 0.361737 0.479109 0 0 0
-0.658516 -0.179891 0.504938 -0.799751 0.361737 0.479109 0 0 0
-0.566982 -0.179891 0.657730 -0.799751 0.361737 0.479109 0 0 0
-0.263876 -0.179891 0.476147 0.000001 -1.000000 -0.000001 0 0 0
-0.057267 0.818281 0.352374 0.758198 -0.022198 0.651646 0 0 0
-0.148801 0.818281 0.199582 0.836696 0.220670 -0.501242 0 0 0
-0.236730 1.271323 0.252257 0.836696 0.220670 -0.501242 0 0 0
-0.145196 1.271323 0.405050 0.836696 0.220670 -0.501242 0 0 0
-0.479732 0.357232 0.397833 -0.758198 0.022198 -0.651646 0 0 0
-0.388198 0.357232 0.550626 -0.855728 0.070178 0.512644 0 0 0
-0.360373 0.818281 0.533957 -0.855728 0.070178 0.512644 0 0 0
-0.451907 0.818281 0.381164 -0.855728 0.070178 0.512644 0 0 0
-0.085092 0.357232 0.369043 0.855728 -0.070178 -0.512644 0 0 0
-0.176626 0.357232 0.216251 0.855728 -0.070178 -0.512644 0 0 0
-0.148801 0.818281 0.199582 0.855728 -0.070178 -0.512644 0 0 0
-0.145196 1.271323 0.405050 0.637438 0.669213 -0.381872 0 0 0
-0.178623 0.818281 0.493572 0.756459 0.071223 0.650152 0 0 0
-0.057267 0.818281 0.352374 0.756459 0.071223 0.650152 0 0 0
-0.145196 1.271323 0.405050 0.756459 0.071223 0.650152 0 0 0
-0.451907 0.818281 0.381164 -0.715837 -0.058026 -0.695853 0 0 0
-0.539836 1.271323 0.433840 -0.715837 -0.058026 -0.695853 0 0 0
-0.418480 1.467489 0.292642 -0.715837 -0.058026 -0.695853 0 0 0
-0.360373 0.818281 0.533957 -0.836696 -0.220670 0.501243 0 0 0
-0.330552 0.818281 0.239966 -0.155476 0.058951 -0.986079 0 0 0
-0.418480 1.467489 0.292642 -0.155476 0.058951 -0.986079 0 0 0
-0.236730 1.271323 0.252257 -0.155476 0.058951 -0.986079 0 0 0
-0.360373 0.818281 0.533957 0.216637 -0.049767 0.974983 0 0 0
-0.178623 0.818281 0.493572 0.216637 -0.049767 0.974983 0 0 0
-0.266551 1.467489 0.546248 0.216637 -0.049767 0.974983 0 0 0
-0.266551 1.467489 0.546248 -0.637438 0.669213 0.381872 0 0 0
-0.176626 0.357232 0.216251 -0.216853 -0.022198 -0.975952 0 0 0
-0.358376 0.357232 0.256635 -0.216853 -0.022198 -0.975952 0 0 0
-0.330552 0.818281 0.239966 -0.216853 -0.022198 -0.975952 0 0 0
-0.206447 0.357232 0.510241 0.216852 0.022198 0.975952 0 0 0
-0.178623 0.818281 0.493572 0.216852 0.022198 0.975952 0 0 0
-0.360373 0.818281 0.533957 0.216852 0.022198 0.975952 0 0 0
-0.385231 -0.179892 0.617346 -0.000001 -1.000000 0.000001 0 0 0
-0.206447 0.357232 0.510241 0.752761 -0.121550 0.646974 0 0 0
-0.385231 -0.179892 0.617346 0.752761 -0.121550 0.646974 0 0 0
-0.263876 -0.179891 0.476147 0.752761 -0.121550 0.646974 0 0 0
-0.479732 0.357232 0.397833 -0.752762 0.121551 -0.646974 0 0 0
-0.358376 0.357232 0.256635 -0.752762 0.121551 -0.646974 0 0 0
-0.537160 -0.179892 0.363740 -0.752762 0.121551 -0.646974 0 0 0
-0.494625 0.590052 0.039435 -0.193233 -0.092642 0.976769 0 0 0
-0.516971 0.590052 -0.137270 -0.951608 -0.282773 0.120335 0 0 0
0.040337 -0.116892 -0.207744 0.193233 0.092642 -0.976769 0 0 0
-0.144082 0.590052 -0.004893 0.951608 0.282773 -0.120335 0 0 0
0.062682 -0.116892 -0.031039 0.951608 0.282773 -0.120335 0 0 0
0.040337 -0.116892 -0.207744 0.951608 0.282773 -0.120335 0 0 0
-0.310206 -0.116892 -0.163416 -0.000001 -1.000000 0.000000 0 0 0
-0.549150 1.196868 -0.133201 -0.432093 -0.016867 -0.901671 0 0 0
-0.526805 1.196868 0.043504 -0.977759 0.169414 0.123642 0 0 0
-0.425115 1.793146 0.030645 -0.977759 0.169414 0.123642 0 0 0
-0.447460 1.793146 -0.146060 -0.977759 0.169414 0.123642 0 0 0
-0.144082 0.590052 -0.004893 0.432093 0.016867 0.901671 0 0 0
-0.166427 0.590052 -0.181598 0.990685 0.053376 -0.125276 0 0 0
-0.198606 1.196868 -0.177529 0.990685 0.053376 -0.125276 0 0 0
-0.176261 1.196868 -0.000824 0.990685 0.053376 -0.125276 0 0 0
-0.494625 0.590052 0.039435 -0.990685 -0.053376 0.125277 0 0 0
-0.447460 1.793146 -0.146060 -0.818766 0.564714 0.103537 0 0 0
-0.381250 1.196868 -0.213661 -0.431520 0.054172 -0.900475 0 0 0
-0.549150 1.196868 -0.133201 -0.431520 0.054172 -0.900475 0 0 0
-0.447460 1.793146 -0.146060 -0.431520 0.054172 -0.900475 0 0 0
-0.176261 1.196868 -0.000824 0.375751 -0.044118 0.925670 0 0 0
-0.074572 1.793146 -0.013683 0.375751 -0.044118 0.925670 0 0 0
-0.242472 2.051332 0.066777 0.375751 -0.044118 0.925670 0 0 0
-0.198606 1.196868 -0.177529 0.977759 -0.169414 -0.123642 0 0 0
-0.344161 1.196868 0.079636 -0.254473 0.044823 0.966041 0 0 0
-0.242472 2.051332 0.066777 -0.254473 0.044823 0.966041 0 0 0
-0.425115 1.793146 0.030645 -0.254473 0.044823 0.966041 0 0 0
-0.198606 1.196868 -0.177529 0.193929 -0.037832 -0.980286 0 0 0
-0.381250 1.196868 -0.213661 0.193929 -0.037832 -0.980286 0 0 0
-0.279560 2.051332 -0.226520 0.193929 -0.037832 -0.980286 0 0 0
-0.279560 2.051332 -0.226520 0.818766 0.564714 -0.103537 0 0 0
-0.311982 0.590052 0.075567 -0.194040 -0.016867 0.980849 0 0 0
-0.381250 1.196868 -0.213661 0.194040 0.016867 -0.980849 0 0 0
-0.142306 -0.116892 -0.243876 0.000001 -1.000000 -0.000000 0 0 0
-0.142306 -0.116892 -0.243876 -0.430296 -0.092642 -0.897921 0 0 0
-0.311982 0.590052 0.075567 0.430296 0.092642 0.897921 0 0 0
0.787460 0.349036 0.162293 0.647251 -0.148950 -0.747583 0 0 0
0.719333 0.349036 0.326861 0.833853 -0.430731 0.345196 0 0 0
0.526770 -0.087633 0.247144 0.833853 -0.430731 0.345196 0 0 0
0.594897 -0.087633 0.082577 0.833853 -0.430731 0.345196 0 0 0
0.200304 -0.087633 0.111995 -0.647251 0.148950 0.747583 0 0 0
0.392866 0.349036 0.191711 -0.833853 0.430730 -0.345196 0 0 0
0.460993 0.349036 0.027144 -0.833853 0.430730 -0.345196 0 0 0
0.268431 -0.087633 -0.052573 -0.833853 0.430730 -0.345196 0 0 0
0.594897 -0.087633 0.082577 0.000001 -1.000000 0.000000 0 0 0
0.749302 0.723857 0.339267 -0.071316 -0.027301 0.997080 0 0 0
0.817429 0.723857 0.174699 0.890130 0.268106 0.368493 0 0 0
0.460993 0.349036 0.027144 0.071316 0.027301 -0.997080 0 0 0
0.460993 0.349036 0.027144 -0.920517 0.086214 -0.381072 0 0 0
0.392866 0.349036 0.191711 -0.920517 0.086214 -0.381072 0 0 0
0.422835 0.723857 0.204118 -0.920517 0.086214 -0.381072 0 0 0
0.817429 0.723857 0.174699 0.920517 -0.086214 0.381072 0 0 0
0.722724 1.092170 0.135494 0.619117 0.742297 0.256300 0 0 0
0.563593 0.723857 0.325984 -0.071069 0.087494 0.993627 0 0 0
0.749302 0.723857 0.339267 -0.071069 0.087494 0.993627 0 0 0
0.654597 1.092170 0.300061 -0.071069 0.087494 0.993627 0 0 0
0.490963 0.723857 0.039550 0.131955 -0.071313 -0.988687 0 0 0
0.396257 1.092170 0.000344 0.131955 -0.071313 -0.988687 0 0 0
0.581966 1.251647 0.013627 0.131955 -0.071313 -0.988687 0 0 0
0.422835 0.723857 0.204118 -0.890130 -0.268106 -0.368493 0 0 0
0.328130 1.092170 0.164912 -0.890130 -0.268106 -0.368493 0 0 0
0.396257 1.092170 0.000344 -0.890130 -0.268106 -0.368493 0 0 0
0.676671 0.723857 0.052833 0.698483 0.072448 -0.711949 0 0 0
0.581966 1.251647 0.013627 0.698483 0.072448 -0.711949 0 0 0
0.722724 1.092170 0.135494 0.698483 0.072448 -0.711949 0 0 0
0.422835 0.723857 0.204118 -0.653326 -0.061177 0.754600 0 0 0
0.563593 0.723857 0.325984 -0.653326 -0.061177 0.754600 0 0 0
0.468888 1.251647 0.286779 -0.653326 -0.061177 0.754600 0 0 0
0.581966 1.251647 0.013627 -0.619117 0.742297 -0.256300 0 0 0
0.646702 0.349036 0.040426 0.654309 -0.027301 -0.755735 0 0 0
0.533624 0.349036 0.313578 -0.654308 0.027301 0.755735 0 0 0
0.563593 0.723857 0.325984 -0.654308 0.027301 0.755735 0 0 0
0.422835 0.723857 0.204118 -0.654308 0.027301 0.755735 0 0 0
0.454140 -0.087633 -0.039290 -0.000001 -1.000000 -0.000000 0 0 0
0.341061 -0.087633 0.233862 -0.070547 -0.148950 0.986325 0 0 0
0.646702 0.349036 0.040426 0.070547 0.148950 -0.986325 0 0 0
0.347032 0.266468 0.566374 0.937773 -0.152627 0.311907 0 0 0
0.288272 0.266468 0.743041 0.937773 -0.152627 0.311907 0 0 0
0.288272 -0.159439 0.534630 0.937773 -0.152627 0.311907 0 0 0
0.110160 -0.159439 0.534630 0.000000 -0.439533 0.898227 0 0 0
0.110160 -0.159439 0.181295 -0.937773 0.152627 -0.311907 0 0 0
0.288272 -0.159439 0.181295 0.000000 0.439533 -0.898226 0 0 0
0.110160 -0.159439 0.534630 0.000000 -1.000000 0.000000 0 0 0
0.110160 0.632052 0.775477 -0.948519 -0.027990 0.315481 0 0 0
0.288272 0.991287 0.672977 -0.000000 0.274377 0.961622 0 0 0
0.288272 0.266468 0.389706 0.948519 0.027990 -0.315481 0 0 0
0.110160 0.632052 0.422142 0.000000 0.088376 -0.996087 0 0 0
0.288272 0.632052 0.775477 0.000000 -0.088375 0.996087 0 0 0
0.288272 0.991287 0.672977 0.000000 0.750545 0.660819 0 0 0
0.051400 0.632052 0.598809 -0.945067 0.089688 0.314333 0 0 0
0.110160 0.632052 0.775477 -0.945067 0.089688 0.314333 0 0 0
0.110160 0.991287 0.672977 -0.945067 0.089688 0.314333 0 0 0
0.288272 0.632052 0.422142 0.963851 -0.073105 -0.256215 0 0 0
0.288272 0.991287 0.319642 0.963851 -0.073105 -0.256215 0 0 0
0.347032 1.146834 0.496310 0.963851 -0.073105 -0.256215 0 0 0
0.110160 0.991287 0.319642 -0.000000 -0.274377 -0.961622 0 0 0
0.347032 0.632052 0.598809 0.924854 0.074269 0.373000 0 0 0
0.347032 1.146834 0.496310 0.924854 0.074269 0.373000 0 0 0
0.288272 0.991287 0.672977 0.924854 0.074269 0.373000 0 0 0
0.110160 0.632052 0.422142 -0.947023 -0.062717 -0.314983 0 0 0
0.051400 0.632052 0.598809 -0.947023 -0.062717 -0.314983 0 0 0
0.051400 1.146834 0.496310 -0.947023 -0.062717 -0.314983 0 0 0
0.347032 1.146834 0.496310 0.000000 0.750545 -0.660819 0 0 0
0.347032 0.266468 0.566374 0.948519 -0.027990 0.315481 0 0 0
0.051400 0.632052 0.598809 -0.948519 0.027990 -0.315481 0 0 0
0.051400 -0.159439 0.357963 -0.937773 -0.152627 0.311907 0 0 0
0.347032 0.266468 0.566374 0.937773 0.152627 -0.311907 0 0 0
3 0 1 2
3 3 4 5
3 6 7 8
3 9 10 11
3 12 13 14
3 15 16 17
3 18 19 20
3 21 22 23
3 24 25 26
3 27 28 29
3 30 31 32
3 33 34 35
3 36 37 38
3 39 40 41
3 42 43 44
3 45 46 47
3 48 49 50
3 51 52 53
3 54 55 56
3 57 58 59
3 60 61 62
3 63 64 65
3 66 67 68
3 69 70 71
3 72 73 74
3 75 76 77
3 78 79 80
3 81 82 83
3 84 85 86
3 87 88 89
3 90 91 92
3 93 94 95
3 96 97 98
3 99 100 101
3 102 103 104
3 105 106 107
3 108 109 110
3 111 112 113
3 114 115 116
3 117 118 119
3 120 121 122
3 123 124 125
3 126 127 128
3 129 130 131
3 132 133 134
3 135 136 137
3 138 139 140
3 141 142 143
3 144 145 146
3 147 148 149
3 150 151 152
3 153 154 155
3 156 157 158
3 159 160 161
3 162 163 164
3 165 166 167
3 168 169 170
3 171 172 173
3 174 175 176
3 177 178 179
3 180 181 182
3 183 184 185
3 186 187 188
3 189 190 191
3 192 193 194
3 195 196 197
3 198 199 200
3 201 202 203
3 204 205 206
3 207 208 209
3 210 211 212
3 213 214 215
3 216 217 218
3 219 220 221
3 222 223 224
3 225 226 227
3 228 229 230
3 231 232 233
3 234 235 236
3 237 238 239
3 240 241 242
3 243 244 245
3 246 247 248
3 249 250 251
3 252 253 254
3 255 256 257
3 258 259 260
3 261 262 263
3 264 265 266
3 267 268 269
3 270 271 272
3 273 274 275
3 276 277 278
3 279 280 281
3 282 283 284
3 285 286 287
3 288 289 290
3 291 292 293
3 294 295 296
3 297 298 299
3 300 301 302
3 303 304 305
3 306 307 308
3 309 310 311
3 312 313 314
3 315 316 317
3 318 319 320
3 321 322 323
3 324 325 326
3 327 328 329
3 330 331 332
3 333 334 335
3 336 337 338
3 339 340 341
3 342 343 344
3 345 346 347
3 348 349 350
3 351 352 353
3 354 355 356
3 357 358 359
3 360 361 362
3 363 364 365
3 366 367 368
3 369 370 371
3 372 373 374
3 375 376 377
3 378 379 380
3 381 382 383
3 384 385 386
3 387 388 389
3 390 391 392
3 393 394 395
3 396 397 398
3 399 400 401
3 402 403 404
3 405 406 407
3 408 409 410
3 411 412 413
3 414 415 416
3 417 418 419
3 420 421 422
3 423 424 425
3 426 427 428
3 429 430 431
3 432 433 434
3 435 436 437
3 438 439 440
3 441 442 443
3 444 445 446
3 447 448 449
3 450 451 452
3 410 453 454
3 455 456 457
3 458 459 460
3 0 461 1
3 3 462 4
3 6 463 7
3 9 464 10
3 12 465 13
3 15 466 16
3 18 467 19
3 21 468 22
3 469 470 471
3 27 472 28
3 30 473 31
3 474 475 476
3 477 478 479
3 39 480 40
3 481 482 483
3 484 485 486
3 48 487 49
3 51 488 52
3 54 489 55
3 57 490 58
3 491 492 493
3 63 494 64
3 66 495 67
3 69 496 70
3 72 497 73
3 498 499 500
3 78 501 79
3 81 502 82
3 84 503 85
3 87 504 88
3 90 505 91
3 93 506 94
3 96 507 97
3 508 509 510
3 511 512 513
3 105 514 106
3 515 516 517
3 518 519 520
3 114 521 115
3 117 522 118
3 120 523 121
3 123 524 124
3 126 525 127
3 129 526 130
3 527 528 529
3 135 530 136
3 531 532 533
3 534 535 536
3 144 537 145
3 147 538 148
3 539 540 541
3 153 542 154
3 156 543 157
3 159 544 160
3 545 546 547
3 548 549 550
3 551 552 553
3 554 555 556
3 557 558 559
3 560 561 562
3 563 564 565
3 183 566 184
3 186 567 187
3 189 568 190
3 192 569 193
3 195 570 196
3 198 571 199
3 201 572 202
3 204 573 205
3 574 575 576
3 210 577 211
3 213 578 214
3 579 580 581
3 219 582 220
3 583 584 585
3 586 587 588
3 228 589 229
3 590 591 592
3 593 594 595
3 237 596 238
3 597 598 599
3 600 601 602
3 246 603 247
3 604 605 606
3 607 608 609
3 255 610 256
3 611 612 613
3 614 615 616
3 264 617 265
3 267 618 268
3 270 619 271
3 620 621 622
3 276 623 277
3 279 624 280
3 625 626 627
3 285 628 286
3 629 630 631
3 291 632 292
3 294 633 295
3 634 635 636
3 637 638 639
3 303 640 304
3 641 642 643
3 644 645 646
3 312 647 313
3 315 648 316
3 318 649 319
3 321 650 322
3 324 651 325
3 327 652 328
3 330 653 331
3 654 655 656
3 336 657 337
3 658 659 660
3 342 661 343
3 345 662 346
3 348 663 349
3 351 664 352
3 665 666 667
3 357 668 358
3 360 669 361
3 670 671 672
3 673 674 675
3 676 677 678
3 679 680 681
3 682 683 684
3 378 685 379
3 381 686 382
3 687 688 689
3 387 690 388
3 390 691 391
3 393 692 394
3 693 694 695
3 399 696 400
3 402 697 403
3 405 698 406
3 408 699 409
3 411 700 412
3 414 701 415
3 417 702 418
3 420 703 421
3 423 704 424
3 426 705 427
3 706 707 708
3 709 710 711
3 435 712 436
3 713 714 715
3 716 717 718
3 444 719 445
3 447 720 448
3 450 721 451
3 410 409 453
3 455 722 456
3 458 723 459
