ply
format ascii 1.0
comment Created by Blender 2.77 (sub 0) - www.blender.org, source file: 'Sword.blend'
element vertex 226
property float x
property float y
property float z
property float nx
property float ny
property float nz
property uchar red
property uchar green
property uchar blue
element face 88
property list uchar uint vertex_indices
end_header
0.012230 0.175619 0.011848 0.974916 0.005273 0.222510 161 122 100
0.016591 -0.127588 -0.000073 0.974916 0.005273 0.222510 161 122 100
0.014951 0.175620 -0.000073 0.974916 0.005273 0.222510 161 122 100
-0.011613 0.175619 0.011848 -0.200927 0.005199 0.979592 161 122 100
0.000309 -0.127588 0.015902 -0.200927 0.005199 0.979592 161 122 100
0.000309 0.175620 0.014293 -0.200927 0.005199 0.979592 161 122 100
-0.011613 0.175619 -0.011995 -0.974916 0.005273 -0.222510 161 122 100
-0.015974 -0.127588 -0.000073 -0.974916 0.005273 -0.222510 161 122 100
-0.014334 0.175620 -0.000073 -0.974916 0.005273 -0.222510 161 122 100
0.012230 0.175619 -0.011995 0.200927 0.005198 -0.979593 161 122 100
0.000309 -0.127588 -0.016049 0.200927 0.005198 -0.979593 161 122 100
0.000309 0.175620 -0.014440 0.200927 0.005198 -0.979593 161 122 100
-0.012948 -0.127588 0.013183 -0.165502 0.567006 0.806916 158 158 158
0.000309 -0.160954 0.039349 -0.165502 0.567006 0.806916 158 158 158
0.000309 -0.127588 0.015902 -0.165502 0.567006 0.806916 158 158 158
0.000309 0.175620 -0.000073 0.000000 1.000000 0.000001 255 255 255
0.012230 0.175619 0.011848 0.000000 1.000000 0.000001 255 255 255
0.014951 0.175620 -0.000073 0.000000 1.000000 0.000001 255 255 255
0.000309 -0.160954 -0.039495 0.185914 -0.378854 -0.906590 158 158 158
0.000885 -0.253628 -0.000650 0.185914 -0.378854 -0.906590 158 158 158
0.000309 -0.253628 -0.000768 0.185914 -0.378854 -0.906590 158 158 158
0.013565 -0.127588 -0.013330 0.165496 0.567007 -0.806917 158 158 158
0.000309 -0.160954 -0.039495 0.165496 0.567007 -0.806917 158 158 158
0.000309 -0.127588 -0.016049 0.165496 0.567007 -0.806917 158 158 158
-0.012948 -0.127588 -0.013330 -0.799362 0.572482 -0.182442 158 158 158
-0.039870 -0.160954 -0.000073 -0.799362 0.572482 -0.182442 158 158 158
-0.015974 -0.127588 -0.000073 -0.799362 0.572482 -0.182442 158 158 158
0.013565 -0.127588 0.013183 0.799362 0.572482 0.182442 158 158 158
0.040487 -0.160954 -0.000073 0.799362 0.572482 0.182442 158 158 158
0.016591 -0.127588 -0.000073 0.799362 0.572482 0.182442 158 158 158
0.000309 -0.253628 0.000621 -0.653095 -0.361134 0.665619 158 158 158
-0.000399 -0.253628 -0.000073 -0.653095 -0.361134 0.665619 158 158 158
0.000309 -0.254908 -0.000073 -0.653095 -0.361134 0.665619 158 158 158
0.000309 -0.160954 0.039349 -0.185913 -0.378854 0.906590 158 158 158
-0.000268 -0.253628 0.000503 -0.185913 -0.378854 0.906590 158 158 158
0.000309 -0.253628 0.000621 -0.185913 -0.378854 0.906590 158 158 158
-0.039870 -0.160954 -0.000073 -0.900388 -0.383485 -0.205526 158 158 158
-0.000268 -0.253628 -0.000650 -0.900388 -0.383485 -0.205526 158 158 158
-0.000399 -0.253628 -0.000073 -0.900388 -0.383485 -0.205526 158 158 158
0.040487 -0.160954 -0.000073 0.900395 -0.383488 0.205490 158 158 158
0.000885 -0.253628 0.000503 0.900395 -0.383488 0.205490 158 158 158
0.001017 -0.253628 -0.000073 0.900395 -0.383488 0.205490 158 158 158
0.040487 -0.160954 -0.000073 0.900392 -0.383487 -0.205502 158 158 158
0.000885 -0.253628 -0.000650 0.900392 -0.383487 -0.205502 158 158 158
0.033021 -0.160954 -0.032786 0.900392 -0.383487 -0.205502 158 158 158
-0.039870 -0.160954 -0.000073 -0.900393 -0.383487 0.205501 158 158 158
-0.000268 -0.253628 0.000503 -0.900393 -0.383487 0.205501 158 158 158
-0.032404 -0.160954 0.032639 -0.900393 -0.383487 0.205501 158 158 158
0.000309 -0.253628 -0.000768 0.000000 -1.000000 0.000000 158 158 158
-0.000399 -0.253628 -0.000073 0.000000 -1.000000 0.000000 158 158 158
-0.000268 -0.253628 -0.000650 0.000000 -1.000000 0.000000 158 158 158
0.013565 -0.127588 -0.013330 0.799362 0.572481 -0.182443 158 158 158
0.040487 -0.160954 -0.000073 0.799362 0.572481 -0.182443 158 158 158
0.033021 -0.160954 -0.032786 0.799362 0.572481 -0.182443 158 158 158
-0.012948 -0.127588 0.013183 -0.799362 0.572481 0.182442 158 158 158
-0.039870 -0.160954 -0.000073 -0.799362 0.572481 0.182442 158 158 158
-0.032404 -0.160954 0.032639 -0.799362 0.572481 0.182442 158 158 158
0.000309 0.175620 -0.000073 0.000001 1.000000 0.000000 255 255 255
0.012230 0.175619 -0.011995 0.000001 1.000000 0.000000 255 255 255
0.000309 0.175620 -0.014440 0.000001 1.000000 0.000000 255 255 255
-0.011613 0.175619 0.011848 -0.974916 0.005273 0.222509 161 122 100
-0.015974 -0.127588 -0.000073 -0.974916 0.005273 0.222509 161 122 100
-0.012948 -0.127588 0.013183 -0.974916 0.005273 0.222509 161 122 100
0.012230 0.175619 -0.011995 0.974916 0.005273 -0.222510 161 122 100
0.016591 -0.127588 -0.000073 0.974916 0.005273 -0.222510 161 122 100
0.013565 -0.127588 -0.013330 0.974916 0.005273 -0.222510 161 122 100
-0.011613 0.175619 -0.011995 -0.000001 1.000000 0.000000 255 255 255
0.000309 0.175620 -0.000073 -0.000001 1.000000 0.000000 255 255 255
0.000309 0.175620 -0.014440 -0.000001 1.000000 0.000000 255 255 255
0.001017 -0.253628 -0.000073 -0.000000 -1.000000 0.000000 158 158 158
0.000885 -0.253628 -0.000650 -0.000000 -1.000000 0.000000 158 158 158
0.000309 -0.160954 0.039349 0.185942 -0.378852 0.906585 158 158 158
0.000885 -0.253628 0.000503 0.185942 -0.378852 0.906585 158 158 158
0.033021 -0.160954 0.032639 0.185942 -0.378852 0.906585 158 158 158
0.001017 -0.253628 -0.000073 0.653095 -0.361134 0.665619 158 158 158
0.000309 -0.253628 0.000621 0.653095 -0.361134 0.665619 158 158 158
0.000309 -0.254908 -0.000073 0.653095 -0.361134 0.665619 158 158 158
-0.012948 -0.127588 -0.013330 -0.165500 0.567005 -0.806917 158 158 158
0.000309 -0.160954 -0.039495 -0.165500 0.567005 -0.806917 158 158 158
-0.032404 -0.160954 -0.032786 -0.165500 0.567005 -0.806917 158 158 158
0.000309 -0.160954 -0.039495 -0.185942 -0.378852 -0.906585 158 158 158
-0.000268 -0.253628 -0.000650 -0.185942 -0.378852 -0.906585 158 158 158
-0.032404 -0.160954 -0.032786 -0.185942 -0.378852 -0.906585 158 158 158
-0.011613 0.175619 0.011848 -0.000000 1.000000 0.000001 255 255 255
-0.014334 0.175620 -0.000073 -0.000000 1.000000 0.000001 255 255 255
0.013565 -0.127588 0.013183 0.165499 0.567007 0.806916 158 158 158
0.000309 -0.160954 0.039349 0.165499 0.567007 0.806916 158 158 158
0.033021 -0.160954 0.032639 0.165499 0.567007 0.806916 158 158 158
-0.011613 0.175619 -0.011995 -0.200912 0.005199 -0.979595 161 122 100
0.000309 -0.127588 -0.016049 -0.200912 0.005199 -0.979595 161 122 100
-0.012948 -0.127588 -0.013330 -0.200912 0.005199 -0.979595 161 122 100
0.012230 0.175619 0.011848 0.200919 0.005199 0.979594 161 122 100
0.000309 -0.127588 0.015902 0.200919 0.005199 0.979594 161 122 100
0.013565 -0.127588 0.013183 0.200919 0.005199 0.979594 161 122 100
0.020746 0.211764 0.006290 0.955818 0.000000 0.293959 255 255 255
0.007582 0.157123 0.049094 0.955818 0.000000 0.293959 255 255 255
0.020746 0.137452 0.006290 0.955818 0.000000 0.293959 255 255 255
-0.008893 0.246584 0.049094 0.000000 0.000000 1.000000 255 255 255
0.007582 0.157123 0.049094 0.000000 0.000000 1.000000 255 255 255
0.007582 0.246584 0.049094 0.000000 0.000000 1.000000 255 255 255
-0.022058 0.211764 0.006290 -0.955818 0.000000 0.293959 255 255 255
-0.008893 0.157123 0.049094 -0.955818 0.000000 0.293959 255 255 255
-0.008893 0.246584 0.049094 -0.955818 0.000000 0.293959 255 255 255
0.020746 0.211764 0.006290 0.000000 0.000000 -1.000000 255 255 255
-0.022058 0.137452 0.006290 0.000000 0.000000 -1.000000 255 255 255
-0.022058 0.211764 0.006290 0.000000 0.000000 -1.000000 255 255 255
0.007582 0.157123 0.049094 0.000000 -0.908638 0.417585 255 255 255
-0.022058 0.137452 0.006290 0.000000 -0.908638 0.417585 255 255 255
0.020746 0.137452 0.006290 0.000000 -0.908638 0.417585 255 255 255
-0.008893 0.246584 0.049094 0.000000 0.775742 -0.631050 255 255 255
0.020746 0.211764 0.006290 0.000000 0.775742 -0.631050 255 255 255
-0.022058 0.211764 0.006290 0.000000 0.775742 -0.631050 255 255 255
-0.022058 0.211764 -0.005978 -0.955818 0.000000 -0.293959 255 255 255
-0.008893 0.157123 -0.048783 -0.955818 0.000000 -0.293959 255 255 255
-0.022058 0.137452 -0.005978 -0.955818 0.000000 -0.293959 255 255 255
0.007582 0.246584 -0.048783 0.000000 0.000000 -1.000000 255 255 255
-0.008893 0.157123 -0.048783 0.000000 0.000000 -1.000000 255 255 255
-0.008893 0.246584 -0.048783 0.000000 0.000000 -1.000000 255 255 255
0.020746 0.211764 -0.005978 0.955818 0.000000 -0.293959 255 255 255
0.007582 0.157123 -0.048783 0.955818 0.000000 -0.293959 255 255 255
0.007582 0.246584 -0.048783 0.955818 0.000000 -0.293959 255 255 255
-0.022058 0.211764 -0.005978 0.000000 0.000000 1.000000 255 255 255
0.020746 0.137452 -0.005978 0.000000 0.000000 1.000000 255 255 255
0.020746 0.211764 -0.005978 0.000000 0.000000 1.000000 255 255 255
-0.008893 0.157123 -0.048783 0.000000 -0.908638 -0.417585 255 255 255
0.020746 0.137452 -0.005978 0.000000 -0.908638 -0.417585 255 255 255
-0.022058 0.137452 -0.005978 0.000000 -0.908638 -0.417585 255 255 255
0.007582 0.246584 -0.048783 0.000000 0.775742 0.631050 255 255 255
-0.022058 0.211764 -0.005978 0.000000 0.775742 0.631050 255 255 255
0.020746 0.211764 -0.005978 0.000000 0.775742 0.631050 255 255 255
0.013565 -0.127588 0.013183 0.974916 0.005273 0.222510 161 122 100
-0.011613 0.175619 0.011848 -0.200919 0.005199 0.979594 161 122 100
-0.012948 -0.127588 0.013183 -0.200919 0.005199 0.979594 161 122 100
0.000309 -0.127588 0.015902 -0.200919 0.005199 0.979594 161 122 100
-0.011613 0.175619 -0.011995 -0.974916 0.005273 -0.222509 161 122 100
-0.012948 -0.127588 -0.013330 -0.974916 0.005273 -0.222509 161 122 100
-0.015974 -0.127588 -0.000073 -0.974916 0.005273 -0.222509 161 122 100
0.012230 0.175619 -0.011995 0.200912 0.005199 -0.979596 161 122 100
0.013565 -0.127588 -0.013330 0.200912 0.005199 -0.979596 161 122 100
0.000309 -0.127588 -0.016049 0.200912 0.005199 -0.979596 161 122 100
-0.012948 -0.127588 0.013183 -0.165499 0.567007 0.806916 158 158 158
-0.032404 -0.160954 0.032639 -0.165499 0.567007 0.806916 158 158 158
0.000309 -0.160954 0.039349 -0.165499 0.567007 0.806916 158 158 158
0.000309 0.175620 0.014293 0.000001 1.000000 0.000000 255 255 255
0.012230 0.175619 0.011848 0.000001 1.000000 0.000000 255 255 255
0.000309 -0.160954 -0.039495 0.185942 -0.378852 -0.906585 158 158 158
0.033021 -0.160954 -0.032786 0.185942 -0.378852 -0.906585 158 158 158
0.000885 -0.253628 -0.000650 0.185942 -0.378852 -0.906585 158 158 158
0.013565 -0.127588 -0.013330 0.165500 0.567005 -0.806917 158 158 158
0.033021 -0.160954 -0.032786 0.165500 0.567005 -0.806917 158 158 158
0.000309 -0.160954 -0.039495 0.165500 0.567005 -0.806917 158 158 158
-0.012948 -0.127588 -0.013330 -0.799362 0.572481 -0.182443 158 158 158
-0.032404 -0.160954 -0.032786 -0.799362 0.572481 -0.182443 158 158 158
-0.039870 -0.160954 -0.000073 -0.799362 0.572481 -0.182443 158 158 158
0.033021 -0.160954 0.032639 0.799362 0.572482 0.182442 158 158 158
0.000309 -0.253628 0.000621 0.000000 -1.000000 0.000000 158 158 158
-0.000268 -0.253628 0.000503 0.000000 -1.000000 0.000000 158 158 158
0.000309 -0.160954 0.039349 -0.185942 -0.378852 0.906585 158 158 158
-0.032404 -0.160954 0.032639 -0.185942 -0.378852 0.906585 158 158 158
-0.000268 -0.253628 0.000503 -0.185942 -0.378852 0.906585 158 158 158
-0.039870 -0.160954 -0.000073 -0.900392 -0.383487 -0.205502 158 158 158
-0.032404 -0.160954 -0.032786 -0.900392 -0.383487 -0.205502 158 158 158
-0.000268 -0.253628 -0.000650 -0.900392 -0.383487 -0.205502 158 158 158
0.040487 -0.160954 -0.000073 0.900393 -0.383487 0.205501 158 158 158
0.033021 -0.160954 0.032639 0.900393 -0.383487 0.205501 158 158 158
0.000885 -0.253628 0.000503 0.900393 -0.383487 0.205501 158 158 158
0.040487 -0.160954 -0.000073 0.900388 -0.383485 -0.205526 158 158 158
0.001017 -0.253628 -0.000073 0.900388 -0.383485 -0.205526 158 158 158
0.000885 -0.253628 -0.000650 0.900388 -0.383485 -0.205526 158 158 158
-0.039870 -0.160954 -0.000073 -0.900395 -0.383488 0.205490 158 158 158
-0.000399 -0.253628 -0.000073 -0.900395 -0.383488 0.205490 158 158 158
-0.000268 -0.253628 0.000503 -0.900395 -0.383488 0.205490 158 158 158
0.000309 -0.253628 -0.000768 -0.653051 -0.361110 -0.665676 158 158 158
0.000309 -0.254908 -0.000073 -0.653051 -0.361110 -0.665676 158 158 158
-0.000399 -0.253628 -0.000073 -0.653051 -0.361110 -0.665676 158 158 158
0.013565 -0.127588 -0.013330 0.799362 0.572482 -0.182442 158 158 158
0.016591 -0.127588 -0.000073 0.799362 0.572482 -0.182442 158 158 158
0.040487 -0.160954 -0.000073 0.799362 0.572482 -0.182442 158 158 158
-0.012948 -0.127588 0.013183 -0.799362 0.572482 0.182442 158 158 158
-0.015974 -0.127588 -0.000073 -0.799362 0.572482 0.182442 158 158 158
-0.039870 -0.160954 -0.000073 -0.799362 0.572482 0.182442 158 158 158
0.000309 0.175620 -0.000073 0.000000 1.000000 -0.000001 255 255 255
0.014951 0.175620 -0.000073 0.000000 1.000000 -0.000001 255 255 255
0.012230 0.175619 -0.011995 0.000000 1.000000 -0.000001 255 255 255
-0.011613 0.175619 0.011848 -0.974916 0.005273 0.222510 161 122 100
-0.014334 0.175620 -0.000073 -0.974916 0.005273 0.222510 161 122 100
-0.015974 -0.127588 -0.000073 -0.974916 0.005273 0.222510 161 122 100
0.014951 0.175620 -0.000073 0.974916 0.005273 -0.222510 161 122 100
-0.011613 0.175619 -0.011995 0.000000 1.000000 -0.000001 255 255 255
-0.014334 0.175620 -0.000073 0.000000 1.000000 -0.000001 255 255 255
0.001017 -0.253628 -0.000073 0.653051 -0.361110 -0.665676 158 158 158
0.000309 -0.254908 -0.000073 0.653051 -0.361110 -0.665676 158 158 158
0.000309 -0.253628 -0.000768 0.653051 -0.361110 -0.665676 158 158 158
0.000309 -0.160954 0.039349 0.185913 -0.378855 0.906590 158 158 158
0.000309 -0.253628 0.000621 0.185913 -0.378855 0.906590 158 158 158
0.000885 -0.253628 0.000503 0.185913 -0.378855 0.906590 158 158 158
0.000885 -0.253628 0.000503 0.000000 -1.000000 0.000000 158 158 158
-0.012948 -0.127588 -0.013330 -0.165496 0.567007 -0.806917 158 158 158
0.000309 -0.127588 -0.016049 -0.165496 0.567007 -0.806917 158 158 158
0.000309 -0.160954 -0.039495 -0.165496 0.567007 -0.806917 158 158 158
0.000309 -0.160954 -0.039495 -0.185914 -0.378854 -0.906590 158 158 158
0.000309 -0.253628 -0.000768 -0.185914 -0.378854 -0.906590 158 158 158
-0.000268 -0.253628 -0.000650 -0.185914 -0.378854 -0.906590 158 158 158
-0.011613 0.175619 0.011848 -0.000001 1.000000 0.000000 255 255 255
0.000309 0.175620 0.014293 -0.000001 1.000000 0.000000 255 255 255
0.013565 -0.127588 0.013183 0.165502 0.567006 0.806916 158 158 158
0.000309 -0.127588 0.015902 0.165502 0.567006 0.806916 158 158 158
0.000309 -0.160954 0.039349 0.165502 0.567006 0.806916 158 158 158
-0.011613 0.175619 -0.011995 -0.200927 0.005198 -0.979592 161 122 100
0.000309 0.175620 -0.014440 -0.200927 0.005198 -0.979592 161 122 100
0.000309 -0.127588 -0.016049 -0.200927 0.005198 -0.979592 161 122 100
0.012230 0.175619 0.011848 0.200927 0.005199 0.979593 161 122 100
0.000309 0.175620 0.014293 0.200927 0.005199 0.979593 161 122 100
0.000309 -0.127588 0.015902 0.200927 0.005199 0.979593 161 122 100
0.007582 0.246584 0.049094 0.955818 -0.000000 0.293959 255 255 255
-0.008893 0.157123 0.049094 0.000000 -0.000000 1.000000 255 255 255
-0.022058 0.137452 0.006290 -0.955818 0.000000 0.293959 255 255 255
0.020746 0.137452 0.006290 0.000000 0.000000 -1.000000 255 255 255
-0.008893 0.157123 0.049094 0.000000 -0.908638 0.417585 255 255 255
0.007582 0.246584 0.049094 0.000000 0.775742 -0.631050 255 255 255
-0.008893 0.246584 -0.048783 -0.955818 0.000000 -0.293959 255 255 255
0.007582 0.157123 -0.048783 0.000000 0.000000 -1.000000 255 255 255
0.020746 0.137452 -0.005978 0.955818 0.000000 -0.293959 255 255 255
-0.022058 0.137452 -0.005978 0.000000 -0.000000 1.000000 255 255 255
0.007582 0.157123 -0.048783 -0.000000 -0.908638 -0.417585 255 255 255
-0.008893 0.246584 -0.048783 -0.000000 0.775742 0.631050 255 255 255
3 0 1 2
3 3 4 5
3 6 7 8
3 9 10 11
3 12 13 14
3 15 16 17
3 18 19 20
3 21 22 23
3 24 25 26
3 27 28 29
3 30 31 32
3 33 34 35
3 36 37 38
3 39 40 41
3 42 43 44
3 45 46 47
3 48 49 50
3 51 52 53
3 54 55 56
3 57 58 59
3 60 61 62
3 63 64 65
3 66 67 68
3 69 48 70
3 71 72 73
3 74 75 76
3 77 78 79
3 80 81 82
3 83 15 84
3 85 86 87
3 88 89 90
3 91 92 93
3 94 95 96
3 97 98 99
3 100 101 102
3 103 104 105
3 106 107 108
3 109 110 111
3 112 113 114
3 115 116 117
3 118 119 120
3 121 122 123
3 124 125 126
3 127 128 129
3 0 130 1
3 131 132 133
3 134 135 136
3 137 138 139
3 140 141 142
3 57 143 144
3 145 146 147
3 148 149 150
3 151 152 153
3 27 154 28
3 155 156 49
3 157 158 159
3 160 161 162
3 163 164 165
3 166 167 168
3 169 170 171
3 172 173 174
3 175 176 177
3 178 179 180
3 181 182 183
3 184 185 186
3 63 187 64
3 188 189 181
3 190 191 192
3 193 194 195
3 69 196 155
3 197 198 199
3 200 201 202
3 203 204 67
3 205 206 207
3 208 209 210
3 211 212 213
3 94 214 95
3 97 215 98
3 100 216 101
3 103 217 104
3 106 218 107
3 109 219 110
3 112 220 113
3 115 221 116
3 118 222 119
3 121 223 122
3 124 224 125
3 127 225 128
