ply
format ascii 1.0
comment Created by Blender 2.77 (sub 0) - www.blender.org, source file: 'Sword.blend'
element vertex 271
property float x
property float y
property float z
property float nx
property float ny
property float nz
property uchar red
property uchar green
property uchar blue
element face 120
property list uchar uint vertex_indices
end_header
-0.062251 0.907514 -0.019905 -0.967617 -0.013624 -0.252056 0 0 0
-0.049386 0.363250 -0.039874 -0.967617 -0.013624 -0.252056 0 0 0
-0.062251 0.363250 0.009512 -0.967617 -0.013624 -0.252056 0 0 0
-0.000000 0.363250 -0.054434 0.282409 -0.051774 -0.957896 0 0 0
0.049386 0.907514 -0.069291 0.282409 -0.051774 -0.957896 0 0 0
0.049386 0.363250 -0.039874 0.282409 -0.051774 -0.957896 0 0 0
0.062251 0.363250 0.009512 0.967617 0.013624 0.252056 0 0 0
0.049386 0.907514 0.029481 0.967617 0.013624 0.252056 0 0 0
0.049386 0.363250 0.058898 0.967617 0.013624 0.252056 0 0 0
0.000000 0.907514 0.044041 -0.282409 0.051774 0.957896 0 0 0
-0.049386 0.363250 0.058898 -0.282409 0.051774 0.957896 0 0 0
0.000000 0.363250 0.073458 -0.282409 0.051774 0.957896 0 0 0
0.000000 -0.230840 0.053667 0.000000 -1.000000 -0.000000 0 0 0
0.049386 -0.230840 0.079088 0.000000 -1.000000 -0.000000 0 0 0
0.000000 -0.230840 0.093648 0.000000 -1.000000 -0.000000 0 0 0
-0.000000 0.907514 -0.019905 0.000001 1.000000 -0.000000 0 0 0
-0.049386 0.907514 0.029481 0.000001 1.000000 -0.000000 0 0 0
0.000000 0.907514 0.044041 0.000001 1.000000 -0.000000 0 0 0
-0.049386 0.907514 -0.069291 0.000001 1.000000 -0.000000 0 0 0
-0.000000 0.907514 -0.083851 0.000001 1.000000 -0.000000 0 0 0
0.049386 -0.230840 -0.045326 0.000000 -1.000000 0.000000 0 0 0
-0.000000 -0.230840 -0.059886 0.000000 -1.000000 0.000000 0 0 0
0.049386 0.363250 -0.039874 0.967617 -0.013624 -0.252056 0 0 0
0.062251 0.907514 -0.019905 0.967617 -0.013624 -0.252056 0 0 0
0.062251 0.363250 0.009512 0.967617 -0.013624 -0.252056 0 0 0
-0.049386 0.907514 0.029481 -0.967617 0.013624 0.252056 0 0 0
-0.062251 0.363250 0.009512 -0.967617 0.013624 0.252056 0 0 0
-0.049386 0.363250 0.058898 -0.967617 0.013624 0.252056 0 0 0
-0.049386 -0.230840 -0.045326 0.000000 -1.000000 -0.000000 0 0 0
-0.062251 -0.230840 0.053667 0.000000 -1.000000 -0.000000 0 0 0
0.049386 0.907514 -0.069291 -0.000001 1.000000 0.000000 0 0 0
-0.000000 0.907514 -0.019905 -0.000001 1.000000 0.000000 0 0 0
0.062251 0.907514 -0.019905 -0.000001 1.000000 0.000000 0 0 0
0.049386 0.907514 0.029481 -0.000001 1.000000 -0.000000 0 0 0
-0.049386 -0.230840 0.079088 0.000000 -1.000000 0.000000 0 0 0
0.049386 0.363250 0.058898 0.282409 0.051774 0.957896 0 0 0
0.000000 0.907514 0.044041 0.282409 0.051774 0.957896 0 0 0
0.000000 0.363250 0.073458 0.282409 0.051774 0.957896 0 0 0
-0.049386 0.907514 -0.069291 -0.282409 -0.051774 -0.957896 0 0 0
-0.000000 0.363250 -0.054434 -0.282409 -0.051774 -0.957896 0 0 0
-0.049386 0.363250 -0.039874 -0.282409 -0.051774 -0.957896 0 0 0
-0.049386 0.001658 -0.069291 -0.281416 -0.098387 -0.954529 0 0 0
-0.000000 -0.230840 -0.059886 -0.281416 -0.098387 -0.954529 0 0 0
-0.049386 -0.230840 -0.045326 -0.281416 -0.098387 -0.954529 0 0 0
0.049386 -0.230840 0.079088 0.277046 0.200501 0.939705 0 0 0
0.000000 0.001658 0.044041 0.277046 0.200501 0.939705 0 0 0
0.000000 -0.230840 0.093648 0.277046 0.200501 0.939705 0 0 0
-0.049386 0.001658 0.029481 -0.888143 0.095897 0.449450 0 0 0
-0.062251 -0.230840 0.053667 -0.888143 0.095897 0.449450 0 0 0
-0.049386 -0.230840 0.079088 -0.888143 0.095897 0.449450 0 0 0
0.049386 -0.230840 -0.045326 0.990838 -0.040746 -0.128764 0 0 0
0.062251 0.001658 -0.019905 0.990838 -0.040746 -0.128764 0 0 0
0.062251 -0.230840 0.053667 0.990838 -0.040746 -0.128764 0 0 0
0.000000 0.001658 0.044041 -0.277046 0.200501 0.939705 0 0 0
-0.049386 -0.230840 0.079088 -0.277046 0.200501 0.939705 0 0 0
0.000000 -0.230840 0.093648 -0.277046 0.200501 0.939705 0 0 0
0.062251 -0.230840 0.053667 0.888143 0.095897 0.449450 0 0 0
0.049386 0.001658 0.029481 0.888143 0.095897 0.449450 0 0 0
0.049386 -0.230840 0.079088 0.888143 0.095897 0.449450 0 0 0
-0.000000 -0.230840 -0.059886 0.281416 -0.098387 -0.954529 0 0 0
0.049386 0.001658 -0.069291 0.281416 -0.098387 -0.954529 0 0 0
0.049386 -0.230840 -0.045326 0.281416 -0.098387 -0.954529 0 0 0
-0.062251 0.001658 -0.019905 -0.990838 -0.040746 -0.128764 0 0 0
-0.049386 -0.230840 -0.045326 -0.990838 -0.040746 -0.128764 0 0 0
-0.062251 -0.230840 0.053667 -0.990838 -0.040746 -0.128764 0 0 0
-0.049386 0.001658 -0.069291 -0.281931 0.077797 -0.956275 0 0 0
-0.000000 0.363250 -0.054434 -0.281931 0.077797 -0.956275 0 0 0
-0.000000 0.001658 -0.083851 -0.281931 0.077797 -0.956275 0 0 0
0.049386 0.363250 0.058898 0.281932 -0.077797 0.956275 0 0 0
0.000000 0.001658 0.044041 0.281932 -0.077797 0.956275 0 0 0
0.049386 0.001658 0.029481 0.281932 -0.077797 0.956275 0 0 0
-0.049386 0.001658 0.029481 -0.967503 -0.020504 0.252027 0 0 0
-0.062251 0.363250 0.009512 -0.967503 -0.020504 0.252027 0 0 0
-0.062251 0.001658 -0.019905 -0.967503 -0.020504 0.252027 0 0 0
0.049386 0.363250 -0.039874 0.967503 0.020504 -0.252027 0 0 0
0.062251 0.001658 -0.019905 0.967503 0.020504 -0.252027 0 0 0
0.049386 0.001658 -0.069291 0.967503 0.020504 -0.252027 0 0 0
0.000000 0.001658 0.044041 -0.281931 -0.077797 0.956275 0 0 0
-0.049386 0.363250 0.058898 -0.281931 -0.077797 0.956275 0 0 0
-0.049386 0.001658 0.029481 -0.281931 -0.077797 0.956275 0 0 0
0.062251 0.363250 0.009512 0.967503 -0.020504 0.252026 0 0 0
0.049386 0.001658 0.029481 0.967503 -0.020504 0.252026 0 0 0
0.062251 0.001658 -0.019905 0.967503 -0.020504 0.252026 0 0 0
-0.000000 0.363250 -0.054434 0.281931 0.077797 -0.956275 0 0 0
0.049386 0.001658 -0.069291 0.281931 0.077797 -0.956275 0 0 0
-0.000000 0.001658 -0.083851 0.281931 0.077797 -0.956275 0 0 0
-0.062251 0.001658 -0.019905 -0.967503 0.020504 -0.252027 0 0 0
-0.049386 0.363250 -0.039874 -0.967503 0.020504 -0.252027 0 0 0
-0.049386 0.001658 -0.069291 -0.967503 0.020504 -0.252027 0 0 0
0.010962 0.665053 0.184132 0.996424 0.011794 -0.083664 102 102 102
0.024643 0.472822 0.319974 0.996424 0.011794 -0.083664 102 102 102
0.010962 0.496062 0.160309 0.996424 0.011794 -0.083664 102 102 102
0.024643 0.665053 0.367620 0.000000 -0.240582 0.970629 102 102 102
-0.042142 0.472822 0.319974 0.000000 -0.240582 0.970629 102 102 102
0.024643 0.472822 0.319974 0.000000 -0.240582 0.970629 102 102 102
-0.028461 0.665053 -0.182844 -0.996424 0.011794 0.083664 102 102 102
-0.042142 0.472822 -0.318686 -0.996424 0.011794 0.083664 102 102 102
-0.028461 0.496062 -0.159021 -0.996424 0.011794 0.083664 102 102 102
-0.042142 0.665053 -0.366332 0.000000 -0.240582 -0.970629 102 102 102
0.024643 0.472822 -0.318686 0.000000 -0.240582 -0.970629 102 102 102
-0.042142 0.472822 -0.318686 0.000000 -0.240582 -0.970629 102 102 102
0.024643 0.472822 0.319974 -0.000000 -0.989572 -0.144040 102 102 102
-0.028461 0.496062 0.160309 -0.000000 -0.989572 -0.144040 102 102 102
0.010962 0.496062 0.160309 -0.000000 -0.989572 -0.144040 102 102 102
-0.028461 0.834044 0.160309 0.000000 0.989572 -0.144040 102 102 102
0.024643 0.857284 0.319974 0.000000 0.989572 -0.144040 102 102 102
0.010962 0.834044 0.160309 0.000000 0.989572 -0.144040 102 102 102
-0.042142 0.857284 -0.318686 0.000000 0.989572 0.144040 102 102 102
0.010962 0.834044 -0.159021 0.000000 0.989572 0.144040 102 102 102
0.024643 0.857284 -0.318686 0.000000 0.989572 0.144040 102 102 102
-0.042142 0.860231 0.000644 0.000000 0.986815 -0.161855 102 102 102
0.010962 0.834044 -0.159021 0.000000 0.986815 -0.161855 102 102 102
-0.028461 0.834044 -0.159021 0.000000 0.986815 -0.161855 102 102 102
-0.028461 0.834044 0.160309 -0.000000 0.986815 0.161855 102 102 102
0.024643 0.860231 0.000644 -0.000000 0.986815 0.161855 102 102 102
-0.042142 0.860231 0.000644 -0.000000 0.986815 0.161855 102 102 102
0.010962 0.496062 -0.159021 0.000000 -0.989572 0.144040 102 102 102
-0.042142 0.472822 -0.318686 0.000000 -0.989572 0.144040 102 102 102
0.024643 0.472822 -0.318686 0.000000 -0.989572 0.144040 102 102 102
0.024643 0.469875 0.000644 -0.000000 -0.986815 -0.161854 102 102 102
-0.028461 0.496062 -0.159021 -0.000000 -0.986815 -0.161854 102 102 102
0.010962 0.496062 -0.159021 -0.000000 -0.986815 -0.161854 102 102 102
0.010962 0.496062 0.160309 0.000000 -0.986815 0.161854 102 102 102
-0.042142 0.469875 0.000644 0.000000 -0.986815 0.161854 102 102 102
0.024643 0.469875 0.000644 0.000000 -0.986815 0.161854 102 102 102
-0.028461 0.665053 0.184132 -0.997063 0.018427 -0.074343 102 102 102
-0.042142 0.472822 0.319974 -0.997063 0.018427 -0.074343 102 102 102
-0.042142 0.665053 0.367620 -0.997063 0.018427 -0.074343 102 102 102
-0.042142 0.665053 0.000644 -0.997177 -0.010482 0.074351 102 102 102
-0.028461 0.496062 0.160309 -0.997177 -0.010482 0.074351 102 102 102
-0.028461 0.665053 0.184132 -0.997177 -0.010482 0.074351 102 102 102
-0.042142 0.665053 0.000644 -0.996349 -0.000000 -0.085374 102 102 102
-0.028461 0.496062 -0.159021 -0.996349 -0.000000 -0.085374 102 102 102
-0.042142 0.469875 0.000644 -0.996349 -0.000000 -0.085374 102 102 102
0.010962 0.665053 -0.182844 0.997063 0.018427 0.074343 102 102 102
0.024643 0.472822 -0.318686 0.997063 0.018427 0.074343 102 102 102
0.024643 0.665053 -0.366332 0.997063 0.018427 0.074343 102 102 102
0.024643 0.665053 0.000644 0.997177 -0.010482 -0.074351 102 102 102
0.010962 0.496062 -0.159021 0.997177 -0.010482 -0.074351 102 102 102
0.010962 0.665053 -0.182844 0.997177 -0.010482 -0.074351 102 102 102
0.024643 0.665053 0.000644 0.996349 0.000000 0.085374 102 102 102
0.010962 0.496062 0.160309 0.996349 0.000000 0.085374 102 102 102
0.024643 0.469875 0.000644 0.996349 0.000000 0.085374 102 102 102
0.010962 0.834044 0.160309 0.996349 -0.000000 0.085374 102 102 102
0.024643 0.860231 0.000644 0.996349 -0.000000 0.085374 102 102 102
0.010962 0.834044 -0.159021 0.997177 0.010482 -0.074351 102 102 102
0.024643 0.665053 0.000644 0.997177 0.010482 -0.074351 102 102 102
0.010962 0.665053 -0.182844 0.997177 0.010482 -0.074351 102 102 102
0.024643 0.857284 -0.318686 0.997063 -0.018427 0.074343 102 102 102
0.010962 0.665053 -0.182844 0.997063 -0.018427 0.074343 102 102 102
0.024643 0.665053 -0.366332 0.997063 -0.018427 0.074343 102 102 102
-0.028461 0.834044 -0.159021 -0.996349 -0.000000 -0.085374 102 102 102
-0.042142 0.860231 0.000644 -0.996349 -0.000000 -0.085374 102 102 102
-0.028461 0.834044 0.160309 -0.997177 0.010482 0.074351 102 102 102
-0.042142 0.665053 0.000644 -0.997177 0.010482 0.074351 102 102 102
-0.028461 0.665053 0.184132 -0.997177 0.010482 0.074351 102 102 102
-0.042142 0.857284 0.319974 -0.997063 -0.018427 -0.074343 102 102 102
-0.028461 0.665053 0.184132 -0.997063 -0.018427 -0.074343 102 102 102
-0.042142 0.665053 0.367620 -0.997063 -0.018427 -0.074343 102 102 102
0.024643 0.857284 -0.318686 0.000000 0.240582 -0.970629 102 102 102
-0.042142 0.665053 -0.366332 0.000000 0.240582 -0.970629 102 102 102
-0.042142 0.857284 -0.318686 0.000000 0.240582 -0.970629 102 102 102
-0.042142 0.857284 -0.318686 -0.996424 -0.011794 0.083664 102 102 102
-0.028461 0.665053 -0.182844 -0.996424 -0.011794 0.083664 102 102 102
-0.028461 0.834044 -0.159021 -0.996424 -0.011794 0.083664 102 102 102
-0.042142 0.857284 0.319974 0.000000 0.240582 0.970629 102 102 102
0.024643 0.665053 0.367620 0.000000 0.240582 0.970629 102 102 102
0.024643 0.857284 0.319974 0.000000 0.240582 0.970629 102 102 102
0.024643 0.857284 0.319974 0.996424 -0.011794 -0.083664 102 102 102
0.010962 0.665053 0.184132 0.996424 -0.011794 -0.083664 102 102 102
0.010962 0.834044 0.160309 0.996424 -0.011794 -0.083664 102 102 102
-0.049386 0.907514 -0.069291 -0.967617 -0.013624 -0.252056 0 0 0
-0.000000 0.907514 -0.083851 0.282409 -0.051774 -0.957896 0 0 0
0.062251 0.907514 -0.019905 0.967617 0.013624 0.252056 0 0 0
-0.049386 0.907514 0.029481 -0.282409 0.051774 0.957896 0 0 0
0.062251 -0.230840 0.053667 -0.000000 -1.000000 -0.000000 0 0 0
-0.062251 0.907514 -0.019905 0.000001 1.000000 -0.000000 0 0 0
0.049386 0.907514 -0.069291 0.967617 -0.013624 -0.252056 0 0 0
-0.062251 0.907514 -0.019905 -0.967617 0.013624 0.252056 0 0 0
-0.000000 0.907514 -0.083851 -0.000001 1.000000 0.000000 0 0 0
0.000000 0.907514 0.044041 -0.000001 1.000000 0.000000 0 0 0
0.049386 0.907514 0.029481 0.282409 0.051774 0.957896 0 0 0
-0.000000 0.907514 -0.083851 -0.282409 -0.051774 -0.957896 0 0 0
-0.049386 0.001658 -0.069291 -0.281417 -0.098387 -0.954529 0 0 0
-0.000000 0.001658 -0.083851 -0.281417 -0.098387 -0.954529 0 0 0
-0.000000 -0.230840 -0.059886 -0.281417 -0.098387 -0.954529 0 0 0
0.049386 0.001658 0.029481 0.277046 0.200501 0.939705 0 0 0
-0.049386 0.001658 0.029481 -0.964642 0.079516 0.251281 0 0 0
-0.062251 0.001658 -0.019905 -0.964642 0.079516 0.251281 0 0 0
-0.062251 -0.230840 0.053667 -0.964642 0.079516 0.251281 0 0 0
0.049386 -0.230840 -0.045326 0.967380 -0.025974 -0.251995 0 0 0
0.049386 0.001658 -0.069291 0.967380 -0.025974 -0.251995 0 0 0
0.062251 0.001658 -0.019905 0.967380 -0.025974 -0.251995 0 0 0
-0.049386 0.001658 0.029481 -0.277046 0.200501 0.939705 0 0 0
0.062251 -0.230840 0.053667 0.964642 0.079516 0.251281 0 0 0
0.062251 0.001658 -0.019905 0.964642 0.079516 0.251281 0 0 0
0.049386 0.001658 0.029481 0.964642 0.079516 0.251281 0 0 0
-0.000000 0.001658 -0.083851 0.281416 -0.098387 -0.954529 0 0 0
-0.062251 0.001658 -0.019905 -0.967380 -0.025974 -0.251994 0 0 0
-0.049386 0.001658 -0.069291 -0.967380 -0.025974 -0.251994 0 0 0
-0.049386 -0.230840 -0.045326 -0.967380 -0.025974 -0.251994 0 0 0
-0.049386 0.363250 -0.039874 -0.281931 0.077797 -0.956275 0 0 0
0.000000 0.363250 0.073458 0.281932 -0.077797 0.956275 0 0 0
-0.049386 0.363250 0.058898 -0.967503 -0.020504 0.252027 0 0 0
0.062251 0.363250 0.009512 0.967503 0.020504 -0.252027 0 0 0
0.000000 0.363250 0.073458 -0.281931 -0.077797 0.956275 0 0 0
0.062251 0.363250 0.009512 0.967503 -0.020504 0.252027 0 0 0
0.049386 0.363250 0.058898 0.967503 -0.020504 0.252027 0 0 0
0.049386 0.001658 0.029481 0.967503 -0.020504 0.252027 0 0 0
0.049386 0.363250 -0.039874 0.281931 0.077797 -0.956275 0 0 0
-0.062251 0.001658 -0.019905 -0.967503 0.020504 -0.252026 0 0 0
-0.062251 0.363250 0.009512 -0.967503 0.020504 -0.252026 0 0 0
-0.049386 0.363250 -0.039874 -0.967503 0.020504 -0.252026 0 0 0
0.010962 0.665053 0.184132 0.997063 0.018427 -0.074343 102 102 102
0.024643 0.665053 0.367620 0.997063 0.018427 -0.074343 102 102 102
0.024643 0.472822 0.319974 0.997063 0.018427 -0.074343 102 102 102
-0.042142 0.665053 0.367620 0.000000 -0.240582 0.970629 102 102 102
-0.028461 0.665053 -0.182844 -0.997063 0.018427 0.074343 102 102 102
-0.042142 0.665053 -0.366332 -0.997063 0.018427 0.074343 102 102 102
-0.042142 0.472822 -0.318686 -0.997063 0.018427 0.074343 102 102 102
0.024643 0.665053 -0.366332 -0.000000 -0.240582 -0.970629 102 102 102
-0.042142 0.472822 0.319974 0.000000 -0.989572 -0.144040 102 102 102
-0.042142 0.857284 0.319974 0.000000 0.989572 -0.144040 102 102 102
-0.028461 0.834044 -0.159021 0.000000 0.989572 0.144040 102 102 102
0.024643 0.860231 0.000644 0.000000 0.986815 -0.161855 102 102 102
0.010962 0.834044 0.160309 0.000000 0.986815 0.161855 102 102 102
-0.028461 0.496062 -0.159021 0.000000 -0.989572 0.144040 102 102 102
-0.042142 0.469875 0.000644 -0.000000 -0.986815 -0.161854 102 102 102
-0.028461 0.496062 0.160309 0.000000 -0.986815 0.161854 102 102 102
-0.028461 0.665053 0.184132 -0.996424 0.011794 -0.083664 102 102 102
-0.028461 0.496062 0.160309 -0.996424 0.011794 -0.083664 102 102 102
-0.042142 0.472822 0.319974 -0.996424 0.011794 -0.083664 102 102 102
-0.042142 0.665053 0.000644 -0.996349 0.000000 0.085374 102 102 102
-0.042142 0.469875 0.000644 -0.996349 0.000000 0.085374 102 102 102
-0.028461 0.496062 0.160309 -0.996349 0.000000 0.085374 102 102 102
-0.042142 0.665053 0.000644 -0.997177 -0.010482 -0.074351 102 102 102
-0.028461 0.665053 -0.182844 -0.997177 -0.010482 -0.074351 102 102 102
-0.028461 0.496062 -0.159021 -0.997177 -0.010482 -0.074351 102 102 102
0.010962 0.665053 -0.182844 0.996424 0.011794 0.083664 102 102 102
0.010962 0.496062 -0.159021 0.996424 0.011794 0.083664 102 102 102
0.024643 0.472822 -0.318686 0.996424 0.011794 0.083664 102 102 102
0.024643 0.665053 0.000644 0.996349 0.000000 -0.085374 102 102 102
0.024643 0.469875 0.000644 0.996349 0.000000 -0.085374 102 102 102
0.010962 0.496062 -0.159021 0.996349 0.000000 -0.085374 102 102 102
0.024643 0.665053 0.000644 0.997177 -0.010482 0.074351 102 102 102
0.010962 0.665053 0.184132 0.997177 -0.010482 0.074351 102 102 102
0.010962 0.496062 0.160309 0.997177 -0.010482 0.074351 102 102 102
0.010962 0.834044 0.160309 0.997177 0.010482 0.074351 102 102 102
0.010962 0.665053 0.184132 0.997177 0.010482 0.074351 102 102 102
0.024643 0.665053 0.000644 0.997177 0.010482 0.074351 102 102 102
0.010962 0.834044 -0.159021 0.996349 0.000000 -0.085374 102 102 102
0.024643 0.860231 0.000644 0.996349 0.000000 -0.085374 102 102 102
0.024643 0.857284 -0.318686 0.996424 -0.011794 0.083664 102 102 102
0.010962 0.834044 -0.159021 0.996424 -0.011794 0.083664 102 102 102
0.010962 0.665053 -0.182844 0.996424 -0.011794 0.083664 102 102 102
-0.028461 0.834044 -0.159021 -0.997177 0.010482 -0.074351 102 102 102
-0.028461 0.665053 -0.182844 -0.997177 0.010482 -0.074351 102 102 102
-0.042142 0.665053 0.000644 -0.997177 0.010482 -0.074351 102 102 102
-0.028461 0.834044 0.160309 -0.996349 0.000000 0.085374 102 102 102
-0.042142 0.860231 0.000644 -0.996349 0.000000 0.085374 102 102 102
-0.042142 0.857284 0.319974 -0.996424 -0.011794 -0.083664 102 102 102
-0.028461 0.834044 0.160309 -0.996424 -0.011794 -0.083664 102 102 102
-0.028461 0.665053 0.184132 -0.996424 -0.011794 -0.083664 102 102 102
0.024643 0.665053 -0.366332 0.000000 0.240582 -0.970629 102 102 102
-0.042142 0.857284 -0.318686 -0.997063 -0.018427 0.074343 102 102 102
-0.042142 0.665053 -0.366332 -0.997063 -0.018427 0.074343 102 102 102
-0.028461 0.665053 -0.182844 -0.997063 -0.018427 0.074343 102 102 102
-0.042142 0.665053 0.367620 0.000000 0.240582 0.970629 102 102 102
0.024643 0.857284 0.319974 0.997063 -0.018427 -0.074343 102 102 102
0.024643 0.665053 0.367620 0.997063 -0.018427 -0.074343 102 102 102
0.010962 0.665053 0.184132 0.997063 -0.018427 -0.074343 102 102 102
3 0 1 2
3 3 4 5
3 6 7 8
3 9 10 11
3 12 13 14
3 15 16 17
3 18 15 19
3 20 12 21
3 22 23 24
3 25 26 27
3 28 12 29
3 30 31 32
3 31 33 32
3 12 34 29
3 35 36 37
3 38 39 40
3 41 42 43
3 44 45 46
3 47 48 49
3 50 51 52
3 53 54 55
3 56 57 58
3 59 60 61
3 62 63 64
3 65 66 67
3 68 69 70
3 71 72 73
3 74 75 76
3 77 78 79
3 80 81 82
3 83 84 85
3 86 87 88
3 89 90 91
3 92 93 94
3 95 96 97
3 98 99 100
3 101 102 103
3 104 105 106
3 107 108 109
3 110 111 112
3 113 114 115
3 116 117 118
3 119 120 121
3 122 123 124
3 125 126 127
3 128 129 130
3 131 132 133
3 134 135 136
3 137 138 139
3 140 141 142
3 143 140 144
3 145 146 147
3 148 149 150
3 151 131 152
3 153 154 155
3 156 157 158
3 159 160 161
3 162 163 164
3 165 166 167
3 168 169 170
3 0 171 1
3 3 172 4
3 6 173 7
3 9 174 10
3 12 175 13
3 15 176 16
3 18 176 15
3 20 175 12
3 22 177 23
3 25 178 26
3 28 21 12
3 30 179 31
3 31 180 33
3 12 14 34
3 35 181 36
3 38 182 39
3 183 184 185
3 44 186 45
3 187 188 189
3 190 191 192
3 53 193 54
3 194 195 196
3 59 197 60
3 198 199 200
3 65 201 66
3 68 202 69
3 71 203 72
3 74 204 75
3 77 205 78
3 206 207 208
3 83 209 84
3 210 211 212
3 213 214 215
3 92 216 93
3 217 218 219
3 98 220 99
3 101 221 102
3 104 222 105
3 107 223 108
3 110 224 111
3 113 225 114
3 116 226 117
3 119 227 120
3 122 228 123
3 229 230 231
3 232 233 234
3 235 236 237
3 238 239 240
3 241 242 243
3 244 245 246
3 247 248 249
3 250 251 241
3 252 253 254
3 255 256 257
3 258 259 232
3 260 261 262
3 159 263 160
3 264 265 266
3 165 267 166
3 268 269 270
