ply
format ascii 1.0
comment Created by Blender 2.77 (sub 0) - www.blender.org, source file: 'Bush.blend'
element vertex 360
property float x
property float y
property float z
property float nx
property float ny
property float nz
property uchar red
property uchar green
property uchar blue
element face 120
property list uchar uint vertex_indices
end_header
-0.175233 1.239776 1.077495 -0.187597 0.969805 0.155837 0 0 0
-1.014119 0.943596 1.910826 -0.187597 0.969805 0.155837 0 0 0
0.145187 1.113855 2.246840 -0.187597 0.969805 0.155837 0 0 0
-1.014119 0.943596 1.910826 -0.607065 0.708848 -0.359176 0 0 0
-0.175233 1.239776 1.077495 -0.607065 0.708848 -0.359176 0 0 0
-1.014119 0.392638 0.823487 -0.607065 0.708848 -0.359176 0 0 0
-0.175233 1.239776 1.077495 0.491122 0.870131 -0.040876 0 0 0
0.145187 1.113855 2.246840 0.491122 0.870131 -0.040876 0 0 0
0.861695 0.668117 1.367157 0.491122 0.870131 -0.040876 0 0 0
-0.175233 1.239776 1.077495 0.491122 0.547564 -0.677475 0 0 0
0.861695 0.668117 1.367157 0.491122 0.547564 -0.677475 0 0 0
0.145187 0.222379 0.487474 0.491122 0.547564 -0.677475 0 0 0
-0.175233 1.239776 1.077495 -0.187596 0.447888 -0.874188 0 0 0
0.145187 0.222379 0.487474 -0.187596 0.447888 -0.874188 0 0 0
-1.014119 0.392638 0.823487 -0.187596 0.447888 -0.874188 0 0 0
-1.014119 0.943596 1.910826 -0.982246 0.167341 -0.084792 0 0 0
-1.014119 0.392638 0.823487 -0.982246 0.167341 -0.084792 0 0 0
-1.212161 -0.256851 1.835841 -0.982246 0.167341 -0.084792 0 0 0
0.145187 1.113855 2.246840 -0.303536 0.589571 0.748514 0 0 0
-1.014119 0.943596 1.910826 -0.303536 0.589571 0.748514 0 0 0
-0.495652 0.188887 2.715524 -0.303536 0.589571 0.748514 0 0 0
0.861695 0.668117 1.367157 0.794649 0.428293 0.430230 0 0 0
0.145187 1.113855 2.246840 0.794649 0.428293 0.430230 0 0 0
0.663653 0.018628 2.379511 0.794649 0.428293 0.430230 0 0 0
0.145187 0.222379 0.487474 0.794649 -0.093629 -0.599805 0 0 0
0.861695 0.668117 1.367157 0.794649 -0.093629 -0.599805 0 0 0
0.663654 -0.532330 1.292172 0.794649 -0.093629 -0.599805 0 0 0
-1.014119 0.392638 0.823487 -0.303535 -0.254903 -0.918091 0 0 0
0.145187 0.222379 0.487474 -0.303535 -0.254903 -0.918091 0 0 0
-0.495652 -0.702590 0.956158 -0.303535 -0.254903 -0.918091 0 0 0
-1.014119 0.943596 1.910826 -0.794649 0.093629 0.599805 0 0 0
-1.212161 -0.256851 1.835841 -0.794649 0.093629 0.599805 0 0 0
-0.495652 0.188887 2.715524 -0.794649 0.093629 0.599805 0 0 0
0.145187 1.113855 2.246840 0.303536 0.254903 0.918091 0 0 0
-0.495652 0.188887 2.715524 0.303536 0.254903 0.918091 0 0 0
0.663653 0.018628 2.379511 0.303536 0.254903 0.918091 0 0 0
0.861695 0.668117 1.367157 0.982246 -0.167340 0.084792 0 0 0
0.663653 0.018628 2.379511 0.982246 -0.167340 0.084792 0 0 0
0.663654 -0.532330 1.292172 0.982246 -0.167340 0.084792 0 0 0
0.145187 0.222379 0.487474 0.303536 -0.589571 -0.748514 0 0 0
0.663654 -0.532330 1.292172 0.303536 -0.589571 -0.748514 0 0 0
-0.495652 -0.702590 0.956158 0.303536 -0.589571 -0.748514 0 0 0
-1.014119 0.392638 0.823487 -0.794649 -0.428293 -0.430230 0 0 0
-0.495652 -0.702590 0.956158 -0.794649 -0.428293 -0.430230 0 0 0
-1.212161 -0.256851 1.835841 -0.794649 -0.428293 -0.430230 0 0 0
-0.495652 0.188887 2.715524 -0.491122 -0.547564 0.677475 0 0 0
-1.212161 -0.256851 1.835841 -0.491122 -0.547564 0.677475 0 0 0
-0.175233 -0.828510 2.125503 -0.491122 -0.547564 0.677475 0 0 0
0.663653 0.018628 2.379511 0.187597 -0.447888 0.874187 0 0 0
-0.495652 0.188887 2.715524 0.187597 -0.447888 0.874187 0 0 0
-0.175233 -0.828510 2.125503 0.187597 -0.447888 0.874187 0 0 0
0.663654 -0.532330 1.292172 0.607065 -0.708848 0.359176 0 0 0
0.663653 0.018628 2.379511 0.607065 -0.708848 0.359176 0 0 0
-0.175233 -0.828510 2.125503 0.607065 -0.708848 0.359176 0 0 0
-0.495652 -0.702590 0.956158 0.187597 -0.969805 -0.155837 0 0 0
0.663654 -0.532330 1.292172 0.187597 -0.969805 -0.155837 0 0 0
-0.175233 -0.828510 2.125503 0.187597 -0.969805 -0.155837 0 0 0
-1.212161 -0.256851 1.835841 -0.491122 -0.870131 0.040876 0 0 0
-0.495652 -0.702590 0.956158 -0.491122 -0.870131 0.040876 0 0 0
-0.175233 -0.828510 2.125503 -0.491122 -0.870131 0.040876 0 0 0
-1.258312 0.675659 0.765204 -0.187597 0.969805 0.155837 0 0 0
-1.639593 0.541043 1.143960 -0.187597 0.969805 0.155837 0 0 0
-1.112679 0.618428 1.296681 -0.187597 0.969805 0.155837 0 0 0
-1.639593 0.541043 1.143960 -0.607065 0.708848 -0.359176 0 0 0
-1.258312 0.675659 0.765204 -0.607065 0.708848 -0.359176 0 0 0
-1.639593 0.290628 0.649755 -0.607065 0.708848 -0.359176 0 0 0
-1.258312 0.675659 0.765204 0.491122 0.870131 -0.040876 0 0 0
-1.112679 0.618428 1.296681 0.491122 0.870131 -0.040876 0 0 0
-0.787020 0.415836 0.896858 0.491122 0.870131 -0.040876 0 0 0
-1.258312 0.675659 0.765204 0.491122 0.547564 -0.677475 0 0 0
-0.787020 0.415836 0.896858 0.491122 0.547564 -0.677475 0 0 0
-1.112679 0.213244 0.497034 0.491122 0.547564 -0.677475 0 0 0
-1.258312 0.675659 0.765204 -0.187597 0.447888 -0.874188 0 0 0
-1.112679 0.213244 0.497034 -0.187597 0.447888 -0.874188 0 0 0
-1.639593 0.290628 0.649755 -0.187597 0.447888 -0.874188 0 0 0
-1.639593 0.541043 1.143960 -0.982246 0.167341 -0.084792 0 0 0
-1.639593 0.290628 0.649755 -0.982246 0.167341 -0.084792 0 0 0
-1.729605 -0.004570 1.109879 -0.982246 0.167341 -0.084792 0 0 0
-1.112679 0.618428 1.296681 -0.303536 0.589571 0.748513 0 0 0
-1.639593 0.541043 1.143960 -0.303536 0.589571 0.748513 0 0 0
-1.403946 0.198022 1.509702 -0.303536 0.589571 0.748513 0 0 0
-0.787020 0.415836 0.896858 0.794649 0.428293 0.430230 0 0 0
-1.112679 0.618428 1.296681 0.794649 0.428293 0.430230 0 0 0
-0.877031 0.120638 1.356981 0.794649 0.428293 0.430230 0 0 0
-1.112679 0.213244 0.497034 0.794649 -0.093629 -0.599805 0 0 0
-0.787020 0.415836 0.896858 0.794649 -0.093629 -0.599805 0 0 0
-0.877031 -0.129778 0.862776 0.794649 -0.093629 -0.599805 0 0 0
-1.639593 0.290628 0.649755 -0.303535 -0.254903 -0.918091 0 0 0
-1.112679 0.213244 0.497034 -0.303535 -0.254903 -0.918091 0 0 0
-1.403946 -0.207162 0.710055 -0.303535 -0.254903 -0.918091 0 0 0
-1.639593 0.541043 1.143960 -0.794649 0.093630 0.599805 0 0 0
-1.729605 -0.004570 1.109879 -0.794649 0.093630 0.599805 0 0 0
-1.403946 0.198022 1.509702 -0.794649 0.093630 0.599805 0 0 0
-1.112679 0.618428 1.296681 0.303536 0.254904 0.918091 0 0 0
-1.403946 0.198022 1.509702 0.303536 0.254904 0.918091 0 0 0
-0.877031 0.120638 1.356981 0.303536 0.254904 0.918091 0 0 0
-0.787020 0.415836 0.896858 0.982246 -0.167341 0.084792 0 0 0
-0.877031 0.120638 1.356981 0.982246 -0.167341 0.084792 0 0 0
-0.877031 -0.129778 0.862776 0.982246 -0.167341 0.084792 0 0 0
-1.112679 0.213244 0.497034 0.303536 -0.589571 -0.748513 0 0 0
-0.877031 -0.129778 0.862776 0.303536 -0.589571 -0.748513 0 0 0
-1.403946 -0.207162 0.710055 0.303536 -0.589571 -0.748513 0 0 0
-1.639593 0.290628 0.649755 -0.794649 -0.428293 -0.430230 0 0 0
-1.403946 -0.207162 0.710055 -0.794649 -0.428293 -0.430230 0 0 0
-1.729605 -0.004570 1.109879 -0.794649 -0.428293 -0.430230 0 0 0
-1.403946 0.198022 1.509702 -0.491123 -0.547564 0.677475 0 0 0
-1.729605 -0.004570 1.109879 -0.491123 -0.547564 0.677475 0 0 0
-1.258312 -0.264394 1.241532 -0.491123 -0.547564 0.677475 0 0 0
-0.877031 0.120638 1.356981 0.187597 -0.447888 0.874187 0 0 0
-1.403946 0.198022 1.509702 0.187597 -0.447888 0.874187 0 0 0
-1.258312 -0.264394 1.241532 0.187597 -0.447888 0.874187 0 0 0
-0.877031 -0.129778 0.862776 0.607065 -0.708848 0.359176 0 0 0
-0.877031 0.120638 1.356981 0.607065 -0.708848 0.359176 0 0 0
-1.258312 -0.264394 1.241532 0.607065 -0.708848 0.359176 0 0 0
-1.403946 -0.207162 0.710055 0.187597 -0.969805 -0.155837 0 0 0
-0.877031 -0.129778 0.862776 0.187597 -0.969805 -0.155837 0 0 0
-1.258312 -0.264394 1.241532 0.187597 -0.969805 -0.155837 0 0 0
-1.729605 -0.004570 1.109879 -0.491122 -0.870131 0.040876 0 0 0
-1.403946 -0.207162 0.710055 -0.491122 -0.870131 0.040876 0 0 0
-1.258312 -0.264394 1.241532 -0.491122 -0.870131 0.040876 0 0 0
-0.844713 1.020010 -1.442174 -0.187597 0.969805 0.155838 0 0 0
-1.505328 0.786772 -0.785935 -0.187597 0.969805 0.155838 0 0 0
-0.592386 0.920849 -0.521327 -0.187597 0.969805 0.155838 0 0 0
-1.505328 0.786772 -0.785935 -0.607065 0.708848 -0.359175 0 0 0
-0.844713 1.020010 -1.442174 -0.607065 0.708848 -0.359175 0 0 0
-1.505328 0.352898 -1.642203 -0.607065 0.708848 -0.359175 0 0 0
-0.844713 1.020010 -1.442174 0.491122 0.870131 -0.040876 0 0 0
-0.592386 0.920849 -0.521327 0.491122 0.870131 -0.040876 0 0 0
-0.028143 0.569834 -1.214069 0.491122 0.870131 -0.040876 0 0 0
-0.844713 1.020010 -1.442174 0.491122 0.547564 -0.677475 0 0 0
-0.028143 0.569834 -1.214069 0.491122 0.547564 -0.677475 0 0 0
-0.592386 0.218820 -1.906810 0.491122 0.547564 -0.677475 0 0 0
-0.844713 1.020010 -1.442174 -0.187596 0.447888 -0.874188 0 0 0
-0.592386 0.218820 -1.906810 -0.187596 0.447888 -0.874188 0 0 0
-1.505328 0.352898 -1.642203 -0.187596 0.447888 -0.874188 0 0 0
-1.505328 0.786772 -0.785935 -0.982246 0.167341 -0.084792 0 0 0
-1.505328 0.352898 -1.642203 -0.982246 0.167341 -0.084792 0 0 0
-1.661283 -0.158569 -0.844984 -0.982246 0.167341 -0.084792 0 0 0
-0.592386 0.920849 -0.521327 -0.303536 0.589571 0.748514 0 0 0
-1.505328 0.786772 -0.785935 -0.303536 0.589571 0.748514 0 0 0
-1.097040 0.192446 -0.152243 -0.303536 0.589571 0.748514 0 0 0
-0.028143 0.569834 -1.214069 0.794649 0.428293 0.430230 0 0 0
-0.592386 0.920849 -0.521327 0.794649 0.428293 0.430230 0 0 0
-0.184098 0.058369 -0.416850 0.794649 0.428293 0.430230 0 0 0
-0.592386 0.218820 -1.906810 0.794649 -0.093629 -0.599805 0 0 0
-0.028143 0.569834 -1.214069 0.794649 -0.093629 -0.599805 0 0 0
-0.184098 -0.375506 -1.273118 0.794649 -0.093629 -0.599805 0 0 0
-1.505328 0.352898 -1.642203 -0.303536 -0.254903 -0.918091 0 0 0
-0.592386 0.218820 -1.906810 -0.303536 -0.254903 -0.918091 0 0 0
-1.097040 -0.509583 -1.537726 -0.303536 -0.254903 -0.918091 0 0 0
-1.505328 0.786772 -0.785935 -0.794649 0.093629 0.599805 0 0 0
-1.661283 -0.158569 -0.844984 -0.794649 0.093629 0.599805 0 0 0
-1.097040 0.192446 -0.152243 -0.794649 0.093629 0.599805 0 0 0
-0.592386 0.920849 -0.521327 0.303535 0.254903 0.918091 0 0 0
-1.097040 0.192446 -0.152243 0.303535 0.254903 0.918091 0 0 0
-0.184098 0.058369 -0.416850 0.303535 0.254903 0.918091 0 0 0
-0.028143 0.569834 -1.214069 0.982246 -0.167340 0.084792 0 0 0
-0.184098 0.058369 -0.416850 0.982246 -0.167340 0.084792 0 0 0
-0.184098 -0.375506 -1.273118 0.982246 -0.167340 0.084792 0 0 0
-0.592386 0.218820 -1.906810 0.303536 -0.589571 -0.748514 0 0 0
-0.184098 -0.375506 -1.273118 0.303536 -0.589571 -0.748514 0 0 0
-1.097040 -0.509583 -1.537726 0.303536 -0.589571 -0.748514 0 0 0
-1.505328 0.352898 -1.642203 -0.794649 -0.428293 -0.430230 0 0 0
-1.097040 -0.509583 -1.537726 -0.794649 -0.428293 -0.430230 0 0 0
-1.661283 -0.158569 -0.844984 -0.794649 -0.428293 -0.430230 0 0 0
-1.097040 0.192446 -0.152243 -0.491122 -0.547564 0.677475 0 0 0
-1.661283 -0.158569 -0.844984 -0.491122 -0.547564 0.677475 0 0 0
-0.844713 -0.608744 -0.616879 -0.491122 -0.547564 0.677475 0 0 0
-0.184098 0.058369 -0.416850 0.187597 -0.447888 0.874188 0 0 0
-1.097040 0.192446 -0.152243 0.187597 -0.447888 0.874188 0 0 0
-0.844713 -0.608744 -0.616879 0.187597 -0.447888 0.874188 0 0 0
-0.184098 -0.375506 -1.273118 0.607065 -0.708848 0.359176 0 0 0
-0.184098 0.058369 -0.416850 0.607065 -0.708848 0.359176 0 0 0
-0.844713 -0.608744 -0.616879 0.607065 -0.708848 0.359176 0 0 0
-1.097040 -0.509583 -1.537726 0.187596 -0.969805 -0.155837 0 0 0
-0.184098 -0.375506 -1.273118 0.187596 -0.969805 -0.155837 0 0 0
-0.844713 -0.608744 -0.616879 0.187596 -0.969805 -0.155837 0 0 0
-1.661283 -0.158569 -0.844984 -0.491122 -0.870131 0.040876 0 0 0
-1.097040 -0.509583 -1.537726 -0.491122 -0.870131 0.040876 0 0 0
-0.844713 -0.608744 -0.616879 -0.491122 -0.870131 0.040876 0 0 0
0.146030 -0.450022 -1.693578 -0.187597 -0.794651 -0.577354 0 0 0
-0.520272 0.058991 -2.177670 -0.187597 -0.794651 -0.577354 0 0 0
0.400530 0.058991 -2.476861 -0.187597 -0.794651 -0.577354 0 0 0
-0.520272 0.058991 -2.177670 -0.607065 -0.794652 -0.000000 0 0 0
0.146030 -0.450022 -1.693578 -0.607065 -0.794652 -0.000000 0 0 0
-0.520272 0.058991 -1.209488 -0.607065 -0.794652 -0.000000 0 0 0
0.146030 -0.450022 -1.693578 0.491122 -0.794652 -0.356829 0 0 0
0.400530 0.058991 -2.476861 0.491122 -0.794652 -0.356829 0 0 0
0.969630 0.058991 -1.693579 0.491122 -0.794652 -0.356829 0 0 0
0.146030 -0.450022 -1.693578 0.491122 -0.794652 0.356829 0 0 0
0.969630 0.058991 -1.693579 0.491122 -0.794652 0.356829 0 0 0
0.400530 0.058991 -0.910296 0.491122 -0.794652 0.356829 0 0 0
0.146030 -0.450022 -1.693578 -0.187597 -0.794651 0.577354 0 0 0
0.400530 0.058991 -0.910296 -0.187597 -0.794651 0.577354 0 0 0
-0.520272 0.058991 -1.209488 -0.187597 -0.794651 0.577354 0 0 0
-0.520272 0.058991 -2.177670 -0.982246 -0.187597 -0.000000 0 0 0
-0.520272 0.058991 -1.209488 -0.982246 -0.187597 -0.000000 0 0 0
-0.677570 0.882596 -1.693579 -0.982246 -0.187597 -0.000000 0 0 0
0.400530 0.058991 -2.476861 -0.303535 -0.187589 -0.934172 0 0 0
-0.520272 0.058991 -2.177670 -0.303535 -0.187589 -0.934172 0 0 0
-0.108469 0.882596 -2.476861 -0.303535 -0.187589 -0.934172 0 0 0
0.969630 0.058991 -1.693579 0.794649 -0.187587 -0.577359 0 0 0
0.400530 0.058991 -2.476861 0.794649 -0.187587 -0.577359 0 0 0
0.812332 0.882596 -2.177670 0.794649 -0.187587 -0.577359 0 0 0
0.400530 0.058991 -0.910296 0.794649 -0.187587 0.577359 0 0 0
0.969630 0.058991 -1.693579 0.794649 -0.187587 0.577359 0 0 0
0.812332 0.882596 -1.209488 0.794649 -0.187587 0.577359 0 0 0
-0.520272 0.058991 -1.209488 -0.303536 -0.187589 0.934172 0 0 0
0.400530 0.058991 -0.910296 -0.303536 -0.187589 0.934172 0 0 0
-0.108470 0.882596 -0.910296 -0.303536 -0.187589 0.934172 0 0 0
-0.520272 0.058991 -2.177670 -0.794649 0.187587 -0.577359 0 0 0
-0.677570 0.882596 -1.693579 -0.794649 0.187587 -0.577359 0 0 0
-0.108469 0.882596 -2.476861 -0.794649 0.187587 -0.577359 0 0 0
0.400530 0.058991 -2.476861 0.303536 0.187589 -0.934171 0 0 0
-0.108469 0.882596 -2.476861 0.303536 0.187589 -0.934171 0 0 0
0.812332 0.882596 -2.177670 0.303536 0.187589 -0.934171 0 0 0
0.969630 0.058991 -1.693579 0.982246 0.187597 -0.000000 0 0 0
0.812332 0.882596 -2.177670 0.982246 0.187597 -0.000000 0 0 0
0.812332 0.882596 -1.209488 0.982246 0.187597 -0.000000 0 0 0
0.400530 0.058991 -0.910296 0.303535 0.187589 0.934171 0 0 0
0.812332 0.882596 -1.209488 0.303535 0.187589 0.934171 0 0 0
-0.108470 0.882596 -0.910296 0.303535 0.187589 0.934171 0 0 0
-0.520272 0.058991 -1.209488 -0.794649 0.187587 0.577359 0 0 0
-0.108470 0.882596 -0.910296 -0.794649 0.187587 0.577359 0 0 0
-0.677570 0.882596 -1.693579 -0.794649 0.187587 0.577359 0 0 0
-0.108469 0.882596 -2.476861 -0.491122 0.794652 -0.356829 0 0 0
-0.677570 0.882596 -1.693579 -0.491122 0.794652 -0.356829 0 0 0
0.146030 1.391609 -1.693579 -0.491122 0.794652 -0.356829 0 0 0
0.812332 0.882596 -2.177670 0.187597 0.794651 -0.577354 0 0 0
-0.108469 0.882596 -2.476861 0.187597 0.794651 -0.577354 0 0 0
0.146030 1.391609 -1.693579 0.187597 0.794651 -0.577354 0 0 0
0.812332 0.882596 -1.209488 0.607065 0.794653 -0.000000 0 0 0
0.812332 0.882596 -2.177670 0.607065 0.794653 -0.000000 0 0 0
0.146030 1.391609 -1.693579 0.607065 0.794653 -0.000000 0 0 0
-0.108470 0.882596 -0.910296 0.187596 0.794651 0.577354 0 0 0
0.812332 0.882596 -1.209488 0.187596 0.794651 0.577354 0 0 0
0.146030 1.391609 -1.693579 0.187596 0.794651 0.577354 0 0 0
-0.677570 0.882596 -1.693579 -0.491122 0.794652 0.356829 0 0 0
-0.108470 0.882596 -0.910296 -0.491122 0.794652 0.356829 0 0 0
0.146030 1.391609 -1.693579 -0.491122 0.794652 0.356829 0 0 0
-0.069066 -0.915221 -0.186879 -0.199795 -0.846323 -0.493781 0 0 0
-1.071986 -0.149053 -1.094259 -0.199795 -0.846323 -0.493781 0 0 0
0.314007 -0.149053 -1.655063 -0.199795 -0.846323 -0.493781 0 0 0
-1.071986 -0.149053 -1.094259 -0.607065 -0.794652 -0.000000 0 0 0
-0.069066 -0.915221 -0.186879 -0.607065 -0.794652 -0.000000 0 0 0
-1.071986 -0.149053 0.720500 -0.607065 -0.794652 -0.000000 0 0 0
-0.069066 -0.915221 -0.186879 0.502617 -0.813252 -0.293252 0 0 0
0.314007 -0.149053 -1.655063 0.502617 -0.813252 -0.293252 0 0 0
1.170619 -0.149053 -0.186879 0.502617 -0.813252 -0.293252 0 0 0
-0.069066 -0.915221 -0.186879 0.502617 -0.813252 0.293252 0 0 0
1.170619 -0.149053 -0.186879 0.502617 -0.813252 0.293252 0 0 0
0.314007 -0.149053 1.281305 0.502617 -0.813252 0.293252 0 0 0
-0.069066 -0.915221 -0.186879 -0.199795 -0.846323 0.493781 0 0 0
0.314007 -0.149053 1.281305 -0.199795 -0.846323 0.493781 0 0 0
-1.071986 -0.149053 0.720500 -0.199795 -0.846323 0.493781 0 0 0
-1.071986 -0.149053 -1.094259 -0.982246 -0.187597 -0.000000 0 0 0
-1.071986 -0.149053 0.720500 -0.982246 -0.187597 -0.000000 0 0 0
-1.308752 1.090639 -0.186879 -0.982246 -0.187597 -0.000000 0 0 0
0.314007 -0.149053 -1.655063 -0.365393 -0.225818 -0.903047 0 0 0
-1.071986 -0.149053 -1.094259 -0.365393 -0.225818 -0.903047 0 0 0
-0.452140 1.090640 -1.655063 -0.365393 -0.225818 -0.903047 0 0 0
1.170619 -0.149053 -0.186879 0.846322 -0.199785 -0.493787 0 0 0
0.314007 -0.149053 -1.655063 0.846322 -0.199785 -0.493787 0 0 0
0.933853 1.090640 -1.094259 0.846322 -0.199785 -0.493787 0 0 0
0.314007 -0.149053 1.281305 0.846322 -0.199785 0.493787 0 0 0
1.170619 -0.149053 -0.186879 0.846322 -0.199785 0.493787 0 0 0
0.933853 1.090639 0.720501 0.846322 -0.199785 0.493787 0 0 0
-1.071986 -0.149053 0.720500 -0.365393 -0.225818 0.903047 0 0 0
0.314007 -0.149053 1.281305 -0.365393 -0.225818 0.903047 0 0 0
-0.452140 1.090640 1.281304 -0.365393 -0.225818 0.903047 0 0 0
-1.071986 -0.149053 -1.094259 -0.846322 0.199785 -0.493787 0 0 0
-1.308752 1.090639 -0.186879 -0.846322 0.199785 -0.493787 0 0 0
-0.452140 1.090640 -1.655063 -0.846322 0.199785 -0.493787 0 0 0
0.314007 -0.149053 -1.655063 0.365393 0.225818 -0.903047 0 0 0
-0.452140 1.090640 -1.655063 0.365393 0.225818 -0.903047 0 0 0
0.933853 1.090640 -1.094259 0.365393 0.225818 -0.903047 0 0 0
1.170619 -0.149053 -0.186879 0.982246 0.187597 0.000000 0 0 0
0.933853 1.090640 -1.094259 0.982246 0.187597 0.000000 0 0 0
0.933853 1.090639 0.720501 0.982246 0.187597 0.000000 0 0 0
0.314007 -0.149053 1.281305 0.365393 0.225818 0.903047 0 0 0
0.933853 1.090639 0.720501 0.365393 0.225818 0.903047 0 0 0
-0.452140 1.090640 1.281304 0.365393 0.225818 0.903047 0 0 0
-1.071986 -0.149053 0.720500 -0.846322 0.199785 0.493787 0 0 0
-0.452140 1.090640 1.281304 -0.846322 0.199785 0.493787 0 0 0
-1.308752 1.090639 -0.186879 -0.846322 0.199785 0.493787 0 0 0
-0.452140 1.090640 -1.655063 -0.502617 0.813252 -0.293252 0 0 0
-1.308752 1.090639 -0.186879 -0.502617 0.813252 -0.293252 0 0 0
-0.069067 1.856807 -0.186879 -0.502617 0.813252 -0.293252 0 0 0
0.933853 1.090640 -1.094259 0.199795 0.846323 -0.493781 0 0 0
-0.452140 1.090640 -1.655063 0.199795 0.846323 -0.493781 0 0 0
-0.069067 1.856807 -0.186879 0.199795 0.846323 -0.493781 0 0 0
0.933853 1.090639 0.720501 0.607065 0.794652 0.000000 0 0 0
0.933853 1.090640 -1.094259 0.607065 0.794652 0.000000 0 0 0
-0.069067 1.856807 -0.186879 0.607065 0.794652 0.000000 0 0 0
-0.452140 1.090640 1.281304 0.199795 0.846323 0.493781 0 0 0
0.933853 1.090639 0.720501 0.199795 0.846323 0.493781 0 0 0
-0.069067 1.856807 -0.186879 0.199795 0.846323 0.493781 0 0 0
-1.308752 1.090639 -0.186879 -0.502617 0.813252 0.293252 0 0 0
-0.452140 1.090640 1.281304 -0.502617 0.813252 0.293252 0 0 0
-0.069067 1.856807 -0.186879 -0.502617 0.813252 0.293252 0 0 0
1.168973 1.036883 -1.212648 -0.187596 0.969805 0.155837 0 0 0
0.675033 0.862492 -0.721979 -0.187596 0.969805 0.155837 0 0 0
1.357637 0.962741 -0.524133 -0.187596 0.969805 0.155837 0 0 0
0.675033 0.862492 -0.721979 -0.607064 0.708848 -0.359176 0 0 0
1.168973 1.036883 -1.212648 -0.607064 0.708848 -0.359176 0 0 0
0.675033 0.538085 -1.362209 -0.607064 0.708848 -0.359176 0 0 0
1.168973 1.036883 -1.212648 0.491122 0.870131 -0.040876 0 0 0
1.357637 0.962741 -0.524133 0.491122 0.870131 -0.040876 0 0 0
1.779520 0.700288 -1.042094 0.491122 0.870131 -0.040876 0 0 0
1.168973 1.036883 -1.212648 0.491122 0.547564 -0.677475 0 0 0
1.779520 0.700288 -1.042094 0.491122 0.547564 -0.677475 0 0 0
1.357637 0.437836 -1.560054 0.491122 0.547564 -0.677475 0 0 0
1.168973 1.036883 -1.212648 -0.187596 0.447888 -0.874188 0 0 0
1.357637 0.437836 -1.560054 -0.187596 0.447888 -0.874188 0 0 0
0.675033 0.538085 -1.362209 -0.187596 0.447888 -0.874188 0 0 0
0.675033 0.862492 -0.721979 -0.982246 0.167341 -0.084792 0 0 0
0.675033 0.538085 -1.362209 -0.982246 0.167341 -0.084792 0 0 0
0.558426 0.155664 -0.766131 -0.982246 0.167341 -0.084792 0 0 0
1.357637 0.962741 -0.524133 -0.303536 0.589571 0.748514 0 0 0
0.675033 0.862492 -0.721979 -0.303536 0.589571 0.748514 0 0 0
0.980308 0.418116 -0.248170 -0.303536 0.589571 0.748514 0 0 0
1.779520 0.700288 -1.042094 0.794649 0.428293 0.430230 0 0 0
1.357637 0.962741 -0.524133 0.794649 0.428293 0.430230 0 0 0
1.662912 0.317867 -0.446016 0.794649 0.428293 0.430230 0 0 0
1.357637 0.437836 -1.560054 0.794649 -0.093629 -0.599805 0 0 0
1.779520 0.700288 -1.042094 0.794649 -0.093629 -0.599805 0 0 0
1.662912 -0.006539 -1.086245 0.794649 -0.093629 -0.599805 0 0 0
0.675033 0.538085 -1.362209 -0.303535 -0.254903 -0.918091 0 0 0
1.357637 0.437836 -1.560054 -0.303535 -0.254903 -0.918091 0 0 0
0.980308 -0.106789 -1.284091 -0.303535 -0.254903 -0.918091 0 0 0
0.675033 0.862492 -0.721979 -0.794649 0.093629 0.599805 0 0 0
0.558426 0.155664 -0.766131 -0.794649 0.093629 0.599805 0 0 0
0.980308 0.418116 -0.248170 -0.794649 0.093629 0.599805 0 0 0
1.357637 0.962741 -0.524133 0.303536 0.254903 0.918091 0 0 0
0.980308 0.418116 -0.248170 0.303536 0.254903 0.918091 0 0 0
1.662912 0.317867 -0.446016 0.303536 0.254903 0.918091 0 0 0
1.779520 0.700288 -1.042094 0.982246 -0.167341 0.084792 0 0 0
1.662912 0.317867 -0.446016 0.982246 -0.167341 0.084792 0 0 0
1.662912 -0.006539 -1.086245 0.982246 -0.167341 0.084792 0 0 0
1.357637 0.437836 -1.560054 0.303536 -0.589571 -0.748514 0 0 0
1.662912 -0.006539 -1.086245 0.303536 -0.589571 -0.748514 0 0 0
0.980308 -0.106789 -1.284091 0.303536 -0.589571 -0.748514 0 0 0
0.675033 0.538085 -1.362209 -0.794649 -0.428293 -0.430230 0 0 0
0.980308 -0.106789 -1.284091 -0.794649 -0.428293 -0.430230 0 0 0
0.558426 0.155664 -0.766131 -0.794649 -0.428293 -0.430230 0 0 0
0.980308 0.418116 -0.248170 -0.491122 -0.547564 0.677475 0 0 0
0.558426 0.155664 -0.766131 -0.491122 -0.547564 0.677475 0 0 0
1.168972 -0.180931 -0.595577 -0.491122 -0.547564 0.677475 0 0 0
1.662912 0.317867 -0.446016 0.187597 -0.447888 0.874188 0 0 0
0.980308 0.418116 -0.248170 0.187597 -0.447888 0.874188 0 0 0
1.168972 -0.180931 -0.595577 0.187597 -0.447888 0.874188 0 0 0
1.662912 -0.006539 -1.086245 0.607065 -0.708848 0.359176 0 0 0
1.662912 0.317867 -0.446016 0.607065 -0.708848 0.359176 0 0 0
1.168972 -0.180931 -0.595577 0.607065 -0.708848 0.359176 0 0 0
0.980308 -0.106789 -1.284091 0.187597 -0.969805 -0.155837 0 0 0
1.662912 -0.006539 -1.086245 0.187597 -0.969805 -0.155837 0 0 0
1.168972 -0.180931 -0.595577 0.187597 -0.969805 -0.155837 0 0 0
0.558426 0.155664 -0.766131 -0.491122 -0.870131 0.040876 0 0 0
0.980308 -0.106789 -1.284091 -0.491122 -0.870131 0.040876 0 0 0
1.168972 -0.180931 -0.595577 -0.491122 -0.870131 0.040876 0 0 0
3 0 1 2
3 3 4 5
3 6 7 8
3 9 10 11
3 12 13 14
3 15 16 17
3 18 19 20
3 21 22 23
3 24 25 26
3 27 28 29
3 30 31 32
3 33 34 35
3 36 37 38
3 39 40 41
3 42 43 44
3 45 46 47
3 48 49 50
3 51 52 53
3 54 55 56
3 57 58 59
3 60 61 62
3 63 64 65
3 66 67 68
3 69 70 71
3 72 73 74
3 75 76 77
3 78 79 80
3 81 82 83
3 84 85 86
3 87 88 89
3 90 91 92
3 93 94 95
3 96 97 98
3 99 100 101
3 102 103 104
3 105 106 107
3 108 109 110
3 111 112 113
3 114 115 116
3 117 118 119
3 120 121 122
3 123 124 125
3 126 127 128
3 129 130 131
3 132 133 134
3 135 136 137
3 138 139 140
3 141 142 143
3 144 145 146
3 147 148 149
3 150 151 152
3 153 154 155
3 156 157 158
3 159 160 161
3 162 163 164
3 165 166 167
3 168 169 170
3 171 172 173
3 174 175 176
3 177 178 179
3 180 181 182
3 183 184 185
3 186 187 188
3 189 190 191
3 192 193 194
3 195 196 197
3 198 199 200
3 201 202 203
3 204 205 206
3 207 208 209
3 210 211 212
3 213 214 215
3 216 217 218
3 219 220 221
3 222 223 224
3 225 226 227
3 228 229 230
3 231 232 233
3 234 235 236
3 237 238 239
3 240 241 242
3 243 244 245
3 246 247 248
3 249 250 251
3 252 253 254
3 255 256 257
3 258 259 260
3 261 262 263
3 264 265 266
3 267 268 269
3 270 271 272
3 273 274 275
3 276 277 278
3 279 280 281
3 282 283 284
3 285 286 287
3 288 289 290
3 291 292 293
3 294 295 296
3 297 298 299
3 300 301 302
3 303 304 305
3 306 307 308
3 309 310 311
3 312 313 314
3 315 316 317
3 318 319 320
3 321 322 323
3 324 325 326
3 327 328 329
3 330 331 332
3 333 334 335
3 336 337 338
3 339 340 341
3 342 343 344
3 345 346 347
3 348 349 350
3 351 352 353
3 354 355 356
3 357 358 359
