ply
format ascii 1.0
comment Created by Blender 2.77 (sub 0) - www.blender.org, source file: 'Sword.blend'
element vertex 168
property float x
property float y
property float z
property float nx
property float ny
property float nz
property uchar red
property uchar green
property uchar blue
element face 76
property list uchar uint vertex_indices
end_header
0.025822 0.821738 -0.106057 0.000000 0.303780 -0.952742 102 102 102
-0.002735 1.175969 0.006889 0.000000 0.303780 -0.952742 102 102 102
-0.002338 1.175969 0.006889 0.000000 0.303780 -0.952742 102 102 102
-0.049651 0.821738 -0.060704 -0.923527 -0.035212 -0.381914 102 102 102
-0.021580 0.173660 -0.068832 -0.923527 -0.035212 -0.381914 102 102 102
-0.034174 0.173660 -0.038377 -0.923527 -0.035212 -0.381914 102 102 102
-0.021580 0.173660 -0.068832 0.000000 -0.057345 -0.998354 102 102 102
0.025822 0.821738 -0.106057 0.000000 -0.057345 -0.998354 102 102 102
0.016507 0.173660 -0.068832 0.000000 -0.057345 -0.998354 102 102 102
0.044577 0.821738 0.074382 0.928352 -0.034760 0.370072 102 102 102
0.016507 0.173660 0.083927 0.928352 -0.034760 0.370072 102 102 102
0.029101 0.173660 0.052334 0.928352 -0.034760 0.370072 102 102 102
-0.034912 0.086830 0.137601 -0.000001 -0.347342 0.937739 102 102 102
0.021850 -0.000000 0.105439 -0.000001 -0.347342 0.937739 102 102 102
0.029839 0.086830 0.137601 -0.000001 -0.347342 0.937739 102 102 102
-0.002206 1.175969 0.007207 -0.000000 1.000000 0.000000 102 102 102
-0.002735 1.175969 0.006889 -0.000000 1.000000 0.000000 102 102 102
-0.002867 1.175969 0.007207 -0.000000 1.000000 0.000000 102 102 102
-0.049651 0.821738 0.074382 -0.912267 0.188474 0.363658 102 102 102
-0.002735 1.175969 0.008484 -0.912267 0.188474 0.363658 102 102 102
-0.002867 1.175969 0.008154 -0.912267 0.188474 0.363658 102 102 102
0.044577 0.821738 -0.060704 0.906971 0.191687 -0.375048 102 102 102
-0.002338 1.175969 0.006889 0.906971 0.191687 -0.375048 102 102 102
-0.002206 1.175969 0.007207 0.906971 0.191687 -0.375048 102 102 102
-0.030896 0.821738 0.121431 -0.000000 0.303781 0.952742 102 102 102
-0.002338 1.175969 0.008484 -0.000000 0.303781 0.952742 102 102 102
-0.002735 1.175969 0.008484 -0.000000 0.303781 0.952742 102 102 102
0.044577 0.821738 0.074382 0.991391 0.130934 0.000000 102 102 102
-0.002206 1.175969 0.007207 0.991391 0.130934 0.000000 102 102 102
-0.002206 1.175969 0.008154 0.991391 0.130934 0.000000 102 102 102
-0.049651 0.821738 -0.060704 -0.906963 0.191689 -0.375065 102 102 102
-0.002735 1.175969 0.006889 -0.906963 0.191689 -0.375065 102 102 102
-0.030895 0.821738 -0.106057 -0.906963 0.191689 -0.375065 102 102 102
-0.002206 1.175969 0.008154 -0.000000 1.000000 0.000000 102 102 102
-0.002867 1.175969 0.008154 -0.000000 1.000000 0.000000 102 102 102
0.016507 0.173660 -0.068832 0.923527 -0.035212 -0.381914 102 102 102
0.044577 0.821738 -0.060704 0.923527 -0.035212 -0.381914 102 102 102
0.029101 0.173660 -0.038377 0.923527 -0.035212 -0.381914 102 102 102
-0.049651 0.821738 0.074382 -0.999715 -0.023874 -0.000000 102 102 102
-0.034174 0.173660 -0.038377 -0.999715 -0.023874 -0.000000 102 102 102
-0.034174 0.173660 0.052334 -0.999715 -0.023874 -0.000000 102 102 102
-0.021580 0.173660 0.083927 -0.928352 -0.034760 0.370073 102 102 102
-0.049651 0.821738 0.074382 -0.928352 -0.034760 0.370073 102 102 102
-0.034174 0.173660 0.052334 -0.928352 -0.034760 0.370073 102 102 102
-0.002735 1.175969 0.008484 0.000000 1.000000 -0.000000 102 102 102
0.044577 0.821738 0.074382 0.912266 0.188474 0.363660 102 102 102
-0.002338 1.175969 0.008484 0.912266 0.188474 0.363660 102 102 102
0.025822 0.821738 0.121431 0.912266 0.188474 0.363660 102 102 102
-0.049651 0.821738 0.074382 -0.991391 0.130934 -0.000000 102 102 102
-0.002867 1.175969 0.007207 -0.991391 0.130934 -0.000000 102 102 102
-0.049651 0.821738 -0.060704 -0.991391 0.130934 -0.000000 102 102 102
0.029101 0.173660 -0.038377 0.999715 -0.023874 0.000000 102 102 102
0.044577 0.821738 0.074382 0.999715 -0.023874 0.000000 102 102 102
0.029101 0.173660 0.052334 0.999715 -0.023874 0.000000 102 102 102
0.037978 0.000000 0.064981 0.000000 -1.000000 -0.000004 102 102 102
0.021850 -0.000000 0.105439 0.000000 -1.000000 -0.000004 102 102 102
-0.043051 0.000000 0.064981 0.000000 -1.000000 -0.000004 102 102 102
0.029101 0.173660 -0.038377 0.968970 0.247180 0.000000 102 102 102
0.051251 0.086830 0.083889 0.968970 0.247180 0.000000 102 102 102
0.051251 0.086830 -0.070331 0.968970 0.247180 0.000000 102 102 102
-0.021580 0.173660 0.083927 -0.870757 0.348272 0.347114 102 102 102
-0.056324 0.086830 0.083889 -0.870757 0.348272 0.347114 102 102 102
-0.034912 0.086830 0.137601 -0.870757 0.348272 0.347114 102 102 102
-0.056324 0.086830 0.083889 -0.968970 0.247180 0.000000 102 102 102
-0.034174 0.173660 -0.038377 -0.968970 0.247180 0.000000 102 102 102
-0.056324 0.086830 -0.070331 -0.968970 0.247180 0.000000 102 102 102
0.016507 0.173660 -0.068832 0.864872 0.352245 -0.357659 102 102 102
0.051251 0.086830 -0.070331 0.864872 0.352245 -0.357659 102 102 102
0.029839 0.086830 -0.122107 0.864872 0.352245 -0.357659 102 102 102
-0.030896 0.821738 0.121431 -0.000001 -0.057772 0.998330 102 102 102
0.016507 0.173660 0.083927 -0.000001 -0.057772 0.998330 102 102 102
0.025822 0.821738 0.121431 -0.000001 -0.057772 0.998330 102 102 102
0.051251 0.086830 0.083889 0.870757 0.348272 0.347114 102 102 102
0.016507 0.173660 0.083927 0.870757 0.348272 0.347114 102 102 102
0.029839 0.086830 0.137601 0.870757 0.348272 0.347114 102 102 102
-0.021580 0.173660 -0.068832 0.000000 0.522970 -0.852351 102 102 102
0.029839 0.086830 -0.122107 0.000000 0.522970 -0.852351 102 102 102
-0.034912 0.086830 -0.122107 0.000000 0.522970 -0.852351 102 102 102
-0.056324 0.086830 -0.070331 -0.864872 0.352245 -0.357660 102 102 102
-0.021580 0.173660 -0.068832 -0.864872 0.352245 -0.357660 102 102 102
-0.034912 0.086830 -0.122107 -0.864872 0.352245 -0.357660 102 102 102
-0.056324 0.086830 -0.070331 -0.901460 -0.219998 -0.372788 102 102 102
-0.026923 -0.000000 -0.090184 -0.901460 -0.219998 -0.372788 102 102 102
-0.043051 0.000000 -0.051184 -0.901460 -0.219998 -0.372788 102 102 102
-0.034912 0.086830 -0.122107 0.000000 -0.345071 -0.938577 102 102 102
0.021850 -0.000000 -0.090184 0.000000 -0.345071 -0.938577 102 102 102
-0.026923 -0.000000 -0.090184 0.000000 -0.345071 -0.938577 102 102 102
0.051251 0.086830 0.083889 0.906716 -0.217306 0.361447 102 102 102
0.021850 -0.000000 0.105439 0.906716 -0.217306 0.361447 102 102 102
0.037978 0.000000 0.064981 0.906716 -0.217306 0.361447 102 102 102
0.021850 -0.000000 -0.090184 0.901460 -0.219998 -0.372788 102 102 102
0.051251 0.086830 -0.070331 0.901460 -0.219998 -0.372788 102 102 102
0.037978 0.000000 -0.051184 0.901460 -0.219998 -0.372788 102 102 102
-0.056324 0.086830 0.083889 -0.988518 -0.151101 -0.000000 102 102 102
-0.043051 0.000000 -0.051184 -0.988518 -0.151101 -0.000000 102 102 102
-0.043051 0.000000 0.064981 -0.988518 -0.151101 -0.000000 102 102 102
-0.026923 -0.000000 0.105439 -0.906716 -0.217306 0.361447 102 102 102
-0.056324 0.086830 0.083889 -0.906716 -0.217306 0.361447 102 102 102
-0.043051 0.000000 0.064981 -0.906716 -0.217306 0.361447 102 102 102
0.037978 0.000000 -0.051184 0.988518 -0.151101 0.000000 102 102 102
0.051251 0.086830 0.083889 0.988518 -0.151101 0.000000 102 102 102
0.037978 0.000000 0.064981 0.988518 -0.151101 0.000000 102 102 102
-0.034912 0.086830 0.137601 -0.000001 0.525804 0.850606 102 102 102
0.016507 0.173660 0.083927 -0.000001 0.525804 0.850606 102 102 102
-0.021580 0.173660 0.083927 -0.000001 0.525804 0.850606 102 102 102
0.025822 0.821738 -0.106057 0.000002 0.303781 -0.952742 102 102 102
-0.030895 0.821738 -0.106057 0.000002 0.303781 -0.952742 102 102 102
-0.002735 1.175969 0.006889 0.000002 0.303781 -0.952742 102 102 102
-0.030895 0.821738 -0.106057 -0.923527 -0.035212 -0.381914 102 102 102
-0.021580 0.173660 -0.068832 0.000002 -0.057345 -0.998354 102 102 102
-0.030895 0.821738 -0.106057 0.000002 -0.057345 -0.998354 102 102 102
0.025822 0.821738 -0.106057 0.000002 -0.057345 -0.998354 102 102 102
0.025822 0.821738 0.121431 0.928352 -0.034760 0.370072 102 102 102
-0.034912 0.086830 0.137601 -0.000001 -0.347342 0.937738 102 102 102
-0.026923 -0.000000 0.105439 -0.000001 -0.347342 0.937738 102 102 102
0.021850 -0.000000 0.105439 -0.000001 -0.347342 0.937738 102 102 102
-0.002338 1.175969 0.006889 0.000000 1.000000 0.000000 102 102 102
-0.049651 0.821738 0.074382 -0.912266 0.188474 0.363660 102 102 102
-0.030896 0.821738 0.121431 -0.912266 0.188474 0.363660 102 102 102
-0.002735 1.175969 0.008484 -0.912266 0.188474 0.363660 102 102 102
0.044577 0.821738 -0.060704 0.906963 0.191689 -0.375065 102 102 102
0.025822 0.821738 -0.106057 0.906963 0.191689 -0.375065 102 102 102
-0.002338 1.175969 0.006889 0.906963 0.191689 -0.375065 102 102 102
-0.030896 0.821738 0.121431 -0.000001 0.303781 0.952742 102 102 102
0.025822 0.821738 0.121431 -0.000001 0.303781 0.952742 102 102 102
-0.002338 1.175969 0.008484 -0.000001 0.303781 0.952742 102 102 102
0.044577 0.821738 -0.060704 0.991391 0.130934 0.000000 102 102 102
-0.049651 0.821738 -0.060704 -0.906968 0.191687 -0.375052 102 102 102
-0.002867 1.175969 0.007207 -0.906968 0.191687 -0.375052 102 102 102
-0.002735 1.175969 0.006889 -0.906968 0.191687 -0.375052 102 102 102
0.025822 0.821738 -0.106057 0.923527 -0.035212 -0.381914 102 102 102
-0.049651 0.821738 -0.060704 -0.999715 -0.023874 -0.000000 102 102 102
-0.021580 0.173660 0.083927 -0.928352 -0.034760 0.370072 102 102 102
-0.030896 0.821738 0.121431 -0.928352 -0.034760 0.370072 102 102 102
-0.049651 0.821738 0.074382 -0.928352 -0.034760 0.370072 102 102 102
-0.002338 1.175969 0.008484 0.000000 1.000000 0.000000 102 102 102
0.044577 0.821738 0.074382 0.912268 0.188474 0.363654 102 102 102
-0.002206 1.175969 0.008154 0.912268 0.188474 0.363654 102 102 102
-0.002338 1.175969 0.008484 0.912268 0.188474 0.363654 102 102 102
-0.002867 1.175969 0.008154 -0.991391 0.130934 0.000000 102 102 102
0.044577 0.821738 -0.060704 0.999715 -0.023874 0.000000 102 102 102
-0.043051 0.000000 0.064981 0.000000 -1.000000 0.000000 102 102 102
-0.043051 0.000000 -0.051184 0.000000 -1.000000 0.000000 102 102 102
0.037978 0.000000 -0.051184 0.000000 -1.000000 0.000000 102 102 102
-0.026923 -0.000000 -0.090184 0.000000 -1.000000 0.000004 102 102 102
0.021850 -0.000000 -0.090184 0.000000 -1.000000 0.000004 102 102 102
0.037978 0.000000 -0.051184 0.000000 -1.000000 0.000004 102 102 102
0.037978 0.000000 0.064981 0.000000 -1.000000 0.000000 102 102 102
-0.026923 -0.000000 0.105439 0.000000 -1.000000 -0.000004 102 102 102
-0.043051 0.000000 -0.051184 0.000000 -1.000000 0.000004 102 102 102
0.029101 0.173660 0.052334 0.968970 0.247180 0.000000 102 102 102
-0.034174 0.173660 0.052334 -0.870757 0.348272 0.347114 102 102 102
-0.034174 0.173660 0.052334 -0.968970 0.247180 -0.000000 102 102 102
0.029101 0.173660 -0.038377 0.864872 0.352245 -0.357659 102 102 102
-0.021580 0.173660 0.083927 -0.000001 -0.057772 0.998330 102 102 102
0.029101 0.173660 0.052334 0.870757 0.348272 0.347114 102 102 102
0.016507 0.173660 -0.068832 0.000000 0.522970 -0.852351 102 102 102
-0.056324 0.086830 -0.070331 -0.864872 0.352245 -0.357659 102 102 102
-0.034174 0.173660 -0.038377 -0.864872 0.352245 -0.357659 102 102 102
-0.021580 0.173660 -0.068832 -0.864872 0.352245 -0.357659 102 102 102
-0.034912 0.086830 -0.122107 -0.901460 -0.219998 -0.372788 102 102 102
0.029839 0.086830 -0.122107 -0.000000 -0.345071 -0.938577 102 102 102
0.029839 0.086830 0.137601 0.906716 -0.217306 0.361447 102 102 102
0.029839 0.086830 -0.122107 0.901460 -0.219998 -0.372788 102 102 102
-0.056324 0.086830 -0.070331 -0.988518 -0.151101 0.000000 102 102 102
-0.034912 0.086830 0.137601 -0.906716 -0.217306 0.361447 102 102 102
0.051251 0.086830 -0.070331 0.988518 -0.151101 0.000000 102 102 102
0.029839 0.086830 0.137601 -0.000001 0.525804 0.850606 102 102 102
3 0 1 2
3 3 4 5
3 6 7 8
3 9 10 11
3 12 13 14
3 15 16 17
3 18 19 20
3 21 22 23
3 24 25 26
3 27 28 29
3 30 31 32
3 33 17 34
3 35 36 37
3 38 39 40
3 41 42 43
3 44 33 34
3 45 46 47
3 48 49 50
3 51 52 53
3 54 55 56
3 57 58 59
3 60 61 62
3 63 64 65
3 66 67 68
3 69 70 71
3 72 73 74
3 75 76 77
3 78 79 80
3 81 82 83
3 84 85 86
3 87 88 89
3 90 91 92
3 93 94 95
3 96 97 98
3 99 100 101
3 102 103 104
3 105 106 107
3 3 108 4
3 109 110 111
3 9 112 10
3 113 114 115
3 15 116 16
3 117 118 119
3 120 121 122
3 123 124 125
3 27 126 28
3 127 128 129
3 33 15 17
3 35 130 36
3 38 131 39
3 132 133 134
3 44 135 33
3 136 137 138
3 48 139 49
3 51 140 52
3 141 142 143
3 144 145 146
3 143 147 141
3 55 148 56
3 149 144 146
3 57 150 58
3 60 151 61
3 63 152 64
3 66 153 67
3 69 154 70
3 72 155 73
3 75 156 76
3 157 158 159
3 81 160 82
3 84 161 85
3 87 162 88
3 90 163 91
3 93 164 94
3 96 165 97
3 99 166 100
3 102 167 103
