ply
format ascii 1.0
comment Created by Blender 2.77 (sub 0) - www.blender.org, source file: 'Boar.blend'
element vertex 124
property float x
property float y
property float z
property float nx
property float ny
property float nz
property uchar red
property uchar green
property uchar blue
element face 52
property list uchar uint vertex_indices
end_header
-0.076964 0.169621 -0.051299 -0.342674 -0.269277 -0.900036 255 255 255
0.002552 0.004020 -0.032029 -0.342674 -0.269277 -0.900036 255 255 255
-0.127943 0.046874 0.004834 -0.342674 -0.269277 -0.900036 255 255 255
0.102263 0.165061 0.039834 0.870477 -0.451334 -0.196388 255 255 255
0.002552 0.004020 -0.032029 0.870477 -0.451334 -0.196388 255 255 255
0.053531 0.126767 -0.088162 0.870477 -0.451334 -0.196388 255 255 255
-0.028231 0.207915 0.076696 0.342674 0.269277 0.900036 255 255 255
0.051284 0.042314 0.095967 0.342674 0.269277 0.900036 255 255 255
0.102263 0.165061 0.039834 0.342674 0.269277 0.900036 255 255 255
-0.028231 0.207915 0.076696 -0.870477 0.451334 0.196388 255 255 255
-0.127943 0.046874 0.004834 -0.870477 0.451334 0.196388 255 255 255
-0.079210 0.085168 0.132830 -0.870477 0.451334 0.196388 255 255 255
0.053531 0.126767 -0.088162 0.939119 -0.072587 -0.335838 255 255 255
0.094202 0.246994 -0.000418 0.939119 -0.072587 -0.335838 255 255 255
0.102263 0.165061 0.039834 0.939119 -0.072587 -0.335838 255 255 255
-0.042357 0.250467 -0.069855 -0.744238 0.662464 0.085157 255 255 255
0.025057 0.320856 -0.028261 -0.744238 0.662464 0.085157 255 255 255
0.007708 0.307223 -0.073827 -0.744238 0.662464 0.085157 255 255 255
-0.028231 0.207915 0.076696 0.374715 0.438254 0.817020 255 255 255
0.094202 0.246994 -0.000418 0.374715 0.438254 0.817020 255 255 255
-0.005227 0.279645 0.027669 0.374715 0.438254 0.817020 255 255 255
-0.076964 0.169621 -0.051299 -0.298136 -0.090479 -0.950226 255 255 255
0.057071 0.217816 -0.097942 -0.298136 -0.090479 -0.950226 255 255 255
0.053531 0.126767 -0.088162 -0.298136 -0.090479 -0.950226 255 255 255
-0.028231 0.207915 0.076696 -0.880954 0.424896 0.208287 255 255 255
-0.042357 0.250467 -0.069855 -0.880954 0.424896 0.208287 255 255 255
-0.076964 0.169621 -0.051299 -0.880954 0.424896 0.208287 255 255 255
0.071512 0.305600 -0.041384 0.397278 0.674264 0.622526 255 255 255
0.048327 0.348138 -0.072661 0.397278 0.674264 0.622526 255 255 255
0.025057 0.320856 -0.028261 0.397278 0.674264 0.622526 255 255 255
0.094202 0.246994 -0.000418 0.921093 0.092188 -0.378272 255 255 255
0.054164 0.291968 -0.086950 0.921093 0.092188 -0.378272 255 255 255
0.071512 0.305600 -0.041384 0.921093 0.092188 -0.378272 255 255 255
0.094202 0.246994 -0.000418 0.395333 0.624126 0.673928 255 255 255
0.025057 0.320856 -0.028261 0.395333 0.624126 0.673928 255 255 255
-0.005227 0.279645 0.027669 0.395333 0.624126 0.673928 255 255 255
0.057071 0.217816 -0.097942 -0.228398 0.133992 -0.964303 255 255 255
0.007708 0.307223 -0.073827 -0.228398 0.133992 -0.964303 255 255 255
0.054164 0.291968 -0.086950 -0.228398 0.133992 -0.964303 255 255 255
0.049561 0.347733 -0.073010 0.201404 0.914706 -0.350356 255 255 255
0.047866 0.347776 -0.073872 0.201404 0.914706 -0.350356 255 255 255
0.048327 0.348138 -0.072661 0.201404 0.914706 -0.350356 255 255 255
0.054164 0.291968 -0.086950 -0.204467 0.201414 -0.957928 255 255 255
0.047866 0.347776 -0.073872 -0.204467 0.201414 -0.957928 255 255 255
0.049100 0.347371 -0.074220 -0.204467 0.201414 -0.957928 255 255 255
0.007708 0.307223 -0.073827 -0.709247 0.702413 0.059865 255 255 255
0.048327 0.348138 -0.072661 -0.709247 0.702413 0.059865 255 255 255
0.047866 0.347776 -0.073872 -0.709247 0.702413 0.059865 255 255 255
0.054164 0.291968 -0.086950 0.902068 0.173267 -0.395287 255 255 255
0.049561 0.347733 -0.073010 0.902068 0.173267 -0.395287 255 255 255
0.071512 0.305600 -0.041384 0.902068 0.173267 -0.395287 255 255 255
0.051284 0.042314 0.095967 0.201415 0.914706 -0.350351 170 170 170
-0.090091 0.095967 0.154769 0.201415 0.914706 -0.350351 170 170 170
0.075136 0.041708 0.108095 0.201415 0.914706 -0.350351 170 170 170
-0.127943 0.046874 0.004834 0.201415 0.914706 -0.350351 170 170 170
-0.079210 0.085168 0.132830 0.201415 0.914706 -0.350351 170 170 170
0.002552 0.004020 -0.032029 0.201415 0.914705 -0.350351 170 170 170
0.075136 0.041708 0.108095 0.201415 0.914705 -0.350351 170 170 170
0.013433 -0.006779 -0.053968 0.201415 0.914705 -0.350351 170 170 170
-0.127943 0.046874 0.004834 0.201415 0.914705 -0.350351 170 170 170
-0.151794 0.047480 -0.007294 0.201415 0.914705 -0.350351 170 170 170
0.013433 -0.006779 -0.053968 -0.353895 -0.322449 -0.877944 170 170 170
-0.159326 -0.006712 0.015646 -0.353895 -0.322449 -0.877944 170 170 170
-0.151794 0.047480 -0.007294 -0.353895 -0.322449 -0.877944 170 170 170
-0.000472 -0.058879 -0.029228 -0.201415 -0.914706 0.350351 170 170 170
-0.100003 0.039904 0.171457 -0.201415 -0.914706 0.350351 170 170 170
-0.159326 -0.006712 0.015646 -0.201415 -0.914706 0.350351 170 170 170
0.013433 -0.006779 -0.053968 0.904220 -0.354454 -0.238220 170 170 170
0.058850 -0.012263 0.126584 0.904220 -0.354454 -0.238220 170 170 170
-0.000472 -0.058879 -0.029228 0.904220 -0.354454 -0.238220 170 170 170
-0.151794 0.047480 -0.007294 -0.927841 0.247183 0.279307 170 170 170
-0.100003 0.039904 0.171457 -0.927841 0.247183 0.279307 170 170 170
-0.090091 0.095967 0.154769 -0.927841 0.247183 0.279307 170 170 170
0.075136 0.041708 0.108095 0.330274 0.215178 0.919031 170 170 170
-0.100003 0.039904 0.171457 0.330274 0.215178 0.919031 170 170 170
0.058850 -0.012263 0.126584 0.330274 0.215178 0.919031 170 170 170
0.053531 0.126767 -0.088162 -0.342674 -0.269277 -0.900036 255 255 255
0.051284 0.042314 0.095967 0.870477 -0.451334 -0.196388 255 255 255
-0.079210 0.085168 0.132830 0.342674 0.269277 0.900036 255 255 255
-0.076964 0.169621 -0.051299 -0.870477 0.451334 0.196388 255 255 255
0.057071 0.217816 -0.097942 0.939119 -0.072587 -0.335838 255 255 255
-0.042357 0.250467 -0.069855 -0.744238 0.662463 0.085158 255 255 255
-0.005227 0.279645 0.027669 -0.744238 0.662463 0.085158 255 255 255
0.025057 0.320856 -0.028261 -0.744238 0.662463 0.085158 255 255 255
-0.028231 0.207915 0.076696 0.374715 0.438255 0.817020 255 255 255
0.102263 0.165061 0.039834 0.374715 0.438255 0.817020 255 255 255
0.094202 0.246994 -0.000418 0.374715 0.438255 0.817020 255 255 255
-0.076964 0.169621 -0.051299 -0.298136 -0.090478 -0.950226 255 255 255
-0.042357 0.250467 -0.069855 -0.298136 -0.090478 -0.950226 255 255 255
0.057071 0.217816 -0.097942 -0.298136 -0.090478 -0.950226 255 255 255
-0.005227 0.279645 0.027669 -0.880954 0.424896 0.208287 255 255 255
0.071512 0.305600 -0.041384 0.397276 0.674264 0.622527 255 255 255
0.049561 0.347733 -0.073010 0.397276 0.674264 0.622527 255 255 255
0.048327 0.348138 -0.072661 0.397276 0.674264 0.622527 255 255 255
0.094202 0.246994 -0.000418 0.921093 0.092187 -0.378272 255 255 255
0.057071 0.217816 -0.097942 0.921093 0.092187 -0.378272 255 255 255
0.054164 0.291968 -0.086950 0.921093 0.092187 -0.378272 255 255 255
0.071512 0.305600 -0.041384 0.395333 0.624126 0.673928 255 255 255
-0.042357 0.250467 -0.069855 -0.228398 0.133992 -0.964303 255 255 255
0.049561 0.347733 -0.073010 0.201406 0.914704 -0.350360 255 255 255
0.049100 0.347371 -0.074220 0.201406 0.914704 -0.350360 255 255 255
0.047866 0.347776 -0.073872 0.201406 0.914704 -0.350360 255 255 255
0.054164 0.291968 -0.086950 -0.204457 0.201416 -0.957930 255 255 255
0.007708 0.307223 -0.073827 -0.204457 0.201416 -0.957930 255 255 255
0.047866 0.347776 -0.073872 -0.204457 0.201416 -0.957930 255 255 255
0.007708 0.307223 -0.073827 -0.709247 0.702412 0.059883 255 255 255
0.025057 0.320856 -0.028261 -0.709247 0.702412 0.059883 255 255 255
0.048327 0.348138 -0.072661 -0.709247 0.702412 0.059883 255 255 255
0.054164 0.291968 -0.086950 0.902065 0.173269 -0.395293 255 255 255
0.049100 0.347371 -0.074220 0.902065 0.173269 -0.395293 255 255 255
0.049561 0.347733 -0.073010 0.902065 0.173269 -0.395293 255 255 255
-0.151794 0.047480 -0.007294 0.201415 0.914706 -0.350351 170 170 170
0.051284 0.042314 0.095967 0.201415 0.914705 -0.350351 170 170 170
0.013433 -0.006779 -0.053968 -0.353895 -0.322449 -0.877943 170 170 170
-0.000472 -0.058879 -0.029228 -0.353895 -0.322449 -0.877943 170 170 170
-0.159326 -0.006712 0.015646 -0.353895 -0.322449 -0.877943 170 170 170
-0.000472 -0.058879 -0.029228 -0.201415 -0.914705 0.350351 170 170 170
0.058850 -0.012263 0.126584 -0.201415 -0.914705 0.350351 170 170 170
-0.100003 0.039904 0.171457 -0.201415 -0.914705 0.350351 170 170 170
0.075136 0.041708 0.108095 0.904220 -0.354454 -0.238220 170 170 170
-0.159326 -0.006712 0.015646 -0.927841 0.247183 0.279307 170 170 170
0.075136 0.041708 0.108095 0.330274 0.215177 0.919031 170 170 170
-0.090091 0.095967 0.154769 0.330274 0.215177 0.919031 170 170 170
-0.100003 0.039904 0.171457 0.330274 0.215177 0.919031 170 170 170
3 0 1 2
3 3 4 5
3 6 7 8
3 9 10 11
3 12 13 14
3 15 16 17
3 18 19 20
3 21 22 23
3 24 25 26
3 27 28 29
3 30 31 32
3 33 34 35
3 36 37 38
3 39 40 41
3 42 43 44
3 45 46 47
3 48 49 50
3 51 52 53
3 54 52 55
3 56 57 58
3 59 58 60
3 61 62 63
3 64 65 66
3 67 68 69
3 70 71 72
3 73 74 75
3 0 76 1
3 3 77 4
3 6 78 7
3 9 79 10
3 12 80 13
3 81 82 83
3 84 85 86
3 87 88 89
3 24 90 25
3 91 92 93
3 94 95 96
3 33 97 34
3 36 98 37
3 99 100 101
3 102 103 104
3 105 106 107
3 108 109 110
3 51 55 52
3 54 111 52
3 56 112 57
3 59 56 58
3 113 114 115
3 116 117 118
3 67 119 68
3 70 120 71
3 121 122 123
