ply
format ascii 1.0
comment Created by Blender 2.77 (sub 0) - www.blender.org, source file: 'Sword.blend'
element vertex 192
property float x
property float y
property float z
property float nx
property float ny
property float nz
property uchar red
property uchar green
property uchar blue
element face 104
property list uchar uint vertex_indices
end_header
0.083700 0.490504 -0.246574 0.000000 -0.005186 -0.999986 176 90 86
-0.085459 0.191984 -0.245025 0.000000 -0.005186 -0.999986 176 90 86
-0.085459 0.490504 -0.246574 0.000000 -0.005186 -0.999986 176 90 86
0.083700 0.491072 -0.074467 1.000000 -0.000000 -0.000000 176 90 86
0.083700 0.191984 -0.245025 1.000000 -0.000000 -0.000000 176 90 86
0.083700 0.490504 -0.246574 1.000000 -0.000000 -0.000000 176 90 86
-0.085459 0.491072 -0.074467 0.000000 0.005186 0.999987 176 90 86
0.083700 0.192551 -0.072919 0.000000 0.005186 0.999987 176 90 86
0.083700 0.491072 -0.074467 0.000000 0.005186 0.999987 176 90 86
-0.085459 0.491072 -0.074467 -1.000000 0.000000 0.000000 176 90 86
-0.085459 0.191984 -0.245025 -1.000000 0.000000 0.000000 176 90 86
-0.085459 0.192551 -0.072919 -1.000000 0.000000 0.000000 176 90 86
-0.085459 0.192551 -0.072919 0.000000 -0.974232 0.225550 176 90 86
0.067742 0.188797 -0.089135 0.000000 -0.974232 0.225550 176 90 86
0.083700 0.192551 -0.072919 0.000000 -0.974232 0.225550 176 90 86
-0.085459 0.192551 -0.072919 -0.225923 -0.974140 0.003212 176 90 86
-0.069501 0.188336 -0.228771 -0.225923 -0.974140 0.003212 176 90 86
-0.069501 0.188797 -0.089135 -0.225923 -0.974140 0.003212 176 90 86
-0.069501 0.494719 -0.090722 -1.000000 0.000000 0.000000 115 85 69
-0.069501 0.629706 -0.175613 -1.000000 0.000000 0.000000 115 85 69
-0.069501 0.494258 -0.230357 -1.000000 0.000000 0.000000 115 85 69
-0.069501 0.188336 -0.228771 0.000000 -0.383820 -0.923408 115 85 69
0.067742 0.053254 -0.172623 0.000000 -0.383820 -0.923408 115 85 69
-0.069501 0.053254 -0.172623 0.000000 -0.383820 -0.923408 115 85 69
0.083700 0.491072 -0.074467 0.000000 0.975739 0.218936 176 90 86
-0.069501 0.494719 -0.090722 0.000000 0.975739 0.218936 176 90 86
-0.085459 0.491072 -0.074467 0.000000 0.975739 0.218936 176 90 86
0.083700 0.191984 -0.245025 0.000000 -0.975739 -0.218938 176 90 86
-0.069501 0.188336 -0.228771 0.000000 -0.975739 -0.218938 176 90 86
-0.085459 0.191984 -0.245025 0.000000 -0.975739 -0.218938 176 90 86
0.083700 0.490504 -0.246574 0.000000 0.974232 -0.225550 176 90 86
-0.069501 0.494258 -0.230357 0.000000 0.974232 -0.225550 176 90 86
0.067742 0.494258 -0.230357 0.000000 0.974232 -0.225550 176 90 86
-0.085459 0.490504 -0.246574 -0.225924 0.974140 -0.003212 176 90 86
-0.069501 0.494719 -0.090722 -0.225924 0.974140 -0.003212 176 90 86
-0.069501 0.494258 -0.230357 -0.225924 0.974140 -0.003212 176 90 86
0.083700 0.192551 -0.072919 0.225924 -0.974140 0.003212 176 90 86
0.067742 0.188336 -0.228771 0.225924 -0.974140 0.003212 176 90 86
0.083700 0.191984 -0.245025 0.225924 -0.974140 0.003212 176 90 86
0.083700 0.490504 -0.246574 0.225922 0.974140 -0.003212 176 90 86
0.067742 0.494719 -0.090722 0.225922 0.974140 -0.003212 176 90 86
0.083700 0.491072 -0.074467 0.225922 0.974140 -0.003212 176 90 86
-0.069501 0.053715 -0.032987 0.000000 -0.196926 0.980418 115 85 69
0.067742 -0.085959 -0.061042 0.000000 -0.196926 0.980418 115 85 69
0.067742 0.053715 -0.032987 0.000000 -0.196926 0.980418 115 85 69
-0.069501 0.053254 -0.172623 -1.000000 -0.000000 0.000000 115 85 69
-0.069501 -0.085959 -0.061042 -1.000000 -0.000000 0.000000 115 85 69
-0.069501 0.053715 -0.032987 -1.000000 -0.000000 0.000000 115 85 69
0.067742 0.494719 -0.090722 0.000000 -0.374725 0.927136 115 85 69
-0.069501 0.630167 -0.035977 0.000000 -0.374725 0.927136 115 85 69
-0.069501 0.494719 -0.090722 0.000000 -0.374725 0.927136 115 85 69
0.067742 0.494719 -0.090722 1.000000 -0.000000 -0.000000 115 85 69
0.067742 0.629706 -0.175613 1.000000 -0.000000 -0.000000 115 85 69
0.067742 0.630167 -0.035977 1.000000 -0.000000 -0.000000 115 85 69
-0.069501 0.494258 -0.230357 0.000000 0.374725 -0.927136 115 85 69
0.067742 0.629706 -0.175613 0.000000 0.374725 -0.927136 115 85 69
0.067742 0.494258 -0.230357 0.000000 0.374725 -0.927136 115 85 69
-0.069501 0.188797 -0.089135 -1.000000 -0.000000 0.000000 115 85 69
-0.069501 0.188797 -0.089135 0.000000 0.383820 0.923408 115 85 69
0.067742 0.053715 -0.032987 0.000000 0.383820 0.923408 115 85 69
0.067742 0.188797 -0.089135 0.000000 0.383820 0.923408 115 85 69
0.067742 0.188797 -0.089135 1.000000 -0.000000 0.000000 115 85 69
0.067742 0.053254 -0.172623 1.000000 -0.000000 0.000000 115 85 69
0.067742 0.188336 -0.228771 1.000000 -0.000000 0.000000 115 85 69
-0.069501 0.769191 -0.205115 0.000000 0.616108 -0.787662 115 85 69
0.067742 0.947038 -0.066003 0.000000 0.616108 -0.787662 115 85 69
0.067742 0.769191 -0.205115 0.000000 0.616108 -0.787662 115 85 69
0.067742 0.769651 -0.065480 1.000000 0.000000 -0.000000 115 85 69
0.067742 0.947038 -0.066003 1.000000 0.000000 -0.000000 115 85 69
0.067742 0.947499 0.073632 1.000000 0.000000 -0.000000 115 85 69
0.067742 -0.085959 -0.061042 1.000000 0.000000 -0.000000 115 85 69
0.067742 -0.086420 -0.200678 1.000000 0.000000 -0.000000 115 85 69
0.067742 0.053254 -0.172623 0.000000 0.196926 -0.980418 115 85 69
-0.069501 -0.086420 -0.200678 0.000000 0.196926 -0.980418 115 85 69
-0.069501 0.053254 -0.172623 0.000000 0.196926 -0.980418 115 85 69
-0.069501 0.769651 -0.065480 -1.000000 0.000000 0.000000 115 85 69
-0.069501 0.769191 -0.205115 -1.000000 0.000000 0.000000 115 85 69
0.067742 0.630167 -0.035977 0.000000 0.206934 0.978355 115 85 69
-0.069501 0.769651 -0.065480 0.000000 0.206934 0.978355 115 85 69
-0.069501 0.630167 -0.035977 0.000000 0.206934 0.978355 115 85 69
0.067742 0.629706 -0.175613 -0.000000 -0.206934 -0.978355 115 85 69
-0.069501 0.769191 -0.205115 -0.000000 -0.206934 -0.978355 115 85 69
0.067742 0.769191 -0.205115 -0.000000 -0.206934 -0.978355 115 85 69
0.067742 0.947499 0.073632 0.000000 -0.879325 0.476222 115 85 69
-0.069501 1.106236 0.366734 0.000000 -0.879325 0.476222 115 85 69
-0.069501 0.947499 0.073632 0.000000 -0.879325 0.476222 115 85 69
-0.069501 0.947499 0.073632 -1.000000 0.000000 -0.000000 115 85 69
-0.069501 1.105776 0.227099 -1.000000 0.000000 -0.000000 115 85 69
-0.069501 0.947038 -0.066003 -1.000000 0.000000 -0.000000 115 85 69
-0.069501 -0.263344 -0.059726 -1.000000 -0.000000 0.000000 115 85 69
-0.069501 -0.262884 0.079910 -1.000000 -0.000000 0.000000 115 85 69
-0.069501 -0.085959 -0.061042 0.000000 0.623111 0.782133 115 85 69
0.067742 -0.262884 0.079910 0.000000 0.623111 0.782133 115 85 69
0.067742 -0.085959 -0.061042 0.000000 0.623111 0.782133 115 85 69
0.067742 -0.263344 -0.059726 1.000000 -0.000000 -0.000000 115 85 69
0.067742 -0.086420 -0.200678 0.000000 -0.623111 -0.782133 115 85 69
-0.069501 -0.263344 -0.059726 0.000000 -0.623111 -0.782133 115 85 69
-0.069501 -0.086420 -0.200678 0.000000 -0.623111 -0.782133 115 85 69
0.067742 0.769651 -0.065480 0.000000 -0.616108 0.787662 115 85 69
-0.069501 0.947499 0.073632 0.000000 -0.616108 0.787662 115 85 69
-0.069501 0.769651 -0.065480 0.000000 -0.616108 0.787662 115 85 69
-0.069501 -0.420143 0.235013 0.000000 -0.999995 0.003297 115 85 69
0.067742 -0.419683 0.374649 0.000000 -0.999995 0.003297 115 85 69
-0.069501 -0.419683 0.374649 0.000000 -0.999995 0.003297 115 85 69
0.067742 1.106236 0.366734 0.000000 0.999995 -0.003298 115 85 69
-0.069501 1.105776 0.227099 0.000000 0.999995 -0.003298 115 85 69
-0.069501 1.106236 0.366734 0.000000 0.999995 -0.003298 115 85 69
0.067742 1.105776 0.227099 1.000000 0.000000 0.000000 115 85 69
0.067742 1.106236 0.366734 1.000000 0.000000 0.000000 115 85 69
-0.069501 0.947038 -0.066003 0.000000 0.879325 -0.476222 115 85 69
0.067742 1.105776 0.227099 0.000000 0.879325 -0.476222 115 85 69
0.067742 0.947038 -0.066003 0.000000 0.879325 -0.476222 115 85 69
-0.069501 -0.420143 0.235013 -1.000000 -0.000000 0.000000 115 85 69
-0.069501 -0.419683 0.374649 -1.000000 -0.000000 0.000000 115 85 69
-0.069501 -0.262884 0.079910 0.000000 0.882844 0.469667 115 85 69
0.067742 -0.419683 0.374649 0.000000 0.882844 0.469667 115 85 69
0.067742 -0.262884 0.079910 0.000000 0.882844 0.469667 115 85 69
0.067742 -0.262884 0.079910 1.000000 -0.000000 -0.000000 115 85 69
0.067742 -0.420143 0.235013 1.000000 -0.000000 -0.000000 115 85 69
0.067742 -0.263344 -0.059726 -0.000000 -0.882844 -0.469666 115 85 69
-0.069501 -0.420143 0.235013 -0.000000 -0.882844 -0.469666 115 85 69
-0.069501 -0.263344 -0.059726 -0.000000 -0.882844 -0.469666 115 85 69
0.014017 1.056824 0.234487 0.000000 -0.000000 -1.000000 255 255 255
-0.003465 -0.356990 0.234487 0.000000 -0.000000 -1.000000 255 255 255
-0.003465 1.056824 0.234487 0.000000 -0.000000 -1.000000 255 255 255
0.014017 1.056824 0.263602 1.000000 -0.000000 -0.000000 255 255 255
0.014017 -0.356990 0.234487 1.000000 -0.000000 -0.000000 255 255 255
0.014017 1.056824 0.234487 1.000000 -0.000000 -0.000000 255 255 255
-0.003465 1.056824 0.263602 0.000000 0.000000 1.000000 255 255 255
0.014017 -0.356990 0.263603 0.000000 0.000000 1.000000 255 255 255
0.014017 1.056824 0.263602 0.000000 0.000000 1.000000 255 255 255
-0.003465 1.056824 0.263602 -1.000000 0.000000 0.000000 255 255 255
-0.003465 -0.356990 0.234487 -1.000000 0.000000 0.000000 255 255 255
-0.003465 -0.356990 0.263603 -1.000000 0.000000 0.000000 255 255 255
0.014017 -0.356990 0.234487 0.000000 -1.000000 0.000000 255 255 255
-0.003465 -0.356990 0.263603 0.000000 -1.000000 0.000000 255 255 255
-0.003465 -0.356990 0.234487 0.000000 -1.000000 0.000000 255 255 255
0.014017 1.056824 0.263602 -0.000000 1.000000 0.000000 255 255 255
-0.003465 1.056824 0.234487 -0.000000 1.000000 0.000000 255 255 255
-0.003465 1.056824 0.263602 -0.000000 1.000000 0.000000 255 255 255
0.083700 0.191984 -0.245025 0.000000 -0.005186 -0.999986 176 90 86
0.083700 0.192551 -0.072919 1.000000 -0.000000 -0.000000 176 90 86
-0.085459 0.192551 -0.072919 0.000000 0.005186 0.999987 176 90 86
-0.085459 0.490504 -0.246574 -1.000000 0.000000 0.000000 176 90 86
-0.069501 0.188797 -0.089135 0.000000 -0.974232 0.225550 176 90 86
-0.085459 0.192551 -0.072919 -0.225924 -0.974140 0.003212 176 90 86
-0.085459 0.191984 -0.245025 -0.225924 -0.974140 0.003212 176 90 86
-0.069501 0.188336 -0.228771 -0.225924 -0.974140 0.003212 176 90 86
-0.069501 0.630167 -0.035977 -1.000000 0.000000 0.000000 115 85 69
0.067742 0.188336 -0.228771 -0.000000 -0.383820 -0.923408 115 85 69
0.067742 0.494719 -0.090722 -0.000000 0.975739 0.218936 176 90 86
0.067742 0.188336 -0.228771 0.000000 -0.975739 -0.218938 176 90 86
-0.085459 0.490504 -0.246574 0.000000 0.974232 -0.225550 176 90 86
-0.085459 0.490504 -0.246574 -0.225922 0.974140 -0.003212 176 90 86
-0.085459 0.491072 -0.074467 -0.225922 0.974140 -0.003212 176 90 86
-0.069501 0.494719 -0.090722 -0.225922 0.974140 -0.003212 176 90 86
0.083700 0.192551 -0.072919 0.225923 -0.974140 0.003212 176 90 86
0.067742 0.188797 -0.089135 0.225923 -0.974140 0.003212 176 90 86
0.067742 0.188336 -0.228771 0.225923 -0.974140 0.003212 176 90 86
0.083700 0.490504 -0.246574 0.225924 0.974140 -0.003212 176 90 86
0.067742 0.494258 -0.230357 0.225924 0.974140 -0.003212 176 90 86
0.067742 0.494719 -0.090722 0.225924 0.974140 -0.003212 176 90 86
-0.069501 -0.085959 -0.061042 0.000000 -0.196926 0.980418 115 85 69
-0.069501 -0.086420 -0.200678 -1.000000 -0.000000 0.000000 115 85 69
0.067742 0.630167 -0.035977 0.000000 -0.374725 0.927136 115 85 69
0.067742 0.494258 -0.230357 1.000000 0.000000 -0.000000 115 85 69
-0.069501 0.629706 -0.175613 0.000000 0.374725 -0.927136 115 85 69
-0.069501 0.188336 -0.228771 -1.000000 0.000000 0.000000 115 85 69
-0.069501 0.053715 -0.032987 0.000000 0.383820 0.923408 115 85 69
0.067742 0.053715 -0.032987 1.000000 0.000000 -0.000000 115 85 69
-0.069501 0.947038 -0.066003 0.000000 0.616108 -0.787662 115 85 69
0.067742 0.769191 -0.205115 1.000000 0.000000 -0.000000 115 85 69
0.067742 -0.086420 -0.200678 0.000000 0.196926 -0.980418 115 85 69
0.067742 0.769651 -0.065480 -0.000000 0.206934 0.978355 115 85 69
-0.069501 0.629706 -0.175613 0.000000 -0.206934 -0.978355 115 85 69
0.067742 1.106236 0.366734 0.000000 -0.879325 0.476222 115 85 69
-0.069501 1.106236 0.366734 -1.000000 0.000000 -0.000000 115 85 69
-0.069501 -0.262884 0.079910 0.000000 0.623111 0.782133 115 85 69
0.067742 -0.263344 -0.059726 -0.000000 -0.623111 -0.782133 115 85 69
0.067742 0.947499 0.073632 0.000000 -0.616108 0.787662 115 85 69
0.067742 -0.420143 0.235013 0.000000 -0.999995 0.003297 115 85 69
0.067742 1.105776 0.227099 0.000000 0.999995 -0.003298 115 85 69
-0.069501 1.105776 0.227099 0.000000 0.879325 -0.476222 115 85 69
-0.069501 -0.419683 0.374649 0.000000 0.882844 0.469667 115 85 69
0.067742 -0.419683 0.374649 1.000000 -0.000000 0.000000 115 85 69
0.067742 -0.420143 0.235013 0.000000 -0.882844 -0.469666 115 85 69
0.014017 -0.356990 0.234487 0.000000 -0.000000 -1.000000 255 255 255
0.014017 -0.356990 0.263603 1.000000 -0.000000 -0.000000 255 255 255
-0.003465 -0.356990 0.263603 0.000000 0.000000 1.000000 255 255 255
-0.003465 1.056824 0.234487 -1.000000 0.000000 0.000000 255 255 255
0.014017 -0.356990 0.263603 0.000000 -1.000000 -0.000000 255 255 255
0.014017 1.056824 0.234487 0.000000 1.000000 0.000000 255 255 255
3 0 1 2
3 3 4 5
3 6 7 8
3 9 10 11
3 12 13 14
3 15 16 17
3 18 19 20
3 21 22 23
3 24 25 26
3 27 28 29
3 30 31 32
3 33 34 35
3 36 37 38
3 39 40 41
3 42 43 44
3 45 46 47
3 48 49 50
3 51 52 53
3 54 55 56
3 57 45 47
3 58 59 60
3 61 62 63
3 64 65 66
3 67 68 69
3 62 70 71
3 72 73 74
3 19 75 76
3 77 78 79
3 52 67 53
3 80 81 82
3 83 84 85
3 86 87 88
3 46 89 90
3 91 92 93
3 70 94 71
3 95 96 97
3 75 88 76
3 98 99 100
3 101 102 103
3 104 105 106
3 69 107 108
3 109 110 111
3 90 112 113
3 114 115 116
3 117 118 94
3 119 120 121
3 122 123 124
3 125 126 127
3 128 129 130
3 131 132 133
3 134 135 136
3 137 138 139
3 0 140 1
3 3 141 4
3 6 142 7
3 9 143 10
3 12 144 13
3 145 146 147
3 18 148 19
3 21 149 22
3 24 150 25
3 27 151 28
3 30 152 31
3 153 154 155
3 156 157 158
3 159 160 161
3 42 162 43
3 45 163 46
3 48 164 49
3 51 165 52
3 54 166 55
3 57 167 45
3 58 168 59
3 61 169 62
3 64 170 65
3 67 171 68
3 62 169 70
3 72 172 73
3 19 148 75
3 77 173 78
3 52 171 67
3 80 174 81
3 83 175 84
3 86 176 87
3 46 163 89
3 91 177 92
3 70 117 94
3 95 178 96
3 75 86 88
3 98 179 99
3 101 180 102
3 104 181 105
3 69 68 107
3 109 182 110
3 90 89 112
3 114 183 115
3 117 184 118
3 119 185 120
3 122 186 123
3 125 187 126
3 128 188 129
3 131 189 132
3 134 190 135
3 137 191 138
