ply
format ascii 1.0
comment Created by Blender 2.77 (sub 0) - www.blender.org, source file: 'Sword.blend'
element vertex 54
property float x
property float y
property float z
property float nx
property float ny
property float nz
property uchar red
property uchar green
property uchar blue
element face 24
property list uchar uint vertex_indices
end_header
0.083700 0.490504 -0.247300 0.000000 -0.005186 -0.999987 102 102 102
-0.085459 0.191984 -0.245752 0.000000 -0.005186 -0.999987 102 102 102
-0.085459 0.490504 -0.247300 0.000000 -0.005186 -0.999987 102 102 102
0.083700 0.491072 -0.075194 1.000000 -0.000000 -0.000000 102 102 102
0.083700 0.191984 -0.245752 1.000000 -0.000000 -0.000000 102 102 102
0.083700 0.490504 -0.247300 1.000000 -0.000000 -0.000000 102 102 102
-0.085459 0.491072 -0.075194 0.000000 0.005186 0.999987 102 102 102
0.083700 0.192551 -0.073646 0.000000 0.005186 0.999987 102 102 102
0.083700 0.491072 -0.075194 0.000000 0.005186 0.999987 102 102 102
-0.085459 0.491072 -0.075194 -1.000000 0.000000 0.000000 102 102 102
-0.085459 0.191984 -0.245752 -1.000000 0.000000 0.000000 102 102 102
-0.085459 0.192551 -0.073646 -1.000000 0.000000 0.000000 102 102 102
-0.085459 0.192551 -0.073646 0.000000 -0.974232 0.225550 102 102 102
0.067742 0.188797 -0.089862 0.000000 -0.974232 0.225550 102 102 102
0.083700 0.192551 -0.073646 0.000000 -0.974232 0.225550 102 102 102
-0.085459 0.192551 -0.073646 -0.225923 -0.974140 0.003212 102 102 102
-0.069501 0.188336 -0.229497 -0.225923 -0.974140 0.003212 102 102 102
-0.069501 0.188797 -0.089862 -0.225923 -0.974140 0.003212 102 102 102
0.083700 0.491072 -0.075194 0.000000 0.975739 0.218937 102 102 102
-0.069501 0.494719 -0.091449 0.000000 0.975739 0.218937 102 102 102
-0.085459 0.491072 -0.075194 0.000000 0.975739 0.218937 102 102 102
0.083700 0.191984 -0.245752 0.000000 -0.975739 -0.218938 102 102 102
-0.069501 0.188336 -0.229497 0.000000 -0.975739 -0.218938 102 102 102
-0.085459 0.191984 -0.245752 0.000000 -0.975739 -0.218938 102 102 102
0.083700 0.490504 -0.247300 0.000000 0.974231 -0.225550 102 102 102
-0.069501 0.494258 -0.231084 0.000000 0.974231 -0.225550 102 102 102
0.067742 0.494258 -0.231084 0.000000 0.974231 -0.225550 102 102 102
-0.085459 0.490504 -0.247300 -0.225924 0.974140 -0.003212 102 102 102
-0.069501 0.494719 -0.091449 -0.225924 0.974140 -0.003212 102 102 102
-0.069501 0.494258 -0.231084 -0.225924 0.974140 -0.003212 102 102 102
0.083700 0.192551 -0.073646 0.225923 -0.974140 0.003212 102 102 102
0.067742 0.188336 -0.229497 0.225923 -0.974140 0.003212 102 102 102
0.083700 0.191984 -0.245752 0.225923 -0.974140 0.003212 102 102 102
0.083700 0.490504 -0.247300 0.225922 0.974140 -0.003212 102 102 102
0.067742 0.494719 -0.091449 0.225922 0.974140 -0.003212 102 102 102
0.083700 0.491072 -0.075194 0.225922 0.974140 -0.003212 102 102 102
0.083700 0.191984 -0.245752 0.000000 -0.005186 -0.999987 102 102 102
0.083700 0.192551 -0.073646 1.000000 -0.000000 -0.000000 102 102 102
-0.085459 0.192551 -0.073646 0.000000 0.005186 0.999987 102 102 102
-0.085459 0.490504 -0.247300 -1.000000 0.000000 0.000000 102 102 102
-0.069501 0.188797 -0.089862 0.000000 -0.974232 0.225550 102 102 102
-0.085459 0.191984 -0.245752 -0.225923 -0.974140 0.003212 102 102 102
0.067742 0.494719 -0.091449 -0.000000 0.975739 0.218937 102 102 102
0.067742 0.188336 -0.229497 0.000000 -0.975739 -0.218938 102 102 102
0.083700 0.490504 -0.247300 0.000000 0.974232 -0.225550 102 102 102
-0.085459 0.490504 -0.247300 0.000000 0.974232 -0.225550 102 102 102
-0.069501 0.494258 -0.231084 0.000000 0.974232 -0.225550 102 102 102
-0.085459 0.490504 -0.247300 -0.225922 0.974140 -0.003212 102 102 102
-0.085459 0.491072 -0.075194 -0.225922 0.974140 -0.003212 102 102 102
-0.069501 0.494719 -0.091449 -0.225922 0.974140 -0.003212 102 102 102
0.067742 0.188797 -0.089862 0.225923 -0.974140 0.003212 102 102 102
0.083700 0.490504 -0.247300 0.225924 0.974140 -0.003212 102 102 102
0.067742 0.494258 -0.231084 0.225924 0.974140 -0.003212 102 102 102
0.067742 0.494719 -0.091449 0.225924 0.974140 -0.003212 102 102 102
3 0 1 2
3 3 4 5
3 6 7 8
3 9 10 11
3 12 13 14
3 15 16 17
3 18 19 20
3 21 22 23
3 24 25 26
3 27 28 29
3 30 31 32
3 33 34 35
3 0 36 1
3 3 37 4
3 6 38 7
3 9 39 10
3 12 40 13
3 15 41 16
3 18 42 19
3 21 43 22
3 44 45 46
3 47 48 49
3 30 50 31
3 51 52 53
