ply
format ascii 1.0
comment Created by Blender 2.77 (sub 0) - www.blender.org, source file: 'Sword.blend'
element vertex 119
property float x
property float y
property float z
property float nx
property float ny
property float nz
property uchar red
property uchar green
property uchar blue
element face 56
property list uchar uint vertex_indices
end_header
-0.056108 0.218472 -0.214561 0.000000 0.742842 -0.669467 102 102 102
0.083700 0.191984 -0.243952 0.000000 0.742842 -0.669467 102 102 102
-0.085459 0.191984 -0.243952 0.000000 0.742842 -0.669467 102 102 102
0.054349 0.219249 -0.102179 0.667121 0.744932 -0.005153 102 102 102
0.083700 0.191984 -0.243952 0.667121 0.744932 -0.005153 102 102 102
0.054349 0.218472 -0.214561 0.667121 0.744932 -0.005153 102 102 102
-0.056108 0.219249 -0.102179 0.000000 0.750653 0.660697 102 102 102
0.083700 0.192551 -0.071846 0.000000 0.750653 0.660697 102 102 102
0.054349 0.219249 -0.102179 0.000000 0.750653 0.660697 102 102 102
-0.056108 0.219249 -0.102179 -0.674262 0.738488 -0.002435 102 102 102
-0.085459 0.191984 -0.243952 -0.674262 0.738488 -0.002435 102 102 102
-0.085459 0.192551 -0.071846 -0.674262 0.738488 -0.002435 102 102 102
-0.085459 0.192551 -0.071846 0.000000 -0.974231 0.225551 102 102 102
0.067742 0.188797 -0.088062 0.000000 -0.974231 0.225551 102 102 102
0.083700 0.192551 -0.071846 0.000000 -0.974231 0.225551 102 102 102
-0.085459 0.192551 -0.071846 -0.225923 -0.974140 0.003212 102 102 102
-0.069501 0.188336 -0.227697 -0.225923 -0.974140 0.003212 102 102 102
-0.069501 0.188797 -0.088062 -0.225923 -0.974140 0.003212 102 102 102
0.083700 0.491072 -0.073394 0.000000 0.975739 0.218936 102 102 102
-0.069501 0.494719 -0.089649 0.000000 0.975739 0.218936 102 102 102
-0.085459 0.491072 -0.073394 0.000000 0.975739 0.218936 102 102 102
0.083700 0.191984 -0.243952 0.000000 -0.975739 -0.218938 102 102 102
-0.069501 0.188336 -0.227697 0.000000 -0.975739 -0.218938 102 102 102
-0.085459 0.191984 -0.243952 0.000000 -0.975739 -0.218938 102 102 102
0.083700 0.490504 -0.245500 0.000000 0.974231 -0.225551 102 102 102
-0.069501 0.494258 -0.229284 0.000000 0.974231 -0.225551 102 102 102
0.067742 0.494258 -0.229284 0.000000 0.974231 -0.225551 102 102 102
-0.085459 0.490504 -0.245500 -0.225924 0.974140 -0.003212 102 102 102
-0.069501 0.494719 -0.089649 -0.225924 0.974140 -0.003212 102 102 102
-0.069501 0.494258 -0.229284 -0.225924 0.974140 -0.003212 102 102 102
0.083700 0.192551 -0.071846 0.225923 -0.974140 0.003212 102 102 102
0.067742 0.188336 -0.227697 0.225923 -0.974140 0.003212 102 102 102
0.083700 0.191984 -0.243952 0.225923 -0.974140 0.003212 102 102 102
0.083700 0.490504 -0.245500 0.225922 0.974140 -0.003212 102 102 102
0.067742 0.494719 -0.089649 0.225922 0.974140 -0.003212 102 102 102
0.083700 0.491072 -0.073394 0.225922 0.974140 -0.003212 102 102 102
-0.085459 0.491072 -0.073394 -0.667121 -0.744932 0.005153 102 102 102
-0.056108 0.463806 -0.215167 -0.667121 -0.744932 0.005153 102 102 102
-0.056108 0.464584 -0.102785 -0.667121 -0.744932 0.005153 102 102 102
-0.056108 0.464584 -0.102785 -1.000000 0.000000 0.000000 102 102 102
-0.056108 0.382028 -0.214965 -1.000000 0.000000 0.000000 102 102 102
-0.056108 0.382805 -0.102583 -1.000000 0.000000 0.000000 102 102 102
-0.056108 0.300250 -0.214763 -1.000000 0.000000 0.000000 102 102 102
-0.056108 0.301027 -0.102381 -1.000000 0.000000 0.000000 102 102 102
-0.056108 0.218472 -0.214561 -1.000000 0.000000 0.000000 102 102 102
-0.056108 0.219249 -0.102179 -1.000000 0.000000 0.000000 102 102 102
-0.085459 0.491072 -0.073394 0.000000 -0.742843 0.669466 102 102 102
0.054349 0.464584 -0.102785 0.000000 -0.742843 0.669466 102 102 102
0.083700 0.491072 -0.073394 0.000000 -0.742843 0.669466 102 102 102
-0.056108 0.464584 -0.102785 0.000000 0.002473 0.999997 102 102 102
0.054349 0.382805 -0.102583 0.000000 0.002473 0.999997 102 102 102
0.054349 0.464584 -0.102785 0.000000 0.002473 0.999997 102 102 102
-0.056108 0.382805 -0.102583 0.000000 0.002472 0.999997 102 102 102
0.054349 0.301027 -0.102381 0.000000 0.002472 0.999997 102 102 102
0.054349 0.382805 -0.102583 0.000000 0.002472 0.999997 102 102 102
-0.056108 0.301027 -0.102381 0.000000 0.002472 0.999997 102 102 102
0.054349 0.219249 -0.102179 0.000000 0.002472 0.999997 102 102 102
0.083700 0.491072 -0.073394 0.674262 -0.738488 0.002435 102 102 102
0.054349 0.463806 -0.215167 0.674262 -0.738488 0.002435 102 102 102
0.083700 0.490504 -0.245500 0.674262 -0.738488 0.002435 102 102 102
0.054349 0.464584 -0.102785 1.000000 -0.000000 -0.000000 102 102 102
0.054349 0.382028 -0.214965 1.000000 -0.000000 -0.000000 102 102 102
0.054349 0.463806 -0.215167 1.000000 -0.000000 -0.000000 102 102 102
0.054349 0.382805 -0.102583 1.000000 -0.000000 -0.000000 102 102 102
0.054349 0.300250 -0.214763 1.000000 -0.000000 -0.000000 102 102 102
0.054349 0.301027 -0.102381 1.000000 -0.000000 -0.000000 102 102 102
0.054349 0.218472 -0.214561 1.000000 -0.000000 -0.000000 102 102 102
0.083700 0.490504 -0.245500 0.000000 -0.750653 -0.660697 102 102 102
-0.056108 0.463806 -0.215167 0.000000 -0.750653 -0.660697 102 102 102
-0.085459 0.490504 -0.245500 0.000000 -0.750653 -0.660697 102 102 102
0.054349 0.463806 -0.215167 0.000000 -0.002472 -0.999997 102 102 102
-0.056108 0.382028 -0.214965 0.000000 -0.002472 -0.999997 102 102 102
-0.056108 0.463806 -0.215167 0.000000 -0.002472 -0.999997 102 102 102
0.054349 0.382028 -0.214965 0.000000 -0.002472 -0.999997 102 102 102
-0.056108 0.300250 -0.214763 0.000000 -0.002472 -0.999997 102 102 102
0.054349 0.300250 -0.214763 0.000000 -0.002473 -0.999997 102 102 102
-0.056108 0.218472 -0.214561 0.000000 -0.002473 -0.999997 102 102 102
-0.056108 0.300250 -0.214763 0.000000 -0.002473 -0.999997 102 102 102
-0.056108 0.218472 -0.214561 -0.000000 0.742841 -0.669467 102 102 102
0.054349 0.218472 -0.214561 -0.000000 0.742841 -0.669467 102 102 102
0.083700 0.191984 -0.243952 -0.000000 0.742841 -0.669467 102 102 102
0.054349 0.219249 -0.102179 0.674262 0.738488 -0.002435 102 102 102
0.083700 0.192551 -0.071846 0.674262 0.738488 -0.002435 102 102 102
0.083700 0.191984 -0.243952 0.674262 0.738488 -0.002435 102 102 102
-0.085459 0.192551 -0.071846 0.000000 0.750653 0.660697 102 102 102
-0.056108 0.219249 -0.102179 -0.667121 0.744932 -0.005153 102 102 102
-0.056108 0.218472 -0.214561 -0.667121 0.744932 -0.005153 102 102 102
-0.085459 0.191984 -0.243952 -0.667121 0.744932 -0.005153 102 102 102
-0.069501 0.188797 -0.088062 0.000000 -0.974231 0.225551 102 102 102
-0.085459 0.191984 -0.243952 -0.225923 -0.974140 0.003212 102 102 102
0.067742 0.494719 -0.089649 -0.000000 0.975739 0.218936 102 102 102
0.067742 0.188336 -0.227697 0.000000 -0.975739 -0.218938 102 102 102
-0.085459 0.490504 -0.245500 0.000000 0.974231 -0.225551 102 102 102
-0.085459 0.490504 -0.245500 -0.225922 0.974140 -0.003212 102 102 102
-0.085459 0.491072 -0.073394 -0.225922 0.974140 -0.003212 102 102 102
-0.069501 0.494719 -0.089649 -0.225922 0.974140 -0.003212 102 102 102
0.067742 0.188797 -0.088062 0.225923 -0.974140 0.003212 102 102 102
0.083700 0.490504 -0.245500 0.225924 0.974140 -0.003212 102 102 102
0.067742 0.494258 -0.229284 0.225924 0.974140 -0.003212 102 102 102
0.067742 0.494719 -0.089649 0.225924 0.974140 -0.003212 102 102 102
-0.085459 0.491072 -0.073394 -0.674262 -0.738488 0.002435 102 102 102
-0.085459 0.490504 -0.245500 -0.674262 -0.738488 0.002435 102 102 102
-0.056108 0.463806 -0.215167 -0.674262 -0.738488 0.002435 102 102 102
-0.056108 0.463806 -0.215167 -1.000000 0.000000 0.000000 102 102 102
-0.085459 0.491072 -0.073394 0.000000 -0.742842 0.669466 102 102 102
-0.056108 0.464584 -0.102785 0.000000 -0.742842 0.669466 102 102 102
0.054349 0.464584 -0.102785 0.000000 -0.742842 0.669466 102 102 102
-0.056108 0.464584 -0.102785 0.000000 0.002472 0.999997 102 102 102
-0.056108 0.301027 -0.102381 0.000000 0.002473 0.999997 102 102 102
-0.056108 0.219249 -0.102179 0.000000 0.002473 0.999997 102 102 102
0.054349 0.219249 -0.102179 0.000000 0.002473 0.999997 102 102 102
0.083700 0.491072 -0.073394 0.667121 -0.744932 0.005153 102 102 102
0.054349 0.464584 -0.102785 0.667121 -0.744932 0.005153 102 102 102
0.054349 0.463806 -0.215167 0.667121 -0.744932 0.005153 102 102 102
0.054349 0.219249 -0.102179 1.000000 -0.000000 -0.000000 102 102 102
0.054349 0.463806 -0.215167 0.000000 -0.750653 -0.660697 102 102 102
0.054349 0.300250 -0.214763 0.000000 -0.002472 -0.999997 102 102 102
0.054349 0.218472 -0.214561 -0.000000 -0.002472 -0.999997 102 102 102
-0.056108 0.218472 -0.214561 -0.000000 -0.002472 -0.999997 102 102 102
3 0 1 2
3 3 4 5
3 6 7 8
3 9 10 11
3 12 13 14
3 15 16 17
3 18 19 20
3 21 22 23
3 24 25 26
3 27 28 29
3 30 31 32
3 33 34 35
3 36 37 38
3 39 40 41
3 41 42 43
3 43 44 45
3 46 47 48
3 49 50 51
3 52 53 54
3 55 56 53
3 57 58 59
3 60 61 62
3 63 64 61
3 65 66 64
3 67 68 69
3 70 71 72
3 73 74 71
3 75 76 77
3 78 79 80
3 81 82 83
3 6 84 7
3 85 86 87
3 12 88 13
3 15 89 16
3 18 90 19
3 21 91 22
3 24 92 25
3 93 94 95
3 30 96 31
3 97 98 99
3 100 101 102
3 39 103 40
3 41 40 42
3 43 42 44
3 104 105 106
3 107 52 54
3 52 55 53
3 108 109 110
3 111 112 113
3 60 63 61
3 63 65 64
3 65 114 66
3 67 115 68
3 70 73 71
3 73 116 74
3 116 117 118
