ply
format ascii 1.0
comment Created by Blender 2.77 (sub 0) - www.blender.org, source file: 'Sword.blend'
element vertex 112
property float x
property float y
property float z
property float nx
property float ny
property float nz
property uchar red
property uchar green
property uchar blue
element face 64
property list uchar uint vertex_indices
end_header
0.014017 1.087524 0.188764 0.000000 -0.000000 -1.000000 255 255 255
-0.003465 -0.387690 0.188765 0.000000 -0.000000 -1.000000 255 255 255
-0.003465 1.087524 0.188764 0.000000 -0.000000 -1.000000 255 255 255
0.014017 1.087524 0.217880 1.000000 -0.000000 -0.000000 255 255 255
0.014017 -0.387690 0.188765 1.000000 -0.000000 -0.000000 255 255 255
0.014017 1.087524 0.188764 1.000000 -0.000000 -0.000000 255 255 255
-0.003465 1.087524 0.217880 0.000000 0.000000 1.000000 255 255 255
0.014017 -0.387690 0.217880 0.000000 0.000000 1.000000 255 255 255
0.014017 1.087524 0.217880 0.000000 0.000000 1.000000 255 255 255
-0.003465 1.087524 0.217880 -1.000000 0.000000 0.000000 255 255 255
-0.003465 -0.387690 0.188765 -1.000000 0.000000 0.000000 255 255 255
-0.003465 -0.387690 0.217880 -1.000000 0.000000 0.000000 255 255 255
-0.003465 -0.387690 0.188765 0.000000 -1.000000 -0.000000 255 255 255
0.014017 -0.387690 0.217880 0.000000 -1.000000 -0.000000 255 255 255
-0.003465 -0.387690 0.217880 0.000000 -1.000000 -0.000000 255 255 255
0.014017 1.087524 0.217880 -0.000000 1.000000 0.000000 255 255 255
-0.003465 1.087524 0.188764 -0.000000 1.000000 0.000000 255 255 255
-0.003465 1.087524 0.217880 -0.000000 1.000000 0.000000 255 255 255
0.067742 0.188797 -0.023006 0.000000 -0.695640 0.718390 51 51 51
-0.069501 0.084400 -0.124097 0.000000 -0.695640 0.718390 51 51 51
0.067742 0.084400 -0.124097 0.000000 -0.695640 0.718390 51 51 51
-0.069501 0.188336 -0.162641 -1.000000 -0.000000 0.000000 51 51 51
-0.069501 0.084400 -0.124097 -1.000000 -0.000000 0.000000 51 51 51
-0.069501 0.188797 -0.023006 -1.000000 -0.000000 0.000000 51 51 51
0.067742 0.599116 -0.125918 1.000000 0.000000 0.000000 51 51 51
0.067742 0.867682 -0.239025 1.000000 0.000000 0.000000 51 51 51
0.067742 0.868142 -0.099390 1.000000 0.000000 0.000000 51 51 51
0.067742 0.599116 -0.125918 0.000000 -0.098132 0.995173 51 51 51
-0.069501 0.868142 -0.099390 0.000000 -0.098132 0.995173 51 51 51
-0.069501 0.599116 -0.125918 0.000000 -0.098132 0.995173 51 51 51
0.067742 0.188336 -0.162641 1.000000 0.000000 -0.000000 51 51 51
0.067742 0.084400 -0.124097 1.000000 0.000000 -0.000000 51 51 51
0.067742 0.083939 -0.263733 1.000000 0.000000 -0.000000 51 51 51
0.067742 0.188336 -0.162641 0.000000 0.695640 -0.718390 51 51 51
-0.069501 0.083939 -0.263733 0.000000 0.695640 -0.718390 51 51 51
-0.069501 0.188336 -0.162641 0.000000 0.695640 -0.718390 51 51 51
-0.069501 0.494258 -0.164228 -1.000000 0.000000 0.000000 51 51 51
-0.069501 0.599116 -0.125918 -1.000000 0.000000 0.000000 51 51 51
-0.069501 0.598656 -0.265554 -1.000000 0.000000 0.000000 51 51 51
0.067742 0.494719 -0.024592 0.000000 0.696471 0.717585 51 51 51
-0.069501 0.599116 -0.125918 0.000000 0.696471 0.717585 51 51 51
-0.069501 0.494719 -0.024592 0.000000 0.696471 0.717585 51 51 51
0.067742 0.494258 -0.164228 1.000000 -0.000000 -0.000000 51 51 51
0.067742 0.494719 -0.024592 1.000000 -0.000000 -0.000000 51 51 51
0.067742 0.494258 -0.164228 -0.000000 -0.696471 -0.717585 51 51 51
-0.069501 0.598656 -0.265554 -0.000000 -0.696471 -0.717585 51 51 51
0.067742 0.598656 -0.265554 -0.000000 -0.696471 -0.717585 51 51 51
-0.069501 0.868142 -0.099390 0.000000 -0.842178 0.539200 51 51 51
0.067742 1.137562 0.321418 0.000000 -0.842178 0.539200 51 51 51
-0.069501 1.137562 0.321418 0.000000 -0.842178 0.539200 51 51 51
-0.069501 0.868142 -0.099390 -1.000000 -0.000000 0.000000 51 51 51
-0.069501 1.137102 0.181782 -1.000000 -0.000000 0.000000 51 51 51
-0.069501 0.867682 -0.239025 -1.000000 -0.000000 0.000000 51 51 51
-0.069501 0.598656 -0.265554 0.000000 0.098132 -0.995173 51 51 51
0.067742 0.867682 -0.239025 0.000000 0.098132 -0.995173 51 51 51
0.067742 0.598656 -0.265554 0.000000 0.098132 -0.995173 51 51 51
-0.069501 -0.185087 -0.236600 -1.000000 0.000000 -0.000000 51 51 51
-0.069501 -0.184626 -0.096965 -1.000000 0.000000 -0.000000 51 51 51
-0.069501 0.084400 -0.124097 0.000000 0.100344 0.994953 51 51 51
0.067742 -0.184626 -0.096965 0.000000 0.100344 0.994953 51 51 51
0.067742 0.084400 -0.124097 0.000000 0.100344 0.994953 51 51 51
0.067742 -0.185087 -0.236600 1.000000 0.000000 -0.000000 51 51 51
0.067742 0.083939 -0.263733 0.000000 -0.100344 -0.994953 51 51 51
-0.069501 -0.185087 -0.236600 0.000000 -0.100344 -0.994953 51 51 51
-0.069501 0.083939 -0.263733 0.000000 -0.100344 -0.994953 51 51 51
-0.069501 1.137562 0.321418 0.000000 0.999995 -0.003297 51 51 51
0.067742 1.137102 0.181782 0.000000 0.999995 -0.003297 51 51 51
-0.069501 1.137102 0.181782 0.000000 0.999995 -0.003297 51 51 51
0.067742 -0.454046 0.324448 0.000000 -0.999995 0.003297 51 51 51
-0.069501 -0.454507 0.184812 0.000000 -0.999995 0.003297 51 51 51
0.067742 -0.454507 0.184812 0.000000 -0.999995 0.003297 51 51 51
0.067742 1.137102 0.181782 1.000000 0.000000 -0.000000 51 51 51
0.067742 1.137562 0.321418 1.000000 0.000000 -0.000000 51 51 51
-0.069501 0.867682 -0.239025 0.000000 0.842178 -0.539200 51 51 51
0.067742 1.137102 0.181782 0.000000 0.842178 -0.539200 51 51 51
0.067742 0.867682 -0.239025 0.000000 0.842178 -0.539200 51 51 51
-0.069501 -0.454507 0.184812 -1.000000 0.000000 0.000000 51 51 51
-0.069501 -0.454046 0.324448 -1.000000 0.000000 0.000000 51 51 51
-0.069501 -0.184626 -0.096965 0.000000 0.842529 0.538651 51 51 51
0.067742 -0.454046 0.324448 0.000000 0.842529 0.538651 51 51 51
0.067742 -0.184626 -0.096965 0.000000 0.842529 0.538651 51 51 51
0.067742 -0.184626 -0.096965 1.000000 -0.000000 0.000000 51 51 51
0.067742 -0.454507 0.184812 1.000000 -0.000000 0.000000 51 51 51
-0.069501 -0.185087 -0.236600 0.000000 -0.842529 -0.538651 51 51 51
0.067742 -0.454507 0.184812 0.000000 -0.842529 -0.538651 51 51 51
-0.069501 -0.454507 0.184812 0.000000 -0.842529 -0.538651 51 51 51
0.014017 -0.387690 0.188765 0.000000 -0.000000 -1.000000 255 255 255
0.014017 -0.387690 0.217880 1.000000 -0.000000 -0.000000 255 255 255
-0.003465 -0.387690 0.217880 0.000000 0.000000 1.000000 255 255 255
-0.003465 1.087524 0.188764 -1.000000 0.000000 0.000000 255 255 255
0.014017 -0.387690 0.188765 -0.000000 -1.000000 0.000000 255 255 255
0.014017 1.087524 0.188764 0.000000 1.000000 0.000000 255 255 255
-0.069501 0.188797 -0.023006 0.000000 -0.695640 0.718390 51 51 51
-0.069501 0.083939 -0.263733 -1.000000 -0.000000 0.000000 51 51 51
0.067742 0.598656 -0.265554 1.000000 -0.000000 -0.000000 51 51 51
0.067742 0.868142 -0.099390 0.000000 -0.098132 0.995173 51 51 51
0.067742 0.188797 -0.023006 1.000000 0.000000 -0.000000 51 51 51
0.067742 0.083939 -0.263733 0.000000 0.695640 -0.718390 51 51 51
-0.069501 0.494719 -0.024592 -1.000000 0.000000 0.000000 51 51 51
0.067742 0.599116 -0.125918 -0.000000 0.696471 0.717585 51 51 51
-0.069501 0.494258 -0.164228 0.000000 -0.696471 -0.717585 51 51 51
0.067742 0.868142 -0.099390 0.000000 -0.842178 0.539200 51 51 51
-0.069501 1.137562 0.321418 -1.000000 -0.000000 0.000000 51 51 51
-0.069501 0.867682 -0.239025 0.000000 0.098132 -0.995173 51 51 51
-0.069501 -0.184626 -0.096965 0.000000 0.100344 0.994953 51 51 51
0.067742 -0.185087 -0.236600 0.000000 -0.100344 -0.994953 51 51 51
0.067742 1.137562 0.321418 0.000000 0.999995 -0.003297 51 51 51
-0.069501 -0.454046 0.324448 0.000000 -0.999995 0.003297 51 51 51
-0.069501 1.137102 0.181782 0.000000 0.842178 -0.539200 51 51 51
-0.069501 -0.454046 0.324448 0.000000 0.842529 0.538651 51 51 51
0.067742 -0.454046 0.324448 1.000000 -0.000000 -0.000000 51 51 51
0.067742 -0.185087 -0.236600 -0.000000 -0.842529 -0.538651 51 51 51
3 0 1 2
3 3 4 5
3 6 7 8
3 9 10 11
3 12 13 14
3 15 16 17
3 18 19 20
3 21 22 23
3 24 25 26
3 27 28 29
3 30 31 32
3 33 34 35
3 36 37 38
3 39 40 41
3 42 24 43
3 44 45 46
3 47 48 49
3 50 51 52
3 53 54 55
3 22 56 57
3 58 59 60
3 31 61 32
3 62 63 64
3 37 52 38
3 65 66 67
3 68 69 70
3 26 71 72
3 73 74 75
3 57 76 77
3 78 79 80
3 81 82 61
3 83 84 85
3 0 86 1
3 3 87 4
3 6 88 7
3 9 89 10
3 12 90 13
3 15 91 16
3 18 92 19
3 21 93 22
3 24 94 25
3 27 95 28
3 30 96 31
3 33 97 34
3 36 98 37
3 39 99 40
3 42 94 24
3 44 100 45
3 47 101 48
3 50 102 51
3 53 103 54
3 22 93 56
3 58 104 59
3 31 81 61
3 62 105 63
3 37 50 52
3 65 106 66
3 68 107 69
3 26 25 71
3 73 108 74
3 57 56 76
3 78 109 79
3 81 110 82
3 83 111 84
