ply
format ascii 1.0
comment Created by Blender 2.77 (sub 0) - www.blender.org, source file: 'Sword.blend'
element vertex 112
property float x
property float y
property float z
property float nx
property float ny
property float nz
property uchar red
property uchar green
property uchar blue
element face 64
property list uchar uint vertex_indices
end_header
0.014017 1.056825 0.203933 0.000000 -0.000000 -1.000000 255 255 255
-0.003465 -0.356990 0.203933 0.000000 -0.000000 -1.000000 255 255 255
-0.003465 1.056825 0.203933 0.000000 -0.000000 -1.000000 255 255 255
0.014017 1.056825 0.233048 1.000000 -0.000000 -0.000000 255 255 255
0.014017 -0.356990 0.203933 1.000000 -0.000000 -0.000000 255 255 255
0.014017 1.056825 0.203933 1.000000 -0.000000 -0.000000 255 255 255
-0.003465 1.056825 0.233048 0.000000 0.000000 1.000000 255 255 255
0.014017 -0.356990 0.233049 0.000000 0.000000 1.000000 255 255 255
0.014017 1.056825 0.233048 0.000000 0.000000 1.000000 255 255 255
-0.003465 1.056825 0.233048 -1.000000 0.000000 0.000000 255 255 255
-0.003465 -0.356990 0.203933 -1.000000 0.000000 0.000000 255 255 255
-0.003465 -0.356990 0.233049 -1.000000 0.000000 0.000000 255 255 255
0.014017 -0.356990 0.203933 0.000000 -1.000000 0.000000 255 255 255
-0.003465 -0.356990 0.233049 0.000000 -1.000000 0.000000 255 255 255
-0.003465 -0.356990 0.203933 0.000000 -1.000000 0.000000 255 255 255
0.014017 1.056825 0.233048 -0.000000 1.000000 0.000000 255 255 255
-0.003465 1.056825 0.203933 -0.000000 1.000000 0.000000 255 255 255
-0.003465 1.056825 0.233048 -0.000000 1.000000 0.000000 255 255 255
0.067742 0.494719 -0.090125 1.000000 0.000000 -0.000000 51 51 51
0.067742 0.701222 -0.096503 1.000000 0.000000 -0.000000 51 51 51
0.067742 0.701682 0.043133 1.000000 0.000000 -0.000000 51 51 51
-0.069501 0.494719 -0.090125 0.000000 -0.541359 0.840791 51 51 51
0.067742 0.701682 0.043133 0.000000 -0.541359 0.840791 51 51 51
-0.069501 0.701682 0.043133 0.000000 -0.541359 0.840791 51 51 51
0.067742 0.701682 0.043133 0.000000 0.001122 0.999999 51 51 51
-0.069501 0.906346 0.042903 0.000000 0.001122 0.999999 51 51 51
-0.069501 0.701682 0.043133 0.000000 0.001122 0.999999 51 51 51
-0.069501 0.701682 0.043133 -1.000000 0.000000 0.000000 51 51 51
-0.069501 0.905885 -0.096733 -1.000000 0.000000 0.000000 51 51 51
-0.069501 0.701222 -0.096503 -1.000000 0.000000 0.000000 51 51 51
-0.069501 0.494258 -0.229760 0.000000 0.541359 -0.840792 51 51 51
0.067742 0.701222 -0.096503 0.000000 0.541359 -0.840792 51 51 51
0.067742 0.494258 -0.229760 0.000000 0.541359 -0.840792 51 51 51
-0.069501 0.188797 -0.088538 -1.000000 0.000000 0.000000 51 51 51
-0.069501 -0.018627 -0.094452 -1.000000 0.000000 0.000000 51 51 51
-0.069501 -0.018167 0.045184 -1.000000 0.000000 0.000000 51 51 51
-0.069501 0.188797 -0.088538 0.000000 0.542691 0.839932 51 51 51
0.067742 -0.018167 0.045184 0.000000 0.542691 0.839932 51 51 51
0.067742 0.188797 -0.088538 0.000000 0.542691 0.839932 51 51 51
0.067742 0.188797 -0.088538 1.000000 -0.000000 -0.000000 51 51 51
0.067742 -0.018627 -0.094452 1.000000 -0.000000 -0.000000 51 51 51
0.067742 0.188336 -0.228174 1.000000 -0.000000 -0.000000 51 51 51
-0.069501 0.188336 -0.228174 0.000000 -0.542691 -0.839932 51 51 51
0.067742 -0.018627 -0.094452 0.000000 -0.542691 -0.839932 51 51 51
-0.069501 -0.018627 -0.094452 0.000000 -0.542691 -0.839932 51 51 51
-0.069501 0.494719 -0.090125 -1.000000 -0.000000 0.000000 51 51 51
-0.069501 0.494258 -0.229760 -1.000000 -0.000000 0.000000 51 51 51
0.067742 -0.222830 0.045414 1.000000 -0.000000 -0.000000 51 51 51
0.067742 -0.417635 0.215485 1.000000 -0.000000 -0.000000 51 51 51
0.067742 -0.223290 -0.094222 1.000000 -0.000000 -0.000000 51 51 51
-0.069501 -0.222830 0.045414 0.000000 0.847041 0.531528 51 51 51
0.067742 -0.417175 0.355121 0.000000 0.847041 0.531528 51 51 51
0.067742 -0.222830 0.045414 0.000000 0.847041 0.531528 51 51 51
0.067742 0.905885 -0.096733 1.000000 -0.000000 -0.000000 51 51 51
0.067742 0.906346 0.042903 1.000000 -0.000000 -0.000000 51 51 51
-0.069501 0.701222 -0.096503 0.000000 -0.001123 -0.999999 51 51 51
0.067742 0.905885 -0.096733 0.000000 -0.001123 -0.999999 51 51 51
0.067742 0.701222 -0.096503 0.000000 -0.001123 -0.999999 51 51 51
-0.069501 -0.223290 -0.094222 -1.000000 0.000000 0.000000 51 51 51
-0.069501 -0.222830 0.045414 -1.000000 0.000000 0.000000 51 51 51
-0.069501 -0.018167 0.045184 0.000000 0.001123 0.999999 51 51 51
0.067742 -0.222830 0.045414 0.000000 0.001123 0.999999 51 51 51
0.067742 -0.018167 0.045184 0.000000 0.001123 0.999999 51 51 51
0.067742 -0.018167 0.045184 1.000000 -0.000000 -0.000000 51 51 51
0.067742 -0.018627 -0.094452 0.000000 -0.001122 -0.999999 51 51 51
-0.069501 -0.223290 -0.094222 0.000000 -0.001122 -0.999999 51 51 51
-0.069501 -0.018627 -0.094452 0.000000 -0.001122 -0.999999 51 51 51
-0.069501 1.100690 0.352174 0.000000 0.999995 -0.003297 51 51 51
0.067742 1.100230 0.212538 0.000000 0.999995 -0.003297 51 51 51
-0.069501 1.100230 0.212538 0.000000 0.999995 -0.003297 51 51 51
0.067742 -0.417175 0.355121 0.000000 -0.999995 0.003297 51 51 51
-0.069501 -0.417635 0.215485 0.000000 -0.999995 0.003297 51 51 51
0.067742 -0.417635 0.215485 0.000000 -0.999995 0.003297 51 51 51
-0.069501 -0.223290 -0.094222 0.000000 -0.847041 -0.531528 51 51 51
0.067742 -0.417635 0.215485 0.000000 -0.847041 -0.531528 51 51 51
-0.069501 -0.417635 0.215485 0.000000 -0.847041 -0.531528 51 51 51
-0.069501 0.906346 0.042903 -1.000000 -0.000000 0.000000 51 51 51
-0.069501 1.100230 0.212538 -1.000000 -0.000000 0.000000 51 51 51
-0.069501 0.906346 0.042903 0.000000 -0.846703 0.532066 51 51 51
0.067742 1.100690 0.352174 0.000000 -0.846703 0.532066 51 51 51
-0.069501 1.100690 0.352174 0.000000 -0.846703 0.532066 51 51 51
0.067742 1.100230 0.212538 1.000000 0.000000 -0.000000 51 51 51
0.067742 1.100690 0.352174 1.000000 0.000000 -0.000000 51 51 51
-0.069501 0.905885 -0.096733 0.000000 0.846703 -0.532066 51 51 51
0.067742 1.100230 0.212538 0.000000 0.846703 -0.532066 51 51 51
0.067742 0.905885 -0.096733 0.000000 0.846703 -0.532066 51 51 51
-0.069501 -0.417635 0.215485 -1.000000 0.000000 0.000000 51 51 51
-0.069501 -0.417175 0.355121 -1.000000 0.000000 0.000000 51 51 51
0.014017 -0.356990 0.203933 0.000000 -0.000000 -1.000000 255 255 255
0.014017 -0.356990 0.233049 1.000000 -0.000000 -0.000000 255 255 255
-0.003465 -0.356990 0.233049 0.000000 0.000000 1.000000 255 255 255
-0.003465 1.056825 0.203933 -1.000000 0.000000 0.000000 255 255 255
0.014017 -0.356990 0.233049 0.000000 -1.000000 -0.000000 255 255 255
0.014017 1.056825 0.203933 0.000000 1.000000 0.000000 255 255 255
0.067742 0.494258 -0.229760 1.000000 0.000000 -0.000000 51 51 51
0.067742 0.494719 -0.090125 0.000000 -0.541359 0.840791 51 51 51
0.067742 0.906346 0.042903 0.000000 0.001122 0.999999 51 51 51
-0.069501 0.701222 -0.096503 0.000000 0.541359 -0.840792 51 51 51
-0.069501 0.188336 -0.228174 -1.000000 0.000000 0.000000 51 51 51
-0.069501 -0.018167 0.045184 0.000000 0.542691 0.839932 51 51 51
0.067742 0.188336 -0.228174 -0.000000 -0.542691 -0.839932 51 51 51
0.067742 -0.417175 0.355121 1.000000 -0.000000 -0.000000 51 51 51
-0.069501 -0.417175 0.355121 0.000000 0.847041 0.531528 51 51 51
-0.069501 0.905885 -0.096733 -0.000000 -0.001123 -0.999999 51 51 51
-0.069501 -0.222830 0.045414 0.000000 0.001123 0.999999 51 51 51
0.067742 -0.223290 -0.094222 0.000000 -0.001122 -0.999999 51 51 51
0.067742 1.100690 0.352174 0.000000 0.999995 -0.003297 51 51 51
-0.069501 -0.417175 0.355121 0.000000 -0.999995 0.003297 51 51 51
0.067742 -0.223290 -0.094222 -0.000000 -0.847041 -0.531528 51 51 51
-0.069501 1.100690 0.352174 -1.000000 -0.000000 0.000000 51 51 51
0.067742 0.906346 0.042903 0.000000 -0.846703 0.532066 51 51 51
-0.069501 1.100230 0.212538 0.000000 0.846703 -0.532066 51 51 51
3 0 1 2
3 3 4 5
3 6 7 8
3 9 10 11
3 12 13 14
3 15 16 17
3 18 19 20
3 21 22 23
3 24 25 26
3 27 28 29
3 30 31 32
3 33 34 35
3 36 37 38
3 39 40 41
3 42 43 44
3 45 29 46
3 47 48 49
3 50 51 52
3 20 53 54
3 55 56 57
3 35 58 59
3 60 61 62
3 63 49 40
3 64 65 66
3 67 68 69
3 70 71 72
3 73 74 75
3 76 77 28
3 78 79 80
3 54 81 82
3 83 84 85
3 59 86 87
3 0 88 1
3 3 89 4
3 6 90 7
3 9 91 10
3 12 92 13
3 15 93 16
3 18 94 19
3 21 95 22
3 24 96 25
3 27 76 28
3 30 97 31
3 33 98 34
3 36 99 37
3 39 63 40
3 42 100 43
3 45 27 29
3 47 101 48
3 50 102 51
3 20 19 53
3 55 103 56
3 35 34 58
3 60 104 61
3 63 47 49
3 64 105 65
3 67 106 68
3 70 107 71
3 73 108 74
3 76 109 77
3 78 110 79
3 54 53 81
3 83 111 84
3 59 58 86
