ply
format ascii 1.0
comment Created by Blender 2.77 (sub 0) - www.blender.org, source file: 'Bush.blend'
element vertex 360
property float x
property float y
property float z
property float nx
property float ny
property float nz
property uchar red
property uchar green
property uchar blue
element face 120
property list uchar uint vertex_indices
end_header
-0.175233 1.239776 0.367411 -0.187597 0.969805 0.155837 0 0 0
-1.014119 0.943596 1.200742 -0.187597 0.969805 0.155837 0 0 0
0.145187 1.113855 1.536756 -0.187597 0.969805 0.155837 0 0 0
-1.014119 0.943596 1.200742 -0.607065 0.708848 -0.359176 0 0 0
-0.175233 1.239776 0.367411 -0.607065 0.708848 -0.359176 0 0 0
-1.014119 0.392638 0.113403 -0.607065 0.708848 -0.359176 0 0 0
-0.175233 1.239776 0.367411 0.491122 0.870131 -0.040876 0 0 0
0.145187 1.113855 1.536756 0.491122 0.870131 -0.040876 0 0 0
0.861695 0.668117 0.657073 0.491122 0.870131 -0.040876 0 0 0
-0.175233 1.239776 0.367411 0.491122 0.547564 -0.677475 0 0 0
0.861695 0.668117 0.657073 0.491122 0.547564 -0.677475 0 0 0
0.145187 0.222379 -0.222610 0.491122 0.547564 -0.677475 0 0 0
-0.175233 1.239776 0.367411 -0.187596 0.447888 -0.874188 0 0 0
0.145187 0.222379 -0.222610 -0.187596 0.447888 -0.874188 0 0 0
-1.014119 0.392638 0.113403 -0.187596 0.447888 -0.874188 0 0 0
-1.014119 0.943596 1.200742 -0.982246 0.167341 -0.084792 0 0 0
-1.014119 0.392638 0.113403 -0.982246 0.167341 -0.084792 0 0 0
-1.212160 -0.256851 1.125757 -0.982246 0.167341 -0.084792 0 0 0
0.145187 1.113855 1.536756 -0.303536 0.589571 0.748514 0 0 0
-1.014119 0.943596 1.200742 -0.303536 0.589571 0.748514 0 0 0
-0.495653 0.188887 2.005440 -0.303536 0.589571 0.748514 0 0 0
0.861695 0.668117 0.657073 0.794649 0.428293 0.430230 0 0 0
0.145187 1.113855 1.536756 0.794649 0.428293 0.430230 0 0 0
0.663653 0.018628 1.669427 0.794649 0.428293 0.430230 0 0 0
0.145187 0.222379 -0.222610 0.794649 -0.093629 -0.599805 0 0 0
0.861695 0.668117 0.657073 0.794649 -0.093629 -0.599805 0 0 0
0.663654 -0.532330 0.582088 0.794649 -0.093629 -0.599805 0 0 0
-1.014119 0.392638 0.113403 -0.303535 -0.254903 -0.918091 0 0 0
0.145187 0.222379 -0.222610 -0.303535 -0.254903 -0.918091 0 0 0
-0.495652 -0.702590 0.246074 -0.303535 -0.254903 -0.918091 0 0 0
-1.014119 0.943596 1.200742 -0.794649 0.093629 0.599805 0 0 0
-1.212160 -0.256851 1.125757 -0.794649 0.093629 0.599805 0 0 0
-0.495653 0.188887 2.005440 -0.794649 0.093629 0.599805 0 0 0
0.145187 1.113855 1.536756 0.303535 0.254903 0.918091 0 0 0
-0.495653 0.188887 2.005440 0.303535 0.254903 0.918091 0 0 0
0.663653 0.018628 1.669427 0.303535 0.254903 0.918091 0 0 0
0.861695 0.668117 0.657073 0.982246 -0.167341 0.084792 0 0 0
0.663653 0.018628 1.669427 0.982246 -0.167341 0.084792 0 0 0
0.663654 -0.532330 0.582088 0.982246 -0.167341 0.084792 0 0 0
0.145187 0.222379 -0.222610 0.303536 -0.589571 -0.748514 0 0 0
0.663654 -0.532330 0.582088 0.303536 -0.589571 -0.748514 0 0 0
-0.495652 -0.702590 0.246074 0.303536 -0.589571 -0.748514 0 0 0
-1.014119 0.392638 0.113403 -0.794649 -0.428293 -0.430230 0 0 0
-0.495652 -0.702590 0.246074 -0.794649 -0.428293 -0.430230 0 0 0
-1.212160 -0.256851 1.125757 -0.794649 -0.428293 -0.430230 0 0 0
-0.495653 0.188887 2.005440 -0.491122 -0.547564 0.677475 0 0 0
-1.212160 -0.256851 1.125757 -0.491122 -0.547564 0.677475 0 0 0
-0.175233 -0.828510 1.415419 -0.491122 -0.547564 0.677475 0 0 0
0.663653 0.018628 1.669427 0.187597 -0.447888 0.874188 0 0 0
-0.495653 0.188887 2.005440 0.187597 -0.447888 0.874188 0 0 0
-0.175233 -0.828510 1.415419 0.187597 -0.447888 0.874188 0 0 0
0.663654 -0.532330 0.582088 0.607065 -0.708848 0.359176 0 0 0
0.663653 0.018628 1.669427 0.607065 -0.708848 0.359176 0 0 0
-0.175233 -0.828510 1.415419 0.607065 -0.708848 0.359176 0 0 0
-0.495652 -0.702590 0.246074 0.187597 -0.969805 -0.155837 0 0 0
0.663654 -0.532330 0.582088 0.187597 -0.969805 -0.155837 0 0 0
-0.175233 -0.828510 1.415419 0.187597 -0.969805 -0.155837 0 0 0
-1.212160 -0.256851 1.125757 -0.491122 -0.870131 0.040876 0 0 0
-0.495652 -0.702590 0.246074 -0.491122 -0.870131 0.040876 0 0 0
-0.175233 -0.828510 1.415419 -0.491122 -0.870131 0.040876 0 0 0
1.065392 0.675659 0.609930 0.163453 0.969805 -0.180999 0 0 0
1.388756 0.541043 0.180668 0.163453 0.969805 -0.180999 0 0 0
0.845447 0.618428 0.104656 0.163453 0.969805 -0.180999 0 0 0
1.388756 0.541043 0.180668 0.652085 0.708848 0.268924 0 0 0
1.065392 0.675659 0.609930 0.652085 0.708848 0.268924 0 0 0
1.459240 0.290628 0.669820 0.652085 0.708848 0.268924 0 0 0
1.065392 0.675659 0.609930 -0.480272 0.870131 0.110502 0 0 0
0.845447 0.618428 0.104656 -0.480272 0.870131 0.110502 0 0 0
0.580140 0.415836 0.546838 -0.480272 0.870131 0.110502 0 0 0
1.065392 0.675659 0.609930 -0.389480 0.547564 0.740594 0 0 0
0.580140 0.415836 0.546838 -0.389480 0.547564 0.740594 0 0 0
0.959493 0.213244 0.896129 -0.389480 0.547564 0.740594 0 0 0
1.065392 0.675659 0.609930 0.310356 0.447888 0.838496 0 0 0
0.959493 0.213244 0.896129 0.310356 0.447888 0.838496 0 0 0
1.459240 0.290628 0.669820 0.310356 0.447888 0.838496 0 0 0
1.388756 0.541043 0.180668 0.984298 0.167341 -0.056163 0 0 0
1.459240 0.290628 0.669820 0.984298 0.167341 -0.056163 0 0 0
1.482708 -0.004570 0.201563 0.984298 0.167341 -0.056163 0 0 0
0.845447 0.618428 0.104656 0.193679 0.589571 -0.784152 0 0 0
1.388756 0.541043 0.180668 0.193679 0.589571 -0.784152 0 0 0
1.103355 0.198022 -0.147728 0.193679 0.589571 -0.784152 0 0 0
0.580140 0.415836 0.546838 -0.847885 0.428293 -0.312498 0 0 0
0.845447 0.618428 0.104656 -0.847885 0.428293 -0.312498 0 0 0
0.603608 0.120638 0.078581 -0.847885 0.428293 -0.312498 0 0 0
0.959493 0.213244 0.896129 -0.700981 -0.093629 0.707007 0 0 0
0.580140 0.415836 0.546838 -0.700981 -0.093629 0.707007 0 0 0
0.674092 -0.129777 0.567734 -0.700981 -0.093629 0.707007 0 0 0
1.459240 0.290628 0.669820 0.431371 -0.254903 0.865415 0 0 0
0.959493 0.213244 0.896129 0.431371 -0.254903 0.865415 0 0 0
1.217401 -0.207162 0.643744 0.431371 -0.254903 0.865415 0 0 0
1.388756 0.541043 0.180668 0.700981 0.093630 -0.707007 0 0 0
1.482708 -0.004570 0.201563 0.700981 0.093630 -0.707007 0 0 0
1.103355 0.198022 -0.147728 0.700981 0.093630 -0.707007 0 0 0
0.845447 0.618428 0.104656 -0.431371 0.254904 -0.865415 0 0 0
1.103355 0.198022 -0.147728 -0.431371 0.254904 -0.865415 0 0 0
0.603608 0.120638 0.078581 -0.431371 0.254904 -0.865415 0 0 0
0.580140 0.415836 0.546838 -0.984298 -0.167341 0.056164 0 0 0
0.603608 0.120638 0.078581 -0.984298 -0.167341 0.056164 0 0 0
0.674092 -0.129777 0.567734 -0.984298 -0.167341 0.056164 0 0 0
0.959493 0.213244 0.896129 -0.193679 -0.589571 0.784152 0 0 0
0.674092 -0.129777 0.567734 -0.193679 -0.589571 0.784152 0 0 0
1.217401 -0.207162 0.643744 -0.193679 -0.589571 0.784152 0 0 0
1.459240 0.290628 0.669820 0.847885 -0.428293 0.312499 0 0 0
1.217401 -0.207162 0.643744 0.847885 -0.428293 0.312499 0 0 0
1.482708 -0.004570 0.201563 0.847885 -0.428293 0.312499 0 0 0
1.103355 0.198022 -0.147728 0.389480 -0.547564 -0.740594 0 0 0
1.482708 -0.004570 0.201563 0.389480 -0.547564 -0.740594 0 0 0
0.997457 -0.264394 0.138471 0.389480 -0.547564 -0.740594 0 0 0
0.603608 0.120638 0.078581 -0.310356 -0.447888 -0.838496 0 0 0
1.103355 0.198022 -0.147728 -0.310356 -0.447888 -0.838496 0 0 0
0.997457 -0.264394 0.138471 -0.310356 -0.447888 -0.838496 0 0 0
0.674092 -0.129777 0.567734 -0.652085 -0.708848 -0.268924 0 0 0
0.603608 0.120638 0.078581 -0.652085 -0.708848 -0.268924 0 0 0
0.997457 -0.264394 0.138471 -0.652085 -0.708848 -0.268924 0 0 0
1.217401 -0.207162 0.643744 -0.163454 -0.969805 0.181000 0 0 0
0.674092 -0.129777 0.567734 -0.163454 -0.969805 0.181000 0 0 0
0.997457 -0.264394 0.138471 -0.163454 -0.969805 0.181000 0 0 0
1.482708 -0.004570 0.201563 0.480272 -0.870131 -0.110502 0 0 0
1.217401 -0.207162 0.643744 0.480272 -0.870131 -0.110502 0 0 0
0.997457 -0.264394 0.138471 0.480272 -0.870131 -0.110502 0 0 0
-0.254156 0.515171 -0.277562 0.825716 0.542133 0.155837 0 0 0
-0.720984 1.037554 0.378677 0.825716 0.542133 0.155837 0 0 0
-0.249967 0.244091 0.643285 0.825716 0.542133 0.155837 0 0 0
-0.720984 1.037554 0.378677 0.424908 0.830931 -0.359175 0 0 0
-0.254156 0.515171 -0.277562 0.424908 0.830931 -0.359175 0 0 0
-1.122295 0.872642 -0.477591 0.424908 0.830931 -0.359175 0 0 0
-0.254156 0.515171 -0.277562 0.991498 -0.123533 -0.040876 0 0 0
-0.249967 0.244091 0.643285 0.991498 -0.123533 -0.040876 0 0 0
-0.360173 -0.411222 -0.049457 0.991498 -0.123533 -0.040876 0 0 0
-0.254156 0.515171 -0.277562 0.693140 -0.246138 -0.677475 0 0 0
-0.360173 -0.411222 -0.049457 0.693140 -0.246138 -0.677475 0 0 0
-0.899308 -0.022744 -0.742198 0.693140 -0.246138 -0.677475 0 0 0
-0.254156 0.515171 -0.277562 0.342970 0.343756 -0.874188 0 0 0
-0.899308 -0.022744 -0.742198 0.342970 0.343756 -0.874188 0 0 0
-1.122295 0.872642 -0.477591 0.342970 0.343756 -0.874188 0 0 0
-0.720984 1.037554 0.378677 -0.218563 0.972132 -0.084792 0 0 0
-1.122295 0.872642 -0.477591 -0.218563 0.972132 -0.084792 0 0 0
-1.654652 0.822488 0.319627 -0.218563 0.972132 -0.084792 0 0 0
-0.249967 0.244091 0.643285 0.429951 0.504846 0.748513 0 0 0
-0.720984 1.037554 0.378677 0.429951 0.504846 0.748513 0 0 0
-1.115518 0.434010 1.012369 0.429951 0.504846 0.748513 0 0 0
-0.360173 -0.411222 -0.049457 0.698189 -0.572219 0.430230 0 0 0
-0.249967 0.244091 0.643285 0.698189 -0.572219 0.430230 0 0 0
-0.892530 -0.461376 0.747762 0.698189 -0.572219 0.430230 0 0 0
-0.899308 -0.022744 -0.742198 0.215438 -0.770597 -0.599805 0 0 0
-0.360173 -0.411222 -0.049457 0.215438 -0.770597 -0.599805 0 0 0
-1.293842 -0.626288 -0.108507 0.215438 -0.770597 -0.599805 0 0 0
-1.122295 0.872642 -0.477591 -0.351144 0.183868 -0.918091 0 0 0
-0.899308 -0.022744 -0.742198 -0.351144 0.183868 -0.918091 0 0 0
-1.764858 0.167175 -0.373114 -0.351144 0.183868 -0.918091 0 0 0
-0.720984 1.037554 0.378677 -0.215438 0.770597 0.599805 0 0 0
-1.654652 0.822488 0.319627 -0.215438 0.770597 0.599805 0 0 0
-1.115518 0.434010 1.012369 -0.215438 0.770597 0.599805 0 0 0
-0.249967 0.244091 0.643285 0.351144 -0.183868 0.918091 0 0 0
-1.115518 0.434010 1.012369 0.351144 -0.183868 0.918091 0 0 0
-0.892530 -0.461376 0.747762 0.351144 -0.183868 0.918091 0 0 0
-0.360173 -0.411222 -0.049457 0.218563 -0.972132 0.084792 0 0 0
-0.892530 -0.461376 0.747762 0.218563 -0.972132 0.084792 0 0 0
-1.293842 -0.626288 -0.108507 0.218563 -0.972132 0.084792 0 0 0
-0.899308 -0.022744 -0.742198 -0.429951 -0.504846 -0.748514 0 0 0
-1.293842 -0.626288 -0.108507 -0.429951 -0.504846 -0.748514 0 0 0
-1.764858 0.167175 -0.373114 -0.429951 -0.504846 -0.748514 0 0 0
-1.122295 0.872642 -0.477591 -0.698189 0.572219 -0.430230 0 0 0
-1.764858 0.167175 -0.373114 -0.698189 0.572219 -0.430230 0 0 0
-1.654652 0.822488 0.319627 -0.698189 0.572219 -0.430230 0 0 0
-1.115518 0.434010 1.012369 -0.693141 0.246138 0.677475 0 0 0
-1.654652 0.822488 0.319627 -0.693141 0.246138 0.677475 0 0 0
-1.760669 -0.103905 0.547733 -0.693141 0.246138 0.677475 0 0 0
-0.892530 -0.461376 0.747762 -0.342969 -0.343756 0.874187 0 0 0
-1.115518 0.434010 1.012369 -0.342969 -0.343756 0.874187 0 0 0
-1.760669 -0.103905 0.547733 -0.342969 -0.343756 0.874187 0 0 0
-1.293842 -0.626288 -0.108507 -0.424907 -0.830931 0.359176 0 0 0
-0.892530 -0.461376 0.747762 -0.424907 -0.830931 0.359176 0 0 0
-1.760669 -0.103905 0.547733 -0.424907 -0.830931 0.359176 0 0 0
-1.764858 0.167175 -0.373114 -0.825716 -0.542132 -0.155837 0 0 0
-1.293842 -0.626288 -0.108507 -0.825716 -0.542132 -0.155837 0 0 0
-1.760669 -0.103905 0.547733 -0.825716 -0.542132 -0.155837 0 0 0
-1.654652 0.822488 0.319627 -0.991498 0.123532 0.040876 0 0 0
-1.764858 0.167175 -0.373114 -0.991498 0.123532 0.040876 0 0 0
-1.760669 -0.103905 0.547733 -0.991498 0.123532 0.040876 0 0 0
0.360046 -0.440177 -1.559287 -0.187597 -0.870356 -0.455289 0 0 0
-0.306256 -0.007205 -2.112437 -0.187597 -0.870356 -0.455289 0 0 0
0.614545 -0.050840 -2.408430 -0.187597 -0.870356 -0.455289 0 0 0
-0.306256 -0.007205 -2.112437 -0.607065 -0.786156 0.115891 0 0 0
0.360046 -0.440177 -1.559287 -0.607065 -0.786156 0.115891 0 0 0
-0.306257 0.133993 -1.154606 -0.607065 -0.786156 0.115891 0 0 0
0.360046 -0.440177 -1.559287 0.491122 -0.838196 -0.237122 0 0 0
0.614545 -0.050840 -2.408430 0.491122 -0.838196 -0.237122 0 0 0
1.183646 0.063394 -1.633522 0.491122 -0.838196 -0.237122 0 0 0
0.360046 -0.440177 -1.559287 0.491122 -0.734116 0.468906 0 0 0
1.183646 0.063394 -1.633522 0.491122 -0.734116 0.468906 0 0 0
0.614545 0.177627 -0.858614 0.491122 -0.734116 0.468906 0 0 0
0.360046 -0.440177 -1.559287 -0.187597 -0.701954 0.687072 0 0 0
0.614545 0.177627 -0.858614 -0.187597 -0.701954 0.687072 0 0 0
-0.306257 0.133993 -1.154606 -0.187597 -0.701954 0.687072 0 0 0
-0.306256 -0.007205 -2.112437 -0.982246 -0.185591 0.027358 0 0 0
-0.306257 0.133993 -1.154606 -0.982246 -0.185591 0.027358 0 0 0
-0.463555 0.878193 -1.753636 -0.982246 -0.185591 0.027358 0 0 0
0.614545 -0.050840 -2.408430 -0.303536 -0.321823 -0.896825 0 0 0
-0.306256 -0.007205 -2.112437 -0.303536 -0.321823 -0.896825 0 0 0
0.105546 0.763960 -2.528544 -0.303536 -0.321823 -0.896825 0 0 0
1.183646 0.063394 -1.633522 0.794649 -0.269783 -0.543829 0 0 0
0.614545 -0.050840 -2.408430 0.794649 -0.269783 -0.543829 0 0 0
1.026348 0.807593 -2.232551 0.794649 -0.269783 -0.543829 0 0 0
0.614545 0.177627 -0.858614 0.794649 -0.101380 0.598544 0 0 0
1.183646 0.063394 -1.633522 0.794649 -0.101380 0.598544 0 0 0
1.026348 0.948792 -1.274720 0.794649 -0.101380 0.598544 0 0 0
-0.306257 0.133993 -1.154606 -0.303536 -0.049345 0.951541 0 0 0
0.614545 0.177627 -0.858614 -0.303536 -0.049345 0.951541 0 0 0
0.105546 0.992426 -0.978728 -0.303536 -0.049345 0.951541 0 0 0
-0.306256 -0.007205 -2.112437 -0.794649 0.101379 -0.598544 0 0 0
-0.463555 0.878193 -1.753636 -0.794649 0.101379 -0.598544 0 0 0
0.105546 0.763960 -2.528544 -0.794649 0.101379 -0.598544 0 0 0
0.614545 -0.050840 -2.408430 0.303536 0.049345 -0.951541 0 0 0
0.105546 0.763960 -2.528544 0.303536 0.049345 -0.951541 0 0 0
1.026348 0.807593 -2.232551 0.303536 0.049345 -0.951541 0 0 0
1.183646 0.063394 -1.633522 0.982246 0.185591 -0.027359 0 0 0
1.026348 0.807593 -2.232551 0.982246 0.185591 -0.027359 0 0 0
1.026348 0.948792 -1.274720 0.982246 0.185591 -0.027359 0 0 0
0.614545 0.177627 -0.858614 0.303535 0.321822 0.896826 0 0 0
1.026348 0.948792 -1.274720 0.303535 0.321822 0.896826 0 0 0
0.105546 0.992426 -0.978728 0.303535 0.321822 0.896826 0 0 0
-0.306257 0.133993 -1.154606 -0.794649 0.269783 0.543829 0 0 0
0.105546 0.992426 -0.978728 -0.794649 0.269783 0.543829 0 0 0
-0.463555 0.878193 -1.753636 -0.794649 0.269783 0.543829 0 0 0
0.105546 0.763960 -2.528544 -0.491122 0.734116 -0.468905 0 0 0
-0.463555 0.878193 -1.753636 -0.491122 0.734116 -0.468905 0 0 0
0.360045 1.381764 -1.827870 -0.491122 0.734116 -0.468905 0 0 0
1.026348 0.807593 -2.232551 0.187597 0.701954 -0.687072 0 0 0
0.105546 0.763960 -2.528544 0.187597 0.701954 -0.687072 0 0 0
0.360045 1.381764 -1.827870 0.187597 0.701954 -0.687072 0 0 0
1.026348 0.948792 -1.274720 0.607065 0.786156 -0.115892 0 0 0
1.026348 0.807593 -2.232551 0.607065 0.786156 -0.115892 0 0 0
0.360045 1.381764 -1.827870 0.607065 0.786156 -0.115892 0 0 0
0.105546 0.992426 -0.978728 0.187596 0.870356 0.455289 0 0 0
1.026348 0.948792 -1.274720 0.187596 0.870356 0.455289 0 0 0
0.360045 1.381764 -1.827870 0.187596 0.870356 0.455289 0 0 0
-0.463555 0.878193 -1.753636 -0.491122 0.838196 0.237122 0 0 0
0.105546 0.992426 -0.978728 -0.491122 0.838196 0.237122 0 0 0
0.360045 1.381764 -1.827870 -0.491122 0.838196 0.237122 0 0 0
-0.630843 0.811848 -1.708519 -0.426042 0.756054 -0.496861 0 0 0
-1.144167 1.348302 -0.452059 -0.426042 0.756054 -0.496861 0 0 0
0.165353 1.766937 -0.937909 -0.426042 0.756054 -0.496861 0 0 0
-1.144167 1.348302 -0.452059 -0.872515 0.204449 -0.443755 0 0 0
-0.630843 0.811848 -1.708519 -0.872515 0.204449 -0.443755 0 0 0
-1.315138 -0.072226 -0.770367 -0.872515 0.204449 -0.443755 0 0 0
-0.630843 0.811848 -1.708519 0.164717 0.532545 -0.830219 0 0 0
0.165353 1.766937 -0.937909 0.164717 0.532545 -0.830219 0 0 0
0.803726 0.605123 -1.556500 0.164717 0.532545 -0.830219 0 0 0
-0.630843 0.811848 -1.708519 0.081893 -0.155608 -0.984419 0 0 0
0.803726 0.605123 -1.556500 0.081893 -0.155608 -0.984419 0 0 0
-0.111287 -0.531546 -1.452946 0.081893 -0.155608 -0.984419 0 0 0
-0.630843 0.811848 -1.708519 -0.560212 -0.358708 -0.746654 0 0 0
-0.111287 -0.531546 -1.452946 -0.560212 -0.358708 -0.746654 0 0 0
-1.315138 -0.072226 -0.770367 -0.560212 -0.358708 -0.746654 0 0 0
-1.144167 1.348302 -0.452059 -0.966643 0.060578 0.248862 0 0 0
-1.315138 -0.072226 -0.770367 -0.966643 0.060578 0.248862 0 0 0
-0.941859 0.336463 0.580057 -0.966643 0.060578 0.248862 0 0 0
0.165353 1.766937 -0.937909 -0.244141 0.955545 0.165312 0 0 0
-1.144167 1.348302 -0.452059 -0.244141 0.955545 0.165312 0 0 0
-0.026846 1.473133 0.476503 -0.244141 0.955545 0.165312 0 0 0
0.803726 0.605123 -1.556500 0.712803 0.591949 -0.376177 0 0 0
0.165353 1.766937 -0.937909 0.712803 0.591949 -0.376177 0 0 0
1.177005 1.013813 -0.206076 0.712803 0.591949 -0.376177 0 0 0
-0.111287 -0.531546 -1.452946 0.578632 -0.522824 -0.625971 0 0 0
0.803726 0.605123 -1.556500 0.578632 -0.522824 -0.625971 0 0 0
1.006034 -0.406715 -0.524385 0.578632 -0.522824 -0.625971 0 0 0
-1.315138 -0.072226 -0.770367 -0.461910 -0.853804 -0.240121 0 0 0
-0.111287 -0.531546 -1.452946 -0.461910 -0.853804 -0.240121 0 0 0
-0.303486 -0.825350 -0.038535 -0.461910 -0.853804 -0.240121 0 0 0
-1.144167 1.348302 -0.452059 -0.578632 0.522824 0.625971 0 0 0
-0.941859 0.336463 0.580057 -0.578632 0.522824 0.625971 0 0 0
-0.026846 1.473133 0.476503 -0.578632 0.522824 0.625971 0 0 0
0.165353 1.766937 -0.937909 0.461910 0.853804 0.240121 0 0 0
-0.026846 1.473133 0.476503 0.461910 0.853804 0.240121 0 0 0
1.177005 1.013813 -0.206076 0.461910 0.853804 0.240121 0 0 0
0.803726 0.605123 -1.556500 0.966643 -0.060578 -0.248862 0 0 0
1.177005 1.013813 -0.206076 0.966643 -0.060578 -0.248862 0 0 0
1.006034 -0.406715 -0.524385 0.966643 -0.060578 -0.248862 0 0 0
-0.111287 -0.531546 -1.452946 0.244141 -0.955545 -0.165312 0 0 0
1.006034 -0.406715 -0.524385 0.244141 -0.955545 -0.165312 0 0 0
-0.303486 -0.825350 -0.038535 0.244141 -0.955545 -0.165312 0 0 0
-1.315138 -0.072226 -0.770367 -0.712803 -0.591949 0.376176 0 0 0
-0.303486 -0.825350 -0.038535 -0.712803 -0.591949 0.376176 0 0 0
-0.941859 0.336463 0.580057 -0.712803 -0.591949 0.376176 0 0 0
-0.026846 1.473133 0.476503 -0.081893 0.155607 0.984419 0 0 0
-0.941859 0.336463 0.580057 -0.081893 0.155607 0.984419 0 0 0
0.492710 0.129739 0.732075 -0.081893 0.155607 0.984419 0 0 0
1.177005 1.013813 -0.206076 0.560212 0.358707 0.746654 0 0 0
-0.026846 1.473133 0.476503 0.560212 0.358707 0.746654 0 0 0
0.492710 0.129739 0.732075 0.560212 0.358707 0.746654 0 0 0
1.006034 -0.406715 -0.524385 0.872515 -0.204449 0.443755 0 0 0
1.177005 1.013813 -0.206076 0.872515 -0.204449 0.443755 0 0 0
0.492710 0.129739 0.732075 0.872515 -0.204449 0.443755 0 0 0
-0.303486 -0.825350 -0.038535 0.426042 -0.756054 0.496861 0 0 0
1.006034 -0.406715 -0.524385 0.426042 -0.756054 0.496861 0 0 0
0.492710 0.129739 0.732075 0.426042 -0.756054 0.496861 0 0 0
-0.941859 0.336463 0.580057 -0.164717 -0.532545 0.830219 0 0 0
-0.303486 -0.825350 -0.038535 -0.164717 -0.532545 0.830219 0 0 0
0.492710 0.129739 0.732075 -0.164717 -0.532545 0.830219 0 0 0
-0.708407 1.036883 -1.814964 -0.187597 0.969805 0.155837 0 0 0
-1.202347 0.862491 -1.324295 -0.187597 0.969805 0.155837 0 0 0
-0.519743 0.962741 -1.126449 -0.187597 0.969805 0.155837 0 0 0
-1.202347 0.862491 -1.324295 -0.607065 0.708848 -0.359176 0 0 0
-0.708407 1.036883 -1.814964 -0.607065 0.708848 -0.359176 0 0 0
-1.202347 0.538085 -1.964524 -0.607065 0.708848 -0.359176 0 0 0
-0.708407 1.036883 -1.814964 0.491122 0.870131 -0.040876 0 0 0
-0.519743 0.962741 -1.126449 0.491122 0.870131 -0.040876 0 0 0
-0.097860 0.700288 -1.644410 0.491122 0.870131 -0.040876 0 0 0
-0.708407 1.036883 -1.814964 0.491122 0.547564 -0.677475 0 0 0
-0.097860 0.700288 -1.644410 0.491122 0.547564 -0.677475 0 0 0
-0.519743 0.437836 -2.162370 0.491122 0.547564 -0.677475 0 0 0
-0.708407 1.036883 -1.814964 -0.187596 0.447888 -0.874188 0 0 0
-0.519743 0.437836 -2.162370 -0.187596 0.447888 -0.874188 0 0 0
-1.202347 0.538085 -1.964524 -0.187596 0.447888 -0.874188 0 0 0
-1.202347 0.862491 -1.324295 -0.982246 0.167340 -0.084792 0 0 0
-1.202347 0.538085 -1.964524 -0.982246 0.167340 -0.084792 0 0 0
-1.318954 0.155664 -1.368447 -0.982246 0.167340 -0.084792 0 0 0
-0.519743 0.962741 -1.126449 -0.303536 0.589571 0.748513 0 0 0
-1.202347 0.862491 -1.324295 -0.303536 0.589571 0.748513 0 0 0
-0.897072 0.418116 -0.850486 -0.303536 0.589571 0.748513 0 0 0
-0.097860 0.700288 -1.644410 0.794649 0.428293 0.430230 0 0 0
-0.519743 0.962741 -1.126449 0.794649 0.428293 0.430230 0 0 0
-0.214468 0.317867 -1.048332 0.794649 0.428293 0.430230 0 0 0
-0.519743 0.437836 -2.162370 0.794649 -0.093629 -0.599805 0 0 0
-0.097860 0.700288 -1.644410 0.794649 -0.093629 -0.599805 0 0 0
-0.214468 -0.006539 -1.688561 0.794649 -0.093629 -0.599805 0 0 0
-1.202347 0.538085 -1.964524 -0.303535 -0.254903 -0.918091 0 0 0
-0.519743 0.437836 -2.162370 -0.303535 -0.254903 -0.918091 0 0 0
-0.897071 -0.106789 -1.886407 -0.303535 -0.254903 -0.918091 0 0 0
-1.202347 0.862491 -1.324295 -0.794649 0.093629 0.599805 0 0 0
-1.318954 0.155664 -1.368447 -0.794649 0.093629 0.599805 0 0 0
-0.897072 0.418116 -0.850486 -0.794649 0.093629 0.599805 0 0 0
-0.519743 0.962741 -1.126449 0.303536 0.254903 0.918091 0 0 0
-0.897072 0.418116 -0.850486 0.303536 0.254903 0.918091 0 0 0
-0.214468 0.317867 -1.048332 0.303536 0.254903 0.918091 0 0 0
-0.097860 0.700288 -1.644410 0.982246 -0.167341 0.084792 0 0 0
-0.214468 0.317867 -1.048332 0.982246 -0.167341 0.084792 0 0 0
-0.214468 -0.006539 -1.688561 0.982246 -0.167341 0.084792 0 0 0
-0.519743 0.437836 -2.162370 0.303536 -0.589571 -0.748513 0 0 0
-0.214468 -0.006539 -1.688561 0.303536 -0.589571 -0.748513 0 0 0
-0.897071 -0.106789 -1.886407 0.303536 -0.589571 -0.748513 0 0 0
-1.202347 0.538085 -1.964524 -0.794649 -0.428293 -0.430230 0 0 0
-0.897071 -0.106789 -1.886407 -0.794649 -0.428293 -0.430230 0 0 0
-1.318954 0.155664 -1.368447 -0.794649 -0.428293 -0.430230 0 0 0
-0.897072 0.418116 -0.850486 -0.491122 -0.547564 0.677475 0 0 0
-1.318954 0.155664 -1.368447 -0.491122 -0.547564 0.677475 0 0 0
-0.708407 -0.180931 -1.197893 -0.491122 -0.547564 0.677475 0 0 0
-0.214468 0.317867 -1.048332 0.187597 -0.447888 0.874188 0 0 0
-0.897072 0.418116 -0.850486 0.187597 -0.447888 0.874188 0 0 0
-0.708407 -0.180931 -1.197893 0.187597 -0.447888 0.874188 0 0 0
-0.214468 -0.006539 -1.688561 0.607065 -0.708848 0.359176 0 0 0
-0.214468 0.317867 -1.048332 0.607065 -0.708848 0.359176 0 0 0
-0.708407 -0.180931 -1.197893 0.607065 -0.708848 0.359176 0 0 0
-0.897071 -0.106789 -1.886407 0.187597 -0.969805 -0.155837 0 0 0
-0.214468 -0.006539 -1.688561 0.187597 -0.969805 -0.155837 0 0 0
-0.708407 -0.180931 -1.197893 0.187597 -0.969805 -0.155837 0 0 0
-1.318954 0.155664 -1.368447 -0.491122 -0.870131 0.040876 0 0 0
-0.897071 -0.106789 -1.886407 -0.491122 -0.870131 0.040876 0 0 0
-0.708407 -0.180931 -1.197893 -0.491122 -0.870131 0.040876 0 0 0
3 0 1 2
3 3 4 5
3 6 7 8
3 9 10 11
3 12 13 14
3 15 16 17
3 18 19 20
3 21 22 23
3 24 25 26
3 27 28 29
3 30 31 32
3 33 34 35
3 36 37 38
3 39 40 41
3 42 43 44
3 45 46 47
3 48 49 50
3 51 52 53
3 54 55 56
3 57 58 59
3 60 61 62
3 63 64 65
3 66 67 68
3 69 70 71
3 72 73 74
3 75 76 77
3 78 79 80
3 81 82 83
3 84 85 86
3 87 88 89
3 90 91 92
3 93 94 95
3 96 97 98
3 99 100 101
3 102 103 104
3 105 106 107
3 108 109 110
3 111 112 113
3 114 115 116
3 117 118 119
3 120 121 122
3 123 124 125
3 126 127 128
3 129 130 131
3 132 133 134
3 135 136 137
3 138 139 140
3 141 142 143
3 144 145 146
3 147 148 149
3 150 151 152
3 153 154 155
3 156 157 158
3 159 160 161
3 162 163 164
3 165 166 167
3 168 169 170
3 171 172 173
3 174 175 176
3 177 178 179
3 180 181 182
3 183 184 185
3 186 187 188
3 189 190 191
3 192 193 194
3 195 196 197
3 198 199 200
3 201 202 203
3 204 205 206
3 207 208 209
3 210 211 212
3 213 214 215
3 216 217 218
3 219 220 221
3 222 223 224
3 225 226 227
3 228 229 230
3 231 232 233
3 234 235 236
3 237 238 239
3 240 241 242
3 243 244 245
3 246 247 248
3 249 250 251
3 252 253 254
3 255 256 257
3 258 259 260
3 261 262 263
3 264 265 266
3 267 268 269
3 270 271 272
3 273 274 275
3 276 277 278
3 279 280 281
3 282 283 284
3 285 286 287
3 288 289 290
3 291 292 293
3 294 295 296
3 297 298 299
3 300 301 302
3 303 304 305
3 306 307 308
3 309 310 311
3 312 313 314
3 315 316 317
3 318 319 320
3 321 322 323
3 324 325 326
3 327 328 329
3 330 331 332
3 333 334 335
3 336 337 338
3 339 340 341
3 342 343 344
3 345 346 347
3 348 349 350
3 351 352 353
3 354 355 356
3 357 358 359
