ply
format ascii 1.0
comment Created by Blender 2.77 (sub 0) - www.blender.org, source file: 'Sword.blend'
element vertex 446
property float x
property float y
property float z
property float nx
property float ny
property float nz
property uchar red
property uchar green
property uchar blue
element face 208
property list uchar uint vertex_indices
end_header
0.052527 0.205890 -0.242159 0.000000 0.384370 -0.923179 207 101 105
-0.085459 0.131009 -0.273335 0.000000 0.384370 -0.923179 207 101 105
-0.054286 0.205890 -0.242159 0.000000 0.384370 -0.923179 207 101 105
0.052527 0.206478 -0.133485 0.922886 0.385067 -0.002085 207 101 105
0.083700 0.131009 -0.273335 0.922886 0.385067 -0.002085 207 101 105
0.052527 0.205890 -0.242159 0.922886 0.385067 -0.002085 207 101 105
-0.054286 0.206478 -0.133485 0.000000 0.395521 0.918457 207 101 105
0.083700 0.131577 -0.101229 0.000000 0.395521 0.918457 207 101 105
0.052527 0.206478 -0.133485 0.000000 0.395521 0.918457 207 101 105
-0.054286 0.206478 -0.133485 -0.923427 0.383771 -0.001265 207 101 105
-0.085459 0.131009 -0.273335 -0.923427 0.383771 -0.001265 207 101 105
-0.085459 0.131577 -0.101229 -0.923427 0.383771 -0.001265 207 101 105
-0.085459 0.131577 -0.101229 0.000000 -0.973517 0.228614 207 101 105
0.067742 0.127822 -0.117216 0.000000 -0.973517 0.228614 207 101 105
0.083700 0.131577 -0.101229 0.000000 -0.973517 0.228614 207 101 105
-0.085459 0.131577 -0.101229 -0.225966 -0.974130 0.003212 207 101 105
-0.069501 0.127362 -0.256852 -0.225966 -0.974130 0.003212 207 101 105
-0.069501 0.127822 -0.117216 -0.225966 -0.974130 0.003212 207 101 105
0.083700 0.430097 -0.102777 0.000000 0.975065 0.221918 207 101 105
-0.069501 0.433744 -0.118803 0.000000 0.975065 0.221918 207 101 105
-0.085459 0.430097 -0.102777 0.000000 0.975065 0.221918 207 101 105
0.083700 0.131009 -0.273335 0.000000 -0.976385 -0.216036 207 101 105
-0.069501 0.127362 -0.256852 0.000000 -0.976385 -0.216036 207 101 105
-0.085459 0.131009 -0.273335 0.000000 -0.976385 -0.216036 207 101 105
0.083700 0.429529 -0.274884 0.000366 0.975653 -0.219319 207 101 105
-0.069501 0.433284 -0.258438 0.000366 0.975653 -0.219319 207 101 105
0.067742 0.433284 -0.258209 0.000366 0.975653 -0.219319 207 101 105
-0.085459 0.430097 -0.102777 -0.225880 0.974150 -0.003212 207 101 105
-0.069501 0.433284 -0.258438 -0.225880 0.974150 -0.003212 207 101 105
-0.085459 0.429529 -0.274884 -0.225880 0.974150 -0.003212 207 101 105
0.083700 0.131577 -0.101229 0.225967 -0.974130 0.003212 207 101 105
0.067742 0.127362 -0.256852 0.225967 -0.974130 0.003212 207 101 105
0.083700 0.131009 -0.273335 0.225967 -0.974130 0.003212 207 101 105
0.083700 0.430097 -0.102777 0.225887 0.974148 -0.003218 207 101 105
0.067742 0.433284 -0.258209 0.225887 0.974148 -0.003218 207 101 105
0.067742 0.433744 -0.118803 0.225887 0.974148 -0.003218 207 101 105
-0.054286 0.355216 -0.133954 -0.930457 0.366399 -0.001208 207 101 105
-0.083617 0.280275 -0.272236 -0.930457 0.366399 -0.001208 207 101 105
-0.083617 0.280831 -0.103877 -0.930457 0.366399 -0.001208 207 101 105
-0.054286 0.355216 -0.133954 0.000000 0.374855 0.927083 207 101 105
0.081858 0.280831 -0.103877 0.000000 0.374855 0.927083 207 101 105
0.052527 0.355216 -0.133954 0.000000 0.374855 0.927083 207 101 105
0.052527 0.355216 -0.133954 0.929962 0.367650 -0.001991 207 101 105
0.081858 0.280275 -0.272236 0.929962 0.367650 -0.001991 207 101 105
0.052527 0.354628 -0.242628 0.929962 0.367650 -0.001991 207 101 105
-0.054286 0.354628 -0.242628 0.000000 0.369951 -0.929051 207 101 105
0.081858 0.280275 -0.272236 0.000000 0.369951 -0.929051 207 101 105
-0.083617 0.280275 -0.272236 0.000000 0.369951 -0.929051 207 101 105
-0.083617 0.280831 -0.103877 -0.929962 -0.367650 0.001991 207 101 105
-0.054286 0.205890 -0.242159 -0.929962 -0.367650 0.001991 207 101 105
-0.054286 0.206478 -0.133485 -0.929962 -0.367650 0.001991 207 101 105
-0.083617 0.280831 -0.103877 0.000000 -0.369950 0.929052 207 101 105
0.052527 0.206478 -0.133485 0.000000 -0.369950 0.929052 207 101 105
0.081858 0.280831 -0.103877 0.000000 -0.369950 0.929052 207 101 105
0.081858 0.280831 -0.103877 0.930457 -0.366399 0.001208 207 101 105
0.052527 0.205890 -0.242159 0.930457 -0.366399 0.001208 207 101 105
0.081858 0.280275 -0.272236 0.930457 -0.366399 0.001208 207 101 105
0.081858 0.280275 -0.272236 0.000000 -0.374856 -0.927083 207 101 105
-0.054286 0.205890 -0.242159 0.000000 -0.374856 -0.927083 207 101 105
-0.083617 0.280275 -0.272236 0.000000 -0.374856 -0.927083 207 101 105
0.083700 0.429529 -0.274884 0.000000 -0.395521 -0.918457 207 101 105
-0.054286 0.354628 -0.242628 0.000000 -0.395521 -0.918457 207 101 105
-0.085459 0.429529 -0.274884 0.000000 -0.395521 -0.918457 207 101 105
0.083700 0.430097 -0.102777 0.923427 -0.383771 0.001265 207 101 105
0.052527 0.354628 -0.242628 0.923427 -0.383771 0.001265 207 101 105
0.083700 0.429529 -0.274884 0.923427 -0.383771 0.001265 207 101 105
-0.085459 0.430097 -0.102777 0.000000 -0.384370 0.923179 207 101 105
0.052527 0.355216 -0.133954 0.000000 -0.384370 0.923179 207 101 105
0.083700 0.430097 -0.102777 0.000000 -0.384370 0.923179 207 101 105
-0.085459 0.430097 -0.102777 -0.922886 -0.385067 0.002085 207 101 105
-0.054286 0.354628 -0.242628 -0.922886 -0.385067 0.002085 207 101 105
-0.054286 0.355216 -0.133954 -0.922886 -0.385067 0.002085 207 101 105
0.014017 0.995850 0.029962 0.000000 -0.000000 -1.000000 255 255 255
-0.003465 -0.417965 0.029962 0.000000 -0.000000 -1.000000 255 255 255
-0.003465 0.995850 0.029962 0.000000 -0.000000 -1.000000 255 255 255
0.014017 0.995850 0.059077 1.000000 -0.000000 -0.000000 255 255 255
0.014017 -0.417965 0.029962 1.000000 -0.000000 -0.000000 255 255 255
0.014017 0.995850 0.029962 1.000000 -0.000000 -0.000000 255 255 255
-0.003465 0.995850 0.059077 0.000000 0.000000 1.000000 255 255 255
0.014017 -0.417965 0.059078 0.000000 0.000000 1.000000 255 255 255
0.014017 0.995850 0.059077 0.000000 0.000000 1.000000 255 255 255
-0.003465 0.995850 0.059077 -1.000000 0.000000 0.000000 255 255 255
-0.003465 -0.417965 0.029962 -1.000000 0.000000 0.000000 255 255 255
-0.003465 -0.417965 0.059078 -1.000000 0.000000 0.000000 255 255 255
-0.003465 -0.417965 0.029962 0.000000 -1.000000 -0.000000 255 255 255
0.014017 -0.417965 0.059078 0.000000 -1.000000 -0.000000 255 255 255
-0.003465 -0.417965 0.059078 0.000000 -1.000000 -0.000000 255 255 255
0.014017 0.995850 0.059077 -0.000000 1.000000 0.000000 255 255 255
-0.003465 0.995850 0.029962 -0.000000 1.000000 0.000000 255 255 255
-0.003465 0.995850 0.059077 -0.000000 1.000000 0.000000 255 255 255
0.067742 0.127822 -0.117216 0.000000 0.002744 0.999996 105 73 48
-0.069501 -0.013488 -0.116828 0.000000 0.002744 0.999996 105 73 48
0.067742 -0.013488 -0.116828 0.000000 0.002744 0.999996 105 73 48
-0.069501 0.127822 -0.117216 -1.000000 0.000000 0.000000 105 73 48
-0.069501 -0.013948 -0.256464 -1.000000 0.000000 0.000000 105 73 48
-0.069501 -0.013488 -0.116828 -1.000000 0.000000 0.000000 105 73 48
0.067742 0.574594 -0.258368 -0.000000 -0.568484 -0.822694 105 73 48
-0.069501 0.670979 -0.324970 -0.000000 -0.568484 -0.822694 105 73 48
0.067742 0.670979 -0.324970 -0.000000 -0.568484 -0.822694 105 73 48
0.067742 0.574594 -0.258368 1.000000 -0.000000 -0.000000 105 73 48
0.067742 0.644101 -0.139067 1.000000 -0.000000 -0.000000 105 73 48
0.067742 0.575054 -0.118732 1.000000 -0.000000 -0.000000 105 73 48
0.067742 0.127822 -0.117216 1.000000 -0.000000 -0.000000 105 73 48
0.067742 -0.013948 -0.256464 1.000000 -0.000000 -0.000000 105 73 48
0.067742 0.127362 -0.256852 1.000000 -0.000000 -0.000000 105 73 48
0.067742 0.127362 -0.256852 0.000000 -0.002744 -0.999996 105 73 48
-0.069501 -0.013948 -0.256464 0.000000 -0.002744 -0.999996 105 73 48
-0.069501 0.127362 -0.256852 0.000000 -0.002744 -0.999996 105 73 48
-0.069501 0.433744 -0.118803 -1.000000 -0.000000 0.000000 105 73 48
-0.069501 0.574594 -0.258368 -1.000000 -0.000000 0.000000 105 73 48
-0.069501 0.433284 -0.258438 -1.000000 -0.000000 0.000000 105 73 48
0.067742 0.433744 -0.118803 0.000000 -0.000499 1.000000 105 73 48
-0.069501 0.575054 -0.118732 0.000000 -0.000499 1.000000 105 73 48
-0.069501 0.433744 -0.118803 0.000000 -0.000499 1.000000 105 73 48
0.067742 0.433744 -0.118803 1.000000 0.000000 -0.000000 105 73 48
-0.069501 0.433284 -0.258438 0.001670 -0.001122 -0.999998 105 73 48
0.067742 0.574594 -0.258368 0.001670 -0.001122 -0.999998 105 73 48
0.067742 0.433284 -0.258209 0.001670 -0.001122 -0.999998 105 73 48
-0.069501 0.644101 -0.139067 0.000000 -0.661454 0.749986 105 73 48
0.067742 0.747667 -0.047727 0.000000 -0.661454 0.749986 105 73 48
-0.069501 0.747667 -0.047727 0.000000 -0.661454 0.749986 105 73 48
-0.069501 0.644101 -0.139067 -1.000000 -0.000000 0.000000 105 73 48
-0.069501 0.747206 -0.187363 -1.000000 -0.000000 0.000000 105 73 48
-0.069501 0.670979 -0.324970 -1.000000 -0.000000 0.000000 105 73 48
-0.069501 -0.082535 -0.136947 -1.000000 -0.000000 0.000000 105 73 48
0.067742 -0.013488 -0.116828 0.000000 -0.279744 0.960074 105 73 48
-0.069501 -0.082535 -0.136947 0.000000 -0.279744 0.960074 105 73 48
0.067742 -0.082535 -0.136947 0.000000 -0.279744 0.960074 105 73 48
0.067742 -0.082535 -0.136947 1.000000 0.000000 -0.000000 105 73 48
0.067742 -0.110333 -0.322850 1.000000 0.000000 -0.000000 105 73 48
0.067742 -0.013948 -0.256464 0.000000 0.567232 -0.823558 105 73 48
-0.069501 -0.110333 -0.322850 0.000000 0.567232 -0.823558 105 73 48
-0.069501 -0.013948 -0.256464 0.000000 0.567232 -0.823558 105 73 48
0.067742 0.575054 -0.118732 0.000000 0.282514 0.959263 105 73 48
-0.069501 0.644101 -0.139067 0.000000 0.282514 0.959263 105 73 48
-0.069501 0.575054 -0.118732 0.000000 0.282514 0.959263 105 73 48
-0.069501 -0.353703 0.040341 0.000000 0.000000 0.000000 105 73 48
-0.069501 -0.354164 -0.099295 0.000000 0.000000 0.000000 105 73 48
-0.069501 -0.354164 -0.099295 0.000000 0.000000 0.000000 105 73 48
0.067742 -0.186100 -0.045436 0.000000 0.000000 0.000000 105 73 48
0.067742 -0.186561 -0.185071 0.000000 0.000000 0.000000 105 73 48
0.067742 -0.186561 -0.185071 0.000000 0.000000 0.000000 105 73 48
0.067742 0.747206 -0.187363 1.000000 0.000000 -0.000000 105 73 48
0.067742 0.747667 -0.047727 1.000000 0.000000 -0.000000 105 73 48
-0.069501 0.670979 -0.324970 0.000000 0.874752 -0.484570 105 73 48
0.067742 0.747206 -0.187363 0.000000 0.874752 -0.484570 105 73 48
0.067742 0.670979 -0.324970 0.000000 0.874752 -0.484570 105 73 48
-0.069501 -0.186561 -0.185071 -1.000000 0.000000 0.000000 105 73 48
-0.069501 -0.186100 -0.045436 -1.000000 0.000000 0.000000 105 73 48
-0.069501 -0.082535 -0.136947 0.000000 0.662150 0.749371 105 73 48
0.067742 -0.186100 -0.045436 0.000000 0.662150 0.749371 105 73 48
0.067742 -0.082535 -0.136947 0.000000 0.662150 0.749371 105 73 48
0.067742 -0.186561 -0.185071 1.000000 -0.000000 -0.000000 105 73 48
-0.069501 -0.110333 -0.322850 0.000000 -0.875008 -0.484109 105 73 48
0.067742 -0.186561 -0.185071 0.000000 -0.875008 -0.484109 105 73 48
-0.069501 -0.186561 -0.185071 0.000000 -0.875008 -0.484109 105 73 48
-0.069501 -0.353703 0.040341 0.000000 0.209108 0.977893 105 73 48
0.067742 -0.513787 0.074573 0.000000 0.209108 0.977893 105 73 48
0.067742 -0.353703 0.040341 0.000000 0.209108 0.977893 105 73 48
-0.069501 -0.353703 0.040341 -1.000000 0.000000 -0.000000 105 73 48
-0.069501 -0.514248 -0.065063 -1.000000 0.000000 -0.000000 105 73 48
-0.069501 -0.513787 0.074573 -1.000000 0.000000 -0.000000 105 73 48
-0.069501 -0.186100 -0.045436 -0.650911 -0.759149 0.002828 61 43 28
-0.048736 -0.204298 -0.150966 -0.650911 -0.759149 0.002828 61 43 28
-0.048736 -0.203935 -0.053585 -0.650911 -0.759149 0.002828 61 43 28
0.067742 0.747667 -0.047727 0.650133 0.759815 -0.002830 61 43 28
0.046977 0.765042 -0.153314 0.650133 0.759815 -0.002830 61 43 28
0.046977 0.765404 -0.055933 0.650133 0.759815 -0.002830 61 43 28
-0.069501 -0.186100 -0.045436 0.000000 -0.415585 0.909554 61 43 28
0.046977 -0.203935 -0.053585 0.000000 -0.415585 0.909554 61 43 28
0.067742 -0.186100 -0.045436 0.000000 -0.415585 0.909554 61 43 28
0.067742 0.914809 -0.101962 0.000000 -0.419881 -0.907579 105 73 48
-0.048736 0.897072 -0.093756 0.000000 -0.419881 -0.907579 105 73 48
-0.069501 0.914809 -0.101962 0.000000 -0.419881 -0.907579 105 73 48
-0.069501 -0.186100 -0.045436 0.000000 0.000000 0.000000 105 73 48
0.067742 -0.186100 -0.045436 0.000000 0.000000 0.000000 105 73 48
-0.069501 -0.186561 -0.185071 0.000000 0.000000 0.000000 105 73 48
-0.069501 -0.186100 -0.045436 0.000000 0.000000 0.000000 105 73 48
0.067742 1.074893 -0.068090 0.790754 0.612130 -0.002019 105 73 48
0.058386 1.087408 0.061862 0.790754 0.612130 -0.002019 105 73 48
0.067742 1.075354 0.071545 0.790754 0.612130 -0.002019 105 73 48
0.067742 1.075354 0.071545 0.000000 0.626273 0.779604 105 73 48
-0.060145 1.087408 0.061862 0.000000 0.626273 0.779604 105 73 48
-0.069501 1.075354 0.071545 0.000000 0.626273 0.779604 105 73 48
0.067742 -0.353703 0.040341 1.000000 0.000000 -0.000000 105 73 48
0.067742 -0.514248 -0.065063 1.000000 0.000000 -0.000000 105 73 48
0.067742 -0.354164 -0.099295 1.000000 0.000000 -0.000000 105 73 48
0.067742 -0.354164 -0.099295 0.000000 -0.209108 -0.977893 105 73 48
-0.069501 -0.514248 -0.065063 0.000000 -0.209108 -0.977893 105 73 48
-0.069501 -0.354164 -0.099295 0.000000 -0.209108 -0.977893 105 73 48
-0.069501 0.915270 0.037673 -1.000000 0.000000 0.000000 105 73 48
-0.069501 1.074893 -0.068090 -1.000000 0.000000 0.000000 105 73 48
-0.069501 0.914809 -0.101962 -1.000000 0.000000 0.000000 105 73 48
0.067742 0.915270 0.037673 0.000000 -0.207007 0.978339 105 73 48
-0.069501 1.075354 0.071545 0.000000 -0.207007 0.978339 105 73 48
-0.069501 0.915270 0.037673 0.000000 -0.207007 0.978339 105 73 48
0.067742 0.915270 0.037673 1.000000 0.000000 0.000000 105 73 48
0.067742 1.074893 -0.068090 1.000000 0.000000 0.000000 105 73 48
0.067742 1.075354 0.071545 1.000000 0.000000 0.000000 105 73 48
-0.069501 0.914809 -0.101962 0.000000 0.207007 -0.978339 105 73 48
0.067742 1.074893 -0.068090 0.000000 0.207007 -0.978339 105 73 48
0.067742 0.914809 -0.101962 0.000000 0.207007 -0.978339 105 73 48
-0.060145 1.087408 0.061862 -0.000000 0.999996 -0.002827 105 73 48
0.058386 1.087067 -0.058735 -0.000000 0.999996 -0.002827 105 73 48
-0.060145 1.087067 -0.058735 -0.000000 0.999996 -0.002827 105 73 48
0.058386 -0.525961 0.065218 0.000000 -0.999996 0.002828 105 73 48
-0.060145 -0.526302 -0.055379 0.000000 -0.999996 0.002828 105 73 48
0.058386 -0.526302 -0.055380 0.000000 -0.999996 0.002828 105 73 48
0.067742 1.074893 -0.068090 -0.000000 0.609312 -0.792930 105 73 48
-0.060145 1.087067 -0.058735 -0.000000 0.609312 -0.792930 105 73 48
0.058386 1.087067 -0.058735 -0.000000 0.609312 -0.792930 105 73 48
-0.069501 -0.513787 0.074573 -0.792246 -0.610200 0.001725 105 73 48
-0.060145 -0.526302 -0.055379 -0.792246 -0.610200 0.001725 105 73 48
-0.060145 -0.525961 0.065218 -0.792246 -0.610200 0.001725 105 73 48
0.067742 -0.513787 0.074573 0.000000 -0.609314 0.792929 105 73 48
-0.060145 -0.525961 0.065218 0.000000 -0.609314 0.792929 105 73 48
0.058386 -0.525961 0.065218 0.000000 -0.609314 0.792929 105 73 48
0.067742 -0.513787 0.074573 0.790754 -0.612131 0.002019 105 73 48
0.058386 -0.526302 -0.055380 0.790754 -0.612131 0.002019 105 73 48
0.067742 -0.514248 -0.065063 0.790754 -0.612131 0.002019 105 73 48
0.067742 -0.514248 -0.065063 0.000000 -0.626274 -0.779603 105 73 48
-0.060145 -0.526302 -0.055379 0.000000 -0.626274 -0.779603 105 73 48
-0.069501 -0.514248 -0.065063 0.000000 -0.626274 -0.779603 105 73 48
-0.069501 1.074893 -0.068090 -0.792247 0.610198 -0.001725 105 73 48
-0.060145 1.087408 0.061862 -0.792247 0.610198 -0.001725 105 73 48
-0.060145 1.087067 -0.058735 -0.792247 0.610198 -0.001725 105 73 48
0.067742 -0.186100 -0.045436 0.651860 -0.758335 0.002501 61 43 28
0.046977 -0.204298 -0.150966 0.651860 -0.758335 0.002501 61 43 28
0.067742 -0.186561 -0.185071 0.651860 -0.758335 0.002501 61 43 28
-0.069501 0.747206 -0.187363 0.000000 0.885831 -0.464008 61 43 28
0.046977 0.765042 -0.153314 0.000000 0.885831 -0.464008 61 43 28
0.067742 0.747206 -0.187363 0.000000 0.885831 -0.464008 61 43 28
-0.069501 0.914809 -0.101962 -0.649179 -0.760631 0.002509 105 73 48
-0.048736 0.897435 0.003625 -0.649179 -0.760631 0.002509 105 73 48
-0.069501 0.915270 0.037673 -0.649179 -0.760631 0.002509 105 73 48
-0.069501 -0.186561 -0.185071 0.000000 -0.887191 -0.461403 61 43 28
0.046977 -0.204298 -0.150966 0.000000 -0.887191 -0.461403 61 43 28
-0.048736 -0.204298 -0.150966 0.000000 -0.887191 -0.461403 61 43 28
-0.069501 -0.186561 -0.185071 0.000000 0.000000 0.000000 105 73 48
0.067742 -0.353703 0.040341 0.000000 0.000000 0.000000 105 73 48
-0.069501 -0.353703 0.040341 0.000000 0.000000 0.000000 105 73 48
0.067742 -0.354164 -0.099295 0.000000 0.000000 0.000000 105 73 48
0.067742 -0.353703 0.040341 0.000000 0.000000 0.000000 105 73 48
0.067742 -0.354164 -0.099295 0.000000 0.000000 0.000000 105 73 48
-0.048736 0.765404 -0.055933 -1.000000 0.000000 0.000000 61 43 28
-0.048736 0.897072 -0.093756 -1.000000 0.000000 0.000000 61 43 28
-0.048736 0.765042 -0.153314 -1.000000 0.000000 0.000000 61 43 28
0.046977 0.765404 -0.055933 0.000000 -0.411191 0.911549 61 43 28
-0.048736 0.897435 0.003625 0.000000 -0.411191 0.911549 61 43 28
-0.048736 0.765404 -0.055933 0.000000 -0.411191 0.911549 61 43 28
0.046977 0.765404 -0.055933 1.000000 -0.000000 -0.000000 61 43 28
0.046977 0.897072 -0.093756 1.000000 -0.000000 -0.000000 61 43 28
0.046977 0.897435 0.003625 1.000000 -0.000000 -0.000000 61 43 28
-0.048736 0.765042 -0.153314 0.000000 0.411191 -0.911549 61 43 28
0.046977 0.897072 -0.093756 0.000000 0.411191 -0.911549 61 43 28
0.046977 0.765042 -0.153314 0.000000 0.411191 -0.911549 61 43 28
0.046977 -0.204298 -0.150966 0.000000 -0.412695 -0.910870 61 43 28
-0.048736 -0.336329 -0.091146 0.000000 -0.412695 -0.910870 61 43 28
-0.048736 -0.204298 -0.150966 0.000000 -0.412695 -0.910870 61 43 28
0.046977 -0.203935 -0.053585 1.000000 0.000000 -0.000000 61 43 28
0.046977 -0.336329 -0.091146 1.000000 0.000000 -0.000000 61 43 28
0.046977 -0.204298 -0.150966 1.000000 0.000000 -0.000000 61 43 28
-0.048736 -0.203935 -0.053585 -1.000000 -0.000000 0.000000 61 43 28
-0.048736 -0.336329 -0.091146 -1.000000 -0.000000 0.000000 61 43 28
-0.048736 -0.335966 0.006235 -1.000000 -0.000000 0.000000 61 43 28
-0.048736 -0.203935 -0.053585 0.000000 0.412694 0.910870 61 43 28
0.046977 -0.335966 0.006235 0.000000 0.412694 0.910870 61 43 28
0.046977 -0.203935 -0.053585 0.000000 0.412694 0.910870 61 43 28
0.067742 0.914809 -0.101962 0.650134 -0.759814 0.002831 105 73 48
0.046977 0.897435 0.003625 0.650134 -0.759814 0.002831 105 73 48
0.046977 0.897072 -0.093756 0.650134 -0.759814 0.002831 105 73 48
0.067742 -0.354164 -0.099295 0.000000 0.415585 -0.909554 61 43 28
-0.048736 -0.336329 -0.091146 0.000000 0.415585 -0.909554 61 43 28
0.046977 -0.336329 -0.091146 0.000000 0.415585 -0.909554 61 43 28
-0.069501 0.747667 -0.047727 0.000000 0.419881 0.907579 61 43 28
0.046977 0.765404 -0.055933 0.000000 0.419881 0.907579 61 43 28
-0.048736 0.765404 -0.055933 0.000000 0.419881 0.907579 61 43 28
0.067742 -0.354164 -0.099295 0.651859 0.758336 -0.002500 61 43 28
0.046977 -0.335966 0.006235 0.651859 0.758336 -0.002500 61 43 28
0.067742 -0.353703 0.040341 0.651859 0.758336 -0.002500 61 43 28
0.067742 0.915270 0.037673 0.000000 -0.885831 0.464008 105 73 48
-0.048736 0.897435 0.003625 0.000000 -0.885831 0.464008 105 73 48
0.046977 0.897435 0.003625 0.000000 -0.885831 0.464008 105 73 48
0.067742 -0.353703 0.040341 0.000000 0.887191 0.461402 61 43 28
-0.048736 -0.335966 0.006235 0.000000 0.887191 0.461402 61 43 28
-0.069501 -0.353703 0.040341 0.000000 0.887191 0.461402 61 43 28
-0.069501 0.747667 -0.047727 -0.649180 0.760631 -0.002508 61 43 28
-0.048736 0.765042 -0.153314 -0.649180 0.760631 -0.002508 61 43 28
-0.069501 0.747206 -0.187363 -0.649180 0.760631 -0.002508 61 43 28
-0.069501 -0.354164 -0.099295 -0.650911 0.759149 -0.002827 61 43 28
-0.048736 -0.335966 0.006235 -0.650911 0.759149 -0.002827 61 43 28
-0.048736 -0.336329 -0.091146 -0.650911 0.759149 -0.002827 61 43 28
0.083700 0.131009 -0.273335 0.000000 0.384370 -0.923179 207 101 105
0.052527 0.206478 -0.133485 0.923427 0.383771 -0.001266 207 101 105
0.083700 0.131577 -0.101229 0.923427 0.383771 -0.001266 207 101 105
0.083700 0.131009 -0.273335 0.923427 0.383771 -0.001266 207 101 105
-0.085459 0.131577 -0.101229 0.000000 0.395521 0.918457 207 101 105
-0.054286 0.206478 -0.133485 -0.922886 0.385067 -0.002085 207 101 105
-0.054286 0.205890 -0.242159 -0.922886 0.385067 -0.002085 207 101 105
-0.085459 0.131009 -0.273335 -0.922886 0.385067 -0.002085 207 101 105
-0.069501 0.127822 -0.117216 0.000000 -0.973517 0.228614 207 101 105
-0.085459 0.131009 -0.273335 -0.225966 -0.974130 0.003212 207 101 105
0.067742 0.433744 -0.118803 -0.000000 0.975065 0.221918 207 101 105
0.067742 0.127362 -0.256852 0.000000 -0.976385 -0.216036 207 101 105
0.083700 0.429529 -0.274884 0.000000 0.974918 -0.222564 207 101 105
-0.085459 0.429529 -0.274884 0.000000 0.974918 -0.222564 207 101 105
-0.069501 0.433284 -0.258438 0.000000 0.974918 -0.222564 207 101 105
-0.085459 0.430097 -0.102777 -0.225881 0.974149 -0.003212 207 101 105
-0.069501 0.433744 -0.118803 -0.225881 0.974149 -0.003212 207 101 105
-0.069501 0.433284 -0.258438 -0.225881 0.974149 -0.003212 207 101 105
0.083700 0.131577 -0.101229 0.225966 -0.974130 0.003212 207 101 105
0.067742 0.127822 -0.117216 0.225966 -0.974130 0.003212 207 101 105
0.067742 0.127362 -0.256852 0.225966 -0.974130 0.003212 207 101 105
0.083700 0.430097 -0.102777 0.225837 0.974160 -0.003212 207 101 105
0.083700 0.429529 -0.274884 0.225837 0.974160 -0.003212 207 101 105
0.067742 0.433284 -0.258209 0.225837 0.974160 -0.003212 207 101 105
-0.054286 0.355216 -0.133954 -0.929962 0.367650 -0.001991 207 101 105
-0.054286 0.354628 -0.242628 -0.929962 0.367650 -0.001991 207 101 105
-0.083617 0.280275 -0.272236 -0.929962 0.367650 -0.001991 207 101 105
-0.083617 0.280831 -0.103877 0.000000 0.374855 0.927083 207 101 105
0.052527 0.355216 -0.133954 0.930457 0.366399 -0.001208 207 101 105
0.081858 0.280831 -0.103877 0.930457 0.366399 -0.001208 207 101 105
0.081858 0.280275 -0.272236 0.930457 0.366399 -0.001208 207 101 105
0.052527 0.354628 -0.242628 0.000000 0.369951 -0.929051 207 101 105
-0.083617 0.280831 -0.103877 -0.930457 -0.366399 0.001208 207 101 105
-0.083617 0.280275 -0.272236 -0.930457 -0.366399 0.001208 207 101 105
-0.054286 0.205890 -0.242159 -0.930457 -0.366399 0.001208 207 101 105
-0.054286 0.206478 -0.133485 0.000000 -0.369950 0.929052 207 101 105
0.081858 0.280831 -0.103877 0.929962 -0.367650 0.001991 207 101 105
0.052527 0.206478 -0.133485 0.929962 -0.367650 0.001991 207 101 105
0.052527 0.205890 -0.242159 0.929962 -0.367650 0.001991 207 101 105
0.052527 0.205890 -0.242159 0.000000 -0.374856 -0.927083 207 101 105
0.083700 0.429529 -0.274884 0.000000 -0.395522 -0.918457 207 101 105
0.052527 0.354628 -0.242628 0.000000 -0.395522 -0.918457 207 101 105
-0.054286 0.354628 -0.242628 0.000000 -0.395522 -0.918457 207 101 105
0.083700 0.430097 -0.102777 0.922886 -0.385067 0.002085 207 101 105
0.052527 0.355216 -0.133954 0.922886 -0.385067 0.002085 207 101 105
0.052527 0.354628 -0.242628 0.922886 -0.385067 0.002085 207 101 105
-0.054286 0.355216 -0.133954 0.000000 -0.384370 0.923179 207 101 105
-0.085459 0.430097 -0.102777 -0.923427 -0.383771 0.001265 207 101 105
-0.085459 0.429529 -0.274884 -0.923427 -0.383771 0.001265 207 101 105
-0.054286 0.354628 -0.242628 -0.923427 -0.383771 0.001265 207 101 105
0.014017 -0.417965 0.029962 0.000000 -0.000000 -1.000000 255 255 255
0.014017 -0.417965 0.059078 1.000000 -0.000000 -0.000000 255 255 255
-0.003465 -0.417965 0.059078 0.000000 0.000000 1.000000 255 255 255
-0.003465 0.995850 0.029962 -1.000000 0.000000 0.000000 255 255 255
0.014017 -0.417965 0.029962 -0.000000 -1.000000 0.000000 255 255 255
0.014017 0.995850 0.029962 0.000000 1.000000 0.000000 255 255 255
-0.069501 0.127822 -0.117216 -0.000000 0.002744 0.999996 105 73 48
-0.069501 0.127362 -0.256852 -1.000000 0.000000 0.000000 105 73 48
-0.069501 0.574594 -0.258368 0.000000 -0.568484 -0.822694 105 73 48
0.067742 0.670979 -0.324970 1.000000 -0.000000 -0.000000 105 73 48
0.067742 -0.013488 -0.116828 1.000000 -0.000000 -0.000000 105 73 48
0.067742 -0.013948 -0.256464 0.000000 -0.002744 -0.999996 105 73 48
-0.069501 0.575054 -0.118732 -1.000000 -0.000000 0.000000 105 73 48
0.067742 0.575054 -0.118732 0.000000 -0.000499 1.000000 105 73 48
0.067742 0.433284 -0.258209 1.000000 -0.000000 -0.000000 105 73 48
-0.069501 0.433284 -0.258438 0.000000 0.000500 -1.000000 105 73 48
-0.069501 0.574594 -0.258368 0.000000 0.000500 -1.000000 105 73 48
0.067742 0.574594 -0.258368 0.000000 0.000500 -1.000000 105 73 48
0.067742 0.644101 -0.139067 0.000000 -0.661454 0.749986 105 73 48
-0.069501 0.747667 -0.047727 -1.000000 -0.000000 0.000000 105 73 48
-0.069501 -0.110333 -0.322850 -1.000000 -0.000000 0.000000 105 73 48
0.067742 -0.013488 -0.116828 0.000000 -0.279744 0.960075 105 73 48
-0.069501 -0.013488 -0.116828 0.000000 -0.279744 0.960075 105 73 48
-0.069501 -0.082535 -0.136947 0.000000 -0.279744 0.960075 105 73 48
0.067742 -0.110333 -0.322850 0.000000 0.567232 -0.823558 105 73 48
0.067742 0.644101 -0.139067 -0.000000 0.282514 0.959263 105 73 48
-0.069501 0.747206 -0.187363 0.000000 0.874752 -0.484570 105 73 48
-0.069501 -0.186100 -0.045436 0.000000 0.662150 0.749371 105 73 48
0.067742 -0.186100 -0.045436 1.000000 -0.000000 -0.000000 105 73 48
0.067742 -0.110333 -0.322850 -0.000000 -0.875008 -0.484109 105 73 48
-0.069501 -0.513787 0.074573 0.000000 0.209108 0.977893 105 73 48
-0.069501 -0.354164 -0.099295 -1.000000 -0.000000 0.000000 105 73 48
-0.069501 -0.186100 -0.045436 -0.651860 -0.758335 0.002501 61 43 28
-0.069501 -0.186561 -0.185071 -0.651860 -0.758335 0.002501 61 43 28
-0.048736 -0.204298 -0.150966 -0.651860 -0.758335 0.002501 61 43 28
0.067742 0.747667 -0.047727 0.649180 0.760631 -0.002508 61 43 28
0.067742 0.747206 -0.187363 0.649180 0.760631 -0.002508 61 43 28
0.046977 0.765042 -0.153314 0.649180 0.760631 -0.002508 61 43 28
-0.048736 -0.203935 -0.053585 0.000000 -0.415585 0.909554 61 43 28
0.046977 0.897072 -0.093756 0.000000 -0.419881 -0.907579 105 73 48
0.067742 1.074893 -0.068090 0.792247 0.610198 -0.001725 105 73 48
0.058386 1.087067 -0.058735 0.792247 0.610198 -0.001725 105 73 48
0.058386 1.087408 0.061862 0.792247 0.610198 -0.001725 105 73 48
0.067742 1.075354 0.071545 0.000000 0.626274 0.779603 105 73 48
0.058386 1.087408 0.061862 0.000000 0.626274 0.779603 105 73 48
-0.060145 1.087408 0.061862 0.000000 0.626274 0.779603 105 73 48
0.067742 -0.513787 0.074573 1.000000 -0.000000 0.000000 105 73 48
0.067742 -0.514248 -0.065063 0.000000 -0.209108 -0.977893 105 73 48
-0.069501 1.075354 0.071545 -1.000000 -0.000000 0.000000 105 73 48
0.067742 1.075354 0.071545 0.000000 -0.207007 0.978339 105 73 48
0.067742 0.914809 -0.101962 1.000000 -0.000000 -0.000000 105 73 48
-0.069501 1.074893 -0.068090 0.000000 0.207007 -0.978339 105 73 48
0.058386 1.087408 0.061862 -0.000000 0.999996 -0.002827 105 73 48
-0.060145 -0.525961 0.065218 0.000000 -0.999996 0.002828 105 73 48
0.067742 1.074893 -0.068090 0.000000 0.609313 -0.792930 105 73 48
-0.069501 1.074893 -0.068090 0.000000 0.609313 -0.792930 105 73 48
-0.060145 1.087067 -0.058735 0.000000 0.609313 -0.792930 105 73 48
-0.069501 -0.513787 0.074573 -0.790754 -0.612131 0.002019 105 73 48
-0.069501 -0.514248 -0.065063 -0.790754 -0.612131 0.002019 105 73 48
-0.060145 -0.526302 -0.055379 -0.790754 -0.612131 0.002019 105 73 48
-0.069501 -0.513787 0.074573 0.000000 -0.609314 0.792929 105 73 48
0.067742 -0.513787 0.074573 0.792246 -0.610199 0.001725 105 73 48
0.058386 -0.525961 0.065218 0.792246 -0.610199 0.001725 105 73 48
0.058386 -0.526302 -0.055380 0.792246 -0.610199 0.001725 105 73 48
0.067742 -0.514248 -0.065063 -0.000000 -0.626273 -0.779604 105 73 48
0.058386 -0.526302 -0.055380 -0.000000 -0.626273 -0.779604 105 73 48
-0.060145 -0.526302 -0.055379 -0.000000 -0.626273 -0.779604 105 73 48
-0.069501 1.074893 -0.068090 -0.790754 0.612131 -0.002019 105 73 48
-0.069501 1.075354 0.071545 -0.790754 0.612131 -0.002019 105 73 48
-0.060145 1.087408 0.061862 -0.790754 0.612131 -0.002019 105 73 48
0.067742 -0.186100 -0.045436 0.650911 -0.759149 0.002828 61 43 28
0.046977 -0.203935 -0.053585 0.650911 -0.759149 0.002828 61 43 28
0.046977 -0.204298 -0.150966 0.650911 -0.759149 0.002828 61 43 28
-0.048736 0.765042 -0.153314 0.000000 0.885831 -0.464008 61 43 28
-0.069501 0.914809 -0.101962 -0.650134 -0.759815 0.002831 105 73 48
-0.048736 0.897072 -0.093756 -0.650134 -0.759815 0.002831 105 73 48
-0.048736 0.897435 0.003625 -0.650134 -0.759815 0.002831 105 73 48
0.067742 -0.186561 -0.185071 -0.000000 -0.887191 -0.461403 61 43 28
-0.048736 0.897435 0.003625 -1.000000 0.000000 0.000000 61 43 28
0.046977 0.897435 0.003625 0.000000 -0.411191 0.911549 61 43 28
0.046977 0.765042 -0.153314 1.000000 -0.000000 -0.000000 61 43 28
-0.048736 0.897072 -0.093756 0.000000 0.411191 -0.911549 61 43 28
0.046977 -0.204298 -0.150966 0.000000 -0.412694 -0.910869 61 43 28
0.046977 -0.336329 -0.091146 0.000000 -0.412694 -0.910869 61 43 28
-0.048736 -0.336329 -0.091146 0.000000 -0.412694 -0.910869 61 43 28
0.046977 -0.335966 0.006235 1.000000 0.000000 -0.000000 61 43 28
-0.048736 -0.204298 -0.150966 -1.000000 -0.000000 0.000000 61 43 28
-0.048736 -0.335966 0.006235 0.000000 0.412694 0.910870 61 43 28
0.067742 0.914809 -0.101962 0.649179 -0.760631 0.002509 105 73 48
0.067742 0.915270 0.037673 0.649179 -0.760631 0.002509 105 73 48
0.046977 0.897435 0.003625 0.649179 -0.760631 0.002509 105 73 48
-0.069501 -0.354164 -0.099295 0.000000 0.415585 -0.909554 61 43 28
0.067742 0.747667 -0.047727 0.000000 0.419881 0.907579 61 43 28
0.067742 -0.354164 -0.099295 0.650911 0.759149 -0.002827 61 43 28
0.046977 -0.336329 -0.091146 0.650911 0.759149 -0.002827 61 43 28
0.046977 -0.335966 0.006235 0.650911 0.759149 -0.002827 61 43 28
-0.069501 0.915270 0.037673 0.000000 -0.885831 0.464008 105 73 48
0.046977 -0.335966 0.006235 0.000000 0.887191 0.461402 61 43 28
-0.069501 0.747667 -0.047727 -0.650133 0.759815 -0.002830 61 43 28
-0.048736 0.765404 -0.055933 -0.650133 0.759815 -0.002830 61 43 28
-0.048736 0.765042 -0.153314 -0.650133 0.759815 -0.002830 61 43 28
-0.069501 -0.354164 -0.099295 -0.651859 0.758336 -0.002500 61 43 28
-0.069501 -0.353703 0.040341 -0.651859 0.758336 -0.002500 61 43 28
-0.048736 -0.335966 0.006235 -0.651859 0.758336 -0.002500 61 43 28
3 0 1 2
3 3 4 5
3 6 7 8
3 9 10 11
3 12 13 14
3 15 16 17
3 18 19 20
3 21 22 23
3 24 25 26
3 27 28 29
3 30 31 32
3 33 34 35
3 36 37 38
3 39 40 41
3 42 43 44
3 45 46 47
3 48 49 50
3 51 52 53
3 54 55 56
3 57 58 59
3 60 61 62
3 63 64 65
3 66 67 68
3 69 70 71
3 72 73 74
3 75 76 77
3 78 79 80
3 81 82 83
3 84 85 86
3 87 88 89
3 90 91 92
3 93 94 95
3 96 97 98
3 99 100 101
3 102 103 104
3 105 106 107
3 108 109 110
3 111 112 113
3 114 99 101
3 115 116 117
3 118 119 120
3 121 122 123
3 94 124 95
3 125 126 127
3 103 128 129
3 130 131 132
3 109 121 123
3 133 134 135
3 136 137 138
3 139 140 141
3 100 142 143
3 144 145 146
3 124 147 148
3 149 150 151
3 128 152 129
3 153 154 155
3 156 157 158
3 159 160 161
3 162 163 164
3 165 166 167
3 168 169 170
3 171 172 173
3 174 175 139
3 176 177 174
3 178 179 180
3 181 182 183
3 184 185 186
3 187 188 189
3 190 191 192
3 193 194 195
3 196 197 198
3 199 200 201
3 202 203 204
3 205 206 207
3 208 209 210
3 211 212 213
3 214 215 216
3 217 218 219
3 220 221 222
3 223 224 225
3 226 227 228
3 229 230 231
3 232 233 234
3 235 236 237
3 141 238 176
3 239 240 136
3 241 242 239
3 138 243 241
3 244 245 246
3 247 248 249
3 250 251 252
3 253 254 255
3 256 257 258
3 259 260 261
3 262 263 264
3 265 266 267
3 268 269 270
3 271 272 273
3 274 275 276
3 277 278 279
3 280 281 282
3 283 284 285
3 286 287 288
3 289 290 291
3 0 292 1
3 293 294 295
3 6 296 7
3 297 298 299
3 12 300 13
3 15 301 16
3 18 302 19
3 21 303 22
3 304 305 306
3 307 308 309
3 310 311 312
3 313 314 315
3 316 317 318
3 39 319 40
3 320 321 322
3 45 323 46
3 324 325 326
3 51 327 52
3 328 329 330
3 57 331 58
3 332 333 334
3 335 336 337
3 66 338 67
3 339 340 341
3 72 342 73
3 75 343 76
3 78 344 79
3 81 345 82
3 84 346 85
3 87 347 88
3 90 348 91
3 93 349 94
3 96 350 97
3 99 351 100
3 102 352 103
3 105 353 106
3 108 354 109
3 111 355 112
3 114 356 99
3 357 358 359
3 118 360 119
3 121 361 122
3 94 362 124
3 363 364 365
3 103 352 128
3 130 366 131
3 109 354 121
3 133 367 134
3 136 240 137
3 139 175 140
3 100 351 142
3 144 368 145
3 124 362 147
3 149 369 150
3 128 370 152
3 153 371 154
3 156 372 157
3 159 373 160
3 374 375 376
3 377 378 379
3 168 380 169
3 171 381 172
3 174 177 175
3 176 238 177
3 382 383 384
3 385 386 387
3 184 388 185
3 187 389 188
3 190 390 191
3 193 391 194
3 196 392 197
3 199 393 200
3 202 394 203
3 205 395 206
3 396 397 398
3 399 400 401
3 214 402 215
3 403 404 405
3 406 407 408
3 409 410 411
3 412 413 414
3 229 415 230
3 416 417 418
3 235 419 236
3 141 140 238
3 239 242 240
3 241 243 242
3 138 137 243
3 244 420 245
3 247 421 248
3 250 422 251
3 253 423 254
3 424 425 426
3 259 427 260
3 262 428 263
3 265 429 266
3 430 431 432
3 271 433 272
3 274 434 275
3 435 436 437
3 280 438 281
3 283 439 284
3 440 441 442
3 443 444 445
