ply
format ascii 1.0
comment Created by Blender 2.77 (sub 0) - www.blender.org, source file: 'Sword.blend'
element vertex 235
property float x
property float y
property float z
property float nx
property float ny
property float nz
property uchar red
property uchar green
property uchar blue
element face 116
property list uchar uint vertex_indices
end_header
0.048013 0.208160 0.208035 0.981467 0.000000 0.191632 63 63 63
0.070146 0.112339 0.094680 0.981467 0.000000 0.191632 63 63 63
0.070146 0.208160 0.094680 0.981467 0.000000 0.191632 63 63 63
-0.047808 0.208160 0.208035 0.000000 0.000000 1.000000 63 63 63
0.048013 0.112339 0.208035 0.000000 0.000000 1.000000 63 63 63
0.048013 0.208160 0.208035 0.000000 0.000000 1.000000 63 63 63
-0.069940 0.208160 -0.102117 -0.981467 0.000000 -0.191632 63 63 63
-0.047808 0.112339 -0.215472 -0.981467 0.000000 -0.191632 63 63 63
-0.069940 0.112339 -0.102117 -0.981467 0.000000 -0.191632 63 63 63
0.048013 0.208160 -0.215472 0.000000 0.000000 -1.000000 63 63 63
-0.047808 0.112339 -0.215472 0.000000 0.000000 -1.000000 63 63 63
-0.047808 0.208160 -0.215472 0.000000 0.000000 -1.000000 63 63 63
0.038260 -0.030774 -0.172367 -0.000000 -0.288402 -0.957509 63 63 63
-0.033178 -0.102330 -0.150814 -0.000000 -0.288402 -0.957509 63 63 63
-0.038055 -0.030774 -0.172367 -0.000000 -0.288402 -0.957509 63 63 63
-0.047808 0.208160 0.208035 0.000000 1.000000 -0.000000 63 63 63
0.070146 0.208160 0.094680 0.000000 1.000000 -0.000000 63 63 63
-0.069940 0.208160 0.094680 0.000000 1.000000 -0.000000 63 63 63
-0.069940 0.208160 -0.102117 0.000000 1.000000 -0.000000 63 63 63
0.048013 0.208160 -0.215472 0.000000 1.000000 -0.000000 63 63 63
-0.047808 0.208160 -0.215472 0.000000 1.000000 -0.000000 63 63 63
-0.069940 0.208160 0.094680 0.000000 0.941860 -0.336006 63 63 63
0.070146 0.173056 -0.003718 0.000000 0.941860 -0.336006 63 63 63
-0.069940 0.173056 -0.003718 0.000000 0.941860 -0.336006 63 63 63
-0.055682 -0.030774 -0.082086 -0.000000 0.138611 0.990347 63 63 63
0.048758 -0.102330 -0.072071 -0.000000 0.138611 0.990347 63 63 63
0.055888 -0.030774 -0.082086 -0.000000 0.138611 0.990347 63 63 63
0.070146 0.112339 0.094680 0.000000 -0.941860 0.336006 63 63 63
-0.069940 0.077235 -0.003718 0.000000 -0.941860 0.336006 63 63 63
0.070146 0.077235 -0.003718 0.000000 -0.941860 0.336006 63 63 63
-0.047808 0.208160 0.208035 -0.981467 0.000000 0.191632 63 63 63
-0.069940 0.112339 0.094680 -0.981467 0.000000 0.191632 63 63 63
-0.047808 0.112339 0.208035 -0.981467 0.000000 0.191632 63 63 63
-0.069940 0.173056 -0.003718 -1.000000 0.000000 0.000000 63 63 63
-0.069940 0.112339 -0.102117 -1.000000 0.000000 0.000000 63 63 63
-0.069940 0.077235 -0.003718 -1.000000 0.000000 0.000000 63 63 63
0.070146 0.208160 -0.102117 0.981467 0.000000 -0.191632 63 63 63
0.048013 0.112339 -0.215472 0.981467 0.000000 -0.191632 63 63 63
0.048013 0.208160 -0.215472 0.981467 0.000000 -0.191632 63 63 63
0.070146 0.173056 -0.003718 1.000000 -0.000000 0.000000 63 63 63
0.070146 0.112339 0.094680 1.000000 -0.000000 0.000000 63 63 63
0.070146 0.077235 -0.003718 1.000000 -0.000000 0.000000 63 63 63
0.033384 -0.102330 0.143377 0.000000 -1.000000 0.000000 63 63 63
-0.048553 -0.102330 0.064634 0.000000 -1.000000 0.000000 63 63 63
0.048758 -0.102330 0.064634 0.000000 -1.000000 0.000000 63 63 63
0.048758 -0.102330 -0.072071 0.000000 -1.000000 0.000000 63 63 63
-0.033178 -0.102330 -0.150814 0.000000 -1.000000 0.000000 63 63 63
0.033384 -0.102330 -0.150814 0.000000 -1.000000 0.000000 63 63 63
-0.055682 -0.030774 0.074650 -0.973935 -0.123649 0.190161 63 63 63
-0.033178 -0.102330 0.143377 -0.973935 -0.123649 0.190161 63 63 63
-0.038055 -0.030774 0.164930 -0.973935 -0.123649 0.190161 63 63 63
-0.055682 -0.030774 -0.082086 -0.973935 -0.123648 -0.190161 63 63 63
-0.033178 -0.102330 -0.150814 -0.973935 -0.123648 -0.190161 63 63 63
-0.048553 -0.102330 -0.072071 -0.973935 -0.123648 -0.190161 63 63 63
0.055888 -0.030774 0.074650 0.973935 -0.123649 0.190161 63 63 63
0.033384 -0.102330 0.143377 0.973935 -0.123649 0.190161 63 63 63
0.048758 -0.102330 0.064634 0.973935 -0.123649 0.190161 63 63 63
0.055888 -0.030774 -0.082086 0.973935 -0.123648 -0.190161 63 63 63
0.033384 -0.102330 -0.150814 0.973935 -0.123648 -0.190161 63 63 63
0.038260 -0.030774 -0.172367 0.973935 -0.123648 -0.190161 63 63 63
-0.055682 -0.030774 0.074650 0.000000 0.138611 -0.990347 63 63 63
0.048758 -0.102330 0.064634 0.000000 0.138611 -0.990347 63 63 63
-0.048553 -0.102330 0.064634 0.000000 0.138611 -0.990347 63 63 63
0.038260 -0.030774 0.164930 0.000000 -0.288402 0.957510 63 63 63
-0.033178 -0.102330 0.143377 0.000000 -0.288402 0.957510 63 63 63
0.033384 -0.102330 0.143377 0.000000 -0.288402 0.957510 63 63 63
-0.069940 0.112339 0.094680 -1.000000 -0.000000 -0.000000 63 63 63
-0.069940 0.208160 0.094680 -1.000000 -0.000000 -0.000000 63 63 63
0.050149 0.141967 -0.002831 -0.000000 -0.941724 -0.336387 207 121 53
-0.040520 0.194709 -0.150483 -0.000000 -0.941724 -0.336387 207 121 53
0.036862 0.194709 -0.150483 -0.000000 -0.941724 -0.336387 207 121 53
-0.001843 0.684653 0.118302 -0.919953 0.215001 0.327812 207 121 53
-0.001829 0.869405 -0.002831 -0.919953 0.215001 0.327812 207 121 53
-0.046963 0.676284 -0.002831 -0.919953 0.215001 0.327812 207 121 53
-0.001843 0.684653 -0.123964 0.908382 0.229222 -0.349712 207 121 53
-0.001829 0.869405 -0.002831 0.908382 0.229222 -0.349712 207 121 53
0.043090 0.691395 -0.002831 0.908382 0.229222 -0.349712 207 121 53
0.070146 0.112339 -0.102117 1.000000 0.000000 -0.000000 63 63 63
0.070146 0.208160 -0.102117 1.000000 0.000000 -0.000000 63 63 63
0.036862 0.194709 0.144821 0.000000 -0.941724 0.336387 207 121 53
-0.053808 0.141967 -0.002831 0.000000 -0.941724 0.336387 207 121 53
0.050149 0.141967 -0.002831 0.000000 -0.941724 0.336387 207 121 53
-0.001829 0.869405 -0.002831 -0.919953 0.215001 -0.327814 207 121 53
-0.001843 0.684653 -0.123964 -0.919953 0.215001 -0.327814 207 121 53
-0.046963 0.676284 -0.002831 -0.919953 0.215001 -0.327814 207 121 53
-0.001829 0.869405 -0.002831 0.908381 0.229222 0.349715 207 121 53
-0.001843 0.684653 0.118302 0.908381 0.229222 0.349715 207 121 53
0.043090 0.691395 -0.002831 0.908381 0.229222 0.349715 207 121 53
-0.001843 0.684653 0.118302 -0.994823 0.081797 0.060306 207 121 53
-0.053808 0.141967 -0.002831 -0.994823 0.081797 0.060306 207 121 53
-0.040520 0.194709 0.144821 -0.994823 0.081797 0.060306 207 121 53
-0.001843 0.684653 0.118302 0.937287 0.012043 0.348349 207 121 53
0.050149 0.141967 -0.002831 0.937287 0.012043 0.348349 207 121 53
0.043090 0.691395 -0.002831 0.937287 0.012043 0.348349 207 121 53
-0.001843 0.684653 -0.123964 0.000000 0.054048 -0.998538 207 121 53
0.036862 0.194709 -0.150483 0.000000 0.054048 -0.998538 207 121 53
-0.040520 0.194709 -0.150483 0.000000 0.054048 -0.998538 207 121 53
0.043090 0.691395 -0.002831 0.931855 0.092604 -0.350815 207 121 53
0.036862 0.194709 -0.150483 0.931855 0.092604 -0.350815 207 121 53
-0.001843 0.684653 -0.123964 0.931855 0.092604 -0.350815 207 121 53
-0.046963 0.676284 -0.002831 -0.996291 0.012762 -0.085098 207 121 53
-0.040520 0.194709 -0.150483 -0.996291 0.012762 -0.085098 207 121 53
-0.053808 0.141967 -0.002831 -0.996291 0.012762 -0.085098 207 121 53
-0.001843 0.684653 0.118302 0.000000 0.054048 0.998538 207 121 53
-0.040520 0.194709 0.144821 0.000000 0.054048 0.998538 207 121 53
0.036862 0.194709 0.144821 0.000000 0.054048 0.998538 207 121 53
0.070146 0.077235 -0.003718 -0.000000 -0.941860 -0.336006 63 63 63
-0.069940 0.112339 -0.102117 -0.000000 -0.941860 -0.336006 63 63 63
0.070146 0.112339 -0.102117 -0.000000 -0.941860 -0.336006 63 63 63
-0.069940 0.173056 -0.003718 -0.000000 0.941860 0.336006 63 63 63
0.070146 0.208160 -0.102117 -0.000000 0.941860 0.336006 63 63 63
-0.069940 0.208160 -0.102117 -0.000000 0.941860 0.336006 63 63 63
-0.047808 0.112339 0.208035 0.000000 -0.288402 0.957509 63 63 63
0.043137 0.040782 0.186483 0.000000 -0.288402 0.957509 63 63 63
0.048013 0.112339 0.208035 0.000000 -0.288402 0.957509 63 63 63
-0.042931 0.040782 0.186483 0.000000 -0.288402 0.957509 63 63 63
0.038260 -0.030774 0.164930 0.000000 -0.288402 0.957509 63 63 63
0.070146 0.112339 0.094680 0.000000 0.138611 -0.990347 63 63 63
-0.062811 0.040782 0.084665 0.000000 0.138611 -0.990347 63 63 63
-0.069940 0.112339 0.094680 0.000000 0.138611 -0.990347 63 63 63
-0.062811 0.040782 0.084665 -0.995074 -0.099139 0.000000 63 63 63
-0.055682 -0.030774 -0.003678 -0.995074 -0.099139 0.000000 63 63 63
-0.055682 -0.030774 0.074650 -0.995074 -0.099139 0.000000 63 63 63
0.070146 0.112339 0.094680 0.973935 -0.123648 0.190161 63 63 63
0.043137 0.040782 0.186483 0.973935 -0.123648 0.190161 63 63 63
0.063017 0.040782 0.084665 0.973935 -0.123648 0.190161 63 63 63
0.063017 0.040782 0.084665 0.973935 -0.123649 0.190161 63 63 63
0.038260 -0.030774 0.164930 0.973935 -0.123649 0.190161 63 63 63
-0.069940 0.112339 0.094680 -0.973935 -0.123649 0.190161 63 63 63
-0.042931 0.040782 0.186483 -0.973935 -0.123649 0.190161 63 63 63
-0.047808 0.112339 0.208035 -0.973935 -0.123649 0.190161 63 63 63
-0.062811 0.040782 0.084665 -0.973935 -0.123648 0.190161 63 63 63
-0.038055 -0.030774 0.164930 -0.973935 -0.123648 0.190161 63 63 63
-0.042931 0.040782 0.186483 -0.973935 -0.123648 0.190161 63 63 63
0.070146 0.112339 -0.102117 0.973935 -0.123648 -0.190161 63 63 63
0.043137 0.040782 -0.193919 0.973935 -0.123648 -0.190161 63 63 63
0.048013 0.112339 -0.215472 0.973935 -0.123648 -0.190161 63 63 63
0.063017 0.040782 -0.092101 0.973935 -0.123648 -0.190161 63 63 63
-0.069940 0.112339 -0.102117 -0.973935 -0.123648 -0.190161 63 63 63
-0.042931 0.040782 -0.193919 -0.973935 -0.123648 -0.190161 63 63 63
-0.062811 0.040782 -0.092101 -0.973935 -0.123648 -0.190161 63 63 63
-0.038055 -0.030774 -0.172367 -0.973935 -0.123648 -0.190161 63 63 63
-0.069940 0.112339 -0.102117 0.000000 0.138611 0.990347 63 63 63
0.063017 0.040782 -0.092101 0.000000 0.138611 0.990347 63 63 63
0.070146 0.112339 -0.102117 0.000000 0.138611 0.990347 63 63 63
0.055888 -0.030774 -0.082086 0.995074 -0.099139 -0.000000 63 63 63
0.063017 0.040782 -0.003678 0.995074 -0.099139 -0.000000 63 63 63
0.055888 -0.030774 -0.003678 0.995074 -0.099139 -0.000000 63 63 63
0.048013 0.112339 -0.215472 0.000000 -0.288402 -0.957509 63 63 63
-0.042931 0.040782 -0.193919 0.000000 -0.288402 -0.957509 63 63 63
-0.047808 0.112339 -0.215472 0.000000 -0.288402 -0.957509 63 63 63
0.043137 0.040782 -0.193919 -0.000000 -0.288402 -0.957510 63 63 63
-0.038055 -0.030774 -0.172367 -0.000000 -0.288402 -0.957510 63 63 63
-0.042931 0.040782 -0.193919 -0.000000 -0.288402 -0.957510 63 63 63
-0.062811 0.040782 -0.003678 -0.000000 -0.000000 1.000000 63 63 63
0.055888 -0.030774 -0.003678 -0.000000 -0.000000 1.000000 63 63 63
0.063017 0.040782 -0.003678 -0.000000 -0.000000 1.000000 63 63 63
-0.055682 -0.030774 -0.082086 -0.995074 -0.099139 0.000000 63 63 63
-0.062811 0.040782 -0.003678 -0.995074 -0.099139 0.000000 63 63 63
-0.062811 0.040782 -0.092101 -0.995074 -0.099139 0.000000 63 63 63
-0.062811 0.040782 -0.092101 -0.000000 1.000000 0.000000 63 63 63
0.063017 0.040782 -0.003678 -0.000000 1.000000 0.000000 63 63 63
0.063017 0.040782 -0.092101 -0.000000 1.000000 0.000000 63 63 63
0.055888 -0.030774 -0.082086 0.000000 -1.000000 0.000000 63 63 63
-0.055682 -0.030774 -0.003678 0.000000 -1.000000 0.000000 63 63 63
-0.055682 -0.030774 -0.082086 0.000000 -1.000000 0.000000 63 63 63
0.063017 0.040782 0.084665 -0.000000 1.000000 0.000000 63 63 63
-0.062811 0.040782 -0.003678 -0.000000 1.000000 0.000000 63 63 63
-0.062811 0.040782 0.084665 -0.000000 1.000000 0.000000 63 63 63
-0.055682 -0.030774 0.074650 -0.000000 -1.000000 0.000000 63 63 63
0.055888 -0.030774 -0.003678 -0.000000 -1.000000 0.000000 63 63 63
0.055888 -0.030774 0.074650 -0.000000 -1.000000 0.000000 63 63 63
0.063017 0.040782 0.084665 0.995073 -0.099139 0.000000 63 63 63
0.055888 -0.030774 -0.003678 0.995073 -0.099139 0.000000 63 63 63
0.063017 0.040782 -0.003678 0.995073 -0.099139 0.000000 63 63 63
0.048013 0.112339 0.208035 0.981467 -0.000000 0.191632 63 63 63
-0.047808 0.112339 0.208035 0.000000 -0.000000 1.000000 63 63 63
-0.047808 0.208160 -0.215472 -0.981467 0.000000 -0.191632 63 63 63
0.048013 0.112339 -0.215472 0.000000 0.000000 -1.000000 63 63 63
0.033384 -0.102330 -0.150814 0.000000 -0.288402 -0.957509 63 63 63
0.048013 0.208160 0.208035 0.000000 1.000000 -0.000000 63 63 63
0.070146 0.208160 -0.102117 0.000000 1.000000 -0.000000 63 63 63
0.070146 0.208160 0.094680 0.000000 0.941860 -0.336006 63 63 63
-0.048553 -0.102330 -0.072071 0.000000 0.138611 0.990347 63 63 63
-0.069940 0.112339 0.094680 0.000000 -0.941860 0.336006 63 63 63
-0.069940 0.208160 0.094680 -0.981467 0.000000 0.191632 63 63 63
-0.069940 0.208160 -0.102117 -1.000000 0.000000 0.000000 63 63 63
0.070146 0.112339 -0.102117 0.981467 0.000000 -0.191632 63 63 63
0.070146 0.208160 0.094680 1.000000 -0.000000 0.000000 63 63 63
-0.033178 -0.102330 0.143377 0.000000 -1.000000 0.000000 63 63 63
-0.048553 -0.102330 -0.072071 0.000000 -1.000000 0.000000 63 63 63
-0.055682 -0.030774 0.074650 -0.973935 -0.123648 0.190161 63 63 63
-0.048553 -0.102330 0.064634 -0.973935 -0.123648 0.190161 63 63 63
-0.033178 -0.102330 0.143377 -0.973935 -0.123648 0.190161 63 63 63
0.055888 -0.030774 0.074650 0.973935 -0.123648 0.190161 63 63 63
0.038260 -0.030774 0.164930 0.973935 -0.123648 0.190161 63 63 63
0.033384 -0.102330 0.143377 0.973935 -0.123648 0.190161 63 63 63
0.048758 -0.102330 -0.072071 0.973935 -0.123648 -0.190161 63 63 63
-0.055682 -0.030774 0.074650 0.000000 0.138612 -0.990347 63 63 63
0.055888 -0.030774 0.074650 0.000000 0.138612 -0.990347 63 63 63
0.048758 -0.102330 0.064634 0.000000 0.138612 -0.990347 63 63 63
-0.038055 -0.030774 0.164930 0.000000 -0.288402 0.957509 63 63 63
-0.033178 -0.102330 0.143377 0.000000 -0.288402 0.957509 63 63 63
-0.053808 0.141967 -0.002831 0.000000 -0.941724 -0.336387 207 121 53
-0.040520 0.194709 0.144821 0.000000 -0.941724 0.336387 207 121 53
-0.001843 0.684653 0.118302 -0.937306 0.012007 0.348300 207 121 53
-0.046963 0.676284 -0.002831 -0.937306 0.012007 0.348300 207 121 53
-0.053808 0.141967 -0.002831 -0.937306 0.012007 0.348300 207 121 53
-0.001843 0.684653 0.118302 0.994819 0.081853 0.060286 207 121 53
0.036862 0.194709 0.144821 0.994819 0.081853 0.060286 207 121 53
0.050149 0.141967 -0.002831 0.994819 0.081853 0.060286 207 121 53
0.043090 0.691395 -0.002831 0.996292 0.012801 -0.085084 207 121 53
0.050149 0.141967 -0.002831 0.996292 0.012801 -0.085084 207 121 53
0.036862 0.194709 -0.150483 0.996292 0.012801 -0.085084 207 121 53
-0.046963 0.676284 -0.002831 -0.935169 0.092334 -0.341957 207 121 53
-0.001843 0.684653 -0.123964 -0.935169 0.092334 -0.341957 207 121 53
-0.040520 0.194709 -0.150483 -0.935169 0.092334 -0.341957 207 121 53
-0.069940 0.077235 -0.003718 0.000000 -0.941860 -0.336006 63 63 63
0.070146 0.173056 -0.003718 0.000000 0.941860 0.336006 63 63 63
0.063017 0.040782 0.084665 0.000000 0.138611 -0.990347 63 63 63
-0.062811 0.040782 0.084665 -0.995073 -0.099139 0.000000 63 63 63
-0.062811 0.040782 -0.003678 -0.995073 -0.099139 0.000000 63 63 63
-0.055682 -0.030774 -0.003678 -0.995073 -0.099139 0.000000 63 63 63
0.070146 0.112339 0.094680 0.973935 -0.123649 0.190161 63 63 63
0.048013 0.112339 0.208035 0.973935 -0.123649 0.190161 63 63 63
0.043137 0.040782 0.186483 0.973935 -0.123649 0.190161 63 63 63
-0.069940 0.112339 0.094680 -0.973935 -0.123648 0.190161 63 63 63
-0.062811 0.040782 0.084665 -0.973935 -0.123649 0.190161 63 63 63
-0.047808 0.112339 -0.215472 -0.973935 -0.123648 -0.190161 63 63 63
-0.062811 0.040782 -0.092101 -0.000000 0.138611 0.990347 63 63 63
0.063017 0.040782 -0.092101 0.995074 -0.099139 -0.000000 63 63 63
0.043137 0.040782 -0.193919 -0.000000 -0.288402 -0.957509 63 63 63
-0.055682 -0.030774 -0.003678 0.000000 -0.000000 1.000000 63 63 63
0.063017 0.040782 0.084665 0.995074 -0.099139 0.000000 63 63 63
0.055888 -0.030774 0.074650 0.995074 -0.099139 0.000000 63 63 63
3 0 1 2
3 3 4 5
3 6 7 8
3 9 10 11
3 12 13 14
3 15 16 17
3 18 19 20
3 21 22 23
3 24 25 26
3 27 28 29
3 30 31 32
3 33 34 35
3 36 37 38
3 39 40 41
3 42 43 44
3 45 46 47
3 48 49 50
3 51 52 53
3 54 55 56
3 57 58 59
3 60 61 62
3 63 64 65
3 33 66 67
3 68 69 70
3 71 72 73
3 74 75 76
3 39 77 78
3 79 80 81
3 82 83 84
3 85 86 87
3 88 89 90
3 91 92 93
3 94 95 96
3 97 98 99
3 100 101 102
3 103 104 105
3 106 107 108
3 109 110 111
3 112 113 114
3 115 116 113
3 117 118 119
3 120 121 122
3 123 124 125
3 126 127 54
3 128 129 130
3 131 132 133
3 134 135 136
3 137 59 135
3 138 139 140
3 140 141 51
3 142 143 144
3 145 146 147
3 148 149 150
3 151 152 153
3 154 155 156
3 157 158 159
3 160 161 162
3 163 164 165
3 166 167 168
3 169 170 171
3 172 173 174
3 0 175 1
3 3 176 4
3 6 177 7
3 9 178 10
3 12 179 13
3 15 180 16
3 18 181 19
3 21 182 22
3 24 183 25
3 27 184 28
3 30 185 31
3 33 186 34
3 36 187 37
3 39 188 40
3 42 189 43
3 45 190 46
3 191 192 193
3 51 141 52
3 194 195 196
3 57 197 58
3 198 199 200
3 116 201 202
3 33 35 66
3 68 203 69
3 39 41 77
3 79 204 80
3 205 206 207
3 208 209 210
3 211 212 213
3 214 215 216
3 106 217 107
3 109 218 110
3 112 115 113
3 115 201 116
3 117 219 118
3 220 221 222
3 223 224 225
3 126 225 127
3 226 131 133
3 227 48 50
3 134 137 135
3 137 57 59
3 138 228 139
3 140 139 141
3 142 229 143
3 145 230 146
3 148 231 149
3 231 12 14
3 154 232 155
3 157 121 158
3 160 167 161
3 163 170 164
3 166 161 167
3 169 164 170
3 233 234 147
