ply
format ascii 1.0
comment Created by Blender 2.77 (sub 0) - www.blender.org, source file: 'Sword.blend'
element vertex 526
property float x
property float y
property float z
property float nx
property float ny
property float nz
property uchar red
property uchar green
property uchar blue
element face 200
property list uchar uint vertex_indices
end_header
-0.134874 0.104060 0.043823 -0.848334 0.324553 0.418323 168 98 43
-0.110215 0.121787 0.080076 -0.848334 0.324553 0.418323 168 98 43
-0.123224 0.139389 0.040038 -0.848334 0.324553 0.418323 168 98 43
-0.110215 0.121787 0.080076 0.606836 0.781249 0.146286 168 98 43
-0.104375 0.125894 0.033914 0.606836 0.781249 0.146286 168 98 43
-0.123224 0.139389 0.040038 0.606836 0.781249 0.146286 168 98 43
-0.093356 0.115016 0.067827 0.951056 0.000000 -0.309017 168 98 43
-0.104375 0.082226 0.033914 0.951056 0.000000 -0.309017 168 98 43
-0.104375 0.125894 0.033914 0.951056 0.000000 -0.309017 168 98 43
-0.104375 0.082226 0.033914 0.606836 -0.781249 0.146286 168 98 43
-0.110215 0.086333 0.080076 0.606836 -0.781249 0.146286 168 98 43
-0.123224 0.068731 0.040038 0.606836 -0.781249 0.146286 168 98 43
-0.110215 0.086333 0.080076 -0.848335 -0.324553 0.418323 168 98 43
-0.134874 0.104060 0.043823 -0.848335 -0.324553 0.418323 168 98 43
-0.123224 0.068731 0.040038 -0.848335 -0.324553 0.418323 168 98 43
-0.083357 0.104060 0.114730 -0.440433 0.324553 0.837069 168 98 43
-0.042098 0.121787 0.129566 -0.440433 0.324553 0.837069 168 98 43
-0.076157 0.139389 0.104821 -0.440433 0.324553 0.837069 168 98 43
-0.042098 0.121787 0.129566 0.576926 0.781249 -0.238341 168 98 43
-0.064507 0.125894 0.088787 0.576926 0.781249 -0.238341 168 98 43
-0.076157 0.139389 0.104821 0.576926 0.781249 -0.238341 168 98 43
-0.035659 0.115016 0.109746 0.587785 0.000000 -0.809017 168 98 43
-0.064507 0.082226 0.088787 0.587785 0.000000 -0.809017 168 98 43
-0.064507 0.125894 0.088787 0.587785 0.000000 -0.809017 168 98 43
-0.064507 0.082226 0.088787 0.576926 -0.781249 -0.238341 168 98 43
-0.042098 0.086333 0.129566 0.576926 -0.781249 -0.238341 168 98 43
-0.076157 0.068731 0.104821 0.576926 -0.781249 -0.238341 168 98 43
-0.042098 0.086333 0.129566 -0.440433 -0.324553 0.837069 168 98 43
-0.083357 0.104060 0.114730 -0.440433 -0.324553 0.837069 168 98 43
-0.076157 0.068731 0.104821 -0.440433 -0.324553 0.837069 168 98 43
-0.000000 0.104060 0.141815 0.135699 0.324553 0.936083 168 98 43
0.042098 0.121787 0.129566 0.135699 0.324553 0.936083 168 98 43
-0.000000 0.139389 0.129566 0.135699 0.324553 0.936083 168 98 43
0.042098 0.121787 0.129566 0.326649 0.781249 -0.531931 168 98 43
-0.000000 0.125894 0.109746 0.326649 0.781249 -0.531931 168 98 43
-0.000000 0.139389 0.129566 0.326649 0.781249 -0.531931 168 98 43
0.035659 0.115016 0.109746 0.000000 0.000000 -1.000000 168 98 43
-0.000000 0.082226 0.109746 0.000000 0.000000 -1.000000 168 98 43
-0.000000 0.125894 0.109746 0.000000 0.000000 -1.000000 168 98 43
-0.000000 0.082226 0.109746 0.326649 -0.781249 -0.531931 168 98 43
0.042098 0.086333 0.129566 0.326649 -0.781249 -0.531931 168 98 43
-0.000000 0.068731 0.129566 0.326649 -0.781249 -0.531931 168 98 43
0.042098 0.086333 0.129566 0.135699 -0.324553 0.936083 168 98 43
-0.000000 0.104060 0.141815 0.135699 -0.324553 0.936083 168 98 43
-0.000000 0.068731 0.129566 0.135699 -0.324553 0.936083 168 98 43
0.083357 0.104060 0.114730 0.659999 0.324553 0.677545 168 98 43
0.110215 0.121787 0.080076 0.659999 0.324553 0.677545 168 98 43
0.076157 0.139389 0.104821 0.659999 0.324553 0.677545 168 98 43
0.110215 0.121787 0.080076 -0.048397 0.781249 -0.622341 168 98 43
0.064507 0.125894 0.088787 -0.048397 0.781249 -0.622341 168 98 43
0.076157 0.139389 0.104821 -0.048397 0.781249 -0.622341 168 98 43
0.093356 0.115016 0.067827 -0.587785 -0.000000 -0.809017 168 98 43
0.064507 0.082226 0.088787 -0.587785 -0.000000 -0.809017 168 98 43
0.064507 0.125894 0.088787 -0.587785 -0.000000 -0.809017 168 98 43
0.064507 0.082226 0.088787 -0.048397 -0.781249 -0.622341 168 98 43
0.110215 0.086333 0.080076 -0.048397 -0.781249 -0.622341 168 98 43
0.076157 0.068731 0.104821 -0.048397 -0.781249 -0.622341 168 98 43
0.110215 0.086333 0.080076 0.659999 -0.324553 0.677545 168 98 43
0.083357 0.104060 0.114730 0.659999 -0.324553 0.677545 168 98 43
0.076157 0.068731 0.104821 0.659999 -0.324553 0.677545 168 98 43
0.134874 0.104060 0.043823 0.932201 0.324553 0.160208 168 98 43
0.136233 0.121787 0.000000 0.932201 0.324553 0.160208 168 98 43
0.123224 0.139389 0.040038 0.932201 0.324553 0.160208 168 98 43
0.136233 0.121787 0.000000 -0.404956 0.781249 -0.475038 168 98 43
0.104375 0.125894 0.033913 -0.404956 0.781249 -0.475038 168 98 43
0.123224 0.139389 0.040038 -0.404956 0.781249 -0.475038 168 98 43
0.115394 0.115016 0.000000 -0.951057 -0.000000 -0.309017 168 98 43
0.104375 0.082226 0.033913 -0.951057 -0.000000 -0.309017 168 98 43
0.104375 0.125894 0.033913 -0.951057 -0.000000 -0.309017 168 98 43
0.104375 0.082226 0.033913 -0.404956 -0.781249 -0.475038 168 98 43
0.136233 0.086333 0.000000 -0.404956 -0.781249 -0.475038 168 98 43
0.123224 0.068731 0.040038 -0.404956 -0.781249 -0.475038 168 98 43
0.136233 0.086333 0.000000 0.932201 -0.324553 0.160208 168 98 43
0.134874 0.104060 0.043823 0.932201 -0.324553 0.160208 168 98 43
0.123224 0.068731 0.040038 0.932201 -0.324553 0.160208 168 98 43
0.134874 0.104060 -0.043823 0.848334 0.324553 -0.418323 168 98 43
0.110215 0.121787 -0.080076 0.848334 0.324553 -0.418323 168 98 43
0.123224 0.139389 -0.040038 0.848334 0.324553 -0.418323 168 98 43
0.110215 0.121787 -0.080076 -0.606837 0.781249 -0.146286 168 98 43
0.104375 0.125894 -0.033913 -0.606837 0.781249 -0.146286 168 98 43
0.123224 0.139389 -0.040038 -0.606837 0.781249 -0.146286 168 98 43
0.093356 0.115016 -0.067827 -0.951057 0.000000 0.309017 168 98 43
0.104375 0.082226 -0.033913 -0.951057 0.000000 0.309017 168 98 43
0.104375 0.125894 -0.033913 -0.951057 0.000000 0.309017 168 98 43
0.104375 0.082226 -0.033913 -0.606837 -0.781249 -0.146286 168 98 43
0.110215 0.086333 -0.080076 -0.606837 -0.781249 -0.146286 168 98 43
0.123224 0.068731 -0.040038 -0.606837 -0.781249 -0.146286 168 98 43
0.110215 0.086333 -0.080076 0.848334 -0.324553 -0.418323 168 98 43
0.134874 0.104060 -0.043823 0.848334 -0.324553 -0.418323 168 98 43
0.123224 0.068731 -0.040038 0.848334 -0.324553 -0.418323 168 98 43
0.083357 0.104060 -0.114730 0.440433 0.324553 -0.837069 168 98 43
0.042098 0.121787 -0.129566 0.440433 0.324553 -0.837069 168 98 43
0.076157 0.139389 -0.104821 0.440433 0.324553 -0.837069 168 98 43
0.042098 0.121787 -0.129566 -0.576926 0.781249 0.238342 168 98 43
0.064507 0.125894 -0.088787 -0.576926 0.781249 0.238342 168 98 43
0.076157 0.139389 -0.104821 -0.576926 0.781249 0.238342 168 98 43
0.035659 0.115016 -0.109746 -0.587785 0.000000 0.809017 168 98 43
0.064507 0.082226 -0.088787 -0.587785 0.000000 0.809017 168 98 43
0.064507 0.125894 -0.088787 -0.587785 0.000000 0.809017 168 98 43
0.064507 0.082226 -0.088787 -0.576926 -0.781249 0.238342 168 98 43
0.042098 0.086333 -0.129566 -0.576926 -0.781249 0.238342 168 98 43
0.076157 0.068731 -0.104821 -0.576926 -0.781249 0.238342 168 98 43
0.042098 0.086333 -0.129566 0.440433 -0.324553 -0.837069 168 98 43
0.083357 0.104060 -0.114730 0.440433 -0.324553 -0.837069 168 98 43
0.076157 0.068731 -0.104821 0.440433 -0.324553 -0.837069 168 98 43
-0.000000 0.104060 -0.141815 -0.135699 0.324553 -0.936083 168 98 43
-0.042098 0.121787 -0.129566 -0.135699 0.324553 -0.936083 168 98 43
-0.000000 0.139389 -0.129566 -0.135699 0.324553 -0.936083 168 98 43
-0.042098 0.121787 -0.129566 -0.326649 0.781249 0.531931 168 98 43
-0.000000 0.125894 -0.109746 -0.326649 0.781249 0.531931 168 98 43
-0.000000 0.139389 -0.129566 -0.326649 0.781249 0.531931 168 98 43
-0.035659 0.115016 -0.109746 0.000000 0.000000 1.000000 168 98 43
-0.000000 0.082226 -0.109746 0.000000 0.000000 1.000000 168 98 43
-0.000000 0.125894 -0.109746 0.000000 0.000000 1.000000 168 98 43
-0.000000 0.082226 -0.109746 -0.326649 -0.781249 0.531931 168 98 43
-0.042098 0.086333 -0.129566 -0.326649 -0.781249 0.531931 168 98 43
-0.000000 0.068731 -0.129566 -0.326649 -0.781249 0.531931 168 98 43
-0.042098 0.086333 -0.129566 -0.135699 -0.324553 -0.936083 168 98 43
-0.000000 0.104060 -0.141815 -0.135699 -0.324553 -0.936083 168 98 43
-0.000000 0.068731 -0.129566 -0.135699 -0.324553 -0.936083 168 98 43
-0.083356 0.104060 -0.114730 -0.659999 0.324553 -0.677545 168 98 43
-0.110215 0.121787 -0.080076 -0.659999 0.324553 -0.677545 168 98 43
-0.076157 0.139389 -0.104821 -0.659999 0.324553 -0.677545 168 98 43
-0.110215 0.121787 -0.080076 0.048396 0.781249 0.622341 168 98 43
-0.064507 0.125894 -0.088787 0.048396 0.781249 0.622341 168 98 43
-0.076157 0.139389 -0.104821 0.048396 0.781249 0.622341 168 98 43
-0.093356 0.115016 -0.067827 0.587785 0.000000 0.809017 168 98 43
-0.064507 0.082226 -0.088787 0.587785 0.000000 0.809017 168 98 43
-0.064507 0.125894 -0.088787 0.587785 0.000000 0.809017 168 98 43
-0.064507 0.082226 -0.088787 0.048396 -0.781249 0.622341 168 98 43
-0.110215 0.086333 -0.080076 0.048396 -0.781249 0.622341 168 98 43
-0.076157 0.068731 -0.104821 0.048396 -0.781249 0.622341 168 98 43
-0.110215 0.086333 -0.080076 -0.659999 -0.324553 -0.677545 168 98 43
-0.083356 0.104060 -0.114730 -0.659999 -0.324553 -0.677545 168 98 43
-0.076157 0.068731 -0.104821 -0.659999 -0.324553 -0.677545 168 98 43
-0.134874 0.104060 -0.043823 -0.932201 0.324553 -0.160209 168 98 43
-0.136233 0.121787 0.000000 -0.932201 0.324553 -0.160209 168 98 43
-0.123224 0.139389 -0.040038 -0.932201 0.324553 -0.160209 168 98 43
-0.136233 0.121787 0.000000 0.404956 0.781249 0.475037 168 98 43
-0.104375 0.125894 -0.033914 0.404956 0.781249 0.475037 168 98 43
-0.123224 0.139389 -0.040038 0.404956 0.781249 0.475037 168 98 43
-0.115394 0.115016 0.000000 0.951056 0.000000 0.309017 168 98 43
-0.104375 0.082226 -0.033914 0.951056 0.000000 0.309017 168 98 43
-0.104375 0.125894 -0.033914 0.951056 0.000000 0.309017 168 98 43
-0.104375 0.082226 -0.033914 0.404956 -0.781249 0.475037 168 98 43
-0.136233 0.086333 0.000000 0.404956 -0.781249 0.475037 168 98 43
-0.123224 0.068731 -0.040038 0.404956 -0.781249 0.475037 168 98 43
-0.136233 0.086333 0.000000 -0.932201 -0.324553 -0.160209 168 98 43
-0.134874 0.104060 -0.043823 -0.932201 -0.324553 -0.160209 168 98 43
-0.123224 0.068731 -0.040038 -0.932201 -0.324553 -0.160209 168 98 43
-0.110215 0.086333 0.080076 -0.483572 -0.568473 0.665580 168 98 43
-0.083357 0.104060 0.114730 -0.483572 -0.568473 0.665580 168 98 43
-0.120635 0.104060 0.087646 -0.483572 -0.568473 0.665580 168 98 43
-0.064507 0.082226 0.088787 0.010811 -0.881359 -0.472323 168 98 43
-0.110215 0.086333 0.080076 0.010811 -0.881359 -0.472323 168 98 43
-0.093356 0.093104 0.067827 0.010811 -0.881359 -0.472323 168 98 43
-0.093356 0.093104 0.067827 0.587785 0.000000 -0.809017 168 98 43
-0.093356 0.115016 0.067827 0.587785 0.000000 -0.809017 168 98 43
-0.110215 0.121787 0.080076 0.010811 0.881359 -0.472323 168 98 43
-0.064507 0.125894 0.088787 0.010811 0.881359 -0.472323 168 98 43
-0.093356 0.115016 0.067827 0.010811 0.881359 -0.472323 168 98 43
-0.083357 0.104060 0.114730 -0.483572 0.568473 0.665580 168 98 43
-0.110215 0.121787 0.080076 -0.483572 0.568473 0.665580 168 98 43
-0.120635 0.104060 0.087646 -0.483572 0.568473 0.665580 168 98 43
-0.136233 0.086333 0.000000 -0.782436 -0.568473 0.254229 168 98 43
-0.134874 0.104060 0.043823 -0.782436 -0.568473 0.254229 168 98 43
-0.149113 0.104060 0.000000 -0.782436 -0.568473 0.254229 168 98 43
-0.104375 0.082226 0.033914 0.286370 -0.881359 -0.375763 168 98 43
-0.136233 0.086333 0.000000 0.286370 -0.881359 -0.375763 168 98 43
-0.115394 0.093104 0.000000 0.286370 -0.881359 -0.375763 168 98 43
-0.104375 0.125894 0.033914 0.951057 0.000000 -0.309017 168 98 43
-0.115394 0.093104 0.000000 0.951057 0.000000 -0.309017 168 98 43
-0.115394 0.115016 0.000000 0.951057 0.000000 -0.309017 168 98 43
-0.136233 0.121787 0.000000 0.286370 0.881359 -0.375763 168 98 43
-0.104375 0.125894 0.033914 0.286370 0.881359 -0.375763 168 98 43
-0.115394 0.115016 0.000000 0.286370 0.881359 -0.375763 168 98 43
-0.134874 0.104060 0.043823 -0.782436 0.568473 0.254229 168 98 43
-0.136233 0.121787 0.000000 -0.782436 0.568473 0.254229 168 98 43
-0.149113 0.104060 0.000000 -0.782436 0.568473 0.254229 168 98 43
-0.042098 0.086333 0.129566 0.000000 -0.568473 0.822702 168 98 43
-0.000000 0.104060 0.141815 0.000000 -0.568473 0.822702 168 98 43
-0.046078 0.104060 0.141815 0.000000 -0.568473 0.822702 168 98 43
-0.000000 0.082226 0.109746 -0.268879 -0.881359 -0.388472 168 98 43
-0.042098 0.086333 0.129566 -0.268879 -0.881359 -0.388472 168 98 43
-0.035659 0.093104 0.109746 -0.268879 -0.881359 -0.388472 168 98 43
-0.035659 0.093104 0.109746 0.000000 0.000000 -1.000000 168 98 43
-0.035659 0.115016 0.109746 0.000000 0.000000 -1.000000 168 98 43
-0.042098 0.121787 0.129566 -0.268879 0.881359 -0.388472 168 98 43
-0.000000 0.125894 0.109746 -0.268879 0.881359 -0.388472 168 98 43
-0.035659 0.115016 0.109746 -0.268879 0.881359 -0.388472 168 98 43
-0.000000 0.104060 0.141815 0.000000 0.568473 0.822702 168 98 43
-0.042098 0.121787 0.129566 0.000000 0.568473 0.822702 168 98 43
-0.046078 0.104060 0.141815 0.000000 0.568473 0.822702 168 98 43
0.042098 0.086333 0.129566 0.483572 -0.568473 0.665580 168 98 43
0.083357 0.104060 0.114730 0.483572 -0.568473 0.665580 168 98 43
0.046078 0.104060 0.141815 0.483572 -0.568473 0.665580 168 98 43
0.064507 0.082226 0.088787 -0.445865 -0.881359 -0.156237 168 98 43
0.042098 0.086333 0.129566 -0.445865 -0.881359 -0.156237 168 98 43
0.035659 0.093104 0.109746 -0.445865 -0.881359 -0.156237 168 98 43
0.035659 0.093104 0.109746 -0.587785 -0.000000 -0.809017 168 98 43
0.035659 0.115016 0.109746 -0.587785 -0.000000 -0.809017 168 98 43
0.042098 0.121787 0.129566 -0.445865 0.881359 -0.156237 168 98 43
0.064507 0.125894 0.088787 -0.445865 0.881359 -0.156237 168 98 43
0.035659 0.115016 0.109746 -0.445865 0.881359 -0.156237 168 98 43
0.083357 0.104060 0.114730 0.483572 0.568473 0.665580 168 98 43
0.042098 0.121787 0.129566 0.483572 0.568473 0.665580 168 98 43
0.046078 0.104060 0.141815 0.483572 0.568473 0.665580 168 98 43
0.110215 0.086333 0.080076 0.782436 -0.568473 0.254229 168 98 43
0.134874 0.104060 0.043823 0.782436 -0.568473 0.254229 168 98 43
0.120635 0.104060 0.087646 0.782436 -0.568473 0.254229 168 98 43
0.104375 0.082226 0.033913 -0.452547 -0.881359 0.135675 168 98 43
0.110215 0.086333 0.080076 -0.452547 -0.881359 0.135675 168 98 43
0.093356 0.093104 0.067827 -0.452547 -0.881359 0.135675 168 98 43
0.104375 0.125894 0.033913 -0.951056 -0.000000 -0.309017 168 98 43
0.093356 0.093104 0.067827 -0.951056 -0.000000 -0.309017 168 98 43
0.093356 0.115016 0.067827 -0.951056 -0.000000 -0.309017 168 98 43
0.110215 0.121787 0.080076 -0.452547 0.881359 0.135675 168 98 43
0.104375 0.125894 0.033913 -0.452547 0.881359 0.135675 168 98 43
0.093356 0.115016 0.067827 -0.452547 0.881359 0.135675 168 98 43
0.134874 0.104060 0.043823 0.782436 0.568473 0.254229 168 98 43
0.110215 0.121787 0.080076 0.782436 0.568473 0.254229 168 98 43
0.120635 0.104060 0.087646 0.782436 0.568473 0.254229 168 98 43
0.136233 0.086333 0.000000 0.782436 -0.568473 -0.254229 168 98 43
0.134874 0.104060 -0.043823 0.782436 -0.568473 -0.254229 168 98 43
0.149113 0.104060 0.000000 0.782436 -0.568473 -0.254229 168 98 43
0.104375 0.082226 -0.033913 -0.286371 -0.881359 0.375763 168 98 43
0.136233 0.086333 0.000000 -0.286371 -0.881359 0.375763 168 98 43
0.115394 0.093104 0.000000 -0.286371 -0.881359 0.375763 168 98 43
0.115394 0.093104 0.000000 -0.951057 0.000000 0.309017 168 98 43
0.115394 0.115016 0.000000 -0.951057 0.000000 0.309017 168 98 43
0.136233 0.121787 0.000000 -0.286370 0.881359 0.375763 168 98 43
0.104375 0.125894 -0.033913 -0.286370 0.881359 0.375763 168 98 43
0.115394 0.115016 0.000000 -0.286370 0.881359 0.375763 168 98 43
0.134874 0.104060 -0.043823 0.782436 0.568473 -0.254229 168 98 43
0.136233 0.121787 0.000000 0.782436 0.568473 -0.254229 168 98 43
0.149113 0.104060 0.000000 0.782436 0.568473 -0.254229 168 98 43
0.110215 0.086333 -0.080076 0.483572 -0.568473 -0.665580 168 98 43
0.083357 0.104060 -0.114730 0.483572 -0.568473 -0.665580 168 98 43
0.120635 0.104060 -0.087646 0.483572 -0.568473 -0.665580 168 98 43
0.064507 0.082226 -0.088787 -0.010811 -0.881359 0.472323 168 98 43
0.110215 0.086333 -0.080076 -0.010811 -0.881359 0.472323 168 98 43
0.093356 0.093104 -0.067827 -0.010811 -0.881359 0.472323 168 98 43
0.093356 0.093104 -0.067827 -0.587785 0.000000 0.809017 168 98 43
0.093356 0.115016 -0.067827 -0.587785 0.000000 0.809017 168 98 43
0.110215 0.121787 -0.080076 -0.010811 0.881359 0.472323 168 98 43
0.064507 0.125894 -0.088787 -0.010811 0.881359 0.472323 168 98 43
0.093356 0.115016 -0.067827 -0.010811 0.881359 0.472323 168 98 43
0.083357 0.104060 -0.114730 0.483572 0.568473 -0.665580 168 98 43
0.110215 0.121787 -0.080076 0.483572 0.568473 -0.665580 168 98 43
0.120635 0.104060 -0.087646 0.483572 0.568473 -0.665580 168 98 43
0.042098 0.086333 -0.129566 -0.000000 -0.568473 -0.822702 168 98 43
-0.000000 0.104060 -0.141815 -0.000000 -0.568473 -0.822702 168 98 43
0.046078 0.104060 -0.141815 -0.000000 -0.568473 -0.822702 168 98 43
-0.000000 0.082226 -0.109746 0.268879 -0.881359 0.388472 168 98 43
0.042098 0.086333 -0.129566 0.268879 -0.881359 0.388472 168 98 43
0.035659 0.093104 -0.109746 0.268879 -0.881359 0.388472 168 98 43
0.035659 0.093104 -0.109746 0.000000 0.000000 1.000000 168 98 43
0.035659 0.115016 -0.109746 0.000000 0.000000 1.000000 168 98 43
0.042098 0.121787 -0.129566 0.268879 0.881359 0.388472 168 98 43
-0.000000 0.125894 -0.109746 0.268879 0.881359 0.388472 168 98 43
0.035659 0.115016 -0.109746 0.268879 0.881359 0.388472 168 98 43
-0.000000 0.104060 -0.141815 0.000000 0.568473 -0.822702 168 98 43
0.042098 0.121787 -0.129566 0.000000 0.568473 -0.822702 168 98 43
0.046078 0.104060 -0.141815 0.000000 0.568473 -0.822702 168 98 43
-0.042098 0.086333 -0.129566 -0.483572 -0.568473 -0.665580 168 98 43
-0.083356 0.104060 -0.114730 -0.483572 -0.568473 -0.665580 168 98 43
-0.046078 0.104060 -0.141815 -0.483572 -0.568473 -0.665580 168 98 43
-0.064507 0.082226 -0.088787 0.445865 -0.881359 0.156237 168 98 43
-0.042098 0.086333 -0.129566 0.445865 -0.881359 0.156237 168 98 43
-0.035659 0.093104 -0.109746 0.445865 -0.881359 0.156237 168 98 43
-0.035659 0.093104 -0.109746 0.587785 0.000000 0.809017 168 98 43
-0.035659 0.115016 -0.109746 0.587785 0.000000 0.809017 168 98 43
-0.042098 0.121787 -0.129566 0.445865 0.881359 0.156237 168 98 43
-0.064507 0.125894 -0.088787 0.445865 0.881359 0.156237 168 98 43
-0.035659 0.115016 -0.109746 0.445865 0.881359 0.156237 168 98 43
-0.083356 0.104060 -0.114730 -0.483572 0.568473 -0.665580 168 98 43
-0.042098 0.121787 -0.129566 -0.483572 0.568473 -0.665580 168 98 43
-0.046078 0.104060 -0.141815 -0.483572 0.568473 -0.665580 168 98 43
-0.110215 0.086333 -0.080076 -0.782436 -0.568473 -0.254229 168 98 43
-0.134874 0.104060 -0.043823 -0.782436 -0.568473 -0.254229 168 98 43
-0.120635 0.104060 -0.087646 -0.782436 -0.568473 -0.254229 168 98 43
-0.104375 0.082226 -0.033914 0.452547 -0.881359 -0.135674 168 98 43
-0.110215 0.086333 -0.080076 0.452547 -0.881359 -0.135674 168 98 43
-0.093356 0.093104 -0.067827 0.452547 -0.881359 -0.135674 168 98 43
-0.093356 0.093104 -0.067827 0.951056 0.000000 0.309017 168 98 43
-0.093356 0.115016 -0.067827 0.951056 0.000000 0.309017 168 98 43
-0.110215 0.121787 -0.080076 0.452547 0.881359 -0.135674 168 98 43
-0.104375 0.125894 -0.033914 0.452547 0.881359 -0.135674 168 98 43
-0.093356 0.115016 -0.067827 0.452547 0.881359 -0.135674 168 98 43
-0.134874 0.104060 -0.043823 -0.782436 0.568473 -0.254229 168 98 43
-0.110215 0.121787 -0.080076 -0.782436 0.568473 -0.254229 168 98 43
-0.120635 0.104060 -0.087646 -0.782436 0.568473 -0.254229 168 98 43
-0.120635 0.104060 0.087646 -0.782436 0.568473 0.254229 168 98 43
-0.110215 0.121787 0.080076 -0.782436 0.568473 0.254229 168 98 43
-0.110215 0.121787 0.080076 0.452547 0.881359 0.135674 168 98 43
-0.093356 0.115016 0.067827 0.452547 0.881359 0.135674 168 98 43
-0.104375 0.125894 0.033914 0.452547 0.881359 0.135674 168 98 43
-0.093356 0.093104 0.067827 0.951056 0.000000 -0.309017 168 98 43
-0.104375 0.082226 0.033914 0.452547 -0.881359 0.135674 168 98 43
-0.093356 0.093104 0.067827 0.452547 -0.881359 0.135674 168 98 43
-0.110215 0.086333 0.080076 0.452547 -0.881359 0.135674 168 98 43
-0.110215 0.086333 0.080076 -0.782436 -0.568473 0.254229 168 98 43
-0.120635 0.104060 0.087646 -0.782436 -0.568473 0.254229 168 98 43
-0.046078 0.104060 0.141815 -0.483572 0.568473 0.665580 168 98 43
-0.042098 0.121787 0.129566 -0.483572 0.568473 0.665580 168 98 43
-0.042098 0.121787 0.129566 0.445865 0.881359 -0.156237 168 98 43
-0.035659 0.115016 0.109746 0.445865 0.881359 -0.156237 168 98 43
-0.064507 0.125894 0.088787 0.445865 0.881359 -0.156237 168 98 43
-0.035659 0.093104 0.109746 0.587785 0.000000 -0.809017 168 98 43
-0.064507 0.082226 0.088787 0.445865 -0.881359 -0.156237 168 98 43
-0.035659 0.093104 0.109746 0.445865 -0.881359 -0.156237 168 98 43
-0.042098 0.086333 0.129566 0.445865 -0.881359 -0.156237 168 98 43
-0.042098 0.086333 0.129566 -0.483572 -0.568473 0.665580 168 98 43
-0.046078 0.104060 0.141815 -0.483572 -0.568473 0.665580 168 98 43
0.046078 0.104060 0.141815 0.000000 0.568473 0.822702 168 98 43
0.042098 0.121787 0.129566 0.000000 0.568473 0.822702 168 98 43
0.042098 0.121787 0.129566 0.268878 0.881359 -0.388472 168 98 43
0.035659 0.115016 0.109746 0.268878 0.881359 -0.388472 168 98 43
-0.000000 0.125894 0.109746 0.268878 0.881359 -0.388472 168 98 43
0.035659 0.093104 0.109746 0.000000 0.000000 -1.000000 168 98 43
-0.000000 0.082226 0.109746 0.268878 -0.881359 -0.388472 168 98 43
0.035659 0.093104 0.109746 0.268878 -0.881359 -0.388472 168 98 43
0.042098 0.086333 0.129566 0.268878 -0.881359 -0.388472 168 98 43
0.042098 0.086333 0.129566 0.000000 -0.568473 0.822702 168 98 43
0.046078 0.104060 0.141815 0.000000 -0.568473 0.822702 168 98 43
0.120635 0.104060 0.087646 0.483572 0.568473 0.665580 168 98 43
0.110215 0.121787 0.080076 0.483572 0.568473 0.665580 168 98 43
0.110215 0.121787 0.080076 -0.010811 0.881359 -0.472323 168 98 43
0.093356 0.115016 0.067827 -0.010811 0.881359 -0.472323 168 98 43
0.064507 0.125894 0.088787 -0.010811 0.881359 -0.472323 168 98 43
0.093356 0.093104 0.067827 -0.587785 0.000000 -0.809017 168 98 43
0.064507 0.082226 0.088787 -0.010811 -0.881359 -0.472323 168 98 43
0.093356 0.093104 0.067827 -0.010811 -0.881359 -0.472323 168 98 43
0.110215 0.086333 0.080076 -0.010811 -0.881359 -0.472323 168 98 43
0.110215 0.086333 0.080076 0.483572 -0.568473 0.665580 168 98 43
0.120635 0.104060 0.087646 0.483572 -0.568473 0.665580 168 98 43
0.149113 0.104060 0.000000 0.782436 0.568473 0.254229 168 98 43
0.136233 0.121787 0.000000 0.782436 0.568473 0.254229 168 98 43
0.136233 0.121787 0.000000 -0.286370 0.881359 -0.375763 168 98 43
0.115394 0.115016 0.000000 -0.286370 0.881359 -0.375763 168 98 43
0.104375 0.125894 0.033913 -0.286370 0.881359 -0.375763 168 98 43
0.115394 0.093104 0.000000 -0.951057 0.000000 -0.309017 168 98 43
0.104375 0.082226 0.033913 -0.286370 -0.881359 -0.375763 168 98 43
0.115394 0.093104 0.000000 -0.286370 -0.881359 -0.375763 168 98 43
0.136233 0.086333 0.000000 -0.286370 -0.881359 -0.375763 168 98 43
0.136233 0.086333 0.000000 0.782436 -0.568473 0.254229 168 98 43
0.149113 0.104060 0.000000 0.782436 -0.568473 0.254229 168 98 43
0.120635 0.104060 -0.087646 0.782436 0.568473 -0.254229 168 98 43
0.110215 0.121787 -0.080076 0.782436 0.568473 -0.254229 168 98 43
0.110215 0.121787 -0.080076 -0.452547 0.881359 -0.135675 168 98 43
0.093356 0.115016 -0.067827 -0.452547 0.881359 -0.135675 168 98 43
0.104375 0.125894 -0.033913 -0.452547 0.881359 -0.135675 168 98 43
0.093356 0.093104 -0.067827 -0.951057 0.000000 0.309017 168 98 43
0.104375 0.082226 -0.033913 -0.452547 -0.881359 -0.135675 168 98 43
0.093356 0.093104 -0.067827 -0.452547 -0.881359 -0.135675 168 98 43
0.110215 0.086333 -0.080076 -0.452547 -0.881359 -0.135675 168 98 43
0.110215 0.086333 -0.080076 0.782436 -0.568473 -0.254229 168 98 43
0.120635 0.104060 -0.087646 0.782436 -0.568473 -0.254229 168 98 43
0.046078 0.104060 -0.141815 0.483572 0.568473 -0.665580 168 98 43
0.042098 0.121787 -0.129566 0.483572 0.568473 -0.665580 168 98 43
0.042098 0.121787 -0.129566 -0.445865 0.881359 0.156237 168 98 43
0.035659 0.115016 -0.109746 -0.445865 0.881359 0.156237 168 98 43
0.064507 0.125894 -0.088787 -0.445865 0.881359 0.156237 168 98 43
0.035659 0.093104 -0.109746 -0.587785 0.000000 0.809017 168 98 43
0.064507 0.082226 -0.088787 -0.445865 -0.881359 0.156237 168 98 43
0.035659 0.093104 -0.109746 -0.445865 -0.881359 0.156237 168 98 43
0.042098 0.086333 -0.129566 -0.445865 -0.881359 0.156237 168 98 43
0.042098 0.086333 -0.129566 0.483572 -0.568473 -0.665580 168 98 43
0.046078 0.104060 -0.141815 0.483572 -0.568473 -0.665580 168 98 43
-0.046078 0.104060 -0.141815 0.000000 0.568473 -0.822702 168 98 43
-0.042098 0.121787 -0.129566 0.000000 0.568473 -0.822702 168 98 43
-0.042098 0.121787 -0.129566 -0.268879 0.881359 0.388472 168 98 43
-0.035659 0.115016 -0.109746 -0.268879 0.881359 0.388472 168 98 43
-0.000000 0.125894 -0.109746 -0.268879 0.881359 0.388472 168 98 43
-0.035659 0.093104 -0.109746 0.000000 -0.000000 1.000000 168 98 43
-0.000000 0.082226 -0.109746 -0.268879 -0.881359 0.388472 168 98 43
-0.035659 0.093104 -0.109746 -0.268879 -0.881359 0.388472 168 98 43
-0.042098 0.086333 -0.129566 -0.268879 -0.881359 0.388472 168 98 43
-0.042098 0.086333 -0.129566 -0.000000 -0.568473 -0.822702 168 98 43
-0.046078 0.104060 -0.141815 -0.000000 -0.568473 -0.822702 168 98 43
-0.120635 0.104060 -0.087646 -0.483572 0.568473 -0.665580 168 98 43
-0.110215 0.121787 -0.080076 -0.483572 0.568473 -0.665580 168 98 43
-0.110215 0.121787 -0.080076 0.010810 0.881359 0.472323 168 98 43
-0.093356 0.115016 -0.067827 0.010810 0.881359 0.472323 168 98 43
-0.064507 0.125894 -0.088787 0.010810 0.881359 0.472323 168 98 43
-0.093356 0.093104 -0.067827 0.587785 -0.000000 0.809017 168 98 43
-0.064507 0.082226 -0.088787 0.010810 -0.881359 0.472323 168 98 43
-0.093356 0.093104 -0.067827 0.010810 -0.881359 0.472323 168 98 43
-0.110215 0.086333 -0.080076 0.010810 -0.881359 0.472323 168 98 43
-0.110215 0.086333 -0.080076 -0.483572 -0.568473 -0.665580 168 98 43
-0.120635 0.104060 -0.087646 -0.483572 -0.568473 -0.665580 168 98 43
-0.134874 0.104060 -0.043823 -0.782436 0.568472 -0.254229 168 98 43
-0.149113 0.104060 0.000000 -0.782436 0.568472 -0.254229 168 98 43
-0.136233 0.121787 0.000000 -0.782436 0.568472 -0.254229 168 98 43
-0.136233 0.121787 0.000000 0.286370 0.881359 0.375763 168 98 43
-0.115394 0.115016 0.000000 0.286370 0.881359 0.375763 168 98 43
-0.104375 0.125894 -0.033914 0.286370 0.881359 0.375763 168 98 43
-0.115394 0.093104 0.000000 0.951056 -0.000000 0.309017 168 98 43
-0.104375 0.082226 -0.033914 0.286370 -0.881359 0.375763 168 98 43
-0.115394 0.093104 0.000000 0.286370 -0.881359 0.375763 168 98 43
-0.136233 0.086333 0.000000 0.286370 -0.881359 0.375763 168 98 43
-0.136233 0.086333 0.000000 -0.782436 -0.568472 -0.254229 168 98 43
-0.149113 0.104060 0.000000 -0.782436 -0.568472 -0.254229 168 98 43
-0.134874 0.104060 -0.043823 -0.782436 -0.568472 -0.254229 168 98 43
-0.110215 0.086333 0.080076 -0.659999 -0.324553 0.677545 168 98 43
-0.076157 0.068731 0.104821 -0.659999 -0.324553 0.677545 168 98 43
-0.083357 0.104060 0.114730 -0.659999 -0.324553 0.677545 168 98 43
-0.064507 0.082226 0.088787 0.048396 -0.781249 -0.622341 168 98 43
-0.076157 0.068731 0.104821 0.048396 -0.781249 -0.622341 168 98 43
-0.110215 0.086333 0.080076 0.048396 -0.781249 -0.622341 168 98 43
-0.110215 0.121787 0.080076 0.048396 0.781249 -0.622341 168 98 43
-0.076157 0.139389 0.104821 0.048396 0.781249 -0.622341 168 98 43
-0.064507 0.125894 0.088787 0.048396 0.781249 -0.622341 168 98 43
-0.083357 0.104060 0.114730 -0.659999 0.324553 0.677545 168 98 43
-0.076157 0.139389 0.104821 -0.659999 0.324553 0.677545 168 98 43
-0.110215 0.121787 0.080076 -0.659999 0.324553 0.677545 168 98 43
-0.136233 0.086333 0.000000 -0.932201 -0.324553 0.160208 168 98 43
-0.123224 0.068731 0.040038 -0.932201 -0.324553 0.160208 168 98 43
-0.134874 0.104060 0.043823 -0.932201 -0.324553 0.160208 168 98 43
-0.104375 0.082226 0.033914 0.404956 -0.781249 -0.475037 168 98 43
-0.123224 0.068731 0.040038 0.404956 -0.781249 -0.475037 168 98 43
-0.136233 0.086333 0.000000 0.404956 -0.781249 -0.475037 168 98 43
-0.104375 0.082226 0.033914 0.951057 0.000000 -0.309017 168 98 43
-0.136233 0.121787 0.000000 0.404956 0.781249 -0.475037 168 98 43
-0.123224 0.139389 0.040038 0.404956 0.781249 -0.475037 168 98 43
-0.104375 0.125894 0.033914 0.404956 0.781249 -0.475037 168 98 43
-0.134874 0.104060 0.043823 -0.932201 0.324553 0.160208 168 98 43
-0.123224 0.139389 0.040038 -0.932201 0.324553 0.160208 168 98 43
-0.136233 0.121787 0.000000 -0.932201 0.324553 0.160208 168 98 43
-0.042098 0.086333 0.129566 -0.135699 -0.324553 0.936083 168 98 43
-0.000000 0.068731 0.129566 -0.135699 -0.324553 0.936083 168 98 43
-0.000000 0.104060 0.141815 -0.135699 -0.324553 0.936083 168 98 43
-0.000000 0.082226 0.109746 -0.326649 -0.781249 -0.531931 168 98 43
-0.000000 0.068731 0.129566 -0.326649 -0.781249 -0.531931 168 98 43
-0.042098 0.086333 0.129566 -0.326649 -0.781249 -0.531931 168 98 43
-0.042098 0.121787 0.129566 -0.326649 0.781249 -0.531931 168 98 43
-0.000000 0.139389 0.129566 -0.326649 0.781249 -0.531931 168 98 43
-0.000000 0.125894 0.109746 -0.326649 0.781249 -0.531931 168 98 43
-0.000000 0.104060 0.141815 -0.135699 0.324553 0.936083 168 98 43
-0.000000 0.139389 0.129566 -0.135699 0.324553 0.936083 168 98 43
-0.042098 0.121787 0.129566 -0.135699 0.324553 0.936083 168 98 43
0.042098 0.086333 0.129566 0.440433 -0.324553 0.837069 168 98 43
0.076157 0.068731 0.104821 0.440433 -0.324553 0.837069 168 98 43
0.083357 0.104060 0.114730 0.440433 -0.324553 0.837069 168 98 43
0.064507 0.082226 0.088787 -0.576926 -0.781249 -0.238342 168 98 43
0.076157 0.068731 0.104821 -0.576926 -0.781249 -0.238342 168 98 43
0.042098 0.086333 0.129566 -0.576926 -0.781249 -0.238342 168 98 43
0.042098 0.121787 0.129566 -0.576926 0.781249 -0.238342 168 98 43
0.076157 0.139389 0.104821 -0.576926 0.781249 -0.238342 168 98 43
0.064507 0.125894 0.088787 -0.576926 0.781249 -0.238342 168 98 43
0.083357 0.104060 0.114730 0.440433 0.324553 0.837069 168 98 43
0.076157 0.139389 0.104821 0.440433 0.324553 0.837069 168 98 43
0.042098 0.121787 0.129566 0.440433 0.324553 0.837069 168 98 43
0.110215 0.086333 0.080076 0.848334 -0.324553 0.418323 168 98 43
0.123224 0.068731 0.040038 0.848334 -0.324553 0.418323 168 98 43
0.134874 0.104060 0.043823 0.848334 -0.324553 0.418323 168 98 43
0.104375 0.082226 0.033913 -0.606837 -0.781249 0.146286 168 98 43
0.123224 0.068731 0.040038 -0.606837 -0.781249 0.146286 168 98 43
0.110215 0.086333 0.080076 -0.606837 -0.781249 0.146286 168 98 43
0.093356 0.093104 0.067827 -0.951057 0.000000 -0.309017 168 98 43
0.110215 0.121787 0.080076 -0.606837 0.781249 0.146286 168 98 43
0.123224 0.139389 0.040038 -0.606837 0.781249 0.146286 168 98 43
0.104375 0.125894 0.033913 -0.606837 0.781249 0.146286 168 98 43
0.134874 0.104060 0.043823 0.848334 0.324553 0.418323 168 98 43
0.123224 0.139389 0.040038 0.848334 0.324553 0.418323 168 98 43
0.110215 0.121787 0.080076 0.848334 0.324553 0.418323 168 98 43
0.136233 0.086333 0.000000 0.932201 -0.324553 -0.160208 168 98 43
0.123224 0.068731 -0.040038 0.932201 -0.324553 -0.160208 168 98 43
0.134874 0.104060 -0.043823 0.932201 -0.324553 -0.160208 168 98 43
0.104375 0.082226 -0.033913 -0.404956 -0.781249 0.475037 168 98 43
0.123224 0.068731 -0.040038 -0.404956 -0.781249 0.475037 168 98 43
0.136233 0.086333 0.000000 -0.404956 -0.781249 0.475037 168 98 43
0.136233 0.121787 0.000000 -0.404956 0.781249 0.475037 168 98 43
0.123224 0.139389 -0.040038 -0.404956 0.781249 0.475037 168 98 43
0.104375 0.125894 -0.033913 -0.404956 0.781249 0.475037 168 98 43
0.134874 0.104060 -0.043823 0.932201 0.324553 -0.160208 168 98 43
0.123224 0.139389 -0.040038 0.932201 0.324553 -0.160208 168 98 43
0.136233 0.121787 0.000000 0.932201 0.324553 -0.160208 168 98 43
0.110215 0.086333 -0.080076 0.659999 -0.324553 -0.677545 168 98 43
0.076157 0.068731 -0.104821 0.659999 -0.324553 -0.677545 168 98 43
0.083357 0.104060 -0.114730 0.659999 -0.324553 -0.677545 168 98 43
0.064507 0.082226 -0.088787 -0.048397 -0.781249 0.622341 168 98 43
0.076157 0.068731 -0.104821 -0.048397 -0.781249 0.622341 168 98 43
0.110215 0.086333 -0.080076 -0.048397 -0.781249 0.622341 168 98 43
0.110215 0.121787 -0.080076 -0.048397 0.781249 0.622341 168 98 43
0.076157 0.139389 -0.104821 -0.048397 0.781249 0.622341 168 98 43
0.064507 0.125894 -0.088787 -0.048397 0.781249 0.622341 168 98 43
0.083357 0.104060 -0.114730 0.659999 0.324553 -0.677545 168 98 43
0.076157 0.139389 -0.104821 0.659999 0.324553 -0.677545 168 98 43
0.110215 0.121787 -0.080076 0.659999 0.324553 -0.677545 168 98 43
0.042098 0.086333 -0.129566 0.135699 -0.324553 -0.936083 168 98 43
-0.000000 0.068731 -0.129566 0.135699 -0.324553 -0.936083 168 98 43
-0.000000 0.104060 -0.141815 0.135699 -0.324553 -0.936083 168 98 43
-0.000000 0.082226 -0.109746 0.326649 -0.781249 0.531931 168 98 43
-0.000000 0.068731 -0.129566 0.326649 -0.781249 0.531931 168 98 43
0.042098 0.086333 -0.129566 0.326649 -0.781249 0.531931 168 98 43
0.042098 0.121787 -0.129566 0.326649 0.781249 0.531931 168 98 43
-0.000000 0.139389 -0.129566 0.326649 0.781249 0.531931 168 98 43
-0.000000 0.125894 -0.109746 0.326649 0.781249 0.531931 168 98 43
-0.000000 0.104060 -0.141815 0.135699 0.324553 -0.936083 168 98 43
-0.000000 0.139389 -0.129566 0.135699 0.324553 -0.936083 168 98 43
0.042098 0.121787 -0.129566 0.135699 0.324553 -0.936083 168 98 43
-0.042098 0.086333 -0.129566 -0.440433 -0.324553 -0.837069 168 98 43
-0.076157 0.068731 -0.104821 -0.440433 -0.324553 -0.837069 168 98 43
-0.083356 0.104060 -0.114730 -0.440433 -0.324553 -0.837069 168 98 43
-0.064507 0.082226 -0.088787 0.576926 -0.781249 0.238342 168 98 43
-0.076157 0.068731 -0.104821 0.576926 -0.781249 0.238342 168 98 43
-0.042098 0.086333 -0.129566 0.576926 -0.781249 0.238342 168 98 43
-0.042098 0.121787 -0.129566 0.576926 0.781249 0.238342 168 98 43
-0.076157 0.139389 -0.104821 0.576926 0.781249 0.238342 168 98 43
-0.064507 0.125894 -0.088787 0.576926 0.781249 0.238342 168 98 43
-0.083356 0.104060 -0.114730 -0.440433 0.324553 -0.837069 168 98 43
-0.076157 0.139389 -0.104821 -0.440433 0.324553 -0.837069 168 98 43
-0.042098 0.121787 -0.129566 -0.440433 0.324553 -0.837069 168 98 43
-0.110215 0.086333 -0.080076 -0.848334 -0.324553 -0.418323 168 98 43
-0.123224 0.068731 -0.040038 -0.848334 -0.324553 -0.418323 168 98 43
-0.134874 0.104060 -0.043823 -0.848334 -0.324553 -0.418323 168 98 43
-0.104375 0.082226 -0.033914 0.606836 -0.781249 -0.146286 168 98 43
-0.123224 0.068731 -0.040038 0.606836 -0.781249 -0.146286 168 98 43
-0.110215 0.086333 -0.080076 0.606836 -0.781249 -0.146286 168 98 43
-0.110215 0.121787 -0.080076 0.606836 0.781249 -0.146286 168 98 43
-0.123224 0.139389 -0.040038 0.606836 0.781249 -0.146286 168 98 43
-0.104375 0.125894 -0.033914 0.606836 0.781249 -0.146286 168 98 43
-0.134874 0.104060 -0.043823 -0.848334 0.324553 -0.418323 168 98 43
-0.123224 0.139389 -0.040038 -0.848334 0.324553 -0.418323 168 98 43
-0.110215 0.121787 -0.080076 -0.848334 0.324553 -0.418323 168 98 43
3 0 1 2
3 3 4 5
3 6 7 8
3 9 10 11
3 12 13 14
3 15 16 17
3 18 19 20
3 21 22 23
3 24 25 26
3 27 28 29
3 30 31 32
3 33 34 35
3 36 37 38
3 39 40 41
3 42 43 44
3 45 46 47
3 48 49 50
3 51 52 53
3 54 55 56
3 57 58 59
3 60 61 62
3 63 64 65
3 66 67 68
3 69 70 71
3 72 73 74
3 75 76 77
3 78 79 80
3 81 82 83
3 84 85 86
3 87 88 89
3 90 91 92
3 93 94 95
3 96 97 98
3 99 100 101
3 102 103 104
3 105 106 107
3 108 109 110
3 111 112 113
3 114 115 116
3 117 118 119
3 120 121 122
3 123 124 125
3 126 127 128
3 129 130 131
3 132 133 134
3 135 136 137
3 138 139 140
3 141 142 143
3 144 145 146
3 147 148 149
3 150 151 152
3 153 154 155
3 23 156 157
3 158 159 160
3 161 162 163
3 164 165 166
3 167 168 169
3 170 171 172
3 173 174 175
3 176 177 178
3 179 180 181
3 182 183 184
3 38 185 186
3 187 188 189
3 190 191 192
3 193 194 195
3 196 197 198
3 53 199 200
3 201 202 203
3 204 205 206
3 207 208 209
3 210 211 212
3 213 214 215
3 216 217 218
3 219 220 221
3 222 223 224
3 225 226 227
3 83 228 229
3 230 231 232
3 233 234 235
3 236 237 238
3 239 240 241
3 98 242 243
3 244 245 246
3 247 248 249
3 250 251 252
3 253 254 255
3 113 256 257
3 258 259 260
3 261 262 263
3 264 265 266
3 267 268 269
3 128 270 271
3 272 273 274
3 275 276 277
3 278 279 280
3 281 282 283
3 143 284 285
3 286 287 288
3 289 290 291
3 176 292 293
3 294 295 296
3 6 297 7
3 298 299 300
3 301 302 165
3 161 303 304
3 305 306 307
3 21 308 22
3 309 310 311
3 312 313 151
3 190 314 315
3 316 317 318
3 36 319 37
3 320 321 322
3 323 324 180
3 204 325 326
3 327 328 329
3 51 330 52
3 331 332 333
3 334 335 194
3 219 336 337
3 338 339 340
3 66 341 67
3 342 343 344
3 345 346 208
3 233 347 348
3 349 350 351
3 81 352 82
3 353 354 355
3 356 357 223
3 247 358 359
3 360 361 362
3 96 363 97
3 364 365 366
3 367 368 237
3 261 369 370
3 371 372 373
3 111 374 112
3 375 376 377
3 378 379 251
3 275 380 381
3 382 383 384
3 126 385 127
3 386 387 388
3 389 390 265
3 391 392 393
3 394 395 396
3 141 397 142
3 398 399 400
3 401 402 403
3 404 405 406
3 407 408 409
3 23 22 156
3 410 411 412
3 413 414 415
3 416 417 418
3 419 420 421
3 170 422 171
3 423 424 425
3 426 427 428
3 429 430 431
3 432 433 434
3 38 37 185
3 435 436 437
3 438 439 440
3 441 442 443
3 444 445 446
3 53 52 199
3 447 448 449
3 450 451 452
3 453 454 455
3 456 457 458
3 68 67 459
3 460 461 462
3 463 464 465
3 466 467 468
3 469 470 471
3 83 82 228
3 472 473 474
3 475 476 477
3 478 479 480
3 481 482 483
3 98 97 242
3 484 485 486
3 487 488 489
3 490 491 492
3 493 494 495
3 113 112 256
3 496 497 498
3 499 500 501
3 502 503 504
3 505 506 507
3 128 127 270
3 508 509 510
3 511 512 513
3 514 515 516
3 517 518 519
3 143 142 284
3 520 521 522
3 523 524 525
