ply
format ascii 1.0
comment Created by Blender 2.77 (sub 0) - www.blender.org, source file: 'Sword.blend'
element vertex 240
property float x
property float y
property float z
property float nx
property float ny
property float nz
property uchar red
property uchar green
property uchar blue
element face 120
property list uchar uint vertex_indices
end_header
-0.056108 0.174991 -0.247195 0.000000 0.548366 -0.836239 75 75 75
0.083700 0.130171 -0.276586 0.000000 0.548366 -0.836239 75 75 75
-0.085459 0.130171 -0.276586 0.000000 0.548366 -0.836239 75 75 75
0.054349 0.175195 -0.134813 0.836288 0.548290 -0.000993 75 75 75
0.083700 0.130171 -0.276586 0.836288 0.548290 -0.000993 75 75 75
0.054349 0.174991 -0.247195 0.836288 0.548290 -0.000993 75 75 75
0.054349 0.175195 -0.134813 0.000000 0.563611 0.826041 75 75 75
-0.085459 0.130738 -0.104480 0.000000 0.563611 0.826041 75 75 75
0.083700 0.130738 -0.104480 0.000000 0.563611 0.826041 75 75 75
-0.056108 0.175195 -0.134813 -0.835097 0.550099 -0.001814 75 75 75
-0.085459 0.130171 -0.276586 -0.835097 0.550099 -0.001814 75 75 75
-0.085459 0.130738 -0.104480 -0.835097 0.550099 -0.001814 75 75 75
-0.085459 0.130738 -0.104480 0.000000 -0.974231 0.225552 75 75 75
0.067742 0.126984 -0.120696 0.000000 -0.974231 0.225552 75 75 75
0.083700 0.130738 -0.104480 0.000000 -0.974231 0.225552 75 75 75
-0.085459 0.130738 -0.104480 -0.225924 -0.974140 0.003212 75 75 75
-0.069501 0.126524 -0.260332 -0.225924 -0.974140 0.003212 75 75 75
-0.069501 0.126984 -0.120696 -0.225924 -0.974140 0.003212 75 75 75
0.083700 0.429259 -0.106028 0.000000 0.975739 0.218938 75 75 75
-0.069501 0.432906 -0.122283 0.000000 0.975739 0.218938 75 75 75
-0.085459 0.429259 -0.106028 0.000000 0.975739 0.218938 75 75 75
0.083700 0.130171 -0.276586 0.000000 -0.975739 -0.218939 75 75 75
-0.069501 0.126524 -0.260332 0.000000 -0.975739 -0.218939 75 75 75
-0.085459 0.130171 -0.276586 0.000000 -0.975739 -0.218939 75 75 75
0.083700 0.428691 -0.278135 0.000000 0.974232 -0.225549 75 75 75
-0.069501 0.432446 -0.261918 0.000000 0.974232 -0.225549 75 75 75
0.067742 0.432446 -0.261918 0.000000 0.974232 -0.225549 75 75 75
-0.085459 0.428691 -0.278135 -0.225922 0.974140 -0.003212 75 75 75
-0.069501 0.432906 -0.122283 -0.225922 0.974140 -0.003212 75 75 75
-0.069501 0.432446 -0.261918 -0.225922 0.974140 -0.003212 75 75 75
0.083700 0.130738 -0.104480 0.226555 -0.973993 0.003212 75 75 75
0.067742 0.126524 -0.257020 0.226555 -0.973993 0.003212 75 75 75
0.083700 0.130171 -0.276586 0.226555 -0.973993 0.003212 75 75 75
0.083700 0.428691 -0.278135 0.225924 0.974140 -0.003212 75 75 75
0.067742 0.432906 -0.122283 0.225924 0.974140 -0.003212 75 75 75
0.083700 0.429259 -0.106028 0.225924 0.974140 -0.003212 75 75 75
-0.085459 0.429259 -0.106028 -0.836288 -0.548290 0.000993 75 75 75
-0.056108 0.384235 -0.247802 -0.836288 -0.548290 0.000993 75 75 75
-0.056108 0.384438 -0.135420 -0.836288 -0.548290 0.000993 75 75 75
-0.056108 0.384438 -0.135420 -1.000000 0.000000 0.000000 75 75 75
-0.056108 0.320215 -0.247600 -1.000000 0.000000 0.000000 75 75 75
-0.056108 0.320993 -0.135217 -1.000000 0.000000 0.000000 75 75 75
-0.056108 0.238437 -0.247397 -1.000000 0.000000 0.000000 75 75 75
-0.056108 0.239214 -0.135015 -1.000000 0.000000 0.000000 75 75 75
-0.056108 0.174991 -0.247195 -1.000000 0.000000 0.000000 75 75 75
-0.056108 0.175195 -0.134813 -1.000000 0.000000 0.000000 75 75 75
-0.085459 0.429259 -0.106028 0.000000 -0.548366 0.836238 75 75 75
0.054349 0.384438 -0.135420 0.000000 -0.548366 0.836238 75 75 75
0.083700 0.429259 -0.106028 0.000000 -0.548366 0.836238 75 75 75
-0.056108 0.384438 -0.135420 0.000000 0.003187 0.999995 75 75 75
0.054349 0.320993 -0.135217 0.000000 0.003187 0.999995 75 75 75
0.054349 0.384438 -0.135420 0.000000 0.003187 0.999995 75 75 75
-0.056108 0.320993 -0.135217 0.000000 0.002472 0.999997 75 75 75
0.054349 0.239214 -0.135015 0.000000 0.002472 0.999997 75 75 75
0.054349 0.320993 -0.135217 0.000000 0.002472 0.999997 75 75 75
-0.056108 0.239214 -0.135015 0.000000 0.003158 0.999995 75 75 75
0.054349 0.175195 -0.134813 0.000000 0.003158 0.999995 75 75 75
0.054349 0.239214 -0.135015 0.000000 0.003158 0.999995 75 75 75
0.083700 0.429259 -0.106028 0.835098 -0.550099 0.001814 75 75 75
0.054349 0.384235 -0.247802 0.835098 -0.550099 0.001814 75 75 75
0.083700 0.428691 -0.278135 0.835098 -0.550099 0.001814 75 75 75
0.054349 0.384438 -0.135420 1.000000 -0.000000 -0.000000 75 75 75
0.054349 0.320215 -0.247600 1.000000 -0.000000 -0.000000 75 75 75
0.054349 0.384235 -0.247802 1.000000 -0.000000 -0.000000 75 75 75
0.054349 0.320993 -0.135217 1.000000 -0.000000 -0.000000 75 75 75
0.054349 0.238437 -0.247397 1.000000 -0.000000 -0.000000 75 75 75
0.054349 0.239214 -0.135015 1.000000 -0.000000 -0.000000 75 75 75
0.054349 0.174991 -0.247195 1.000000 -0.000000 -0.000000 75 75 75
0.083700 0.428691 -0.278135 0.000000 -0.563611 -0.826041 75 75 75
-0.056108 0.384235 -0.247802 0.000000 -0.563611 -0.826041 75 75 75
-0.085459 0.428691 -0.278135 0.000000 -0.563611 -0.826041 75 75 75
0.054349 0.384235 -0.247802 0.000000 -0.003158 -0.999995 75 75 75
-0.056108 0.320215 -0.247600 0.000000 -0.003158 -0.999995 75 75 75
-0.056108 0.384235 -0.247802 0.000000 -0.003158 -0.999995 75 75 75
0.054349 0.320215 -0.247600 0.000000 -0.002472 -0.999997 75 75 75
-0.056108 0.238437 -0.247397 0.000000 -0.002472 -0.999997 75 75 75
-0.056108 0.320215 -0.247600 0.000000 -0.002472 -0.999997 75 75 75
0.054349 0.238437 -0.247397 0.000000 -0.003187 -0.999995 75 75 75
-0.056108 0.174991 -0.247195 0.000000 -0.003187 -0.999995 75 75 75
-0.056108 0.238437 -0.247397 0.000000 -0.003187 -0.999995 75 75 75
0.014017 1.025711 0.094386 0.000000 -0.000000 -1.000000 255 255 255
-0.003465 -0.449503 0.094386 0.000000 -0.000000 -1.000000 255 255 255
-0.003465 1.025711 0.094386 0.000000 -0.000000 -1.000000 255 255 255
0.014017 1.025711 0.123501 1.000000 -0.000000 -0.000000 255 255 255
0.014017 -0.449503 0.094386 1.000000 -0.000000 -0.000000 255 255 255
0.014017 1.025711 0.094386 1.000000 -0.000000 -0.000000 255 255 255
-0.003465 1.025711 0.123501 0.000000 0.000000 1.000000 255 255 255
0.014017 -0.449503 0.123502 0.000000 0.000000 1.000000 255 255 255
0.014017 1.025711 0.123501 0.000000 0.000000 1.000000 255 255 255
-0.003465 1.025711 0.123501 -1.000000 0.000000 0.000000 255 255 255
-0.003465 -0.449503 0.094386 -1.000000 0.000000 0.000000 255 255 255
-0.003465 -0.449503 0.123502 -1.000000 0.000000 0.000000 255 255 255
-0.003465 -0.449503 0.094386 0.000000 -1.000000 -0.000000 255 255 255
0.014017 -0.449503 0.123502 0.000000 -1.000000 -0.000000 255 255 255
-0.003465 -0.449503 0.123502 0.000000 -1.000000 -0.000000 255 255 255
0.014017 1.025711 0.123501 -0.000000 1.000000 0.000000 255 255 255
-0.003465 1.025711 0.094386 -0.000000 1.000000 0.000000 255 255 255
-0.003465 1.025711 0.123501 -0.000000 1.000000 0.000000 255 255 255
-0.069501 0.126984 -0.120696 0.000000 -0.683594 0.729862 145 107 88
0.067742 0.022587 -0.218475 0.000000 -0.683594 0.729862 145 107 88
0.067742 0.126984 -0.120696 0.000000 -0.683594 0.729862 145 107 88
-0.069501 0.126524 -0.260332 -1.000000 0.000000 0.000000 145 107 88
-0.069501 0.022587 -0.218475 -1.000000 0.000000 0.000000 145 107 88
-0.069501 0.126984 -0.120696 -1.000000 0.000000 0.000000 145 107 88
0.067742 0.537304 -0.220297 1.000000 0.000000 -0.000000 145 107 88
0.067742 0.805869 -0.154820 1.000000 0.000000 -0.000000 145 107 88
0.067742 0.806329 -0.015185 1.000000 0.000000 -0.000000 145 107 88
-0.069501 0.537304 -0.220297 0.000000 -0.606304 0.795233 145 107 88
0.067742 0.806329 -0.015185 0.000000 -0.606304 0.795233 145 107 88
-0.069501 0.806329 -0.015185 0.000000 -0.606304 0.795233 145 107 88
0.067742 0.126524 -0.257020 1.000000 0.000000 -0.000000 145 107 88
0.067742 0.022587 -0.218475 1.000000 0.000000 -0.000000 145 107 88
0.067742 0.022126 -0.358111 1.000000 0.000000 -0.000000 145 107 88
-0.069501 0.126524 -0.260332 0.000000 0.683594 -0.729863 145 107 88
0.067742 0.022126 -0.358111 0.000000 0.683594 -0.729863 145 107 88
-0.069501 0.022126 -0.358111 0.000000 0.683594 -0.729863 145 107 88
-0.069501 0.432446 -0.261918 -1.000000 -0.000000 0.000000 145 107 88
-0.069501 0.537304 -0.220297 -1.000000 -0.000000 0.000000 145 107 88
-0.069501 0.536843 -0.359932 -1.000000 -0.000000 0.000000 145 107 88
0.067742 0.432906 -0.122283 0.000000 0.684465 0.729046 145 107 88
-0.069501 0.537304 -0.220297 0.000000 0.684465 0.729046 145 107 88
-0.069501 0.432906 -0.122283 0.000000 0.684465 0.729046 145 107 88
0.067742 0.432446 -0.261918 1.000000 0.000000 -0.000000 145 107 88
0.067742 0.432906 -0.122283 1.000000 0.000000 -0.000000 145 107 88
-0.069501 0.432446 -0.261918 0.000000 -0.684465 -0.729046 145 107 88
0.067742 0.536843 -0.359932 0.000000 -0.684465 -0.729046 145 107 88
0.067742 0.432446 -0.261918 0.000000 -0.684465 -0.729046 145 107 88
-0.069501 0.806329 -0.015185 0.000000 -0.668577 0.743643 145 107 88
0.067742 1.075750 0.227039 0.000000 -0.668577 0.743643 145 107 88
-0.069501 1.075750 0.227039 0.000000 -0.668577 0.743643 145 107 88
-0.069501 0.806329 -0.015185 -1.000000 -0.000000 0.000000 145 107 88
-0.069501 1.075289 0.087404 -1.000000 -0.000000 0.000000 145 107 88
-0.069501 0.805869 -0.154820 -1.000000 -0.000000 0.000000 145 107 88
-0.069501 0.536843 -0.359932 0.000000 0.606304 -0.795233 145 107 88
0.067742 0.805869 -0.154820 0.000000 0.606304 -0.795233 145 107 88
0.067742 0.536843 -0.359932 0.000000 0.606304 -0.795233 145 107 88
-0.069501 -0.246900 -0.152395 -1.000000 -0.000000 0.000000 145 107 88
-0.069501 -0.246439 -0.012760 -1.000000 -0.000000 0.000000 145 107 88
-0.069501 0.022587 -0.218475 0.000000 0.607432 0.794372 145 107 88
0.067742 -0.246439 -0.012760 0.000000 0.607432 0.794372 145 107 88
0.067742 0.022587 -0.218475 0.000000 0.607432 0.794372 145 107 88
0.067742 -0.246900 -0.152395 1.000000 -0.000000 0.000000 145 107 88
-0.069501 0.022126 -0.358111 -0.000000 -0.607432 -0.794372 145 107 88
0.067742 -0.246900 -0.152395 -0.000000 -0.607432 -0.794372 145 107 88
-0.069501 -0.246900 -0.152395 -0.000000 -0.607432 -0.794372 145 107 88
-0.069501 1.075750 0.227039 0.000000 0.999995 -0.003299 145 107 88
0.067742 1.075289 0.087404 0.000000 0.999995 -0.003299 145 107 88
-0.069501 1.075289 0.087404 0.000000 0.999995 -0.003299 145 107 88
0.067742 -0.515859 0.230069 0.000000 -0.999995 0.003297 145 107 88
-0.069501 -0.516320 0.090434 0.000000 -0.999995 0.003297 145 107 88
0.067742 -0.516320 0.090434 0.000000 -0.999995 0.003297 145 107 88
0.067742 1.075289 0.087404 1.000000 0.000000 -0.000000 145 107 88
0.067742 1.075750 0.227039 1.000000 0.000000 -0.000000 145 107 88
-0.069501 0.805869 -0.154820 0.000000 0.668577 -0.743642 145 107 88
0.067742 1.075289 0.087404 0.000000 0.668577 -0.743642 145 107 88
0.067742 0.805869 -0.154820 0.000000 0.668577 -0.743642 145 107 88
-0.069501 -0.516320 0.090434 -1.000000 0.000000 0.000000 145 107 88
-0.069501 -0.515859 0.230069 -1.000000 0.000000 0.000000 145 107 88
-0.069501 -0.246439 -0.012760 0.000000 0.669499 0.742813 145 107 88
0.067742 -0.515859 0.230069 0.000000 0.669499 0.742813 145 107 88
0.067742 -0.246439 -0.012760 0.000000 0.669499 0.742813 145 107 88
0.067742 -0.246439 -0.012760 1.000000 -0.000000 -0.000000 145 107 88
0.067742 -0.516320 0.090434 1.000000 -0.000000 -0.000000 145 107 88
-0.069501 -0.246900 -0.152395 0.000000 -0.669499 -0.742813 145 107 88
0.067742 -0.516320 0.090434 0.000000 -0.669499 -0.742813 145 107 88
-0.069501 -0.516320 0.090434 0.000000 -0.669499 -0.742813 145 107 88
0.054349 0.174991 -0.247195 0.000000 0.548366 -0.836239 75 75 75
0.054349 0.175195 -0.134813 0.835097 0.550099 -0.001814 75 75 75
0.083700 0.130738 -0.104480 0.835097 0.550099 -0.001814 75 75 75
0.083700 0.130171 -0.276586 0.835097 0.550099 -0.001814 75 75 75
0.054349 0.175195 -0.134813 0.000000 0.563610 0.826041 75 75 75
-0.056108 0.175195 -0.134813 0.000000 0.563610 0.826041 75 75 75
-0.085459 0.130738 -0.104480 0.000000 0.563610 0.826041 75 75 75
-0.056108 0.175195 -0.134813 -0.836288 0.548290 -0.000993 75 75 75
-0.056108 0.174991 -0.247195 -0.836288 0.548290 -0.000993 75 75 75
-0.085459 0.130171 -0.276586 -0.836288 0.548290 -0.000993 75 75 75
-0.069501 0.126984 -0.120696 0.000000 -0.974231 0.225552 75 75 75
-0.085459 0.130171 -0.276586 -0.225924 -0.974140 0.003212 75 75 75
0.067742 0.432906 -0.122283 0.000000 0.975739 0.218938 75 75 75
0.083700 0.130171 -0.276586 0.004340 -0.983690 -0.179820 75 75 75
0.067742 0.126524 -0.257020 0.004340 -0.983690 -0.179820 75 75 75
-0.069501 0.126524 -0.260332 0.004340 -0.983690 -0.179820 75 75 75
-0.085459 0.428691 -0.278135 0.000000 0.974232 -0.225549 75 75 75
-0.085459 0.428691 -0.278135 -0.225924 0.974140 -0.003212 75 75 75
-0.085459 0.429259 -0.106028 -0.225924 0.974140 -0.003212 75 75 75
-0.069501 0.432906 -0.122283 -0.225924 0.974140 -0.003212 75 75 75
0.083700 0.130738 -0.104480 0.225849 -0.974157 0.003290 75 75 75
0.067742 0.126984 -0.120696 0.225849 -0.974157 0.003290 75 75 75
0.067742 0.126524 -0.257020 0.225849 -0.974157 0.003290 75 75 75
0.083700 0.428691 -0.278135 0.225922 0.974140 -0.003212 75 75 75
0.067742 0.432446 -0.261918 0.225922 0.974140 -0.003212 75 75 75
0.067742 0.432906 -0.122283 0.225922 0.974140 -0.003212 75 75 75
-0.085459 0.429259 -0.106028 -0.835098 -0.550099 0.001814 75 75 75
-0.085459 0.428691 -0.278135 -0.835098 -0.550099 0.001814 75 75 75
-0.056108 0.384235 -0.247802 -0.835098 -0.550099 0.001814 75 75 75
-0.056108 0.384235 -0.247802 -1.000000 0.000000 0.000000 75 75 75
-0.056108 0.384438 -0.135420 0.000000 -0.548366 0.836238 75 75 75
-0.056108 0.320993 -0.135217 0.000000 0.003187 0.999995 75 75 75
-0.056108 0.239214 -0.135015 0.000000 0.002472 0.999997 75 75 75
-0.056108 0.239214 -0.135015 0.000000 0.003159 0.999995 75 75 75
-0.056108 0.175195 -0.134813 0.000000 0.003159 0.999995 75 75 75
0.054349 0.175195 -0.134813 0.000000 0.003159 0.999995 75 75 75
0.083700 0.429259 -0.106028 0.836288 -0.548290 0.000993 75 75 75
0.054349 0.384438 -0.135420 0.836288 -0.548290 0.000993 75 75 75
0.054349 0.384235 -0.247802 0.836288 -0.548290 0.000993 75 75 75
0.054349 0.175195 -0.134813 1.000000 -0.000000 -0.000000 75 75 75
0.054349 0.384235 -0.247802 0.000000 -0.563611 -0.826041 75 75 75
0.054349 0.320215 -0.247600 0.000000 -0.003158 -0.999995 75 75 75
0.054349 0.238437 -0.247397 0.000000 -0.002472 -0.999997 75 75 75
0.054349 0.174991 -0.247195 0.000000 -0.003187 -0.999995 75 75 75
0.014017 -0.449503 0.094386 0.000000 -0.000000 -1.000000 255 255 255
0.014017 -0.449503 0.123502 1.000000 -0.000000 -0.000000 255 255 255
-0.003465 -0.449503 0.123502 0.000000 0.000000 1.000000 255 255 255
-0.003465 1.025711 0.094386 -1.000000 0.000000 0.000000 255 255 255
0.014017 -0.449503 0.094386 -0.000000 -1.000000 0.000000 255 255 255
0.014017 1.025711 0.094386 0.000000 1.000000 0.000000 255 255 255
-0.069501 0.022587 -0.218475 0.000000 -0.683594 0.729862 145 107 88
-0.069501 0.022126 -0.358111 -1.000000 0.000000 -0.000000 145 107 88
0.067742 0.536843 -0.359932 1.000000 0.000000 -0.000000 145 107 88
0.067742 0.537304 -0.220297 0.000000 -0.606304 0.795233 145 107 88
0.067742 0.126984 -0.120696 1.000000 0.000000 -0.000000 145 107 88
-0.069501 0.126524 -0.260332 0.017334 0.695536 -0.718283 145 107 88
0.067742 0.126524 -0.257020 0.017334 0.695536 -0.718283 145 107 88
0.067742 0.022126 -0.358111 0.017334 0.695536 -0.718283 145 107 88
-0.069501 0.432906 -0.122283 -1.000000 -0.000000 0.000000 145 107 88
0.067742 0.537304 -0.220297 -0.000000 0.684465 0.729046 145 107 88
-0.069501 0.536843 -0.359932 -0.000000 -0.684465 -0.729046 145 107 88
0.067742 0.806329 -0.015185 0.000000 -0.668577 0.743643 145 107 88
-0.069501 1.075750 0.227039 -1.000000 -0.000000 0.000000 145 107 88
-0.069501 0.805869 -0.154820 -0.000000 0.606304 -0.795233 145 107 88
-0.069501 -0.246439 -0.012760 0.000000 0.607432 0.794372 145 107 88
0.067742 0.022126 -0.358111 -0.000000 -0.607432 -0.794372 145 107 88
0.067742 1.075750 0.227039 0.000000 0.999995 -0.003299 145 107 88
-0.069501 -0.515859 0.230069 0.000000 -0.999995 0.003297 145 107 88
-0.069501 0.805869 -0.154820 0.000000 0.668577 -0.743643 145 107 88
-0.069501 1.075289 0.087404 0.000000 0.668577 -0.743643 145 107 88
0.067742 1.075289 0.087404 0.000000 0.668577 -0.743643 145 107 88
-0.069501 -0.515859 0.230069 0.000000 0.669499 0.742813 145 107 88
0.067742 -0.515859 0.230069 1.000000 -0.000000 -0.000000 145 107 88
0.067742 -0.246900 -0.152395 -0.000000 -0.669499 -0.742813 145 107 88
3 0 1 2
3 3 4 5
3 6 7 8
3 9 10 11
3 12 13 14
3 15 16 17
3 18 19 20
3 21 22 23
3 24 25 26
3 27 28 29
3 30 31 32
3 33 34 35
3 36 37 38
3 39 40 41
3 41 42 43
3 43 44 45
3 46 47 48
3 49 50 51
3 52 53 54
3 55 56 57
3 58 59 60
3 61 62 63
3 64 65 62
3 66 67 65
3 68 69 70
3 71 72 73
3 74 75 76
3 77 78 79
3 80 81 82
3 83 84 85
3 86 87 88
3 89 90 91
3 92 93 94
3 95 96 97
3 98 99 100
3 101 102 103
3 104 105 106
3 107 108 109
3 110 111 112
3 113 114 115
3 116 117 118
3 119 120 121
3 122 104 123
3 124 125 126
3 127 128 129
3 130 131 132
3 133 134 135
3 102 136 137
3 138 139 140
3 111 141 112
3 142 143 144
3 117 132 118
3 145 146 147
3 148 149 150
3 106 151 152
3 153 154 155
3 137 156 157
3 158 159 160
3 161 162 141
3 163 164 165
3 0 166 1
3 167 168 169
3 170 171 172
3 173 174 175
3 12 176 13
3 15 177 16
3 18 178 19
3 179 180 181
3 24 182 25
3 183 184 185
3 186 187 188
3 189 190 191
3 192 193 194
3 39 195 40
3 41 40 42
3 43 42 44
3 46 196 47
3 49 197 50
3 52 198 53
3 199 200 201
3 202 203 204
3 61 64 62
3 64 66 65
3 66 205 67
3 68 206 69
3 71 207 72
3 74 208 75
3 77 209 78
3 80 210 81
3 83 211 84
3 86 212 87
3 89 213 90
3 92 214 93
3 95 215 96
3 98 216 99
3 101 217 102
3 104 218 105
3 107 219 108
3 110 220 111
3 221 222 223
3 116 224 117
3 119 225 120
3 122 218 104
3 124 226 125
3 127 227 128
3 130 228 131
3 133 229 134
3 102 217 136
3 138 230 139
3 111 161 141
3 142 231 143
3 117 130 132
3 145 232 146
3 148 233 149
3 106 105 151
3 234 235 236
3 137 136 156
3 158 237 159
3 161 238 162
3 163 239 164
