ply
format ascii 1.0
comment Created by Blender 2.77 (sub 0) - www.blender.org, source file: 'Plants.blend'
element vertex 264
property float x
property float y
property float z
property float nx
property float ny
property float nz
property uchar red
property uchar green
property uchar blue
element face 92
property list uchar uint vertex_indices
end_header
0.175464 0.473974 0.076605 0.988464 -0.069680 0.134473 0 0 0
0.153183 -0.055063 -0.033749 0.988464 -0.069680 0.134473 0 0 0
0.189317 0.472266 -0.026111 0.988464 -0.069680 0.134473 0 0 0
-0.063721 0.472266 0.076605 -0.225635 0.071282 0.971601 0 0 0
-0.006217 -0.055063 0.128647 -0.225635 0.071282 0.971601 0 0 0
0.051080 0.472439 0.103252 -0.225635 0.071282 0.971601 0 0 0
-0.080601 0.472266 -0.033749 -0.961925 0.153688 -0.226011 0 0 0
-0.134119 -0.055063 -0.164557 -0.961925 0.153688 -0.226011 0 0 0
-0.164853 -0.055063 -0.033749 -0.961925 0.153688 -0.226011 0 0 0
0.057702 0.472266 -0.166835 0.229819 0.026216 -0.972880 0 0 0
0.127498 -0.055063 -0.164557 0.229819 0.026216 -0.972880 0 0 0
-0.006217 -0.055063 -0.196144 0.229819 0.026216 -0.972880 0 0 0
-0.009369 -0.055063 -0.033749 0.000000 -1.000000 -0.000001 0 0 0
-0.134119 -0.055063 0.097060 0.000000 -1.000000 -0.000001 0 0 0
-0.164853 -0.055063 -0.033749 0.000000 -1.000000 -0.000001 0 0 0
-0.008855 1.023032 -0.033749 -0.000001 1.000000 -0.000000 0 0 0
0.111160 1.023032 0.080953 -0.000001 1.000000 -0.000000 0 0 0
0.133682 1.023032 -0.033749 -0.000001 1.000000 -0.000000 0 0 0
0.111160 1.023032 -0.148451 0.229887 0.010171 -0.973164 0 0 0
0.057702 0.472266 -0.166835 0.229887 0.010171 -0.973164 0 0 0
-0.006091 1.023032 -0.176148 0.229887 0.010171 -0.973164 0 0 0
-0.118244 1.023032 -0.148451 -0.967207 -0.113433 -0.227251 0 0 0
-0.080601 0.472266 -0.033749 -0.967207 -0.113433 -0.227251 0 0 0
-0.145194 1.023032 -0.033749 -0.967207 -0.113433 -0.227251 0 0 0
-0.006091 1.023032 0.108651 -0.225938 -0.033006 0.973582 0 0 0
-0.063721 0.472266 0.076605 -0.225938 -0.033006 0.973582 0 0 0
0.051080 0.472439 0.103252 -0.225938 -0.033006 0.973582 0 0 0
0.133682 1.023032 -0.033749 0.986138 0.101434 0.131313 0 0 0
0.175464 0.473974 0.076605 0.986138 0.101434 0.131313 0 0 0
0.189317 0.472266 -0.026111 0.986138 0.101434 0.131313 0 0 0
0.111160 1.023032 0.080953 0.209257 0.016764 0.977717 0 0 0
0.051080 0.472439 0.103252 0.209257 0.016764 0.977717 0 0 0
0.175464 0.473974 0.076605 0.209257 0.016764 0.977717 0 0 0
-0.006091 1.023032 -0.176148 -0.239642 -0.031385 -0.970354 0 0 0
-0.063721 0.472266 -0.144102 -0.239642 -0.031385 -0.970354 0 0 0
-0.118244 1.023032 -0.148451 -0.239642 -0.031385 -0.970354 0 0 0
-0.118244 1.023032 0.080953 0.000001 1.000000 -0.000000 0 0 0
-0.008855 1.023032 -0.033749 0.000001 1.000000 -0.000000 0 0 0
-0.145194 1.023032 -0.033749 0.000001 1.000000 -0.000000 0 0 0
0.127498 -0.055063 0.097060 -0.000000 -1.000000 -0.000001 0 0 0
0.153183 -0.055063 -0.033749 -0.000000 -1.000000 -0.000001 0 0 0
-0.063721 0.472266 -0.144102 -0.239180 0.069497 -0.968485 0 0 0
-0.006217 -0.055063 -0.196144 -0.239180 0.069497 -0.968485 0 0 0
-0.134119 -0.055063 -0.164557 -0.239180 0.069497 -0.968485 0 0 0
0.051080 0.472439 0.103252 0.209225 0.018832 0.977686 0 0 0
0.127498 -0.055063 0.097060 0.209225 0.018832 0.977686 0 0 0
0.175464 0.473974 0.076605 0.209225 0.018832 0.977686 0 0 0
0.127498 -0.055063 -0.164557 -0.000001 -1.000000 -0.000000 0 0 0
-0.009369 -0.055063 -0.033749 -0.000001 -1.000000 -0.000000 0 0 0
-0.006217 -0.055063 -0.196144 -0.000001 -1.000000 -0.000000 0 0 0
-0.118244 1.023032 -0.148451 0.000000 1.000000 0.000001 0 0 0
-0.008855 1.023032 -0.033749 0.000000 1.000000 0.000001 0 0 0
-0.006091 1.023032 -0.176148 0.000000 1.000000 0.000001 0 0 0
0.133682 1.023032 -0.033749 0.977949 0.082109 -0.192026 0 0 0
0.161197 0.476941 -0.127124 0.977949 0.082109 -0.192026 0 0 0
0.111160 1.023032 -0.148451 0.977949 0.082109 -0.192026 0 0 0
-0.118244 1.023032 0.080953 -0.983689 -0.098568 0.150466 0 0 0
-0.080601 0.472266 -0.033749 -0.983689 -0.098568 0.150466 0 0 0
-0.063721 0.472266 0.076605 -0.983689 -0.098568 0.150466 0 0 0
0.111160 1.023032 -0.148451 -0.000000 1.000000 0.000001 0 0 0
-0.009369 -0.055063 -0.033749 0.000001 -1.000000 0.000000 0 0 0
-0.134119 -0.055063 -0.164557 0.000001 -1.000000 0.000000 0 0 0
-0.006217 -0.055063 -0.196144 0.000001 -1.000000 0.000000 0 0 0
-0.080601 0.472266 -0.033749 -0.979245 0.136538 0.149786 0 0 0
-0.134119 -0.055063 0.097060 -0.979245 0.136538 0.149786 0 0 0
-0.063721 0.472266 0.076605 -0.979245 0.136538 0.149786 0 0 0
0.161197 0.476941 -0.127124 0.980105 -0.048543 -0.192450 0 0 0
0.153183 -0.055063 -0.033749 0.980105 -0.048543 -0.192450 0 0 0
0.127498 -0.055063 -0.164557 0.980105 -0.048543 -0.192450 0 0 0
-0.755275 0.992882 -0.086139 -0.741153 -0.298181 -0.601481 51 51 51
-0.776098 1.512530 -0.318093 -0.741153 -0.298181 -0.601481 51 51 51
-0.189997 1.007695 -0.790026 -0.741153 -0.298181 -0.601481 51 51 51
0.962413 1.085431 -0.156900 0.892160 0.080360 0.444515 51 51 51
0.476204 1.878111 0.675641 0.892160 0.080360 0.444515 51 51 51
0.718162 0.853173 0.375312 0.892160 0.080360 0.444515 51 51 51
0.265454 2.568100 -0.449511 0.011370 0.599679 -0.800160 51 51 51
-0.325094 2.292749 -0.664264 0.011370 0.599679 -0.800160 51 51 51
-0.104903 3.017456 -0.118004 0.011370 0.599679 -0.800160 51 51 51
0.687765 2.338182 0.093386 0.779365 0.479680 -0.403109 51 51 51
0.265454 2.568100 -0.449511 0.779365 0.479680 -0.403109 51 51 51
0.145275 3.037549 -0.123243 0.779365 0.479680 -0.403109 51 51 51
-0.104903 3.017456 -0.118004 -0.893322 0.410058 -0.183925 51 51 51
-0.325094 2.292749 -0.664264 -0.893322 0.410058 -0.183925 51 51 51
-0.345128 2.505409 -0.092838 -0.893322 0.410058 -0.183925 51 51 51
-0.552300 1.869058 0.622400 -0.975864 0.055206 0.211287 51 51 51
-0.776098 1.512530 -0.318093 -0.975864 0.055206 0.211287 51 51 51
-0.755275 0.992882 -0.086139 -0.975864 0.055206 0.211287 51 51 51
-0.552300 1.869058 0.622400 -0.975993 0.061388 0.208974 51 51 51
-0.633988 2.089954 0.175994 -0.975993 0.061388 0.208974 51 51 51
-0.776098 1.512530 -0.318093 -0.975993 0.061388 0.208974 51 51 51
-0.552300 1.869058 0.622400 -0.052418 0.193824 0.979635 51 51 51
0.028194 0.944148 0.836456 -0.052418 0.193824 0.979635 51 51 51
0.476204 1.878111 0.675641 -0.052418 0.193824 0.979635 51 51 51
0.476204 1.878111 0.675641 -0.049690 0.473551 0.879364 51 51 51
0.011710 2.287529 0.428917 -0.049690 0.473551 0.879364 51 51 51
-0.552300 1.869058 0.622400 -0.049690 0.473551 0.879364 51 51 51
0.438344 0.952740 -0.727984 -0.015325 -0.820440 -0.571528 51 51 51
-0.274245 0.593680 -0.193440 -0.015325 -0.820440 -0.571528 51 51 51
-0.189997 1.007695 -0.790026 -0.015325 -0.820440 -0.571528 51 51 51
0.718162 0.853173 0.375312 0.541265 -0.116246 0.832778 51 51 51
0.476204 1.878111 0.675641 0.541265 -0.116246 0.832778 51 51 51
0.028194 0.944148 0.836456 0.541265 -0.116246 0.832778 51 51 51
0.505626 1.988094 -0.667032 0.902732 0.265536 -0.338476 51 51 51
0.687765 2.338182 0.093386 0.902732 0.265536 -0.338476 51 51 51
0.962413 1.085431 -0.156900 0.902732 0.265536 -0.338476 51 51 51
-0.274245 0.593680 -0.193440 -0.614760 -0.604651 -0.506426 51 51 51
-0.755275 0.992882 -0.086139 -0.614760 -0.604651 -0.506426 51 51 51
-0.189997 1.007695 -0.790026 -0.614760 -0.604651 -0.506426 51 51 51
-0.755275 0.992882 -0.086139 -0.611400 -0.777003 0.149852 51 51 51
-0.274245 0.593680 -0.193440 -0.611400 -0.777003 0.149852 51 51 51
-0.584916 0.965652 0.467739 -0.611400 -0.777003 0.149852 51 51 51
0.209480 0.502890 0.177555 0.292281 -0.755485 0.586356 51 51 51
0.718162 0.853173 0.375312 0.292281 -0.755485 0.586356 51 51 51
0.028194 0.944148 0.836456 0.292281 -0.755485 0.586356 51 51 51
-0.776098 1.512530 -0.318093 -0.884166 0.426855 -0.189855 51 51 51
-0.345128 2.505409 -0.092838 -0.884166 0.426855 -0.189855 51 51 51
-0.325094 2.292749 -0.664264 -0.884166 0.426855 -0.189855 51 51 51
0.962413 1.085431 -0.156900 0.508102 -0.815619 -0.276763 51 51 51
0.209480 0.502890 0.177555 0.508102 -0.815619 -0.276763 51 51 51
0.438344 0.952740 -0.727984 0.508102 -0.815619 -0.276763 51 51 51
-0.552300 1.869058 0.622400 -0.514481 -0.126619 0.848102 51 51 51
-0.584916 0.965652 0.467739 -0.514481 -0.126619 0.848102 51 51 51
0.028194 0.944148 0.836456 -0.514481 -0.126619 0.848102 51 51 51
-0.104903 3.017456 -0.118004 -0.522921 0.523311 0.672830 51 51 51
-0.208109 2.631401 0.102048 -0.522921 0.523311 0.672830 51 51 51
-0.076159 2.717387 0.137721 -0.522921 0.523311 0.672830 51 51 51
0.687765 2.338182 0.093386 0.436167 0.622191 0.650106 51 51 51
0.182112 2.605786 0.176524 0.436167 0.622191 0.650106 51 51 51
0.476204 1.878111 0.675641 0.436167 0.622191 0.650106 51 51 51
0.011710 2.287529 0.428917 0.091626 0.588175 0.803526 51 51 51
0.476204 1.878111 0.675641 0.091626 0.588175 0.803526 51 51 51
0.182112 2.605786 0.176524 0.091626 0.588175 0.803526 51 51 51
0.209480 0.502890 0.177555 -0.394846 -0.867511 0.302525 51 51 51
-0.584916 0.965652 0.467739 -0.394846 -0.867511 0.302525 51 51 51
-0.274245 0.593680 -0.193440 -0.394846 -0.867511 0.302525 51 51 51
-0.552300 1.869058 0.622400 -0.955909 -0.015691 0.293242 51 51 51
-0.755275 0.992882 -0.086139 -0.955909 -0.015691 0.293242 51 51 51
-0.584916 0.965652 0.467739 -0.955909 -0.015691 0.293242 51 51 51
0.182112 2.605786 0.176524 0.408354 0.543844 0.733131 51 51 51
0.687765 2.338182 0.093386 0.408354 0.543844 0.733131 51 51 51
0.145275 3.037549 -0.123243 0.408354 0.543844 0.733131 51 51 51
0.265454 2.568100 -0.449511 -0.062198 0.558814 -0.826957 51 51 51
-0.104903 3.017456 -0.118004 -0.062198 0.558814 -0.826957 51 51 51
0.145275 3.037549 -0.123243 -0.062198 0.558814 -0.826957 51 51 51
-0.776098 1.512530 -0.318093 -0.621157 0.011385 -0.783604 51 51 51
-0.325094 2.292749 -0.664264 -0.621157 0.011385 -0.783604 51 51 51
-0.189997 1.007695 -0.790026 -0.621157 0.011385 -0.783604 51 51 51
0.438344 0.952740 -0.727984 0.737708 -0.008198 -0.675070 51 51 51
0.505626 1.988094 -0.667032 0.737708 -0.008198 -0.675070 51 51 51
0.962413 1.085431 -0.156900 0.737708 -0.008198 -0.675070 51 51 51
-0.189997 1.007695 -0.790026 0.102615 0.051812 -0.993371 51 51 51
0.505626 1.988094 -0.667032 0.102615 0.051812 -0.993371 51 51 51
0.438344 0.952740 -0.727984 0.102615 0.051812 -0.993371 51 51 51
0.476204 1.878111 0.675641 0.901377 0.114159 0.417716 51 51 51
0.962413 1.085431 -0.156900 0.901377 0.114159 0.417716 51 51 51
0.687765 2.338182 0.093386 0.901377 0.114159 0.417716 51 51 51
-0.325094 2.292749 -0.664264 0.143311 0.399003 -0.905681 51 51 51
0.265454 2.568100 -0.449511 0.143311 0.399003 -0.905681 51 51 51
0.505626 1.988094 -0.667032 0.143311 0.399003 -0.905681 51 51 51
-0.189997 1.007695 -0.790026 0.033672 0.100850 -0.994332 51 51 51
-0.325094 2.292749 -0.664264 0.033672 0.100850 -0.994332 51 51 51
0.505626 1.988094 -0.667032 0.033672 0.100850 -0.994332 51 51 51
0.209480 0.502890 0.177555 0.586729 -0.805591 -0.082290 51 51 51
0.962413 1.085431 -0.156900 0.586729 -0.805591 -0.082290 51 51 51
0.718162 0.853173 0.375312 0.586729 -0.805591 -0.082290 51 51 51
0.265454 2.568100 -0.449511 0.780557 0.475420 -0.405840 51 51 51
0.687765 2.338182 0.093386 0.780557 0.475420 -0.405840 51 51 51
0.505626 1.988094 -0.667032 0.780557 0.475420 -0.405840 51 51 51
-0.633988 2.089954 0.175994 -0.441922 0.453315 0.774087 51 51 51
0.011710 2.287529 0.428917 -0.441922 0.453315 0.774087 51 51 51
-0.208109 2.631401 0.102048 -0.441922 0.453315 0.774087 51 51 51
-0.208109 2.631401 0.102048 -0.769312 0.623892 0.137540 51 51 51
-0.345128 2.505409 -0.092838 -0.769312 0.623892 0.137540 51 51 51
-0.633988 2.089954 0.175994 -0.769312 0.623892 0.137540 51 51 51
0.011710 2.287529 0.428917 -0.420175 0.780404 0.463058 51 51 51
-0.633988 2.089954 0.175994 -0.420175 0.780404 0.463058 51 51 51
-0.552300 1.869058 0.622400 -0.420175 0.780404 0.463058 51 51 51
-0.076159 2.717387 0.137721 -0.482325 0.421582 0.767875 51 51 51
-0.208109 2.631401 0.102048 -0.482325 0.421582 0.767875 51 51 51
0.011710 2.287529 0.428917 -0.482325 0.421582 0.767875 51 51 51
-0.104903 3.017456 -0.118004 -0.848661 0.414307 0.328823 51 51 51
-0.345128 2.505409 -0.092838 -0.848661 0.414307 0.328823 51 51 51
-0.208109 2.631401 0.102048 -0.848661 0.414307 0.328823 51 51 51
0.175464 0.473974 0.076605 0.978018 -0.081248 0.192040 0 0 0
0.127498 -0.055063 0.097060 0.978018 -0.081248 0.192040 0 0 0
0.153183 -0.055063 -0.033749 0.978018 -0.081248 0.192040 0 0 0
-0.063721 0.472266 0.076605 -0.239180 0.069497 0.968485 0 0 0
-0.134119 -0.055063 0.097060 -0.239180 0.069497 0.968485 0 0 0
-0.006217 -0.055063 0.128647 -0.239180 0.069497 0.968485 0 0 0
-0.080601 0.472266 -0.033749 -0.979245 0.136538 -0.149786 0 0 0
-0.063721 0.472266 -0.144102 -0.979245 0.136538 -0.149786 0 0 0
-0.134119 -0.055063 -0.164557 -0.979245 0.136538 -0.149786 0 0 0
0.057702 0.472266 -0.166835 0.356200 0.043113 -0.933415 0 0 0
0.161197 0.476941 -0.127124 0.356200 0.043113 -0.933415 0 0 0
0.127498 -0.055063 -0.164557 0.356200 0.043113 -0.933415 0 0 0
-0.006217 -0.055063 0.128647 0.000001 -1.000000 -0.000000 0 0 0
-0.134119 -0.055063 0.097060 0.000001 -1.000000 -0.000000 0 0 0
-0.008855 1.023032 -0.033749 -0.000000 1.000000 -0.000001 0 0 0
-0.006091 1.023032 0.108651 -0.000000 1.000000 -0.000001 0 0 0
0.111160 1.023032 0.080953 -0.000000 1.000000 -0.000001 0 0 0
0.111160 1.023032 -0.148451 0.358372 -0.003622 -0.933572 0 0 0
0.161197 0.476941 -0.127124 0.358372 -0.003622 -0.933572 0 0 0
0.057702 0.472266 -0.166835 0.358372 -0.003622 -0.933572 0 0 0
-0.118244 1.023032 -0.148451 -0.983689 -0.098568 -0.150466 0 0 0
-0.063721 0.472266 -0.144102 -0.983689 -0.098568 -0.150466 0 0 0
-0.080601 0.472266 -0.033749 -0.983689 -0.098568 -0.150466 0 0 0
-0.006091 1.023032 0.108651 -0.239642 -0.031385 0.970354 0 0 0
-0.118244 1.023032 0.080953 -0.239642 -0.031385 0.970354 0 0 0
-0.063721 0.472266 0.076605 -0.239642 -0.031385 0.970354 0 0 0
0.133682 1.023032 -0.033749 0.975014 0.112674 0.191449 0 0 0
0.111160 1.023032 0.080953 0.975014 0.112674 0.191449 0 0 0
0.175464 0.473974 0.076605 0.975014 0.112674 0.191449 0 0 0
0.111160 1.023032 0.080953 0.229875 0.014328 0.973115 0 0 0
-0.006091 1.023032 0.108651 0.229875 0.014328 0.973115 0 0 0
0.051080 0.472439 0.103252 0.229875 0.014328 0.973115 0 0 0
-0.006091 1.023032 -0.176148 -0.183890 -0.037908 -0.982216 0 0 0
0.057702 0.472266 -0.166835 -0.183890 -0.037908 -0.982216 0 0 0
-0.063721 0.472266 -0.144102 -0.183890 -0.037908 -0.982216 0 0 0
-0.118244 1.023032 0.080953 0.000000 1.000000 -0.000001 0 0 0
0.127498 -0.055063 0.097060 -0.000001 -1.000000 0.000000 0 0 0
-0.006217 -0.055063 0.128647 -0.000001 -1.000000 0.000000 0 0 0
-0.063721 0.472266 -0.144102 -0.183480 0.076710 -0.980026 0 0 0
0.057702 0.472266 -0.166835 -0.183480 0.076710 -0.980026 0 0 0
-0.006217 -0.055063 -0.196144 -0.183480 0.076710 -0.980026 0 0 0
0.051080 0.472439 0.103252 0.229843 0.021874 0.972982 0 0 0
-0.006217 -0.055063 0.128647 0.229843 0.021874 0.972982 0 0 0
0.127498 -0.055063 0.097060 0.229843 0.021874 0.972982 0 0 0
0.127498 -0.055063 -0.164557 0.000000 -1.000000 0.000001 0 0 0
0.153183 -0.055063 -0.033749 0.000000 -1.000000 0.000001 0 0 0
-0.009369 -0.055063 -0.033749 0.000000 -1.000000 0.000001 0 0 0
-0.118244 1.023032 -0.148451 0.000001 1.000000 0.000000 0 0 0
0.133682 1.023032 -0.033749 0.960271 0.093353 -0.262994 0 0 0
0.189317 0.472266 -0.026111 0.960271 0.093353 -0.262994 0 0 0
0.161197 0.476941 -0.127124 0.960271 0.093353 -0.262994 0 0 0
-0.118244 1.023032 0.080953 -0.967207 -0.113433 0.227251 0 0 0
-0.145194 1.023032 -0.033749 -0.967207 -0.113433 0.227251 0 0 0
-0.080601 0.472266 -0.033749 -0.967207 -0.113433 0.227251 0 0 0
0.111160 1.023032 -0.148451 -0.000001 1.000000 0.000000 0 0 0
-0.164853 -0.055063 -0.033749 0.000000 -1.000000 0.000001 0 0 0
-0.134119 -0.055063 -0.164557 0.000000 -1.000000 0.000001 0 0 0
-0.080601 0.472266 -0.033749 -0.961925 0.153688 0.226011 0 0 0
-0.164853 -0.055063 -0.033749 -0.961925 0.153688 0.226011 0 0 0
-0.134119 -0.055063 0.097060 -0.961925 0.153688 0.226011 0 0 0
0.161197 0.476941 -0.127124 0.960777 -0.061920 -0.270321 0 0 0
0.189317 0.472266 -0.026111 0.960777 -0.061920 -0.270321 0 0 0
0.153183 -0.055063 -0.033749 0.960777 -0.061920 -0.270321 0 0 0
0.438344 0.952740 -0.727984 0.145766 -0.900200 -0.410357 51 51 51
0.209480 0.502890 0.177555 0.145766 -0.900200 -0.410357 51 51 51
-0.274245 0.593680 -0.193440 0.145766 -0.900200 -0.410357 51 51 51
-0.776098 1.512530 -0.318093 -0.863476 0.433356 -0.258095 51 51 51
-0.633988 2.089954 0.175994 -0.863476 0.433356 -0.258095 51 51 51
-0.345128 2.505409 -0.092838 -0.863476 0.433356 -0.258095 51 51 51
0.011710 2.287529 0.428917 0.126446 0.573935 0.809079 51 51 51
0.182112 2.605786 0.176524 0.126446 0.573935 0.809079 51 51 51
-0.076159 2.717387 0.137721 0.126446 0.573935 0.809079 51 51 51
0.145275 3.037549 -0.123243 -0.035937 0.646216 0.762308 51 51 51
-0.104903 3.017456 -0.118004 -0.035937 0.646216 0.762308 51 51 51
-0.076159 2.717387 0.137721 -0.035937 0.646216 0.762308 51 51 51
-0.076159 2.717387 0.137721 0.125928 0.572996 0.809826 51 51 51
0.182112 2.605786 0.176524 0.125928 0.572996 0.809826 51 51 51
0.145275 3.037549 -0.123243 0.125928 0.572996 0.809826 51 51 51
0.209480 0.502890 0.177555 -0.310701 -0.827082 0.468403 51 51 51
0.028194 0.944148 0.836456 -0.310701 -0.827082 0.468403 51 51 51
-0.584916 0.965652 0.467739 -0.310701 -0.827082 0.468403 51 51 51
3 0 1 2
3 3 4 5
3 6 7 8
3 9 10 11
3 12 13 14
3 15 16 17
3 18 19 20
3 21 22 23
3 24 25 26
3 27 28 29
3 30 31 32
3 33 34 35
3 36 37 38
3 39 12 40
3 41 42 43
3 44 45 46
3 47 48 49
3 50 51 52
3 53 54 55
3 56 57 58
3 51 59 52
3 60 61 62
3 63 64 65
3 66 67 68
3 69 70 71
3 72 73 74
3 75 76 77
3 78 79 80
3 81 82 83
3 84 85 86
3 87 88 89
3 90 91 92
3 93 94 95
3 96 97 98
3 99 100 101
3 102 103 104
3 105 106 107
3 108 109 110
3 111 112 113
3 114 115 116
3 117 118 119
3 120 121 122
3 123 124 125
3 126 127 128
3 129 130 131
3 132 133 134
3 135 136 137
3 138 139 140
3 141 142 143
3 144 145 146
3 147 148 149
3 150 151 152
3 153 154 155
3 156 157 158
3 159 160 161
3 162 163 164
3 165 166 167
3 168 169 170
3 171 172 173
3 174 175 176
3 177 178 179
3 180 181 182
3 183 184 185
3 186 187 188
3 189 190 191
3 192 193 194
3 60 195 196
3 197 198 199
3 200 201 202
3 203 204 205
3 206 207 208
3 209 210 211
3 212 213 214
3 215 216 217
3 218 198 197
3 219 220 48
3 221 222 223
3 224 225 226
3 227 228 229
3 230 38 37
3 231 232 233
3 234 235 236
3 15 17 237
3 229 238 239
3 240 241 242
3 243 244 245
3 246 247 248
3 249 250 251
3 252 253 254
3 255 256 257
3 258 259 260
3 261 262 263
