ply
format ascii 1.0
comment Created by Blender 2.77 (sub 0) - www.blender.org, source file: 'NewTrees.blend'
element vertex 252
property float x
property float y
property float z
property float nx
property float ny
property float nz
property uchar red
property uchar green
property uchar blue
element face 84
property list uchar uint vertex_indices
end_header
-0.007784 0.393878 0.040078 -0.752078 0.055254 0.656754 0 0 0
-0.065384 -0.066637 0.012862 -0.752078 0.055254 0.656754 0 0 0
-0.021553 -0.066637 0.063056 -0.752078 0.055254 0.656754 0 0 0
-0.058111 0.393878 -0.003600 -0.946245 0.003383 -0.323433 0 0 0
-0.043831 -0.066637 -0.050193 -0.946245 0.003383 -0.323433 0 0 0
-0.065384 -0.066637 0.012862 -0.946245 0.003383 -0.323433 0 0 0
-0.045448 0.393878 -0.069023 -0.192861 -0.040763 -0.980379 0 0 0
0.021553 -0.066637 -0.063056 -0.192861 -0.040763 -0.980379 0 0 0
-0.043831 -0.066637 -0.050193 -0.192861 -0.040763 -0.980379 0 0 0
0.021553 -0.066637 -0.063056 0.752175 -0.052876 -0.656839 0 0 0
0.067868 0.393878 -0.047090 0.752175 -0.052876 -0.656839 0 0 0
0.065384 -0.066637 -0.012862 0.752175 -0.052876 -0.656839 0 0 0
0.065384 -0.066637 -0.012862 0.946250 -0.000994 0.323435 0 0 0
0.055205 0.393878 0.018333 0.946250 -0.000994 0.323435 0 0 0
0.043831 -0.066637 0.050193 0.946250 -0.000994 0.323435 0 0 0
0.043831 -0.066637 0.050193 0.192842 0.043145 0.980281 0 0 0
-0.007784 0.393878 0.040078 0.192842 0.043145 0.980281 0 0 0
-0.021553 -0.066637 0.063056 0.192842 0.043145 0.980281 0 0 0
-0.133977 0.656127 0.229744 -0.474244 -0.559763 0.679528 51 51 51
-0.129272 0.411209 0.031276 -0.474244 -0.559763 0.679528 51 51 51
0.009053 0.465755 0.172746 -0.474244 -0.559763 0.679528 51 51 51
0.125580 2.489466 0.015297 -0.015215 0.299692 0.953915 51 51 51
0.018939 2.168734 0.114360 -0.015215 0.299692 0.953915 51 51 51
0.114299 2.202768 0.105189 -0.015215 0.299692 0.953915 51 51 51
0.148129 2.172007 -0.076390 0.967886 -0.188875 -0.165901 51 51 51
0.212898 2.450871 -0.015999 0.967886 -0.188875 -0.165901 51 51 51
0.172151 2.212335 0.017844 0.967886 -0.188875 -0.165901 51 51 51
0.117830 0.789606 0.313128 0.423790 -0.476304 0.770413 51 51 51
0.009053 0.465755 0.172746 0.423790 -0.476304 0.770413 51 51 51
0.192363 0.445098 0.059139 0.423790 -0.476304 0.770413 51 51 51
0.192363 0.445098 0.059139 0.524079 -0.841030 -0.134200 51 51 51
-0.009187 0.335816 -0.043089 0.524079 -0.841030 -0.134200 51 51 51
0.187126 0.472563 -0.133435 0.524079 -0.841030 -0.134200 51 51 51
0.343045 1.710928 0.042849 0.984634 -0.135360 -0.110334 51 51 51
0.292473 1.264932 0.138696 0.984634 -0.135360 -0.110334 51 51 51
0.250068 1.161920 -0.113351 0.984634 -0.135360 -0.110334 51 51 51
0.322170 0.852946 0.069002 0.945668 0.029585 -0.323784 51 51 51
0.241937 0.762327 -0.173612 0.945668 0.029585 -0.323784 51 51 51
0.250068 1.161920 -0.113351 0.945668 0.029585 -0.323784 51 51 51
0.322170 0.852946 0.069002 0.972767 0.105069 -0.206601 51 51 51
0.250068 1.161920 -0.113351 0.972767 0.105069 -0.206601 51 51 51
0.292473 1.264932 0.138696 0.972767 0.105069 -0.206601 51 51 51
0.322170 0.852946 0.069002 0.951123 -0.301052 -0.068803 51 51 51
0.192363 0.445098 0.059139 0.951123 -0.301052 -0.068803 51 51 51
0.187126 0.472563 -0.133435 0.951123 -0.301052 -0.068803 51 51 51
0.322170 0.852946 0.069002 0.881425 -0.016318 0.472043 51 51 51
0.292473 1.264932 0.138696 0.881425 -0.016318 0.472043 51 51 51
0.232369 0.814085 0.235339 0.881425 -0.016318 0.472043 51 51 51
0.232369 0.814085 0.235339 0.571542 -0.403235 0.714662 51 51 51
0.117830 0.789606 0.313128 0.571542 -0.403235 0.714662 51 51 51
0.192363 0.445098 0.059139 0.571542 -0.403235 0.714662 51 51 51
0.322170 0.852946 0.069002 0.869459 -0.286458 0.402472 51 51 51
0.232369 0.814085 0.235339 0.869459 -0.286458 0.402472 51 51 51
0.192363 0.445098 0.059139 0.869459 -0.286458 0.402472 51 51 51
0.343045 1.710928 0.042849 0.867703 0.256734 -0.425652 51 51 51
0.275386 1.635600 -0.140511 0.867703 0.256734 -0.425652 51 51 51
0.148129 2.172007 -0.076390 0.867703 0.256734 -0.425652 51 51 51
0.241937 0.762327 -0.173612 0.521068 0.099591 -0.847685 51 51 51
0.079774 0.782438 -0.270930 0.521068 0.099591 -0.847685 51 51 51
0.059922 1.192142 -0.234998 0.521068 0.099591 -0.847685 51 51 51
0.050552 2.066978 -0.134939 0.345003 0.191682 -0.918820 51 51 51
0.148129 2.172007 -0.076390 0.345003 0.191682 -0.918820 51 51 51
0.275386 1.635600 -0.140511 0.345003 0.191682 -0.918820 51 51 51
0.058875 1.559880 -0.245537 0.368652 0.203854 -0.906939 51 51 51
0.050552 2.066978 -0.134939 0.368652 0.203854 -0.906939 51 51 51
0.275386 1.635600 -0.140511 0.368652 0.203854 -0.906939 51 51 51
-0.009187 0.335816 -0.043089 0.217521 -0.735902 -0.641197 51 51 51
0.072003 0.525782 -0.233569 0.217521 -0.735902 -0.641197 51 51 51
0.187126 0.472563 -0.133435 0.217521 -0.735902 -0.641197 51 51 51
0.098595 1.718903 0.281711 0.432476 0.039405 0.900784 51 51 51
0.117830 0.789606 0.313128 0.432476 0.039405 0.900784 51 51 51
0.266824 1.744126 0.199839 0.432476 0.039405 0.900784 51 51 51
-0.249799 0.622728 -0.031666 -0.865388 -0.275435 0.418616 51 51 51
-0.133977 0.656127 0.229744 -0.865388 -0.275435 0.418616 51 51 51
-0.276074 0.910923 0.103640 -0.865388 -0.275435 0.418616 51 51 51
-0.049882 2.205325 0.015507 -0.789535 0.246238 0.562140 51 51 51
-0.186921 1.481338 0.140166 -0.789535 0.246238 0.562140 51 51 51
-0.071813 1.614816 0.243369 -0.789535 0.246238 0.562140 51 51 51
-0.165428 1.601788 -0.072526 -0.982320 0.187088 0.006684 51 51 51
-0.186921 1.481338 0.140166 -0.982320 0.187088 0.006684 51 51 51
-0.049882 2.205325 0.015507 -0.982320 0.187088 0.006684 51 51 51
-0.133977 0.656127 0.229744 -0.837705 -0.353453 0.416318 51 51 51
-0.249799 0.622728 -0.031666 -0.837705 -0.353453 0.416318 51 51 51
-0.129272 0.411209 0.031276 -0.837705 -0.353453 0.416318 51 51 51
-0.081487 0.922674 0.320263 -0.743893 0.073733 0.664219 51 51 51
-0.186921 1.481338 0.140166 -0.743893 0.073733 0.664219 51 51 51
-0.276074 0.910923 0.103640 -0.743893 0.073733 0.664219 51 51 51
-0.276074 0.910923 0.103640 -0.739262 -0.081435 0.668476 51 51 51
-0.133977 0.656127 0.229744 -0.739262 -0.081435 0.668476 51 51 51
-0.081487 0.922674 0.320263 -0.739262 -0.081435 0.668476 51 51 51
0.050552 2.066978 -0.134939 -0.583098 0.163967 -0.795683 51 51 51
0.058875 1.559880 -0.245537 -0.583098 0.163967 -0.795683 51 51 51
-0.165428 1.601788 -0.072526 -0.583098 0.163967 -0.795683 51 51 51
-0.165428 1.601788 -0.072526 -0.590930 0.126456 -0.796750 51 51 51
0.058875 1.559880 -0.245537 -0.590930 0.126456 -0.796750 51 51 51
-0.199204 0.925815 -0.154761 -0.590930 0.126456 -0.796750 51 51 51
-0.130867 0.798678 -0.233428 -0.806450 -0.119050 -0.579194 51 51 51
-0.105129 0.557990 -0.219792 -0.806450 -0.119050 -0.579194 51 51 51
-0.249799 0.622728 -0.031666 -0.806450 -0.119050 -0.579194 51 51 51
-0.165428 1.601788 -0.072526 -0.956552 0.081840 -0.279841 51 51 51
-0.199204 0.925815 -0.154761 -0.956552 0.081840 -0.279841 51 51 51
-0.276074 0.910923 0.103640 -0.956552 0.081840 -0.279841 51 51 51
0.050552 2.066978 -0.134939 -0.696641 0.232373 -0.678745 51 51 51
-0.165428 1.601788 -0.072526 -0.696641 0.232373 -0.678745 51 51 51
-0.049882 2.205325 0.015507 -0.696641 0.232373 -0.678745 51 51 51
0.101141 2.401217 -0.096112 -0.729027 0.186838 -0.658492 51 51 51
0.050552 2.066978 -0.134939 -0.729027 0.186838 -0.658492 51 51 51
-0.049882 2.205325 0.015507 -0.729027 0.186838 -0.658492 51 51 51
0.009053 0.465755 0.172746 -0.201506 -0.831532 0.517638 51 51 51
-0.129272 0.411209 0.031276 -0.201506 -0.831532 0.517638 51 51 51
-0.009187 0.335816 -0.043089 -0.201506 -0.831532 0.517638 51 51 51
-0.133977 0.656127 0.229744 -0.114061 -0.362625 0.924929 51 51 51
0.009053 0.465755 0.172746 -0.114061 -0.362625 0.924929 51 51 51
0.117830 0.789606 0.313128 -0.114061 -0.362625 0.924929 51 51 51
-0.081487 0.922674 0.320263 -0.281566 0.109836 0.953235 51 51 51
0.098595 1.718903 0.281711 -0.281566 0.109836 0.953235 51 51 51
-0.071813 1.614816 0.243369 -0.281566 0.109836 0.953235 51 51 51
0.018939 2.168734 0.114360 -0.032311 0.343468 0.938608 51 51 51
0.098595 1.718903 0.281711 -0.032311 0.343468 0.938608 51 51 51
0.114299 2.202768 0.105189 -0.032311 0.343468 0.938608 51 51 51
-0.049882 2.205325 0.015507 -0.668474 0.413252 0.618357 51 51 51
0.018939 2.168734 0.114360 -0.668474 0.413252 0.618357 51 51 51
0.125580 2.489466 0.015297 -0.668474 0.413252 0.618357 51 51 51
0.114299 2.202768 0.105189 0.835212 -0.065202 0.546049 51 51 51
0.172151 2.212335 0.017844 0.835212 -0.065202 0.546049 51 51 51
0.212898 2.450871 -0.015999 0.835212 -0.065202 0.546049 51 51 51
0.266824 1.744126 0.199839 0.760847 -0.041904 0.647578 51 51 51
0.117830 0.789606 0.313128 0.760847 -0.041904 0.647578 51 51 51
0.292473 1.264932 0.138696 0.760847 -0.041904 0.647578 51 51 51
0.050552 2.066978 -0.134939 0.493350 0.026329 -0.869432 51 51 51
0.101141 2.401217 -0.096112 0.493350 0.026329 -0.869432 51 51 51
0.148129 2.172007 -0.076390 0.493350 0.026329 -0.869432 51 51 51
-0.009187 0.335816 -0.043089 -0.176607 -0.658272 -0.731770 51 51 51
-0.105129 0.557990 -0.219792 -0.176607 -0.658272 -0.731770 51 51 51
0.072003 0.525782 -0.233569 -0.176607 -0.658272 -0.731770 51 51 51
0.072003 0.525782 -0.233569 -0.102102 -0.140268 -0.984835 51 51 51
-0.105129 0.557990 -0.219792 -0.102102 -0.140268 -0.984835 51 51 51
0.079774 0.782438 -0.270930 -0.102102 -0.140268 -0.984835 51 51 51
0.114299 2.202768 0.105189 0.757748 0.363793 0.541731 51 51 51
0.266824 1.744126 0.199839 0.757748 0.363793 0.541731 51 51 51
0.172151 2.212335 0.017844 0.757748 0.363793 0.541731 51 51 51
0.172151 2.212335 0.017844 0.877777 0.317082 0.359120 51 51 51
0.266824 1.744126 0.199839 0.877777 0.317082 0.359120 51 51 51
0.343045 1.710928 0.042849 0.877777 0.317082 0.359120 51 51 51
0.117830 0.789606 0.313128 0.543026 0.106164 0.832978 51 51 51
0.232369 0.814085 0.235339 0.543026 0.106164 0.832978 51 51 51
0.292473 1.264932 0.138696 0.543026 0.106164 0.832978 51 51 51
0.148129 2.172007 -0.076390 0.891867 0.286522 -0.349969 51 51 51
0.172151 2.212335 0.017844 0.891867 0.286522 -0.349969 51 51 51
0.343045 1.710928 0.042849 0.891867 0.286522 -0.349969 51 51 51
0.187126 0.472563 -0.133435 0.580921 -0.218598 -0.784057 51 51 51
0.072003 0.525782 -0.233569 0.580921 -0.218598 -0.784057 51 51 51
0.241937 0.762327 -0.173612 0.580921 -0.218598 -0.784057 51 51 51
0.250068 1.161920 -0.113351 0.456386 -0.075228 -0.886596 51 51 51
0.058875 1.559880 -0.245537 0.456386 -0.075228 -0.886596 51 51 51
0.275386 1.635600 -0.140511 0.456386 -0.075228 -0.886596 51 51 51
0.241937 0.762327 -0.173612 0.948707 -0.211977 -0.234564 51 51 51
0.322170 0.852946 0.069002 0.948707 -0.211977 -0.234564 51 51 51
0.187126 0.472563 -0.133435 0.948707 -0.211977 -0.234564 51 51 51
0.275386 1.635600 -0.140511 0.944797 -0.068865 -0.320336 51 51 51
0.343045 1.710928 0.042849 0.944797 -0.068865 -0.320336 51 51 51
0.250068 1.161920 -0.113351 0.944797 -0.068865 -0.320336 51 51 51
0.266824 1.744126 0.199839 0.898904 -0.007783 0.438076 51 51 51
0.292473 1.264932 0.138696 0.898904 -0.007783 0.438076 51 51 51
0.343045 1.710928 0.042849 0.898904 -0.007783 0.438076 51 51 51
0.059922 1.192142 -0.234998 0.548178 0.113800 -0.828583 51 51 51
0.250068 1.161920 -0.113351 0.548178 0.113800 -0.828583 51 51 51
0.241937 0.762327 -0.173612 0.548178 0.113800 -0.828583 51 51 51
0.072003 0.525782 -0.233569 0.496729 -0.139731 -0.856584 51 51 51
0.079774 0.782438 -0.270930 0.496729 -0.139731 -0.856584 51 51 51
0.241937 0.762327 -0.173612 0.496729 -0.139731 -0.856584 51 51 51
0.009053 0.465755 0.172746 0.209221 -0.845476 0.491322 51 51 51
-0.009187 0.335816 -0.043089 0.209221 -0.845476 0.491322 51 51 51
0.192363 0.445098 0.059139 0.209221 -0.845476 0.491322 51 51 51
0.266824 1.744126 0.199839 0.379053 0.306265 0.873224 51 51 51
0.114299 2.202768 0.105189 0.379053 0.306265 0.873224 51 51 51
0.098595 1.718903 0.281711 0.379053 0.306265 0.873224 51 51 51
-0.081487 0.922674 0.320263 -0.718880 0.086672 0.689710 51 51 51
-0.071813 1.614816 0.243369 -0.718880 0.086672 0.689710 51 51 51
-0.186921 1.481338 0.140166 -0.718880 0.086672 0.689710 51 51 51
-0.199204 0.925815 -0.154761 -0.504806 0.241469 -0.828772 51 51 51
0.059922 1.192142 -0.234998 -0.504806 0.241469 -0.828772 51 51 51
-0.130867 0.798678 -0.233428 -0.504806 0.241469 -0.828772 51 51 51
-0.249799 0.622728 -0.031666 -0.820607 -0.092088 -0.564026 51 51 51
-0.199204 0.925815 -0.154761 -0.820607 -0.092088 -0.564026 51 51 51
-0.130867 0.798678 -0.233428 -0.820607 -0.092088 -0.564026 51 51 51
-0.249799 0.622728 -0.031666 -0.958216 0.045245 -0.282445 51 51 51
-0.276074 0.910923 0.103640 -0.958216 0.045245 -0.282445 51 51 51
-0.199204 0.925815 -0.154761 -0.958216 0.045245 -0.282445 51 51 51
-0.186921 1.481338 0.140166 -0.987818 0.155156 -0.011954 51 51 51
-0.165428 1.601788 -0.072526 -0.987818 0.155156 -0.011954 51 51 51
-0.276074 0.910923 0.103640 -0.987818 0.155156 -0.011954 51 51 51
0.212898 2.450871 -0.015999 0.112394 0.766757 -0.632022 51 51 51
0.101141 2.401217 -0.096112 0.112394 0.766757 -0.632022 51 51 51
0.125580 2.489466 0.015297 0.112394 0.766757 -0.632022 51 51 51
0.101141 2.401217 -0.096112 -0.829374 0.511989 -0.223620 51 51 51
-0.049882 2.205325 0.015507 -0.829374 0.511989 -0.223620 51 51 51
0.125580 2.489466 0.015297 -0.829374 0.511989 -0.223620 51 51 51
-0.199204 0.925815 -0.154761 -0.268962 -0.028356 -0.962733 51 51 51
0.058875 1.559880 -0.245537 -0.268962 -0.028356 -0.962733 51 51 51
0.059922 1.192142 -0.234998 -0.268962 -0.028356 -0.962733 51 51 51
-0.130867 0.798678 -0.233428 -0.180381 -0.074849 -0.980745 51 51 51
0.079774 0.782438 -0.270930 -0.180381 -0.074849 -0.980745 51 51 51
-0.105129 0.557990 -0.219792 -0.180381 -0.074849 -0.980745 51 51 51
-0.129272 0.411209 0.031276 -0.746407 -0.540745 -0.387907 51 51 51
-0.249799 0.622728 -0.031666 -0.746407 -0.540745 -0.387907 51 51 51
-0.105129 0.557990 -0.219792 -0.746407 -0.540745 -0.387907 51 51 51
-0.009187 0.335816 -0.043089 -0.655514 -0.622786 -0.427129 51 51 51
-0.129272 0.411209 0.031276 -0.655514 -0.622786 -0.427129 51 51 51
-0.105129 0.557990 -0.219792 -0.655514 -0.622786 -0.427129 51 51 51
-0.081487 0.922674 0.320263 -0.159278 -0.289192 0.943927 51 51 51
-0.133977 0.656127 0.229744 -0.159278 -0.289192 0.943927 51 51 51
0.117830 0.789606 0.313128 -0.159278 -0.289192 0.943927 51 51 51
0.098595 1.718903 0.281711 0.059049 0.034950 0.997643 51 51 51
-0.081487 0.922674 0.320263 0.059049 0.034950 0.997643 51 51 51
0.117830 0.789606 0.313128 0.059049 0.034950 0.997643 51 51 51
-0.071813 1.614816 0.243369 -0.742627 0.264923 0.615078 51 51 51
0.018939 2.168734 0.114360 -0.742627 0.264923 0.615078 51 51 51
-0.049882 2.205325 0.015507 -0.742627 0.264923 0.615078 51 51 51
0.098595 1.718903 0.281711 -0.364083 0.267433 0.892145 51 51 51
0.018939 2.168734 0.114360 -0.364083 0.267433 0.892145 51 51 51
-0.071813 1.614816 0.243369 -0.364083 0.267433 0.892145 51 51 51
0.125580 2.489466 0.015297 0.424343 0.255664 0.868659 51 51 51
0.114299 2.202768 0.105189 0.424343 0.255664 0.868659 51 51 51
0.212898 2.450871 -0.015999 0.424343 0.255664 0.868659 51 51 51
0.101141 2.401217 -0.096112 0.568464 0.045858 -0.821429 51 51 51
0.212898 2.450871 -0.015999 0.568464 0.045858 -0.821429 51 51 51
0.148129 2.172007 -0.076390 0.568464 0.045858 -0.821429 51 51 51
-0.130867 0.798678 -0.233428 -0.168917 0.077985 -0.982540 51 51 51
0.059922 1.192142 -0.234998 -0.168917 0.077985 -0.982540 51 51 51
0.079774 0.782438 -0.270930 -0.168917 0.077985 -0.982540 51 51 51
-0.007784 0.393878 0.040078 -0.655000 0.037323 0.754707 0 0 0
-0.058111 0.393878 -0.003600 -0.655000 0.037323 0.754707 0 0 0
-0.065384 -0.066637 0.012862 -0.655000 0.037323 0.754707 0 0 0
-0.058111 0.393878 -0.003600 -0.981717 -0.011216 -0.190014 0 0 0
-0.045448 0.393878 -0.069023 -0.981717 -0.011216 -0.190014 0 0 0
-0.043831 -0.066637 -0.050193 -0.981717 -0.011216 -0.190014 0 0 0
-0.045448 0.393878 -0.069023 -0.325742 -0.059619 -0.943577 0 0 0
0.017541 0.393878 -0.090768 -0.325742 -0.059619 -0.943577 0 0 0
0.021553 -0.066637 -0.063056 -0.325742 -0.059619 -0.943577 0 0 0
0.021553 -0.066637 -0.063056 0.654940 -0.039706 -0.754637 0 0 0
0.017541 0.393878 -0.090768 0.654940 -0.039706 -0.754637 0 0 0
0.067868 0.393878 -0.047090 0.654940 -0.039706 -0.754637 0 0 0
0.065384 -0.066637 -0.012862 0.981741 0.008828 0.190018 0 0 0
0.067868 0.393878 -0.047090 0.981741 0.008828 0.190018 0 0 0
0.055205 0.393878 0.018333 0.981741 0.008828 0.190018 0 0 0
0.043831 -0.066637 0.050193 0.325787 0.057243 0.943709 0 0 0
0.055205 0.393878 0.018333 0.325787 0.057243 0.943709 0 0 0
-0.007784 0.393878 0.040078 0.325787 0.057243 0.943709 0 0 0
0.250068 1.161920 -0.113351 0.536212 -0.022655 -0.843779 51 51 51
0.059922 1.192142 -0.234998 0.536212 -0.022655 -0.843779 51 51 51
0.058875 1.559880 -0.245537 0.536212 -0.022655 -0.843779 51 51 51
3 0 1 2
3 3 4 5
3 6 7 8
3 9 10 11
3 12 13 14
3 15 16 17
3 18 19 20
3 21 22 23
3 24 25 26
3 27 28 29
3 30 31 32
3 33 34 35
3 36 37 38
3 39 40 41
3 42 43 44
3 45 46 47
3 48 49 50
3 51 52 53
3 54 55 56
3 57 58 59
3 60 61 62
3 63 64 65
3 66 67 68
3 69 70 71
3 72 73 74
3 75 76 77
3 78 79 80
3 81 82 83
3 84 85 86
3 87 88 89
3 90 91 92
3 93 94 95
3 96 97 98
3 99 100 101
3 102 103 104
3 105 106 107
3 108 109 110
3 111 112 113
3 114 115 116
3 117 118 119
3 120 121 122
3 123 124 125
3 126 127 128
3 129 130 131
3 132 133 134
3 135 136 137
3 138 139 140
3 141 142 143
3 144 145 146
3 147 148 149
3 150 151 152
3 153 154 155
3 156 157 158
3 159 160 161
3 162 163 164
3 165 166 167
3 168 169 170
3 171 172 173
3 174 175 176
3 177 178 179
3 180 181 182
3 183 184 185
3 186 187 188
3 189 190 191
3 192 193 194
3 195 196 197
3 198 199 200
3 201 202 203
3 204 205 206
3 207 208 209
3 210 211 212
3 213 214 215
3 216 217 218
3 219 220 221
3 222 223 224
3 225 226 227
3 228 229 230
3 231 232 233
3 234 235 236
3 237 238 239
3 240 241 242
3 243 244 245
3 246 247 248
3 249 250 251
