ply
format ascii 1.0
comment Created by Blender 2.77 (sub 0) - www.blender.org, source file: 'NewTrees.blend'
element vertex 420
property float x
property float y
property float z
property float nx
property float ny
property float nz
property uchar red
property uchar green
property uchar blue
element face 140
property list uchar uint vertex_indices
end_header
-0.003626 0.105078 0.018671 -0.750380 0.086888 0.655272 0 0 0
-0.030460 -0.031044 0.005992 -0.750380 0.086888 0.655272 0 0 0
-0.010041 -0.031044 0.029376 -0.750380 0.086888 0.655272 0 0 0
-0.027072 0.105078 -0.001677 -0.946237 0.005331 -0.323431 0 0 0
-0.020420 -0.031044 -0.023383 -0.946237 0.005331 -0.323431 0 0 0
-0.030460 -0.031044 0.005992 -0.946237 0.005331 -0.323431 0 0 0
-0.021173 0.105078 -0.032155 -0.192624 -0.064166 -0.979172 0 0 0
0.010041 -0.031044 -0.029376 -0.192624 -0.064166 -0.979172 0 0 0
-0.020420 -0.031044 -0.023383 -0.192624 -0.064166 -0.979172 0 0 0
0.010041 -0.031044 -0.029376 0.750619 -0.083164 -0.655481 0 0 0
0.031617 0.105078 -0.021938 0.750619 -0.083164 -0.655481 0 0 0
0.030460 -0.031044 -0.005992 0.750619 -0.083164 -0.655481 0 0 0
0.008172 0.105078 -0.042286 0.654642 0.049855 -0.754294 0 0 0
0.019360 0.296114 -0.019949 0.654642 0.049855 -0.754294 0 0 0
0.031617 0.105078 -0.021938 0.654642 0.049855 -0.754294 0 0 0
0.030460 -0.031044 -0.005992 0.946249 -0.001567 0.323435 0 0 0
0.025718 0.105078 0.008541 0.946249 -0.001567 0.323435 0 0 0
0.020420 -0.031044 0.023383 0.946249 -0.001567 0.323435 0 0 0
0.020420 -0.031044 0.023383 0.192577 0.067906 0.978930 0 0 0
-0.003626 0.105078 0.018671 0.192577 0.067906 0.978930 0 0 0
-0.010041 -0.031044 0.029376 0.192577 0.067906 0.978930 0 0 0
0.001170 0.296636 0.005202 0.944092 -0.067508 0.322697 0 0 0
0.024019 0.527262 -0.013401 0.944092 -0.067508 0.322697 0 0 0
0.013979 0.527262 0.015975 0.944092 -0.067508 0.322697 0 0 0
-0.021173 0.105078 -0.032155 -0.808901 -0.071674 -0.583560 0 0 0
-0.042394 0.297020 -0.026314 -0.808901 -0.071674 -0.583560 0 0 0
-0.024203 0.296497 -0.051465 -0.808901 -0.071674 -0.583560 0 0 0
0.025718 0.105078 0.008541 0.806166 0.113433 0.580714 0 0 0
0.019360 0.296114 -0.019949 0.806166 0.113433 0.580714 0 0 0
0.001170 0.296636 0.005202 0.806166 0.113433 0.580714 0 0 0
-0.027072 0.105078 -0.001677 -0.912477 -0.020390 0.408619 0 0 0
-0.029708 0.297089 0.002019 -0.912477 -0.020390 0.408619 0 0 0
-0.042394 0.297020 -0.026314 -0.912477 -0.020390 0.408619 0 0 0
-0.021173 0.105078 -0.032155 -0.326153 -0.032226 -0.944768 0 0 0
0.006674 0.296044 -0.048282 -0.326153 -0.032226 -0.944768 0 0 0
0.008172 0.105078 -0.042286 -0.326153 -0.032226 -0.944768 0 0 0
-0.003626 0.105078 0.018671 -0.101213 0.072302 0.992234 0 0 0
0.001170 0.296636 0.005202 -0.101213 0.072302 0.992234 0 0 0
-0.029708 0.297089 0.002019 -0.101213 0.072302 0.992234 0 0 0
-0.024203 0.296497 -0.051465 0.103136 0.050770 -0.993371 0 0 0
0.003600 0.527262 -0.036784 0.103136 0.050770 -0.993371 0 0 0
0.006674 0.296044 -0.048282 0.103136 0.050770 -0.993371 0 0 0
-0.029708 0.297089 0.002019 -0.912436 -0.022418 0.408606 0 0 0
-0.036901 0.527262 -0.001416 -0.912436 -0.022418 0.408606 0 0 0
-0.042394 0.297020 -0.026314 -0.912436 -0.022418 0.408606 0 0 0
0.001170 0.296636 0.005202 -0.103363 -0.079981 0.991423 0 0 0
-0.016482 0.527262 0.021967 -0.103363 -0.079981 0.991423 0 0 0
-0.029708 0.297089 0.002019 -0.103363 -0.079981 0.991423 0 0 0
0.019360 0.296114 -0.019949 0.753224 0.003451 -0.657755 0 0 0
0.003600 0.527262 -0.036784 0.753224 0.003451 -0.657755 0 0 0
0.024019 0.527262 -0.013401 0.753224 0.003451 -0.657755 0 0 0
-0.042394 0.297020 -0.026314 -0.809096 0.043188 -0.586088 0 0 0
-0.026861 0.527262 -0.030792 -0.809096 0.043188 -0.586088 0 0 0
-0.024203 0.296497 -0.051465 -0.809096 0.043188 -0.586088 0 0 0
-0.016482 0.527262 0.021967 0.275022 -0.067089 0.959094 0 0 0
0.009035 0.797604 0.033561 0.275022 -0.067089 0.959094 0 0 0
-0.020807 0.797604 0.042118 0.275022 -0.067089 0.959094 0 0 0
0.024019 0.527262 -0.013401 0.693235 0.063882 -0.717875 0 0 0
-0.005787 0.797604 -0.018126 0.693235 0.063882 -0.717875 0 0 0
0.016545 0.797604 0.003438 0.693235 0.063882 -0.717875 0 0 0
-0.036901 0.527262 -0.001416 -0.946237 -0.005297 -0.323431 0 0 0
-0.035628 0.797604 -0.009569 -0.946237 -0.005297 -0.323431 0 0 0
-0.026861 0.527262 -0.030792 -0.946237 -0.005297 -0.323431 0 0 0
0.013979 0.527262 0.015975 0.970295 0.002007 0.241915 0 0 0
0.016545 0.797604 0.003438 0.970295 0.002007 0.241915 0 0 0
0.009035 0.797604 0.033561 0.970295 0.002007 0.241915 0 0 0
-0.026861 0.527262 -0.030792 -0.192664 0.060902 -0.979373 0 0 0
-0.005787 0.797604 -0.018126 -0.192664 0.060902 -0.979373 0 0 0
0.003600 0.527262 -0.036784 -0.192664 0.060902 -0.979373 0 0 0
-0.016482 0.527262 0.021967 -0.751346 -0.070652 0.656115 0 0 0
-0.043138 0.797604 0.020553 -0.751346 -0.070652 0.656115 0 0 0
-0.036901 0.527262 -0.001416 -0.751346 -0.070652 0.656115 0 0 0
0.188980 2.235098 0.223739 0.594303 0.118207 0.795507 51 51 51
0.133982 3.249239 0.114133 0.594303 0.118207 0.795507 51 51 51
0.030845 3.169969 0.202962 0.594303 0.118207 0.795507 51 51 51
0.133982 3.249239 0.114133 0.972690 0.125450 0.195288 51 51 51
0.177287 3.170736 -0.051134 0.972690 0.125450 0.195288 51 51 51
0.102820 3.631691 0.023661 0.972690 0.125450 0.195288 51 51 51
0.096279 3.203672 -0.164102 0.761228 0.250721 -0.598056 51 51 51
0.008683 3.608701 -0.105798 0.761228 0.250721 -0.598056 51 51 51
0.102820 3.631691 0.023661 0.761228 0.250721 -0.598056 51 51 51
-0.224099 1.418243 -0.312391 -0.563620 0.084785 -0.821672 51 51 51
-0.229215 2.250495 -0.223004 -0.563620 0.084785 -0.821672 51 51 51
-0.145974 2.194756 -0.285854 -0.563620 0.084785 -0.821672 51 51 51
0.271487 1.046362 0.061952 0.965713 -0.191431 -0.175361 51 51 51
0.238557 1.098939 -0.176790 0.965713 -0.191431 -0.175361 51 51 51
0.341812 1.382983 0.081762 0.965713 -0.191431 -0.175361 51 51 51
0.238557 1.098939 -0.176790 0.540322 -0.430388 -0.723061 51 51 51
0.136125 0.831850 -0.094354 0.540322 -0.430388 -0.723061 51 51 51
0.036871 1.039871 -0.292344 0.540322 -0.430388 -0.723061 51 51 51
0.036871 1.039871 -0.292344 0.530601 -0.200642 -0.823532 51 51 51
0.051677 1.384818 -0.366847 0.530601 -0.200642 -0.823532 51 51 51
0.238557 1.098939 -0.176790 0.530601 -0.200642 -0.823532 51 51 51
0.186989 1.924044 -0.283405 0.609156 0.198063 -0.767919 51 51 51
0.037452 2.435383 -0.270141 0.609156 0.198063 -0.767919 51 51 51
0.234693 2.271166 -0.156033 0.609156 0.198063 -0.767919 51 51 51
0.234693 2.271166 -0.156033 0.544609 0.073609 -0.835454 51 51 51
0.037452 2.435383 -0.270141 0.544609 0.073609 -0.835454 51 51 51
0.096279 3.203672 -0.164102 0.544609 0.073609 -0.835454 51 51 51
0.234693 2.271166 -0.156033 0.822926 0.117339 -0.555900 51 51 51
0.096279 3.203672 -0.164102 0.822926 0.117339 -0.555900 51 51 51
0.177287 3.170736 -0.051134 0.822926 0.117339 -0.555900 51 51 51
0.284396 1.433972 -0.200029 0.585464 -0.021509 -0.810413 51 51 51
0.051677 1.384818 -0.366847 0.585464 -0.021509 -0.810413 51 51 51
0.186989 1.924044 -0.283405 0.585464 -0.021509 -0.810413 51 51 51
0.284396 1.433972 -0.200029 0.596028 -0.136435 -0.791287 51 51 51
0.238557 1.098939 -0.176790 0.596028 -0.136435 -0.791287 51 51 51
0.051677 1.384818 -0.366847 0.596028 -0.136435 -0.791287 51 51 51
0.179786 1.416832 0.310297 0.798472 -0.136603 0.586329 51 51 51
0.157579 1.092307 0.264932 0.798472 -0.136603 0.586329 51 51 51
0.341812 1.382983 0.081762 0.798472 -0.136603 0.586329 51 51 51
0.271487 1.046362 0.061952 0.833211 -0.204309 0.513826 51 51 51
0.341812 1.382983 0.081762 0.833211 -0.204309 0.513826 51 51 51
0.157579 1.092307 0.264932 0.833211 -0.204309 0.513826 51 51 51
0.157579 1.092307 0.264932 0.741399 -0.431700 0.513773 51 51 51
0.079285 0.826922 0.154923 0.741399 -0.431700 0.513773 51 51 51
0.271487 1.046362 0.061952 0.741399 -0.431700 0.513773 51 51 51
-0.180832 0.832601 0.101363 -0.142240 -0.781112 0.607974 51 51 51
-0.022110 0.725884 0.001389 -0.142240 -0.781112 0.607974 51 51 51
0.079285 0.826922 0.154923 -0.142240 -0.781112 0.607974 51 51 51
0.079285 0.826922 0.154923 0.602075 -0.789113 0.121684 51 51 51
-0.022110 0.725884 0.001389 0.602075 -0.789113 0.121684 51 51 51
0.136125 0.831850 -0.094354 0.602075 -0.789113 0.121684 51 51 51
-0.128251 0.825939 -0.149410 -0.599439 -0.793556 -0.104605 51 51 51
-0.022110 0.725884 0.001389 -0.599439 -0.793556 -0.104605 51 51 51
-0.180832 0.832601 0.101363 -0.599439 -0.793556 -0.104605 51 51 51
0.136125 0.831850 -0.094354 0.145608 -0.774094 -0.616098 51 51 51
-0.022110 0.725884 0.001389 0.145608 -0.774094 -0.616098 51 51 51
-0.128251 0.825939 -0.149410 0.145608 -0.774094 -0.616098 51 51 51
-0.348124 1.168538 -0.106388 -0.839573 -0.518446 -0.162264 51 51 51
-0.128251 0.825939 -0.149410 -0.839573 -0.518446 -0.162264 51 51 51
-0.180832 0.832601 0.101363 -0.839573 -0.518446 -0.162264 51 51 51
-0.348124 1.168538 -0.106388 -0.954275 -0.252713 0.159671 51 51 51
-0.284894 1.108380 0.176297 -0.954275 -0.252713 0.159671 51 51 51
-0.372701 1.391380 0.099427 -0.954275 -0.252713 0.159671 51 51 51
-0.372701 1.391380 0.099427 -0.973302 0.087955 0.212005 51 51 51
-0.288689 2.137083 0.175748 -0.973302 0.087955 0.212005 51 51 51
-0.373640 1.821515 -0.083337 -0.973302 0.087955 0.212005 51 51 51
0.136125 0.831850 -0.094354 0.171044 -0.635223 -0.753151 51 51 51
-0.128251 0.825939 -0.149410 0.171044 -0.635223 -0.753151 51 51 51
0.036871 1.039871 -0.292344 0.171044 -0.635223 -0.753151 51 51 51
0.051677 1.384818 -0.366847 -0.208736 -0.146966 -0.966866 51 51 51
-0.196589 1.090574 -0.268523 -0.208736 -0.146966 -0.966866 51 51 51
-0.224099 1.418243 -0.312391 -0.208736 -0.146966 -0.966866 51 51 51
-0.348124 1.168538 -0.106388 -0.848756 -0.014505 -0.528585 51 51 51
-0.373640 1.821515 -0.083337 -0.848756 -0.014505 -0.528585 51 51 51
-0.224099 1.418243 -0.312391 -0.848756 -0.014505 -0.528585 51 51 51
-0.373640 1.821515 -0.083337 -0.851114 0.120160 -0.511044 51 51 51
-0.290885 2.497498 -0.062219 -0.851114 0.120160 -0.511044 51 51 51
-0.229215 2.250495 -0.223004 -0.851114 0.120160 -0.511044 51 51 51
-0.145974 2.194756 -0.285854 -0.134061 0.165990 -0.976972 51 51 51
0.037452 2.435383 -0.270141 -0.134061 0.165990 -0.976972 51 51 51
-0.026997 1.899933 -0.352271 -0.134061 0.165990 -0.976972 51 51 51
-0.145974 2.194756 -0.285854 -0.024272 0.083556 -0.996207 51 51 51
-0.074478 3.266994 -0.197663 -0.024272 0.083556 -0.996207 51 51 51
0.037452 2.435383 -0.270141 -0.024272 0.083556 -0.996207 51 51 51
-0.182228 3.275029 -0.131461 -0.972567 0.118063 -0.200436 51 51 51
-0.290885 2.497498 -0.062219 -0.972567 0.118063 -0.200436 51 51 51
-0.222269 3.235323 0.039439 -0.972567 0.118063 -0.200436 51 51 51
-0.146469 3.198869 0.161161 -0.826621 0.118280 0.550189 51 51 51
-0.222269 3.235323 0.039439 -0.826621 0.118280 0.550189 51 51 51
-0.288689 2.137083 0.175748 -0.826621 0.118280 0.550189 51 51 51
-0.172147 1.835104 0.311742 -0.600040 0.124315 0.790251 51 51 51
-0.077492 2.576166 0.267037 -0.600040 0.124315 0.790251 51 51 51
-0.288689 2.137083 0.175748 -0.600040 0.124315 0.790251 51 51 51
-0.079939 1.048501 0.295341 0.164058 -0.222392 0.961055 51 51 51
0.157579 1.092307 0.264932 0.164058 -0.222392 0.961055 51 51 51
-0.007154 1.393598 0.362773 0.164058 -0.222392 0.961055 51 51 51
-0.079939 1.048501 0.295341 0.191469 -0.423518 0.885422 51 51 51
0.079285 0.826922 0.154923 0.191469 -0.423518 0.885422 51 51 51
0.157579 1.092307 0.264932 0.191469 -0.423518 0.885422 51 51 51
-0.079939 1.048501 0.295341 -0.538356 -0.232116 0.810121 51 51 51
-0.257558 1.406291 0.279820 -0.538356 -0.232116 0.810121 51 51 51
-0.284894 1.108380 0.176297 -0.538356 -0.232116 0.810121 51 51 51
-0.180832 0.832601 0.101363 -0.172212 -0.612600 0.771404 51 51 51
0.079285 0.826922 0.154923 -0.172212 -0.612600 0.771404 51 51 51
-0.079939 1.048501 0.295341 -0.172212 -0.612600 0.771404 51 51 51
-0.007154 1.393598 0.362773 0.284572 -0.151794 0.946561 51 51 51
0.157579 1.092307 0.264932 0.284572 -0.151794 0.946561 51 51 51
0.179786 1.416832 0.310297 0.284572 -0.151794 0.946561 51 51 51
-0.196589 1.090574 -0.268523 -0.754767 -0.421249 -0.502867 51 51 51
-0.128251 0.825939 -0.149410 -0.754767 -0.421249 -0.502867 51 51 51
-0.348124 1.168538 -0.106388 -0.754767 -0.421249 -0.502867 51 51 51
0.079285 0.826922 0.154923 0.775517 -0.609441 0.164785 51 51 51
0.136125 0.831850 -0.094354 0.775517 -0.609441 0.164785 51 51 51
0.271487 1.046362 0.061952 0.775517 -0.609441 0.164785 51 51 51
-0.196589 1.090574 -0.268523 -0.142944 -0.203080 -0.968672 51 51 51
0.051677 1.384818 -0.366847 -0.142944 -0.203080 -0.968672 51 51 51
0.036871 1.039871 -0.292344 -0.142944 -0.203080 -0.968672 51 51 51
-0.007154 1.393598 0.362773 -0.128439 0.066370 0.989494 51 51 51
0.056836 1.972249 0.332266 -0.128439 0.066370 0.989494 51 51 51
-0.172147 1.835104 0.311742 -0.128439 0.066370 0.989494 51 51 51
-0.224099 1.418243 -0.312391 -0.757125 -0.148727 -0.636115 51 51 51
-0.196589 1.090574 -0.268523 -0.757125 -0.148727 -0.636115 51 51 51
-0.348124 1.168538 -0.106388 -0.757125 -0.148727 -0.636115 51 51 51
0.341812 1.382983 0.081762 0.963624 -0.147310 -0.222999 51 51 51
0.238557 1.098939 -0.176790 0.963624 -0.147310 -0.222999 51 51 51
0.284396 1.433972 -0.200029 0.963624 -0.147310 -0.222999 51 51 51
-0.288689 2.137083 0.175748 -0.989577 0.075099 0.122875 51 51 51
-0.222269 3.235323 0.039439 -0.989577 0.075099 0.122875 51 51 51
-0.290885 2.497498 -0.062219 -0.989577 0.075099 0.122875 51 51 51
-0.146469 3.198869 0.161161 -0.190508 0.216214 0.957579 51 51 51
0.030845 3.169969 0.202962 -0.190508 0.216214 0.957579 51 51 51
-0.028858 3.736619 0.063139 -0.190508 0.216214 0.957579 51 51 51
-0.257558 1.406291 0.279820 -0.665694 0.077340 0.742206 51 51 51
-0.172147 1.835104 0.311742 -0.665694 0.077340 0.742206 51 51 51
-0.288689 2.137083 0.175748 -0.665694 0.077340 0.742206 51 51 51
-0.288689 2.137083 0.175748 -0.976766 0.113906 0.181533 51 51 51
-0.290885 2.497498 -0.062219 -0.976766 0.113906 0.181533 51 51 51
-0.373640 1.821515 -0.083337 -0.976766 0.113906 0.181533 51 51 51
-0.077492 2.576166 0.267037 -0.000252 0.107329 0.994224 51 51 51
0.056836 1.972249 0.332266 -0.000252 0.107329 0.994224 51 51 51
0.030845 3.169969 0.202962 -0.000252 0.107329 0.994224 51 51 51
-0.373640 1.821515 -0.083337 -0.782515 0.061733 -0.619564 51 51 51
-0.229215 2.250495 -0.223004 -0.782515 0.061733 -0.619564 51 51 51
-0.224099 1.418243 -0.312391 -0.782515 0.061733 -0.619564 51 51 51
0.326913 1.910584 0.074222 0.854272 0.131374 0.502951 51 51 51
0.242999 2.525363 0.056168 0.854272 0.131374 0.502951 51 51 51
0.188980 2.235098 0.223739 0.854272 0.131374 0.502951 51 51 51
-0.074478 3.266994 -0.197663 0.232624 0.115472 -0.965688 51 51 51
0.096279 3.203672 -0.164102 0.232624 0.115472 -0.965688 51 51 51
0.037452 2.435383 -0.270141 0.232624 0.115472 -0.965688 51 51 51
-0.028858 3.736619 0.063139 0.449355 0.240163 0.860466 51 51 51
0.133982 3.249239 0.114133 0.449355 0.240163 0.860466 51 51 51
0.102820 3.631691 0.023661 0.449355 0.240163 0.860466 51 51 51
0.096279 3.203672 -0.164102 0.257335 0.191983 -0.947059 51 51 51
-0.074478 3.266994 -0.197663 0.257335 0.191983 -0.947059 51 51 51
0.008683 3.608701 -0.105798 0.257335 0.191983 -0.947059 51 51 51
-0.180832 0.832601 0.101363 -0.544809 -0.405080 0.734230 51 51 51
-0.079939 1.048501 0.295341 -0.544809 -0.405080 0.734230 51 51 51
-0.284894 1.108380 0.176297 -0.544809 -0.405080 0.734230 51 51 51
-0.079939 1.048501 0.295341 -0.317648 -0.116872 0.940978 51 51 51
-0.007154 1.393598 0.362773 -0.317648 -0.116872 0.940978 51 51 51
-0.257558 1.406291 0.279820 -0.317648 -0.116872 0.940978 51 51 51
-0.007154 1.393598 0.362773 -0.314823 -0.007949 0.949117 51 51 51
-0.172147 1.835104 0.311742 -0.314823 -0.007949 0.949117 51 51 51
-0.257558 1.406291 0.279820 -0.314823 -0.007949 0.949117 51 51 51
0.179786 1.416832 0.310297 0.267759 0.021173 0.963253 51 51 51
0.056836 1.972249 0.332266 0.267759 0.021173 0.963253 51 51 51
-0.007154 1.393598 0.362773 0.267759 0.021173 0.963253 51 51 51
0.188980 2.235098 0.223739 0.499941 0.103675 0.859832 51 51 51
0.030845 3.169969 0.202962 0.499941 0.103675 0.859832 51 51 51
0.056836 1.972249 0.332266 0.499941 0.103675 0.859832 51 51 51
0.177287 3.170736 -0.051134 0.972492 0.131038 0.192582 51 51 51
0.133982 3.249239 0.114133 0.972492 0.131038 0.192582 51 51 51
0.242999 2.525363 0.056168 0.972492 0.131038 0.192582 51 51 51
0.177287 3.170736 -0.051134 0.822090 0.218142 -0.525911 51 51 51
0.096279 3.203672 -0.164102 0.822090 0.218142 -0.525911 51 51 51
0.102820 3.631691 0.023661 0.822090 0.218142 -0.525911 51 51 51
-0.229215 2.250495 -0.223004 -0.553573 0.104864 -0.826172 51 51 51
-0.074478 3.266994 -0.197663 -0.553573 0.104864 -0.826172 51 51 51
-0.145974 2.194756 -0.285854 -0.553573 0.104864 -0.826172 51 51 51
0.179786 1.416832 0.310297 0.791067 0.055555 0.609201 51 51 51
0.326913 1.910584 0.074222 0.791067 0.055555 0.609201 51 51 51
0.188980 2.235098 0.223739 0.791067 0.055555 0.609201 51 51 51
-0.026997 1.899933 -0.352271 -0.353636 0.067462 -0.932947 51 51 51
-0.224099 1.418243 -0.312391 -0.353636 0.067462 -0.932947 51 51 51
-0.145974 2.194756 -0.285854 -0.353636 0.067462 -0.932947 51 51 51
0.271487 1.046362 0.061952 0.888783 -0.406314 -0.212073 51 51 51
0.136125 0.831850 -0.094354 0.888783 -0.406314 -0.212073 51 51 51
0.238557 1.098939 -0.176790 0.888783 -0.406314 -0.212073 51 51 51
0.326913 1.910584 0.074222 0.973393 0.127268 -0.190552 51 51 51
0.234693 2.271166 -0.156033 0.973393 0.127268 -0.190552 51 51 51
0.242999 2.525363 0.056168 0.973393 0.127268 -0.190552 51 51 51
-0.026997 1.899933 -0.352271 0.293189 0.110376 -0.949662 51 51 51
0.037452 2.435383 -0.270141 0.293189 0.110376 -0.949662 51 51 51
0.186989 1.924044 -0.283405 0.293189 0.110376 -0.949662 51 51 51
0.284396 1.433972 -0.200029 0.845047 0.077967 -0.528976 51 51 51
0.186989 1.924044 -0.283405 0.845047 0.077967 -0.528976 51 51 51
0.234693 2.271166 -0.156033 0.845047 0.077967 -0.528976 51 51 51
0.051677 1.384818 -0.366847 0.298138 0.072466 -0.951768 51 51 51
-0.026997 1.899933 -0.352271 0.298138 0.072466 -0.951768 51 51 51
0.186989 1.924044 -0.283405 0.298138 0.072466 -0.951768 51 51 51
-0.348124 1.168538 -0.106388 -0.916735 -0.379682 0.124254 51 51 51
-0.180832 0.832601 0.101363 -0.916735 -0.379682 0.124254 51 51 51
-0.284894 1.108380 0.176297 -0.916735 -0.379682 0.124254 51 51 51
-0.373640 1.821515 -0.083337 -0.996152 -0.036106 -0.079856 51 51 51
-0.348124 1.168538 -0.106388 -0.996152 -0.036106 -0.079856 51 51 51
-0.372701 1.391380 0.099427 -0.996152 -0.036106 -0.079856 51 51 51
0.326913 1.910584 0.074222 0.959472 0.071290 -0.272639 51 51 51
0.284396 1.433972 -0.200029 0.959472 0.071290 -0.272639 51 51 51
0.234693 2.271166 -0.156033 0.959472 0.071290 -0.272639 51 51 51
-0.182228 3.275029 -0.131461 -0.475119 0.334438 -0.813888 51 51 51
0.008683 3.608701 -0.105798 -0.475119 0.334438 -0.813888 51 51 51
-0.074478 3.266994 -0.197663 -0.475119 0.334438 -0.813888 51 51 51
0.179786 1.416832 0.310297 0.528046 0.083465 0.845104 51 51 51
0.188980 2.235098 0.223739 0.528046 0.083465 0.845104 51 51 51
0.056836 1.972249 0.332266 0.528046 0.083465 0.845104 51 51 51
-0.372701 1.391380 0.099427 -0.833453 -0.111591 0.541206 51 51 51
-0.284894 1.108380 0.176297 -0.833453 -0.111591 0.541206 51 51 51
-0.257558 1.406291 0.279820 -0.833453 -0.111591 0.541206 51 51 51
-0.257558 1.406291 0.279820 -0.843749 0.040279 0.535224 51 51 51
-0.288689 2.137083 0.175748 -0.843749 0.040279 0.535224 51 51 51
-0.372701 1.391380 0.099427 -0.843749 0.040279 0.535224 51 51 51
-0.196589 1.090574 -0.268523 -0.185668 -0.442776 -0.877198 51 51 51
0.036871 1.039871 -0.292344 -0.185668 -0.442776 -0.877198 51 51 51
-0.128251 0.825939 -0.149410 -0.185668 -0.442776 -0.877198 51 51 51
-0.182228 3.275029 -0.131461 -0.881970 0.081919 -0.464132 51 51 51
-0.229215 2.250495 -0.223004 -0.881970 0.081919 -0.464132 51 51 51
-0.290885 2.497498 -0.062219 -0.881970 0.081919 -0.464132 51 51 51
0.234693 2.271166 -0.156033 0.988035 0.078531 -0.132743 51 51 51
0.177287 3.170736 -0.051134 0.988035 0.078531 -0.132743 51 51 51
0.242999 2.525363 0.056168 0.988035 0.078531 -0.132743 51 51 51
0.030845 3.169969 0.202962 -0.205163 0.141926 0.968383 51 51 51
-0.146469 3.198869 0.161161 -0.205163 0.141926 0.968383 51 51 51
-0.077492 2.576166 0.267037 -0.205163 0.141926 0.968383 51 51 51
-0.288689 2.137083 0.175748 -0.536380 0.083383 0.839847 51 51 51
-0.077492 2.576166 0.267037 -0.536380 0.083383 0.839847 51 51 51
-0.146469 3.198869 0.161161 -0.536380 0.083383 0.839847 51 51 51
0.030845 3.169969 0.202962 0.510113 0.256336 0.821022 51 51 51
0.133982 3.249239 0.114133 0.510113 0.256336 0.821022 51 51 51
-0.028858 3.736619 0.063139 0.510113 0.256336 0.821022 51 51 51
0.056836 1.972249 0.332266 -0.134534 0.076781 0.987930 51 51 51
-0.077492 2.576166 0.267037 -0.134534 0.076781 0.987930 51 51 51
-0.172147 1.835104 0.311742 -0.134534 0.076781 0.987930 51 51 51
0.133982 3.249239 0.114133 0.885841 0.097077 0.453719 51 51 51
0.188980 2.235098 0.223739 0.885841 0.097077 0.453719 51 51 51
0.242999 2.525363 0.056168 0.885841 0.097077 0.453719 51 51 51
-0.146469 3.198869 0.161161 -0.780983 0.264787 0.565644 51 51 51
-0.121874 3.675035 -0.027782 -0.780983 0.264787 0.565644 51 51 51
-0.222269 3.235323 0.039439 -0.780983 0.264787 0.565644 51 51 51
0.008683 3.608701 -0.105798 0.460322 0.753987 -0.468622 51 51 51
-0.028858 3.736619 0.063139 0.460322 0.753987 -0.468622 51 51 51
0.102820 3.631691 0.023661 0.460322 0.753987 -0.468622 51 51 51
-0.121874 3.675035 -0.027782 -0.964418 0.192490 -0.181234 51 51 51
-0.182228 3.275029 -0.131461 -0.964418 0.192490 -0.181234 51 51 51
-0.222269 3.235323 0.039439 -0.964418 0.192490 -0.181234 51 51 51
-0.003626 0.105078 0.018671 -0.654324 0.058763 0.753928 0 0 0
-0.027072 0.105078 -0.001677 -0.654324 0.058763 0.753928 0 0 0
-0.030460 -0.031044 0.005992 -0.654324 0.058763 0.753928 0 0 0
-0.027072 0.105078 -0.001677 -0.981626 -0.017676 -0.189996 0 0 0
-0.021173 0.105078 -0.032155 -0.981626 -0.017676 -0.189996 0 0 0
-0.020420 -0.031044 -0.023383 -0.981626 -0.017676 -0.189996 0 0 0
-0.021173 0.105078 -0.032155 -0.324886 -0.093717 -0.941098 0 0 0
0.008172 0.105078 -0.042286 -0.324886 -0.093717 -0.941098 0 0 0
0.010041 -0.031044 -0.029376 -0.324886 -0.093717 -0.941098 0 0 0
0.010041 -0.031044 -0.029376 0.654175 -0.062507 -0.753756 0 0 0
0.008172 0.105078 -0.042286 0.654175 -0.062507 -0.753756 0 0 0
0.031617 0.105078 -0.021938 0.654175 -0.062507 -0.753756 0 0 0
0.008172 0.105078 -0.042286 0.912676 -0.005673 -0.408644 0 0 0
0.006674 0.296044 -0.048282 0.912676 -0.005673 -0.408644 0 0 0
0.019360 0.296114 -0.019949 0.912676 -0.005673 -0.408644 0 0 0
0.030460 -0.031044 -0.005992 0.981684 0.013913 0.190007 0 0 0
0.031617 0.105078 -0.021938 0.981684 0.013913 0.190007 0 0 0
0.025718 0.105078 0.008541 0.981684 0.013913 0.190007 0 0 0
0.020420 -0.031044 0.023383 0.324998 0.090000 0.941422 0 0 0
0.025718 0.105078 0.008541 0.324998 0.090000 0.941422 0 0 0
-0.003626 0.105078 0.018671 0.324998 0.090000 0.941422 0 0 0
0.001170 0.296636 0.005202 0.809514 -0.032922 0.586177 0 0 0
0.019360 0.296114 -0.019949 0.809514 -0.032922 0.586177 0 0 0
0.024019 0.527262 -0.013401 0.809514 -0.032922 0.586177 0 0 0
-0.021173 0.105078 -0.032155 -0.976636 -0.102225 -0.189030 0 0 0
-0.027072 0.105078 -0.001677 -0.976636 -0.102225 -0.189030 0 0 0
-0.042394 0.297020 -0.026314 -0.976636 -0.102225 -0.189030 0 0 0
0.025718 0.105078 0.008541 0.979957 0.060900 0.189673 0 0 0
0.031617 0.105078 -0.021938 0.979957 0.060900 0.189673 0 0 0
0.019360 0.296114 -0.019949 0.979957 0.060900 0.189673 0 0 0
-0.027072 0.105078 -0.001677 -0.655275 -0.023528 0.755024 0 0 0
-0.003626 0.105078 0.018671 -0.655275 -0.023528 0.755024 0 0 0
-0.029708 0.297089 0.002019 -0.655275 -0.023528 0.755024 0 0 0
-0.021173 0.105078 -0.032155 0.100608 -0.098281 -0.990060 0 0 0
-0.024203 0.296497 -0.051465 0.100608 -0.098281 -0.990060 0 0 0
0.006674 0.296044 -0.048282 0.100608 -0.098281 -0.990060 0 0 0
-0.003626 0.105078 0.018671 0.325769 0.058196 0.943657 0 0 0
0.025718 0.105078 0.008541 0.325769 0.058196 0.943657 0 0 0
0.001170 0.296636 0.005202 0.325769 0.058196 0.943657 0 0 0
-0.024203 0.296497 -0.051465 -0.192317 0.085365 -0.977613 0 0 0
-0.026861 0.527262 -0.030792 -0.192317 0.085365 -0.977613 0 0 0
0.003600 0.527262 -0.036784 -0.192317 0.085365 -0.977613 0 0 0
-0.029708 0.297089 0.002019 -0.753157 -0.013722 0.657697 0 0 0
-0.016482 0.527262 0.021967 -0.753157 -0.013722 0.657697 0 0 0
-0.036901 0.527262 -0.001416 -0.753157 -0.013722 0.657697 0 0 0
0.001170 0.296636 0.005202 0.192714 -0.056463 0.979629 0 0 0
0.013979 0.527262 0.015975 0.192714 -0.056463 0.979629 0 0 0
-0.016482 0.527262 0.021967 0.192714 -0.056463 0.979629 0 0 0
0.019360 0.296114 -0.019949 0.912175 0.032442 -0.408514 0 0 0
0.006674 0.296044 -0.048282 0.912175 0.032442 -0.408514 0 0 0
0.003600 0.527262 -0.036784 0.912175 0.032442 -0.408514 0 0 0
-0.042394 0.297020 -0.026314 -0.944687 0.057455 -0.322901 0 0 0
-0.036901 0.527262 -0.001416 -0.944687 0.057455 -0.322901 0 0 0
-0.026861 0.527262 -0.030792 -0.944687 0.057455 -0.322901 0 0 0
-0.016482 0.527262 0.021967 0.192672 -0.060188 0.979416 0 0 0
0.013979 0.527262 0.015975 0.192672 -0.060188 0.979416 0 0 0
0.009035 0.797604 0.033561 0.192672 -0.060188 0.979416 0 0 0
0.024019 0.527262 -0.013401 0.751308 0.071365 -0.656082 0 0 0
0.003600 0.527262 -0.036784 0.751308 0.071365 -0.656082 0 0 0
-0.005787 0.797604 -0.018126 0.751308 0.071365 -0.656082 0 0 0
-0.036901 0.527262 -0.001416 -0.970294 -0.002726 -0.241915 0 0 0
-0.043138 0.797604 0.020553 -0.970294 -0.002726 -0.241915 0 0 0
-0.035628 0.797604 -0.009569 -0.970294 -0.002726 -0.241915 0 0 0
0.013979 0.527262 0.015975 0.946233 0.006016 0.323429 0 0 0
0.024019 0.527262 -0.013401 0.946233 0.006016 0.323429 0 0 0
0.016545 0.797604 0.003438 0.946233 0.006016 0.323429 0 0 0
-0.026861 0.527262 -0.030792 -0.275035 0.066376 -0.959140 0 0 0
-0.035628 0.797604 -0.009569 -0.275035 0.066376 -0.959140 0 0 0
-0.005787 0.797604 -0.018126 -0.275035 0.066376 -0.959140 0 0 0
-0.016482 0.527262 0.021967 -0.693203 -0.064596 0.717842 0 0 0
-0.020807 0.797604 0.042118 -0.693203 -0.064596 0.717842 0 0 0
-0.043138 0.797604 0.020553 -0.693203 -0.064596 0.717842 0 0 0
-0.229215 2.250495 -0.223004 -0.515479 0.099686 -0.851084 51 51 51
-0.182228 3.275029 -0.131461 -0.515479 0.099686 -0.851084 51 51 51
-0.074478 3.266994 -0.197663 -0.515479 0.099686 -0.851084 51 51 51
0.179786 1.416832 0.310297 0.817559 0.031305 0.574993 51 51 51
0.341812 1.382983 0.081762 0.817559 0.031305 0.574993 51 51 51
0.326913 1.910584 0.074222 0.817559 0.031305 0.574993 51 51 51
-0.026997 1.899933 -0.352271 -0.193942 -0.001862 -0.981011 51 51 51
0.051677 1.384818 -0.366847 -0.193942 -0.001862 -0.981011 51 51 51
-0.224099 1.418243 -0.312391 -0.193942 -0.001862 -0.981011 51 51 51
0.326913 1.910584 0.074222 0.980435 0.024897 -0.195264 51 51 51
0.341812 1.382983 0.081762 0.980435 0.024897 -0.195264 51 51 51
0.284396 1.433972 -0.200029 0.980435 0.024897 -0.195264 51 51 51
-0.182228 3.275029 -0.131461 -0.380601 0.285412 -0.879593 51 51 51
-0.121874 3.675035 -0.027782 -0.380601 0.285412 -0.879593 51 51 51
0.008683 3.608701 -0.105798 -0.380601 0.285412 -0.879593 51 51 51
-0.146469 3.198869 0.161161 -0.758855 0.273689 0.590960 51 51 51
-0.028858 3.736619 0.063139 -0.758855 0.273689 0.590960 51 51 51
-0.121874 3.675035 -0.027782 -0.758855 0.273689 0.590960 51 51 51
0.008683 3.608701 -0.105798 0.051405 0.801649 -0.595581 51 51 51
-0.121874 3.675035 -0.027782 0.051405 0.801649 -0.595581 51 51 51
-0.028858 3.736619 0.063139 0.051405 0.801649 -0.595581 51 51 51
3 0 1 2
3 3 4 5
3 6 7 8
3 9 10 11
3 12 13 14
3 15 16 17
3 18 19 20
3 21 22 23
3 24 25 26
3 27 28 29
3 30 31 32
3 33 34 35
3 36 37 38
3 39 40 41
3 42 43 44
3 45 46 47
3 48 49 50
3 51 52 53
3 54 55 56
3 57 58 59
3 60 61 62
3 63 64 65
3 66 67 68
3 69 70 71
3 72 73 74
3 75 76 77
3 78 79 80
3 81 82 83
3 84 85 86
3 87 88 89
3 90 91 92
3 93 94 95
3 96 97 98
3 99 100 101
3 102 103 104
3 105 106 107
3 108 109 110
3 111 112 113
3 114 115 116
3 117 118 119
3 120 121 122
3 123 124 125
3 126 127 128
3 129 130 131
3 132 133 134
3 135 136 137
3 138 139 140
3 141 142 143
3 144 145 146
3 147 148 149
3 150 151 152
3 153 154 155
3 156 157 158
3 159 160 161
3 162 163 164
3 165 166 167
3 168 169 170
3 171 172 173
3 174 175 176
3 177 178 179
3 180 181 182
3 183 184 185
3 186 187 188
3 189 190 191
3 192 193 194
3 195 196 197
3 198 199 200
3 201 202 203
3 204 205 206
3 207 208 209
3 210 211 212
3 213 214 215
3 216 217 218
3 219 220 221
3 222 223 224
3 225 226 227
3 228 229 230
3 231 232 233
3 234 235 236
3 237 238 239
3 240 241 242
3 243 244 245
3 246 247 248
3 249 250 251
3 252 253 254
3 255 256 257
3 258 259 260
3 261 262 263
3 264 265 266
3 267 268 269
3 270 271 272
3 273 274 275
3 276 277 278
3 279 280 281
3 282 283 284
3 285 286 287
3 288 289 290
3 291 292 293
3 294 295 296
3 297 298 299
3 300 301 302
3 303 304 305
3 306 307 308
3 309 310 311
3 312 313 314
3 315 316 317
3 318 319 320
3 321 322 323
3 324 325 326
3 327 328 329
3 330 331 332
3 333 334 335
3 336 337 338
3 339 340 341
3 342 343 344
3 345 346 347
3 348 349 350
3 351 352 353
3 354 355 356
3 357 358 359
3 360 361 362
3 363 364 365
3 366 367 368
3 369 370 371
3 372 373 374
3 375 376 377
3 378 379 380
3 381 382 383
3 384 385 386
3 387 388 389
3 390 391 392
3 393 394 395
3 396 397 398
3 399 400 401
3 402 403 404
3 405 406 407
3 408 409 410
3 411 412 413
3 414 415 416
3 417 418 419
