ply
format ascii 1.0
comment Created by Blender 2.77 (sub 0) - www.blender.org, source file: 'Bosses.blend'
element vertex 322
property float x
property float y
property float z
property float nx
property float ny
property float nz
property uchar red
property uchar green
property uchar blue
element face 120
property list uchar uint vertex_indices
end_header
0.294387 0.107739 -0.294387 0.497043 -0.100089 -0.861934 153 93 76
0.266350 -0.272938 -0.266350 0.497043 -0.100089 -0.861934 153 93 76
0.105138 -0.107739 -0.378498 0.497043 -0.100089 -0.861934 153 93 76
-0.294387 -0.301669 -0.105138 -0.866838 -0.487803 0.103148 153 93 76
-0.266350 -0.272938 0.266350 -0.866838 -0.487803 0.103148 153 93 76
-0.378497 -0.107739 0.105138 -0.866838 -0.487803 0.103148 153 93 76
0.294387 -0.301669 0.105138 0.581995 -0.567946 0.581996 153 93 76
0.294387 -0.107739 0.294387 0.581995 -0.567946 0.581996 153 93 76
0.105138 -0.301669 0.294387 0.581995 -0.567946 0.581996 153 93 76
0.294387 -0.107739 0.294387 0.959355 -0.197095 0.201970 153 93 76
0.378498 -0.107739 -0.105138 0.959355 -0.197095 0.201970 153 93 76
0.378498 0.107739 0.105138 0.959355 -0.197095 0.201970 153 93 76
-0.266350 -0.272938 0.266350 -0.103148 -0.487803 0.866838 153 93 76
0.105138 -0.301669 0.294387 -0.103148 -0.487803 0.866838 153 93 76
-0.105138 -0.107739 0.378497 -0.103148 -0.487803 0.866838 153 93 76
0.266350 0.272938 0.266350 0.505957 0.856217 0.104404 153 93 76
0.294387 0.301668 -0.105138 0.505957 0.856217 0.104404 153 93 76
0.105138 0.387859 0.105138 0.505957 0.856217 0.104404 153 93 76
-0.294387 -0.107739 -0.294387 -0.497044 0.100089 -0.861934 153 93 76
-0.266350 0.272938 -0.266350 -0.497044 0.100089 -0.861934 153 93 76
-0.105138 0.107739 -0.378498 -0.497044 0.100089 -0.861934 153 93 76
0.105138 0.301668 -0.294387 -0.104404 0.856217 -0.505957 153 93 76
-0.266350 0.272938 -0.266350 -0.104404 0.856217 -0.505957 153 93 76
-0.105138 0.387859 -0.105138 -0.104404 0.856217 -0.505957 153 93 76
-0.294387 0.107739 0.294387 -0.497042 -0.100088 0.861935 153 93 76
-0.266350 -0.272938 0.266350 -0.497042 -0.100088 0.861935 153 93 76
-0.105138 -0.107739 0.378497 -0.497042 -0.100088 0.861935 153 93 76
-0.378497 -0.107739 0.105138 -0.959355 0.197094 0.201969 153 93 76
-0.294387 0.301668 0.105138 -0.959355 0.197094 0.201969 153 93 76
-0.378497 0.107739 -0.105138 -0.959355 0.197094 0.201969 153 93 76
0.105138 0.107739 0.378497 -0.201969 0.197094 0.959355 153 93 76
-0.294387 0.107739 0.294387 -0.201969 0.197094 0.959355 153 93 76
-0.105138 -0.107739 0.378497 -0.201969 0.197094 0.959355 153 93 76
0.105138 0.387859 0.105138 -0.206344 0.956475 0.206344 153 93 76
-0.294387 0.301668 0.105138 -0.206344 0.956475 0.206344 153 93 76
-0.105138 0.301668 0.294387 -0.206344 0.956475 0.206344 153 93 76
0.105138 0.387859 0.105138 0.206344 0.956475 -0.206344 153 93 76
0.105138 0.301668 -0.294387 0.206344 0.956475 -0.206344 153 93 76
-0.105138 0.387859 -0.105138 0.206344 0.956475 -0.206344 153 93 76
0.266350 -0.272938 -0.266350 0.505959 -0.856216 -0.104404 153 93 76
0.294387 -0.301669 0.105138 0.505959 -0.856216 -0.104404 153 93 76
0.105138 -0.387860 -0.105138 0.505959 -0.856216 -0.104404 153 93 76
-0.105138 0.301668 0.294387 -0.581995 0.567947 0.581995 153 93 76
-0.294387 0.301668 0.105138 -0.581995 0.567947 0.581995 153 93 76
-0.294387 0.107739 0.294387 -0.581995 0.567947 0.581995 153 93 76
-0.294387 -0.301669 -0.105138 -0.206345 -0.956475 -0.206345 153 93 76
0.105138 -0.387860 -0.105138 -0.206345 -0.956475 -0.206345 153 93 76
-0.105138 -0.387860 0.105138 -0.206345 -0.956475 -0.206345 153 93 76
0.294387 0.301668 -0.105138 0.959355 0.197095 -0.201970 153 93 76
0.378498 -0.107739 -0.105138 0.959355 0.197095 -0.201970 153 93 76
0.294387 0.107739 -0.294387 0.959355 0.197095 -0.201970 153 93 76
-0.105138 -0.301669 -0.294387 -0.581996 -0.567946 -0.581995 153 93 76
-0.294387 -0.301669 -0.105138 -0.581996 -0.567946 -0.581995 153 93 76
-0.294387 -0.107739 -0.294387 -0.581996 -0.567946 -0.581995 153 93 76
0.105138 0.301668 -0.294387 0.581995 0.567947 -0.581995 153 93 76
0.294387 0.301668 -0.105138 0.581995 0.567947 -0.581995 153 93 76
0.294387 0.107739 -0.294387 0.581995 0.567947 -0.581995 153 93 76
0.266350 0.272938 0.266350 0.103148 0.487803 0.866838 153 93 76
-0.105138 0.301668 0.294387 0.103148 0.487803 0.866838 153 93 76
0.105138 0.107739 0.378497 0.103148 0.487803 0.866838 153 93 76
-0.378497 -0.107739 0.105138 -0.959355 -0.197094 -0.201969 153 93 76
-0.294387 -0.107739 -0.294387 -0.959355 -0.197094 -0.201969 153 93 76
-0.294387 -0.301669 -0.105138 -0.959355 -0.197094 -0.201969 153 93 76
0.105138 -0.107739 -0.378498 -0.201970 -0.197095 -0.959355 153 93 76
-0.294387 -0.107739 -0.294387 -0.201970 -0.197095 -0.959355 153 93 76
-0.105138 0.107739 -0.378498 -0.201970 -0.197095 -0.959355 153 93 76
0.266350 0.272938 0.266350 0.861934 0.100089 0.497044 153 93 76
0.294387 -0.107739 0.294387 0.861934 0.100089 0.497044 153 93 76
0.378498 0.107739 0.105138 0.861934 0.100089 0.497044 153 93 76
0.105138 -0.301669 0.294387 0.201969 -0.197094 0.959355 153 93 76
0.105138 0.107739 0.378497 0.201969 -0.197094 0.959355 153 93 76
-0.105138 -0.107739 0.378497 0.201969 -0.197094 0.959355 153 93 76
-0.294387 0.301668 0.105138 -0.866838 0.487803 -0.103148 153 93 76
-0.266350 0.272938 -0.266350 -0.866838 0.487803 -0.103148 153 93 76
-0.378497 0.107739 -0.105138 -0.866838 0.487803 -0.103148 153 93 76
0.266350 -0.272938 -0.266350 0.103148 -0.487805 -0.866837 153 93 76
-0.105138 -0.301669 -0.294387 0.103148 -0.487805 -0.866837 153 93 76
0.105138 -0.107739 -0.378498 0.103148 -0.487805 -0.866837 153 93 76
0.105138 -0.107739 -0.378498 0.201970 0.197095 -0.959355 153 93 76
0.105138 0.301668 -0.294387 0.201970 0.197095 -0.959355 153 93 76
0.294387 0.107739 -0.294387 0.201970 0.197095 -0.959355 153 93 76
0.105138 -0.387860 -0.105138 0.206345 -0.956475 0.206345 153 93 76
0.105138 -0.301669 0.294387 0.206345 -0.956475 0.206345 153 93 76
-0.105138 -0.387860 0.105138 0.206345 -0.956475 0.206345 153 93 76
0.266350 0.272938 0.266350 -0.866837 -0.487805 -0.103148 103 103 103
0.294387 0.301668 -0.105138 -0.866837 -0.487805 -0.103148 103 103 103
0.378498 0.107739 0.105138 -0.866837 -0.487805 -0.103148 103 103 103
-0.294387 0.301668 0.105138 0.959355 -0.197094 -0.201969 103 103 103
-0.378497 -0.107739 0.105138 0.959355 -0.197094 -0.201969 103 103 103
-0.378497 0.107739 -0.105138 0.959355 -0.197094 -0.201969 103 103 103
0.105138 0.301668 -0.294387 -0.206344 -0.956475 0.206344 103 103 103
0.105138 0.387859 0.105138 -0.206344 -0.956475 0.206344 103 103 103
-0.105138 0.387859 -0.105138 -0.206344 -0.956475 0.206344 103 103 103
0.294387 -0.301669 0.105138 -0.505959 0.856216 0.104404 103 103 103
0.266350 -0.272938 -0.266350 -0.505959 0.856216 0.104404 103 103 103
0.105138 -0.387860 -0.105138 -0.505959 0.856216 0.104404 103 103 103
-0.294387 -0.107739 -0.294387 0.959355 0.197094 0.201969 103 103 103
-0.378497 -0.107739 0.105138 0.959355 0.197094 0.201969 103 103 103
-0.294387 -0.301669 -0.105138 0.959355 0.197094 0.201969 103 103 103
0.266350 0.272938 0.266350 -0.497041 -0.100089 -0.861935 103 103 103
0.294387 -0.107739 0.294387 -0.497041 -0.100089 -0.861935 103 103 103
0.105138 0.107739 0.378497 -0.497041 -0.100089 -0.861935 103 103 103
0.105138 -0.301669 0.294387 -0.206345 0.956475 -0.206345 103 103 103
0.105138 -0.387860 -0.105138 -0.206345 0.956475 -0.206345 103 103 103
-0.105138 -0.387860 0.105138 -0.206345 0.956475 -0.206345 103 103 103
0.297318 0.291200 0.284171 0.520286 0.845332 0.121308 103 103 103
0.312786 0.337895 -0.107564 0.520286 0.845332 0.121308 103 103 103
0.124104 0.423801 0.103057 0.520286 0.845332 0.121308 103 103 103
-0.418425 -0.107739 0.105138 -0.960856 0.193495 0.198281 103 103 103
-0.332654 0.309924 0.113194 -0.960856 0.193495 0.198281 103 103 103
-0.418425 0.107739 -0.105138 -0.960856 0.193495 0.198281 103 103 103
0.124104 0.423801 0.103057 0.210938 0.956553 -0.201275 103 103 103
0.113194 0.340883 -0.302443 0.210938 0.956553 -0.201275 103 103 103
-0.097082 0.427073 -0.113194 0.210938 0.956553 -0.201275 103 103 103
0.294424 -0.301706 -0.270588 0.508009 -0.854747 -0.106468 103 103 103
0.312786 -0.337896 0.107564 0.508009 -0.854747 -0.106468 103 103 103
0.124104 -0.423802 -0.103057 0.508009 -0.854747 -0.106468 103 103 103
-0.418425 -0.107739 0.105138 -0.960856 -0.193495 -0.198281 103 103 103
-0.332654 -0.115994 -0.302443 -0.960856 -0.193495 -0.198281 103 103 103
-0.332654 -0.309924 -0.113194 -0.960856 -0.193495 -0.198281 103 103 103
0.297318 0.291200 0.284171 0.862911 0.102989 0.494751 103 103 103
0.322461 -0.103396 0.322460 0.862911 0.102989 0.494751 103 103 103
0.409466 0.126001 0.122959 0.862911 0.102989 0.494751 103 103 103
0.124104 -0.423802 -0.103057 0.210939 -0.956553 0.201276 103 103 103
0.113194 -0.340883 0.302443 0.210939 -0.956553 0.201276 103 103 103
-0.097082 -0.427074 0.113194 0.210939 -0.956553 0.201276 103 103 103
0.105138 0.387859 0.105138 -0.679027 0.279004 0.679027 103 103 103
-0.097082 0.427073 -0.113194 -0.679027 0.279004 0.679027 103 103 103
-0.105138 0.387859 -0.105138 -0.679027 0.279004 0.679027 103 103 103
-0.294387 0.301668 0.105138 0.288528 0.668714 0.685255 103 103 103
-0.332654 0.115994 0.302443 0.288528 0.668714 0.685255 103 103 103
-0.294387 0.107739 0.294387 0.288528 0.668714 0.685255 103 103 103
0.294387 0.301668 -0.105138 0.645477 -0.372482 -0.666796 103 103 103
0.113194 0.340883 -0.302443 0.645477 -0.372482 -0.666796 103 103 103
0.312786 0.337895 -0.107564 0.645477 -0.372482 -0.666796 103 103 103
0.378498 0.107739 0.105138 0.584030 -0.652297 -0.483133 103 103 103
0.322461 -0.103396 0.322460 0.584030 -0.652297 -0.483133 103 103 103
0.294387 -0.107739 0.294387 0.584030 -0.652297 -0.483133 103 103 103
0.266350 0.272938 0.266350 -0.539675 0.329632 0.774657 103 103 103
0.124104 0.423801 0.103057 -0.539675 0.329632 0.774657 103 103 103
0.105138 0.387859 0.105138 -0.539675 0.329632 0.774657 103 103 103
0.105138 -0.301669 0.294387 -0.672070 0.014029 0.740355 103 103 103
-0.097082 -0.427074 0.113194 -0.672070 0.014029 0.740355 103 103 103
0.113194 -0.340883 0.302443 -0.672070 0.014029 0.740355 103 103 103
0.266350 -0.272938 -0.266350 0.389208 0.494307 -0.777288 103 103 103
0.406571 -0.136507 -0.109376 0.389208 0.494307 -0.777288 103 103 103
0.294424 -0.301706 -0.270588 0.389208 0.494307 -0.777288 103 103 103
-0.378497 0.107739 -0.105138 0.014567 0.732113 -0.681027 103 103 103
-0.332654 0.309924 0.113194 0.014567 0.732113 -0.681027 103 103 103
-0.294387 0.301668 0.105138 0.014567 0.732113 -0.681027 103 103 103
-0.378497 -0.107739 0.105138 0.014567 -0.732113 0.681028 103 103 103
-0.332654 -0.309924 -0.113194 0.014567 -0.732113 0.681028 103 103 103
-0.294387 -0.301669 -0.105138 0.014567 -0.732113 0.681028 103 103 103
0.294387 0.301668 -0.105138 0.627397 -0.431057 -0.648508 103 103 103
0.409466 0.126001 0.122959 0.627397 -0.431057 -0.648508 103 103 103
0.378498 0.107739 0.105138 0.627397 -0.431057 -0.648508 103 103 103
-0.294387 -0.301669 -0.105138 0.288528 -0.668714 -0.685255 103 103 103
-0.332654 -0.115994 -0.302443 0.288528 -0.668714 -0.685255 103 103 103
-0.294387 -0.107739 -0.294387 0.288528 -0.668714 -0.685255 103 103 103
0.294387 -0.301669 0.105138 0.645476 0.372483 0.666796 103 103 103
0.113194 -0.340883 0.302443 0.645476 0.372483 0.666796 103 103 103
0.312786 -0.337896 0.107564 0.645476 0.372483 0.666796 103 103 103
-0.378497 -0.107739 0.105138 0.000000 -0.661420 0.750015 103 103 103
-0.332654 0.115994 0.302443 0.000000 -0.661420 0.750015 103 103 103
-0.418425 -0.107739 0.105138 0.000000 -0.661420 0.750015 103 103 103
0.266350 0.272938 0.266350 -0.602854 0.745881 0.283247 103 103 103
0.133212 0.112081 0.406571 -0.602854 0.745881 0.283247 103 103 103
0.297318 0.291200 0.284171 -0.602854 0.745881 0.283247 103 103 103
0.105138 -0.387860 -0.105138 -0.679027 -0.279006 -0.679027 103 103 103
-0.097082 -0.427074 0.113194 -0.679027 -0.279006 -0.679027 103 103 103
-0.105138 -0.387860 0.105138 -0.679027 -0.279006 -0.679027 103 103 103
0.294387 -0.301669 0.105138 0.581079 0.469090 0.665057 103 103 103
0.406571 -0.136507 -0.109376 0.581079 0.469090 0.665057 103 103 103
0.378498 -0.107739 -0.105138 0.581079 0.469090 0.665057 103 103 103
0.294387 -0.107739 0.294387 -0.483134 -0.652298 0.584028 103 103 103
0.133212 0.112081 0.406571 -0.483134 -0.652298 0.584028 103 103 103
0.105138 0.107739 0.378497 -0.483134 -0.652298 0.584028 103 103 103
0.105138 0.301668 -0.294387 -0.672070 -0.014029 -0.740354 103 103 103
-0.097082 0.427073 -0.113194 -0.672070 -0.014029 -0.740354 103 103 103
0.113194 0.340883 -0.302443 -0.672070 -0.014029 -0.740354 103 103 103
0.266350 -0.272938 -0.266350 -0.539674 -0.329633 -0.774657 103 103 103
0.124104 -0.423802 -0.103057 -0.539674 -0.329633 -0.774657 103 103 103
0.105138 -0.387860 -0.105138 -0.539674 -0.329633 -0.774657 103 103 103
-0.378497 0.107739 -0.105138 0.000000 0.661421 -0.750015 103 103 103
-0.332654 -0.115994 -0.302443 0.000000 0.661421 -0.750015 103 103 103
-0.418425 0.107739 -0.105138 0.000000 0.661421 -0.750015 103 103 103
0.294387 0.107739 -0.294387 0.861934 -0.100089 -0.497043 153 93 76
0.378498 -0.107739 -0.105138 0.861934 -0.100089 -0.497043 153 93 76
0.266350 -0.272938 -0.266350 0.861934 -0.100089 -0.497043 153 93 76
-0.294387 -0.301669 -0.105138 -0.505960 -0.856215 0.104404 153 93 76
-0.105138 -0.387860 0.105138 -0.505960 -0.856215 0.104404 153 93 76
-0.266350 -0.272938 0.266350 -0.505960 -0.856215 0.104404 153 93 76
0.294387 -0.301669 0.105138 0.959355 -0.197095 0.201970 153 93 76
-0.266350 -0.272938 0.266350 -0.104404 -0.856215 0.505960 153 93 76
-0.105138 -0.387860 0.105138 -0.104404 -0.856215 0.505960 153 93 76
0.105138 -0.301669 0.294387 -0.104404 -0.856215 0.505960 153 93 76
0.266350 0.272938 0.266350 0.866837 0.487805 0.103148 153 93 76
0.378498 0.107739 0.105138 0.866837 0.487805 0.103148 153 93 76
0.294387 0.301668 -0.105138 0.866837 0.487805 0.103148 153 93 76
-0.294387 -0.107739 -0.294387 -0.861935 0.100089 -0.497041 153 93 76
-0.378497 0.107739 -0.105138 -0.861935 0.100089 -0.497041 153 93 76
-0.266350 0.272938 -0.266350 -0.861935 0.100089 -0.497041 153 93 76
0.105138 0.301668 -0.294387 -0.103148 0.487805 -0.866837 153 93 76
-0.105138 0.107739 -0.378498 -0.103148 0.487805 -0.866837 153 93 76
-0.266350 0.272938 -0.266350 -0.103148 0.487805 -0.866837 153 93 76
-0.294387 0.107739 0.294387 -0.861935 -0.100088 0.497042 153 93 76
-0.378497 -0.107739 0.105138 -0.861935 -0.100088 0.497042 153 93 76
-0.266350 -0.272938 0.266350 -0.861935 -0.100088 0.497042 153 93 76
-0.294387 0.107739 0.294387 -0.959355 0.197094 0.201969 153 93 76
-0.105138 0.301668 0.294387 -0.201969 0.197094 0.959355 153 93 76
-0.105138 0.387859 -0.105138 -0.206344 0.956475 0.206344 153 93 76
0.294387 0.301668 -0.105138 0.206344 0.956475 -0.206344 153 93 76
0.266350 -0.272938 -0.266350 0.866837 -0.487805 -0.103148 153 93 76
0.378498 -0.107739 -0.105138 0.866837 -0.487805 -0.103148 153 93 76
0.294387 -0.301669 0.105138 0.866837 -0.487805 -0.103148 153 93 76
-0.294387 -0.301669 -0.105138 -0.206345 -0.956475 -0.206344 153 93 76
-0.105138 -0.301669 -0.294387 -0.206345 -0.956475 -0.206344 153 93 76
0.105138 -0.387860 -0.105138 -0.206345 -0.956475 -0.206344 153 93 76
0.378498 0.107739 0.105138 0.959355 0.197095 -0.201970 153 93 76
0.266350 0.272938 0.266350 0.104404 0.856217 0.505958 153 93 76
0.105138 0.387859 0.105138 0.104404 0.856217 0.505958 153 93 76
-0.105138 0.301668 0.294387 0.104404 0.856217 0.505958 153 93 76
-0.378497 0.107739 -0.105138 -0.959355 -0.197094 -0.201969 153 93 76
-0.105138 -0.301669 -0.294387 -0.201970 -0.197095 -0.959355 153 93 76
0.266350 0.272938 0.266350 0.497041 0.100089 0.861935 153 93 76
0.105138 0.107739 0.378497 0.497041 0.100089 0.861935 153 93 76
0.294387 -0.107739 0.294387 0.497041 0.100089 0.861935 153 93 76
0.294387 -0.107739 0.294387 0.201969 -0.197094 0.959355 153 93 76
-0.294387 0.301668 0.105138 -0.505958 0.856217 -0.104404 153 93 76
-0.105138 0.387859 -0.105138 -0.505958 0.856217 -0.104404 153 93 76
-0.266350 0.272938 -0.266350 -0.505958 0.856217 -0.104404 153 93 76
0.266350 -0.272938 -0.266350 0.104404 -0.856216 -0.505959 153 93 76
0.105138 -0.387860 -0.105138 0.104404 -0.856216 -0.505959 153 93 76
-0.105138 -0.301669 -0.294387 0.104404 -0.856216 -0.505959 153 93 76
-0.105138 0.107739 -0.378498 0.201970 0.197095 -0.959355 153 93 76
0.105138 -0.387860 -0.105138 0.206344 -0.956475 0.206345 153 93 76
0.294387 -0.301669 0.105138 0.206344 -0.956475 0.206345 153 93 76
0.105138 -0.301669 0.294387 0.206344 -0.956475 0.206345 153 93 76
0.266350 0.272938 0.266350 -0.505957 -0.856217 -0.104404 103 103 103
0.105138 0.387859 0.105138 -0.505957 -0.856217 -0.104404 103 103 103
0.294387 0.301668 -0.105138 -0.505957 -0.856217 -0.104404 103 103 103
-0.294387 0.107739 0.294387 0.959355 -0.197094 -0.201969 103 103 103
0.294387 0.301668 -0.105138 -0.206344 -0.956475 0.206344 103 103 103
0.294387 -0.301669 0.105138 -0.866837 0.487805 0.103148 103 103 103
0.378498 -0.107739 -0.105138 -0.866837 0.487805 0.103148 103 103 103
0.266350 -0.272938 -0.266350 -0.866837 0.487805 0.103148 103 103 103
-0.378497 0.107739 -0.105138 0.959355 0.197094 0.201969 103 103 103
0.266350 0.272938 0.266350 -0.861934 -0.100089 -0.497044 103 103 103
0.378498 0.107739 0.105138 -0.861934 -0.100089 -0.497044 103 103 103
0.294387 -0.107739 0.294387 -0.861934 -0.100089 -0.497044 103 103 103
0.105138 -0.301669 0.294387 -0.206344 0.956475 -0.206345 103 103 103
0.294387 -0.301669 0.105138 -0.206344 0.956475 -0.206345 103 103 103
0.105138 -0.387860 -0.105138 -0.206344 0.956475 -0.206345 103 103 103
0.297318 0.291200 0.284171 0.863656 0.495399 0.093154 103 103 103
0.409466 0.126001 0.122959 0.863656 0.495399 0.093154 103 103 103
0.312786 0.337895 -0.107564 0.863656 0.495399 0.093154 103 103 103
-0.332654 0.115994 0.302443 -0.960856 0.193495 0.198281 103 103 103
0.124104 0.423801 0.103057 0.210840 0.956574 -0.201276 103 103 103
0.312786 0.337895 -0.107564 0.210840 0.956574 -0.201276 103 103 103
0.113194 0.340883 -0.302443 0.210840 0.956574 -0.201276 103 103 103
0.294424 -0.301706 -0.270588 0.862475 -0.498113 -0.089550 103 103 103
0.406571 -0.136507 -0.109376 0.862475 -0.498113 -0.089550 103 103 103
0.312786 -0.337896 0.107564 0.862475 -0.498113 -0.089550 103 103 103
-0.418425 0.107739 -0.105138 -0.960856 -0.193495 -0.198281 103 103 103
0.297318 0.291200 0.284171 0.510024 0.115210 0.852409 103 103 103
0.133212 0.112081 0.406571 0.510024 0.115210 0.852409 103 103 103
0.322461 -0.103396 0.322460 0.510024 0.115210 0.852409 103 103 103
0.124104 -0.423802 -0.103057 0.210841 -0.956574 0.201278 103 103 103
0.312786 -0.337896 0.107564 0.210841 -0.956574 0.201278 103 103 103
0.113194 -0.340883 0.302443 0.210841 -0.956574 0.201278 103 103 103
0.105138 0.387859 0.105138 -0.644225 0.378433 0.664652 103 103 103
0.124104 0.423801 0.103057 -0.644225 0.378433 0.664652 103 103 103
-0.097082 0.427073 -0.113194 -0.644225 0.378433 0.664652 103 103 103
-0.294387 0.301668 0.105138 0.288528 0.668713 0.685255 103 103 103
-0.332654 0.309924 0.113194 0.288528 0.668713 0.685255 103 103 103
-0.332654 0.115994 0.302443 0.288528 0.668713 0.685255 103 103 103
0.294387 0.301668 -0.105138 0.679027 -0.279005 -0.679027 103 103 103
0.105138 0.301668 -0.294387 0.679027 -0.279005 -0.679027 103 103 103
0.113194 0.340883 -0.302443 0.679027 -0.279005 -0.679027 103 103 103
0.378498 0.107739 0.105138 0.631431 -0.631204 -0.450418 103 103 103
0.409466 0.126001 0.122959 0.631431 -0.631204 -0.450418 103 103 103
0.322461 -0.103396 0.322460 0.631431 -0.631204 -0.450418 103 103 103
0.266350 0.272938 0.266350 -0.593261 0.263835 0.760548 103 103 103
0.297318 0.291200 0.284171 -0.593261 0.263835 0.760548 103 103 103
0.124104 0.423801 0.103057 -0.593261 0.263835 0.760548 103 103 103
-0.105138 -0.387860 0.105138 -0.672070 0.014029 0.740355 103 103 103
0.266350 -0.272938 -0.266350 0.389208 0.494308 -0.777288 103 103 103
0.378498 -0.107739 -0.105138 0.389208 0.494308 -0.777288 103 103 103
0.406571 -0.136507 -0.109376 0.389208 0.494308 -0.777288 103 103 103
-0.378497 0.107739 -0.105138 0.000000 0.733718 -0.679454 103 103 103
-0.418425 0.107739 -0.105138 0.000000 0.733718 -0.679454 103 103 103
-0.332654 0.309924 0.113194 0.000000 0.733718 -0.679454 103 103 103
-0.378497 -0.107739 0.105138 0.000000 -0.733717 0.679455 103 103 103
-0.418425 -0.107739 0.105138 0.000000 -0.733717 0.679455 103 103 103
-0.332654 -0.309924 -0.113194 0.000000 -0.733717 0.679455 103 103 103
0.294387 0.301668 -0.105138 0.671457 -0.383487 -0.634100 103 103 103
0.312786 0.337895 -0.107564 0.671457 -0.383487 -0.634100 103 103 103
0.409466 0.126001 0.122959 0.671457 -0.383487 -0.634100 103 103 103
-0.332654 -0.309924 -0.113194 0.288528 -0.668714 -0.685255 103 103 103
0.294387 -0.301669 0.105138 0.679026 0.279006 0.679028 103 103 103
0.105138 -0.301669 0.294387 0.679026 0.279006 0.679028 103 103 103
0.113194 -0.340883 0.302443 0.679026 0.279006 0.679028 103 103 103
-0.378497 -0.107739 0.105138 0.014533 -0.663024 0.748457 103 103 103
-0.294387 0.107739 0.294387 0.014533 -0.663024 0.748457 103 103 103
-0.332654 0.115994 0.302443 0.014533 -0.663024 0.748457 103 103 103
0.266350 0.272938 0.266350 -0.510787 0.764893 0.392474 103 103 103
0.105138 0.107739 0.378497 -0.510787 0.764893 0.392474 103 103 103
0.133212 0.112081 0.406571 -0.510787 0.764893 0.392474 103 103 103
0.105138 -0.387860 -0.105138 -0.644225 -0.378434 -0.664652 103 103 103
0.124104 -0.423802 -0.103057 -0.644225 -0.378434 -0.664652 103 103 103
-0.097082 -0.427074 0.113194 -0.644225 -0.378434 -0.664652 103 103 103
0.294387 -0.301669 0.105138 0.665722 0.381075 0.641557 103 103 103
0.312786 -0.337896 0.107564 0.665722 0.381075 0.641557 103 103 103
0.406571 -0.136507 -0.109376 0.665722 0.381075 0.641557 103 103 103
0.322461 -0.103396 0.322460 -0.483134 -0.652298 0.584028 103 103 103
-0.105138 0.387859 -0.105138 -0.672070 -0.014029 -0.740354 103 103 103
0.266350 -0.272938 -0.266350 -0.500549 -0.373421 -0.781030 103 103 103
0.294424 -0.301706 -0.270588 -0.500549 -0.373421 -0.781030 103 103 103
0.124104 -0.423802 -0.103057 -0.500549 -0.373421 -0.781030 103 103 103
-0.378497 0.107739 -0.105138 0.014533 0.663025 -0.748456 103 103 103
-0.294387 -0.107739 -0.294387 0.014533 0.663025 -0.748456 103 103 103
-0.332654 -0.115994 -0.302443 0.014533 0.663025 -0.748456 103 103 103
3 0 1 2
3 3 4 5
3 6 7 8
3 9 10 11
3 12 13 14
3 15 16 17
3 18 19 20
3 21 22 23
3 24 25 26
3 27 28 29
3 30 31 32
3 33 34 35
3 36 37 38
3 39 40 41
3 42 43 44
3 45 46 47
3 48 49 50
3 51 52 53
3 54 55 56
3 57 58 59
3 60 61 62
3 63 64 65
3 66 67 68
3 69 70 71
3 72 73 74
3 75 76 77
3 78 79 80
3 81 82 83
3 84 85 86
3 87 88 89
3 90 91 92
3 93 94 95
3 96 97 98
3 99 100 101
3 102 103 104
3 105 106 107
3 108 109 110
3 111 112 113
3 114 115 116
3 117 118 119
3 120 121 122
3 123 124 125
3 126 127 128
3 129 130 131
3 132 133 134
3 135 136 137
3 138 139 140
3 141 142 143
3 144 145 146
3 147 148 149
3 150 151 152
3 153 154 155
3 156 157 158
3 159 160 161
3 162 163 164
3 165 166 167
3 168 169 170
3 171 172 173
3 174 175 176
3 177 178 179
3 180 181 182
3 183 184 185
3 186 187 188
3 189 190 191
3 9 192 10
3 193 194 195
3 196 197 198
3 199 200 201
3 202 203 204
3 205 206 207
3 27 208 28
3 30 209 31
3 33 210 34
3 36 211 37
3 212 213 214
3 215 216 217
3 48 218 49
3 219 220 221
3 60 222 61
3 63 223 64
3 224 225 226
3 69 227 70
3 228 229 230
3 231 232 233
3 78 234 79
3 235 236 237
3 238 239 240
3 87 241 88
3 90 242 91
3 243 244 245
3 96 246 97
3 247 248 249
3 250 251 252
3 253 254 255
3 108 256 109
3 257 258 259
3 260 261 262
3 117 263 118
3 264 265 266
3 267 268 269
3 270 271 272
3 273 274 275
3 276 277 278
3 279 280 281
3 282 283 284
3 141 285 142
3 286 287 288
3 289 290 291
3 292 293 294
3 295 296 297
3 156 298 157
3 299 300 301
3 302 303 304
3 305 306 307
3 308 309 310
3 311 312 313
3 174 314 175
3 177 315 178
3 316 317 318
3 319 320 321
