ply
format ascii 1.0
comment Created by Blender 2.77 (sub 0) - www.blender.org, source file: 'Bosses.blend'
element vertex 446
property float x
property float y
property float z
property float nx
property float ny
property float nz
property uchar red
property uchar green
property uchar blue
element face 188
property list uchar uint vertex_indices
end_header
0.190297 0.168088 -0.113181 0.497043 0.424926 -0.756562 153 93 76
0.172174 -0.041771 -0.242956 0.497043 0.424926 -0.756562 153 93 76
0.067963 0.087237 -0.238961 0.497043 0.424926 -0.756562 153 93 76
-0.190297 -0.117978 -0.169490 -0.866838 -0.455466 -0.202834 153 93 76
-0.172174 -0.243903 0.035823 -0.866838 -0.455466 -0.202834 153 93 76
-0.244668 -0.096278 0.014141 -0.866838 -0.455466 -0.202834 153 93 76
0.190297 -0.197767 -0.059446 0.581995 -0.801434 0.137791 153 93 76
0.190297 -0.168088 0.113180 0.581995 -0.801434 0.137791 153 93 76
0.067963 -0.269577 0.039594 0.581995 -0.801434 0.137791 153 93 76
0.190297 -0.168088 0.113180 0.959355 -0.278122 0.047817 153 93 76
0.244668 -0.016489 -0.095903 0.959355 -0.278122 0.047817 153 93 76
0.244668 0.016489 0.095903 0.959355 -0.278122 0.047817 153 93 76
-0.172174 -0.243903 0.035823 -0.103148 -0.903754 0.415439 153 93 76
0.067963 -0.269577 0.039594 -0.103148 -0.903754 0.415439 153 93 76
-0.067963 -0.200003 0.157198 -0.103148 -0.903754 0.415439 153 93 76
0.172174 0.041771 0.242955 0.505957 0.631896 0.587124 153 93 76
0.190297 0.197767 0.059446 0.505957 0.631896 0.587124 153 93 76
0.067963 0.163085 0.202195 0.505957 0.631896 0.587124 153 93 76
-0.190297 0.055322 -0.194943 -0.497044 0.586987 -0.639057 153 93 76
-0.172174 0.243903 -0.035823 -0.497044 0.586987 -0.639057 153 93 76
-0.067963 0.200004 -0.157199 -0.497044 0.586987 -0.639057 153 93 76
0.067963 0.269577 -0.039594 -0.104404 0.990179 0.092985 153 93 76
-0.172174 0.243903 -0.035823 -0.104404 0.990179 0.092985 153 93 76
-0.067963 0.242874 0.092151 -0.104404 0.990179 0.092985 153 93 76
-0.190297 -0.055322 0.194943 -0.497042 -0.586987 0.639058 153 93 76
-0.172174 -0.243903 0.035823 -0.497042 -0.586987 0.639058 153 93 76
-0.067963 -0.200003 0.157198 -0.497042 -0.586987 0.639058 153 93 76
-0.244668 -0.096278 0.014141 -0.959355 0.041008 0.279206 153 93 76
-0.190297 0.117978 0.169490 -0.959355 0.041008 0.279206 153 93 76
-0.244668 0.096278 -0.014141 -0.959355 0.041008 0.279206 153 93 76
0.067963 -0.087237 0.238961 -0.201969 -0.403578 0.892375 153 93 76
-0.190297 -0.055322 0.194943 -0.201969 -0.403578 0.892375 153 93 76
-0.067963 -0.200003 0.157198 -0.201969 -0.403578 0.892375 153 93 76
0.067963 0.163085 0.202195 -0.206344 0.653225 0.728505 153 93 76
-0.190297 0.117978 0.169490 -0.206344 0.653225 0.728505 153 93 76
-0.067963 0.046168 0.268529 -0.206344 0.653225 0.728505 153 93 76
0.067963 0.163085 0.202195 0.206344 0.895473 0.394399 153 93 76
0.067963 0.269577 -0.039594 0.206344 0.895473 0.394399 153 93 76
-0.067963 0.242874 0.092151 0.206344 0.895473 0.394399 153 93 76
0.172174 -0.041771 -0.242956 0.505959 -0.631895 -0.587124 153 93 76
0.190297 -0.197767 -0.059446 0.505959 -0.631895 -0.587124 153 93 76
0.067963 -0.163085 -0.202195 0.505959 -0.631895 -0.587124 153 93 76
-0.067963 0.046168 0.268529 -0.581995 0.118170 0.804560 153 93 76
-0.190297 0.117978 0.169490 -0.581995 0.118170 0.804560 153 93 76
-0.190297 -0.055322 0.194943 -0.581995 0.118170 0.804560 153 93 76
-0.190297 -0.117978 -0.169490 -0.206345 -0.653224 -0.728506 153 93 76
0.067963 -0.163085 -0.202195 -0.206345 -0.653224 -0.728506 153 93 76
-0.067963 -0.242874 -0.092151 -0.206345 -0.653224 -0.728506 153 93 76
0.190297 0.197767 0.059446 0.959355 0.278122 -0.047817 153 93 76
0.244668 -0.016489 -0.095903 0.959355 0.278122 -0.047817 153 93 76
0.190297 0.168088 -0.113181 0.959355 0.278122 -0.047817 153 93 76
-0.067963 -0.046168 -0.268530 -0.581996 -0.118170 -0.804560 153 93 76
-0.190297 -0.117978 -0.169490 -0.581996 -0.118170 -0.804560 153 93 76
-0.190297 0.055322 -0.194943 -0.581996 -0.118170 -0.804560 153 93 76
0.067963 0.269577 -0.039594 0.581995 0.801434 -0.137789 153 93 76
0.190297 0.197767 0.059446 0.581995 0.801434 -0.137789 153 93 76
0.190297 0.168088 -0.113181 0.581995 0.801434 -0.137789 153 93 76
0.172174 0.041771 0.242955 0.103147 -0.113916 0.988121 153 93 76
-0.067963 0.046168 0.268529 0.103147 -0.113916 0.988121 153 93 76
0.067963 -0.087237 0.238961 0.103147 -0.113916 0.988121 153 93 76
-0.244668 -0.096278 0.014141 -0.959355 -0.041008 -0.279206 153 93 76
-0.190297 0.055322 -0.194943 -0.959355 -0.041008 -0.279206 153 93 76
-0.190297 -0.117978 -0.169490 -0.959355 -0.041008 -0.279206 153 93 76
0.067963 0.087237 -0.238961 -0.201970 0.403577 -0.892375 153 93 76
-0.190297 0.055322 -0.194943 -0.201970 0.403577 -0.892375 153 93 76
-0.067963 0.200004 -0.157199 -0.201970 0.403577 -0.892375 153 93 76
0.172174 0.041771 0.242955 0.861934 -0.210735 0.461152 153 93 76
0.190297 -0.168088 0.113180 0.861934 -0.210735 0.461152 153 93 76
0.244668 0.016489 0.095903 0.861934 -0.210735 0.461152 153 93 76
0.067963 -0.269577 0.039594 0.201969 -0.722707 0.660986 153 93 76
0.067963 -0.087237 0.238961 0.201969 -0.722707 0.660986 153 93 76
-0.067963 -0.200003 0.157198 0.201969 -0.722707 0.660986 153 93 76
-0.190297 0.117978 0.169490 -0.866838 0.455467 0.202835 153 93 76
-0.172174 0.243903 -0.035823 -0.866838 0.455467 0.202835 153 93 76
-0.244668 0.096278 -0.014141 -0.866838 0.455467 0.202835 153 93 76
0.172174 -0.041771 -0.242956 0.103148 0.113915 -0.988121 153 93 76
-0.067963 -0.046168 -0.268530 0.103148 0.113915 -0.988121 153 93 76
0.067963 0.087237 -0.238961 0.103148 0.113915 -0.988121 153 93 76
0.067963 0.087237 -0.238961 0.201970 0.722708 -0.660985 153 93 76
0.067963 0.269577 -0.039594 0.201970 0.722708 -0.660985 153 93 76
0.190297 0.168088 -0.113181 0.201970 0.722708 -0.660985 153 93 76
0.067963 -0.163085 -0.202195 0.206345 -0.895473 -0.394398 153 93 76
0.067963 -0.269577 0.039594 0.206345 -0.895473 -0.394398 153 93 76
-0.067963 -0.242874 -0.092151 0.206345 -0.895473 -0.394398 153 93 76
-0.172174 -0.243903 0.035823 0.104404 0.990179 0.092982 106 106 106
0.067963 -0.269577 0.039594 0.104404 0.990179 0.092982 106 106 106
-0.067963 -0.242874 -0.092151 0.104404 0.990179 0.092982 106 106 106
0.172174 0.041771 0.242955 -0.866837 -0.334372 -0.369850 106 106 106
0.190297 0.197767 0.059446 -0.866837 -0.334372 -0.369850 106 106 106
0.244668 0.016489 0.095903 -0.866837 -0.334372 -0.369850 106 106 106
-0.172174 0.243903 -0.035823 0.104404 -0.990179 -0.092985 106 106 106
0.067963 0.269577 -0.039594 0.104404 -0.990179 -0.092985 106 106 106
-0.067963 0.242874 0.092151 0.104404 -0.990179 -0.092985 106 106 106
-0.172174 -0.243903 0.035823 0.497042 0.586987 -0.639058 106 106 106
-0.190297 -0.055322 0.194943 0.497042 0.586987 -0.639058 106 106 106
-0.067963 -0.200003 0.157198 0.497042 0.586987 -0.639058 106 106 106
0.067963 0.269577 -0.039594 -0.206344 -0.895473 -0.394399 106 106 106
0.067963 0.163085 0.202195 -0.206344 -0.895473 -0.394399 106 106 106
-0.067963 0.242874 0.092151 -0.206344 -0.895473 -0.394399 106 106 106
0.190297 -0.197767 -0.059446 -0.505959 0.631895 0.587124 106 106 106
0.172174 -0.041771 -0.242956 -0.505959 0.631895 0.587124 106 106 106
0.067963 -0.163085 -0.202195 -0.505959 0.631895 0.587124 106 106 106
0.067963 -0.269577 0.039594 -0.206345 0.895473 0.394398 106 106 106
0.067963 -0.163085 -0.202195 -0.206345 0.895473 0.394398 106 106 106
-0.067963 -0.242874 -0.092151 -0.206345 0.895473 0.394398 106 106 106
-0.172174 0.243903 -0.035823 -0.781113 0.008469 0.624332 106 106 106
-0.066597 0.269284 0.095921 -0.781113 0.008469 0.624332 106 106 106
-0.174955 0.270011 -0.039658 -0.781113 0.008469 0.624332 106 106 106
-0.172174 0.243903 -0.035823 -0.777289 -0.171717 -0.605257 106 106 106
-0.070745 0.226112 -0.161033 -0.777289 -0.171717 -0.605257 106 106 106
-0.067963 0.200004 -0.157199 -0.777289 -0.171717 -0.605257 106 106 106
0.067963 0.269577 -0.039594 0.655058 0.079661 -0.751368 106 106 106
0.202376 0.217956 0.072116 0.655058 0.079661 -0.751368 106 106 106
0.190297 0.197767 0.059446 0.655058 0.079661 -0.751368 106 106 106
0.067963 0.269577 -0.039594 0.641775 0.082226 -0.762472 106 106 106
-0.070745 0.226112 -0.161033 0.641775 0.082226 -0.762472 106 106 106
0.069556 0.295921 -0.035413 0.641775 0.082226 -0.762472 106 106 106
-0.172174 -0.243903 0.035823 -0.392476 -0.319413 -0.862518 106 106 106
-0.263097 -0.109404 0.027388 -0.392476 -0.319413 -0.862518 106 106 106
-0.244668 -0.096278 0.014141 -0.392476 -0.319413 -0.862518 106 106 106
0.172174 0.041771 0.242955 0.389209 -0.856453 0.339123 106 106 106
0.263098 0.030145 0.109242 0.389209 -0.856453 0.339123 106 106 106
0.190604 0.055428 0.256293 0.389209 -0.856453 0.339123 106 106 106
-0.067963 -0.200003 0.157198 0.450512 0.140298 0.881677 106 106 106
-0.208727 -0.068448 0.208190 0.450512 0.140298 0.881677 106 106 106
-0.079663 -0.221643 0.166620 0.450512 0.140298 0.881677 106 106 106
-0.172174 -0.243903 0.035823 0.000000 0.000000 0.000000 106 106 106
-0.244668 -0.096278 0.014141 0.000000 0.000000 0.000000 106 106 106
-0.244668 -0.096278 0.014141 0.000000 0.000000 0.000000 106 106 106
-0.067963 0.200004 -0.157199 0.000000 0.000000 0.000000 106 106 106
0.067963 0.269577 -0.039594 0.000000 0.000000 0.000000 106 106 106
0.067963 0.269577 -0.039594 0.000000 0.000000 0.000000 106 106 106
0.190297 0.197767 0.059446 0.000000 0.000000 0.000000 106 106 106
0.190297 0.197767 0.059446 0.000000 0.000000 0.000000 106 106 106
-0.172174 0.243903 -0.035823 0.000000 0.000000 0.000000 106 106 106
-0.067963 0.200004 -0.157199 0.000000 0.000000 0.000000 106 106 106
-0.067963 0.242874 0.092151 0.000000 0.000000 0.000000 106 106 106
-0.172174 0.243903 -0.035823 0.000000 0.000000 0.000000 106 106 106
0.244668 -0.016489 -0.095903 0.000000 0.000000 0.000000 106 106 106
0.172174 -0.041771 -0.242956 0.000000 0.000000 0.000000 106 106 106
0.172174 -0.041771 -0.242956 0.000000 0.000000 0.000000 106 106 106
0.244668 0.016489 0.095903 0.000000 0.000000 0.000000 106 106 106
0.244668 0.016489 0.095903 0.000000 0.000000 0.000000 106 106 106
0.172174 0.041771 0.242955 0.000000 0.000000 0.000000 106 106 106
0.067963 0.163085 0.202195 0.000000 0.000000 0.000000 106 106 106
0.067963 0.163085 0.202195 0.000000 0.000000 0.000000 106 106 106
-0.067963 -0.200003 0.157198 0.000000 0.000000 0.000000 106 106 106
0.067963 -0.269577 0.039594 0.000000 0.000000 0.000000 106 106 106
0.067963 -0.269577 0.039594 0.000000 0.000000 0.000000 106 106 106
-0.190297 -0.055322 0.194943 0.000000 0.000000 0.000000 106 106 106
-0.190297 -0.055322 0.194943 0.000000 0.000000 0.000000 106 106 106
0.190297 -0.197767 -0.059446 0.000000 0.000000 0.000000 106 106 106
0.244668 -0.016489 -0.095903 0.000000 0.000000 0.000000 106 106 106
-0.067963 -0.242874 -0.092151 0.000000 0.000000 0.000000 106 106 106
-0.172174 -0.243903 0.035823 0.000000 0.000000 0.000000 106 106 106
0.067963 -0.163085 -0.202195 0.000000 0.000000 0.000000 106 106 106
-0.067963 -0.242874 -0.092151 0.000000 0.000000 0.000000 106 106 106
0.067963 -0.163085 -0.202195 0.000000 0.000000 0.000000 106 106 106
0.190297 -0.197767 -0.059446 0.000000 0.000000 0.000000 106 106 106
-0.067963 0.242874 0.092151 0.000000 0.000000 0.000000 106 106 106
-0.067963 -0.200003 0.157198 0.000000 0.000000 0.000000 106 106 106
0.172174 0.041771 0.242955 0.000000 0.000000 0.000000 106 106 106
-0.183873 -0.265543 0.045245 -0.093012 -0.908094 0.408307 106 106 106
0.069556 -0.295922 0.035412 -0.093012 -0.908094 0.408307 106 106 106
-0.079663 -0.221643 0.166620 -0.093012 -0.908094 0.408307 106 106 106
0.190604 0.055428 0.256293 0.508037 0.629460 0.587945 106 106 106
0.202376 0.217956 0.072116 0.508037 0.629460 0.587945 106 106 106
0.080414 0.182989 0.214939 0.508037 0.629460 0.587945 106 106 106
0.069556 0.295921 -0.035413 -0.106498 0.990193 0.090426 106 106 106
-0.174955 0.270011 -0.039658 -0.106498 0.990193 0.090426 106 106 106
-0.066597 0.269284 0.095921 -0.106498 0.990193 0.090426 106 106 106
-0.208727 -0.068448 0.208190 -0.494715 -0.589952 0.638133 106 106 106
-0.183873 -0.265543 0.045245 -0.494715 -0.589952 0.638133 106 106 106
-0.079663 -0.221643 0.166620 -0.494715 -0.589952 0.638133 106 106 106
0.080414 0.182989 0.214939 0.205814 0.895347 0.394961 106 106 106
0.069556 0.295921 -0.035413 0.205814 0.895347 0.394961 106 106 106
-0.066597 0.269284 0.095921 0.205814 0.895347 0.394961 106 106 106
0.190604 -0.055428 -0.256294 0.508039 -0.629459 -0.587944 106 106 106
0.202376 -0.217956 -0.072117 0.508039 -0.629459 -0.587944 106 106 106
0.080414 -0.182989 -0.214939 0.508039 -0.629459 -0.587944 106 106 106
0.080414 -0.182989 -0.214939 0.205816 -0.895347 -0.394960 106 106 106
0.069556 -0.295922 0.035412 0.205816 -0.895347 -0.394960 106 106 106
-0.066597 -0.269285 -0.095921 0.205816 -0.895347 -0.394960 106 106 106
0.172174 -0.041771 -0.242956 0.389208 0.856454 -0.339123 106 106 106
0.263098 -0.030145 -0.109242 0.389208 0.856454 -0.339123 106 106 106
0.190604 -0.055428 -0.256294 0.389208 0.856454 -0.339123 106 106 106
0.190297 0.197767 0.059446 0.581081 0.010621 -0.813777 106 106 106
0.263098 0.030145 0.109242 0.581081 0.010621 -0.813777 106 106 106
0.244668 0.016489 0.095903 0.581081 0.010621 -0.813777 106 106 106
0.172174 0.041771 0.242955 -0.539675 -0.187859 0.820646 106 106 106
0.080414 0.182989 0.214939 -0.539675 -0.187859 0.820646 106 106 106
0.067963 0.163085 0.202195 -0.539675 -0.187859 0.820646 106 106 106
0.067963 -0.269577 0.039594 0.634205 -0.083660 0.768626 106 106 106
-0.079663 -0.221643 0.166620 0.634205 -0.083660 0.768626 106 106 106
0.069556 -0.295922 0.035412 0.634205 -0.083660 0.768626 106 106 106
-0.190297 -0.055322 0.194943 -0.584029 0.811691 -0.008239 106 106 106
-0.263097 -0.109404 0.027388 -0.584029 0.811691 -0.008239 106 106 106
-0.208727 -0.068448 0.208190 -0.584029 0.811691 -0.008239 106 106 106
0.190297 -0.197767 -0.059446 0.581080 -0.010621 0.813778 106 106 106
0.263098 -0.030145 -0.109242 0.581080 -0.010621 0.813778 106 106 106
0.244668 -0.016489 -0.095903 0.581080 -0.010621 0.813778 106 106 106
-0.172174 -0.243903 0.035823 -0.760444 0.134524 -0.635317 106 106 106
-0.066597 -0.269285 -0.095921 -0.760444 0.134524 -0.635317 106 106 106
-0.183873 -0.265543 0.045245 -0.760444 0.134524 -0.635317 106 106 106
-0.067963 -0.242874 -0.092151 -0.653313 0.073769 -0.753485 106 106 106
0.080414 -0.182989 -0.214939 -0.653313 0.073769 -0.753485 106 106 106
-0.066597 -0.269285 -0.095921 -0.653313 0.073769 -0.753485 106 106 106
0.172174 -0.041771 -0.242956 -0.539674 0.187858 -0.820647 106 106 106
0.080414 -0.182989 -0.214939 -0.539674 0.187858 -0.820647 106 106 106
0.067963 -0.163085 -0.202195 -0.539674 0.187858 -0.820647 106 106 106
0.190297 -0.197767 -0.059446 0.655057 -0.079661 0.751369 106 106 106
0.069556 -0.295922 0.035412 0.655057 -0.079661 0.751369 106 106 106
0.202376 -0.217956 -0.072117 0.655057 -0.079661 0.751369 106 106 106
0.067963 0.163085 0.202195 -0.653314 -0.073771 0.753484 106 106 106
-0.066597 0.269284 0.095921 -0.653314 -0.073771 0.753484 106 106 106
-0.067963 0.242874 0.092151 -0.653314 -0.073771 0.753484 106 106 106
-0.172174 -0.243903 0.035823 0.866838 0.455466 0.202834 214 58 0
-0.190297 -0.117978 -0.169490 0.866838 0.455466 0.202834 214 58 0
-0.244668 -0.096278 0.014141 0.866838 0.455466 0.202834 214 58 0
0.244668 -0.016489 -0.095903 -0.959355 0.278122 -0.047817 214 58 0
0.190297 -0.168088 0.113180 -0.959355 0.278122 -0.047817 214 58 0
0.244668 0.016489 0.095903 -0.959355 0.278122 -0.047817 214 58 0
-0.172174 0.243903 -0.035823 0.497044 -0.586987 0.639057 214 58 0
-0.190297 0.055322 -0.194943 0.497044 -0.586987 0.639057 214 58 0
-0.067963 0.200004 -0.157199 0.497044 -0.586987 0.639057 214 58 0
-0.200546 -0.127389 -0.174403 -0.866838 -0.455466 -0.202834 214 58 0
-0.182423 -0.253314 0.030910 -0.866838 -0.455466 -0.202834 214 58 0
-0.254917 -0.105689 0.009228 -0.866838 -0.455466 -0.202834 214 58 0
0.204268 -0.172254 0.113792 0.959355 -0.278122 0.047817 214 58 0
0.258639 -0.020655 -0.095291 0.959355 -0.278122 0.047817 214 58 0
0.258639 0.012322 0.096515 0.959355 -0.278122 0.047817 214 58 0
-0.200546 0.062621 -0.202310 -0.497425 0.586866 -0.638871 214 58 0
-0.182423 0.251203 -0.043190 -0.497425 0.586866 -0.638871 214 58 0
-0.072034 0.210201 -0.166804 -0.497425 0.586866 -0.638871 214 58 0
-0.067963 0.200004 -0.157199 0.628882 -0.385130 -0.675413 214 58 0
-0.200546 0.062621 -0.202310 0.628882 -0.385130 -0.675413 214 58 0
-0.072034 0.210201 -0.166804 0.628882 -0.385130 -0.675413 214 58 0
-0.172174 -0.243903 0.035823 0.505269 -0.761854 0.405316 214 58 0
-0.078213 -0.252285 -0.097064 0.505269 -0.761854 0.405316 214 58 0
-0.067963 -0.242874 -0.092151 0.505269 -0.761854 0.405316 214 58 0
-0.172174 0.243903 -0.035823 0.494742 0.854485 0.158383 214 58 0
-0.072034 0.210201 -0.166804 0.494742 0.854485 0.158383 214 58 0
-0.182423 0.251203 -0.043190 0.494742 0.854485 0.158383 214 58 0
-0.190297 -0.117978 -0.169490 -0.581078 0.770160 -0.263063 214 58 0
-0.254917 -0.105689 0.009228 -0.581078 0.770160 -0.263063 214 58 0
-0.244668 -0.096278 0.014141 -0.581078 0.770160 -0.263063 214 58 0
0.190297 -0.197767 -0.059446 -0.014567 -0.192944 -0.981102 214 58 0
0.258639 -0.020655 -0.095291 -0.014567 -0.192944 -0.981102 214 58 0
0.204268 -0.201934 -0.058834 -0.014567 -0.192944 -0.981102 214 58 0
-0.172174 -0.243903 0.035823 -0.389207 -0.056084 0.919441 214 58 0
-0.254917 -0.105689 0.009228 -0.389207 -0.056084 0.919441 214 58 0
-0.182423 -0.253314 0.030910 -0.389207 -0.056084 0.919441 214 58 0
0.244668 0.016489 0.095903 0.288529 0.943626 -0.162237 214 58 0
0.258639 -0.020655 -0.095291 0.288529 0.943626 -0.162237 214 58 0
0.244668 -0.016489 -0.095903 0.288529 0.943626 -0.162237 214 58 0
0.190297 -0.168088 0.113180 -0.014533 0.097430 0.995136 214 58 0
0.258639 0.012322 0.096515 -0.014533 0.097430 0.995136 214 58 0
0.244668 0.016489 0.095903 -0.014533 0.097430 0.995136 214 58 0
-0.172174 0.243903 -0.035823 -0.392474 0.319414 0.862519 214 58 0
-0.254917 0.103577 -0.021508 -0.392474 0.319414 0.862519 214 58 0
-0.244668 0.096278 -0.014141 -0.392474 0.319414 0.862519 214 58 0
-0.190297 -0.117978 -0.169490 0.481920 -0.068865 -0.873505 214 58 0
-0.078213 -0.252285 -0.097064 0.481920 -0.068865 -0.873505 214 58 0
-0.200546 -0.127389 -0.174403 0.481920 -0.068865 -0.873505 214 58 0
-0.190297 0.055322 -0.194943 -0.584028 -0.811692 0.008239 214 58 0
-0.254917 0.103577 -0.021508 -0.584028 -0.811692 0.008239 214 58 0
-0.200546 0.062621 -0.202310 -0.584028 -0.811692 0.008239 214 58 0
0.190297 -0.197767 -0.059446 -0.288529 -0.943626 0.162238 214 58 0
0.204268 -0.172254 0.113792 -0.288529 -0.943626 0.162238 214 58 0
0.190297 -0.168088 0.113180 -0.288529 -0.943626 0.162238 214 58 0
0.190297 0.168088 -0.113181 0.861934 0.210735 -0.461152 153 93 76
0.244668 -0.016489 -0.095903 0.861934 0.210735 -0.461152 153 93 76
0.172174 -0.041771 -0.242956 0.861934 0.210735 -0.461152 153 93 76
-0.190297 -0.117978 -0.169490 -0.505960 -0.754465 -0.418075 153 93 76
-0.067963 -0.242874 -0.092151 -0.505960 -0.754465 -0.418075 153 93 76
-0.172174 -0.243903 0.035823 -0.505960 -0.754465 -0.418075 153 93 76
0.190297 -0.168088 0.113180 0.959355 -0.278122 0.047818 153 93 76
0.190297 -0.197767 -0.059446 0.959355 -0.278122 0.047818 153 93 76
0.244668 -0.016489 -0.095903 0.959355 -0.278122 0.047818 153 93 76
-0.172174 -0.243903 0.035823 -0.104404 -0.990179 -0.092982 153 93 76
-0.067963 -0.242874 -0.092151 -0.104404 -0.990179 -0.092982 153 93 76
0.067963 -0.269577 0.039594 -0.104404 -0.990179 -0.092982 153 93 76
0.172174 0.041771 0.242955 0.866837 0.334372 0.369850 153 93 76
0.244668 0.016489 0.095903 0.866837 0.334372 0.369850 153 93 76
0.190297 0.197767 0.059446 0.866837 0.334372 0.369850 153 93 76
-0.190297 0.055322 -0.194943 -0.861935 0.372794 -0.343646 153 93 76
-0.244668 0.096278 -0.014141 -0.861935 0.372794 -0.343646 153 93 76
-0.172174 0.243903 -0.035823 -0.861935 0.372794 -0.343646 153 93 76
0.067963 0.269577 -0.039594 -0.103148 0.903755 -0.415437 153 93 76
-0.067963 0.200004 -0.157199 -0.103148 0.903755 -0.415437 153 93 76
-0.172174 0.243903 -0.035823 -0.103148 0.903755 -0.415437 153 93 76
-0.190297 -0.055322 0.194943 -0.861935 -0.372794 0.343646 153 93 76
-0.244668 -0.096278 0.014141 -0.861935 -0.372794 0.343646 153 93 76
-0.172174 -0.243903 0.035823 -0.861935 -0.372794 0.343646 153 93 76
-0.190297 -0.055322 0.194943 -0.959355 0.041008 0.279206 153 93 76
-0.067963 0.046168 0.268529 -0.201969 -0.403578 0.892375 153 93 76
-0.067963 0.242874 0.092151 -0.206344 0.653225 0.728505 153 93 76
0.190297 0.197767 0.059446 0.206344 0.895473 0.394399 153 93 76
0.172174 -0.041771 -0.242956 0.866837 -0.334372 -0.369849 153 93 76
0.244668 -0.016489 -0.095903 0.866837 -0.334372 -0.369849 153 93 76
0.190297 -0.197767 -0.059446 0.866837 -0.334372 -0.369849 153 93 76
-0.067963 -0.046168 -0.268530 -0.206345 -0.653224 -0.728506 153 93 76
0.244668 0.016489 0.095903 0.959355 0.278122 -0.047817 153 93 76
0.172174 0.041771 0.242955 0.104404 0.396183 0.912216 153 93 76
0.067963 0.163085 0.202195 0.104404 0.396183 0.912216 153 93 76
-0.067963 0.046168 0.268529 0.104404 0.396183 0.912216 153 93 76
-0.244668 0.096278 -0.014141 -0.959355 -0.041008 -0.279206 153 93 76
-0.067963 -0.046168 -0.268530 -0.201970 0.403577 -0.892375 153 93 76
0.172174 0.041771 0.242955 0.497041 -0.424927 0.756563 153 93 76
0.067963 -0.087237 0.238961 0.497041 -0.424927 0.756563 153 93 76
0.190297 -0.168088 0.113180 0.497041 -0.424927 0.756563 153 93 76
0.190297 -0.168088 0.113180 0.201969 -0.722707 0.660986 153 93 76
-0.190297 0.117978 0.169490 -0.505958 0.754466 0.418076 153 93 76
-0.067963 0.242874 0.092151 -0.505958 0.754466 0.418076 153 93 76
-0.172174 0.243903 -0.035823 -0.505958 0.754466 0.418076 153 93 76
0.172174 -0.041771 -0.242956 0.104404 -0.396182 -0.912217 153 93 76
0.067963 -0.163085 -0.202195 0.104404 -0.396182 -0.912217 153 93 76
-0.067963 -0.046168 -0.268530 0.104404 -0.396182 -0.912217 153 93 76
-0.067963 0.200004 -0.157199 0.201970 0.722708 -0.660985 153 93 76
0.067963 -0.163085 -0.202195 0.206344 -0.895473 -0.394398 153 93 76
0.190297 -0.197767 -0.059446 0.206344 -0.895473 -0.394398 153 93 76
0.067963 -0.269577 0.039594 0.206344 -0.895473 -0.394398 153 93 76
-0.172174 -0.243903 0.035823 0.103148 0.903754 -0.415439 106 106 106
-0.067963 -0.200003 0.157198 0.103148 0.903754 -0.415439 106 106 106
0.067963 -0.269577 0.039594 0.103148 0.903754 -0.415439 106 106 106
0.172174 0.041771 0.242955 -0.505957 -0.631896 -0.587125 106 106 106
0.067963 0.163085 0.202195 -0.505957 -0.631896 -0.587125 106 106 106
0.190297 0.197767 0.059446 -0.505957 -0.631896 -0.587125 106 106 106
-0.172174 0.243903 -0.035823 0.103148 -0.903755 0.415437 106 106 106
-0.067963 0.200004 -0.157199 0.103148 -0.903755 0.415437 106 106 106
0.067963 0.269577 -0.039594 0.103148 -0.903755 0.415437 106 106 106
-0.172174 -0.243903 0.035823 0.861935 0.372794 -0.343646 106 106 106
-0.244668 -0.096278 0.014141 0.861935 0.372794 -0.343646 106 106 106
-0.190297 -0.055322 0.194943 0.861935 0.372794 -0.343646 106 106 106
0.190297 0.197767 0.059446 -0.206344 -0.895473 -0.394399 106 106 106
0.190297 -0.197767 -0.059446 -0.866837 0.334372 0.369849 106 106 106
0.244668 -0.016489 -0.095903 -0.866837 0.334372 0.369849 106 106 106
0.172174 -0.041771 -0.242956 -0.866837 0.334372 0.369849 106 106 106
0.067963 -0.269577 0.039594 -0.206344 0.895473 0.394398 106 106 106
0.190297 -0.197767 -0.059446 -0.206344 0.895473 0.394398 106 106 106
0.067963 -0.163085 -0.202195 -0.206344 0.895473 0.394398 106 106 106
-0.172174 0.243903 -0.035823 -0.774657 -0.049924 0.630408 106 106 106
-0.067963 0.242874 0.092151 -0.774657 -0.049924 0.630408 106 106 106
-0.066597 0.269284 0.095921 -0.774657 -0.049924 0.630408 106 106 106
-0.172174 0.243903 -0.035823 -0.777289 -0.171718 -0.605256 106 106 106
-0.174955 0.270011 -0.039658 -0.777289 -0.171718 -0.605256 106 106 106
-0.070745 0.226112 -0.161033 -0.777289 -0.171718 -0.605256 106 106 106
0.069556 0.295921 -0.035413 0.655058 0.079661 -0.751368 106 106 106
0.067963 0.269577 -0.039594 0.665056 -0.038673 -0.745791 106 106 106
-0.067963 0.200004 -0.157199 0.665056 -0.038673 -0.745791 106 106 106
-0.070745 0.226112 -0.161033 0.665056 -0.038673 -0.745791 106 106 106
-0.172174 -0.243903 0.035823 -0.283589 -0.249775 -0.925845 106 106 106
-0.183873 -0.265543 0.045245 -0.283589 -0.249775 -0.925845 106 106 106
-0.263097 -0.109404 0.027388 -0.283589 -0.249775 -0.925845 106 106 106
0.244668 0.016489 0.095903 0.389209 -0.856453 0.339123 106 106 106
-0.067963 -0.200003 0.157198 0.483134 0.185265 0.855721 106 106 106
-0.190297 -0.055322 0.194943 0.483134 0.185265 0.855721 106 106 106
-0.208727 -0.068448 0.208190 0.483134 0.185265 0.855721 106 106 106
-0.183873 -0.265543 0.045245 -0.121543 -0.989768 -0.074739 106 106 106
-0.066597 -0.269285 -0.095921 -0.121543 -0.989768 -0.074739 106 106 106
0.069556 -0.295922 0.035412 -0.121543 -0.989768 -0.074739 106 106 106
0.190604 0.055428 0.256293 0.862408 0.350943 0.364817 106 106 106
0.263098 0.030145 0.109242 0.862408 0.350943 0.364817 106 106 106
0.202376 0.217956 0.072116 0.862408 0.350943 0.364817 106 106 106
0.069556 0.295921 -0.035413 -0.089346 0.909625 -0.405710 106 106 106
-0.070745 0.226112 -0.161033 -0.089346 0.909625 -0.405710 106 106 106
-0.174955 0.270011 -0.039658 -0.089346 0.909625 -0.405710 106 106 106
-0.208727 -0.068448 0.208190 -0.852266 -0.392947 0.345304 106 106 106
-0.263097 -0.109404 0.027388 -0.852266 -0.392947 0.345304 106 106 106
-0.183873 -0.265543 0.045245 -0.852266 -0.392947 0.345304 106 106 106
0.080414 0.182989 0.214939 0.205815 0.895347 0.394961 106 106 106
0.202376 0.217956 0.072116 0.205815 0.895347 0.394961 106 106 106
0.069556 0.295921 -0.035413 0.205815 0.895347 0.394961 106 106 106
0.190604 -0.055428 -0.256294 0.862408 -0.350943 -0.364817 106 106 106
0.263098 -0.030145 -0.109242 0.862408 -0.350943 -0.364817 106 106 106
0.202376 -0.217956 -0.072117 0.862408 -0.350943 -0.364817 106 106 106
0.080414 -0.182989 -0.214939 0.205815 -0.895347 -0.394960 106 106 106
0.202376 -0.217956 -0.072117 0.205815 -0.895347 -0.394960 106 106 106
0.069556 -0.295922 0.035412 0.205815 -0.895347 -0.394960 106 106 106
0.244668 -0.016489 -0.095903 0.389208 0.856454 -0.339123 106 106 106
0.190297 0.197767 0.059446 0.665554 0.068269 -0.743221 106 106 106
0.202376 0.217956 0.072116 0.665554 0.068269 -0.743221 106 106 106
0.263098 0.030145 0.109242 0.665554 0.068269 -0.743221 106 106 106
0.172174 0.041771 0.242955 -0.500479 -0.156263 0.851529 106 106 106
0.190604 0.055428 0.256293 -0.500479 -0.156263 0.851529 106 106 106
0.080414 0.182989 0.214939 -0.500479 -0.156263 0.851529 106 106 106
0.067963 -0.269577 0.039594 0.648508 -0.019303 0.760963 106 106 106
-0.067963 -0.200003 0.157198 0.648508 -0.019303 0.760963 106 106 106
-0.079663 -0.221643 0.166620 0.648508 -0.019303 0.760963 106 106 106
-0.244668 -0.096278 0.014141 -0.584029 0.811691 -0.008239 106 106 106
0.190297 -0.197767 -0.059446 0.665552 -0.068268 0.743222 106 106 106
0.202376 -0.217956 -0.072117 0.665552 -0.068268 0.743222 106 106 106
0.263098 -0.030145 -0.109242 0.665552 -0.068268 0.743222 106 106 106
-0.172174 -0.243903 0.035823 -0.774657 0.049922 -0.630408 106 106 106
-0.067963 -0.242874 -0.092151 -0.774657 0.049922 -0.630408 106 106 106
-0.066597 -0.269285 -0.095921 -0.774657 0.049922 -0.630408 106 106 106
-0.067963 -0.242874 -0.092151 -0.653314 0.073770 -0.753485 106 106 106
0.067963 -0.163085 -0.202195 -0.653314 0.073770 -0.753485 106 106 106
0.080414 -0.182989 -0.214939 -0.653314 0.073770 -0.753485 106 106 106
0.172174 -0.041771 -0.242956 -0.500479 0.156263 -0.851529 106 106 106
0.190604 -0.055428 -0.256294 -0.500479 0.156263 -0.851529 106 106 106
0.080414 -0.182989 -0.214939 -0.500479 0.156263 -0.851529 106 106 106
0.190297 -0.197767 -0.059446 0.655057 -0.079660 0.751369 106 106 106
0.067963 -0.269577 0.039594 0.655057 -0.079660 0.751369 106 106 106
0.069556 -0.295922 0.035412 0.655057 -0.079660 0.751369 106 106 106
0.080414 0.182989 0.214939 -0.653314 -0.073771 0.753484 106 106 106
-0.172174 -0.243903 0.035823 0.505960 0.754465 0.418075 214 58 0
-0.067963 -0.242874 -0.092151 0.505960 0.754465 0.418075 214 58 0
-0.190297 -0.117978 -0.169490 0.505960 0.754465 0.418075 214 58 0
0.244668 -0.016489 -0.095903 -0.959355 0.278122 -0.047818 214 58 0
0.190297 -0.197767 -0.059446 -0.959355 0.278122 -0.047818 214 58 0
0.190297 -0.168088 0.113180 -0.959355 0.278122 -0.047818 214 58 0
-0.172174 0.243903 -0.035823 0.861935 -0.372794 0.343646 214 58 0
-0.244668 0.096278 -0.014141 0.861935 -0.372794 0.343646 214 58 0
-0.190297 0.055322 -0.194943 0.861935 -0.372794 0.343646 214 58 0
-0.200546 -0.127389 -0.174403 -0.505960 -0.754465 -0.418075 214 58 0
-0.078213 -0.252285 -0.097064 -0.505960 -0.754465 -0.418075 214 58 0
-0.182423 -0.253314 0.030910 -0.505960 -0.754465 -0.418075 214 58 0
0.204268 -0.172254 0.113792 0.959355 -0.278122 0.047818 214 58 0
0.204268 -0.201934 -0.058834 0.959355 -0.278122 0.047818 214 58 0
0.258639 -0.020655 -0.095291 0.959355 -0.278122 0.047818 214 58 0
-0.200546 0.062621 -0.202310 -0.861935 0.372794 -0.343646 214 58 0
-0.254917 0.103577 -0.021508 -0.861935 0.372794 -0.343646 214 58 0
-0.182423 0.251203 -0.043190 -0.861935 0.372794 -0.343646 214 58 0
-0.067963 0.200004 -0.157199 0.483133 -0.185265 -0.855722 214 58 0
-0.190297 0.055322 -0.194943 0.483133 -0.185265 -0.855722 214 58 0
-0.200546 0.062621 -0.202310 0.483133 -0.185265 -0.855722 214 58 0
-0.182423 -0.253314 0.030910 0.505269 -0.761854 0.405316 214 58 0
-0.172174 0.243903 -0.035823 0.690802 0.622390 0.367999 214 58 0
-0.067963 0.200004 -0.157199 0.690802 0.622390 0.367999 214 58 0
-0.072034 0.210201 -0.166804 0.690802 0.622390 0.367999 214 58 0
-0.190297 -0.117978 -0.169490 -0.581079 0.770159 -0.263064 214 58 0
-0.200546 -0.127389 -0.174403 -0.581079 0.770159 -0.263064 214 58 0
-0.254917 -0.105689 0.009228 -0.581079 0.770159 -0.263064 214 58 0
0.244668 -0.016489 -0.095903 -0.014567 -0.192944 -0.981102 214 58 0
-0.244668 -0.096278 0.014141 -0.389207 -0.056084 0.919441 214 58 0
0.258639 0.012322 0.096515 0.288529 0.943626 -0.162237 214 58 0
0.190297 -0.168088 0.113180 -0.014534 0.097430 0.995136 214 58 0
0.204268 -0.172254 0.113792 -0.014534 0.097430 0.995136 214 58 0
0.258639 0.012322 0.096515 -0.014534 0.097430 0.995136 214 58 0
-0.182423 0.251203 -0.043190 -0.392474 0.319414 0.862519 214 58 0
-0.067963 -0.242874 -0.092151 0.481920 -0.068865 -0.873505 214 58 0
-0.190297 0.055322 -0.194943 -0.584027 -0.811692 0.008240 214 58 0
-0.244668 0.096278 -0.014141 -0.584027 -0.811692 0.008240 214 58 0
-0.254917 0.103577 -0.021508 -0.584027 -0.811692 0.008240 214 58 0
0.204268 -0.201934 -0.058834 -0.288529 -0.943626 0.162238 214 58 0
3 0 1 2
3 3 4 5
3 6 7 8
3 9 10 11
3 12 13 14
3 15 16 17
3 18 19 20
3 21 22 23
3 24 25 26
3 27 28 29
3 30 31 32
3 33 34 35
3 36 37 38
3 39 40 41
3 42 43 44
3 45 46 47
3 48 49 50
3 51 52 53
3 54 55 56
3 57 58 59
3 60 61 62
3 63 64 65
3 66 67 68
3 69 70 71
3 72 73 74
3 75 76 77
3 78 79 80
3 81 82 83
3 84 85 86
3 87 88 89
3 90 91 92
3 93 94 95
3 96 97 98
3 99 100 101
3 102 103 104
3 105 106 107
3 108 109 110
3 111 112 113
3 114 115 116
3 117 118 119
3 120 121 122
3 123 124 125
3 126 127 128
3 129 130 131
3 131 132 133
3 134 135 129
3 136 137 134
3 138 139 140
3 133 141 142
3 143 144 145
3 146 147 148
3 128 149 150
3 151 152 138
3 153 154 126
3 155 156 153
3 140 157 155
3 148 158 151
3 145 159 136
3 150 160 146
3 142 161 143
3 162 163 164
3 165 166 167
3 168 169 170
3 171 172 173
3 174 175 176
3 177 178 179
3 180 181 182
3 183 184 185
3 186 187 188
3 189 190 191
3 192 193 194
3 195 196 197
3 198 199 200
3 201 202 203
3 204 205 206
3 207 208 209
3 210 211 212
3 213 214 215
3 216 217 218
3 219 220 221
3 222 223 224
3 225 226 227
3 228 229 230
3 231 232 233
3 234 235 236
3 237 238 239
3 240 241 242
3 243 244 245
3 246 247 248
3 249 250 251
3 252 253 254
3 255 256 257
3 258 259 260
3 261 262 263
3 264 265 266
3 267 268 269
3 270 271 272
3 273 274 275
3 276 277 278
3 279 280 281
3 282 283 284
3 285 286 287
3 288 289 290
3 291 292 293
3 27 294 28
3 30 295 31
3 33 296 34
3 36 297 37
3 298 299 300
3 45 301 46
3 48 302 49
3 303 304 305
3 60 306 61
3 63 307 64
3 308 309 310
3 69 311 70
3 312 313 314
3 315 316 317
3 78 318 79
3 319 320 321
3 322 323 324
3 325 326 327
3 328 329 330
3 331 332 333
3 96 334 97
3 335 336 337
3 338 339 340
3 341 342 343
3 344 345 346
3 111 347 112
3 348 349 350
3 351 352 353
3 120 354 121
3 355 356 357
3 126 154 127
3 129 135 130
3 131 130 132
3 134 137 135
3 136 159 137
3 138 152 139
3 133 132 141
3 143 161 144
3 146 160 147
3 128 127 149
3 151 158 152
3 153 156 154
3 155 157 156
3 140 139 157
3 148 147 158
3 145 144 159
3 150 149 160
3 142 141 161
3 358 359 360
3 361 362 363
3 364 365 366
3 367 368 369
3 370 371 372
3 373 374 375
3 376 377 378
3 183 379 184
3 380 381 382
3 383 384 385
3 386 387 388
3 195 389 196
3 390 391 392
3 393 394 395
3 396 397 398
3 399 400 401
3 402 403 404
3 213 405 214
3 406 407 408
3 409 410 411
3 412 413 414
3 415 416 417
3 418 419 420
3 421 422 423
3 424 425 426
3 237 427 238
3 428 429 430
3 431 432 433
3 246 434 247
3 249 435 250
3 252 436 253
3 437 438 439
3 258 440 259
3 261 441 262
3 442 443 444
3 267 445 268
