ply
format ascii 1.0
comment Created by Blender 2.77 (sub 0) - www.blender.org, source file: 'Fox.blend'
element vertex 246
property float x
property float y
property float z
property float nx
property float ny
property float nz
property uchar red
property uchar green
property uchar blue
element face 82
property list uchar uint vertex_indices
end_header
-0.037321 -0.063845 -0.557378 0.366776 -0.683530 0.631080 240 121 46
0.046514 -0.033976 -0.573750 0.366776 -0.683530 0.631080 240 122 47
-0.063821 -0.009602 -0.483225 0.366776 -0.683530 0.631080 240 123 49
-0.111738 -0.079525 -0.590377 -0.291997 0.109499 0.950131 240 120 44
-0.111738 -0.079525 -0.590377 -0.291997 0.109499 0.950131 240 120 44
-0.119305 0.034381 -0.605830 -0.291997 0.109499 0.950131 240 120 44
0.088095 0.028464 -0.588526 0.519572 0.773297 -0.363396 240 120 44
0.078035 -0.095020 -0.865679 0.519572 0.773297 -0.363396 246 181 142
-0.000849 0.073603 -0.619640 0.519572 0.773297 -0.363396 240 120 44
0.132228 -0.124380 -0.801761 0.425665 0.903268 0.054008 255 255 255
0.183402 -0.137886 -0.979202 0.425665 0.903268 0.054008 255 255 255
0.078035 -0.095020 -0.865679 0.425665 0.903268 0.054008 246 181 142
-0.000849 0.073603 -0.619640 -0.100021 0.852596 -0.512909 240 120 44
-0.066488 -0.055606 -0.821621 -0.100021 0.852596 -0.512909 240 120 44
-0.058876 0.089720 -0.581534 -0.100021 0.852596 -0.512909 240 120 44
0.078035 -0.095020 -0.865679 0.058829 0.832136 -0.551443 243 155 99
-0.066488 -0.055606 -0.821621 0.058829 0.832136 -0.551443 240 120 44
-0.000849 0.073603 -0.619640 0.058829 0.832136 -0.551443 240 120 44
-0.119305 0.034381 -0.605830 -0.668232 0.743307 -0.030980 240 120 44
-0.061574 0.096119 -0.369816 -0.668232 0.743307 -0.030980 240 120 44
-0.058876 0.089720 -0.581534 -0.668232 0.743307 -0.030980 240 120 44
0.053141 0.077704 -0.417669 0.218779 0.972633 -0.078230 239 119 44
-0.000849 0.073603 -0.619640 0.218779 0.972633 -0.078230 240 120 44
-0.058876 0.089720 -0.581534 0.218779 0.972633 -0.078230 240 120 44
0.053141 0.077704 -0.417669 0.488250 0.860066 -0.147979 239 119 44
0.088095 0.028464 -0.588526 0.488250 0.860066 -0.147979 240 120 44
-0.000849 0.073603 -0.619640 0.488250 0.860066 -0.147979 240 120 44
0.053141 0.077704 -0.417669 0.881837 0.469389 0.045129 239 119 44
0.106649 -0.019322 -0.454067 0.881837 0.469389 0.045129 240 120 43
0.088095 0.028464 -0.588526 0.881837 0.469389 0.045129 240 120 44
0.132228 -0.124380 -0.801761 0.708109 0.635071 -0.308653 255 255 255
0.078035 -0.095020 -0.865679 0.708109 0.635071 -0.308653 246 181 142
0.088095 0.028464 -0.588526 0.708109 0.635071 -0.308653 240 120 44
0.092700 -0.298277 -0.830849 0.423427 -0.242269 0.872935 255 255 255
0.222026 -0.232956 -0.875452 0.423427 -0.242269 0.872935 255 255 255
0.132228 -0.124380 -0.801761 0.423427 -0.242269 0.872935 252 230 216
0.222026 -0.232956 -0.875452 0.816585 0.543604 0.194125 255 255 255
0.183402 -0.137886 -0.979202 0.816585 0.543604 0.194125 255 255 255
0.132228 -0.124380 -0.801761 0.816585 0.543604 0.194125 255 255 255
0.160682 -0.319909 -0.939303 -0.320881 -0.164404 -0.932742 255 253 252
-0.014307 -0.264473 -0.888874 -0.320881 -0.164404 -0.932742 255 255 255
0.183402 -0.137886 -0.979202 -0.320881 -0.164404 -0.932742 255 255 255
-0.014307 -0.264473 -0.888874 -0.584016 0.413843 -0.698326 255 255 255
0.078035 -0.095020 -0.865679 -0.584016 0.413843 -0.698326 243 155 99
0.183402 -0.137886 -0.979202 -0.584016 0.413843 -0.698326 255 255 255
-0.014307 -0.264473 -0.888874 -0.219702 0.248844 -0.943296 255 255 255
-0.066488 -0.055606 -0.821621 -0.219702 0.248844 -0.943296 240 120 44
0.078035 -0.095020 -0.865679 -0.219702 0.248844 -0.943296 243 155 99
-0.111738 -0.079525 -0.590377 -0.975391 -0.091987 -0.200377 240 120 44
-0.119305 0.034381 -0.605830 -0.975391 -0.091987 -0.200377 240 120 44
-0.066488 -0.055606 -0.821621 -0.975391 -0.091987 -0.200377 240 120 44
-0.119305 0.034381 -0.605830 -0.506997 0.744410 -0.434519 240 120 44
-0.058876 0.089720 -0.581534 -0.506997 0.744410 -0.434519 240 120 44
-0.066488 -0.055606 -0.821621 -0.506997 0.744410 -0.434519 240 120 44
-0.061574 0.096119 -0.369816 0.147038 0.988734 -0.028007 240 120 44
0.053141 0.077704 -0.417669 0.147038 0.988734 -0.028007 239 119 44
-0.058876 0.089720 -0.581534 0.147038 0.988734 -0.028007 240 120 44
-0.061574 0.096119 -0.369816 0.360694 -0.146616 0.921088 240 121 45
0.106649 -0.019322 -0.454067 0.360694 -0.146616 0.921088 240 121 45
0.053141 0.077704 -0.417669 0.360694 -0.146616 0.921088 240 121 45
0.222026 -0.232956 -0.875452 0.834039 -0.215435 -0.507904 255 255 255
0.160682 -0.319909 -0.939303 0.834039 -0.215435 -0.507904 255 255 255
0.183402 -0.137886 -0.979202 0.834039 -0.215435 -0.507904 255 255 255
0.222026 -0.232956 -0.875452 0.521701 -0.712553 0.469144 255 255 255
0.092700 -0.298277 -0.830849 0.521701 -0.712553 0.469144 255 255 255
0.160682 -0.319909 -0.939303 0.521701 -0.712553 0.469144 255 255 255
0.092700 -0.298277 -0.830849 -0.301731 -0.953393 0.001026 240 127 56
-0.014307 -0.264473 -0.888874 -0.301731 -0.953393 0.001026 240 130 60
0.160682 -0.319909 -0.939303 -0.301731 -0.953393 0.001026 240 120 44
-0.014307 -0.264473 -0.888874 -0.962854 -0.174083 -0.206416 255 255 255
-0.111738 -0.079525 -0.590377 -0.962854 -0.174083 -0.206416 240 120 44
-0.066488 -0.055606 -0.821621 -0.962854 -0.174083 -0.206416 240 120 44
-0.111738 -0.079525 -0.590377 -0.968982 -0.031118 0.245164 240 120 44
-0.061574 0.096119 -0.369816 -0.968982 -0.031118 0.245164 240 120 44
-0.119305 0.034381 -0.605830 -0.968982 -0.031118 0.245164 240 120 44
0.106649 -0.019322 -0.454067 0.820407 0.261739 0.508355 239 119 44
0.106649 -0.019322 -0.454067 0.820407 0.261739 0.508355 240 120 43
0.053141 0.077704 -0.417669 0.820407 0.261739 0.508355 239 119 44
0.106649 -0.019322 -0.454067 0.853282 0.173549 0.491722 239 119 44
0.106649 -0.019322 -0.454067 0.853282 0.173549 0.491722 240 120 44
0.106649 -0.019322 -0.454067 0.853282 0.173549 0.491722 240 120 43
0.106649 -0.019322 -0.454067 0.977911 0.198897 -0.064260 240 120 43
0.106649 -0.019322 -0.454067 0.977911 0.198897 -0.064260 240 120 44
0.088095 0.028464 -0.588526 0.977911 0.198897 -0.064260 240 120 44
0.046514 -0.033976 -0.573750 0.862021 -0.267919 0.430279 240 120 44
0.092700 -0.298277 -0.830849 0.862021 -0.267919 0.430279 255 255 255
0.132228 -0.124380 -0.801761 0.862021 -0.267919 0.430279 252 230 216
0.046514 -0.033976 -0.573750 0.357062 -0.618504 0.699971 240 120 44
-0.037321 -0.063845 -0.557378 0.357062 -0.618504 0.699971 240 120 44
0.092700 -0.298277 -0.830849 0.357062 -0.618504 0.699971 255 255 255
0.092700 -0.298277 -0.830849 -0.452318 -0.816685 0.358377 240 127 56
-0.111738 -0.079525 -0.590377 -0.452318 -0.816685 0.358377 240 120 44
-0.014307 -0.264473 -0.888874 -0.452318 -0.816685 0.358377 240 130 60
-0.037321 -0.063845 -0.557378 -0.109103 -0.779727 0.616541 240 120 44
-0.111738 -0.079525 -0.590377 -0.109103 -0.779727 0.616541 240 120 44
0.092700 -0.298277 -0.830849 -0.109103 -0.779727 0.616541 254 247 242
-0.037321 -0.063845 -0.557378 -0.080258 -0.817955 0.569656 240 121 46
-0.063821 -0.009602 -0.483225 -0.080258 -0.817955 0.569656 240 123 49
-0.111738 -0.079525 -0.590377 -0.080258 -0.817955 0.569656 240 122 47
-0.111738 -0.079525 -0.590377 -0.923133 0.329690 0.197814 240 122 47
-0.063821 -0.009602 -0.483225 -0.923133 0.329690 0.197814 240 123 49
-0.111738 -0.079525 -0.590377 -0.923133 0.329690 0.197814 240 123 48
-0.063821 -0.009602 -0.483225 -0.429467 -0.656312 0.620332 240 120 44
-0.061574 0.096119 -0.369816 -0.429467 -0.656312 0.620332 240 120 44
-0.111738 -0.079525 -0.590377 -0.429467 -0.656312 0.620332 240 120 44
0.088095 0.028464 -0.588526 0.785548 -0.414355 0.459591 240 120 44
0.046514 -0.033976 -0.573750 0.785548 -0.414355 0.459591 240 120 44
0.132228 -0.124380 -0.801761 0.785548 -0.414355 0.459591 252 230 216
0.088095 0.028464 -0.588526 0.756131 -0.576712 -0.309303 240 120 44
0.106649 -0.019322 -0.454067 0.756131 -0.576712 -0.309303 240 120 44
0.046514 -0.033976 -0.573750 0.756131 -0.576712 -0.309303 240 120 44
0.106649 -0.019322 -0.454067 -0.083853 -0.983138 0.162509 240 120 44
-0.063821 -0.009602 -0.483225 -0.083853 -0.983138 0.162509 240 120 44
0.046514 -0.033976 -0.573750 -0.083853 -0.983138 0.162509 240 120 44
-0.063821 -0.009602 -0.483225 -0.156580 -0.720893 0.675126 240 123 49
0.106649 -0.019322 -0.454067 -0.156580 -0.720893 0.675126 241 125 51
-0.061574 0.096119 -0.369816 -0.156580 -0.720893 0.675126 241 125 52
-0.061574 0.096119 -0.369816 0.364769 -0.140231 0.920477 240 120 44
0.106649 -0.019322 -0.454067 0.364769 -0.140231 0.920477 240 120 44
0.106649 -0.019322 -0.454067 0.364769 -0.140231 0.920477 239 119 44
0.031826 -0.217644 -0.121989 -0.112168 -0.983603 0.141221 255 255 255
0.062316 -0.183275 0.141606 -0.112168 -0.983603 0.141221 255 255 255
-0.087968 -0.175416 0.076978 -0.112168 -0.983603 0.141221 255 255 255
0.108909 -0.185296 -0.249910 0.915730 -0.306745 -0.259512 244 161 107
0.106649 -0.019322 -0.454067 0.915730 -0.306745 -0.259512 240 120 44
0.194746 -0.070560 -0.082641 0.915730 -0.306745 -0.259512 240 120 44
0.026975 0.118434 0.115689 0.435546 0.890646 -0.130572 240 120 44
0.161187 0.071154 0.240870 0.435546 0.890646 -0.130572 240 120 44
-0.034909 0.111575 -0.137529 0.435546 0.890646 -0.130572 239 119 44
0.161187 0.071154 0.240870 0.263693 0.964019 -0.033676 240 120 44
0.053141 0.077704 -0.417669 0.263693 0.964019 -0.033676 240 120 44
-0.034909 0.111575 -0.137529 0.263693 0.964019 -0.033676 239 119 44
0.053141 0.077704 -0.417669 0.125295 0.988874 -0.080180 240 120 44
-0.061574 0.096119 -0.369816 0.125295 0.988874 -0.080180 240 120 44
-0.034909 0.111575 -0.137529 0.125295 0.988874 -0.080180 239 119 44
-0.034909 0.111575 -0.137529 -0.031829 0.999307 -0.019292 239 119 44
-0.143802 0.113983 0.166876 -0.031829 0.999307 -0.019292 240 120 44
0.026975 0.118434 0.115689 -0.031829 0.999307 -0.019292 240 120 44
-0.143802 0.113983 0.166876 -0.137786 0.914596 -0.380169 240 120 44
0.013635 0.239906 0.412758 -0.137786 0.914596 -0.380169 240 120 44
0.026975 0.118434 0.115689 -0.137786 0.914596 -0.380169 240 120 44
0.013635 0.239906 0.412758 0.398352 0.855126 -0.331775 240 120 44
0.091440 0.216636 0.446198 0.398352 0.855126 -0.331775 240 120 44
0.026975 0.118434 0.115689 0.398352 0.855126 -0.331775 240 120 44
0.091440 0.216636 0.446198 0.574754 0.747034 -0.334064 240 120 44
0.161187 0.071154 0.240870 0.574754 0.747034 -0.334064 240 120 44
0.026975 0.118434 0.115689 0.574754 0.747034 -0.334064 240 120 44
0.194746 -0.070560 -0.082641 0.852956 0.504843 -0.132666 240 120 44
0.106649 -0.019322 -0.454067 0.852956 0.504843 -0.132666 240 120 44
0.161187 0.071154 0.240870 0.852956 0.504843 -0.132666 240 120 44
0.106649 -0.019322 -0.454067 0.845765 0.516552 -0.133626 240 120 44
0.053141 0.077704 -0.417669 0.845765 0.516552 -0.133626 240 120 44
0.161187 0.071154 0.240870 0.845765 0.516552 -0.133626 240 120 44
0.106649 -0.019322 -0.454067 0.335525 0.487438 -0.806118 240 120 44
-0.063821 -0.009602 -0.519143 0.335525 0.487438 -0.806118 240 120 44
0.053141 0.077704 -0.417669 0.335525 0.487438 -0.806118 240 120 44
-0.063821 -0.009602 -0.519143 -0.108790 0.812088 -0.573304 240 120 44
-0.061574 0.096119 -0.369816 -0.108790 0.812088 -0.573304 240 120 44
0.053141 0.077704 -0.417669 -0.108790 0.812088 -0.573304 240 120 44
-0.063821 -0.009602 -0.519143 -0.878156 0.396566 -0.267542 240 120 44
-0.186503 -0.052007 -0.179320 -0.878156 0.396566 -0.267542 240 120 44
-0.061574 0.096119 -0.369816 -0.878156 0.396566 -0.267542 240 120 44
-0.186503 -0.052007 -0.179320 -0.737949 0.673677 0.039884 240 120 44
-0.034909 0.111575 -0.137529 -0.737949 0.673677 0.039884 239 119 44
-0.061574 0.096119 -0.369816 -0.737949 0.673677 0.039884 240 120 44
-0.186503 -0.052007 -0.179320 -0.678135 0.691809 -0.248057 240 120 44
-0.143802 0.113983 0.166876 -0.678135 0.691809 -0.248057 240 120 44
-0.034909 0.111575 -0.137529 -0.678135 0.691809 -0.248057 239 119 44
-0.186503 -0.052007 -0.179320 -0.984759 0.169179 0.040347 240 120 44
-0.164627 -0.012119 0.187334 -0.984759 0.169179 0.040347 240 120 44
-0.143802 0.113983 0.166876 -0.984759 0.169179 0.040347 240 120 44
-0.044225 0.187373 0.475878 -0.653246 0.756518 0.030833 240 120 44
0.013635 0.239906 0.412758 -0.653246 0.756518 0.030833 240 120 44
-0.143802 0.113983 0.166876 -0.653246 0.756518 0.030833 240 120 44
-0.060871 0.014845 0.414259 -0.752155 -0.156093 0.640233 240 127 54
0.012762 0.197364 0.545264 -0.752155 -0.156093 0.640233 255 254 253
-0.044225 0.187373 0.475878 -0.752155 -0.156093 0.640233 240 120 44
0.066198 0.097300 0.503037 0.938498 -0.034891 0.343518 254 253 253
0.161187 0.071154 0.240870 0.938498 -0.034891 0.343518 240 120 44
0.091440 0.216636 0.446198 0.938498 -0.034891 0.343518 240 120 44
0.108909 -0.185296 -0.249910 0.193410 -0.760232 -0.620193 244 161 107
-0.063821 -0.009602 -0.519143 0.193410 -0.760232 -0.620193 243 146 85
0.106649 -0.019322 -0.454067 0.193410 -0.760232 -0.620193 240 120 44
-0.063821 -0.009602 -0.519143 -0.868942 -0.343255 -0.356535 240 120 44
-0.131593 -0.158292 -0.210819 -0.868942 -0.343255 -0.356535 240 120 44
-0.186503 -0.052007 -0.179320 -0.868942 -0.343255 -0.356535 240 120 44
-0.131593 -0.158292 -0.210819 -0.870666 -0.480701 0.104241 254 253 252
-0.164627 -0.012119 0.187334 -0.870666 -0.480701 0.104241 240 120 44
-0.186503 -0.052007 -0.179320 -0.870666 -0.480701 0.104241 240 123 48
-0.143802 0.113983 0.166876 -0.945712 0.197998 0.257732 240 120 44
-0.164627 -0.012119 0.187334 -0.945712 0.197998 0.257732 240 120 44
-0.044225 0.187373 0.475878 -0.945712 0.197998 0.257732 240 120 44
-0.164627 -0.012119 0.187334 -0.904773 -0.063135 0.421189 240 120 44
-0.060871 0.014845 0.414259 -0.904773 -0.063135 0.421189 240 127 54
-0.044225 0.187373 0.475878 -0.904773 -0.063135 0.421189 240 120 44
0.066198 0.097300 0.503037 0.905426 -0.237638 0.351755 254 253 253
0.131316 -0.104075 0.199379 0.905426 -0.237638 0.351755 240 121 46
0.161187 0.071154 0.240870 0.905426 -0.237638 0.351755 240 120 44
0.161187 0.071154 0.240870 0.959159 -0.208715 0.190923 240 120 44
0.131316 -0.104075 0.199379 0.959159 -0.208715 0.190923 240 121 46
0.194746 -0.070560 -0.082641 0.959159 -0.208715 0.190923 240 120 44
0.031826 -0.217644 -0.121989 -0.158208 -0.930413 -0.330607 255 255 255
-0.131593 -0.158292 -0.210819 -0.158208 -0.930413 -0.330607 254 253 252
0.108909 -0.185296 -0.249910 -0.158208 -0.930413 -0.330607 244 161 107
0.108909 -0.185296 -0.249910 -0.172402 -0.871884 -0.458363 244 161 107
-0.131593 -0.158292 -0.210819 -0.172402 -0.871884 -0.458363 254 253 252
-0.063821 -0.009602 -0.519143 -0.172402 -0.871884 -0.458363 243 146 85
0.031826 -0.217644 -0.121989 -0.339177 -0.940711 -0.004559 255 255 255
-0.087968 -0.175416 0.076978 -0.339177 -0.940711 -0.004559 254 252 251
-0.131593 -0.158292 -0.210819 -0.339177 -0.940711 -0.004559 254 253 252
-0.131593 -0.158292 -0.210819 -0.871581 -0.479178 0.103606 246 173 128
-0.087968 -0.175416 0.076978 -0.871581 -0.479178 0.103606 254 252 251
-0.164627 -0.012119 0.187334 -0.871581 -0.479178 0.103606 240 120 44
-0.087968 -0.175416 0.076978 -0.702288 -0.594420 0.391735 254 252 250
-0.060871 0.014845 0.414259 -0.702288 -0.594420 0.391735 255 255 255
-0.164627 -0.012119 0.187334 -0.702288 -0.594420 0.391735 240 120 44
0.062316 -0.183275 0.141606 -0.254545 -0.833395 0.490570 255 255 255
-0.060871 0.014845 0.414259 -0.254545 -0.833395 0.490570 255 255 255
-0.087968 -0.175416 0.076978 -0.254545 -0.833395 0.490570 254 252 251
0.194746 -0.070560 -0.082641 0.734314 -0.673452 0.085124 240 120 44
0.131316 -0.104075 0.199379 0.734314 -0.673452 0.085124 240 121 46
0.108909 -0.185296 -0.249910 0.734314 -0.673452 0.085124 244 161 107
0.131316 -0.104075 0.199379 0.717936 -0.690396 0.089004 240 121 46
0.062316 -0.183275 0.141606 0.717936 -0.690396 0.089004 255 255 255
0.108909 -0.185296 -0.249910 0.717936 -0.690396 0.089004 244 161 107
0.108909 -0.185296 -0.249910 0.469907 -0.880642 0.060469 244 161 107
0.062316 -0.183275 0.141606 0.469907 -0.880642 0.060469 255 255 255
0.031826 -0.217644 -0.121989 0.469907 -0.880642 0.060469 255 255 255
0.062316 -0.183275 0.141606 0.084536 -0.787534 0.610445 255 255 255
0.066198 0.097300 0.503037 0.084536 -0.787534 0.610445 254 254 254
-0.060871 0.014845 0.414259 0.084536 -0.787534 0.610445 255 255 255
0.062316 -0.183275 0.141606 0.369682 -0.735882 0.567285 255 255 255
0.131316 -0.104075 0.199379 0.369682 -0.735882 0.567285 255 255 255
0.066198 0.097300 0.503037 0.369682 -0.735882 0.567285 254 254 254
0.012762 0.197364 0.545264 0.151150 0.940902 0.303080 240 120 44
0.091440 0.216636 0.446198 0.151150 0.940902 0.303080 240 120 44
0.013635 0.239906 0.412758 0.151150 0.940902 0.303080 244 142 80
-0.044225 0.187373 0.475878 -0.472020 0.840287 0.266674 243 141 78
0.012762 0.197364 0.545264 -0.472020 0.840287 0.266674 245 168 120
0.013635 0.239906 0.412758 -0.472020 0.840287 0.266674 246 170 123
0.012762 0.197364 0.545264 0.761920 0.140028 0.632352 255 255 255
0.066198 0.097300 0.503037 0.761920 0.140028 0.632352 254 254 254
0.091440 0.216636 0.446198 0.761920 0.140028 0.632352 255 255 255
-0.060871 0.014845 0.414259 -0.262171 -0.490668 0.830970 240 127 54
0.066198 0.097300 0.503037 -0.262171 -0.490668 0.830970 254 253 253
0.012762 0.197364 0.545264 -0.262171 -0.490668 0.830970 255 254 253
3 0 1 2
3 3 4 5
3 6 7 8
3 9 10 11
3 12 13 14
3 15 16 17
3 18 19 20
3 21 22 23
3 24 25 26
3 27 28 29
3 30 31 32
3 33 34 35
3 36 37 38
3 39 40 41
3 42 43 44
3 45 46 47
3 48 49 50
3 51 52 53
3 54 55 56
3 57 58 59
3 60 61 62
3 63 64 65
3 66 67 68
3 69 70 71
3 72 73 74
3 75 76 77
3 78 79 80
3 81 82 83
3 84 85 86
3 87 88 89
3 90 91 92
3 93 94 95
3 96 97 98
3 99 100 101
3 102 103 104
3 105 106 107
3 108 109 110
3 111 112 113
3 114 115 116
3 117 118 119
3 120 121 122
3 123 124 125
3 126 127 128
3 129 130 131
3 132 133 134
3 135 136 137
3 138 139 140
3 141 142 143
3 144 145 146
3 147 148 149
3 150 151 152
3 153 154 155
3 156 157 158
3 159 160 161
3 162 163 164
3 165 166 167
3 168 169 170
3 171 172 173
3 174 175 176
3 177 178 179
3 180 181 182
3 183 184 185
3 186 187 188
3 189 190 191
3 192 193 194
3 195 196 197
3 198 199 200
3 201 202 203
3 204 205 206
3 207 208 209
3 210 211 212
3 213 214 215
3 216 217 218
3 219 220 221
3 222 223 224
3 225 226 227
3 228 229 230
3 231 232 233
3 234 235 236
3 237 238 239
3 240 241 242
3 243 244 245
