ply
format ascii 1.0
comment Created by Blender 2.77 (sub 0) - www.blender.org, source file: 'Fox.blend'
element vertex 60
property float x
property float y
property float z
property float nx
property float ny
property float nz
property uchar red
property uchar green
property uchar blue
element face 20
property list uchar uint vertex_indices
end_header
0.030351 -0.216805 -0.009032 0.902094 -0.085538 -0.422976 240 120 44
0.007831 -0.214252 -0.057577 0.902094 -0.085538 -0.422976 240 120 44
0.054657 0.147034 -0.030772 0.902094 -0.085538 -0.422976 237 137 90
0.001663 0.147053 -0.061543 0.502146 -0.000921 -0.864782 240 122 49
0.054657 0.147034 -0.030772 0.502146 -0.000921 -0.864782 237 137 90
0.007831 -0.214252 -0.057577 0.502146 -0.000921 -0.864782 240 120 44
-0.048608 -0.216805 -0.054875 -0.866935 0.026422 -0.497720 240 120 44
-0.074927 -0.216805 -0.009032 -0.866935 0.026422 -0.497720 240 120 44
-0.051359 0.146972 -0.030772 -0.866935 0.026422 -0.497720 240 120 44
-0.051359 0.146972 -0.030772 -0.501296 0.053431 -0.863624 240 120 44
0.001663 0.147053 -0.061543 -0.501296 0.053431 -0.863624 240 120 44
-0.048608 -0.216805 -0.054875 -0.501296 0.053431 -0.863624 240 120 44
-0.049383 -0.213964 0.042216 -0.895152 0.009377 0.445663 240 120 44
-0.051298 0.147197 0.030772 -0.895152 0.009377 0.445663 240 120 44
-0.074927 -0.216805 -0.009032 -0.895152 0.009377 0.445663 240 120 44
-0.051298 0.147197 0.030772 -0.997905 0.064697 0.000758 240 120 44
-0.051359 0.146972 -0.030772 -0.997905 0.064697 0.000758 240 120 44
-0.074927 -0.216805 -0.009032 -0.997905 0.064697 0.000758 240 120 44
-0.049383 -0.213964 0.042216 -0.500202 0.024775 0.865554 240 120 44
0.002005 0.148307 0.061543 -0.500202 0.024775 0.865554 240 120 44
-0.051298 0.147197 0.030772 -0.500202 0.024775 0.865554 240 120 44
-0.074927 -0.216805 -0.009032 -0.000000 -1.000000 0.000000 233 164 175
-0.048608 -0.216805 -0.054875 -0.000000 -1.000000 0.000000 233 164 175
0.030351 -0.216805 -0.009032 -0.000000 -1.000000 0.000000 233 164 175
0.007892 -0.214026 0.042216 0.503224 -0.037875 0.863326 240 120 44
0.054718 0.147257 0.030772 0.503224 -0.037875 0.863326 240 120 44
0.002005 0.148307 0.061543 0.503224 -0.037875 0.863326 240 120 44
0.054718 0.147257 0.030772 -0.000566 0.999998 -0.001882 240 120 44
0.001663 0.147053 -0.061543 -0.000566 0.999998 -0.001882 240 120 44
-0.051298 0.147197 0.030772 -0.000566 0.999998 -0.001882 240 120 44
0.007831 -0.214252 -0.057577 -0.047285 -0.011772 -0.998812 240 120 44
-0.048608 -0.216805 -0.054875 -0.047285 -0.011772 -0.998812 240 120 44
0.001663 0.147053 -0.061543 -0.047285 -0.011772 -0.998812 240 120 44
0.007892 -0.214026 0.042216 0.908744 -0.104986 0.403934 240 120 44
0.030351 -0.216805 -0.009032 0.908744 -0.104986 0.403934 240 120 44
0.054718 0.147257 0.030772 0.908744 -0.104986 0.403934 239 123 52
0.054657 0.147034 -0.030772 0.997773 -0.066701 -0.000746 237 137 90
0.054718 0.147257 0.030772 0.997773 -0.066701 -0.000746 239 125 58
0.030351 -0.216805 -0.009032 0.997773 -0.066701 -0.000746 240 120 44
0.002005 0.148307 0.061543 -0.000058 -0.053267 0.998580 240 120 44
-0.049383 -0.213964 0.042216 -0.000058 -0.053267 0.998580 240 120 44
0.007892 -0.214026 0.042216 -0.000058 -0.053267 0.998580 240 120 44
0.030351 -0.216805 -0.009032 -0.001085 -0.998558 0.053666 233 164 175
0.007892 -0.214026 0.042216 -0.001085 -0.998558 0.053666 233 164 175
-0.049383 -0.213964 0.042216 -0.001085 -0.998558 0.053666 233 164 175
-0.049383 -0.213964 0.042216 -0.000000 -0.998467 0.055350 233 164 175
-0.074927 -0.216805 -0.009032 -0.000000 -0.998467 0.055350 233 164 175
0.030351 -0.216805 -0.009032 -0.000000 -0.998467 0.055350 233 164 175
-0.048608 -0.216805 -0.054875 0.041633 -0.996557 -0.071706 233 164 175
0.007831 -0.214252 -0.057577 0.041633 -0.996557 -0.071706 233 164 175
0.030351 -0.216805 -0.009032 0.041633 -0.996557 -0.071706 233 164 175
-0.051298 0.147197 0.030772 -0.000566 0.999384 -0.035086 240 120 44
0.002005 0.148307 0.061543 -0.000566 0.999384 -0.035086 240 120 44
0.054718 0.147257 0.030772 -0.000566 0.999384 -0.035086 240 120 44
0.054718 0.147257 0.030772 0.002473 0.999990 -0.003628 240 120 44
0.054657 0.147034 -0.030772 0.002473 0.999990 -0.003628 240 121 45
0.001663 0.147053 -0.061543 0.002473 0.999990 -0.003628 240 120 44
0.001663 0.147053 -0.061543 -0.003640 0.999987 -0.003645 239 121 45
-0.051359 0.146972 -0.030772 -0.003640 0.999987 -0.003645 240 120 44
-0.051298 0.147197 0.030772 -0.003640 0.999987 -0.003645 240 120 44
3 0 1 2
3 3 4 5
3 6 7 8
3 9 10 11
3 12 13 14
3 15 16 17
3 18 19 20
3 21 22 23
3 24 25 26
3 27 28 29
3 30 31 32
3 33 34 35
3 36 37 38
3 39 40 41
3 42 43 44
3 45 46 47
3 48 49 50
3 51 52 53
3 54 55 56
3 57 58 59
