ply
format ascii 1.0
comment Created by Blender 2.77 (sub 0) - www.blender.org, source file: 'Glider.blend'
element vertex 456
property float x
property float y
property float z
property float nx
property float ny
property float nz
property uchar red
property uchar green
property uchar blue
element face 232
property list uchar uint vertex_indices
end_header
0.238771 -0.077922 5.653937 0.000000 -1.000000 0.000000 96 71 58
0.000000 -0.077922 3.773833 0.000000 -1.000000 0.000000 96 71 58
0.238771 -0.077922 3.773833 0.000000 -1.000000 0.000000 96 71 58
0.000000 0.197692 5.653937 0.000000 1.000000 -0.000000 96 71 58
0.238771 0.197692 3.773833 0.000000 1.000000 -0.000000 96 71 58
0.000000 0.197692 3.773833 0.000000 1.000000 -0.000000 96 71 58
0.238771 0.197692 5.653937 1.000000 0.000000 -0.000000 96 71 58
0.238771 -0.077922 3.773833 1.000000 0.000000 -0.000000 96 71 58
0.238771 0.197692 3.773833 1.000000 0.000000 -0.000000 96 71 58
0.230531 0.197692 -6.260954 0.000000 0.000000 -1.000000 96 71 58
0.000000 -0.077922 -6.260954 0.000000 0.000000 -1.000000 96 71 58
0.000000 0.197692 -6.260954 0.000000 0.000000 -1.000000 96 71 58
0.000000 0.197692 5.653937 0.000000 0.000000 1.000000 96 71 58
0.238771 -0.077922 5.653937 0.000000 0.000000 1.000000 96 71 58
0.238771 0.197692 5.653937 0.000000 0.000000 1.000000 96 71 58
3.944369 0.197692 3.393815 0.000000 0.000000 -1.000000 96 71 58
0.220047 0.058513 3.393815 0.000000 0.000000 -1.000000 96 71 58
0.220047 0.197692 3.393815 0.000000 0.000000 -1.000000 96 71 58
0.238771 -0.077922 3.773833 -0.000000 0.000000 1.000000 96 71 58
3.944369 0.197692 3.773833 -0.000000 0.000000 1.000000 96 71 58
0.238771 0.197692 3.773833 -0.000000 0.000000 1.000000 96 71 58
0.000000 0.197692 3.393815 0.000000 1.000000 -0.000000 96 71 58
0.212753 0.197692 -0.108250 0.000000 1.000000 -0.000000 96 71 58
0.000000 0.197692 -0.108250 0.000000 1.000000 -0.000000 96 71 58
0.220047 0.197692 3.393815 0.000000 1.000000 -0.000000 96 71 58
0.212753 -0.077922 -0.108250 0.000000 -1.000000 0.000000 96 71 58
0.000000 -0.077922 3.393815 0.000000 -1.000000 0.000000 96 71 58
0.000000 -0.077922 -0.108250 0.000000 -1.000000 0.000000 96 71 58
0.370410 -0.077922 3.393815 0.000000 -1.000000 0.000000 96 71 58
3.944369 0.197692 3.773833 1.000000 0.000000 -0.000000 96 71 58
3.944369 -0.077922 3.393815 1.000000 0.000000 -0.000000 96 71 58
3.944369 0.197692 3.393815 1.000000 0.000000 -0.000000 96 71 58
3.944369 0.197692 3.393815 0.000000 1.000000 -0.000000 96 71 58
3.944369 -0.077922 3.773833 0.000000 -1.000000 -0.000000 96 71 58
0.230531 -0.077922 -3.062004 0.000000 -1.000000 0.000000 96 71 58
0.000000 -0.077922 -6.260954 0.000000 -1.000000 0.000000 96 71 58
0.230531 -0.077922 -6.260954 0.000000 -1.000000 0.000000 96 71 58
0.212753 -0.077922 -2.708564 0.000000 -1.000000 0.000000 96 71 58
0.000000 -0.077922 -3.062004 0.000000 -1.000000 0.000000 96 71 58
0.000000 0.197692 -3.062004 0.000000 1.000000 -0.000000 96 71 58
0.230531 0.197692 -6.260954 0.000000 1.000000 -0.000000 96 71 58
0.000000 0.197692 -6.260954 0.000000 1.000000 -0.000000 96 71 58
0.212753 0.197692 -2.708563 0.000000 1.000000 0.000000 96 71 58
0.230531 0.197692 -3.062004 0.000000 1.000000 0.000000 96 71 58
0.230531 -0.077922 -3.062004 -0.325012 0.000000 -0.945710 96 71 58
1.855881 0.011372 -3.620587 -0.325012 0.000000 -0.945710 96 71 58
1.855881 -0.077922 -3.620587 -0.325012 0.000000 -0.945710 96 71 58
0.212753 -0.077922 -2.708564 0.321861 -0.000002 0.946787 96 71 58
1.855881 0.197692 -3.267146 0.321861 -0.000002 0.946787 96 71 58
0.212753 0.197692 -2.708563 0.321861 -0.000002 0.946787 96 71 58
1.855881 0.197692 -3.620587 1.000000 -0.000000 0.000000 96 71 58
1.855881 -0.077922 -3.267147 1.000000 -0.000000 0.000000 96 71 58
1.855881 -0.077922 -3.620587 1.000000 -0.000000 0.000000 96 71 58
1.855881 0.197692 -3.267146 0.000000 1.000000 -0.000000 96 71 58
1.855881 0.197692 -3.620587 0.000000 1.000000 -0.000000 96 71 58
1.855881 -0.077922 -3.267147 -0.000000 -1.000000 -0.000000 96 71 58
1.399001 0.088786 -5.128068 -0.002135 0.999988 0.004432 255 255 255
0.814378 0.088786 -5.409751 -0.002135 0.999988 0.004432 255 255 255
0.230531 0.077133 -3.062004 -0.002135 0.999988 0.004432 255 255 255
1.855881 0.197692 -3.620587 -0.325012 -0.000000 -0.945710 96 71 58
0.230531 0.077133 -3.062004 -0.325012 -0.000000 -0.945710 96 71 58
0.230531 0.197692 -3.062004 -0.325012 -0.000000 -0.945710 96 71 58
0.230531 0.197692 -3.062004 1.000000 0.000000 -0.000000 96 71 58
0.230531 0.077133 -5.625239 1.000000 0.000000 -0.000000 96 71 58
0.230531 0.197692 -6.260954 1.000000 0.000000 -0.000000 96 71 58
1.397943 -0.013892 -5.128616 0.005213 -0.999871 0.015168 255 255 255
1.855881 0.011372 -3.620587 0.005213 -0.999871 0.015168 255 255 255
0.230531 0.011372 -3.062004 0.005213 -0.999871 0.015168 255 255 255
0.230531 -0.077922 -3.062004 1.000000 0.000000 0.000000 96 71 58
0.230531 0.011372 -5.625239 1.000000 0.000000 0.000000 96 71 58
0.230531 0.011372 -3.062004 1.000000 0.000000 0.000000 96 71 58
1.855881 0.011372 -3.620587 0.957012 0.000000 -0.290047 255 255 255
1.399001 0.088786 -5.128068 0.957012 0.000000 -0.290047 255 255 255
1.855881 0.077133 -3.620587 0.957012 0.000000 -0.290047 255 255 255
0.000000 -0.077922 -2.708563 0.000000 -1.000000 0.000000 96 71 58
0.000000 0.197692 -2.708564 0.000000 1.000000 -0.000000 96 71 58
0.212753 0.197692 -2.708563 1.000000 -0.000000 0.000000 96 71 58
0.212753 -0.077922 -0.108250 1.000000 -0.000000 0.000000 96 71 58
0.212753 -0.077922 -2.708564 1.000000 -0.000000 0.000000 96 71 58
3.108118 0.004417 1.185796 -0.005251 -0.999981 0.003367 255 255 255
3.531798 0.004417 1.846524 -0.005251 -0.999981 0.003367 255 255 255
0.370410 0.026228 3.393815 -0.005251 -0.999981 0.003367 255 255 255
3.108118 0.081256 1.185796 -0.003848 0.999979 0.005267 255 255 255
2.361754 0.081256 0.640439 -0.003848 0.999979 0.005267 255 255 255
0.220047 0.058513 3.393815 -0.003848 0.999979 0.005267 255 255 255
0.370410 -0.077922 3.393815 0.999468 0.000000 -0.032606 96 71 58
0.256162 0.026228 -0.108250 0.999468 0.000000 -0.032606 96 71 58
0.370410 0.026228 3.393815 0.999468 0.000000 -0.032606 96 71 58
0.212753 0.197692 -0.108250 0.999870 -0.015903 -0.002714 96 71 58
0.220047 0.058513 3.393815 0.999870 -0.015903 -0.002714 96 71 58
0.210540 0.058513 -0.108250 0.999870 -0.015903 -0.002714 96 71 58
0.370410 -0.077922 3.393815 -0.000000 0.000000 -1.000000 96 71 58
3.944369 0.026228 3.393815 -0.000000 0.000000 -1.000000 96 71 58
3.944369 -0.077922 3.393815 -0.000000 0.000000 -1.000000 96 71 58
3.944369 0.058513 3.393815 0.997432 0.000000 0.071622 255 255 255
3.979017 0.004417 2.911290 0.997432 0.000000 0.071622 255 255 255
3.979017 0.081256 2.911290 0.997432 0.000000 0.071622 255 255 255
3.979017 0.081256 2.911290 0.952131 0.000000 -0.305689 255 255 255
3.843525 0.004417 2.489275 0.952131 0.000000 -0.305689 255 255 255
3.843525 0.081256 2.489275 0.952131 0.000000 -0.305689 255 255 255
3.531798 0.081256 1.846524 0.899764 0.000001 -0.436376 255 255 255
3.843525 0.004417 2.489275 0.899764 0.000001 -0.436376 255 255 255
3.531798 0.004417 1.846524 0.899764 0.000001 -0.436376 255 255 255
3.108118 0.081256 1.185796 0.841800 0.000001 -0.539789 255 255 255
3.531798 0.004417 1.846524 0.841800 0.000001 -0.539789 255 255 255
3.108118 0.004417 1.185796 0.841800 0.000001 -0.539789 255 255 255
2.361754 0.081256 0.640439 0.589972 0.000003 -0.807424 255 255 255
3.108118 0.004417 1.185796 0.589972 0.000003 -0.807424 255 255 255
2.361754 0.004417 0.640439 0.589972 0.000003 -0.807424 255 255 255
1.639011 0.081256 0.232456 0.491579 0.000003 -0.870833 255 255 255
2.361754 0.004417 0.640439 0.491579 0.000003 -0.870833 255 255 255
1.639011 0.004417 0.232456 0.491579 0.000003 -0.870833 255 255 255
0.833225 0.081256 0.039532 0.232844 0.000004 -0.972514 255 255 255
1.639011 0.004417 0.232456 0.232844 0.000004 -0.972514 255 255 255
0.833225 0.004417 0.039531 0.232844 0.000004 -0.972514 255 255 255
0.833225 0.081256 0.039532 0.210207 0.297057 -0.931434 255 255 255
0.256162 0.026228 -0.108250 0.210207 0.297057 -0.931434 255 255 255
0.210540 0.058513 -0.108250 0.210207 0.297057 -0.931434 255 255 255
0.230531 -0.077922 -6.260954 1.000000 -0.000000 0.000000 96 71 58
1.397943 -0.013892 -5.128616 0.434063 0.000333 -0.900883 255 255 255
0.814378 0.088786 -5.409751 0.434063 0.000333 -0.900883 255 255 255
1.399001 0.088786 -5.128068 0.434063 0.000333 -0.900883 255 255 255
0.814378 0.088786 -5.409751 0.346252 0.000000 -0.938141 255 255 255
0.230531 0.011372 -5.625239 0.346252 0.000000 -0.938141 255 255 255
0.230531 0.077133 -5.625239 0.346252 0.000000 -0.938141 255 255 255
-0.238771 -0.077922 5.653937 0.000000 -1.000000 0.000000 96 71 58
-0.238771 -0.077922 3.773833 0.000000 -1.000000 0.000000 96 71 58
0.000000 -0.077922 -3.062004 1.000000 0.000000 0.000000 96 71 58
0.000000 0.197692 -6.260954 1.000000 0.000000 0.000000 96 71 58
0.000000 0.197692 -3.062004 1.000000 0.000000 0.000000 96 71 58
-0.238771 0.197692 3.773833 0.000000 1.000000 -0.000000 96 71 58
-0.238771 -0.077922 3.773833 -1.000000 -0.000000 0.000000 96 71 58
-0.238771 0.197692 5.653937 -1.000000 -0.000000 0.000000 96 71 58
-0.238771 0.197692 3.773833 -1.000000 -0.000000 0.000000 96 71 58
-0.230531 0.197692 -6.260954 -0.000000 -0.000000 -1.000000 96 71 58
-0.238771 -0.077922 5.653937 -0.000000 0.000000 1.000000 96 71 58
-0.238771 0.197692 5.653937 -0.000000 0.000000 1.000000 96 71 58
-0.220047 0.058513 3.393815 -0.000000 -0.000000 -1.000000 96 71 58
-3.944369 0.197692 3.393815 -0.000000 -0.000000 -1.000000 96 71 58
-0.220047 0.197692 3.393815 -0.000000 -0.000000 -1.000000 96 71 58
-3.944369 0.197692 3.773833 0.000000 0.000000 1.000000 96 71 58
-0.238771 -0.077922 3.773833 0.000000 0.000000 1.000000 96 71 58
-0.238771 0.197692 3.773833 0.000000 0.000000 1.000000 96 71 58
-0.212753 0.197692 -0.108250 0.000000 1.000000 -0.000000 96 71 58
-0.220047 0.197692 3.393815 0.000000 1.000000 -0.000000 96 71 58
0.000000 -0.077922 5.653937 1.000000 0.000000 0.000000 96 71 58
0.000000 0.197692 3.773833 1.000000 0.000000 0.000000 96 71 58
0.000000 0.197692 5.653937 1.000000 0.000000 0.000000 96 71 58
0.000000 -0.077922 3.773833 1.000000 0.000000 0.000000 96 71 58
0.000000 0.197692 3.393815 1.000000 0.000000 0.000000 96 71 58
-0.212753 -0.077922 -0.108250 0.000000 -1.000000 -0.000000 96 71 58
-0.370410 -0.077922 3.393815 0.000000 -1.000000 -0.000000 96 71 58
-3.944369 -0.077922 3.393815 -1.000000 -0.000000 0.000000 96 71 58
-3.944369 0.197692 3.773833 -1.000000 -0.000000 0.000000 96 71 58
-3.944369 0.197692 3.393815 -1.000000 -0.000000 0.000000 96 71 58
-3.944369 0.197692 3.393815 0.000000 1.000000 0.000000 96 71 58
-3.944369 -0.077922 3.773833 -0.000000 -1.000000 0.000000 96 71 58
-0.230531 -0.077922 -3.062004 0.000000 -1.000000 0.000000 96 71 58
-0.230531 -0.077922 -6.260954 0.000000 -1.000000 0.000000 96 71 58
-0.212753 -0.077922 -2.708564 0.000000 -1.000000 0.000000 96 71 58
-0.230531 0.197692 -6.260954 0.000000 1.000000 -0.000000 96 71 58
-0.212753 0.197692 -2.708563 0.000000 1.000000 0.000000 96 71 58
-1.855881 0.011372 -3.620587 0.325012 0.000000 -0.945710 96 71 58
-0.230531 -0.077922 -3.062004 0.325012 0.000000 -0.945710 96 71 58
-1.855881 -0.077922 -3.620587 0.325012 0.000000 -0.945710 96 71 58
-1.855881 0.197692 -3.267146 -0.321861 -0.000002 0.946787 96 71 58
-0.212753 -0.077922 -2.708564 -0.321861 -0.000002 0.946787 96 71 58
-0.212753 0.197692 -2.708563 -0.321861 -0.000002 0.946787 96 71 58
0.000000 0.197692 -0.108250 1.000000 0.000000 -0.000000 96 71 58
0.000000 -0.077922 -2.708563 1.000000 0.000000 -0.000000 96 71 58
0.000000 0.197692 -2.708564 1.000000 0.000000 -0.000000 96 71 58
-1.855881 0.197692 -3.620587 -1.000000 0.000000 -0.000000 96 71 58
-1.855881 -0.077922 -3.267147 -1.000000 0.000000 -0.000000 96 71 58
-1.855881 0.197692 -3.267146 -1.000000 0.000000 -0.000000 96 71 58
-0.230531 0.197692 -3.062004 -0.000000 1.000000 0.000000 96 71 58
-1.855881 0.197692 -3.267146 -0.000000 1.000000 0.000000 96 71 58
-1.855881 -0.077922 -3.267147 0.000000 -1.000000 0.000000 96 71 58
-0.814378 0.088786 -5.409751 0.002135 0.999988 0.004432 255 255 255
-1.399001 0.088786 -5.128068 0.002135 0.999988 0.004432 255 255 255
-0.230531 0.077133 -3.062004 0.002135 0.999988 0.004432 255 255 255
-0.230531 0.077133 -3.062004 0.325012 0.000000 -0.945710 96 71 58
-1.855881 0.197692 -3.620587 0.325012 0.000000 -0.945710 96 71 58
-0.230531 0.197692 -3.062004 0.325012 0.000000 -0.945710 96 71 58
-0.230531 0.077133 -5.625239 -1.000000 -0.000000 0.000000 96 71 58
-0.230531 0.197692 -3.062004 -1.000000 -0.000000 0.000000 96 71 58
-0.230531 0.197692 -6.260954 -1.000000 -0.000000 0.000000 96 71 58
-0.230531 0.011372 -3.062004 0.004604 -0.999943 0.009623 255 255 255
-1.397943 -0.013892 -5.128616 0.004604 -0.999943 0.009623 255 255 255
-0.805061 -0.013892 -5.412294 0.004604 -0.999943 0.009623 255 255 255
-0.230531 -0.077922 -3.062004 -1.000000 0.000000 0.000000 96 71 58
-0.230531 0.011372 -5.625239 -1.000000 0.000000 0.000000 96 71 58
-0.230531 -0.077922 -6.260954 -1.000000 0.000000 0.000000 96 71 58
-1.399001 0.088786 -5.128068 -0.957012 -0.000000 -0.290047 255 255 255
-1.855881 0.011372 -3.620587 -0.957012 -0.000000 -0.290047 255 255 255
-1.855881 0.077133 -3.620587 -0.957012 -0.000000 -0.290047 255 255 255
0.000000 -0.077922 -0.108250 1.000000 0.000000 -0.000000 96 71 58
-0.212753 0.197692 -2.708563 -1.000000 0.000000 -0.000000 96 71 58
-0.212753 -0.077922 -0.108250 -1.000000 0.000000 -0.000000 96 71 58
-0.212753 0.197692 -0.108250 -1.000000 0.000000 -0.000000 96 71 58
-1.639011 0.004417 0.232456 0.001507 -0.999979 0.006294 255 255 255
-0.833225 0.004417 0.039531 0.001507 -0.999979 0.006294 255 255 255
-0.370410 0.026228 3.393815 0.001507 -0.999979 0.006294 255 255 255
-3.843525 0.081256 2.489275 0.000000 0.999684 0.025136 255 255 255
-3.944369 0.058513 3.393815 0.000000 0.999684 0.025136 255 255 255
-0.220047 0.058513 3.393815 0.000000 0.999684 0.025136 255 255 255
-0.370410 -0.077922 3.393815 -0.922241 -0.384381 -0.041518 96 71 58
-0.256162 0.026228 -0.108250 -0.922241 -0.384381 -0.041518 96 71 58
-0.212753 -0.077922 -0.108250 -0.922241 -0.384381 -0.041518 96 71 58
-0.212753 0.197692 -0.108250 -0.999998 -0.000000 -0.002083 96 71 58
-0.220047 0.058513 3.393815 -0.999998 -0.000000 -0.002083 96 71 58
-0.220047 0.197692 3.393815 -0.999998 -0.000000 -0.002083 96 71 58
-3.944369 0.026228 3.393815 0.000000 0.000000 -1.000000 96 71 58
-0.370410 -0.077922 3.393815 0.000000 0.000000 -1.000000 96 71 58
-3.944369 -0.077922 3.393815 0.000000 0.000000 -1.000000 96 71 58
-3.979017 0.004417 2.911290 -0.997432 0.000000 0.071622 255 255 255
-3.944369 0.058513 3.393815 -0.997432 0.000000 0.071622 255 255 255
-3.979017 0.081256 2.911290 -0.997432 0.000000 0.071622 255 255 255
-3.843525 0.004417 2.489275 -0.952131 0.000000 -0.305689 255 255 255
-3.979017 0.081256 2.911290 -0.952131 0.000000 -0.305689 255 255 255
-3.843525 0.081256 2.489275 -0.952131 0.000000 -0.305689 255 255 255
-3.531798 0.081256 1.846524 -0.899764 -0.000000 -0.436376 255 255 255
-3.843525 0.004417 2.489275 -0.899764 -0.000000 -0.436376 255 255 255
-3.843525 0.081256 2.489275 -0.899764 -0.000000 -0.436376 255 255 255
-3.108118 0.081256 1.185796 -0.841800 0.000001 -0.539790 255 255 255
-3.531798 0.004417 1.846524 -0.841800 0.000001 -0.539790 255 255 255
-3.531798 0.081256 1.846524 -0.841800 0.000001 -0.539790 255 255 255
-2.361754 0.081256 0.640439 -0.589972 0.000003 -0.807424 255 255 255
-3.108118 0.004417 1.185796 -0.589972 0.000003 -0.807424 255 255 255
-3.108118 0.081256 1.185796 -0.589972 0.000003 -0.807424 255 255 255
-1.639011 0.081256 0.232456 -0.491579 0.000003 -0.870833 255 255 255
-2.361754 0.004417 0.640439 -0.491579 0.000003 -0.870833 255 255 255
-2.361754 0.081256 0.640439 -0.491579 0.000003 -0.870833 255 255 255
-0.833225 0.081256 0.039532 -0.232843 0.000003 -0.972514 255 255 255
-1.639011 0.004417 0.232456 -0.232843 0.000003 -0.972514 255 255 255
-1.639011 0.081256 0.232456 -0.232843 0.000003 -0.972514 255 255 255
-0.256162 0.026228 -0.108250 -0.210207 0.297057 -0.931434 255 255 255
-0.833225 0.081256 0.039532 -0.210207 0.297057 -0.931434 255 255 255
-0.210540 0.058513 -0.108250 -0.210207 0.297057 -0.931434 255 255 255
-0.814378 0.088786 -5.409751 -0.434063 0.000333 -0.900883 255 255 255
-1.397943 -0.013892 -5.128616 -0.434063 0.000333 -0.900883 255 255 255
-1.399001 0.088786 -5.128068 -0.434063 0.000333 -0.900883 255 255 255
-0.814378 0.088786 -5.409751 -0.347206 -0.008278 -0.937752 255 255 255
-0.230531 0.011372 -5.625239 -0.347206 -0.008278 -0.937752 255 255 255
-0.805061 -0.013892 -5.412294 -0.347206 -0.008278 -0.937752 255 255 255
0.000000 -0.077922 5.653937 0.000000 -1.000000 0.000000 96 71 58
0.238771 0.197692 5.653937 0.000000 1.000000 -0.000000 96 71 58
0.238771 -0.077922 5.653937 1.000000 0.000000 0.000000 96 71 58
0.230531 -0.077922 -6.260954 0.000000 0.000000 -1.000000 96 71 58
0.000000 -0.077922 5.653937 0.000000 -0.000000 1.000000 96 71 58
3.944369 0.058513 3.393815 0.000000 0.000000 -1.000000 96 71 58
3.944369 -0.077922 3.773833 0.000000 0.000000 1.000000 96 71 58
3.944369 -0.077922 3.773833 1.000000 0.000000 0.000000 96 71 58
3.944369 0.197692 3.773833 0.000000 1.000000 -0.000000 96 71 58
3.944369 -0.077922 3.393815 -0.000000 -1.000000 -0.000000 96 71 58
0.230531 0.011372 -3.062004 -0.325012 -0.000000 -0.945710 96 71 58
0.212753 -0.077922 -2.708564 0.321861 -0.000003 0.946787 96 71 58
1.855881 -0.077922 -3.267147 0.321861 -0.000003 0.946787 96 71 58
1.855881 0.197692 -3.267146 0.321861 -0.000003 0.946787 96 71 58
1.855881 0.197692 -3.267146 1.000000 -0.000000 0.000000 96 71 58
1.855881 -0.077922 -3.620587 -0.000000 -1.000000 -0.000000 96 71 58
0.230531 0.077133 -5.625239 -0.019954 0.999801 0.000000 255 255 255
0.230531 0.077133 -3.062004 -0.019954 0.999801 0.000000 255 255 255
0.814378 0.088786 -5.409751 -0.019954 0.999801 0.000000 255 255 255
1.855881 0.077133 -3.620587 0.002406 0.999973 0.007000 255 255 255
1.399001 0.088786 -5.128068 0.002406 0.999973 0.007000 255 255 255
0.230531 0.077133 -3.062004 0.002406 0.999973 0.007000 255 255 255
1.855881 0.077133 -3.620587 -0.325012 0.000000 -0.945710 96 71 58
0.230531 0.077133 -3.062004 1.000000 0.000000 0.000000 96 71 58
0.230531 0.011372 -3.062004 -0.043931 -0.999035 0.000000 255 255 255
0.230531 0.011372 -5.625239 -0.043931 -0.999035 0.000000 255 255 255
0.805061 -0.013892 -5.412294 -0.043931 -0.999035 0.000000 255 255 255
0.805061 -0.013892 -5.412294 -0.004604 -0.999943 0.009623 255 255 255
1.397943 -0.013892 -5.128616 -0.004604 -0.999943 0.009623 255 255 255
0.230531 0.011372 -3.062004 -0.004604 -0.999943 0.009623 255 255 255
1.855881 0.011372 -3.620587 0.956861 -0.008313 -0.290428 255 255 255
1.397943 -0.013892 -5.128616 0.956861 -0.008313 -0.290428 255 255 255
1.399001 0.088786 -5.128068 0.956861 -0.008313 -0.290428 255 255 255
0.212753 0.197692 -0.108250 1.000000 -0.000000 0.000000 96 71 58
3.979017 0.004417 2.911290 -0.114226 -0.992778 0.036673 255 255 255
3.944369 0.026228 3.393815 -0.114226 -0.992778 0.036673 255 255 255
3.843525 0.004417 2.489275 -0.114226 -0.992778 0.036673 255 255 255
0.370410 0.026228 3.393815 -0.038087 -0.999274 0.001243 255 255 255
0.256162 0.026228 -0.108250 -0.038087 -0.999274 0.001243 255 255 255
0.833225 0.004417 0.039531 -0.038087 -0.999274 0.001243 255 255 255
0.833225 0.004417 0.039531 -0.001507 -0.999979 0.006294 255 255 255
1.639011 0.004417 0.232456 -0.001507 -0.999979 0.006294 255 255 255
0.370410 0.026228 3.393815 -0.001507 -0.999979 0.006294 255 255 255
2.361754 0.004417 0.640439 -0.003787 -0.999979 0.005183 255 255 255
3.108118 0.004417 1.185796 -0.003787 -0.999979 0.005183 255 255 255
0.370410 0.026228 3.393815 -0.003787 -0.999979 0.005183 255 255 255
3.531798 0.004417 1.846524 -0.005576 -0.999981 0.002704 255 255 255
3.843525 0.004417 2.489275 -0.005576 -0.999981 0.002704 255 255 255
0.370410 0.026228 3.393815 -0.005576 -0.999981 0.002704 255 255 255
3.944369 0.026228 3.393815 0.000000 -0.999709 0.024106 255 255 255
0.370410 0.026228 3.393815 0.000000 -0.999709 0.024106 255 255 255
3.843525 0.004417 2.489275 0.000000 -0.999709 0.024106 255 255 255
1.639011 0.004417 0.232456 -0.003175 -0.999979 0.005625 255 255 255
2.361754 0.004417 0.640439 -0.003175 -0.999979 0.005625 255 255 255
0.370410 0.026228 3.393815 -0.003175 -0.999979 0.005625 255 255 255
0.833225 0.081256 0.039532 -0.036524 0.999333 0.000099 255 255 255
0.210540 0.058513 -0.108250 -0.036524 0.999333 0.000099 255 255 255
0.220047 0.058513 3.393815 -0.036524 0.999333 0.000099 255 255 255
0.220047 0.058513 3.393815 0.000000 0.999684 0.025136 255 255 255
3.944369 0.058513 3.393815 0.000000 0.999684 0.025136 255 255 255
3.843525 0.081256 2.489275 0.000000 0.999684 0.025136 255 255 255
3.979017 0.081256 2.911290 -0.119034 0.992154 0.038217 255 255 255
3.843525 0.081256 2.489275 -0.119034 0.992154 0.038217 255 255 255
3.944369 0.058513 3.393815 -0.119034 0.992154 0.038217 255 255 255
3.531798 0.081256 1.846524 -0.005284 0.999980 0.003388 255 255 255
3.108118 0.081256 1.185796 -0.005284 0.999980 0.003388 255 255 255
0.220047 0.058513 3.393815 -0.005284 0.999980 0.003388 255 255 255
2.361754 0.081256 0.640439 -0.003240 0.999978 0.005740 255 255 255
1.639011 0.081256 0.232456 -0.003240 0.999978 0.005740 255 255 255
0.220047 0.058513 3.393815 -0.003240 0.999978 0.005740 255 255 255
0.833225 0.081256 0.039532 -0.001555 0.999978 0.006496 255 255 255
0.220047 0.058513 3.393815 -0.001555 0.999978 0.006496 255 255 255
1.639011 0.081256 0.232456 -0.001555 0.999978 0.006496 255 255 255
3.843525 0.081256 2.489275 -0.005599 0.999981 0.002715 255 255 255
3.531798 0.081256 1.846524 -0.005599 0.999981 0.002715 255 255 255
0.220047 0.058513 3.393815 -0.005599 0.999981 0.002715 255 255 255
0.370410 -0.077922 3.393815 0.922241 -0.384381 -0.041518 96 71 58
0.212753 -0.077922 -0.108250 0.922241 -0.384381 -0.041518 96 71 58
0.256162 0.026228 -0.108250 0.922241 -0.384381 -0.041518 96 71 58
0.212753 0.197692 -0.108250 0.999998 0.000000 -0.002083 96 71 58
0.220047 0.197692 3.393815 0.999998 0.000000 -0.002083 96 71 58
0.220047 0.058513 3.393815 0.999998 0.000000 -0.002083 96 71 58
0.370410 0.026228 3.393815 -0.000000 -0.000000 -1.000000 96 71 58
3.944369 0.026228 3.393815 0.997432 -0.000000 0.071622 255 255 255
3.979017 0.004417 2.911290 0.952131 0.000000 -0.305689 255 255 255
3.531798 0.081256 1.846524 0.899764 0.000000 -0.436376 255 255 255
3.843525 0.081256 2.489275 0.899764 0.000000 -0.436376 255 255 255
3.843525 0.004417 2.489275 0.899764 0.000000 -0.436376 255 255 255
3.108118 0.081256 1.185796 0.841800 0.000001 -0.539790 255 255 255
3.531798 0.081256 1.846524 0.841800 0.000001 -0.539790 255 255 255
3.531798 0.004417 1.846524 0.841800 0.000001 -0.539790 255 255 255
3.108118 0.081256 1.185796 0.589972 0.000003 -0.807424 255 255 255
2.361754 0.081256 0.640439 0.491579 0.000003 -0.870833 255 255 255
0.833225 0.081256 0.039532 0.232843 0.000003 -0.972514 255 255 255
1.639011 0.081256 0.232456 0.232843 0.000003 -0.972514 255 255 255
1.639011 0.004417 0.232456 0.232843 0.000003 -0.972514 255 255 255
0.833225 0.081256 0.039532 0.248087 0.000005 -0.968738 255 255 255
0.833225 0.004417 0.039531 0.248087 0.000005 -0.968738 255 255 255
0.256162 0.026228 -0.108250 0.248087 0.000005 -0.968738 255 255 255
1.397943 -0.013892 -5.128616 0.431550 -0.016819 -0.901932 255 255 255
0.805061 -0.013892 -5.412294 0.431550 -0.016819 -0.901932 255 255 255
0.814378 0.088786 -5.409751 0.431550 -0.016819 -0.901932 255 255 255
0.814378 0.088786 -5.409751 0.347206 -0.008278 -0.937752 255 255 255
0.805061 -0.013892 -5.412294 0.347206 -0.008278 -0.937752 255 255 255
0.230531 0.011372 -5.625239 0.347206 -0.008278 -0.937752 255 255 255
0.000000 -0.077922 -6.260954 1.000000 0.000000 -0.000000 96 71 58
-0.238771 0.197692 5.653937 0.000000 1.000000 0.000000 96 71 58
-0.238771 -0.077922 5.653937 -1.000000 -0.000000 -0.000000 96 71 58
-0.230531 -0.077922 -6.260954 0.000000 0.000000 -1.000000 96 71 58
-3.944369 0.058513 3.393815 0.000000 0.000000 -1.000000 96 71 58
-3.944369 -0.077922 3.773833 0.000000 -0.000000 1.000000 96 71 58
0.000000 -0.077922 3.393815 1.000000 0.000000 -0.000000 96 71 58
-3.944369 -0.077922 3.773833 -1.000000 -0.000000 -0.000000 96 71 58
-3.944369 0.197692 3.773833 0.000000 1.000000 0.000000 96 71 58
-3.944369 -0.077922 3.393815 0.000000 -1.000000 0.000000 96 71 58
-0.230531 0.011372 -3.062004 0.325012 0.000000 -0.945710 96 71 58
-1.855881 0.197692 -3.267146 -0.321861 -0.000003 0.946787 96 71 58
-1.855881 -0.077922 -3.267147 -0.321861 -0.000003 0.946787 96 71 58
-0.212753 -0.077922 -2.708564 -0.321861 -0.000003 0.946787 96 71 58
-1.855881 -0.077922 -3.620587 -1.000000 0.000000 0.000000 96 71 58
-1.855881 0.197692 -3.620587 -0.000000 1.000000 0.000000 96 71 58
-1.855881 -0.077922 -3.620587 -0.000000 -1.000000 0.000000 96 71 58
-1.855881 0.077133 -3.620587 -0.002406 0.999973 0.007000 255 255 255
-0.230531 0.077133 -3.062004 -0.002406 0.999973 0.007000 255 255 255
-1.399001 0.088786 -5.128068 -0.002406 0.999973 0.007000 255 255 255
-0.230531 0.077133 -5.625239 0.019954 0.999801 0.000000 255 255 255
-0.814378 0.088786 -5.409751 0.019954 0.999801 0.000000 255 255 255
-0.230531 0.077133 -3.062004 0.019954 0.999801 0.000000 255 255 255
-1.855881 0.077133 -3.620587 0.325012 0.000000 -0.945710 96 71 58
-0.230531 0.077133 -3.062004 -1.000000 -0.000000 -0.000000 96 71 58
-0.805061 -0.013892 -5.412294 0.043931 -0.999035 0.000000 255 255 255
-0.230531 0.011372 -5.625239 0.043931 -0.999035 0.000000 255 255 255
-0.230531 0.011372 -3.062004 0.043931 -0.999035 0.000000 255 255 255
-0.230531 0.011372 -3.062004 -0.005213 -0.999871 0.015168 255 255 255
-1.855881 0.011372 -3.620587 -0.005213 -0.999871 0.015168 255 255 255
-1.397943 -0.013892 -5.128616 -0.005213 -0.999871 0.015168 255 255 255
-0.230531 0.011372 -3.062004 -1.000000 0.000000 0.000000 96 71 58
-1.399001 0.088786 -5.128068 -0.956861 -0.008313 -0.290428 255 255 255
-1.397943 -0.013892 -5.128616 -0.956861 -0.008313 -0.290428 255 255 255
-1.855881 0.011372 -3.620587 -0.956861 -0.008313 -0.290428 255 255 255
-0.212753 -0.077922 -2.708564 -1.000000 0.000000 0.000000 96 71 58
-0.370410 0.026228 3.393815 0.000000 -0.999709 0.024106 255 255 255
-3.944369 0.026228 3.393815 0.000000 -0.999709 0.024106 255 255 255
-3.843525 0.004417 2.489275 0.000000 -0.999709 0.024106 255 255 255
-3.979017 0.004417 2.911290 0.114226 -0.992778 0.036673 255 255 255
-3.843525 0.004417 2.489275 0.114226 -0.992778 0.036673 255 255 255
-3.944369 0.026228 3.393815 0.114226 -0.992778 0.036673 255 255 255
-3.531798 0.004417 1.846524 0.005251 -0.999981 0.003367 255 255 255
-3.108118 0.004417 1.185796 0.005251 -0.999981 0.003367 255 255 255
-0.370410 0.026228 3.393815 0.005251 -0.999981 0.003367 255 255 255
-2.361754 0.004417 0.640439 0.003175 -0.999979 0.005625 255 255 255
-1.639011 0.004417 0.232456 0.003175 -0.999979 0.005625 255 255 255
-0.370410 0.026228 3.393815 0.003175 -0.999979 0.005625 255 255 255
-0.833225 0.004417 0.039531 0.038087 -0.999274 0.001243 255 255 255
-0.256162 0.026228 -0.108250 0.038087 -0.999274 0.001243 255 255 255
-0.370410 0.026228 3.393815 0.038087 -0.999274 0.001243 255 255 255
-0.370410 0.026228 3.393815 0.005576 -0.999981 0.002704 255 255 255
-3.843525 0.004417 2.489275 0.005576 -0.999981 0.002704 255 255 255
-3.531798 0.004417 1.846524 0.005576 -0.999981 0.002704 255 255 255
-3.108118 0.004417 1.185796 0.003787 -0.999979 0.005183 255 255 255
-2.361754 0.004417 0.640439 0.003787 -0.999979 0.005183 255 255 255
-0.370410 0.026228 3.393815 0.003787 -0.999979 0.005183 255 255 255
-0.220047 0.058513 3.393815 0.036524 0.999333 0.000099 255 255 255
-0.210540 0.058513 -0.108250 0.036524 0.999333 0.000099 255 255 255
-0.833225 0.081256 0.039532 0.036524 0.999333 0.000099 255 255 255
-0.833225 0.081256 0.039532 0.001555 0.999978 0.006496 255 255 255
-1.639011 0.081256 0.232456 0.001555 0.999978 0.006496 255 255 255
-0.220047 0.058513 3.393815 0.001555 0.999978 0.006496 255 255 255
-2.361754 0.081256 0.640439 0.003848 0.999979 0.005267 255 255 255
-3.108118 0.081256 1.185796 0.003848 0.999979 0.005267 255 255 255
-0.220047 0.058513 3.393815 0.003848 0.999979 0.005267 255 255 255
-3.531798 0.081256 1.846524 0.005599 0.999981 0.002715 255 255 255
-3.843525 0.081256 2.489275 0.005599 0.999981 0.002715 255 255 255
-0.220047 0.058513 3.393815 0.005599 0.999981 0.002715 255 255 255
-3.979017 0.081256 2.911290 0.119034 0.992154 0.038217 255 255 255
-3.944369 0.058513 3.393815 0.119034 0.992154 0.038217 255 255 255
-3.843525 0.081256 2.489275 0.119034 0.992154 0.038217 255 255 255
-0.220047 0.058513 3.393815 0.003240 0.999978 0.005740 255 255 255
-1.639011 0.081256 0.232456 0.003240 0.999978 0.005740 255 255 255
-2.361754 0.081256 0.640439 0.003240 0.999978 0.005740 255 255 255
-3.108118 0.081256 1.185796 0.005284 0.999980 0.003388 255 255 255
-3.531798 0.081256 1.846524 0.005284 0.999980 0.003388 255 255 255
-0.220047 0.058513 3.393815 0.005284 0.999980 0.003388 255 255 255
-0.370410 -0.077922 3.393815 -0.999468 -0.000000 -0.032606 96 71 58
-0.370410 0.026228 3.393815 -0.999468 -0.000000 -0.032606 96 71 58
-0.256162 0.026228 -0.108250 -0.999468 -0.000000 -0.032606 96 71 58
-0.212753 0.197692 -0.108250 -0.999870 -0.015903 -0.002714 96 71 58
-0.210540 0.058513 -0.108250 -0.999870 -0.015903 -0.002714 96 71 58
-0.220047 0.058513 3.393815 -0.999870 -0.015903 -0.002714 96 71 58
-0.370410 0.026228 3.393815 0.000000 0.000000 -1.000000 96 71 58
-3.944369 0.026228 3.393815 -0.997432 0.000000 0.071622 255 255 255
-3.979017 0.004417 2.911290 -0.952131 -0.000000 -0.305689 255 255 255
-3.531798 0.081256 1.846524 -0.899764 0.000001 -0.436376 255 255 255
-3.531798 0.004417 1.846524 -0.899764 0.000001 -0.436376 255 255 255
-3.843525 0.004417 2.489275 -0.899764 0.000001 -0.436376 255 255 255
-3.108118 0.081256 1.185796 -0.841800 0.000002 -0.539789 255 255 255
-3.108118 0.004417 1.185796 -0.841800 0.000002 -0.539789 255 255 255
-3.531798 0.004417 1.846524 -0.841800 0.000002 -0.539789 255 255 255
-2.361754 0.004417 0.640439 -0.589972 0.000003 -0.807424 255 255 255
-1.639011 0.004417 0.232456 -0.491579 0.000003 -0.870833 255 255 255
-0.833225 0.081256 0.039532 -0.232844 0.000005 -0.972514 255 255 255
-0.833225 0.004417 0.039531 -0.232844 0.000005 -0.972514 255 255 255
-1.639011 0.004417 0.232456 -0.232844 0.000005 -0.972514 255 255 255
-0.256162 0.026228 -0.108250 -0.248087 0.000005 -0.968738 255 255 255
-0.833225 0.004417 0.039531 -0.248087 0.000005 -0.968738 255 255 255
-0.833225 0.081256 0.039532 -0.248087 0.000005 -0.968738 255 255 255
-0.814378 0.088786 -5.409751 -0.431550 -0.016819 -0.901932 255 255 255
-0.805061 -0.013892 -5.412294 -0.431550 -0.016819 -0.901932 255 255 255
-1.397943 -0.013892 -5.128616 -0.431550 -0.016819 -0.901932 255 255 255
-0.814378 0.088786 -5.409751 -0.346252 0.000000 -0.938141 255 255 255
-0.230531 0.077133 -5.625239 -0.346252 0.000000 -0.938141 255 255 255
-0.230531 0.011372 -5.625239 -0.346252 0.000000 -0.938141 255 255 255
3 0 1 2
3 3 4 5
3 6 7 8
3 9 10 11
3 12 13 14
3 15 16 17
3 18 19 20
3 21 22 23
3 5 24 21
3 25 26 27
3 2 26 28
3 29 30 31
3 4 32 24
3 28 33 2
3 34 35 36
3 37 38 34
3 39 40 41
3 39 42 43
3 44 45 46
3 47 48 49
3 50 51 52
3 43 53 54
3 34 55 37
3 56 57 58
3 59 60 61
3 62 63 64
3 65 66 67
3 68 69 70
3 71 72 73
3 25 74 37
3 23 42 75
3 76 77 78
3 79 80 81
3 82 83 84
3 85 86 87
3 88 89 90
3 91 92 93
3 94 95 96
3 97 98 99
3 100 101 102
3 103 104 105
3 106 107 108
3 109 110 111
3 112 113 114
3 115 116 117
3 118 63 69
3 119 120 121
3 122 123 124
3 1 125 126
3 127 128 129
3 130 3 5
3 131 132 133
3 10 134 11
3 135 12 136
3 137 138 139
3 140 141 142
3 143 21 23
3 144 5 21
3 145 146 147
3 148 149 146
3 150 26 151
3 26 126 151
3 152 153 154
3 155 130 144
3 156 151 126
3 35 157 158
3 38 159 157
3 160 39 41
3 39 161 75
3 162 163 164
3 165 166 167
3 168 169 170
3 170 127 129
3 171 172 173
3 174 175 161
3 176 157 159
3 177 178 179
3 180 181 182
3 183 184 185
3 186 187 188
3 189 190 191
3 192 193 194
3 149 195 168
3 74 150 159
3 161 23 75
3 196 197 198
3 199 200 201
3 202 203 204
3 205 206 207
3 208 209 210
3 211 212 213
3 214 215 216
3 217 218 219
3 220 221 222
3 223 224 225
3 226 227 228
3 229 230 231
3 232 233 234
3 235 236 237
3 191 183 185
3 238 239 240
3 241 242 243
3 0 244 1
3 3 245 4
3 6 246 7
3 9 247 10
3 12 248 13
3 15 249 16
3 18 250 19
3 21 24 22
3 5 4 24
3 25 28 26
3 2 1 26
3 29 251 30
3 4 252 32
3 28 253 33
3 34 38 35
3 37 74 38
3 39 43 40
3 39 75 42
3 44 254 45
3 255 256 257
3 50 258 51
3 43 42 53
3 34 259 55
3 260 261 262
3 263 264 265
3 59 266 60
3 62 267 63
3 268 269 270
3 271 272 273
3 68 118 69
3 274 275 276
3 25 27 74
3 23 22 42
3 76 277 77
3 278 279 280
3 281 282 283
3 284 285 286
3 287 288 289
3 290 291 292
3 293 294 295
3 296 297 298
3 299 300 301
3 302 303 304
3 305 306 307
3 308 309 310
3 311 312 313
3 314 315 316
3 317 318 319
3 320 321 322
3 323 324 325
3 91 326 92
3 94 327 95
3 97 328 98
3 329 330 331
3 332 333 334
3 106 335 107
3 109 336 110
3 337 338 339
3 340 341 342
3 118 64 63
3 343 344 345
3 346 347 348
3 1 244 125
3 127 349 128
3 130 350 3
3 131 351 132
3 10 352 134
3 135 248 12
3 137 353 138
3 140 354 141
3 143 144 21
3 144 130 5
3 145 148 146
3 148 355 149
3 150 27 26
3 26 1 126
3 152 356 153
3 155 357 130
3 156 358 151
3 35 38 157
3 38 74 159
3 160 174 39
3 39 174 161
3 162 359 163
3 360 361 362
3 168 195 169
3 170 169 127
3 171 363 172
3 174 364 175
3 176 365 157
3 366 367 368
3 369 370 371
3 180 372 181
3 183 373 184
3 374 375 376
3 377 378 379
3 189 380 190
3 381 382 383
3 149 355 195
3 74 27 150
3 161 143 23
3 196 384 197
3 385 386 387
3 388 389 390
3 391 392 393
3 394 395 396
3 397 398 399
3 400 401 402
3 403 404 405
3 406 407 408
3 409 410 411
3 412 413 414
3 415 416 417
3 418 419 420
3 421 422 423
3 424 425 426
3 427 428 429
3 430 431 432
3 211 433 212
3 214 434 215
3 217 435 218
3 436 437 438
3 439 440 441
3 226 442 227
3 229 443 230
3 444 445 446
3 447 448 449
3 191 190 183
3 450 451 452
3 453 454 455
