ply
format ascii 1.0
comment Created by Blender 2.77 (sub 0) - www.blender.org, source file: 'Tomb.blend'
element vertex 136
property float x
property float y
property float z
property float nx
property float ny
property float nz
property uchar red
property uchar green
property uchar blue
element face 76
property list uchar uint vertex_indices
end_header
0.465888 0.274428 0.530022 1.000000 0.000000 -0.000000 141 142 151
0.465888 -0.001067 -0.530022 1.000000 0.000000 -0.000000 141 142 151
0.465888 0.274428 -0.530022 1.000000 0.000000 -0.000000 141 142 151
-0.465888 0.274428 0.530022 0.000000 0.000000 1.000000 141 142 151
0.465888 -0.001067 0.530022 0.000000 0.000000 1.000000 141 142 151
0.465888 0.274428 0.530022 0.000000 0.000000 1.000000 141 142 151
-0.465888 0.274428 -0.530022 -1.000000 -0.000000 -0.000000 141 142 151
-0.465888 -0.001067 0.530022 -1.000000 -0.000000 -0.000000 141 142 151
-0.465888 0.274428 0.530022 -1.000000 -0.000000 -0.000000 141 142 151
0.465888 0.274428 -0.530022 0.000000 0.000000 -1.000000 141 142 151
-0.465888 -0.001067 -0.530022 0.000000 0.000000 -1.000000 141 142 151
-0.465888 0.274428 -0.530022 0.000000 0.000000 -1.000000 141 142 151
0.465888 -0.001067 0.530022 0.000000 -1.000000 0.000000 141 142 151
-0.465888 -0.001067 -0.530022 0.000000 -1.000000 0.000000 141 142 151
0.465888 -0.001067 -0.530022 0.000000 -1.000000 0.000000 141 142 151
-0.465888 0.274428 0.530022 0.135096 0.990832 0.000000 141 142 151
-0.306207 0.252656 -0.348360 0.135096 0.990832 0.000000 141 142 151
-0.465888 0.274428 -0.530022 0.135096 0.990832 0.000000 141 142 151
-0.306207 0.252656 0.348360 -1.000000 0.000000 0.000000 141 142 151
-0.306207 0.464445 -0.348360 -1.000000 0.000000 0.000000 141 142 151
-0.306207 0.252656 -0.348360 -1.000000 0.000000 0.000000 141 142 151
0.465888 0.274428 -0.530022 -0.135096 0.990832 0.000000 141 142 151
0.306207 0.252656 0.348360 -0.135096 0.990832 0.000000 141 142 151
0.465888 0.274428 0.530022 -0.135096 0.990832 0.000000 141 142 151
-0.465888 0.274428 -0.530022 0.000000 0.992895 0.118996 141 142 151
0.306207 0.252656 -0.348360 0.000000 0.992895 0.118996 141 142 151
0.465888 0.274428 -0.530022 0.000000 0.992895 0.118996 141 142 151
0.465888 0.274428 0.530022 0.000000 0.992895 -0.118996 141 142 151
-0.306207 0.252656 0.348360 0.000000 0.992895 -0.118996 141 142 151
-0.465888 0.274428 0.530022 0.000000 0.992895 -0.118996 141 142 151
-0.306207 0.464445 0.348360 -0.016933 0.999857 0.000000 141 142 151
-0.115590 0.467673 -0.106595 -0.016933 0.999857 0.000000 141 142 151
-0.306207 0.464445 -0.348360 -0.016933 0.999857 0.000000 141 142 151
0.306207 0.252656 -0.348360 1.000000 -0.000000 0.000000 141 142 151
0.306207 0.464445 0.348360 1.000000 -0.000000 0.000000 141 142 151
0.306207 0.252656 0.348360 1.000000 -0.000000 0.000000 141 142 151
-0.306207 0.252656 -0.348360 -0.000000 0.000000 -1.000000 141 142 151
0.306207 0.464445 -0.348360 -0.000000 0.000000 -1.000000 141 142 151
0.306207 0.252656 -0.348360 -0.000000 0.000000 -1.000000 141 142 151
0.306207 0.252656 0.348360 -0.000000 0.000000 1.000000 141 142 151
-0.306207 0.464445 0.348360 -0.000000 0.000000 1.000000 141 142 151
-0.306207 0.252656 0.348360 -0.000000 0.000000 1.000000 141 142 151
-0.115590 1.890707 -0.106595 -0.000000 0.000000 -1.000000 54 54 54
0.115590 2.237245 -0.106595 -0.000000 0.000000 -1.000000 54 54 54
0.115590 1.890707 -0.106595 -0.000000 0.000000 -1.000000 54 54 54
0.306207 0.464445 -0.348360 0.016933 0.999857 0.000000 141 142 151
0.115590 0.467673 0.106595 0.016933 0.999857 0.000000 141 142 151
0.306207 0.464445 0.348360 0.016933 0.999857 0.000000 141 142 151
-0.306207 0.464445 -0.348360 0.000000 0.999911 -0.013351 141 142 151
0.115590 0.467673 -0.106595 0.000000 0.999911 -0.013351 141 142 151
0.306207 0.464445 -0.348360 0.000000 0.999911 -0.013351 141 142 151
0.306207 0.464445 0.348360 0.000000 0.999911 0.013351 141 142 151
-0.115590 0.467673 0.106595 0.000000 0.999911 0.013351 141 142 151
-0.306207 0.464445 0.348360 0.000000 0.999911 0.013351 141 142 151
-0.115590 2.237245 0.106595 0.000000 1.000000 -0.000000 54 54 54
0.115590 2.237245 -0.106595 0.000000 1.000000 -0.000000 54 54 54
-0.115590 2.237245 -0.106595 0.000000 1.000000 -0.000000 54 54 54
0.115590 1.890707 0.106595 -0.000000 0.000000 1.000000 54 54 54
-0.115590 2.237245 0.106595 -0.000000 0.000000 1.000000 54 54 54
-0.115590 1.890707 0.106595 -0.000000 0.000000 1.000000 54 54 54
-0.115590 1.890707 0.106595 -1.000000 0.000000 0.000000 54 54 54
-0.115590 2.237245 -0.106595 -1.000000 0.000000 0.000000 54 54 54
-0.115590 1.890707 -0.106595 -1.000000 0.000000 0.000000 54 54 54
0.115590 1.890707 -0.106595 1.000000 -0.000000 0.000000 54 54 54
0.115590 2.237245 0.106595 1.000000 -0.000000 0.000000 54 54 54
0.115590 1.890707 0.106595 1.000000 -0.000000 0.000000 54 54 54
0.115590 0.467673 -0.106595 1.000000 -0.000000 0.000000 54 54 54
0.115590 1.712057 0.106595 1.000000 -0.000000 0.000000 54 54 54
0.115590 0.467673 0.106595 1.000000 -0.000000 0.000000 54 54 54
0.115590 1.712057 -0.106595 1.000000 -0.000000 0.000000 54 54 54
-0.115590 0.467673 0.106595 -1.000000 0.000000 0.000000 54 54 54
-0.115590 1.712057 -0.106595 -1.000000 0.000000 0.000000 54 54 54
-0.115590 0.467673 -0.106595 -1.000000 0.000000 0.000000 54 54 54
-0.115590 1.712057 0.106595 -1.000000 0.000000 0.000000 54 54 54
0.115590 0.467673 0.106595 -0.000000 0.000000 1.000000 54 54 54
-0.115590 1.712057 0.106595 -0.000000 0.000000 1.000000 54 54 54
-0.115590 0.467673 0.106595 -0.000000 0.000000 1.000000 54 54 54
-0.115590 0.467673 -0.106595 -0.000000 0.000000 -1.000000 54 54 54
0.115590 1.712057 -0.106595 -0.000000 0.000000 -1.000000 54 54 54
0.115590 0.467673 -0.106595 -0.000000 0.000000 -1.000000 54 54 54
0.115590 1.712057 0.436096 -0.000000 0.000000 1.000000 54 54 54
-0.115590 1.890707 0.436096 -0.000000 0.000000 1.000000 54 54 54
-0.115590 1.712057 0.436096 -0.000000 0.000000 1.000000 54 54 54
0.115590 1.712057 0.436096 0.000000 -1.000000 0.000000 54 54 54
-0.115590 1.712057 0.106595 0.000000 -1.000000 0.000000 54 54 54
0.115590 1.712057 0.106595 0.000000 -1.000000 0.000000 54 54 54
0.115590 1.890707 0.436096 1.000000 0.000000 -0.000000 54 54 54
-0.115590 1.890707 0.436096 0.000000 1.000000 -0.000000 54 54 54
0.115590 1.890707 0.106595 0.000000 1.000000 -0.000000 54 54 54
-0.115590 1.890707 0.106595 0.000000 1.000000 -0.000000 54 54 54
-0.115590 1.712057 0.436096 -1.000000 0.000000 0.000000 54 54 54
-0.115590 1.712057 -0.436096 -0.000000 0.000000 -1.000000 54 54 54
0.115590 1.890707 -0.436096 -0.000000 0.000000 -1.000000 54 54 54
0.115590 1.712057 -0.436096 -0.000000 0.000000 -1.000000 54 54 54
-0.115590 1.712057 -0.436096 0.000000 -1.000000 -0.000000 54 54 54
0.115590 1.712057 -0.106595 0.000000 -1.000000 -0.000000 54 54 54
-0.115590 1.712057 -0.106595 0.000000 -1.000000 -0.000000 54 54 54
-0.115590 1.890707 -0.436096 -1.000000 -0.000000 -0.000000 54 54 54
0.115590 1.890707 -0.436096 0.000000 1.000000 0.000000 54 54 54
-0.115590 1.890707 -0.106595 0.000000 1.000000 0.000000 54 54 54
0.115590 1.890707 -0.106595 0.000000 1.000000 0.000000 54 54 54
0.115590 1.712057 -0.436096 1.000000 -0.000000 0.000000 54 54 54
0.465888 -0.001067 0.530022 1.000000 0.000000 0.000000 141 142 151
-0.465888 -0.001067 0.530022 0.000000 -0.000000 1.000000 141 142 151
-0.465888 -0.001067 -0.530022 -1.000000 0.000000 0.000000 141 142 151
0.465888 -0.001067 -0.530022 0.000000 0.000000 -1.000000 141 142 151
-0.465888 -0.001067 0.530022 0.000000 -1.000000 0.000000 141 142 151
-0.306207 0.252656 0.348360 0.135096 0.990832 -0.000000 141 142 151
-0.306207 0.464445 0.348360 -1.000000 0.000000 0.000000 141 142 151
0.306207 0.252656 -0.348360 -0.135096 0.990832 0.000000 141 142 151
-0.306207 0.252656 -0.348360 0.000000 0.992895 0.118996 141 142 151
0.306207 0.252656 0.348360 0.000000 0.992895 -0.118996 141 142 151
-0.115590 0.467673 0.106595 -0.016933 0.999857 0.000000 141 142 151
0.306207 0.464445 -0.348360 1.000000 0.000000 0.000000 141 142 151
-0.306207 0.464445 -0.348360 -0.000000 -0.000000 -1.000000 141 142 151
0.306207 0.464445 0.348360 -0.000000 0.000000 1.000000 141 142 151
-0.115590 2.237245 -0.106595 -0.000000 -0.000000 -1.000000 54 54 54
0.115590 0.467673 -0.106595 0.016933 0.999857 0.000000 141 142 151
-0.115590 0.467673 -0.106595 0.000000 0.999911 -0.013351 141 142 151
0.115590 0.467673 0.106595 -0.000000 0.999911 0.013351 141 142 151
0.115590 2.237245 0.106595 0.000000 1.000000 -0.000000 54 54 54
0.115590 2.237245 0.106595 -0.000000 0.000000 1.000000 54 54 54
-0.115590 2.237245 0.106595 -1.000000 0.000000 0.000000 54 54 54
0.115590 2.237245 -0.106595 1.000000 0.000000 0.000000 54 54 54
0.115590 1.712057 0.106595 -0.000000 0.000000 1.000000 54 54 54
-0.115590 1.712057 -0.106595 -0.000000 -0.000000 -1.000000 54 54 54
0.115590 1.890707 0.436096 -0.000000 0.000000 1.000000 54 54 54
-0.115590 1.712057 0.436096 0.000000 -1.000000 0.000000 54 54 54
0.115590 1.712057 0.436096 1.000000 0.000000 0.000000 54 54 54
0.115590 1.890707 0.436096 0.000000 1.000000 -0.000000 54 54 54
-0.115590 1.890707 0.436096 -1.000000 0.000000 0.000000 54 54 54
-0.115590 1.890707 -0.436096 -0.000000 -0.000000 -1.000000 54 54 54
0.115590 1.712057 -0.436096 -0.000000 -1.000000 -0.000000 54 54 54
-0.115590 1.712057 -0.436096 -1.000000 0.000000 0.000000 54 54 54
-0.115590 1.890707 -0.436096 -0.000000 1.000000 0.000000 54 54 54
0.115590 1.890707 -0.436096 1.000000 0.000000 0.000000 54 54 54
3 0 1 2
3 3 4 5
3 6 7 8
3 9 10 11
3 12 13 14
3 15 16 17
3 18 19 20
3 21 22 23
3 24 25 26
3 27 28 29
3 30 31 32
3 33 34 35
3 36 37 38
3 39 40 41
3 42 43 44
3 45 46 47
3 48 49 50
3 51 52 53
3 54 55 56
3 57 58 59
3 60 61 62
3 63 64 65
3 66 67 68
3 69 65 67
3 70 71 72
3 73 62 71
3 74 75 76
3 77 78 79
3 80 81 82
3 83 84 85
3 86 67 65
3 87 88 89
3 90 60 73
3 91 92 93
3 94 95 96
3 97 71 62
3 98 99 100
3 101 63 69
3 0 102 1
3 3 103 4
3 6 104 7
3 9 105 10
3 12 106 13
3 15 107 16
3 18 108 19
3 21 109 22
3 24 110 25
3 27 111 28
3 30 112 31
3 33 113 34
3 36 114 37
3 39 115 40
3 42 116 43
3 45 117 46
3 48 118 49
3 51 119 52
3 54 120 55
3 57 121 58
3 60 122 61
3 63 123 64
3 66 69 67
3 69 63 65
3 70 73 71
3 73 60 62
3 74 124 75
3 77 125 78
3 80 126 81
3 83 127 84
3 86 128 67
3 87 129 88
3 90 130 60
3 91 131 92
3 94 132 95
3 97 133 71
3 98 134 99
3 101 135 63
