ply
format ascii 1.0
comment Created by Blender 2.77 (sub 0) - www.blender.org, source file: 'Tomb.blend'
element vertex 118
property float x
property float y
property float z
property float nx
property float ny
property float nz
property uchar red
property uchar green
property uchar blue
element face 55
property list uchar uint vertex_indices
end_header
-0.122763 0.015937 0.000000 0.000000 -0.999957 -0.009283 135 135 135
0.088185 0.020518 -0.493388 0.000000 -0.999957 -0.009283 135 135 135
0.131089 0.015937 0.000000 0.000000 -0.999957 -0.009283 135 135 135
0.088185 0.988546 -0.493388 0.000002 0.220771 -0.975326 135 135 135
-0.088185 1.232987 -0.438058 0.000002 0.220771 -0.975326 135 135 135
0.088185 1.232987 -0.438057 0.000002 0.220771 -0.975326 135 135 135
-0.088185 0.988546 -0.493388 0.000001 -0.000000 -1.000000 135 135 135
0.088185 0.225698 -0.493388 0.000001 -0.000000 -1.000000 135 135 135
-0.088185 0.225698 -0.493388 0.000001 -0.000000 -1.000000 135 135 135
-0.088185 0.020518 0.493388 -0.000001 0.000000 1.000000 135 135 135
0.088185 0.225698 0.493388 -0.000001 0.000000 1.000000 135 135 135
-0.088185 0.225698 0.493388 -0.000001 0.000000 1.000000 135 135 135
-0.088185 1.232987 0.438057 -0.997742 0.027875 0.061096 135 135 135
-0.111260 1.367188 -0.000000 -0.997742 0.027875 0.061096 135 135 135
-0.122763 0.955442 -0.000000 -0.997742 0.027875 0.061096 135 135 135
-0.122763 0.955442 -0.000000 -0.997504 0.015587 0.068862 135 135 135
-0.088185 0.988546 0.493388 -0.997504 0.015587 0.068862 135 135 135
-0.088185 1.232987 0.438057 -0.997504 0.015587 0.068862 135 135 135
-0.088185 0.988546 0.493388 -0.000001 0.220771 0.975326 255 255 255
0.088185 1.232987 0.438058 -0.000001 0.220771 0.975326 255 255 255
-0.088185 1.232987 0.438057 -0.000001 0.220771 0.975326 255 255 255
-0.111260 1.367188 -0.000000 0.000000 0.999360 -0.035775 255 255 255
0.088185 1.358092 -0.254108 0.000000 0.999360 -0.035775 255 255 255
-0.088185 1.358092 -0.254108 0.000000 0.999360 -0.035775 255 255 255
0.088185 1.232987 -0.438057 0.996410 0.027838 -0.079953 135 135 135
0.119586 1.367188 0.000000 0.996410 0.027838 -0.079953 135 135 135
0.131089 0.955442 0.000000 0.996410 0.027838 -0.079953 135 135 135
-0.088185 1.232987 0.438057 -0.000000 0.826886 0.562370 255 255 255
0.088185 1.358092 0.254108 -0.000000 0.826886 0.562370 255 255 255
-0.088185 1.358092 0.254108 -0.000000 0.826886 0.562370 255 255 255
0.088185 1.232987 -0.438057 0.000001 0.826886 -0.562370 255 255 255
-0.088185 1.358092 -0.254108 0.000001 0.826886 -0.562370 255 255 255
0.088185 1.358092 -0.254108 0.000001 0.826886 -0.562370 255 255 255
-0.088185 0.225698 0.493388 -0.000002 0.000000 1.000000 135 135 135
0.088185 0.988546 0.493388 -0.000002 0.000000 1.000000 135 135 135
-0.088185 0.988546 0.493388 -0.000002 0.000000 1.000000 135 135 135
0.088185 0.020518 -0.493388 0.000000 0.000000 0.000000 255 255 255
0.088185 0.190874 -0.493388 0.000000 0.000000 0.000000 255 255 255
0.088185 0.020518 -0.493388 0.000000 0.000000 0.000000 255 255 255
0.088185 0.020518 -0.493388 0.000001 -0.000000 -1.000000 135 135 135
-0.088185 0.020518 -0.493388 0.000001 -0.000000 -1.000000 135 135 135
0.088185 0.020518 0.493388 0.970143 0.000000 0.242536 255 255 255
0.088185 0.190874 0.493388 0.970143 0.000000 0.242536 255 255 255
0.088185 0.225698 0.493388 0.970143 0.000000 0.242536 255 255 255
0.131089 0.015937 0.000000 0.000000 0.000000 0.000000 255 255 255
0.088185 0.020518 0.493388 0.000000 0.000000 0.000000 255 255 255
0.088185 0.020518 0.493388 0.000000 0.000000 0.000000 255 255 255
0.088185 1.232987 0.438058 0.974140 0.186832 0.127065 135 135 135
0.119586 1.367188 0.000000 0.974140 0.186832 0.127065 135 135 135
0.088185 1.358092 0.254108 0.974140 0.186832 0.127065 135 135 135
0.088185 1.358092 0.254108 -0.000000 0.999360 0.035775 255 255 255
-0.111260 1.367188 -0.000000 -0.000000 0.999360 0.035775 255 255 255
-0.088185 1.358092 0.254108 -0.000000 0.999360 0.035775 255 255 255
-0.088185 0.988546 -0.493388 -0.997504 0.015587 -0.068863 135 135 135
-0.122763 0.955442 -0.000000 -0.997504 0.015587 -0.068863 135 135 135
-0.088185 1.232987 -0.438058 -0.997504 0.015587 -0.068863 135 135 135
-0.088185 1.232987 -0.438058 -0.985784 0.138933 -0.094489 135 135 135
-0.111260 1.367188 -0.000000 -0.985784 0.138933 -0.094489 135 135 135
-0.088185 1.358092 -0.254108 -0.985784 0.138933 -0.094489 135 135 135
-0.122763 0.955442 -0.000000 -0.997553 0.000000 0.069912 135 135 135
-0.122763 0.015937 0.000000 -0.997553 0.000000 0.069912 135 135 135
-0.088185 0.225698 0.493388 -0.997553 0.000000 0.069912 135 135 135
-0.122763 0.015937 0.000000 -0.000000 -0.999957 0.009283 135 135 135
0.088185 0.020518 0.493388 -0.000000 -0.999957 0.009283 135 135 135
-0.088185 0.020518 0.493388 -0.000000 -0.999957 0.009283 135 135 135
0.131089 0.015937 0.000000 0.996240 0.000000 -0.086632 135 135 135
0.088185 0.190874 -0.493388 0.996240 0.000000 -0.086632 135 135 135
0.088185 0.225698 -0.493388 0.996240 0.000000 -0.086632 135 135 135
0.088185 0.988546 0.493388 0.996166 0.019315 0.085329 135 135 135
0.131089 0.955442 0.000000 0.996166 0.019315 0.085329 135 135 135
0.088185 1.232987 0.438058 0.996166 0.019315 0.085329 135 135 135
0.131089 0.955442 0.000000 0.996166 0.019315 -0.085329 135 135 135
0.088185 0.988546 -0.493388 0.996166 0.019315 -0.085329 135 135 135
0.088185 1.232987 -0.438057 0.996166 0.019315 -0.085329 135 135 135
-0.088185 0.020518 -0.493388 0.000000 -0.999957 -0.009283 135 135 135
-0.088185 0.988546 -0.493388 0.000002 0.220771 -0.975326 135 135 135
-0.088185 0.988546 -0.493388 0.000002 0.000000 -1.000000 135 135 135
0.088185 0.988546 -0.493388 0.000002 0.000000 -1.000000 135 135 135
0.088185 0.225698 -0.493388 0.000002 0.000000 -1.000000 135 135 135
0.088185 0.020518 0.493388 -0.000001 0.000000 1.000000 135 135 135
-0.088185 1.232987 0.438057 -0.985784 0.138933 0.094489 135 135 135
-0.088185 1.358092 0.254108 -0.985784 0.138933 0.094489 135 135 135
-0.111260 1.367188 -0.000000 -0.985784 0.138933 0.094489 135 135 135
0.088185 0.988546 0.493388 -0.000001 0.220771 0.975326 255 255 255
0.119586 1.367188 0.000000 0.000000 0.999360 -0.035775 255 255 255
0.088185 1.232987 -0.438057 0.974140 0.186831 -0.127065 135 135 135
0.088185 1.358092 -0.254108 0.974140 0.186831 -0.127065 135 135 135
0.119586 1.367188 0.000000 0.974140 0.186831 -0.127065 135 135 135
-0.088185 1.232987 0.438057 -0.000001 0.826886 0.562370 255 255 255
0.088185 1.232987 0.438058 -0.000001 0.826886 0.562370 255 255 255
0.088185 1.358092 0.254108 -0.000001 0.826886 0.562370 255 255 255
-0.088185 1.232987 -0.438058 0.000001 0.826886 -0.562370 255 255 255
0.088185 0.988546 0.493388 -0.000001 0.000000 1.000000 135 135 135
0.088185 0.225698 -0.493388 0.000000 0.000000 0.000000 255 255 255
0.088185 0.190874 0.493388 0.000000 0.000000 0.000000 255 255 255
0.088185 1.232987 0.438058 0.996410 0.027838 0.079953 135 135 135
0.131089 0.955442 0.000000 0.996410 0.027838 0.079953 135 135 135
0.119586 1.367188 0.000000 0.996410 0.027838 0.079953 135 135 135
0.119586 1.367188 0.000000 -0.000000 0.999360 0.035775 255 255 255
-0.088185 1.232987 -0.438058 -0.997743 0.027875 -0.061096 135 135 135
-0.122763 0.955442 -0.000000 -0.997743 0.027875 -0.061096 135 135 135
-0.111260 1.367188 -0.000000 -0.997743 0.027875 -0.061096 135 135 135
-0.122763 0.955442 -0.000000 -0.997553 0.000000 -0.069912 135 135 135
-0.088185 0.988546 -0.493388 -0.997553 0.000000 -0.069912 135 135 135
-0.088185 0.225698 -0.493388 -0.997553 0.000000 -0.069912 135 135 135
-0.088185 0.020518 -0.493388 -0.997553 0.000000 -0.069912 135 135 135
-0.122763 0.015937 0.000000 -0.997553 0.000000 -0.069912 135 135 135
-0.088185 0.020518 0.493388 -0.997553 -0.000000 0.069912 135 135 135
-0.088185 0.988546 0.493388 -0.997553 -0.000000 0.069912 135 135 135
0.131089 0.015937 0.000000 -0.000000 -0.999957 0.009283 135 135 135
0.131089 0.955442 0.000000 0.996240 -0.000000 0.086632 135 135 135
0.088185 0.988546 0.493388 0.996240 -0.000000 0.086632 135 135 135
0.088185 0.225698 0.493388 0.996240 -0.000000 0.086632 135 135 135
0.131089 0.015937 0.000000 0.996240 -0.000000 0.086632 135 135 135
0.088185 0.988546 -0.493388 0.996240 0.000000 -0.086632 135 135 135
0.131089 0.955442 0.000000 0.996240 0.000000 -0.086632 135 135 135
0.088185 0.020518 -0.493388 0.996240 0.000000 -0.086632 135 135 135
0.088185 0.020518 0.493388 0.996240 -0.000000 0.086632 135 135 135
3 0 1 2
3 3 4 5
3 6 7 8
3 9 10 11
3 12 13 14
3 15 16 17
3 18 19 20
3 21 22 23
3 24 25 26
3 27 28 29
3 30 31 32
3 33 34 35
3 36 37 38
3 8 39 40
3 41 42 43
3 44 36 38
3 45 44 46
3 47 48 49
3 50 51 52
3 53 54 55
3 56 57 58
3 59 60 61
3 62 63 64
3 65 66 67
3 68 69 70
3 71 72 73
3 0 74 1
3 3 75 4
3 76 77 78
3 9 79 10
3 80 81 82
3 18 83 19
3 21 84 22
3 85 86 87
3 88 89 90
3 30 91 31
3 11 10 92
3 36 93 37
3 8 7 39
3 45 46 94
3 95 96 97
3 50 98 51
3 99 100 101
3 102 103 104
3 104 105 106
3 60 107 61
3 61 108 59
3 102 104 106
3 62 109 63
3 110 111 112
3 110 112 113
3 67 114 115
3 116 66 65
3 117 113 112
3 67 115 65
