ply
format ascii 1.0
comment Created by Blender 2.77 (sub 0) - www.blender.org, source file: 'Tomb.blend'
element vertex 104
property float x
property float y
property float z
property float nx
property float ny
property float nz
property uchar red
property uchar green
property uchar blue
element face 52
property list uchar uint vertex_indices
end_header
1.831727 -0.310196 0.650820 0.000000 -0.997892 -0.064897 199 199 199
-2.103923 -0.317593 0.764554 0.000000 -0.997892 -0.064897 199 199 199
-1.962494 -0.310196 0.650820 0.000000 -0.997892 -0.064897 199 199 199
1.831727 0.152463 -0.650820 0.000000 0.997892 0.064897 199 199 199
-2.103923 0.159859 -0.764554 0.000000 0.997892 0.064897 199 199 199
-1.962494 0.152463 -0.650820 0.000000 0.997892 0.064897 199 199 199
-1.962494 0.152463 0.650820 0.000000 0.997892 -0.064897 199 199 199
1.973155 0.159859 0.764554 0.000000 0.997892 -0.064897 199 199 199
1.831727 0.152463 0.650820 0.000000 0.997892 -0.064897 199 199 199
1.831727 -0.310196 -0.650820 -0.052227 -0.998635 0.000000 199 199 199
1.973155 -0.317593 0.764554 -0.052227 -0.998635 0.000000 199 199 199
1.831727 -0.310196 0.650820 -0.052227 -0.998635 0.000000 199 199 199
1.831727 -0.310196 0.650820 0.000000 -1.000000 0.000000 199 199 199
-1.962494 -0.310196 -0.650820 0.000000 -1.000000 0.000000 199 199 199
1.831727 -0.310196 -0.650820 0.000000 -1.000000 0.000000 199 199 199
1.831727 0.688789 0.650820 0.000000 0.853424 0.521217 255 255 255
-1.803205 0.780038 0.501412 0.000000 0.853424 0.521217 255 255 255
-1.962494 0.688789 0.650820 0.000000 0.853424 0.521217 255 255 255
-1.803205 0.780038 0.501412 -1.000000 0.000000 0.000000 199 199 199
-1.803205 0.900838 -0.501412 -1.000000 0.000000 0.000000 199 199 199
-1.803205 0.780038 -0.501412 -1.000000 0.000000 0.000000 199 199 199
-1.962494 0.688789 0.650820 -0.497069 0.867711 0.000000 255 255 255
-1.803205 0.780038 -0.501412 -0.497069 0.867711 0.000000 255 255 255
-1.962494 0.688789 -0.650820 -0.497069 0.867711 0.000000 255 255 255
1.831727 0.688789 -0.650820 0.497069 0.867711 0.000000 255 255 255
1.672437 0.780038 0.501412 0.497069 0.867711 0.000000 255 255 255
1.831727 0.688789 0.650820 0.497069 0.867711 0.000000 255 255 255
-1.962494 0.688789 -0.650820 0.000000 0.853424 -0.521217 255 255 255
1.672437 0.780038 -0.501412 0.000000 0.853424 -0.521217 255 255 255
1.831727 0.688789 -0.650820 0.000000 0.853424 -0.521217 255 255 255
1.672437 0.780038 -0.501412 1.000000 -0.000000 0.000000 199 199 199
1.672437 0.900838 0.501412 1.000000 -0.000000 0.000000 199 199 199
1.672437 0.780038 0.501412 1.000000 -0.000000 0.000000 199 199 199
-1.803205 0.780038 -0.501412 -0.000000 0.000000 -1.000000 199 199 199
1.672437 0.900838 -0.501412 -0.000000 0.000000 -1.000000 199 199 199
1.672437 0.780038 -0.501412 -0.000000 0.000000 -1.000000 199 199 199
1.672437 0.780038 0.501412 -0.000000 0.000000 1.000000 199 199 199
-1.803205 0.900838 0.501412 -0.000000 0.000000 1.000000 199 199 199
-1.803205 0.780038 0.501412 -0.000000 0.000000 1.000000 199 199 199
1.831727 0.688789 -0.650820 0.000000 0.000000 -1.000000 255 255 255
-1.962494 0.152463 -0.650820 0.000000 0.000000 -1.000000 255 255 255
-1.962494 0.688789 -0.650820 0.000000 0.000000 -1.000000 255 255 255
-1.962494 0.688789 -0.650820 -1.000000 -0.000000 -0.000000 255 255 255
-1.962494 0.152463 0.650820 -1.000000 -0.000000 -0.000000 255 255 255
-1.962494 0.688789 0.650820 -1.000000 -0.000000 -0.000000 255 255 255
-1.962494 0.688789 0.650820 0.000000 0.000000 1.000000 255 255 255
1.831727 0.152463 0.650820 0.000000 0.000000 1.000000 255 255 255
1.831727 0.688789 0.650820 0.000000 0.000000 1.000000 255 255 255
1.831727 0.688789 0.650820 1.000000 0.000000 -0.000000 255 255 255
1.831727 0.152463 -0.650820 1.000000 0.000000 -0.000000 255 255 255
1.831727 0.688789 -0.650820 1.000000 0.000000 -0.000000 255 255 255
1.973155 0.159859 0.764554 1.000000 0.000000 -0.000000 199 199 199
1.973155 -0.317593 -0.764554 1.000000 0.000000 -0.000000 199 199 199
1.973155 0.159859 -0.764554 1.000000 0.000000 -0.000000 199 199 199
-2.103923 0.159859 0.764554 0.000000 0.000000 1.000000 199 199 199
1.973155 -0.317593 0.764554 0.000000 0.000000 1.000000 199 199 199
1.973155 0.159859 0.764554 0.000000 0.000000 1.000000 199 199 199
-2.103923 0.159859 -0.764554 -1.000000 -0.000000 -0.000000 199 199 199
-2.103923 -0.317593 0.764554 -1.000000 -0.000000 -0.000000 199 199 199
-2.103923 0.159859 0.764554 -1.000000 -0.000000 -0.000000 199 199 199
1.973155 0.159859 -0.764554 0.000000 0.000000 -1.000000 199 199 199
-2.103923 -0.317593 -0.764554 0.000000 0.000000 -1.000000 199 199 199
-2.103923 0.159859 -0.764554 0.000000 0.000000 -1.000000 199 199 199
1.831727 0.152463 0.650820 -0.052227 0.998635 0.000000 199 199 199
1.973155 0.159859 -0.764554 -0.052227 0.998635 0.000000 199 199 199
1.831727 0.152463 -0.650820 -0.052227 0.998635 0.000000 199 199 199
-1.962494 0.152463 -0.650820 0.052227 0.998635 0.000000 199 199 199
-2.103923 0.159859 0.764554 0.052227 0.998635 0.000000 199 199 199
-1.962494 0.152463 0.650820 0.052227 0.998635 0.000000 199 199 199
-1.962494 -0.310196 -0.650820 0.000000 -0.997892 0.064897 199 199 199
1.973155 -0.317593 -0.764554 0.000000 -0.997892 0.064897 199 199 199
1.831727 -0.310196 -0.650820 0.000000 -0.997892 0.064897 199 199 199
-1.962494 -0.310196 0.650820 0.052227 -0.998635 0.000000 199 199 199
-2.103923 -0.317593 -0.764554 0.052227 -0.998635 0.000000 199 199 199
-1.962494 -0.310196 -0.650820 0.052227 -0.998635 0.000000 199 199 199
-1.803205 0.900838 -0.501412 0.000000 1.000000 -0.000000 199 199 199
1.672437 0.900838 0.501412 0.000000 1.000000 -0.000000 199 199 199
1.672437 0.900838 -0.501412 0.000000 1.000000 -0.000000 199 199 199
1.973155 -0.317593 0.764554 0.000000 -0.997892 -0.064897 199 199 199
1.973155 0.159859 -0.764554 -0.000000 0.997892 0.064897 199 199 199
-2.103923 0.159859 0.764554 0.000000 0.997892 -0.064897 199 199 199
1.973155 -0.317593 -0.764554 -0.052227 -0.998635 -0.000000 199 199 199
-1.962494 -0.310196 0.650820 0.000000 -1.000000 0.000000 199 199 199
1.672437 0.780038 0.501412 -0.000000 0.853424 0.521217 255 255 255
-1.803205 0.900838 0.501412 -1.000000 0.000000 0.000000 199 199 199
-1.803205 0.780038 0.501412 -0.497069 0.867711 0.000000 255 255 255
1.672437 0.780038 -0.501412 0.497069 0.867711 0.000000 255 255 255
-1.803205 0.780038 -0.501412 0.000000 0.853424 -0.521217 255 255 255
1.672437 0.900838 -0.501412 1.000000 0.000000 0.000000 199 199 199
-1.803205 0.900838 -0.501412 -0.000000 -0.000000 -1.000000 199 199 199
1.672437 0.900838 0.501412 -0.000000 0.000000 1.000000 199 199 199
1.831727 0.152463 -0.650820 0.000000 0.000000 -1.000000 255 255 255
-1.962494 0.152463 -0.650820 -1.000000 0.000000 0.000000 255 255 255
-1.962494 0.152463 0.650820 0.000000 -0.000000 1.000000 255 255 255
1.831727 0.152463 0.650820 1.000000 0.000000 0.000000 255 255 255
1.973155 -0.317593 0.764554 1.000000 0.000000 0.000000 199 199 199
-2.103923 -0.317593 0.764554 0.000000 -0.000000 1.000000 199 199 199
-2.103923 -0.317593 -0.764554 -1.000000 0.000000 0.000000 199 199 199
1.973155 -0.317593 -0.764554 0.000000 0.000000 -1.000000 199 199 199
1.973155 0.159859 0.764554 -0.052227 0.998635 0.000000 199 199 199
-2.103923 0.159859 -0.764554 0.052227 0.998635 0.000000 199 199 199
-2.103923 -0.317593 -0.764554 0.000000 -0.997892 0.064897 199 199 199
-2.103923 -0.317593 0.764554 0.052227 -0.998635 0.000000 199 199 199
-1.803205 0.900838 0.501412 0.000000 1.000000 0.000000 199 199 199
3 0 1 2
3 3 4 5
3 6 7 8
3 9 10 11
3 12 13 14
3 15 16 17
3 18 19 20
3 21 22 23
3 24 25 26
3 27 28 29
3 30 31 32
3 33 34 35
3 36 37 38
3 39 40 41
3 42 43 44
3 45 46 47
3 48 49 50
3 51 52 53
3 54 55 56
3 57 58 59
3 60 61 62
3 63 64 65
3 66 67 68
3 69 70 71
3 72 73 74
3 75 76 77
3 0 78 1
3 3 79 4
3 6 80 7
3 9 81 10
3 12 82 13
3 15 83 16
3 18 84 19
3 21 85 22
3 24 86 25
3 27 87 28
3 30 88 31
3 33 89 34
3 36 90 37
3 39 91 40
3 42 92 43
3 45 93 46
3 48 94 49
3 51 95 52
3 54 96 55
3 57 97 58
3 60 98 61
3 63 99 64
3 66 100 67
3 69 101 70
3 72 102 73
3 75 103 76
