ply
format ascii 1.0
comment Created by Blender 2.77 (sub 0) - www.blender.org, source file: 'Tomb.blend'
element vertex 278
property float x
property float y
property float z
property float nx
property float ny
property float nz
property uchar red
property uchar green
property uchar blue
element face 140
property list uchar uint vertex_indices
end_header
-0.058564 1.820489 -0.434957 0.000000 -0.382683 -0.923879 54 54 54
0.049973 1.521838 -0.311251 0.000000 -0.382683 -0.923879 54 54 54
-0.058564 1.521838 -0.311251 0.000000 -0.382683 -0.923879 54 54 54
0.053260 1.620309 0.187579 0.999674 -0.009774 0.023595 54 54 54
0.049973 1.820489 0.409756 0.999674 -0.009774 0.023595 54 54 54
0.049973 1.521838 0.286051 0.999674 -0.009774 0.023595 54 54 54
0.053260 2.020669 0.187580 0.000000 -0.923880 -0.382682 54 54 54
-0.061851 2.103586 -0.012600 0.000000 -0.923880 -0.382682 54 54 54
0.053260 2.103586 -0.012600 0.000000 -0.923880 -0.382682 54 54 54
-0.058564 1.820489 0.409756 -0.000000 0.382684 0.923879 54 54 54
0.049973 2.119140 0.286051 -0.000000 0.382684 0.923879 54 54 54
-0.058564 2.119140 0.286051 -0.000000 0.382684 0.923879 54 54 54
-0.058564 1.820489 0.409756 -0.999674 0.009774 0.023595 54 54 54
-0.061851 2.020669 0.187580 -0.999674 0.009774 0.023595 54 54 54
-0.061851 1.820489 0.270497 -0.999674 0.009774 0.023595 54 54 54
-0.058564 2.242846 -0.012600 0.000000 0.923880 0.382683 54 54 54
0.049973 2.119140 0.286051 0.000000 0.923880 0.382683 54 54 54
0.049973 2.242846 -0.012600 0.000000 0.923880 0.382683 54 54 54
0.053260 1.820489 0.270497 -0.000000 -0.382684 -0.923879 54 54 54
-0.061851 2.020669 0.187580 -0.000000 -0.382684 -0.923879 54 54 54
0.053260 2.020669 0.187580 -0.000000 -0.382684 -0.923879 54 54 54
-0.061851 2.103586 -0.012600 -0.999674 0.023595 -0.009773 54 54 54
-0.058564 2.119140 -0.311252 -0.999674 0.023595 -0.009773 54 54 54
-0.061851 2.020669 -0.212780 -0.999674 0.023595 -0.009773 54 54 54
-0.058564 1.521838 -0.311251 0.000000 -0.923879 -0.382685 54 54 54
0.049973 1.398132 -0.012600 0.000000 -0.923879 -0.382685 54 54 54
-0.058564 1.398132 -0.012600 0.000000 -0.923879 -0.382685 54 54 54
-0.058564 1.820489 -0.434957 -0.999674 0.009774 -0.023595 54 54 54
-0.061851 2.020669 -0.212780 -0.999674 0.009774 -0.023595 54 54 54
-0.058564 2.119140 -0.311252 -0.999674 0.009774 -0.023595 54 54 54
0.053260 1.620309 0.187579 0.000000 0.382684 -0.923879 54 54 54
-0.061851 1.820489 0.270497 0.000000 0.382684 -0.923879 54 54 54
0.053260 1.820489 0.270497 0.000000 0.382684 -0.923879 54 54 54
0.053260 2.103586 -0.012600 0.999674 0.023595 -0.009773 54 54 54
0.049973 2.119140 -0.311252 0.999674 0.023595 -0.009773 54 54 54
0.049973 2.242846 -0.012600 0.999674 0.023595 -0.009773 54 54 54
-0.058564 2.119140 -0.311252 0.000000 0.923880 -0.382683 54 54 54
0.049973 2.242846 -0.012600 0.000000 0.923880 -0.382683 54 54 54
0.049973 2.119140 -0.311252 0.000000 0.923880 -0.382683 54 54 54
0.053260 2.020669 -0.212780 0.999674 0.009773 -0.023595 54 54 54
0.049973 1.820489 -0.434957 0.999674 0.009773 -0.023595 54 54 54
0.049973 2.119140 -0.311252 0.999674 0.009773 -0.023595 54 54 54
0.053260 1.537392 -0.012600 0.000000 0.923879 -0.382684 54 54 54
-0.061851 1.620309 0.187579 0.000000 0.923879 -0.382684 54 54 54
0.053260 1.620309 0.187579 0.000000 0.923879 -0.382684 54 54 54
-0.058564 1.521838 0.286051 0.000000 -0.923879 0.382685 54 54 54
0.049973 1.398132 -0.012600 0.000000 -0.923879 0.382685 54 54 54
0.049973 1.521838 0.286051 0.000000 -0.923879 0.382685 54 54 54
-0.058564 1.521838 0.286051 0.000000 -0.382684 0.923879 54 54 54
0.049973 1.820489 0.409756 0.000000 -0.382684 0.923879 54 54 54
-0.058564 1.820489 0.409756 0.000000 -0.382684 0.923879 54 54 54
0.053260 1.537392 -0.012600 -0.000000 0.923879 0.382684 54 54 54
-0.061851 1.620309 -0.212780 -0.000000 0.923879 0.382684 54 54 54
-0.061851 1.537392 -0.012600 -0.000000 0.923879 0.382684 54 54 54
-0.061851 1.537392 -0.012600 -0.999674 -0.023595 0.009773 54 54 54
-0.058564 1.521838 0.286051 -0.999674 -0.023595 0.009773 54 54 54
-0.061851 1.620309 0.187579 -0.999674 -0.023595 0.009773 54 54 54
-0.058564 2.119140 -0.311252 0.000000 0.382683 -0.923880 54 54 54
0.049973 1.820489 -0.434957 0.000000 0.382683 -0.923880 54 54 54
-0.058564 1.820489 -0.434957 0.000000 0.382683 -0.923880 54 54 54
-0.058564 1.820489 -0.434957 -0.999674 -0.009774 -0.023595 54 54 54
-0.061851 1.620309 -0.212780 -0.999674 -0.009774 -0.023595 54 54 54
-0.061851 1.820489 -0.295697 -0.999674 -0.009774 -0.023595 54 54 54
0.053260 1.820489 -0.295697 0.000000 0.382683 0.923880 54 54 54
-0.061851 1.620309 -0.212780 0.000000 0.382683 0.923880 54 54 54
0.053260 1.620309 -0.212780 0.000000 0.382683 0.923880 54 54 54
-0.058564 1.521838 -0.311251 -0.999674 -0.023595 -0.009773 54 54 54
-0.061851 1.537392 -0.012600 -0.999674 -0.023595 -0.009773 54 54 54
-0.061851 1.620309 -0.212780 -0.999674 -0.023595 -0.009773 54 54 54
-0.061851 1.620309 0.187579 -0.999674 -0.009774 0.023595 54 54 54
-0.058564 1.820489 0.409756 -0.999674 -0.009774 0.023595 54 54 54
-0.061851 1.820489 0.270497 -0.999674 -0.009774 0.023595 54 54 54
-0.058564 2.119140 0.286051 -0.999674 0.023595 0.009773 54 54 54
-0.061851 2.103586 -0.012600 -0.999674 0.023595 0.009773 54 54 54
-0.061851 2.020669 0.187580 -0.999674 0.023595 0.009773 54 54 54
0.053260 2.020669 -0.212780 0.000000 -0.382683 0.923880 54 54 54
-0.061851 1.820489 -0.295697 0.000000 -0.382683 0.923880 54 54 54
0.053260 1.820489 -0.295697 0.000000 -0.382683 0.923880 54 54 54
0.053260 2.020669 0.187580 0.999674 0.009773 0.023595 54 54 54
0.049973 1.820489 0.409756 0.999674 0.009773 0.023595 54 54 54
0.053260 1.820489 0.270497 0.999674 0.009773 0.023595 54 54 54
0.053260 1.537392 -0.012600 0.999674 -0.023595 0.009773 54 54 54
0.049973 1.521838 0.286051 0.999674 -0.023595 0.009773 54 54 54
0.049973 1.398132 -0.012600 0.999674 -0.023595 0.009773 54 54 54
0.049973 1.820489 -0.434957 0.999674 -0.009774 -0.023595 54 54 54
0.053260 1.620309 -0.212780 0.999674 -0.009774 -0.023595 54 54 54
0.049973 1.521838 -0.311251 0.999674 -0.009774 -0.023595 54 54 54
0.053260 2.103586 -0.012600 0.000000 -0.923880 0.382681 54 54 54
-0.061851 2.020669 -0.212780 0.000000 -0.923880 0.382681 54 54 54
0.053260 2.020669 -0.212780 0.000000 -0.923880 0.382681 54 54 54
0.049973 1.521838 -0.311251 0.999674 -0.023595 -0.009773 54 54 54
0.053260 1.537392 -0.012600 0.999674 -0.023595 -0.009773 54 54 54
0.049973 1.398132 -0.012600 0.999674 -0.023595 -0.009773 54 54 54
0.465888 0.276677 0.530022 1.000000 0.000000 -0.000000 186 186 186
0.465888 0.001183 -0.530022 1.000000 0.000000 -0.000000 186 186 186
0.465888 0.276677 -0.530022 1.000000 0.000000 -0.000000 186 186 186
-0.465888 0.276677 0.530022 0.000000 0.000000 1.000000 186 186 186
0.465888 0.001183 0.530022 0.000000 0.000000 1.000000 186 186 186
0.465888 0.276677 0.530022 0.000000 0.000000 1.000000 186 186 186
-0.465888 0.276677 -0.530022 -1.000000 -0.000000 -0.000000 186 186 186
-0.465888 0.001183 0.530022 -1.000000 -0.000000 -0.000000 186 186 186
-0.465888 0.276677 0.530022 -1.000000 -0.000000 -0.000000 186 186 186
0.465888 0.276677 -0.530022 0.000000 0.000000 -1.000000 186 186 186
-0.465888 0.001183 -0.530022 0.000000 0.000000 -1.000000 186 186 186
-0.465888 0.276677 -0.530022 0.000000 0.000000 -1.000000 186 186 186
0.465888 0.001183 0.530022 0.000000 -1.000000 0.000000 186 186 186
-0.465888 0.001183 -0.530022 0.000000 -1.000000 0.000000 186 186 186
0.465888 0.001183 -0.530022 0.000000 -1.000000 0.000000 186 186 186
-0.465888 0.276677 0.530022 0.135096 0.990832 0.000000 186 186 186
-0.306207 0.254906 -0.348360 0.135096 0.990832 0.000000 186 186 186
-0.465888 0.276677 -0.530022 0.135096 0.990832 0.000000 186 186 186
-0.306207 0.254906 0.348360 -1.000000 0.000000 0.000000 186 186 186
-0.306207 0.466695 -0.348360 -1.000000 0.000000 0.000000 186 186 186
-0.306207 0.254906 -0.348360 -1.000000 0.000000 0.000000 186 186 186
0.465888 0.276677 -0.530022 -0.135096 0.990832 0.000000 186 186 186
0.306207 0.254906 0.348360 -0.135096 0.990832 0.000000 186 186 186
0.465888 0.276677 0.530022 -0.135096 0.990832 0.000000 186 186 186
-0.465888 0.276677 -0.530022 0.000000 0.992895 0.118996 186 186 186
0.306207 0.254906 -0.348360 0.000000 0.992895 0.118996 186 186 186
0.465888 0.276677 -0.530022 0.000000 0.992895 0.118996 186 186 186
0.465888 0.276677 0.530022 0.000000 0.992895 -0.118996 186 186 186
-0.306207 0.254906 0.348360 0.000000 0.992895 -0.118996 186 186 186
-0.465888 0.276677 0.530022 0.000000 0.992895 -0.118996 186 186 186
-0.306207 0.466695 0.348360 -0.014039 0.999901 0.000000 186 186 186
-0.076295 0.469923 -0.087722 -0.014039 0.999901 0.000000 186 186 186
-0.306207 0.466695 -0.348360 -0.014039 0.999901 0.000000 186 186 186
0.306207 0.254906 -0.348360 1.000000 -0.000000 0.000000 186 186 186
0.306207 0.466695 0.348360 1.000000 -0.000000 0.000000 186 186 186
0.306207 0.254906 0.348360 1.000000 -0.000000 0.000000 186 186 186
-0.306207 0.254906 -0.348360 -0.000000 0.000000 -1.000000 186 186 186
0.306207 0.466695 -0.348360 -0.000000 0.000000 -1.000000 186 186 186
0.306207 0.254906 -0.348360 -0.000000 0.000000 -1.000000 186 186 186
0.306207 0.254906 0.348360 -0.000000 0.000000 1.000000 186 186 186
-0.306207 0.466695 0.348360 -0.000000 0.000000 1.000000 186 186 186
-0.306207 0.254906 0.348360 -0.000000 0.000000 1.000000 186 186 186
-0.076295 1.877403 -0.087722 -0.000000 0.000000 -1.000000 54 54 54
0.076295 2.386691 -0.087722 -0.000000 0.000000 -1.000000 54 54 54
0.076295 1.877403 -0.087722 -0.000000 0.000000 -1.000000 54 54 54
0.306207 0.466695 -0.348360 0.014039 0.999901 0.000000 186 186 186
0.076295 0.469923 0.087722 0.014039 0.999901 0.000000 186 186 186
0.306207 0.466695 0.348360 0.014039 0.999901 0.000000 186 186 186
-0.306207 0.466695 -0.348360 0.000000 0.999923 -0.012385 186 186 186
0.076295 0.469923 -0.087722 0.000000 0.999923 -0.012385 186 186 186
0.306207 0.466695 -0.348360 0.000000 0.999923 -0.012385 186 186 186
0.306207 0.466695 0.348360 0.000000 0.999923 0.012385 186 186 186
-0.076295 0.469923 0.087722 0.000000 0.999923 0.012385 186 186 186
-0.306207 0.466695 0.348360 0.000000 0.999923 0.012385 186 186 186
-0.076295 2.386691 0.087722 0.000000 1.000000 -0.000000 54 54 54
0.076295 2.386691 -0.087722 0.000000 1.000000 -0.000000 54 54 54
-0.076295 2.386691 -0.087722 0.000000 1.000000 -0.000000 54 54 54
0.076295 1.877403 0.087722 -0.000000 0.000000 1.000000 54 54 54
-0.076295 2.386691 0.087722 -0.000000 0.000000 1.000000 54 54 54
-0.076295 1.877403 0.087722 -0.000000 0.000000 1.000000 54 54 54
-0.076295 1.877403 0.087722 -1.000000 0.000000 0.000000 54 54 54
-0.076295 2.386691 -0.087722 -1.000000 0.000000 0.000000 54 54 54
-0.076295 1.877403 -0.087722 -1.000000 0.000000 0.000000 54 54 54
0.076295 1.877403 -0.087722 1.000000 -0.000000 0.000000 54 54 54
0.076295 2.386691 0.087722 1.000000 -0.000000 0.000000 54 54 54
0.076295 1.877403 0.087722 1.000000 -0.000000 0.000000 54 54 54
0.076295 0.469923 -0.087722 1.000000 -0.000000 0.000000 54 54 54
0.076295 1.729860 0.087722 1.000000 -0.000000 0.000000 54 54 54
0.076295 0.469923 0.087722 1.000000 -0.000000 0.000000 54 54 54
0.076295 1.729860 -0.087722 1.000000 -0.000000 0.000000 54 54 54
-0.076295 0.469923 0.087722 -1.000000 0.000000 0.000000 54 54 54
-0.076295 1.729860 -0.087722 -1.000000 0.000000 0.000000 54 54 54
-0.076295 0.469923 -0.087722 -1.000000 0.000000 0.000000 54 54 54
-0.076295 1.729860 0.087722 -1.000000 0.000000 0.000000 54 54 54
0.076295 0.469923 0.087722 -0.000000 0.000000 1.000000 54 54 54
-0.076295 1.729860 0.087722 -0.000000 0.000000 1.000000 54 54 54
-0.076295 0.469923 0.087722 -0.000000 0.000000 1.000000 54 54 54
-0.076295 0.469923 -0.087722 -0.000000 0.000000 -1.000000 54 54 54
0.076295 1.729860 -0.087722 -0.000000 0.000000 -1.000000 54 54 54
0.076295 0.469923 -0.087722 -0.000000 0.000000 -1.000000 54 54 54
0.076295 1.729860 0.535527 -0.000000 0.000000 1.000000 54 54 54
-0.076295 1.877403 0.535527 -0.000000 0.000000 1.000000 54 54 54
-0.076295 1.729860 0.535527 -0.000000 0.000000 1.000000 54 54 54
0.076295 1.729860 0.535527 0.000000 -1.000000 0.000000 54 54 54
-0.076295 1.729860 0.087722 0.000000 -1.000000 0.000000 54 54 54
0.076295 1.729860 0.087722 0.000000 -1.000000 0.000000 54 54 54
0.076295 1.877403 0.535527 1.000000 0.000000 -0.000000 54 54 54
-0.076295 1.877403 0.535527 0.000000 1.000000 -0.000000 54 54 54
0.076295 1.877403 0.087722 0.000000 1.000000 -0.000000 54 54 54
-0.076295 1.877403 0.087722 0.000000 1.000000 -0.000000 54 54 54
-0.076295 1.729860 0.535527 -1.000000 0.000000 0.000000 54 54 54
-0.076295 1.729860 -0.535527 -0.000000 0.000000 -1.000000 54 54 54
0.076295 1.877403 -0.535527 -0.000000 0.000000 -1.000000 54 54 54
0.076295 1.729860 -0.535527 -0.000000 0.000000 -1.000000 54 54 54
-0.076295 1.729860 -0.535527 0.000000 -1.000000 -0.000000 54 54 54
0.076295 1.729860 -0.087722 0.000000 -1.000000 -0.000000 54 54 54
-0.076295 1.729860 -0.087722 0.000000 -1.000000 -0.000000 54 54 54
-0.076295 1.877403 -0.535527 -1.000000 -0.000000 -0.000000 54 54 54
0.076295 1.877403 -0.535527 0.000000 1.000000 0.000000 54 54 54
-0.076295 1.877403 -0.087722 0.000000 1.000000 0.000000 54 54 54
0.076295 1.877403 -0.087722 0.000000 1.000000 0.000000 54 54 54
0.076295 1.729860 -0.535527 1.000000 -0.000000 0.000000 54 54 54
0.053260 2.103586 -0.012600 0.999674 0.023595 0.009773 54 54 54
0.049973 2.119140 0.286051 0.999674 0.023595 0.009773 54 54 54
0.053260 2.020669 0.187580 0.999674 0.023595 0.009773 54 54 54
0.049973 1.820489 -0.434957 -0.000000 -0.382683 -0.923879 54 54 54
0.053260 1.620309 0.187579 0.999674 -0.009773 0.023595 54 54 54
0.053260 1.820489 0.270497 0.999674 -0.009773 0.023595 54 54 54
0.049973 1.820489 0.409756 0.999674 -0.009773 0.023595 54 54 54
-0.061851 2.020669 0.187580 0.000000 -0.923880 -0.382682 54 54 54
0.049973 1.820489 0.409756 0.000000 0.382684 0.923879 54 54 54
-0.058564 1.820489 0.409756 -0.999674 0.009773 0.023595 54 54 54
-0.058564 2.119140 0.286051 -0.999674 0.009773 0.023595 54 54 54
-0.061851 2.020669 0.187580 -0.999674 0.009773 0.023595 54 54 54
-0.058564 2.119140 0.286051 0.000000 0.923880 0.382683 54 54 54
-0.061851 1.820489 0.270497 0.000000 -0.382684 -0.923879 54 54 54
-0.058564 2.242846 -0.012600 -0.999674 0.023595 -0.009773 54 54 54
0.049973 1.521838 -0.311251 -0.000000 -0.923879 -0.382685 54 54 54
-0.061851 1.820489 -0.295697 -0.999674 0.009774 -0.023595 54 54 54
-0.061851 1.620309 0.187579 0.000000 0.382684 -0.923879 54 54 54
0.053260 2.020669 -0.212780 0.999674 0.023595 -0.009773 54 54 54
-0.058564 2.242846 -0.012600 0.000000 0.923880 -0.382683 54 54 54
0.053260 1.820489 -0.295697 0.999674 0.009773 -0.023595 54 54 54
-0.061851 1.537392 -0.012600 0.000000 0.923879 -0.382684 54 54 54
-0.058564 1.398132 -0.012600 -0.000000 -0.923879 0.382685 54 54 54
0.049973 1.521838 0.286051 0.000000 -0.382684 0.923879 54 54 54
0.053260 1.620309 -0.212780 -0.000000 0.923879 0.382684 54 54 54
-0.058564 1.398132 -0.012600 -0.999674 -0.023595 0.009773 54 54 54
0.049973 2.119140 -0.311252 0.000000 0.382683 -0.923880 54 54 54
-0.058564 1.820489 -0.434957 -0.999674 -0.009773 -0.023595 54 54 54
-0.058564 1.521838 -0.311251 -0.999674 -0.009773 -0.023595 54 54 54
-0.061851 1.620309 -0.212780 -0.999674 -0.009773 -0.023595 54 54 54
-0.061851 1.820489 -0.295697 -0.000000 0.382683 0.923880 54 54 54
-0.058564 1.398132 -0.012600 -0.999674 -0.023595 -0.009773 54 54 54
-0.061851 1.620309 0.187579 -0.999674 -0.009773 0.023595 54 54 54
-0.058564 1.521838 0.286051 -0.999674 -0.009773 0.023595 54 54 54
-0.058564 1.820489 0.409756 -0.999674 -0.009773 0.023595 54 54 54
-0.058564 2.242846 -0.012600 -0.999674 0.023595 0.009773 54 54 54
-0.061851 2.020669 -0.212780 0.000000 -0.382683 0.923880 54 54 54
0.049973 2.119140 0.286051 0.999674 0.009773 0.023595 54 54 54
0.053260 1.537392 -0.012600 0.999674 -0.023596 0.009773 54 54 54
0.053260 1.620309 0.187579 0.999674 -0.023596 0.009773 54 54 54
0.049973 1.521838 0.286051 0.999674 -0.023596 0.009773 54 54 54
0.049973 1.820489 -0.434957 0.999674 -0.009773 -0.023595 54 54 54
0.053260 1.820489 -0.295697 0.999674 -0.009773 -0.023595 54 54 54
0.053260 1.620309 -0.212780 0.999674 -0.009773 -0.023595 54 54 54
-0.061851 2.103586 -0.012600 -0.000000 -0.923880 0.382681 54 54 54
0.049973 1.521838 -0.311251 0.999674 -0.023596 -0.009773 54 54 54
0.053260 1.620309 -0.212780 0.999674 -0.023596 -0.009773 54 54 54
0.053260 1.537392 -0.012600 0.999674 -0.023596 -0.009773 54 54 54
0.465888 0.001183 0.530022 1.000000 0.000000 0.000000 186 186 186
-0.465888 0.001183 0.530022 0.000000 -0.000000 1.000000 186 186 186
-0.465888 0.001183 -0.530022 -1.000000 0.000000 0.000000 186 186 186
0.465888 0.001183 -0.530022 0.000000 0.000000 -1.000000 186 186 186
-0.465888 0.001183 0.530022 0.000000 -1.000000 0.000000 186 186 186
-0.306207 0.254906 0.348360 0.135096 0.990832 -0.000000 186 186 186
-0.306207 0.466695 0.348360 -1.000000 0.000000 0.000000 186 186 186
0.306207 0.254906 -0.348360 -0.135096 0.990832 0.000000 186 186 186
-0.306207 0.254906 -0.348360 0.000000 0.992895 0.118996 186 186 186
0.306207 0.254906 0.348360 0.000000 0.992895 -0.118996 186 186 186
-0.076295 0.469923 0.087722 -0.014039 0.999901 0.000000 186 186 186
0.306207 0.466695 -0.348360 1.000000 0.000000 0.000000 186 186 186
-0.306207 0.466695 -0.348360 -0.000000 -0.000000 -1.000000 186 186 186
0.306207 0.466695 0.348360 -0.000000 0.000000 1.000000 186 186 186
-0.076295 2.386691 -0.087722 -0.000000 -0.000000 -1.000000 54 54 54
0.076295 0.469923 -0.087722 0.014039 0.999901 0.000000 186 186 186
-0.076295 0.469923 -0.087722 0.000000 0.999923 -0.012385 186 186 186
0.076295 0.469923 0.087722 -0.000000 0.999923 0.012385 186 186 186
0.076295 2.386691 0.087722 0.000000 1.000000 -0.000000 54 54 54
0.076295 2.386691 0.087722 -0.000000 0.000000 1.000000 54 54 54
-0.076295 2.386691 0.087722 -1.000000 0.000000 0.000000 54 54 54
0.076295 2.386691 -0.087722 1.000000 0.000000 0.000000 54 54 54
0.076295 1.729860 0.087722 -0.000000 0.000000 1.000000 54 54 54
-0.076295 1.729860 -0.087722 -0.000000 -0.000000 -1.000000 54 54 54
0.076295 1.877403 0.535527 -0.000000 0.000000 1.000000 54 54 54
-0.076295 1.729860 0.535527 0.000000 -1.000000 0.000000 54 54 54
0.076295 1.729860 0.535527 1.000000 0.000000 0.000000 54 54 54
0.076295 1.877403 0.535527 0.000000 1.000000 -0.000000 54 54 54
-0.076295 1.877403 0.535527 -1.000000 0.000000 0.000000 54 54 54
-0.076295 1.877403 -0.535527 -0.000000 -0.000000 -1.000000 54 54 54
0.076295 1.729860 -0.535527 -0.000000 -1.000000 -0.000000 54 54 54
-0.076295 1.729860 -0.535527 -1.000000 0.000000 0.000000 54 54 54
-0.076295 1.877403 -0.535527 -0.000000 1.000000 0.000000 54 54 54
0.076295 1.877403 -0.535527 1.000000 0.000000 0.000000 54 54 54
0.049973 2.242846 -0.012600 0.999674 0.023595 0.009773 54 54 54
3 0 1 2
3 3 4 5
3 6 7 8
3 9 10 11
3 12 13 14
3 15 16 17
3 18 19 20
3 21 22 23
3 24 25 26
3 27 28 29
3 30 31 32
3 33 34 35
3 36 37 38
3 39 40 41
3 42 43 44
3 45 46 47
3 48 49 50
3 51 52 53
3 54 55 56
3 57 58 59
3 60 61 62
3 63 64 65
3 66 67 68
3 69 70 71
3 72 73 74
3 75 76 77
3 78 79 80
3 81 82 83
3 84 85 86
3 87 88 89
3 90 91 92
3 93 94 95
3 96 97 98
3 99 100 101
3 102 103 104
3 105 106 107
3 108 109 110
3 111 112 113
3 114 115 116
3 117 118 119
3 120 121 122
3 123 124 125
3 126 127 128
3 129 130 131
3 132 133 134
3 135 136 137
3 138 139 140
3 141 142 143
3 144 145 146
3 147 148 149
3 150 151 152
3 153 154 155
3 156 157 158
3 159 160 161
3 162 158 160
3 163 164 165
3 166 155 164
3 167 168 169
3 170 171 172
3 173 174 175
3 176 177 178
3 179 160 158
3 180 181 182
3 183 153 166
3 184 185 186
3 187 188 189
3 190 164 155
3 191 192 193
3 194 156 162
3 195 196 197
3 0 198 1
3 199 200 201
3 6 202 7
3 9 203 10
3 204 205 206
3 15 207 16
3 18 208 19
3 21 209 22
3 24 210 25
3 27 211 28
3 30 212 31
3 33 213 34
3 36 214 37
3 39 215 40
3 42 216 43
3 45 217 46
3 48 218 49
3 51 219 52
3 54 220 55
3 57 221 58
3 222 223 224
3 63 225 64
3 66 226 67
3 227 228 229
3 72 230 73
3 75 231 76
3 78 232 79
3 233 234 235
3 236 237 238
3 87 239 88
3 240 241 242
3 93 243 94
3 96 244 97
3 99 245 100
3 102 246 103
3 105 247 106
3 108 248 109
3 111 249 112
3 114 250 115
3 117 251 118
3 120 252 121
3 123 253 124
3 126 254 127
3 129 255 130
3 132 256 133
3 135 257 136
3 138 258 139
3 141 259 142
3 144 260 145
3 147 261 148
3 150 262 151
3 153 263 154
3 156 264 157
3 159 162 160
3 162 156 158
3 163 166 164
3 166 153 155
3 167 265 168
3 170 266 171
3 173 267 174
3 176 268 177
3 179 269 160
3 180 270 181
3 183 271 153
3 184 272 185
3 187 273 188
3 190 274 164
3 191 275 192
3 194 276 156
3 195 277 196
