ply
format ascii 1.0
comment Created by Blender 2.77 (sub 0) - www.blender.org, source file: 'Sword.blend'
element vertex 77
property float x
property float y
property float z
property float nx
property float ny
property float nz
property uchar red
property uchar green
property uchar blue
element face 44
property list uchar uint vertex_indices
end_header
0.064752 0.000001 0.004960 0.967707 0.000000 0.252079 0 0 0
0.051888 -0.230840 0.054346 0.967707 0.000000 0.252079 0 0 0
0.064752 -0.230840 0.004960 0.967707 0.000000 0.252079 0 0 0
0.002502 0.000001 0.068906 -0.282788 0.000000 0.959182 0 0 0
-0.046884 -0.230840 0.054346 -0.282788 0.000000 0.959182 0 0 0
0.002502 -0.230840 0.068906 -0.282788 0.000000 0.959182 0 0 0
-0.059749 0.000001 0.004960 -0.967707 0.000000 -0.252079 0 0 0
-0.046884 -0.230840 -0.044426 -0.967707 0.000000 -0.252079 0 0 0
-0.059749 -0.230840 0.004960 -0.967707 0.000000 -0.252079 0 0 0
0.002502 0.000001 -0.058986 0.282788 0.000000 -0.959182 0 0 0
0.051888 -0.230840 -0.044426 0.282788 0.000000 -0.959182 0 0 0
0.002502 -0.230840 -0.058986 0.282788 0.000000 -0.959182 0 0 0
0.002502 -0.230840 0.004960 0.000000 -1.000000 0.000000 0 0 0
-0.046884 -0.230840 -0.044426 0.000000 -1.000000 0.000000 0 0 0
0.002502 -0.230840 -0.058986 0.000000 -1.000000 0.000000 0 0 0
0.002502 0.000001 0.004960 -0.000001 1.000000 0.000000 0 0 0
0.051888 0.000001 -0.044426 -0.000001 1.000000 0.000000 0 0 0
0.002502 0.000001 -0.058986 -0.000001 1.000000 0.000000 0 0 0
0.051888 0.000001 0.054346 -0.000001 1.000000 0.000000 0 0 0
0.002502 0.000001 0.068906 -0.000001 1.000000 0.000000 0 0 0
-0.046884 -0.230840 0.054346 -0.000000 -1.000000 -0.000000 0 0 0
0.002502 -0.230840 0.068906 -0.000000 -1.000000 -0.000000 0 0 0
-0.046884 0.000001 0.054346 -0.967707 0.000000 0.252079 0 0 0
-0.059749 -0.230840 0.004960 -0.967707 0.000000 0.252079 0 0 0
-0.046884 -0.230840 0.054346 -0.967707 0.000000 0.252079 0 0 0
0.051888 0.000001 -0.044426 0.967707 0.000000 -0.252079 0 0 0
0.064752 -0.230840 0.004960 0.967707 0.000000 -0.252079 0 0 0
0.051888 -0.230840 -0.044426 0.967707 0.000000 -0.252079 0 0 0
0.051888 -0.230840 0.054346 0.000000 -1.000000 0.000000 0 0 0
0.064752 -0.230840 0.004960 0.000000 -1.000000 0.000000 0 0 0
-0.046884 0.000001 0.054346 0.000001 1.000000 -0.000000 0 0 0
0.002502 0.000001 0.004960 0.000001 1.000000 -0.000000 0 0 0
-0.059749 0.000001 0.004960 0.000001 1.000000 -0.000000 0 0 0
-0.046884 0.000001 -0.044426 0.000001 1.000000 0.000000 0 0 0
0.051888 -0.230840 -0.044426 -0.000000 -1.000000 0.000000 0 0 0
-0.046884 -0.230840 -0.044426 -0.282788 0.000000 -0.959182 0 0 0
0.002502 0.000001 -0.058986 -0.282788 0.000000 -0.959182 0 0 0
0.002502 -0.230840 -0.058986 -0.282788 0.000000 -0.959182 0 0 0
0.051888 -0.230840 0.054346 0.282788 -0.000000 0.959182 0 0 0
0.002502 0.000001 0.068906 0.282788 -0.000000 0.959182 0 0 0
0.002502 -0.230840 0.068906 0.282788 -0.000000 0.959182 0 0 0
0.078633 -0.174950 0.079784 1.000000 0.000000 -0.000000 51 51 51
0.078633 -0.326693 -0.071960 1.000000 0.000000 -0.000000 51 51 51
0.078633 -0.174950 -0.071960 1.000000 0.000000 -0.000000 51 51 51
-0.073110 -0.174950 0.079784 0.000000 0.000000 1.000000 51 51 51
0.078633 -0.326693 0.079784 0.000000 0.000000 1.000000 51 51 51
0.078633 -0.174950 0.079784 0.000000 0.000000 1.000000 51 51 51
-0.073110 -0.174950 -0.071960 -1.000000 -0.000000 -0.000000 51 51 51
-0.073110 -0.326693 0.079784 -1.000000 -0.000000 -0.000000 51 51 51
-0.073110 -0.174950 0.079784 -1.000000 -0.000000 -0.000000 51 51 51
0.078633 -0.174950 -0.071960 0.000000 0.000000 -1.000000 51 51 51
-0.073110 -0.326693 -0.071960 0.000000 0.000000 -1.000000 51 51 51
-0.073110 -0.174950 -0.071960 0.000000 0.000000 -1.000000 51 51 51
0.078633 -0.326693 0.079784 0.000000 -1.000000 0.000000 51 51 51
-0.073110 -0.326693 -0.071960 0.000000 -1.000000 0.000000 51 51 51
0.078633 -0.326693 -0.071960 0.000000 -1.000000 0.000000 51 51 51
-0.073110 -0.174950 0.079784 0.000000 1.000000 -0.000000 51 51 51
0.078633 -0.174950 -0.071960 0.000000 1.000000 -0.000000 51 51 51
-0.073110 -0.174950 -0.071960 0.000000 1.000000 -0.000000 51 51 51
0.051888 0.000001 0.054346 0.967707 -0.000000 0.252079 0 0 0
-0.046884 0.000001 0.054346 -0.282788 0.000000 0.959182 0 0 0
-0.046884 0.000001 -0.044426 -0.967707 0.000000 -0.252079 0 0 0
0.051888 0.000001 -0.044426 0.282788 0.000000 -0.959182 0 0 0
-0.059749 -0.230840 0.004960 0.000000 -1.000000 0.000000 0 0 0
0.064752 0.000001 0.004960 -0.000001 1.000000 0.000000 0 0 0
-0.059749 0.000001 0.004960 -0.967707 0.000000 0.252079 0 0 0
0.064752 0.000001 0.004960 0.967707 0.000000 -0.252079 0 0 0
0.002502 0.000001 0.068906 0.000001 1.000000 -0.000000 0 0 0
0.002502 0.000001 -0.058986 0.000001 1.000000 -0.000000 0 0 0
-0.046884 0.000001 -0.044426 -0.282788 -0.000000 -0.959182 0 0 0
0.051888 0.000001 0.054346 0.282788 0.000000 0.959182 0 0 0
0.078633 -0.326693 0.079784 1.000000 0.000000 0.000000 51 51 51
-0.073110 -0.326693 0.079784 0.000000 -0.000000 1.000000 51 51 51
-0.073110 -0.326693 -0.071960 -1.000000 0.000000 0.000000 51 51 51
0.078633 -0.326693 -0.071960 0.000000 0.000000 -1.000000 51 51 51
-0.073110 -0.326693 0.079784 0.000000 -1.000000 0.000000 51 51 51
0.078633 -0.174950 0.079784 0.000000 1.000000 -0.000000 51 51 51
3 0 1 2
3 3 4 5
3 6 7 8
3 9 10 11
3 12 13 14
3 15 16 17
3 18 15 19
3 20 12 21
3 22 23 24
3 25 26 27
3 28 12 29
3 30 31 32
3 31 33 32
3 12 34 29
3 35 36 37
3 38 39 40
3 41 42 43
3 44 45 46
3 47 48 49
3 50 51 52
3 53 54 55
3 56 57 58
3 0 59 1
3 3 60 4
3 6 61 7
3 9 62 10
3 12 63 13
3 15 64 16
3 18 64 15
3 20 63 12
3 22 65 23
3 25 66 26
3 28 21 12
3 30 67 31
3 31 68 33
3 12 14 34
3 35 69 36
3 38 70 39
3 41 71 42
3 44 72 45
3 47 73 48
3 50 74 51
3 53 75 54
3 56 76 57
