ply
format ascii 1.0
comment Created by Blender 2.77 (sub 0) - www.blender.org, source file: 'Sword.blend'
element vertex 133
property float x
property float y
property float z
property float nx
property float ny
property float nz
property uchar red
property uchar green
property uchar blue
element face 64
property list uchar uint vertex_indices
end_header
0.064752 0.000001 0.004960 0.967707 0.000000 0.252079 0 0 0
0.051888 -0.230840 0.054346 0.967707 0.000000 0.252079 0 0 0
0.064752 -0.230840 0.004960 0.967707 0.000000 0.252079 0 0 0
0.002502 0.000001 0.068906 -0.282788 0.000000 0.959182 0 0 0
-0.046884 -0.230840 0.054346 -0.282788 0.000000 0.959182 0 0 0
0.002502 -0.230840 0.068906 -0.282788 0.000000 0.959182 0 0 0
-0.059749 0.000001 0.004960 -0.967707 0.000000 -0.252079 0 0 0
-0.046884 -0.230840 -0.044426 -0.967707 0.000000 -0.252079 0 0 0
-0.059749 -0.230840 0.004960 -0.967707 0.000000 -0.252079 0 0 0
0.002502 0.000001 -0.058986 0.282788 0.000000 -0.959182 0 0 0
0.051888 -0.230840 -0.044426 0.282788 0.000000 -0.959182 0 0 0
0.002502 -0.230840 -0.058986 0.282788 0.000000 -0.959182 0 0 0
0.002502 -0.230840 0.004960 0.000000 -1.000000 0.000000 0 0 0
-0.046884 -0.230840 -0.044426 0.000000 -1.000000 0.000000 0 0 0
0.002502 -0.230840 -0.058986 0.000000 -1.000000 0.000000 0 0 0
0.002502 0.000001 0.004960 -0.000001 1.000000 0.000000 0 0 0
0.051888 0.000001 -0.044426 -0.000001 1.000000 0.000000 0 0 0
0.002502 0.000001 -0.058986 -0.000001 1.000000 0.000000 0 0 0
0.051888 0.000001 0.054346 -0.000001 1.000000 0.000000 0 0 0
0.002502 0.000001 0.068906 -0.000001 1.000000 0.000000 0 0 0
-0.046884 -0.230840 0.054346 -0.000000 -1.000000 -0.000000 0 0 0
0.002502 -0.230840 0.068906 -0.000000 -1.000000 -0.000000 0 0 0
-0.046884 0.000001 0.054346 -0.967707 0.000000 0.252079 0 0 0
-0.059749 -0.230840 0.004960 -0.967707 0.000000 0.252079 0 0 0
-0.046884 -0.230840 0.054346 -0.967707 0.000000 0.252079 0 0 0
0.051888 0.000001 -0.044426 0.967707 0.000000 -0.252079 0 0 0
0.064752 -0.230840 0.004960 0.967707 0.000000 -0.252079 0 0 0
0.051888 -0.230840 -0.044426 0.967707 0.000000 -0.252079 0 0 0
0.051888 -0.230840 0.054346 0.000000 -1.000000 0.000000 0 0 0
0.064752 -0.230840 0.004960 0.000000 -1.000000 0.000000 0 0 0
-0.046884 0.000001 0.054346 0.000001 1.000000 -0.000000 0 0 0
0.002502 0.000001 0.004960 0.000001 1.000000 -0.000000 0 0 0
-0.059749 0.000001 0.004960 0.000001 1.000000 -0.000000 0 0 0
-0.046884 0.000001 -0.044426 0.000001 1.000000 0.000000 0 0 0
0.051888 -0.230840 -0.044426 -0.000000 -1.000000 0.000000 0 0 0
-0.046884 -0.230840 -0.044426 -0.282788 0.000000 -0.959182 0 0 0
0.002502 0.000001 -0.058986 -0.282788 0.000000 -0.959182 0 0 0
0.002502 -0.230840 -0.058986 -0.282788 0.000000 -0.959182 0 0 0
0.051888 -0.230840 0.054346 0.282788 -0.000000 0.959182 0 0 0
0.002502 0.000001 0.068906 0.282788 -0.000000 0.959182 0 0 0
0.002502 -0.230840 0.068906 0.282788 -0.000000 0.959182 0 0 0
0.067304 -0.225287 0.007225 0.999348 0.032173 -0.016389 51 51 51
0.071677 -0.326028 0.076141 0.999348 0.032173 -0.016389 51 51 51
0.071677 -0.361133 0.007225 0.999348 0.032173 -0.016389 51 51 51
-0.061780 -0.225287 0.094368 0.000000 -0.178042 0.984023 51 51 51
0.071677 -0.326028 0.076141 0.000000 -0.178042 0.984023 51 51 51
0.067304 -0.225287 0.094368 0.000000 -0.178042 0.984023 51 51 51
-0.061780 -0.225287 0.007225 -0.999348 0.032173 0.016389 51 51 51
-0.066154 -0.326028 -0.061690 -0.999348 0.032173 0.016389 51 51 51
-0.066154 -0.361133 0.007225 -0.999348 0.032173 0.016389 51 51 51
0.067304 -0.225287 -0.079917 0.000000 -0.178042 -0.984023 51 51 51
-0.066154 -0.326028 -0.061690 0.000000 -0.178042 -0.984023 51 51 51
-0.061780 -0.225287 -0.079917 0.000000 -0.178042 -0.984023 51 51 51
0.071677 -0.326028 0.076141 0.000000 -0.891054 0.453897 51 51 51
-0.066154 -0.361133 0.007225 0.000000 -0.891054 0.453897 51 51 51
0.071677 -0.361133 0.007225 0.000000 -0.891054 0.453897 51 51 51
-0.066154 -0.188197 0.076141 -0.000000 0.891054 0.453898 51 51 51
0.071677 -0.153092 0.007225 -0.000000 0.891054 0.453898 51 51 51
-0.066154 -0.153092 0.007225 -0.000000 0.891054 0.453898 51 51 51
0.071677 -0.188197 -0.061690 0.000000 0.441058 -0.897479 51 51 51
-0.061780 -0.225287 -0.079917 0.000000 0.441058 -0.897479 51 51 51
-0.066154 -0.188197 -0.061690 0.000000 0.441058 -0.897479 51 51 51
-0.066154 -0.188197 -0.061690 -0.997697 -0.060438 0.030787 51 51 51
-0.061780 -0.225287 0.007225 -0.997697 -0.060438 0.030787 51 51 51
-0.066154 -0.153092 0.007225 -0.997697 -0.060438 0.030787 51 51 51
-0.066154 -0.188197 0.076141 0.000000 0.441058 0.897479 51 51 51
0.067304 -0.225287 0.094368 0.000000 0.441058 0.897479 51 51 51
0.071677 -0.188197 0.076141 0.000000 0.441058 0.897479 51 51 51
0.071677 -0.188197 0.076141 0.997697 -0.060438 -0.030787 51 51 51
0.067304 -0.225287 0.007225 0.997697 -0.060438 -0.030787 51 51 51
0.071677 -0.153092 0.007225 0.997697 -0.060438 -0.030787 51 51 51
0.071677 -0.188197 -0.061690 0.993120 -0.117102 0.000000 51 51 51
0.067304 -0.225287 0.007225 0.993120 -0.117102 0.000000 51 51 51
0.067304 -0.225287 -0.079917 0.993120 -0.117102 0.000000 51 51 51
-0.066154 -0.188197 0.076141 -0.993120 -0.117102 -0.000000 51 51 51
-0.061780 -0.225287 0.007225 -0.993120 -0.117102 -0.000000 51 51 51
-0.061780 -0.225287 0.094368 -0.993120 -0.117102 -0.000000 51 51 51
-0.066154 -0.153092 0.007225 0.000000 0.891054 -0.453898 51 51 51
0.071677 -0.188197 -0.061690 0.000000 0.891054 -0.453898 51 51 51
-0.066154 -0.188197 -0.061690 0.000000 0.891054 -0.453898 51 51 51
0.071677 -0.361133 0.007225 -0.000000 -0.891054 -0.453897 51 51 51
-0.066154 -0.326028 -0.061690 -0.000000 -0.891054 -0.453897 51 51 51
0.071677 -0.326028 -0.061690 -0.000000 -0.891054 -0.453897 51 51 51
-0.061780 -0.225287 0.007225 -0.999059 0.043371 0.000000 51 51 51
-0.066154 -0.326028 0.076141 -0.999059 0.043371 0.000000 51 51 51
-0.061780 -0.225287 0.094368 -0.999059 0.043371 0.000000 51 51 51
0.067304 -0.225287 0.007225 0.999059 0.043371 -0.000000 51 51 51
0.071677 -0.326028 -0.061690 0.999059 0.043371 -0.000000 51 51 51
0.067304 -0.225287 -0.079917 0.999059 0.043371 -0.000000 51 51 51
0.051888 0.000001 0.054346 0.967707 -0.000000 0.252079 0 0 0
-0.046884 0.000001 0.054346 -0.282788 0.000000 0.959182 0 0 0
-0.046884 0.000001 -0.044426 -0.967707 0.000000 -0.252079 0 0 0
0.051888 0.000001 -0.044426 0.282788 0.000000 -0.959182 0 0 0
-0.059749 -0.230840 0.004960 0.000000 -1.000000 0.000000 0 0 0
0.064752 0.000001 0.004960 -0.000001 1.000000 0.000000 0 0 0
-0.059749 0.000001 0.004960 -0.967707 0.000000 0.252079 0 0 0
0.064752 0.000001 0.004960 0.967707 0.000000 -0.252079 0 0 0
0.002502 0.000001 0.068906 0.000001 1.000000 -0.000000 0 0 0
0.002502 0.000001 -0.058986 0.000001 1.000000 -0.000000 0 0 0
-0.046884 0.000001 -0.044426 -0.282788 -0.000000 -0.959182 0 0 0
0.051888 0.000001 0.054346 0.282788 0.000000 0.959182 0 0 0
0.067304 -0.225287 0.094368 0.999059 0.043371 0.000000 51 51 51
0.071677 -0.326028 0.076141 0.999059 0.043371 0.000000 51 51 51
-0.066154 -0.326028 0.076141 0.000000 -0.178042 0.984023 51 51 51
-0.061780 -0.225287 -0.079917 -0.999059 0.043371 -0.000000 51 51 51
-0.066154 -0.326028 -0.061690 -0.999059 0.043371 -0.000000 51 51 51
0.071677 -0.326028 -0.061690 0.000000 -0.178042 -0.984023 51 51 51
-0.066154 -0.326028 0.076141 0.000000 -0.891054 0.453897 51 51 51
0.071677 -0.188197 0.076141 0.000000 0.891054 0.453898 51 51 51
0.071677 -0.188197 -0.061690 0.000000 0.441057 -0.897479 51 51 51
0.067304 -0.225287 -0.079917 0.000000 0.441057 -0.897479 51 51 51
-0.061780 -0.225287 -0.079917 0.000000 0.441057 -0.897479 51 51 51
-0.066154 -0.188197 -0.061690 -0.993120 -0.117102 0.000000 51 51 51
-0.061780 -0.225287 -0.079917 -0.993120 -0.117102 0.000000 51 51 51
-0.066154 -0.188197 0.076141 0.000000 0.441057 0.897479 51 51 51
-0.061780 -0.225287 0.094368 0.000000 0.441057 0.897479 51 51 51
0.067304 -0.225287 0.094368 0.000000 0.441057 0.897479 51 51 51
0.071677 -0.188197 0.076141 0.993120 -0.117102 -0.000000 51 51 51
0.067304 -0.225287 0.094368 0.993120 -0.117102 -0.000000 51 51 51
0.071677 -0.188197 -0.061690 0.997697 -0.060438 0.030787 51 51 51
0.071677 -0.153092 0.007225 0.997697 -0.060438 0.030787 51 51 51
0.067304 -0.225287 0.007225 0.997697 -0.060438 0.030787 51 51 51
-0.066154 -0.188197 0.076141 -0.997697 -0.060438 -0.030787 51 51 51
-0.066154 -0.153092 0.007225 -0.997697 -0.060438 -0.030787 51 51 51
-0.061780 -0.225287 0.007225 -0.997697 -0.060438 -0.030787 51 51 51
0.071677 -0.153092 0.007225 0.000000 0.891054 -0.453898 51 51 51
-0.066154 -0.361133 0.007225 0.000000 -0.891054 -0.453897 51 51 51
-0.061780 -0.225287 0.007225 -0.999348 0.032173 -0.016389 51 51 51
-0.066154 -0.361133 0.007225 -0.999348 0.032173 -0.016389 51 51 51
-0.066154 -0.326028 0.076141 -0.999348 0.032173 -0.016389 51 51 51
0.067304 -0.225287 0.007225 0.999348 0.032173 0.016389 51 51 51
0.071677 -0.361133 0.007225 0.999348 0.032173 0.016389 51 51 51
0.071677 -0.326028 -0.061690 0.999348 0.032173 0.016389 51 51 51
3 0 1 2
3 3 4 5
3 6 7 8
3 9 10 11
3 12 13 14
3 15 16 17
3 18 15 19
3 20 12 21
3 22 23 24
3 25 26 27
3 28 12 29
3 30 31 32
3 31 33 32
3 12 34 29
3 35 36 37
3 38 39 40
3 41 42 43
3 44 45 46
3 47 48 49
3 50 51 52
3 53 54 55
3 56 57 58
3 59 60 61
3 62 63 64
3 65 66 67
3 68 69 70
3 71 72 73
3 74 75 76
3 77 78 79
3 80 81 82
3 83 84 85
3 86 87 88
3 0 89 1
3 3 90 4
3 6 91 7
3 9 92 10
3 12 93 13
3 15 94 16
3 18 94 15
3 20 93 12
3 22 95 23
3 25 96 26
3 28 21 12
3 30 97 31
3 31 98 33
3 12 14 34
3 35 99 36
3 38 100 39
3 86 101 102
3 44 103 45
3 83 104 105
3 50 106 51
3 53 107 54
3 56 108 57
3 109 110 111
3 112 113 75
3 114 115 116
3 117 118 72
3 119 120 121
3 122 123 124
3 77 125 78
3 80 126 81
3 127 128 129
3 130 131 132
