ply
format ascii 1.0
comment Created by Blender 2.77 (sub 0) - www.blender.org, source file: 'Sword.blend'
element vertex 76
property float x
property float y
property float z
property float nx
property float ny
property float nz
property uchar red
property uchar green
property uchar blue
element face 36
property list uchar uint vertex_indices
end_header
0.097411 0.029140 0.076577 0.983350 0.000000 0.181722 51 51 51
0.071186 -0.013589 0.218489 0.983350 0.000000 0.181722 51 51 51
0.097411 -0.029140 0.076577 0.983350 0.000000 0.181722 51 51 51
0.099115 0.031505 -0.077401 0.993919 0.000000 -0.110111 51 51 51
0.107720 -0.076020 0.000275 0.993919 0.000000 -0.110111 51 51 51
0.099115 -0.031505 -0.077401 0.993919 0.000000 -0.110111 51 51 51
-0.099115 0.031505 -0.077401 -0.980820 0.000000 -0.194917 51 51 51
-0.071186 -0.013589 -0.217940 -0.980820 0.000000 -0.194917 51 51 51
-0.099115 -0.031505 -0.077401 -0.980820 0.000000 -0.194917 51 51 51
-0.071186 0.013589 -0.217940 0.000000 0.000000 -1.000000 51 51 51
0.071186 -0.013589 -0.217940 0.000000 0.000000 -1.000000 51 51 51
-0.071186 -0.013589 -0.217940 0.000000 0.000000 -1.000000 51 51 51
-0.099115 -0.031505 -0.077401 0.000000 -0.991973 -0.126454 51 51 51
0.071186 -0.013589 -0.217940 0.000000 -0.991973 -0.126454 51 51 51
0.099115 -0.031505 -0.077401 0.000000 -0.991973 -0.126454 51 51 51
0.099115 0.031505 -0.077401 0.000000 0.991973 -0.126454 51 51 51
-0.071186 0.013589 -0.217940 0.000000 0.991973 -0.126454 51 51 51
-0.099115 0.031505 -0.077401 0.000000 0.991973 -0.126454 51 51 51
-0.097411 0.029140 0.076577 -0.990996 0.000000 0.133893 51 51 51
-0.107720 -0.076020 0.000275 -0.990996 0.000000 0.133893 51 51 51
-0.097411 -0.029140 0.076577 -0.990996 0.000000 0.133893 51 51 51
-0.097411 -0.029140 0.076577 0.000000 -0.852035 0.523485 51 51 51
0.107720 -0.076020 0.000275 0.000000 -0.852035 0.523485 51 51 51
0.097411 -0.029140 0.076577 0.000000 -0.852035 0.523485 51 51 51
0.097411 0.029140 0.076577 0.000000 0.852035 0.523485 51 51 51
-0.107720 0.076020 0.000275 0.000000 0.852035 0.523485 51 51 51
-0.097411 0.029140 0.076577 0.000000 0.852035 0.523485 51 51 51
0.071186 0.013589 0.218489 0.000000 -0.000000 1.000000 51 51 51
-0.071186 -0.013589 0.218489 0.000000 -0.000000 1.000000 51 51 51
0.071186 -0.013589 0.218489 0.000000 -0.000000 1.000000 51 51 51
0.107720 0.076020 0.000275 0.000000 0.867619 -0.497230 51 51 51
-0.099115 0.031505 -0.077401 0.000000 0.867619 -0.497230 51 51 51
-0.107720 0.076020 0.000275 0.000000 0.867619 -0.497230 51 51 51
-0.107720 -0.076020 0.000275 0.000000 -0.867619 -0.497230 51 51 51
0.099115 -0.031505 -0.077401 0.000000 -0.867619 -0.497230 51 51 51
0.107720 -0.076020 0.000275 0.000000 -0.867619 -0.497230 51 51 51
-0.107720 0.076020 0.000275 -0.993919 0.000000 -0.110111 51 51 51
-0.099115 -0.031505 -0.077401 -0.993919 0.000000 -0.110111 51 51 51
-0.107720 -0.076020 0.000275 -0.993919 0.000000 -0.110111 51 51 51
0.071186 0.013589 -0.217940 0.980820 0.000000 -0.194917 51 51 51
0.099115 -0.031505 -0.077401 0.980820 0.000000 -0.194917 51 51 51
0.071186 -0.013589 -0.217940 0.980820 0.000000 -0.194917 51 51 51
0.071186 0.013589 0.218489 0.000000 0.994049 0.108931 51 51 51
-0.097411 0.029140 0.076577 0.000000 0.994049 0.108931 51 51 51
-0.071186 0.013589 0.218489 0.000000 0.994049 0.108931 51 51 51
-0.071186 -0.013589 0.218489 0.000000 -0.994049 0.108931 51 51 51
0.097411 -0.029140 0.076577 0.000000 -0.994049 0.108931 51 51 51
0.071186 -0.013589 0.218489 0.000000 -0.994049 0.108931 51 51 51
-0.071186 0.013589 0.218489 -0.983350 0.000000 0.181722 51 51 51
-0.097411 -0.029140 0.076577 -0.983350 0.000000 0.181722 51 51 51
-0.071186 -0.013589 0.218489 -0.983350 0.000000 0.181722 51 51 51
0.107720 0.076020 0.000275 0.990996 0.000000 0.133894 51 51 51
0.097411 -0.029140 0.076577 0.990996 0.000000 0.133894 51 51 51
0.107720 -0.076020 0.000275 0.990996 0.000000 0.133894 51 51 51
0.071186 0.013589 0.218489 0.983350 -0.000000 0.181722 51 51 51
0.107720 0.076020 0.000275 0.993919 0.000000 -0.110111 51 51 51
-0.071186 0.013589 -0.217940 -0.980820 0.000000 -0.194917 51 51 51
0.071186 0.013589 -0.217940 0.000000 0.000000 -1.000000 51 51 51
-0.071186 -0.013589 -0.217940 -0.000000 -0.991973 -0.126454 51 51 51
0.071186 0.013589 -0.217940 0.000000 0.991973 -0.126454 51 51 51
-0.097411 0.029140 0.076577 -0.990996 0.000000 0.133894 51 51 51
-0.107720 0.076020 0.000275 -0.990996 0.000000 0.133894 51 51 51
-0.107720 -0.076020 0.000275 -0.990996 0.000000 0.133894 51 51 51
-0.107720 -0.076020 0.000275 0.000000 -0.852035 0.523485 51 51 51
0.107720 0.076020 0.000275 -0.000000 0.852035 0.523485 51 51 51
-0.071186 0.013589 0.218489 0.000000 0.000000 1.000000 51 51 51
0.099115 0.031505 -0.077401 0.000000 0.867619 -0.497230 51 51 51
-0.099115 -0.031505 -0.077401 -0.000000 -0.867619 -0.497230 51 51 51
-0.099115 0.031505 -0.077401 -0.993919 0.000000 -0.110111 51 51 51
0.099115 0.031505 -0.077401 0.980820 0.000000 -0.194917 51 51 51
0.097411 0.029140 0.076577 -0.000000 0.994049 0.108931 51 51 51
-0.097411 -0.029140 0.076577 0.000000 -0.994049 0.108931 51 51 51
-0.097411 0.029140 0.076577 -0.983350 0.000000 0.181722 51 51 51
0.107720 0.076020 0.000275 0.990996 -0.000000 0.133893 51 51 51
0.097411 0.029140 0.076577 0.990996 -0.000000 0.133893 51 51 51
0.097411 -0.029140 0.076577 0.990996 -0.000000 0.133893 51 51 51
3 0 1 2
3 3 4 5
3 6 7 8
3 9 10 11
3 12 13 14
3 15 16 17
3 18 19 20
3 21 22 23
3 24 25 26
3 27 28 29
3 30 31 32
3 33 34 35
3 36 37 38
3 39 40 41
3 42 43 44
3 45 46 47
3 48 49 50
3 51 52 53
3 0 54 1
3 3 55 4
3 6 56 7
3 9 57 10
3 12 58 13
3 15 59 16
3 60 61 62
3 21 63 22
3 24 64 25
3 27 65 28
3 30 66 31
3 33 67 34
3 36 68 37
3 39 69 40
3 42 70 43
3 45 71 46
3 48 72 49
3 73 74 75
