ply
format ascii 1.0
comment Created by Blender 2.77 (sub 0) - www.blender.org, source file: 'Sword.blend'
element vertex 40
property float x
property float y
property float z
property float nx
property float ny
property float nz
property uchar red
property uchar green
property uchar blue
element face 20
property list uchar uint vertex_indices
end_header
0.113502 0.075323 0.000000 0.980820 0.000000 0.194917 51 51 51
0.070533 -0.013465 0.216214 0.980820 0.000000 0.194917 51 51 51
0.113502 -0.075323 0.000000 0.980820 0.000000 0.194917 51 51 51
0.070533 0.013465 -0.216214 0.980820 0.000000 -0.194917 51 51 51
0.113502 -0.075323 0.000000 0.980820 0.000000 -0.194917 51 51 51
0.070533 -0.013465 -0.216214 0.980820 0.000000 -0.194917 51 51 51
-0.113502 0.075323 0.000000 -0.980820 0.000000 -0.194917 51 51 51
-0.070533 -0.013465 -0.216214 -0.980820 0.000000 -0.194917 51 51 51
-0.113502 -0.075323 0.000000 -0.980820 0.000000 -0.194917 51 51 51
-0.070533 0.013465 -0.216214 0.000000 0.000000 -1.000000 51 51 51
0.070533 -0.013465 -0.216214 0.000000 0.000000 -1.000000 51 51 51
-0.070533 -0.013465 -0.216214 0.000000 0.000000 -1.000000 51 51 51
-0.113502 -0.075323 0.000000 0.000000 -0.961426 -0.275064 51 51 51
0.070533 -0.013465 -0.216214 0.000000 -0.961426 -0.275064 51 51 51
0.113502 -0.075323 0.000000 0.000000 -0.961426 -0.275064 51 51 51
0.113502 0.075323 0.000000 0.000000 0.961426 -0.275064 51 51 51
-0.070533 0.013465 -0.216214 0.000000 0.961426 -0.275064 51 51 51
-0.113502 0.075323 0.000000 0.000000 0.961426 -0.275064 51 51 51
-0.070533 0.013465 0.216214 -0.980820 0.000000 0.194917 51 51 51
-0.113502 -0.075323 0.000000 -0.980820 0.000000 0.194917 51 51 51
-0.070533 -0.013465 0.216214 -0.980820 0.000000 0.194917 51 51 51
-0.070533 -0.013465 0.216214 0.000000 -0.961426 0.275064 51 51 51
0.113502 -0.075323 0.000000 0.000000 -0.961426 0.275064 51 51 51
0.070533 -0.013465 0.216214 0.000000 -0.961426 0.275064 51 51 51
0.070533 0.013465 0.216214 0.000000 0.961426 0.275064 51 51 51
-0.113502 0.075323 0.000000 0.000000 0.961426 0.275064 51 51 51
-0.070533 0.013465 0.216214 0.000000 0.961426 0.275064 51 51 51
0.070533 0.013465 0.216214 0.000000 -0.000000 1.000000 51 51 51
-0.070533 -0.013465 0.216214 0.000000 -0.000000 1.000000 51 51 51
0.070533 -0.013465 0.216214 0.000000 -0.000000 1.000000 51 51 51
0.070533 0.013465 0.216214 0.980820 -0.000000 0.194917 51 51 51
0.113502 0.075323 0.000000 0.980820 0.000000 -0.194917 51 51 51
-0.070533 0.013465 -0.216214 -0.980820 0.000000 -0.194917 51 51 51
0.070533 0.013465 -0.216214 0.000000 0.000000 -1.000000 51 51 51
-0.070533 -0.013465 -0.216214 -0.000000 -0.961426 -0.275064 51 51 51
0.070533 0.013465 -0.216214 0.000000 0.961426 -0.275064 51 51 51
-0.113502 0.075323 0.000000 -0.980820 0.000000 0.194917 51 51 51
-0.113502 -0.075323 0.000000 0.000000 -0.961426 0.275064 51 51 51
0.113502 0.075323 0.000000 -0.000000 0.961426 0.275064 51 51 51
-0.070533 0.013465 0.216214 0.000000 0.000000 1.000000 51 51 51
3 0 1 2
3 3 4 5
3 6 7 8
3 9 10 11
3 12 13 14
3 15 16 17
3 18 19 20
3 21 22 23
3 24 25 26
3 27 28 29
3 0 30 1
3 3 31 4
3 6 32 7
3 9 33 10
3 12 34 13
3 15 35 16
3 18 36 19
3 21 37 22
3 24 38 25
3 27 39 28
