ply
format ascii 1.0
comment Created by Blender 2.77 (sub 0) - www.blender.org, source file: 'NewPlayer.blend'
element vertex 198
property float x
property float y
property float z
property float nx
property float ny
property float nz
property uchar red
property uchar green
property uchar blue
element face 76
property list uchar uint vertex_indices
end_header
0.000000 0.000000 -0.452794 0.187597 -0.577354 -0.794651 251 184 157
0.327642 -0.238043 -0.202496 0.187597 -0.577354 -0.794651 251 184 157
-0.125146 -0.385165 -0.202496 0.187597 -0.577354 -0.794651 251 184 157
0.327642 -0.238043 -0.202496 0.607065 0.000000 -0.794652 251 184 157
0.000000 0.000000 -0.452794 0.607065 0.000000 -0.794652 251 184 157
0.327642 0.238043 -0.202496 0.607065 0.000000 -0.794652 251 184 157
0.000000 0.000000 -0.452794 0.491123 0.356829 0.794652 251 184 157
-0.404990 0.000000 -0.202496 0.491123 0.356829 0.794652 251 184 157
-0.125146 -0.385165 -0.202496 0.491123 0.356829 0.794652 251 184 157
0.000000 0.000000 -0.452794 0.491123 -0.356829 0.794652 251 184 157
-0.125146 0.385165 -0.202496 0.491123 -0.356829 0.794652 251 184 157
-0.404990 0.000000 -0.202496 0.491123 -0.356829 0.794652 251 184 157
0.000000 0.000000 -0.452794 0.187597 0.577354 -0.794651 251 184 157
-0.125146 0.385165 -0.202496 0.187597 0.577354 -0.794651 251 184 157
0.327642 0.238043 -0.202496 0.187597 0.577354 -0.794651 251 184 157
0.327642 -0.238043 -0.202496 0.982246 0.000000 -0.187596 251 184 157
0.327642 0.238043 -0.202496 0.982246 0.000000 -0.187596 251 184 157
0.404990 0.000000 0.202496 0.982246 0.000000 -0.187596 251 184 157
-0.125146 -0.385165 -0.202496 0.303535 -0.934171 -0.187590 251 184 157
0.327642 -0.238043 -0.202496 0.303535 -0.934171 -0.187590 251 184 157
0.125146 -0.385165 0.202496 0.303535 -0.934171 -0.187590 251 184 157
-0.404990 0.000000 -0.202496 0.794650 0.577358 0.187587 251 184 157
-0.327642 -0.238043 0.202496 0.794650 0.577358 0.187587 251 184 157
-0.125146 -0.385165 -0.202496 0.794650 0.577358 0.187587 251 184 157
-0.125146 0.385165 -0.202496 0.794650 -0.577358 0.187587 251 184 157
-0.327642 0.238043 0.202496 0.794650 -0.577358 0.187587 251 184 157
-0.404990 0.000000 -0.202496 0.794650 -0.577358 0.187587 251 184 157
0.327642 0.238043 -0.202496 0.303535 0.934171 -0.187590 251 184 157
-0.125146 0.385165 -0.202496 0.303535 0.934171 -0.187590 251 184 157
0.125146 0.385165 0.202496 0.303535 0.934171 -0.187590 251 184 157
0.327642 -0.238043 -0.202496 0.794650 -0.577358 0.187587 251 184 157
0.404990 0.000000 0.202496 0.794650 -0.577358 0.187587 251 184 157
0.125146 -0.385165 0.202496 0.794650 -0.577358 0.187587 251 184 157
-0.125146 -0.385165 -0.202496 -0.303535 -0.934171 0.187590 251 184 157
0.125146 -0.385165 0.202496 -0.303535 -0.934171 0.187590 251 184 157
-0.327642 -0.238043 0.202496 -0.303535 -0.934171 0.187590 251 184 157
-0.404990 0.000000 -0.202496 0.982246 0.000000 -0.187596 251 184 157
-0.327642 0.238043 0.202496 0.982246 0.000000 -0.187596 251 184 157
-0.327642 -0.238043 0.202496 0.982246 0.000000 -0.187596 251 184 157
-0.125146 0.385165 -0.202496 0.303535 -0.934171 -0.187590 251 184 157
0.125146 0.385165 0.202496 0.303535 -0.934171 -0.187590 251 184 157
-0.327642 0.238043 0.202496 0.303535 -0.934171 -0.187590 251 184 157
0.327642 0.238043 -0.202496 0.794650 0.577358 0.187587 251 184 157
0.125146 0.385165 0.202496 0.794650 0.577358 0.187587 251 184 157
0.404990 0.000000 0.202496 0.794650 0.577358 0.187587 251 184 157
0.125146 -0.385165 0.202496 0.491123 -0.356829 0.794652 251 184 157
0.404990 0.000000 0.202496 0.491123 -0.356829 0.794652 251 184 157
0.000000 0.000000 0.452794 0.491123 -0.356829 0.794652 251 184 157
-0.327642 -0.238043 0.202496 -0.187597 -0.577354 0.794651 251 184 157
0.125146 -0.385165 0.202496 -0.187597 -0.577354 0.794651 251 184 157
0.000000 0.000000 0.452794 -0.187597 -0.577354 0.794651 251 184 157
-0.327642 0.238043 0.202496 0.607065 0.000000 -0.794652 251 184 157
0.000000 0.000000 0.452794 0.607065 0.000000 -0.794652 251 184 157
-0.327642 -0.238043 0.202496 0.607065 0.000000 -0.794652 251 184 157
0.125146 0.385165 0.202496 0.187597 -0.577354 -0.794651 251 184 157
0.000000 0.000000 0.452794 0.187597 -0.577354 -0.794651 251 184 157
-0.327642 0.238043 0.202496 0.187597 -0.577354 -0.794651 251 184 157
0.404990 0.000000 0.202496 0.491123 0.356829 0.794652 251 184 157
0.125146 0.385165 0.202496 0.491123 0.356829 0.794652 251 184 157
0.000000 0.000000 0.452794 0.491123 0.356829 0.794652 251 184 157
-0.034604 0.011244 -0.484996 -0.491123 -0.356829 -0.794652 255 51 255
-0.168650 -0.401314 -0.216897 -0.491123 -0.356829 -0.794652 255 51 255
-0.468397 0.011244 -0.216897 -0.491123 -0.356829 -0.794652 255 51 255
-0.034604 0.011244 -0.484996 -0.491123 0.356829 -0.794652 255 51 255
-0.468397 0.011244 -0.216897 -0.491123 0.356829 -0.794652 255 51 255
-0.168650 0.423801 -0.216897 -0.491123 0.356829 -0.794652 255 51 255
-0.468397 0.011244 -0.216897 -0.794650 -0.577358 -0.187587 255 51 255
-0.168650 -0.401314 -0.216897 -0.794650 -0.577358 -0.187587 255 51 255
-0.385548 -0.243729 0.216897 -0.794650 -0.577358 -0.187587 255 51 255
-0.168650 0.423801 -0.216897 -0.794650 0.577358 -0.187587 255 51 255
-0.468397 0.011244 -0.216897 -0.794650 0.577358 -0.187587 255 51 255
-0.385548 0.266216 0.216897 -0.794650 0.577358 -0.187587 255 51 255
-0.468397 0.011244 -0.216897 -0.982246 0.000000 0.187596 255 51 255
-0.385548 -0.243729 0.216897 -0.982246 0.000000 0.187596 255 51 255
-0.385548 0.266216 0.216897 -0.982246 0.000000 0.187596 255 51 255
-0.168650 0.423801 -0.216897 -0.303535 0.934171 0.187590 255 51 255
-0.385548 0.266216 0.216897 -0.303535 0.934171 0.187590 255 51 255
0.099442 0.423801 0.216897 -0.303535 0.934171 0.187590 255 51 255
-0.385548 0.266216 0.216897 -0.607065 0.000000 0.794652 255 51 255
-0.385548 -0.243729 0.216897 -0.607065 0.000000 0.794652 255 51 255
-0.034604 0.011244 0.484996 -0.607065 0.000000 0.794652 255 51 255
0.099442 0.423801 0.216897 -0.187597 0.577354 0.794650 255 51 255
-0.385548 0.266216 0.216897 -0.187597 0.577354 0.794650 255 51 255
-0.034604 0.011244 0.484996 -0.187597 0.577354 0.794650 255 51 255
-0.404990 0.000000 -0.202496 0.125900 0.970902 0.203710 251 184 157
-0.034604 0.011244 -0.484996 0.125900 0.970902 0.203710 251 184 157
-0.468397 0.011244 -0.216897 0.125900 0.970902 0.203710 251 184 157
-0.404990 0.000000 -0.202496 -0.039620 -0.864719 -0.500691 251 184 157
-0.385548 -0.243729 0.216897 -0.039620 -0.864719 -0.500691 251 184 157
-0.468397 0.011244 -0.216897 -0.039620 -0.864719 -0.500691 251 184 157
-0.404990 0.000000 -0.202496 0.039619 0.864719 0.500691 251 184 157
-0.385548 -0.243729 0.216897 0.039619 0.864719 0.500691 251 184 157
-0.327642 -0.238043 0.202496 0.039619 0.864719 0.500691 251 184 157
-0.327642 -0.238043 0.202496 0.191195 -0.888011 0.418187 255 51 255
-0.168650 -0.401314 -0.216897 0.191195 -0.888011 0.418187 255 51 255
-0.125146 -0.385165 -0.202496 0.191195 -0.888011 0.418187 255 51 255
-0.327642 0.238043 0.202496 0.241351 0.000000 0.970438 251 184 157
-0.385548 -0.243729 0.216897 0.241351 0.000000 0.970438 251 184 157
-0.327642 -0.238043 0.202496 0.241351 0.000000 0.970438 251 184 157
-0.404990 0.000000 -0.202496 0.248146 0.180292 -0.951797 251 184 157
-0.168650 -0.401314 -0.216897 0.248146 0.180292 -0.951797 251 184 157
-0.468397 0.011244 -0.216897 0.248146 0.180292 -0.951797 251 184 157
-0.404990 0.000000 -0.202496 -0.125900 -0.970902 -0.203710 251 184 157
-0.034604 0.011244 -0.484996 -0.125900 -0.970902 -0.203710 251 184 157
0.000000 0.000000 -0.452794 -0.125900 -0.970902 -0.203710 251 184 157
-0.327642 0.238043 0.202496 -0.476217 -0.722853 -0.500700 251 184 157
-0.168650 0.423801 -0.216897 -0.476217 -0.722853 -0.500700 251 184 157
-0.125146 0.385165 -0.202496 -0.476217 -0.722853 -0.500700 251 184 157
-0.404990 0.000000 -0.202496 -0.262865 -0.809021 0.525724 251 184 157
-0.385548 0.266216 0.216897 -0.262865 -0.809021 0.525724 251 184 157
-0.468397 0.011244 -0.216897 -0.262865 -0.809021 0.525724 251 184 157
-0.404990 0.000000 -0.202496 0.195253 -0.141862 -0.970439 251 184 157
-0.168650 0.423801 -0.216897 0.195253 -0.141862 -0.970439 251 184 157
-0.125146 0.385165 -0.202496 0.195253 -0.141862 -0.970439 251 184 157
-0.327642 -0.238043 0.202496 0.209785 -0.830803 0.515516 255 51 255
-0.034604 0.011244 0.484996 0.209785 -0.830803 0.515516 255 51 255
-0.385548 -0.243729 0.216897 0.209785 -0.830803 0.515516 255 51 255
-0.404990 0.000000 -0.202496 0.262866 0.809021 -0.525724 251 184 157
-0.385548 0.266216 0.216897 0.262866 0.809021 -0.525724 251 184 157
-0.327642 0.238043 0.202496 0.262866 0.809021 -0.525724 251 184 157
-0.327642 0.238043 0.202496 0.094786 -0.291716 0.951797 251 184 157
0.099442 0.423801 0.216897 0.094786 -0.291716 0.951797 251 184 157
-0.385548 0.266216 0.216897 0.094786 -0.291716 0.951797 251 184 157
-0.327642 0.238043 0.202496 -0.241351 -0.000000 -0.970438 251 184 157
-0.385548 -0.243729 0.216897 -0.241351 -0.000000 -0.970438 251 184 157
-0.385548 0.266216 0.216897 -0.241351 -0.000000 -0.970438 251 184 157
-0.327642 0.238043 0.202496 -0.094786 0.291716 -0.951797 251 184 157
0.099442 0.423801 0.216897 -0.094786 0.291716 -0.951797 251 184 157
0.125146 0.385165 0.202496 -0.094786 0.291716 -0.951797 251 184 157
-0.404990 0.000000 -0.202496 -0.195253 0.141862 0.970439 251 184 157
-0.168650 0.423801 -0.216897 -0.195253 0.141862 0.970439 251 184 157
-0.468397 0.011244 -0.216897 -0.195253 0.141862 0.970439 251 184 157
-0.327642 0.238043 0.202496 0.476217 0.722853 0.500700 251 184 157
-0.168650 0.423801 -0.216897 0.476217 0.722853 0.500700 251 184 157
-0.385548 0.266216 0.216897 0.476217 0.722853 0.500700 251 184 157
0.000000 0.000000 -0.452794 0.442228 -0.585315 -0.679588 255 51 255
-0.168650 -0.401314 -0.216897 0.442228 -0.585315 -0.679588 255 51 255
-0.034604 0.011244 -0.484996 0.442228 -0.585315 -0.679588 255 51 255
-0.404990 0.000000 -0.202496 -0.248146 -0.180292 0.951797 251 184 157
-0.168650 -0.401314 -0.216897 -0.248146 -0.180292 0.951797 251 184 157
-0.125146 -0.385165 -0.202496 -0.248146 -0.180292 0.951797 251 184 157
-0.327642 0.238043 0.202496 -0.468827 -0.859481 -0.203701 251 184 157
-0.034604 0.011244 0.484996 -0.468827 -0.859481 -0.203701 251 184 157
-0.385548 0.266216 0.216897 -0.468827 -0.859481 -0.203701 251 184 157
0.000000 0.000000 0.452794 0.701813 0.213596 0.679584 255 51 255
0.099442 0.423801 0.216897 0.701813 0.213596 0.679584 255 51 255
-0.034604 0.011244 0.484996 0.701813 0.213596 0.679584 255 51 255
-0.125146 0.385165 -0.202496 0.676645 0.606035 -0.418178 255 51 255
0.099442 0.423801 0.216897 0.676645 0.606035 -0.418178 255 51 255
0.125146 0.385165 0.202496 0.676645 0.606035 -0.418178 255 51 255
-0.327642 0.238043 0.202496 0.468827 0.859481 0.203701 251 184 157
-0.034604 0.011244 0.484996 0.468827 0.859481 0.203701 251 184 157
0.000000 0.000000 0.452794 0.468827 0.859481 0.203701 251 184 157
-0.125146 0.385165 -0.202496 0.658055 0.548821 -0.515519 255 51 255
-0.034604 0.011244 -0.484996 0.658055 0.548821 -0.515519 255 51 255
-0.168650 0.423801 -0.216897 0.658055 0.548821 -0.515519 255 51 255
0.000000 0.000000 -0.452794 0.125900 0.970902 0.203710 251 184 157
-0.404990 0.000000 -0.202496 -0.039619 -0.864719 -0.500691 251 184 157
-0.327642 -0.238043 0.202496 -0.039619 -0.864719 -0.500691 251 184 157
-0.385548 -0.243729 0.216897 -0.039619 -0.864719 -0.500691 251 184 157
-0.404990 0.000000 -0.202496 0.039620 0.864719 0.500691 251 184 157
-0.468397 0.011244 -0.216897 0.039620 0.864719 0.500691 251 184 157
-0.385548 -0.243729 0.216897 0.039620 0.864719 0.500691 251 184 157
-0.327642 -0.238043 0.202496 0.191196 -0.888011 0.418187 255 51 255
-0.385548 -0.243729 0.216897 0.191196 -0.888011 0.418187 255 51 255
-0.168650 -0.401314 -0.216897 0.191196 -0.888011 0.418187 255 51 255
-0.385548 0.266216 0.216897 0.241351 -0.000000 0.970438 251 184 157
-0.125146 -0.385165 -0.202496 0.248146 0.180292 -0.951797 251 184 157
-0.468397 0.011244 -0.216897 -0.125900 -0.970902 -0.203710 251 184 157
-0.385548 0.266216 0.216897 -0.476217 -0.722853 -0.500700 251 184 157
-0.404990 0.000000 -0.202496 -0.262866 -0.809021 0.525724 251 184 157
-0.327642 0.238043 0.202496 -0.262866 -0.809021 0.525724 251 184 157
-0.385548 0.266216 0.216897 -0.262866 -0.809021 0.525724 251 184 157
-0.468397 0.011244 -0.216897 0.195253 -0.141862 -0.970439 251 184 157
-0.327642 -0.238043 0.202496 0.209784 -0.830803 0.515516 255 51 255
0.000000 0.000000 0.452794 0.209784 -0.830803 0.515516 255 51 255
-0.034604 0.011244 0.484996 0.209784 -0.830803 0.515516 255 51 255
-0.468397 0.011244 -0.216897 0.262866 0.809021 -0.525724 251 184 157
0.125146 0.385165 0.202496 0.094786 -0.291716 0.951797 251 184 157
-0.327642 -0.238043 0.202496 -0.241351 0.000000 -0.970438 251 184 157
-0.385548 0.266216 0.216897 -0.094786 0.291716 -0.951797 251 184 157
-0.125146 0.385165 -0.202496 -0.195253 0.141862 0.970439 251 184 157
-0.125146 0.385165 -0.202496 0.476217 0.722853 0.500700 251 184 157
0.000000 0.000000 -0.452794 0.442228 -0.585315 -0.679589 255 51 255
-0.125146 -0.385165 -0.202496 0.442228 -0.585315 -0.679589 255 51 255
-0.168650 -0.401314 -0.216897 0.442228 -0.585315 -0.679589 255 51 255
-0.468397 0.011244 -0.216897 -0.248146 -0.180292 0.951797 251 184 157
-0.327642 0.238043 0.202496 -0.468827 -0.859481 -0.203702 251 184 157
0.000000 0.000000 0.452794 -0.468827 -0.859481 -0.203702 251 184 157
-0.034604 0.011244 0.484996 -0.468827 -0.859481 -0.203702 251 184 157
0.000000 0.000000 0.452794 0.701814 0.213596 0.679584 255 51 255
0.125146 0.385165 0.202496 0.701814 0.213596 0.679584 255 51 255
0.099442 0.423801 0.216897 0.701814 0.213596 0.679584 255 51 255
-0.168650 0.423801 -0.216897 0.676645 0.606035 -0.418178 255 51 255
-0.385548 0.266216 0.216897 0.468827 0.859481 0.203701 251 184 157
-0.125146 0.385165 -0.202496 0.658055 0.548820 -0.515519 255 51 255
0.000000 0.000000 -0.452794 0.658055 0.548820 -0.515519 255 51 255
-0.034604 0.011244 -0.484996 0.658055 0.548820 -0.515519 255 51 255
3 0 1 2
3 3 4 5
3 6 7 8
3 9 10 11
3 12 13 14
3 15 16 17
3 18 19 20
3 21 22 23
3 24 25 26
3 27 28 29
3 30 31 32
3 33 34 35
3 36 37 38
3 39 40 41
3 42 43 44
3 45 46 47
3 48 49 50
3 51 52 53
3 54 55 56
3 57 58 59
3 60 61 62
3 63 64 65
3 66 67 68
3 69 70 71
3 72 73 74
3 75 76 77
3 78 79 80
3 81 82 83
3 84 85 86
3 87 88 89
3 90 91 92
3 93 94 95
3 96 97 98
3 99 100 101
3 102 103 104
3 105 106 107
3 108 109 110
3 111 112 113
3 114 115 116
3 117 118 119
3 120 121 122
3 123 124 125
3 126 127 128
3 129 130 131
3 132 133 134
3 135 136 137
3 138 139 140
3 141 142 143
3 144 145 146
3 147 148 149
3 150 151 152
3 153 154 155
3 84 156 85
3 157 158 159
3 160 161 162
3 163 164 165
3 96 166 97
3 99 167 100
3 102 168 103
3 105 169 106
3 170 171 172
3 111 173 112
3 174 175 176
3 117 177 118
3 120 178 121
3 123 179 124
3 126 180 127
3 129 181 130
3 132 182 133
3 183 184 185
3 138 186 139
3 187 188 189
3 190 191 192
3 147 193 148
3 150 194 151
3 195 196 197
