ply
format ascii 1.0
comment Created by Blender 2.77 (sub 0) - www.blender.org, source file: 'NewPlayer.blend'
element vertex 506
property float x
property float y
property float z
property float nx
property float ny
property float nz
property uchar red
property uchar green
property uchar blue
element face 176
property list uchar uint vertex_indices
end_header
0.735418 0.047652 -0.000000 0.888258 0.197917 -0.414520 255 51 255
0.408594 0.658819 -0.408530 0.888258 0.197917 -0.414520 255 51 255
0.551579 0.872728 -0.000000 0.888258 0.197917 -0.414520 255 51 255
0.735418 0.047652 -0.000000 0.909686 0.283767 0.303229 255 51 255
0.408594 0.658819 0.408530 0.909686 0.283767 0.303229 255 51 255
0.551579 0.047652 0.551515 0.909686 0.283767 0.303229 255 51 255
0.612859 -0.502398 -0.000000 0.888258 -0.197916 0.414520 255 51 255
0.408594 -0.563515 0.408530 0.888258 -0.197916 0.414520 255 51 255
0.551579 -0.777423 -0.000000 0.888258 -0.197916 0.414520 255 51 255
0.612859 -0.502398 -0.000000 0.871441 -0.295475 -0.391517 255 51 255
0.408594 -0.563515 -0.408530 0.871441 -0.295475 -0.391517 255 51 255
0.456256 -0.359792 -0.456192 0.871441 -0.295475 -0.391517 255 51 255
0.000064 0.047652 0.628157 0.241076 0.181462 0.953391 255 51 255
0.408594 0.658819 0.408530 0.241076 0.181462 0.953391 255 51 255
0.000064 0.872728 0.471117 0.241076 0.181462 0.953391 255 51 255
0.000064 0.047652 0.628157 -0.133085 0.255192 0.957688 255 51 255
-0.408466 0.658819 0.408530 -0.133085 0.255192 0.957688 255 51 255
-0.551451 0.047652 0.551515 -0.133085 0.255192 0.957688 255 51 255
0.000064 -0.502398 0.523464 -0.241076 -0.181462 0.953391 255 51 255
-0.408466 -0.563515 0.408530 -0.241076 -0.181462 0.953391 255 51 255
0.000064 -0.777423 0.471117 -0.241076 -0.181462 0.953391 255 51 255
0.000064 -0.502398 0.523464 0.222860 -0.271206 0.936366 255 51 255
0.408594 -0.563515 0.408530 0.222860 -0.271206 0.936366 255 51 255
0.456256 -0.359792 0.456192 0.222860 -0.271206 0.936366 255 51 255
-0.735290 0.047652 -0.000000 -0.888258 0.197916 0.414520 255 51 255
-0.408466 0.658819 0.408530 -0.888258 0.197916 0.414520 255 51 255
-0.551451 0.872728 -0.000000 -0.888258 0.197916 0.414520 255 51 255
-0.735290 0.047652 -0.000000 -0.909686 0.283767 -0.303229 255 51 255
-0.408466 0.658819 -0.408530 -0.909686 0.283767 -0.303229 255 51 255
-0.551451 0.047652 -0.551515 -0.909686 0.283767 -0.303229 255 51 255
-0.612731 -0.502398 -0.000000 -0.888258 -0.197917 -0.414520 255 51 255
-0.408466 -0.563515 -0.408530 -0.888258 -0.197917 -0.414520 255 51 255
-0.551451 -0.777423 -0.000000 -0.888258 -0.197917 -0.414520 255 51 255
-0.612731 -0.502398 -0.000000 -0.871441 -0.295475 0.391517 255 51 255
-0.408466 -0.563515 0.408530 -0.871441 -0.295475 0.391517 255 51 255
-0.456128 -0.359792 0.456192 -0.871441 -0.295475 0.391517 255 51 255
0.000064 0.047652 -0.628157 -0.241076 0.181462 -0.953391 255 51 255
-0.408466 0.658819 -0.408530 -0.241076 0.181462 -0.953391 255 51 255
0.000064 0.872728 -0.471117 -0.241076 0.181462 -0.953391 255 51 255
0.000064 0.047652 -0.628157 0.133085 0.255191 -0.957688 255 51 255
0.408594 0.658819 -0.408530 0.133085 0.255191 -0.957688 255 51 255
0.551579 0.047652 -0.551515 0.133085 0.255191 -0.957688 255 51 255
0.000064 -0.502398 -0.523464 0.241076 -0.181462 -0.953391 255 51 255
0.408594 -0.563515 -0.408530 0.241076 -0.181462 -0.953391 255 51 255
0.000064 -0.777423 -0.471117 0.241076 -0.181462 -0.953391 255 51 255
0.000064 -0.502398 -0.523464 -0.222860 -0.271206 -0.936365 255 51 255
-0.408466 -0.563515 -0.408530 -0.222860 -0.271206 -0.936365 255 51 255
-0.456128 -0.359792 -0.456192 -0.222860 -0.271206 -0.936365 255 51 255
0.000064 -1.052448 -0.000000 0.378469 -0.758955 -0.529857 255 51 255
0.408594 -0.563515 -0.408530 0.378469 -0.758955 -0.529857 255 51 255
0.551579 -0.777423 -0.000000 0.378469 -0.758955 -0.529857 255 51 255
0.000064 -1.052448 -0.000000 0.467900 -0.763246 0.445561 255 51 255
0.408594 -0.563515 0.408530 0.467900 -0.763246 0.445561 255 51 255
0.000064 -0.777423 0.471117 0.467900 -0.763246 0.445561 255 51 255
0.000064 -1.052448 -0.000000 -0.378469 -0.758955 0.529857 255 51 255
-0.408466 -0.563515 0.408530 -0.378469 -0.758955 0.529857 255 51 255
-0.551451 -0.777423 -0.000000 -0.378469 -0.758955 0.529857 255 51 255
0.000064 -1.052448 -0.000000 -0.467900 -0.763246 -0.445561 255 51 255
-0.408466 -0.563515 -0.408530 -0.467900 -0.763246 -0.445561 255 51 255
0.000064 -0.777423 -0.471117 -0.467900 -0.763246 -0.445561 255 51 255
0.000064 1.147753 -0.000000 -0.378469 0.758955 -0.529857 255 51 255
-0.408466 0.658819 -0.408530 -0.378469 0.758955 -0.529857 255 51 255
-0.551451 0.872728 -0.000000 -0.378469 0.758955 -0.529857 255 51 255
0.000064 1.147753 -0.000000 -0.467900 0.763246 0.445561 255 51 255
-0.408466 0.658819 0.408530 -0.467900 0.763246 0.445561 255 51 255
0.000064 0.872728 0.471117 -0.467900 0.763246 0.445561 255 51 255
0.000064 1.147753 -0.000000 0.378469 0.758955 0.529857 255 51 255
0.408594 0.658819 0.408530 0.378469 0.758955 0.529857 255 51 255
0.551579 0.872728 -0.000000 0.378469 0.758955 0.529857 255 51 255
0.000064 1.147753 -0.000000 0.467900 0.763246 -0.445561 255 51 255
0.408594 0.658819 -0.408530 0.467900 0.763246 -0.445561 255 51 255
0.000064 0.872728 -0.471117 0.467900 0.763246 -0.445561 255 51 255
-0.456128 -0.359792 0.456192 -0.109316 -0.760695 -0.639838 156 119 102
0.000064 -0.529678 0.580226 -0.109316 -0.760695 -0.639838 156 119 102
-0.491071 -0.391276 0.499592 -0.109316 -0.760695 -0.639838 156 119 102
0.735418 0.047652 -0.000000 0.918212 -0.204591 0.339159 255 51 255
0.503918 -0.156070 0.503853 0.918212 -0.204591 0.339159 255 51 255
0.674138 -0.227373 -0.000000 0.918212 -0.204591 0.339159 255 51 255
-0.503789 -0.156070 0.503853 -0.586286 0.804018 0.099109 156 119 102
-0.729760 -0.258739 -0.000000 -0.586286 0.804018 0.099109 156 119 102
-0.539891 -0.187624 0.546270 -0.586286 0.804018 0.099109 156 119 102
0.735418 0.047652 -0.000000 0.909686 -0.283767 -0.303229 255 51 255
0.503918 -0.156070 -0.503853 0.909686 -0.283767 -0.303229 255 51 255
0.551579 0.047652 -0.551515 0.909686 -0.283767 -0.303229 255 51 255
0.503918 -0.156070 -0.503853 0.586286 0.804019 -0.099109 156 119 102
0.729889 -0.258739 -0.000000 0.586286 0.804019 -0.099109 156 119 102
0.540019 -0.187624 -0.546270 0.586286 0.804019 -0.099109 156 119 102
0.000064 0.047652 0.628157 -0.164483 -0.184430 0.968984 255 51 255
-0.503789 -0.156070 0.503853 -0.164483 -0.184430 0.968984 255 51 255
0.000064 -0.227373 0.575810 -0.164483 -0.184430 0.968984 255 51 255
-0.456128 -0.359792 0.456192 0.487698 -0.866848 0.103558 156 119 102
-0.668481 -0.533764 -0.000000 0.487698 -0.866848 0.103558 156 119 102
-0.612731 -0.502398 -0.000000 0.487698 -0.866848 0.103558 156 119 102
0.000064 0.047652 0.628157 0.133085 -0.255192 0.957688 255 51 255
0.503918 -0.156070 0.503853 0.133085 -0.255192 0.957688 255 51 255
0.551579 0.047652 0.551515 0.133085 -0.255192 0.957688 255 51 255
0.456256 -0.359792 -0.456192 -0.487698 -0.866849 -0.103559 156 119 102
0.668609 -0.533764 -0.000000 -0.487698 -0.866849 -0.103559 156 119 102
0.612859 -0.502398 -0.000000 -0.487698 -0.866849 -0.103559 156 119 102
-0.735290 0.047652 -0.000000 -0.918212 -0.204591 -0.339159 255 51 255
-0.503789 -0.156070 -0.503853 -0.918212 -0.204591 -0.339159 255 51 255
-0.674010 -0.227373 -0.000000 -0.918212 -0.204591 -0.339159 255 51 255
-0.503789 -0.156070 -0.503853 -0.489897 0.870755 -0.042281 156 119 102
-0.729760 -0.258739 -0.000000 -0.489897 0.870755 -0.042281 156 119 102
-0.674010 -0.227373 -0.000000 -0.489897 0.870755 -0.042281 156 119 102
-0.735290 0.047652 -0.000000 -0.909686 -0.283767 0.303229 255 51 255
-0.503789 -0.156070 0.503853 -0.909686 -0.283767 0.303229 255 51 255
-0.551451 0.047652 0.551515 -0.909686 -0.283767 0.303229 255 51 255
0.503918 -0.156070 0.503853 0.489897 0.870755 0.042281 156 119 102
0.729889 -0.258739 -0.000000 0.489897 0.870755 0.042281 156 119 102
0.674138 -0.227373 -0.000000 0.489897 0.870755 0.042281 156 119 102
0.000064 0.047652 -0.628157 0.164483 -0.184430 -0.968985 255 51 255
0.503918 -0.156070 -0.503853 0.164483 -0.184430 -0.968985 255 51 255
0.000064 -0.227373 -0.575810 0.164483 -0.184430 -0.968985 255 51 255
-0.456128 -0.359792 -0.456192 0.656707 -0.753927 0.018177 156 119 102
-0.668481 -0.533764 -0.000000 0.656707 -0.753927 0.018177 156 119 102
-0.491071 -0.391276 -0.499592 0.656707 -0.753927 0.018177 156 119 102
0.000064 0.047652 -0.628157 -0.133085 -0.255191 -0.957688 255 51 255
-0.503789 -0.156070 -0.503853 -0.133085 -0.255191 -0.957688 255 51 255
-0.551451 0.047652 -0.551515 -0.133085 -0.255191 -0.957688 255 51 255
0.729889 -0.258739 -0.000000 0.903537 -0.201321 0.378274 156 119 102
0.491199 -0.391276 0.499592 0.903537 -0.201321 0.378274 156 119 102
0.668609 -0.533764 -0.000000 0.903537 -0.201321 0.378274 156 119 102
0.729889 -0.258739 -0.000000 0.890581 -0.293191 -0.347712 156 119 102
0.491199 -0.391276 -0.499592 0.890581 -0.293191 -0.347712 156 119 102
0.540019 -0.187624 -0.546270 0.890581 -0.293191 -0.347712 156 119 102
0.000064 -0.254653 0.632573 -0.209238 -0.182838 0.960619 156 119 102
-0.491071 -0.391276 0.499592 -0.209238 -0.182838 0.960619 156 119 102
0.000064 -0.529678 0.580226 -0.209238 -0.182838 0.960619 156 119 102
0.000064 -0.254653 0.632573 0.183890 -0.261275 0.947586 156 119 102
0.491199 -0.391276 0.499592 0.183890 -0.261275 0.947586 156 119 102
0.540019 -0.187624 0.546270 0.183890 -0.261275 0.947586 156 119 102
-0.729760 -0.258739 -0.000000 -0.903537 -0.201321 -0.378274 156 119 102
-0.491071 -0.391276 -0.499592 -0.903537 -0.201321 -0.378274 156 119 102
-0.668481 -0.533764 -0.000000 -0.903537 -0.201321 -0.378274 156 119 102
-0.729760 -0.258739 -0.000000 -0.890581 -0.293192 0.347712 156 119 102
-0.491071 -0.391276 0.499592 -0.890581 -0.293192 0.347712 156 119 102
-0.539891 -0.187624 0.546270 -0.890581 -0.293192 0.347712 156 119 102
0.000064 -0.254653 -0.632573 0.209238 -0.182838 -0.960619 156 119 102
0.491199 -0.391276 -0.499592 0.209238 -0.182838 -0.960619 156 119 102
0.000064 -0.529678 -0.580226 0.209238 -0.182838 -0.960619 156 119 102
0.000064 -0.254653 -0.632573 -0.183890 -0.261275 -0.947586 156 119 102
-0.491071 -0.391276 -0.499592 -0.183890 -0.261275 -0.947586 156 119 102
-0.539891 -0.187624 -0.546270 -0.183890 -0.261275 -0.947586 156 119 102
0.456256 -0.359792 -0.456192 0.109316 -0.760696 0.639838 156 119 102
0.000064 -0.529678 -0.580226 0.109316 -0.760696 0.639838 156 119 102
0.491199 -0.391276 -0.499592 0.109316 -0.760696 0.639838 156 119 102
-0.503789 -0.156070 0.503853 0.065546 0.899375 0.432236 156 119 102
0.000064 -0.254653 0.632573 0.065546 0.899375 0.432236 156 119 102
0.000064 -0.227373 0.575810 0.065546 0.899375 0.432236 156 119 102
0.503918 -0.156070 -0.503853 -0.065546 0.899375 -0.432237 156 119 102
0.000064 -0.254653 -0.632573 -0.065546 0.899375 -0.432237 156 119 102
0.000064 -0.227373 -0.575810 -0.065546 0.899375 -0.432237 156 119 102
0.456256 -0.359792 0.456192 0.212880 -0.880654 -0.423238 156 119 102
0.000064 -0.529678 0.580226 0.212880 -0.880654 -0.423238 156 119 102
0.000064 -0.502398 0.523464 0.212880 -0.880654 -0.423238 156 119 102
-0.456128 -0.359792 -0.456192 -0.212880 -0.880654 0.423239 156 119 102
0.000064 -0.529678 -0.580226 -0.212880 -0.880654 0.423239 156 119 102
0.000064 -0.502398 -0.523464 -0.212880 -0.880654 0.423239 156 119 102
0.503918 -0.156070 0.503853 -0.003692 0.800830 0.598880 156 119 102
0.000064 -0.254653 0.632573 -0.003692 0.800830 0.598880 156 119 102
0.540019 -0.187624 0.546270 -0.003692 0.800830 0.598880 156 119 102
0.456256 -0.359792 0.456192 -0.656707 -0.753927 -0.018177 156 119 102
0.668609 -0.533764 -0.000000 -0.656707 -0.753927 -0.018177 156 119 102
0.491199 -0.391276 0.499592 -0.656707 -0.753927 -0.018177 156 119 102
-0.503789 -0.156070 -0.503853 0.003693 0.800830 -0.598880 156 119 102
0.000064 -0.254653 -0.632573 0.003693 0.800830 -0.598880 156 119 102
-0.539891 -0.187624 -0.546270 0.003693 0.800830 -0.598880 156 119 102
0.087158 -0.357662 0.647653 -0.099029 -0.227787 0.968662 255 216 36
0.137865 -0.206956 0.688277 -0.099029 -0.227787 0.968662 255 216 36
0.069465 -0.288135 0.662194 -0.099029 -0.227787 0.968662 255 216 36
0.087158 -0.340800 0.567027 -0.970348 0.236594 0.049481 255 216 36
0.069465 -0.427189 0.633112 -0.970348 0.236594 0.049481 255 216 36
0.087158 -0.357662 0.647653 -0.970348 0.236594 0.049481 255 216 36
0.069465 -0.427189 0.633112 -0.025602 -0.121662 0.992241 255 216 36
-0.001566 -0.553595 0.615781 -0.025602 -0.121662 0.992241 255 216 36
0.137865 -0.512017 0.624476 -0.025602 -0.121662 0.992241 255 216 36
-0.072598 -0.271273 0.581568 0.970348 -0.236592 -0.049481 255 216 36
-0.090291 -0.357662 0.647653 0.970348 -0.236592 -0.049481 255 216 36
-0.090291 -0.340800 0.567027 0.970348 -0.236592 -0.049481 255 216 36
-0.072598 -0.427189 0.633112 0.020046 -0.124749 0.991986 255 216 36
-0.001566 -0.553595 0.615781 0.020046 -0.124749 0.991986 255 216 36
-0.001566 -0.444404 0.629512 0.020046 -0.124749 0.991986 255 216 36
0.087158 -0.340800 0.567027 -0.099030 0.227788 -0.968662 255 216 36
0.137865 -0.491506 0.526404 -0.099030 0.227788 -0.968662 255 216 36
0.069465 -0.410327 0.552486 -0.099030 0.227788 -0.968662 255 216 36
-0.090291 -0.357662 0.647653 0.099029 -0.179497 0.978762 255 216 36
-0.140998 -0.512017 0.624476 0.099029 -0.179497 0.978762 255 216 36
-0.072598 -0.427189 0.633112 0.099029 -0.179497 0.978762 255 216 36
0.069465 -0.288135 0.662194 -0.020047 -0.283246 0.958838 255 216 36
-0.001566 -0.165378 0.696972 -0.020047 -0.283246 0.958838 255 216 36
-0.001566 -0.270920 0.665794 -0.020047 -0.283246 0.958838 255 216 36
-0.072598 -0.427189 0.633112 0.970348 0.236592 0.049481 255 216 36
-0.090291 -0.340800 0.567027 0.970348 0.236592 0.049481 255 216 36
-0.090291 -0.357662 0.647653 0.970348 0.236592 0.049481 255 216 36
0.087158 -0.357662 0.647653 -0.970348 -0.236594 -0.049481 255 216 36
0.069465 -0.271273 0.581568 -0.970348 -0.236594 -0.049481 255 216 36
0.087158 -0.340800 0.567027 -0.970348 -0.236594 -0.049481 255 216 36
-0.001566 -0.254058 0.585168 -0.240343 -0.950131 -0.198710 255 216 36
0.069465 -0.288135 0.662194 -0.240343 -0.950131 -0.198710 255 216 36
-0.001566 -0.270920 0.665794 -0.240343 -0.950131 -0.198710 255 216 36
-0.072598 -0.410327 0.552486 0.240343 0.950131 0.198710 255 216 36
-0.001566 -0.444404 0.629512 0.240343 0.950131 0.198710 255 216 36
-0.001566 -0.427542 0.548886 0.240343 0.950131 0.198710 255 216 36
-0.001566 -0.444404 0.629512 -0.240343 0.950131 0.198710 255 216 36
0.069465 -0.410327 0.552486 -0.240343 0.950131 0.198710 255 216 36
-0.001566 -0.427542 0.548886 -0.240343 0.950131 0.198710 255 216 36
-0.072598 -0.288135 0.662194 0.025602 -0.286176 0.957835 255 216 36
-0.001566 -0.165378 0.696972 0.025602 -0.286176 0.957835 255 216 36
-0.140998 -0.206956 0.688277 0.025602 -0.286176 0.957835 255 216 36
-0.072598 -0.288135 0.662194 0.240343 -0.950131 -0.198710 255 216 36
-0.001566 -0.254058 0.585168 0.240343 -0.950131 -0.198710 255 216 36
-0.001566 -0.270920 0.665794 0.240343 -0.950131 -0.198710 255 216 36
-0.072598 -0.410327 0.552486 0.025602 0.286178 -0.957834 255 216 36
-0.001566 -0.533084 0.517708 0.025602 0.286178 -0.957834 255 216 36
-0.140998 -0.491506 0.526404 0.025602 0.286178 -0.957834 255 216 36
0.186263 -0.338976 0.558304 0.955000 -0.290325 -0.060719 255 216 36
0.137865 -0.512017 0.624476 0.955000 -0.290325 -0.060719 255 216 36
0.137865 -0.491506 0.526404 0.955000 -0.290325 -0.060719 255 216 36
-0.189396 -0.338976 0.558304 -0.955000 -0.290326 -0.060719 255 216 36
-0.140998 -0.512017 0.624476 -0.955000 -0.290326 -0.060719 255 216 36
-0.189396 -0.359487 0.656376 -0.955000 -0.290326 -0.060719 255 216 36
-0.001566 -0.553595 0.615781 -0.291426 -0.936335 -0.195825 255 216 36
-0.140998 -0.491506 0.526404 -0.291426 -0.936335 -0.195825 255 216 36
-0.001566 -0.533084 0.517708 -0.291426 -0.936335 -0.195825 255 216 36
-0.001566 -0.144867 0.598899 0.291427 0.936335 0.195825 255 216 36
0.137865 -0.206956 0.688277 0.291427 0.936335 0.195825 255 216 36
0.137865 -0.186446 0.590204 0.291427 0.936335 0.195825 255 216 36
-0.140998 -0.206956 0.688277 -0.291427 0.936335 0.195825 255 216 36
-0.001566 -0.144867 0.598899 -0.291427 0.936335 0.195825 255 216 36
-0.140998 -0.186446 0.590204 -0.291427 0.936335 0.195825 255 216 36
0.137865 -0.491506 0.526404 0.291426 -0.936335 -0.195825 255 216 36
-0.001566 -0.553595 0.615781 0.291426 -0.936335 -0.195825 255 216 36
-0.001566 -0.533084 0.517708 0.291426 -0.936335 -0.195825 255 216 36
-0.140998 -0.186446 0.590204 -0.955000 0.290325 0.060718 255 216 36
-0.189396 -0.359487 0.656376 -0.955000 0.290325 0.060718 255 216 36
-0.140998 -0.206956 0.688277 -0.955000 0.290325 0.060718 255 216 36
0.137865 -0.186446 0.590204 0.955000 0.290325 0.060718 255 216 36
0.186263 -0.359487 0.656376 0.955000 0.290325 0.060718 255 216 36
0.186263 -0.338976 0.558304 0.955000 0.290325 0.060718 255 216 36
-0.072598 -0.271273 0.581568 0.020047 0.124747 -0.991986 255 216 36
-0.001566 -0.144867 0.598899 0.020047 0.124747 -0.991986 255 216 36
-0.001566 -0.254058 0.585168 0.020047 0.124747 -0.991986 255 216 36
-0.090291 -0.357662 0.647653 0.089528 -0.231026 0.968820 255 216 36
-0.140998 -0.206956 0.688277 0.089528 -0.231026 0.968820 255 216 36
-0.189396 -0.359487 0.656376 0.089528 -0.231026 0.968820 255 216 36
0.087158 -0.340800 0.567027 -0.089530 0.176592 -0.980204 255 216 36
0.137865 -0.186446 0.590204 -0.089530 0.176592 -0.980204 255 216 36
0.186263 -0.338976 0.558304 -0.089530 0.176592 -0.980204 255 216 36
0.069465 -0.410327 0.552486 -0.020046 0.283247 -0.958838 255 216 36
-0.001566 -0.533084 0.517708 -0.020046 0.283247 -0.958838 255 216 36
-0.001566 -0.427542 0.548886 -0.020046 0.283247 -0.958838 255 216 36
-0.090291 -0.340800 0.567027 0.089530 0.231026 -0.968819 255 216 36
-0.140998 -0.491506 0.526404 0.089530 0.231026 -0.968819 255 216 36
-0.189396 -0.338976 0.558304 0.089530 0.231026 -0.968819 255 216 36
-0.090291 -0.340800 0.567027 0.099029 0.179496 -0.978762 255 216 36
-0.140998 -0.186446 0.590204 0.099029 0.179496 -0.978762 255 216 36
-0.072598 -0.271273 0.581568 0.099029 0.179496 -0.978762 255 216 36
0.087158 -0.357662 0.647653 -0.089528 -0.176593 0.980204 255 216 36
0.137865 -0.512017 0.624476 -0.089528 -0.176593 0.980204 255 216 36
0.186263 -0.359487 0.656376 -0.089528 -0.176593 0.980204 255 216 36
0.069465 -0.271273 0.581568 -0.025602 0.121661 -0.992242 255 216 36
-0.001566 -0.144867 0.598899 -0.025602 0.121661 -0.992242 255 216 36
0.137865 -0.186446 0.590204 -0.025602 0.121661 -0.992242 255 216 36
0.735418 0.047652 -0.000000 0.909686 0.283767 -0.303229 255 51 255
0.551579 0.047652 -0.551515 0.909686 0.283767 -0.303229 255 51 255
0.408594 0.658819 -0.408530 0.909686 0.283767 -0.303229 255 51 255
0.735418 0.047652 -0.000000 0.888258 0.197917 0.414520 255 51 255
0.551579 0.872728 -0.000000 0.888258 0.197917 0.414520 255 51 255
0.408594 0.658819 0.408530 0.888258 0.197917 0.414520 255 51 255
0.612859 -0.502398 -0.000000 0.871441 -0.295475 0.391517 255 51 255
0.456256 -0.359792 0.456192 0.871441 -0.295475 0.391517 255 51 255
0.408594 -0.563515 0.408530 0.871441 -0.295475 0.391517 255 51 255
0.612859 -0.502398 -0.000000 0.888258 -0.197916 -0.414520 255 51 255
0.551579 -0.777423 -0.000000 0.888258 -0.197916 -0.414520 255 51 255
0.408594 -0.563515 -0.408530 0.888258 -0.197916 -0.414520 255 51 255
0.000064 0.047652 0.628157 0.133085 0.255192 0.957688 255 51 255
0.551579 0.047652 0.551515 0.133085 0.255192 0.957688 255 51 255
0.408594 0.658819 0.408530 0.133085 0.255192 0.957688 255 51 255
0.000064 0.047652 0.628157 -0.241076 0.181462 0.953391 255 51 255
0.000064 0.872728 0.471117 -0.241076 0.181462 0.953391 255 51 255
-0.408466 0.658819 0.408530 -0.241076 0.181462 0.953391 255 51 255
0.000064 -0.502398 0.523464 -0.222860 -0.271206 0.936366 255 51 255
-0.456128 -0.359792 0.456192 -0.222860 -0.271206 0.936366 255 51 255
-0.408466 -0.563515 0.408530 -0.222860 -0.271206 0.936366 255 51 255
0.000064 -0.502398 0.523464 0.241076 -0.181462 0.953391 255 51 255
0.000064 -0.777423 0.471117 0.241076 -0.181462 0.953391 255 51 255
0.408594 -0.563515 0.408530 0.241076 -0.181462 0.953391 255 51 255
-0.735290 0.047652 -0.000000 -0.909686 0.283767 0.303229 255 51 255
-0.551451 0.047652 0.551515 -0.909686 0.283767 0.303229 255 51 255
-0.408466 0.658819 0.408530 -0.909686 0.283767 0.303229 255 51 255
-0.735290 0.047652 -0.000000 -0.888258 0.197916 -0.414520 255 51 255
-0.551451 0.872728 -0.000000 -0.888258 0.197916 -0.414520 255 51 255
-0.408466 0.658819 -0.408530 -0.888258 0.197916 -0.414520 255 51 255
-0.612731 -0.502398 -0.000000 -0.871441 -0.295475 -0.391517 255 51 255
-0.456128 -0.359792 -0.456192 -0.871441 -0.295475 -0.391517 255 51 255
-0.408466 -0.563515 -0.408530 -0.871441 -0.295475 -0.391517 255 51 255
-0.612731 -0.502398 -0.000000 -0.888258 -0.197917 0.414520 255 51 255
-0.551451 -0.777423 -0.000000 -0.888258 -0.197917 0.414520 255 51 255
-0.408466 -0.563515 0.408530 -0.888258 -0.197917 0.414520 255 51 255
0.000064 0.047652 -0.628157 -0.133085 0.255191 -0.957688 255 51 255
-0.551451 0.047652 -0.551515 -0.133085 0.255191 -0.957688 255 51 255
-0.408466 0.658819 -0.408530 -0.133085 0.255191 -0.957688 255 51 255
0.000064 0.047652 -0.628157 0.241076 0.181462 -0.953391 255 51 255
0.000064 0.872728 -0.471117 0.241076 0.181462 -0.953391 255 51 255
0.408594 0.658819 -0.408530 0.241076 0.181462 -0.953391 255 51 255
0.000064 -0.502398 -0.523464 0.222860 -0.271207 -0.936366 255 51 255
0.456256 -0.359792 -0.456192 0.222860 -0.271207 -0.936366 255 51 255
0.408594 -0.563515 -0.408530 0.222860 -0.271207 -0.936366 255 51 255
0.000064 -0.502398 -0.523464 -0.241076 -0.181462 -0.953391 255 51 255
0.000064 -0.777423 -0.471117 -0.241076 -0.181462 -0.953391 255 51 255
-0.408466 -0.563515 -0.408530 -0.241076 -0.181462 -0.953391 255 51 255
0.000064 -1.052448 -0.000000 0.467900 -0.763246 -0.445561 255 51 255
0.000064 -0.777423 -0.471117 0.467900 -0.763246 -0.445561 255 51 255
0.408594 -0.563515 -0.408530 0.467900 -0.763246 -0.445561 255 51 255
0.000064 -1.052448 -0.000000 0.378469 -0.758955 0.529857 255 51 255
0.551579 -0.777423 -0.000000 0.378469 -0.758955 0.529857 255 51 255
0.408594 -0.563515 0.408530 0.378469 -0.758955 0.529857 255 51 255
0.000064 -1.052448 -0.000000 -0.467900 -0.763246 0.445561 255 51 255
0.000064 -0.777423 0.471117 -0.467900 -0.763246 0.445561 255 51 255
-0.408466 -0.563515 0.408530 -0.467900 -0.763246 0.445561 255 51 255
0.000064 -1.052448 -0.000000 -0.378469 -0.758955 -0.529857 255 51 255
-0.551451 -0.777423 -0.000000 -0.378469 -0.758955 -0.529857 255 51 255
-0.408466 -0.563515 -0.408530 -0.378469 -0.758955 -0.529857 255 51 255
0.000064 1.147753 -0.000000 -0.467900 0.763246 -0.445561 255 51 255
0.000064 0.872728 -0.471117 -0.467900 0.763246 -0.445561 255 51 255
-0.408466 0.658819 -0.408530 -0.467900 0.763246 -0.445561 255 51 255
0.000064 1.147753 -0.000000 -0.378469 0.758955 0.529857 255 51 255
-0.551451 0.872728 -0.000000 -0.378469 0.758955 0.529857 255 51 255
-0.408466 0.658819 0.408530 -0.378469 0.758955 0.529857 255 51 255
0.000064 1.147753 -0.000000 0.467900 0.763246 0.445561 255 51 255
0.000064 0.872728 0.471117 0.467900 0.763246 0.445561 255 51 255
0.408594 0.658819 0.408530 0.467900 0.763246 0.445561 255 51 255
0.000064 1.147753 -0.000000 0.378469 0.758955 -0.529857 255 51 255
0.551579 0.872728 -0.000000 0.378469 0.758955 -0.529857 255 51 255
0.408594 0.658819 -0.408530 0.378469 0.758955 -0.529857 255 51 255
-0.456128 -0.359792 0.456192 -0.212880 -0.880654 -0.423238 156 119 102
0.000064 -0.502398 0.523464 -0.212880 -0.880654 -0.423238 156 119 102
0.000064 -0.529678 0.580226 -0.212880 -0.880654 -0.423238 156 119 102
0.735418 0.047652 -0.000000 0.909686 -0.283767 0.303229 255 51 255
0.551579 0.047652 0.551515 0.909686 -0.283767 0.303229 255 51 255
0.503918 -0.156070 0.503853 0.909686 -0.283767 0.303229 255 51 255
-0.503789 -0.156070 0.503853 -0.489897 0.870755 0.042281 156 119 102
-0.674010 -0.227373 -0.000000 -0.489897 0.870755 0.042281 156 119 102
-0.729760 -0.258739 -0.000000 -0.489897 0.870755 0.042281 156 119 102
0.735418 0.047652 -0.000000 0.918212 -0.204591 -0.339159 255 51 255
0.674138 -0.227373 -0.000000 0.918212 -0.204591 -0.339159 255 51 255
0.503918 -0.156070 -0.503853 0.918212 -0.204591 -0.339159 255 51 255
0.503918 -0.156070 -0.503853 0.489897 0.870755 -0.042281 156 119 102
0.674138 -0.227373 -0.000000 0.489897 0.870755 -0.042281 156 119 102
0.729889 -0.258739 -0.000000 0.489897 0.870755 -0.042281 156 119 102
0.000064 0.047652 0.628157 -0.133085 -0.255192 0.957688 255 51 255
-0.551451 0.047652 0.551515 -0.133085 -0.255192 0.957688 255 51 255
-0.503789 -0.156070 0.503853 -0.133085 -0.255192 0.957688 255 51 255
-0.456128 -0.359792 0.456192 0.656707 -0.753927 -0.018177 156 119 102
-0.491071 -0.391276 0.499592 0.656707 -0.753927 -0.018177 156 119 102
-0.668481 -0.533764 -0.000000 0.656707 -0.753927 -0.018177 156 119 102
0.000064 0.047652 0.628157 0.164483 -0.184430 0.968985 255 51 255
0.000064 -0.227373 0.575810 0.164483 -0.184430 0.968985 255 51 255
0.503918 -0.156070 0.503853 0.164483 -0.184430 0.968985 255 51 255
0.456256 -0.359792 -0.456192 -0.656706 -0.753927 0.018177 156 119 102
0.491199 -0.391276 -0.499592 -0.656706 -0.753927 0.018177 156 119 102
0.668609 -0.533764 -0.000000 -0.656706 -0.753927 0.018177 156 119 102
-0.735290 0.047652 -0.000000 -0.909686 -0.283767 -0.303229 255 51 255
-0.551451 0.047652 -0.551515 -0.909686 -0.283767 -0.303229 255 51 255
-0.503789 -0.156070 -0.503853 -0.909686 -0.283767 -0.303229 255 51 255
-0.503789 -0.156070 -0.503853 -0.586286 0.804019 -0.099109 156 119 102
-0.539891 -0.187624 -0.546270 -0.586286 0.804019 -0.099109 156 119 102
-0.729760 -0.258739 -0.000000 -0.586286 0.804019 -0.099109 156 119 102
-0.735290 0.047652 -0.000000 -0.918212 -0.204591 0.339159 255 51 255
-0.674010 -0.227373 -0.000000 -0.918212 -0.204591 0.339159 255 51 255
-0.503789 -0.156070 0.503853 -0.918212 -0.204591 0.339159 255 51 255
0.503918 -0.156070 0.503853 0.586286 0.804018 0.099109 156 119 102
0.540019 -0.187624 0.546270 0.586286 0.804018 0.099109 156 119 102
0.729889 -0.258739 -0.000000 0.586286 0.804018 0.099109 156 119 102
0.000064 0.047652 -0.628157 0.133085 -0.255191 -0.957688 255 51 255
0.551579 0.047652 -0.551515 0.133085 -0.255191 -0.957688 255 51 255
0.503918 -0.156070 -0.503853 0.133085 -0.255191 -0.957688 255 51 255
-0.456128 -0.359792 -0.456192 0.487698 -0.866848 -0.103558 156 119 102
-0.612731 -0.502398 -0.000000 0.487698 -0.866848 -0.103558 156 119 102
-0.668481 -0.533764 -0.000000 0.487698 -0.866848 -0.103558 156 119 102
0.000064 0.047652 -0.628157 -0.164483 -0.184430 -0.968984 255 51 255
0.000064 -0.227373 -0.575810 -0.164483 -0.184430 -0.968984 255 51 255
-0.503789 -0.156070 -0.503853 -0.164483 -0.184430 -0.968984 255 51 255
0.729889 -0.258739 -0.000000 0.890581 -0.293191 0.347712 156 119 102
0.540019 -0.187624 0.546270 0.890581 -0.293191 0.347712 156 119 102
0.491199 -0.391276 0.499592 0.890581 -0.293191 0.347712 156 119 102
0.729889 -0.258739 -0.000000 0.903537 -0.201321 -0.378274 156 119 102
0.668609 -0.533764 -0.000000 0.903537 -0.201321 -0.378274 156 119 102
0.491199 -0.391276 -0.499592 0.903537 -0.201321 -0.378274 156 119 102
0.000064 -0.254653 0.632573 -0.183890 -0.261275 0.947586 156 119 102
-0.539891 -0.187624 0.546270 -0.183890 -0.261275 0.947586 156 119 102
-0.491071 -0.391276 0.499592 -0.183890 -0.261275 0.947586 156 119 102
0.000064 -0.254653 0.632573 0.209238 -0.182838 0.960619 156 119 102
0.000064 -0.529678 0.580226 0.209238 -0.182838 0.960619 156 119 102
0.491199 -0.391276 0.499592 0.209238 -0.182838 0.960619 156 119 102
-0.729760 -0.258739 -0.000000 -0.890581 -0.293192 -0.347712 156 119 102
-0.539891 -0.187624 -0.546270 -0.890581 -0.293192 -0.347712 156 119 102
-0.491071 -0.391276 -0.499592 -0.890581 -0.293192 -0.347712 156 119 102
-0.729760 -0.258739 -0.000000 -0.903537 -0.201321 0.378274 156 119 102
-0.668481 -0.533764 -0.000000 -0.903537 -0.201321 0.378274 156 119 102
-0.491071 -0.391276 0.499592 -0.903537 -0.201321 0.378274 156 119 102
0.000064 -0.254653 -0.632573 0.183890 -0.261275 -0.947586 156 119 102
0.540019 -0.187624 -0.546270 0.183890 -0.261275 -0.947586 156 119 102
0.491199 -0.391276 -0.499592 0.183890 -0.261275 -0.947586 156 119 102
0.000064 -0.254653 -0.632573 -0.209238 -0.182838 -0.960620 156 119 102
0.000064 -0.529678 -0.580226 -0.209238 -0.182838 -0.960620 156 119 102
-0.491071 -0.391276 -0.499592 -0.209238 -0.182838 -0.960620 156 119 102
0.456256 -0.359792 -0.456192 0.212880 -0.880654 0.423239 156 119 102
0.000064 -0.502398 -0.523464 0.212880 -0.880654 0.423239 156 119 102
0.000064 -0.529678 -0.580226 0.212880 -0.880654 0.423239 156 119 102
-0.503789 -0.156070 0.503853 0.003692 0.800830 0.598880 156 119 102
-0.539891 -0.187624 0.546270 0.003692 0.800830 0.598880 156 119 102
0.000064 -0.254653 0.632573 0.003692 0.800830 0.598880 156 119 102
0.503918 -0.156070 -0.503853 -0.003693 0.800830 -0.598880 156 119 102
0.540019 -0.187624 -0.546270 -0.003693 0.800830 -0.598880 156 119 102
0.000064 -0.254653 -0.632573 -0.003693 0.800830 -0.598880 156 119 102
0.456256 -0.359792 0.456192 0.109316 -0.760695 -0.639838 156 119 102
0.491199 -0.391276 0.499592 0.109316 -0.760695 -0.639838 156 119 102
0.000064 -0.529678 0.580226 0.109316 -0.760695 -0.639838 156 119 102
-0.456128 -0.359792 -0.456192 -0.109316 -0.760695 0.639838 156 119 102
-0.491071 -0.391276 -0.499592 -0.109316 -0.760695 0.639838 156 119 102
0.000064 -0.529678 -0.580226 -0.109316 -0.760695 0.639838 156 119 102
0.503918 -0.156070 0.503853 -0.065546 0.899375 0.432236 156 119 102
0.000064 -0.227373 0.575810 -0.065546 0.899375 0.432236 156 119 102
0.000064 -0.254653 0.632573 -0.065546 0.899375 0.432236 156 119 102
0.456256 -0.359792 0.456192 -0.487698 -0.866849 0.103559 156 119 102
0.612859 -0.502398 -0.000000 -0.487698 -0.866849 0.103559 156 119 102
0.668609 -0.533764 -0.000000 -0.487698 -0.866849 0.103559 156 119 102
-0.503789 -0.156070 -0.503853 0.065546 0.899375 -0.432237 156 119 102
0.000064 -0.227373 -0.575810 0.065546 0.899375 -0.432237 156 119 102
0.000064 -0.254653 -0.632573 0.065546 0.899375 -0.432237 156 119 102
0.087158 -0.357662 0.647653 -0.089528 -0.231026 0.968820 255 216 36
0.186263 -0.359487 0.656376 -0.089528 -0.231026 0.968820 255 216 36
0.137865 -0.206956 0.688277 -0.089528 -0.231026 0.968820 255 216 36
0.069465 -0.410327 0.552486 -0.970348 0.236594 0.049481 255 216 36
0.069465 -0.427189 0.633112 -0.020046 -0.124749 0.991986 255 216 36
-0.001566 -0.444404 0.629512 -0.020046 -0.124749 0.991986 255 216 36
-0.001566 -0.553595 0.615781 -0.020046 -0.124749 0.991986 255 216 36
-0.072598 -0.288135 0.662194 0.970348 -0.236592 -0.049481 255 216 36
-0.072598 -0.427189 0.633112 0.025602 -0.121662 0.992241 255 216 36
-0.140998 -0.512017 0.624476 0.025602 -0.121662 0.992241 255 216 36
-0.001566 -0.553595 0.615781 0.025602 -0.121662 0.992241 255 216 36
0.087158 -0.340800 0.567027 -0.089530 0.231026 -0.968819 255 216 36
0.186263 -0.338976 0.558304 -0.089530 0.231026 -0.968819 255 216 36
0.137865 -0.491506 0.526404 -0.089530 0.231026 -0.968819 255 216 36
-0.090291 -0.357662 0.647653 0.089528 -0.176593 0.980204 255 216 36
-0.189396 -0.359487 0.656376 0.089528 -0.176593 0.980204 255 216 36
-0.140998 -0.512017 0.624476 0.089528 -0.176593 0.980204 255 216 36
0.069465 -0.288135 0.662194 -0.025602 -0.286176 0.957835 255 216 36
0.137865 -0.206956 0.688277 -0.025602 -0.286176 0.957835 255 216 36
-0.001566 -0.165378 0.696972 -0.025602 -0.286176 0.957835 255 216 36
-0.072598 -0.410327 0.552486 0.970348 0.236592 0.049481 255 216 36
0.069465 -0.288135 0.662194 -0.970348 -0.236594 -0.049481 255 216 36
0.069465 -0.271273 0.581568 -0.240343 -0.950131 -0.198710 255 216 36
-0.072598 -0.427189 0.633112 0.240343 0.950131 0.198710 255 216 36
0.069465 -0.427189 0.633112 -0.240343 0.950131 0.198710 255 216 36
-0.072598 -0.288135 0.662194 0.020047 -0.283246 0.958838 255 216 36
-0.001566 -0.270920 0.665794 0.020047 -0.283246 0.958838 255 216 36
-0.001566 -0.165378 0.696972 0.020047 -0.283246 0.958838 255 216 36
-0.072598 -0.288135 0.662194 0.240344 -0.950131 -0.198710 255 216 36
-0.072598 -0.271273 0.581568 0.240344 -0.950131 -0.198710 255 216 36
-0.001566 -0.254058 0.585168 0.240344 -0.950131 -0.198710 255 216 36
-0.072598 -0.410327 0.552486 0.020046 0.283247 -0.958838 255 216 36
-0.001566 -0.427542 0.548886 0.020046 0.283247 -0.958838 255 216 36
-0.001566 -0.533084 0.517708 0.020046 0.283247 -0.958838 255 216 36
0.186263 -0.338976 0.558304 0.955000 -0.290325 -0.060718 255 216 36
0.186263 -0.359487 0.656376 0.955000 -0.290325 -0.060718 255 216 36
0.137865 -0.512017 0.624476 0.955000 -0.290325 -0.060718 255 216 36
-0.140998 -0.491506 0.526404 -0.955000 -0.290326 -0.060719 255 216 36
-0.140998 -0.512017 0.624476 -0.291426 -0.936335 -0.195825 255 216 36
-0.001566 -0.144867 0.598899 0.291426 0.936335 0.195825 255 216 36
-0.001566 -0.165378 0.696972 0.291426 0.936335 0.195825 255 216 36
0.137865 -0.206956 0.688277 0.291426 0.936335 0.195825 255 216 36
-0.001566 -0.165378 0.696972 -0.291427 0.936335 0.195825 255 216 36
0.137865 -0.491506 0.526404 0.291425 -0.936335 -0.195825 255 216 36
0.137865 -0.512017 0.624476 0.291425 -0.936335 -0.195825 255 216 36
-0.001566 -0.553595 0.615781 0.291425 -0.936335 -0.195825 255 216 36
-0.140998 -0.186446 0.590204 -0.955000 0.290326 0.060718 255 216 36
-0.189396 -0.338976 0.558304 -0.955000 0.290326 0.060718 255 216 36
-0.189396 -0.359487 0.656376 -0.955000 0.290326 0.060718 255 216 36
0.137865 -0.206956 0.688277 0.955000 0.290325 0.060718 255 216 36
-0.072598 -0.271273 0.581568 0.025602 0.121661 -0.992241 255 216 36
-0.140998 -0.186446 0.590204 0.025602 0.121661 -0.992241 255 216 36
-0.001566 -0.144867 0.598899 0.025602 0.121661 -0.992241 255 216 36
-0.090291 -0.357662 0.647653 0.099029 -0.227787 0.968662 255 216 36
-0.072598 -0.288135 0.662194 0.099029 -0.227787 0.968662 255 216 36
-0.140998 -0.206956 0.688277 0.099029 -0.227787 0.968662 255 216 36
0.087158 -0.340800 0.567027 -0.099029 0.179496 -0.978762 255 216 36
0.069465 -0.271273 0.581568 -0.099029 0.179496 -0.978762 255 216 36
0.137865 -0.186446 0.590204 -0.099029 0.179496 -0.978762 255 216 36
0.069465 -0.410327 0.552486 -0.025602 0.286178 -0.957834 255 216 36
0.137865 -0.491506 0.526404 -0.025602 0.286178 -0.957834 255 216 36
-0.001566 -0.533084 0.517708 -0.025602 0.286178 -0.957834 255 216 36
-0.090291 -0.340800 0.567027 0.099030 0.227787 -0.968662 255 216 36
-0.072598 -0.410327 0.552486 0.099030 0.227787 -0.968662 255 216 36
-0.140998 -0.491506 0.526404 0.099030 0.227787 -0.968662 255 216 36
-0.090291 -0.340800 0.567027 0.089530 0.176592 -0.980204 255 216 36
-0.189396 -0.338976 0.558304 0.089530 0.176592 -0.980204 255 216 36
-0.140998 -0.186446 0.590204 0.089530 0.176592 -0.980204 255 216 36
0.087158 -0.357662 0.647653 -0.099028 -0.179497 0.978762 255 216 36
0.069465 -0.427189 0.633112 -0.099028 -0.179497 0.978762 255 216 36
0.137865 -0.512017 0.624476 -0.099028 -0.179497 0.978762 255 216 36
0.069465 -0.271273 0.581568 -0.020047 0.124747 -0.991986 255 216 36
-0.001566 -0.254058 0.585168 -0.020047 0.124747 -0.991986 255 216 36
-0.001566 -0.144867 0.598899 -0.020047 0.124747 -0.991986 255 216 36
3 0 1 2
3 3 4 5
3 6 7 8
3 9 10 11
3 12 13 14
3 15 16 17
3 18 19 20
3 21 22 23
3 24 25 26
3 27 28 29
3 30 31 32
3 33 34 35
3 36 37 38
3 39 40 41
3 42 43 44
3 45 46 47
3 48 49 50
3 51 52 53
3 54 55 56
3 57 58 59
3 60 61 62
3 63 64 65
3 66 67 68
3 69 70 71
3 72 73 74
3 75 76 77
3 78 79 80
3 81 82 83
3 84 85 86
3 87 88 89
3 90 91 92
3 93 94 95
3 96 97 98
3 99 100 101
3 102 103 104
3 105 106 107
3 108 109 110
3 111 112 113
3 114 115 116
3 117 118 119
3 120 121 122
3 123 124 125
3 126 127 128
3 129 130 131
3 132 133 134
3 135 136 137
3 138 139 140
3 141 142 143
3 144 145 146
3 147 148 149
3 150 151 152
3 153 154 155
3 156 157 158
3 159 160 161
3 162 163 164
3 165 166 167
3 168 169 170
3 171 172 173
3 174 175 176
3 177 178 179
3 180 181 182
3 183 184 185
3 186 187 188
3 189 190 191
3 192 193 194
3 195 196 197
3 198 199 200
3 201 202 203
3 204 205 206
3 207 208 209
3 210 211 212
3 213 214 215
3 216 217 218
3 219 220 221
3 222 223 224
3 225 226 227
3 228 229 230
3 231 232 233
3 234 235 236
3 237 238 239
3 240 241 242
3 243 244 245
3 246 247 248
3 249 250 251
3 252 253 254
3 255 256 257
3 258 259 260
3 261 262 263
3 264 265 266
3 267 268 269
3 270 271 272
3 273 274 275
3 276 277 278
3 279 280 281
3 282 283 284
3 285 286 287
3 288 289 290
3 291 292 293
3 294 295 296
3 297 298 299
3 300 301 302
3 303 304 305
3 306 307 308
3 309 310 311
3 312 313 314
3 315 316 317
3 318 319 320
3 321 322 323
3 324 325 326
3 327 328 329
3 330 331 332
3 333 334 335
3 336 337 338
3 339 340 341
3 342 343 344
3 345 346 347
3 348 349 350
3 351 352 353
3 354 355 356
3 357 358 359
3 360 361 362
3 363 364 365
3 366 367 368
3 369 370 371
3 372 373 374
3 375 376 377
3 378 379 380
3 381 382 383
3 384 385 386
3 387 388 389
3 390 391 392
3 393 394 395
3 396 397 398
3 399 400 401
3 402 403 404
3 405 406 407
3 408 409 410
3 411 412 413
3 414 415 416
3 417 418 419
3 420 421 422
3 423 424 425
3 426 427 428
3 429 430 431
3 432 433 434
3 171 435 172
3 436 437 438
3 177 439 178
3 440 441 442
3 443 444 445
3 446 447 448
3 449 450 451
3 192 452 193
3 195 453 196
3 198 454 199
3 201 455 202
3 204 456 205
3 457 458 459
3 460 461 462
3 463 464 465
3 466 467 468
3 219 469 220
3 222 470 223
3 471 472 473
3 228 474 229
3 475 476 477
3 478 479 480
3 237 481 238
3 482 483 484
3 485 486 487
3 488 489 490
3 491 492 493
3 494 495 496
3 497 498 499
3 500 501 502
3 503 504 505
