ply
format ascii 1.0
comment Created by Blender 2.77 (sub 0) - www.blender.org, source file: 'Tomb.blend'
element vertex 442
property float x
property float y
property float z
property float nx
property float ny
property float nz
property uchar red
property uchar green
property uchar blue
element face 224
property list uchar uint vertex_indices
end_header
0.195543 4.228314 0.145686 -0.499980 0.009069 0.865990 56 56 56
0.053150 2.439393 0.082210 -0.499980 0.009069 0.865990 56 56 56
0.195543 2.439393 0.164421 -0.499980 0.009069 0.865990 56 56 56
0.069375 4.228314 0.072843 -0.999959 0.009069 0.000000 56 56 56
0.053150 2.439393 -0.082210 -0.999959 0.009069 0.000000 56 56 56
0.053150 2.439393 0.082210 -0.999959 0.009069 0.000000 56 56 56
0.069375 4.228314 -0.072843 -0.499979 0.009069 -0.865990 56 56 56
0.195543 2.439393 -0.164421 -0.499979 0.009069 -0.865990 56 56 56
0.053150 2.439393 -0.082210 -0.499979 0.009069 -0.865990 56 56 56
0.195543 4.228314 -0.145686 0.499979 0.009069 -0.865990 56 56 56
0.337935 2.439393 -0.082210 0.499979 0.009069 -0.865990 56 56 56
0.195543 2.439393 -0.164421 0.499979 0.009069 -0.865990 56 56 56
0.195543 4.228314 -0.145686 -0.473371 -0.321993 -0.819903 56 56 56
0.020380 4.372372 -0.101130 -0.473371 -0.321993 -0.819903 56 56 56
0.195543 4.372372 -0.202260 -0.473371 -0.321993 -0.819903 56 56 56
0.321710 4.228314 -0.072843 0.999959 0.009069 -0.000000 56 56 56
0.337935 2.439393 0.082210 0.999959 0.009069 -0.000000 56 56 56
0.337935 2.439393 -0.082210 0.999959 0.009069 -0.000000 56 56 56
0.321710 4.228314 0.072843 0.499979 0.009069 0.865990 56 56 56
0.195543 2.439393 0.164421 0.499979 0.009069 0.865990 56 56 56
0.337935 2.439393 0.082210 0.499979 0.009069 0.865990 56 56 56
-0.078394 0.244258 0.158157 -0.000000 1.000000 0.000000 56 56 56
-0.169509 0.244258 -0.210763 -0.000000 1.000000 0.000000 56 56 56
-0.169509 0.244258 0.210763 -0.000000 1.000000 0.000000 56 56 56
0.416285 1.069480 0.127446 0.498964 0.064327 0.864232 56 56 56
0.195543 0.244258 0.316315 0.498964 0.064327 0.864232 56 56 56
0.469479 0.244258 0.158157 0.498964 0.064327 0.864232 56 56 56
0.416285 1.579099 0.127446 0.290978 0.813220 0.503988 56 56 56
0.195543 1.518007 0.353468 0.290978 0.813220 0.503988 56 56 56
0.501655 1.518007 0.176734 0.290978 0.813220 0.503988 56 56 56
0.416285 1.069480 -0.127446 0.997929 0.064327 -0.000000 56 56 56
0.469479 0.244258 0.158157 0.997929 0.064327 -0.000000 56 56 56
0.469479 0.244258 -0.158157 0.997929 0.064327 -0.000000 56 56 56
0.416285 1.579099 -0.127446 0.581956 0.813220 -0.000000 56 56 56
0.501655 1.518007 0.176734 0.581956 0.813220 -0.000000 56 56 56
0.501655 1.518007 -0.176734 0.581956 0.813220 -0.000000 56 56 56
0.195543 1.069480 -0.254892 0.498965 0.064327 -0.864232 56 56 56
0.469479 0.244258 -0.158157 0.498965 0.064327 -0.864232 56 56 56
0.195543 0.244258 -0.316315 0.498965 0.064327 -0.864232 56 56 56
0.195543 1.518007 -0.353468 0.290978 0.813220 -0.503989 56 56 56
0.416285 1.579099 -0.127446 0.290978 0.813220 -0.503989 56 56 56
0.501655 1.518007 -0.176734 0.290978 0.813220 -0.503989 56 56 56
-0.025200 1.069480 -0.127446 -0.498964 0.064327 -0.864232 56 56 56
0.195543 0.244258 -0.316315 -0.498964 0.064327 -0.864232 56 56 56
-0.078394 0.244258 -0.158157 -0.498964 0.064327 -0.864232 56 56 56
-0.025200 1.579099 -0.127446 -0.290978 0.813220 -0.503989 56 56 56
0.195543 1.518007 -0.353468 -0.290978 0.813220 -0.503989 56 56 56
-0.110570 1.518007 -0.176734 -0.290978 0.813220 -0.503989 56 56 56
-0.025200 1.069480 0.127446 -0.997929 0.064327 -0.000000 56 56 56
-0.078394 0.244258 -0.158157 -0.997929 0.064327 -0.000000 56 56 56
-0.078394 0.244258 0.158157 -0.997929 0.064327 -0.000000 56 56 56
-0.025200 1.579099 0.127446 -0.581956 0.813220 -0.000000 56 56 56
-0.110570 1.518007 -0.176734 -0.581956 0.813220 -0.000000 56 56 56
-0.110570 1.518007 0.176734 -0.581956 0.813220 -0.000000 56 56 56
0.195543 0.244258 0.316315 -0.498965 0.064327 0.864232 56 56 56
-0.025200 1.069480 0.127446 -0.498965 0.064327 0.864232 56 56 56
-0.078394 0.244258 0.158157 -0.498965 0.064327 0.864232 56 56 56
0.195543 1.518007 0.353468 -0.290978 0.813220 0.503988 56 56 56
-0.025200 1.579099 0.127446 -0.290978 0.813220 0.503988 56 56 56
-0.110570 1.518007 0.176734 -0.290978 0.813220 0.503988 56 56 56
0.195543 1.069480 0.254892 -0.290978 -0.813220 0.503989 56 56 56
-0.110570 1.130572 0.176734 -0.290978 -0.813220 0.503989 56 56 56
-0.025200 1.069480 0.127446 -0.290978 -0.813220 0.503989 56 56 56
0.195543 1.130573 0.353468 -0.500000 0.000000 0.866025 56 56 56
-0.110570 1.518007 0.176734 -0.500000 0.000000 0.866025 56 56 56
-0.110570 1.130572 0.176734 -0.500000 0.000000 0.866025 56 56 56
-0.110570 1.130572 0.176734 -0.581956 -0.813220 -0.000000 56 56 56
-0.025200 1.069480 -0.127446 -0.581956 -0.813220 -0.000000 56 56 56
-0.025200 1.069480 0.127446 -0.581956 -0.813220 -0.000000 56 56 56
-0.110570 1.518007 0.176734 -1.000000 0.000000 -0.000000 56 56 56
-0.110570 1.130572 -0.176734 -1.000000 0.000000 -0.000000 56 56 56
-0.110570 1.130572 0.176734 -1.000000 0.000000 -0.000000 56 56 56
-0.110570 1.130572 -0.176734 -0.290978 -0.813220 -0.503989 56 56 56
0.195543 1.069480 -0.254892 -0.290978 -0.813220 -0.503989 56 56 56
-0.025200 1.069480 -0.127446 -0.290978 -0.813220 -0.503989 56 56 56
-0.110570 1.518007 -0.176734 -0.500000 0.000000 -0.866025 56 56 56
0.195543 1.130572 -0.353468 -0.500000 0.000000 -0.866025 56 56 56
-0.110570 1.130572 -0.176734 -0.500000 0.000000 -0.866025 56 56 56
0.195543 1.130572 -0.353468 0.290978 -0.813220 -0.503989 56 56 56
0.416285 1.069480 -0.127446 0.290978 -0.813220 -0.503989 56 56 56
0.195543 1.069480 -0.254892 0.290978 -0.813220 -0.503989 56 56 56
0.195543 1.518007 -0.353468 0.500000 0.000000 -0.866025 56 56 56
0.501655 1.130572 -0.176734 0.500000 0.000000 -0.866025 56 56 56
0.195543 1.130572 -0.353468 0.500000 0.000000 -0.866025 56 56 56
0.501655 1.130572 -0.176734 0.581956 -0.813220 0.000000 56 56 56
0.416285 1.069480 0.127446 0.581956 -0.813220 0.000000 56 56 56
0.416285 1.069480 -0.127446 0.581956 -0.813220 0.000000 56 56 56
0.501655 1.518007 -0.176734 1.000000 -0.000000 0.000000 56 56 56
0.501655 1.130572 0.176734 1.000000 -0.000000 0.000000 56 56 56
0.501655 1.130572 -0.176734 1.000000 -0.000000 0.000000 56 56 56
0.501655 1.130572 0.176734 0.290978 -0.813220 0.503989 56 56 56
0.195543 1.069480 0.254892 0.290978 -0.813220 0.503989 56 56 56
0.416285 1.069480 0.127446 0.290978 -0.813220 0.503989 56 56 56
0.501655 1.518007 0.176734 0.500000 0.000000 0.866025 56 56 56
0.195543 1.130573 0.353468 0.500000 0.000000 0.866025 56 56 56
0.501655 1.130572 0.176734 0.500000 0.000000 0.866025 56 56 56
-0.078394 0.014566 0.158157 -0.000000 -1.000000 -0.000000 56 56 56
0.469479 0.014566 -0.158157 -0.000000 -1.000000 -0.000000 56 56 56
0.469479 0.014566 0.158157 -0.000000 -1.000000 -0.000000 56 56 56
0.195543 0.244258 -0.316315 0.000000 1.000000 0.000000 56 56 56
-0.078394 0.244258 -0.158157 0.000000 1.000000 0.000000 56 56 56
0.195543 0.014566 -0.316315 0.000000 -1.000000 0.000000 56 56 56
-0.169509 0.014566 -0.210763 0.000000 -1.000000 0.000000 56 56 56
0.195543 0.014566 -0.421526 0.000000 -1.000000 0.000000 56 56 56
0.195543 0.244258 0.316315 -0.000000 1.000000 0.000000 56 56 56
0.195543 0.244258 0.421526 -0.000000 1.000000 0.000000 56 56 56
0.469479 0.244258 -0.158157 -0.000000 1.000000 0.000000 56 56 56
0.195543 0.244258 -0.421526 -0.000000 1.000000 0.000000 56 56 56
0.195543 0.014566 0.316315 -0.000000 -1.000000 -0.000000 56 56 56
0.560594 0.014566 0.210763 -0.000000 -1.000000 -0.000000 56 56 56
0.195543 0.014566 0.421526 -0.000000 -1.000000 -0.000000 56 56 56
-0.169509 0.244258 -0.210763 -1.000000 -0.000000 -0.000000 56 56 56
-0.169509 0.014566 0.210763 -1.000000 -0.000000 -0.000000 56 56 56
-0.169509 0.244258 0.210763 -1.000000 -0.000000 -0.000000 56 56 56
0.560594 0.244258 0.210763 1.000000 0.000000 0.000000 56 56 56
0.560594 0.014566 -0.210763 1.000000 0.000000 0.000000 56 56 56
0.560594 0.244258 -0.210763 1.000000 0.000000 0.000000 56 56 56
-0.169509 0.244258 0.210763 -0.500000 0.000000 0.866025 56 56 56
0.195543 0.014566 0.421526 -0.500000 0.000000 0.866025 56 56 56
0.195543 0.244258 0.421526 -0.500000 0.000000 0.866025 56 56 56
0.195543 0.244258 -0.421526 -0.500000 -0.000000 -0.866025 56 56 56
-0.169509 0.014566 -0.210763 -0.500000 -0.000000 -0.866025 56 56 56
-0.169509 0.244258 -0.210763 -0.500000 -0.000000 -0.866025 56 56 56
0.195543 0.244258 0.421526 0.500000 0.000000 0.866025 56 56 56
0.560594 0.014566 0.210763 0.500000 0.000000 0.866025 56 56 56
0.560594 0.244258 0.210763 0.500000 0.000000 0.866025 56 56 56
0.560594 0.244258 -0.210763 0.500000 0.000000 -0.866025 56 56 56
0.195543 0.014566 -0.421526 0.500000 0.000000 -0.866025 56 56 56
0.195543 0.244258 -0.421526 0.500000 0.000000 -0.866025 56 56 56
0.560594 0.014566 -0.210763 -0.000000 -1.000000 0.000000 56 56 56
-0.169509 0.014566 0.210763 0.000000 -1.000000 0.000000 56 56 56
-0.078394 0.014566 -0.158157 -0.000000 -1.000000 0.000000 56 56 56
0.560594 0.244258 0.210763 0.000000 1.000000 -0.000000 56 56 56
0.469479 0.244258 0.158157 0.000000 1.000000 -0.000000 56 56 56
0.560594 0.244258 -0.210763 0.000000 1.000000 0.000000 56 56 56
0.337935 2.439393 0.082210 0.497939 0.090699 0.862456 56 56 56
0.195543 1.579099 0.254892 0.497939 0.090699 0.862456 56 56 56
0.416285 1.579099 0.127446 0.497939 0.090699 0.862456 56 56 56
0.337935 2.439393 -0.082210 0.995878 0.090699 -0.000000 56 56 56
0.416285 1.579099 0.127446 0.995878 0.090699 -0.000000 56 56 56
0.416285 1.579099 -0.127446 0.995878 0.090699 -0.000000 56 56 56
0.195543 2.439393 -0.164421 0.497939 0.090699 -0.862456 56 56 56
0.416285 1.579099 -0.127446 0.497939 0.090699 -0.862456 56 56 56
0.195543 1.579099 -0.254892 0.497939 0.090699 -0.862456 56 56 56
0.053150 2.439393 -0.082210 -0.497939 0.090699 -0.862456 56 56 56
0.195543 1.579099 -0.254892 -0.497939 0.090699 -0.862456 56 56 56
-0.025200 1.579099 -0.127446 -0.497939 0.090699 -0.862456 56 56 56
0.053150 2.439393 0.082210 -0.995878 0.090699 0.000000 56 56 56
-0.025200 1.579099 -0.127446 -0.995878 0.090699 0.000000 56 56 56
-0.025200 1.579099 0.127446 -0.995878 0.090699 0.000000 56 56 56
0.195543 1.579099 0.254892 -0.497939 0.090699 0.862456 56 56 56
0.053150 2.439393 0.082210 -0.497939 0.090699 0.862456 56 56 56
-0.025200 1.579099 0.127446 -0.497939 0.090699 0.862456 56 56 56
0.370705 4.372372 -0.101130 1.000000 -0.000000 0.000000 56 56 56
0.370705 4.453786 0.101130 1.000000 -0.000000 0.000000 56 56 56
0.370705 4.372372 0.101130 1.000000 -0.000000 0.000000 56 56 56
0.321710 4.228314 0.072843 0.473371 -0.321994 0.819902 56 56 56
0.195543 4.372372 0.202260 0.473371 -0.321994 0.819902 56 56 56
0.195543 4.228314 0.145686 0.473371 -0.321994 0.819902 56 56 56
0.321710 4.228314 -0.072843 0.473371 -0.321994 -0.819902 56 56 56
0.195543 4.372372 -0.202260 0.473371 -0.321994 -0.819902 56 56 56
0.370705 4.372372 -0.101130 0.473371 -0.321994 -0.819902 56 56 56
0.069375 4.228314 0.072843 -0.946742 -0.321993 -0.000000 56 56 56
0.020380 4.372372 -0.101130 -0.946742 -0.321993 -0.000000 56 56 56
0.069375 4.228314 -0.072843 -0.946742 -0.321993 -0.000000 56 56 56
0.321710 4.228314 -0.072843 0.946742 -0.321994 0.000000 56 56 56
0.370705 4.372372 0.101130 0.946742 -0.321994 0.000000 56 56 56
0.321710 4.228314 0.072843 0.946742 -0.321994 0.000000 56 56 56
0.195543 4.228314 0.145686 -0.473371 -0.321994 0.819902 56 56 56
0.020380 4.372372 0.101130 -0.473371 -0.321994 0.819902 56 56 56
0.069375 4.228314 0.072843 -0.473371 -0.321994 0.819902 56 56 56
0.370705 4.453786 0.101130 0.316692 0.773838 0.548526 56 56 56
0.195543 4.481238 0.163532 0.316692 0.773838 0.548526 56 56 56
0.195543 4.453786 0.202260 0.316692 0.773838 0.548526 56 56 56
0.020380 4.372372 -0.101130 -0.500000 0.000000 -0.866026 56 56 56
0.195543 4.453786 -0.202260 -0.500000 0.000000 -0.866026 56 56 56
0.195543 4.372372 -0.202260 -0.500000 0.000000 -0.866026 56 56 56
0.195543 4.372372 0.202260 -0.500000 0.000000 0.866025 56 56 56
0.020380 4.453786 0.101130 -0.500000 0.000000 0.866025 56 56 56
0.020380 4.372372 0.101130 -0.500000 0.000000 0.866025 56 56 56
0.370705 4.372372 0.101130 0.500000 -0.000000 0.866025 56 56 56
0.195543 4.453786 0.202260 0.500000 -0.000000 0.866025 56 56 56
0.195543 4.372372 0.202260 0.500000 -0.000000 0.866025 56 56 56
0.195543 4.372372 -0.202260 0.500000 0.000000 -0.866025 56 56 56
0.370705 4.453786 -0.101130 0.500000 0.000000 -0.866025 56 56 56
0.370705 4.372372 -0.101130 0.500000 0.000000 -0.866025 56 56 56
0.020380 4.372372 0.101130 -1.000000 0.000000 -0.000000 56 56 56
0.020380 4.453786 -0.101130 -1.000000 0.000000 -0.000000 56 56 56
0.020380 4.372372 -0.101130 -1.000000 0.000000 -0.000000 56 56 56
0.195543 4.453786 -0.202260 0.316692 0.773838 -0.548526 56 56 56
0.337166 4.481238 -0.081766 0.316692 0.773838 -0.548526 56 56 56
0.370705 4.453786 -0.101130 0.316692 0.773838 -0.548526 56 56 56
0.020380 4.453786 0.101130 -0.714597 0.699536 -0.000000 56 56 56
0.053920 4.488048 -0.081766 -0.714597 0.699536 -0.000000 56 56 56
0.020380 4.453786 -0.101130 -0.714597 0.699536 -0.000000 56 56 56
0.370705 4.453786 0.101130 0.633384 0.773838 0.000000 56 56 56
0.337166 4.481238 -0.081766 0.633384 0.773838 0.000000 56 56 56
0.337166 4.481238 0.081766 0.633384 0.773838 0.000000 56 56 56
0.195543 4.453786 -0.202260 -0.357299 0.699535 -0.618860 56 56 56
0.053920 4.488048 -0.081766 -0.357299 0.699535 -0.618860 56 56 56
0.195543 4.488048 -0.163532 -0.357299 0.699535 -0.618860 56 56 56
0.020380 4.453786 0.101130 -0.336275 0.690896 0.639986 56 56 56
0.195543 4.481238 0.163532 -0.336275 0.690896 0.639986 56 56 56
0.053920 4.488048 0.081766 -0.336275 0.690896 0.639986 56 56 56
0.053920 4.488048 0.081766 -0.450826 -0.892612 -0.000000 255 240 162
-0.027640 4.529241 -0.128855 -0.450826 -0.892612 -0.000000 255 240 162
0.053920 4.488048 -0.081766 -0.450826 -0.892612 -0.000000 255 240 162
-0.027641 4.529241 0.128855 -0.497617 -0.097522 0.861897 255 240 162
0.195543 5.345415 0.350058 -0.497617 -0.097522 0.861897 255 240 162
-0.107617 5.345415 0.175029 -0.497617 -0.097522 0.861897 255 240 162
0.337166 4.481238 0.081766 0.507226 -0.861813 0.000000 255 240 162
0.418726 4.529241 -0.128855 0.507226 -0.861813 0.000000 255 240 162
0.418726 4.529241 0.128855 0.507226 -0.861813 0.000000 255 240 162
0.053920 4.488048 -0.081766 -0.225413 -0.892612 -0.390427 255 240 162
0.195543 4.529241 -0.257710 -0.225413 -0.892612 -0.390427 255 240 162
0.195543 4.488048 -0.163532 -0.225413 -0.892612 -0.390427 255 240 162
0.053920 4.488048 0.081766 -0.225413 -0.892612 0.390427 255 240 162
0.195543 4.529241 0.257710 -0.225413 -0.892612 0.390427 255 240 162
-0.027641 4.529241 0.128855 -0.225413 -0.892612 0.390427 255 240 162
0.195543 4.481238 0.163532 0.253613 -0.861813 0.439271 255 240 162
0.418726 4.529241 0.128855 0.253613 -0.861813 0.439271 255 240 162
0.195543 4.529241 0.257710 0.253613 -0.861813 0.439271 255 240 162
0.195543 4.488048 -0.163532 0.230291 -0.852180 -0.469847 255 240 162
0.418726 4.529241 -0.128855 0.230291 -0.852180 -0.469847 255 240 162
0.337166 4.481238 -0.081766 0.230291 -0.852180 -0.469847 255 240 162
0.195543 5.471640 -0.350058 0.331186 0.749176 -0.573630 56 56 56
0.566291 5.411882 -0.214051 0.331186 0.749176 -0.573630 56 56 56
0.195543 5.411882 -0.428103 0.331186 0.749176 -0.573630 56 56 56
0.418726 4.529241 0.128855 0.497617 -0.097522 0.861897 255 240 162
0.195543 5.345415 0.350058 0.497617 -0.097522 0.861897 255 240 162
0.195543 4.529241 0.257710 0.497617 -0.097522 0.861897 255 240 162
0.195543 4.529241 -0.257710 0.497617 -0.097522 -0.861897 255 240 162
0.498702 5.345415 -0.175029 0.497617 -0.097522 -0.861897 255 240 162
0.418726 4.529241 -0.128855 0.497617 -0.097522 -0.861897 255 240 162
-0.027641 4.529241 0.128855 -0.995233 -0.097522 -0.000000 255 240 162
-0.107617 5.345415 -0.175029 -0.995233 -0.097522 -0.000000 255 240 162
-0.027640 4.529241 -0.128855 -0.995233 -0.097522 -0.000000 255 240 162
0.418726 4.529241 -0.128855 0.995233 -0.097522 0.000000 255 240 162
0.498702 5.345415 0.175029 0.995233 -0.097522 0.000000 255 240 162
0.418726 4.529241 0.128855 0.995233 -0.097522 0.000000 255 240 162
-0.027640 4.529241 -0.128855 -0.497617 -0.097522 -0.861898 255 240 162
0.195543 5.345415 -0.350058 -0.497617 -0.097522 -0.861898 255 240 162
0.195543 4.529241 -0.257710 -0.497617 -0.097522 -0.861898 255 240 162
0.195543 5.471640 0.350058 0.351534 0.711123 0.608874 56 56 56
0.403554 5.565710 0.120095 0.351534 0.711123 0.608874 56 56 56
0.195543 5.565710 0.240191 0.351534 0.711123 0.608874 56 56 56
-0.107617 5.345415 0.175029 0.300309 -0.953842 0.000000 56 56 56
-0.175206 5.324135 -0.214052 0.300309 -0.953842 0.000000 56 56 56
-0.107617 5.345415 -0.175029 0.300309 -0.953842 0.000000 56 56 56
0.498702 5.345415 0.175029 -0.300309 -0.953842 -0.000000 56 56 56
0.566291 5.324135 -0.214051 -0.300309 -0.953842 -0.000000 56 56 56
0.566291 5.324135 0.214052 -0.300309 -0.953842 -0.000000 56 56 56
0.195543 5.471640 -0.350058 -0.331186 0.749176 -0.573630 56 56 56
-0.175206 5.411882 -0.214052 -0.331186 0.749176 -0.573630 56 56 56
-0.107617 5.471640 -0.175029 -0.331186 0.749176 -0.573630 56 56 56
0.195543 5.345415 0.350058 0.150154 -0.953842 -0.260075 56 56 56
-0.175206 5.324135 0.214052 0.150154 -0.953842 -0.260075 56 56 56
-0.107617 5.345415 0.175029 0.150154 -0.953842 -0.260075 56 56 56
0.195543 5.471640 0.350058 0.331185 0.749176 0.573630 56 56 56
0.566291 5.411882 0.214052 0.331185 0.749176 0.573630 56 56 56
0.498702 5.471640 0.175029 0.331185 0.749176 0.573630 56 56 56
0.566291 5.324135 -0.214051 1.000000 -0.000000 0.000000 56 56 56
0.566291 5.411882 0.214052 1.000000 -0.000000 0.000000 56 56 56
0.566291 5.324135 0.214052 1.000000 -0.000000 0.000000 56 56 56
0.195543 5.324135 -0.428103 -0.500000 0.000000 -0.866025 56 56 56
-0.175206 5.411882 -0.214052 -0.500000 0.000000 -0.866025 56 56 56
0.195543 5.411882 -0.428103 -0.500000 0.000000 -0.866025 56 56 56
0.195543 5.324135 0.428103 -0.500000 0.000000 0.866025 56 56 56
-0.175206 5.411882 0.214052 -0.500000 0.000000 0.866025 56 56 56
-0.175206 5.324135 0.214052 -0.500000 0.000000 0.866025 56 56 56
0.566291 5.324135 0.214052 0.500000 -0.000000 0.866025 56 56 56
0.195543 5.411882 0.428103 0.500000 -0.000000 0.866025 56 56 56
0.195543 5.324135 0.428103 0.500000 -0.000000 0.866025 56 56 56
0.195543 5.324135 -0.428103 0.500000 0.000000 -0.866025 56 56 56
0.566291 5.411882 -0.214051 0.500000 0.000000 -0.866025 56 56 56
0.566291 5.324135 -0.214051 0.500000 0.000000 -0.866025 56 56 56
-0.175206 5.324135 0.214052 -1.000000 0.000001 -0.000000 56 56 56
-0.175206 5.411882 -0.214052 -1.000000 0.000001 -0.000000 56 56 56
-0.175206 5.324135 -0.214052 -1.000000 0.000001 -0.000000 56 56 56
0.195543 5.345415 0.350058 -0.150154 -0.953842 -0.260075 56 56 56
0.566291 5.324135 0.214052 -0.150154 -0.953842 -0.260075 56 56 56
0.195543 5.324135 0.428103 -0.150154 -0.953842 -0.260075 56 56 56
0.195543 5.471640 0.350058 -0.331186 0.749176 0.573630 56 56 56
-0.175206 5.411882 0.214052 -0.331186 0.749176 0.573630 56 56 56
0.195543 5.411882 0.428103 -0.331186 0.749176 0.573630 56 56 56
-0.107617 5.345415 -0.175029 0.150154 -0.953842 0.260075 56 56 56
0.195543 5.324135 -0.428103 0.150154 -0.953842 0.260075 56 56 56
0.195543 5.345415 -0.350058 0.150154 -0.953842 0.260075 56 56 56
0.498702 5.471640 0.175029 0.662371 0.749176 0.000000 56 56 56
0.566291 5.411882 -0.214051 0.662371 0.749176 0.000000 56 56 56
0.498702 5.471640 -0.175029 0.662371 0.749176 0.000000 56 56 56
-0.107617 5.471640 0.175029 -0.662371 0.749176 -0.000000 56 56 56
-0.175206 5.411882 -0.214052 -0.662371 0.749176 -0.000000 56 56 56
-0.175206 5.411882 0.214052 -0.662371 0.749176 -0.000000 56 56 56
0.195543 5.345415 -0.350058 -0.150154 -0.953842 0.260075 56 56 56
0.566291 5.324135 -0.214051 -0.150154 -0.953842 0.260075 56 56 56
0.498702 5.345415 -0.175029 -0.150154 -0.953842 0.260075 56 56 56
0.195543 5.565710 0.240191 0.000000 1.000000 -0.000000 56 56 56
0.403554 5.565710 -0.120095 0.000000 1.000000 -0.000000 56 56 56
-0.012469 5.565710 -0.120095 0.000000 1.000000 -0.000000 56 56 56
0.195543 5.471640 -0.350058 0.351534 0.711123 -0.608874 56 56 56
0.403554 5.565710 -0.120095 0.351534 0.711123 -0.608874 56 56 56
0.498702 5.471640 -0.175029 0.351534 0.711123 -0.608874 56 56 56
-0.107617 5.471640 -0.175029 -0.703067 0.711123 -0.000000 56 56 56
-0.012469 5.565710 0.120095 -0.703067 0.711123 -0.000000 56 56 56
-0.012469 5.565710 -0.120095 -0.703067 0.711123 -0.000000 56 56 56
0.498702 5.471640 -0.175029 0.703067 0.711124 0.000000 56 56 56
0.403554 5.565710 0.120095 0.703067 0.711124 0.000000 56 56 56
0.498702 5.471640 0.175029 0.703067 0.711124 0.000000 56 56 56
0.195543 5.471640 -0.350058 -0.351534 0.711123 -0.608874 56 56 56
-0.012469 5.565710 -0.120095 -0.351534 0.711123 -0.608874 56 56 56
0.195543 5.565710 -0.240191 -0.351534 0.711123 -0.608874 56 56 56
0.195543 5.471640 0.350058 -0.351534 0.711123 0.608874 56 56 56
-0.012469 5.565710 0.120095 -0.351534 0.711123 0.608874 56 56 56
-0.107617 5.471640 0.175029 -0.351534 0.711123 0.608874 56 56 56
0.069375 4.228314 0.072843 -0.499980 0.009069 0.865990 56 56 56
0.069375 4.228314 -0.072843 -0.999959 0.009069 -0.000000 56 56 56
0.195543 4.228314 -0.145686 -0.499979 0.009069 -0.865990 56 56 56
0.321710 4.228314 -0.072843 0.499979 0.009069 -0.865990 56 56 56
0.069375 4.228314 -0.072843 -0.473371 -0.321993 -0.819903 56 56 56
0.321710 4.228314 0.072843 0.999959 0.009069 0.000000 56 56 56
0.195543 4.228314 0.145686 0.499979 0.009069 0.865990 56 56 56
0.195543 1.069480 0.254892 0.498964 0.064327 0.864232 56 56 56
0.416285 1.579099 0.127446 0.290979 0.813220 0.503989 56 56 56
0.195543 1.579099 0.254892 0.290979 0.813220 0.503989 56 56 56
0.195543 1.518007 0.353468 0.290979 0.813220 0.503989 56 56 56
0.416285 1.069480 0.127446 0.997929 0.064327 0.000000 56 56 56
0.416285 1.579099 0.127446 0.581956 0.813220 0.000000 56 56 56
0.195543 1.069480 -0.254892 0.498964 0.064327 -0.864232 56 56 56
0.416285 1.069480 -0.127446 0.498964 0.064327 -0.864232 56 56 56
0.469479 0.244258 -0.158157 0.498964 0.064327 -0.864232 56 56 56
0.195543 1.579099 -0.254892 0.290978 0.813220 -0.503989 56 56 56
0.195543 1.069480 -0.254892 -0.498964 0.064327 -0.864232 56 56 56
0.195543 1.579099 -0.254892 -0.290978 0.813220 -0.503989 56 56 56
-0.025200 1.069480 -0.127446 -0.997929 0.064327 0.000000 56 56 56
-0.025200 1.579099 -0.127446 -0.581956 0.813220 0.000000 56 56 56
0.195543 1.069480 0.254892 -0.498965 0.064327 0.864232 56 56 56
0.195543 1.518007 0.353468 -0.290979 0.813220 0.503989 56 56 56
0.195543 1.579099 0.254892 -0.290979 0.813220 0.503989 56 56 56
-0.025200 1.579099 0.127446 -0.290979 0.813220 0.503989 56 56 56
0.195543 1.069480 0.254892 -0.290978 -0.813219 0.503990 56 56 56
0.195543 1.130573 0.353468 -0.290978 -0.813219 0.503990 56 56 56
-0.110570 1.130572 0.176734 -0.290978 -0.813219 0.503990 56 56 56
0.195543 1.518007 0.353468 -0.500000 0.000000 0.866025 56 56 56
-0.110570 1.130572 -0.176734 -0.581956 -0.813220 -0.000000 56 56 56
-0.110570 1.518007 -0.176734 -1.000000 0.000000 -0.000000 56 56 56
0.195543 1.130572 -0.353468 -0.290978 -0.813220 -0.503989 56 56 56
0.195543 1.518007 -0.353468 -0.500000 0.000000 -0.866025 56 56 56
0.501655 1.130572 -0.176734 0.290978 -0.813220 -0.503989 56 56 56
0.501655 1.518007 -0.176734 0.500000 0.000000 -0.866025 56 56 56
0.501655 1.130572 0.176734 0.581956 -0.813220 0.000000 56 56 56
0.501655 1.518007 0.176734 1.000000 -0.000000 0.000000 56 56 56
0.501655 1.130572 0.176734 0.290978 -0.813219 0.503990 56 56 56
0.195543 1.130573 0.353468 0.290978 -0.813219 0.503990 56 56 56
0.195543 1.069480 0.254892 0.290978 -0.813219 0.503990 56 56 56
0.195543 1.518007 0.353468 0.500000 -0.000000 0.866025 56 56 56
-0.169509 0.014566 -0.210763 -1.000000 0.000000 -0.000000 56 56 56
0.560594 0.014566 0.210763 1.000000 -0.000000 0.000000 56 56 56
-0.169509 0.014566 0.210763 -0.500000 0.000000 0.866025 56 56 56
0.195543 0.014566 -0.421526 -0.500000 0.000000 -0.866025 56 56 56
0.195543 0.014566 0.421526 0.500000 -0.000000 0.866025 56 56 56
0.560594 0.014566 -0.210763 0.500000 0.000000 -0.866025 56 56 56
0.195543 2.439393 0.164421 0.497939 0.090699 0.862456 56 56 56
0.337935 2.439393 0.082210 0.995878 0.090699 0.000000 56 56 56
0.337935 2.439393 -0.082210 0.497939 0.090699 -0.862456 56 56 56
0.195543 2.439393 -0.164421 -0.497939 0.090699 -0.862456 56 56 56
0.053150 2.439393 -0.082210 -0.995878 0.090699 0.000000 56 56 56
0.195543 2.439393 0.164421 -0.497939 0.090699 0.862456 56 56 56
0.370705 4.453786 -0.101130 1.000000 0.000000 0.000000 56 56 56
0.370705 4.372372 0.101130 0.473371 -0.321994 0.819902 56 56 56
0.195543 4.228314 -0.145686 0.473371 -0.321994 -0.819902 56 56 56
0.020380 4.372372 0.101130 -0.946742 -0.321993 -0.000000 56 56 56
0.370705 4.372372 -0.101130 0.946742 -0.321994 0.000000 56 56 56
0.195543 4.228314 0.145686 -0.473371 -0.321993 0.819903 56 56 56
0.195543 4.372372 0.202260 -0.473371 -0.321993 0.819903 56 56 56
0.020380 4.372372 0.101130 -0.473371 -0.321993 0.819903 56 56 56
0.337166 4.481238 0.081766 0.316692 0.773838 0.548526 56 56 56
0.020380 4.453786 -0.101130 -0.500000 -0.000000 -0.866026 56 56 56
0.195543 4.453786 0.202260 -0.500000 0.000000 0.866025 56 56 56
0.370705 4.453786 0.101130 0.500000 0.000000 0.866025 56 56 56
0.195543 4.453786 -0.202260 0.500000 0.000000 -0.866025 56 56 56
0.020380 4.453786 0.101130 -1.000000 -0.000000 -0.000000 56 56 56
0.195543 4.453786 -0.202260 0.386107 0.690895 -0.611216 56 56 56
0.195543 4.488048 -0.163532 0.386107 0.690895 -0.611216 56 56 56
0.337166 4.481238 -0.081766 0.386107 0.690895 -0.611216 56 56 56
0.053920 4.488048 0.081766 -0.714597 0.699536 -0.000000 56 56 56
0.370705 4.453786 -0.101130 0.633384 0.773838 -0.000000 56 56 56
0.195543 4.453786 -0.202260 -0.357299 0.699536 -0.618860 56 56 56
0.020380 4.453786 -0.101130 -0.357299 0.699536 -0.618860 56 56 56
0.053920 4.488048 -0.081766 -0.357299 0.699536 -0.618860 56 56 56
0.020380 4.453786 0.101130 -0.316692 0.773838 0.548526 56 56 56
0.195543 4.453786 0.202260 -0.316692 0.773838 0.548526 56 56 56
0.195543 4.481238 0.163532 -0.316692 0.773838 0.548526 56 56 56
-0.027641 4.529241 0.128855 -0.450826 -0.892612 -0.000000 255 240 162
0.195543 4.529241 0.257710 -0.497617 -0.097522 0.861897 255 240 162
0.337166 4.481238 -0.081766 0.507226 -0.861813 0.000000 255 240 162
-0.027640 4.529241 -0.128855 -0.225413 -0.892612 -0.390427 255 240 162
0.053920 4.488048 0.081766 -0.291754 -0.852180 0.434360 255 240 162
0.195543 4.481238 0.163532 -0.291754 -0.852180 0.434360 255 240 162
0.195543 4.529241 0.257710 -0.291754 -0.852180 0.434360 255 240 162
0.337166 4.481238 0.081766 0.253613 -0.861813 0.439271 255 240 162
0.195543 4.488048 -0.163532 0.225413 -0.892612 -0.390427 255 240 162
0.195543 4.529241 -0.257710 0.225413 -0.892612 -0.390427 255 240 162
0.418726 4.529241 -0.128855 0.225413 -0.892612 -0.390427 255 240 162
0.498702 5.471640 -0.175029 0.331186 0.749176 -0.573630 56 56 56
0.498702 5.345415 0.175029 0.497617 -0.097522 0.861897 255 240 162
0.195543 5.345415 -0.350058 0.497617 -0.097522 -0.861897 255 240 162
-0.107617 5.345415 0.175029 -0.995233 -0.097522 -0.000000 255 240 162
0.498702 5.345415 -0.175029 0.995233 -0.097522 0.000000 255 240 162
-0.027640 4.529241 -0.128855 -0.497616 -0.097522 -0.861897 255 240 162
-0.107617 5.345415 -0.175029 -0.497616 -0.097522 -0.861897 255 240 162
0.195543 5.345415 -0.350058 -0.497616 -0.097522 -0.861897 255 240 162
0.498702 5.471640 0.175029 0.351534 0.711123 0.608874 56 56 56
-0.175206 5.324135 0.214052 0.300309 -0.953842 0.000000 56 56 56
0.498702 5.345415 -0.175029 -0.300309 -0.953842 0.000000 56 56 56
0.195543 5.471640 -0.350058 -0.331185 0.749176 -0.573630 56 56 56
0.195543 5.411882 -0.428103 -0.331185 0.749176 -0.573630 56 56 56
-0.175206 5.411882 -0.214052 -0.331185 0.749176 -0.573630 56 56 56
0.195543 5.324135 0.428103 0.150154 -0.953842 -0.260075 56 56 56
0.195543 5.411882 0.428103 0.331185 0.749176 0.573630 56 56 56
0.566291 5.411882 -0.214051 1.000000 0.000000 0.000000 56 56 56
-0.175206 5.324135 -0.214052 -0.500000 0.000000 -0.866025 56 56 56
0.195543 5.411882 0.428103 -0.500000 0.000000 0.866025 56 56 56
0.566291 5.411882 0.214052 0.500000 0.000000 0.866025 56 56 56
0.195543 5.411882 -0.428103 0.500000 0.000000 -0.866025 56 56 56
-0.175206 5.411882 0.214052 -1.000000 0.000001 -0.000000 56 56 56
0.498702 5.345415 0.175029 -0.150154 -0.953842 -0.260075 56 56 56
0.195543 5.471640 0.350058 -0.331185 0.749176 0.573630 56 56 56
-0.107617 5.471640 0.175029 -0.331185 0.749176 0.573630 56 56 56
-0.175206 5.411882 0.214052 -0.331185 0.749176 0.573630 56 56 56
-0.175206 5.324135 -0.214052 0.150154 -0.953842 0.260075 56 56 56
0.566291 5.411882 0.214052 0.662371 0.749176 -0.000000 56 56 56
-0.107617 5.471640 -0.175029 -0.662371 0.749176 -0.000000 56 56 56
0.195543 5.324135 -0.428103 -0.150154 -0.953842 0.260075 56 56 56
-0.012469 5.565710 0.120095 0.000000 1.000000 0.000000 56 56 56
0.403554 5.565710 0.120095 0.000000 1.000000 -0.000000 56 56 56
0.195543 5.565710 -0.240191 -0.000000 1.000000 0.000000 56 56 56
0.195543 5.565710 -0.240191 0.351534 0.711123 -0.608874 56 56 56
-0.107617 5.471640 0.175029 -0.703067 0.711123 -0.000000 56 56 56
0.403554 5.565710 -0.120095 0.703067 0.711124 0.000000 56 56 56
-0.107617 5.471640 -0.175029 -0.351534 0.711123 -0.608874 56 56 56
0.195543 5.565710 0.240191 -0.351534 0.711123 0.608874 56 56 56
3 0 1 2
3 3 4 5
3 6 7 8
3 9 10 11
3 12 13 14
3 15 16 17
3 18 19 20
3 21 22 23
3 24 25 26
3 27 28 29
3 30 31 32
3 33 34 35
3 36 37 38
3 39 40 41
3 42 43 44
3 45 46 47
3 48 49 50
3 51 52 53
3 54 55 56
3 57 58 59
3 60 61 62
3 63 64 65
3 66 67 68
3 69 70 71
3 72 73 74
3 75 76 77
3 78 79 80
3 81 82 83
3 84 85 86
3 87 88 89
3 90 91 92
3 93 94 95
3 96 97 98
3 99 22 100
3 101 102 103
3 104 23 105
3 106 107 99
3 108 109 110
3 111 112 113
3 114 115 116
3 117 118 119
3 120 121 122
3 123 124 125
3 126 127 128
3 97 103 129
3 108 130 96
3 97 109 98
3 96 102 131
3 104 132 133
3 106 132 134
3 135 136 137
3 138 139 140
3 141 142 143
3 144 145 146
3 147 148 149
3 150 151 152
3 153 154 155
3 156 157 158
3 159 160 161
3 162 163 164
3 165 166 167
3 168 169 170
3 171 172 173
3 174 175 176
3 177 178 179
3 180 181 182
3 183 184 185
3 186 187 188
3 189 190 191
3 192 193 194
3 195 196 197
3 198 199 200
3 201 202 203
3 204 205 206
3 207 208 209
3 210 211 212
3 213 214 215
3 216 217 218
3 219 220 221
3 222 223 224
3 225 226 227
3 228 229 230
3 231 232 233
3 234 235 236
3 237 238 239
3 240 241 242
3 243 244 245
3 246 247 248
3 249 250 251
3 252 253 254
3 255 256 257
3 258 259 260
3 261 262 263
3 264 265 266
3 267 268 269
3 270 271 272
3 273 274 275
3 276 277 278
3 279 280 281
3 282 283 284
3 285 286 287
3 288 289 290
3 291 292 293
3 294 295 296
3 297 298 299
3 300 301 302
3 303 304 305
3 306 307 308
3 309 310 311
3 312 313 314
3 0 315 1
3 3 316 4
3 6 317 7
3 9 318 10
3 12 319 13
3 15 320 16
3 18 321 19
3 21 100 22
3 24 322 25
3 323 324 325
3 30 326 31
3 33 327 34
3 328 329 330
3 39 331 40
3 42 332 43
3 45 333 46
3 48 334 49
3 51 335 52
3 54 336 55
3 337 338 339
3 340 341 342
3 63 343 64
3 66 344 67
3 69 345 70
3 72 346 73
3 75 347 76
3 78 348 79
3 81 349 82
3 84 350 85
3 87 351 88
3 352 353 354
3 93 355 94
3 98 108 96
3 96 131 101
3 101 97 96
3 99 107 22
3 101 131 102
3 104 21 23
3 106 134 107
3 108 98 109
3 111 356 112
3 114 357 115
3 117 358 118
3 120 359 121
3 123 360 124
3 126 361 127
3 97 101 103
3 108 110 130
3 97 129 109
3 96 130 102
3 104 105 132
3 106 133 132
3 135 362 136
3 138 363 139
3 141 364 142
3 144 365 145
3 147 366 148
3 150 367 151
3 153 368 154
3 156 369 157
3 159 370 160
3 162 371 163
3 165 372 166
3 373 374 375
3 171 376 172
3 174 377 175
3 177 378 178
3 180 379 181
3 183 380 184
3 186 381 187
3 382 383 384
3 192 385 193
3 195 386 196
3 387 388 389
3 390 391 392
3 204 393 205
3 207 394 208
3 210 395 211
3 213 396 214
3 397 398 399
3 219 400 220
3 401 402 403
3 225 404 226
3 228 405 229
3 231 406 232
3 234 407 235
3 237 408 238
3 409 410 411
3 243 412 244
3 246 413 247
3 249 414 250
3 415 416 417
3 255 418 256
3 258 419 259
3 261 420 262
3 264 421 265
3 267 422 268
3 270 423 271
3 273 424 274
3 276 425 277
3 279 426 280
3 427 428 429
3 285 430 286
3 288 431 289
3 291 432 292
3 294 433 295
3 299 434 297
3 297 435 298
3 298 436 299
3 300 437 301
3 303 438 304
3 306 439 307
3 309 440 310
3 312 441 313
