ply
format ascii 1.0
comment Created by Blender 2.77 (sub 0) - www.blender.org, source file: ''
element vertex 120
property float x
property float y
property float z
property float nx
property float ny
property float nz
property uchar red
property uchar green
property uchar blue
element face 60
property list uchar uint vertex_indices
end_header
-3.408459 -0.378123 3.408459 -0.000000 -1.000000 -0.000000 94 94 94
3.408460 -0.378123 -3.408459 -0.000000 -1.000000 -0.000000 94 94 94
3.408458 -0.378123 3.408461 -0.000000 -1.000000 -0.000000 94 94 94
-3.408458 0.378123 -3.408462 0.000000 1.000000 0.000000 94 94 94
2.990779 0.378123 -2.990777 0.000000 1.000000 0.000000 94 94 94
3.408461 0.378123 -3.408459 0.000000 1.000000 0.000000 94 94 94
3.408461 0.378123 -3.408459 0.000000 0.000000 -1.000000 94 94 94
-3.408458 0.204789 -3.408462 0.000000 0.000000 -1.000000 94 94 94
-3.408458 0.378123 -3.408462 0.000000 0.000000 -1.000000 94 94 94
3.408458 -0.378123 3.408461 -0.000000 0.000000 1.000000 94 94 94
-3.408459 -0.204789 3.408459 -0.000000 0.000000 1.000000 94 94 94
-3.408459 -0.378123 3.408459 -0.000000 0.000000 1.000000 94 94 94
-3.408459 -0.378123 -3.408460 0.000000 0.000000 -1.000000 94 94 94
3.408460 -0.204789 -3.408459 0.000000 0.000000 -1.000000 94 94 94
3.408460 -0.378123 -3.408459 0.000000 0.000000 -1.000000 94 94 94
3.408460 -0.378123 -3.408459 1.000000 -0.000000 0.000000 94 94 94
3.408458 -0.204789 3.408461 1.000000 -0.000000 0.000000 94 94 94
3.408458 -0.378123 3.408461 1.000000 -0.000000 0.000000 94 94 94
-2.990776 0.378123 -2.990780 -0.000000 0.000000 1.000000 94 94 94
2.990779 0.145572 -2.990777 -0.000000 0.000000 1.000000 94 94 94
2.990779 0.378123 -2.990777 -0.000000 0.000000 1.000000 94 94 94
-2.990779 0.378123 2.990777 0.000000 1.000000 0.000000 94 94 94
-2.990776 0.378123 -2.990780 0.000000 1.000000 0.000000 94 94 94
3.408459 0.378123 3.408459 -0.000000 1.000000 0.000000 94 94 94
2.990778 0.378123 2.990778 -0.000000 1.000000 0.000000 94 94 94
-3.408461 0.378123 3.408458 0.000000 1.000000 -0.000000 94 94 94
2.990778 0.145572 2.990778 -0.000000 1.000000 0.000000 56 56 56
-2.990776 0.145572 -2.990780 -0.000000 1.000000 0.000000 56 56 56
-2.990779 0.145572 2.990777 -0.000000 1.000000 0.000000 56 56 56
-2.990779 0.378123 2.990777 1.000000 0.000000 0.000001 94 94 94
-2.990776 0.145572 -2.990780 1.000000 0.000000 0.000001 94 94 94
-2.990776 0.378123 -2.990780 1.000000 0.000000 0.000001 94 94 94
2.990779 0.378123 -2.990777 -1.000000 -0.000000 -0.000000 94 94 94
2.990778 0.145572 2.990778 -1.000000 -0.000000 -0.000000 94 94 94
2.990778 0.378123 2.990778 -1.000000 -0.000000 -0.000000 94 94 94
2.990778 0.378123 2.990778 0.000000 0.000000 -1.000000 94 94 94
-2.990779 0.145572 2.990777 0.000000 0.000000 -1.000000 94 94 94
-2.990779 0.378123 2.990777 0.000000 0.000000 -1.000000 94 94 94
3.408459 0.204789 3.408459 0.059975 -0.998200 0.000000 94 94 94
3.131588 0.188154 -3.131586 0.059975 -0.998200 0.000000 94 94 94
3.408461 0.204789 -3.408459 0.059975 -0.998200 0.000000 94 94 94
-3.408458 0.204789 -3.408462 -0.059975 -0.998200 -0.000000 94 94 94
-3.131588 0.188154 3.131585 -0.059975 -0.998200 -0.000000 94 94 94
-3.408461 0.204789 3.408458 -0.059975 -0.998200 -0.000000 94 94 94
3.408461 0.204789 -3.408459 0.000000 -0.998200 -0.059975 94 94 94
-3.131585 0.188154 -3.131589 0.000000 -0.998200 -0.059975 94 94 94
-3.408458 0.204789 -3.408462 0.000000 -0.998200 -0.059975 94 94 94
3.408458 -0.204789 3.408461 -0.000000 0.998200 0.059975 94 94 94
-3.131587 -0.188154 3.131587 -0.000000 0.998200 0.059975 94 94 94
-3.408459 -0.204789 3.408459 -0.000000 0.998200 0.059975 94 94 94
-3.408458 0.378123 -3.408462 -1.000000 -0.000000 -0.000001 94 94 94
-3.408461 0.204789 3.408458 -1.000000 -0.000000 -0.000001 94 94 94
-3.408461 0.378123 3.408458 -1.000000 -0.000000 -0.000001 94 94 94
3.408459 0.378123 3.408459 1.000000 0.000000 0.000000 94 94 94
3.408461 0.204789 -3.408459 1.000000 0.000000 0.000000 94 94 94
3.408461 0.378123 -3.408459 1.000000 0.000000 0.000000 94 94 94
-3.408459 -0.378123 3.408459 -1.000000 0.000000 0.000000 94 94 94
-3.408459 -0.204789 -3.408460 -1.000000 0.000000 0.000000 94 94 94
-3.408459 -0.378123 -3.408460 -1.000000 0.000000 0.000000 94 94 94
-3.408461 0.378123 3.408458 -0.000000 0.000000 1.000000 94 94 94
3.408459 0.204789 3.408459 -0.000000 0.000000 1.000000 94 94 94
3.408459 0.378123 3.408459 -0.000000 0.000000 1.000000 94 94 94
-3.131588 0.188154 3.131585 -1.000000 -0.000004 -0.000000 56 56 56
-3.131587 -0.188154 -3.131587 -1.000000 -0.000004 -0.000000 56 56 56
-3.131587 -0.188154 3.131587 -1.000000 -0.000004 -0.000000 56 56 56
-3.131585 0.188154 -3.131589 0.000000 -0.000004 -1.000000 56 56 56
3.131587 -0.188154 -3.131587 0.000000 -0.000004 -1.000000 56 56 56
-3.131587 -0.188154 -3.131587 0.000000 -0.000004 -1.000000 56 56 56
3.131587 -0.188154 -3.131587 1.000000 -0.000002 0.000000 56 56 56
3.131587 0.188154 3.131587 1.000000 -0.000002 0.000000 56 56 56
3.131586 -0.188154 3.131588 1.000000 -0.000002 0.000000 56 56 56
-3.131587 -0.188154 3.131587 -0.000000 0.000004 1.000000 56 56 56
3.131587 0.188154 3.131587 -0.000000 0.000004 1.000000 56 56 56
-3.131588 0.188154 3.131585 -0.000000 0.000004 1.000000 56 56 56
-3.408459 -0.204789 3.408459 -0.059975 0.998200 0.000000 94 94 94
-3.131587 -0.188154 -3.131587 -0.059975 0.998200 0.000000 94 94 94
-3.408459 -0.204789 -3.408460 -0.059975 0.998200 0.000000 94 94 94
3.408459 0.204789 3.408459 -0.000000 -0.998200 0.059975 94 94 94
-3.131588 0.188154 3.131585 -0.000000 -0.998200 0.059975 94 94 94
3.131587 0.188154 3.131587 -0.000000 -0.998200 0.059975 94 94 94
3.408460 -0.204789 -3.408459 0.059975 0.998200 0.000000 94 94 94
3.131586 -0.188154 3.131588 0.059975 0.998200 0.000000 94 94 94
3.408458 -0.204789 3.408461 0.059975 0.998200 0.000000 94 94 94
-3.408459 -0.204789 -3.408460 0.000000 0.998200 -0.059975 94 94 94
3.131587 -0.188154 -3.131587 0.000000 0.998200 -0.059975 94 94 94
3.408460 -0.204789 -3.408459 0.000000 0.998200 -0.059975 94 94 94
-3.408459 -0.378123 -3.408460 -0.000000 -1.000000 0.000000 94 94 94
3.408461 0.204789 -3.408459 0.000000 0.000000 -1.000000 94 94 94
3.408458 -0.204789 3.408461 -0.000000 0.000000 1.000000 94 94 94
-3.408459 -0.204789 -3.408460 0.000000 0.000000 -1.000000 94 94 94
3.408460 -0.204789 -3.408459 1.000000 0.000000 0.000000 94 94 94
-2.990776 0.145572 -2.990780 -0.000000 0.000000 1.000000 94 94 94
2.990779 0.145572 -2.990777 0.000000 1.000000 -0.000000 56 56 56
-2.990779 0.145572 2.990777 1.000000 -0.000000 0.000001 94 94 94
2.990779 0.145572 -2.990777 -1.000000 0.000000 -0.000000 94 94 94
2.990778 0.145572 2.990778 0.000000 0.000000 -1.000000 94 94 94
3.131587 0.188154 3.131587 0.059975 -0.998200 0.000000 94 94 94
-3.131585 0.188154 -3.131589 -0.059975 -0.998200 -0.000000 94 94 94
3.131588 0.188154 -3.131586 0.000000 -0.998200 -0.059975 94 94 94
3.131586 -0.188154 3.131588 -0.000000 0.998200 0.059975 94 94 94
-3.408458 0.204789 -3.408462 -1.000000 0.000000 -0.000001 94 94 94
3.408459 0.204789 3.408459 1.000000 -0.000000 0.000000 94 94 94
-3.408459 -0.204789 3.408459 -1.000000 0.000000 0.000000 94 94 94
-3.408461 0.204789 3.408458 -0.000000 0.000000 1.000000 94 94 94
-3.131588 0.188154 3.131585 -1.000000 0.000004 -0.000000 56 56 56
-3.131585 0.188154 -3.131589 -1.000000 0.000004 -0.000000 56 56 56
-3.131587 -0.188154 -3.131587 -1.000000 0.000004 -0.000000 56 56 56
-3.131585 0.188154 -3.131589 0.000000 0.000001 -1.000000 56 56 56
3.131588 0.188154 -3.131586 0.000000 0.000001 -1.000000 56 56 56
3.131587 -0.188154 -3.131587 0.000000 0.000001 -1.000000 56 56 56
3.131587 -0.188154 -3.131587 1.000000 -0.000003 0.000000 56 56 56
3.131588 0.188154 -3.131586 1.000000 -0.000003 0.000000 56 56 56
3.131587 0.188154 3.131587 1.000000 -0.000003 0.000000 56 56 56
-3.131587 -0.188154 3.131587 -0.000000 0.000003 1.000000 56 56 56
3.131586 -0.188154 3.131588 -0.000000 0.000003 1.000000 56 56 56
3.131587 0.188154 3.131587 -0.000000 0.000003 1.000000 56 56 56
-3.131587 -0.188154 3.131587 -0.059975 0.998200 0.000000 94 94 94
-3.408461 0.204789 3.408458 -0.000000 -0.998200 0.059975 94 94 94
3.131587 -0.188154 -3.131587 0.059975 0.998200 0.000000 94 94 94
-3.131587 -0.188154 -3.131587 0.000000 0.998200 -0.059975 94 94 94
3 0 1 2
3 3 4 5
3 6 7 8
3 9 10 11
3 12 13 14
3 15 16 17
3 18 19 20
3 3 21 22
3 23 4 24
3 25 24 21
3 26 27 28
3 29 30 31
3 32 33 34
3 35 36 37
3 38 39 40
3 41 42 43
3 44 45 46
3 47 48 49
3 50 51 52
3 53 54 55
3 56 57 58
3 59 60 61
3 62 63 64
3 65 66 67
3 68 69 70
3 71 72 73
3 74 75 76
3 77 78 79
3 80 81 82
3 83 84 85
3 0 86 1
3 3 22 4
3 6 87 7
3 9 88 10
3 12 89 13
3 15 90 16
3 18 91 19
3 3 25 21
3 23 5 4
3 25 23 24
3 26 92 27
3 29 93 30
3 32 94 33
3 35 95 36
3 38 96 39
3 41 97 42
3 44 98 45
3 47 99 48
3 50 100 51
3 53 101 54
3 56 102 57
3 59 103 60
3 104 105 106
3 107 108 109
3 110 111 112
3 113 114 115
3 74 116 75
3 77 117 78
3 80 118 81
3 83 119 84
