ply
format ascii 1.0
comment Created by Blender 2.77 (sub 0) - www.blender.org, source file: 'Marker.blend'
element vertex 40
property float x
property float y
property float z
property float nx
property float ny
property float nz
property uchar red
property uchar green
property uchar blue
element face 18
property list uchar uint vertex_indices
end_header
-0.653405 3.116770 -0.520435 -1.000000 -0.000000 -0.000000 255 83 89
-0.653405 1.811655 0.677515 -1.000000 -0.000000 -0.000000 255 83 89
-0.653405 3.116770 0.677515 -1.000000 -0.000000 -0.000000 255 83 89
0.648096 3.116770 0.677515 1.000000 0.000000 -0.000000 255 83 89
0.648096 1.811655 -0.520435 1.000000 0.000000 -0.000000 255 83 89
0.648096 3.116770 -0.520435 1.000000 0.000000 -0.000000 255 83 89
0.648096 1.811655 0.677515 0.000000 -1.000000 0.000000 255 83 89
-0.653405 1.811655 -0.520435 0.000000 -1.000000 0.000000 255 83 89
0.648096 1.811655 -0.520435 0.000000 -1.000000 0.000000 255 83 89
-0.653405 3.116770 0.677515 0.000000 1.000000 -0.000000 255 83 89
0.648096 3.116770 -0.520435 0.000000 1.000000 -0.000000 255 83 89
-0.653405 3.116770 -0.520435 0.000000 1.000000 -0.000000 255 83 89
0.648096 3.116770 -0.520435 0.000000 0.000000 -1.000000 255 83 89
-0.653405 1.811655 -0.520435 0.000000 0.000000 -1.000000 255 83 89
-0.653405 3.116770 -0.520435 0.000000 0.000000 -1.000000 255 83 89
-0.653405 3.116770 0.677515 0.000000 0.000000 1.000000 255 83 89
0.648096 1.811655 0.677515 0.000000 0.000000 1.000000 255 83 89
0.648096 3.116770 0.677515 0.000000 0.000000 1.000000 255 83 89
0.631008 2.237803 0.026536 0.635872 -0.144321 -0.758181 255 83 89
-0.008668 -0.875621 0.082697 0.635872 -0.144321 -0.758181 255 83 89
0.000434 2.237803 -0.502314 0.635872 -0.144321 -0.758181 255 83 89
-0.008668 -0.875621 0.082697 -0.707814 -0.128758 0.694565 255 83 89
-0.003517 2.237803 0.665110 -0.707814 -0.128758 0.694565 255 83 89
-0.630139 2.237803 0.026536 -0.707814 -0.128758 0.694565 255 83 89
-0.003517 2.237803 0.665110 -0.000000 1.000000 -0.000000 255 83 89
0.000434 2.237803 -0.502314 -0.000000 1.000000 -0.000000 255 83 89
-0.630139 2.237803 0.026536 -0.000000 1.000000 -0.000000 255 83 89
-0.003517 2.237803 0.665110 0.703158 -0.131866 0.698699 255 83 89
-0.008668 -0.875621 0.082697 0.703158 -0.131866 0.698699 255 83 89
0.631008 2.237803 0.026536 0.703158 -0.131866 0.698699 255 83 89
-0.630139 2.237803 0.026536 -0.636209 -0.140677 -0.758583 255 83 89
0.000434 2.237803 -0.502314 -0.636209 -0.140677 -0.758583 255 83 89
-0.008668 -0.875621 0.082697 -0.636209 -0.140677 -0.758583 255 83 89
-0.653405 1.811655 -0.520435 -1.000000 0.000000 0.000000 255 83 89
0.648096 1.811655 0.677515 1.000000 0.000000 0.000000 255 83 89
-0.653405 1.811655 0.677515 0.000000 -1.000000 0.000000 255 83 89
0.648096 3.116770 0.677515 0.000000 1.000000 -0.000000 255 83 89
0.648096 1.811655 -0.520435 0.000000 0.000000 -1.000000 255 83 89
-0.653405 1.811655 0.677515 0.000000 -0.000000 1.000000 255 83 89
0.631008 2.237803 0.026536 0.000000 1.000000 -0.000000 255 83 89
3 0 1 2
3 3 4 5
3 6 7 8
3 9 10 11
3 12 13 14
3 15 16 17
3 18 19 20
3 21 22 23
3 24 25 26
3 27 28 29
3 30 31 32
3 0 33 1
3 3 34 4
3 6 35 7
3 9 36 10
3 12 37 13
3 15 38 16
3 24 39 25
