ply
format ascii 1.0
comment Created by Blender 2.77 (sub 0) - www.blender.org, source file: 'Mushroom0.blend'
element vertex 246
property float x
property float y
property float z
property float nx
property float ny
property float nz
property uchar red
property uchar green
property uchar blue
element face 128
property list uchar uint vertex_indices
end_header
0.157005 0.351004 0.071862 0.938056 0.063674 0.340584 0 0 0
0.115185 0.776220 0.107551 0.938056 0.063674 0.340584 0 0 0
0.115185 0.351004 0.187047 0.938056 0.063674 0.340584 0 0 0
0.000000 0.776220 0.147411 -0.322042 0.173980 0.930602 0 0 0
-0.115185 0.351004 0.187047 -0.322042 0.173980 0.930602 0 0 0
0.000000 0.351004 0.226907 -0.322042 0.173980 0.930602 0 0 0
-0.157005 0.776220 -0.007634 -0.938056 -0.063674 -0.340584 0 0 0
-0.115185 0.351004 -0.043322 -0.938056 -0.063674 -0.340584 0 0 0
-0.157005 0.351004 0.071862 -0.938056 -0.063674 -0.340584 0 0 0
0.000000 0.351004 -0.083183 0.322042 -0.173980 -0.930602 0 0 0
0.115185 0.776220 -0.122819 0.322042 -0.173980 -0.930602 0 0 0
0.115185 0.351004 -0.043322 0.322042 -0.173980 -0.930602 0 0 0
0.000000 -0.033270 -0.007634 0.000000 -1.000000 0.000000 0 0 0
-0.115185 -0.033270 -0.122819 0.000000 -1.000000 0.000000 0 0 0
0.000000 -0.033270 -0.162679 0.000000 -1.000000 0.000000 0 0 0
0.115185 0.776220 0.107551 -0.361096 -0.923267 -0.131105 51 51 51
0.386073 0.686630 -0.007634 -0.361096 -0.923267 -0.131105 51 51 51
0.283237 0.686630 0.275603 -0.361096 -0.923267 -0.131105 51 51 51
0.115185 0.776220 -0.122819 -0.361096 -0.923267 0.131105 51 51 51
0.386073 0.686630 -0.007634 -0.361096 -0.923267 0.131105 51 51 51
0.157005 0.776220 -0.007634 -0.361096 -0.923267 0.131105 51 51 51
-0.115185 -0.033270 0.107551 -0.000000 -1.000000 -0.000000 0 0 0
0.000000 -0.033270 0.147411 -0.000000 -1.000000 -0.000000 0 0 0
-0.115185 0.776220 0.107551 -0.938056 0.063674 0.340584 0 0 0
-0.157005 0.351004 0.071862 -0.938056 0.063674 0.340584 0 0 0
-0.115185 0.351004 0.187047 -0.938056 0.063674 0.340584 0 0 0
0.115185 0.351004 -0.043322 0.938056 -0.063674 -0.340584 0 0 0
0.157005 0.776220 -0.007634 0.938056 -0.063674 -0.340584 0 0 0
0.157005 0.351004 0.071862 0.938056 -0.063674 -0.340584 0 0 0
0.115185 -0.033270 0.107551 0.000000 -1.000000 0.000000 0 0 0
0.157005 -0.033270 -0.007634 0.000000 -1.000000 0.000000 0 0 0
-0.115185 0.776220 0.107551 0.361096 -0.923267 -0.131105 51 51 51
-0.386073 0.686630 -0.007634 0.361096 -0.923267 -0.131105 51 51 51
-0.157005 0.776220 -0.007634 0.361096 -0.923267 -0.131105 51 51 51
-0.115185 0.776220 -0.122819 0.361096 -0.923267 0.131105 51 51 51
-0.386073 0.686630 -0.007634 0.361096 -0.923267 0.131105 51 51 51
-0.283237 0.686630 -0.290871 0.361096 -0.923267 0.131105 51 51 51
0.115185 -0.033270 -0.122819 -0.000000 -1.000000 0.000000 0 0 0
-0.115185 0.776220 -0.122819 -0.322042 -0.173980 -0.930602 0 0 0
0.000000 0.351004 -0.083183 -0.322042 -0.173980 -0.930602 0 0 0
-0.115185 0.351004 -0.043322 -0.322042 -0.173980 -0.930602 0 0 0
0.115185 0.351004 0.187047 0.322042 0.173980 0.930602 0 0 0
0.000000 0.776220 0.147411 0.322042 0.173980 0.930602 0 0 0
0.000000 0.351004 0.226907 0.322042 0.173980 0.930602 0 0 0
0.115185 0.351004 0.187047 0.320953 -0.191867 0.927457 0 0 0
0.000000 -0.033270 0.147411 0.320953 -0.191867 0.927457 0 0 0
0.115185 -0.033270 0.107551 0.320953 -0.191867 0.927457 0 0 0
-0.115185 -0.033270 -0.122819 -0.320953 0.191867 -0.927457 0 0 0
0.000000 0.351004 -0.083183 -0.320953 0.191867 -0.927457 0 0 0
0.000000 -0.033270 -0.162679 -0.320953 0.191867 -0.927457 0 0 0
0.115185 0.351004 -0.043322 0.937629 0.070426 -0.340429 0 0 0
0.157005 -0.033270 -0.007634 0.937629 0.070426 -0.340429 0 0 0
0.115185 -0.033270 -0.122819 0.937629 0.070426 -0.340429 0 0 0
-0.115185 -0.033270 0.107551 -0.937629 -0.070426 0.340429 0 0 0
-0.157005 0.351004 0.071862 -0.937629 -0.070426 0.340429 0 0 0
-0.157005 -0.033270 -0.007634 -0.937629 -0.070426 0.340429 0 0 0
0.000000 0.351004 -0.083183 0.320953 0.191867 -0.927457 0 0 0
0.115185 -0.033270 -0.122819 0.320953 0.191867 -0.927457 0 0 0
0.000000 -0.033270 -0.162679 0.320953 0.191867 -0.927457 0 0 0
-0.157005 -0.033270 -0.007634 -0.937629 0.070426 -0.340429 0 0 0
-0.115185 0.351004 -0.043322 -0.937629 0.070426 -0.340429 0 0 0
-0.115185 -0.033270 -0.122819 -0.937629 0.070426 -0.340429 0 0 0
0.000000 -0.033270 0.147411 -0.320953 -0.191867 0.927457 0 0 0
-0.115185 0.351004 0.187047 -0.320953 -0.191867 0.927457 0 0 0
-0.115185 -0.033270 0.107551 -0.320953 -0.191867 0.927457 0 0 0
0.157005 0.351004 0.071862 0.937629 -0.070426 0.340429 0 0 0
0.115185 -0.033270 0.107551 0.937629 -0.070426 0.340429 0 0 0
0.157005 -0.033270 -0.007634 0.937629 -0.070426 0.340429 0 0 0
0.283237 0.686630 0.275603 0.301653 -0.386226 0.871685 51 51 51
0.000000 0.829854 0.437079 0.301653 -0.386226 0.871685 51 51 51
0.000000 0.686630 0.373619 0.301653 -0.386226 0.871685 51 51 51
0.283237 0.686630 0.275603 0.866089 -0.388598 0.314455 51 51 51
0.450335 0.829854 -0.007634 0.866089 -0.388598 0.314455 51 51 51
0.330382 0.829854 0.322748 0.866089 -0.388598 0.314455 51 51 51
-0.283237 0.686630 -0.290871 -0.866089 -0.388598 -0.314455 51 51 51
-0.450335 0.829854 -0.007634 -0.866089 -0.388598 -0.314455 51 51 51
-0.330382 0.829854 -0.338016 -0.866089 -0.388598 -0.314455 51 51 51
0.283237 0.686630 -0.290871 0.866089 -0.388598 -0.314455 51 51 51
0.450335 0.829854 -0.007634 0.866089 -0.388598 -0.314455 51 51 51
0.386073 0.686630 -0.007634 0.866089 -0.388598 -0.314455 51 51 51
0.115185 0.776220 -0.122819 -0.126404 -0.922280 0.365270 51 51 51
0.000000 0.686630 -0.388887 -0.126404 -0.922280 0.365270 51 51 51
0.283237 0.686630 -0.290871 -0.126404 -0.922280 0.365270 51 51 51
-0.115185 0.776220 0.107551 0.126404 -0.922280 -0.365270 51 51 51
0.000000 0.686630 0.373619 0.126404 -0.922280 -0.365270 51 51 51
-0.283237 0.686630 0.275603 0.126404 -0.922280 -0.365270 51 51 51
-0.115185 0.776220 -0.122819 0.126404 -0.922280 0.365270 51 51 51
0.000000 0.686630 -0.388887 0.126404 -0.922280 0.365270 51 51 51
0.000000 0.776220 -0.162679 0.126404 -0.922280 0.365270 51 51 51
0.115185 0.776220 0.107551 -0.126404 -0.922280 -0.365270 51 51 51
0.000000 0.686630 0.373619 -0.126404 -0.922280 -0.365270 51 51 51
0.000000 0.776220 0.147411 -0.126404 -0.922280 -0.365270 51 51 51
0.450335 0.829854 -0.007634 0.865885 0.389112 0.314381 51 51 51
0.275079 0.997599 0.267445 0.865885 0.389112 0.314381 51 51 51
0.330382 0.829854 0.322748 0.865885 0.389112 0.314381 51 51 51
-0.450335 0.829854 -0.007634 -0.865885 0.389112 -0.314381 51 51 51
-0.275079 0.997599 -0.282713 -0.865885 0.389112 -0.314381 51 51 51
-0.330382 0.829854 -0.338016 -0.865885 0.389112 -0.314381 51 51 51
0.450335 0.829854 -0.007634 0.865885 0.389112 -0.314381 0 0 0
0.275079 0.997599 -0.282713 0.865885 0.389112 -0.314381 0 0 0
0.374954 0.997599 -0.007634 0.865885 0.389112 -0.314381 0 0 0
0.000000 0.829854 -0.452347 -0.301583 0.386738 -0.871482 51 51 51
-0.275079 0.997599 -0.282713 -0.301583 0.386738 -0.871482 51 51 51
0.000000 0.997599 -0.377906 -0.301583 0.386738 -0.871482 51 51 51
-0.283237 0.686630 0.275603 -0.866089 -0.388598 0.314455 51 51 51
-0.450335 0.829854 -0.007634 -0.866089 -0.388598 0.314455 51 51 51
-0.386073 0.686630 -0.007634 -0.866089 -0.388598 0.314455 51 51 51
0.283237 0.686630 -0.290871 0.301653 -0.386226 -0.871685 51 51 51
0.000000 0.829854 -0.452347 0.301653 -0.386226 -0.871685 51 51 51
0.330382 0.829854 -0.338016 0.301653 -0.386226 -0.871685 51 51 51
-0.283237 0.686630 0.275603 -0.301653 -0.386226 0.871685 51 51 51
0.000000 0.829854 0.437079 -0.301653 -0.386226 0.871685 51 51 51
-0.330382 0.829854 0.322748 -0.301653 -0.386226 0.871685 51 51 51
-0.283237 0.686630 -0.290871 -0.301653 -0.386226 -0.871685 51 51 51
0.000000 0.829854 -0.452347 -0.301653 -0.386226 -0.871685 51 51 51
0.000000 0.686630 -0.388887 -0.301653 -0.386226 -0.871685 51 51 51
0.000000 0.997599 -0.377906 -0.210059 0.766432 -0.607007 51 51 51
-0.140062 1.141536 -0.147696 -0.210059 0.766432 -0.607007 51 51 51
0.000000 1.141536 -0.196166 -0.210059 0.766432 -0.607007 51 51 51
0.000000 0.997599 0.362638 -0.210059 0.766432 0.607007 51 51 51
-0.140062 1.141536 0.132428 -0.210059 0.766432 0.607007 51 51 51
-0.275079 0.997599 0.267445 -0.210059 0.766432 0.607007 51 51 51
0.000000 0.997599 -0.377906 0.210059 0.766432 -0.607007 51 51 51
0.140062 1.141536 -0.147696 0.210059 0.766432 -0.607007 51 51 51
0.275079 0.997599 -0.282713 0.210059 0.766432 -0.607007 51 51 51
-0.374954 0.997599 -0.007634 -0.601205 0.768704 0.218282 51 51 51
-0.140062 1.141536 0.132428 -0.601205 0.768704 0.218282 51 51 51
-0.190915 1.141536 -0.007634 -0.601205 0.768704 0.218282 51 51 51
0.000000 0.829854 0.437079 0.301583 0.386738 0.871482 51 51 51
0.275079 0.997599 0.267445 0.301583 0.386738 0.871482 51 51 51
0.000000 0.997599 0.362638 0.301583 0.386738 0.871482 51 51 51
-0.450335 0.829854 -0.007634 -0.865885 0.389112 0.314381 51 51 51
-0.275079 0.997599 0.267445 -0.865885 0.389112 0.314381 51 51 51
-0.374954 0.997599 -0.007634 -0.865885 0.389112 0.314381 51 51 51
0.000000 0.829854 -0.452347 0.301583 0.386738 -0.871482 51 51 51
0.275079 0.997599 -0.282713 0.301583 0.386738 -0.871482 51 51 51
0.330382 0.829854 -0.338016 0.301583 0.386738 -0.871482 51 51 51
0.000000 0.829854 0.437079 -0.301583 0.386738 0.871482 51 51 51
-0.275079 0.997599 0.267445 -0.301583 0.386738 0.871482 51 51 51
-0.330382 0.829854 0.322748 -0.301583 0.386738 0.871482 51 51 51
0.000000 1.141536 0.180898 0.092517 0.959149 0.267345 51 51 51
0.070303 1.167708 0.062669 0.092517 0.959149 0.267345 51 51 51
0.000000 1.167708 0.086998 0.092517 0.959149 0.267345 51 51 51
0.190915 1.141536 -0.007634 0.264158 0.959699 0.095909 51 51 51
0.070303 1.167708 0.062669 0.264158 0.959699 0.095909 51 51 51
0.140062 1.141536 0.132428 0.264158 0.959699 0.095909 51 51 51
-0.190915 1.141536 -0.007634 -0.264158 0.959699 -0.095909 51 51 51
-0.070303 1.167708 -0.077937 -0.264158 0.959699 -0.095909 51 51 51
-0.140062 1.141536 -0.147696 -0.264158 0.959699 -0.095909 51 51 51
0.190915 1.141536 -0.007634 0.264158 0.959699 -0.095909 51 51 51
0.070303 1.167708 -0.077937 0.264158 0.959699 -0.095909 51 51 51
0.095829 1.167708 -0.007634 0.264158 0.959699 -0.095909 51 51 51
0.374954 0.997599 -0.007634 0.601205 0.768704 -0.218282 51 51 51
0.140062 1.141536 -0.147696 0.601205 0.768704 -0.218282 51 51 51
0.190915 1.141536 -0.007634 0.601205 0.768704 -0.218282 51 51 51
-0.374954 0.997599 -0.007634 -0.601205 0.768703 -0.218282 51 51 51
-0.140062 1.141536 -0.147696 -0.601205 0.768703 -0.218282 51 51 51
-0.275079 0.997599 -0.282713 -0.601205 0.768703 -0.218282 51 51 51
0.374954 0.997599 -0.007634 0.601205 0.768704 0.218282 51 51 51
0.140062 1.141536 0.132428 0.601205 0.768704 0.218282 51 51 51
0.275079 0.997599 0.267445 0.601205 0.768704 0.218282 51 51 51
0.000000 0.997599 0.362638 0.210059 0.766432 0.607007 51 51 51
0.140062 1.141536 0.132428 0.210059 0.766432 0.607007 51 51 51
0.000000 1.141536 0.180898 0.210059 0.766432 0.607007 51 51 51
0.000000 1.167708 -0.007634 0.000000 1.000000 -0.000000 51 51 51
0.070303 1.167708 -0.077937 0.000000 1.000000 -0.000000 51 51 51
0.000000 1.167708 -0.102266 0.000000 1.000000 -0.000000 51 51 51
0.070303 1.167708 0.062669 -0.000000 1.000000 0.000000 51 51 51
0.000000 1.167708 0.086998 -0.000000 1.000000 0.000000 51 51 51
-0.070303 1.167708 0.062669 0.000000 1.000000 -0.000000 51 51 51
-0.095829 1.167708 -0.007634 0.000000 1.000000 -0.000000 51 51 51
-0.070303 1.167708 -0.077937 -0.000000 1.000000 0.000000 51 51 51
-0.190915 1.141536 -0.007634 -0.264158 0.959699 0.095909 51 51 51
-0.070303 1.167708 0.062669 -0.264158 0.959699 0.095909 51 51 51
-0.095829 1.167708 -0.007634 -0.264158 0.959699 0.095909 51 51 51
0.000000 1.141536 -0.196166 0.092517 0.959149 -0.267345 51 51 51
0.070303 1.167708 -0.077937 0.092517 0.959149 -0.267345 51 51 51
0.140062 1.141536 -0.147696 0.092517 0.959149 -0.267345 51 51 51
0.000000 1.141536 0.180898 -0.092517 0.959149 0.267345 51 51 51
-0.070303 1.167708 0.062669 -0.092517 0.959149 0.267345 51 51 51
-0.140062 1.141536 0.132428 -0.092517 0.959149 0.267345 51 51 51
0.000000 1.141536 -0.196166 -0.092517 0.959149 -0.267345 51 51 51
-0.070303 1.167708 -0.077937 -0.092517 0.959149 -0.267345 51 51 51
0.000000 1.167708 -0.102266 -0.092517 0.959149 -0.267345 51 51 51
0.157005 0.776220 -0.007634 0.938056 0.063674 0.340584 0 0 0
-0.115185 0.776220 0.107551 -0.322042 0.173980 0.930602 0 0 0
-0.115185 0.776220 -0.122819 -0.938056 -0.063674 -0.340584 0 0 0
0.000000 0.776220 -0.162679 0.322042 -0.173980 -0.930602 0 0 0
-0.157005 -0.033270 -0.007634 0.000000 -1.000000 0.000000 0 0 0
0.157005 0.776220 -0.007634 -0.361096 -0.923267 -0.131105 51 51 51
0.283237 0.686630 -0.290871 -0.361096 -0.923267 0.131105 51 51 51
-0.157005 0.776220 -0.007634 -0.938056 0.063674 0.340584 0 0 0
0.115185 0.776220 -0.122819 0.938056 -0.063674 -0.340584 0 0 0
-0.283237 0.686630 0.275603 0.361096 -0.923267 -0.131105 51 51 51
-0.157005 0.776220 -0.007634 0.361096 -0.923267 0.131105 51 51 51
0.000000 0.776220 -0.162679 -0.322042 -0.173980 -0.930602 0 0 0
0.115185 0.776220 0.107551 0.322042 0.173980 0.930602 0 0 0
0.000000 0.351004 0.226907 0.320953 -0.191867 0.927457 0 0 0
-0.115185 0.351004 -0.043322 -0.320953 0.191867 -0.927457 0 0 0
0.157005 0.351004 0.071862 0.937629 0.070426 -0.340429 0 0 0
-0.115185 0.351004 0.187047 -0.937629 -0.070426 0.340429 0 0 0
0.115185 0.351004 -0.043322 0.320953 0.191867 -0.927457 0 0 0
-0.157005 0.351004 0.071862 -0.937629 0.070426 -0.340429 0 0 0
0.000000 0.351004 0.226907 -0.320953 -0.191867 0.927457 0 0 0
0.115185 0.351004 0.187047 0.937629 -0.070426 0.340429 0 0 0
0.330382 0.829854 0.322748 0.301653 -0.386226 0.871685 51 51 51
0.386073 0.686630 -0.007634 0.866089 -0.388598 0.314455 51 51 51
-0.386073 0.686630 -0.007634 -0.866089 -0.388598 -0.314455 51 51 51
0.330382 0.829854 -0.338016 0.866089 -0.388598 -0.314455 51 51 51
0.000000 0.776220 -0.162679 -0.126404 -0.922280 0.365270 51 51 51
0.000000 0.776220 0.147411 0.126404 -0.922280 -0.365270 51 51 51
-0.283237 0.686630 -0.290871 0.126404 -0.922280 0.365270 51 51 51
0.283237 0.686630 0.275603 -0.126404 -0.922280 -0.365270 51 51 51
0.374954 0.997599 -0.007634 0.865885 0.389112 0.314381 51 51 51
-0.374954 0.997599 -0.007634 -0.865885 0.389112 -0.314381 51 51 51
0.330382 0.829854 -0.338016 0.865885 0.389112 -0.314381 0 0 0
-0.330382 0.829854 -0.338016 -0.301583 0.386738 -0.871482 51 51 51
-0.330382 0.829854 0.322748 -0.866089 -0.388598 0.314455 51 51 51
0.000000 0.686630 -0.388887 0.301653 -0.386226 -0.871685 51 51 51
0.000000 0.686630 0.373619 -0.301653 -0.386226 0.871685 51 51 51
-0.330382 0.829854 -0.338016 -0.301653 -0.386226 -0.871685 51 51 51
-0.275079 0.997599 -0.282713 -0.210059 0.766432 -0.607007 51 51 51
0.000000 1.141536 0.180898 -0.210059 0.766432 0.607007 51 51 51
0.000000 1.141536 -0.196166 0.210059 0.766432 -0.607007 51 51 51
-0.374954 0.997599 -0.007634 -0.601205 0.768703 0.218282 51 51 51
-0.275079 0.997599 0.267445 -0.601205 0.768703 0.218282 51 51 51
-0.140062 1.141536 0.132428 -0.601205 0.768703 0.218282 51 51 51
0.330382 0.829854 0.322748 0.301583 0.386738 0.871482 51 51 51
-0.330382 0.829854 0.322748 -0.865885 0.389112 0.314381 51 51 51
0.000000 0.997599 -0.377906 0.301583 0.386738 -0.871482 51 51 51
0.000000 0.997599 0.362638 -0.301583 0.386738 0.871482 51 51 51
0.140062 1.141536 0.132428 0.092517 0.959149 0.267345 51 51 51
0.095829 1.167708 -0.007634 0.264158 0.959699 0.095909 51 51 51
-0.095829 1.167708 -0.007634 -0.264158 0.959699 -0.095909 51 51 51
0.140062 1.141536 -0.147696 0.264158 0.959699 -0.095909 51 51 51
0.275079 0.997599 -0.282713 0.601205 0.768704 -0.218282 51 51 51
-0.374954 0.997599 -0.007634 -0.601205 0.768704 -0.218282 51 51 51
-0.190915 1.141536 -0.007634 -0.601205 0.768704 -0.218282 51 51 51
-0.140062 1.141536 -0.147696 -0.601205 0.768704 -0.218282 51 51 51
0.190915 1.141536 -0.007634 0.601205 0.768704 0.218282 51 51 51
0.275079 0.997599 0.267445 0.210059 0.766432 0.607007 51 51 51
0.095829 1.167708 -0.007634 0.000000 1.000000 -0.000000 51 51 51
-0.140062 1.141536 0.132428 -0.264158 0.959699 0.095909 51 51 51
0.000000 1.167708 -0.102266 0.092517 0.959149 -0.267345 51 51 51
0.000000 1.167708 0.086998 -0.092517 0.959149 0.267345 51 51 51
-0.140062 1.141536 -0.147696 -0.092517 0.959149 -0.267345 51 51 51
3 0 1 2
3 3 4 5
3 6 7 8
3 9 10 11
3 12 13 14
3 15 16 17
3 18 19 20
3 21 12 22
3 23 24 25
3 26 27 28
3 29 12 30
3 31 32 33
3 34 35 36
3 12 37 30
3 38 39 40
3 41 42 43
3 44 45 46
3 47 48 49
3 50 51 52
3 53 54 55
3 56 57 58
3 59 60 61
3 62 63 64
3 65 66 67
3 68 69 70
3 71 72 73
3 74 75 76
3 77 78 79
3 80 81 82
3 83 84 85
3 86 87 88
3 89 90 91
3 92 93 94
3 95 96 97
3 98 99 100
3 101 102 103
3 104 105 106
3 107 108 109
3 110 111 112
3 113 114 115
3 116 117 118
3 119 120 121
3 122 123 124
3 125 126 127
3 128 129 130
3 131 132 133
3 134 135 136
3 137 138 139
3 140 141 142
3 143 144 145
3 146 147 148
3 149 150 151
3 152 153 154
3 155 156 157
3 158 159 160
3 161 162 163
3 164 165 166
3 167 164 168
3 169 164 170
3 164 171 170
3 172 173 174
3 175 176 177
3 178 179 180
3 181 182 183
3 0 184 1
3 3 185 4
3 6 186 7
3 9 187 10
3 12 188 13
3 15 189 16
3 18 190 19
3 21 188 12
3 23 191 24
3 26 192 27
3 29 22 12
3 31 193 32
3 34 194 35
3 12 14 37
3 38 195 39
3 41 196 42
3 44 197 45
3 47 198 48
3 50 199 51
3 53 200 54
3 56 201 57
3 59 202 60
3 62 203 63
3 65 204 66
3 68 205 69
3 71 206 72
3 74 207 75
3 77 208 78
3 80 209 81
3 83 210 84
3 86 211 87
3 89 212 90
3 92 213 93
3 95 214 96
3 98 215 99
3 101 216 102
3 104 217 105
3 107 218 108
3 110 219 111
3 113 220 114
3 116 221 117
3 119 222 120
3 122 223 123
3 224 225 226
3 128 227 129
3 131 228 132
3 134 229 135
3 137 230 138
3 140 231 141
3 143 232 144
3 146 233 147
3 149 234 150
3 152 235 153
3 236 237 238
3 158 239 159
3 161 240 162
3 164 241 165
3 167 241 164
3 169 168 164
3 164 166 171
3 172 242 173
3 175 243 176
3 178 244 179
3 181 245 182
