ply
format ascii 1.0
comment Created by Blender 2.77 (sub 0) - www.blender.org, source file: 'Particle.blend'
element vertex 96
property float x
property float y
property float z
property float nx
property float ny
property float nz
property uchar red
property uchar green
property uchar blue
element face 32
property list uchar uint vertex_indices
end_header
-0.147909 -0.880592 -0.107462 0.227072 -0.931834 0.283063 163 163 163
0.585261 -0.607193 0.204413 0.227072 -0.931834 0.283063 163 163 163
0.195291 -0.581734 0.601055 0.227072 -0.931834 0.283063 163 163 163
0.195291 -0.581734 0.601055 0.677930 -0.269766 0.683841 163 163 163
0.585261 -0.607193 0.204413 0.677930 -0.269766 0.683841 163 163 163
0.484920 0.299697 0.661642 0.677930 -0.269766 0.683841 163 163 163
-0.703577 -0.434838 -0.231765 -0.808985 0.009030 -0.587761 163 163 163
-0.866613 0.044489 0.000000 -0.808985 0.009030 -0.587761 163 163 163
-0.267799 0.044489 -0.824198 -0.808985 0.009030 -0.587761 163 163 163
0.003004 -0.434841 -0.740760 0.354287 0.037507 -0.934384 163 163 163
-0.267799 0.044489 -0.824198 0.354287 0.037507 -0.934384 163 163 163
0.738704 0.296143 -0.432465 0.354287 0.037507 -0.934384 163 163 163
0.195291 -0.581734 0.601055 0.257056 -0.150088 0.954670 163 163 163
0.484920 0.299697 0.661642 0.257056 -0.150088 0.954670 163 163 163
-0.267799 0.044489 0.824198 0.257056 -0.150088 0.954670 163 163 163
-0.437842 -0.434840 0.597519 -0.808984 0.009032 0.587761 163 163 163
-0.267799 0.044489 0.824198 -0.808984 0.009032 0.587761 163 163 163
-0.866613 0.044489 0.000000 -0.808984 0.009032 0.587761 163 163 163
-0.003003 0.434841 -0.740759 -0.474123 0.597116 -0.647039 163 163 163
-0.705434 0.434839 -0.226049 -0.474123 0.597116 -0.647039 163 163 163
-0.281348 0.795020 -0.204411 -0.474123 0.597116 -0.647039 163 163 163
0.738704 0.296143 -0.432465 0.351001 0.801728 -0.483767 163 163 163
-0.003003 0.434841 -0.740759 0.351001 0.801728 -0.483767 163 163 163
0.147909 0.880592 0.107462 0.351001 0.801728 -0.483767 163 163 163
0.484920 0.299697 0.661642 0.769012 0.614418 0.176381 163 163 163
0.738704 0.296143 -0.432465 0.769012 0.614418 0.176381 163 163 163
0.147909 0.880592 0.107462 0.769012 0.614418 0.176381 163 163 163
-0.432975 0.434840 0.601055 0.057433 0.706377 0.705502 163 163 163
0.484920 0.299697 0.661642 0.057433 0.706377 0.705502 163 163 163
0.147909 0.880592 0.107462 0.057433 0.706377 0.705502 163 163 163
-0.705434 0.434839 -0.226049 -0.639054 0.739794 0.210512 163 163 163
-0.432975 0.434840 0.601055 -0.639054 0.739794 0.210512 163 163 163
-0.281348 0.795020 -0.204411 -0.639054 0.739794 0.210512 163 163 163
-0.281348 0.795020 -0.204411 -0.398009 0.863055 0.311007 163 163 163
-0.432975 0.434840 0.601055 -0.398009 0.863055 0.311007 163 163 163
0.147909 0.880592 0.107462 -0.398009 0.863055 0.311007 163 163 163
0.147909 0.880592 0.107462 0.179639 0.857289 -0.482477 163 163 163
-0.003003 0.434841 -0.740759 0.179639 0.857289 -0.482477 163 163 163
-0.281348 0.795020 -0.204411 0.179639 0.857289 -0.482477 163 163 163
-0.866613 0.044489 0.000000 -0.823966 0.497402 0.271425 163 163 163
-0.432975 0.434840 0.601055 -0.823966 0.497402 0.271425 163 163 163
-0.705434 0.434839 -0.226049 -0.823966 0.497402 0.271425 163 163 163
-0.866613 0.044489 0.000000 -0.809001 -0.006328 0.587773 163 163 163
-0.267799 0.044489 0.824198 -0.809001 -0.006328 0.587773 163 163 163
-0.432975 0.434840 0.601055 -0.809001 -0.006328 0.587773 163 163 163
-0.267799 0.044489 0.824198 0.016749 0.501545 0.864969 163 163 163
0.484920 0.299697 0.661642 0.016749 0.501545 0.864969 163 163 163
-0.432975 0.434840 0.601055 0.016749 0.501545 0.864969 163 163 163
0.866613 -0.044489 0.000000 0.817037 0.545163 0.187745 163 163 163
0.738704 0.296143 -0.432465 0.817037 0.545163 0.187745 163 163 163
0.484920 0.299697 0.661642 0.817037 0.545163 0.187745 163 163 163
0.738704 0.296143 -0.432465 0.374265 -0.056027 -0.925628 163 163 163
-0.267799 0.044489 -0.824198 0.374265 -0.056027 -0.925628 163 163 163
-0.003003 0.434841 -0.740759 0.374265 -0.056027 -0.925628 163 163 163
-0.267799 0.044489 -0.824198 -0.512757 0.497405 -0.699763 163 163 163
-0.705434 0.434839 -0.226049 -0.512757 0.497405 -0.699763 163 163 163
-0.003003 0.434841 -0.740759 -0.512757 0.497405 -0.699763 163 163 163
-0.267799 0.044489 -0.824198 -0.809001 -0.006331 -0.587773 163 163 163
-0.866613 0.044489 0.000000 -0.809001 -0.006331 -0.587773 163 163 163
-0.705434 0.434839 -0.226049 -0.809001 -0.006331 -0.587773 163 163 163
-0.437842 -0.434840 0.597519 -0.097226 -0.397092 0.912614 163 163 163
0.195291 -0.581734 0.601055 -0.097226 -0.397092 0.912614 163 163 163
-0.267799 0.044489 0.824198 -0.097226 -0.397092 0.912614 163 163 163
0.484920 0.299697 0.661642 0.801868 -0.195876 0.564482 163 163 163
0.585261 -0.607193 0.204413 0.801868 -0.195876 0.564482 163 163 163
0.866613 -0.044489 0.000000 0.801868 -0.195876 0.564482 163 163 163
0.585261 -0.607193 0.204413 0.903104 -0.421233 0.083461 163 163 163
0.705433 -0.434839 -0.226049 0.903104 -0.421233 0.083461 163 163 163
0.866613 -0.044489 0.000000 0.903104 -0.421233 0.083461 163 163 163
0.866613 -0.044489 0.000000 0.909310 -0.150894 -0.387797 163 163 163
0.705433 -0.434839 -0.226049 0.909310 -0.150894 -0.387797 163 163 163
0.738704 0.296143 -0.432465 0.909310 -0.150894 -0.387797 163 163 163
0.705433 -0.434839 -0.226049 0.572779 -0.246800 -0.781674 163 163 163
0.003004 -0.434841 -0.740760 0.572779 -0.246800 -0.781674 163 163 163
0.738704 0.296143 -0.432465 0.572779 -0.246800 -0.781674 163 163 163
0.003004 -0.434841 -0.740760 -0.528689 -0.426443 -0.733917 163 163 163
-0.703577 -0.434838 -0.231765 -0.528689 -0.426443 -0.733917 163 163 163
-0.267799 0.044489 -0.824198 -0.528689 -0.426443 -0.733917 163 163 163
-0.703577 -0.434838 -0.231765 -0.861372 -0.426443 0.276016 163 163 163
-0.437842 -0.434840 0.597519 -0.861372 -0.426443 0.276016 163 163 163
-0.866613 0.044489 0.000000 -0.861372 -0.426443 0.276016 163 163 163
-0.147909 -0.880592 -0.107462 -0.202850 -0.863180 0.462355 163 163 163
0.195291 -0.581734 0.601055 -0.202850 -0.863180 0.462355 163 163 163
-0.437842 -0.434840 0.597519 -0.202850 -0.863180 0.462355 163 163 163
0.585261 -0.607193 0.204413 0.424897 -0.875073 -0.231755 163 163 163
-0.147909 -0.880592 -0.107462 0.424897 -0.875073 -0.231755 163 163 163
0.705433 -0.434839 -0.226049 0.424897 -0.875073 -0.231755 163 163 163
-0.147909 -0.880592 -0.107462 0.352472 -0.802736 -0.481018 163 163 163
0.003004 -0.434841 -0.740760 0.352472 -0.802736 -0.481018 163 163 163
0.705433 -0.434839 -0.226049 0.352472 -0.802736 -0.481018 163 163 163
-0.703577 -0.434838 -0.231765 -0.639942 -0.740557 0.205061 163 163 163
-0.147909 -0.880592 -0.107462 -0.639942 -0.740557 0.205061 163 163 163
-0.437842 -0.434840 0.597519 -0.639942 -0.740557 0.205061 163 163 163
-0.147909 -0.880592 -0.107462 -0.422729 -0.690608 -0.586823 163 163 163
-0.703577 -0.434838 -0.231765 -0.422729 -0.690608 -0.586823 163 163 163
0.003004 -0.434841 -0.740760 -0.422729 -0.690608 -0.586823 163 163 163
3 0 1 2
3 3 4 5
3 6 7 8
3 9 10 11
3 12 13 14
3 15 16 17
3 18 19 20
3 21 22 23
3 24 25 26
3 27 28 29
3 30 31 32
3 33 34 35
3 36 37 38
3 39 40 41
3 42 43 44
3 45 46 47
3 48 49 50
3 51 52 53
3 54 55 56
3 57 58 59
3 60 61 62
3 63 64 65
3 66 67 68
3 69 70 71
3 72 73 74
3 75 76 77
3 78 79 80
3 81 82 83
3 84 85 86
3 87 88 89
3 90 91 92
3 93 94 95
