ply
format ascii 1.0
comment Created by Blender 2.77 (sub 0) - www.blender.org, source file: 'Anvil.blend'
element vertex 450
property float x
property float y
property float z
property float nx
property float ny
property float nz
property uchar red
property uchar green
property uchar blue
element face 288
property list uchar uint vertex_indices
end_header
0.173363 0.026344 1.058724 -0.611341 0.000000 0.791367 89 89 89
0.457099 -0.040860 1.277914 -0.611341 0.000000 0.791367 89 89 89
0.457099 0.026344 1.277914 -0.611341 0.000000 0.791367 89 89 89
0.433215 0.026344 0.411375 -0.779058 -0.000000 -0.626952 89 89 89
0.204612 -0.040860 0.695440 -0.779058 -0.000000 -0.626952 89 89 89
0.204612 0.026344 0.695440 -0.779058 -0.000000 -0.626952 89 89 89
1.080565 0.026344 0.671227 0.606837 0.000000 -0.794827 89 89 89
0.789754 -0.040860 0.449198 0.606837 0.000000 -0.794827 89 89 89
0.789754 0.026344 0.449198 0.606837 0.000000 -0.794827 89 89 89
0.820712 0.026344 1.318577 0.779058 0.000000 0.626952 89 89 89
1.049315 -0.040860 1.034512 0.779058 0.000000 0.626952 89 89 89
1.049315 0.026344 1.034512 0.779058 0.000000 0.626952 89 89 89
0.622348 -0.040860 0.863123 -0.000000 -1.000000 0.000000 89 89 89
0.433215 -0.040860 0.411375 -0.000000 -1.000000 0.000000 89 89 89
0.789754 -0.040860 0.449198 -0.000000 -1.000000 0.000000 89 89 89
0.622348 0.026344 0.863123 0.000000 1.000000 0.000000 89 89 89
0.173363 0.026344 1.058724 0.000000 1.000000 0.000000 89 89 89
0.457099 0.026344 1.277914 0.000000 1.000000 0.000000 89 89 89
0.433215 0.026344 0.411375 0.000000 1.000000 0.000000 89 89 89
0.789754 0.026344 0.449198 0.000000 1.000000 0.000000 89 89 89
0.173363 -0.040860 1.058724 -0.000000 -1.000000 -0.000000 89 89 89
0.457099 -0.040860 1.277914 -0.000000 -1.000000 -0.000000 89 89 89
1.049315 0.026344 1.034512 0.996321 0.000000 0.085704 89 89 89
1.080565 -0.040860 0.671227 0.996321 0.000000 0.085704 89 89 89
1.080565 0.026344 0.671227 0.996321 0.000000 0.085704 89 89 89
0.204612 0.026344 0.695440 -0.996321 -0.000000 -0.085703 89 89 89
0.173363 -0.040860 1.058724 -0.996321 -0.000000 -0.085703 89 89 89
0.173363 0.026344 1.058724 -0.996321 -0.000000 -0.085703 89 89 89
0.820712 -0.040860 1.318577 -0.000000 -1.000000 0.000000 89 89 89
1.049315 -0.040860 1.034512 -0.000000 -1.000000 0.000000 89 89 89
1.080565 0.026344 0.671227 0.000000 1.000000 0.000000 89 89 89
1.049315 0.026344 1.034512 0.000000 1.000000 0.000000 89 89 89
0.820712 0.026344 1.318577 0.000000 1.000000 0.000000 89 89 89
1.080565 -0.040860 0.671227 -0.000000 -1.000000 -0.000000 89 89 89
0.789754 0.026344 0.449198 0.105493 0.000000 -0.994420 89 89 89
0.433215 -0.040860 0.411375 0.105493 0.000000 -0.994420 89 89 89
0.433215 0.026344 0.411375 0.105493 0.000000 -0.994420 89 89 89
0.457099 0.026344 1.277914 -0.111138 0.000000 0.993805 89 89 89
0.820712 -0.040860 1.318577 -0.111138 0.000000 0.993805 89 89 89
0.820712 0.026344 1.318577 -0.111138 0.000000 0.993805 89 89 89
-0.433828 0.012619 0.198536 -0.998522 -0.000000 -0.054340 89 89 89
-0.445353 -0.027135 0.410311 -0.998522 -0.000000 -0.054340 89 89 89
-0.445353 0.012619 0.410311 -0.998522 -0.000000 -0.054340 89 89 89
-0.031295 0.012619 0.107817 0.074179 0.000000 -0.997245 89 89 89
-0.246390 -0.027135 0.091817 0.074179 0.000000 -0.997245 89 89 89
-0.246390 0.012619 0.091817 0.074179 0.000000 -0.997245 89 89 89
0.059424 0.012619 0.510350 0.998815 0.000000 0.048668 89 89 89
0.069957 -0.027135 0.294176 0.998815 0.000000 0.048668 89 89 89
0.069957 0.012619 0.294176 0.998815 0.000000 0.048668 89 89 89
-0.343109 0.012619 0.601069 -0.074178 0.000000 0.997245 89 89 89
-0.128014 -0.027135 0.617069 -0.074178 0.000000 0.997245 89 89 89
-0.128014 0.012619 0.617069 -0.074178 0.000000 0.997245 89 89 89
-0.187849 -0.027135 0.351573 -0.000000 -1.000000 0.000000 89 89 89
-0.031295 -0.027135 0.107817 -0.000000 -1.000000 0.000000 89 89 89
0.069957 -0.027135 0.294176 -0.000000 -1.000000 0.000000 89 89 89
-0.187849 0.012619 0.351573 -0.000000 1.000000 0.000000 89 89 89
-0.433828 0.012619 0.198536 -0.000000 1.000000 0.000000 89 89 89
-0.445353 0.012619 0.410311 -0.000000 1.000000 0.000000 89 89 89
-0.031295 0.012619 0.107817 0.000000 1.000000 0.000000 89 89 89
0.069957 0.012619 0.294176 0.000000 1.000000 0.000000 89 89 89
-0.433828 -0.027135 0.198536 0.000000 -1.000000 -0.000000 89 89 89
-0.445353 -0.027135 0.410311 0.000000 -1.000000 -0.000000 89 89 89
-0.128014 0.012619 0.617069 0.494778 0.000000 0.869020 89 89 89
0.059424 -0.027135 0.510350 0.494778 0.000000 0.869020 89 89 89
0.059424 0.012619 0.510350 0.494778 0.000000 0.869020 89 89 89
-0.246390 0.012619 0.091817 -0.494778 -0.000000 -0.869019 89 89 89
-0.433828 -0.027135 0.198536 -0.494778 -0.000000 -0.869019 89 89 89
-0.433828 0.012619 0.198536 -0.494778 -0.000000 -0.869019 89 89 89
-0.343109 -0.027135 0.601069 -0.000000 -1.000000 0.000000 89 89 89
-0.128014 -0.027135 0.617069 -0.000000 -1.000000 0.000000 89 89 89
0.059424 0.012619 0.510350 -0.000000 1.000000 0.000000 89 89 89
-0.128014 0.012619 0.617069 -0.000000 1.000000 0.000000 89 89 89
-0.343109 0.012619 0.601069 0.000000 1.000000 0.000000 89 89 89
0.059424 -0.027135 0.510350 0.000000 -1.000000 -0.000000 89 89 89
0.069957 0.012619 0.294176 0.878684 0.000000 -0.477404 89 89 89
-0.031295 -0.027135 0.107817 0.878684 0.000000 -0.477404 89 89 89
-0.031295 0.012619 0.107817 0.878684 0.000000 -0.477404 89 89 89
-0.445353 0.012619 0.410311 -0.881380 0.000000 0.472407 89 89 89
-0.343109 -0.027135 0.601069 -0.881380 0.000000 0.472407 89 89 89
-0.343109 0.012619 0.601069 -0.881380 0.000000 0.472407 89 89 89
-0.933472 0.025364 0.850814 -0.998522 -0.000000 -0.054340 89 89 89
-0.952386 -0.039880 1.198376 -0.998522 -0.000000 -0.054340 89 89 89
-0.952386 0.025364 1.198376 -0.998522 -0.000000 -0.054340 89 89 89
-0.272839 0.025364 0.701927 0.074179 0.000000 -0.997245 89 89 89
-0.625850 -0.039880 0.675669 0.074179 0.000000 -0.997245 89 89 89
-0.625850 0.025364 0.675669 0.074179 0.000000 -0.997245 89 89 89
-0.123952 0.025364 1.362560 0.998815 0.000000 0.048668 89 89 89
-0.106665 -0.039880 1.007777 0.998815 0.000000 0.048668 89 89 89
-0.106665 0.025364 1.007777 0.998815 0.000000 0.048668 89 89 89
-0.784585 0.025364 1.511446 -0.074179 0.000000 0.997245 89 89 89
-0.431574 -0.039880 1.537704 -0.074179 0.000000 0.997245 89 89 89
-0.431574 0.025364 1.537704 -0.074179 0.000000 0.997245 89 89 89
-0.529774 -0.039880 1.101976 -0.000000 -1.000000 0.000000 89 89 89
-0.272839 -0.039880 0.701927 -0.000000 -1.000000 0.000000 89 89 89
-0.106665 -0.039880 1.007777 -0.000000 -1.000000 0.000000 89 89 89
-0.529774 0.025364 1.101976 -0.000000 1.000000 0.000000 89 89 89
-0.933472 0.025364 0.850814 -0.000000 1.000000 0.000000 89 89 89
-0.952386 0.025364 1.198376 -0.000000 1.000000 0.000000 89 89 89
-0.272839 0.025364 0.701927 0.000000 1.000000 0.000000 89 89 89
-0.106665 0.025364 1.007777 0.000000 1.000000 0.000000 89 89 89
-0.933472 -0.039880 0.850814 0.000000 -1.000000 -0.000000 89 89 89
-0.952386 -0.039880 1.198376 0.000000 -1.000000 -0.000000 89 89 89
-0.431574 0.025364 1.537704 0.494778 0.000000 0.869020 89 89 89
-0.123952 -0.039880 1.362560 0.494778 0.000000 0.869020 89 89 89
-0.123952 0.025364 1.362560 0.494778 0.000000 0.869020 89 89 89
-0.625850 0.025364 0.675669 -0.494778 -0.000000 -0.869020 89 89 89
-0.933472 -0.039880 0.850814 -0.494778 -0.000000 -0.869020 89 89 89
-0.933472 0.025364 0.850814 -0.494778 -0.000000 -0.869020 89 89 89
-0.784585 -0.039880 1.511446 -0.000000 -1.000000 0.000000 89 89 89
-0.431574 -0.039880 1.537704 -0.000000 -1.000000 0.000000 89 89 89
-0.123952 0.025364 1.362560 -0.000000 1.000000 0.000000 89 89 89
-0.431574 0.025364 1.537704 -0.000000 1.000000 0.000000 89 89 89
-0.784585 0.025364 1.511446 0.000000 1.000000 0.000000 89 89 89
-0.123952 -0.039880 1.362560 0.000000 -1.000000 -0.000000 89 89 89
-0.106665 0.025364 1.007777 0.878684 0.000000 -0.477405 89 89 89
-0.272839 -0.039880 0.701927 0.878684 0.000000 -0.477405 89 89 89
-0.272839 0.025364 0.701927 0.878684 0.000000 -0.477405 89 89 89
-0.952386 0.025364 1.198376 -0.881380 0.000000 0.472407 89 89 89
-0.784585 -0.039880 1.511446 -0.881380 0.000000 0.472407 89 89 89
-0.784585 0.025364 1.511446 -0.881380 0.000000 0.472407 89 89 89
-0.093961 0.026344 3.180377 0.473461 0.000000 -0.880815 89 89 89
-0.409767 -0.040860 3.010623 0.473461 0.000000 -0.880815 89 89 89
-0.409767 0.026344 3.010623 0.473461 0.000000 -0.880815 89 89 89
-0.244270 0.026344 3.861547 0.871229 0.000000 0.490877 89 89 89
-0.065284 -0.040860 3.543874 0.871229 0.000000 0.490877 89 89 89
-0.065284 0.026344 3.543874 0.871229 0.000000 0.490877 89 89 89
-0.925440 0.026344 3.711238 -0.468451 0.000000 0.883489 89 89 89
-0.602189 -0.040860 3.882635 -0.468451 0.000000 0.883489 89 89 89
-0.602189 0.026344 3.882635 -0.468451 0.000000 0.883489 89 89 89
-0.775130 0.026344 3.030068 -0.871229 -0.000000 -0.490877 89 89 89
-0.954117 -0.040860 3.347741 -0.871229 -0.000000 -0.490877 89 89 89
-0.954117 0.026344 3.347741 -0.871229 -0.000000 -0.490877 89 89 89
-0.504843 -0.040860 3.446879 0.000000 -1.000000 -0.000000 89 89 89
-0.244270 -0.040860 3.861547 0.000000 -1.000000 -0.000000 89 89 89
-0.602189 -0.040860 3.882635 0.000000 -1.000000 -0.000000 89 89 89
-0.504843 0.026344 3.446879 0.000000 1.000000 -0.000000 89 89 89
-0.093961 0.026344 3.180377 0.000000 1.000000 -0.000000 89 89 89
-0.409767 0.026344 3.010623 0.000000 1.000000 -0.000000 89 89 89
-0.244270 0.026344 3.861547 -0.000000 1.000000 0.000000 89 89 89
-0.602189 0.026344 3.882635 -0.000000 1.000000 0.000000 89 89 89
-0.093961 -0.040860 3.180377 0.000000 -1.000000 0.000000 89 89 89
-0.409767 -0.040860 3.010623 0.000000 -1.000000 0.000000 89 89 89
-0.954117 0.026344 3.347741 -0.996902 0.000000 0.078648 89 89 89
-0.925440 -0.040860 3.711238 -0.996902 0.000000 0.078648 89 89 89
-0.925440 0.026344 3.711238 -0.996902 0.000000 0.078648 89 89 89
-0.065284 0.026344 3.543874 0.996902 0.000000 -0.078648 89 89 89
-0.093961 -0.040860 3.180377 0.996902 0.000000 -0.078648 89 89 89
-0.093961 0.026344 3.180377 0.996902 0.000000 -0.078648 89 89 89
-0.775130 -0.040860 3.030068 0.000000 -1.000000 -0.000000 89 89 89
-0.954117 -0.040860 3.347741 0.000000 -1.000000 -0.000000 89 89 89
-0.925440 0.026344 3.711238 0.000000 1.000000 -0.000000 89 89 89
-0.954117 0.026344 3.347741 0.000000 1.000000 -0.000000 89 89 89
-0.775130 0.026344 3.030068 -0.000000 1.000000 0.000000 89 89 89
-0.925440 -0.040860 3.711238 0.000000 -1.000000 0.000000 89 89 89
-0.602189 0.026344 3.882635 0.058815 0.000000 0.998269 89 89 89
-0.244270 -0.040860 3.861547 0.058815 0.000000 0.998269 89 89 89
-0.244270 0.026344 3.861547 0.058815 0.000000 0.998269 89 89 89
-0.409767 0.026344 3.010623 -0.053146 -0.000000 -0.998587 89 89 89
-0.775130 -0.040860 3.030068 -0.053146 -0.000000 -0.998587 89 89 89
-0.775130 0.026344 3.030068 -0.053146 -0.000000 -0.998587 89 89 89
1.039694 0.015557 3.766518 0.993937 0.000000 -0.109948 89 89 89
1.012929 -0.030073 3.524554 0.993937 0.000000 -0.109948 89 89 89
1.012929 0.015557 3.524554 0.993937 0.000000 -0.109948 89 89 89
0.600956 0.015557 3.944919 0.090169 0.000000 0.995926 89 89 89
0.847519 -0.030073 3.922596 0.090169 0.000000 0.995926 89 89 89
0.847519 0.015557 3.922596 0.090169 0.000000 0.995926 89 89 89
0.422554 0.015557 3.506181 -0.993297 0.000000 0.115591 89 89 89
0.451270 -0.030073 3.752939 -0.993297 0.000000 0.115591 89 89 89
0.451270 0.015557 3.752939 -0.993297 0.000000 0.115591 89 89 89
0.861293 0.015557 3.327779 -0.090168 -0.000000 -0.995926 89 89 89
0.614729 -0.030073 3.350102 -0.090168 -0.000000 -0.995926 89 89 89
0.614729 0.015557 3.350102 -0.090168 -0.000000 -0.995926 89 89 89
0.732396 -0.030073 3.639478 0.000000 -1.000000 0.000000 89 89 89
0.600956 -0.030073 3.944919 0.000000 -1.000000 0.000000 89 89 89
0.451270 -0.030073 3.752939 0.000000 -1.000000 0.000000 89 89 89
0.732396 0.015557 3.639478 0.000000 1.000000 -0.000000 89 89 89
1.039694 0.015557 3.766518 0.000000 1.000000 -0.000000 89 89 89
1.012929 0.015557 3.524554 0.000000 1.000000 -0.000000 89 89 89
0.600956 0.015557 3.944919 -0.000000 1.000000 -0.000000 89 89 89
0.451270 0.015557 3.752939 -0.000000 1.000000 -0.000000 89 89 89
1.039694 -0.030073 3.766518 0.000000 -1.000000 0.000000 89 89 89
1.012929 -0.030073 3.524554 0.000000 -1.000000 0.000000 89 89 89
0.614729 0.015557 3.350102 -0.630437 -0.000000 -0.776240 89 89 89
0.422554 -0.030073 3.506181 -0.630437 -0.000000 -0.776240 89 89 89
0.422554 0.015557 3.506181 -0.630437 -0.000000 -0.776240 89 89 89
0.847519 0.015557 3.922596 0.630437 0.000000 0.776240 89 89 89
1.039694 -0.030073 3.766518 0.630437 0.000000 0.776240 89 89 89
1.039694 0.015557 3.766518 0.630437 0.000000 0.776240 89 89 89
0.861293 -0.030073 3.327779 0.000000 -1.000000 0.000000 89 89 89
0.614729 -0.030073 3.350102 0.000000 -1.000000 0.000000 89 89 89
0.422554 0.015557 3.506181 0.000000 1.000000 -0.000000 89 89 89
0.614729 0.015557 3.350102 0.000000 1.000000 -0.000000 89 89 89
0.861293 0.015557 3.327779 -0.000000 1.000000 -0.000000 89 89 89
0.422554 -0.030073 3.506181 0.000000 -1.000000 0.000000 89 89 89
0.451270 0.015557 3.752939 -0.788619 0.000000 0.614882 89 89 89
0.600956 -0.030073 3.944919 -0.788619 0.000000 0.614882 89 89 89
0.600956 0.015557 3.944919 -0.788619 0.000000 0.614882 89 89 89
1.012929 0.015557 3.524554 0.792098 0.000000 -0.610394 89 89 89
0.861293 -0.030073 3.327779 0.792098 0.000000 -0.610394 89 89 89
0.861293 0.015557 3.327779 0.792098 0.000000 -0.610394 89 89 89
0.603351 0.004031 2.959047 0.993937 0.000000 -0.109949 89 89 89
0.590108 -0.018547 2.839324 0.993937 0.000000 -0.109949 89 89 89
0.590108 0.004031 2.839324 0.993937 0.000000 -0.109949 89 89 89
0.386265 0.004031 3.047319 0.090171 0.000000 0.995926 89 89 89
0.508264 -0.018547 3.036274 0.090171 0.000000 0.995926 89 89 89
0.508264 0.004031 3.036274 0.090171 0.000000 0.995926 89 89 89
0.297992 0.004031 2.830233 -0.993297 0.000000 0.115592 89 89 89
0.312201 -0.018547 2.952328 -0.993297 0.000000 0.115592 89 89 89
0.312201 0.004031 2.952328 -0.993297 0.000000 0.115592 89 89 89
0.515079 0.004031 2.741960 -0.090169 -0.000000 -0.995926 89 89 89
0.393080 -0.018547 2.753006 -0.090169 -0.000000 -0.995926 89 89 89
0.393080 0.004031 2.753006 -0.090169 -0.000000 -0.995926 89 89 89
0.451301 -0.018547 2.896188 0.000000 -1.000000 0.000000 89 89 89
0.386265 -0.018547 3.047319 0.000000 -1.000000 0.000000 89 89 89
0.312201 -0.018547 2.952328 0.000000 -1.000000 0.000000 89 89 89
0.451301 0.004031 2.896188 0.000000 1.000000 -0.000000 89 89 89
0.603351 0.004031 2.959047 0.000000 1.000000 -0.000000 89 89 89
0.590108 0.004031 2.839324 0.000000 1.000000 -0.000000 89 89 89
0.386265 0.004031 3.047319 -0.000000 1.000000 -0.000000 89 89 89
0.312201 0.004031 2.952328 -0.000000 1.000000 -0.000000 89 89 89
0.603351 -0.018547 2.959047 0.000000 -1.000000 0.000000 89 89 89
0.590108 -0.018547 2.839324 0.000000 -1.000000 0.000000 89 89 89
0.393080 0.004031 2.753006 -0.630437 -0.000000 -0.776240 89 89 89
0.297992 -0.018547 2.830233 -0.630437 -0.000000 -0.776240 89 89 89
0.297992 0.004031 2.830233 -0.630437 -0.000000 -0.776240 89 89 89
0.508264 0.004031 3.036274 0.630437 0.000000 0.776240 89 89 89
0.603351 -0.018547 2.959047 0.630437 0.000000 0.776240 89 89 89
0.603351 0.004031 2.959047 0.630437 0.000000 0.776240 89 89 89
0.515079 -0.018547 2.741960 0.000000 -1.000000 0.000000 89 89 89
0.393080 -0.018547 2.753006 0.000000 -1.000000 0.000000 89 89 89
0.297992 0.004031 2.830233 0.000000 1.000000 -0.000000 89 89 89
0.393080 0.004031 2.753006 0.000000 1.000000 -0.000000 89 89 89
0.515079 0.004031 2.741960 -0.000000 1.000000 -0.000000 89 89 89
0.297992 -0.018547 2.830233 0.000000 -1.000000 0.000000 89 89 89
0.312201 0.004031 2.952328 -0.788620 0.000000 0.614881 89 89 89
0.386265 -0.018547 3.047319 -0.788620 0.000000 0.614881 89 89 89
0.386265 0.004031 3.047319 -0.788620 0.000000 0.614881 89 89 89
0.590108 0.004031 2.839324 0.792098 0.000000 -0.610394 89 89 89
0.515079 -0.018547 2.741960 0.792098 0.000000 -0.610394 89 89 89
0.515079 0.004031 2.741960 0.792098 0.000000 -0.610394 89 89 89
-0.602559 0.009047 2.643727 -0.960271 0.000000 0.279068 89 89 89
-0.554006 -0.023563 2.810795 -0.960271 0.000000 0.279068 89 89 89
-0.554006 0.009047 2.810795 -0.960271 0.000000 0.279068 89 89 89
-0.315568 0.009047 2.464255 -0.259925 -0.000000 -0.965629 89 89 89
-0.486421 -0.023563 2.510245 -0.259925 -0.000000 -0.965629 89 89 89
-0.486421 0.009047 2.510245 -0.259925 -0.000000 -0.965629 89 89 89
-0.136097 0.009047 2.751245 0.958671 0.000000 -0.284517 89 89 89
-0.186611 -0.023563 2.581041 0.958671 0.000000 -0.284517 89 89 89
-0.186611 0.009047 2.581041 0.958671 0.000000 -0.284517 89 89 89
-0.423087 0.009047 2.930717 0.259925 0.000000 0.965629 89 89 89
-0.252235 -0.023563 2.884728 0.259925 0.000000 0.965629 89 89 89
-0.252235 0.009047 2.884728 0.259925 0.000000 0.965629 89 89 89
-0.370608 -0.023563 2.695440 -0.000000 -1.000000 0.000000 89 89 89
-0.315568 -0.023563 2.464255 -0.000000 -1.000000 0.000000 89 89 89
-0.186611 -0.023563 2.581041 -0.000000 -1.000000 0.000000 89 89 89
-0.370608 0.009047 2.695440 -0.000000 1.000000 0.000000 89 89 89
-0.602559 0.009047 2.643727 -0.000000 1.000000 0.000000 89 89 89
-0.554006 0.009047 2.810795 -0.000000 1.000000 0.000000 89 89 89
-0.315568 0.009047 2.464255 0.000000 1.000000 0.000000 89 89 89
-0.186611 0.009047 2.581041 0.000000 1.000000 0.000000 89 89 89
-0.602559 -0.023563 2.643727 0.000000 -1.000000 -0.000000 89 89 89
-0.554006 -0.023563 2.810795 0.000000 -1.000000 -0.000000 89 89 89
-0.252235 0.009047 2.884728 0.754420 0.000000 0.656392 89 89 89
-0.136097 -0.023563 2.751245 0.754420 0.000000 0.656392 89 89 89
-0.136097 0.009047 2.751245 0.754420 0.000000 0.656392 89 89 89
-0.486421 0.009047 2.510245 -0.754419 -0.000000 -0.656393 89 89 89
-0.602559 -0.023563 2.643727 -0.754419 -0.000000 -0.656393 89 89 89
-0.602559 0.009047 2.643727 -0.754419 -0.000000 -0.656393 89 89 89
-0.423087 -0.023563 2.930717 -0.000000 -1.000000 0.000000 89 89 89
-0.252235 -0.023563 2.884728 -0.000000 -1.000000 0.000000 89 89 89
-0.136097 0.009047 2.751245 -0.000000 1.000000 0.000000 89 89 89
-0.252235 0.009047 2.884728 -0.000000 1.000000 0.000000 89 89 89
-0.423087 0.009047 2.930717 0.000000 1.000000 0.000000 89 89 89
-0.136097 -0.023563 2.751245 0.000000 -1.000000 -0.000000 89 89 89
-0.186611 0.009047 2.581041 0.671259 0.000000 -0.741223 89 89 89
-0.315568 -0.023563 2.464255 0.671259 0.000000 -0.741223 89 89 89
-0.315568 0.009047 2.464255 0.671259 0.000000 -0.741223 89 89 89
-0.554006 0.009047 2.810795 -0.675458 0.000000 0.737398 89 89 89
-0.423087 -0.023563 2.930717 -0.675458 0.000000 0.737398 89 89 89
-0.423087 0.009047 2.930717 -0.675458 0.000000 0.737398 89 89 89
-0.830562 0.012619 1.890366 -0.960271 0.000000 0.279069 89 89 89
-0.771375 -0.027135 2.094028 -0.960271 0.000000 0.279069 89 89 89
-0.771375 0.012619 2.094028 -0.960271 0.000000 0.279069 89 89 89
-0.480709 0.012619 1.671583 -0.259924 -0.000000 -0.965629 89 89 89
-0.688985 -0.027135 1.727646 -0.259924 -0.000000 -0.965629 89 89 89
-0.688985 0.012619 1.727646 -0.259924 -0.000000 -0.965629 89 89 89
-0.261926 0.012619 2.021435 0.958671 0.000000 -0.284517 89 89 89
-0.323505 -0.027135 1.813949 0.958671 0.000000 -0.284517 89 89 89
-0.323505 0.012619 1.813949 0.958671 0.000000 -0.284517 89 89 89
-0.611779 0.012619 2.240219 0.259923 0.000000 0.965629 89 89 89
-0.403503 -0.027135 2.184156 0.259923 0.000000 0.965629 89 89 89
-0.403503 0.012619 2.184156 0.259923 0.000000 0.965629 89 89 89
-0.547804 -0.027135 1.953406 -0.000000 -1.000000 0.000000 89 89 89
-0.480709 -0.027135 1.671583 -0.000000 -1.000000 0.000000 89 89 89
-0.323505 -0.027135 1.813949 -0.000000 -1.000000 0.000000 89 89 89
-0.547804 0.012619 1.953406 -0.000000 1.000000 0.000000 89 89 89
-0.830562 0.012619 1.890366 -0.000000 1.000000 0.000000 89 89 89
-0.771375 0.012619 2.094028 -0.000000 1.000000 0.000000 89 89 89
-0.480709 0.012619 1.671583 0.000000 1.000000 0.000000 89 89 89
-0.323505 0.012619 1.813949 0.000000 1.000000 0.000000 89 89 89
-0.830562 -0.027135 1.890366 0.000000 -1.000000 -0.000000 89 89 89
-0.771375 -0.027135 2.094028 0.000000 -1.000000 -0.000000 89 89 89
-0.403503 0.012619 2.184156 0.754420 0.000000 0.656392 89 89 89
-0.261926 -0.027135 2.021435 0.754420 0.000000 0.656392 89 89 89
-0.261926 0.012619 2.021435 0.754420 0.000000 0.656392 89 89 89
-0.688985 0.012619 1.727646 -0.754419 -0.000000 -0.656393 89 89 89
-0.830562 -0.027135 1.890366 -0.754419 -0.000000 -0.656393 89 89 89
-0.830562 0.012619 1.890366 -0.754419 -0.000000 -0.656393 89 89 89
-0.611779 -0.027135 2.240219 -0.000000 -1.000000 0.000000 89 89 89
-0.403503 -0.027135 2.184156 -0.000000 -1.000000 0.000000 89 89 89
-0.261926 0.012619 2.021435 -0.000000 1.000000 0.000000 89 89 89
-0.403503 0.012619 2.184156 -0.000000 1.000000 0.000000 89 89 89
-0.611779 0.012619 2.240219 0.000000 1.000000 0.000000 89 89 89
-0.261926 -0.027135 2.021435 0.000000 -1.000000 -0.000000 89 89 89
-0.323505 0.012619 1.813949 0.671260 0.000000 -0.741222 89 89 89
-0.480709 -0.027135 1.671583 0.671260 0.000000 -0.741222 89 89 89
-0.480709 0.012619 1.671583 0.671260 0.000000 -0.741222 89 89 89
-0.771375 0.012619 2.094028 -0.675459 0.000000 0.737398 89 89 89
-0.611779 -0.027135 2.240219 -0.675459 0.000000 0.737398 89 89 89
-0.611779 0.012619 2.240219 -0.675459 0.000000 0.737398 89 89 89
-0.029457 0.026344 2.340142 -0.315101 0.000000 0.949058 89 89 89
0.310818 -0.040860 2.453118 -0.315101 0.000000 0.949058 89 89 89
0.310818 0.026344 2.453118 -0.315101 0.000000 0.949058 89 89 89
0.001596 0.026344 1.643277 -0.942607 -0.000000 -0.333905 89 89 89
-0.120155 -0.040860 1.986976 -0.942607 -0.000000 -0.333905 89 89 89
-0.120155 0.026344 1.986976 -0.942607 -0.000000 -0.333905 89 89 89
0.698461 0.026344 1.674330 0.309707 0.000000 -0.950832 89 89 89
0.350570 -0.040860 1.561014 0.309707 0.000000 -0.950832 89 89 89
0.350570 0.026344 1.561014 0.309707 0.000000 -0.950832 89 89 89
0.667408 0.026344 2.371195 0.942607 0.000000 0.333905 89 89 89
0.789159 -0.040860 2.027496 0.942607 0.000000 0.333905 89 89 89
0.789159 0.026344 2.027496 0.942607 0.000000 0.333905 89 89 89
0.329533 -0.040860 2.007015 0.000000 -1.000000 0.000000 89 89 89
0.001596 -0.040860 1.643277 0.000000 -1.000000 0.000000 89 89 89
0.350570 -0.040860 1.561014 0.000000 -1.000000 0.000000 89 89 89
0.329533 0.026344 2.007015 0.000000 1.000000 0.000000 89 89 89
-0.029457 0.026344 2.340142 0.000000 1.000000 0.000000 89 89 89
0.310818 0.026344 2.453118 0.000000 1.000000 0.000000 89 89 89
0.001596 0.026344 1.643277 0.000000 1.000000 0.000000 89 89 89
0.350570 0.026344 1.561014 0.000000 1.000000 0.000000 89 89 89
-0.029457 -0.040860 2.340142 -0.000000 -1.000000 -0.000000 89 89 89
0.310818 -0.040860 2.453118 -0.000000 -1.000000 -0.000000 89 89 89
0.789159 0.026344 2.027496 0.968570 0.000000 -0.248743 89 89 89
0.698461 -0.040860 1.674330 0.968570 0.000000 -0.248743 89 89 89
0.698461 0.026344 1.674330 0.968570 0.000000 -0.248743 89 89 89
-0.120155 0.026344 1.986976 -0.968570 0.000000 0.248743 89 89 89
-0.029457 -0.040860 2.340142 -0.968570 0.000000 0.248743 89 89 89
-0.029457 0.026344 2.340142 -0.968570 0.000000 0.248743 89 89 89
0.667408 -0.040860 2.371195 -0.000000 -1.000000 0.000000 89 89 89
0.789159 -0.040860 2.027496 -0.000000 -1.000000 0.000000 89 89 89
0.698461 0.026344 1.674330 0.000000 1.000000 0.000000 89 89 89
0.789159 0.026344 2.027496 0.000000 1.000000 0.000000 89 89 89
0.667408 0.026344 2.371195 0.000000 1.000000 0.000000 89 89 89
0.698461 -0.040860 1.674330 -0.000000 -1.000000 0.000000 89 89 89
0.350570 0.026344 1.561014 -0.229439 -0.000000 -0.973323 89 89 89
0.001596 -0.040860 1.643277 -0.229439 -0.000000 -0.973323 89 89 89
0.001596 0.026344 1.643277 -0.229439 -0.000000 -0.973323 89 89 89
0.310818 0.026344 2.453118 0.223908 0.000000 0.974610 89 89 89
0.667408 -0.040860 2.371195 0.223908 0.000000 0.974610 89 89 89
0.667408 0.026344 2.371195 0.223908 0.000000 0.974610 89 89 89
0.173363 -0.040860 1.058724 -0.611341 0.000000 0.791367 89 89 89
0.433215 -0.040860 0.411375 -0.779058 0.000000 -0.626952 89 89 89
1.080565 -0.040860 0.671227 0.606837 0.000000 -0.794827 89 89 89
0.820712 -0.040860 1.318577 0.779058 -0.000000 0.626952 89 89 89
0.204612 -0.040860 0.695440 0.000000 -1.000000 0.000000 89 89 89
0.204612 0.026344 0.695440 -0.000000 1.000000 0.000000 89 89 89
1.049315 -0.040860 1.034512 0.996321 -0.000000 0.085704 89 89 89
0.204612 -0.040860 0.695440 -0.996321 0.000000 -0.085703 89 89 89
0.789754 -0.040860 0.449198 0.105493 0.000000 -0.994420 89 89 89
0.457099 -0.040860 1.277914 -0.111138 0.000000 0.993805 89 89 89
-0.433828 -0.027135 0.198536 -0.998522 0.000000 -0.054340 89 89 89
-0.031295 -0.027135 0.107817 0.074179 0.000000 -0.997245 89 89 89
0.059424 -0.027135 0.510350 0.998815 -0.000000 0.048668 89 89 89
-0.343109 -0.027135 0.601069 -0.074178 0.000000 0.997245 89 89 89
-0.246390 -0.027135 0.091817 -0.000000 -1.000000 0.000000 89 89 89
-0.246390 0.012619 0.091817 -0.000000 1.000000 0.000000 89 89 89
-0.128014 -0.027135 0.617069 0.494778 -0.000000 0.869020 89 89 89
-0.246390 -0.027135 0.091817 -0.494778 0.000000 -0.869019 89 89 89
0.069957 -0.027135 0.294176 0.878684 0.000000 -0.477404 89 89 89
-0.445353 -0.027135 0.410311 -0.881380 0.000000 0.472407 89 89 89
-0.933472 -0.039880 0.850814 -0.998522 0.000000 -0.054340 89 89 89
-0.272839 -0.039880 0.701927 0.074179 0.000000 -0.997245 89 89 89
-0.123952 -0.039880 1.362560 0.998815 -0.000000 0.048668 89 89 89
-0.784585 -0.039880 1.511446 -0.074179 0.000000 0.997245 89 89 89
-0.625850 -0.039880 0.675669 -0.000000 -1.000000 0.000000 89 89 89
-0.625850 0.025364 0.675669 -0.000000 1.000000 0.000000 89 89 89
-0.431574 -0.039880 1.537704 0.494778 -0.000000 0.869020 89 89 89
-0.625850 -0.039880 0.675669 -0.494778 0.000000 -0.869020 89 89 89
-0.106665 -0.039880 1.007777 0.878684 0.000000 -0.477405 89 89 89
-0.952386 -0.039880 1.198376 -0.881380 0.000000 0.472407 89 89 89
-0.093961 -0.040860 3.180377 0.473461 0.000000 -0.880815 89 89 89
-0.244270 -0.040860 3.861547 0.871229 -0.000000 0.490877 89 89 89
-0.925440 -0.040860 3.711238 -0.468451 0.000000 0.883489 89 89 89
-0.775130 -0.040860 3.030068 -0.871229 0.000000 -0.490877 89 89 89
-0.065284 -0.040860 3.543874 0.000000 -1.000000 -0.000000 89 89 89
-0.065284 0.026344 3.543874 0.000000 1.000000 -0.000000 89 89 89
-0.954117 -0.040860 3.347741 -0.996902 0.000000 0.078648 89 89 89
-0.065284 -0.040860 3.543874 0.996902 0.000000 -0.078648 89 89 89
-0.602189 -0.040860 3.882635 0.058815 -0.000000 0.998269 89 89 89
-0.409767 -0.040860 3.010623 -0.053146 0.000000 -0.998587 89 89 89
1.039694 -0.030073 3.766518 0.993937 0.000000 -0.109948 89 89 89
0.600956 -0.030073 3.944919 0.090169 -0.000000 0.995926 89 89 89
0.422554 -0.030073 3.506181 -0.993297 0.000000 0.115591 89 89 89
0.861293 -0.030073 3.327779 -0.090168 0.000000 -0.995926 89 89 89
0.847519 -0.030073 3.922596 0.000000 -1.000000 -0.000000 89 89 89
0.847519 0.015557 3.922596 0.000000 1.000000 0.000000 89 89 89
0.614729 -0.030073 3.350102 -0.630437 0.000000 -0.776240 89 89 89
0.847519 -0.030073 3.922596 0.630437 -0.000000 0.776240 89 89 89
0.451270 -0.030073 3.752939 -0.788619 0.000000 0.614882 89 89 89
1.012929 -0.030073 3.524554 0.792098 0.000000 -0.610394 89 89 89
0.603351 -0.018547 2.959047 0.993937 0.000000 -0.109949 89 89 89
0.386265 -0.018547 3.047319 0.090171 -0.000000 0.995926 89 89 89
0.297992 -0.018547 2.830233 -0.993297 0.000000 0.115592 89 89 89
0.515079 -0.018547 2.741960 -0.090169 0.000000 -0.995926 89 89 89
0.508264 -0.018547 3.036274 0.000000 -1.000000 -0.000000 89 89 89
0.508264 0.004031 3.036274 0.000000 1.000000 0.000000 89 89 89
0.393080 -0.018547 2.753006 -0.630437 0.000000 -0.776240 89 89 89
0.508264 -0.018547 3.036274 0.630437 -0.000000 0.776240 89 89 89
0.312201 -0.018547 2.952328 -0.788620 0.000000 0.614881 89 89 89
0.590108 -0.018547 2.839324 0.792098 0.000000 -0.610394 89 89 89
-0.602559 -0.023563 2.643727 -0.960271 0.000000 0.279068 89 89 89
-0.315568 -0.023563 2.464255 -0.259925 0.000000 -0.965629 89 89 89
-0.136097 -0.023563 2.751245 0.958671 0.000000 -0.284517 89 89 89
-0.423087 -0.023563 2.930717 0.259925 -0.000000 0.965629 89 89 89
-0.486421 -0.023563 2.510245 0.000000 -1.000000 0.000000 89 89 89
-0.486421 0.009047 2.510245 -0.000000 1.000000 0.000000 89 89 89
-0.252235 -0.023563 2.884728 0.754420 -0.000000 0.656392 89 89 89
-0.486421 -0.023563 2.510245 -0.754419 0.000000 -0.656393 89 89 89
-0.186611 -0.023563 2.581041 0.671259 0.000000 -0.741223 89 89 89
-0.554006 -0.023563 2.810795 -0.675458 0.000000 0.737398 89 89 89
-0.830562 -0.027135 1.890366 -0.960271 0.000000 0.279069 89 89 89
-0.480709 -0.027135 1.671583 -0.259924 0.000000 -0.965629 89 89 89
-0.261926 -0.027135 2.021435 0.958671 0.000000 -0.284517 89 89 89
-0.611779 -0.027135 2.240219 0.259923 -0.000000 0.965629 89 89 89
-0.688985 -0.027135 1.727646 0.000000 -1.000000 0.000000 89 89 89
-0.688985 0.012619 1.727646 -0.000000 1.000000 0.000000 89 89 89
-0.403503 -0.027135 2.184156 0.754420 -0.000000 0.656392 89 89 89
-0.688985 -0.027135 1.727646 -0.754419 0.000000 -0.656393 89 89 89
-0.323505 -0.027135 1.813949 0.671260 0.000000 -0.741222 89 89 89
-0.771375 -0.027135 2.094028 -0.675459 0.000000 0.737398 89 89 89
-0.029457 -0.040860 2.340142 -0.315101 0.000000 0.949058 89 89 89
0.001596 -0.040860 1.643277 -0.942607 0.000000 -0.333905 89 89 89
0.698461 -0.040860 1.674330 0.309707 0.000000 -0.950832 89 89 89
0.667408 -0.040860 2.371195 0.942607 -0.000000 0.333905 89 89 89
-0.120155 -0.040860 1.986976 0.000000 -1.000000 0.000000 89 89 89
-0.120155 0.026344 1.986976 -0.000000 1.000000 0.000000 89 89 89
0.789159 -0.040860 2.027496 0.968570 0.000000 -0.248743 89 89 89
-0.120155 -0.040860 1.986976 -0.968570 0.000000 0.248743 89 89 89
0.350570 -0.040860 1.561014 -0.229439 0.000000 -0.973323 89 89 89
0.310818 -0.040860 2.453118 0.223908 -0.000000 0.974610 89 89 89
3 0 1 2
3 3 4 5
3 6 7 8
3 9 10 11
3 12 13 14
3 15 16 17
3 18 15 19
3 20 12 21
3 22 23 24
3 25 26 27
3 28 12 29
3 30 15 31
3 15 32 31
3 12 33 29
3 34 35 36
3 37 38 39
3 40 41 42
3 43 44 45
3 46 47 48
3 49 50 51
3 52 53 54
3 55 56 57
3 58 55 59
3 60 52 61
3 62 63 64
3 65 66 67
3 68 52 69
3 70 55 71
3 55 72 71
3 52 73 69
3 74 75 76
3 77 78 79
3 80 81 82
3 83 84 85
3 86 87 88
3 89 90 91
3 92 93 94
3 95 96 97
3 98 95 99
3 100 92 101
3 102 103 104
3 105 106 107
3 108 92 109
3 110 95 111
3 95 112 111
3 92 113 109
3 114 115 116
3 117 118 119
3 120 121 122
3 123 124 125
3 126 127 128
3 129 130 131
3 132 133 134
3 135 136 137
3 138 135 139
3 140 132 141
3 142 143 144
3 145 146 147
3 148 132 149
3 150 135 151
3 135 152 151
3 132 153 149
3 154 155 156
3 157 158 159
3 160 161 162
3 163 164 165
3 166 167 168
3 169 170 171
3 172 173 174
3 175 176 177
3 178 175 179
3 180 172 181
3 182 183 184
3 185 186 187
3 188 172 189
3 190 175 191
3 175 192 191
3 172 193 189
3 194 195 196
3 197 198 199
3 200 201 202
3 203 204 205
3 206 207 208
3 209 210 211
3 212 213 214
3 215 216 217
3 218 215 219
3 220 212 221
3 222 223 224
3 225 226 227
3 228 212 229
3 230 215 231
3 215 232 231
3 212 233 229
3 234 235 236
3 237 238 239
3 240 241 242
3 243 244 245
3 246 247 248
3 249 250 251
3 252 253 254
3 255 256 257
3 258 255 259
3 260 252 261
3 262 263 264
3 265 266 267
3 268 252 269
3 270 255 271
3 255 272 271
3 252 273 269
3 274 275 276
3 277 278 279
3 280 281 282
3 283 284 285
3 286 287 288
3 289 290 291
3 292 293 294
3 295 296 297
3 298 295 299
3 300 292 301
3 302 303 304
3 305 306 307
3 308 292 309
3 310 295 311
3 295 312 311
3 292 313 309
3 314 315 316
3 317 318 319
3 320 321 322
3 323 324 325
3 326 327 328
3 329 330 331
3 332 333 334
3 335 336 337
3 338 335 339
3 340 332 341
3 342 343 344
3 345 346 347
3 348 332 349
3 350 335 351
3 335 352 351
3 332 353 349
3 354 355 356
3 357 358 359
3 0 360 1
3 3 361 4
3 6 362 7
3 9 363 10
3 12 364 13
3 15 365 16
3 18 365 15
3 20 364 12
3 22 366 23
3 25 367 26
3 28 21 12
3 30 19 15
3 15 17 32
3 12 14 33
3 34 368 35
3 37 369 38
3 40 370 41
3 43 371 44
3 46 372 47
3 49 373 50
3 52 374 53
3 55 375 56
3 58 375 55
3 60 374 52
3 62 376 63
3 65 377 66
3 68 61 52
3 70 59 55
3 55 57 72
3 52 54 73
3 74 378 75
3 77 379 78
3 80 380 81
3 83 381 84
3 86 382 87
3 89 383 90
3 92 384 93
3 95 385 96
3 98 385 95
3 100 384 92
3 102 386 103
3 105 387 106
3 108 101 92
3 110 99 95
3 95 97 112
3 92 94 113
3 114 388 115
3 117 389 118
3 120 390 121
3 123 391 124
3 126 392 127
3 129 393 130
3 132 394 133
3 135 395 136
3 138 395 135
3 140 394 132
3 142 396 143
3 145 397 146
3 148 141 132
3 150 139 135
3 135 137 152
3 132 134 153
3 154 398 155
3 157 399 158
3 160 400 161
3 163 401 164
3 166 402 167
3 169 403 170
3 172 404 173
3 175 405 176
3 178 405 175
3 180 404 172
3 182 406 183
3 185 407 186
3 188 181 172
3 190 179 175
3 175 177 192
3 172 174 193
3 194 408 195
3 197 409 198
3 200 410 201
3 203 411 204
3 206 412 207
3 209 413 210
3 212 414 213
3 215 415 216
3 218 415 215
3 220 414 212
3 222 416 223
3 225 417 226
3 228 221 212
3 230 219 215
3 215 217 232
3 212 214 233
3 234 418 235
3 237 419 238
3 240 420 241
3 243 421 244
3 246 422 247
3 249 423 250
3 252 424 253
3 255 425 256
3 258 425 255
3 260 424 252
3 262 426 263
3 265 427 266
3 268 261 252
3 270 259 255
3 255 257 272
3 252 254 273
3 274 428 275
3 277 429 278
3 280 430 281
3 283 431 284
3 286 432 287
3 289 433 290
3 292 434 293
3 295 435 296
3 298 435 295
3 300 434 292
3 302 436 303
3 305 437 306
3 308 301 292
3 310 299 295
3 295 297 312
3 292 294 313
3 314 438 315
3 317 439 318
3 320 440 321
3 323 441 324
3 326 442 327
3 329 443 330
3 332 444 333
3 335 445 336
3 338 445 335
3 340 444 332
3 342 446 343
3 345 447 346
3 348 341 332
3 350 339 335
3 335 337 352
3 332 334 353
3 354 448 355
3 357 449 358
