ply
format ascii 1.0
comment Created by Blender 2.77 (sub 0) - www.blender.org, source file: 'Pig.blend'
element vertex 338
property float x
property float y
property float z
property float nx
property float ny
property float nz
property uchar red
property uchar green
property uchar blue
element face 156
property list uchar uint vertex_indices
end_header
-0.001974 0.059076 0.315737 -0.382683 0.923880 -0.000000 245 160 173
-0.084040 0.025084 0.385405 -0.382683 0.923880 -0.000000 245 160 173
-0.001974 0.059076 0.385405 -0.382683 0.923880 -0.000000 245 160 173
-0.084040 0.025084 0.385405 0.000000 -0.000000 1.000000 245 160 173
-0.118033 -0.056982 0.385405 0.000000 -0.000000 1.000000 245 160 173
-0.075604 -0.023875 0.385405 0.000000 -0.000000 1.000000 245 160 173
0.080092 0.025084 0.315737 0.382683 0.923880 -0.000000 245 160 173
-0.001974 0.059076 0.385405 0.382683 0.923880 -0.000000 245 160 173
0.080092 0.025084 0.385405 0.382683 0.923880 -0.000000 245 160 173
0.114084 -0.056982 0.315737 0.000000 0.000000 -1.000000 245 160 173
-0.001974 -0.173041 0.315737 0.000000 0.000000 -1.000000 245 160 173
-0.001974 0.059076 0.315737 0.000000 0.000000 -1.000000 245 160 173
-0.084040 0.025084 0.315737 -0.923880 0.382683 -0.000000 245 160 173
-0.118033 -0.056982 0.385405 -0.923880 0.382683 -0.000000 245 160 173
-0.084040 0.025084 0.385405 -0.923880 0.382683 -0.000000 245 160 173
0.080092 0.025084 0.385405 0.000000 -0.000000 1.000000 245 160 173
0.048121 -0.010161 0.385405 0.000000 -0.000000 1.000000 245 160 173
0.073221 -0.023875 0.385405 0.000000 -0.000000 1.000000 245 160 173
0.023021 -0.090089 0.385405 0.000000 -0.000000 1.000000 245 160 173
-0.025405 -0.090089 0.385405 0.000000 -0.000000 1.000000 245 160 173
-0.001974 -0.173041 0.385405 0.000000 -0.000000 1.000000 245 160 173
-0.118033 -0.056982 0.315737 -0.923880 -0.382684 0.000000 245 160 173
-0.084040 -0.139048 0.385405 -0.923880 -0.382684 0.000000 245 160 173
-0.118033 -0.056982 0.385405 -0.923880 -0.382684 0.000000 245 160 173
-0.050505 -0.103803 0.385405 0.479462 0.877563 0.000000 245 102 113
-0.075604 -0.090089 0.374394 0.479462 0.877563 0.000000 245 102 113
-0.075604 -0.090089 0.385405 0.479462 0.877563 0.000000 245 102 113
-0.075604 -0.090089 0.385405 0.954063 0.299606 -0.000000 245 102 113
-0.086001 -0.056982 0.374394 0.954063 0.299606 -0.000000 245 102 113
-0.086001 -0.056982 0.385405 0.954063 0.299606 -0.000000 245 102 113
-0.086001 -0.056982 0.385405 0.954063 -0.299606 0.000000 245 102 113
-0.075604 -0.023875 0.374394 0.954063 -0.299606 0.000000 245 102 113
-0.075604 -0.023875 0.385405 0.954063 -0.299606 0.000000 245 102 113
-0.075604 -0.023875 0.385405 0.479463 -0.877562 0.000000 245 102 113
-0.050505 -0.010161 0.374394 0.479463 -0.877562 0.000000 245 102 113
-0.050505 -0.010161 0.385405 0.479463 -0.877562 0.000000 245 102 113
0.114084 -0.056982 0.315737 0.923880 0.382683 -0.000000 245 160 173
0.080092 0.025084 0.385405 0.923880 0.382683 -0.000000 245 160 173
0.114084 -0.056982 0.385405 0.923880 0.382683 -0.000000 245 160 173
0.080092 -0.139048 0.315737 0.923880 -0.382683 0.000000 245 160 173
0.114084 -0.056982 0.385405 0.923880 -0.382683 0.000000 245 160 173
0.080092 -0.139048 0.385405 0.923880 -0.382683 0.000000 245 160 173
-0.001974 -0.173041 0.315737 0.382683 -0.923880 0.000000 245 160 173
0.080092 -0.139048 0.385405 0.382683 -0.923880 0.000000 245 160 173
-0.001974 -0.173041 0.385405 0.382683 -0.923880 0.000000 245 160 173
-0.084040 -0.139048 0.315737 -0.382683 -0.923880 0.000000 245 160 173
-0.001974 -0.173041 0.385405 -0.382683 -0.923880 0.000000 245 160 173
-0.084040 -0.139048 0.385405 -0.382683 -0.923880 0.000000 245 160 173
-0.050505 -0.010161 0.385405 -0.479463 -0.877562 -0.000000 245 102 113
-0.025405 -0.023875 0.374394 -0.479463 -0.877562 -0.000000 245 102 113
-0.025405 -0.023875 0.385405 -0.479463 -0.877562 -0.000000 245 102 113
-0.025405 -0.023875 0.385405 -0.954063 -0.299606 0.000000 245 102 113
-0.015008 -0.056982 0.374394 -0.954063 -0.299606 0.000000 245 102 113
-0.015008 -0.056982 0.385405 -0.954063 -0.299606 0.000000 245 102 113
-0.015008 -0.056982 0.385405 -0.954063 0.299606 0.000000 245 102 113
-0.025405 -0.090089 0.374394 -0.954063 0.299606 0.000000 245 102 113
-0.025405 -0.090089 0.385405 -0.954063 0.299606 0.000000 245 102 113
-0.025405 -0.090089 0.385405 -0.479462 0.877563 0.000000 245 102 113
-0.050505 -0.103803 0.374394 -0.479462 0.877563 0.000000 245 102 113
-0.050505 -0.103803 0.385405 -0.479462 0.877563 0.000000 245 102 113
-0.025405 -0.090089 0.374394 -0.000000 0.000000 1.000000 245 102 113
-0.015008 -0.056982 0.374394 -0.000000 0.000000 1.000000 245 102 113
-0.075604 -0.090089 0.374394 -0.000000 0.000000 1.000000 245 102 113
0.023021 -0.023875 0.385405 0.479462 -0.877563 0.000000 245 102 113
0.048121 -0.010161 0.374394 0.479462 -0.877563 0.000000 245 102 113
0.048121 -0.010161 0.385405 0.479462 -0.877563 0.000000 245 102 113
0.048121 -0.010161 0.385405 -0.479462 -0.877563 -0.000000 245 102 113
0.073221 -0.023875 0.374394 -0.479462 -0.877563 -0.000000 245 102 113
0.073221 -0.023875 0.385405 -0.479462 -0.877563 -0.000000 245 102 113
0.073221 -0.090089 0.374394 -0.000000 0.000000 1.000000 245 102 113
0.083617 -0.056982 0.374394 -0.000000 0.000000 1.000000 245 102 113
0.023021 -0.090089 0.374394 -0.000000 0.000000 1.000000 245 102 113
0.012624 -0.056982 0.385405 0.954063 -0.299606 0.000000 245 102 113
0.023021 -0.023875 0.374394 0.954063 -0.299606 0.000000 245 102 113
0.023021 -0.023875 0.385405 0.954063 -0.299606 0.000000 245 102 113
0.073221 -0.023875 0.385405 -0.954063 -0.299606 0.000000 245 102 113
0.083617 -0.056982 0.374394 -0.954063 -0.299606 0.000000 245 102 113
0.083617 -0.056982 0.385405 -0.954063 -0.299606 0.000000 245 102 113
0.083617 -0.056982 0.385405 -0.954063 0.299606 0.000000 245 102 113
0.073221 -0.090089 0.374394 -0.954063 0.299606 0.000000 245 102 113
0.073221 -0.090089 0.385405 -0.954063 0.299606 0.000000 245 102 113
0.073221 -0.090089 0.385405 -0.479462 0.877563 0.000000 245 102 113
0.048121 -0.103803 0.374394 -0.479462 0.877563 0.000000 245 102 113
0.048121 -0.103803 0.385405 -0.479462 0.877563 0.000000 245 102 113
0.048121 -0.103803 0.385405 0.479462 0.877563 0.000000 245 102 113
0.023021 -0.090089 0.374394 0.479462 0.877563 0.000000 245 102 113
0.023021 -0.090089 0.385405 0.479462 0.877563 0.000000 245 102 113
0.023021 -0.090089 0.385405 0.954063 0.299606 -0.000000 245 102 113
0.012624 -0.056982 0.374394 0.954063 0.299606 -0.000000 245 102 113
0.012624 -0.056982 0.385405 0.954063 0.299606 -0.000000 245 102 113
0.372547 0.030453 -0.076014 0.780169 0.594781 -0.193835 245 160 173
0.190563 0.215399 -0.240979 0.780169 0.594781 -0.193835 245 160 173
0.176698 0.287347 -0.076014 0.780169 0.594781 -0.193835 245 160 173
0.372547 0.030453 -0.076014 0.779558 0.454793 0.430642 245 160 173
0.181860 0.161014 0.131291 0.779558 0.454793 0.430642 245 160 173
0.252239 -0.011620 0.186204 0.779558 0.454793 0.430642 245 160 173
0.372547 0.030453 -0.076014 0.809695 -0.531263 0.249307 245 160 173
0.178141 -0.170549 0.127048 0.809695 -0.531263 0.249307 245 160 173
0.193932 -0.241774 -0.076014 0.809695 -0.531263 0.249307 245 160 173
0.372547 0.030453 -0.076014 0.798338 -0.289038 -0.528311 245 160 173
0.191511 -0.166549 -0.241801 0.798338 -0.289038 -0.528311 245 160 173
0.198766 0.024690 -0.335465 0.798338 -0.289038 -0.528311 245 160 173
0.000148 -0.229685 0.186204 0.338690 -0.899793 0.275067 245 160 173
0.112297 -0.152239 0.301455 0.338690 -0.899793 0.275067 245 160 173
0.000148 -0.185423 0.330993 0.338690 -0.899793 0.275067 245 160 173
0.252239 -0.011620 0.186204 0.665382 0.449532 0.595976 245 160 173
0.112297 0.042722 0.301455 0.665382 0.449532 0.595976 245 160 173
0.151550 -0.054539 0.330993 0.665382 0.449532 0.595976 245 160 173
0.000148 0.202649 0.186811 0.350925 0.695531 0.626968 245 160 173
0.112297 0.042722 0.301455 0.350925 0.695531 0.626968 245 160 173
0.181860 0.161014 0.131291 0.350925 0.695531 0.626968 245 160 173
-0.251944 -0.011620 0.186204 -0.664244 0.458576 0.590329 245 160 173
-0.112001 0.042722 0.301455 -0.664244 0.458576 0.590329 245 160 173
-0.181564 0.161014 0.131291 -0.664244 0.458576 0.590329 245 160 173
-0.372252 0.030453 -0.076014 -0.750682 0.572301 0.330073 245 160 173
-0.181564 0.161014 0.131291 -0.750682 0.572301 0.330073 245 160 173
-0.176402 0.287347 -0.076014 -0.750682 0.572301 0.330073 245 160 173
-0.372252 0.030453 -0.076014 -0.789668 0.299310 -0.535572 245 160 173
-0.190267 0.215399 -0.240979 -0.789668 0.299310 -0.535572 245 160 173
-0.198470 0.024690 -0.335465 -0.789668 0.299310 -0.535572 245 160 173
-0.372252 0.030453 -0.076014 -0.808969 -0.530787 -0.252654 245 160 173
-0.191215 -0.166549 -0.241801 -0.808969 -0.530787 -0.252654 245 160 173
-0.193636 -0.241774 -0.076014 -0.808969 -0.530787 -0.252654 245 160 173
-0.372252 0.030453 -0.076014 -0.818507 -0.492012 0.296596 245 160 173
-0.177845 -0.170549 0.127048 -0.818507 -0.492012 0.296596 245 160 173
-0.251944 -0.011620 0.186204 -0.818507 -0.492012 0.296596 245 160 173
0.000148 0.024690 -0.385286 -0.415007 0.248007 -0.875363 245 160 173
-0.190267 0.215399 -0.240979 -0.415007 0.248007 -0.875363 245 160 173
0.000148 0.198052 -0.336169 -0.415007 0.248007 -0.875363 245 160 173
0.000148 0.024690 -0.385286 0.218395 0.440754 -0.870655 245 160 173
0.190563 0.215399 -0.240979 0.218395 0.440754 -0.870655 245 160 173
0.198766 0.024690 -0.335465 0.218395 0.440754 -0.870655 245 160 173
0.000148 0.024690 -0.385286 0.406626 -0.251985 -0.878156 245 160 173
0.191511 -0.166549 -0.241801 0.406626 -0.251985 -0.878156 245 160 173
0.000148 -0.148935 -0.335465 0.406626 -0.251985 -0.878156 245 160 173
0.000148 0.024690 -0.385286 -0.218975 -0.435864 -0.872967 245 160 173
-0.191215 -0.166549 -0.241801 -0.218975 -0.435864 -0.872967 245 160 173
-0.198470 0.024690 -0.335465 -0.218975 -0.435864 -0.872967 245 160 173
0.000148 -0.304760 -0.076014 0.283351 -0.871756 -0.399692 245 160 173
0.191511 -0.166549 -0.241801 0.283351 -0.871756 -0.399692 245 160 173
0.193932 -0.241774 -0.076014 0.283351 -0.871756 -0.399692 245 160 173
0.000148 -0.304760 -0.076014 0.380049 -0.889237 0.254598 245 160 173
0.178141 -0.170549 0.127048 0.380049 -0.889237 0.254598 245 160 173
0.000148 -0.229685 0.186204 0.380049 -0.889237 0.254598 245 160 173
0.000148 -0.304760 -0.076014 -0.291064 -0.895486 0.336728 245 160 173
-0.177845 -0.170549 0.127048 -0.291064 -0.895486 0.336728 245 160 173
-0.193636 -0.241774 -0.076014 -0.291064 -0.895486 0.336728 245 160 173
0.000148 -0.304760 -0.076014 -0.170564 -0.844705 -0.507328 245 160 173
-0.191215 -0.166549 -0.241801 -0.170564 -0.844705 -0.507328 245 160 173
0.000148 -0.148935 -0.335465 -0.170564 -0.844705 -0.507328 245 160 173
0.000148 0.322182 -0.076014 -0.179003 0.907234 -0.380637 245 160 173
-0.190267 0.215399 -0.240979 -0.179003 0.907234 -0.380637 245 160 173
-0.176402 0.287347 -0.076014 -0.179003 0.907234 -0.380637 245 160 173
0.000148 0.322182 -0.076014 -0.317700 0.863118 0.392548 245 160 173
-0.181564 0.161014 0.131291 -0.317700 0.863118 0.392548 245 160 173
0.000148 0.202649 0.186811 -0.317700 0.863118 0.392548 245 160 173
0.000148 0.322182 -0.076014 0.166496 0.843845 0.510102 245 160 173
0.181860 0.161014 0.131291 0.166496 0.843845 0.510102 245 160 173
0.176698 0.287347 -0.076014 0.166496 0.843845 0.510102 245 160 173
0.000148 0.322182 -0.076014 0.131891 0.894644 -0.426867 245 160 173
0.190563 0.215399 -0.240979 0.131891 0.894644 -0.426867 245 160 173
0.000148 0.198052 -0.336169 0.131891 0.894644 -0.426867 245 160 173
0.372547 0.030453 -0.076014 0.789668 0.299310 -0.535572 245 160 173
0.198766 0.024690 -0.335465 0.789668 0.299310 -0.535572 245 160 173
0.190563 0.215399 -0.240979 0.789668 0.299310 -0.535572 245 160 173
0.372547 0.030453 -0.076014 0.750682 0.572301 0.330073 245 160 173
0.176698 0.287347 -0.076014 0.750682 0.572301 0.330073 245 160 173
0.181860 0.161014 0.131291 0.750682 0.572301 0.330073 245 160 173
0.372547 0.030453 -0.076014 0.818507 -0.492013 0.296596 245 160 173
0.252239 -0.011620 0.186204 0.818507 -0.492013 0.296596 245 160 173
0.178141 -0.170549 0.127048 0.818507 -0.492013 0.296596 245 160 173
0.372547 0.030453 -0.076014 0.808969 -0.530787 -0.252654 245 160 173
0.193932 -0.241774 -0.076014 0.808969 -0.530787 -0.252654 245 160 173
0.191511 -0.166549 -0.241801 0.808969 -0.530787 -0.252654 245 160 173
0.000148 -0.229685 0.186204 -0.376135 -0.895987 0.236072 245 160 173
-0.112001 -0.152239 0.301455 -0.376135 -0.895987 0.236072 245 160 173
-0.177845 -0.170549 0.127048 -0.376135 -0.895987 0.236072 245 160 173
0.252239 -0.011620 0.186204 0.791638 -0.499864 0.351348 245 160 173
0.112297 -0.152239 0.301455 0.791638 -0.499864 0.351348 245 160 173
0.178141 -0.170549 0.127048 0.791638 -0.499864 0.351348 245 160 173
0.000148 0.202649 0.186811 -0.360589 0.697098 0.619701 245 160 173
-0.112001 0.042722 0.301455 -0.360589 0.697098 0.619701 245 160 173
0.000148 0.074475 0.330993 -0.360589 0.697098 0.619701 245 160 173
-0.251944 -0.011620 0.186204 -0.791746 -0.444707 0.418777 245 160 173
-0.112001 -0.152239 0.301455 -0.791746 -0.444707 0.418777 245 160 173
-0.151254 -0.054539 0.330993 -0.791746 -0.444707 0.418777 245 160 173
-0.372252 0.030453 -0.076014 -0.779558 0.454793 0.430642 245 160 173
-0.251944 -0.011620 0.186204 -0.779558 0.454793 0.430642 245 160 173
-0.181564 0.161014 0.131291 -0.779558 0.454793 0.430642 245 160 173
-0.372252 0.030453 -0.076014 -0.780169 0.594781 -0.193834 245 160 173
-0.176402 0.287347 -0.076014 -0.780169 0.594781 -0.193834 245 160 173
-0.190267 0.215399 -0.240979 -0.780169 0.594781 -0.193834 245 160 173
-0.372252 0.030453 -0.076014 -0.798338 -0.289038 -0.528311 245 160 173
-0.198470 0.024690 -0.335465 -0.798338 -0.289038 -0.528311 245 160 173
-0.191215 -0.166549 -0.241801 -0.798338 -0.289038 -0.528311 245 160 173
-0.372252 0.030453 -0.076014 -0.809695 -0.531263 0.249307 245 160 173
-0.193636 -0.241774 -0.076014 -0.809695 -0.531263 0.249307 245 160 173
-0.177845 -0.170549 0.127048 -0.809695 -0.531263 0.249307 245 160 173
0.000148 0.024690 -0.385286 -0.218395 0.440754 -0.870655 245 160 173
-0.198470 0.024690 -0.335465 -0.218395 0.440754 -0.870655 245 160 173
-0.190267 0.215399 -0.240979 -0.218395 0.440754 -0.870655 245 160 173
0.000148 0.024690 -0.385286 0.415007 0.248007 -0.875363 245 160 173
0.000148 0.198052 -0.336169 0.415007 0.248007 -0.875363 245 160 173
0.190563 0.215399 -0.240979 0.415007 0.248007 -0.875363 245 160 173
0.000148 0.024690 -0.385286 0.218975 -0.435864 -0.872967 245 160 173
0.198766 0.024690 -0.335465 0.218975 -0.435864 -0.872967 245 160 173
0.191511 -0.166549 -0.241801 0.218975 -0.435864 -0.872967 245 160 173
0.000148 0.024690 -0.385286 -0.406626 -0.251985 -0.878156 245 160 173
0.000148 -0.148935 -0.335465 -0.406626 -0.251985 -0.878156 245 160 173
-0.191215 -0.166549 -0.241801 -0.406626 -0.251985 -0.878156 245 160 173
0.000148 -0.304760 -0.076014 0.170564 -0.844705 -0.507328 245 160 173
0.000148 -0.148935 -0.335465 0.170564 -0.844705 -0.507328 245 160 173
0.191511 -0.166549 -0.241801 0.170564 -0.844705 -0.507328 245 160 173
0.000148 -0.304760 -0.076014 0.291064 -0.895486 0.336728 245 160 173
0.193932 -0.241774 -0.076014 0.291064 -0.895486 0.336728 245 160 173
0.178141 -0.170549 0.127048 0.291064 -0.895486 0.336728 245 160 173
0.000148 -0.304760 -0.076014 -0.380049 -0.889237 0.254598 245 160 173
0.000148 -0.229685 0.186204 -0.380049 -0.889237 0.254598 245 160 173
-0.177845 -0.170549 0.127048 -0.380049 -0.889237 0.254598 245 160 173
0.000148 -0.304760 -0.076014 -0.283351 -0.871756 -0.399692 245 160 173
-0.193636 -0.241774 -0.076014 -0.283351 -0.871756 -0.399692 245 160 173
-0.191215 -0.166549 -0.241801 -0.283351 -0.871756 -0.399692 245 160 173
0.000148 0.322182 -0.076014 -0.131891 0.894644 -0.426867 245 160 173
0.000148 0.198052 -0.336169 -0.131891 0.894644 -0.426867 245 160 173
-0.190267 0.215399 -0.240979 -0.131891 0.894644 -0.426867 245 160 173
0.000148 0.322182 -0.076014 -0.166496 0.843845 0.510102 245 160 173
-0.176402 0.287347 -0.076014 -0.166496 0.843845 0.510102 245 160 173
-0.181564 0.161014 0.131291 -0.166496 0.843845 0.510102 245 160 173
0.000148 0.322182 -0.076014 0.317700 0.863118 0.392548 245 160 173
0.000148 0.202649 0.186811 0.317700 0.863118 0.392548 245 160 173
0.181860 0.161014 0.131291 0.317700 0.863118 0.392548 245 160 173
0.000148 0.322182 -0.076014 0.179003 0.907234 -0.380637 245 160 173
0.176698 0.287347 -0.076014 0.179003 0.907234 -0.380637 245 160 173
0.190563 0.215399 -0.240979 0.179003 0.907234 -0.380637 245 160 173
0.000148 -0.054539 0.368970 0.315615 0.267955 0.910268 245 160 173
0.112297 0.042722 0.301455 0.315615 0.267955 0.910268 245 160 173
0.000148 0.074475 0.330993 0.315615 0.267955 0.910268 245 160 173
0.000148 -0.054539 0.368970 -0.226461 0.365580 0.902810 245 160 173
-0.112001 0.042722 0.301455 -0.226461 0.365580 0.902810 245 160 173
-0.151254 -0.054539 0.330993 -0.226461 0.365580 0.902810 245 160 173
0.000148 -0.054539 0.368970 -0.317995 -0.264204 0.910536 245 160 173
-0.112001 -0.152239 0.301455 -0.317995 -0.264204 0.910536 245 160 173
0.000148 -0.185423 0.330993 -0.317995 -0.264204 0.910536 245 160 173
0.000148 -0.054539 0.368970 0.226597 -0.364155 0.903352 245 160 173
0.112297 -0.152239 0.301455 0.226597 -0.364155 0.903352 245 160 173
0.151550 -0.054539 0.330993 0.226597 -0.364155 0.903352 245 160 173
0.000148 -0.054539 0.368970 0.226461 0.365580 0.902810 245 160 173
0.151550 -0.054539 0.330993 0.226461 0.365580 0.902810 245 160 173
0.112297 0.042722 0.301455 0.226461 0.365580 0.902810 245 160 173
0.000148 -0.054539 0.368970 -0.315615 0.267955 0.910268 245 160 173
0.000148 0.074475 0.330993 -0.315615 0.267955 0.910268 245 160 173
-0.112001 0.042722 0.301455 -0.315615 0.267955 0.910268 245 160 173
0.000148 -0.054539 0.368970 -0.226597 -0.364155 0.903352 245 160 173
-0.151254 -0.054539 0.330993 -0.226597 -0.364155 0.903352 245 160 173
-0.112001 -0.152239 0.301455 -0.226597 -0.364155 0.903352 245 160 173
0.000148 -0.054539 0.368970 0.317995 -0.264204 0.910536 245 160 173
0.000148 -0.185423 0.330993 0.317995 -0.264204 0.910536 245 160 173
0.112297 -0.152239 0.301455 0.317995 -0.264204 0.910536 245 160 173
-0.084040 0.025084 0.315737 -0.382683 0.923880 -0.000000 245 160 173
-0.050505 -0.010161 0.385405 -0.000000 0.000000 1.000000 245 160 173
-0.001974 0.059076 0.385405 -0.000000 0.000000 1.000000 245 160 173
-0.084040 -0.139048 0.385405 0.000000 0.000000 1.000000 245 160 173
-0.050505 -0.103803 0.385405 0.000000 0.000000 1.000000 245 160 173
-0.075604 -0.090089 0.385405 0.000000 0.000000 1.000000 245 160 173
-0.086001 -0.056982 0.385405 0.000000 0.000000 1.000000 245 160 173
-0.001974 0.059076 0.315737 0.382683 0.923880 -0.000000 245 160 173
-0.118033 -0.056982 0.315737 0.000000 0.000000 -1.000000 245 160 173
-0.084040 0.025084 0.315737 0.000000 0.000000 -1.000000 245 160 173
0.080092 0.025084 0.315737 0.000000 0.000000 -1.000000 245 160 173
0.080092 -0.139048 0.315737 0.000000 0.000000 -1.000000 245 160 173
-0.084040 -0.139048 0.315737 0.000000 0.000000 -1.000000 245 160 173
-0.118033 -0.056982 0.315737 -0.923880 0.382683 -0.000000 245 160 173
0.073221 -0.090089 0.385405 0.000000 -0.000000 1.000000 245 160 173
0.048121 -0.103803 0.385405 0.000000 -0.000000 1.000000 245 160 173
0.080092 -0.139048 0.385405 0.000000 -0.000000 1.000000 245 160 173
0.114084 -0.056982 0.385405 -0.000000 0.000000 1.000000 245 160 173
-0.025405 -0.023875 0.385405 0.000000 -0.000000 1.000000 245 160 173
0.023021 -0.023875 0.385405 0.000000 0.000000 1.000000 245 160 173
0.083617 -0.056982 0.385405 0.000000 -0.000000 1.000000 245 160 173
0.012624 -0.056982 0.385405 -0.000000 0.000000 1.000000 245 160 173
-0.015008 -0.056982 0.385405 -0.000000 0.000000 1.000000 245 160 173
-0.084040 -0.139048 0.315737 -0.923880 -0.382684 -0.000000 245 160 173
-0.050505 -0.103803 0.374394 0.479462 0.877563 -0.000000 245 102 113
-0.075604 -0.090089 0.374394 0.954063 0.299606 -0.000000 245 102 113
-0.086001 -0.056982 0.374394 0.954063 -0.299606 0.000000 245 102 113
-0.075604 -0.023875 0.374394 0.479463 -0.877562 0.000000 245 102 113
0.080092 0.025084 0.315737 0.923880 0.382683 -0.000000 245 160 173
0.114084 -0.056982 0.315737 0.923880 -0.382683 0.000000 245 160 173
0.080092 -0.139048 0.315737 0.382683 -0.923880 0.000000 245 160 173
-0.001974 -0.173041 0.315737 -0.382683 -0.923880 -0.000000 245 160 173
-0.050505 -0.010161 0.374394 -0.479463 -0.877562 0.000000 245 102 113
-0.025405 -0.023875 0.374394 -0.954063 -0.299606 0.000000 245 102 113
-0.015008 -0.056982 0.374394 -0.954063 0.299606 -0.000000 245 102 113
-0.025405 -0.090089 0.374394 -0.479462 0.877563 0.000000 245 102 113
-0.050505 -0.010161 0.374394 0.000000 -0.000000 1.000000 245 102 113
-0.075604 -0.023875 0.374394 0.000000 -0.000000 1.000000 245 102 113
-0.025405 -0.023875 0.374394 0.000000 -0.000000 1.000000 245 102 113
-0.086001 -0.056982 0.374394 0.000000 0.000000 1.000000 245 102 113
-0.050505 -0.103803 0.374394 -0.000000 0.000000 1.000000 245 102 113
0.023021 -0.023875 0.374394 0.479462 -0.877563 0.000000 245 102 113
0.048121 -0.010161 0.374394 -0.479462 -0.877563 0.000000 245 102 113
0.048121 -0.010161 0.374394 0.000000 -0.000000 1.000000 245 102 113
0.023021 -0.023875 0.374394 0.000000 -0.000000 1.000000 245 102 113
0.073221 -0.023875 0.374394 0.000000 -0.000000 1.000000 245 102 113
0.012624 -0.056982 0.374394 0.000000 0.000000 1.000000 245 102 113
0.048121 -0.103803 0.374394 -0.000000 0.000000 1.000000 245 102 113
0.012624 -0.056982 0.374394 0.954063 -0.299606 0.000000 245 102 113
0.073221 -0.023875 0.374394 -0.954063 -0.299606 0.000000 245 102 113
0.083617 -0.056982 0.374394 -0.954063 0.299606 -0.000000 245 102 113
0.073221 -0.090089 0.374394 -0.479462 0.877563 0.000000 245 102 113
0.048121 -0.103803 0.374394 0.479462 0.877563 -0.000000 245 102 113
0.023021 -0.090089 0.385405 0.954063 0.299607 -0.000000 245 102 113
0.023021 -0.090089 0.374394 0.954063 0.299607 -0.000000 245 102 113
0.012624 -0.056982 0.374394 0.954063 0.299607 -0.000000 245 102 113
0.000148 -0.229685 0.186204 0.376135 -0.895987 0.236072 245 160 173
0.178141 -0.170549 0.127048 0.376135 -0.895987 0.236072 245 160 173
0.112297 -0.152239 0.301455 0.376135 -0.895987 0.236072 245 160 173
0.252239 -0.011620 0.186204 0.664244 0.458576 0.590329 245 160 173
0.181860 0.161014 0.131291 0.664244 0.458576 0.590329 245 160 173
0.112297 0.042722 0.301455 0.664244 0.458576 0.590329 245 160 173
0.000148 0.202649 0.186811 0.360589 0.697098 0.619701 245 160 173
0.000148 0.074475 0.330993 0.360589 0.697098 0.619701 245 160 173
0.112297 0.042722 0.301455 0.360589 0.697098 0.619701 245 160 173
-0.251944 -0.011620 0.186204 -0.665382 0.449532 0.595976 245 160 173
-0.151254 -0.054539 0.330993 -0.665382 0.449532 0.595976 245 160 173
-0.112001 0.042722 0.301455 -0.665382 0.449532 0.595976 245 160 173
0.000148 -0.229685 0.186204 -0.338690 -0.899793 0.275067 245 160 173
0.000148 -0.185423 0.330993 -0.338690 -0.899793 0.275067 245 160 173
-0.112001 -0.152239 0.301455 -0.338690 -0.899793 0.275067 245 160 173
0.252239 -0.011620 0.186204 0.791746 -0.444707 0.418777 245 160 173
0.151550 -0.054539 0.330993 0.791746 -0.444707 0.418777 245 160 173
0.112297 -0.152239 0.301455 0.791746 -0.444707 0.418777 245 160 173
0.000148 0.202649 0.186811 -0.350925 0.695531 0.626968 245 160 173
-0.181564 0.161014 0.131291 -0.350925 0.695531 0.626968 245 160 173
-0.112001 0.042722 0.301455 -0.350925 0.695531 0.626968 245 160 173
-0.251944 -0.011620 0.186204 -0.791638 -0.499864 0.351348 245 160 173
-0.177845 -0.170549 0.127048 -0.791638 -0.499864 0.351348 245 160 173
-0.112001 -0.152239 0.301455 -0.791638 -0.499864 0.351348 245 160 173
3 0 1 2
3 3 4 5
3 6 7 8
3 9 10 11
3 12 13 14
3 15 16 17
3 18 19 20
3 21 22 23
3 24 25 26
3 27 28 29
3 30 31 32
3 33 34 35
3 36 37 38
3 39 40 41
3 42 43 44
3 45 46 47
3 48 49 50
3 51 52 53
3 54 55 56
3 57 58 59
3 60 61 62
3 63 64 65
3 66 67 68
3 69 70 71
3 72 73 74
3 75 76 77
3 78 79 80
3 81 82 83
3 84 85 86
3 87 88 89
3 90 91 92
3 93 94 95
3 96 97 98
3 99 100 101
3 102 103 104
3 105 106 107
3 108 109 110
3 111 112 113
3 114 115 116
3 117 118 119
3 120 121 122
3 123 124 125
3 126 127 128
3 129 130 131
3 132 133 134
3 135 136 137
3 138 139 140
3 141 142 143
3 144 145 146
3 147 148 149
3 150 151 152
3 153 154 155
3 156 157 158
3 159 160 161
3 162 163 164
3 165 166 167
3 168 169 170
3 171 172 173
3 174 175 176
3 177 178 179
3 180 181 182
3 183 184 185
3 186 187 188
3 189 190 191
3 192 193 194
3 195 196 197
3 198 199 200
3 201 202 203
3 204 205 206
3 207 208 209
3 210 211 212
3 213 214 215
3 216 217 218
3 219 220 221
3 222 223 224
3 225 226 227
3 228 229 230
3 231 232 233
3 234 235 236
3 237 238 239
3 240 241 242
3 243 244 245
3 246 247 248
3 249 250 251
3 252 253 254
3 255 256 257
3 0 258 1
3 259 260 3
3 261 262 263
3 261 263 4
3 5 259 3
3 4 263 264
3 264 5 4
3 6 265 7
3 266 267 11
3 11 268 9
3 9 269 10
3 10 270 266
3 266 11 10
3 12 271 13
3 272 273 274
3 275 15 17
3 260 259 276
3 276 277 260
3 260 277 16
3 272 274 275
3 278 272 275
3 260 16 15
3 17 278 275
3 274 273 20
3 279 277 276
3 20 273 18
3 18 279 280
3 279 276 280
3 261 20 262
3 19 262 20
3 18 280 19
3 21 281 22
3 24 282 25
3 27 283 28
3 30 284 31
3 33 285 34
3 36 286 37
3 39 287 40
3 42 288 43
3 45 289 46
3 48 290 49
3 51 291 52
3 54 292 55
3 57 293 58
3 294 295 296
3 297 62 61
3 298 60 62
3 61 296 297
3 295 297 296
3 63 299 64
3 66 300 67
3 301 302 303
3 304 71 70
3 305 69 71
3 70 303 302
3 302 304 70
3 72 306 73
3 75 307 76
3 78 308 79
3 81 309 82
3 84 310 85
3 311 312 313
3 314 315 316
3 317 318 319
3 320 321 322
3 323 324 325
3 326 327 328
3 329 330 331
3 332 333 334
3 335 336 337
