ply
format ascii 1.0
comment Created by Blender 2.77 (sub 0) - www.blender.org, source file: 'NewPlayer.blend'
element vertex 288
property float x
property float y
property float z
property float nx
property float ny
property float nz
property uchar red
property uchar green
property uchar blue
element face 96
property list uchar uint vertex_indices
end_header
0.433746 0.000000 0.000000 0.744126 0.621639 -0.244627 51 50 56
0.233471 0.111111 -0.326859 0.744126 0.621639 -0.244627 51 50 56
0.308436 0.150000 0.000000 0.744126 0.621639 -0.244627 51 50 56
0.433746 0.000000 0.000000 0.663544 0.731266 0.157987 51 50 56
0.233471 0.111111 0.326859 0.663544 0.731266 0.157987 51 50 56
0.325309 0.000000 0.455433 0.663544 0.731266 0.157987 51 50 56
0.433746 0.000000 0.000000 0.820162 -0.500647 0.276924 51 50 56
0.248469 -0.111111 0.347856 0.820162 -0.500647 0.276924 51 50 56
0.342182 -0.150000 0.000000 0.820162 -0.500647 0.276924 51 50 56
0.433746 0.000000 0.000000 0.724157 -0.667734 -0.172418 51 50 56
0.248469 -0.111111 -0.347856 0.724157 -0.667734 -0.172418 51 50 56
0.325309 0.000000 -0.455433 0.724157 -0.667734 -0.172418 51 50 56
0.000000 0.000000 0.607244 0.386239 0.701070 0.599434 51 50 56
0.233471 0.111111 0.326859 0.386239 0.701070 0.599434 51 50 56
0.000000 0.150000 0.431811 0.386239 0.701070 0.599434 51 50 56
0.000000 0.000000 0.607244 -0.246014 0.813367 0.527173 51 50 56
-0.233471 0.111111 0.326859 -0.246014 0.813367 0.527173 51 50 56
-0.325309 0.000000 0.455433 -0.246014 0.813367 0.527173 51 50 56
0.000000 0.000000 0.607244 -0.449425 -0.580365 0.679112 51 50 56
-0.248469 -0.111111 0.347856 -0.449425 -0.580365 0.679112 51 50 56
0.000000 -0.150000 0.479055 -0.449425 -0.580365 0.679112 51 50 56
0.000000 0.000000 0.607244 0.274783 -0.760121 0.588822 51 50 56
0.248469 -0.111111 0.347856 0.274783 -0.760121 0.588822 51 50 56
0.325309 0.000000 0.455433 0.274783 -0.760121 0.588822 51 50 56
-0.433746 0.000000 0.000000 -0.744126 0.621639 0.244627 51 50 56
-0.233471 0.111111 0.326859 -0.744126 0.621639 0.244627 51 50 56
-0.308436 0.150000 0.000000 -0.744126 0.621639 0.244627 51 50 56
-0.433746 0.000000 0.000000 -0.663544 0.731266 -0.157987 51 50 56
-0.233471 0.111111 -0.326859 -0.663544 0.731266 -0.157987 51 50 56
-0.325309 0.000000 -0.455433 -0.663544 0.731266 -0.157987 51 50 56
-0.433746 0.000000 0.000000 -0.820162 -0.500647 -0.276924 51 50 56
-0.248469 -0.111111 -0.347856 -0.820162 -0.500647 -0.276924 51 50 56
-0.342182 -0.150000 0.000000 -0.820162 -0.500647 -0.276924 51 50 56
-0.433746 0.000000 0.000000 -0.724157 -0.667734 0.172418 51 50 56
-0.248469 -0.111111 0.347856 -0.724157 -0.667734 0.172418 51 50 56
-0.325309 0.000000 0.455433 -0.724157 -0.667734 0.172418 51 50 56
0.000000 0.000000 -0.607244 -0.386239 0.701070 -0.599434 51 50 56
-0.233471 0.111111 -0.326859 -0.386239 0.701070 -0.599434 51 50 56
0.000000 0.150000 -0.431811 -0.386239 0.701070 -0.599434 51 50 56
0.000000 0.000000 -0.607244 0.246014 0.813367 -0.527173 51 50 56
0.233471 0.111111 -0.326859 0.246014 0.813367 -0.527173 51 50 56
0.325309 0.000000 -0.455433 0.246014 0.813367 -0.527173 51 50 56
0.000000 0.000000 -0.607244 0.449425 -0.580365 -0.679112 51 50 56
0.248469 -0.111111 -0.347856 0.449425 -0.580365 -0.679112 51 50 56
0.000000 -0.150000 -0.479055 0.449425 -0.580365 -0.679112 51 50 56
0.000000 0.000000 -0.607244 -0.274783 -0.760121 -0.588822 51 50 56
-0.248469 -0.111111 -0.347856 -0.274783 -0.760121 -0.588822 51 50 56
-0.325309 0.000000 -0.455433 -0.274783 -0.760121 -0.588822 51 50 56
0.000000 -0.200000 0.000000 0.142995 -0.978606 -0.147927 51 50 56
0.248469 -0.111111 -0.347856 0.142995 -0.978606 -0.147927 51 50 56
0.342182 -0.150000 0.000000 0.142995 -0.978606 -0.147927 51 50 56
0.000000 -0.200000 0.000000 0.205969 -0.973272 0.101582 51 50 56
0.248469 -0.111111 0.347856 0.205969 -0.973272 0.101582 51 50 56
0.000000 -0.150000 0.479055 0.205969 -0.973272 0.101582 51 50 56
0.000000 -0.200000 0.000000 -0.142995 -0.978606 0.147927 51 50 56
-0.248469 -0.111111 0.347856 -0.142995 -0.978606 0.147927 51 50 56
-0.342182 -0.150000 0.000000 -0.142995 -0.978606 0.147927 51 50 56
0.000000 -0.200000 0.000000 -0.205969 -0.973272 -0.101582 51 50 56
-0.248469 -0.111111 -0.347856 -0.205969 -0.973272 -0.101582 51 50 56
0.000000 -0.150000 -0.479055 -0.205969 -0.973272 -0.101582 51 50 56
0.000000 0.200000 0.000000 -0.158151 0.975592 -0.152346 51 50 56
-0.233471 0.111111 -0.326859 -0.158151 0.975592 -0.152346 51 50 56
-0.308436 0.150000 0.000000 -0.158151 0.975592 -0.152346 51 50 56
0.000000 0.200000 0.000000 -0.212222 0.970735 0.112403 51 50 56
-0.233471 0.111111 0.326859 -0.212222 0.970735 0.112403 51 50 56
0.000000 0.150000 0.431811 -0.212222 0.970735 0.112403 51 50 56
0.000000 0.200000 0.000000 0.158151 0.975592 0.152346 51 50 56
0.233471 0.111111 0.326859 0.158151 0.975592 0.152346 51 50 56
0.308436 0.150000 0.000000 0.158151 0.975592 0.152346 51 50 56
0.000000 0.200000 0.000000 0.212222 0.970735 -0.112403 51 50 56
0.233471 0.111111 -0.326859 0.212222 0.970735 -0.112403 51 50 56
0.000000 0.150000 -0.431811 0.212222 0.970735 -0.112403 51 50 56
0.400000 0.103673 0.000000 0.871775 0.394417 -0.290592 114 74 42
0.222222 0.267398 -0.311111 0.871775 0.394417 -0.290592 114 74 42
0.300000 0.324702 0.000000 0.871775 0.394417 -0.290592 114 74 42
0.400000 0.103673 0.000000 0.828206 0.524586 0.197192 114 74 42
0.222222 0.267398 0.311111 0.828206 0.524586 0.197192 114 74 42
0.300000 0.103673 0.420000 0.828206 0.524586 0.197192 114 74 42
0.400000 0.103673 0.000000 0.871775 -0.394417 0.290592 114 74 42
0.222222 -0.060052 0.311111 0.871775 -0.394417 0.290592 114 74 42
0.300000 -0.117356 0.000000 0.871775 -0.394417 0.290592 114 74 42
0.400000 0.103673 0.000000 0.828206 -0.524586 -0.197192 114 74 42
0.222222 -0.060052 -0.311111 0.828206 -0.524586 -0.197192 114 74 42
0.300000 0.103673 -0.420000 0.828206 -0.524586 -0.197192 114 74 42
-0.000000 0.103673 0.560000 0.483217 0.468474 0.739617 114 74 42
0.222222 0.267398 0.311111 0.483217 0.468474 0.739617 114 74 42
-0.000000 0.324702 0.420000 0.483217 0.468474 0.739617 114 74 42
-0.000000 0.103673 0.560000 -0.329644 0.626389 0.706379 114 74 42
-0.222222 0.267398 0.311111 -0.329644 0.626389 0.706379 114 74 42
-0.300000 0.103673 0.420000 -0.329644 0.626389 0.706379 114 74 42
-0.000000 0.103673 0.560000 -0.483217 -0.468474 0.739617 114 74 42
-0.222222 -0.060052 0.311111 -0.483217 -0.468474 0.739617 114 74 42
-0.000000 -0.117356 0.420000 -0.483217 -0.468474 0.739617 114 74 42
-0.000000 0.103673 0.560000 0.329644 -0.626389 0.706379 114 74 42
0.222222 -0.060052 0.311111 0.329644 -0.626389 0.706379 114 74 42
0.300000 0.103673 0.420000 0.329644 -0.626389 0.706379 114 74 42
-0.400000 0.103673 0.000000 -0.871775 0.394417 0.290592 114 74 42
-0.222222 0.267398 0.311111 -0.871775 0.394417 0.290592 114 74 42
-0.300000 0.324702 0.000000 -0.871775 0.394417 0.290592 114 74 42
-0.400000 0.103673 0.000000 -0.828206 0.524586 -0.197192 114 74 42
-0.222222 0.267398 -0.311111 -0.828206 0.524586 -0.197192 114 74 42
-0.300000 0.103673 -0.420000 -0.828206 0.524586 -0.197192 114 74 42
-0.400000 0.103673 0.000000 -0.871775 -0.394416 -0.290592 114 74 42
-0.222222 -0.060052 -0.311111 -0.871775 -0.394416 -0.290592 114 74 42
-0.300000 -0.117356 0.000000 -0.871775 -0.394416 -0.290592 114 74 42
-0.400000 0.103673 0.000000 -0.828206 -0.524586 0.197192 114 74 42
-0.222222 -0.060052 0.311111 -0.828206 -0.524586 0.197192 114 74 42
-0.300000 0.103673 0.420000 -0.828206 -0.524586 0.197192 114 74 42
-0.000000 0.103673 -0.560000 -0.483216 0.468474 -0.739617 114 74 42
-0.222222 0.267398 -0.311111 -0.483216 0.468474 -0.739617 114 74 42
-0.000000 0.324702 -0.420000 -0.483216 0.468474 -0.739617 114 74 42
-0.000000 0.103673 -0.560000 0.329644 0.626389 -0.706379 114 74 42
0.222222 0.267398 -0.311111 0.329644 0.626389 -0.706379 114 74 42
0.300000 0.103673 -0.420000 0.329644 0.626389 -0.706379 114 74 42
-0.000000 0.103673 -0.560000 0.483217 -0.468474 -0.739617 114 74 42
0.222222 -0.060052 -0.311111 0.483217 -0.468474 -0.739617 114 74 42
-0.000000 -0.117356 -0.420000 0.483217 -0.468474 -0.739617 114 74 42
-0.000000 0.103673 -0.560000 -0.329644 -0.626389 -0.706379 114 74 42
-0.222222 -0.060052 -0.311111 -0.329644 -0.626389 -0.706379 114 74 42
-0.300000 0.103673 -0.420000 -0.329644 -0.626389 -0.706379 114 74 42
-0.000000 -0.191032 0.000000 0.231994 -0.944647 -0.231994 114 74 42
0.222222 -0.060052 -0.311111 0.231994 -0.944647 -0.231994 114 74 42
0.300000 -0.117356 0.000000 0.231994 -0.944647 -0.231994 114 74 42
-0.000000 -0.191032 0.000000 0.320758 -0.932916 0.163652 114 74 42
0.222222 -0.060052 0.311111 0.320758 -0.932916 0.163652 114 74 42
-0.000000 -0.117356 0.420000 0.320758 -0.932916 0.163652 114 74 42
-0.000000 -0.191032 0.000000 -0.231994 -0.944647 0.231994 114 74 42
-0.222222 -0.060052 0.311111 -0.231994 -0.944647 0.231994 114 74 42
-0.300000 -0.117356 0.000000 -0.231994 -0.944647 0.231994 114 74 42
-0.000000 -0.191032 0.000000 -0.320758 -0.932916 -0.163652 114 74 42
-0.222222 -0.060052 -0.311111 -0.320758 -0.932916 -0.163652 114 74 42
-0.000000 -0.117356 -0.420000 -0.320758 -0.932916 -0.163652 114 74 42
-0.000000 0.398379 0.000000 -0.231994 0.944647 -0.231994 114 74 42
-0.222222 0.267398 -0.311111 -0.231994 0.944647 -0.231994 114 74 42
-0.300000 0.324702 0.000000 -0.231994 0.944647 -0.231994 114 74 42
-0.000000 0.398379 0.000000 -0.320758 0.932916 0.163652 114 74 42
-0.222222 0.267398 0.311111 -0.320758 0.932916 0.163652 114 74 42
-0.000000 0.324702 0.420000 -0.320758 0.932916 0.163652 114 74 42
-0.000000 0.398379 0.000000 0.231994 0.944647 0.231994 114 74 42
0.222222 0.267398 0.311111 0.231994 0.944647 0.231994 114 74 42
0.300000 0.324702 0.000000 0.231994 0.944647 0.231994 114 74 42
-0.000000 0.398379 0.000000 0.320758 0.932916 -0.163652 114 74 42
0.222222 0.267398 -0.311111 0.320758 0.932916 -0.163652 114 74 42
-0.000000 0.324702 -0.420000 0.320758 0.932916 -0.163652 114 74 42
0.433746 0.000000 0.000000 0.663544 0.731266 -0.157987 51 50 56
0.325309 0.000000 -0.455433 0.663544 0.731266 -0.157987 51 50 56
0.233471 0.111111 -0.326859 0.663544 0.731266 -0.157987 51 50 56
0.433746 0.000000 0.000000 0.744126 0.621639 0.244627 51 50 56
0.308436 0.150000 0.000000 0.744126 0.621639 0.244627 51 50 56
0.233471 0.111111 0.326859 0.744126 0.621639 0.244627 51 50 56
0.433746 0.000000 0.000000 0.724157 -0.667734 0.172418 51 50 56
0.325309 0.000000 0.455433 0.724157 -0.667734 0.172418 51 50 56
0.248469 -0.111111 0.347856 0.724157 -0.667734 0.172418 51 50 56
0.433746 0.000000 0.000000 0.820162 -0.500647 -0.276924 51 50 56
0.342182 -0.150000 0.000000 0.820162 -0.500647 -0.276924 51 50 56
0.248469 -0.111111 -0.347856 0.820162 -0.500647 -0.276924 51 50 56
0.000000 0.000000 0.607244 0.246014 0.813367 0.527173 51 50 56
0.325309 0.000000 0.455433 0.246014 0.813367 0.527173 51 50 56
0.233471 0.111111 0.326859 0.246014 0.813367 0.527173 51 50 56
0.000000 0.000000 0.607244 -0.386239 0.701070 0.599434 51 50 56
0.000000 0.150000 0.431811 -0.386239 0.701070 0.599434 51 50 56
-0.233471 0.111111 0.326859 -0.386239 0.701070 0.599434 51 50 56
0.000000 0.000000 0.607244 -0.274783 -0.760121 0.588822 51 50 56
-0.325309 0.000000 0.455433 -0.274783 -0.760121 0.588822 51 50 56
-0.248469 -0.111111 0.347856 -0.274783 -0.760121 0.588822 51 50 56
0.000000 0.000000 0.607244 0.449425 -0.580365 0.679112 51 50 56
0.000000 -0.150000 0.479055 0.449425 -0.580365 0.679112 51 50 56
0.248469 -0.111111 0.347856 0.449425 -0.580365 0.679112 51 50 56
-0.433746 0.000000 0.000000 -0.663544 0.731266 0.157987 51 50 56
-0.325309 0.000000 0.455433 -0.663544 0.731266 0.157987 51 50 56
-0.233471 0.111111 0.326859 -0.663544 0.731266 0.157987 51 50 56
-0.433746 0.000000 0.000000 -0.744126 0.621639 -0.244627 51 50 56
-0.308436 0.150000 0.000000 -0.744126 0.621639 -0.244627 51 50 56
-0.233471 0.111111 -0.326859 -0.744126 0.621639 -0.244627 51 50 56
-0.433746 0.000000 0.000000 -0.724157 -0.667734 -0.172418 51 50 56
-0.325309 0.000000 -0.455433 -0.724157 -0.667734 -0.172418 51 50 56
-0.248469 -0.111111 -0.347856 -0.724157 -0.667734 -0.172418 51 50 56
-0.433746 0.000000 0.000000 -0.820162 -0.500647 0.276924 51 50 56
-0.342182 -0.150000 0.000000 -0.820162 -0.500647 0.276924 51 50 56
-0.248469 -0.111111 0.347856 -0.820162 -0.500647 0.276924 51 50 56
0.000000 0.000000 -0.607244 -0.246014 0.813367 -0.527173 51 50 56
-0.325309 0.000000 -0.455433 -0.246014 0.813367 -0.527173 51 50 56
-0.233471 0.111111 -0.326859 -0.246014 0.813367 -0.527173 51 50 56
0.000000 0.000000 -0.607244 0.386239 0.701070 -0.599434 51 50 56
0.000000 0.150000 -0.431811 0.386239 0.701070 -0.599434 51 50 56
0.233471 0.111111 -0.326859 0.386239 0.701070 -0.599434 51 50 56
0.000000 0.000000 -0.607244 0.274783 -0.760121 -0.588822 51 50 56
0.325309 0.000000 -0.455433 0.274783 -0.760121 -0.588822 51 50 56
0.248469 -0.111111 -0.347856 0.274783 -0.760121 -0.588822 51 50 56
0.000000 0.000000 -0.607244 -0.449425 -0.580365 -0.679112 51 50 56
0.000000 -0.150000 -0.479055 -0.449425 -0.580365 -0.679112 51 50 56
-0.248469 -0.111111 -0.347856 -0.449425 -0.580365 -0.679112 51 50 56
0.000000 -0.200000 0.000000 0.205969 -0.973272 -0.101582 51 50 56
0.000000 -0.150000 -0.479055 0.205969 -0.973272 -0.101582 51 50 56
0.248469 -0.111111 -0.347856 0.205969 -0.973272 -0.101582 51 50 56
0.000000 -0.200000 0.000000 0.142995 -0.978606 0.147927 51 50 56
0.342182 -0.150000 0.000000 0.142995 -0.978606 0.147927 51 50 56
0.248469 -0.111111 0.347856 0.142995 -0.978606 0.147927 51 50 56
0.000000 -0.200000 0.000000 -0.205969 -0.973272 0.101582 51 50 56
0.000000 -0.150000 0.479055 -0.205969 -0.973272 0.101582 51 50 56
-0.248469 -0.111111 0.347856 -0.205969 -0.973272 0.101582 51 50 56
0.000000 -0.200000 0.000000 -0.142995 -0.978606 -0.147927 51 50 56
-0.342182 -0.150000 0.000000 -0.142995 -0.978606 -0.147927 51 50 56
-0.248469 -0.111111 -0.347856 -0.142995 -0.978606 -0.147927 51 50 56
0.000000 0.200000 0.000000 -0.212222 0.970735 -0.112403 51 50 56
0.000000 0.150000 -0.431811 -0.212222 0.970735 -0.112403 51 50 56
-0.233471 0.111111 -0.326859 -0.212222 0.970735 -0.112403 51 50 56
0.000000 0.200000 0.000000 -0.158151 0.975592 0.152346 51 50 56
-0.308436 0.150000 0.000000 -0.158151 0.975592 0.152346 51 50 56
-0.233471 0.111111 0.326859 -0.158151 0.975592 0.152346 51 50 56
0.000000 0.200000 0.000000 0.212222 0.970735 0.112403 51 50 56
0.000000 0.150000 0.431811 0.212222 0.970735 0.112403 51 50 56
0.233471 0.111111 0.326859 0.212222 0.970735 0.112403 51 50 56
0.000000 0.200000 0.000000 0.158151 0.975592 -0.152346 51 50 56
0.308436 0.150000 0.000000 0.158151 0.975592 -0.152346 51 50 56
0.233471 0.111111 -0.326859 0.158151 0.975592 -0.152346 51 50 56
0.400000 0.103673 0.000000 0.828206 0.524586 -0.197192 114 74 42
0.300000 0.103673 -0.420000 0.828206 0.524586 -0.197192 114 74 42
0.222222 0.267398 -0.311111 0.828206 0.524586 -0.197192 114 74 42
0.400000 0.103673 0.000000 0.871775 0.394417 0.290592 114 74 42
0.300000 0.324702 0.000000 0.871775 0.394417 0.290592 114 74 42
0.222222 0.267398 0.311111 0.871775 0.394417 0.290592 114 74 42
0.400000 0.103673 0.000000 0.828206 -0.524586 0.197192 114 74 42
0.300000 0.103673 0.420000 0.828206 -0.524586 0.197192 114 74 42
0.222222 -0.060052 0.311111 0.828206 -0.524586 0.197192 114 74 42
0.400000 0.103673 0.000000 0.871775 -0.394416 -0.290592 114 74 42
0.300000 -0.117356 0.000000 0.871775 -0.394416 -0.290592 114 74 42
0.222222 -0.060052 -0.311111 0.871775 -0.394416 -0.290592 114 74 42
-0.000000 0.103673 0.560000 0.329644 0.626389 0.706379 114 74 42
0.300000 0.103673 0.420000 0.329644 0.626389 0.706379 114 74 42
0.222222 0.267398 0.311111 0.329644 0.626389 0.706379 114 74 42
-0.000000 0.103673 0.560000 -0.483216 0.468474 0.739617 114 74 42
-0.000000 0.324702 0.420000 -0.483216 0.468474 0.739617 114 74 42
-0.222222 0.267398 0.311111 -0.483216 0.468474 0.739617 114 74 42
-0.000000 0.103673 0.560000 -0.329644 -0.626389 0.706379 114 74 42
-0.300000 0.103673 0.420000 -0.329644 -0.626389 0.706379 114 74 42
-0.222222 -0.060052 0.311111 -0.329644 -0.626389 0.706379 114 74 42
-0.000000 0.103673 0.560000 0.483217 -0.468474 0.739617 114 74 42
-0.000000 -0.117356 0.420000 0.483217 -0.468474 0.739617 114 74 42
0.222222 -0.060052 0.311111 0.483217 -0.468474 0.739617 114 74 42
-0.400000 0.103673 0.000000 -0.828206 0.524586 0.197192 114 74 42
-0.300000 0.103673 0.420000 -0.828206 0.524586 0.197192 114 74 42
-0.222222 0.267398 0.311111 -0.828206 0.524586 0.197192 114 74 42
-0.400000 0.103673 0.000000 -0.871775 0.394417 -0.290592 114 74 42
-0.300000 0.324702 0.000000 -0.871775 0.394417 -0.290592 114 74 42
-0.222222 0.267398 -0.311111 -0.871775 0.394417 -0.290592 114 74 42
-0.400000 0.103673 0.000000 -0.828206 -0.524586 -0.197192 114 74 42
-0.300000 0.103673 -0.420000 -0.828206 -0.524586 -0.197192 114 74 42
-0.222222 -0.060052 -0.311111 -0.828206 -0.524586 -0.197192 114 74 42
-0.400000 0.103673 0.000000 -0.871775 -0.394417 0.290592 114 74 42
-0.300000 -0.117356 0.000000 -0.871775 -0.394417 0.290592 114 74 42
-0.222222 -0.060052 0.311111 -0.871775 -0.394417 0.290592 114 74 42
-0.000000 0.103673 -0.560000 -0.329644 0.626389 -0.706379 114 74 42
-0.300000 0.103673 -0.420000 -0.329644 0.626389 -0.706379 114 74 42
-0.222222 0.267398 -0.311111 -0.329644 0.626389 -0.706379 114 74 42
-0.000000 0.103673 -0.560000 0.483217 0.468474 -0.739617 114 74 42
-0.000000 0.324702 -0.420000 0.483217 0.468474 -0.739617 114 74 42
0.222222 0.267398 -0.311111 0.483217 0.468474 -0.739617 114 74 42
-0.000000 0.103673 -0.560000 0.329644 -0.626389 -0.706379 114 74 42
0.300000 0.103673 -0.420000 0.329644 -0.626389 -0.706379 114 74 42
0.222222 -0.060052 -0.311111 0.329644 -0.626389 -0.706379 114 74 42
-0.000000 0.103673 -0.560000 -0.483216 -0.468474 -0.739617 114 74 42
-0.000000 -0.117356 -0.420000 -0.483216 -0.468474 -0.739617 114 74 42
-0.222222 -0.060052 -0.311111 -0.483216 -0.468474 -0.739617 114 74 42
-0.000000 -0.191032 0.000000 0.320758 -0.932916 -0.163652 114 74 42
-0.000000 -0.117356 -0.420000 0.320758 -0.932916 -0.163652 114 74 42
0.222222 -0.060052 -0.311111 0.320758 -0.932916 -0.163652 114 74 42
-0.000000 -0.191032 0.000000 0.231994 -0.944647 0.231994 114 74 42
0.300000 -0.117356 0.000000 0.231994 -0.944647 0.231994 114 74 42
0.222222 -0.060052 0.311111 0.231994 -0.944647 0.231994 114 74 42
-0.000000 -0.191032 0.000000 -0.320758 -0.932916 0.163652 114 74 42
-0.000000 -0.117356 0.420000 -0.320758 -0.932916 0.163652 114 74 42
-0.222222 -0.060052 0.311111 -0.320758 -0.932916 0.163652 114 74 42
-0.000000 -0.191032 0.000000 -0.231994 -0.944647 -0.231994 114 74 42
-0.300000 -0.117356 0.000000 -0.231994 -0.944647 -0.231994 114 74 42
-0.222222 -0.060052 -0.311111 -0.231994 -0.944647 -0.231994 114 74 42
-0.000000 0.398379 0.000000 -0.320758 0.932916 -0.163652 114 74 42
-0.000000 0.324702 -0.420000 -0.320758 0.932916 -0.163652 114 74 42
-0.222222 0.267398 -0.311111 -0.320758 0.932916 -0.163652 114 74 42
-0.000000 0.398379 0.000000 -0.231994 0.944647 0.231994 114 74 42
-0.300000 0.324702 0.000000 -0.231994 0.944647 0.231994 114 74 42
-0.222222 0.267398 0.311111 -0.231994 0.944647 0.231994 114 74 42
-0.000000 0.398379 0.000000 0.320758 0.932916 0.163652 114 74 42
-0.000000 0.324702 0.420000 0.320758 0.932916 0.163652 114 74 42
0.222222 0.267398 0.311111 0.320758 0.932916 0.163652 114 74 42
-0.000000 0.398379 0.000000 0.231994 0.944647 -0.231994 114 74 42
0.300000 0.324702 0.000000 0.231994 0.944647 -0.231994 114 74 42
0.222222 0.267398 -0.311111 0.231994 0.944647 -0.231994 114 74 42
3 0 1 2
3 3 4 5
3 6 7 8
3 9 10 11
3 12 13 14
3 15 16 17
3 18 19 20
3 21 22 23
3 24 25 26
3 27 28 29
3 30 31 32
3 33 34 35
3 36 37 38
3 39 40 41
3 42 43 44
3 45 46 47
3 48 49 50
3 51 52 53
3 54 55 56
3 57 58 59
3 60 61 62
3 63 64 65
3 66 67 68
3 69 70 71
3 72 73 74
3 75 76 77
3 78 79 80
3 81 82 83
3 84 85 86
3 87 88 89
3 90 91 92
3 93 94 95
3 96 97 98
3 99 100 101
3 102 103 104
3 105 106 107
3 108 109 110
3 111 112 113
3 114 115 116
3 117 118 119
3 120 121 122
3 123 124 125
3 126 127 128
3 129 130 131
3 132 133 134
3 135 136 137
3 138 139 140
3 141 142 143
3 144 145 146
3 147 148 149
3 150 151 152
3 153 154 155
3 156 157 158
3 159 160 161
3 162 163 164
3 165 166 167
3 168 169 170
3 171 172 173
3 174 175 176
3 177 178 179
3 180 181 182
3 183 184 185
3 186 187 188
3 189 190 191
3 192 193 194
3 195 196 197
3 198 199 200
3 201 202 203
3 204 205 206
3 207 208 209
3 210 211 212
3 213 214 215
3 216 217 218
3 219 220 221
3 222 223 224
3 225 226 227
3 228 229 230
3 231 232 233
3 234 235 236
3 237 238 239
3 240 241 242
3 243 244 245
3 246 247 248
3 249 250 251
3 252 253 254
3 255 256 257
3 258 259 260
3 261 262 263
3 264 265 266
3 267 268 269
3 270 271 272
3 273 274 275
3 276 277 278
3 279 280 281
3 282 283 284
3 285 286 287
