ply
format ascii 1.0
comment Created by Blender 2.77 (sub 0) - www.blender.org, source file: 'NewPlayer.blend'
element vertex 432
property float x
property float y
property float z
property float nx
property float ny
property float nz
property uchar red
property uchar green
property uchar blue
element face 144
property list uchar uint vertex_indices
end_header
0.227659 0.413616 -0.112811 0.854578 0.396224 -0.335712 126 123 135
0.126477 0.504545 -0.263057 0.854578 0.396224 -0.335712 126 123 135
0.170744 0.536370 -0.112811 0.854578 0.396224 -0.335712 126 123 135
0.227659 0.413616 -0.112811 0.816475 0.529981 0.229103 126 123 135
0.126477 0.504545 0.037435 0.816475 0.529981 0.229103 126 123 135
0.170744 0.413616 0.090022 0.816475 0.529981 0.229103 126 123 135
0.227659 0.413616 -0.112811 0.854578 -0.396224 0.335712 126 123 135
0.126477 0.322688 0.037435 0.854578 -0.396224 0.335712 126 123 135
0.170744 0.290863 -0.112811 0.854578 -0.396224 0.335712 126 123 135
0.227659 0.413616 -0.112811 0.816475 -0.529981 -0.229103 126 123 135
0.126477 0.322688 -0.263057 0.816475 -0.529981 -0.229103 126 123 135
0.170744 0.413616 -0.315643 0.816475 -0.529981 -0.229103 126 123 135
-0.000000 0.413616 0.157632 0.436810 0.433986 0.787942 126 123 135
0.126477 0.504545 0.037435 0.436810 0.433986 0.787942 126 123 135
-0.000000 0.536370 0.090022 0.436810 0.433986 0.787942 126 123 135
-0.000000 0.413616 0.157632 -0.299212 0.582663 0.755629 126 123 135
-0.126477 0.504545 0.037435 -0.299212 0.582663 0.755629 126 123 135
-0.170744 0.413616 0.090022 -0.299212 0.582663 0.755629 126 123 135
-0.000000 0.413616 0.157632 -0.436810 -0.433986 0.787942 126 123 135
-0.126477 0.322688 0.037435 -0.436810 -0.433986 0.787942 126 123 135
-0.000000 0.290863 0.090022 -0.436810 -0.433986 0.787942 126 123 135
-0.000000 0.413616 0.157632 0.299212 -0.582663 0.755629 126 123 135
0.126477 0.322688 0.037435 0.299212 -0.582663 0.755629 126 123 135
0.170744 0.413616 0.090022 0.299212 -0.582663 0.755629 126 123 135
-0.227659 0.413616 -0.112811 -0.854578 0.396224 0.335712 126 123 135
-0.126477 0.504545 0.037435 -0.854578 0.396224 0.335712 126 123 135
-0.170744 0.536370 -0.112811 -0.854578 0.396224 0.335712 126 123 135
-0.227659 0.413616 -0.112811 -0.816475 0.529981 -0.229103 126 123 135
-0.126477 0.504545 -0.263057 -0.816475 0.529981 -0.229103 126 123 135
-0.170744 0.413616 -0.315643 -0.816475 0.529981 -0.229103 126 123 135
-0.227659 0.413616 -0.112811 -0.854578 -0.396224 -0.335712 126 123 135
-0.126477 0.322688 -0.263057 -0.854578 -0.396224 -0.335712 126 123 135
-0.170744 0.290863 -0.112811 -0.854578 -0.396224 -0.335712 126 123 135
-0.227659 0.413616 -0.112811 -0.816475 -0.529981 0.229103 126 123 135
-0.126477 0.322688 0.037435 -0.816475 -0.529981 0.229103 126 123 135
-0.170744 0.413616 0.090022 -0.816475 -0.529981 0.229103 126 123 135
-0.000000 0.413616 -0.383254 -0.436810 0.433986 -0.787942 126 123 135
-0.126477 0.504545 -0.263057 -0.436810 0.433986 -0.787942 126 123 135
-0.000000 0.536370 -0.315643 -0.436810 0.433986 -0.787942 126 123 135
-0.000000 0.413616 -0.383254 0.299212 0.582663 -0.755629 126 123 135
0.126477 0.504545 -0.263057 0.299212 0.582663 -0.755629 126 123 135
0.170744 0.413616 -0.315643 0.299212 0.582663 -0.755629 126 123 135
-0.000000 0.413616 -0.383254 0.436810 -0.433986 -0.787942 126 123 135
0.126477 0.322688 -0.263057 0.436810 -0.433986 -0.787942 126 123 135
-0.000000 0.290863 -0.315643 0.436810 -0.433986 -0.787942 126 123 135
-0.000000 0.413616 -0.383254 -0.299212 -0.582663 -0.755629 126 123 135
-0.126477 0.322688 -0.263057 -0.299212 -0.582663 -0.755629 126 123 135
-0.170744 0.413616 -0.315643 -0.299212 -0.582663 -0.755629 126 123 135
-0.000000 0.249945 -0.112811 0.224725 -0.937741 -0.264842 126 123 135
0.126477 0.322688 -0.263057 0.224725 -0.937741 -0.264842 126 123 135
0.170744 0.290863 -0.112811 0.224725 -0.937741 -0.264842 126 123 135
-0.000000 0.249945 -0.112811 0.312416 -0.931187 0.187851 126 123 135
0.126477 0.322688 0.037435 0.312416 -0.931187 0.187851 126 123 135
-0.000000 0.290863 0.090022 0.312416 -0.931187 0.187851 126 123 135
-0.000000 0.249945 -0.112811 -0.224725 -0.937741 0.264842 126 123 135
-0.126477 0.322688 0.037435 -0.224725 -0.937741 0.264842 126 123 135
-0.170744 0.290863 -0.112811 -0.224725 -0.937741 0.264842 126 123 135
-0.000000 0.249945 -0.112811 -0.312416 -0.931187 -0.187851 126 123 135
-0.126477 0.322688 -0.263057 -0.312416 -0.931187 -0.187851 126 123 135
-0.000000 0.290863 -0.315643 -0.312416 -0.931187 -0.187851 126 123 135
-0.000000 0.577288 -0.112811 -0.224725 0.937741 -0.264842 126 123 135
-0.126477 0.504545 -0.263057 -0.224725 0.937741 -0.264842 126 123 135
-0.170744 0.536370 -0.112811 -0.224725 0.937741 -0.264842 126 123 135
-0.000000 0.577288 -0.112811 -0.312416 0.931187 0.187851 126 123 135
-0.126477 0.504545 0.037435 -0.312416 0.931187 0.187851 126 123 135
-0.000000 0.536370 0.090022 -0.312416 0.931187 0.187851 126 123 135
-0.000000 0.577288 -0.112811 0.224725 0.937741 0.264842 126 123 135
0.126477 0.504545 0.037435 0.224725 0.937741 0.264842 126 123 135
0.170744 0.536370 -0.112811 0.224725 0.937741 0.264842 126 123 135
-0.000000 0.577288 -0.112811 0.312416 0.931187 -0.187851 126 123 135
0.126477 0.504545 -0.263057 0.312416 0.931187 -0.187851 126 123 135
-0.000000 0.536370 -0.315643 0.312416 0.931187 -0.187851 126 123 135
0.433746 0.000000 0.000000 0.781877 0.567979 -0.257038 51 50 56
0.233471 0.127778 -0.326859 0.781877 0.567979 -0.257038 51 50 56
0.308436 0.172500 0.000000 0.781877 0.567979 -0.257038 51 50 56
0.433746 0.000000 0.000000 0.711558 0.681896 0.169419 51 50 56
0.233471 0.127778 0.326859 0.711558 0.681896 0.169419 51 50 56
0.325309 0.000000 0.455433 0.711558 0.681896 0.169419 51 50 56
0.433746 0.000000 0.000000 0.846438 -0.449292 0.285795 51 50 56
0.248469 -0.127778 0.347856 0.846438 -0.449292 0.285795 51 50 56
0.342182 -0.172500 0.000000 0.846438 -0.449292 0.285795 51 50 56
0.433746 0.000000 0.000000 0.767057 -0.615036 -0.182633 51 50 56
0.248469 -0.127778 -0.347856 0.767057 -0.615036 -0.182633 51 50 56
0.325309 0.000000 -0.455433 0.767057 -0.615036 -0.182633 51 50 56
0.000000 0.000000 0.607244 0.411698 0.649810 0.638946 51 50 56
0.233471 0.127778 0.326859 0.411698 0.649810 0.638946 51 50 56
0.000000 0.172500 0.431811 0.411698 0.649810 0.638946 51 50 56
0.000000 0.000000 0.607244 -0.268635 0.772312 0.575647 51 50 56
-0.233471 0.127778 0.326859 -0.268635 0.772312 0.575647 51 50 56
-0.325309 0.000000 0.455433 -0.268635 0.772312 0.575647 51 50 56
0.000000 0.000000 0.607244 -0.469103 -0.526762 0.708847 51 50 56
-0.248469 -0.127778 0.347856 -0.469103 -0.526762 0.708847 51 50 56
0.000000 -0.172500 0.479055 -0.469103 -0.526762 0.708847 51 50 56
0.000000 0.000000 0.607244 0.296461 -0.713119 0.635274 51 50 56
0.248469 -0.127778 0.347856 0.296461 -0.713119 0.635274 51 50 56
0.325309 0.000000 0.455433 0.296461 -0.713119 0.635274 51 50 56
-0.433746 0.000000 0.000000 -0.781877 0.567979 0.257038 51 50 56
-0.233471 0.127778 0.326859 -0.781877 0.567979 0.257038 51 50 56
-0.308436 0.172500 0.000000 -0.781877 0.567979 0.257038 51 50 56
-0.433746 0.000000 0.000000 -0.711558 0.681896 -0.169419 51 50 56
-0.233471 0.127778 -0.326859 -0.711558 0.681896 -0.169419 51 50 56
-0.325309 0.000000 -0.455433 -0.711558 0.681896 -0.169419 51 50 56
-0.433746 0.000000 0.000000 -0.846438 -0.449292 -0.285795 51 50 56
-0.248469 -0.127778 -0.347856 -0.846438 -0.449292 -0.285795 51 50 56
-0.342182 -0.172500 0.000000 -0.846438 -0.449292 -0.285795 51 50 56
-0.433746 0.000000 0.000000 -0.767057 -0.615036 0.182633 51 50 56
-0.248469 -0.127778 0.347856 -0.767057 -0.615036 0.182633 51 50 56
-0.325309 0.000000 0.455433 -0.767057 -0.615036 0.182633 51 50 56
0.000000 0.000000 -0.607244 -0.411698 0.649810 -0.638946 51 50 56
-0.233471 0.127778 -0.326859 -0.411698 0.649810 -0.638946 51 50 56
0.000000 0.172500 -0.431811 -0.411698 0.649810 -0.638946 51 50 56
0.000000 0.000000 -0.607244 0.268635 0.772312 -0.575647 51 50 56
0.233471 0.127778 -0.326859 0.268635 0.772312 -0.575647 51 50 56
0.325309 0.000000 -0.455433 0.268635 0.772312 -0.575647 51 50 56
0.000000 0.000000 -0.607244 0.469103 -0.526762 -0.708847 51 50 56
0.248469 -0.127778 -0.347856 0.469103 -0.526762 -0.708847 51 50 56
0.000000 -0.172500 -0.479055 0.469103 -0.526762 -0.708847 51 50 56
0.000000 0.000000 -0.607244 -0.296461 -0.713119 -0.635274 51 50 56
-0.248469 -0.127778 -0.347856 -0.296461 -0.713119 -0.635274 51 50 56
-0.325309 0.000000 -0.455433 -0.296461 -0.713119 -0.635274 51 50 56
0.000000 -0.230000 0.000000 0.163333 -0.971994 -0.168967 51 50 56
0.248469 -0.127778 -0.347856 0.163333 -0.971994 -0.168967 51 50 56
0.342182 -0.172500 0.000000 0.163333 -0.971994 -0.168967 51 50 56
0.000000 -0.230000 0.000000 0.234875 -0.965098 0.115839 51 50 56
0.248469 -0.127778 0.347856 0.234875 -0.965098 0.115839 51 50 56
0.000000 -0.172500 0.479055 0.234875 -0.965098 0.115839 51 50 56
0.000000 -0.230000 0.000000 -0.163333 -0.971994 0.168967 51 50 56
-0.248469 -0.127778 0.347856 -0.163333 -0.971994 0.168967 51 50 56
-0.342182 -0.172500 0.000000 -0.163333 -0.971994 0.168967 51 50 56
0.000000 -0.230000 0.000000 -0.234875 -0.965098 -0.115839 51 50 56
-0.248469 -0.127778 -0.347856 -0.234875 -0.965098 -0.115839 51 50 56
0.000000 -0.172500 -0.479055 -0.234875 -0.965098 -0.115839 51 50 56
0.000000 0.230000 0.000000 -0.180476 0.968093 -0.173851 51 50 56
-0.233471 0.127778 -0.326859 -0.180476 0.968093 -0.173851 51 50 56
-0.308436 0.172500 0.000000 -0.180476 0.968093 -0.173851 51 50 56
0.000000 0.230000 0.000000 -0.241817 0.961832 0.128078 51 50 56
-0.233471 0.127778 0.326859 -0.241817 0.961832 0.128078 51 50 56
0.000000 0.172500 0.431811 -0.241817 0.961832 0.128078 51 50 56
0.000000 0.230000 0.000000 0.180476 0.968093 0.173851 51 50 56
0.233471 0.127778 0.326859 0.180476 0.968093 0.173851 51 50 56
0.308436 0.172500 0.000000 0.180476 0.968093 0.173851 51 50 56
0.000000 0.230000 0.000000 0.241817 0.961832 -0.128078 51 50 56
0.233471 0.127778 -0.326859 0.241817 0.961832 -0.128078 51 50 56
0.000000 0.172500 -0.431811 0.241817 0.961832 -0.128078 51 50 56
0.400000 0.119224 0.000000 0.888797 0.349667 -0.296266 114 74 42
0.222222 0.307508 -0.311111 0.888797 0.349667 -0.296266 114 74 42
0.300000 0.373408 0.000000 0.888797 0.349667 -0.296266 114 74 42
0.400000 0.119224 0.000000 0.857477 0.472284 0.204161 114 74 42
0.222222 0.307508 0.311111 0.857477 0.472284 0.204161 114 74 42
0.300000 0.119224 0.420000 0.857477 0.472284 0.204161 114 74 42
0.400000 0.119224 0.000000 0.888797 -0.349667 0.296266 114 74 42
0.222222 -0.069060 0.311111 0.888797 -0.349667 0.296266 114 74 42
0.300000 -0.134959 0.000000 0.888797 -0.349667 0.296266 114 74 42
0.400000 0.119224 0.000000 0.857477 -0.472284 -0.204161 114 74 42
0.222222 -0.069060 -0.311111 0.857477 -0.472284 -0.204161 114 74 42
0.300000 0.119224 -0.420000 0.857477 -0.472284 -0.204161 114 74 42
-0.000000 0.119224 0.560000 0.496690 0.418728 0.760241 114 74 42
0.222222 0.307508 0.311111 0.496690 0.418728 0.760241 114 74 42
-0.000000 0.373408 0.420000 0.496690 0.418728 0.760241 114 74 42
-0.000000 0.119224 0.560000 -0.346644 0.572777 0.742809 114 74 42
-0.222222 0.307508 0.311111 -0.346644 0.572777 0.742809 114 74 42
-0.300000 0.119224 0.420000 -0.346644 0.572777 0.742809 114 74 42
-0.000000 0.119224 0.560000 -0.496690 -0.418728 0.760241 114 74 42
-0.222222 -0.069060 0.311111 -0.496690 -0.418728 0.760241 114 74 42
-0.000000 -0.134959 0.420000 -0.496690 -0.418728 0.760241 114 74 42
-0.000000 0.119224 0.560000 0.346644 -0.572777 0.742809 114 74 42
0.222222 -0.069060 0.311111 0.346644 -0.572777 0.742809 114 74 42
0.300000 0.119224 0.420000 0.346644 -0.572777 0.742809 114 74 42
-0.400000 0.119224 0.000000 -0.888797 0.349667 0.296265 114 74 42
-0.222222 0.307508 0.311111 -0.888797 0.349667 0.296265 114 74 42
-0.300000 0.373408 0.000000 -0.888797 0.349667 0.296265 114 74 42
-0.400000 0.119224 0.000000 -0.857477 0.472284 -0.204161 114 74 42
-0.222222 0.307508 -0.311111 -0.857477 0.472284 -0.204161 114 74 42
-0.300000 0.119224 -0.420000 -0.857477 0.472284 -0.204161 114 74 42
-0.400000 0.119224 0.000000 -0.888797 -0.349667 -0.296266 114 74 42
-0.222222 -0.069060 -0.311111 -0.888797 -0.349667 -0.296266 114 74 42
-0.300000 -0.134959 0.000000 -0.888797 -0.349667 -0.296266 114 74 42
-0.400000 0.119224 0.000000 -0.857477 -0.472284 0.204161 114 74 42
-0.222222 -0.069060 0.311111 -0.857477 -0.472284 0.204161 114 74 42
-0.300000 0.119224 0.420000 -0.857477 -0.472284 0.204161 114 74 42
-0.000000 0.119224 -0.560000 -0.496690 0.418728 -0.760240 114 74 42
-0.222222 0.307508 -0.311111 -0.496690 0.418728 -0.760240 114 74 42
-0.000000 0.373408 -0.420000 -0.496690 0.418728 -0.760240 114 74 42
-0.000000 0.119224 -0.560000 0.346644 0.572777 -0.742808 114 74 42
0.222222 0.307508 -0.311111 0.346644 0.572777 -0.742808 114 74 42
0.300000 0.119224 -0.420000 0.346644 0.572777 -0.742808 114 74 42
-0.000000 0.119224 -0.560000 0.496690 -0.418728 -0.760241 114 74 42
0.222222 -0.069060 -0.311111 0.496690 -0.418728 -0.760241 114 74 42
-0.000000 -0.134959 -0.420000 0.496690 -0.418728 -0.760241 114 74 42
-0.000000 0.119224 -0.560000 -0.346644 -0.572777 -0.742808 114 74 42
-0.222222 -0.069060 -0.311111 -0.346644 -0.572777 -0.742808 114 74 42
-0.300000 0.119224 -0.420000 -0.346644 -0.572777 -0.742808 114 74 42
-0.000000 -0.219687 0.000000 0.262279 -0.928665 -0.262279 114 74 42
0.222222 -0.069060 -0.311111 0.262279 -0.928665 -0.262279 114 74 42
0.300000 -0.134959 0.000000 0.262279 -0.928665 -0.262279 114 74 42
-0.000000 -0.219687 0.000000 0.361393 -0.914001 0.184384 114 74 42
0.222222 -0.069060 0.311111 0.361393 -0.914001 0.184384 114 74 42
-0.000000 -0.134959 0.420000 0.361393 -0.914001 0.184384 114 74 42
-0.000000 -0.219687 0.000000 -0.262279 -0.928665 0.262279 114 74 42
-0.222222 -0.069060 0.311111 -0.262279 -0.928665 0.262279 114 74 42
-0.300000 -0.134959 0.000000 -0.262279 -0.928665 0.262279 114 74 42
-0.000000 -0.219687 0.000000 -0.361393 -0.914001 -0.184384 114 74 42
-0.222222 -0.069060 -0.311111 -0.361393 -0.914001 -0.184384 114 74 42
-0.000000 -0.134959 -0.420000 -0.361393 -0.914001 -0.184384 114 74 42
-0.000000 0.458135 0.000000 -0.262279 0.928665 -0.262279 114 74 42
-0.222222 0.307508 -0.311111 -0.262279 0.928665 -0.262279 114 74 42
-0.300000 0.373408 0.000000 -0.262279 0.928665 -0.262279 114 74 42
-0.000000 0.458135 0.000000 -0.361393 0.914001 0.184384 114 74 42
-0.222222 0.307508 0.311111 -0.361393 0.914001 0.184384 114 74 42
-0.000000 0.373408 0.420000 -0.361393 0.914001 0.184384 114 74 42
-0.000000 0.458135 0.000000 0.262279 0.928665 0.262279 114 74 42
0.222222 0.307508 0.311111 0.262279 0.928665 0.262279 114 74 42
0.300000 0.373408 0.000000 0.262279 0.928665 0.262279 114 74 42
-0.000000 0.458135 0.000000 0.361393 0.914001 -0.184384 114 74 42
0.222222 0.307508 -0.311111 0.361393 0.914001 -0.184384 114 74 42
-0.000000 0.373408 -0.420000 0.361393 0.914001 -0.184384 114 74 42
0.227659 0.413616 -0.112811 0.816475 0.529981 -0.229103 126 123 135
0.170744 0.413616 -0.315643 0.816475 0.529981 -0.229103 126 123 135
0.126477 0.504545 -0.263057 0.816475 0.529981 -0.229103 126 123 135
0.227659 0.413616 -0.112811 0.854578 0.396224 0.335712 126 123 135
0.170744 0.536370 -0.112811 0.854578 0.396224 0.335712 126 123 135
0.126477 0.504545 0.037435 0.854578 0.396224 0.335712 126 123 135
0.227659 0.413616 -0.112811 0.816475 -0.529981 0.229103 126 123 135
0.170744 0.413616 0.090022 0.816475 -0.529981 0.229103 126 123 135
0.126477 0.322688 0.037435 0.816475 -0.529981 0.229103 126 123 135
0.227659 0.413616 -0.112811 0.854578 -0.396224 -0.335712 126 123 135
0.170744 0.290863 -0.112811 0.854578 -0.396224 -0.335712 126 123 135
0.126477 0.322688 -0.263057 0.854578 -0.396224 -0.335712 126 123 135
-0.000000 0.413616 0.157632 0.299212 0.582663 0.755629 126 123 135
0.170744 0.413616 0.090022 0.299212 0.582663 0.755629 126 123 135
0.126477 0.504545 0.037435 0.299212 0.582663 0.755629 126 123 135
-0.000000 0.413616 0.157632 -0.436810 0.433986 0.787942 126 123 135
-0.000000 0.536370 0.090022 -0.436810 0.433986 0.787942 126 123 135
-0.126477 0.504545 0.037435 -0.436810 0.433986 0.787942 126 123 135
-0.000000 0.413616 0.157632 -0.299212 -0.582663 0.755629 126 123 135
-0.170744 0.413616 0.090022 -0.299212 -0.582663 0.755629 126 123 135
-0.126477 0.322688 0.037435 -0.299212 -0.582663 0.755629 126 123 135
-0.000000 0.413616 0.157632 0.436810 -0.433986 0.787942 126 123 135
-0.000000 0.290863 0.090022 0.436810 -0.433986 0.787942 126 123 135
0.126477 0.322688 0.037435 0.436810 -0.433986 0.787942 126 123 135
-0.227659 0.413616 -0.112811 -0.816475 0.529981 0.229103 126 123 135
-0.170744 0.413616 0.090022 -0.816475 0.529981 0.229103 126 123 135
-0.126477 0.504545 0.037435 -0.816475 0.529981 0.229103 126 123 135
-0.227659 0.413616 -0.112811 -0.854578 0.396224 -0.335712 126 123 135
-0.170744 0.536370 -0.112811 -0.854578 0.396224 -0.335712 126 123 135
-0.126477 0.504545 -0.263057 -0.854578 0.396224 -0.335712 126 123 135
-0.227659 0.413616 -0.112811 -0.816475 -0.529981 -0.229103 126 123 135
-0.170744 0.413616 -0.315643 -0.816475 -0.529981 -0.229103 126 123 135
-0.126477 0.322688 -0.263057 -0.816475 -0.529981 -0.229103 126 123 135
-0.227659 0.413616 -0.112811 -0.854578 -0.396224 0.335712 126 123 135
-0.170744 0.290863 -0.112811 -0.854578 -0.396224 0.335712 126 123 135
-0.126477 0.322688 0.037435 -0.854578 -0.396224 0.335712 126 123 135
-0.000000 0.413616 -0.383254 -0.299212 0.582663 -0.755629 126 123 135
-0.170744 0.413616 -0.315643 -0.299212 0.582663 -0.755629 126 123 135
-0.126477 0.504545 -0.263057 -0.299212 0.582663 -0.755629 126 123 135
-0.000000 0.413616 -0.383254 0.436810 0.433986 -0.787942 126 123 135
-0.000000 0.536370 -0.315643 0.436810 0.433986 -0.787942 126 123 135
0.126477 0.504545 -0.263057 0.436810 0.433986 -0.787942 126 123 135
-0.000000 0.413616 -0.383254 0.299212 -0.582663 -0.755629 126 123 135
0.170744 0.413616 -0.315643 0.299212 -0.582663 -0.755629 126 123 135
0.126477 0.322688 -0.263057 0.299212 -0.582663 -0.755629 126 123 135
-0.000000 0.413616 -0.383254 -0.436810 -0.433986 -0.787942 126 123 135
-0.000000 0.290863 -0.315643 -0.436810 -0.433986 -0.787942 126 123 135
-0.126477 0.322688 -0.263057 -0.436810 -0.433986 -0.787942 126 123 135
-0.000000 0.249945 -0.112811 0.312416 -0.931187 -0.187851 126 123 135
-0.000000 0.290863 -0.315643 0.312416 -0.931187 -0.187851 126 123 135
0.126477 0.322688 -0.263057 0.312416 -0.931187 -0.187851 126 123 135
-0.000000 0.249945 -0.112811 0.224725 -0.937741 0.264842 126 123 135
0.170744 0.290863 -0.112811 0.224725 -0.937741 0.264842 126 123 135
0.126477 0.322688 0.037435 0.224725 -0.937741 0.264842 126 123 135
-0.000000 0.249945 -0.112811 -0.312416 -0.931187 0.187851 126 123 135
-0.000000 0.290863 0.090022 -0.312416 -0.931187 0.187851 126 123 135
-0.126477 0.322688 0.037435 -0.312416 -0.931187 0.187851 126 123 135
-0.000000 0.249945 -0.112811 -0.224725 -0.937741 -0.264842 126 123 135
-0.170744 0.290863 -0.112811 -0.224725 -0.937741 -0.264842 126 123 135
-0.126477 0.322688 -0.263057 -0.224725 -0.937741 -0.264842 126 123 135
-0.000000 0.577288 -0.112811 -0.312416 0.931187 -0.187851 126 123 135
-0.000000 0.536370 -0.315643 -0.312416 0.931187 -0.187851 126 123 135
-0.126477 0.504545 -0.263057 -0.312416 0.931187 -0.187851 126 123 135
-0.000000 0.577288 -0.112811 -0.224725 0.937741 0.264842 126 123 135
-0.170744 0.536370 -0.112811 -0.224725 0.937741 0.264842 126 123 135
-0.126477 0.504545 0.037435 -0.224725 0.937741 0.264842 126 123 135
-0.000000 0.577288 -0.112811 0.312416 0.931187 0.187851 126 123 135
-0.000000 0.536370 0.090022 0.312416 0.931187 0.187851 126 123 135
0.126477 0.504545 0.037435 0.312416 0.931187 0.187851 126 123 135
-0.000000 0.577288 -0.112811 0.224725 0.937741 -0.264842 126 123 135
0.170744 0.536370 -0.112811 0.224725 0.937741 -0.264842 126 123 135
0.126477 0.504545 -0.263057 0.224725 0.937741 -0.264842 126 123 135
0.433746 0.000000 0.000000 0.711558 0.681896 -0.169419 51 50 56
0.325309 0.000000 -0.455433 0.711558 0.681896 -0.169419 51 50 56
0.233471 0.127778 -0.326859 0.711558 0.681896 -0.169419 51 50 56
0.433746 0.000000 0.000000 0.781877 0.567979 0.257038 51 50 56
0.308436 0.172500 0.000000 0.781877 0.567979 0.257038 51 50 56
0.233471 0.127778 0.326859 0.781877 0.567979 0.257038 51 50 56
0.433746 0.000000 0.000000 0.767057 -0.615036 0.182633 51 50 56
0.325309 0.000000 0.455433 0.767057 -0.615036 0.182633 51 50 56
0.248469 -0.127778 0.347856 0.767057 -0.615036 0.182633 51 50 56
0.433746 0.000000 0.000000 0.846438 -0.449292 -0.285795 51 50 56
0.342182 -0.172500 0.000000 0.846438 -0.449292 -0.285795 51 50 56
0.248469 -0.127778 -0.347856 0.846438 -0.449292 -0.285795 51 50 56
0.000000 0.000000 0.607244 0.268635 0.772312 0.575647 51 50 56
0.325309 0.000000 0.455433 0.268635 0.772312 0.575647 51 50 56
0.233471 0.127778 0.326859 0.268635 0.772312 0.575647 51 50 56
0.000000 0.000000 0.607244 -0.411698 0.649810 0.638946 51 50 56
0.000000 0.172500 0.431811 -0.411698 0.649810 0.638946 51 50 56
-0.233471 0.127778 0.326859 -0.411698 0.649810 0.638946 51 50 56
0.000000 0.000000 0.607244 -0.296461 -0.713119 0.635274 51 50 56
-0.325309 0.000000 0.455433 -0.296461 -0.713119 0.635274 51 50 56
-0.248469 -0.127778 0.347856 -0.296461 -0.713119 0.635274 51 50 56
0.000000 0.000000 0.607244 0.469103 -0.526762 0.708847 51 50 56
0.000000 -0.172500 0.479055 0.469103 -0.526762 0.708847 51 50 56
0.248469 -0.127778 0.347856 0.469103 -0.526762 0.708847 51 50 56
-0.433746 0.000000 0.000000 -0.711558 0.681896 0.169419 51 50 56
-0.325309 0.000000 0.455433 -0.711558 0.681896 0.169419 51 50 56
-0.233471 0.127778 0.326859 -0.711558 0.681896 0.169419 51 50 56
-0.433746 0.000000 0.000000 -0.781877 0.567979 -0.257038 51 50 56
-0.308436 0.172500 0.000000 -0.781877 0.567979 -0.257038 51 50 56
-0.233471 0.127778 -0.326859 -0.781877 0.567979 -0.257038 51 50 56
-0.433746 0.000000 0.000000 -0.767057 -0.615036 -0.182633 51 50 56
-0.325309 0.000000 -0.455433 -0.767057 -0.615036 -0.182633 51 50 56
-0.248469 -0.127778 -0.347856 -0.767057 -0.615036 -0.182633 51 50 56
-0.433746 0.000000 0.000000 -0.846438 -0.449292 0.285795 51 50 56
-0.342182 -0.172500 0.000000 -0.846438 -0.449292 0.285795 51 50 56
-0.248469 -0.127778 0.347856 -0.846438 -0.449292 0.285795 51 50 56
0.000000 0.000000 -0.607244 -0.268635 0.772312 -0.575647 51 50 56
-0.325309 0.000000 -0.455433 -0.268635 0.772312 -0.575647 51 50 56
-0.233471 0.127778 -0.326859 -0.268635 0.772312 -0.575647 51 50 56
0.000000 0.000000 -0.607244 0.411698 0.649810 -0.638946 51 50 56
0.000000 0.172500 -0.431811 0.411698 0.649810 -0.638946 51 50 56
0.233471 0.127778 -0.326859 0.411698 0.649810 -0.638946 51 50 56
0.000000 0.000000 -0.607244 0.296461 -0.713119 -0.635274 51 50 56
0.325309 0.000000 -0.455433 0.296461 -0.713119 -0.635274 51 50 56
0.248469 -0.127778 -0.347856 0.296461 -0.713119 -0.635274 51 50 56
0.000000 0.000000 -0.607244 -0.469103 -0.526762 -0.708847 51 50 56
0.000000 -0.172500 -0.479055 -0.469103 -0.526762 -0.708847 51 50 56
-0.248469 -0.127778 -0.347856 -0.469103 -0.526762 -0.708847 51 50 56
0.000000 -0.230000 0.000000 0.234875 -0.965098 -0.115839 51 50 56
0.000000 -0.172500 -0.479055 0.234875 -0.965098 -0.115839 51 50 56
0.248469 -0.127778 -0.347856 0.234875 -0.965098 -0.115839 51 50 56
0.000000 -0.230000 0.000000 0.163333 -0.971994 0.168967 51 50 56
0.342182 -0.172500 0.000000 0.163333 -0.971994 0.168967 51 50 56
0.248469 -0.127778 0.347856 0.163333 -0.971994 0.168967 51 50 56
0.000000 -0.230000 0.000000 -0.234875 -0.965098 0.115839 51 50 56
0.000000 -0.172500 0.479055 -0.234875 -0.965098 0.115839 51 50 56
-0.248469 -0.127778 0.347856 -0.234875 -0.965098 0.115839 51 50 56
0.000000 -0.230000 0.000000 -0.163333 -0.971994 -0.168967 51 50 56
-0.342182 -0.172500 0.000000 -0.163333 -0.971994 -0.168967 51 50 56
-0.248469 -0.127778 -0.347856 -0.163333 -0.971994 -0.168967 51 50 56
0.000000 0.230000 0.000000 -0.241817 0.961832 -0.128078 51 50 56
0.000000 0.172500 -0.431811 -0.241817 0.961832 -0.128078 51 50 56
-0.233471 0.127778 -0.326859 -0.241817 0.961832 -0.128078 51 50 56
0.000000 0.230000 0.000000 -0.180476 0.968093 0.173851 51 50 56
-0.308436 0.172500 0.000000 -0.180476 0.968093 0.173851 51 50 56
-0.233471 0.127778 0.326859 -0.180476 0.968093 0.173851 51 50 56
0.000000 0.230000 0.000000 0.241817 0.961832 0.128078 51 50 56
0.000000 0.172500 0.431811 0.241817 0.961832 0.128078 51 50 56
0.233471 0.127778 0.326859 0.241817 0.961832 0.128078 51 50 56
0.000000 0.230000 0.000000 0.180476 0.968093 -0.173851 51 50 56
0.308436 0.172500 0.000000 0.180476 0.968093 -0.173851 51 50 56
0.233471 0.127778 -0.326859 0.180476 0.968093 -0.173851 51 50 56
0.400000 0.119224 0.000000 0.857477 0.472284 -0.204161 114 74 42
0.300000 0.119224 -0.420000 0.857477 0.472284 -0.204161 114 74 42
0.222222 0.307508 -0.311111 0.857477 0.472284 -0.204161 114 74 42
0.400000 0.119224 0.000000 0.888797 0.349667 0.296266 114 74 42
0.300000 0.373408 0.000000 0.888797 0.349667 0.296266 114 74 42
0.222222 0.307508 0.311111 0.888797 0.349667 0.296266 114 74 42
0.400000 0.119224 0.000000 0.857477 -0.472284 0.204161 114 74 42
0.300000 0.119224 0.420000 0.857477 -0.472284 0.204161 114 74 42
0.222222 -0.069060 0.311111 0.857477 -0.472284 0.204161 114 74 42
0.400000 0.119224 0.000000 0.888797 -0.349667 -0.296266 114 74 42
0.300000 -0.134959 0.000000 0.888797 -0.349667 -0.296266 114 74 42
0.222222 -0.069060 -0.311111 0.888797 -0.349667 -0.296266 114 74 42
-0.000000 0.119224 0.560000 0.346644 0.572777 0.742809 114 74 42
0.300000 0.119224 0.420000 0.346644 0.572777 0.742809 114 74 42
0.222222 0.307508 0.311111 0.346644 0.572777 0.742809 114 74 42
-0.000000 0.119224 0.560000 -0.496690 0.418728 0.760241 114 74 42
-0.000000 0.373408 0.420000 -0.496690 0.418728 0.760241 114 74 42
-0.222222 0.307508 0.311111 -0.496690 0.418728 0.760241 114 74 42
-0.000000 0.119224 0.560000 -0.346644 -0.572777 0.742809 114 74 42
-0.300000 0.119224 0.420000 -0.346644 -0.572777 0.742809 114 74 42
-0.222222 -0.069060 0.311111 -0.346644 -0.572777 0.742809 114 74 42
-0.000000 0.119224 0.560000 0.496690 -0.418728 0.760241 114 74 42
-0.000000 -0.134959 0.420000 0.496690 -0.418728 0.760241 114 74 42
0.222222 -0.069060 0.311111 0.496690 -0.418728 0.760241 114 74 42
-0.400000 0.119224 0.000000 -0.857477 0.472284 0.204161 114 74 42
-0.300000 0.119224 0.420000 -0.857477 0.472284 0.204161 114 74 42
-0.222222 0.307508 0.311111 -0.857477 0.472284 0.204161 114 74 42
-0.400000 0.119224 0.000000 -0.888797 0.349667 -0.296265 114 74 42
-0.300000 0.373408 0.000000 -0.888797 0.349667 -0.296265 114 74 42
-0.222222 0.307508 -0.311111 -0.888797 0.349667 -0.296265 114 74 42
-0.400000 0.119224 0.000000 -0.857477 -0.472284 -0.204161 114 74 42
-0.300000 0.119224 -0.420000 -0.857477 -0.472284 -0.204161 114 74 42
-0.222222 -0.069060 -0.311111 -0.857477 -0.472284 -0.204161 114 74 42
-0.400000 0.119224 0.000000 -0.888797 -0.349667 0.296266 114 74 42
-0.300000 -0.134959 0.000000 -0.888797 -0.349667 0.296266 114 74 42
-0.222222 -0.069060 0.311111 -0.888797 -0.349667 0.296266 114 74 42
-0.000000 0.119224 -0.560000 -0.346644 0.572777 -0.742808 114 74 42
-0.300000 0.119224 -0.420000 -0.346644 0.572777 -0.742808 114 74 42
-0.222222 0.307508 -0.311111 -0.346644 0.572777 -0.742808 114 74 42
-0.000000 0.119224 -0.560000 0.496690 0.418728 -0.760240 114 74 42
-0.000000 0.373408 -0.420000 0.496690 0.418728 -0.760240 114 74 42
0.222222 0.307508 -0.311111 0.496690 0.418728 -0.760240 114 74 42
-0.000000 0.119224 -0.560000 0.346644 -0.572777 -0.742809 114 74 42
0.300000 0.119224 -0.420000 0.346644 -0.572777 -0.742809 114 74 42
0.222222 -0.069060 -0.311111 0.346644 -0.572777 -0.742809 114 74 42
-0.000000 0.119224 -0.560000 -0.496690 -0.418728 -0.760241 114 74 42
-0.000000 -0.134959 -0.420000 -0.496690 -0.418728 -0.760241 114 74 42
-0.222222 -0.069060 -0.311111 -0.496690 -0.418728 -0.760241 114 74 42
-0.000000 -0.219687 0.000000 0.361393 -0.914001 -0.184384 114 74 42
-0.000000 -0.134959 -0.420000 0.361393 -0.914001 -0.184384 114 74 42
0.222222 -0.069060 -0.311111 0.361393 -0.914001 -0.184384 114 74 42
-0.000000 -0.219687 0.000000 0.262279 -0.928665 0.262279 114 74 42
0.300000 -0.134959 0.000000 0.262279 -0.928665 0.262279 114 74 42
0.222222 -0.069060 0.311111 0.262279 -0.928665 0.262279 114 74 42
-0.000000 -0.219687 0.000000 -0.361393 -0.914001 0.184384 114 74 42
-0.000000 -0.134959 0.420000 -0.361393 -0.914001 0.184384 114 74 42
-0.222222 -0.069060 0.311111 -0.361393 -0.914001 0.184384 114 74 42
-0.000000 -0.219687 0.000000 -0.262279 -0.928665 -0.262279 114 74 42
-0.300000 -0.134959 0.000000 -0.262279 -0.928665 -0.262279 114 74 42
-0.222222 -0.069060 -0.311111 -0.262279 -0.928665 -0.262279 114 74 42
-0.000000 0.458135 0.000000 -0.361393 0.914001 -0.184384 114 74 42
-0.000000 0.373408 -0.420000 -0.361393 0.914001 -0.184384 114 74 42
-0.222222 0.307508 -0.311111 -0.361393 0.914001 -0.184384 114 74 42
-0.000000 0.458135 0.000000 -0.262279 0.928665 0.262279 114 74 42
-0.300000 0.373408 0.000000 -0.262279 0.928665 0.262279 114 74 42
-0.222222 0.307508 0.311111 -0.262279 0.928665 0.262279 114 74 42
-0.000000 0.458135 0.000000 0.361393 0.914001 0.184384 114 74 42
-0.000000 0.373408 0.420000 0.361393 0.914001 0.184384 114 74 42
0.222222 0.307508 0.311111 0.361393 0.914001 0.184384 114 74 42
-0.000000 0.458135 0.000000 0.262279 0.928665 -0.262279 114 74 42
0.300000 0.373408 0.000000 0.262279 0.928665 -0.262279 114 74 42
0.222222 0.307508 -0.311111 0.262279 0.928665 -0.262279 114 74 42
3 0 1 2
3 3 4 5
3 6 7 8
3 9 10 11
3 12 13 14
3 15 16 17
3 18 19 20
3 21 22 23
3 24 25 26
3 27 28 29
3 30 31 32
3 33 34 35
3 36 37 38
3 39 40 41
3 42 43 44
3 45 46 47
3 48 49 50
3 51 52 53
3 54 55 56
3 57 58 59
3 60 61 62
3 63 64 65
3 66 67 68
3 69 70 71
3 72 73 74
3 75 76 77
3 78 79 80
3 81 82 83
3 84 85 86
3 87 88 89
3 90 91 92
3 93 94 95
3 96 97 98
3 99 100 101
3 102 103 104
3 105 106 107
3 108 109 110
3 111 112 113
3 114 115 116
3 117 118 119
3 120 121 122
3 123 124 125
3 126 127 128
3 129 130 131
3 132 133 134
3 135 136 137
3 138 139 140
3 141 142 143
3 144 145 146
3 147 148 149
3 150 151 152
3 153 154 155
3 156 157 158
3 159 160 161
3 162 163 164
3 165 166 167
3 168 169 170
3 171 172 173
3 174 175 176
3 177 178 179
3 180 181 182
3 183 184 185
3 186 187 188
3 189 190 191
3 192 193 194
3 195 196 197
3 198 199 200
3 201 202 203
3 204 205 206
3 207 208 209
3 210 211 212
3 213 214 215
3 216 217 218
3 219 220 221
3 222 223 224
3 225 226 227
3 228 229 230
3 231 232 233
3 234 235 236
3 237 238 239
3 240 241 242
3 243 244 245
3 246 247 248
3 249 250 251
3 252 253 254
3 255 256 257
3 258 259 260
3 261 262 263
3 264 265 266
3 267 268 269
3 270 271 272
3 273 274 275
3 276 277 278
3 279 280 281
3 282 283 284
3 285 286 287
3 288 289 290
3 291 292 293
3 294 295 296
3 297 298 299
3 300 301 302
3 303 304 305
3 306 307 308
3 309 310 311
3 312 313 314
3 315 316 317
3 318 319 320
3 321 322 323
3 324 325 326
3 327 328 329
3 330 331 332
3 333 334 335
3 336 337 338
3 339 340 341
3 342 343 344
3 345 346 347
3 348 349 350
3 351 352 353
3 354 355 356
3 357 358 359
3 360 361 362
3 363 364 365
3 366 367 368
3 369 370 371
3 372 373 374
3 375 376 377
3 378 379 380
3 381 382 383
3 384 385 386
3 387 388 389
3 390 391 392
3 393 394 395
3 396 397 398
3 399 400 401
3 402 403 404
3 405 406 407
3 408 409 410
3 411 412 413
3 414 415 416
3 417 418 419
3 420 421 422
3 423 424 425
3 426 427 428
3 429 430 431
