ply
format ascii 1.0
comment Created by Blender 2.77 (sub 0) - www.blender.org, source file: 'Mobs.blend'
element vertex 430
property float x
property float y
property float z
property float nx
property float ny
property float nz
property uchar red
property uchar green
property uchar blue
element face 152
property list uchar uint vertex_indices
end_header
0.008321 0.114079 -0.378958 -0.849137 0.517233 0.106945 234 182 158
-0.070901 -0.024987 -0.335397 -0.849137 0.517233 0.106945 234 182 158
0.001103 0.069243 -0.219426 -0.849137 0.517233 0.106945 234 182 158
0.008321 0.114079 -0.378958 0.779319 0.593184 0.201977 234 182 158
0.001103 0.069243 -0.219426 0.779319 0.593184 0.201977 234 182 158
0.094508 -0.017272 -0.325744 0.779319 0.593184 0.201977 234 182 158
0.008321 0.114079 -0.378958 -0.878409 0.450001 -0.160925 234 182 158
-0.033552 -0.004110 -0.480890 -0.878409 0.450001 -0.160925 234 182 158
-0.070901 -0.024987 -0.335397 -0.878409 0.450001 -0.160925 234 182 158
-0.070901 -0.024987 -0.335397 -0.000625 -0.775916 0.630836 234 182 158
0.094508 -0.017272 -0.325744 -0.000625 -0.775916 0.630836 234 182 158
0.001103 0.069243 -0.219426 -0.000625 -0.775916 0.630836 234 182 158
-0.011768 -0.042390 -0.540778 -0.813259 0.308804 -0.493203 234 182 158
0.033066 -0.040209 -0.613340 -0.813259 0.308804 -0.493203 234 182 158
0.010017 -0.080670 -0.600667 -0.813259 0.308804 -0.493203 234 182 158
0.094508 -0.017272 -0.325744 0.053675 -0.990280 -0.128316 234 182 158
-0.033552 -0.004110 -0.480890 0.053675 -0.990280 -0.128316 234 182 158
0.074652 0.000937 -0.474575 0.053675 -0.990280 -0.128316 234 182 158
0.008321 0.114079 -0.378958 0.802390 0.582007 -0.132057 234 182 158
0.074652 0.000937 -0.474575 0.802390 0.582007 -0.132057 234 182 158
0.018261 0.073286 -0.498349 0.802390 0.582007 -0.132057 234 182 158
0.010017 -0.080670 -0.600667 -0.866146 0.399247 -0.300654 234 182 158
0.038093 -0.087640 -0.690808 -0.866146 0.399247 -0.300654 234 182 158
0.028186 -0.105031 -0.685361 -0.866146 0.399247 -0.300654 234 182 158
0.066397 -0.038744 -0.536217 0.007693 -0.841286 0.540536 234 182 158
0.010017 -0.080670 -0.600667 0.007693 -0.841286 0.540536 234 182 158
0.058142 -0.078425 -0.597858 0.007693 -0.841286 0.540536 234 182 158
0.066397 -0.038744 -0.536217 0.807874 0.468137 -0.358032 234 182 158
0.033066 -0.040209 -0.613340 0.807874 0.468137 -0.358032 234 182 158
0.025663 0.016538 -0.555845 0.807874 0.468137 -0.358032 234 182 158
0.038093 -0.087640 -0.690808 0.070444 -0.334500 -0.939759 234 182 158
0.048872 -0.104066 -0.684154 0.070444 -0.334500 -0.939759 234 182 158
0.028186 -0.105031 -0.685361 0.070444 -0.334500 -0.939759 234 182 158
0.010017 -0.080670 -0.600667 0.028277 -0.959023 0.281915 234 182 158
0.048872 -0.104066 -0.684154 0.028277 -0.959023 0.281915 234 182 158
0.058142 -0.078425 -0.597858 0.028277 -0.959023 0.281915 234 182 158
0.058142 -0.078425 -0.597858 0.853781 0.466861 -0.230432 234 182 158
0.038093 -0.087640 -0.690808 0.853781 0.466861 -0.230432 234 182 158
0.033066 -0.040209 -0.613340 0.853781 0.466861 -0.230432 234 182 158
0.100398 -0.175652 -0.277455 -0.415798 0.320196 -0.851226 234 182 158
0.161289 -0.048430 -0.259342 -0.415798 0.320196 -0.851226 234 182 158
0.182352 -0.139383 -0.303844 -0.415798 0.320196 -0.851226 234 182 158
0.100398 -0.175652 -0.277455 -0.345329 0.101484 -0.932978 234 182 158
0.182352 -0.139383 -0.303844 -0.345329 0.101484 -0.932978 234 182 158
0.184673 -0.243511 -0.316029 -0.345329 0.101484 -0.932978 234 182 158
0.100398 -0.175652 -0.277455 -0.426530 -0.785053 0.449181 234 182 158
0.184673 -0.243511 -0.316029 -0.426530 -0.785053 0.449181 234 182 158
0.175470 -0.185082 -0.222650 -0.426530 -0.785053 0.449181 234 182 158
0.175470 -0.185082 -0.222650 0.995792 0.011553 0.090910 234 182 158
0.184673 -0.243511 -0.316029 0.995792 0.011553 0.090910 234 182 158
0.182352 -0.139383 -0.303844 0.995792 0.011553 0.090910 234 182 158
0.071857 -0.088009 -0.230546 -0.230049 0.856283 0.462446 234 182 158
0.153778 -0.098299 -0.170739 -0.230049 0.856283 0.462446 234 182 158
0.161289 -0.048430 -0.259342 -0.230049 0.856283 0.462446 234 182 158
0.175470 -0.185082 -0.222650 -0.543356 -0.526798 0.653642 234 182 158
0.071857 -0.088009 -0.230546 -0.543356 -0.526798 0.653642 234 182 158
0.100398 -0.175652 -0.277455 -0.543356 -0.526798 0.653642 234 182 158
0.175470 -0.185082 -0.222650 0.975590 0.145425 0.164545 234 182 158
0.161289 -0.048430 -0.259342 0.975590 0.145425 0.164545 234 182 158
0.153778 -0.098299 -0.170739 0.975590 0.145425 0.164545 234 182 158
-0.213754 -0.132656 -0.280768 0.047263 0.533746 -0.844323 234 182 158
-0.073757 -0.115870 -0.262320 0.047263 0.533746 -0.844323 234 182 158
-0.139101 -0.181929 -0.307738 0.047263 0.533746 -0.844323 234 182 158
-0.213754 -0.132656 -0.280768 -0.099237 0.357854 -0.928489 234 182 158
-0.139101 -0.181929 -0.307738 -0.099237 0.357854 -0.928489 234 182 158
-0.225655 -0.239684 -0.320747 -0.099237 0.357854 -0.928489 234 182 158
-0.213754 -0.132656 -0.280768 -0.891644 -0.068045 0.447594 234 182 158
-0.225655 -0.239684 -0.320747 -0.891644 -0.068045 0.447594 234 182 158
-0.181405 -0.201739 -0.226829 -0.891644 -0.068045 0.447594 234 182 158
-0.181405 -0.201739 -0.226829 0.544844 -0.834662 0.080523 234 182 158
-0.225655 -0.239684 -0.320747 0.544844 -0.834662 0.080523 234 182 158
-0.139101 -0.181929 -0.307738 0.544844 -0.834662 0.080523 234 182 158
-0.155222 -0.062101 -0.232889 0.598086 0.648129 0.471405 234 182 158
-0.119922 -0.137487 -0.174028 0.598086 0.648129 0.471405 234 182 158
-0.073757 -0.115870 -0.262320 0.598086 0.648129 0.471405 234 182 158
-0.181405 -0.201739 -0.226829 -0.736813 0.166593 0.655251 234 182 158
-0.155222 -0.062101 -0.232889 -0.736813 0.166593 0.655251 234 182 158
-0.213754 -0.132656 -0.280768 -0.736813 0.166593 0.655251 234 182 158
-0.181405 -0.201739 -0.226829 0.646820 -0.746644 0.155393 234 182 158
-0.073757 -0.115870 -0.262320 0.646820 -0.746644 0.155393 234 182 158
-0.119922 -0.137487 -0.174028 0.646820 -0.746644 0.155393 234 182 158
0.180899 -0.140256 0.184455 -0.037706 0.524014 0.850875 234 182 158
0.043419 -0.123596 0.168102 -0.037706 0.524014 0.850875 234 182 158
0.107991 -0.188880 0.211169 -0.037706 0.524014 0.850875 234 182 158
0.180899 -0.140256 0.184455 0.109722 0.347177 0.931359 234 182 158
0.107991 -0.188880 0.211169 0.109722 0.347177 0.931359 234 182 158
0.193004 -0.245654 0.222317 0.109722 0.347177 0.931359 234 182 158
0.180899 -0.140256 0.184455 0.886537 -0.062844 -0.458370 234 182 158
0.193004 -0.245654 0.222317 0.886537 -0.062844 -0.458370 234 182 158
0.148578 -0.207391 0.131146 0.886537 -0.062844 -0.458370 234 182 158
0.148578 -0.207391 0.131146 -0.545771 -0.833718 -0.083952 234 182 158
0.193004 -0.245654 0.222317 -0.545771 -0.833718 -0.083952 234 182 158
0.107991 -0.188880 0.211169 -0.545771 -0.833718 -0.083952 234 182 158
0.122980 -0.070535 0.138950 -0.603321 0.653460 -0.457159 234 182 158
0.087709 -0.143796 0.080778 -0.603321 0.653460 -0.457159 234 182 158
0.043419 -0.123596 0.168102 -0.603321 0.653460 -0.457159 234 182 158
0.148578 -0.207391 0.131146 0.729389 0.174152 -0.661560 234 182 158
0.122980 -0.070535 0.138950 0.729389 0.174152 -0.661560 234 182 158
0.180899 -0.140256 0.184455 0.729389 0.174152 -0.661560 234 182 158
0.148578 -0.207391 0.131146 -0.648579 -0.744853 -0.156652 234 182 158
0.043419 -0.123596 0.168102 -0.648579 -0.744853 -0.156652 234 182 158
0.087709 -0.143796 0.080778 -0.648579 -0.744853 -0.156652 234 182 158
-0.060767 -0.182398 0.183975 0.425390 0.310429 0.850104 234 182 158
-0.120667 -0.057447 0.168321 0.425390 0.310429 0.850104 234 182 158
-0.140835 -0.147135 0.211164 0.425390 0.310429 0.850104 234 182 158
-0.060767 -0.182398 0.183975 0.355833 0.090789 0.930129 234 182 158
-0.140835 -0.147135 0.211164 0.355833 0.090789 0.930129 234 182 158
-0.142983 -0.249378 0.221966 0.355833 0.090789 0.930129 234 182 158
-0.060767 -0.182398 0.183975 0.421388 -0.779817 -0.462944 234 182 158
-0.142983 -0.249378 0.221966 0.421388 -0.779817 -0.462944 234 182 158
-0.134987 -0.191032 0.130962 0.421388 -0.779817 -0.462944 234 182 158
-0.134987 -0.191032 0.130962 -0.996753 0.012532 -0.079538 234 182 158
-0.142983 -0.249378 0.221966 -0.996753 0.012532 -0.079538 234 182 158
-0.140835 -0.147135 0.211164 -0.996753 0.012532 -0.079538 234 182 158
-0.033293 -0.095927 0.138651 0.224875 0.861551 -0.455149 234 182 158
-0.114286 -0.105349 0.080800 0.224875 0.861551 -0.455149 234 182 158
-0.120667 -0.057447 0.168321 0.224875 0.861551 -0.455149 234 182 158
-0.134987 -0.191032 0.130962 0.535918 -0.519224 -0.665731 234 182 158
-0.033293 -0.095927 0.138651 0.535918 -0.519224 -0.665731 234 182 158
-0.060767 -0.182398 0.183975 0.535918 -0.519224 -0.665731 234 182 158
-0.134987 -0.191032 0.130962 -0.977374 0.147241 -0.151854 234 182 158
-0.120667 -0.057447 0.168321 -0.977374 0.147241 -0.151854 234 182 158
-0.114286 -0.105349 0.080800 -0.977374 0.147241 -0.151854 234 182 158
-0.010957 0.004613 0.352868 0.348017 0.459606 0.817096 51 51 51
0.109423 0.111576 0.241430 0.348017 0.459606 0.817096 51 51 51
-0.010886 0.130714 0.281907 0.348017 0.459606 0.817096 51 51 51
-0.010957 0.004613 0.352868 -0.439082 0.364225 0.821308 51 51 51
-0.131116 0.111577 0.241193 -0.439082 0.364225 0.821308 51 51 51
-0.157430 0.005063 0.274361 -0.439082 0.364225 0.821308 51 51 51
-0.010957 0.004613 0.352868 -0.349617 -0.468955 0.811079 51 51 51
-0.131116 -0.101063 0.239972 -0.349617 -0.468955 0.811079 51 51 51
-0.010886 -0.120665 0.280464 -0.349617 -0.468955 0.811079 51 51 51
-0.010957 0.004613 0.352868 0.396858 -0.541905 0.740840 51 51 51
0.132686 -0.126257 0.180192 0.396858 -0.541905 0.740840 51 51 51
0.135671 0.005062 0.274650 0.396858 -0.541905 0.740840 51 51 51
-0.009860 0.011914 -0.394814 0.380049 0.366061 -0.849448 51 51 51
-0.003427 0.188731 -0.315739 0.380049 0.366061 -0.849448 51 51 51
0.187144 0.011296 -0.306939 0.380049 0.366061 -0.849448 51 51 51
0.189714 0.006392 0.042892 0.929496 0.297178 0.218454 51 51 51
0.109423 0.111576 0.241430 0.929496 0.297178 0.218454 51 51 51
0.135671 0.005062 0.274650 0.929496 0.297178 0.218454 51 51 51
0.132686 -0.126257 0.180192 0.957894 -0.181688 0.222326 51 51 51
0.189714 0.006392 0.042892 0.957894 -0.181688 0.222326 51 51 51
0.135671 0.005062 0.274650 0.957894 -0.181688 0.222326 51 51 51
0.109423 0.111576 0.241430 0.231435 0.942160 0.242432 51 51 51
-0.010649 0.192496 0.041577 0.231435 0.942160 0.242432 51 51 51
-0.010886 0.130714 0.281907 0.231435 0.942160 0.242432 51 51 51
-0.010649 0.192496 0.041577 -0.231902 0.942162 0.241975 51 51 51
-0.131116 0.111577 0.241193 -0.231902 0.942162 0.241975 51 51 51
-0.010886 0.130714 0.281907 -0.231902 0.942162 0.241975 51 51 51
-0.010649 0.192496 0.041577 0.213914 0.976834 -0.005970 51 51 51
0.147934 0.156296 -0.199220 0.213914 0.976834 -0.005970 51 51 51
-0.003427 0.188731 -0.315739 0.213914 0.976834 -0.005970 51 51 51
-0.131116 -0.101063 0.239972 -0.231901 -0.944878 0.231143 51 51 51
-0.010649 -0.179685 0.039440 -0.231901 -0.944878 0.231143 51 51 51
-0.010886 -0.120665 0.280464 -0.231901 -0.944878 0.231143 51 51 51
-0.010649 -0.179685 0.039440 0.127319 -0.963370 0.236024 51 51 51
0.132686 -0.126257 0.180192 0.127319 -0.963370 0.236024 51 51 51
-0.010886 -0.120665 0.280464 0.127319 -0.963370 0.236024 51 51 51
-0.010649 -0.179685 0.039440 -0.213867 -0.976704 -0.017609 51 51 51
-0.168769 -0.140716 -0.201572 -0.213867 -0.976704 -0.017609 51 51 51
-0.017257 -0.171805 -0.317384 -0.213867 -0.976704 -0.017609 51 51 51
0.189714 0.006392 0.042892 0.913907 -0.405734 -0.012400 51 51 51
0.132686 -0.126257 0.180192 0.913907 -0.405734 -0.012400 51 51 51
0.187144 0.011296 -0.306939 0.913907 -0.405734 -0.012400 51 51 51
-0.131116 0.111577 0.241193 -0.929921 0.297189 0.216624 51 51 51
-0.211017 0.006394 0.042498 -0.929921 0.297189 0.216624 51 51 51
-0.157430 0.005063 0.274361 -0.929921 0.297189 0.216624 51 51 51
-0.211017 0.006394 0.042498 -0.929921 -0.299655 0.213197 51 51 51
-0.131116 -0.101063 0.239972 -0.929921 -0.299655 0.213197 51 51 51
-0.157430 0.005063 0.274361 -0.929921 -0.299655 0.213197 51 51 51
-0.211017 0.006394 0.042498 -0.944492 0.328397 -0.009524 51 51 51
-0.161899 0.147139 0.024495 -0.944492 0.328397 -0.009524 51 51 51
-0.207767 0.005604 -0.307089 -0.944492 0.328397 -0.009524 51 51 51
-0.186022 0.064858 0.324375 -0.914471 0.349959 0.203152 51 51 51
-0.117896 0.102705 0.565841 -0.914471 0.349959 0.203152 51 51 51
-0.135498 0.187058 0.341299 -0.914471 0.349959 0.203152 51 51 51
-0.186022 0.064858 0.324375 -0.871635 -0.382954 0.305940 51 51 51
-0.055452 -0.040466 0.564536 -0.871635 -0.382954 0.305940 51 51 51
-0.117896 0.102705 0.565841 -0.871635 -0.382954 0.305940 51 51 51
-0.013524 0.065817 0.157323 -0.375146 0.640056 -0.670518 51 51 51
-0.135498 0.187058 0.341299 -0.375146 0.640056 -0.670518 51 51 51
-0.013625 0.173812 0.260468 -0.375146 0.640056 -0.670518 51 51 51
-0.013524 0.065817 0.157323 0.651050 0.361252 -0.667556 51 51 51
0.108089 0.187057 0.341538 0.651050 0.361252 -0.667556 51 51 51
0.158645 0.064856 0.324715 0.651050 0.361252 -0.667556 51 51 51
-0.013524 0.065817 0.157323 0.376472 -0.632320 -0.677082 51 51 51
0.108089 -0.057529 0.340134 0.376472 -0.632320 -0.677082 51 51 51
-0.013685 -0.107816 0.319388 0.376472 -0.632320 -0.677082 51 51 51
-0.013524 0.065817 0.157323 -0.649731 -0.353556 -0.672940 51 51 51
-0.135498 -0.057528 0.339894 -0.649731 -0.353556 -0.672940 51 51 51
-0.186022 0.064858 0.324375 -0.649731 -0.353556 -0.672940 51 51 51
0.158645 0.064856 0.324715 0.871027 0.379406 0.312032 51 51 51
0.027602 0.167418 0.565811 0.871027 0.379406 0.312032 51 51 51
0.090045 0.024241 0.565595 0.871027 0.379406 0.312032 51 51 51
0.158645 0.064856 0.324715 0.914074 -0.352279 0.200920 51 51 51
0.090045 0.024241 0.565595 0.914074 -0.352279 0.200920 51 51 51
0.108089 -0.057529 0.340134 0.914074 -0.352279 0.200920 51 51 51
-0.013685 -0.107816 0.319388 0.385149 -0.871024 0.304923 51 51 51
0.090045 0.024241 0.565595 0.385149 -0.871024 0.304923 51 51 51
-0.055452 -0.040466 0.564536 0.385149 -0.871024 0.304923 51 51 51
-0.013685 -0.107816 0.319388 -0.346448 -0.917964 0.193170 51 51 51
-0.055452 -0.040466 0.564536 -0.346448 -0.917964 0.193170 51 51 51
-0.135498 -0.057528 0.339894 -0.346448 -0.917964 0.193170 51 51 51
-0.013684 0.198209 0.321145 -0.399677 0.898700 0.180545 51 51 51
-0.117896 0.102705 0.565841 -0.399677 0.898700 0.180545 51 51 51
0.027602 0.167418 0.565811 -0.399677 0.898700 0.180545 51 51 51
-0.013684 0.198209 0.321145 -0.165669 -0.005662 0.986165 51 51 51
0.108089 0.187057 0.341538 -0.165669 -0.005662 0.986165 51 51 51
0.041289 0.214771 0.330476 -0.165669 -0.005662 0.986165 51 51 51
-0.009860 0.011914 -0.394814 -0.370613 -0.348007 -0.861126 51 51 51
-0.017257 -0.171805 -0.317384 -0.370613 -0.348007 -0.861126 51 51 51
-0.207767 0.005604 -0.307089 -0.370613 -0.348007 -0.861126 51 51 51
-0.010957 0.004613 0.352868 0.437468 0.364221 0.822171 51 51 51
0.135671 0.005062 0.274650 0.437468 0.364221 0.822171 51 51 51
0.109423 0.111576 0.241430 0.437468 0.364221 0.822171 51 51 51
-0.010957 0.004613 0.352868 -0.349619 0.459610 0.816410 51 51 51
-0.010886 0.130714 0.281907 -0.349619 0.459610 0.816410 51 51 51
-0.131116 0.111577 0.241193 -0.349619 0.459610 0.816410 51 51 51
-0.010957 0.004613 0.352868 -0.439082 -0.373630 0.817072 51 51 51
-0.157430 0.005063 0.274361 -0.439082 -0.373630 0.817072 51 51 51
-0.131116 -0.101063 0.239972 -0.439082 -0.373630 0.817072 51 51 51
-0.010957 0.004613 0.352868 0.505138 -0.431639 0.747345 51 51 51
-0.010886 -0.120665 0.280464 0.505138 -0.431639 0.747345 51 51 51
0.132686 -0.126257 0.180192 0.505138 -0.431639 0.747345 51 51 51
-0.207767 0.005604 -0.307089 -0.937099 0.348537 -0.019143 51 51 51
-0.161899 0.147139 0.024495 -0.937099 0.348537 -0.019143 51 51 51
-0.156189 0.143954 -0.313006 -0.937099 0.348537 -0.019143 51 51 51
-0.207767 0.005604 -0.307089 -0.567852 -0.575639 -0.588374 51 51 51
-0.017257 -0.171805 -0.317384 -0.567852 -0.575639 -0.588374 51 51 51
-0.168769 -0.140716 -0.201572 -0.567852 -0.575639 -0.588374 51 51 51
-0.009860 0.011914 -0.394814 -0.135904 0.408577 -0.902549 51 51 51
-0.156189 0.143954 -0.313006 -0.135904 0.408577 -0.902549 51 51 51
-0.003427 0.188731 -0.315739 -0.135904 0.408577 -0.902549 51 51 51
0.187144 0.011296 -0.306939 0.404786 -0.106198 -0.908224 51 51 51
0.135794 -0.126815 -0.313676 0.404786 -0.106198 -0.908224 51 51 51
-0.009860 0.011914 -0.394814 0.404786 -0.106198 -0.908224 51 51 51
0.189714 0.006392 0.042892 0.886895 0.445376 0.122711 51 51 51
0.147934 0.156296 -0.199220 0.886895 0.445376 0.122711 51 51 51
0.109423 0.111576 0.241430 0.886895 0.445376 0.122711 51 51 51
0.135794 -0.126815 -0.313676 0.281952 -0.959424 0.002858 51 51 51
0.132686 -0.126257 0.180192 0.281952 -0.959424 0.002858 51 51 51
-0.017257 -0.171805 -0.317384 0.281952 -0.959424 0.002858 51 51 51
0.109423 0.111576 0.241430 0.400138 0.907601 0.127081 51 51 51
0.147934 0.156296 -0.199220 0.400138 0.907601 0.127081 51 51 51
-0.010649 0.192496 0.041577 0.400138 0.907601 0.127081 51 51 51
-0.010649 0.192496 0.041577 -0.301917 0.932969 0.195996 51 51 51
-0.161899 0.147139 0.024495 -0.301917 0.932969 0.195996 51 51 51
-0.131116 0.111577 0.241193 -0.301917 0.932969 0.195996 51 51 51
-0.156189 0.143954 -0.313006 -0.281482 0.959467 -0.013817 51 51 51
-0.161899 0.147139 0.024495 -0.281482 0.959467 -0.013817 51 51 51
-0.003427 0.188731 -0.315739 -0.281482 0.959467 -0.013817 51 51 51
-0.010649 0.192496 0.041577 -0.285563 0.958229 -0.015870 51 51 51
-0.003427 0.188731 -0.315739 -0.285563 0.958229 -0.015870 51 51 51
-0.161899 0.147139 0.024495 -0.285563 0.958229 -0.015870 51 51 51
-0.131116 -0.101063 0.239972 -0.400489 -0.908957 0.115782 51 51 51
-0.168769 -0.140716 -0.201572 -0.400489 -0.908957 0.115782 51 51 51
-0.010649 -0.179685 0.039440 -0.400489 -0.908957 0.115782 51 51 51
-0.010649 -0.179685 0.039440 0.372637 -0.927573 -0.027385 51 51 51
-0.017257 -0.171805 -0.317384 0.372637 -0.927573 -0.027385 51 51 51
0.132686 -0.126257 0.180192 0.372637 -0.927573 -0.027385 51 51 51
0.187144 0.011296 -0.306939 0.570137 0.583676 -0.578157 51 51 51
-0.003427 0.188731 -0.315739 0.570137 0.583676 -0.578157 51 51 51
0.147934 0.156296 -0.199220 0.570137 0.583676 -0.578157 51 51 51
0.187144 0.011296 -0.306939 0.937192 -0.348758 0.006292 51 51 51
0.132686 -0.126257 0.180192 0.937192 -0.348758 0.006292 51 51 51
0.135794 -0.126815 -0.313676 0.937192 -0.348758 0.006292 51 51 51
0.189714 0.006392 0.042892 0.964685 0.263384 -0.003393 51 51 51
0.187144 0.011296 -0.306939 0.964685 0.263384 -0.003393 51 51 51
0.147934 0.156296 -0.199220 0.964685 0.263384 -0.003393 51 51 51
-0.131116 0.111577 0.241193 -0.919757 0.344936 0.187261 51 51 51
-0.161899 0.147139 0.024495 -0.919757 0.344936 0.187261 51 51 51
-0.211017 0.006394 0.042498 -0.919757 0.344936 0.187261 51 51 51
-0.211017 0.006394 0.042498 -0.887091 -0.446840 0.115776 51 51 51
-0.168769 -0.140716 -0.201572 -0.887091 -0.446840 0.115776 51 51 51
-0.131116 -0.101063 0.239972 -0.887091 -0.446840 0.115776 51 51 51
-0.211017 0.006394 0.042498 -0.964717 -0.263154 -0.008375 51 51 51
-0.207767 0.005604 -0.307089 -0.964717 -0.263154 -0.008375 51 51 51
-0.168769 -0.140716 -0.201572 -0.964717 -0.263154 -0.008375 51 51 51
-0.013984 0.063133 0.625017 0.547217 0.237444 0.802604 51 51 51
0.090045 0.024241 0.565595 0.547217 0.237444 0.802604 51 51 51
0.027602 0.167418 0.565811 0.547217 0.237444 0.802604 51 51 51
-0.013984 0.063133 0.625017 -0.244757 0.550667 0.798035 51 51 51
0.027602 0.167418 0.565811 -0.244757 0.550667 0.798035 51 51 51
-0.117896 0.102705 0.565841 -0.244757 0.550667 0.798035 51 51 51
-0.013984 0.063133 0.625017 -0.548795 -0.246639 0.798745 51 51 51
-0.117896 0.102705 0.565841 -0.548795 -0.246639 0.798745 51 51 51
-0.055452 -0.040466 0.564536 -0.548795 -0.246639 0.798745 51 51 51
-0.013984 0.063133 0.625017 0.243190 -0.559798 0.792139 51 51 51
-0.055452 -0.040466 0.564536 0.243190 -0.559798 0.792139 51 51 51
0.090045 0.024241 0.565595 0.243190 -0.559798 0.792139 51 51 51
-0.186022 0.064858 0.324375 -0.883871 -0.321849 0.339391 51 51 51
-0.135498 -0.057528 0.339894 -0.883871 -0.321849 0.339391 51 51 51
-0.055452 -0.040466 0.564536 -0.883871 -0.321849 0.339391 51 51 51
-0.013524 0.065817 0.157323 -0.649731 0.361260 -0.668836 51 51 51
-0.186022 0.064858 0.324375 -0.649731 0.361260 -0.668836 51 51 51
-0.135498 0.187058 0.341299 -0.649731 0.361260 -0.668836 51 51 51
-0.013524 0.065817 0.157323 0.376472 0.640052 -0.669778 51 51 51
-0.013625 0.173812 0.260468 0.376472 0.640052 -0.669778 51 51 51
0.108089 0.187057 0.341538 0.376472 0.640052 -0.669778 51 51 51
-0.013524 0.065817 0.157323 0.651049 -0.353564 -0.671660 51 51 51
0.158645 0.064856 0.324715 0.651049 -0.353564 -0.671660 51 51 51
0.108089 -0.057529 0.340134 0.651049 -0.353564 -0.671660 51 51 51
-0.013524 0.065817 0.157323 -0.375146 -0.632315 -0.677822 51 51 51
-0.013685 -0.107816 0.319388 -0.375146 -0.632315 -0.677822 51 51 51
-0.135498 -0.057528 0.339894 -0.375146 -0.632315 -0.677822 51 51 51
0.158645 0.064856 0.324715 0.883197 0.317921 0.344802 51 51 51
0.108089 0.187057 0.341538 0.883197 0.317921 0.344802 51 51 51
0.027602 0.167418 0.565811 0.883197 0.317921 0.344802 51 51 51
-0.013685 -0.107816 0.319388 0.307127 -0.886504 0.346097 51 51 51
0.108089 -0.057529 0.340134 0.307127 -0.886504 0.346097 51 51 51
0.090045 0.024241 0.565595 0.307127 -0.886504 0.346097 51 51 51
-0.013684 0.198209 0.321145 -0.027127 0.935077 0.353406 51 51 51
-0.135498 0.187058 0.341299 -0.027127 0.935077 0.353406 51 51 51
-0.117896 0.102705 0.565841 -0.027127 0.935077 0.353406 51 51 51
-0.009860 0.011914 -0.394814 0.136533 -0.389403 -0.910892 51 51 51
0.135794 -0.126815 -0.313676 0.136533 -0.389403 -0.910892 51 51 51
-0.017257 -0.171805 -0.317384 0.136533 -0.389403 -0.910892 51 51 51
-0.207767 0.005604 -0.307089 -0.405662 0.112435 -0.907081 51 51 51
-0.156189 0.143954 -0.313006 -0.405662 0.112435 -0.907081 51 51 51
-0.009860 0.011914 -0.394814 -0.405662 0.112435 -0.907081 51 51 51
0.108089 0.187057 0.341538 0.549339 -0.204918 -0.810083 51 51 51
0.044008 0.194783 0.296129 0.549339 -0.204918 -0.810083 51 51 51
0.104456 0.283295 0.314731 0.549339 -0.204918 -0.810083 51 51 51
-0.144381 0.286729 0.310148 -0.480446 -0.239033 -0.843822 51 51 51
-0.144241 0.290099 0.309113 -0.480446 -0.239033 -0.843822 51 51 51
-0.070180 0.212452 0.288941 -0.480446 -0.239033 -0.843822 51 51 51
-0.013684 0.198209 0.321145 -0.106109 0.922536 -0.371035 51 51 51
0.044008 0.194783 0.296129 -0.106109 0.922536 -0.371035 51 51 51
-0.013625 0.173812 0.260468 -0.106109 0.922536 -0.371035 51 51 51
0.044008 0.194783 0.296129 -0.719787 0.573720 -0.390836 51 51 51
0.041289 0.214771 0.330476 -0.719787 0.573720 -0.390836 51 51 51
0.104456 0.283295 0.314731 -0.719787 0.573720 -0.390836 51 51 51
-0.144241 0.290099 0.309113 -0.375286 0.639890 -0.670598 51 51 51
-0.144608 0.290139 0.309357 -0.375286 0.639890 -0.670598 51 51 51
-0.144241 0.290291 0.309297 -0.375286 0.639890 -0.670598 51 51 51
-0.135498 0.187058 0.341299 0.031225 0.300695 0.953209 234 182 158
-0.074631 0.212302 0.331341 0.031225 0.300695 0.953209 234 182 158
-0.144381 0.286729 0.310148 0.031225 0.300695 0.953209 234 182 158
-0.144241 0.290099 0.309113 0.731543 0.677180 0.079204 51 51 51
-0.074631 0.212302 0.331341 0.731543 0.677180 0.079204 51 51 51
-0.070180 0.212452 0.288941 0.731543 0.677180 0.079204 51 51 51
-0.070180 0.212452 0.288941 0.407623 0.847369 -0.340308 51 51 51
-0.013684 0.198209 0.321145 0.407623 0.847369 -0.340308 51 51 51
-0.013625 0.173812 0.260468 0.407623 0.847369 -0.340308 51 51 51
0.104456 0.283295 0.314731 -0.048939 0.266303 0.962646 234 182 158
0.041289 0.214771 0.330476 -0.048939 0.266303 0.962646 234 182 158
0.108089 0.187057 0.341538 -0.048939 0.266303 0.962646 234 182 158
0.074652 0.000937 -0.474575 0.785931 0.487663 -0.380129 234 182 158
0.025663 0.016538 -0.555845 0.785931 0.487663 -0.380129 234 182 158
0.018261 0.073286 -0.498349 0.785931 0.487663 -0.380129 234 182 158
0.074652 0.000937 -0.474575 0.007694 -0.841286 0.540536 234 182 158
-0.011768 -0.042390 -0.540778 0.007694 -0.841286 0.540536 234 182 158
0.066397 -0.038744 -0.536217 0.007694 -0.841286 0.540536 234 182 158
-0.033552 -0.004110 -0.480890 -0.777336 0.362265 -0.514308 234 182 158
0.025663 0.016538 -0.555845 -0.777336 0.362265 -0.514308 234 182 158
-0.011768 -0.042390 -0.540778 -0.777336 0.362265 -0.514308 234 182 158
0.008321 0.114079 -0.378958 -0.830784 0.501884 -0.240647 234 182 158
0.018261 0.073286 -0.498349 -0.830784 0.501884 -0.240647 234 182 158
-0.033552 -0.004110 -0.480890 -0.830784 0.501884 -0.240647 234 182 158
-0.011768 -0.042390 -0.540778 -0.791711 0.380750 -0.477727 234 182 158
0.025663 0.016538 -0.555845 -0.791711 0.380750 -0.477727 234 182 158
0.033066 -0.040209 -0.613340 -0.791711 0.380750 -0.477727 234 182 158
-0.070901 -0.024987 -0.335397 0.053675 -0.990280 -0.128316 234 182 158
0.008321 0.114079 -0.378958 0.843812 0.534561 -0.047180 234 182 158
0.094508 -0.017272 -0.325744 0.843812 0.534561 -0.047180 234 182 158
0.074652 0.000937 -0.474575 0.843812 0.534561 -0.047180 234 182 158
0.033066 -0.040209 -0.613340 -0.866146 0.399247 -0.300654 234 182 158
0.010017 -0.080670 -0.600667 0.007694 -0.841286 0.540536 234 182 158
0.066397 -0.038744 -0.536217 0.838413 0.400259 -0.369940 234 182 158
0.058142 -0.078425 -0.597858 0.838413 0.400259 -0.369940 234 182 158
0.033066 -0.040209 -0.613340 0.838413 0.400259 -0.369940 234 182 158
0.010017 -0.080670 -0.600667 0.028275 -0.959023 0.281914 234 182 158
0.028186 -0.105031 -0.685361 0.028275 -0.959023 0.281914 234 182 158
0.048872 -0.104066 -0.684154 0.028275 -0.959023 0.281914 234 182 158
0.058142 -0.078425 -0.597858 0.853780 0.466862 -0.230432 234 182 158
0.048872 -0.104066 -0.684154 0.853780 0.466862 -0.230432 234 182 158
0.038093 -0.087640 -0.690808 0.853780 0.466862 -0.230432 234 182 158
0.071857 -0.088009 -0.230546 -0.415798 0.320196 -0.851226 234 182 158
0.153778 -0.098299 -0.170739 -0.543356 -0.526798 0.653642 234 182 158
0.182352 -0.139383 -0.303844 0.975590 0.145425 0.164545 234 182 158
-0.155222 -0.062101 -0.232889 0.047263 0.533746 -0.844323 234 182 158
-0.119922 -0.137487 -0.174028 -0.736813 0.166593 0.655251 234 182 158
-0.139101 -0.181929 -0.307738 0.646820 -0.746644 0.155393 234 182 158
0.122980 -0.070535 0.138950 -0.037706 0.524014 0.850875 234 182 158
0.087709 -0.143796 0.080778 0.729389 0.174152 -0.661560 234 182 158
0.107991 -0.188880 0.211169 -0.648579 -0.744853 -0.156652 234 182 158
-0.033293 -0.095927 0.138651 0.425390 0.310429 0.850104 234 182 158
-0.134987 -0.191032 0.130962 0.535918 -0.519224 -0.665732 234 182 158
-0.114286 -0.105349 0.080800 0.535918 -0.519224 -0.665732 234 182 158
-0.033293 -0.095927 0.138651 0.535918 -0.519224 -0.665732 234 182 158
-0.134987 -0.191032 0.130962 -0.977374 0.147241 -0.151855 234 182 158
-0.140835 -0.147135 0.211164 -0.977374 0.147241 -0.151855 234 182 158
-0.120667 -0.057447 0.168321 -0.977374 0.147241 -0.151855 234 182 158
-0.013684 0.198209 0.321145 0.071905 0.991037 0.112589 51 51 51
0.027602 0.167418 0.565811 0.071905 0.991037 0.112589 51 51 51
0.108089 0.187057 0.341538 0.071905 0.991037 0.112589 51 51 51
-0.013684 0.198209 0.321145 0.163727 -0.005661 0.986489 51 51 51
-0.074631 0.212302 0.331341 0.163727 -0.005661 0.986489 51 51 51
-0.135498 0.187058 0.341299 0.163727 -0.005661 0.986489 51 51 51
0.108089 0.187057 0.341538 0.559331 -0.151187 -0.815041 51 51 51
-0.013625 0.173812 0.260468 0.559331 -0.151187 -0.815041 51 51 51
0.044008 0.194783 0.296129 0.559331 -0.151187 -0.815041 51 51 51
-0.070180 0.212452 0.288941 -0.555531 -0.222786 -0.801094 51 51 51
-0.013625 0.173812 0.260468 -0.555531 -0.222786 -0.801094 51 51 51
-0.135498 0.187058 0.341299 -0.555531 -0.222786 -0.801094 51 51 51
-0.144381 0.286729 0.310148 -0.555567 -0.222784 -0.801070 51 51 51
-0.144608 0.290139 0.309357 -0.555567 -0.222784 -0.801070 51 51 51
-0.144241 0.290099 0.309113 -0.555567 -0.222784 -0.801070 51 51 51
-0.070180 0.212452 0.288941 -0.524622 -0.296206 -0.798144 51 51 51
-0.135498 0.187058 0.341299 -0.524622 -0.296206 -0.798144 51 51 51
-0.144381 0.286729 0.310148 -0.524622 -0.296206 -0.798144 51 51 51
-0.013684 0.198209 0.321145 -0.169046 0.845989 -0.505694 51 51 51
0.041289 0.214771 0.330476 -0.169046 0.845989 -0.505694 51 51 51
0.044008 0.194783 0.296129 -0.169046 0.845989 -0.505694 51 51 51
-0.144241 0.290099 0.309113 0.021692 0.292556 0.956002 51 51 51
-0.144381 0.286729 0.310148 0.021692 0.292556 0.956002 51 51 51
-0.074631 0.212302 0.331341 0.021692 0.292556 0.956002 51 51 51
-0.070180 0.212452 0.288941 0.229577 0.972900 0.027554 51 51 51
-0.074631 0.212302 0.331341 0.229577 0.972900 0.027554 51 51 51
-0.013684 0.198209 0.321145 0.229577 0.972900 0.027554 51 51 51
0.074652 0.000937 -0.474575 0.800674 0.449210 -0.396398 234 182 158
0.066397 -0.038744 -0.536217 0.800674 0.449210 -0.396398 234 182 158
0.025663 0.016538 -0.555845 0.800674 0.449210 -0.396398 234 182 158
0.074652 0.000937 -0.474575 0.007693 -0.841286 0.540536 234 182 158
-0.033552 -0.004110 -0.480890 0.007693 -0.841286 0.540536 234 182 158
-0.011768 -0.042390 -0.540778 0.007693 -0.841286 0.540536 234 182 158
-0.033552 -0.004110 -0.480890 -0.768933 0.402757 -0.496516 234 182 158
0.018261 0.073286 -0.498349 -0.768933 0.402757 -0.496516 234 182 158
0.025663 0.016538 -0.555845 -0.768933 0.402757 -0.496516 234 182 158
3 0 1 2
3 3 4 5
3 6 7 8
3 9 10 11
3 12 13 14
3 15 16 17
3 18 19 20
3 21 22 23
3 24 25 26
3 27 28 29
3 30 31 32
3 33 34 35
3 36 37 38
3 39 40 41
3 42 43 44
3 45 46 47
3 48 49 50
3 51 52 53
3 54 55 56
3 57 58 59
3 60 61 62
3 63 64 65
3 66 67 68
3 69 70 71
3 72 73 74
3 75 76 77
3 78 79 80
3 81 82 83
3 84 85 86
3 87 88 89
3 90 91 92
3 93 94 95
3 96 97 98
3 99 100 101
3 102 103 104
3 105 106 107
3 108 109 110
3 111 112 113
3 114 115 116
3 117 118 119
3 120 121 122
3 123 124 125
3 126 127 128
3 129 130 131
3 132 133 134
3 135 136 137
3 138 139 140
3 141 142 143
3 144 145 146
3 147 148 149
3 150 151 152
3 153 154 155
3 156 157 158
3 159 160 161
3 162 163 164
3 165 166 167
3 168 169 170
3 171 172 173
3 174 175 176
3 177 178 179
3 180 181 182
3 183 184 185
3 186 187 188
3 189 190 191
3 192 193 194
3 195 196 197
3 198 199 200
3 201 202 203
3 204 205 206
3 207 208 209
3 210 211 212
3 213 214 215
3 216 217 218
3 219 220 221
3 222 223 224
3 225 226 227
3 228 229 230
3 231 232 233
3 234 235 236
3 237 238 239
3 240 241 242
3 243 244 245
3 246 247 248
3 249 250 251
3 252 253 254
3 255 256 257
3 258 259 260
3 261 262 263
3 264 265 266
3 267 268 269
3 270 271 272
3 273 274 275
3 276 277 278
3 279 280 281
3 282 283 284
3 285 286 287
3 288 289 290
3 291 292 293
3 294 295 296
3 297 298 299
3 300 301 302
3 303 304 305
3 306 307 308
3 309 310 311
3 312 313 314
3 315 316 317
3 318 319 320
3 321 322 323
3 324 325 326
3 327 328 329
3 330 331 332
3 333 334 335
3 336 337 338
3 339 340 341
3 342 343 344
3 345 346 347
3 348 349 350
3 351 352 353
3 354 355 356
3 357 358 359
3 360 361 362
3 15 363 16
3 364 365 366
3 21 367 22
3 353 352 368
3 369 370 371
3 372 373 374
3 375 376 377
3 39 378 40
3 54 379 55
3 57 380 58
3 60 381 61
3 75 382 76
3 78 383 79
3 81 384 82
3 96 385 97
3 99 386 100
3 102 387 103
3 388 389 390
3 391 392 393
3 394 395 396
3 397 398 399
3 400 401 402
3 403 404 405
3 406 407 408
3 409 410 411
3 412 413 414
3 415 416 417
3 418 419 420
3 421 422 423
3 424 425 426
3 427 428 429
