ply
format ascii 1.0
comment Created by Blender 2.77 (sub 0) - www.blender.org, source file: 'Sword.blend'
element vertex 298
property float x
property float y
property float z
property float nx
property float ny
property float nz
property uchar red
property uchar green
property uchar blue
element face 128
property list uchar uint vertex_indices
end_header
0.000000 -0.300173 0.211980 -0.357407 -0.862856 0.357407 102 102 102
-0.042396 -0.370417 0.000000 -0.357407 -0.862856 0.357407 102 102 102
0.000000 -0.387978 0.000000 -0.357407 -0.862856 0.357407 102 102 102
-0.042396 -0.287755 0.199562 -0.912487 -0.377964 0.156558 102 102 102
-0.059957 -0.328021 0.000000 -0.912487 -0.377964 0.156558 102 102 102
-0.042396 -0.370417 0.000000 -0.912487 -0.377964 0.156558 102 102 102
-0.059957 -0.257777 0.169584 -0.912487 0.377965 -0.156558 102 102 102
-0.042396 -0.285625 0.000000 -0.912487 0.377965 -0.156558 102 102 102
-0.059957 -0.328021 0.000000 -0.912487 0.377965 -0.156558 102 102 102
-0.042396 -0.285625 0.000000 -0.357407 0.862856 -0.357407 102 102 102
0.000000 -0.215381 0.127188 -0.357407 0.862856 -0.357407 102 102 102
0.000000 -0.268064 0.000000 -0.357407 0.862856 -0.357407 102 102 102
0.000000 -0.215381 0.127188 0.357407 0.862856 -0.357407 102 102 102
0.042396 -0.285625 0.000000 0.357407 0.862856 -0.357407 102 102 102
0.000000 -0.268064 0.000000 0.357407 0.862856 -0.357407 102 102 102
0.042396 -0.227798 0.139605 0.912487 0.377965 -0.156558 102 102 102
0.059957 -0.328021 0.000000 0.912487 0.377965 -0.156558 102 102 102
0.042396 -0.285625 0.000000 0.912487 0.377965 -0.156558 102 102 102
0.059957 -0.328021 0.000000 0.912487 -0.377964 0.156558 102 102 102
0.042396 -0.287755 0.199562 0.912487 -0.377964 0.156558 102 102 102
0.042396 -0.370417 0.000000 0.912487 -0.377964 0.156558 102 102 102
0.042396 -0.370417 0.000000 0.357407 -0.862856 0.357407 102 102 102
0.000000 -0.300173 0.211980 0.357407 -0.862856 0.357407 102 102 102
0.000000 -0.387978 0.000000 0.357407 -0.862856 0.357407 102 102 102
0.000000 -0.300173 0.211980 -0.357408 -0.357407 0.862856 102 102 102
-0.042396 -0.088193 0.282224 -0.357408 -0.357407 0.862856 102 102 102
-0.042396 -0.287755 0.199562 -0.357408 -0.357407 0.862856 102 102 102
-0.042396 -0.088193 0.282224 -0.912487 -0.156558 0.377965 102 102 102
-0.059957 -0.257777 0.169584 -0.912487 -0.156558 0.377965 102 102 102
-0.042396 -0.287755 0.199562 -0.912487 -0.156558 0.377965 102 102 102
-0.059957 -0.257777 0.169584 -0.912487 0.156558 -0.377965 102 102 102
-0.042396 -0.088193 0.197432 -0.912487 0.156558 -0.377965 102 102 102
-0.042396 -0.227798 0.139605 -0.912487 0.156558 -0.377965 102 102 102
-0.042396 -0.088193 0.197432 -0.357407 0.357407 -0.862856 102 102 102
0.000000 -0.215381 0.127188 -0.357407 0.357407 -0.862856 102 102 102
-0.042396 -0.227798 0.139605 -0.357407 0.357407 -0.862856 102 102 102
0.000000 -0.088193 0.179871 0.357407 0.357407 -0.862856 102 102 102
0.042396 -0.227798 0.139605 0.357407 0.357407 -0.862856 102 102 102
0.000000 -0.215381 0.127188 0.357407 0.357407 -0.862856 102 102 102
0.042396 -0.088193 0.197432 0.912487 0.156558 -0.377965 102 102 102
0.059957 -0.257777 0.169584 0.912487 0.156558 -0.377965 102 102 102
0.042396 -0.227798 0.139605 0.912487 0.156558 -0.377965 102 102 102
0.059957 -0.257777 0.169584 0.912487 -0.156558 0.377965 102 102 102
0.042396 -0.088193 0.282224 0.912487 -0.156558 0.377965 102 102 102
0.042396 -0.287755 0.199562 0.912487 -0.156558 0.377965 102 102 102
0.042396 -0.088193 0.282224 0.357408 -0.357407 0.862856 102 102 102
0.000000 -0.300173 0.211980 0.357408 -0.357407 0.862856 102 102 102
0.042396 -0.287755 0.199562 0.357408 -0.357407 0.862856 102 102 102
0.000000 -0.088193 0.299785 -0.357408 0.357407 0.862856 102 102 102
-0.042396 0.111369 0.199562 -0.357408 0.357407 0.862856 102 102 102
-0.042396 -0.088193 0.282224 -0.357408 0.357407 0.862856 102 102 102
-0.042396 0.111369 0.199562 -0.912487 0.156558 0.377965 102 102 102
-0.059957 -0.088193 0.239828 -0.912487 0.156558 0.377965 102 102 102
-0.042396 -0.088193 0.282224 -0.912487 0.156558 0.377965 102 102 102
-0.059957 -0.088193 0.239828 -0.912487 -0.156558 -0.377965 102 102 102
-0.042396 0.051412 0.139605 -0.912487 -0.156558 -0.377965 102 102 102
-0.042396 -0.088193 0.197432 -0.912487 -0.156558 -0.377965 102 102 102
-0.042396 0.051412 0.139605 -0.357407 -0.357407 -0.862856 102 102 102
0.000000 -0.088193 0.179871 -0.357407 -0.357407 -0.862856 102 102 102
-0.042396 -0.088193 0.197432 -0.357407 -0.357407 -0.862856 102 102 102
0.000000 -0.088193 0.179871 0.357407 -0.357407 -0.862856 102 102 102
0.042396 0.051412 0.139605 0.357407 -0.357407 -0.862856 102 102 102
0.042396 -0.088193 0.197432 0.357407 -0.357407 -0.862856 102 102 102
0.042396 0.051412 0.139605 0.912487 -0.156558 -0.377965 102 102 102
0.059957 -0.088193 0.239828 0.912487 -0.156558 -0.377965 102 102 102
0.042396 -0.088193 0.197432 0.912487 -0.156558 -0.377965 102 102 102
0.059957 -0.088193 0.239828 0.912487 0.156558 0.377965 102 102 102
0.042396 0.111369 0.199562 0.912487 0.156558 0.377965 102 102 102
0.042396 -0.088193 0.282224 0.912487 0.156558 0.377965 102 102 102
0.042396 0.111369 0.199562 0.357408 0.357407 0.862856 102 102 102
0.000000 -0.088193 0.299785 0.357408 0.357407 0.862856 102 102 102
0.042396 -0.088193 0.282224 0.357408 0.357407 0.862856 102 102 102
-0.000000 0.123787 0.211980 -0.357407 0.862856 0.357407 102 102 102
-0.042396 0.194031 0.000000 -0.357407 0.862856 0.357407 102 102 102
-0.042396 0.111369 0.199562 -0.357407 0.862856 0.357407 102 102 102
-0.042396 0.194031 0.000000 -0.912487 0.377965 0.156558 102 102 102
-0.059957 0.081391 0.169584 -0.912487 0.377965 0.156558 102 102 102
-0.042396 0.111369 0.199562 -0.912487 0.377965 0.156558 102 102 102
-0.059957 0.081391 0.169584 -0.912487 -0.377965 -0.156558 102 102 102
-0.042396 0.109239 0.000000 -0.912487 -0.377965 -0.156558 102 102 102
-0.042396 0.051412 0.139605 -0.912487 -0.377965 -0.156558 102 102 102
-0.042396 0.109239 0.000000 -0.357407 -0.862856 -0.357407 102 102 102
-0.000000 0.038995 0.127188 -0.357407 -0.862856 -0.357407 102 102 102
-0.042396 0.051412 0.139605 -0.357407 -0.862856 -0.357407 102 102 102
-0.000000 0.038995 0.127188 0.357407 -0.862856 -0.357407 102 102 102
0.042396 0.109239 0.000000 0.357407 -0.862856 -0.357407 102 102 102
0.042396 0.051412 0.139605 0.357407 -0.862856 -0.357407 102 102 102
0.042396 0.109239 0.000000 0.912487 -0.377965 -0.156558 102 102 102
0.059957 0.081391 0.169584 0.912487 -0.377965 -0.156558 102 102 102
0.042396 0.051412 0.139605 0.912487 -0.377965 -0.156558 102 102 102
0.059957 0.081391 0.169584 0.912487 0.377965 0.156558 102 102 102
0.042396 0.194031 0.000000 0.912487 0.377965 0.156558 102 102 102
0.042396 0.111369 0.199562 0.912487 0.377965 0.156558 102 102 102
0.042396 0.194031 0.000000 0.357407 0.862856 0.357407 102 102 102
-0.000000 0.123787 0.211980 0.357407 0.862856 0.357407 102 102 102
0.042396 0.111369 0.199562 0.357407 0.862856 0.357407 102 102 102
-0.000000 0.123787 -0.211980 -0.357407 0.862856 -0.357407 102 102 102
-0.042396 0.194031 0.000000 -0.357407 0.862856 -0.357407 102 102 102
-0.000000 0.211592 0.000000 -0.357407 0.862856 -0.357407 102 102 102
-0.042396 0.111369 -0.199562 -0.912487 0.377965 -0.156558 102 102 102
-0.059957 0.151635 0.000000 -0.912487 0.377965 -0.156558 102 102 102
-0.042396 0.194031 0.000000 -0.912487 0.377965 -0.156558 102 102 102
-0.059957 0.081391 -0.169584 -0.912487 -0.377965 0.156558 102 102 102
-0.042396 0.109239 0.000000 -0.912487 -0.377965 0.156558 102 102 102
-0.059957 0.151635 0.000000 -0.912487 -0.377965 0.156558 102 102 102
-0.042396 0.109239 0.000000 -0.357407 -0.862856 0.357407 102 102 102
-0.000000 0.038995 -0.127188 -0.357407 -0.862856 0.357407 102 102 102
-0.000000 0.091678 0.000000 -0.357407 -0.862856 0.357407 102 102 102
-0.000000 0.038995 -0.127188 0.357407 -0.862856 0.357407 102 102 102
0.042396 0.109239 0.000000 0.357407 -0.862856 0.357407 102 102 102
-0.000000 0.091678 0.000000 0.357407 -0.862856 0.357407 102 102 102
0.042396 0.109239 0.000000 0.912487 -0.377964 0.156558 102 102 102
0.059957 0.081391 -0.169584 0.912487 -0.377964 0.156558 102 102 102
0.059957 0.151635 0.000000 0.912487 -0.377964 0.156558 102 102 102
0.059957 0.151635 0.000000 0.912487 0.377965 -0.156558 102 102 102
0.042396 0.111369 -0.199562 0.912487 0.377965 -0.156558 102 102 102
0.042396 0.194031 0.000000 0.912487 0.377965 -0.156558 102 102 102
0.042396 0.194031 0.000000 0.357407 0.862856 -0.357407 102 102 102
-0.000000 0.123787 -0.211980 0.357407 0.862856 -0.357407 102 102 102
-0.000000 0.211592 0.000000 0.357407 0.862856 -0.357407 102 102 102
0.000000 -0.088193 -0.299785 -0.357407 0.357407 -0.862856 102 102 102
-0.042396 0.111369 -0.199562 -0.357407 0.357407 -0.862856 102 102 102
-0.000000 0.123787 -0.211980 -0.357407 0.357407 -0.862856 102 102 102
-0.042396 0.111369 -0.199562 -0.912487 0.156558 -0.377965 102 102 102
-0.059957 -0.088193 -0.239828 -0.912487 0.156558 -0.377965 102 102 102
-0.059957 0.081391 -0.169584 -0.912487 0.156558 -0.377965 102 102 102
-0.059957 -0.088193 -0.239828 -0.912487 -0.156558 0.377965 102 102 102
-0.042396 0.051412 -0.139605 -0.912487 -0.156558 0.377965 102 102 102
-0.059957 0.081391 -0.169584 -0.912487 -0.156558 0.377965 102 102 102
-0.042396 0.051412 -0.139605 -0.357407 -0.357407 0.862856 102 102 102
0.000000 -0.088193 -0.179871 -0.357407 -0.357407 0.862856 102 102 102
-0.000000 0.038995 -0.127188 -0.357407 -0.357407 0.862856 102 102 102
0.000000 -0.088193 -0.179871 0.357407 -0.357407 0.862856 102 102 102
0.042396 0.051412 -0.139605 0.357407 -0.357407 0.862856 102 102 102
-0.000000 0.038995 -0.127188 0.357407 -0.357407 0.862856 102 102 102
0.042396 0.051412 -0.139605 0.912487 -0.156558 0.377965 102 102 102
0.059957 -0.088193 -0.239828 0.912487 -0.156558 0.377965 102 102 102
0.059957 0.081391 -0.169584 0.912487 -0.156558 0.377965 102 102 102
0.059957 -0.088193 -0.239828 0.912487 0.156558 -0.377965 102 102 102
0.042396 0.111369 -0.199562 0.912487 0.156558 -0.377965 102 102 102
0.059957 0.081391 -0.169584 0.912487 0.156558 -0.377965 102 102 102
0.042396 0.111369 -0.199562 0.357407 0.357407 -0.862856 102 102 102
0.000000 -0.088193 -0.299785 0.357407 0.357407 -0.862856 102 102 102
-0.000000 0.123787 -0.211980 0.357407 0.357407 -0.862856 102 102 102
0.000000 -0.300173 -0.211980 -0.357407 -0.357407 -0.862856 102 102 102
-0.042396 -0.088193 -0.282224 -0.357407 -0.357407 -0.862856 102 102 102
0.000000 -0.088193 -0.299785 -0.357407 -0.357407 -0.862856 102 102 102
-0.042396 -0.088193 -0.282224 -0.912487 -0.156558 -0.377964 102 102 102
-0.059957 -0.257777 -0.169584 -0.912487 -0.156558 -0.377964 102 102 102
-0.059957 -0.088193 -0.239828 -0.912487 -0.156558 -0.377964 102 102 102
-0.059957 -0.088193 -0.239828 -0.912487 0.156558 0.377965 102 102 102
-0.042396 -0.227798 -0.139605 -0.912487 0.156558 0.377965 102 102 102
-0.042396 -0.088193 -0.197432 -0.912487 0.156558 0.377965 102 102 102
-0.042396 -0.227798 -0.139605 -0.357407 0.357406 0.862856 102 102 102
0.000000 -0.088193 -0.179871 -0.357407 0.357406 0.862856 102 102 102
-0.042396 -0.088193 -0.197432 -0.357407 0.357406 0.862856 102 102 102
0.000000 -0.088193 -0.179871 0.357407 0.357407 0.862856 102 102 102
0.042396 -0.227798 -0.139605 0.357407 0.357407 0.862856 102 102 102
0.042396 -0.088193 -0.197432 0.357407 0.357407 0.862856 102 102 102
0.042396 -0.227798 -0.139605 0.912487 0.156558 0.377965 102 102 102
0.059957 -0.088193 -0.239828 0.912487 0.156558 0.377965 102 102 102
0.042396 -0.088193 -0.197432 0.912487 0.156558 0.377965 102 102 102
0.059957 -0.257777 -0.169584 0.912487 -0.156558 -0.377964 102 102 102
0.042396 -0.088193 -0.282224 0.912487 -0.156558 -0.377964 102 102 102
0.059957 -0.088193 -0.239828 0.912487 -0.156558 -0.377964 102 102 102
0.042396 -0.088193 -0.282224 0.357407 -0.357407 -0.862856 102 102 102
0.000000 -0.300173 -0.211980 0.357407 -0.357407 -0.862856 102 102 102
0.000000 -0.088193 -0.299785 0.357407 -0.357407 -0.862856 102 102 102
0.000000 -0.300173 -0.211980 -0.357407 -0.862856 -0.357407 102 102 102
-0.042396 -0.370417 0.000000 -0.357407 -0.862856 -0.357407 102 102 102
-0.042396 -0.287755 -0.199562 -0.357407 -0.862856 -0.357407 102 102 102
-0.042396 -0.370417 0.000000 -0.912487 -0.377964 -0.156558 102 102 102
-0.059957 -0.257777 -0.169584 -0.912487 -0.377964 -0.156558 102 102 102
-0.042396 -0.287755 -0.199562 -0.912487 -0.377964 -0.156558 102 102 102
-0.059957 -0.328021 0.000000 -0.912487 0.377964 0.156558 102 102 102
-0.042396 -0.227798 -0.139605 -0.912487 0.377964 0.156558 102 102 102
-0.059957 -0.257777 -0.169584 -0.912487 0.377964 0.156558 102 102 102
-0.042396 -0.285625 0.000000 -0.357407 0.862856 0.357407 102 102 102
0.000000 -0.215381 -0.127188 -0.357407 0.862856 0.357407 102 102 102
-0.042396 -0.227798 -0.139605 -0.357407 0.862856 0.357407 102 102 102
0.000000 -0.268064 0.000000 0.357407 0.862856 0.357407 102 102 102
0.042396 -0.227798 -0.139605 0.357407 0.862856 0.357407 102 102 102
0.000000 -0.215381 -0.127188 0.357407 0.862856 0.357407 102 102 102
0.042396 -0.285625 0.000000 0.912487 0.377964 0.156558 102 102 102
0.059957 -0.257777 -0.169584 0.912487 0.377964 0.156558 102 102 102
0.042396 -0.227798 -0.139605 0.912487 0.377964 0.156558 102 102 102
0.059957 -0.257777 -0.169584 0.912487 -0.377964 -0.156558 102 102 102
0.042396 -0.370417 0.000000 0.912487 -0.377964 -0.156558 102 102 102
0.042396 -0.287755 -0.199562 0.912487 -0.377964 -0.156558 102 102 102
0.042396 -0.370417 0.000000 0.357407 -0.862856 -0.357407 102 102 102
0.000000 -0.300173 -0.211980 0.357407 -0.862856 -0.357407 102 102 102
0.042396 -0.287755 -0.199562 0.357407 -0.862856 -0.357407 102 102 102
0.000000 -0.300173 0.211980 -0.357408 -0.862856 0.357407 102 102 102
-0.042396 -0.287755 0.199562 -0.357408 -0.862856 0.357407 102 102 102
-0.042396 -0.370417 0.000000 -0.357408 -0.862856 0.357407 102 102 102
-0.042396 -0.287755 0.199562 -0.912487 -0.377965 0.156558 102 102 102
-0.059957 -0.257777 0.169584 -0.912487 -0.377965 0.156558 102 102 102
-0.059957 -0.328021 0.000000 -0.912487 -0.377965 0.156558 102 102 102
-0.042396 -0.227798 0.139605 -0.912487 0.377965 -0.156558 102 102 102
-0.042396 -0.227798 0.139605 -0.357407 0.862856 -0.357407 102 102 102
0.042396 -0.227798 0.139605 0.357407 0.862856 -0.357407 102 102 102
0.059957 -0.257777 0.169584 0.912487 0.377965 -0.156558 102 102 102
0.059957 -0.328021 0.000000 0.912487 -0.377965 0.156558 102 102 102
0.059957 -0.257777 0.169584 0.912487 -0.377965 0.156558 102 102 102
0.042396 -0.287755 0.199562 0.912487 -0.377965 0.156558 102 102 102
0.042396 -0.370417 0.000000 0.357408 -0.862856 0.357407 102 102 102
0.042396 -0.287755 0.199562 0.357408 -0.862856 0.357407 102 102 102
0.000000 -0.300173 0.211980 0.357408 -0.862856 0.357407 102 102 102
0.000000 -0.300173 0.211980 -0.357407 -0.357407 0.862856 102 102 102
0.000000 -0.088193 0.299785 -0.357407 -0.357407 0.862856 102 102 102
-0.042396 -0.088193 0.282224 -0.357407 -0.357407 0.862856 102 102 102
-0.042396 -0.088193 0.282224 -0.912487 -0.156558 0.377964 102 102 102
-0.059957 -0.088193 0.239828 -0.912487 -0.156558 0.377964 102 102 102
-0.059957 -0.257777 0.169584 -0.912487 -0.156558 0.377964 102 102 102
-0.059957 -0.257777 0.169584 -0.912487 0.156558 -0.377964 102 102 102
-0.059957 -0.088193 0.239828 -0.912487 0.156558 -0.377964 102 102 102
-0.042396 -0.088193 0.197432 -0.912487 0.156558 -0.377964 102 102 102
0.000000 -0.088193 0.179871 -0.357407 0.357407 -0.862856 102 102 102
0.042396 -0.088193 0.197432 0.357407 0.357407 -0.862856 102 102 102
0.042396 -0.088193 0.197432 0.912487 0.156558 -0.377964 102 102 102
0.059957 -0.088193 0.239828 0.912487 0.156558 -0.377964 102 102 102
0.059957 -0.257777 0.169584 0.912487 0.156558 -0.377964 102 102 102
0.059957 -0.257777 0.169584 0.912487 -0.156558 0.377964 102 102 102
0.059957 -0.088193 0.239828 0.912487 -0.156558 0.377964 102 102 102
0.042396 -0.088193 0.282224 0.912487 -0.156558 0.377964 102 102 102
0.042396 -0.088193 0.282224 0.357407 -0.357407 0.862856 102 102 102
0.000000 -0.088193 0.299785 0.357407 -0.357407 0.862856 102 102 102
0.000000 -0.300173 0.211980 0.357407 -0.357407 0.862856 102 102 102
0.000000 -0.088193 0.299785 -0.357407 0.357407 0.862856 102 102 102
-0.000000 0.123787 0.211980 -0.357407 0.357407 0.862856 102 102 102
-0.042396 0.111369 0.199562 -0.357407 0.357407 0.862856 102 102 102
-0.059957 0.081391 0.169584 -0.912487 0.156558 0.377965 102 102 102
-0.059957 0.081391 0.169584 -0.912487 -0.156558 -0.377965 102 102 102
-0.000000 0.038995 0.127188 -0.357407 -0.357407 -0.862856 102 102 102
-0.000000 0.038995 0.127188 0.357407 -0.357407 -0.862856 102 102 102
0.059957 0.081391 0.169584 0.912487 -0.156558 -0.377965 102 102 102
0.059957 0.081391 0.169584 0.912487 0.156558 0.377965 102 102 102
0.042396 0.111369 0.199562 0.357407 0.357407 0.862856 102 102 102
-0.000000 0.123787 0.211980 0.357407 0.357407 0.862856 102 102 102
0.000000 -0.088193 0.299785 0.357407 0.357407 0.862856 102 102 102
-0.000000 0.211592 0.000000 -0.357407 0.862856 0.357407 102 102 102
-0.059957 0.151635 0.000000 -0.912487 0.377965 0.156558 102 102 102
-0.059957 0.151635 0.000000 -0.912487 -0.377965 -0.156558 102 102 102
-0.000000 0.091678 0.000000 -0.357407 -0.862856 -0.357407 102 102 102
-0.000000 0.091678 0.000000 0.357407 -0.862856 -0.357407 102 102 102
0.042396 0.109239 0.000000 0.912487 -0.377964 -0.156558 102 102 102
0.059957 0.151635 0.000000 0.912487 -0.377964 -0.156558 102 102 102
0.059957 0.081391 0.169584 0.912487 -0.377964 -0.156558 102 102 102
0.059957 0.151635 0.000000 0.912487 0.377965 0.156558 102 102 102
-0.000000 0.211592 0.000000 0.357407 0.862856 0.357407 102 102 102
-0.042396 0.111369 -0.199562 -0.357407 0.862856 -0.357407 102 102 102
-0.059957 0.081391 -0.169584 -0.912487 0.377965 -0.156558 102 102 102
-0.059957 0.081391 -0.169584 -0.912487 -0.377964 0.156558 102 102 102
-0.042396 0.051412 -0.139605 -0.912487 -0.377964 0.156558 102 102 102
-0.042396 0.109239 0.000000 -0.912487 -0.377964 0.156558 102 102 102
-0.042396 0.051412 -0.139605 -0.357407 -0.862856 0.357407 102 102 102
0.042396 0.051412 -0.139605 0.357407 -0.862856 0.357407 102 102 102
0.042396 0.051412 -0.139605 0.912487 -0.377964 0.156558 102 102 102
0.059957 0.081391 -0.169584 0.912487 0.377965 -0.156558 102 102 102
0.042396 0.111369 -0.199562 0.357407 0.862856 -0.357407 102 102 102
0.000000 -0.088193 -0.299785 -0.357408 0.357407 -0.862856 102 102 102
-0.042396 -0.088193 -0.282224 -0.357408 0.357407 -0.862856 102 102 102
-0.042396 0.111369 -0.199562 -0.357408 0.357407 -0.862856 102 102 102
-0.042396 -0.088193 -0.282224 -0.912487 0.156558 -0.377965 102 102 102
-0.042396 -0.088193 -0.197432 -0.912487 -0.156558 0.377965 102 102 102
-0.042396 -0.088193 -0.197432 -0.357407 -0.357407 0.862856 102 102 102
0.042396 -0.088193 -0.197432 0.357407 -0.357407 0.862856 102 102 102
0.042396 -0.088193 -0.197432 0.912487 -0.156558 0.377965 102 102 102
0.042396 -0.088193 -0.282224 0.912487 0.156558 -0.377965 102 102 102
0.042396 0.111369 -0.199562 0.357408 0.357407 -0.862856 102 102 102
0.042396 -0.088193 -0.282224 0.357408 0.357407 -0.862856 102 102 102
0.000000 -0.088193 -0.299785 0.357408 0.357407 -0.862856 102 102 102
0.000000 -0.300173 -0.211980 -0.357407 -0.357406 -0.862856 102 102 102
-0.042396 -0.287755 -0.199562 -0.357407 -0.357406 -0.862856 102 102 102
-0.042396 -0.088193 -0.282224 -0.357407 -0.357406 -0.862856 102 102 102
-0.042396 -0.287755 -0.199562 -0.912487 -0.156558 -0.377964 102 102 102
-0.059957 -0.088193 -0.239828 -0.912487 0.156558 0.377964 102 102 102
-0.059957 -0.257777 -0.169584 -0.912487 0.156558 0.377964 102 102 102
-0.042396 -0.227798 -0.139605 -0.912487 0.156558 0.377964 102 102 102
0.000000 -0.215381 -0.127188 -0.357407 0.357406 0.862856 102 102 102
0.000000 -0.215381 -0.127188 0.357407 0.357407 0.862856 102 102 102
0.042396 -0.227798 -0.139605 0.912487 0.156558 0.377964 102 102 102
0.059957 -0.257777 -0.169584 0.912487 0.156558 0.377964 102 102 102
0.059957 -0.088193 -0.239828 0.912487 0.156558 0.377964 102 102 102
0.042396 -0.287755 -0.199562 0.912487 -0.156558 -0.377964 102 102 102
0.042396 -0.088193 -0.282224 0.357407 -0.357406 -0.862856 102 102 102
0.042396 -0.287755 -0.199562 0.357407 -0.357406 -0.862856 102 102 102
0.000000 -0.300173 -0.211980 0.357407 -0.357406 -0.862856 102 102 102
0.000000 -0.387978 0.000000 -0.357407 -0.862856 -0.357407 102 102 102
-0.059957 -0.328021 0.000000 -0.912487 -0.377964 -0.156558 102 102 102
-0.042396 -0.285625 0.000000 -0.912487 0.377964 0.156558 102 102 102
0.000000 -0.268064 0.000000 -0.357407 0.862856 0.357407 102 102 102
0.042396 -0.285625 0.000000 0.357407 0.862856 0.357407 102 102 102
0.042396 -0.285625 0.000000 0.912487 0.377965 0.156558 102 102 102
0.059957 -0.328021 0.000000 0.912487 0.377965 0.156558 102 102 102
0.059957 -0.257777 -0.169584 0.912487 0.377965 0.156558 102 102 102
0.059957 -0.328021 0.000000 0.912487 -0.377964 -0.156558 102 102 102
0.000000 -0.387978 0.000000 0.357407 -0.862856 -0.357407 102 102 102
3 0 1 2
3 3 4 5
3 6 7 8
3 9 10 11
3 12 13 14
3 15 16 17
3 18 19 20
3 21 22 23
3 24 25 26
3 27 28 29
3 30 31 32
3 33 34 35
3 36 37 38
3 39 40 41
3 42 43 44
3 45 46 47
3 48 49 50
3 51 52 53
3 54 55 56
3 57 58 59
3 60 61 62
3 63 64 65
3 66 67 68
3 69 70 71
3 72 73 74
3 75 76 77
3 78 79 80
3 81 82 83
3 84 85 86
3 87 88 89
3 90 91 92
3 93 94 95
3 96 97 98
3 99 100 101
3 102 103 104
3 105 106 107
3 108 109 110
3 111 112 113
3 114 115 116
3 117 118 119
3 120 121 122
3 123 124 125
3 126 127 128
3 129 130 131
3 132 133 134
3 135 136 137
3 138 139 140
3 141 142 143
3 144 145 146
3 147 148 149
3 150 151 152
3 153 154 155
3 156 157 158
3 159 160 161
3 162 163 164
3 165 166 167
3 168 169 170
3 171 172 173
3 174 175 176
3 177 178 179
3 180 181 182
3 183 184 185
3 186 187 188
3 189 190 191
3 192 193 194
3 195 196 197
3 6 198 7
3 9 199 10
3 12 200 13
3 15 201 16
3 202 203 204
3 205 206 207
3 208 209 210
3 211 212 213
3 214 215 216
3 33 217 34
3 36 218 37
3 219 220 221
3 222 223 224
3 225 226 227
3 228 229 230
3 51 231 52
3 54 232 55
3 57 233 58
3 60 234 61
3 63 235 64
3 66 236 67
3 237 238 239
3 72 240 73
3 75 241 76
3 78 242 79
3 81 243 82
3 84 244 85
3 245 246 247
3 90 248 91
3 93 249 94
3 96 250 97
3 99 251 100
3 252 253 254
3 105 255 106
3 108 256 109
3 111 257 112
3 114 258 115
3 117 259 118
3 260 261 262
3 123 263 124
3 126 264 127
3 129 265 130
3 132 266 133
3 135 267 136
3 138 268 139
3 269 270 271
3 272 273 274
3 147 275 148
3 276 277 278
3 153 279 154
3 156 280 157
3 281 282 283
3 162 284 163
3 285 286 287
3 168 288 169
3 171 289 172
3 174 290 175
3 177 291 178
3 180 292 181
3 293 294 295
3 186 296 187
3 189 297 190
