ply
format ascii 1.0
comment Created by Blender 2.77 (sub 0) - www.blender.org, source file: 'Sword.blend'
element vertex 252
property float x
property float y
property float z
property float nx
property float ny
property float nz
property uchar red
property uchar green
property uchar blue
element face 109
property list uchar uint vertex_indices
end_header
0.042396 -0.287755 0.199562 0.000000 -0.707107 -0.707107 102 102 102
-0.042396 -0.287755 0.199562 0.000000 -0.707107 -0.707107 102 102 102
-0.042396 -0.227798 0.139605 0.000000 -0.707107 -0.707107 102 102 102
0.000000 -0.300173 0.211980 -0.357408 -0.357407 0.862856 102 102 102
-0.042396 -0.088193 0.282224 -0.357408 -0.357407 0.862856 102 102 102
-0.042396 -0.287755 0.199562 -0.357408 -0.357407 0.862856 102 102 102
-0.042396 -0.088193 0.282224 -0.912487 -0.156558 0.377965 102 102 102
-0.059957 -0.257777 0.169584 -0.912487 -0.156558 0.377965 102 102 102
-0.042396 -0.287755 0.199562 -0.912487 -0.156558 0.377965 102 102 102
-0.059957 -0.257777 0.169584 -0.912487 0.156558 -0.377965 102 102 102
-0.042396 -0.088193 0.197432 -0.912487 0.156558 -0.377965 102 102 102
-0.042396 -0.227798 0.139605 -0.912487 0.156558 -0.377965 102 102 102
-0.042396 -0.088193 0.197432 -0.357407 0.357407 -0.862856 102 102 102
0.000000 -0.215381 0.127188 -0.357407 0.357407 -0.862856 102 102 102
-0.042396 -0.227798 0.139605 -0.357407 0.357407 -0.862856 102 102 102
0.000000 -0.088193 0.179871 0.357407 0.357407 -0.862856 102 102 102
0.042396 -0.227798 0.139605 0.357407 0.357407 -0.862856 102 102 102
0.000000 -0.215381 0.127188 0.357407 0.357407 -0.862856 102 102 102
0.042396 -0.088193 0.197432 0.912487 0.156558 -0.377965 102 102 102
0.059957 -0.257777 0.169584 0.912487 0.156558 -0.377965 102 102 102
0.042396 -0.227798 0.139605 0.912487 0.156558 -0.377965 102 102 102
0.059957 -0.257777 0.169584 0.912487 -0.156558 0.377965 102 102 102
0.042396 -0.088193 0.282224 0.912487 -0.156558 0.377965 102 102 102
0.042396 -0.287755 0.199562 0.912487 -0.156558 0.377965 102 102 102
0.042396 -0.088193 0.282224 0.357408 -0.357407 0.862856 102 102 102
0.000000 -0.300173 0.211980 0.357408 -0.357407 0.862856 102 102 102
0.042396 -0.287755 0.199562 0.357408 -0.357407 0.862856 102 102 102
0.000000 -0.088193 0.299785 -0.357408 0.357407 0.862856 102 102 102
-0.042396 0.111369 0.199562 -0.357408 0.357407 0.862856 102 102 102
-0.042396 -0.088193 0.282224 -0.357408 0.357407 0.862856 102 102 102
-0.042396 0.111369 0.199562 -0.912487 0.156558 0.377965 102 102 102
-0.059957 -0.088193 0.239828 -0.912487 0.156558 0.377965 102 102 102
-0.042396 -0.088193 0.282224 -0.912487 0.156558 0.377965 102 102 102
-0.059957 -0.088193 0.239828 -0.912487 -0.156558 -0.377965 102 102 102
-0.042396 0.051412 0.139605 -0.912487 -0.156558 -0.377965 102 102 102
-0.042396 -0.088193 0.197432 -0.912487 -0.156558 -0.377965 102 102 102
-0.042396 0.051412 0.139605 -0.357407 -0.357407 -0.862856 102 102 102
0.000000 -0.088193 0.179871 -0.357407 -0.357407 -0.862856 102 102 102
-0.042396 -0.088193 0.197432 -0.357407 -0.357407 -0.862856 102 102 102
0.000000 -0.088193 0.179871 0.357407 -0.357407 -0.862856 102 102 102
0.042396 0.051412 0.139605 0.357407 -0.357407 -0.862856 102 102 102
0.042396 -0.088193 0.197432 0.357407 -0.357407 -0.862856 102 102 102
0.042396 0.051412 0.139605 0.912487 -0.156558 -0.377965 102 102 102
0.059957 -0.088193 0.239828 0.912487 -0.156558 -0.377965 102 102 102
0.042396 -0.088193 0.197432 0.912487 -0.156558 -0.377965 102 102 102
0.059957 -0.088193 0.239828 0.912487 0.156558 0.377965 102 102 102
0.042396 0.111369 0.199562 0.912487 0.156558 0.377965 102 102 102
0.042396 -0.088193 0.282224 0.912487 0.156558 0.377965 102 102 102
0.042396 0.111369 0.199562 0.357408 0.357407 0.862856 102 102 102
0.000000 -0.088193 0.299785 0.357408 0.357407 0.862856 102 102 102
0.042396 -0.088193 0.282224 0.357408 0.357407 0.862856 102 102 102
-0.000000 0.123787 0.211980 -0.357407 0.862856 0.357407 102 102 102
-0.042396 0.194031 0.000000 -0.357407 0.862856 0.357407 102 102 102
-0.042396 0.111369 0.199562 -0.357407 0.862856 0.357407 102 102 102
-0.042396 0.194031 0.000000 -0.912487 0.377965 0.156558 102 102 102
-0.059957 0.081391 0.169584 -0.912487 0.377965 0.156558 102 102 102
-0.042396 0.111369 0.199562 -0.912487 0.377965 0.156558 102 102 102
-0.059957 0.081391 0.169584 -0.912487 -0.377965 -0.156558 102 102 102
-0.042396 0.109239 0.000000 -0.912487 -0.377965 -0.156558 102 102 102
-0.042396 0.051412 0.139605 -0.912487 -0.377965 -0.156558 102 102 102
-0.042396 0.109239 0.000000 -0.357407 -0.862856 -0.357407 102 102 102
-0.000000 0.038995 0.127188 -0.357407 -0.862856 -0.357407 102 102 102
-0.042396 0.051412 0.139605 -0.357407 -0.862856 -0.357407 102 102 102
-0.000000 0.038995 0.127188 0.357407 -0.862856 -0.357407 102 102 102
0.042396 0.109239 0.000000 0.357407 -0.862856 -0.357407 102 102 102
0.042396 0.051412 0.139605 0.357407 -0.862856 -0.357407 102 102 102
0.042396 0.109239 0.000000 0.912487 -0.377965 -0.156558 102 102 102
0.059957 0.081391 0.169584 0.912487 -0.377965 -0.156558 102 102 102
0.042396 0.051412 0.139605 0.912487 -0.377965 -0.156558 102 102 102
0.059957 0.081391 0.169584 0.912487 0.377965 0.156558 102 102 102
0.042396 0.194031 0.000000 0.912487 0.377965 0.156558 102 102 102
0.042396 0.111369 0.199562 0.912487 0.377965 0.156558 102 102 102
0.042396 0.194031 0.000000 0.357407 0.862856 0.357407 102 102 102
-0.000000 0.123787 0.211980 0.357407 0.862856 0.357407 102 102 102
0.042396 0.111369 0.199562 0.357407 0.862856 0.357407 102 102 102
-0.000000 0.123787 -0.211980 -0.357407 0.862856 -0.357407 102 102 102
-0.042396 0.194031 0.000000 -0.357407 0.862856 -0.357407 102 102 102
-0.000000 0.211592 0.000000 -0.357407 0.862856 -0.357407 102 102 102
-0.042396 0.111369 -0.199562 -0.912487 0.377965 -0.156558 102 102 102
-0.059957 0.151635 0.000000 -0.912487 0.377965 -0.156558 102 102 102
-0.042396 0.194031 0.000000 -0.912487 0.377965 -0.156558 102 102 102
-0.059957 0.081391 -0.169584 -0.912487 -0.377965 0.156558 102 102 102
-0.042396 0.109239 0.000000 -0.912487 -0.377965 0.156558 102 102 102
-0.059957 0.151635 0.000000 -0.912487 -0.377965 0.156558 102 102 102
-0.042396 0.109239 0.000000 -0.357407 -0.862856 0.357407 102 102 102
-0.000000 0.038995 -0.127188 -0.357407 -0.862856 0.357407 102 102 102
-0.000000 0.091678 0.000000 -0.357407 -0.862856 0.357407 102 102 102
-0.000000 0.038995 -0.127188 0.357407 -0.862856 0.357407 102 102 102
0.042396 0.109239 0.000000 0.357407 -0.862856 0.357407 102 102 102
-0.000000 0.091678 0.000000 0.357407 -0.862856 0.357407 102 102 102
0.042396 0.109239 0.000000 0.912487 -0.377964 0.156558 102 102 102
0.059957 0.081391 -0.169584 0.912487 -0.377964 0.156558 102 102 102
0.059957 0.151635 0.000000 0.912487 -0.377964 0.156558 102 102 102
0.059957 0.151635 0.000000 0.912487 0.377965 -0.156558 102 102 102
0.042396 0.111369 -0.199562 0.912487 0.377965 -0.156558 102 102 102
0.042396 0.194031 0.000000 0.912487 0.377965 -0.156558 102 102 102
0.042396 0.194031 0.000000 0.357407 0.862856 -0.357407 102 102 102
-0.000000 0.123787 -0.211980 0.357407 0.862856 -0.357407 102 102 102
-0.000000 0.211592 0.000000 0.357407 0.862856 -0.357407 102 102 102
0.000000 -0.088193 -0.299785 -0.357407 0.357407 -0.862856 102 102 102
-0.042396 0.111369 -0.199562 -0.357407 0.357407 -0.862856 102 102 102
-0.000000 0.123787 -0.211980 -0.357407 0.357407 -0.862856 102 102 102
-0.042396 0.111369 -0.199562 -0.912487 0.156558 -0.377965 102 102 102
-0.059957 -0.088193 -0.239828 -0.912487 0.156558 -0.377965 102 102 102
-0.059957 0.081391 -0.169584 -0.912487 0.156558 -0.377965 102 102 102
-0.059957 -0.088193 -0.239828 -0.912487 -0.156558 0.377965 102 102 102
-0.042396 0.051412 -0.139605 -0.912487 -0.156558 0.377965 102 102 102
-0.059957 0.081391 -0.169584 -0.912487 -0.156558 0.377965 102 102 102
-0.042396 0.051412 -0.139605 -0.357407 -0.357407 0.862856 102 102 102
0.000000 -0.088193 -0.179871 -0.357407 -0.357407 0.862856 102 102 102
-0.000000 0.038995 -0.127188 -0.357407 -0.357407 0.862856 102 102 102
0.000000 -0.088193 -0.179871 0.357407 -0.357407 0.862856 102 102 102
0.042396 0.051412 -0.139605 0.357407 -0.357407 0.862856 102 102 102
-0.000000 0.038995 -0.127188 0.357407 -0.357407 0.862856 102 102 102
0.042396 0.051412 -0.139605 0.912487 -0.156558 0.377965 102 102 102
0.059957 -0.088193 -0.239828 0.912487 -0.156558 0.377965 102 102 102
0.059957 0.081391 -0.169584 0.912487 -0.156558 0.377965 102 102 102
0.059957 -0.088193 -0.239828 0.912487 0.156558 -0.377965 102 102 102
0.042396 0.111369 -0.199562 0.912487 0.156558 -0.377965 102 102 102
0.059957 0.081391 -0.169584 0.912487 0.156558 -0.377965 102 102 102
0.042396 0.111369 -0.199562 0.357407 0.357407 -0.862856 102 102 102
0.000000 -0.088193 -0.299785 0.357407 0.357407 -0.862856 102 102 102
-0.000000 0.123787 -0.211980 0.357407 0.357407 -0.862856 102 102 102
0.000000 -0.300173 -0.211980 -0.357407 -0.357407 -0.862856 102 102 102
-0.042396 -0.088193 -0.282224 -0.357407 -0.357407 -0.862856 102 102 102
0.000000 -0.088193 -0.299785 -0.357407 -0.357407 -0.862856 102 102 102
-0.042396 -0.088193 -0.282224 -0.912487 -0.156558 -0.377964 102 102 102
-0.059957 -0.257777 -0.169584 -0.912487 -0.156558 -0.377964 102 102 102
-0.059957 -0.088193 -0.239828 -0.912487 -0.156558 -0.377964 102 102 102
-0.059957 -0.088193 -0.239828 -0.912487 0.156558 0.377965 102 102 102
-0.042396 -0.227798 -0.139605 -0.912487 0.156558 0.377965 102 102 102
-0.042396 -0.088193 -0.197432 -0.912487 0.156558 0.377965 102 102 102
-0.042396 -0.227798 -0.139605 -0.357407 0.357406 0.862856 102 102 102
0.000000 -0.088193 -0.179871 -0.357407 0.357406 0.862856 102 102 102
-0.042396 -0.088193 -0.197432 -0.357407 0.357406 0.862856 102 102 102
0.000000 -0.088193 -0.179871 0.357407 0.357407 0.862856 102 102 102
0.042396 -0.227798 -0.139605 0.357407 0.357407 0.862856 102 102 102
0.042396 -0.088193 -0.197432 0.357407 0.357407 0.862856 102 102 102
0.042396 -0.227798 -0.139605 0.912487 0.156558 0.377965 102 102 102
0.059957 -0.088193 -0.239828 0.912487 0.156558 0.377965 102 102 102
0.042396 -0.088193 -0.197432 0.912487 0.156558 0.377965 102 102 102
0.059957 -0.257777 -0.169584 0.912487 -0.156558 -0.377964 102 102 102
0.042396 -0.088193 -0.282224 0.912487 -0.156558 -0.377964 102 102 102
0.059957 -0.088193 -0.239828 0.912487 -0.156558 -0.377964 102 102 102
0.042396 -0.088193 -0.282224 0.357407 -0.357407 -0.862856 102 102 102
0.000000 -0.300173 -0.211980 0.357407 -0.357407 -0.862856 102 102 102
0.000000 -0.088193 -0.299785 0.357407 -0.357407 -0.862856 102 102 102
0.042396 -0.227798 -0.139605 -0.000000 -0.707107 0.707107 102 102 102
-0.042396 -0.287755 -0.199562 -0.000000 -0.707107 0.707107 102 102 102
0.000000 -0.300173 -0.211980 -0.000000 -0.707107 0.707107 102 102 102
0.000000 -0.215381 0.127188 0.000000 -0.707107 -0.707107 102 102 102
0.042396 -0.227798 0.139605 0.000000 -0.707107 -0.707107 102 102 102
0.042396 -0.227798 0.139605 0.000001 -0.707107 -0.707107 102 102 102
0.059957 -0.257777 0.169584 0.000001 -0.707107 -0.707107 102 102 102
0.042396 -0.287755 0.199562 0.000001 -0.707107 -0.707107 102 102 102
0.042396 -0.287755 0.199562 0.000000 -0.707106 -0.707108 102 102 102
0.000000 -0.300173 0.211980 0.000000 -0.707106 -0.707108 102 102 102
-0.042396 -0.287755 0.199562 0.000000 -0.707106 -0.707108 102 102 102
-0.042396 -0.287755 0.199562 -0.000001 -0.707107 -0.707107 102 102 102
-0.059957 -0.257777 0.169584 -0.000001 -0.707107 -0.707107 102 102 102
-0.042396 -0.227798 0.139605 -0.000001 -0.707107 -0.707107 102 102 102
0.000000 -0.300173 0.211980 -0.357407 -0.357407 0.862856 102 102 102
0.000000 -0.088193 0.299785 -0.357407 -0.357407 0.862856 102 102 102
-0.042396 -0.088193 0.282224 -0.357407 -0.357407 0.862856 102 102 102
-0.042396 -0.088193 0.282224 -0.912487 -0.156558 0.377964 102 102 102
-0.059957 -0.088193 0.239828 -0.912487 -0.156558 0.377964 102 102 102
-0.059957 -0.257777 0.169584 -0.912487 -0.156558 0.377964 102 102 102
-0.059957 -0.257777 0.169584 -0.912487 0.156558 -0.377964 102 102 102
-0.059957 -0.088193 0.239828 -0.912487 0.156558 -0.377964 102 102 102
-0.042396 -0.088193 0.197432 -0.912487 0.156558 -0.377964 102 102 102
0.000000 -0.088193 0.179871 -0.357407 0.357407 -0.862856 102 102 102
0.042396 -0.088193 0.197432 0.357407 0.357407 -0.862856 102 102 102
0.042396 -0.088193 0.197432 0.912487 0.156558 -0.377964 102 102 102
0.059957 -0.088193 0.239828 0.912487 0.156558 -0.377964 102 102 102
0.059957 -0.257777 0.169584 0.912487 0.156558 -0.377964 102 102 102
0.059957 -0.257777 0.169584 0.912487 -0.156558 0.377964 102 102 102
0.059957 -0.088193 0.239828 0.912487 -0.156558 0.377964 102 102 102
0.042396 -0.088193 0.282224 0.912487 -0.156558 0.377964 102 102 102
0.042396 -0.088193 0.282224 0.357407 -0.357407 0.862856 102 102 102
0.000000 -0.088193 0.299785 0.357407 -0.357407 0.862856 102 102 102
0.000000 -0.300173 0.211980 0.357407 -0.357407 0.862856 102 102 102
0.000000 -0.088193 0.299785 -0.357407 0.357407 0.862856 102 102 102
-0.000000 0.123787 0.211980 -0.357407 0.357407 0.862856 102 102 102
-0.042396 0.111369 0.199562 -0.357407 0.357407 0.862856 102 102 102
-0.059957 0.081391 0.169584 -0.912487 0.156558 0.377965 102 102 102
-0.059957 0.081391 0.169584 -0.912487 -0.156558 -0.377965 102 102 102
-0.000000 0.038995 0.127188 -0.357407 -0.357407 -0.862856 102 102 102
-0.000000 0.038995 0.127188 0.357407 -0.357407 -0.862856 102 102 102
0.059957 0.081391 0.169584 0.912487 -0.156558 -0.377965 102 102 102
0.059957 0.081391 0.169584 0.912487 0.156558 0.377965 102 102 102
0.042396 0.111369 0.199562 0.357407 0.357407 0.862856 102 102 102
-0.000000 0.123787 0.211980 0.357407 0.357407 0.862856 102 102 102
0.000000 -0.088193 0.299785 0.357407 0.357407 0.862856 102 102 102
-0.000000 0.211592 0.000000 -0.357407 0.862856 0.357407 102 102 102
-0.059957 0.151635 0.000000 -0.912487 0.377965 0.156558 102 102 102
-0.059957 0.151635 0.000000 -0.912487 -0.377965 -0.156558 102 102 102
-0.000000 0.091678 0.000000 -0.357407 -0.862856 -0.357407 102 102 102
-0.000000 0.091678 0.000000 0.357407 -0.862856 -0.357407 102 102 102
0.042396 0.109239 0.000000 0.912487 -0.377964 -0.156558 102 102 102
0.059957 0.151635 0.000000 0.912487 -0.377964 -0.156558 102 102 102
0.059957 0.081391 0.169584 0.912487 -0.377964 -0.156558 102 102 102
0.059957 0.151635 0.000000 0.912487 0.377965 0.156558 102 102 102
-0.000000 0.211592 0.000000 0.357407 0.862856 0.357407 102 102 102
-0.042396 0.111369 -0.199562 -0.357407 0.862856 -0.357407 102 102 102
-0.059957 0.081391 -0.169584 -0.912487 0.377965 -0.156558 102 102 102
-0.059957 0.081391 -0.169584 -0.912487 -0.377964 0.156558 102 102 102
-0.042396 0.051412 -0.139605 -0.912487 -0.377964 0.156558 102 102 102
-0.042396 0.109239 0.000000 -0.912487 -0.377964 0.156558 102 102 102
-0.042396 0.051412 -0.139605 -0.357407 -0.862856 0.357407 102 102 102
0.042396 0.051412 -0.139605 0.357407 -0.862856 0.357407 102 102 102
0.042396 0.051412 -0.139605 0.912487 -0.377964 0.156558 102 102 102
0.059957 0.081391 -0.169584 0.912487 0.377965 -0.156558 102 102 102
0.042396 0.111369 -0.199562 0.357407 0.862856 -0.357407 102 102 102
0.000000 -0.088193 -0.299785 -0.357408 0.357407 -0.862856 102 102 102
-0.042396 -0.088193 -0.282224 -0.357408 0.357407 -0.862856 102 102 102
-0.042396 0.111369 -0.199562 -0.357408 0.357407 -0.862856 102 102 102
-0.042396 -0.088193 -0.282224 -0.912487 0.156558 -0.377965 102 102 102
-0.042396 -0.088193 -0.197432 -0.912487 -0.156558 0.377965 102 102 102
-0.042396 -0.088193 -0.197432 -0.357407 -0.357407 0.862856 102 102 102
0.042396 -0.088193 -0.197432 0.357407 -0.357407 0.862856 102 102 102
0.042396 -0.088193 -0.197432 0.912487 -0.156558 0.377965 102 102 102
0.042396 -0.088193 -0.282224 0.912487 0.156558 -0.377965 102 102 102
0.042396 0.111369 -0.199562 0.357408 0.357407 -0.862856 102 102 102
0.042396 -0.088193 -0.282224 0.357408 0.357407 -0.862856 102 102 102
0.000000 -0.088193 -0.299785 0.357408 0.357407 -0.862856 102 102 102
0.000000 -0.300173 -0.211980 -0.357407 -0.357406 -0.862856 102 102 102
-0.042396 -0.287755 -0.199562 -0.357407 -0.357406 -0.862856 102 102 102
-0.042396 -0.088193 -0.282224 -0.357407 -0.357406 -0.862856 102 102 102
-0.042396 -0.287755 -0.199562 -0.912487 -0.156558 -0.377964 102 102 102
-0.059957 -0.088193 -0.239828 -0.912487 0.156558 0.377964 102 102 102
-0.059957 -0.257777 -0.169584 -0.912487 0.156558 0.377964 102 102 102
-0.042396 -0.227798 -0.139605 -0.912487 0.156558 0.377964 102 102 102
0.000000 -0.215381 -0.127188 -0.357407 0.357406 0.862856 102 102 102
0.000000 -0.215381 -0.127188 0.357407 0.357407 0.862856 102 102 102
0.042396 -0.227798 -0.139605 0.912487 0.156558 0.377964 102 102 102
0.059957 -0.257777 -0.169584 0.912487 0.156558 0.377964 102 102 102
0.059957 -0.088193 -0.239828 0.912487 0.156558 0.377964 102 102 102
0.042396 -0.287755 -0.199562 0.912487 -0.156558 -0.377964 102 102 102
0.042396 -0.088193 -0.282224 0.357407 -0.357406 -0.862856 102 102 102
0.042396 -0.287755 -0.199562 0.357407 -0.357406 -0.862856 102 102 102
0.000000 -0.300173 -0.211980 0.357407 -0.357406 -0.862856 102 102 102
0.042396 -0.287755 -0.199562 -0.000000 -0.707107 0.707106 102 102 102
0.059957 -0.257777 -0.169584 -0.000000 -0.707107 0.707106 102 102 102
0.042396 -0.227798 -0.139605 -0.000000 -0.707107 0.707106 102 102 102
0.000000 -0.215381 -0.127188 0.000000 -0.707107 0.707106 102 102 102
-0.042396 -0.287755 -0.199562 0.000000 -0.707107 0.707106 102 102 102
-0.042396 -0.227798 -0.139605 0.000000 -0.707107 0.707106 102 102 102
-0.059957 -0.257777 -0.169584 0.000000 -0.707107 0.707106 102 102 102
-0.042396 -0.287755 -0.199562 -0.357407 -0.357407 -0.862856 102 102 102
0.000000 -0.300173 -0.211980 0.000001 -0.707107 0.707106 102 102 102
0.042396 -0.287755 -0.199562 0.000001 -0.707107 0.707106 102 102 102
0.042396 -0.227798 -0.139605 0.000001 -0.707107 0.707106 102 102 102
3 0 1 2
3 3 4 5
3 6 7 8
3 9 10 11
3 12 13 14
3 15 16 17
3 18 19 20
3 21 22 23
3 24 25 26
3 27 28 29
3 30 31 32
3 33 34 35
3 36 37 38
3 39 40 41
3 42 43 44
3 45 46 47
3 48 49 50
3 51 52 53
3 54 55 56
3 57 58 59
3 60 61 62
3 63 64 65
3 66 67 68
3 69 70 71
3 72 73 74
3 75 76 77
3 78 79 80
3 81 82 83
3 84 85 86
3 87 88 89
3 90 91 92
3 93 94 95
3 96 97 98
3 99 100 101
3 102 103 104
3 105 106 107
3 108 109 110
3 111 112 113
3 114 115 116
3 117 118 119
3 120 121 122
3 123 124 125
3 126 127 128
3 129 130 131
3 132 133 134
3 135 136 137
3 138 139 140
3 141 142 143
3 144 145 146
3 147 148 149
3 2 150 151
3 152 153 154
3 155 156 157
3 158 159 160
3 2 151 0
3 161 162 163
3 164 165 166
3 167 168 169
3 12 170 13
3 15 171 16
3 172 173 174
3 175 176 177
3 178 179 180
3 181 182 183
3 30 184 31
3 33 185 34
3 36 186 37
3 39 187 40
3 42 188 43
3 45 189 46
3 190 191 192
3 51 193 52
3 54 194 55
3 57 195 58
3 60 196 61
3 63 197 64
3 198 199 200
3 69 201 70
3 72 202 73
3 75 203 76
3 78 204 79
3 205 206 207
3 84 208 85
3 87 209 88
3 90 210 91
3 93 211 94
3 96 212 97
3 213 214 215
3 102 216 103
3 105 217 106
3 108 218 109
3 111 219 112
3 114 220 115
3 117 221 118
3 222 223 224
3 225 226 227
3 126 228 127
3 229 230 231
3 132 232 133
3 135 233 136
3 234 235 236
3 141 237 142
3 238 239 240
3 241 242 243
3 243 244 245
3 246 247 245
3 248 125 123
3 249 250 251
3 244 246 245
