ply
format ascii 1.0
comment Created by Blender 2.77 (sub 0) - www.blender.org, source file: 'Sword.blend'
element vertex 160
property float x
property float y
property float z
property float nx
property float ny
property float nz
property uchar red
property uchar green
property uchar blue
element face 76
property list uchar uint vertex_indices
end_header
0.000000 -0.088193 0.299785 -0.357408 0.357407 0.862856 102 102 102
-0.042396 0.111369 0.199562 -0.357408 0.357407 0.862856 102 102 102
-0.042396 -0.088193 0.282224 -0.357408 0.357407 0.862856 102 102 102
-0.042396 0.111369 0.199562 -0.912487 0.156558 0.377965 102 102 102
-0.059957 -0.088193 0.239828 -0.912487 0.156558 0.377965 102 102 102
-0.042396 -0.088193 0.282224 -0.912487 0.156558 0.377965 102 102 102
-0.059957 -0.088193 0.239828 -0.912487 -0.156558 -0.377965 102 102 102
-0.042396 0.051412 0.139605 -0.912487 -0.156558 -0.377965 102 102 102
-0.042396 -0.088193 0.197432 -0.912487 -0.156558 -0.377965 102 102 102
-0.042396 0.051412 0.139605 -0.357407 -0.357407 -0.862856 102 102 102
0.000000 -0.088193 0.179871 -0.357407 -0.357407 -0.862856 102 102 102
-0.042396 -0.088193 0.197432 -0.357407 -0.357407 -0.862856 102 102 102
0.000000 -0.088193 0.179871 0.357407 -0.357407 -0.862856 102 102 102
0.042396 0.051412 0.139605 0.357407 -0.357407 -0.862856 102 102 102
0.042396 -0.088193 0.197432 0.357407 -0.357407 -0.862856 102 102 102
0.042396 0.051412 0.139605 0.912487 -0.156558 -0.377965 102 102 102
0.059957 -0.088193 0.239828 0.912487 -0.156558 -0.377965 102 102 102
0.042396 -0.088193 0.197432 0.912487 -0.156558 -0.377965 102 102 102
0.059957 -0.088193 0.239828 0.912487 0.156558 0.377965 102 102 102
0.042396 0.111369 0.199562 0.912487 0.156558 0.377965 102 102 102
0.042396 -0.088193 0.282224 0.912487 0.156558 0.377965 102 102 102
0.042396 0.111369 0.199562 0.357408 0.357407 0.862856 102 102 102
0.000000 -0.088193 0.299785 0.357408 0.357407 0.862856 102 102 102
0.042396 -0.088193 0.282224 0.357408 0.357407 0.862856 102 102 102
-0.000000 0.123787 0.211980 -0.357407 0.862856 0.357407 102 102 102
-0.042396 0.194031 0.000000 -0.357407 0.862856 0.357407 102 102 102
-0.042396 0.111369 0.199562 -0.357407 0.862856 0.357407 102 102 102
-0.042396 0.194031 0.000000 -0.912487 0.377965 0.156558 102 102 102
-0.059957 0.081391 0.169584 -0.912487 0.377965 0.156558 102 102 102
-0.042396 0.111369 0.199562 -0.912487 0.377965 0.156558 102 102 102
-0.059957 0.081391 0.169584 -0.912487 -0.377965 -0.156558 102 102 102
-0.042396 0.109239 0.000000 -0.912487 -0.377965 -0.156558 102 102 102
-0.042396 0.051412 0.139605 -0.912487 -0.377965 -0.156558 102 102 102
-0.042396 0.109239 0.000000 -0.357407 -0.862856 -0.357407 102 102 102
-0.000000 0.038995 0.127188 -0.357407 -0.862856 -0.357407 102 102 102
-0.042396 0.051412 0.139605 -0.357407 -0.862856 -0.357407 102 102 102
-0.000000 0.038995 0.127188 0.357407 -0.862856 -0.357407 102 102 102
0.042396 0.109239 0.000000 0.357407 -0.862856 -0.357407 102 102 102
0.042396 0.051412 0.139605 0.357407 -0.862856 -0.357407 102 102 102
0.042396 0.109239 0.000000 0.912487 -0.377965 -0.156558 102 102 102
0.059957 0.081391 0.169584 0.912487 -0.377965 -0.156558 102 102 102
0.042396 0.051412 0.139605 0.912487 -0.377965 -0.156558 102 102 102
0.059957 0.081391 0.169584 0.912487 0.377965 0.156558 102 102 102
0.042396 0.194031 0.000000 0.912487 0.377965 0.156558 102 102 102
0.042396 0.111369 0.199562 0.912487 0.377965 0.156558 102 102 102
0.042396 0.194031 0.000000 0.357407 0.862856 0.357407 102 102 102
-0.000000 0.123787 0.211980 0.357407 0.862856 0.357407 102 102 102
0.042396 0.111369 0.199562 0.357407 0.862856 0.357407 102 102 102
-0.000000 0.123787 -0.211980 -0.357407 0.862856 -0.357407 102 102 102
-0.042396 0.194031 0.000000 -0.357407 0.862856 -0.357407 102 102 102
-0.000000 0.211592 0.000000 -0.357407 0.862856 -0.357407 102 102 102
-0.042396 0.111369 -0.199562 -0.912487 0.377965 -0.156558 102 102 102
-0.059957 0.151635 0.000000 -0.912487 0.377965 -0.156558 102 102 102
-0.042396 0.194031 0.000000 -0.912487 0.377965 -0.156558 102 102 102
-0.059957 0.081391 -0.169584 -0.912487 -0.377965 0.156558 102 102 102
-0.042396 0.109239 0.000000 -0.912487 -0.377965 0.156558 102 102 102
-0.059957 0.151635 0.000000 -0.912487 -0.377965 0.156558 102 102 102
-0.042396 0.109239 0.000000 -0.357407 -0.862856 0.357407 102 102 102
-0.000000 0.038995 -0.127188 -0.357407 -0.862856 0.357407 102 102 102
-0.000000 0.091678 0.000000 -0.357407 -0.862856 0.357407 102 102 102
-0.000000 0.038995 -0.127188 0.357407 -0.862856 0.357407 102 102 102
0.042396 0.109239 0.000000 0.357407 -0.862856 0.357407 102 102 102
-0.000000 0.091678 0.000000 0.357407 -0.862856 0.357407 102 102 102
0.042396 0.109239 0.000000 0.912487 -0.377964 0.156558 102 102 102
0.059957 0.081391 -0.169584 0.912487 -0.377964 0.156558 102 102 102
0.059957 0.151635 0.000000 0.912487 -0.377964 0.156558 102 102 102
0.059957 0.151635 0.000000 0.912487 0.377965 -0.156558 102 102 102
0.042396 0.111369 -0.199562 0.912487 0.377965 -0.156558 102 102 102
0.042396 0.194031 0.000000 0.912487 0.377965 -0.156558 102 102 102
0.042396 0.194031 0.000000 0.357407 0.862856 -0.357407 102 102 102
-0.000000 0.123787 -0.211980 0.357407 0.862856 -0.357407 102 102 102
-0.000000 0.211592 0.000000 0.357407 0.862856 -0.357407 102 102 102
0.000000 -0.088193 -0.299785 -0.357407 0.357407 -0.862856 102 102 102
-0.042396 0.111369 -0.199562 -0.357407 0.357407 -0.862856 102 102 102
-0.000000 0.123787 -0.211980 -0.357407 0.357407 -0.862856 102 102 102
-0.042396 0.111369 -0.199562 -0.912487 0.156558 -0.377965 102 102 102
-0.059957 -0.088193 -0.239828 -0.912487 0.156558 -0.377965 102 102 102
-0.059957 0.081391 -0.169584 -0.912487 0.156558 -0.377965 102 102 102
-0.059957 -0.088193 -0.239828 -0.912487 -0.156558 0.377965 102 102 102
-0.042396 0.051412 -0.139605 -0.912487 -0.156558 0.377965 102 102 102
-0.059957 0.081391 -0.169584 -0.912487 -0.156558 0.377965 102 102 102
-0.042396 0.051412 -0.139605 -0.357407 -0.357407 0.862856 102 102 102
0.000000 -0.088193 -0.179871 -0.357407 -0.357407 0.862856 102 102 102
-0.000000 0.038995 -0.127188 -0.357407 -0.357407 0.862856 102 102 102
0.000000 -0.088193 -0.179871 0.357407 -0.357407 0.862856 102 102 102
0.042396 0.051412 -0.139605 0.357407 -0.357407 0.862856 102 102 102
-0.000000 0.038995 -0.127188 0.357407 -0.357407 0.862856 102 102 102
0.042396 0.051412 -0.139605 0.912487 -0.156558 0.377965 102 102 102
0.059957 -0.088193 -0.239828 0.912487 -0.156558 0.377965 102 102 102
0.059957 0.081391 -0.169584 0.912487 -0.156558 0.377965 102 102 102
0.059957 -0.088193 -0.239828 0.912487 0.156558 -0.377965 102 102 102
0.042396 0.111369 -0.199562 0.912487 0.156558 -0.377965 102 102 102
0.059957 0.081391 -0.169584 0.912487 0.156558 -0.377965 102 102 102
0.042396 0.111369 -0.199562 0.357407 0.357407 -0.862856 102 102 102
0.000000 -0.088193 -0.299785 0.357407 0.357407 -0.862856 102 102 102
-0.000000 0.123787 -0.211980 0.357407 0.357407 -0.862856 102 102 102
0.042396 -0.088193 0.282224 0.000000 -1.000000 -0.000000 102 102 102
-0.042396 -0.088193 0.282224 0.000000 -1.000000 -0.000000 102 102 102
-0.042396 -0.088193 0.197432 0.000000 -1.000000 -0.000000 102 102 102
-0.042396 -0.088193 -0.282224 0.000000 -1.000000 0.000000 102 102 102
0.042396 -0.088193 -0.282224 0.000000 -1.000000 0.000000 102 102 102
0.042396 -0.088193 -0.197432 0.000000 -1.000000 0.000000 102 102 102
0.000000 -0.088193 0.299785 -0.357407 0.357407 0.862856 102 102 102
-0.000000 0.123787 0.211980 -0.357407 0.357407 0.862856 102 102 102
-0.042396 0.111369 0.199562 -0.357407 0.357407 0.862856 102 102 102
-0.059957 0.081391 0.169584 -0.912487 0.156558 0.377965 102 102 102
-0.059957 0.081391 0.169584 -0.912487 -0.156558 -0.377965 102 102 102
-0.000000 0.038995 0.127188 -0.357407 -0.357407 -0.862856 102 102 102
-0.000000 0.038995 0.127188 0.357407 -0.357407 -0.862856 102 102 102
0.059957 0.081391 0.169584 0.912487 -0.156558 -0.377965 102 102 102
0.059957 0.081391 0.169584 0.912487 0.156558 0.377965 102 102 102
0.042396 0.111369 0.199562 0.357407 0.357407 0.862856 102 102 102
-0.000000 0.123787 0.211980 0.357407 0.357407 0.862856 102 102 102
0.000000 -0.088193 0.299785 0.357407 0.357407 0.862856 102 102 102
-0.000000 0.211592 0.000000 -0.357407 0.862856 0.357407 102 102 102
-0.059957 0.151635 0.000000 -0.912487 0.377965 0.156558 102 102 102
-0.059957 0.151635 0.000000 -0.912487 -0.377965 -0.156558 102 102 102
-0.000000 0.091678 0.000000 -0.357407 -0.862856 -0.357407 102 102 102
-0.000000 0.091678 0.000000 0.357407 -0.862856 -0.357407 102 102 102
0.042396 0.109239 0.000000 0.912487 -0.377964 -0.156558 102 102 102
0.059957 0.151635 0.000000 0.912487 -0.377964 -0.156558 102 102 102
0.059957 0.081391 0.169584 0.912487 -0.377964 -0.156558 102 102 102
0.059957 0.151635 0.000000 0.912487 0.377965 0.156558 102 102 102
-0.000000 0.211592 0.000000 0.357407 0.862856 0.357407 102 102 102
-0.042396 0.111369 -0.199562 -0.357407 0.862856 -0.357407 102 102 102
-0.059957 0.081391 -0.169584 -0.912487 0.377965 -0.156558 102 102 102
-0.059957 0.081391 -0.169584 -0.912487 -0.377964 0.156558 102 102 102
-0.042396 0.051412 -0.139605 -0.912487 -0.377964 0.156558 102 102 102
-0.042396 0.109239 0.000000 -0.912487 -0.377964 0.156558 102 102 102
-0.042396 0.051412 -0.139605 -0.357407 -0.862856 0.357407 102 102 102
0.042396 0.051412 -0.139605 0.357407 -0.862856 0.357407 102 102 102
0.042396 0.051412 -0.139605 0.912487 -0.377964 0.156558 102 102 102
0.059957 0.081391 -0.169584 0.912487 0.377965 -0.156558 102 102 102
0.042396 0.111369 -0.199562 0.357407 0.862856 -0.357407 102 102 102
0.000000 -0.088193 -0.299785 -0.357408 0.357407 -0.862856 102 102 102
-0.042396 -0.088193 -0.282224 -0.357408 0.357407 -0.862856 102 102 102
-0.042396 0.111369 -0.199562 -0.357408 0.357407 -0.862856 102 102 102
-0.042396 -0.088193 -0.282224 -0.912487 0.156558 -0.377965 102 102 102
-0.042396 -0.088193 -0.197432 -0.912487 -0.156558 0.377965 102 102 102
-0.042396 -0.088193 -0.197432 -0.357407 -0.357407 0.862856 102 102 102
0.042396 -0.088193 -0.197432 0.357407 -0.357407 0.862856 102 102 102
0.042396 -0.088193 -0.197432 0.912487 -0.156558 0.377965 102 102 102
0.042396 -0.088193 -0.282224 0.912487 0.156558 -0.377965 102 102 102
0.042396 0.111369 -0.199562 0.357408 0.357407 -0.862856 102 102 102
0.042396 -0.088193 -0.282224 0.357408 0.357407 -0.862856 102 102 102
0.000000 -0.088193 -0.299785 0.357408 0.357407 -0.862856 102 102 102
0.000000 -0.088193 0.179871 0.000000 -1.000000 0.000000 102 102 102
0.042396 -0.088193 0.197432 0.000000 -1.000000 0.000000 102 102 102
0.059957 -0.088193 0.239828 0.000000 -1.000000 -0.000000 102 102 102
0.042396 -0.088193 0.282224 0.000000 -1.000000 0.000002 102 102 102
0.000000 -0.088193 0.299785 0.000000 -1.000000 0.000002 102 102 102
-0.042396 -0.088193 0.282224 0.000000 -1.000000 0.000002 102 102 102
-0.059957 -0.088193 0.239828 -0.000000 -1.000000 -0.000000 102 102 102
0.000000 -0.088193 -0.179871 0.000000 -1.000000 -0.000000 102 102 102
-0.042396 -0.088193 -0.197432 0.000000 -1.000000 -0.000000 102 102 102
-0.059957 -0.088193 -0.239828 -0.000000 -1.000000 0.000000 102 102 102
-0.042396 -0.088193 -0.282224 0.000000 -1.000000 -0.000002 102 102 102
0.000000 -0.088193 -0.299785 0.000000 -1.000000 -0.000002 102 102 102
0.042396 -0.088193 -0.282224 0.000000 -1.000000 -0.000002 102 102 102
0.059957 -0.088193 -0.239828 0.000000 -1.000000 0.000000 102 102 102
3 0 1 2
3 3 4 5
3 6 7 8
3 9 10 11
3 12 13 14
3 15 16 17
3 18 19 20
3 21 22 23
3 24 25 26
3 27 28 29
3 30 31 32
3 33 34 35
3 36 37 38
3 39 40 41
3 42 43 44
3 45 46 47
3 48 49 50
3 51 52 53
3 54 55 56
3 57 58 59
3 60 61 62
3 63 64 65
3 66 67 68
3 69 70 71
3 72 73 74
3 75 76 77
3 78 79 80
3 81 82 83
3 84 85 86
3 87 88 89
3 90 91 92
3 93 94 95
3 96 97 98
3 99 100 101
3 102 103 104
3 3 105 4
3 6 106 7
3 9 107 10
3 12 108 13
3 15 109 16
3 18 110 19
3 111 112 113
3 24 114 25
3 27 115 28
3 30 116 31
3 33 117 34
3 36 118 37
3 119 120 121
3 42 122 43
3 45 123 46
3 48 124 49
3 51 125 52
3 126 127 128
3 57 129 58
3 60 130 61
3 63 131 64
3 66 132 67
3 69 133 70
3 134 135 136
3 75 137 76
3 78 138 79
3 81 139 82
3 84 140 85
3 87 141 88
3 90 142 91
3 143 144 145
3 98 146 147
3 147 148 96
3 149 150 151
3 97 152 98
3 98 147 96
3 101 153 154
3 154 155 99
3 156 157 158
3 100 159 101
3 101 154 99
