ply
format ascii 1.0
comment Created by Blender 2.77 (sub 0) - www.blender.org, source file: 'Ruins.blend'
element vertex 208
property float x
property float y
property float z
property float nx
property float ny
property float nz
property uchar red
property uchar green
property uchar blue
element face 80
property list uchar uint vertex_indices
end_header
1.468595 0.500000 0.000000 0.917820 0.252997 -0.305940 255 255 255
0.849546 1.718459 -0.849546 0.917820 0.252997 -0.305940 255 255 255
1.132728 1.718459 0.000000 0.917820 0.252997 -0.305940 255 255 255
1.468595 0.500000 0.000000 0.917820 0.252997 0.305940 255 255 255
0.849546 1.718459 0.849546 0.917820 0.252997 0.305940 255 255 255
1.101446 0.500000 1.101446 0.917820 0.252997 0.305940 255 255 255
1.468595 0.500000 0.000000 0.883628 -0.186345 0.429508 255 255 255
0.903563 -0.096695 0.903563 0.883628 -0.186345 0.429508 255 255 255
1.298719 -0.305538 0.000000 0.883628 -0.186345 0.429508 255 255 255
1.468595 0.500000 0.000000 0.874830 -0.386829 -0.291610 255 255 255
0.903563 -0.096695 -0.903563 0.874830 -0.386829 -0.291610 255 255 255
1.101446 0.500000 -1.101446 0.874830 -0.386829 -0.291610 255 255 255
0.000000 0.500000 1.468595 0.305940 0.252997 0.917820 255 255 255
0.849546 1.718459 0.849546 0.305940 0.252997 0.917820 255 255 255
0.000000 1.718459 1.132728 0.305940 0.252997 0.917820 255 255 255
0.000000 0.500000 1.468595 -0.305940 0.252997 0.917820 255 255 255
-0.849546 1.718459 0.849546 -0.305940 0.252997 0.917820 255 255 255
-1.101446 0.500000 1.101446 -0.305940 0.252997 0.917820 255 255 255
0.000000 0.500000 1.468595 -0.429508 -0.186345 0.883628 255 255 255
-0.903563 -0.096695 0.903563 -0.429508 -0.186345 0.883628 255 255 255
0.000000 -0.305538 1.298719 -0.429508 -0.186345 0.883628 255 255 255
0.000000 0.500000 1.468595 0.291610 -0.386829 0.874830 255 255 255
0.903563 -0.096695 0.903563 0.291610 -0.386829 0.874830 255 255 255
1.101446 0.500000 1.101446 0.291610 -0.386829 0.874830 255 255 255
-1.468595 0.500000 0.000000 -0.917820 0.252997 0.305940 255 255 255
-0.849546 1.718459 0.849546 -0.917820 0.252997 0.305940 255 255 255
-1.132728 1.718459 0.000000 -0.917820 0.252997 0.305940 255 255 255
-1.468595 0.500000 0.000000 -0.917820 0.252997 -0.305940 255 255 255
-0.849546 1.718459 -0.849546 -0.917820 0.252997 -0.305940 255 255 255
-1.101446 0.500000 -1.101446 -0.917820 0.252997 -0.305940 255 255 255
-1.468595 0.500000 0.000000 -0.883628 -0.186345 -0.429508 255 255 255
-0.903563 -0.096695 -0.903563 -0.883628 -0.186345 -0.429508 255 255 255
-1.298719 -0.305538 0.000000 -0.883628 -0.186345 -0.429508 255 255 255
-1.468595 0.500000 0.000000 -0.874830 -0.386829 0.291610 255 255 255
-0.903563 -0.096695 0.903563 -0.874830 -0.386829 0.291610 255 255 255
-1.101446 0.500000 1.101446 -0.874830 -0.386829 0.291610 255 255 255
0.000000 0.500000 -1.468595 -0.305940 0.252997 -0.917820 255 255 255
-0.849546 1.718459 -0.849546 -0.305940 0.252997 -0.917820 255 255 255
0.000000 1.718459 -1.132728 -0.305940 0.252997 -0.917820 255 255 255
0.000000 0.500000 -1.468595 0.305940 0.252997 -0.917820 255 255 255
0.849546 1.718459 -0.849546 0.305940 0.252997 -0.917820 255 255 255
1.101446 0.500000 -1.101446 0.305940 0.252997 -0.917820 255 255 255
0.000000 0.500000 -1.468595 0.429508 -0.186345 -0.883628 255 255 255
0.903563 -0.096695 -0.903563 0.429508 -0.186345 -0.883628 255 255 255
0.000000 -0.305538 -1.298719 0.429508 -0.186345 -0.883628 255 255 255
0.000000 0.500000 -1.468595 -0.291610 -0.386829 -0.874830 255 255 255
-0.903563 -0.096695 -0.903563 -0.291610 -0.386829 -0.874830 255 255 255
-1.101446 0.500000 -1.101446 -0.291610 -0.386829 -0.874830 255 255 255
0.000000 -0.574051 0.000000 0.193121 -0.934073 -0.300353 255 255 255
0.903563 -0.096695 -0.903563 0.193121 -0.934073 -0.300353 255 255 255
1.298719 -0.305538 0.000000 0.193121 -0.934073 -0.300353 255 255 255
0.000000 -0.574051 0.000000 0.300353 -0.934073 0.193121 255 255 255
0.903563 -0.096695 0.903563 0.300353 -0.934073 0.193121 255 255 255
0.000000 -0.305538 1.298719 0.300353 -0.934073 0.193121 255 255 255
0.000000 -0.574051 0.000000 -0.193121 -0.934073 0.300353 255 255 255
-0.903563 -0.096695 0.903563 -0.193121 -0.934073 0.300353 255 255 255
-1.298719 -0.305538 0.000000 -0.193121 -0.934073 0.300353 255 255 255
0.000000 -0.574051 0.000000 -0.300353 -0.934073 -0.193121 255 255 255
-0.903563 -0.096695 -0.903563 -0.300353 -0.934073 -0.193121 255 255 255
0.000000 -0.305538 -1.298719 -0.300353 -0.934073 -0.193121 255 255 255
-0.685660 3.225735 0.685660 -0.313279 0.136251 0.939836 255 255 255
0.000000 1.718459 1.132728 -0.313279 0.136251 0.939836 255 255 255
0.000000 3.225735 0.914213 -0.313279 0.136251 0.939836 255 255 255
0.000000 1.718459 1.132728 0.313279 0.136251 0.939836 255 255 255
0.685660 3.225735 0.685660 0.313279 0.136251 0.939836 255 255 255
0.000000 3.225735 0.914213 0.313279 0.136251 0.939836 255 255 255
0.000000 3.225735 0.914213 0.401391 0.221317 0.888765 255 255 255
0.472376 4.143338 0.472376 0.401391 0.221317 0.888765 255 255 255
0.000000 4.464498 0.605740 0.401391 0.221317 0.888765 255 255 255
0.000000 3.225735 0.914213 -0.303387 0.282071 0.910161 255 255 255
-0.472376 4.143338 0.472376 -0.303387 0.282071 0.910161 255 255 255
-0.685660 3.225735 0.685660 -0.303387 0.282071 0.910161 255 255 255
0.000000 4.464498 -0.605740 -0.490763 0.719932 -0.490763 255 255 255
-0.605740 4.464498 0.000000 -0.490763 0.719932 -0.490763 255 255 255
0.000000 4.877419 0.000000 -0.490763 0.719932 -0.490763 255 255 255
-0.605740 4.464498 0.000000 -0.490763 0.719932 0.490763 255 255 255
0.000000 4.464498 0.605740 -0.490763 0.719932 0.490763 255 255 255
0.000000 4.877419 0.000000 -0.490763 0.719932 0.490763 255 255 255
0.000000 4.464498 0.605740 0.490763 0.719932 0.490763 255 255 255
0.605740 4.464498 0.000000 0.490763 0.719932 0.490763 255 255 255
0.000000 4.877419 0.000000 0.490763 0.719932 0.490763 255 255 255
0.605740 4.464498 0.000000 0.490763 0.719932 -0.490763 255 255 255
0.000000 4.464498 -0.605740 0.490763 0.719932 -0.490763 255 255 255
0.000000 4.877419 0.000000 0.490763 0.719932 -0.490763 255 255 255
-0.685660 3.225735 -0.685660 -0.939836 0.136251 -0.313279 255 255 255
-1.132728 1.718459 0.000000 -0.939836 0.136251 -0.313279 255 255 255
-0.914213 3.225735 0.000000 -0.939836 0.136251 -0.313279 255 255 255
-1.132728 1.718459 0.000000 -0.939836 0.136251 0.313279 255 255 255
-0.685660 3.225735 0.685660 -0.939836 0.136251 0.313279 255 255 255
-0.914213 3.225735 0.000000 -0.939836 0.136251 0.313279 255 255 255
-0.914213 3.225735 0.000000 -0.888765 0.221317 0.401391 255 255 255
-0.472376 4.143338 0.472376 -0.888765 0.221317 0.401391 255 255 255
-0.605740 4.464498 0.000000 -0.888765 0.221317 0.401391 255 255 255
-0.914213 3.225735 0.000000 -0.910161 0.282071 -0.303387 255 255 255
-0.472376 4.143338 -0.472376 -0.910161 0.282071 -0.303387 255 255 255
-0.685660 3.225735 -0.685660 -0.910161 0.282071 -0.303387 255 255 255
0.685660 3.225735 0.685660 0.939836 0.136251 0.313279 255 255 255
1.132728 1.718459 0.000000 0.939836 0.136251 0.313279 255 255 255
0.914213 3.225735 0.000000 0.939836 0.136251 0.313279 255 255 255
1.132728 1.718459 0.000000 0.939836 0.136251 -0.313279 255 255 255
0.685660 3.225735 -0.685660 0.939836 0.136251 -0.313279 255 255 255
0.914213 3.225735 0.000000 0.939836 0.136251 -0.313279 255 255 255
0.914213 3.225735 0.000000 0.888765 0.221317 -0.401391 255 255 255
0.472376 4.143338 -0.472376 0.888765 0.221317 -0.401391 255 255 255
0.605740 4.464498 0.000000 0.888765 0.221317 -0.401391 255 255 255
0.914213 3.225735 0.000000 0.910161 0.282071 0.303387 255 255 255
0.472376 4.143338 0.472376 0.910161 0.282071 0.303387 255 255 255
0.685660 3.225735 0.685660 0.910161 0.282071 0.303387 255 255 255
0.685660 3.225735 -0.685660 0.313279 0.136251 -0.939836 255 255 255
0.000000 1.718459 -1.132728 0.313279 0.136251 -0.939836 255 255 255
0.000000 3.225735 -0.914213 0.313279 0.136251 -0.939836 255 255 255
0.000000 1.718459 -1.132728 -0.313279 0.136251 -0.939836 255 255 255
-0.685660 3.225735 -0.685660 -0.313279 0.136251 -0.939836 255 255 255
0.000000 3.225735 -0.914213 -0.313279 0.136251 -0.939836 255 255 255
0.000000 3.225735 -0.914213 -0.401391 0.221317 -0.888765 255 255 255
-0.472376 4.143338 -0.472376 -0.401391 0.221317 -0.888765 255 255 255
0.000000 4.464498 -0.605740 -0.401391 0.221317 -0.888765 255 255 255
0.000000 3.225735 -0.914213 0.303387 0.282071 -0.910161 255 255 255
0.472376 4.143338 -0.472376 0.303387 0.282071 -0.910161 255 255 255
0.685660 3.225735 -0.685660 0.303387 0.282071 -0.910161 255 255 255
1.101446 0.500000 -1.101446 0.917820 0.252997 -0.305940 255 255 255
1.132728 1.718459 0.000000 0.917820 0.252997 0.305940 255 255 255
1.468595 0.500000 0.000000 0.874830 -0.386829 0.291610 255 255 255
1.101446 0.500000 1.101446 0.874830 -0.386829 0.291610 255 255 255
0.903563 -0.096695 0.903563 0.874830 -0.386829 0.291610 255 255 255
1.468595 0.500000 0.000000 0.883628 -0.186345 -0.429508 255 255 255
1.298719 -0.305538 0.000000 0.883628 -0.186345 -0.429508 255 255 255
0.903563 -0.096695 -0.903563 0.883628 -0.186345 -0.429508 255 255 255
1.101446 0.500000 1.101446 0.305940 0.252997 0.917820 255 255 255
0.000000 1.718459 1.132728 -0.305940 0.252997 0.917820 255 255 255
0.000000 0.500000 1.468595 -0.291610 -0.386829 0.874830 255 255 255
-1.101446 0.500000 1.101446 -0.291610 -0.386829 0.874830 255 255 255
-0.903563 -0.096695 0.903563 -0.291610 -0.386829 0.874830 255 255 255
0.000000 0.500000 1.468595 0.429508 -0.186345 0.883628 255 255 255
0.000000 -0.305538 1.298719 0.429508 -0.186345 0.883628 255 255 255
0.903563 -0.096695 0.903563 0.429508 -0.186345 0.883628 255 255 255
-1.101446 0.500000 1.101446 -0.917820 0.252997 0.305940 255 255 255
-1.132728 1.718459 0.000000 -0.917820 0.252997 -0.305940 255 255 255
-1.468595 0.500000 0.000000 -0.874830 -0.386829 -0.291610 255 255 255
-1.101446 0.500000 -1.101446 -0.874830 -0.386829 -0.291610 255 255 255
-0.903563 -0.096695 -0.903563 -0.874830 -0.386829 -0.291610 255 255 255
-1.468595 0.500000 0.000000 -0.883628 -0.186345 0.429508 255 255 255
-1.298719 -0.305538 0.000000 -0.883628 -0.186345 0.429508 255 255 255
-0.903563 -0.096695 0.903563 -0.883628 -0.186345 0.429508 255 255 255
-1.101446 0.500000 -1.101446 -0.305940 0.252997 -0.917820 255 255 255
0.000000 1.718459 -1.132728 0.305940 0.252997 -0.917820 255 255 255
0.000000 0.500000 -1.468595 0.291610 -0.386829 -0.874830 255 255 255
1.101446 0.500000 -1.101446 0.291610 -0.386829 -0.874830 255 255 255
0.903563 -0.096695 -0.903563 0.291610 -0.386829 -0.874830 255 255 255
0.000000 0.500000 -1.468595 -0.429508 -0.186345 -0.883628 255 255 255
0.000000 -0.305538 -1.298719 -0.429508 -0.186345 -0.883628 255 255 255
-0.903563 -0.096695 -0.903563 -0.429508 -0.186345 -0.883628 255 255 255
0.000000 -0.574051 0.000000 0.300353 -0.934073 -0.193121 255 255 255
0.000000 -0.305538 -1.298719 0.300353 -0.934073 -0.193121 255 255 255
0.903563 -0.096695 -0.903563 0.300353 -0.934073 -0.193121 255 255 255
0.000000 -0.574051 0.000000 0.193121 -0.934073 0.300353 255 255 255
1.298719 -0.305538 0.000000 0.193121 -0.934073 0.300353 255 255 255
0.903563 -0.096695 0.903563 0.193121 -0.934073 0.300353 255 255 255
0.000000 -0.574051 0.000000 -0.300353 -0.934073 0.193121 255 255 255
0.000000 -0.305538 1.298719 -0.300353 -0.934073 0.193121 255 255 255
-0.903563 -0.096695 0.903563 -0.300353 -0.934073 0.193121 255 255 255
0.000000 -0.574051 0.000000 -0.193121 -0.934073 -0.300353 255 255 255
-1.298719 -0.305538 0.000000 -0.193121 -0.934073 -0.300353 255 255 255
-0.903563 -0.096695 -0.903563 -0.193121 -0.934073 -0.300353 255 255 255
-0.849546 1.718459 0.849546 -0.313279 0.136251 0.939836 255 255 255
0.849546 1.718459 0.849546 0.313279 0.136251 0.939836 255 255 255
0.000000 3.225735 0.914213 0.303387 0.282071 0.910161 255 255 255
0.685660 3.225735 0.685660 0.303387 0.282071 0.910161 255 255 255
0.472376 4.143338 0.472376 0.303387 0.282071 0.910161 255 255 255
0.000000 3.225735 0.914213 -0.401391 0.221317 0.888765 255 255 255
0.000000 4.464498 0.605740 -0.401391 0.221317 0.888765 255 255 255
-0.472376 4.143338 0.472376 -0.401391 0.221317 0.888765 255 255 255
0.000000 4.464498 -0.605740 -0.566660 0.598158 -0.566660 255 255 255
-0.472376 4.143338 -0.472376 -0.566660 0.598158 -0.566660 255 255 255
-0.605740 4.464498 0.000000 -0.566660 0.598158 -0.566660 255 255 255
-0.605740 4.464498 0.000000 -0.566660 0.598158 0.566660 255 255 255
-0.472376 4.143338 0.472376 -0.566660 0.598158 0.566660 255 255 255
0.000000 4.464498 0.605740 -0.566660 0.598158 0.566660 255 255 255
0.000000 4.464498 0.605740 0.566660 0.598158 0.566660 255 255 255
0.472376 4.143338 0.472376 0.566660 0.598158 0.566660 255 255 255
0.605740 4.464498 0.000000 0.566660 0.598158 0.566660 255 255 255
0.605740 4.464498 0.000000 0.566660 0.598158 -0.566660 255 255 255
0.472376 4.143338 -0.472376 0.566660 0.598158 -0.566660 255 255 255
0.000000 4.464498 -0.605740 0.566660 0.598158 -0.566660 255 255 255
-0.849546 1.718459 -0.849546 -0.939836 0.136251 -0.313279 255 255 255
-0.849546 1.718459 0.849546 -0.939836 0.136251 0.313279 255 255 255
-0.914213 3.225735 0.000000 -0.910161 0.282071 0.303387 255 255 255
-0.685660 3.225735 0.685660 -0.910161 0.282071 0.303387 255 255 255
-0.472376 4.143338 0.472376 -0.910161 0.282071 0.303387 255 255 255
-0.914213 3.225735 0.000000 -0.888765 0.221317 -0.401391 255 255 255
-0.605740 4.464498 0.000000 -0.888765 0.221317 -0.401391 255 255 255
-0.472376 4.143338 -0.472376 -0.888765 0.221317 -0.401391 255 255 255
0.849546 1.718459 0.849546 0.939836 0.136251 0.313279 255 255 255
0.849546 1.718459 -0.849546 0.939836 0.136251 -0.313279 255 255 255
0.914213 3.225735 0.000000 0.910161 0.282071 -0.303387 255 255 255
0.685660 3.225735 -0.685660 0.910161 0.282071 -0.303387 255 255 255
0.472376 4.143338 -0.472376 0.910161 0.282071 -0.303387 255 255 255
0.914213 3.225735 0.000000 0.888765 0.221317 0.401391 255 255 255
0.605740 4.464498 0.000000 0.888765 0.221317 0.401391 255 255 255
0.472376 4.143338 0.472376 0.888765 0.221317 0.401391 255 255 255
0.849546 1.718459 -0.849546 0.313279 0.136251 -0.939836 255 255 255
-0.849546 1.718459 -0.849546 -0.313279 0.136251 -0.939836 255 255 255
0.000000 3.225735 -0.914213 -0.303387 0.282071 -0.910161 255 255 255
-0.685660 3.225735 -0.685660 -0.303387 0.282071 -0.910161 255 255 255
-0.472376 4.143338 -0.472376 -0.303387 0.282071 -0.910161 255 255 255
0.000000 3.225735 -0.914213 0.401391 0.221317 -0.888765 255 255 255
0.000000 4.464498 -0.605740 0.401391 0.221317 -0.888765 255 255 255
0.472376 4.143338 -0.472376 0.401391 0.221317 -0.888765 255 255 255
3 0 1 2
3 3 4 5
3 6 7 8
3 9 10 11
3 12 13 14
3 15 16 17
3 18 19 20
3 21 22 23
3 24 25 26
3 27 28 29
3 30 31 32
3 33 34 35
3 36 37 38
3 39 40 41
3 42 43 44
3 45 46 47
3 48 49 50
3 51 52 53
3 54 55 56
3 57 58 59
3 60 61 62
3 63 64 65
3 66 67 68
3 69 70 71
3 72 73 74
3 75 76 77
3 78 79 80
3 81 82 83
3 84 85 86
3 87 88 89
3 90 91 92
3 93 94 95
3 96 97 98
3 99 100 101
3 102 103 104
3 105 106 107
3 108 109 110
3 111 112 113
3 114 115 116
3 117 118 119
3 0 120 1
3 3 121 4
3 122 123 124
3 125 126 127
3 12 128 13
3 15 129 16
3 130 131 132
3 133 134 135
3 24 136 25
3 27 137 28
3 138 139 140
3 141 142 143
3 36 144 37
3 39 145 40
3 146 147 148
3 149 150 151
3 152 153 154
3 155 156 157
3 158 159 160
3 161 162 163
3 60 164 61
3 63 165 64
3 166 167 168
3 169 170 171
3 172 173 174
3 175 176 177
3 178 179 180
3 181 182 183
3 84 184 85
3 87 185 88
3 186 187 188
3 189 190 191
3 96 192 97
3 99 193 100
3 194 195 196
3 197 198 199
3 108 200 109
3 111 201 112
3 202 203 204
3 205 206 207
