ply
format ascii 1.0
comment Created by Blender 2.77 (sub 0) - www.blender.org, source file: 'Sheep.blend'
element vertex 144
property float x
property float y
property float z
property float nx
property float ny
property float nz
property uchar red
property uchar green
property uchar blue
element face 48
property list uchar uint vertex_indices
end_header
0.035210 -0.321441 -0.145238 0.126926 -0.978786 0.160837 255 0 255
0.209231 -0.275008 0.000000 0.126926 -0.978786 0.160837 255 0 255
0.093622 -0.226541 0.386182 0.126926 -0.978786 0.160837 255 0 255
0.035210 -0.321441 -0.145238 0.063628 -0.983619 0.168658 255 0 255
0.093622 -0.226541 0.386182 0.063628 -0.983619 0.168658 255 0 255
-0.166718 -0.309599 -0.000000 0.063628 -0.983619 0.168658 255 0 255
0.093622 -0.226541 0.386182 0.583136 -0.490741 0.647399 255 0 255
0.273887 -0.169966 0.266696 0.583136 -0.490741 0.647399 255 0 255
0.233928 0.000000 0.431526 0.583136 -0.490741 0.647399 255 0 255
-0.337291 -0.169337 -0.148911 -0.920016 -0.079023 -0.383831 255 0 255
-0.415449 0.017325 0.000000 -0.920016 -0.079023 -0.383831 255 0 255
-0.233928 0.000000 -0.431526 -0.920016 -0.079023 -0.383831 255 0 255
0.001440 -0.169338 -0.475944 0.381607 -0.294059 -0.876302 255 0 255
0.000000 0.000000 -0.533396 0.381607 -0.294059 -0.876302 255 0 255
0.233928 0.000000 -0.431526 0.381607 -0.294059 -0.876302 255 0 255
0.093622 -0.226541 0.386182 0.366682 -0.395639 0.842030 255 0 255
0.233928 0.000000 0.431526 0.366682 -0.395639 0.842030 255 0 255
0.000000 0.000000 0.533396 0.366682 -0.395639 0.842030 255 0 255
-0.209899 -0.169337 0.383911 -0.900005 -0.231551 0.369290 255 0 255
-0.233928 0.000000 0.431526 -0.900005 -0.231551 0.369290 255 0 255
-0.415449 0.017325 0.000000 -0.900005 -0.231551 0.369290 255 0 255
-0.001440 0.169338 -0.475944 -0.497038 0.704847 -0.506107 255 0 255
-0.338181 0.169337 -0.145238 -0.497038 0.704847 -0.506107 255 0 255
-0.064654 0.275009 -0.266695 -0.497038 0.704847 -0.506107 255 0 255
0.337291 0.169337 -0.148911 0.366732 0.849249 -0.379847 255 0 255
-0.001440 0.169338 -0.475944 0.366732 0.849249 -0.379847 255 0 255
0.166718 0.309599 0.000000 0.366732 0.849249 -0.379847 255 0 255
0.209899 0.169337 0.383911 0.710110 0.683315 0.169779 255 0 255
0.337291 0.169337 -0.148911 0.710110 0.683315 0.169779 255 0 255
0.166718 0.309599 0.000000 0.710110 0.683315 0.169779 255 0 255
-0.207566 0.169337 0.386182 0.002914 0.844657 0.535299 255 0 255
0.209899 0.169337 0.383911 0.002914 0.844657 0.535299 255 0 255
-0.035210 0.321441 0.145238 0.002914 0.844657 0.535299 255 0 255
-0.338181 0.169337 -0.145238 -0.737374 0.650718 0.181235 255 0 255
-0.207566 0.169337 0.386182 -0.737374 0.650718 0.181235 255 0 255
-0.209231 0.275008 0.000000 -0.737374 0.650718 0.181235 255 0 255
-0.209231 0.275008 0.000000 -0.432068 0.869388 0.239753 255 0 255
-0.207566 0.169337 0.386182 -0.432068 0.869388 0.239753 255 0 255
-0.035210 0.321441 0.145238 -0.432068 0.869388 0.239753 255 0 255
-0.035210 0.321441 0.145238 0.271617 0.913409 0.303165 255 0 255
0.209899 0.169337 0.383911 0.271617 0.913409 0.303165 255 0 255
0.166718 0.309599 0.000000 0.271617 0.913409 0.303165 255 0 255
0.166718 0.309599 0.000000 -0.021199 0.993652 -0.110485 255 0 255
-0.064654 0.275009 -0.266695 -0.021199 0.993652 -0.110485 255 0 255
-0.035210 0.321441 0.145238 -0.021199 0.993652 -0.110485 255 0 255
0.166718 0.309599 0.000000 0.284783 0.887539 -0.362178 255 0 255
-0.001440 0.169338 -0.475944 0.284783 0.887539 -0.362178 255 0 255
-0.064654 0.275009 -0.266695 0.284783 0.887539 -0.362178 255 0 255
-0.064654 0.275009 -0.266695 -0.179823 0.978857 -0.097480 255 0 255
-0.209231 0.275008 0.000000 -0.179823 0.978857 -0.097480 255 0 255
-0.035210 0.321441 0.145238 -0.179823 0.978857 -0.097480 255 0 255
-0.064654 0.275009 -0.266695 -0.440372 0.865495 -0.238725 255 0 255
-0.338181 0.169337 -0.145238 -0.440372 0.865495 -0.238725 255 0 255
-0.209231 0.275008 0.000000 -0.440372 0.865495 -0.238725 255 0 255
-0.415449 0.017325 0.000000 -0.787460 0.585190 0.193545 255 0 255
-0.207566 0.169337 0.386182 -0.787460 0.585190 0.193545 255 0 255
-0.338181 0.169337 -0.145238 -0.787460 0.585190 0.193545 255 0 255
-0.415449 0.017325 0.000000 -0.890944 0.241653 0.384477 255 0 255
-0.233928 0.000000 0.431526 -0.890944 0.241653 0.384477 255 0 255
-0.207566 0.169337 0.386182 -0.890944 0.241653 0.384477 255 0 255
0.000000 0.000000 0.533396 0.004094 0.658933 0.752190 255 0 255
0.209899 0.169337 0.383911 0.004094 0.658933 0.752190 255 0 255
-0.207566 0.169337 0.386182 0.004094 0.658933 0.752190 255 0 255
0.000000 0.000000 0.533396 0.380872 0.299976 0.874615 255 0 255
0.233928 0.000000 0.431526 0.380872 0.299976 0.874615 255 0 255
0.209899 0.169337 0.383911 0.380872 0.299976 0.874615 255 0 255
0.415449 -0.017325 0.000000 0.836653 0.509901 0.200034 255 0 255
0.337291 0.169337 -0.148911 0.836653 0.509901 0.200034 255 0 255
0.209899 0.169337 0.383911 0.836653 0.509901 0.200034 255 0 255
0.233928 0.000000 -0.431526 0.548550 0.613415 -0.568168 255 0 255
-0.001440 0.169338 -0.475944 0.548550 0.613415 -0.568168 255 0 255
0.337291 0.169337 -0.148911 0.548550 0.613415 -0.568168 255 0 255
0.233928 0.000000 -0.431526 0.380872 0.299972 -0.874616 255 0 255
0.000000 0.000000 -0.533396 0.380872 0.299972 -0.874616 255 0 255
-0.001440 0.169338 -0.475944 0.380872 0.299972 -0.874616 255 0 255
-0.233928 0.000000 -0.431526 -0.553874 0.612495 -0.563981 255 0 255
-0.338181 0.169337 -0.145238 -0.553874 0.612495 -0.563981 255 0 255
-0.001440 0.169338 -0.475944 -0.553874 0.612495 -0.563981 255 0 255
-0.233928 0.000000 -0.431526 -0.916343 0.093897 -0.389229 255 0 255
-0.415449 0.017325 0.000000 -0.916343 0.093897 -0.389229 255 0 255
-0.338181 0.169337 -0.145238 -0.916343 0.093897 -0.389229 255 0 255
-0.233928 0.000000 0.431526 -0.381607 0.294056 0.876303 255 0 255
0.000000 0.000000 0.533396 -0.381607 0.294056 0.876303 255 0 255
-0.207566 0.169337 0.386182 -0.381607 0.294056 0.876303 255 0 255
-0.233928 0.000000 0.431526 -0.380872 -0.299974 0.874615 255 0 255
-0.209899 -0.169337 0.383911 -0.380872 -0.299974 0.874615 255 0 255
0.000000 0.000000 0.533396 -0.380872 -0.299974 0.874615 255 0 255
-0.209899 -0.169337 0.383911 -0.114266 -0.574090 0.810780 255 0 255
0.093622 -0.226541 0.386182 -0.114266 -0.574090 0.810780 255 0 255
0.000000 0.000000 0.533396 -0.114266 -0.574090 0.810780 255 0 255
0.233928 0.000000 0.431526 0.900005 0.231551 0.369290 255 0 255
0.415449 -0.017325 0.000000 0.900005 0.231551 0.369290 255 0 255
0.209899 0.169337 0.383911 0.900005 0.231551 0.369290 255 0 255
0.233928 0.000000 0.431526 0.907063 -0.163127 0.388105 255 0 255
0.273887 -0.169966 0.266696 0.907063 -0.163127 0.388105 255 0 255
0.415449 -0.017325 0.000000 0.907063 -0.163127 0.388105 255 0 255
0.273887 -0.169966 0.266696 0.829026 -0.544232 0.128561 255 0 255
0.338181 -0.169337 -0.145238 0.829026 -0.544232 0.128561 255 0 255
0.415449 -0.017325 0.000000 0.829026 -0.544232 0.128561 255 0 255
0.415449 -0.017325 0.000000 0.920016 0.079023 -0.383831 255 0 255
0.233928 0.000000 -0.431526 0.920016 0.079023 -0.383831 255 0 255
0.337291 0.169337 -0.148911 0.920016 0.079023 -0.383831 255 0 255
0.415449 -0.017325 0.000000 0.916343 -0.093898 -0.389229 255 0 255
0.338181 -0.169337 -0.145238 0.916343 -0.093898 -0.389229 255 0 255
0.233928 0.000000 -0.431526 0.916343 -0.093898 -0.389229 255 0 255
0.338181 -0.169337 -0.145238 0.553875 -0.612494 -0.563980 255 0 255
0.001440 -0.169338 -0.475944 0.553875 -0.612494 -0.563980 255 0 255
0.233928 0.000000 -0.431526 0.553875 -0.612494 -0.563980 255 0 255
0.000000 0.000000 -0.533396 -0.381606 0.294061 -0.876302 255 0 255
-0.233928 0.000000 -0.431526 -0.381606 0.294061 -0.876302 255 0 255
-0.001440 0.169338 -0.475944 -0.381606 0.294061 -0.876302 255 0 255
0.000000 0.000000 -0.533396 -0.380873 -0.299971 -0.874616 255 0 255
0.001440 -0.169338 -0.475944 -0.380873 -0.299971 -0.874616 255 0 255
-0.233928 0.000000 -0.431526 -0.380873 -0.299971 -0.874616 255 0 255
0.001440 -0.169338 -0.475944 -0.548550 -0.613414 -0.568168 255 0 255
-0.337291 -0.169337 -0.148911 -0.548550 -0.613414 -0.568168 255 0 255
-0.233928 0.000000 -0.431526 -0.548550 -0.613414 -0.568168 255 0 255
-0.337291 -0.169337 -0.148911 -0.836653 -0.509901 0.200034 255 0 255
-0.209899 -0.169337 0.383911 -0.836653 -0.509901 0.200034 255 0 255
-0.415449 0.017325 0.000000 -0.836653 -0.509901 0.200034 255 0 255
-0.166718 -0.309599 -0.000000 -0.177782 -0.930589 0.319996 255 0 255
0.093622 -0.226541 0.386182 -0.177782 -0.930589 0.319996 255 0 255
-0.209899 -0.169337 0.383911 -0.177782 -0.930589 0.319996 255 0 255
0.093622 -0.226541 0.386182 0.431071 -0.870290 0.238271 255 0 255
0.209231 -0.275008 0.000000 0.431071 -0.870290 0.238271 255 0 255
0.273887 -0.169966 0.266696 0.431071 -0.870290 0.238271 255 0 255
0.209231 -0.275008 0.000000 0.700189 -0.705711 0.108206 255 0 255
0.338181 -0.169337 -0.145238 0.700189 -0.705711 0.108206 255 0 255
0.273887 -0.169966 0.266696 0.700189 -0.705711 0.108206 255 0 255
0.209231 -0.275008 0.000000 0.435083 -0.866629 -0.244248 255 0 255
0.035210 -0.321441 -0.145238 0.435083 -0.866629 -0.244248 255 0 255
0.338181 -0.169337 -0.145238 0.435083 -0.866629 -0.244248 255 0 255
0.035210 -0.321441 -0.145238 0.408100 -0.812882 -0.415545 255 0 255
0.001440 -0.169338 -0.475944 0.408100 -0.812882 -0.415545 255 0 255
0.338181 -0.169337 -0.145238 0.408100 -0.812882 -0.415545 255 0 255
-0.337291 -0.169337 -0.148911 -0.710111 -0.683314 0.169779 255 0 255
-0.166718 -0.309599 -0.000000 -0.710111 -0.683314 0.169779 255 0 255
-0.209899 -0.169337 0.383911 -0.710111 -0.683314 0.169779 255 0 255
0.035210 -0.321441 -0.145238 -0.316929 -0.873551 -0.369413 255 0 255
-0.166718 -0.309599 -0.000000 -0.316929 -0.873551 -0.369413 255 0 255
0.001440 -0.169338 -0.475944 -0.316929 -0.873551 -0.369413 255 0 255
-0.166718 -0.309599 -0.000000 -0.366733 -0.849249 -0.379847 255 0 255
-0.337291 -0.169337 -0.148911 -0.366733 -0.849249 -0.379847 255 0 255
0.001440 -0.169338 -0.475944 -0.366733 -0.849249 -0.379847 255 0 255
3 0 1 2
3 3 4 5
3 6 7 8
3 9 10 11
3 12 13 14
3 15 16 17
3 18 19 20
3 21 22 23
3 24 25 26
3 27 28 29
3 30 31 32
3 33 34 35
3 36 37 38
3 39 40 41
3 42 43 44
3 45 46 47
3 48 49 50
3 51 52 53
3 54 55 56
3 57 58 59
3 60 61 62
3 63 64 65
3 66 67 68
3 69 70 71
3 72 73 74
3 75 76 77
3 78 79 80
3 81 82 83
3 84 85 86
3 87 88 89
3 90 91 92
3 93 94 95
3 96 97 98
3 99 100 101
3 102 103 104
3 105 106 107
3 108 109 110
3 111 112 113
3 114 115 116
3 117 118 119
3 120 121 122
3 123 124 125
3 126 127 128
3 129 130 131
3 132 133 134
3 135 136 137
3 138 139 140
3 141 142 143
