ply
format ascii 1.0
comment Created by Blender 2.77 (sub 0) - www.blender.org, source file: 'Snowman.blend'
element vertex 70
property float x
property float y
property float z
property float nx
property float ny
property float nz
property uchar red
property uchar green
property uchar blue
element face 28
property list uchar uint vertex_indices
end_header
-0.088501 1.335751 -0.039062 -0.439504 -0.795364 0.417410 107 81 59
1.541399 0.465191 0.018280 -0.439504 -0.795364 0.417410 107 81 59
-0.074035 1.361352 0.024953 -0.439504 -0.795364 0.417410 107 81 59
-0.074035 1.361352 0.024953 -0.165567 -0.305436 0.937708 107 81 59
1.573614 0.523079 0.042824 -0.165567 -0.305436 0.937708 107 81 59
-0.041820 1.419241 0.049497 -0.165567 -0.305436 0.937708 107 81 59
-0.041820 1.419241 0.049497 0.204090 0.361120 0.909912 107 81 59
1.604706 0.579345 0.013519 0.204090 0.361120 0.909912 107 81 59
-0.010727 1.475506 0.020193 0.204090 0.361120 0.909912 107 81 59
-0.010727 1.475506 0.020193 0.455507 0.818496 0.350110 107 81 59
1.616462 0.601028 -0.052467 0.455507 0.818496 0.350110 107 81 59
0.001029 1.497190 -0.045794 0.455507 0.818496 0.350110 107 81 59
1.616462 0.601028 -0.052467 0.439504 0.795364 -0.417411 107 81 59
-0.013438 1.471588 -0.109808 0.439504 0.795364 -0.417411 107 81 59
0.001029 1.497190 -0.045794 0.439504 0.795364 -0.417411 107 81 59
1.601995 0.575427 -0.116482 0.165567 0.305436 -0.937708 107 81 59
-0.045653 1.413700 -0.134352 0.165567 0.305436 -0.937708 107 81 59
-0.013438 1.471588 -0.109808 0.165567 0.305436 -0.937708 107 81 59
1.601995 0.575427 -0.116482 0.874451 -0.485100 -0.003615 107 81 59
1.616462 0.601028 -0.052467 0.874451 -0.485100 -0.003615 107 81 59
1.538688 0.461272 -0.111721 0.874451 -0.485100 -0.003615 107 81 59
1.569780 0.517538 -0.141026 -0.204091 -0.361121 -0.909912 107 81 59
-0.076745 1.357434 -0.105048 -0.204091 -0.361121 -0.909912 107 81 59
-0.045653 1.413700 -0.134352 -0.204091 -0.361121 -0.909912 107 81 59
1.538688 0.461272 -0.111721 -0.455507 -0.818496 -0.350110 107 81 59
-0.088501 1.335751 -0.039062 -0.455507 -0.818496 -0.350110 107 81 59
-0.076745 1.357434 -0.105048 -0.455507 -0.818496 -0.350110 107 81 59
0.001029 1.497190 -0.045794 -0.874451 0.485101 0.003612 107 81 59
-0.013438 1.471588 -0.109808 -0.874451 0.485101 0.003612 107 81 59
-0.076745 1.357434 -0.105048 -0.874451 0.485101 0.003612 107 81 59
1.526932 0.439589 -0.045735 -0.439504 -0.795364 0.417410 107 81 59
1.541399 0.465191 0.018280 -0.165567 -0.305436 0.937708 107 81 59
-0.041820 1.419241 0.049497 0.204090 0.361121 0.909912 107 81 59
1.573614 0.523079 0.042824 0.204090 0.361121 0.909912 107 81 59
1.604706 0.579345 0.013519 0.204090 0.361121 0.909912 107 81 59
-0.010727 1.475506 0.020193 0.455507 0.818496 0.350111 107 81 59
1.604706 0.579345 0.013519 0.455507 0.818496 0.350111 107 81 59
1.616462 0.601028 -0.052467 0.455507 0.818496 0.350111 107 81 59
1.601995 0.575427 -0.116482 0.439504 0.795364 -0.417411 107 81 59
1.569780 0.517538 -0.141026 0.165567 0.305436 -0.937708 107 81 59
1.573614 0.523079 0.042824 0.874450 -0.485102 -0.003618 107 81 59
1.541399 0.465191 0.018280 0.874450 -0.485102 -0.003618 107 81 59
1.604706 0.579345 0.013519 0.874450 -0.485102 -0.003618 107 81 59
1.526932 0.439589 -0.045735 0.874451 -0.485101 -0.003611 107 81 59
1.538688 0.461272 -0.111721 0.874451 -0.485101 -0.003611 107 81 59
1.616462 0.601028 -0.052467 0.874451 -0.485101 -0.003611 107 81 59
1.569780 0.517538 -0.141026 0.874451 -0.485100 -0.003611 107 81 59
1.601995 0.575427 -0.116482 0.874451 -0.485100 -0.003611 107 81 59
1.538688 0.461272 -0.111721 0.874451 -0.485100 -0.003611 107 81 59
1.604706 0.579345 0.013519 0.874451 -0.485101 -0.003611 107 81 59
1.541399 0.465191 0.018280 0.874451 -0.485101 -0.003610 107 81 59
1.526932 0.439589 -0.045735 0.874451 -0.485101 -0.003610 107 81 59
1.604706 0.579345 0.013519 0.874451 -0.485101 -0.003610 107 81 59
1.569780 0.517538 -0.141026 -0.204091 -0.361121 -0.909911 107 81 59
1.538688 0.461272 -0.111721 -0.204091 -0.361121 -0.909911 107 81 59
-0.076745 1.357434 -0.105048 -0.204091 -0.361121 -0.909911 107 81 59
1.526932 0.439589 -0.045735 -0.455507 -0.818496 -0.350110 107 81 59
-0.088501 1.335751 -0.039062 -0.874451 0.485101 0.003612 107 81 59
-0.074035 1.361352 0.024953 -0.874450 0.485102 0.003613 107 81 59
-0.041820 1.419241 0.049497 -0.874450 0.485102 0.003613 107 81 59
-0.010727 1.475506 0.020193 -0.874450 0.485102 0.003613 107 81 59
-0.010727 1.475506 0.020193 -0.874451 0.485101 0.003614 107 81 59
0.001029 1.497190 -0.045794 -0.874451 0.485101 0.003614 107 81 59
-0.088501 1.335751 -0.039062 -0.874451 0.485101 0.003614 107 81 59
-0.013438 1.471588 -0.109808 -0.874451 0.485101 0.003608 107 81 59
-0.045653 1.413700 -0.134352 -0.874451 0.485101 0.003608 107 81 59
-0.076745 1.357434 -0.105048 -0.874451 0.485101 0.003608 107 81 59
-0.088501 1.335751 -0.039062 -0.874450 0.485102 0.003611 107 81 59
-0.074035 1.361352 0.024953 -0.874450 0.485102 0.003611 107 81 59
-0.010727 1.475506 0.020193 -0.874450 0.485102 0.003611 107 81 59
3 0 1 2
3 3 4 5
3 6 7 8
3 9 10 11
3 12 13 14
3 15 16 17
3 18 19 20
3 21 22 23
3 24 25 26
3 27 28 29
3 0 30 1
3 3 31 4
3 32 33 34
3 35 36 37
3 12 38 13
3 15 39 16
3 40 41 42
3 43 44 45
3 46 47 48
3 45 49 43
3 50 51 52
3 53 54 55
3 24 56 25
3 29 57 27
3 58 59 60
3 61 62 63
3 64 65 66
3 67 68 69
