ply
format ascii 1.0
comment Created by Blender 2.77 (sub 0) - www.blender.org, source file: 'Snowman.blend'
element vertex 531
property float x
property float y
property float z
property float nx
property float ny
property float nz
property uchar red
property uchar green
property uchar blue
element face 188
property list uchar uint vertex_indices
end_header
0.048826 0.272023 0.878068 0.920301 -0.360855 0.151098 51 51 51
0.022244 0.202780 0.874604 0.920301 -0.360855 0.151098 51 51 51
0.048689 0.259865 0.849866 0.920301 -0.360855 0.151098 51 51 51
0.022244 0.202780 0.874604 0.374367 -0.852179 0.365568 51 51 51
-0.041701 0.191294 0.913312 0.374367 -0.852179 0.365568 51 51 51
-0.041838 0.179135 0.885110 0.374367 -0.852179 0.365568 51 51 51
-0.041838 0.179135 0.885110 -0.370795 -0.852179 0.369190 51 51 51
-0.105883 0.214939 0.903430 -0.370795 -0.852179 0.369190 51 51 51
-0.106020 0.202780 0.875228 -0.370795 -0.852179 0.369190 51 51 51
-0.106020 0.202780 0.875228 -0.918788 -0.360855 0.160039 51 51 51
-0.132567 0.272023 0.878950 -0.918788 -0.360855 0.160039 51 51 51
-0.132704 0.259865 0.850748 -0.918788 -0.360855 0.160039 51 51 51
-0.132567 0.272023 0.878950 -0.920301 0.360856 -0.151094 51 51 51
-0.106259 0.316949 0.826009 -0.920301 0.360856 -0.151094 51 51 51
-0.132704 0.259865 0.850748 -0.920301 0.360856 -0.151094 51 51 51
-0.106122 0.329107 0.854211 -0.374365 0.852180 -0.365568 51 51 51
-0.042177 0.340594 0.815504 -0.374365 0.852180 -0.365568 51 51 51
-0.106259 0.316949 0.826009 -0.374365 0.852180 -0.365568 51 51 51
-0.042039 0.352752 0.843706 0.004466 0.395888 0.918288 51 51 51
-0.105883 0.214939 0.903430 0.004466 0.395888 0.918288 51 51 51
-0.041701 0.191294 0.913312 0.004466 0.395888 0.918288 51 51 51
-0.042177 0.340594 0.815504 0.370793 0.852180 -0.369191 51 51 51
0.022142 0.329107 0.853588 0.370793 0.852180 -0.369191 51 51 51
0.022005 0.316949 0.825385 0.370793 0.852180 -0.369191 51 51 51
0.022005 0.316949 0.825385 0.918788 0.360856 -0.160036 51 51 51
0.048826 0.272023 0.878068 0.918788 0.360856 -0.160036 51 51 51
0.048689 0.259865 0.849866 0.918788 0.360856 -0.160036 51 51 51
-0.106020 0.202780 0.875228 -0.004465 -0.395888 -0.918288 51 51 51
-0.042177 0.340594 0.815504 -0.004465 -0.395888 -0.918288 51 51 51
-0.041838 0.179135 0.885110 -0.004465 -0.395888 -0.918288 51 51 51
0.048765 0.576460 0.865455 0.919544 -0.392961 -0.004471 51 51 51
0.022051 0.514297 0.834873 0.919544 -0.392961 -0.004471 51 51 51
0.048615 0.576460 0.834744 0.919544 -0.392961 -0.004471 51 51 51
0.022200 0.514297 0.865584 0.372580 -0.927998 -0.001811 51 51 51
-0.042081 0.488548 0.835185 0.372580 -0.927998 -0.001811 51 51 51
0.022051 0.514297 0.834873 0.372580 -0.927998 -0.001811 51 51 51
-0.041932 0.488548 0.865896 -0.372581 -0.927998 0.001812 51 51 51
-0.106213 0.514297 0.835497 -0.372581 -0.927998 0.001812 51 51 51
-0.042081 0.488548 0.835185 -0.372581 -0.927998 0.001812 51 51 51
-0.106064 0.514297 0.866208 -0.919544 -0.392961 0.004470 51 51 51
-0.132777 0.576460 0.835626 -0.919544 -0.392961 0.004470 51 51 51
-0.106213 0.514297 0.835497 -0.919544 -0.392961 0.004470 51 51 51
-0.132777 0.576460 0.835626 -0.919544 0.392961 0.004470 51 51 51
-0.106064 0.638623 0.866208 -0.919544 0.392961 0.004470 51 51 51
-0.106213 0.638623 0.835497 -0.919544 0.392961 0.004470 51 51 51
-0.106064 0.638623 0.866208 -0.372580 0.927998 0.001811 51 51 51
-0.042081 0.664372 0.835185 -0.372580 0.927998 0.001811 51 51 51
-0.106213 0.638623 0.835497 -0.372580 0.927998 0.001811 51 51 51
-0.041932 0.664372 0.865896 0.004863 -0.000000 0.999988 51 51 51
-0.106064 0.514297 0.866208 0.004863 -0.000000 0.999988 51 51 51
-0.041932 0.488548 0.865896 0.004863 -0.000000 0.999988 51 51 51
-0.041932 0.664372 0.865896 0.372579 0.927999 -0.001813 51 51 51
0.022051 0.638623 0.834873 0.372579 0.927999 -0.001813 51 51 51
-0.042081 0.664372 0.835185 0.372579 0.927999 -0.001813 51 51 51
0.022200 0.638623 0.865584 0.919544 0.392961 -0.004471 51 51 51
0.048615 0.576460 0.834744 0.919544 0.392961 -0.004471 51 51 51
0.022051 0.638623 0.834873 0.919544 0.392961 -0.004471 51 51 51
-0.106213 0.514297 0.835497 -0.004862 0.000000 -0.999988 51 51 51
-0.042081 0.664372 0.835185 -0.004862 0.000000 -0.999988 51 51 51
-0.042081 0.488548 0.835185 -0.004862 0.000000 -0.999988 51 51 51
0.048982 0.889505 0.910204 0.919545 -0.392961 -0.004471 51 51 51
0.022269 0.827342 0.879622 0.919545 -0.392961 -0.004471 51 51 51
0.048833 0.889505 0.879493 0.919545 -0.392961 -0.004471 51 51 51
0.022269 0.827342 0.879622 0.372581 -0.927998 -0.001812 51 51 51
-0.041714 0.801593 0.910645 0.372581 -0.927998 -0.001812 51 51 51
-0.041863 0.801593 0.879934 0.372581 -0.927998 -0.001812 51 51 51
-0.041714 0.801593 0.910645 -0.372582 -0.927998 0.001812 51 51 51
-0.105995 0.827342 0.880245 -0.372582 -0.927998 0.001812 51 51 51
-0.041863 0.801593 0.879934 -0.372582 -0.927998 0.001812 51 51 51
-0.105846 0.827342 0.910957 -0.919544 -0.392961 0.004470 51 51 51
-0.132560 0.889505 0.880375 -0.919544 -0.392961 0.004470 51 51 51
-0.105995 0.827342 0.880245 -0.919544 -0.392961 0.004470 51 51 51
-0.132560 0.889505 0.880375 -0.919544 0.392961 0.004471 51 51 51
-0.105846 0.951668 0.910957 -0.919544 0.392961 0.004471 51 51 51
-0.105995 0.951668 0.880245 -0.919544 0.392961 0.004471 51 51 51
-0.105846 0.951668 0.910957 -0.372580 0.927998 0.001811 51 51 51
-0.041863 0.977417 0.879934 -0.372580 0.927998 0.001811 51 51 51
-0.105995 0.951668 0.880245 -0.372580 0.927998 0.001811 51 51 51
-0.041714 0.977417 0.910645 0.004863 -0.000000 0.999988 51 51 51
-0.105846 0.827342 0.910957 0.004863 -0.000000 0.999988 51 51 51
-0.041714 0.801593 0.910645 0.004863 -0.000000 0.999988 51 51 51
-0.041714 0.977417 0.910645 0.372579 0.927999 -0.001812 51 51 51
0.022269 0.951668 0.879622 0.372579 0.927999 -0.001812 51 51 51
-0.041863 0.977417 0.879934 0.372579 0.927999 -0.001812 51 51 51
0.022269 0.951668 0.879622 0.919545 0.392961 -0.004471 51 51 51
0.048982 0.889505 0.910204 0.919545 0.392961 -0.004471 51 51 51
0.048833 0.889505 0.879493 0.919545 0.392961 -0.004471 51 51 51
-0.105995 0.827342 0.880245 -0.004862 0.000000 -0.999988 51 51 51
-0.041863 0.977417 0.879934 -0.004862 0.000000 -0.999988 51 51 51
-0.041863 0.801593 0.879934 -0.004862 0.000000 -0.999988 51 51 51
0.052878 1.183075 0.772613 0.827849 -0.462307 0.317708 51 51 51
0.014836 1.119683 0.779497 0.827849 -0.462307 0.317708 51 51 51
0.052756 1.165532 0.747405 0.827849 -0.462307 0.317708 51 51 51
0.014958 1.137226 0.804705 0.188976 -0.806441 0.560304 51 51 51
-0.053027 1.109118 0.787180 0.188976 -0.806441 0.560304 51 51 51
0.014836 1.119683 0.779497 0.188976 -0.806441 0.560304 51 51 51
-0.053027 1.109118 0.787180 -0.542542 -0.688254 0.481617 51 51 51
-0.110957 1.157569 0.791160 -0.542542 -0.688254 0.481617 51 51 51
-0.111080 1.140026 0.765952 -0.542542 -0.688254 0.481617 51 51 51
-0.110957 1.157569 0.791160 -0.977567 -0.170620 0.123495 51 51 51
-0.125316 1.194301 0.728250 -0.977567 -0.170620 0.123495 51 51 51
-0.111080 1.140026 0.765952 -0.977567 -0.170620 0.123495 51 51 51
-0.125193 1.211844 0.753458 -0.827849 0.462307 -0.317708 51 51 51
-0.087396 1.240150 0.696158 -0.827849 0.462307 -0.317708 51 51 51
-0.125316 1.194301 0.728250 -0.827849 0.462307 -0.317708 51 51 51
-0.087396 1.240150 0.696158 -0.188976 0.806442 -0.560303 51 51 51
-0.019410 1.268258 0.713683 -0.188976 0.806442 -0.560303 51 51 51
-0.019533 1.250715 0.688475 -0.188976 0.806442 -0.560303 51 51 51
-0.019410 1.268258 0.713683 0.003990 0.571213 0.820792 51 51 51
-0.110957 1.157569 0.791160 0.003990 0.571213 0.820792 51 51 51
-0.052905 1.126661 0.812387 0.003990 0.571213 0.820792 51 51 51
-0.019410 1.268258 0.713683 0.542543 0.688256 -0.481612 51 51 51
0.038520 1.219807 0.709703 0.542543 0.688256 -0.481612 51 51 51
-0.019533 1.250715 0.688475 0.542543 0.688256 -0.481612 51 51 51
0.038520 1.219807 0.709703 0.977567 0.170621 -0.123494 51 51 51
0.052878 1.183075 0.772613 0.977567 0.170621 -0.123494 51 51 51
0.052756 1.165532 0.747405 0.977567 0.170621 -0.123494 51 51 51
-0.111080 1.140026 0.765952 -0.003990 -0.571213 -0.820792 51 51 51
-0.019533 1.250715 0.688475 -0.003990 -0.571213 -0.820792 51 51 51
-0.053027 1.109118 0.787180 -0.003990 -0.571213 -0.820792 51 51 51
0.048402 -0.252330 0.290615 -0.294675 -0.943072 -0.154213 255 255 255
-0.704104 0.014126 0.099047 -0.294675 -0.943072 -0.154213 255 255 255
-0.391327 0.037189 -0.639660 -0.294675 -0.943072 -0.154213 255 255 255
0.048402 -0.252330 0.290615 -0.049872 -0.960086 -0.275223 255 255 255
-0.391327 0.037189 -0.639660 -0.049872 -0.960086 -0.275223 255 255 255
0.402316 -0.109680 -0.271137 -0.049872 -0.960086 -0.275223 255 255 255
-0.043811 0.189883 0.809442 -0.277610 -0.103701 0.955081 255 255 255
-0.048572 1.010058 0.897112 -0.277610 -0.103701 0.955081 255 255 255
-0.574852 0.669930 0.707209 -0.277610 -0.103701 0.955081 255 255 255
-0.704104 0.014126 0.099047 -0.980849 -0.178805 0.077223 255 255 255
-0.875601 1.010056 0.226794 -0.980849 -0.178805 0.077223 255 255 255
-0.857624 0.669930 -0.332407 -0.980849 -0.178805 0.077223 255 255 255
-0.391327 0.037189 -0.639660 -0.254561 -0.243475 -0.935905 255 255 255
-0.502827 0.669930 -0.773940 -0.254561 -0.243475 -0.935905 255 255 255
0.043734 0.669930 -0.922601 -0.254561 -0.243475 -0.935905 255 255 255
-0.048572 1.010058 0.897112 0.443017 0.539904 0.715710 255 255 255
0.697877 1.294133 0.220773 0.443017 0.539904 0.715710 254 254 254
0.125675 1.449539 0.457727 0.443017 0.539904 0.715710 255 255 255
-0.875601 1.010056 0.226794 -0.534450 0.528735 0.659395 255 255 255
-0.048572 1.010058 0.897112 -0.534450 0.528735 0.659395 255 255 255
-0.403876 1.449539 0.256736 -0.534450 0.528735 0.659395 255 255 255
0.508872 1.149976 -0.646742 0.068545 0.708437 -0.702438 255 255 255
-0.440748 1.315297 -0.572675 0.068545 0.708437 -0.702438 255 255 255
0.092327 1.581166 -0.252516 0.068545 0.708437 -0.702438 255 255 255
0.697877 1.294133 0.220773 0.569168 0.782020 -0.253954 254 254 254
0.508872 1.149976 -0.646742 0.569168 0.782020 -0.253954 255 255 255
0.092327 1.581166 -0.252516 0.569168 0.782020 -0.253954 255 255 255
-0.440748 1.315297 -0.572675 -0.378061 0.916392 -0.131513 255 255 255
-0.403876 1.449539 0.256736 -0.378061 0.916392 -0.131513 255 255 255
0.092327 1.581166 -0.252516 -0.378061 0.916392 -0.131513 255 255 255
-0.440748 1.315297 -0.572675 -0.675986 0.731598 -0.088359 255 255 255
-0.875601 1.010056 0.226794 -0.675986 0.731598 -0.088359 255 255 255
-0.403876 1.449539 0.256736 -0.675986 0.731598 -0.088359 255 255 255
-0.403876 1.449539 0.256736 -0.070202 0.980236 0.184960 255 255 255
0.125675 1.449539 0.457727 -0.070202 0.980236 0.184960 255 255 255
0.092327 1.581166 -0.252516 -0.070202 0.980236 0.184960 255 255 255
-0.403876 1.449539 0.256736 -0.241640 0.732317 0.636649 255 255 255
-0.048572 1.010058 0.897112 -0.241640 0.732317 0.636649 255 255 255
0.125675 1.449539 0.457727 -0.241640 0.732317 0.636649 255 255 255
0.125675 1.449539 0.457727 0.319270 0.934370 0.158172 255 255 255
0.697877 1.294133 0.220773 0.319270 0.934370 0.158172 254 254 254
0.092327 1.581166 -0.252516 0.319270 0.934370 0.158172 255 255 255
0.883575 0.669930 -0.247736 0.854141 0.449890 -0.260850 255 255 255
0.508872 1.149976 -0.646742 0.854141 0.449890 -0.260850 255 255 255
0.697877 1.294133 0.220773 0.854141 0.449890 -0.260850 254 254 254
0.883575 0.669930 -0.247736 0.785872 0.107206 -0.609025 255 255 255
0.573378 0.340359 -0.706021 0.785872 0.107206 -0.609025 255 255 255
0.508872 1.149976 -0.646742 0.785872 0.107206 -0.609025 255 255 255
0.043734 0.669930 -0.922601 0.016482 0.486124 -0.873735 255 255 255
-0.440748 1.315297 -0.572675 0.016482 0.486124 -0.873735 255 255 255
0.508872 1.149976 -0.646742 0.016482 0.486124 -0.873735 255 255 255
0.043734 0.669930 -0.922601 -0.249521 0.310096 -0.917376 255 255 255
-0.502827 0.669930 -0.773940 -0.249521 0.310096 -0.917376 255 255 255
-0.440748 1.315297 -0.572675 -0.249521 0.310096 -0.917376 255 255 255
-0.857624 0.669930 -0.332407 -0.849008 0.438874 -0.294235 255 255 255
-0.875601 1.010056 0.226794 -0.849008 0.438874 -0.294235 255 255 255
-0.440748 1.315297 -0.572675 -0.849008 0.438874 -0.294235 255 255 255
-0.574852 0.669930 0.707209 -0.553921 0.475510 0.683419 255 255 255
-0.048572 1.010058 0.897112 -0.553921 0.475510 0.683419 255 255 255
-0.875601 1.010056 0.226794 -0.553921 0.475510 0.683419 255 255 255
0.501267 0.669930 0.759539 0.480993 0.481106 0.732927 255 255 255
0.697877 1.294133 0.220773 0.480993 0.481106 0.732927 254 254 254
-0.048572 1.010058 0.897112 0.480993 0.481106 0.732927 255 255 255
0.501267 0.669930 0.759539 0.840036 0.177814 0.512564 255 255 255
0.847210 0.329802 0.310570 0.840036 0.177814 0.512564 255 255 255
0.697877 1.294133 0.220773 0.840036 0.177814 0.512564 254 254 254
0.573378 0.340359 -0.706021 0.429241 0.099924 -0.897645 255 255 255
0.043734 0.669930 -0.922601 0.429241 0.099924 -0.897645 255 255 255
0.508872 1.149976 -0.646742 0.429241 0.099924 -0.897645 255 255 255
0.573378 0.340359 -0.706021 0.081251 -0.452888 -0.887857 255 255 255
-0.391327 0.037189 -0.639660 0.081251 -0.452888 -0.887857 255 255 255
0.043734 0.669930 -0.922601 0.081251 -0.452888 -0.887857 255 255 255
-0.502827 0.669930 -0.773940 -0.752504 0.260960 -0.604679 255 255 255
-0.857624 0.669930 -0.332407 -0.752504 0.260960 -0.604679 255 255 255
-0.440748 1.315297 -0.572675 -0.752504 0.260960 -0.604679 255 255 255
-0.502827 0.669930 -0.773940 -0.752510 -0.260931 -0.604684 255 255 255
-0.391327 0.037189 -0.639660 -0.752510 -0.260931 -0.604684 255 255 255
-0.857624 0.669930 -0.332407 -0.752510 -0.260931 -0.604684 255 255 255
-0.391327 0.037189 -0.639660 -0.825534 -0.432090 -0.363031 255 255 255
-0.704104 0.014126 0.099047 -0.825534 -0.432090 -0.363031 255 255 255
-0.857624 0.669930 -0.332407 -0.825534 -0.432090 -0.363031 255 255 255
-0.875601 1.010056 0.226794 -0.888353 -0.205632 0.410542 255 255 255
-0.704104 0.014126 0.099047 -0.888353 -0.205632 0.410542 255 255 255
-0.574852 0.669930 0.707209 -0.888353 -0.205632 0.410542 255 255 255
-0.704104 0.014126 0.099047 -0.572526 -0.493987 0.654363 255 255 255
-0.043811 0.189883 0.809442 -0.572526 -0.493987 0.654363 255 255 255
-0.574852 0.669930 0.707209 -0.572526 -0.493987 0.654363 255 255 255
-0.048572 1.010058 0.897112 0.180697 -0.103499 0.978078 255 255 255
-0.043811 0.189883 0.809442 0.180697 -0.103499 0.978078 255 255 255
0.501267 0.669930 0.759539 0.180697 -0.103499 0.978078 255 255 255
-0.043811 0.189883 0.809442 0.485512 -0.474986 0.733939 255 255 255
0.847210 0.329802 0.310570 0.485512 -0.474986 0.733939 255 255 255
0.501267 0.669930 0.759539 0.485512 -0.474986 0.733939 255 255 255
0.847210 0.329802 0.310570 0.972347 0.165882 0.164391 255 255 255
0.883575 0.669930 -0.247736 0.972347 0.165882 0.164391 255 255 255
0.697877 1.294133 0.220773 0.972347 0.165882 0.164391 254 254 254
0.847210 0.329802 0.310570 0.848881 -0.474173 -0.233581 255 255 255
0.573378 0.340359 -0.706021 0.848881 -0.474173 -0.233581 255 255 255
0.883575 0.669930 -0.247736 0.848881 -0.474173 -0.233581 255 255 255
0.402316 -0.109680 -0.271137 0.179391 -0.718034 -0.672493 255 255 255
-0.391327 0.037189 -0.639660 0.179391 -0.718034 -0.672493 255 255 255
0.573378 0.340359 -0.706021 0.179391 -0.718034 -0.672493 255 255 255
0.048402 -0.252330 0.290615 -0.399653 -0.731494 0.552443 255 255 255
-0.043811 0.189883 0.809442 -0.399653 -0.731494 0.552443 255 255 255
-0.704104 0.014126 0.099047 -0.399653 -0.731494 0.552443 255 255 255
0.847210 0.329802 0.310570 0.817947 -0.529120 -0.225819 255 255 255
0.402316 -0.109680 -0.271137 0.817947 -0.529120 -0.225819 255 255 255
0.573378 0.340359 -0.706021 0.817947 -0.529120 -0.225819 255 255 255
0.847210 0.329802 0.310570 0.578584 -0.799474 0.161501 255 255 255
0.048402 -0.252330 0.290615 0.578584 -0.799474 0.161501 255 255 255
0.402316 -0.109680 -0.271137 0.578584 -0.799474 0.161501 255 255 255
0.048402 -0.252330 0.290615 0.449833 -0.638665 0.624306 255 255 255
0.847210 0.329802 0.310570 0.449833 -0.638665 0.624306 255 255 255
-0.043811 0.189883 0.809442 0.449833 -0.638665 0.624306 255 255 255
-0.379014 -1.616646 -0.125719 0.270427 -0.943072 -0.193607 255 255 255
0.290726 -1.266755 -0.894583 0.270427 -0.943072 -0.193607 255 255 255
0.971708 -1.236471 -0.090911 0.270427 -0.943072 -0.193607 255 255 255
-0.379014 -1.616646 -0.125719 0.268179 -0.960086 0.079464 255 255 255
0.971708 -1.236471 -0.090911 0.268179 -0.960086 0.079464 255 255 255
0.070184 -1.429328 0.621498 0.268179 -0.960086 0.079464 255 255 255
-0.932702 -1.035963 -0.540745 -0.727610 -0.103702 -0.678107 255 255 255
-1.032663 0.041035 -0.598189 -0.727610 -0.103702 -0.678107 255 255 255
-0.498705 -0.405598 -1.102824 -0.727610 -0.103702 -0.678107 255 255 255
0.290726 -1.266755 -0.894583 0.372929 -0.178806 -0.910468 255 255 255
0.242414 0.041034 -1.171206 0.372929 -0.178806 -0.910468 255 255 255
0.887349 -0.405598 -0.819327 0.372929 -0.178806 -0.910468 255 255 255
0.971708 -1.236471 -0.090911 0.950234 -0.243475 0.194359 255 255 255
1.195087 -0.405598 -0.142191 0.950234 -0.243475 0.194359 255 255 255
1.046042 -0.405598 0.586503 0.950234 -0.243475 0.194359 255 255 255
-1.032663 0.041035 -0.598189 -0.838548 0.539903 0.073088 255 255 255
-0.681342 0.414063 0.676997 -0.838548 0.539903 0.073088 255 255 255
-0.620636 0.618133 -0.133988 -0.838548 0.539903 0.073088 255 255 255
0.242414 0.041034 -1.171206 -0.347924 0.528735 -0.774202 255 255 255
-1.032663 0.041035 -0.598189 -0.347924 0.528735 -0.774202 255 255 255
-0.071744 0.618132 -0.635899 -0.347924 0.528735 -0.774202 255 255 255
0.447483 0.224767 0.968611 0.596240 0.708437 0.377644 255 255 255
0.922414 0.441856 -0.188476 0.596240 0.708437 0.377644 255 255 255
0.231733 0.790976 0.247071 0.596240 0.708437 0.377644 255 255 255
-0.681342 0.414063 0.676997 -0.029685 0.782020 0.622546 255 255 255
0.447483 0.224767 0.968611 -0.029685 0.782020 0.622546 255 255 255
0.231733 0.790976 0.247071 -0.029685 0.782020 0.622546 255 255 255
0.922414 0.441856 -0.188476 0.287728 0.916392 -0.278278 255 255 255
-0.071744 0.618132 -0.635899 0.287728 0.916392 -0.278278 255 255 255
0.231733 0.790976 0.247071 0.287728 0.916392 -0.278278 255 255 255
0.922414 0.441856 -0.188476 0.383416 0.731599 -0.563698 255 255 255
0.242414 0.041034 -1.171206 0.383416 0.731599 -0.563698 255 255 255
-0.071744 0.618132 -0.635899 0.383416 0.731599 -0.563698 255 255 255
-0.071744 0.618132 -0.635899 -0.133502 0.980236 -0.145999 255 255 255
-0.620636 0.618133 -0.133988 -0.133502 0.980236 -0.145999 255 255 255
0.231733 0.790976 0.247071 -0.133502 0.980236 -0.145999 255 255 255
-0.071744 0.618132 -0.635899 -0.459527 0.732316 -0.502541 255 255 255
-1.032663 0.041035 -0.598189 -0.459527 0.732316 -0.502541 255 255 255
-0.620636 0.618133 -0.133988 -0.459527 0.732316 -0.502541 255 255 255
-0.620636 0.618133 -0.133988 -0.285044 0.934370 0.213781 255 255 255
-0.681342 0.414063 0.676997 -0.285044 0.934370 0.213781 255 255 255
0.231733 0.790976 0.247071 -0.285044 0.934370 0.213781 255 255 255
-0.241946 -0.405598 1.171850 -0.151909 0.449890 0.880070 255 255 255
0.447483 0.224767 0.968611 -0.151909 0.449890 0.880070 255 255 255
-0.681342 0.414063 0.676997 -0.151909 0.449890 0.880070 255 255 255
-0.241946 -0.405598 1.171850 0.189689 0.107206 0.975974 255 255 255
0.478818 -0.838366 1.079301 0.189689 0.107206 0.975974 255 255 255
0.447483 0.224767 0.968611 0.189689 0.107206 0.975974 255 255 255
1.046042 -0.405598 0.586503 0.772625 0.486124 0.408332 255 255 255
0.922414 0.441856 -0.188476 0.772625 0.486124 0.408332 255 255 255
0.447483 0.224767 0.968611 0.772625 0.486124 0.408332 255 255 255
1.046042 -0.405598 0.586503 0.931421 0.310096 0.190511 255 255 255
1.195087 -0.405598 -0.142191 0.931421 0.310096 0.190511 255 255 255
0.922414 0.441856 -0.188476 0.931421 0.310096 0.190511 255 255 255
0.887349 -0.405598 -0.819327 0.645163 0.438875 -0.625423 255 255 255
0.242414 0.041034 -1.171206 0.645163 0.438875 -0.625423 255 255 255
0.922414 0.441856 -0.188476 0.645163 0.438875 -0.625423 255 255 255
-0.498705 -0.405598 -1.102824 -0.360599 0.475510 -0.802408 255 255 255
-1.032663 0.041035 -0.598189 -0.360599 0.475510 -0.802408 255 255 255
0.242414 0.041034 -1.171206 -0.360599 0.475510 -0.802408 255 255 255
-1.196647 -0.405598 0.127790 -0.871028 0.481106 0.099236 255 255 255
-0.681342 0.414063 0.676997 -0.871028 0.481106 0.099236 255 255 255
-1.032663 0.041035 -0.598189 -0.871028 0.481106 0.099236 255 255 255
-1.196647 -0.405598 0.127790 -0.836041 0.177814 0.519055 255 255 255
-0.874955 -0.852229 0.798944 -0.836041 0.177814 0.519055 255 255 255
-0.681342 0.414063 0.676997 -0.836041 0.177814 0.519055 255 255 255
0.478818 -0.838366 1.079301 0.608024 0.099924 0.787605 255 255 255
1.046042 -0.405598 0.586503 0.608024 0.099924 0.787605 255 255 255
0.447483 0.224767 0.968611 0.608024 0.099924 0.787605 255 255 255
0.478818 -0.838366 1.079301 0.756054 -0.452888 0.472519 255 255 255
0.971708 -1.236471 -0.090911 0.756054 -0.452888 0.472519 255 255 255
1.046042 -0.405598 0.586503 0.756054 -0.452888 0.472519 255 255 255
1.195087 -0.405598 -0.142191 0.878846 0.260960 -0.399411 255 255 255
0.887349 -0.405598 -0.819327 0.878846 0.260960 -0.399411 255 255 255
0.922414 0.441856 -0.188476 0.878846 0.260960 -0.399411 255 255 255
1.195087 -0.405598 -0.142191 0.878854 -0.260930 -0.399414 255 255 255
0.971708 -1.236471 -0.090911 0.878854 -0.260930 -0.399414 255 255 255
0.887349 -0.405598 -0.819327 0.878854 -0.260930 -0.399414 255 255 255
0.971708 -1.236471 -0.090911 0.696009 -0.432090 -0.573472 255 255 255
0.290726 -1.266755 -0.894583 0.696009 -0.432090 -0.573472 255 255 255
0.887349 -0.405598 -0.819327 0.696009 -0.432090 -0.573472 255 255 255
0.242414 0.041034 -1.171206 0.033681 -0.205633 -0.978049 255 255 255
0.290726 -1.266755 -0.894583 0.033681 -0.205633 -0.978049 255 255 255
-0.498705 -0.405598 -1.102824 0.033681 -0.205633 -0.978049 255 255 255
0.290726 -1.266755 -0.894583 -0.326277 -0.493988 -0.805928 255 255 255
-0.932702 -1.035963 -0.540745 -0.326277 -0.493988 -0.805928 255 255 255
-0.498705 -0.405598 -1.102824 -0.326277 -0.493988 -0.805928 255 255 255
-1.032663 0.041035 -0.598189 -0.954609 -0.103499 -0.279301 255 255 255
-0.932702 -1.035963 -0.540745 -0.954609 -0.103499 -0.279301 255 255 255
-1.196647 -0.405598 0.127790 -0.954609 -0.103499 -0.279301 255 255 255
-0.932702 -1.035963 -0.540745 -0.873966 -0.474986 0.102815 255 255 255
-0.874955 -0.852229 0.798944 -0.873966 -0.474986 0.102815 255 255 255
-1.196647 -0.405598 0.127790 -0.873966 -0.474986 0.102815 255 255 255
-0.874955 -0.852229 0.798944 -0.584806 0.165882 0.794031 255 255 255
-0.241946 -0.405598 1.171850 -0.584806 0.165882 0.794031 255 255 255
-0.681342 0.414063 0.676997 -0.584806 0.165882 0.794031 255 255 255
-0.874955 -0.852229 0.798944 -0.173884 -0.474174 0.863090 255 255 255
0.478818 -0.838366 1.079301 -0.173884 -0.474174 0.863090 255 255 255
-0.241946 -0.405598 1.171850 -0.173884 -0.474174 0.863090 255 255 255
0.070184 -1.429328 0.621498 0.519570 -0.718033 0.463115 255 255 255
0.971708 -1.236471 -0.090911 0.519570 -0.718033 0.463115 255 255 255
0.478818 -0.838366 1.079301 0.519570 -0.718033 0.463115 255 255 255
-0.379014 -1.616646 -0.125719 -0.313165 -0.731494 -0.605677 255 255 255
-0.932702 -1.035963 -0.540745 -0.313165 -0.731494 -0.605677 255 255 255
0.290726 -1.266755 -0.894583 -0.313165 -0.731494 -0.605677 255 255 255
-0.874955 -0.852229 0.798944 -0.166878 -0.529119 0.831976 255 255 255
0.070184 -1.429328 0.621498 -0.166878 -0.529119 0.831976 255 255 255
0.478818 -0.838366 1.079301 -0.166878 -0.529119 0.831976 255 255 255
-0.874955 -0.852229 0.798944 -0.404836 -0.799474 0.443790 255 255 255
-0.379014 -1.616646 -0.125719 -0.404836 -0.799474 0.443790 255 255 255
0.070184 -1.429328 0.621498 -0.404836 -0.799474 0.443790 255 255 255
-0.379014 -1.616646 -0.125719 -0.760015 -0.638665 0.120351 255 255 255
-0.874955 -0.852229 0.798944 -0.760015 -0.638665 0.120351 255 255 255
-0.932702 -1.035963 -0.540745 -0.760015 -0.638665 0.120351 255 255 255
0.048826 0.272023 0.878068 0.920301 -0.360855 0.151095 51 51 51
0.022381 0.214939 0.902806 0.920301 -0.360855 0.151095 51 51 51
0.022244 0.202780 0.874604 0.920301 -0.360855 0.151095 51 51 51
0.022244 0.202780 0.874604 0.374367 -0.852180 0.365566 51 51 51
0.022381 0.214939 0.902806 0.374367 -0.852180 0.365566 51 51 51
-0.041701 0.191294 0.913312 0.374367 -0.852180 0.365566 51 51 51
-0.041838 0.179135 0.885110 -0.370795 -0.852179 0.369191 51 51 51
-0.041701 0.191294 0.913312 -0.370795 -0.852179 0.369191 51 51 51
-0.105883 0.214939 0.903430 -0.370795 -0.852179 0.369191 51 51 51
-0.106020 0.202780 0.875228 -0.918788 -0.360855 0.160038 51 51 51
-0.105883 0.214939 0.903430 -0.918788 -0.360855 0.160038 51 51 51
-0.132567 0.272023 0.878950 -0.918788 -0.360855 0.160038 51 51 51
-0.132567 0.272023 0.878950 -0.920301 0.360854 -0.151096 51 51 51
-0.106122 0.329107 0.854211 -0.920301 0.360854 -0.151096 51 51 51
-0.106259 0.316949 0.826009 -0.920301 0.360854 -0.151096 51 51 51
-0.106122 0.329107 0.854211 -0.374366 0.852179 -0.365569 51 51 51
-0.042039 0.352752 0.843706 -0.374366 0.852179 -0.365569 51 51 51
-0.042177 0.340594 0.815504 -0.374366 0.852179 -0.365569 51 51 51
-0.041701 0.191294 0.913312 0.004463 0.395888 0.918288 51 51 51
0.022381 0.214939 0.902806 0.004463 0.395888 0.918288 51 51 51
-0.042039 0.352752 0.843706 0.004463 0.395888 0.918288 51 51 51
0.048826 0.272023 0.878068 0.004470 0.395889 0.918288 51 51 51
0.022142 0.329107 0.853588 0.004470 0.395889 0.918288 51 51 51
0.022381 0.214939 0.902806 0.004470 0.395889 0.918288 51 51 51
-0.042039 0.352752 0.843706 0.004463 0.395889 0.918288 51 51 51
-0.106122 0.329107 0.854211 0.004463 0.395889 0.918288 51 51 51
-0.105883 0.214939 0.903430 0.004463 0.395889 0.918288 51 51 51
-0.132567 0.272023 0.878950 0.004465 0.395889 0.918288 51 51 51
-0.105883 0.214939 0.903430 0.004465 0.395889 0.918288 51 51 51
-0.106122 0.329107 0.854211 0.004465 0.395889 0.918288 51 51 51
0.022381 0.214939 0.902806 0.004466 0.395889 0.918288 51 51 51
0.022142 0.329107 0.853588 0.004466 0.395889 0.918288 51 51 51
-0.042039 0.352752 0.843706 0.004466 0.395889 0.918288 51 51 51
-0.042177 0.340594 0.815504 0.370794 0.852179 -0.369192 51 51 51
-0.042039 0.352752 0.843706 0.370794 0.852179 -0.369192 51 51 51
0.022142 0.329107 0.853588 0.370794 0.852179 -0.369192 51 51 51
0.022005 0.316949 0.825385 0.918788 0.360854 -0.160038 51 51 51
0.022142 0.329107 0.853588 0.918788 0.360854 -0.160038 51 51 51
0.048826 0.272023 0.878068 0.918788 0.360854 -0.160038 51 51 51
0.022005 0.316949 0.825385 -0.004466 -0.395888 -0.918288 51 51 51
0.048689 0.259865 0.849866 -0.004466 -0.395888 -0.918288 51 51 51
0.022244 0.202780 0.874604 -0.004466 -0.395888 -0.918288 51 51 51
-0.041838 0.179135 0.885110 -0.004466 -0.395888 -0.918288 51 51 51
-0.106020 0.202780 0.875228 -0.004463 -0.395888 -0.918288 51 51 51
-0.132704 0.259865 0.850748 -0.004463 -0.395888 -0.918288 51 51 51
-0.106259 0.316949 0.826009 -0.004463 -0.395888 -0.918288 51 51 51
-0.106259 0.316949 0.826009 -0.004465 -0.395888 -0.918288 51 51 51
0.022005 0.316949 0.825385 -0.004465 -0.395888 -0.918288 51 51 51
0.022200 0.514297 0.865584 0.919544 -0.392961 -0.004471 51 51 51
0.022200 0.514297 0.865584 0.372581 -0.927998 -0.001812 51 51 51
-0.041932 0.488548 0.865896 0.372581 -0.927998 -0.001812 51 51 51
-0.042081 0.488548 0.835185 0.372581 -0.927998 -0.001812 51 51 51
-0.041932 0.488548 0.865896 -0.372581 -0.927998 0.001811 51 51 51
-0.106064 0.514297 0.866208 -0.372581 -0.927998 0.001811 51 51 51
-0.106213 0.514297 0.835497 -0.372581 -0.927998 0.001811 51 51 51
-0.106064 0.514297 0.866208 -0.919544 -0.392961 0.004471 51 51 51
-0.132628 0.576460 0.866337 -0.919544 -0.392961 0.004471 51 51 51
-0.132777 0.576460 0.835626 -0.919544 -0.392961 0.004471 51 51 51
-0.132777 0.576460 0.835626 -0.919545 0.392960 0.004471 51 51 51
-0.132628 0.576460 0.866337 -0.919545 0.392960 0.004471 51 51 51
-0.106064 0.638623 0.866208 -0.919545 0.392960 0.004471 51 51 51
-0.106064 0.638623 0.866208 -0.372579 0.927999 0.001813 51 51 51
-0.041932 0.664372 0.865896 -0.372579 0.927999 0.001813 51 51 51
-0.042081 0.664372 0.835185 -0.372579 0.927999 0.001813 51 51 51
0.022200 0.514297 0.865584 0.004863 -0.000000 0.999988 51 51 51
0.048765 0.576460 0.865455 0.004860 -0.000000 0.999988 51 51 51
0.022200 0.638623 0.865584 0.004860 -0.000000 0.999988 51 51 51
0.022200 0.514297 0.865584 0.004860 -0.000000 0.999988 51 51 51
-0.041932 0.664372 0.865896 0.004864 -0.000000 0.999988 51 51 51
-0.106064 0.638623 0.866208 0.004864 -0.000000 0.999988 51 51 51
-0.106064 0.514297 0.866208 0.004864 -0.000000 0.999988 51 51 51
-0.132628 0.576460 0.866337 0.004859 -0.000000 0.999988 51 51 51
-0.106064 0.514297 0.866208 0.004859 -0.000000 0.999988 51 51 51
-0.106064 0.638623 0.866208 0.004859 -0.000000 0.999988 51 51 51
0.022200 0.638623 0.865584 0.004863 0.000000 0.999988 51 51 51
-0.041932 0.664372 0.865896 0.372579 0.927999 -0.001812 51 51 51
0.022200 0.638623 0.865584 0.372579 0.927999 -0.001812 51 51 51
0.022051 0.638623 0.834873 0.372579 0.927999 -0.001812 51 51 51
0.048765 0.576460 0.865455 0.919544 0.392961 -0.004471 51 51 51
0.022051 0.638623 0.834873 -0.004862 -0.000000 -0.999988 51 51 51
0.048615 0.576460 0.834744 -0.004862 -0.000000 -0.999988 51 51 51
0.022051 0.514297 0.834873 -0.004862 -0.000000 -0.999988 51 51 51
0.022051 0.514297 0.834873 -0.004863 -0.000000 -0.999988 51 51 51
-0.042081 0.488548 0.835185 -0.004863 -0.000000 -0.999988 51 51 51
0.022051 0.638623 0.834873 -0.004863 -0.000000 -0.999988 51 51 51
-0.106213 0.514297 0.835497 -0.004864 0.000000 -0.999988 51 51 51
-0.132777 0.576460 0.835626 -0.004864 0.000000 -0.999988 51 51 51
-0.106213 0.638623 0.835497 -0.004864 0.000000 -0.999988 51 51 51
-0.106213 0.638623 0.835497 -0.004862 0.000000 -0.999988 51 51 51
-0.042081 0.664372 0.835185 -0.004863 -0.000000 -0.999988 51 51 51
0.048982 0.889505 0.910204 0.919544 -0.392961 -0.004471 51 51 51
0.022418 0.827342 0.910333 0.919544 -0.392961 -0.004471 51 51 51
0.022269 0.827342 0.879622 0.919544 -0.392961 -0.004471 51 51 51
0.022269 0.827342 0.879622 0.372581 -0.927998 -0.001811 51 51 51
0.022418 0.827342 0.910333 0.372581 -0.927998 -0.001811 51 51 51
-0.041714 0.801593 0.910645 0.372581 -0.927998 -0.001811 51 51 51
-0.041714 0.801593 0.910645 -0.372581 -0.927998 0.001811 51 51 51
-0.105846 0.827342 0.910957 -0.372581 -0.927998 0.001811 51 51 51
-0.105995 0.827342 0.880245 -0.372581 -0.927998 0.001811 51 51 51
-0.105846 0.827342 0.910957 -0.919545 -0.392960 0.004471 51 51 51
-0.132410 0.889505 0.911086 -0.919545 -0.392960 0.004471 51 51 51
-0.132560 0.889505 0.880375 -0.919545 -0.392960 0.004471 51 51 51
-0.132410 0.889505 0.911086 -0.919544 0.392961 0.004471 51 51 51
-0.105846 0.951668 0.910957 -0.372580 0.927998 0.001812 51 51 51
-0.041714 0.977417 0.910645 -0.372580 0.927998 0.001812 51 51 51
-0.041863 0.977417 0.879934 -0.372580 0.927998 0.001812 51 51 51
-0.041714 0.801593 0.910645 0.004862 -0.000000 0.999988 51 51 51
0.022418 0.827342 0.910333 0.004862 -0.000000 0.999988 51 51 51
-0.041714 0.977417 0.910645 0.004862 -0.000000 0.999988 51 51 51
0.048982 0.889505 0.910204 0.004862 -0.000000 0.999988 51 51 51
0.022418 0.951668 0.910333 0.004862 -0.000000 0.999988 51 51 51
-0.041714 0.977417 0.910645 0.004864 -0.000000 0.999988 51 51 51
-0.105846 0.951668 0.910957 0.004864 -0.000000 0.999988 51 51 51
-0.105846 0.827342 0.910957 0.004864 -0.000000 0.999988 51 51 51
-0.132410 0.889505 0.911086 0.004859 -0.000000 0.999988 51 51 51
-0.105846 0.827342 0.910957 0.004859 -0.000000 0.999988 51 51 51
-0.105846 0.951668 0.910957 0.004859 -0.000000 0.999988 51 51 51
0.022418 0.827342 0.910333 0.004863 0.000000 0.999988 51 51 51
0.022418 0.951668 0.910333 0.004863 0.000000 0.999988 51 51 51
-0.041714 0.977417 0.910645 0.372580 0.927998 -0.001811 51 51 51
0.022418 0.951668 0.910333 0.372580 0.927998 -0.001811 51 51 51
0.022269 0.951668 0.879622 0.372580 0.927998 -0.001811 51 51 51
0.022269 0.951668 0.879622 0.919544 0.392961 -0.004471 51 51 51
0.022418 0.951668 0.910333 0.919544 0.392961 -0.004471 51 51 51
0.048982 0.889505 0.910204 0.919544 0.392961 -0.004471 51 51 51
0.022269 0.951668 0.879622 -0.004864 0.000000 -0.999988 51 51 51
0.048833 0.889505 0.879493 -0.004864 0.000000 -0.999988 51 51 51
0.022269 0.827342 0.879622 -0.004864 0.000000 -0.999988 51 51 51
0.022269 0.827342 0.879622 -0.004862 0.000000 -0.999988 51 51 51
0.022269 0.951668 0.879622 -0.004862 0.000000 -0.999988 51 51 51
-0.105995 0.827342 0.880245 -0.004864 0.000000 -0.999988 51 51 51
-0.132560 0.889505 0.880375 -0.004864 0.000000 -0.999988 51 51 51
-0.105995 0.951668 0.880245 -0.004864 0.000000 -0.999988 51 51 51
-0.105995 0.951668 0.880245 -0.004862 0.000000 -0.999988 51 51 51
0.052878 1.183075 0.772613 0.827849 -0.462307 0.317707 51 51 51
0.014958 1.137226 0.804705 0.827849 -0.462307 0.317707 51 51 51
0.014836 1.119683 0.779497 0.827849 -0.462307 0.317707 51 51 51
0.014958 1.137226 0.804705 0.188974 -0.806439 0.560308 51 51 51
-0.052905 1.126661 0.812387 0.188974 -0.806439 0.560308 51 51 51
-0.053027 1.109118 0.787180 0.188974 -0.806439 0.560308 51 51 51
-0.053027 1.109118 0.787180 -0.542542 -0.688254 0.481616 51 51 51
-0.052905 1.126661 0.812387 -0.542542 -0.688254 0.481616 51 51 51
-0.110957 1.157569 0.791160 -0.542542 -0.688254 0.481616 51 51 51
-0.110957 1.157569 0.791160 -0.977567 -0.170622 0.123494 51 51 51
-0.125193 1.211844 0.753458 -0.977567 -0.170622 0.123494 51 51 51
-0.125316 1.194301 0.728250 -0.977567 -0.170622 0.123494 51 51 51
-0.125193 1.211844 0.753458 -0.827849 0.462305 -0.317709 51 51 51
-0.087273 1.257693 0.721366 -0.827849 0.462305 -0.317709 51 51 51
-0.087396 1.240150 0.696158 -0.827849 0.462305 -0.317709 51 51 51
-0.087396 1.240150 0.696158 -0.188974 0.806440 -0.560307 51 51 51
-0.087273 1.257693 0.721366 -0.188974 0.806440 -0.560307 51 51 51
-0.019410 1.268258 0.713683 -0.188974 0.806440 -0.560307 51 51 51
-0.052905 1.126661 0.812387 0.003991 0.571213 0.820792 51 51 51
0.014958 1.137226 0.804705 0.003991 0.571213 0.820792 51 51 51
-0.019410 1.268258 0.713683 0.003991 0.571213 0.820792 51 51 51
0.052878 1.183075 0.772613 0.003992 0.571212 0.820793 51 51 51
0.038642 1.237350 0.734911 0.003992 0.571212 0.820793 51 51 51
0.014958 1.137226 0.804705 0.003992 0.571212 0.820793 51 51 51
-0.019410 1.268258 0.713683 0.003991 0.571212 0.820793 51 51 51
-0.087273 1.257693 0.721366 0.003991 0.571212 0.820793 51 51 51
-0.110957 1.157569 0.791160 0.003991 0.571212 0.820793 51 51 51
-0.125193 1.211844 0.753458 0.003993 0.571212 0.820793 51 51 51
-0.110957 1.157569 0.791160 0.003993 0.571212 0.820793 51 51 51
-0.087273 1.257693 0.721366 0.003993 0.571212 0.820793 51 51 51
0.038642 1.237350 0.734911 0.003991 0.571213 0.820792 51 51 51
-0.019410 1.268258 0.713683 0.542542 0.688255 -0.481615 51 51 51
0.038642 1.237350 0.734911 0.542542 0.688255 -0.481615 51 51 51
0.038520 1.219807 0.709703 0.542542 0.688255 -0.481615 51 51 51
0.038520 1.219807 0.709703 0.977567 0.170622 -0.123493 51 51 51
0.038642 1.237350 0.734911 0.977567 0.170622 -0.123493 51 51 51
0.052878 1.183075 0.772613 0.977567 0.170622 -0.123493 51 51 51
0.038520 1.219807 0.709703 -0.003993 -0.571213 -0.820792 51 51 51
0.052756 1.165532 0.747405 -0.003993 -0.571213 -0.820792 51 51 51
0.014836 1.119683 0.779497 -0.003993 -0.571213 -0.820792 51 51 51
0.014836 1.119683 0.779497 -0.003991 -0.571213 -0.820792 51 51 51
-0.053027 1.109118 0.787180 -0.003991 -0.571213 -0.820792 51 51 51
0.038520 1.219807 0.709703 -0.003991 -0.571213 -0.820792 51 51 51
-0.111080 1.140026 0.765952 -0.003992 -0.571212 -0.820793 51 51 51
-0.125316 1.194301 0.728250 -0.003992 -0.571212 -0.820793 51 51 51
-0.087396 1.240150 0.696158 -0.003992 -0.571212 -0.820793 51 51 51
-0.087396 1.240150 0.696158 -0.003991 -0.571213 -0.820792 51 51 51
-0.019533 1.250715 0.688475 -0.003991 -0.571213 -0.820792 51 51 51
-0.111080 1.140026 0.765952 -0.003991 -0.571213 -0.820792 51 51 51
3 0 1 2
3 3 4 5
3 6 7 8
3 9 10 11
3 12 13 14
3 15 16 17
3 18 19 20
3 21 22 23
3 24 25 26
3 27 28 29
3 30 31 32
3 33 34 35
3 36 37 38
3 39 40 41
3 42 43 44
3 45 46 47
3 48 49 50
3 51 52 53
3 54 55 56
3 57 58 59
3 60 61 62
3 63 64 65
3 66 67 68
3 69 70 71
3 72 73 74
3 75 76 77
3 78 79 80
3 81 82 83
3 84 85 86
3 87 88 89
3 90 91 92
3 93 94 95
3 96 97 98
3 99 100 101
3 102 103 104
3 105 106 107
3 108 109 110
3 111 112 113
3 114 115 116
3 117 118 119
3 120 121 122
3 123 124 125
3 126 127 128
3 129 130 131
3 132 133 134
3 135 136 137
3 138 139 140
3 141 142 143
3 144 145 146
3 147 148 149
3 150 151 152
3 153 154 155
3 156 157 158
3 159 160 161
3 162 163 164
3 165 166 167
3 168 169 170
3 171 172 173
3 174 175 176
3 177 178 179
3 180 181 182
3 183 184 185
3 186 187 188
3 189 190 191
3 192 193 194
3 195 196 197
3 198 199 200
3 201 202 203
3 204 205 206
3 207 208 209
3 210 211 212
3 213 214 215
3 216 217 218
3 219 220 221
3 222 223 224
3 225 226 227
3 228 229 230
3 231 232 233
3 234 235 236
3 237 238 239
3 240 241 242
3 243 244 245
3 246 247 248
3 249 250 251
3 252 253 254
3 255 256 257
3 258 259 260
3 261 262 263
3 264 265 266
3 267 268 269
3 270 271 272
3 273 274 275
3 276 277 278
3 279 280 281
3 282 283 284
3 285 286 287
3 288 289 290
3 291 292 293
3 294 295 296
3 297 298 299
3 300 301 302
3 303 304 305
3 306 307 308
3 309 310 311
3 312 313 314
3 315 316 317
3 318 319 320
3 321 322 323
3 324 325 326
3 327 328 329
3 330 331 332
3 333 334 335
3 336 337 338
3 339 340 341
3 342 343 344
3 345 346 347
3 348 349 350
3 351 352 353
3 354 355 356
3 357 358 359
3 360 361 362
3 363 364 365
3 366 367 368
3 369 370 371
3 372 373 374
3 375 376 377
3 378 379 380
3 381 382 383
3 384 385 386
3 387 388 389
3 389 390 387
3 391 392 393
3 394 28 27
3 395 29 28
3 30 396 31
3 397 398 399
3 400 401 402
3 403 404 405
3 406 407 408
3 409 410 411
3 50 412 48
3 413 414 415
3 416 417 418
3 419 420 421
3 412 422 48
3 423 424 425
3 54 426 55
3 427 428 429
3 430 431 432
3 433 434 435
3 436 58 57
3 432 431 437
3 438 439 440
3 441 442 443
3 444 445 446
3 447 448 449
3 72 450 73
3 451 452 453
3 454 455 456
3 457 458 455
3 459 460 461
3 462 463 464
3 465 466 78
3 467 468 469
3 470 471 472
3 473 474 475
3 476 89 477
3 478 479 480
3 481 88 87
3 477 89 88
3 482 483 484
3 485 486 487
3 488 489 490
3 491 492 493
3 494 495 496
3 497 498 499
3 500 501 502
3 503 504 505
3 506 507 508
3 509 510 511
3 501 512 502
3 513 514 515
3 516 517 518
3 519 520 521
3 522 523 524
3 525 526 527
3 528 529 530
3 524 523 529
