ply
format ascii 1.0
comment Created by Blender 2.77 (sub 0) - www.blender.org, source file: 'SpiderBoss.blend'
element vertex 183
property float x
property float y
property float z
property float nx
property float ny
property float nz
property uchar red
property uchar green
property uchar blue
element face 72
property list uchar uint vertex_indices
end_header
1.145513 0.568557 -1.913914 0.709855 0.672499 -0.209408 102 102 102
1.854351 -0.317925 -2.357955 0.709855 0.672499 -0.209408 102 102 102
1.790603 -0.287695 -2.476964 0.709855 0.672499 -0.209408 102 102 102
1.854351 -0.317925 -2.357955 0.845118 0.415628 0.336197 102 102 102
1.203108 0.459182 -1.681596 0.845118 0.415628 0.336197 102 102 102
1.848198 -0.397070 -2.244646 0.845118 0.415628 0.336197 102 102 102
1.203108 0.459182 -1.681596 0.657574 -0.000001 0.753390 102 102 102
1.774496 -0.494898 -2.180317 0.657574 -0.000001 0.753390 102 102 102
1.848198 -0.397070 -2.244646 0.657574 -0.000001 0.753390 102 102 102
1.129405 0.361353 -1.617267 0.218861 -0.415627 0.882810 102 102 102
1.661395 -0.574043 -2.189539 0.218861 -0.415627 0.882810 102 102 102
1.774496 -0.494898 -2.180317 0.218861 -0.415627 0.882810 102 102 102
1.016304 0.282209 -1.626489 -0.303451 -0.672499 0.675028 102 102 102
1.552096 -0.604273 -2.268790 -0.303451 -0.672499 0.675028 102 102 102
1.661395 -0.574043 -2.189539 -0.303451 -0.672499 0.675028 102 102 102
0.907006 0.251978 -1.705740 -0.709855 -0.672498 0.209408 102 102 102
1.488349 -0.574043 -2.387799 -0.709855 -0.672498 0.209408 102 102 102
1.552096 -0.604273 -2.268790 -0.709855 -0.672498 0.209408 102 102 102
0.843259 0.282209 -1.824749 -0.845118 -0.415626 -0.336199 102 102 102
1.494502 -0.494898 -2.501108 -0.845118 -0.415626 -0.336199 102 102 102
1.488349 -0.574043 -2.387799 -0.845118 -0.415626 -0.336199 102 102 102
1.494502 -0.494898 -2.501108 -0.657575 -0.000001 -0.753389 102 102 102
0.923114 0.459182 -2.002388 -0.657575 -0.000001 -0.753389 102 102 102
1.568204 -0.397070 -2.565437 -0.657575 -0.000001 -0.753389 102 102 102
0.923114 0.459182 -2.002388 -0.532727 0.707107 0.464976 102 102 102
1.016304 0.282209 -1.626489 -0.532727 0.707107 0.464976 102 102 102
1.145513 0.568557 -1.913914 -0.532727 0.707107 0.464976 102 102 102
0.923114 0.459182 -2.002388 -0.218861 0.415627 -0.882810 102 102 102
1.681305 -0.317925 -2.556215 -0.218861 0.415627 -0.882810 102 102 102
1.568204 -0.397070 -2.565437 -0.218861 0.415627 -0.882810 102 102 102
1.681305 -0.317925 -2.556215 0.303451 0.672499 -0.675028 102 102 102
1.145513 0.568557 -1.913914 0.303451 0.672499 -0.675028 102 102 102
1.790603 -0.287695 -2.476964 0.303451 0.672499 -0.675028 102 102 102
1.774496 -0.494898 -2.180317 0.532726 -0.707107 -0.464976 102 102 102
1.494502 -0.494898 -2.501108 0.532726 -0.707107 -0.464976 102 102 102
1.681305 -0.317925 -2.556215 0.532726 -0.707107 -0.464976 102 102 102
1.242252 -1.439234 -2.520960 -0.629893 -0.287093 -0.721674 51 51 51
1.387612 -2.455652 -2.243487 -0.629893 -0.287093 -0.721674 51 51 51
1.312249 -2.455652 -2.177708 -0.629893 -0.287093 -0.721674 51 51 51
1.961950 -1.439234 -2.272676 0.688417 -0.406253 -0.600866 51 51 51
1.387612 -2.455652 -2.243487 0.688417 -0.406253 -0.600866 51 51 51
1.527747 -1.439234 -2.770146 0.688417 -0.406253 -0.600866 51 51 51
1.676455 -1.439234 -2.023490 0.629893 -0.287093 0.721674 51 51 51
1.421180 -2.455652 -2.205028 0.629893 -0.287093 0.721674 51 51 51
1.961950 -1.439234 -2.272676 0.629893 -0.287093 0.721674 51 51 51
1.242252 -1.439234 -2.520960 -0.742710 0.167772 0.648254 51 51 51
1.345817 -2.455652 -2.139249 -0.742710 0.167772 0.648254 51 51 51
1.676455 -1.439234 -2.023490 -0.742710 0.167772 0.648254 51 51 51
1.387612 -2.455652 -2.243487 0.000000 -1.000000 0.000000 51 51 51
1.345817 -2.455652 -2.139249 0.000000 -1.000000 0.000000 51 51 51
1.312249 -2.455652 -2.177708 0.000000 -1.000000 0.000000 51 51 51
1.345817 1.610018 -2.139249 -0.000000 1.000000 -0.000000 51 51 51
1.387612 1.610018 -2.243487 -0.000000 1.000000 -0.000000 51 51 51
1.312249 1.610018 -2.177708 -0.000000 1.000000 -0.000000 51 51 51
1.345817 1.610018 -2.139249 -0.742710 -0.167772 0.648254 51 51 51
1.242252 0.593601 -2.520960 -0.742710 -0.167772 0.648254 51 51 51
1.676455 0.593601 -2.023490 -0.742710 -0.167772 0.648254 51 51 51
1.242252 0.593601 -2.520960 -0.749216 -0.105102 0.653933 51 51 51
1.849334 -0.422816 -1.988782 -0.749216 -0.105102 0.653933 51 51 51
1.676455 0.593601 -2.023490 -0.749216 -0.105102 0.653933 51 51 51
1.231234 -0.422816 -2.696944 -0.749216 0.105102 0.653933 51 51 51
1.676455 -1.439234 -2.023490 -0.749216 0.105102 0.653933 51 51 51
1.849334 -0.422816 -1.988782 -0.749216 0.105102 0.653933 51 51 51
1.421180 1.610018 -2.205028 0.629893 0.287093 0.721673 51 51 51
1.676455 0.593601 -2.023490 0.629893 0.287093 0.721673 51 51 51
1.961950 0.593601 -2.272676 0.629893 0.287093 0.721673 51 51 51
1.961950 0.593601 -2.272676 0.651439 0.136288 0.746359 51 51 51
1.849334 -0.422816 -1.988782 0.651439 0.136288 0.746359 51 51 51
2.193403 -0.422816 -2.289093 0.651439 0.136288 0.746359 51 51 51
1.849334 -0.422816 -1.988782 0.651439 -0.136288 0.746359 51 51 51
1.961950 -1.439234 -2.272676 0.651439 -0.136288 0.746359 51 51 51
2.193403 -0.422816 -2.289093 0.651439 -0.136288 0.746359 51 51 51
1.387612 1.610018 -2.243487 0.688417 0.406253 -0.600866 51 51 51
1.961950 0.593601 -2.272676 0.688417 0.406253 -0.600866 51 51 51
1.527747 0.593601 -2.770146 0.688417 0.406253 -0.600866 51 51 51
1.527747 0.593601 -2.770146 0.741190 0.179229 -0.646927 51 51 51
2.193403 -0.422816 -2.289093 0.741190 0.179229 -0.646927 51 51 51
1.575303 -0.422816 -2.997256 0.741190 0.179229 -0.646927 51 51 51
2.193403 -0.422816 -2.289093 0.741190 -0.179229 -0.646927 51 51 51
1.527747 -1.439234 -2.770146 0.741190 -0.179229 -0.646927 51 51 51
1.575303 -0.422816 -2.997256 0.741190 -0.179229 -0.646927 51 51 51
1.387612 1.610018 -2.243487 -0.629893 0.287093 -0.721674 51 51 51
1.242252 0.593601 -2.520960 -0.629893 0.287093 -0.721674 51 51 51
1.312249 1.610018 -2.177708 -0.629893 0.287093 -0.721674 51 51 51
1.527747 0.593601 -2.770146 -0.651439 0.136288 -0.746359 51 51 51
1.231234 -0.422816 -2.696944 -0.651439 0.136288 -0.746359 51 51 51
1.242252 0.593601 -2.520960 -0.651439 0.136288 -0.746359 51 51 51
1.231234 -0.422816 -2.696944 -0.651439 -0.136288 -0.746359 51 51 51
1.527747 -1.439234 -2.770146 -0.651439 -0.136288 -0.746359 51 51 51
1.242252 -1.439234 -2.520960 -0.651439 -0.136288 -0.746359 51 51 51
1.145513 0.568557 -1.913914 0.709855 0.672499 -0.209409 102 102 102
1.209260 0.538326 -1.794905 0.709855 0.672499 -0.209409 102 102 102
1.854351 -0.317925 -2.357955 0.709855 0.672499 -0.209409 102 102 102
1.854351 -0.317925 -2.357955 0.845118 0.415627 0.336198 102 102 102
1.209260 0.538326 -1.794905 0.845118 0.415627 0.336198 102 102 102
1.203108 0.459182 -1.681596 0.845118 0.415627 0.336198 102 102 102
1.203108 0.459182 -1.681596 0.657575 -0.000000 0.753389 102 102 102
1.129405 0.361353 -1.617267 0.657575 -0.000000 0.753389 102 102 102
1.774496 -0.494898 -2.180317 0.657575 -0.000000 0.753389 102 102 102
1.129405 0.361353 -1.617267 0.218860 -0.415627 0.882810 102 102 102
1.016304 0.282209 -1.626489 0.218860 -0.415627 0.882810 102 102 102
1.661395 -0.574043 -2.189539 0.218860 -0.415627 0.882810 102 102 102
1.016304 0.282209 -1.626489 -0.303452 -0.672499 0.675028 102 102 102
0.907006 0.251978 -1.705740 -0.303452 -0.672499 0.675028 102 102 102
1.552096 -0.604273 -2.268790 -0.303452 -0.672499 0.675028 102 102 102
0.907006 0.251978 -1.705740 -0.709855 -0.672499 0.209409 102 102 102
0.843259 0.282209 -1.824749 -0.709855 -0.672499 0.209409 102 102 102
1.488349 -0.574043 -2.387799 -0.709855 -0.672499 0.209409 102 102 102
0.843259 0.282209 -1.824749 -0.845118 -0.415628 -0.336198 102 102 102
0.849411 0.361353 -1.938058 -0.845118 -0.415628 -0.336198 102 102 102
1.494502 -0.494898 -2.501108 -0.845118 -0.415628 -0.336198 102 102 102
1.494502 -0.494898 -2.501108 -0.657575 -0.000000 -0.753389 102 102 102
0.849411 0.361353 -1.938058 -0.657575 -0.000000 -0.753389 102 102 102
0.923114 0.459182 -2.002388 -0.657575 -0.000000 -0.753389 102 102 102
1.203108 0.459182 -1.681596 -0.532726 0.707107 0.464976 102 102 102
1.209260 0.538326 -1.794905 -0.532726 0.707107 0.464976 102 102 102
1.145513 0.568557 -1.913914 -0.532726 0.707107 0.464976 102 102 102
1.036215 0.538326 -1.993165 -0.532727 0.707107 0.464976 102 102 102
0.923114 0.459182 -2.002388 -0.532727 0.707107 0.464975 102 102 102
0.849411 0.361353 -1.938058 -0.532727 0.707107 0.464975 102 102 102
0.843259 0.282209 -1.824749 -0.532727 0.707107 0.464975 102 102 102
0.843259 0.282209 -1.824749 -0.532725 0.707107 0.464977 102 102 102
0.907006 0.251978 -1.705740 -0.532725 0.707107 0.464977 102 102 102
0.923114 0.459182 -2.002388 -0.532725 0.707107 0.464977 102 102 102
1.129405 0.361353 -1.617267 -0.532727 0.707107 0.464976 102 102 102
1.203108 0.459182 -1.681596 -0.532727 0.707107 0.464976 102 102 102
1.016304 0.282209 -1.626489 -0.532726 0.707107 0.464976 102 102 102
0.923114 0.459182 -2.002388 -0.532727 0.707106 0.464976 102 102 102
0.907006 0.251978 -1.705740 -0.532727 0.707106 0.464976 102 102 102
1.016304 0.282209 -1.626489 -0.532727 0.707106 0.464976 102 102 102
0.923114 0.459182 -2.002388 -0.218859 0.415628 -0.882810 102 102 102
1.036215 0.538326 -1.993165 -0.218859 0.415628 -0.882810 102 102 102
1.681305 -0.317925 -2.556215 -0.218859 0.415628 -0.882810 102 102 102
1.036215 0.538326 -1.993165 0.303451 0.672499 -0.675028 102 102 102
1.790603 -0.287695 -2.476964 0.532726 -0.707107 -0.464976 102 102 102
1.854351 -0.317925 -2.357955 0.532727 -0.707106 -0.464976 102 102 102
1.848198 -0.397070 -2.244646 0.532727 -0.707106 -0.464976 102 102 102
1.774496 -0.494898 -2.180317 0.532727 -0.707106 -0.464976 102 102 102
1.774496 -0.494898 -2.180317 0.532726 -0.707106 -0.464977 102 102 102
1.661395 -0.574043 -2.189539 0.532726 -0.707106 -0.464977 102 102 102
1.552096 -0.604273 -2.268790 0.532726 -0.707106 -0.464977 102 102 102
1.552096 -0.604273 -2.268790 0.532727 -0.707106 -0.464976 102 102 102
1.488349 -0.574043 -2.387799 0.532727 -0.707106 -0.464976 102 102 102
1.494502 -0.494898 -2.501108 0.532727 -0.707106 -0.464976 102 102 102
1.494502 -0.494898 -2.501108 0.532726 -0.707107 -0.464977 102 102 102
1.568204 -0.397070 -2.565437 0.532726 -0.707107 -0.464977 102 102 102
1.681305 -0.317925 -2.556215 0.532726 -0.707107 -0.464977 102 102 102
1.790603 -0.287695 -2.476964 0.532727 -0.707106 -0.464976 102 102 102
1.552096 -0.604273 -2.268790 0.532726 -0.707107 -0.464976 102 102 102
1.527747 -1.439234 -2.770146 -0.629893 -0.287093 -0.721674 51 51 51
1.961950 -1.439234 -2.272676 0.688418 -0.406254 -0.600865 51 51 51
1.421180 -2.455652 -2.205028 0.688418 -0.406254 -0.600865 51 51 51
1.387612 -2.455652 -2.243487 0.688418 -0.406254 -0.600865 51 51 51
1.345817 -2.455652 -2.139249 0.629893 -0.287093 0.721674 51 51 51
1.242252 -1.439234 -2.520960 -0.742712 0.167772 0.648253 51 51 51
1.312249 -2.455652 -2.177708 -0.742712 0.167772 0.648253 51 51 51
1.345817 -2.455652 -2.139249 -0.742712 0.167772 0.648253 51 51 51
1.421180 -2.455652 -2.205028 0.000000 -1.000000 -0.000000 51 51 51
1.421180 1.610018 -2.205028 0.000000 1.000000 -0.000000 51 51 51
1.345817 1.610018 -2.139249 -0.742712 -0.167772 0.648253 51 51 51
1.312249 1.610018 -2.177708 -0.742712 -0.167772 0.648253 51 51 51
1.242252 0.593601 -2.520960 -0.742712 -0.167772 0.648253 51 51 51
1.231234 -0.422816 -2.696944 -0.749216 -0.105102 0.653933 51 51 51
1.242252 -1.439234 -2.520960 -0.749216 0.105102 0.653933 51 51 51
1.421180 1.610018 -2.205028 0.629893 0.287093 0.721674 51 51 51
1.345817 1.610018 -2.139249 0.629893 0.287093 0.721674 51 51 51
1.676455 0.593601 -2.023490 0.629893 0.287093 0.721674 51 51 51
1.676455 0.593601 -2.023490 0.651439 0.136288 0.746359 51 51 51
1.676455 -1.439234 -2.023490 0.651439 -0.136288 0.746359 51 51 51
1.387612 1.610018 -2.243487 0.688418 0.406254 -0.600865 51 51 51
1.421180 1.610018 -2.205028 0.688418 0.406254 -0.600865 51 51 51
1.961950 0.593601 -2.272676 0.688418 0.406254 -0.600865 51 51 51
1.961950 0.593601 -2.272676 0.741190 0.179229 -0.646927 51 51 51
1.961950 -1.439234 -2.272676 0.741190 -0.179229 -0.646927 51 51 51
1.387612 1.610018 -2.243487 -0.629893 0.287093 -0.721673 51 51 51
1.527747 0.593601 -2.770146 -0.629893 0.287093 -0.721673 51 51 51
1.242252 0.593601 -2.520960 -0.629893 0.287093 -0.721673 51 51 51
1.527747 0.593601 -2.770146 -0.651440 0.136288 -0.746359 51 51 51
1.575303 -0.422816 -2.997256 -0.651440 0.136288 -0.746359 51 51 51
1.231234 -0.422816 -2.696944 -0.651440 0.136288 -0.746359 51 51 51
1.231234 -0.422816 -2.696944 -0.651440 -0.136288 -0.746359 51 51 51
1.575303 -0.422816 -2.997256 -0.651440 -0.136288 -0.746359 51 51 51
1.527747 -1.439234 -2.770146 -0.651440 -0.136288 -0.746359 51 51 51
3 0 1 2
3 3 4 5
3 6 7 8
3 9 10 11
3 12 13 14
3 15 16 17
3 18 19 20
3 21 22 23
3 24 25 26
3 27 28 29
3 30 31 32
3 33 34 35
3 36 37 38
3 39 40 41
3 42 43 44
3 45 46 47
3 48 49 50
3 51 52 53
3 54 55 56
3 57 58 59
3 60 61 62
3 63 64 65
3 66 67 68
3 69 70 71
3 72 73 74
3 75 76 77
3 78 79 80
3 81 82 83
3 84 85 86
3 87 88 89
3 90 91 92
3 93 94 95
3 96 97 98
3 99 100 101
3 102 103 104
3 105 106 107
3 108 109 110
3 111 112 113
3 114 115 116
3 26 117 24
3 118 119 120
3 121 122 123
3 25 124 125
3 114 116 126
3 127 128 129
3 130 131 132
3 30 133 31
3 35 134 33
3 135 136 137
3 138 139 140
3 141 142 143
3 144 145 146
3 147 135 137
3 33 148 34
3 36 149 37
3 150 151 152
3 42 153 43
3 154 155 156
3 48 157 49
3 51 158 52
3 159 160 161
3 57 162 58
3 60 163 61
3 164 165 166
3 66 167 67
3 69 168 70
3 169 170 171
3 75 172 76
3 78 173 79
3 174 175 176
3 177 178 179
3 180 181 182
