ply
format ascii 1.0
comment Created by Blender 2.77 (sub 0) - www.blender.org, source file: 'SpiderBoss.blend'
element vertex 175
property float x
property float y
property float z
property float nx
property float ny
property float nz
property uchar red
property uchar green
property uchar blue
element face 72
property list uchar uint vertex_indices
end_header
-1.230861 0.568557 -1.890539 -0.405672 0.672499 -0.619012 102 102 102
-1.860854 -0.317925 -2.440751 -0.405672 0.672499 -0.619012 102 102 102
-1.956354 -0.287695 -2.345322 -0.405672 0.672499 -0.619012 102 102 102
-1.135362 0.538326 -1.985968 0.077539 0.415627 -0.906224 102 102 102
-1.750604 -0.397070 -2.467616 0.077539 0.415627 -0.906224 102 102 102
-1.860854 -0.317925 -2.440751 0.077539 0.415627 -0.906224 102 102 102
-1.025112 0.459182 -2.012833 0.531133 -0.000000 -0.847289 102 102 102
-1.667715 -0.494898 -2.415656 0.531133 -0.000000 -0.847289 102 102 102
-1.750604 -0.397070 -2.467616 0.531133 -0.000000 -0.847289 102 102 102
-1.667715 -0.494898 -2.415656 0.781851 -0.415627 -0.464718 102 102 102
-0.918356 0.282209 -1.849935 0.781851 -0.415627 -0.464718 102 102 102
-1.643849 -0.574043 -2.304718 0.781851 -0.415627 -0.464718 102 102 102
-0.918356 0.282209 -1.849935 0.733929 -0.672498 0.095359 102 102 102
-1.688120 -0.604273 -2.177177 0.733929 -0.672498 0.095359 102 102 102
-1.643849 -0.574043 -2.304718 0.733929 -0.672498 0.095359 102 102 102
-0.962628 0.251978 -1.722394 0.405672 -0.672499 0.619012 102 102 102
-1.783620 -0.574043 -2.081748 0.405672 -0.672499 0.619012 102 102 102
-1.688120 -0.604273 -2.177177 0.405672 -0.672499 0.619012 102 102 102
-1.058128 0.282209 -1.626965 -0.077538 -0.415628 0.906224 102 102 102
-1.893870 -0.494898 -2.054883 -0.077538 -0.415628 0.906224 102 102 102
-1.783620 -0.574043 -2.081748 -0.077538 -0.415628 0.906224 102 102 102
-1.168378 0.361353 -1.600100 -0.531133 0.000000 0.847289 102 102 102
-1.976759 -0.397070 -2.106843 -0.531133 0.000000 0.847289 102 102 102
-1.893870 -0.494898 -2.054883 -0.531133 0.000000 0.847289 102 102 102
-1.251266 0.459182 -1.652060 0.599123 0.707107 0.375567 102 102 102
-0.942223 0.361353 -1.960873 0.599123 0.707107 0.375567 102 102 102
-1.025112 0.459182 -2.012833 0.599123 0.707107 0.375567 102 102 102
-1.251266 0.459182 -1.652060 -0.781851 0.415627 0.464718 102 102 102
-2.000625 -0.317925 -2.217780 -0.781851 0.415627 0.464718 102 102 102
-1.976759 -0.397070 -2.106843 -0.781851 0.415627 0.464718 102 102 102
-2.000625 -0.317925 -2.217780 -0.733929 0.672499 -0.095360 102 102 102
-1.230861 0.568557 -1.890539 -0.733929 0.672499 -0.095360 102 102 102
-1.956354 -0.287695 -2.345322 -0.733929 0.672499 -0.095360 102 102 102
-1.667715 -0.494898 -2.415656 -0.599124 -0.707107 -0.375567 102 102 102
-1.893870 -0.494898 -2.054883 -0.599124 -0.707107 -0.375567 102 102 102
-1.860854 -0.317925 -2.440751 -0.599124 -0.707107 -0.375567 102 102 102
-1.839954 -1.439234 -1.807664 -0.508773 -0.287093 0.811621 51 51 51
-1.616349 -2.455652 -2.027030 -0.508773 -0.287093 0.811621 51 51 51
-1.531592 -2.455652 -1.973899 -0.508773 -0.287093 0.811621 51 51 51
-1.810321 -1.439234 -2.568408 -0.774219 -0.406253 -0.485328 51 51 51
-1.616349 -2.455652 -2.027030 -0.774219 -0.406253 -0.485328 51 51 51
-2.161032 -1.439234 -2.008935 -0.774219 -0.406253 -0.485328 51 51 51
-1.489243 -1.439234 -2.367136 0.508773 -0.287093 -0.811620 51 51 51
-1.589235 -2.455652 -2.070282 0.508773 -0.287093 -0.811620 51 51 51
-1.810321 -1.439234 -2.568408 0.508773 -0.287093 -0.811620 51 51 51
-1.489243 -1.439234 -2.367136 0.835279 0.167772 0.523604 51 51 51
-1.531592 -2.455652 -1.973899 0.835279 0.167772 0.523604 51 51 51
-1.504479 -2.455652 -2.017152 0.835279 0.167772 0.523604 51 51 51
-1.531592 -2.455652 -1.973899 -0.000000 -1.000000 0.000000 51 51 51
-1.589235 -2.455652 -2.070282 -0.000000 -1.000000 0.000000 51 51 51
-1.504479 -2.455652 -2.017152 -0.000000 -1.000000 0.000000 51 51 51
-1.589235 1.610018 -2.070282 0.000000 1.000000 0.000000 51 51 51
-1.531592 1.610018 -1.973899 0.000000 1.000000 0.000000 51 51 51
-1.504479 1.610018 -2.017152 0.000000 1.000000 0.000000 51 51 51
-1.531592 1.610018 -1.973899 0.835279 -0.167772 0.523604 51 51 51
-1.489243 0.593601 -2.367136 0.835279 -0.167772 0.523604 51 51 51
-1.504479 1.610018 -2.017152 0.835279 -0.167772 0.523604 51 51 51
-1.489243 0.593601 -2.367136 0.842596 -0.105101 0.528191 51 51 51
-2.005240 -0.422816 -1.746243 0.842596 -0.105101 0.528191 51 51 51
-1.505992 -0.422816 -2.542668 0.842596 -0.105101 0.528191 51 51 51
-2.005240 -0.422816 -1.746243 0.842596 0.105101 0.528191 51 51 51
-1.489243 -1.439234 -2.367136 0.842596 0.105101 0.528191 51 51 51
-1.505992 -0.422816 -2.542668 0.842596 0.105101 0.528191 51 51 51
-1.589235 1.610018 -2.070282 0.508773 0.287093 -0.811620 51 51 51
-1.489243 0.593601 -2.367136 0.508773 0.287093 -0.811620 51 51 51
-1.810321 0.593601 -2.568408 0.508773 0.287093 -0.811620 51 51 51
-1.810321 0.593601 -2.568408 0.526176 0.136288 -0.839383 51 51 51
-1.505992 -0.422816 -2.542668 0.526176 0.136288 -0.839383 51 51 51
-1.892945 -0.422816 -2.785233 0.526176 0.136288 -0.839383 51 51 51
-1.505992 -0.422816 -2.542668 0.526176 -0.136288 -0.839383 51 51 51
-1.810321 -1.439234 -2.568408 0.526176 -0.136288 -0.839383 51 51 51
-1.892945 -0.422816 -2.785233 0.526176 -0.136288 -0.839383 51 51 51
-1.589235 1.610018 -2.070282 -0.774219 0.406253 -0.485328 51 51 51
-2.161032 0.593601 -2.008935 -0.774219 0.406253 -0.485328 51 51 51
-1.616349 1.610018 -2.027030 -0.774219 0.406253 -0.485328 51 51 51
-2.161032 0.593601 -2.008935 -0.833569 0.179229 -0.522532 51 51 51
-1.892945 -0.422816 -2.785233 -0.833569 0.179229 -0.522532 51 51 51
-2.392193 -0.422816 -1.988809 -0.833569 0.179229 -0.522532 51 51 51
-1.892945 -0.422816 -2.785233 -0.833569 -0.179229 -0.522532 51 51 51
-2.161032 -1.439234 -2.008935 -0.833569 -0.179229 -0.522532 51 51 51
-2.392193 -0.422816 -1.988809 -0.833569 -0.179229 -0.522532 51 51 51
-1.616349 1.610018 -2.027030 -0.508773 0.287093 0.811621 51 51 51
-1.839954 0.593601 -1.807664 -0.508773 0.287093 0.811621 51 51 51
-1.531592 1.610018 -1.973899 -0.508773 0.287093 0.811621 51 51 51
-2.161032 0.593601 -2.008935 -0.526177 0.136288 0.839383 51 51 51
-2.005240 -0.422816 -1.746243 -0.526177 0.136288 0.839383 51 51 51
-1.839954 0.593601 -1.807664 -0.526177 0.136288 0.839383 51 51 51
-2.005240 -0.422816 -1.746243 -0.526177 -0.136288 0.839383 51 51 51
-2.161032 -1.439234 -2.008935 -0.526177 -0.136288 0.839383 51 51 51
-1.839954 -1.439234 -1.807664 -0.526177 -0.136288 0.839383 51 51 51
-1.135362 0.538326 -1.985968 -0.405672 0.672499 -0.619012 102 102 102
-1.025112 0.459182 -2.012833 0.077539 0.415627 -0.906224 102 102 102
-1.025112 0.459182 -2.012833 0.531133 -0.000001 -0.847288 102 102 102
-0.942223 0.361353 -1.960873 0.531133 -0.000001 -0.847288 102 102 102
-1.667715 -0.494898 -2.415656 0.531133 -0.000001 -0.847288 102 102 102
-0.942223 0.361353 -1.960873 0.781851 -0.415627 -0.464718 102 102 102
-0.918356 0.282209 -1.849935 0.733929 -0.672499 0.095359 102 102 102
-0.962628 0.251978 -1.722394 0.733929 -0.672499 0.095359 102 102 102
-1.688120 -0.604273 -2.177177 0.733929 -0.672499 0.095359 102 102 102
-1.058128 0.282209 -1.626965 0.405672 -0.672499 0.619012 102 102 102
-1.058128 0.282209 -1.626965 -0.077539 -0.415627 0.906224 102 102 102
-1.168378 0.361353 -1.600100 -0.077539 -0.415627 0.906224 102 102 102
-1.893870 -0.494898 -2.054883 -0.077539 -0.415627 0.906224 102 102 102
-1.168378 0.361353 -1.600100 -0.531133 0.000001 0.847288 102 102 102
-1.251266 0.459182 -1.652060 -0.531133 0.000001 0.847288 102 102 102
-1.976759 -0.397070 -2.106843 -0.531133 0.000001 0.847288 102 102 102
-1.025112 0.459182 -2.012833 0.599124 0.707107 0.375566 102 102 102
-1.135362 0.538326 -1.985968 0.599124 0.707107 0.375566 102 102 102
-1.230861 0.568557 -1.890539 0.599124 0.707107 0.375566 102 102 102
-1.230861 0.568557 -1.890539 0.599124 0.707107 0.375567 102 102 102
-1.275133 0.538326 -1.762998 0.599124 0.707107 0.375567 102 102 102
-1.025112 0.459182 -2.012833 0.599124 0.707107 0.375567 102 102 102
-1.251266 0.459182 -1.652060 0.599124 0.707107 0.375567 102 102 102
-1.168378 0.361353 -1.600100 0.599124 0.707107 0.375567 102 102 102
-1.058128 0.282209 -1.626965 0.599124 0.707107 0.375567 102 102 102
-0.962628 0.251978 -1.722394 0.599124 0.707107 0.375567 102 102 102
-0.918356 0.282209 -1.849935 0.599124 0.707107 0.375567 102 102 102
-0.918356 0.282209 -1.849935 0.599124 0.707106 0.375568 102 102 102
-0.942223 0.361353 -1.960873 0.599124 0.707106 0.375568 102 102 102
-1.251266 0.459182 -1.652060 0.599124 0.707106 0.375568 102 102 102
-1.251266 0.459182 -1.652060 -0.781851 0.415628 0.464717 102 102 102
-1.275133 0.538326 -1.762998 -0.781851 0.415628 0.464717 102 102 102
-2.000625 -0.317925 -2.217780 -0.781851 0.415628 0.464717 102 102 102
-2.000625 -0.317925 -2.217780 -0.733930 0.672498 -0.095359 102 102 102
-1.275133 0.538326 -1.762998 -0.733930 0.672498 -0.095359 102 102 102
-1.230861 0.568557 -1.890539 -0.733930 0.672498 -0.095359 102 102 102
-2.000625 -0.317925 -2.217780 -0.599123 -0.707107 -0.375567 102 102 102
-1.956354 -0.287695 -2.345322 -0.599123 -0.707107 -0.375567 102 102 102
-1.860854 -0.317925 -2.440751 -0.599123 -0.707107 -0.375567 102 102 102
-1.860854 -0.317925 -2.440751 -0.599124 -0.707107 -0.375566 102 102 102
-1.750604 -0.397070 -2.467616 -0.599124 -0.707107 -0.375566 102 102 102
-1.667715 -0.494898 -2.415656 -0.599124 -0.707107 -0.375566 102 102 102
-1.667715 -0.494898 -2.415656 -0.599126 -0.707105 -0.375567 102 102 102
-1.643849 -0.574043 -2.304718 -0.599126 -0.707105 -0.375567 102 102 102
-1.688120 -0.604273 -2.177177 -0.599126 -0.707105 -0.375567 102 102 102
-1.688120 -0.604273 -2.177177 -0.599124 -0.707106 -0.375569 102 102 102
-1.783620 -0.574043 -2.081748 -0.599124 -0.707106 -0.375569 102 102 102
-1.893870 -0.494898 -2.054883 -0.599124 -0.707106 -0.375569 102 102 102
-1.893870 -0.494898 -2.054883 -0.599123 -0.707107 -0.375568 102 102 102
-1.976759 -0.397070 -2.106843 -0.599123 -0.707107 -0.375568 102 102 102
-2.000625 -0.317925 -2.217780 -0.599123 -0.707107 -0.375568 102 102 102
-2.000625 -0.317925 -2.217780 -0.599124 -0.707107 -0.375567 102 102 102
-1.667715 -0.494898 -2.415656 -0.599124 -0.707106 -0.375568 102 102 102
-1.688120 -0.604273 -2.177177 -0.599124 -0.707106 -0.375568 102 102 102
-1.893870 -0.494898 -2.054883 -0.599124 -0.707106 -0.375568 102 102 102
-1.839954 -1.439234 -1.807664 -0.508773 -0.287093 0.811620 51 51 51
-2.161032 -1.439234 -2.008935 -0.508773 -0.287093 0.811620 51 51 51
-1.616349 -2.455652 -2.027030 -0.508773 -0.287093 0.811620 51 51 51
-1.589235 -2.455652 -2.070282 -0.774219 -0.406253 -0.485328 51 51 51
-1.489243 -1.439234 -2.367136 0.508773 -0.287093 -0.811621 51 51 51
-1.504479 -2.455652 -2.017152 0.508773 -0.287093 -0.811621 51 51 51
-1.589235 -2.455652 -2.070282 0.508773 -0.287093 -0.811621 51 51 51
-1.839954 -1.439234 -1.807664 0.835279 0.167772 0.523604 51 51 51
-1.616349 -2.455652 -2.027030 0.000000 -1.000000 0.000000 51 51 51
-1.616349 1.610018 -2.027030 0.000000 1.000000 0.000000 51 51 51
-1.839954 0.593601 -1.807664 0.835279 -0.167772 0.523604 51 51 51
-1.839954 0.593601 -1.807664 0.842596 -0.105101 0.528191 51 51 51
-1.839954 -1.439234 -1.807664 0.842596 0.105101 0.528191 51 51 51
-1.589235 1.610018 -2.070282 0.508773 0.287093 -0.811621 51 51 51
-1.504479 1.610018 -2.017152 0.508773 0.287093 -0.811621 51 51 51
-1.489243 0.593601 -2.367136 0.508773 0.287093 -0.811621 51 51 51
-1.810321 0.593601 -2.568408 0.526177 0.136288 -0.839383 51 51 51
-1.489243 0.593601 -2.367136 0.526177 0.136288 -0.839383 51 51 51
-1.505992 -0.422816 -2.542668 0.526177 0.136288 -0.839383 51 51 51
-1.505992 -0.422816 -2.542668 0.526177 -0.136288 -0.839383 51 51 51
-1.489243 -1.439234 -2.367136 0.526177 -0.136288 -0.839383 51 51 51
-1.810321 -1.439234 -2.568408 0.526177 -0.136288 -0.839383 51 51 51
-1.810321 0.593601 -2.568408 -0.774219 0.406253 -0.485328 51 51 51
-1.810321 0.593601 -2.568408 -0.833569 0.179229 -0.522532 51 51 51
-1.810321 -1.439234 -2.568408 -0.833569 -0.179229 -0.522532 51 51 51
-1.616349 1.610018 -2.027030 -0.508773 0.287093 0.811620 51 51 51
-2.161032 0.593601 -2.008935 -0.508773 0.287093 0.811620 51 51 51
-1.839954 0.593601 -1.807664 -0.508773 0.287093 0.811620 51 51 51
-2.392193 -0.422816 -1.988809 -0.526177 0.136288 0.839383 51 51 51
-2.392193 -0.422816 -1.988809 -0.526177 -0.136288 0.839383 51 51 51
3 0 1 2
3 3 4 5
3 6 7 8
3 9 10 11
3 12 13 14
3 15 16 17
3 18 19 20
3 21 22 23
3 24 25 26
3 27 28 29
3 30 31 32
3 33 34 35
3 36 37 38
3 39 40 41
3 42 43 44
3 45 46 47
3 48 49 50
3 51 52 53
3 54 55 56
3 57 58 59
3 60 61 62
3 63 64 65
3 66 67 68
3 69 70 71
3 72 73 74
3 75 76 77
3 78 79 80
3 81 82 83
3 84 85 86
3 87 88 89
3 0 90 1
3 3 91 4
3 92 93 94
3 9 95 10
3 96 97 98
3 15 99 16
3 100 101 102
3 103 104 105
3 106 107 108
3 109 110 111
3 112 113 114
3 114 115 116
3 117 118 119
3 111 110 112
3 112 114 116
3 120 121 122
3 123 124 125
3 126 127 128
3 129 130 131
3 132 133 134
3 135 136 137
3 138 139 140
3 141 35 34
3 142 143 144
3 145 146 147
3 39 148 40
3 149 150 151
3 45 152 46
3 48 153 49
3 51 154 52
3 54 155 55
3 57 156 58
3 60 157 61
3 158 159 160
3 161 162 163
3 164 165 166
3 72 167 73
3 75 168 76
3 78 169 79
3 170 171 172
3 84 173 85
3 87 174 88
