ply
format ascii 1.0
comment Created by Blender 2.77 (sub 0) - www.blender.org, source file: 'Wolf.blend'
element vertex 216
property float x
property float y
property float z
property float nx
property float ny
property float nz
property uchar red
property uchar green
property uchar blue
element face 76
property list uchar uint vertex_indices
end_header
-0.763698 2.553008 1.067354 -0.999123 0.036001 -0.021375 0 0 0
-0.820059 0.927015 0.963246 -0.999123 0.036001 -0.021375 0 0 0
-0.763698 2.726632 1.359773 -0.999123 0.036001 -0.021375 0 0 0
-0.742322 0.216256 1.052165 -0.993834 -0.110214 -0.012123 0 0 0
-0.820059 0.927015 0.963246 -0.993834 -0.110214 -0.012123 0 0 0
-0.820059 0.940114 0.844158 -0.993834 -0.110214 -0.012123 0 0 0
-0.742322 0.213084 1.016143 0.000000 0.000000 0.000000 0 0 0
-0.742322 0.219429 1.088187 0.000000 0.000000 0.000000 0 0 0
-0.742322 0.216256 1.052165 0.000000 0.000000 0.000000 0 0 0
-0.742322 0.219429 1.088187 -0.898225 0.178812 -0.401519 0 0 0
-0.859956 0.019978 1.262518 -0.898225 0.178812 -0.401519 0 0 0
-0.820059 0.323121 1.308267 -0.898225 0.178812 -0.401519 0 0 0
-0.820059 0.183533 1.630855 -0.974183 0.225699 0.005301 0 0 0
-0.859956 0.019978 1.262518 -0.974183 0.225699 0.005301 0 0 0
-0.859956 0.010329 1.673282 -0.974183 0.225699 0.005301 0 0 0
-0.044819 2.553008 1.067354 0.963187 -0.267220 -0.029394 0 0 0
-0.499100 0.927015 0.963246 0.963187 -0.267220 -0.029394 0 0 0
-0.499100 0.940114 0.844158 0.963187 -0.267220 -0.029394 0 0 0
-0.499100 0.927015 0.963246 0.993834 -0.110214 -0.012123 0 0 0
-0.576836 0.216256 1.052165 0.993834 -0.110214 -0.012123 0 0 0
-0.499100 0.940114 0.844158 0.993834 -0.110214 -0.012123 0 0 0
-0.576836 0.213084 1.016143 0.928437 0.370058 -0.032593 0 0 0
-0.576836 0.219429 1.088187 0.928437 0.370058 -0.032593 0 0 0
-0.499100 0.010035 0.925138 0.928437 0.370058 -0.032593 0 0 0
-0.459203 0.019978 1.262518 0.898225 0.178812 -0.401520 0 0 0
-0.576836 0.219429 1.088187 0.898225 0.178812 -0.401520 0 0 0
-0.499100 0.323121 1.308267 0.898225 0.178812 -0.401520 0 0 0
-0.459203 0.019978 1.262518 0.974183 0.225699 0.005301 0 0 0
-0.499100 0.183533 1.630855 0.974183 0.225699 0.005301 0 0 0
-0.459203 0.010329 1.673282 0.974183 0.225699 0.005301 0 0 0
-0.404258 2.542077 1.054204 -0.007471 0.859831 -0.510524 0 0 0
-0.044819 2.726632 1.359773 -0.007471 0.859831 -0.510524 0 0 0
-0.044819 2.553008 1.067354 -0.007471 0.859831 -0.510524 0 0 0
-0.659580 0.019978 1.262518 0.000000 -0.999566 0.029457 0 0 0
-0.499100 0.010035 0.925138 0.000000 -0.999566 0.029457 0 0 0
-0.459203 0.019978 1.262518 0.000000 -0.999566 0.029457 0 0 0
-0.404258 2.373564 0.698920 0.323828 -0.039026 -0.945311 51 51 51
-0.499100 0.953214 0.725069 0.323828 -0.039026 -0.945311 51 51 51
-0.659580 0.953214 0.670095 0.323828 -0.039026 -0.945311 51 51 51
-0.659580 0.375627 1.359507 0.392757 0.844014 0.365216 0 0 0
-0.499100 0.183533 1.630855 0.392757 0.844014 0.365216 0 0 0
-0.499100 0.323121 1.308267 0.392757 0.844014 0.365216 0 0 0
-0.659580 0.019978 1.262518 0.000000 -0.999724 -0.023482 0 0 0
-0.459203 0.010329 1.673282 0.000000 -0.999724 -0.023482 0 0 0
-0.659580 0.010329 1.673282 0.000000 -0.999724 -0.023482 0 0 0
-0.404258 2.710591 1.409487 0.143570 -0.247376 0.958224 0 0 0
-0.499100 0.927015 0.963246 0.143570 -0.247376 0.958224 0 0 0
-0.044819 2.726632 1.359773 0.143570 -0.247376 0.958224 0 0 0
-0.659580 0.213084 0.961168 0.516320 -0.359851 -0.777123 51 51 51
-0.499100 0.953214 0.725069 0.516320 -0.359851 -0.777123 51 51 51
-0.576836 0.213084 1.016143 0.516320 -0.359851 -0.777123 51 51 51
-0.659580 0.274957 1.156263 0.431193 0.156889 0.888515 0 0 0
-0.499100 0.927015 0.963246 0.431193 0.156889 0.888515 0 0 0
-0.659580 0.961715 1.034999 0.431193 0.156889 0.888515 0 0 0
-0.659580 0.010329 1.673282 0.252692 0.002871 0.967543 0 0 0
-0.499100 0.183533 1.630855 0.252692 0.002871 0.967543 0 0 0
-0.659580 0.240147 1.672600 0.252692 0.002871 0.967543 0 0 0
-0.659580 0.213084 0.961168 0.298363 0.390365 -0.870974 51 51 51
-0.499100 0.010035 0.925138 0.298363 0.390365 -0.870974 51 51 51
-0.659580 0.010035 0.870163 0.298363 0.390365 -0.870974 51 51 51
-0.659580 0.274957 1.156263 0.189076 0.860871 -0.472390 0 0 0
-0.499100 0.323121 1.308267 0.189076 0.860871 -0.472390 0 0 0
-0.576836 0.219429 1.088187 0.189076 0.860871 -0.472390 0 0 0
-0.820059 0.323121 1.308267 -0.189077 0.860871 -0.472390 0 0 0
-0.659580 0.274957 1.156263 -0.189077 0.860871 -0.472390 0 0 0
-0.742322 0.219429 1.088187 -0.189077 0.860871 -0.472390 0 0 0
-0.820059 0.010035 0.925138 -0.298364 0.390365 -0.870973 51 51 51
-0.659580 0.213084 0.961168 -0.298364 0.390365 -0.870973 51 51 51
-0.659580 0.010035 0.870163 -0.298364 0.390365 -0.870973 51 51 51
-0.820059 0.183533 1.630855 -0.252693 0.002871 0.967542 0 0 0
-0.659580 0.010329 1.673282 -0.252693 0.002871 0.967542 0 0 0
-0.659580 0.240147 1.672600 -0.252693 0.002871 0.967542 0 0 0
-0.820059 0.927015 0.963246 -0.431193 0.156889 0.888515 0 0 0
-0.659580 0.274957 1.156263 -0.431193 0.156889 0.888515 0 0 0
-0.659580 0.961715 1.034999 -0.431193 0.156889 0.888515 0 0 0
-0.820059 0.953214 0.725069 -0.516321 -0.359851 -0.777123 51 51 51
-0.659580 0.213084 0.961168 -0.516321 -0.359851 -0.777123 51 51 51
-0.742322 0.213084 1.016143 -0.516321 -0.359851 -0.777123 51 51 51
-0.763698 2.726632 1.359773 -0.142775 -0.187265 0.971878 0 0 0
-0.659580 0.961715 1.034999 -0.142775 -0.187265 0.971878 0 0 0
-0.404258 2.710591 1.409487 -0.142775 -0.187265 0.971878 0 0 0
-0.859956 0.019978 1.262518 0.000000 -0.999724 -0.023482 0 0 0
-0.859956 0.010329 1.673282 0.000000 -0.999724 -0.023482 0 0 0
-0.820059 0.183533 1.630855 -0.392757 0.844014 0.365216 0 0 0
-0.659580 0.375627 1.359507 -0.392757 0.844014 0.365216 0 0 0
-0.820059 0.323121 1.308267 -0.392757 0.844014 0.365216 0 0 0
-0.763698 2.379384 0.774934 -0.323735 0.045836 -0.945037 51 51 51
-0.659580 0.953214 0.670095 -0.323735 0.045836 -0.945037 51 51 51
-0.820059 0.953214 0.725069 -0.323735 0.045836 -0.945037 51 51 51
-0.820059 0.010035 0.925138 0.000000 -0.999566 0.029457 0 0 0
-0.859956 0.019978 1.262518 0.000000 -0.999566 0.029457 0 0 0
-0.763698 2.726632 1.359773 0.007471 0.859831 -0.510524 0 0 0
-0.404258 2.542077 1.054204 0.007471 0.859831 -0.510524 0 0 0
-0.763698 2.553008 1.067354 0.007471 0.859831 -0.510524 0 0 0
-0.763698 2.379384 0.774934 -0.075779 0.900922 -0.427314 0 0 0
-0.404258 2.542077 1.054204 -0.075779 0.900922 -0.427314 0 0 0
-0.404258 2.373564 0.698920 -0.075779 0.900922 -0.427314 0 0 0
-0.404258 2.542077 1.054204 0.075779 0.900922 -0.427314 0 0 0
-0.044819 2.379384 0.774934 0.075779 0.900922 -0.427314 0 0 0
-0.404258 2.373564 0.698920 0.075779 0.900922 -0.427314 0 0 0
-0.499100 0.940114 0.844158 0.993956 -0.109117 -0.012003 0 0 0
-0.576836 0.213084 1.016143 0.993956 -0.109117 -0.012003 0 0 0
-0.499100 0.953214 0.725069 0.993956 -0.109117 -0.012003 0 0 0
-0.044819 2.379384 0.774934 0.952638 -0.302283 -0.033250 0 0 0
-0.499100 0.940114 0.844158 0.952638 -0.302283 -0.033250 0 0 0
-0.499100 0.953214 0.725069 0.952638 -0.302283 -0.033250 0 0 0
-0.742322 0.213084 1.016143 -0.993957 -0.109117 -0.012003 0 0 0
-0.820059 0.940114 0.844158 -0.993957 -0.109117 -0.012003 0 0 0
-0.820059 0.953214 0.725069 -0.993957 -0.109117 -0.012003 0 0 0
-0.763698 2.379384 0.774934 -0.999021 0.038035 -0.022583 0 0 0
-0.820059 0.940114 0.844158 -0.999021 0.038035 -0.022583 0 0 0
-0.763698 2.553008 1.067354 -0.999021 0.038035 -0.022583 0 0 0
-0.763698 2.553008 1.067354 -0.999401 0.034399 0.003784 0 0 0
-0.820059 0.940114 0.844158 -0.999401 0.034399 0.003784 0 0 0
-0.820059 0.927015 0.963246 -0.999401 0.034399 0.003784 0 0 0
-0.742322 0.216256 1.052165 -0.994155 -0.107547 0.009472 0 0 0
-0.742322 0.219429 1.088187 -0.994155 -0.107547 0.009472 0 0 0
-0.820059 0.927015 0.963246 -0.994155 -0.107547 0.009472 0 0 0
-0.742322 0.213084 1.016143 -0.928437 0.370057 -0.032593 0 0 0
-0.820059 0.010035 0.925138 -0.928437 0.370057 -0.032593 0 0 0
-0.742322 0.219429 1.088187 -0.928437 0.370057 -0.032593 0 0 0
-0.742322 0.219429 1.088187 -0.897173 0.425448 -0.118633 0 0 0
-0.820059 0.010035 0.925138 -0.897173 0.425448 -0.118633 0 0 0
-0.859956 0.019978 1.262518 -0.897173 0.425448 -0.118633 0 0 0
-0.820059 0.183533 1.630855 -0.991061 0.122439 0.052981 0 0 0
-0.820059 0.323121 1.308267 -0.991061 0.122439 0.052981 0 0 0
-0.859956 0.019978 1.262518 -0.991061 0.122439 0.052981 0 0 0
-0.044819 2.553008 1.067354 0.947417 -0.275156 0.163374 0 0 0
-0.044819 2.726632 1.359773 0.947417 -0.275156 0.163374 0 0 0
-0.499100 0.927015 0.963246 0.947417 -0.275156 0.163374 0 0 0
-0.499100 0.927015 0.963246 0.994155 -0.107547 0.009472 0 0 0
-0.576836 0.219429 1.088187 0.994155 -0.107547 0.009472 0 0 0
-0.576836 0.216256 1.052165 0.994155 -0.107547 0.009472 0 0 0
-0.576836 0.213084 1.016143 0.000000 0.000000 0.000000 0 0 0
-0.576836 0.216256 1.052165 0.000000 0.000000 0.000000 0 0 0
-0.576836 0.219429 1.088187 0.000000 0.000000 0.000000 0 0 0
-0.459203 0.019978 1.262518 0.897173 0.425449 -0.118633 0 0 0
-0.499100 0.010035 0.925138 0.897173 0.425449 -0.118633 0 0 0
-0.576836 0.219429 1.088187 0.897173 0.425449 -0.118633 0 0 0
-0.459203 0.019978 1.262518 0.991061 0.122438 0.052981 0 0 0
-0.499100 0.323121 1.308267 0.991061 0.122438 0.052981 0 0 0
-0.499100 0.183533 1.630855 0.991061 0.122438 0.052981 0 0 0
-0.404258 2.542077 1.054204 -0.099105 0.899072 -0.426436 0 0 0
-0.404258 2.710591 1.409487 -0.099105 0.899072 -0.426436 0 0 0
-0.044819 2.726632 1.359773 -0.099105 0.899072 -0.426436 0 0 0
-0.659580 0.019978 1.262518 -0.008678 -0.999641 0.025332 0 0 0
-0.659580 0.010035 0.870163 -0.008678 -0.999641 0.025332 0 0 0
-0.499100 0.010035 0.925138 -0.008678 -0.999641 0.025332 0 0 0
-0.404258 2.373564 0.698920 0.207291 -0.031842 -0.977761 51 51 51
-0.044819 2.379384 0.774934 0.207291 -0.031842 -0.977761 51 51 51
-0.499100 0.953214 0.725069 0.207291 -0.031842 -0.977761 51 51 51
-0.659580 0.375627 1.359507 0.392756 0.844014 0.365217 0 0 0
-0.659580 0.240147 1.672600 0.392756 0.844014 0.365217 0 0 0
-0.499100 0.183533 1.630855 0.392756 0.844014 0.365217 0 0 0
-0.459203 0.019978 1.262518 -0.000000 -0.999724 -0.023482 0 0 0
-0.404258 2.710591 1.409487 0.351154 -0.244787 0.903753 0 0 0
-0.659580 0.961715 1.034999 0.351154 -0.244787 0.903753 0 0 0
-0.499100 0.927015 0.963246 0.351154 -0.244787 0.903753 0 0 0
-0.659580 0.213084 0.961168 0.303735 -0.348697 -0.886654 51 51 51
-0.659580 0.953214 0.670095 0.303735 -0.348697 -0.886654 51 51 51
-0.499100 0.953214 0.725069 0.303735 -0.348697 -0.886654 51 51 51
-0.659580 0.274957 1.156263 0.657987 0.060251 0.750615 0 0 0
-0.576836 0.219429 1.088187 0.657987 0.060251 0.750615 0 0 0
-0.499100 0.927015 0.963246 0.657987 0.060251 0.750615 0 0 0
-0.659580 0.010329 1.673282 0.000000 0.237918 0.971285 0 0 0
-0.459203 0.010329 1.673282 0.000000 0.237918 0.971285 0 0 0
-0.499100 0.183533 1.630855 0.000000 0.237918 0.971285 0 0 0
-0.659580 0.213084 0.961168 0.477625 0.505056 -0.718883 51 51 51
-0.576836 0.213084 1.016143 0.477625 0.505056 -0.718883 51 51 51
-0.499100 0.010035 0.925138 0.477625 0.505056 -0.718883 51 51 51
-0.659580 0.274957 1.156263 0.149761 0.885995 -0.438844 0 0 0
-0.659580 0.375627 1.359507 0.149761 0.885995 -0.438844 0 0 0
-0.499100 0.323121 1.308267 0.149761 0.885995 -0.438844 0 0 0
-0.820059 0.323121 1.308267 -0.149761 0.885995 -0.438844 0 0 0
-0.659580 0.375627 1.359507 -0.149761 0.885995 -0.438844 0 0 0
-0.659580 0.274957 1.156263 -0.149761 0.885995 -0.438844 0 0 0
-0.820059 0.010035 0.925138 -0.477626 0.505056 -0.718883 51 51 51
-0.742322 0.213084 1.016143 -0.477626 0.505056 -0.718883 51 51 51
-0.659580 0.213084 0.961168 -0.477626 0.505056 -0.718883 51 51 51
-0.820059 0.183533 1.630855 0.000000 0.237918 0.971285 0 0 0
-0.859956 0.010329 1.673282 0.000000 0.237918 0.971285 0 0 0
-0.820059 0.927015 0.963246 -0.657988 0.060251 0.750614 0 0 0
-0.742322 0.219429 1.088187 -0.657988 0.060251 0.750614 0 0 0
-0.659580 0.274957 1.156263 -0.657988 0.060251 0.750614 0 0 0
-0.820059 0.953214 0.725069 -0.303735 -0.348697 -0.886654 51 51 51
-0.659580 0.953214 0.670095 -0.303735 -0.348697 -0.886654 51 51 51
-0.659580 0.213084 0.961168 -0.303735 -0.348697 -0.886654 51 51 51
-0.763698 2.726632 1.359773 -0.366404 -0.189256 0.911005 0 0 0
-0.820059 0.927015 0.963246 -0.366404 -0.189256 0.911005 0 0 0
-0.659580 0.961715 1.034999 -0.366404 -0.189256 0.911005 0 0 0
-0.820059 0.183533 1.630855 -0.392757 0.844014 0.365217 0 0 0
-0.659580 0.240147 1.672600 -0.392757 0.844014 0.365217 0 0 0
-0.659580 0.375627 1.359507 -0.392757 0.844014 0.365217 0 0 0
-0.763698 2.379384 0.774934 -0.205688 0.056801 -0.976968 51 51 51
-0.404258 2.373564 0.698920 -0.205688 0.056801 -0.976968 51 51 51
-0.659580 0.953214 0.670095 -0.205688 0.056801 -0.976968 51 51 51
-0.820059 0.010035 0.925138 0.008678 -0.999641 0.025332 0 0 0
-0.659580 0.010035 0.870163 0.008678 -0.999641 0.025332 0 0 0
-0.659580 0.019978 1.262518 0.008678 -0.999641 0.025332 0 0 0
-0.763698 2.726632 1.359773 0.099105 0.899072 -0.426436 0 0 0
-0.404258 2.710591 1.409487 0.099105 0.899072 -0.426436 0 0 0
-0.404258 2.542077 1.054204 0.099105 0.899072 -0.426436 0 0 0
-0.763698 2.379384 0.774934 0.007471 0.859831 -0.510524 0 0 0
-0.044819 2.379384 0.774934 -0.007471 0.859831 -0.510524 0 0 0
-0.499100 0.940114 0.844158 0.994517 -0.104167 0.009174 0 0 0
-0.576836 0.216256 1.052165 0.994517 -0.104167 0.009174 0 0 0
-0.576836 0.213084 1.016143 0.994517 -0.104167 0.009174 0 0 0
-0.044819 2.379384 0.774934 0.941819 -0.289016 0.171603 0 0 0
-0.044819 2.553008 1.067354 0.941819 -0.289016 0.171603 0 0 0
-0.499100 0.940114 0.844158 0.941819 -0.289016 0.171603 0 0 0
-0.742322 0.213084 1.016143 -0.994518 -0.104167 0.009174 0 0 0
-0.742322 0.216256 1.052165 -0.994518 -0.104167 0.009174 0 0 0
-0.820059 0.940114 0.844158 -0.994518 -0.104167 0.009174 0 0 0
-0.763698 2.379384 0.774934 -0.999217 0.039337 0.004327 0 0 0
-0.820059 0.953214 0.725069 -0.999217 0.039337 0.004327 0 0 0
-0.820059 0.940114 0.844158 -0.999217 0.039337 0.004327 0 0 0
3 0 1 2
3 3 4 5
3 6 7 8
3 9 10 11
3 12 13 14
3 15 16 17
3 18 19 20
3 21 22 23
3 24 25 26
3 27 28 29
3 30 31 32
3 33 34 35
3 36 37 38
3 39 40 41
3 42 43 44
3 45 46 47
3 48 49 50
3 51 52 53
3 54 55 56
3 57 58 59
3 60 61 62
3 63 64 65
3 66 67 68
3 69 70 71
3 72 73 74
3 75 76 77
3 78 79 80
3 81 44 82
3 83 84 85
3 86 87 88
3 89 33 90
3 91 92 93
3 94 95 96
3 97 98 99
3 100 101 102
3 103 104 105
3 106 107 108
3 109 110 111
3 112 113 114
3 115 116 117
3 118 119 120
3 121 122 123
3 124 125 126
3 127 128 129
3 130 131 132
3 133 134 135
3 136 137 138
3 139 140 141
3 142 143 144
3 145 146 147
3 148 149 150
3 151 152 153
3 42 154 43
3 155 156 157
3 158 159 160
3 161 162 163
3 164 165 166
3 167 168 169
3 170 171 172
3 173 174 175
3 176 177 178
3 179 180 164
3 181 182 183
3 184 185 186
3 187 188 189
3 81 42 44
3 190 191 192
3 193 194 195
3 196 197 198
3 199 200 201
3 202 93 92
3 30 32 203
3 204 205 206
3 207 208 209
3 210 211 212
3 213 214 215
