ply
format ascii 1.0
comment Created by Blender 2.77 (sub 0) - www.blender.org, source file: 'Carpenter0-Colliders.blend'
element vertex 8
property float x
property float y
property float z
property float nx
property float ny
property float nz
element face 12
property list uchar uint vertex_indices
end_header
5.540102 0.472328 -3.889702 -0.577349 -0.577349 0.577349
5.540102 3.047576 -6.464950 -0.577319 0.577319 -0.577380
5.540102 0.472328 -6.464950 -0.577319 -0.577319 -0.577380
8.064601 0.472328 -6.464698 0.577380 -0.577349 -0.577288
8.064601 3.047576 -6.464698 0.577380 0.577349 -0.577288
8.064354 0.472328 -3.889702 0.577319 -0.577349 0.577349
8.064354 3.047576 -3.889702 0.577319 0.577349 0.577349
5.540102 3.047576 -3.889702 -0.577349 0.577349 0.577349
3 0 1 2
3 3 0 2
3 2 4 3
3 5 4 6
3 4 7 6
3 6 0 5
3 0 7 1
3 3 5 0
3 2 1 4
3 5 3 4
3 4 1 7
3 6 7 0
