ply
format ascii 1.0
comment Created by Blender 2.77 (sub 0) - www.blender.org, source file: 'Carpenter0-Colliders.blend'
element vertex 12
property float x
property float y
property float z
property float nx
property float ny
property float nz
element face 20
property list uchar uint vertex_indices
end_header
-13.337162 9.408907 -6.986994 -0.718406 0.292032 -0.631336
-13.337162 9.352171 -6.649880 -0.577349 -0.577319 0.577349
-13.337162 9.408907 -6.649880 -0.718406 0.292032 0.631336
-4.348912 9.408483 -6.649880 0.718375 0.292093 0.631336
-8.507352 13.676765 -6.986994 0.302103 0.716117 -0.629170
-8.507352 13.676765 -6.649880 0.302103 0.716117 0.629170
-4.348912 9.351748 -6.649880 0.577319 -0.577349 0.577319
-4.348912 9.408483 -6.986994 0.718375 0.292093 -0.631336
-9.180482 13.676765 -6.649880 -0.302164 0.716117 0.629170
-9.180482 13.676765 -6.986994 -0.302164 0.716117 -0.629170
-13.337162 9.352171 -6.986994 -0.577349 -0.577319 -0.577349
-4.348912 9.351748 -6.986994 0.577319 -0.577349 -0.577319
3 0 1 2
3 3 4 5
3 6 5 1
3 6 7 3
3 0 8 9
3 4 10 9
3 5 9 8
3 10 6 1
3 0 10 1
3 3 7 4
3 8 2 1
3 1 5 8
3 3 5 6
3 6 11 7
3 0 2 8
3 0 9 10
3 4 7 11
3 11 10 4
3 5 4 9
3 10 11 6
