ply
format ascii 1.0
comment Created by Blender 2.77 (sub 0) - www.blender.org, source file: 'Carpenter0-Colliders.blend'
element vertex 10
property float x
property float y
property float z
property float nx
property float ny
property float nz
element face 16
property list uchar uint vertex_indices
end_header
-3.009110 0.452777 -2.761220 -0.577319 -0.577349 -0.577349
-3.009201 7.939729 -1.841137 -0.577380 0.577319 0.577319
-3.009110 7.939729 -2.761220 -0.577319 0.577349 -0.577349
-2.089118 7.019250 -2.761220 0.718986 0.289315 -0.631886
-2.089208 0.452777 -1.841137 0.577319 -0.577349 0.577349
-2.089118 0.452777 -2.761220 0.577380 -0.577319 -0.577319
-2.089208 7.019250 -1.841137 0.718955 0.289315 0.631947
-3.009201 0.452777 -1.841137 -0.577380 -0.577319 0.577319
-2.973085 7.939729 -1.841137 0.304880 0.715445 0.628590
-2.973085 7.939729 -2.761220 0.304880 0.715476 -0.628590
3 0 1 2
3 2 3 0
3 4 0 5
3 4 3 6
3 1 7 6
3 2 8 9
3 9 6 3
3 0 7 1
3 5 0 3
3 2 9 3
3 4 7 0
3 4 5 3
3 4 6 7
3 8 1 6
3 2 1 8
3 9 8 6
