ply
format ascii 1.0
comment Created by Blender 2.77 (sub 0) - www.blender.org, source file: 'Carpenter0-Colliders.blend'
element vertex 8
property float x
property float y
property float z
property float nx
property float ny
property float nz
element face 12
property list uchar uint vertex_indices
end_header
-8.692167 6.300512 0.491812 0.577349 0.577349 -0.577349
-8.692167 5.953169 2.108753 0.577349 -0.577349 0.577349
-8.692167 5.953169 0.491812 0.577349 -0.577349 -0.577349
-8.692167 6.300512 2.108753 0.577349 0.577349 0.577349
-11.853858 5.953169 2.108753 -0.577349 -0.577349 0.577349
-11.853858 5.953169 0.491812 -0.577349 -0.577349 -0.577349
-11.853858 6.300512 0.491812 -0.577349 0.577349 -0.577349
-11.853858 6.300512 2.108753 -0.577349 0.577349 0.577349
3 0 1 2
3 3 4 1
3 1 5 2
3 4 6 5
3 5 0 2
3 6 3 0
3 0 3 1
3 3 7 4
3 1 4 5
3 4 7 6
3 5 6 0
3 6 7 3
