ply
format ascii 1.0
comment Created by Blender 2.77 (sub 0) - www.blender.org, source file: 'Carpenter0-Colliders.blend'
element vertex 23
property float x
property float y
property float z
property float nx
property float ny
property float nz
element face 42
property list uchar uint vertex_indices
end_header
14.622578 8.361570 8.561199 0.588855 0.629994 0.506272
14.500559 7.502309 8.622623 0.266091 -0.556108 0.787317
14.622578 7.502309 8.561199 0.646962 -0.517991 0.559526
14.192933 8.361570 8.683940 0.071261 0.685659 0.724418
14.746315 8.361570 8.008921 0.722678 0.688375 0.061922
14.746315 8.361570 7.579275 0.576739 0.577471 -0.577776
14.682728 8.361570 8.377142 0.701376 0.691153 0.174169
14.682728 7.502309 8.377142 0.806635 -0.557817 0.195288
-2.808948 7.502309 8.561199 -0.628773 -0.480087 0.611652
-2.808948 8.361570 7.640591 -0.578295 0.577532 -0.576189
-2.808948 7.502309 7.640591 -0.622120 -0.478683 -0.619495
14.500559 7.440746 8.438458 0.151097 -0.978729 0.138585
-2.686929 7.440746 8.438458 -0.181219 -0.968780 0.169134
13.885308 7.440746 7.579275 -0.001831 -0.705832 -0.708335
14.746315 7.502309 8.008921 0.801569 -0.594897 0.059694
14.746315 7.502309 7.579275 0.635701 -0.496109 -0.591357
14.500559 7.440746 7.579275 0.089694 -0.727165 -0.680563
-2.808948 8.361570 8.561199 -0.583056 0.579638 0.569201
-0.722596 7.502309 8.622623 -0.008332 -0.551439 0.834132
7.072868 7.502309 8.683940 -0.004517 -0.591266 0.806421
14.192933 7.502309 8.683940 0.070284 -0.592212 0.802698
-2.686929 7.440746 7.763439 -0.178594 -0.968596 -0.172948
14.500559 8.361570 8.622623 0.239235 0.678060 0.694968
3 0 1 2
3 3 4 5
3 6 2 7
3 8 9 10
3 11 12 13
3 7 11 14
3 4 15 5
3 14 16 15
3 17 18 19
3 16 13 5
3 19 18 12
3 20 11 1
3 18 8 12
3 11 2 1
3 21 10 13
3 11 19 12
3 22 20 1
3 7 4 6
3 21 8 10
3 0 22 1
3 6 4 3
3 5 9 3
3 17 3 9
3 22 0 6
3 6 3 22
3 6 0 2
3 8 17 9
3 21 13 12
3 16 11 13
3 7 2 11
3 4 14 15
3 14 11 16
3 19 20 3
3 3 17 19
3 8 18 17
3 9 5 13
3 15 16 5
3 13 10 9
3 11 20 19
3 22 3 20
3 7 14 4
3 21 12 8
