ply
format ascii 1.0
comment Created by Blender 2.77 (sub 0) - www.blender.org, source file: 'Carpenter0-Colliders.blend'
element vertex 8
property float x
property float y
property float z
property float nx
property float ny
property float nz
element face 12
property list uchar uint vertex_indices
end_header
-2.686274 0.323964 7.763403 -0.580126 -0.577899 -0.573962
14.498848 0.323964 8.438602 0.577319 -0.577349 0.577349
-2.686274 0.323964 8.438519 -0.577349 -0.577349 0.577319
14.498848 7.440746 7.579166 0.574511 0.576769 -0.580706
14.498848 7.440746 8.438602 0.577319 0.577349 0.577349
-2.686274 7.440746 7.763403 -0.580126 0.577899 -0.573962
-2.686274 7.440746 8.438519 -0.577349 0.577349 0.577319
14.498848 0.323964 7.579166 0.574511 -0.576769 -0.580706
3 0 1 2
3 1 3 4
3 3 0 5
3 4 5 6
3 1 6 2
3 5 2 6
3 0 7 1
3 1 7 3
3 3 7 0
3 4 3 5
3 1 4 6
3 5 0 2
