ply
format ascii 1.0
comment Created by Blender 2.77 (sub 0) - www.blender.org, source file: 'Carpenter0-Colliders.blend'
element vertex 8
property float x
property float y
property float z
property float nx
property float ny
property float nz
element face 12
property list uchar uint vertex_indices
end_header
2.218039 0.508121 7.957749 0.577349 -0.577349 0.577319
-2.213881 0.508121 4.431624 -0.577288 -0.577349 -0.577380
2.218039 0.508121 4.431624 0.577349 -0.577349 -0.577349
-2.213881 2.675768 4.431624 -0.577288 0.577349 -0.577380
-2.214314 0.508121 7.958094 -0.577349 -0.577319 0.577319
-2.214314 2.675768 7.958094 -0.577349 0.577319 0.577319
2.218039 2.675768 4.431624 0.577349 0.577349 -0.577349
2.218039 2.675768 7.957749 0.577349 0.577349 0.577319
3 0 1 2
3 3 4 5
3 1 6 2
3 7 4 0
3 6 0 2
3 7 3 5
3 0 4 1
3 3 1 4
3 1 3 6
3 7 5 4
3 6 7 0
3 7 6 3
