ply
format ascii 1.0
comment Created by Blender 2.77 (sub 0) - www.blender.org, source file: 'Carpenter0-Colliders.blend'
element vertex 8
property float x
property float y
property float z
property float nx
property float ny
property float nz
element face 12
property list uchar uint vertex_indices
end_header
-11.402461 7.981814 -7.147151 -0.577349 -0.577349 0.577349
-11.402461 8.668531 -10.631908 -0.577349 0.577349 -0.577349
-11.402461 7.981814 -10.631908 -0.577349 -0.577349 -0.577349
-10.968171 8.668531 -7.147151 0.577319 0.577349 0.577349
-10.968171 7.981814 -7.147151 0.577319 -0.577349 0.577349
-10.968128 8.668531 -10.631908 0.577349 0.577349 -0.577319
-10.968128 7.981814 -10.631908 0.577349 -0.577349 -0.577319
-11.402461 8.668531 -7.147151 -0.577349 0.577349 0.577349
3 0 1 2
3 3 0 4
3 2 5 6
3 4 2 6
3 4 5 3
3 1 3 5
3 0 7 1
3 3 7 0
3 2 1 5
3 4 0 2
3 4 6 5
3 1 7 3
