ply
format ascii 1.0
comment Created by Blender 2.77 (sub 0) - www.blender.org, source file: 'Carpenter0-Colliders.blend'
element vertex 10
property float x
property float y
property float z
property float nx
property float ny
property float nz
element face 16
property list uchar uint vertex_indices
end_header
-6.877263 8.621334 -6.649880 -0.577349 0.577349 0.577349
-6.877263 3.283705 -6.649880 -0.577349 -0.577349 0.577349
-2.607159 7.609818 -6.649880 0.719626 0.286142 0.632618
-2.607159 3.283705 -6.986994 0.577349 -0.577349 -0.577349
-2.607159 7.609818 -6.986994 0.719626 0.286142 -0.632618
-6.877263 3.283705 -6.986994 -0.577349 -0.577349 -0.577349
-6.877263 8.621334 -6.986994 -0.577349 0.577349 -0.577349
-3.562665 8.621334 -6.649880 0.308023 0.714713 0.627918
-3.562665 8.621334 -6.986994 0.308023 0.714713 -0.627918
-2.607159 3.283705 -6.649880 0.577349 -0.577349 0.577349
3 0 1 2
3 2 3 4
3 5 6 4
3 6 7 8
3 8 2 4
3 1 6 5
3 9 5 3
3 9 2 1
3 7 0 2
3 2 9 3
3 8 4 6
3 3 5 4
3 6 0 7
3 8 7 2
3 1 0 6
3 9 1 5
