ply
format ascii 1.0
comment Created by Blender 2.77 (sub 0) - www.blender.org, source file: 'Carpenter0-Colliders.blend'
element vertex 12
property float x
property float y
property float z
property float nx
property float ny
property float nz
element face 20
property list uchar uint vertex_indices
end_header
-10.637983 2.671734 -6.887263 -0.712973 -0.001465 0.701163
-10.637566 2.627902 -6.887418 -0.665670 -0.041719 0.745048
-5.757020 2.671410 -6.800094 0.494675 0.708914 0.502640
-10.638141 0.448953 -7.105756 -0.588794 -0.602496 0.538743
-2.662877 0.448838 -10.678774 0.798395 -0.253487 -0.546159
-2.662877 0.448838 -6.844141 0.796869 -0.265542 0.542650
-6.715497 3.281804 -10.678411 0.227790 0.728538 -0.645985
-10.637983 3.281804 -6.887263 -0.581469 0.578539 0.571978
-6.715497 3.281804 -6.887263 0.220038 0.775750 0.591388
-3.665348 1.186020 -6.800095 0.405713 0.537980 0.738884
-10.638142 0.448953 -10.678772 -0.577349 -0.577288 -0.577380
-10.637984 3.281804 -10.678411 -0.577319 0.577380 -0.577288
3 0 1 2
3 3 4 5
3 6 7 8
3 6 8 9
3 10 6 4
3 10 0 11
3 1 0 3
3 2 8 7
3 8 2 9
3 9 2 3
3 7 0 2
3 1 3 2
3 5 9 3
3 3 10 4
3 6 11 7
3 9 5 4
3 4 6 9
3 10 11 6
3 7 11 0
3 10 3 0
