ply
format ascii 1.0
comment Created by Blender 2.77 (sub 0) - www.blender.org, source file: 'Carpenter0-Colliders.blend'
element vertex 19
property float x
property float y
property float z
property float nx
property float ny
property float nz
element face 32
property list uchar uint vertex_indices
end_header
-14.967983 3.283705 -6.649880 -0.577349 -0.577349 0.577349
-14.967983 7.778056 -6.986994 -0.717277 0.297037 -0.630268
-14.967983 3.283705 -6.986994 0.000000 -0.707083 -0.707083
-14.968017 7.722365 -6.986993 0.577319 0.577349 -0.577349
-14.968017 3.283705 8.464037 0.576159 -0.577105 0.578753
-15.305065 7.440822 -6.986993 -0.717368 0.296609 -0.630360
-15.305065 3.283705 8.462525 -0.578509 -0.577563 0.575915
-15.305065 7.441257 8.462525 -0.718833 0.296731 0.628620
-15.024208 7.722365 -6.986993 -0.297555 0.717154 -0.630146
-14.968017 7.722365 8.464037 0.576830 0.576891 0.578265
-14.124913 8.621334 -6.986994 -0.297128 0.717246 -0.630238
-10.698298 8.621334 -6.649880 0.577349 0.577349 0.577349
-10.698298 8.621334 -6.986994 0.577349 0.577349 -0.577349
-15.024208 7.722365 8.464037 -0.297494 0.715384 0.632191
-10.698298 3.283705 -6.986994 0.577349 -0.577349 -0.577349
-10.698298 3.283705 -6.649880 0.577349 -0.577349 0.577349
-14.967983 7.778056 -6.649880 -0.717277 0.297037 0.630268
-15.305065 3.283705 -6.986993 -0.577349 -0.577349 -0.577349
-14.124913 8.621334 -6.649880 -0.297128 0.717246 0.630238
3 0 1 2
3 3 4 2
3 5 6 7
3 8 9 3
3 10 11 12
3 7 4 9
3 8 7 13
3 5 3 2
3 11 14 12
3 15 2 14
3 11 16 15
3 14 1 12
3 2 6 17
3 1 18 10
3 0 16 1
3 3 9 4
3 5 17 6
3 8 13 9
3 10 18 11
3 9 13 7
3 7 6 4
3 8 5 7
3 2 17 5
3 5 8 3
3 11 15 14
3 15 0 2
3 0 15 16
3 11 18 16
3 10 12 1
3 14 2 1
3 2 4 6
3 1 16 18
