ply
format ascii 1.0
comment Created by Blender 2.77 (sub 0) - www.blender.org, source file: 'Carpenter0-Colliders.blend'
element vertex 17
property float x
property float y
property float z
property float nx
property float ny
property float nz
element face 30
property list uchar uint vertex_indices
end_header
-0.808969 6.034966 -7.796840 0.732109 -0.172918 -0.658834
-1.122624 5.408057 9.281501 0.623127 -0.361827 0.693381
-1.122624 5.408057 -7.796840 0.623127 -0.361827 -0.693381
-0.808969 6.191922 -7.796840 0.719687 0.285897 -0.632679
-1.436279 5.173536 -7.796840 -0.319407 -0.711661 -0.625690
-8.720751 13.319711 9.281501 -0.607074 -0.413587 0.678518
-1.436279 5.173536 9.281501 -0.318491 -0.712058 0.625690
-0.808969 6.191922 9.281501 0.719260 0.287027 0.632618
-0.808969 6.034966 9.281501 0.732109 -0.172918 0.658834
-1.279061 5.173536 -7.796840 0.372051 -0.695425 -0.614734
-1.279061 5.173536 9.281501 0.372051 -0.695425 0.614734
-8.799751 13.476666 -7.796840 -0.721824 -0.273263 -0.635792
-8.799751 13.476666 9.281501 -0.732109 -0.173833 0.658589
-8.799751 14.495052 -7.796840 -0.577349 0.577349 -0.577349
-8.720751 14.495052 9.281501 0.305399 0.714927 0.628956
-8.799751 14.495052 9.281501 -0.577349 0.577349 0.577349
-8.642533 14.495052 -7.796840 0.308451 0.714835 -0.627552
3 0 1 2
3 3 2 4
3 5 6 7
3 3 8 0
3 6 9 10
3 10 2 1
3 11 5 12
3 4 5 11
3 12 13 11
3 14 13 15
3 7 16 14
3 0 8 1
3 4 11 3
3 13 16 11
3 3 0 2
3 2 9 4
3 11 16 3
3 8 7 1
3 14 15 12
3 12 5 14
3 6 10 1
3 1 7 6
3 14 5 7
3 3 7 8
3 6 4 9
3 10 9 2
3 4 6 5
3 12 15 13
3 14 16 13
3 7 3 16
