ply
format ascii 1.0
comment Created by Blender 2.77 (sub 0) - www.blender.org, source file: 'Carpenter0-Colliders.blend'
element vertex 16
property float x
property float y
property float z
property float nx
property float ny
property float nz
element face 28
property list uchar uint vertex_indices
end_header
-3.327122 7.991080 -2.541677 -0.058504 0.694266 0.717307
16.286951 7.991080 -2.541677 0.576495 0.582385 0.573077
-3.085094 7.909999 -7.566739 -0.529435 0.580187 -0.618854
16.286951 7.342780 -3.109308 0.685690 -0.562822 0.461562
16.286951 7.180531 -3.352298 0.648976 -0.725883 0.227699
-3.085094 7.099449 -7.566739 -0.531327 -0.594043 -0.603961
16.286951 7.099449 -7.566739 0.576342 -0.583361 -0.572253
-3.085094 7.180531 -3.352298 -0.315928 -0.909299 0.270730
-3.327122 7.909999 -2.541677 -0.084841 -0.398633 0.913175
-3.815113 7.909999 -2.622838 -0.697165 -0.395947 0.597613
-3.815113 7.991080 -2.622838 -0.617908 0.586505 0.523606
-2.599072 7.342780 -3.109308 -0.016633 -0.771996 0.635365
-3.815113 7.909999 -2.703998 -0.931578 -0.360912 -0.042970
16.286951 7.909999 -2.541677 0.630207 -0.297220 0.717246
-3.815113 7.991080 -2.703998 -0.718040 0.693381 -0.059877
16.286951 7.909999 -7.566739 0.578173 0.572222 -0.581530
3 0 1 2
3 1 3 4
3 4 5 6
3 7 8 9
3 8 10 9
3 11 4 3
3 12 2 5
3 1 8 13
3 9 14 12
3 5 15 6
3 11 13 8
3 7 12 5
3 2 14 0
3 10 0 14
3 1 15 2
3 4 6 15
3 15 1 4
3 13 3 1
3 4 7 5
3 7 11 8
3 8 0 10
3 11 7 4
3 12 14 2
3 1 0 8
3 9 10 14
3 5 2 15
3 11 3 13
3 7 9 12
