ply
format ascii 1.0
comment Created by Blender 2.77 (sub 0) - www.blender.org, source file: 'Carpenter0-Colliders.blend'
element vertex 12
property float x
property float y
property float z
property float nx
property float ny
property float nz
element face 20
property list uchar uint vertex_indices
end_header
-14.967983 7.778056 8.183122 -0.719199 0.293710 -0.629658
-9.180782 13.677612 8.464037 -0.300790 0.716422 0.629444
-9.180782 13.677612 8.183110 -0.300790 0.716422 -0.629444
-2.270046 7.272297 8.126925 0.716544 0.292581 -0.633198
-14.967983 3.284228 8.183122 -0.578509 -0.577563 -0.575945
-2.270046 3.283705 8.464037 0.577319 -0.577349 0.577319
-2.270046 3.283705 8.126925 0.576159 -0.577105 -0.578722
-14.967983 7.778056 8.464037 -0.718101 0.293405 0.631031
-2.270046 7.272297 8.464037 0.718406 0.291971 0.631367
-8.506731 13.677612 8.183110 0.300974 0.717765 -0.627827
-8.506731 13.677612 8.464037 0.302225 0.716086 0.629139
-14.967983 3.284228 8.464037 -0.577349 -0.577319 0.577349
3 0 1 2
3 3 4 0
3 5 4 6
3 4 7 0
3 6 8 5
3 9 1 10
3 8 9 10
3 7 8 10
3 0 7 1
3 0 2 9
3 9 3 0
3 6 4 3
3 5 11 4
3 4 11 7
3 6 3 8
3 9 2 1
3 8 3 9
3 10 1 7
3 7 11 8
3 5 8 11
