ply
format ascii 1.0
comment Created by Blender 2.77 (sub 0) - www.blender.org, source file: 'Carpenter0-Colliders.blend'
element vertex 8
property float x
property float y
property float z
property float nx
property float ny
property float nz
element face 12
property list uchar uint vertex_indices
end_header
-1.037351 4.301003 -1.780872 0.577349 -0.577319 -0.577319
-2.354015 4.301003 2.190324 -0.577410 -0.577349 0.577227
-2.354015 4.301003 -1.780872 -0.577349 -0.577349 -0.577349
-1.037480 6.222040 2.190712 0.577258 0.577319 0.577441
-1.037351 6.222040 -1.780872 0.577349 0.577319 -0.577319
-2.354015 6.222040 -1.780872 -0.577349 0.577349 -0.577349
-2.354015 6.222040 2.190324 -0.577410 0.577349 0.577227
-1.037480 4.301003 2.190712 0.577258 -0.577319 0.577441
3 0 1 2
3 3 0 4
3 1 5 2
3 2 4 0
3 4 6 3
3 3 1 7
3 0 7 1
3 3 7 0
3 1 6 5
3 2 5 4
3 4 5 6
3 3 6 1
