ply
format ascii 1.0
comment Created by Blender 2.77 (sub 0) - www.blender.org, source file: 'Carpenter0-Colliders.blend'
element vertex 8
property float x
property float y
property float z
property float nx
property float ny
property float nz
element face 12
property list uchar uint vertex_indices
end_header
13.483848 1.409764 7.664682 0.587725 0.577532 0.566576
12.923489 0.978629 7.675939 -0.566759 -0.577136 0.587909
13.483848 0.978629 7.664682 0.587725 -0.577532 0.566576
13.397629 0.978629 2.448421 0.566759 -0.577136 -0.587909
13.397629 1.409764 2.448421 0.566759 0.577136 -0.587909
12.837270 1.409764 2.459678 -0.587725 0.577532 -0.566576
12.923489 1.409764 7.675939 -0.566759 0.577136 0.587909
12.837270 0.978629 2.459678 -0.587725 -0.577532 -0.566576
3 0 1 2
3 0 3 4
3 0 5 6
3 1 5 7
3 2 7 3
3 4 7 5
3 0 6 1
3 0 2 3
3 0 4 5
3 1 6 5
3 2 1 7
3 4 3 7
