ply
format ascii 1.0
comment Created by Blender 2.77 (sub 0) - www.blender.org, source file: 'Carpenter0-Colliders.blend'
element vertex 10
property float x
property float y
property float z
property float nx
property float ny
property float nz
element face 16
property list uchar uint vertex_indices
end_header
-14.589021 0.003338 8.663452 0.577502 -0.577074 0.577441
-15.513740 0.002549 7.738551 -0.577074 -0.577624 -0.577319
-14.588930 0.003338 7.738551 0.577593 -0.577074 -0.577349
-15.513830 7.160685 8.663362 -0.717338 0.297098 0.630177
-15.513740 7.160685 7.738551 -0.717246 0.297098 -0.630268
-14.588930 8.066897 7.738551 0.577380 0.577319 -0.577319
-14.589021 8.066897 8.663452 0.577288 0.577319 0.577380
-14.607490 8.066897 7.738551 -0.297067 0.717277 -0.630268
-14.607490 8.066897 8.663452 -0.297067 0.717246 0.630299
-15.513830 0.002549 8.663362 -0.577166 -0.577593 0.577227
3 0 1 2
3 1 3 4
3 5 2 4
3 6 7 8
3 0 5 6
3 0 6 3
3 3 7 4
3 0 9 1
3 1 9 3
3 1 4 2
3 7 5 4
3 6 5 7
3 0 2 5
3 8 3 6
3 9 0 3
3 3 8 7
