ply
format ascii 1.0
comment Created by Blender 2.77 (sub 0) - www.blender.org, source file: 'Carpenter0-Colliders.blend'
element vertex 17
property float x
property float y
property float z
property float nx
property float ny
property float nz
element face 30
property list uchar uint vertex_indices
end_header
-16.006786 5.172624 9.281501 0.321848 -0.711020 0.625141
-16.790535 6.191026 9.281501 -0.719321 0.288522 0.631886
-16.398661 5.486539 9.281501 -0.552995 -0.468337 0.689047
-8.878752 14.416724 -7.796840 -0.305124 0.714225 -0.629871
-16.790535 6.191026 -7.796840 -0.718894 0.289621 -0.631855
-16.006786 5.172624 -7.796840 0.321024 -0.711386 -0.625172
-16.085005 5.172624 9.281501 -0.297250 -0.717246 0.630207
-16.085005 5.172624 -7.796840 -0.297250 -0.717246 -0.630207
-8.956970 13.162885 -7.796840 0.572649 -0.439650 -0.691916
-8.800533 13.398322 9.281501 0.722282 -0.271065 0.636219
-16.790535 6.034980 -7.796840 -0.728172 -0.233406 -0.644398
-16.790535 6.034980 9.281501 -0.728172 -0.233406 0.644398
-8.800533 14.495204 9.281501 0.577105 0.578784 0.576128
-8.878752 14.495204 9.281501 -0.306558 0.716422 0.626667
-8.800533 13.398322 -7.796840 0.729545 -0.220283 -0.647450
-16.398661 5.486539 -7.796840 -0.552995 -0.468337 -0.689047
-8.800533 14.416724 -7.796840 0.577563 0.575884 -0.578539
3 0 1 2
3 1 3 4
3 5 6 7
3 0 8 9
3 1 10 11
3 2 7 6
3 12 3 13
3 8 14 9
3 11 15 2
3 5 4 8
3 16 9 14
3 13 1 9
3 11 2 1
3 6 0 2
3 9 12 13
3 1 0 9
3 1 13 3
3 5 0 6
3 0 5 8
3 1 4 10
3 2 15 7
3 12 16 3
3 11 10 15
3 14 3 16
3 5 7 15
3 15 10 4
3 4 3 8
3 14 8 3
3 5 15 4
3 16 12 9
